<svg id="empty-state" xmlns="http://www.w3.org/2000/svg" xmlns:xlink="http://www.w3.org/1999/xlink" viewBox="0 0 201 200" shape-rendering="geometricPrecision" text-rendering="geometricPrecision"><ellipse id="empty-state-fundo" rx="100" ry="100" transform="matrix(1 0 0 1 100.5 100)" fill="rgb(233,237,240)" stroke="none" stroke-width="0" stroke-miterlimit="1"/><g id="empty-state-notebook" transform="matrix(0.51913 0 0 0.51913 48.087 47.869159)" opacity="0"><path id="empty-state-path1" d="M33.6389,141.059C33.6867,141.71,33.887,142.34,34.2237,142.899C34.5604,143.458,35.024,143.93,35.5769,144.277L89.8833,175.631C90.4839,175.936,91.1478,176.094,91.8213,176.094C92.4948,176.094,93.1588,175.936,93.7594,175.631L168.06,132.729C168.645,132.42,169.135,131.957,169.477,131.39C169.819,130.823,170,130.173,170,129.511C170,128.849,169.819,128.199,169.477,127.632C169.135,127.065,168.645,126.602,168.06,126.293L113.758,94.9613C113.157,94.6566,112.493,94.4978,111.82,94.4978C111.146,94.4978,110.482,94.6566,109.882,94.9613L35.5769,137.85C35.0252,138.195,34.5623,138.666,34.2257,139.223C33.8891,139.781,33.688,140.41,33.6389,141.059Z" fill="rgb(60,91,109)" stroke="none" stroke-width="1" stroke-miterlimit="1"/><path id="empty-state-path2" d="M56.0453,126.024L35.5769,137.85C34.9913,138.159,34.5011,138.622,34.1592,139.189C33.8172,139.756,33.6365,140.406,33.6365,141.068C33.6365,141.73,33.8172,142.38,34.1592,142.947C34.5011,143.514,34.9913,143.977,35.5769,144.286L89.8832,175.64C90.4805,175.952,91.1477,176.106,91.8213,176.087L91.8213,126.024L56.0453,126.024Z" fill="rgb(57,98,122)" stroke="none" stroke-width="1" stroke-miterlimit="1"/><path id="empty-state-path3" d="M31.8172,137.912C31.2778,137.545,30.8323,137.055,30.5167,136.484C30.201,135.912,30.024,135.275,30,134.622L30,69.8155C30.036,69.1429,30.2303,68.4884,30.5671,67.905C30.9039,67.3217,31.3736,66.8261,31.9381,66.4586L106.238,23.5569C106.799,23.2051,107.445,23.0128,108.107,23.0006C108.769,22.9884,109.422,23.1568,109.995,23.4877C110.569,23.8186,111.041,24.2995,111.362,24.8787C111.682,25.4579,111.839,26.1135,111.815,26.7751L111.815,91.5864C111.779,92.2589,111.584,92.9132,111.247,93.4964C110.911,94.0796,110.441,94.5753,109.877,94.9434L35.577,137.85C34.9992,138.154,34.3577,138.319,33.7046,138.33C33.0514,138.34,32.4049,138.197,31.8172,137.912Z" fill="rgb(105,138,157)" stroke="none" stroke-width="1" stroke-miterlimit="1"/><path id="empty-state-path4" d="M39.095,72.8278L30.5684,67.9043C30.2288,68.4852,30.0425,69.1428,30.0268,69.8155L30.0268,134.622C30.0508,135.275,30.2278,135.912,30.5435,136.484C30.8591,137.055,31.3046,137.544,31.844,137.912C32.4318,138.195,33.0779,138.336,33.7302,138.324C34.3825,138.312,35.0228,138.146,35.5993,137.841L44.0767,132.948L39.095,72.8278Z" fill="rgb(57,98,122)" stroke="none" stroke-width="1" stroke-miterlimit="1"/><path id="empty-state-path5" d="M33.6389,71.9193L33.6389,136.722C33.6389,137.957,34.5072,138.458,35.5769,137.841L109.877,94.9434C110.441,94.5754,110.91,94.0797,111.247,93.4965C111.584,92.9133,111.779,92.2589,111.815,91.5865L111.815,26.7797C111.815,25.5443,110.947,25.043,109.877,25.6607L35.5769,68.5624C35.0125,68.9299,34.5427,69.4255,34.206,70.0088C33.8692,70.5921,33.6749,71.2467,33.6389,71.9193Z" fill="rgb(60,91,109)" stroke="none" stroke-width="1" stroke-miterlimit="1"/><path id="empty-state-path6" d="M35.5769,140.088L89.8832,171.419C90.4838,171.724,91.1478,171.883,91.8213,171.883C92.4948,171.883,93.1588,171.724,93.7594,171.419L168.06,128.517C169.134,127.9,169.134,126.897,168.06,126.279L113.758,94.9479C113.157,94.6432,112.493,94.4844,111.82,94.4844C111.146,94.4844,110.482,94.6432,109.882,94.9479L35.5769,137.85C34.5027,138.458,34.5027,139.461,35.5769,140.088Z" fill="rgb(105,138,157)" stroke="none" stroke-width="1" stroke-miterlimit="1"/><path id="empty-state-path7" d="M36.6198,72.1565L108.839,30.4633C109.479,30.0918,110.002,30.3917,110.002,31.1347L110.002,87.2314C109.98,87.6349,109.863,88.0273,109.661,88.3772C109.459,88.7271,109.177,89.0245,108.839,89.2456L36.6198,130.939C35.9753,131.31,35.4561,131.01,35.4561,130.267L35.4561,74.1707C35.4776,73.767,35.5942,73.3741,35.7964,73.0241C35.9987,72.674,36.2808,72.3768,36.6198,72.1565Z" fill="rgb(255,255,255)" stroke="none" stroke-width="1" stroke-miterlimit="1"/><path id="empty-state-path8" d="M41.879,138.4L110.848,98.5643C111.149,98.4121,111.481,98.3328,111.817,98.3328C112.154,98.3328,112.486,98.4121,112.787,98.5643L116.318,100.601C116.435,100.64,116.536,100.716,116.608,100.816C116.68,100.916,116.719,101.037,116.719,101.16C116.719,101.284,116.68,101.404,116.608,101.504C116.536,101.605,116.435,101.68,116.318,101.72L47.3351,141.551C47.0348,141.703,46.7028,141.782,46.3661,141.782C46.0294,141.782,45.6974,141.703,45.3971,141.551L41.879,139.519C41.7621,139.479,41.6605,139.404,41.5886,139.304C41.5167,139.203,41.478,139.083,41.478,138.959C41.478,138.836,41.5167,138.716,41.5886,138.615C41.6605,138.515,41.7621,138.44,41.879,138.4Z" fill="rgb(57,98,122)" stroke="none" stroke-width="1" stroke-miterlimit="1"/><path id="empty-state-path9" d="M50.9741,143.668L119.939,103.833C120.24,103.68,120.573,103.601,120.91,103.601C121.248,103.601,121.58,103.68,121.882,103.833L143.576,116.365C143.693,116.405,143.795,116.48,143.867,116.581C143.939,116.681,143.977,116.801,143.977,116.925C143.977,117.048,143.939,117.169,143.867,117.269C143.795,117.369,143.693,117.444,143.576,117.484L74.6875,157.239C74.3863,157.392,74.0536,157.471,73.7162,157.471C73.3788,157.471,73.0461,157.392,72.7449,157.239L50.9741,144.765C50.8628,144.723,50.7669,144.648,50.6993,144.55C50.6317,144.452,50.5955,144.336,50.5955,144.217C50.5955,144.098,50.6317,143.981,50.6993,143.883C50.7669,143.786,50.8628,143.71,50.9741,143.668Z" fill="rgb(57,98,122)" stroke="none" stroke-width="1" stroke-miterlimit="1"/><path id="empty-state-path10" d="M112.795,121.736L114.957,120.487C115.047,120.434,115.042,120.349,114.957,120.291L112.46,118.849C112.406,118.822,112.347,118.807,112.287,118.807C112.227,118.807,112.168,118.822,112.115,118.849L109.958,120.098C109.864,120.152,109.868,120.237,109.958,120.295L112.455,121.736C112.508,121.763,112.566,121.777,112.625,121.777C112.684,121.777,112.743,121.763,112.795,121.736ZM108.534,116.813L106.377,118.062C106.283,118.111,106.287,118.2,106.377,118.258L108.875,119.7C108.928,119.727,108.987,119.742,109.047,119.742C109.107,119.742,109.166,119.727,109.219,119.7L111.381,118.451C111.471,118.397,111.466,118.308,111.381,118.254L108.879,116.813C108.826,116.785,108.767,116.771,108.707,116.771C108.647,116.771,108.588,116.785,108.534,116.813ZM101.561,120.841L97.9041,122.949C97.8146,123.003,97.819,123.092,97.9041,123.151L100.402,124.592C100.455,124.619,100.514,124.634,100.574,124.634C100.634,124.634,100.693,124.619,100.746,124.592L104.399,122.484C104.493,122.43,104.484,122.341,104.399,122.287L101.901,120.841C101.849,120.814,101.79,120.799,101.731,120.799C101.672,120.799,101.613,120.814,101.561,120.841ZM105.379,118.634L103.221,119.883C103.127,119.937,103.132,120.026,103.221,120.08L105.719,121.521C105.772,121.549,105.831,121.563,105.891,121.563C105.951,121.563,106.01,121.549,106.064,121.521L108.226,120.273C108.315,120.219,108.311,120.134,108.226,120.076L105.724,118.603C105.67,118.576,105.611,118.561,105.551,118.561C105.491,118.561,105.432,118.576,105.379,118.603L105.379,118.634ZM96.906,123.527L94.7486,124.771C94.6546,124.825,94.6635,124.914,94.7486,124.972L97.2461,126.414C97.2989,126.44,97.3572,126.454,97.4162,126.454C97.4752,126.454,97.5335,126.44,97.5863,126.414L99.7482,125.165C99.8377,125.111,99.8332,125.022,99.7482,124.968L97.2506,123.527C97.1973,123.499,97.1382,123.485,97.0783,123.485C97.0183,123.485,96.9592,123.499,96.906,123.527ZM93.7728,125.348L91.6154,126.597C91.5214,126.646,91.5304,126.736,91.6154,126.794L94.113,128.235C94.1663,128.263,94.2253,128.277,94.2853,128.277C94.3453,128.277,94.4043,128.263,94.4576,128.235L96.6195,126.987C96.709,126.933,96.7045,126.843,96.6195,126.79L94.0951,125.317C94.0418,125.29,93.9827,125.275,93.9228,125.275C93.8628,125.275,93.8037,125.29,93.7504,125.317L93.7728,125.348ZM103.597,131.212L105.755,129.963C105.849,129.909,105.84,129.824,105.755,129.766L103.257,128.325C103.205,128.297,103.146,128.283,103.087,128.283C103.028,128.283,102.97,128.297,102.917,128.325L100.755,129.574C100.666,129.627,100.67,129.712,100.755,129.771L103.253,131.212C103.305,131.232,103.361,131.241,103.416,131.237C103.472,131.233,103.526,131.217,103.575,131.189L103.597,131.212ZM100.437,133.033L102.599,131.785C102.689,131.735,102.684,131.646,102.599,131.588L100.102,130.147C100.048,130.119,99.9894,130.105,99.9294,130.105C99.8695,130.105,99.8104,130.119,99.7571,130.147L97.5997,131.395C97.5057,131.449,97.5147,131.539,97.5997,131.592L100.097,133.033C100.149,133.054,100.204,133.062,100.259,133.059C100.314,133.055,100.367,133.038,100.415,133.011L100.437,133.033ZM97.2819,134.855L99.4438,133.611C99.5333,133.557,99.5288,133.468,99.4438,133.409L96.9462,131.968C96.8926,131.942,96.8337,131.928,96.7739,131.928C96.7141,131.928,96.6552,131.942,96.6016,131.968L94.4442,133.217C94.3502,133.271,94.3592,133.36,94.4442,133.414L96.9373,134.855C96.9893,134.876,97.0452,134.884,97.1009,134.88C97.1567,134.877,97.2109,134.86,97.2595,134.833L97.2819,134.855ZM94.1488,136.677L96.3107,135.433C96.4002,135.379,96.3957,135.289,96.3107,135.231L93.8131,133.79C93.7598,133.762,93.7007,133.748,93.6408,133.748C93.5808,133.748,93.5217,133.762,93.4684,133.79L91.3111,135.034C91.2171,135.088,91.2215,135.177,91.3111,135.236L93.8086,136.677C93.9062,136.709,94.0124,136.701,94.104,136.654L94.1488,136.677ZM109.685,123.589L111.847,122.341C111.936,122.291,111.932,122.202,111.847,122.144L109.349,120.702C109.295,120.676,109.236,120.662,109.177,120.662C109.117,120.662,109.058,120.676,109.004,120.702L106.847,121.951C106.753,122.005,106.757,122.094,106.847,122.148L109.345,123.589C109.393,123.606,109.444,123.612,109.495,123.608C109.545,123.605,109.595,123.59,109.64,123.567L109.685,123.589ZM106.775,129.408L111.591,126.624C111.681,126.575,111.676,126.485,111.591,126.427L105.527,122.927C105.473,122.899,105.414,122.885,105.354,122.885C105.294,122.885,105.235,122.899,105.182,122.927L102.693,124.368C102.599,124.417,102.608,124.507,102.693,124.565L105.907,126.418C106.005,126.476,106.01,126.566,105.907,126.619L103.879,127.721C103.79,127.77,103.794,127.859,103.879,127.918L106.386,129.345C106.437,129.376,106.496,129.395,106.556,129.398C106.616,129.402,106.676,129.392,106.731,129.368L106.775,129.408ZM90.6397,127.17L88.4823,128.419C88.3883,128.473,88.3928,128.558,88.4823,128.616L90.9798,130.057C91.0331,130.084,91.0922,130.099,91.1522,130.099C91.2121,130.099,91.2712,130.084,91.3245,130.057L93.4863,128.808C93.5759,128.755,93.5714,128.669,93.4863,128.611L90.9888,127.17C90.9316,127.13,90.8646,127.107,90.795,127.103C90.7255,127.099,90.6562,127.115,90.5949,127.148L90.6397,127.17ZM87.5065,128.992L85.2775,130.241C85.188,130.294,85.1925,130.384,85.2775,130.437L87.7751,131.879C87.8284,131.906,87.8874,131.921,87.9474,131.921C88.0074,131.921,88.0664,131.906,88.1197,131.879L90.2816,130.63C90.3711,130.581,90.3666,130.491,90.2816,130.433L87.7661,128.978C87.7158,128.952,87.6604,128.938,87.6038,128.936C87.5472,128.935,87.491,128.946,87.4394,128.969L87.5065,128.992ZM71.6528,149.402C71.7061,149.429,71.7652,149.444,71.8251,149.444C71.8851,149.444,71.9442,149.429,71.9975,149.402L74.1593,148.153C74.2489,148.104,74.2444,148.014,74.1593,147.956L71.6528,146.524C71.5995,146.496,71.5404,146.482,71.4805,146.482C71.4205,146.482,71.3615,146.496,71.3082,146.524L69.1508,147.773C69.0568,147.826,69.0613,147.916,69.1508,147.97L71.6528,149.402ZM62.1773,143.547L60.0154,144.796C59.9259,144.85,59.9304,144.935,60.0154,144.993L62.513,146.434C62.5663,146.462,62.6254,146.476,62.6853,146.476C62.7453,146.476,62.8044,146.462,62.8576,146.434L65.0195,145.186C65.109,145.132,65.1045,145.047,65.0195,144.989L62.5219,143.547C62.4704,143.522,62.4137,143.509,62.3563,143.509C62.2989,143.509,62.2423,143.522,62.1907,143.547L62.1773,143.547ZM67.2575,147.822C67.3107,147.849,67.3698,147.864,67.4298,147.864C67.4897,147.864,67.5488,147.849,67.6021,147.822L69.7595,146.573C69.8535,146.524,69.8445,146.434,69.7595,146.376L67.2664,144.935C67.2131,144.907,67.154,144.893,67.0941,144.893C67.0341,144.893,66.9751,144.907,66.9218,144.935L64.7599,146.184C64.6704,146.237,64.6749,146.327,64.7599,146.381L67.2575,147.822ZM77.2253,150.507L79.3872,149.259C79.4767,149.205,79.4722,149.12,79.3872,149.062L76.8896,147.621C76.8364,147.593,76.7773,147.579,76.7173,147.579C76.6574,147.579,76.5983,147.593,76.545,147.621L74.3876,148.869C74.2936,148.919,74.3026,149.008,74.3876,149.066L76.8807,150.507C76.9353,150.538,76.9966,150.554,77.0592,150.555C77.1217,150.556,77.1834,150.541,77.2388,150.512L77.2253,150.507ZM73.7252,152.298C73.7785,152.325,73.8375,152.34,73.8975,152.34C73.9574,152.34,74.0165,152.325,74.0698,152.298L76.2317,151.049C76.3212,151,76.3167,150.91,76.2317,150.852L73.7341,149.411C73.6808,149.383,73.6217,149.369,73.5618,149.369C73.5018,149.369,73.4428,149.383,73.3895,149.411L71.2321,150.66C71.1381,150.713,71.1426,150.803,71.2321,150.857L73.7252,152.298ZM65.3328,141.699L63.1754,142.948C63.0814,142.997,63.0859,143.086,63.1754,143.145L65.673,144.586C65.7263,144.613,65.7854,144.628,65.8453,144.628C65.9053,144.628,65.9644,144.613,66.0176,144.586L68.1795,143.337C68.269,143.283,68.2645,143.194,68.1795,143.14L65.6819,141.699C65.6278,141.677,65.5692,141.668,65.5109,141.673C65.4526,141.677,65.3963,141.695,65.3462,141.726L65.3328,141.699ZM81.1149,132.59L78.953,133.835C78.8635,133.888,78.868,133.978,78.953,134.032L81.4506,135.477C81.5042,135.504,81.5632,135.518,81.6229,135.518C81.6827,135.518,81.7417,135.504,81.7952,135.477L83.9526,134.233C84.0466,134.179,84.0422,134.09,83.9526,134.032L81.4551,132.59C81.4021,132.57,81.3452,132.562,81.2886,132.566C81.232,132.571,81.1772,132.588,81.1283,132.617L81.1149,132.59ZM68.5197,139.904L66.3623,141.148C66.2683,141.202,66.2728,141.292,66.3623,141.35L68.8598,142.791C68.9134,142.817,68.9724,142.831,69.0322,142.831C69.0919,142.831,69.1509,142.817,69.2045,142.791L71.3664,141.542C71.4559,141.488,71.4514,141.399,71.3664,141.345L68.8688,139.9C68.8143,139.873,68.7543,139.86,68.6937,139.86C68.6331,139.861,68.5735,139.876,68.5197,139.904ZM84.3018,130.791L82.122,132.031C82.0325,132.085,82.0369,132.174,82.122,132.228L84.6196,133.669C84.6728,133.697,84.7319,133.711,84.7919,133.711C84.8518,133.711,84.9109,133.697,84.9642,133.669L87.1216,132.425C87.2156,132.371,87.2111,132.282,87.1216,132.223L84.633,130.8C84.5795,130.771,84.5201,130.756,84.4595,130.754C84.3989,130.753,84.3387,130.765,84.2839,130.791L84.3018,130.791ZM77.9907,134.439L75.8288,135.683C75.7393,135.737,75.7438,135.826,75.8288,135.885L78.3264,137.326C78.38,137.352,78.439,137.366,78.4987,137.366C78.5585,137.366,78.6175,137.352,78.6711,137.326L80.8285,136.082C80.9224,136.028,80.9135,135.938,80.8285,135.88L78.3354,134.439C78.2795,134.41,78.2172,134.394,78.1541,134.394C78.0909,134.394,78.0287,134.41,77.9728,134.439L77.9907,134.439ZM74.8307,136.261L72.6733,137.505C72.5793,137.559,72.5883,137.648,72.6733,137.706L75.1709,139.148C75.2245,139.174,75.2834,139.188,75.3432,139.188C75.403,139.188,75.4619,139.174,75.5155,139.148L77.6729,137.903C77.7624,137.85,77.758,137.76,77.6729,137.702L75.1754,136.261C75.1195,136.231,75.0573,136.216,74.9941,136.216C74.9309,136.216,74.8687,136.231,74.8128,136.261L74.8307,136.261ZM71.6528,138.082L69.4954,139.327C69.4014,139.38,69.4104,139.47,69.4954,139.528L71.9885,140.969C72.0418,140.997,72.1009,141.011,72.1608,141.011C72.2208,141.011,72.2799,140.997,72.3332,140.969L74.495,139.725C74.5845,139.671,74.5801,139.582,74.495,139.524L71.9975,138.082C71.9439,138.056,71.8849,138.042,71.8251,138.042C71.7654,138.042,71.7064,138.056,71.6528,138.082ZM87.7885,140.32L89.9459,139.076C90.0399,139.022,90.0354,138.933,89.9459,138.875L87.4439,137.402C87.3903,137.376,87.3313,137.362,87.2715,137.362C87.2118,137.362,87.1528,137.376,87.0992,137.402L84.9373,138.646C84.8478,138.7,84.8523,138.79,84.9373,138.848L87.4349,140.289C87.4891,140.32,87.5503,140.337,87.6128,140.339C87.6753,140.34,87.7373,140.326,87.793,140.298L87.7885,140.32ZM115.517,112.784L113.355,114.033C113.265,114.087,113.27,114.172,113.355,114.23L115.853,115.671C115.906,115.699,115.965,115.713,116.025,115.713C116.085,115.713,116.144,115.699,116.197,115.671L118.355,114.423C118.449,114.369,118.444,114.284,118.355,114.226L115.857,112.784C115.804,112.758,115.746,112.744,115.687,112.744C115.628,112.744,115.57,112.758,115.517,112.784ZM111.694,114.991L109.537,116.24C109.443,116.289,109.452,116.379,109.537,116.437L112.03,117.878C112.084,117.904,112.143,117.918,112.202,117.918C112.262,117.918,112.321,117.904,112.375,117.878L114.537,116.629C114.626,116.576,114.622,116.486,114.537,116.432L112.039,114.991C111.987,114.959,111.928,114.941,111.867,114.937C111.806,114.933,111.746,114.944,111.69,114.969L111.694,114.991ZM118.672,110.963L116.515,112.212C116.421,112.261,116.425,112.35,116.515,112.408L119.013,113.85C119.066,113.877,119.125,113.892,119.185,113.892C119.245,113.892,119.304,113.877,119.357,113.85L121.519,112.601C121.609,112.547,121.604,112.458,121.519,112.404L119.021,110.963C118.967,110.927,118.904,110.906,118.839,110.902C118.774,110.898,118.709,110.912,118.65,110.94L118.672,110.963ZM102.335,127.81L104.497,126.561C104.587,126.508,104.582,126.418,104.497,126.364L102,124.923C101.946,124.896,101.887,124.881,101.827,124.881C101.767,124.881,101.708,124.896,101.655,124.923L99.4975,126.172C99.4035,126.221,99.408,126.311,99.4975,126.369L101.995,127.81C102.049,127.833,102.107,127.842,102.166,127.839C102.224,127.835,102.28,127.817,102.331,127.788L102.335,127.81ZM122.173,109.15C122.119,109.123,122.06,109.108,122,109.108C121.94,109.108,121.881,109.123,121.828,109.15L119.67,110.399C119.576,110.448,119.581,110.538,119.67,110.596L122.168,112.037C122.222,112.063,122.281,112.077,122.34,112.077C122.4,112.077,122.459,112.063,122.513,112.037L124.675,110.788C124.764,110.734,124.76,110.645,124.675,110.591L122.173,109.15ZM90.9485,138.476L93.1104,137.232C93.1999,137.178,93.1954,137.089,93.1104,137.03L90.5994,135.612C90.5461,135.584,90.487,135.57,90.4271,135.57C90.3671,135.57,90.308,135.584,90.2547,135.612L88.0973,136.856C88.0033,136.91,88.0078,136.999,88.0973,137.057L90.5949,138.499C90.6514,138.523,90.7129,138.534,90.7744,138.53C90.8359,138.526,90.8955,138.508,90.9485,138.476ZM129.652,116.132L131.814,114.884C131.903,114.834,131.899,114.745,131.814,114.687L129.303,113.232C129.249,113.205,129.19,113.19,129.13,113.19C129.07,113.19,129.011,113.205,128.958,113.232L126.801,114.481C126.707,114.535,126.711,114.624,126.801,114.678L129.298,116.119C129.351,116.15,129.412,116.168,129.473,116.17C129.535,116.172,129.596,116.159,129.652,116.132ZM122.938,115.895L125.1,114.646C125.189,114.593,125.185,114.508,125.1,114.449L122.602,113.008C122.549,112.981,122.49,112.966,122.43,112.966C122.37,112.966,122.311,112.981,122.258,113.008L120.1,114.257C120.006,114.311,120.011,114.396,120.1,114.454L122.598,115.895C122.648,115.924,122.703,115.941,122.761,115.945C122.818,115.949,122.876,115.939,122.929,115.918L122.938,115.895ZM125.744,111.187C125.691,111.159,125.632,111.145,125.572,111.145C125.512,111.145,125.453,111.159,125.4,111.187L123.242,112.435C123.148,112.485,123.153,112.574,123.242,112.632L125.74,114.073C125.793,114.101,125.852,114.115,125.912,114.115C125.972,114.115,126.031,114.101,126.084,114.073L128.246,112.825C128.336,112.771,128.331,112.681,128.246,112.628L125.744,111.187ZM126.411,110.802L132.472,114.302C132.525,114.329,132.584,114.344,132.644,114.344C132.704,114.344,132.763,114.329,132.816,114.302L134.978,113.053C135.068,112.999,135.063,112.914,134.978,112.856L128.913,109.356C128.86,109.328,128.801,109.314,128.741,109.314C128.681,109.314,128.622,109.328,128.569,109.356L126.411,110.605C126.295,110.654,126.304,110.743,126.402,110.802L126.411,110.802ZM119.089,114.83L116.927,116.079C116.837,116.132,116.842,116.222,116.927,116.276L119.424,117.717C119.478,117.744,119.537,117.759,119.597,117.759C119.657,117.759,119.716,117.744,119.769,117.717L121.926,116.468C122.02,116.419,122.016,116.329,121.926,116.271L119.429,114.83C119.378,114.803,119.322,114.789,119.264,114.787C119.207,114.785,119.15,114.797,119.098,114.821L119.089,114.83ZM95.3349,128.544L93.1641,129.793C93.0746,129.847,93.079,129.936,93.1641,129.99L95.6616,131.431C95.7149,131.459,95.774,131.473,95.834,131.473C95.8939,131.473,95.953,131.459,96.0063,131.431L98.1637,130.182C98.2577,130.133,98.2532,130.044,98.1637,129.985L95.6661,128.544C95.6141,128.516,95.5562,128.501,95.4971,128.499C95.438,128.497,95.3794,128.51,95.326,128.535L95.3349,128.544ZM126.161,117.954C126.214,117.982,126.273,117.996,126.333,117.996C126.393,117.996,126.452,117.982,126.505,117.954L128.667,116.705C128.757,116.656,128.752,116.567,128.667,116.508L126.17,115.067C126.116,115.041,126.057,115.027,125.997,115.027C125.937,115.027,125.878,115.041,125.825,115.067L123.667,116.316C123.573,116.37,123.578,116.459,123.667,116.513L126.161,117.954ZM98.4904,126.722L96.333,127.971C96.239,128.025,96.2435,128.11,96.333,128.168L98.8306,129.609C98.8839,129.637,98.943,129.651,99.0029,129.651C99.0629,129.651,99.122,129.637,99.1752,129.609L101.337,128.361C101.427,128.307,101.422,128.222,101.337,128.164L98.8395,126.722C98.7853,126.691,98.7242,126.674,98.6616,126.673C98.5991,126.671,98.5372,126.685,98.4815,126.713L98.4904,126.722ZM74.8307,147.589C74.884,147.617,74.9431,147.631,75.003,147.631C75.063,147.631,75.1221,147.617,75.1754,147.589L77.3372,146.34C77.4268,146.287,77.4223,146.202,77.3372,146.143L74.8397,144.702C74.7864,144.675,74.7273,144.66,74.6673,144.66C74.6074,144.66,74.5483,144.675,74.495,144.702L72.3376,145.951C72.2436,146.005,72.2526,146.09,72.3376,146.148L74.8307,147.589ZM70.0862,143.113L67.9244,144.362C67.8349,144.416,67.8393,144.501,67.9244,144.559L70.4219,146C70.4752,146.028,70.5343,146.042,70.5943,146.042C70.6542,146.042,70.7133,146.028,70.7666,146L72.924,144.751C73.018,144.698,73.0135,144.613,72.924,144.555L70.4264,143.113C70.3726,143.085,70.3127,143.07,70.2519,143.07C70.191,143.07,70.1311,143.085,70.0773,143.113L70.0862,143.113ZM78.3354,145.767L80.4928,144.519C80.5823,144.465,80.5778,144.375,80.4928,144.322L77.9952,142.881C77.9419,142.853,77.8828,142.839,77.8229,142.839C77.7629,142.839,77.7038,142.853,77.6505,142.881L75.4708,144.116C75.3813,144.165,75.3857,144.255,75.4708,144.313L77.9683,145.754C78.0222,145.786,78.0831,145.804,78.1457,145.806C78.2082,145.809,78.2703,145.795,78.3264,145.767L78.3354,145.767ZM81.4909,143.946L83.6483,142.697C83.7423,142.643,83.7333,142.554,83.6483,142.5L81.1552,141.059C81.1019,141.031,81.0428,141.017,80.9829,141.017C80.9229,141.017,80.8638,141.031,80.8106,141.059L78.6487,142.303C78.5592,142.357,78.5636,142.446,78.6487,142.505L81.1462,143.946C81.201,143.974,81.2616,143.988,81.323,143.988C81.3845,143.988,81.4451,143.974,81.4998,143.946L81.4909,143.946ZM84.624,142.12L86.7814,140.875C86.8754,140.822,86.8709,140.732,86.7814,140.678L84.2839,139.233C84.2303,139.206,84.1713,139.192,84.1115,139.192C84.0518,139.192,83.9928,139.206,83.9392,139.233L81.7773,140.477C81.6878,140.531,81.6923,140.62,81.7773,140.678L84.2749,142.12C84.3299,142.149,84.3914,142.165,84.4539,142.165C84.5165,142.165,84.578,142.149,84.633,142.12L84.624,142.12ZM73.2194,141.292L71.0575,142.54C70.968,142.59,70.9725,142.679,71.0575,142.737L73.5551,144.179C73.6084,144.206,73.6674,144.22,73.7274,144.22C73.7874,144.22,73.8464,144.206,73.8997,144.179L76.0616,142.93C76.1511,142.876,76.1466,142.787,76.0616,142.733L73.564,141.292C73.5125,141.266,73.4558,141.253,73.3984,141.253C73.341,141.253,73.2844,141.266,73.2328,141.292L73.2194,141.292ZM76.3749,139.47L74.2175,140.714C74.1235,140.768,74.128,140.857,74.2175,140.916L76.7151,142.357C76.7687,142.383,76.8276,142.397,76.8874,142.397C76.9472,142.397,77.0061,142.383,77.0597,142.357L79.2619,141.117C79.3514,141.063,79.3469,140.974,79.2619,140.92L76.7643,139.479C76.7079,139.444,76.6435,139.426,76.5775,139.424C76.5115,139.422,76.4463,139.438,76.3883,139.47L76.3749,139.47ZM89.0015,132.183L86.8709,133.427C86.7814,133.481,86.7859,133.571,86.8709,133.629L89.3685,135.07C89.4221,135.096,89.4811,135.11,89.5408,135.11C89.6006,135.11,89.6596,135.096,89.7132,135.07L91.8705,133.826C91.9645,133.772,91.9556,133.682,91.8705,133.624L89.3775,132.183C89.3219,132.152,89.2596,132.136,89.1962,132.136C89.1328,132.136,89.0704,132.152,89.0149,132.183L89.0015,132.183ZM85.8415,134.005L83.6841,135.249C83.5946,135.303,83.599,135.392,83.6841,135.45L86.1817,136.892C86.2352,136.918,86.2942,136.932,86.354,136.932C86.4137,136.932,86.4727,136.918,86.5263,136.892L88.6837,135.647C88.7777,135.594,88.7687,135.504,88.6837,135.446L86.1861,134.005C86.1343,133.98,86.0778,133.968,86.0205,133.968C85.9633,133.968,85.9067,133.98,85.8549,134.005L85.8415,134.005ZM92.157,130.357L90.0041,131.606C89.9146,131.659,89.919,131.749,90.0041,131.803L92.5016,133.248C92.5552,133.275,92.6142,133.289,92.674,133.289C92.7337,133.289,92.7927,133.275,92.8463,133.248L95.0037,132C95.0977,131.95,95.0932,131.861,95.0037,131.803L92.5061,130.361C92.454,130.336,92.3969,130.322,92.3388,130.321C92.2807,130.32,92.2232,130.333,92.1704,130.357L92.157,130.357ZM79.5304,137.648L77.373,138.892C77.279,138.946,77.2835,139.036,77.373,139.094L79.8706,140.535C79.9242,140.562,79.9832,140.575,80.0429,140.575C80.1027,140.575,80.1617,140.562,80.2153,140.535L82.3771,139.286C82.4666,139.233,82.4622,139.143,82.3771,139.089L79.8796,137.644C79.8268,137.619,79.7693,137.607,79.7112,137.608C79.6531,137.609,79.5959,137.622,79.5439,137.648L79.5304,137.648ZM82.686,135.826L80.5286,137.071C80.4346,137.124,80.4435,137.214,80.5286,137.272L83.0261,138.713C83.0786,138.741,83.137,138.755,83.1962,138.755C83.2554,138.755,83.3138,138.741,83.3663,138.713L85.5282,137.469C85.6177,137.415,85.6132,137.326,85.5282,137.268L83.0306,135.826C82.9788,135.802,82.9222,135.789,82.865,135.789C82.8077,135.789,82.7512,135.802,82.6994,135.826L82.686,135.826ZM80.3853,148.69L82.5427,147.441C82.6322,147.388,82.6278,147.298,82.5427,147.245L80.0452,145.803C79.9919,145.776,79.9328,145.761,79.8728,145.761C79.8129,145.761,79.7538,145.776,79.7005,145.803L77.5431,147.052C77.4491,147.101,77.4581,147.191,77.5431,147.249L80.0407,148.69C80.0957,148.72,80.1572,148.736,80.2197,148.736C80.2822,148.736,80.3438,148.72,80.3988,148.69L80.3853,148.69ZM61.8774,146.801L59.3798,145.36C59.3266,145.333,59.2675,145.318,59.2075,145.318C59.1476,145.318,59.0885,145.333,59.0352,145.36L56.8823,146.618C56.7928,146.672,56.7972,146.757,56.8823,146.815L59.3798,148.256C59.4331,148.284,59.4922,148.298,59.5522,148.298C59.6121,148.298,59.6712,148.284,59.7245,148.256L61.8819,147.007C61.9804,146.967,61.9759,146.878,61.8774,146.801ZM66.604,148.189L64.1064,146.748C64.0536,146.721,63.9954,146.708,63.9363,146.708C63.8773,146.708,63.8191,146.721,63.7662,146.748L60.463,148.677C60.3735,148.731,60.378,148.82,60.463,148.874L62.9606,150.315C63.0139,150.342,63.0729,150.357,63.1329,150.357C63.1929,150.357,63.2519,150.342,63.3052,150.315L66.6264,148.399C66.7293,148.355,66.7025,148.265,66.604,148.207L66.604,148.189ZM58.046,144.013L55.5395,142.59C55.4862,142.562,55.4271,142.548,55.3672,142.548C55.3072,142.548,55.2481,142.562,55.1949,142.59L52.5451,144.116C52.4556,144.17,52.4601,144.259,52.5451,144.317L55.0427,145.759C55.096,145.786,55.155,145.8,55.215,145.8C55.275,145.8,55.334,145.786,55.3873,145.759L58.0415,144.228C58.149,144.179,58.1445,144.089,58.046,144.031L58.046,144.013ZM60.0826,142.836C60.1358,142.863,60.1949,142.878,60.2549,142.878C60.3148,142.878,60.3739,142.863,60.4272,142.836L62.5846,141.587C62.6786,141.538,62.6741,141.448,62.5846,141.39L60.087,139.949C60.0338,139.921,59.9747,139.907,59.9147,139.907C59.8548,139.907,59.7957,139.921,59.7424,139.949L57.5805,141.198C57.491,141.251,57.4955,141.341,57.5805,141.395L60.0826,142.836ZM71.0038,149.769L68.5197,148.346C68.4661,148.319,68.4071,148.305,68.3474,148.305C68.2876,148.305,68.2286,148.319,68.175,148.346L64.0214,150.745C63.9319,150.798,63.9363,150.888,64.0214,150.942L66.5189,152.387C66.5725,152.414,66.6315,152.428,66.6913,152.428C66.751,152.428,66.81,152.414,66.8636,152.387L71.0172,149.988C71.1068,149.935,71.1023,149.845,71.0038,149.787L71.0038,149.769ZM73.0762,152.692L70.5786,151.277C70.5253,151.25,70.4662,151.236,70.4063,151.236C70.3463,151.236,70.2872,151.25,70.234,151.277L67.5753,152.813C67.4857,152.866,67.4902,152.956,67.5753,153.014L70.0728,154.455C70.1264,154.482,70.1854,154.495,70.2451,154.495C70.3049,154.495,70.3639,154.482,70.4175,154.455L73.0762,152.92C73.1791,152.857,73.1746,152.768,73.0762,152.71L73.0762,152.692ZM83.5498,129.287C83.6031,129.315,83.6622,129.329,83.7221,129.329C83.7821,129.329,83.8412,129.315,83.8945,129.287L86.0518,128.043C86.1458,127.989,86.1369,127.9,86.0518,127.841L83.5543,126.4C83.5007,126.374,83.4417,126.36,83.382,126.36C83.3222,126.36,83.2632,126.374,83.2096,126.4L81.0522,127.667C80.9627,127.721,80.9672,127.81,81.0522,127.864L83.5498,129.287ZM77.2343,132.935C77.2879,132.961,77.3468,132.975,77.4066,132.975C77.4664,132.975,77.5253,132.961,77.5789,132.935L79.7408,131.691C79.8303,131.637,79.8258,131.547,79.7408,131.489L77.2432,130.048C77.1896,130.022,77.1307,130.008,77.0709,130.008C77.0112,130.008,76.9522,130.022,76.8986,130.048L74.7412,131.292C74.6472,131.346,74.6562,131.436,74.7412,131.494L77.2343,132.935ZM63.2381,141.032C63.2914,141.059,63.3505,141.074,63.4104,141.074C63.4704,141.074,63.5294,141.059,63.5827,141.032L65.7401,139.783C65.8341,139.729,65.8296,139.644,65.7401,139.586L63.2426,138.145C63.1893,138.118,63.1302,138.103,63.0702,138.103C63.0103,138.103,62.9512,138.118,62.8979,138.145L60.736,139.394C60.6465,139.447,60.651,139.533,60.736,139.591L63.2381,141.032ZM80.3943,131.136C80.4471,131.162,80.5053,131.176,80.5644,131.176C80.6234,131.176,80.6816,131.162,80.7345,131.136L82.8963,129.891C82.9858,129.838,82.9814,129.748,82.8963,129.69L80.3988,128.249C80.3455,128.221,80.2864,128.207,80.2264,128.207C80.1665,128.207,80.1074,128.221,80.0541,128.249L77.8967,129.493C77.8027,129.547,77.8117,129.636,77.8967,129.694L80.3943,131.136ZM74.0788,134.779C74.132,134.807,74.1911,134.821,74.2511,134.821C74.311,134.821,74.3701,134.807,74.4234,134.779L76.5853,133.535C76.6748,133.481,76.6703,133.392,76.5853,133.333L74.0877,131.892C74.0341,131.866,73.9752,131.852,73.9154,131.852C73.8556,131.852,73.7967,131.866,73.7431,131.892L71.5857,133.136C71.4917,133.19,71.4962,133.28,71.5857,133.338L74.0788,134.779ZM74.8083,152.947C74.7547,152.92,74.6958,152.907,74.636,152.907C74.5762,152.907,74.5173,152.92,74.4637,152.947L71.1426,154.858C71.053,154.912,71.0575,155.001,71.1426,155.059L73.6401,156.501C73.6934,156.528,73.7525,156.543,73.8124,156.543C73.8724,156.543,73.9315,156.528,73.9848,156.501L77.3059,154.585C77.3999,154.531,77.3909,154.442,77.3059,154.384L74.8083,152.947ZM69.5491,137.402C69.6027,137.428,69.6617,137.442,69.7215,137.442C69.7812,137.442,69.8402,137.428,69.8938,137.402L72.0556,136.153C72.1452,136.099,72.1407,136.01,72.0556,135.956L69.5581,134.515C69.5048,134.488,69.4457,134.473,69.3858,134.473C69.3258,134.473,69.2667,134.488,69.2134,134.515L67.056,135.764C66.9621,135.813,66.9665,135.903,67.056,135.961L69.5491,137.402ZM66.3936,139.192C66.4469,139.22,66.506,139.234,66.5659,139.234C66.6259,139.234,66.685,139.22,66.7383,139.192L68.9001,137.944C68.9896,137.89,68.9852,137.8,68.9001,137.747L66.4026,136.305C66.3493,136.278,66.2902,136.264,66.2302,136.264C66.1703,136.264,66.1112,136.278,66.0579,136.305L63.9005,137.554C63.8065,137.603,63.811,137.693,63.9005,137.751L66.3936,139.192ZM133.282,119.185C133.228,119.158,133.169,119.143,133.109,119.143C133.049,119.143,132.99,119.158,132.937,119.185L127.602,122.247C127.512,122.3,127.517,122.39,127.602,122.448L130.099,123.889C130.153,123.916,130.212,123.929,130.272,123.929C130.331,123.929,130.39,123.916,130.444,123.889L135.788,120.841C135.882,120.787,135.878,120.698,135.788,120.64L133.282,119.185ZM126.304,123.213C126.251,123.186,126.191,123.172,126.131,123.172C126.072,123.172,126.012,123.186,125.959,123.213L123.802,124.458C123.708,124.511,123.712,124.601,123.802,124.659L126.299,126.1C126.353,126.127,126.412,126.14,126.472,126.14C126.531,126.14,126.59,126.127,126.644,126.1L128.806,124.856C128.895,124.802,128.891,124.713,128.806,124.655L126.304,123.213ZM83.5543,146.869L85.7117,145.62C85.8057,145.566,85.7967,145.477,85.7117,145.423L83.2186,143.977C83.165,143.951,83.106,143.937,83.0463,143.937C82.9865,143.937,82.9275,143.951,82.8739,143.977L80.7121,145.221C80.6226,145.275,80.627,145.365,80.7121,145.423L83.2096,146.864C83.2629,146.891,83.3217,146.906,83.3814,146.907C83.4412,146.907,83.5003,146.894,83.5543,146.869ZM119.993,126.857C119.939,126.83,119.88,126.817,119.82,126.817C119.761,126.817,119.702,126.83,119.648,126.857L117.486,128.101C117.397,128.155,117.401,128.244,117.486,128.302L119.984,129.744C120.037,129.771,120.096,129.786,120.156,129.786C120.216,129.786,120.275,129.771,120.328,129.744L122.486,128.499C122.58,128.446,122.575,128.356,122.486,128.298L119.993,126.857ZM136.437,117.363C136.384,117.337,136.325,117.323,136.265,117.323C136.205,117.323,136.146,117.337,136.093,117.363L133.935,118.603C133.841,118.657,133.846,118.746,133.935,118.8L136.433,120.246C136.486,120.272,136.545,120.286,136.605,120.286C136.665,120.286,136.724,120.272,136.777,120.246L138.939,119.001C139.029,118.948,139.024,118.858,138.939,118.8L136.437,117.363ZM142.09,116.983L136.025,113.483C135.972,113.455,135.913,113.441,135.853,113.441C135.793,113.441,135.734,113.455,135.681,113.483L133.523,114.731C133.429,114.785,133.434,114.875,133.523,114.928L139.588,118.429C139.642,118.456,139.701,118.47,139.761,118.47C139.821,118.47,139.88,118.456,139.933,118.429L142.095,117.18C142.193,117.131,142.189,117.041,142.09,116.983ZM108.199,133.669C108.145,133.642,108.086,133.627,108.026,133.627C107.966,133.627,107.907,133.642,107.854,133.669L105.195,135.204C105.106,135.258,105.11,135.348,105.195,135.401L107.693,136.842C107.746,136.87,107.805,136.884,107.865,136.884C107.925,136.884,107.984,136.87,108.038,136.842L110.696,135.307C110.786,135.254,110.781,135.164,110.696,135.11L108.199,133.669ZM116.17,129.063C116.117,129.036,116.058,129.022,115.998,129.022C115.938,129.022,115.879,129.036,115.826,129.063L112.505,130.979C112.415,131.033,112.419,131.122,112.505,131.176L115.002,132.622C115.056,132.648,115.115,132.662,115.174,132.662C115.234,132.662,115.293,132.648,115.347,132.622L118.668,130.706C118.757,130.652,118.753,130.563,118.668,130.505L116.17,129.063ZM100.89,137.885C100.836,137.859,100.777,137.845,100.717,137.845C100.657,137.845,100.598,137.859,100.545,137.885L82.771,148.144C82.6815,148.198,82.686,148.287,82.771,148.346L85.2686,149.787C85.3222,149.813,85.3811,149.827,85.4409,149.827C85.5006,149.827,85.5596,149.813,85.6132,149.787L103.387,139.524C103.477,139.47,103.472,139.38,103.387,139.322L100.89,137.885ZM82.1175,148.726C82.0642,148.699,82.0051,148.684,81.9452,148.684C81.8852,148.684,81.8262,148.699,81.7729,148.726L79.1186,150.261C79.0247,150.315,79.0291,150.405,79.1186,150.458L81.6162,151.899C81.6695,151.927,81.7286,151.941,81.7885,151.941C81.8485,151.941,81.9076,151.927,81.9609,151.899L84.633,150.382C84.7225,150.328,84.718,150.239,84.633,150.185L82.1175,148.726ZM104.542,135.777C104.488,135.751,104.429,135.737,104.37,135.737C104.31,135.737,104.251,135.751,104.197,135.777L101.543,137.312C101.449,137.366,101.453,137.456,101.543,137.514L104.041,138.955C104.094,138.982,104.153,138.995,104.213,138.995C104.273,138.995,104.332,138.982,104.385,138.955L107.044,137.42C107.138,137.371,107.129,137.281,107.044,137.223L104.542,135.777ZM78.4652,150.83C78.4116,150.803,78.3526,150.79,78.2928,150.79C78.2331,150.79,78.1741,150.803,78.1205,150.83L75.4618,152.365C75.3723,152.419,75.3768,152.508,75.4618,152.566L77.9594,154.008C78.013,154.034,78.0719,154.048,78.1317,154.048C78.1915,154.048,78.2504,154.034,78.304,154.008L80.9583,152.477C81.0522,152.423,81.0478,152.334,80.9583,152.275L78.4652,150.83ZM111.851,131.552C111.797,131.526,111.738,131.512,111.679,131.512C111.619,131.512,111.56,131.526,111.506,131.552L108.852,133.083C108.758,133.136,108.763,133.226,108.852,133.284L111.35,134.725C111.403,134.752,111.462,134.766,111.522,134.766C111.582,134.766,111.641,134.752,111.694,134.725L114.353,133.19C114.447,133.136,114.438,133.047,114.353,132.989L111.851,131.552ZM123.148,125.031C123.095,125.003,123.036,124.989,122.976,124.989C122.916,124.989,122.857,125.003,122.804,125.031L120.646,126.275C120.552,126.329,120.557,126.418,120.646,126.476L123.144,127.918C123.197,127.944,123.256,127.958,123.316,127.958C123.376,127.958,123.435,127.944,123.488,127.918L125.65,126.673C125.74,126.619,125.735,126.53,125.65,126.472L123.148,125.031ZM130.064,120.009L132.221,118.764C132.315,118.711,132.31,118.621,132.221,118.563L129.723,117.122C129.67,117.095,129.611,117.081,129.551,117.081C129.491,117.081,129.432,117.095,129.379,117.122L127.217,118.37C127.127,118.424,127.132,118.514,127.217,118.567L129.714,120.013C129.769,120.04,129.828,120.054,129.889,120.054C129.95,120.054,130.009,120.04,130.064,120.013L130.064,120.009ZM115.964,119.946L118.126,118.697C118.216,118.643,118.211,118.554,118.126,118.5L115.629,117.059C115.575,117.031,115.516,117.017,115.456,117.017C115.396,117.017,115.337,117.031,115.284,117.059L113.127,118.308C113.033,118.361,113.042,118.446,113.127,118.505L115.62,119.946C115.673,119.973,115.732,119.988,115.792,119.988C115.852,119.988,115.911,119.973,115.964,119.946ZM108.803,132.313L115.114,128.669C115.204,128.616,115.199,128.526,115.114,128.468L112.616,127.027C112.563,127,112.504,126.987,112.444,126.987C112.384,126.987,112.325,127,112.272,127.027L105.961,130.675C105.871,130.724,105.876,130.813,105.961,130.872L108.458,132.313C108.513,132.337,108.573,132.347,108.633,132.344C108.693,132.34,108.751,132.321,108.803,132.29L108.803,132.313ZM126.563,121.853C126.617,121.879,126.676,121.893,126.736,121.893C126.795,121.893,126.854,121.879,126.908,121.853L129.065,120.608C129.159,120.555,129.155,120.465,129.065,120.407L126.568,118.966C126.515,118.938,126.455,118.924,126.396,118.924C126.336,118.924,126.277,118.938,126.223,118.966L124.061,120.21C123.972,120.264,123.976,120.353,124.061,120.411L126.563,121.853ZM123.341,119.798L125.498,118.554C125.592,118.5,125.588,118.411,125.498,118.352L123.001,116.911C122.947,116.885,122.888,116.871,122.828,116.871C122.768,116.871,122.71,116.885,122.656,116.911L120.494,118.16C120.405,118.214,120.409,118.303,120.494,118.357L122.992,119.803C123.048,119.826,123.109,119.835,123.169,119.831C123.23,119.826,123.289,119.807,123.341,119.776L123.341,119.798ZM105.647,134.121L107.805,132.872C107.899,132.819,107.89,132.734,107.805,132.675L105.307,131.234C105.254,131.207,105.195,131.192,105.135,131.192C105.075,131.192,105.016,131.207,104.963,131.234L102.792,132.478C102.698,132.532,102.707,132.617,102.792,132.675L105.289,134.117C105.347,134.15,105.413,134.167,105.48,134.166C105.547,134.165,105.613,134.147,105.67,134.112L105.647,134.121ZM119.585,125.868C119.639,125.894,119.698,125.908,119.758,125.908C119.818,125.908,119.876,125.894,119.93,125.868L122.092,124.623C122.181,124.57,122.177,124.48,122.092,124.422L119.594,122.981C119.541,122.954,119.482,122.94,119.422,122.94C119.362,122.94,119.303,122.954,119.25,122.981L117.092,124.229C116.998,124.283,117.003,124.373,117.092,124.426L119.585,125.868ZM89.8653,143.221L92.0227,141.976C92.1167,141.923,92.1122,141.833,92.0227,141.775L89.5252,140.334C89.4716,140.307,89.4126,140.294,89.3528,140.294C89.2931,140.294,89.2341,140.307,89.1805,140.334L87.0186,141.578C86.9291,141.632,86.9336,141.721,87.0186,141.779L89.5162,143.221C89.5704,143.248,89.6302,143.262,89.6908,143.262C89.7514,143.262,89.8112,143.248,89.8653,143.221ZM93.0209,141.399L95.1827,140.155C95.2722,140.101,95.2678,140.011,95.1827,139.953L92.6896,138.512C92.6363,138.485,92.5773,138.47,92.5173,138.47C92.4574,138.47,92.3983,138.485,92.345,138.512L90.1831,139.756C90.0936,139.81,90.0981,139.9,90.1831,139.958L92.6807,141.399C92.7337,141.425,92.7918,141.438,92.8508,141.438C92.9097,141.438,92.9678,141.425,93.0209,141.399ZM86.7098,145.042L88.8672,143.798C88.9612,143.744,88.9567,143.655,88.8672,143.597L86.3741,142.155C86.3205,142.129,86.2616,142.115,86.2018,142.115C86.142,142.115,86.0831,142.129,86.0295,142.155L83.8676,143.4C83.7781,143.453,83.7826,143.543,83.8676,143.601L86.3652,145.042C86.4184,145.07,86.4775,145.084,86.5375,145.084C86.5974,145.084,86.6565,145.07,86.7098,145.042ZM99.3319,137.756L101.494,136.511C101.583,136.458,101.579,136.368,101.494,136.31L98.9962,134.869C98.9426,134.842,98.8836,134.828,98.8239,134.828C98.7641,134.828,98.7052,134.842,98.6516,134.869L96.4942,136.117C96.4002,136.171,96.4046,136.261,96.4942,136.314L98.9917,137.756C99.0444,137.782,99.1027,137.796,99.1618,137.796C99.2209,137.796,99.2792,137.782,99.3319,137.756ZM96.1988,139.577L98.3606,138.333C98.4501,138.279,98.4457,138.19,98.3606,138.132L95.8228,136.69C95.7695,136.663,95.7104,136.649,95.6505,136.649C95.5905,136.649,95.5314,136.663,95.4781,136.69L93.3207,137.935C93.2267,137.988,93.2312,138.078,93.3207,138.132L95.8183,139.577C95.8736,139.606,95.935,139.621,95.9973,139.621C96.0596,139.621,96.121,139.606,96.1764,139.577L96.1988,139.577ZM102.51,135.934L104.672,134.685C104.761,134.636,104.757,134.546,104.672,134.488L102.174,133.047C102.121,133.019,102.062,133.005,102.002,133.005C101.942,133.005,101.883,133.019,101.829,133.047L99.6363,134.269C99.5423,134.323,99.5512,134.412,99.6363,134.466L102.129,135.907C102.182,135.941,102.242,135.961,102.305,135.966C102.368,135.971,102.43,135.96,102.487,135.934L102.51,135.934ZM116.949,108.975C117.002,109.003,117.061,109.017,117.121,109.017C117.181,109.017,117.24,109.003,117.294,108.975L119.456,107.727C119.545,107.677,119.541,107.588,119.456,107.53L118.793,107.145C118.74,107.118,118.681,107.105,118.621,107.105C118.561,107.105,118.502,107.118,118.449,107.145L116.287,108.389C116.197,108.443,116.202,108.532,116.287,108.59L116.949,108.975ZM101.422,119.001C101.475,119.029,101.535,119.043,101.594,119.043C101.654,119.043,101.714,119.029,101.767,119.001L103.924,117.757C104.018,117.703,104.014,117.614,103.924,117.556L101.427,116.115C101.373,116.088,101.314,116.074,101.254,116.074C101.195,116.074,101.136,116.088,101.082,116.115L98.9201,117.359C98.8306,117.413,98.8351,117.502,98.9201,117.56L101.422,119.001ZM107.733,115.358C107.787,115.385,107.846,115.398,107.906,115.398C107.965,115.398,108.024,115.385,108.078,115.358L110.24,114.114C110.329,114.06,110.325,113.971,110.24,113.912L107.742,112.471C107.689,112.444,107.63,112.429,107.57,112.429C107.51,112.429,107.451,112.444,107.397,112.471L105.222,113.715C105.128,113.769,105.133,113.859,105.222,113.917L107.733,115.358ZM97.5684,121.226C97.622,121.252,97.6809,121.266,97.7407,121.266C97.8005,121.266,97.8594,121.252,97.913,121.226L100.07,119.977C100.164,119.924,100.16,119.834,100.07,119.78L97.5729,118.335C97.5193,118.308,97.4603,118.294,97.4005,118.294C97.3408,118.294,97.2818,118.308,97.2282,118.335L95.0663,119.579C94.9768,119.633,94.9813,119.722,95.0663,119.78L97.5684,121.226ZM104.578,117.198C104.631,117.224,104.69,117.238,104.75,117.238C104.81,117.238,104.869,117.224,104.922,117.198L107.084,115.953C107.174,115.9,107.169,115.81,107.084,115.752L104.587,114.311C104.533,114.284,104.474,114.271,104.414,114.271C104.355,114.271,104.296,114.284,104.242,114.311L102.085,115.555C101.991,115.609,101.995,115.698,102.085,115.756L104.578,117.198ZM91.235,124.869C91.2882,124.897,91.3473,124.911,91.4073,124.911C91.4672,124.911,91.5263,124.897,91.5796,124.869L93.737,123.621C93.831,123.567,93.822,123.477,93.737,123.424L91.2439,121.982C91.1906,121.955,91.1315,121.941,91.0716,121.941C91.0116,121.941,90.9526,121.955,90.8993,121.982L88.7374,123.231C88.6479,123.28,88.6524,123.37,88.7374,123.428L91.235,124.869ZM94.3905,123.048C94.4441,123.074,94.503,123.088,94.5628,123.088C94.6226,123.088,94.6815,123.074,94.7351,123.048L96.8925,121.799C96.9865,121.745,96.982,121.656,96.8925,121.602L94.3994,120.161C94.3462,120.133,94.2871,120.119,94.2271,120.119C94.1672,120.119,94.1081,120.133,94.0548,120.161L91.8929,121.41C91.8034,121.459,91.8079,121.548,91.8929,121.606L94.3905,123.048ZM110.616,112.623C110.669,112.65,110.728,112.663,110.788,112.663C110.848,112.663,110.907,112.65,110.96,112.623L113.122,111.379C113.212,111.325,113.207,111.236,113.122,111.178L112.455,110.793C112.402,110.766,112.343,110.752,112.283,110.752C112.223,110.752,112.164,110.766,112.111,110.793L109.953,112.037C109.859,112.091,109.868,112.18,109.953,112.238L110.616,112.623ZM120.087,107.154C120.139,107.181,120.198,107.196,120.257,107.196C120.316,107.196,120.374,107.181,120.427,107.154L122.589,105.905C122.678,105.851,122.674,105.766,122.589,105.708L121.926,105.323C121.873,105.296,121.814,105.281,121.754,105.281C121.694,105.281,121.635,105.296,121.582,105.323L119.42,106.567C119.33,106.621,119.335,106.711,119.42,106.769L120.087,107.154ZM125.328,110.184C125.382,110.21,125.441,110.224,125.5,110.224C125.56,110.224,125.619,110.21,125.673,110.184L127.835,108.935C127.924,108.881,127.92,108.792,127.835,108.738L125.337,107.292C125.283,107.266,125.224,107.252,125.165,107.252C125.105,107.252,125.046,107.266,124.992,107.292L122.835,108.537C122.741,108.59,122.75,108.68,122.835,108.738L125.328,110.184ZM133.219,118.191L135.381,116.943C135.47,116.893,135.466,116.804,135.381,116.746L132.883,115.304C132.83,115.278,132.771,115.264,132.711,115.264C132.651,115.264,132.592,115.278,132.539,115.304L130.381,116.553C130.287,116.607,130.292,116.696,130.381,116.75L132.879,118.191C132.932,118.218,132.99,118.232,133.049,118.232C133.108,118.232,133.166,118.218,133.219,118.191ZM113.771,110.802C113.825,110.828,113.884,110.842,113.944,110.842C114.003,110.842,114.062,110.828,114.116,110.802L116.278,109.557C116.367,109.504,116.363,109.414,116.278,109.356L115.611,108.971C115.557,108.944,115.498,108.931,115.438,108.931C115.379,108.931,115.32,108.944,115.266,108.971L113.109,110.215C113.019,110.269,113.024,110.358,113.109,110.417L113.771,110.802ZM88.0794,126.691C88.1327,126.719,88.1918,126.733,88.2518,126.733C88.3117,126.733,88.3708,126.719,88.4241,126.691L90.5815,125.442C90.671,125.389,90.6665,125.304,90.5815,125.245L88.0839,123.804C88.0306,123.777,87.9715,123.762,87.9116,123.762C87.8516,123.762,87.7926,123.777,87.7393,123.804L85.5819,125.053C85.4924,125.107,85.4968,125.192,85.5819,125.25L88.0794,126.691Z" fill="rgb(105,138,157)" stroke="none" stroke-width="1" stroke-miterlimit="1"/><path id="empty-state-path11" d="M100.912,146.309L124.545,132.662L139.091,141.059L115.454,154.706L100.912,146.309Z" fill="rgb(57,98,122)" stroke="none" stroke-width="1" stroke-miterlimit="1"/></g><g id="empty-state-tela" transform="matrix(0.740065 0 0 0.740065 21.847888 22.520404)" opacity="0"><path id="empty-state-path12" d="M48.3781,77.5411L118.811,36.8774C120.185,36.0807,121.313,36.7342,121.313,38.3231L121.313,92.8712C121.291,93.2746,121.174,93.6671,120.971,94.0169C120.769,94.3668,120.488,94.6643,120.149,94.8853L47.9305,136.583C47.2904,136.95,46.7668,136.65,46.7668,135.912L46.7668,80.3296C46.7989,79.7713,46.9614,79.2282,47.2412,78.744C47.521,78.2598,47.9104,77.8478,48.3781,77.5411Z" fill="rgb(255,255,255)" stroke="none" stroke-width="1" stroke-miterlimit="1"/><path id="empty-state-path13" d="M121.336,39.6296L121.336,38.3226C121.336,36.7337,120.208,36.0847,118.833,36.8769L48.378,77.5406C47.9103,77.8473,47.521,78.2593,47.2412,78.7435C46.9614,79.2277,46.7989,79.7708,46.7667,80.3291L46.7667,82.67L121.336,39.6296Z" fill="rgb(119,156,179)" stroke="none" stroke-width="1" stroke-miterlimit="1"/><path id="empty-state-path14" d="M110.826,42.6066C110.575,42.7702,110.365,42.9909,110.215,43.2507C110.065,43.5104,109.978,43.802,109.962,44.1015C109.962,44.6521,110.347,44.8759,110.826,44.5984C111.077,44.4352,111.285,44.2151,111.434,43.9561C111.584,43.6971,111.67,43.4064,111.685,43.1079C111.685,42.5573,111.3,42.3335,110.826,42.6066Z" fill="rgb(255,255,255)" stroke="none" stroke-width="1" stroke-miterlimit="1"/><path id="empty-state-path15" d="M114.246,40.6326C113.995,40.7968,113.787,41.0177,113.637,41.2774C113.488,41.5372,113.402,41.8284,113.386,42.1276C113.386,42.6781,113.771,42.8975,114.246,42.6244C114.497,42.4608,114.706,42.2401,114.856,41.9803C115.007,41.7206,115.093,41.429,115.109,41.1295C115.109,40.5789,114.725,40.3551,114.246,40.6326Z" fill="rgb(255,255,255)" stroke="none" stroke-width="1" stroke-miterlimit="1"/><path id="empty-state-path16" d="M117.67,38.6542C117.419,38.8186,117.21,39.0395,117.06,39.2991C116.91,39.5587,116.823,39.8498,116.806,40.1491C116.806,40.6997,117.195,40.9235,117.67,40.646C117.921,40.483,118.13,40.2631,118.28,40.0041C118.43,39.7451,118.517,39.4544,118.534,39.1555C118.534,38.6049,118.144,38.3811,117.67,38.6542Z" fill="rgb(255,255,255)" stroke="none" stroke-width="1" stroke-miterlimit="1"/></g><g id="empty-state-lupa" transform="matrix(1 0 0 1 -25.390422 18.220028)" opacity="0"><path id="empty-state-path17" d="M64.159,109.377L61.4185,107.795L54.7068,119.42L57.4473,121.002L64.159,109.377Z" fill="rgb(55,71,79)" stroke="none" stroke-width="1" stroke-miterlimit="1"/><path id="empty-state-path18" d="M64.1644,109.373L62.7961,108.583L56.0844,120.208L57.4528,120.998L64.1644,109.373Z" fill="rgb(38,50,56)" stroke="none" stroke-width="1" stroke-miterlimit="1"/><path id="empty-state-path19" d="M47.3486,142.12C46.0998,144.291,40.1872,140.844,41.4315,138.705L56.851,114.656C56.8925,114.59,56.9576,114.544,57.0327,114.525C57.1077,114.507,57.1869,114.518,57.2538,114.557L60.3512,116.347C60.4179,116.385,60.4673,116.447,60.489,116.521C60.5107,116.594,60.503,116.673,60.4675,116.741L47.3486,142.12Z" fill="rgb(125,152,168)" stroke="none" stroke-width="1" stroke-miterlimit="1"/><path id="empty-state-path20" d="M47.3486,142.119L60.4631,116.741C60.4986,116.673,60.5063,116.594,60.4846,116.52C60.4628,116.447,60.4134,116.385,60.3467,116.347L58.9368,115.532L43.9022,142.258C45.2718,142.934,46.7847,143.1,47.3486,142.119Z" opacity="0.1" fill="rgb(0,0,0)" stroke="none" stroke-width="1" stroke-miterlimit="1"/><path id="empty-state-path21" d="M92.6897,85.5039C92.6897,85.3204,92.6897,85.1414,92.6628,84.9623C92.636,84.7833,92.6628,84.6087,92.6226,84.4342C92.5823,84.2596,92.6226,84.2014,92.5867,84.0851C92.5554,83.7807,92.5107,83.4808,92.4614,83.1899C92.439,83.0601,92.4167,82.9258,92.3898,82.796C92.3629,82.6662,92.3406,82.5498,92.3137,82.429C92.2376,82.0977,92.1571,81.7755,92.0631,81.4666C92.0138,81.3189,91.9691,81.1712,91.9198,81.019C91.9104,80.9974,91.9029,80.9749,91.8974,80.9519C91.8437,80.8087,91.7945,80.6699,91.7408,80.5356C91.6871,80.4014,91.6155,80.2223,91.5439,80.0881C91.4722,79.9538,91.4454,79.8687,91.3872,79.7613C91.3547,79.6807,91.3158,79.6029,91.2708,79.5286C91.2261,79.4346,91.1768,79.3406,91.1231,79.2511C91.0694,79.1615,91.1007,79.2063,91.0873,79.1884C91.0739,79.1705,90.9933,79.0273,90.9441,78.9467C90.8948,78.8661,90.8769,78.8438,90.8456,78.7945C90.6162,78.4332,90.3588,78.0905,90.0758,77.7695L89.9325,77.6084L89.8117,77.4831C89.7624,77.4294,89.7087,77.3801,89.655,77.3264C89.5144,77.1787,89.365,77.0397,89.2074,76.9102C89.1313,76.843,89.0508,76.7803,88.9702,76.7222L88.724,76.5431C88.5961,76.4494,88.4631,76.3627,88.3257,76.2835L88.2182,76.2164L88.1959,76.2164L81.8535,72.5551L81.8177,72.5327C80.6009,71.8541,79.2272,71.5068,77.8341,71.5256C75.7573,71.5256,73.4119,72.206,70.9278,73.6383C62.3967,78.5618,55.4769,90.5483,55.4769,100.404C55.4769,105.328,57.1957,108.774,59.9752,110.395L60.0021,110.395L66.3489,114.051L66.3758,114.051L66.4519,114.092C66.5709,114.162,66.6934,114.226,66.8189,114.284C66.9711,114.36,67.1277,114.427,67.2665,114.49C67.4052,114.553,67.5484,114.602,67.6917,114.647L67.92,114.714C67.9999,114.744,68.0822,114.768,68.1661,114.785C68.2486,114.81,68.3322,114.831,68.4168,114.848C68.4769,114.866,68.5383,114.879,68.6003,114.888C68.7077,114.911,68.8241,114.933,68.936,114.947C68.9612,114.951,68.9869,114.951,69.0121,114.947C69.1464,114.97,69.2806,114.988,69.4149,115C71.7155,115.242,74.3921,114.593,77.2567,112.941C85.7923,108.018,92.7121,96.0268,92.7121,86.1753C92.6897,85.9694,92.6897,85.7367,92.6897,85.5039ZM82.3369,78.5349C82.6721,79.7597,82.8363,81.0249,82.8248,82.2947C82.8248,90.9869,76.4645,101.989,68.9494,106.348C67.8509,107.001,66.6647,107.494,65.4269,107.812C65.0936,106.585,64.9294,105.319,64.939,104.048C64.939,95.3554,71.2993,84.3536,78.8143,79.9941C79.9088,79.3435,81.0904,78.8521,82.3235,78.5349L82.3369,78.5349Z" fill="rgb(125,152,168)" stroke="none" stroke-width="1" stroke-miterlimit="1"/><path id="empty-state-path22" d="M66.0893,113.926L59.926,110.372C57.1465,108.748,55.4277,105.292,55.4277,100.387C55.4277,95.9912,56.8063,91.1751,59.0845,86.7529L65.4314,90.4053C63.1487,94.8275,61.7746,99.6436,61.7746,104.039C61.7746,108.855,63.4127,112.261,66.0893,113.926Z" opacity="0.1" fill="rgb(0,0,0)" stroke="none" stroke-width="1" stroke-miterlimit="1"/><path id="empty-state-path23" d="M92.6896,85.5039C92.6896,85.3204,92.6896,85.1414,92.6628,84.9623C92.6359,84.7833,92.6628,84.6087,92.6225,84.4342C92.5822,84.2596,92.6225,84.2014,92.5867,84.085C92.5554,83.7807,92.5106,83.4808,92.4614,83.1899C92.439,83.0601,92.4166,82.9258,92.3898,82.796C92.3629,82.6662,92.3405,82.5498,92.3137,82.4289C92.2376,82.0977,92.157,81.7755,92.063,81.4666C92.0138,81.3189,91.969,81.1712,91.9198,81.019C91.9103,80.9974,91.9028,80.9749,91.8974,80.9519C91.8437,80.8087,91.7945,80.6699,91.7407,80.5356C91.687,80.4014,91.6154,80.2223,91.5438,80.088C91.4722,79.9538,91.4453,79.8687,91.3871,79.7613C91.3547,79.6807,91.3158,79.6029,91.2708,79.5286C91.226,79.4346,91.1768,79.3406,91.1231,79.251C91.0694,79.1615,91.1007,79.2063,91.0873,79.1884C91.0738,79.1705,90.9933,79.0272,90.944,78.9467C90.8948,78.8661,90.8769,78.8437,90.8456,78.7945C90.6162,78.4332,90.3588,78.0905,90.0757,77.7695L89.9325,77.6084L89.8116,77.4831C89.7624,77.4293,89.7087,77.3801,89.655,77.3264C89.5144,77.1787,89.3649,77.0396,89.2074,76.9101C89.1313,76.843,89.0507,76.7803,88.9702,76.7221L88.724,76.5431C88.5961,76.4493,88.4631,76.3627,88.3256,76.2835C85.5192,74.5782,81.6117,74.7796,77.2656,77.2816C68.73,82.2052,61.8103,94.1917,61.8103,104.048C61.8103,109.038,63.6006,112.525,66.4429,114.11C66.5619,114.18,66.6844,114.244,66.8099,114.302C66.9621,114.378,67.1187,114.445,67.2575,114.508C67.3962,114.571,67.5395,114.62,67.6827,114.665L67.911,114.732C67.9909,114.762,68.0732,114.786,68.1571,114.803C68.2396,114.828,68.3232,114.849,68.4078,114.866C68.4679,114.884,68.5293,114.897,68.5913,114.906C68.6987,114.929,68.8151,114.951,68.927,114.964C68.9522,114.969,68.9779,114.969,69.0031,114.964C69.1374,114.988,69.2716,115.006,69.4059,115.018C71.7065,115.26,74.3831,114.611,77.2477,112.959C85.7833,108.036,92.7031,96.0447,92.7031,86.1932C92.6896,85.9694,92.6896,85.7367,92.6896,85.5039ZM75.6811,110.26C73.7655,111.366,71.9214,111.948,70.3459,111.948C67.3873,111.948,66.0266,109.929,65.4223,107.812C65.089,106.585,64.9249,105.319,64.9345,104.048C64.9345,95.3554,71.2947,84.3536,78.8098,79.9941C79.9085,79.3423,81.0946,78.8509,82.3324,78.5349C82.9183,78.3897,83.5191,78.3131,84.1227,78.3066C89.0149,78.3066,89.5386,83.8299,89.5386,86.2066C89.5565,94.881,83.1962,105.914,75.6811,110.26Z" opacity="0.4" fill="rgb(255,255,255)" stroke="none" stroke-width="1" stroke-miterlimit="1"/><path id="empty-state-path24" d="M89.5565,86.2066C89.5565,94.8989,83.2007,105.901,75.6812,110.26C73.7655,111.366,71.9214,111.948,70.3459,111.948C67.3873,111.948,66.0266,109.929,65.4224,107.812C66.6602,107.494,67.8464,107.001,68.9449,106.348C76.4734,102.002,82.8203,90.9869,82.8203,82.2947C82.8318,81.0249,82.6676,79.7597,82.3324,78.5349C82.9183,78.3897,83.5192,78.3131,84.1228,78.3066C89.0284,78.3201,89.5565,83.8299,89.5565,86.2066Z" opacity="0.1" fill="rgb(0,0,0)" stroke="none" stroke-width="1" stroke-miterlimit="1"/><path id="empty-state-path25" d="M86.871,84.6893C86.871,93.3816,80.5152,104.383,72.9956,108.743C71.0799,109.848,69.2359,110.43,67.6603,110.43C67.3469,110.431,67.034,110.406,66.7249,110.354C66.12,109.607,65.6793,108.741,65.4313,107.812C65.098,106.585,64.9339,105.319,64.9434,104.048C64.9434,95.3554,71.3037,84.3536,78.8188,79.9941C79.9174,79.3423,81.1036,78.8509,82.3414,78.5349C82.9273,78.3897,83.5281,78.3131,84.1317,78.3067C84.4466,78.3059,84.761,78.3313,85.0717,78.3827C86.6203,80.2044,86.871,83.1272,86.871,84.6893Z" opacity="0.7" fill="rgb(255,255,255)" stroke="none" stroke-width="1" stroke-miterlimit="1"/></g><g id="empty-state-barra" transform="matrix(1 0 0 1 22.312199 -11.599344)" opacity="0"><path id="empty-state-path26" d="M97.6893,75.6339L97.6893,85.5436C97.6893,86.2866,98.213,86.5865,98.853,86.215L163.799,48.7202C164.137,48.4992,164.418,48.2017,164.621,47.8518C164.823,47.502,164.94,47.1095,164.962,46.706L164.962,36.7829C164.962,36.0399,164.439,35.74,163.799,36.1115L98.853,73.6063C98.5133,73.8289,98.2308,74.1286,98.0286,74.4809C97.8264,74.8332,97.7102,75.2282,97.6893,75.6339Z" fill="rgb(253,253,253)" stroke="rgb(228,228,228)" stroke-width="1" stroke-opacity="0.5" stroke-miterlimit="1"/><path id="empty-state-path27" d="M98.853,73.6065L110.419,66.9329L110.419,79.5281L98.853,86.2017C98.213,86.5732,97.6893,86.2733,97.6893,85.5303L97.6893,75.634C97.7102,75.2284,97.8264,74.8333,98.0286,74.481C98.2308,74.1287,98.5133,73.8291,98.853,73.6065Z" fill="rgb(119,156,179)" stroke="none" stroke-width="1" stroke-miterlimit="1"/><path id="empty-state-path28" d="M106.592,72.4296C105.862,72.0089,104.94,72.076,103.996,72.6221C103.098,73.197,102.352,73.9786,101.818,74.9014C101.285,75.8242,100.98,76.8613,100.93,77.926C100.898,78.616,101.116,79.2944,101.543,79.8372L100.299,81.9678C100.218,82.1202,100.198,82.2979,100.244,82.4643C100.29,82.6308,100.397,82.7734,100.545,82.863C100.648,82.9206,100.763,82.9514,100.881,82.9525C100.999,82.9526,101.114,82.9216,101.217,82.8626C101.319,82.8037,101.404,82.7189,101.463,82.6168L102.693,80.4862C102.826,80.5112,102.961,80.5246,103.096,80.5265C103.646,80.5165,104.183,80.3622,104.654,80.0789C105.55,79.5026,106.295,78.7206,106.827,77.798C107.36,76.8754,107.664,75.839,107.715,74.775C107.729,73.6873,107.326,72.8548,106.592,72.4296ZM103.996,78.9197C103.839,79.0888,103.629,79.1996,103.4,79.234C103.172,79.2684,102.939,79.2243,102.739,79.1089C102.539,78.9936,102.384,78.8138,102.299,78.5989C102.214,78.384,102.205,78.1468,102.273,77.926C102.325,77.0978,102.568,76.293,102.984,75.5747C103.399,74.8563,103.975,74.244,104.667,73.7858C104.936,73.6148,105.244,73.5176,105.562,73.5038C105.694,73.4989,105.824,73.5298,105.938,73.5933C106.107,73.7373,106.236,73.9216,106.314,74.1289C106.393,74.3363,106.417,74.56,106.386,74.7794C106.334,75.6072,106.092,76.4118,105.677,77.1301C105.262,77.8484,104.687,78.461,103.996,78.9197Z" fill="rgb(255,255,255)" stroke="none" stroke-width="1" stroke-miterlimit="1"/></g><script><![CDATA[!function(t,n){"object"==typeof exports&&"undefined"!=typeof module?module.exports=n():"function"==typeof define&&define.amd?define(n):(t="undefined"!=typeof globalThis?globalThis:t||self).__SVGATOR_PLAYER__=n()}(this,(function(){"use strict";function t(n){return(t="function"==typeof Symbol&&"symbol"==typeof Symbol.iterator?function(t){return typeof t}:function(t){return t&&"function"==typeof Symbol&&t.constructor===Symbol&&t!==Symbol.prototype?"symbol":typeof t})(n)}function n(t,n){if(!(t instanceof n))throw new TypeError("Cannot call a class as a function")}function r(t,n){for(var r=0;r<n.length;r++){var e=n[r];e.enumerable=e.enumerable||!1,e.configurable=!0,"value"in e&&(e.writable=!0),Object.defineProperty(t,e.key,e)}}function e(t,n,e){return n&&r(t.prototype,n),e&&r(t,e),t}function i(t){return(i=Object.setPrototypeOf?Object.getPrototypeOf:function(t){return t.__proto__||Object.getPrototypeOf(t)})(t)}function o(t,n){return(o=Object.setPrototypeOf||function(t,n){return t.__proto__=n,t})(t,n)}function u(t,n){return!n||"object"!=typeof n&&"function"!=typeof n?function(t){if(void 0===t)throw new ReferenceError("this hasn't been initialised - super() hasn't been called");return t}(t):n}function a(t){var n=function(){if("undefined"==typeof Reflect||!Reflect.construct)return!1;if(Reflect.construct.sham)return!1;if("function"==typeof Proxy)return!0;try{return Boolean.prototype.valueOf.call(Reflect.construct(Boolean,[],(function(){}))),!0}catch(t){return!1}}();return function(){var r,e=i(t);if(n){var o=i(this).constructor;r=Reflect.construct(e,arguments,o)}else r=e.apply(this,arguments);return u(this,r)}}function l(t,n,r){return(l="undefined"!=typeof Reflect&&Reflect.get?Reflect.get:function(t,n,r){var e=function(t,n){for(;!Object.prototype.hasOwnProperty.call(t,n)&&null!==(t=i(t)););return t}(t,n);if(e){var o=Object.getOwnPropertyDescriptor(e,n);return o.get?o.get.call(r):o.value}})(t,n,r||t)}var f=s(Math.pow(10,-6));function s(t){var n=arguments.length>1&&void 0!==arguments[1]?arguments[1]:6;if(Number.isInteger(t))return t;var r=Math.pow(10,n);return Math.round((+t+Number.EPSILON)*r)/r}function c(t,n){var r=arguments.length>2&&void 0!==arguments[2]?arguments[2]:f;return Math.abs(t-n)<r}var h=Math.PI/180;function v(t){return t}function y(t,n,r){var e=1-r;return 3*r*e*(t*e+n*r)+r*r*r}function d(){var t=arguments.length>0&&void 0!==arguments[0]?arguments[0]:0,n=arguments.length>1&&void 0!==arguments[1]?arguments[1]:0,r=arguments.length>2&&void 0!==arguments[2]?arguments[2]:1,e=arguments.length>3&&void 0!==arguments[3]?arguments[3]:1;return t<0||t>1||r<0||r>1?null:c(t,n)&&c(r,e)?v:function(i){if(i<=0)return t>0?i*n/t:0===n&&r>0?i*e/r:0;if(i>=1)return r<1?1+(i-1)*(e-1)/(r-1):1===r&&t<1?1+(i-1)*(n-1)/(t-1):1;for(var o,u=0,a=1;u<a;){var l=y(t,r,o=(u+a)/2);if(c(i,l))break;l<i?u=o:a=o}return y(n,e,o)}}function g(){return 1}function p(t){return 1===t?1:0}function m(){var t=arguments.length>0&&void 0!==arguments[0]?arguments[0]:1,n=arguments.length>1&&void 0!==arguments[1]?arguments[1]:0;if(1===t){if(0===n)return p;if(1===n)return g}var r=1/t;return function(t){return t>=1?1:(t+=n*r)-t%r}}function b(t,n,r){return t>=.5?r:n}function w(t,n,r){return 0===t||n===r?n:t*(r-n)+n}function x(t,n,r){var e=w(t,n,r);return e<=0?0:e}function k(t,n,r){return 0===t?n:1===t?r:{x:w(t,n.x,r.x),y:w(t,n.y,r.y)}}function A(t,n,r){var e=function(t,n,r){return Math.round(w(t,n,r))}(t,n,r);return e<=0?0:e>=255?255:e}function _(t,n,r){return 0===t?n:1===t?r:{r:A(t,n.r,r.r),g:A(t,n.g,r.g),b:A(t,n.b,r.b),a:w(t,null==n.a?1:n.a,null==r.a?1:r.a)}}function S(t,n,r){if(0===t)return n;if(1===t)return r;var e=n.length;if(e!==r.length)return b(t,n,r);for(var i=[],o=0;o<e;o++)i.push(_(t,n[o],r[o]));return i}function O(t,n){for(var r=[],e=0;e<t;e++)r.push(n);return r}function M(t,n){if(--n<=0)return t;var r=(t=Object.assign([],t)).length;do{for(var e=0;e<r;e++)t.push(t[e])}while(--n>0);return t}var j,P=function(){function t(r){n(this,t),this.list=r,this.length=r.length}return e(t,[{key:"setAttribute",value:function(t,n){for(var r=this.list,e=0;e<this.length;e++)r[e].setAttribute(t,n)}},{key:"removeAttribute",value:function(t){for(var n=this.list,r=0;r<this.length;r++)n[r].removeAttribute(t)}},{key:"style",value:function(t,n){for(var r=this.list,e=0;e<this.length;e++)r[e].style[t]=n}}]),t}(),B=/-./g,E=function(t,n){return n.toUpperCase()};function F(t){return"function"==typeof t?t:b}function I(t){return t?"function"==typeof t?t:Array.isArray(t)?function(t){var n=arguments.length>1&&void 0!==arguments[1]?arguments[1]:v;if(!Array.isArray(t))return n;switch(t.length){case 1:return m(t[0])||n;case 2:return m(t[0],t[1])||n;case 4:return d(t[0],t[1],t[2],t[3])||n}return n}(t,null):function(t,n){var r=arguments.length>2&&void 0!==arguments[2]?arguments[2]:v;switch(t){case"linear":return v;case"steps":return m(n.steps||1,n.jump||0)||r;case"bezier":case"cubic-bezier":return d(n.x1||0,n.y1||0,n.x2||0,n.y2||0)||r}return r}(t.type,t.value,null):null}function R(t,n,r){var e=arguments.length>3&&void 0!==arguments[3]&&arguments[3],i=n.length-1;if(t<=n[0].t)return e?[0,0,n[0].v]:n[0].v;if(t>=n[i].t)return e?[i,1,n[i].v]:n[i].v;var o,u=n[0],a=null;for(o=1;o<=i;o++){if(!(t>n[o].t)){a=n[o];break}u=n[o]}return null==a?e?[i,1,n[i].v]:n[i].v:u.t===a.t?e?[o,1,a.v]:a.v:(t=(t-u.t)/(a.t-u.t),u.e&&(t=u.e(t)),e?[o,t,r(t,u.v,a.v)]:r(t,u.v,a.v))}function q(t,n){var r=arguments.length>2&&void 0!==arguments[2]?arguments[2]:null;return t&&t.length?"function"!=typeof n?null:("function"!=typeof r&&(r=null),function(e){var i=R(e,t,n);return null!=i&&r&&(i=r(i)),i}):null}function T(t,n){return t.t-n.t}function N(n,r,e,i,o){var u,a="@"===e[0],l="#"===e[0],f=j[e],s=b;switch(a?(u=e.substr(1),e=u.replace(B,E)):l&&(e=e.substr(1)),t(f)){case"function":if(s=f(i,o,R,I,e,a,r,n),l)return s;break;case"string":s=q(i,F(f));break;case"object":if((s=q(i,F(f.i),f.f))&&"function"==typeof f.u)return f.u(r,s,e,a,n)}return s?function(t,n,r){var e=arguments.length>3&&void 0!==arguments[3]&&arguments[3];if(e)return t instanceof P?function(e){return t.style(n,r(e))}:function(e){return t.style[n]=r(e)};if(Array.isArray(n)){var i=n.length;return function(e){var o=r(e);if(null==o)for(var u=0;u<i;u++)t[u].removeAttribute(n);else for(var a=0;a<i;a++)t[a].setAttribute(n,o)}}return function(e){var i=r(e);null==i?t.removeAttribute(n):t.setAttribute(n,i)}}(r,e,s,a):null}function C(n,r,e,i){if(!i||"object"!==t(i))return null;var o=null,u=null;return Array.isArray(i)?u=function(t){if(!t||!t.length)return null;for(var n=0;n<t.length;n++)t[n].e&&(t[n].e=I(t[n].e));return t.sort(T)}(i):(u=i.keys,o=i.data||null),u?N(n,r,e,u,o):null}function z(t,n,r){if(!r)return null;var e=[];for(var i in r)if(r.hasOwnProperty(i)){var o=C(t,n,i,r[i]);o&&e.push(o)}return e.length?e:null}function L(t,n){if(!n.duration||n.duration<0)return null;var r=function(t,n){if(!n)return null;var r=[];if(Array.isArray(n))for(var e=n.length,i=0;i<e;i++){var o=n[i];if(2===o.length){var u=null;if("string"==typeof o[0])u=t.getElementById(o[0]);else if(Array.isArray(o[0])){u=[];for(var a=0;a<o[0].length;a++)if("string"==typeof o[0][a]){var l=t.getElementById(o[0][a]);l&&u.push(l)}u=u.length?1===u.length?u[0]:new P(u):null}if(u){var f=z(t,u,o[1]);f&&(r=r.concat(f))}}}else for(var s in n)if(n.hasOwnProperty(s)){var c=t.getElementById(s);if(c){var h=z(t,c,n[s]);h&&(r=r.concat(h))}}return r.length?r:null}(t,n.elements);return r?function(t,n){var r=arguments.length>2&&void 0!==arguments[2]?arguments[2]:1/0,e=arguments.length>3&&void 0!==arguments[3]?arguments[3]:1,i=arguments.length>4&&void 0!==arguments[4]&&arguments[4],o=arguments.length>5&&void 0!==arguments[5]?arguments[5]:1,u=t.length,a=e>0?n:0;i&&r%2==0&&(a=n-a);var l=null;return function(f,s){var c=f%n,h=1+(f-c)/n;s*=e,i&&h%2==0&&(s=-s);var v=!1;if(h>r)c=a,v=!0,-1===o&&(c=e>0?0:n);else if(s<0&&(c=n-c),c===l)return!1;l=c;for(var y=0;y<u;y++)t[y](c);return v}}(r,n.duration,n.iterations||1/0,n.direction||1,!!n.alternate,n.fill||1):null}var D=function(){function t(r,e){var i=arguments.length>2&&void 0!==arguments[2]?arguments[2]:{};n(this,t),this._id=0,this._running=!1,this._rollingBack=!1,this._animations=r,this.duration=e.duration,this.alternate=e.alternate,this.fill=e.fill,this.iterations=e.iterations,this.direction=i.direction||1,this.speed=i.speed||1,this.fps=i.fps||100,this.offset=i.offset||0,this.rollbackStartOffset=0}return e(t,[{key:"_rollback",value:function(){var t=this,n=1/0,r=null;this.rollbackStartOffset=this.offset,this._rollingBack||(this._rollingBack=!0,this._running=!0);this._id=window.requestAnimationFrame((function e(i){if(t._rollingBack){null==r&&(r=i);var o=i-r,u=t.rollbackStartOffset-o,a=Math.round(u*t.speed);if(a>t.duration&&n!=1/0){var l=!!t.alternate&&a/t.duration%2>1,f=a%t.duration;a=(f+=l?t.duration:0)||t.duration}var s=t.fps?1e3/t.fps:0,c=Math.max(0,a);if(c<n-s){t.offset=c,n=c;for(var h=t._animations,v=h.length,y=0;y<v;y++)h[y](c,t.direction)}var d=!1;if(t.iterations>0&&-1===t.fill){var g=t.iterations*t.duration,p=g==a;a=p?0:a,t.offset=p?0:t.offset,d=a>g}a>0&&t.offset>=a&&!d?t._id=window.requestAnimationFrame(e):t.stop()}}))}},{key:"_start",value:function(){var t=this,n=arguments.length>0&&void 0!==arguments[0]?arguments[0]:0,r=-1/0,e=null,i={},o=function o(u){t._running=!0,null==e&&(e=u);var a=Math.round((u-e+n)*t.speed),l=t.fps?1e3/t.fps:0;if(a>r+l&&!t._rollingBack){t.offset=a,r=a;for(var f=t._animations,s=f.length,c=0,h=0;h<s;h++)i[h]?c++:(i[h]=f[h](a,t.direction),i[h]&&c++);if(c===s)return void t._stop()}t._id=window.requestAnimationFrame(o)};this._id=window.requestAnimationFrame(o)}},{key:"_stop",value:function(){this._id&&window.cancelAnimationFrame(this._id),this._running=!1,this._rollingBack=!1}},{key:"play",value:function(){!this._rollingBack&&this._running||(this._rollingBack=!1,this.rollbackStartOffset>this.duration&&(this.offset=this.rollbackStartOffset-(this.rollbackStartOffset-this.offset)%this.duration,this.rollbackStartOffset=0),this._start(this.offset))}},{key:"stop",value:function(){this._stop(),this.offset=0,this.rollbackStartOffset=0;var t=this.direction,n=this._animations;window.requestAnimationFrame((function(){for(var r=0;r<n.length;r++)n[r](0,t)}))}},{key:"reachedToEnd",value:function(){return this.iterations>0&&this.offset>=this.iterations*this.duration}},{key:"restart",value:function(){this._stop(),this.offset=0,this._start()}},{key:"pause",value:function(){this._stop()}},{key:"reverse",value:function(){this.direction=-this.direction}}],[{key:"build",value:function(n,r){return(n=function(t,n){if(j=n,!t||!t.root||!Array.isArray(t.animations))return null;for(var r=document.getElementsByTagName("svg"),e=!1,i=0;i<r.length;i++)if(r[i].id===t.root&&!r[i].svgatorAnimation){(e=r[i]).svgatorAnimation=!0;break}if(!e)return null;var o=t.animations.map((function(t){return L(e,t)})).filter((function(t){return!!t}));return o.length?{element:e,animations:o,animationSettings:t.animationSettings,options:t.options||void 0}:null}(n,r))?{el:n.element,options:n.options||{},player:new t(n.animations,n.animationSettings,n.options)}:null}}]),t}();function Q(t){return s(t)+""}function U(t){var n=arguments.length>1&&void 0!==arguments[1]?arguments[1]:" ";return t&&t.length?t.map(Q).join(n):""}function V(t){return t?null==t.a||t.a>=1?"rgb("+t.r+","+t.g+","+t.b+")":"rgba("+t.r+","+t.g+","+t.b+","+t.a+")":"transparent"}!function(){for(var t=0,n=["ms","moz","webkit","o"],r=0;r<n.length&&!window.requestAnimationFrame;++r)window.requestAnimationFrame=window[n[r]+"RequestAnimationFrame"],window.cancelAnimationFrame=window[n[r]+"CancelAnimationFrame"]||window[n[r]+"CancelRequestAnimationFrame"];window.requestAnimationFrame||(window.requestAnimationFrame=function(n){var r=Date.now(),e=Math.max(0,16-(r-t)),i=window.setTimeout((function(){n(r+e)}),e);return t=r+e,i},window.cancelAnimationFrame=window.clearTimeout)}();var G={f:null,i:function(t,n,r){return 0===t?n:1===t?r:{x:x(t,n.x,r.x),y:x(t,n.y,r.y)}},u:function(t,n){return function(r){var e=n(r);t.setAttribute("rx",Q(e.x)),t.setAttribute("ry",Q(e.y))}}},H={f:null,i:function(t,n,r){return 0===t?n:1===t?r:{width:x(t,n.width,r.width),height:x(t,n.height,r.height)}},u:function(t,n){return function(r){var e=n(r);t.setAttribute("width",Q(e.width)),t.setAttribute("height",Q(e.height))}}},Y=Math.sin,Z=Math.cos,J=Math.acos,K=Math.asin,W=Math.tan,X=Math.atan2,$=Math.PI/180,tt=180/Math.PI,nt=Math.sqrt,rt=function(){function t(){var r=arguments.length>0&&void 0!==arguments[0]?arguments[0]:1,e=arguments.length>1&&void 0!==arguments[1]?arguments[1]:0,i=arguments.length>2&&void 0!==arguments[2]?arguments[2]:0,o=arguments.length>3&&void 0!==arguments[3]?arguments[3]:1,u=arguments.length>4&&void 0!==arguments[4]?arguments[4]:0,a=arguments.length>5&&void 0!==arguments[5]?arguments[5]:0;n(this,t),this.m=[r,e,i,o,u,a],this.i=null,this.w=null,this.s=null}return e(t,[{key:"determinant",get:function(){var t=this.m;return t[0]*t[3]-t[1]*t[2]}},{key:"isIdentity",get:function(){if(null===this.i){var t=this.m;this.i=1===t[0]&&0===t[1]&&0===t[2]&&1===t[3]&&0===t[4]&&0===t[5]}return this.i}},{key:"point",value:function(t,n){var r=this.m;return{x:r[0]*t+r[2]*n+r[4],y:r[1]*t+r[3]*n+r[5]}}},{key:"translateSelf",value:function(){var t=arguments.length>0&&void 0!==arguments[0]?arguments[0]:0,n=arguments.length>1&&void 0!==arguments[1]?arguments[1]:0;if(!t&&!n)return this;var r=this.m;return r[4]+=r[0]*t+r[2]*n,r[5]+=r[1]*t+r[3]*n,this.w=this.s=this.i=null,this}},{key:"rotateSelf",value:function(){var t=arguments.length>0&&void 0!==arguments[0]?arguments[0]:0;if(t%=360){var n=Y(t*=$),r=Z(t),e=this.m,i=e[0],o=e[1];e[0]=i*r+e[2]*n,e[1]=o*r+e[3]*n,e[2]=e[2]*r-i*n,e[3]=e[3]*r-o*n,this.w=this.s=this.i=null}return this}},{key:"scaleSelf",value:function(){var t=arguments.length>0&&void 0!==arguments[0]?arguments[0]:1,n=arguments.length>1&&void 0!==arguments[1]?arguments[1]:1;if(1!==t||1!==n){var r=this.m;r[0]*=t,r[1]*=t,r[2]*=n,r[3]*=n,this.w=this.s=this.i=null}return this}},{key:"skewSelf",value:function(t,n){if(n%=360,(t%=360)||n){var r=this.m,e=r[0],i=r[1],o=r[2],u=r[3];t&&(t=W(t*$),r[2]+=e*t,r[3]+=i*t),n&&(n=W(n*$),r[0]+=o*n,r[1]+=u*n),this.w=this.s=this.i=null}return this}},{key:"resetSelf",value:function(){var t=arguments.length>0&&void 0!==arguments[0]?arguments[0]:1,n=arguments.length>1&&void 0!==arguments[1]?arguments[1]:0,r=arguments.length>2&&void 0!==arguments[2]?arguments[2]:0,e=arguments.length>3&&void 0!==arguments[3]?arguments[3]:1,i=arguments.length>4&&void 0!==arguments[4]?arguments[4]:0,o=arguments.length>5&&void 0!==arguments[5]?arguments[5]:0,u=this.m;return u[0]=t,u[1]=n,u[2]=r,u[3]=e,u[4]=i,u[5]=o,this.w=this.s=this.i=null,this}},{key:"recomposeSelf",value:function(){var t=arguments.length>0&&void 0!==arguments[0]?arguments[0]:null,n=arguments.length>1&&void 0!==arguments[1]?arguments[1]:null,r=arguments.length>2&&void 0!==arguments[2]?arguments[2]:null,e=arguments.length>3&&void 0!==arguments[3]?arguments[3]:null,i=arguments.length>4&&void 0!==arguments[4]?arguments[4]:null;return this.isIdentity||this.resetSelf(),t&&(t.x||t.y)&&this.translateSelf(t.x,t.y),n&&this.rotateSelf(n),r&&(r.x&&this.skewSelf(r.x,0),r.y&&this.skewSelf(0,r.y)),!e||1===e.x&&1===e.y||this.scaleSelf(e.x,e.y),i&&(i.x||i.y)&&this.translateSelf(i.x,i.y),this}},{key:"decompose",value:function(){var t=arguments.length>0&&void 0!==arguments[0]?arguments[0]:0,n=arguments.length>1&&void 0!==arguments[1]?arguments[1]:0,r=this.m,e=r[0]*r[0]+r[1]*r[1],i=[[r[0],r[1]],[r[2],r[3]]],o=nt(e);if(0===o)return{origin:{x:s(r[4]),y:s(r[5])},translate:{x:s(t),y:s(n)},scale:{x:0,y:0},skew:{x:0,y:0},rotate:0};i[0][0]/=o,i[0][1]/=o;var u=r[0]*r[3]-r[1]*r[2]<0;u&&(o=-o);var a=i[0][0]*i[1][0]+i[0][1]*i[1][1];i[1][0]-=i[0][0]*a,i[1][1]-=i[0][1]*a;var l=nt(i[1][0]*i[1][0]+i[1][1]*i[1][1]);if(0===l)return{origin:{x:s(r[4]),y:s(r[5])},translate:{x:s(t),y:s(n)},scale:{x:s(o),y:0},skew:{x:0,y:0},rotate:0};i[1][0]/=l,i[1][1]/=l,a/=l;var f=0;return i[1][1]<0?(f=J(i[1][1])*tt,i[0][1]<0&&(f=360-f)):f=K(i[0][1])*tt,u&&(f=-f),a=X(a,nt(i[0][0]*i[0][0]+i[0][1]*i[0][1]))*tt,u&&(a=-a),{origin:{x:s(r[4]),y:s(r[5])},translate:{x:s(t),y:s(n)},scale:{x:s(o),y:s(l)},skew:{x:s(a),y:0},rotate:s(f)}}},{key:"toString",value:function(){return null===this.s&&(this.s="matrix("+this.m.map((function(t){return s(t)})).join(" ")+")"),this.s}}]),t}();Object.freeze({M:2,L:2,Z:0,H:1,V:1,C:6,Q:4,T:2,S:4,A:7});var et={},it=null;function ot(n){var r=function(){if(it)return it;if("object"!==("undefined"==typeof document?"undefined":t(document))||!document.createElementNS)return{};var n=document.createElementNS("http://www.w3.org/2000/svg","svg");return n&&n.style?(n.style.position="absolute",n.style.opacity="0.01",n.style.zIndex="-9999",n.style.left="-9999px",n.style.width="1px",n.style.height="1px",it={svg:n}):{}}().svg;if(!r)return function(t){return null};var e=document.createElementNS(r.namespaceURI,"path");e.setAttributeNS(null,"d",n),e.setAttributeNS(null,"fill","none"),e.setAttributeNS(null,"stroke","none"),r.appendChild(e);var i=e.getTotalLength();return function(t){var n=e.getPointAtLength(i*t);return{x:n.x,y:n.y}}}function ut(t){return et[t]?et[t]:et[t]=ot(t)}function at(t,n,r,e){if(!t||!e)return!1;var i=["M",t.x,t.y];if(n&&r&&(i.push("C"),i.push(n.x),i.push(n.y),i.push(r.x),i.push(r.y)),n?!r:r){var o=n||r;i.push("Q"),i.push(o.x),i.push(o.y)}return n||r||i.push("L"),i.push(e.x),i.push(e.y),i.join(" ")}function lt(t,n,r,e){var i=arguments.length>4&&void 0!==arguments[4]?arguments[4]:1,o=at(t,n,r,e),u=ut(o);try{return u(i)}catch(t){return null}}function ft(t,n,r,e){var i=1-e;return i*i*t+2*i*e*n+e*e*r}function st(t,n,r,e){return 2*(1-e)*(n-t)+2*e*(r-n)}function ct(t,n,r,e){var i=arguments.length>4&&void 0!==arguments[4]&&arguments[4],o=lt(t,n,null,r,e);return o||(o={x:ft(t.x,n.x,r.x,e),y:ft(t.y,n.y,r.y,e)}),i&&(o.a=ht(t,n,r,e)),o}function ht(t,n,r,e){return Math.atan2(st(t.y,n.y,r.y,e),st(t.x,n.x,r.x,e))}function vt(t,n,r,e,i){var o=i*i;return i*o*(e-t+3*(n-r))+3*o*(t+r-2*n)+3*i*(n-t)+t}function yt(t,n,r,e,i){var o=1-i;return 3*(o*o*(n-t)+2*o*i*(r-n)+i*i*(e-r))}function dt(t,n,r,e,i){var o=arguments.length>5&&void 0!==arguments[5]&&arguments[5],u=lt(t,n,r,e,i);return u||(u={x:vt(t.x,n.x,r.x,e.x,i),y:vt(t.y,n.y,r.y,e.y,i)}),o&&(u.a=gt(t,n,r,e,i)),u}function gt(t,n,r,e,i){return Math.atan2(yt(t.y,n.y,r.y,e.y,i),yt(t.x,n.x,r.x,e.x,i))}function pt(t,n,r){return t+(n-t)*r}function mt(t,n,r){var e=arguments.length>3&&void 0!==arguments[3]&&arguments[3],i={x:pt(t.x,n.x,r),y:pt(t.y,n.y,r)};return e&&(i.a=bt(t,n)),i}function bt(t,n){return Math.atan2(n.y-t.y,n.x-t.x)}function wt(t,n,r){var e=arguments.length>3&&void 0!==arguments[3]&&arguments[3];if(kt(n)){if(At(r))return ct(n,r.start,r,t,e)}else if(kt(r)){if(n.end)return ct(n,n.end,r,t,e)}else{if(n.end)return r.start?dt(n,n.end,r.start,r,t,e):ct(n,n.end,r,t,e);if(r.start)return ct(n,r.start,r,t,e)}return mt(n,r,t,e)}function xt(t,n,r){var e=wt(t,n,r,!0);return e.a=function(t){var n=arguments.length>1&&void 0!==arguments[1]&&arguments[1];return n?t+Math.PI:t}(e.a)/h,e}function kt(t){return!t.type||"corner"===t.type}function At(t){return null!=t.start&&!kt(t)}var _t=new rt;var St={f:Q,i:w},Ot={f:Q,i:function(t,n,r){var e=w(t,n,r);return e<=0?0:e>=1?1:e}};function Mt(t,n,r,e,i,o,u,a){return n=function(t,n,r){for(var e,i,o,u=t.length-1,a={},l=0;l<=u;l++)(e=t[l]).e&&(e.e=n(e.e)),e.v&&"g"===(i=e.v).t&&i.r&&(o=r.getElementById(i.r))&&(a[i.r]=o.querySelectorAll("stop"));return a}(t,e,a),function(e){var i,o=r(e,t,jt);return o?"c"===o.t?V(o.v):"g"===o.t?(n[o.r]&&function(t,n){for(var r=0,e=t.length;r<e;r++)t[r].setAttribute("stop-color",V(n[r]))}(n[o.r],o.v),(i=o.r)?"url(#"+i+")":"none"):"none":"none"}}function jt(t,n,r){if(0===t)return n;if(1===t)return r;if(n&&r){var e=n.t;if(e===r.t)switch(n.t){case"c":return{t:e,v:_(t,n.v,r.v)};case"g":if(n.r===r.r)return{t:e,v:S(t,n.v,r.v),r:n.r}}}return b(t,n,r)}var Pt={fill:Mt,"fill-opacity":Ot,stroke:Mt,"stroke-opacity":Ot,"stroke-width":St,"stroke-dashoffset":{f:Q,i:w},"stroke-dasharray":{f:function(t){var n=arguments.length>1&&void 0!==arguments[1]?arguments[1]:" ";return t&&t.length>0&&(t=t.map((function(t){return s(t,4)}))),U(t,n)},i:function(t,n,r){var e,i,o,u=n.length,a=r.length;if(u!==a)if(0===u)n=O(u=a,0);else if(0===a)a=u,r=O(u,0);else{var l=(o=(e=u)*(i=a)/function(t,n){for(var r;n;)r=n,n=t%n,t=r;return t||1}(e,i))<0?-o:o;n=M(n,Math.floor(l/u)),r=M(r,Math.floor(l/a)),u=a=l}for(var f=[],c=0;c<u;c++)f.push(s(x(t,n[c],r[c])));return f}},opacity:Ot,transform:function(n,r,e,i){if(!(n=function(n,r){if(!n||"object"!==t(n))return null;var e=!1;for(var i in n)n.hasOwnProperty(i)&&(n[i]&&n[i].length?(n[i].forEach((function(t){t.e&&(t.e=r(t.e))})),e=!0):delete n[i]);return e?n:null}(n,i)))return null;var o=function(t,i,o){var u=arguments.length>3&&void 0!==arguments[3]?arguments[3]:null;return n[t]?e(i,n[t],o):r&&r[t]?r[t]:u};return r&&r.a&&n.o?function(t){var r=e(t,n.o,xt);return _t.recomposeSelf(r,o("r",t,w,0)+r.a,o("k",t,k),o("s",t,k),o("t",t,k)).toString()}:function(t){return _t.recomposeSelf(o("o",t,wt,null),o("r",t,w,0),o("k",t,k),o("s",t,k),o("t",t,k)).toString()}},r:St,"#size":H,"#radius":G,_:function(t,n){if(Array.isArray(t))for(var r=0;r<t.length;r++)this[t[r]]=n;else this[t]=n}};return function(t){!function(t,n){if("function"!=typeof n&&null!==n)throw new TypeError("Super expression must either be null or a function");t.prototype=Object.create(n&&n.prototype,{constructor:{value:t,writable:!0,configurable:!0}}),n&&o(t,n)}(u,t);var r=a(u);function u(){return n(this,u),r.apply(this,arguments)}return e(u,null,[{key:"build",value:function(t){var n=l(i(u),"build",this).call(this,t,Pt);if(!n)return null;n.el,n.options;var r=n.player;return function(t,n,r){t.play()}(r),r}}]),u}(D)}));
__SVGATOR_PLAYER__.build({"root":"empty-state","animations":[{"duration":1500,"direction":1,"iterations":1,"fill":1,"alternate":false,"speed":1,"elements":{"empty-state-notebook":{"transform":{"data":{"o":{"x":100,"y":99.546985,"type":"corner"},"t":{"x":-100,"y":-99.546985}},"keys":{"s":[{"t":0,"v":{"x":0.51913,"y":0.51913},"e":[0.42,0,0.58,1]},{"t":1100,"v":{"x":1,"y":1},"e":[0.42,0,0.58,1]}]}},"opacity":[{"t":0,"v":0,"e":[0.42,0,0.58,1]},{"t":900,"v":1}]},"empty-state-tela":{"transform":{"data":{"o":{"x":84.05135,"y":86.638599,"type":"corner"},"t":{"x":-84.05135,"y":-86.638599}},"keys":{"s":[{"t":500,"v":{"x":0.740065,"y":0.740065},"e":[0,0,0.58,1]},{"t":1000,"v":{"x":1,"y":1}}]}},"opacity":[{"t":500,"v":0,"e":[0,0,0.58,1]},{"t":1000,"v":1}]},"empty-state-lupa":{"transform":{"data":{"t":{"x":-66.986299,"y":-107.167977}},"keys":{"o":[{"t":500,"v":{"x":41.595877,"y":125.388005,"type":"corner"},"e":[0,0,0.58,1]},{"t":1300,"v":{"x":66.9863,"y":107.167977,"type":"corner"}}]}},"opacity":[{"t":500,"v":0,"e":[0.42,0,0.58,1]},{"t":1300,"v":1}]},"empty-state-barra":{"transform":{"data":{"t":{"x":-131.325653,"y":-61.163252}},"keys":{"o":[{"t":500,"v":{"x":153.637852,"y":49.563908,"type":"corner"},"e":[0.42,0,0.58,1]},{"t":1300,"v":{"x":131.325653,"y":61.163252,"type":"corner"}}]}},"opacity":[{"t":500,"v":0,"e":[0,0,0.58,1]},{"t":1300,"v":1}]}}}],"options":{"start":"load","hover":null,"click":null,"scroll":null,"font":"embed","exportedIds":"names","svgFormat":"animated","title":"empty-state"},"animationSettings":{"duration":1500,"direction":1,"iterations":1,"fill":1,"alternate":false,"speed":1}})]]></script></svg>