<svg id="empty-state-2" xmlns="http://www.w3.org/2000/svg" xmlns:xlink="http://www.w3.org/1999/xlink" viewBox="0 0 201 200" shape-rendering="geometricPrecision" text-rendering="geometricPrecision"><circle id="empty-state-2-circle1" r="100" transform="matrix(1 0 0 1 100.5 100)" fill="rgb(233,237,240)" stroke="none" stroke-width="1" stroke-miterlimit="1"/><g id="empty-state-2-caixa" transform="matrix(0.764082 0 0 0.764082 20.709759 28.343308)" opacity="0"><g id="empty-state-2-fundo" transform="matrix(1 0 0 1 0.000001 0)"><path id="empty-state-2-path1" d="M165.651,136.901L108.418,169.644L43.9702,132.688L101.202,99.9526L165.651,136.901Z" fill="rgb(74,108,128)" stroke="none" stroke-width="1" stroke-miterlimit="1"/><path id="empty-state-2-path2" d="M165.651,136.901L108.418,169.644L43.9702,132.688L101.202,99.9526L165.651,136.901Z" opacity="0.5" fill="rgb(0,0,0)" stroke="none" stroke-width="1" stroke-miterlimit="1"/></g><g id="empty-state-2-lateraldentro2" transform="matrix(1 0 0 1 0.000001 0)"><path id="empty-state-2-path3" d="M101.202,55.5703L101.202,99.9527L43.9702,132.688L43.9702,88.3132L101.202,55.5703Z" fill="rgb(74,108,128)" stroke="none" stroke-width="1" stroke-miterlimit="1"/><path id="empty-state-2-path4" d="M101.202,55.5703L101.202,99.9527L43.9702,132.688L43.9702,88.3132L101.202,55.5703Z" opacity="0.23" fill="rgb(0,0,0)" stroke="none" stroke-width="1" stroke-miterlimit="1"/></g><g id="empty-state-2-lateral2" transform="matrix(1 0 0 1 0.000001 0)"><path id="empty-state-2-path5" d="M108.418,125.262L108.418,169.644L43.9702,132.688L43.9702,88.3135L108.418,125.262Z" fill="rgb(74,108,128)" stroke="none" stroke-width="1" stroke-miterlimit="1"/><path id="empty-state-2-path6" d="M108.418,125.262L108.418,169.644L43.9702,132.688L43.9702,88.3135L108.418,125.262Z" opacity="0.38" fill="rgb(0,0,0)" stroke="none" stroke-width="1" stroke-miterlimit="1"/></g><g id="empty-state-2-lateraldentro1"><path id="empty-state-2-path7" d="M165.65,92.5185L165.65,136.901L101.202,99.9527L101.202,55.5703L165.65,92.5185Z" fill="rgb(74,108,128)" stroke="none" stroke-width="1" stroke-miterlimit="1"/><path id="empty-state-2-path8" d="M165.65,92.5185L165.65,136.901L101.202,99.9527L101.202,55.5703L165.65,92.5185Z" opacity="0.4" fill="rgb(0,0,0)" stroke="none" stroke-width="1" stroke-miterlimit="1"/></g><g id="empty-state-2-lateral1" transform="matrix(1 0 0 1 0.000001 0.000001)"><path id="empty-state-2-path9" d="M165.65,136.901L165.65,92.5186L108.418,125.261L108.418,169.644L165.65,136.901Z" fill="rgb(74,108,128)" stroke="none" stroke-width="1" stroke-miterlimit="1"/><path id="empty-state-2-path10" d="M165.65,92.5186L108.418,125.261L108.418,169.644L109.489,126.153L165.65,92.5186Z" opacity="0.7" fill="rgb(255,255,255)" stroke="none" stroke-width="1" stroke-miterlimit="1"/><path id="empty-state-2-path11" d="M165.65,136.901L165.65,92.5186L108.418,125.261L108.418,169.644L165.65,136.901Z" opacity="0.23" fill="rgb(0,0,0)" stroke="none" stroke-width="1" stroke-miterlimit="1"/></g><g id="empty-state-2-aba4" transform="matrix(1 0 0 1 0 0.000001)"><path id="empty-state-2-path12" d="M101.202,55.5706L101.279,31L165.573,67.9943L165.65,92.5188L101.202,55.5706Z" fill="rgb(74,108,128)" stroke="none" stroke-width="1" stroke-miterlimit="1"/><path id="empty-state-2-path13" d="M101.202,55.5706L101.279,31L165.573,67.9943L165.65,92.5188L101.202,55.5706Z" opacity="0.2" fill="rgb(0,0,0)" stroke="none" stroke-width="1" stroke-miterlimit="1"/></g><g id="empty-state-2-aba3" transform="matrix(1 0 0 1 0.000001 0)"><path id="empty-state-2-path14" d="M108.418,125.261L113.788,103.766L170.5,71.323L165.65,92.5186L108.418,125.261Z" fill="rgb(74,108,128)" stroke="none" stroke-width="1" stroke-miterlimit="1"/><path id="empty-state-2-path15" d="M108.418,125.261L113.788,103.766L170.5,71.323L165.65,92.5186L108.418,125.261Z" opacity="0.34" fill="rgb(0,0,0)" stroke="none" stroke-width="1" stroke-miterlimit="1"/></g><g id="empty-state-2-aba-2" transform="matrix(1 0 0 1 0.000001 0.000001)"><path id="empty-state-2-path16" d="M43.9702,88.3134L37.142,66.0184L94.3742,33.2832L101.202,55.5705L43.9702,88.3134Z" fill="rgb(74,108,128)" stroke="none" stroke-width="1" stroke-miterlimit="1"/><path id="empty-state-2-path17" d="M43.9702,88.3134L37.142,66.0184L94.3742,33.2832L101.202,55.5705L43.9702,88.3134Z" opacity="0.1" fill="rgb(0,0,0)" stroke="none" stroke-width="1" stroke-miterlimit="1"/></g><g id="empty-state-2-aba-1" transform="matrix(1 0 0 1 0.000001 0)"><path id="empty-state-2-path18" d="M43.97,88.3135L30.5,69.8855L94.956,106.834L108.418,125.262L43.97,88.3135Z" fill="rgb(74,108,128)" stroke="none" stroke-width="1" stroke-miterlimit="1"/><path id="empty-state-2-path19" d="M43.97,88.3135L30.5,69.8855L94.956,106.834L108.418,125.262L43.97,88.3135Z" opacity="0.45" fill="rgb(0,0,0)" stroke="none" stroke-width="1" stroke-miterlimit="1"/></g><g id="empty-state-2-icones" transform="matrix(1 0 0 1 0 0.000001)"><g id="empty-state-2-g1" opacity="0.7"><path id="empty-state-2-path20" d="M125.271,156.444C125.178,156.444,125.089,156.407,125.022,156.343C124.955,156.278,124.917,156.19,124.915,156.098L124.915,148.287C124.917,148.194,124.955,148.105,125.021,148.039C125.088,147.973,125.177,147.935,125.271,147.933C125.365,147.935,125.454,147.973,125.519,148.039C125.584,148.105,125.621,148.194,125.621,148.287L125.621,156.098C125.621,156.189,125.584,156.277,125.518,156.342C125.453,156.407,125.364,156.444,125.271,156.444Z" opacity="0.7" fill="rgb(255,255,255)" stroke="none" stroke-width="1" stroke-miterlimit="1"/><path id="empty-state-2-path21" d="M124.24,150.993C124.193,151,124.146,151,124.1,150.993C124.015,150.954,123.949,150.885,123.914,150.799C123.879,150.713,123.879,150.618,123.914,150.532L125.171,147.664L126.567,149.263C126.617,149.335,126.639,149.422,126.628,149.508C126.617,149.595,126.574,149.674,126.508,149.731C126.442,149.788,126.356,149.819,126.269,149.818C126.181,149.817,126.096,149.783,126.032,149.724L125.372,148.956L124.596,150.801C124.563,150.864,124.511,150.916,124.447,150.951C124.384,150.985,124.312,151,124.24,150.993Z" opacity="0.7" fill="rgb(255,255,255)" stroke="none" stroke-width="1" stroke-miterlimit="1"/><path id="empty-state-2-path22" d="M128.522,154.607C128.429,154.605,128.34,154.566,128.275,154.5C128.21,154.434,128.173,154.345,128.173,154.253L128.173,146.45C128.173,146.358,128.21,146.27,128.275,146.205C128.341,146.14,128.43,146.104,128.522,146.104C128.615,146.104,128.704,146.14,128.769,146.205C128.835,146.27,128.872,146.358,128.872,146.45L128.872,154.245C128.873,154.292,128.864,154.338,128.847,154.381C128.83,154.425,128.805,154.464,128.773,154.498C128.74,154.531,128.701,154.558,128.658,154.577C128.615,154.595,128.569,154.606,128.522,154.607Z" opacity="0.7" fill="rgb(255,255,255)" stroke="none" stroke-width="1" stroke-miterlimit="1"/><path id="empty-state-2-path23" d="M127.491,149.156C127.444,149.163,127.397,149.163,127.351,149.156C127.308,149.137,127.27,149.111,127.238,149.078C127.206,149.044,127.181,149.005,127.164,148.962C127.147,148.919,127.14,148.873,127.141,148.827C127.143,148.781,127.153,148.736,127.173,148.694L128.422,145.788L129.818,147.38C129.883,147.446,129.919,147.534,129.919,147.626C129.919,147.718,129.883,147.806,129.818,147.872C129.786,147.904,129.747,147.93,129.705,147.948C129.662,147.965,129.616,147.974,129.57,147.974C129.524,147.974,129.478,147.965,129.436,147.948C129.393,147.93,129.354,147.904,129.322,147.872L128.662,147.103L127.886,148.948C127.854,149.022,127.797,149.083,127.725,149.121C127.653,149.159,127.571,149.171,127.491,149.156Z" opacity="0.7" fill="rgb(255,255,255)" stroke="none" stroke-width="1" stroke-miterlimit="1"/><path id="empty-state-2-path24" d="M30.5,69.8855L94.956,106.834L108.418,125.262L94.2422,107.487L30.5,69.8855Z" opacity="0.7" fill="rgb(255,255,255)" stroke="none" stroke-width="1" stroke-miterlimit="1"/></g><g id="empty-state-2-g2" opacity="0.7"><path id="empty-state-2-path25" d="M115.89,161.741C115.758,161.743,115.627,161.711,115.51,161.648C115.37,161.559,115.256,161.435,115.181,161.287C115.106,161.14,115.072,160.975,115.083,160.81L115.083,159.849C115.086,159.757,115.124,159.669,115.191,159.604C115.257,159.54,115.347,159.503,115.44,159.503C115.533,159.503,115.622,159.54,115.687,159.605C115.753,159.67,115.79,159.758,115.79,159.849L115.79,160.81C115.79,160.949,115.79,161.026,115.859,161.041C115.929,161.056,115.968,161.041,116.084,160.98C116.303,160.78,116.475,160.535,116.589,160.263C116.703,159.991,116.756,159.698,116.744,159.403L116.744,155.406C116.744,155.314,116.781,155.226,116.846,155.161C116.912,155.096,117.001,155.06,117.093,155.06C117.186,155.06,117.275,155.096,117.34,155.161C117.405,155.226,117.442,155.314,117.442,155.406L117.442,159.403C117.46,159.819,117.378,160.232,117.204,160.61C117.03,160.988,116.769,161.32,116.441,161.579C116.275,161.681,116.085,161.736,115.89,161.741Z" opacity="0.7" fill="rgb(255,255,255)" stroke="none" stroke-width="1" stroke-miterlimit="1"/><path id="empty-state-2-path26" d="M112.189,158.519L112.189,157.92C112.281,156.38,112.736,154.883,113.516,153.548C114.296,152.213,115.38,151.077,116.682,150.232C117.954,149.509,119.165,149.401,120.096,149.939C120.592,150.277,120.988,150.74,121.242,151.281C121.496,151.822,121.599,152.421,121.539,153.015L121.539,153.214L112.189,158.519ZM118.792,150.262C118.171,150.291,117.567,150.476,117.039,150.8C115.923,151.528,114.979,152.484,114.269,153.605C113.559,154.726,113.102,155.985,112.926,157.297L120.817,152.776C120.851,152.331,120.768,151.885,120.576,151.481C120.385,151.077,120.091,150.728,119.723,150.47C119.437,150.321,119.116,150.249,118.792,150.262Z" opacity="0.7" fill="rgb(255,255,255)" stroke="none" stroke-width="1" stroke-miterlimit="1"/></g></g></g><path id="empty-state-2-voltinha" d="M81.6644,89.123C87.5692,88.2774,92.9619,84.5103,96.407,79.7745C98.0136,77.5618,99.197,75.0759,99.8986,72.4402C100.644,69.9755,100.766,67.3672,100.256,64.8446C99.1925,60.6239,95.2508,58.1253,91.0841,57.6025C88.9698,57.3269,86.8199,57.5347,84.7991,58.2099C82.7039,58.9223,80.8861,60.2664,79.6004,62.0538C78.7944,63.0061,78.2873,64.1713,78.1417,65.4058C78.1293,65.8893,78.3014,66.3596,78.6235,66.723C78.9457,67.0864,79.3943,67.3161,79.8798,67.3662C81.1292,67.4705,82.3778,67.1565,83.4257,66.4744C84.7036,65.7644,85.8291,64.8138,86.7389,63.676C88.6906,61.2895,90.151,58.547,91.0376,55.6037C91.6596,53.0781,91.6596,50.4413,91.0376,47.9157C90.565,45.2738,89.3463,42.8187,87.5226,40.8352C85.432,38.9514,82.779,37.7937,79.9651,37.537C77.1646,37.1558,74.3131,37.4189,71.6317,38.3058C70.4539,38.6596,69.3628,39.2512,68.4271,40.0433C67.7598,40.6583,66.9994,41.6731,67.271,42.6726C67.5426,43.672,69.0168,44.1179,70.0178,43.9872C71.4992,43.7122,72.8561,42.9834,73.8974,41.9038C75.0579,40.7719,76.0435,39.4766,76.8226,38.0598C77.4015,37.0416,77.7036,35.8919,77.6994,34.7233C77.5986,29.8491,72.1593,26.6971,67.8995,25.8053C66.7496,25.5672,65.5717,25.4896,64.4001,25.5746C64.0044,25.5746,64.2449,26.2204,64.563,26.1974C66.8553,26.0941,69.1334,26.604,71.1584,27.6734C73.1562,28.5832,74.8341,30.0637,75.9769,31.9249C76.4861,32.8424,76.7375,33.8786,76.7048,34.9253C76.672,35.972,76.3563,36.9908,75.7907,37.8753C75.0309,39.1864,74.0849,40.3826,72.9818,41.4271C72.0585,42.2574,70.654,43.2184,69.3582,43.1262C69.1443,43.1257,68.9348,43.0656,68.7537,42.9528C68.5726,42.8399,68.4272,42.6789,68.334,42.4881C68.2949,42.2356,68.316,41.9776,68.3954,41.7347C68.4749,41.4917,68.6107,41.2706,68.7918,41.0889C69.477,40.3577,70.3244,39.7945,71.267,39.4436C73.5948,38.4849,76.1154,38.0743,78.6305,38.2443C81.2225,38.2908,83.7432,39.093,85.8777,40.5507C87.7371,42.0804,89.0577,44.1561,89.6487,46.4781C90.3973,48.8369,90.6301,51.3267,90.3315,53.7816C89.8707,56.2519,88.9128,58.605,87.5149,60.7008C86.0794,63.0533,84.2793,65.3135,81.5791,66.2361C80.9118,66.4744,79.5151,66.8203,79.2513,65.8594C78.9875,64.8984,79.7479,63.7144,80.2367,62.9687C81.3177,61.2831,82.8936,59.9658,84.7526,59.1939C86.5465,58.4815,88.4829,58.192,90.4091,58.3483C94.0637,58.6173,97.7726,60.5086,99.0451,64.1065C99.6834,66.2568,99.7529,68.5336,99.2468,70.7181C98.7904,73.1127,97.9216,75.4116,96.6785,77.5143C94.0047,81.9819,89.9552,85.4822,85.125,87.5009C83.9767,87.9929,82.7972,88.4081,81.5946,88.7925C81.4704,88.8386,81.5247,89.1461,81.6644,89.123Z" transform="matrix(0.563803 0 0 0.762873 53.141908 29.435148)" opacity="0" fill="rgb(199,228,244)" stroke="none" stroke-width="1" stroke-miterlimit="1"/><g id="empty-state-2-bicho" transform="matrix(0.650874 0 0 0.650874 43.404751 25.415001)" opacity="0"><path id="empty-state-2-path27" d="M56.9979,22.3767C53.8942,22.1538,49.6189,24.5755,51.1397,26.3437C52.6605,28.1119,56.6953,25.252,56.6953,25.252C56.6953,25.252,56.3151,28.8269,57.6342,29.2344C58.9532,29.6418,60.7379,26.2284,59.4188,24.045C60.0549,24.2935,60.7441,24.3787,61.4224,24.2927C62.1006,24.2066,62.746,23.9522,63.2984,23.553C65.1762,22.1845,63.1898,20.893,60.5439,21.1236C60.5439,21.1236,62.4371,14.9733,58.6118,16.1495C56.6953,16.7261,56.0202,18.9479,56.9979,22.3767Z" fill="rgb(74,108,128)" stroke="none" stroke-width="1" stroke-miterlimit="1"/><path id="empty-state-2-path28" d="M59.8841,23.6837C59.7123,23.5171,59.531,23.3605,59.3409,23.2148C59.0693,23.0072,58.7822,22.8073,58.5107,22.6074C58.2463,22.4169,57.9689,22.2448,57.6804,22.0923C57.5144,22.001,57.3435,21.9189,57.1683,21.8463C56.9265,21.7338,56.6576,21.6912,56.3924,21.7233C56.3229,21.7252,56.2552,21.7456,56.1964,21.7824C56.1376,21.8191,56.0898,21.8709,56.0581,21.9321C56.0264,21.9934,56.0119,22.062,56.0161,22.1308C56.0203,22.1995,56.0431,22.2659,56.082,22.323C56.2953,22.5519,56.5616,22.726,56.858,22.8304L57.277,23.0533C57.564,23.2224,57.8201,23.4146,58.0529,23.6068C58.2857,23.799,58.596,23.9835,58.8288,24.1757C59.229,24.4974,59.6765,24.7566,60.1556,24.9445C60.1771,24.956,60.2011,24.962,60.2255,24.962C60.2498,24.962,60.2738,24.956,60.2953,24.9445C60.691,24.637,60.1091,23.9067,59.8841,23.6837Z" fill="rgb(69,90,100)" stroke="none" stroke-width="1" stroke-miterlimit="1"/></g><script><![CDATA[!function(t,n){"object"==typeof exports&&"undefined"!=typeof module?module.exports=n():"function"==typeof define&&define.amd?define(n):(t="undefined"!=typeof globalThis?globalThis:t||self).__SVGATOR_PLAYER__=n()}(this,(function(){"use strict";function t(n){return(t="function"==typeof Symbol&&"symbol"==typeof Symbol.iterator?function(t){return typeof t}:function(t){return t&&"function"==typeof Symbol&&t.constructor===Symbol&&t!==Symbol.prototype?"symbol":typeof t})(n)}function n(t,n){if(!(t instanceof n))throw new TypeError("Cannot call a class as a function")}function r(t,n){for(var r=0;r<n.length;r++){var e=n[r];e.enumerable=e.enumerable||!1,e.configurable=!0,"value"in e&&(e.writable=!0),Object.defineProperty(t,e.key,e)}}function e(t,n,e){return n&&r(t.prototype,n),e&&r(t,e),t}function i(t){return(i=Object.setPrototypeOf?Object.getPrototypeOf:function(t){return t.__proto__||Object.getPrototypeOf(t)})(t)}function o(t,n){return(o=Object.setPrototypeOf||function(t,n){return t.__proto__=n,t})(t,n)}function u(t,n){return!n||"object"!=typeof n&&"function"!=typeof n?function(t){if(void 0===t)throw new ReferenceError("this hasn't been initialised - super() hasn't been called");return t}(t):n}function a(t){var n=function(){if("undefined"==typeof Reflect||!Reflect.construct)return!1;if(Reflect.construct.sham)return!1;if("function"==typeof Proxy)return!0;try{return Boolean.prototype.valueOf.call(Reflect.construct(Boolean,[],(function(){}))),!0}catch(t){return!1}}();return function(){var r,e=i(t);if(n){var o=i(this).constructor;r=Reflect.construct(e,arguments,o)}else r=e.apply(this,arguments);return u(this,r)}}function l(t,n,r){return(l="undefined"!=typeof Reflect&&Reflect.get?Reflect.get:function(t,n,r){var e=function(t,n){for(;!Object.prototype.hasOwnProperty.call(t,n)&&null!==(t=i(t)););return t}(t,n);if(e){var o=Object.getOwnPropertyDescriptor(e,n);return o.get?o.get.call(r):o.value}})(t,n,r||t)}var f=s(Math.pow(10,-6));function s(t){var n=arguments.length>1&&void 0!==arguments[1]?arguments[1]:6;if(Number.isInteger(t))return t;var r=Math.pow(10,n);return Math.round((+t+Number.EPSILON)*r)/r}function c(t,n){var r=arguments.length>2&&void 0!==arguments[2]?arguments[2]:f;return Math.abs(t-n)<r}var h=Math.PI/180;function v(t){return t}function y(t,n,r){var e=1-r;return 3*r*e*(t*e+n*r)+r*r*r}function d(){var t=arguments.length>0&&void 0!==arguments[0]?arguments[0]:0,n=arguments.length>1&&void 0!==arguments[1]?arguments[1]:0,r=arguments.length>2&&void 0!==arguments[2]?arguments[2]:1,e=arguments.length>3&&void 0!==arguments[3]?arguments[3]:1;return t<0||t>1||r<0||r>1?null:c(t,n)&&c(r,e)?v:function(i){if(i<=0)return t>0?i*n/t:0===n&&r>0?i*e/r:0;if(i>=1)return r<1?1+(i-1)*(e-1)/(r-1):1===r&&t<1?1+(i-1)*(n-1)/(t-1):1;for(var o,u=0,a=1;u<a;){var l=y(t,r,o=(u+a)/2);if(c(i,l))break;l<i?u=o:a=o}return y(n,e,o)}}function g(){return 1}function p(t){return 1===t?1:0}function m(){var t=arguments.length>0&&void 0!==arguments[0]?arguments[0]:1,n=arguments.length>1&&void 0!==arguments[1]?arguments[1]:0;if(1===t){if(0===n)return p;if(1===n)return g}var r=1/t;return function(t){return t>=1?1:(t+=n*r)-t%r}}function b(t,n,r){return t>=.5?r:n}function w(t,n,r){return 0===t||n===r?n:t*(r-n)+n}function x(t,n,r){var e=w(t,n,r);return e<=0?0:e}function k(t,n,r){return 0===t?n:1===t?r:{x:w(t,n.x,r.x),y:w(t,n.y,r.y)}}function A(t,n,r){var e=function(t,n,r){return Math.round(w(t,n,r))}(t,n,r);return e<=0?0:e>=255?255:e}function _(t,n,r){return 0===t?n:1===t?r:{r:A(t,n.r,r.r),g:A(t,n.g,r.g),b:A(t,n.b,r.b),a:w(t,null==n.a?1:n.a,null==r.a?1:r.a)}}function S(t,n,r){if(0===t)return n;if(1===t)return r;var e=n.length;if(e!==r.length)return b(t,n,r);for(var i=[],o=0;o<e;o++)i.push(_(t,n[o],r[o]));return i}function O(t,n){for(var r=[],e=0;e<t;e++)r.push(n);return r}function M(t,n){if(--n<=0)return t;var r=(t=Object.assign([],t)).length;do{for(var e=0;e<r;e++)t.push(t[e])}while(--n>0);return t}var j,P=function(){function t(r){n(this,t),this.list=r,this.length=r.length}return e(t,[{key:"setAttribute",value:function(t,n){for(var r=this.list,e=0;e<this.length;e++)r[e].setAttribute(t,n)}},{key:"removeAttribute",value:function(t){for(var n=this.list,r=0;r<this.length;r++)n[r].removeAttribute(t)}},{key:"style",value:function(t,n){for(var r=this.list,e=0;e<this.length;e++)r[e].style[t]=n}}]),t}(),B=/-./g,E=function(t,n){return n.toUpperCase()};function F(t){return"function"==typeof t?t:b}function I(t){return t?"function"==typeof t?t:Array.isArray(t)?function(t){var n=arguments.length>1&&void 0!==arguments[1]?arguments[1]:v;if(!Array.isArray(t))return n;switch(t.length){case 1:return m(t[0])||n;case 2:return m(t[0],t[1])||n;case 4:return d(t[0],t[1],t[2],t[3])||n}return n}(t,null):function(t,n){var r=arguments.length>2&&void 0!==arguments[2]?arguments[2]:v;switch(t){case"linear":return v;case"steps":return m(n.steps||1,n.jump||0)||r;case"bezier":case"cubic-bezier":return d(n.x1||0,n.y1||0,n.x2||0,n.y2||0)||r}return r}(t.type,t.value,null):null}function R(t,n,r){var e=arguments.length>3&&void 0!==arguments[3]&&arguments[3],i=n.length-1;if(t<=n[0].t)return e?[0,0,n[0].v]:n[0].v;if(t>=n[i].t)return e?[i,1,n[i].v]:n[i].v;var o,u=n[0],a=null;for(o=1;o<=i;o++){if(!(t>n[o].t)){a=n[o];break}u=n[o]}return null==a?e?[i,1,n[i].v]:n[i].v:u.t===a.t?e?[o,1,a.v]:a.v:(t=(t-u.t)/(a.t-u.t),u.e&&(t=u.e(t)),e?[o,t,r(t,u.v,a.v)]:r(t,u.v,a.v))}function q(t,n){var r=arguments.length>2&&void 0!==arguments[2]?arguments[2]:null;return t&&t.length?"function"!=typeof n?null:("function"!=typeof r&&(r=null),function(e){var i=R(e,t,n);return null!=i&&r&&(i=r(i)),i}):null}function T(t,n){return t.t-n.t}function N(n,r,e,i,o){var u,a="@"===e[0],l="#"===e[0],f=j[e],s=b;switch(a?(u=e.substr(1),e=u.replace(B,E)):l&&(e=e.substr(1)),t(f)){case"function":if(s=f(i,o,R,I,e,a,r,n),l)return s;break;case"string":s=q(i,F(f));break;case"object":if((s=q(i,F(f.i),f.f))&&"function"==typeof f.u)return f.u(r,s,e,a,n)}return s?function(t,n,r){var e=arguments.length>3&&void 0!==arguments[3]&&arguments[3];if(e)return t instanceof P?function(e){return t.style(n,r(e))}:function(e){return t.style[n]=r(e)};if(Array.isArray(n)){var i=n.length;return function(e){var o=r(e);if(null==o)for(var u=0;u<i;u++)t[u].removeAttribute(n);else for(var a=0;a<i;a++)t[a].setAttribute(n,o)}}return function(e){var i=r(e);null==i?t.removeAttribute(n):t.setAttribute(n,i)}}(r,e,s,a):null}function C(n,r,e,i){if(!i||"object"!==t(i))return null;var o=null,u=null;return Array.isArray(i)?u=function(t){if(!t||!t.length)return null;for(var n=0;n<t.length;n++)t[n].e&&(t[n].e=I(t[n].e));return t.sort(T)}(i):(u=i.keys,o=i.data||null),u?N(n,r,e,u,o):null}function z(t,n,r){if(!r)return null;var e=[];for(var i in r)if(r.hasOwnProperty(i)){var o=C(t,n,i,r[i]);o&&e.push(o)}return e.length?e:null}function L(t,n){if(!n.duration||n.duration<0)return null;var r=function(t,n){if(!n)return null;var r=[];if(Array.isArray(n))for(var e=n.length,i=0;i<e;i++){var o=n[i];if(2===o.length){var u=null;if("string"==typeof o[0])u=t.getElementById(o[0]);else if(Array.isArray(o[0])){u=[];for(var a=0;a<o[0].length;a++)if("string"==typeof o[0][a]){var l=t.getElementById(o[0][a]);l&&u.push(l)}u=u.length?1===u.length?u[0]:new P(u):null}if(u){var f=z(t,u,o[1]);f&&(r=r.concat(f))}}}else for(var s in n)if(n.hasOwnProperty(s)){var c=t.getElementById(s);if(c){var h=z(t,c,n[s]);h&&(r=r.concat(h))}}return r.length?r:null}(t,n.elements);return r?function(t,n){var r=arguments.length>2&&void 0!==arguments[2]?arguments[2]:1/0,e=arguments.length>3&&void 0!==arguments[3]?arguments[3]:1,i=arguments.length>4&&void 0!==arguments[4]&&arguments[4],o=arguments.length>5&&void 0!==arguments[5]?arguments[5]:1,u=t.length,a=e>0?n:0;i&&r%2==0&&(a=n-a);var l=null;return function(f,s){var c=f%n,h=1+(f-c)/n;s*=e,i&&h%2==0&&(s=-s);var v=!1;if(h>r)c=a,v=!0,-1===o&&(c=e>0?0:n);else if(s<0&&(c=n-c),c===l)return!1;l=c;for(var y=0;y<u;y++)t[y](c);return v}}(r,n.duration,n.iterations||1/0,n.direction||1,!!n.alternate,n.fill||1):null}var D=function(){function t(r,e){var i=arguments.length>2&&void 0!==arguments[2]?arguments[2]:{};n(this,t),this._id=0,this._running=!1,this._rollingBack=!1,this._animations=r,this.duration=e.duration,this.alternate=e.alternate,this.fill=e.fill,this.iterations=e.iterations,this.direction=i.direction||1,this.speed=i.speed||1,this.fps=i.fps||100,this.offset=i.offset||0,this.rollbackStartOffset=0}return e(t,[{key:"_rollback",value:function(){var t=this,n=1/0,r=null;this.rollbackStartOffset=this.offset,this._rollingBack||(this._rollingBack=!0,this._running=!0);this._id=window.requestAnimationFrame((function e(i){if(t._rollingBack){null==r&&(r=i);var o=i-r,u=t.rollbackStartOffset-o,a=Math.round(u*t.speed);if(a>t.duration&&n!=1/0){var l=!!t.alternate&&a/t.duration%2>1,f=a%t.duration;a=(f+=l?t.duration:0)||t.duration}var s=t.fps?1e3/t.fps:0,c=Math.max(0,a);if(c<n-s){t.offset=c,n=c;for(var h=t._animations,v=h.length,y=0;y<v;y++)h[y](c,t.direction)}var d=!1;if(t.iterations>0&&-1===t.fill){var g=t.iterations*t.duration,p=g==a;a=p?0:a,t.offset=p?0:t.offset,d=a>g}a>0&&t.offset>=a&&!d?t._id=window.requestAnimationFrame(e):t.stop()}}))}},{key:"_start",value:function(){var t=this,n=arguments.length>0&&void 0!==arguments[0]?arguments[0]:0,r=-1/0,e=null,i={},o=function o(u){t._running=!0,null==e&&(e=u);var a=Math.round((u-e+n)*t.speed),l=t.fps?1e3/t.fps:0;if(a>r+l&&!t._rollingBack){t.offset=a,r=a;for(var f=t._animations,s=f.length,c=0,h=0;h<s;h++)i[h]?c++:(i[h]=f[h](a,t.direction),i[h]&&c++);if(c===s)return void t._stop()}t._id=window.requestAnimationFrame(o)};this._id=window.requestAnimationFrame(o)}},{key:"_stop",value:function(){this._id&&window.cancelAnimationFrame(this._id),this._running=!1,this._rollingBack=!1}},{key:"play",value:function(){!this._rollingBack&&this._running||(this._rollingBack=!1,this.rollbackStartOffset>this.duration&&(this.offset=this.rollbackStartOffset-(this.rollbackStartOffset-this.offset)%this.duration,this.rollbackStartOffset=0),this._start(this.offset))}},{key:"stop",value:function(){this._stop(),this.offset=0,this.rollbackStartOffset=0;var t=this.direction,n=this._animations;window.requestAnimationFrame((function(){for(var r=0;r<n.length;r++)n[r](0,t)}))}},{key:"reachedToEnd",value:function(){return this.iterations>0&&this.offset>=this.iterations*this.duration}},{key:"restart",value:function(){this._stop(),this.offset=0,this._start()}},{key:"pause",value:function(){this._stop()}},{key:"reverse",value:function(){this.direction=-this.direction}}],[{key:"build",value:function(n,r){return(n=function(t,n){if(j=n,!t||!t.root||!Array.isArray(t.animations))return null;for(var r=document.getElementsByTagName("svg"),e=!1,i=0;i<r.length;i++)if(r[i].id===t.root&&!r[i].svgatorAnimation){(e=r[i]).svgatorAnimation=!0;break}if(!e)return null;var o=t.animations.map((function(t){return L(e,t)})).filter((function(t){return!!t}));return o.length?{element:e,animations:o,animationSettings:t.animationSettings,options:t.options||void 0}:null}(n,r))?{el:n.element,options:n.options||{},player:new t(n.animations,n.animationSettings,n.options)}:null}}]),t}();function Q(t){return s(t)+""}function U(t){var n=arguments.length>1&&void 0!==arguments[1]?arguments[1]:" ";return t&&t.length?t.map(Q).join(n):""}function V(t){return t?null==t.a||t.a>=1?"rgb("+t.r+","+t.g+","+t.b+")":"rgba("+t.r+","+t.g+","+t.b+","+t.a+")":"transparent"}!function(){for(var t=0,n=["ms","moz","webkit","o"],r=0;r<n.length&&!window.requestAnimationFrame;++r)window.requestAnimationFrame=window[n[r]+"RequestAnimationFrame"],window.cancelAnimationFrame=window[n[r]+"CancelAnimationFrame"]||window[n[r]+"CancelRequestAnimationFrame"];window.requestAnimationFrame||(window.requestAnimationFrame=function(n){var r=Date.now(),e=Math.max(0,16-(r-t)),i=window.setTimeout((function(){n(r+e)}),e);return t=r+e,i},window.cancelAnimationFrame=window.clearTimeout)}();var G={f:null,i:function(t,n,r){return 0===t?n:1===t?r:{x:x(t,n.x,r.x),y:x(t,n.y,r.y)}},u:function(t,n){return function(r){var e=n(r);t.setAttribute("rx",Q(e.x)),t.setAttribute("ry",Q(e.y))}}},H={f:null,i:function(t,n,r){return 0===t?n:1===t?r:{width:x(t,n.width,r.width),height:x(t,n.height,r.height)}},u:function(t,n){return function(r){var e=n(r);t.setAttribute("width",Q(e.width)),t.setAttribute("height",Q(e.height))}}},Y=Math.sin,Z=Math.cos,J=Math.acos,K=Math.asin,W=Math.tan,X=Math.atan2,$=Math.PI/180,tt=180/Math.PI,nt=Math.sqrt,rt=function(){function t(){var r=arguments.length>0&&void 0!==arguments[0]?arguments[0]:1,e=arguments.length>1&&void 0!==arguments[1]?arguments[1]:0,i=arguments.length>2&&void 0!==arguments[2]?arguments[2]:0,o=arguments.length>3&&void 0!==arguments[3]?arguments[3]:1,u=arguments.length>4&&void 0!==arguments[4]?arguments[4]:0,a=arguments.length>5&&void 0!==arguments[5]?arguments[5]:0;n(this,t),this.m=[r,e,i,o,u,a],this.i=null,this.w=null,this.s=null}return e(t,[{key:"determinant",get:function(){var t=this.m;return t[0]*t[3]-t[1]*t[2]}},{key:"isIdentity",get:function(){if(null===this.i){var t=this.m;this.i=1===t[0]&&0===t[1]&&0===t[2]&&1===t[3]&&0===t[4]&&0===t[5]}return this.i}},{key:"point",value:function(t,n){var r=this.m;return{x:r[0]*t+r[2]*n+r[4],y:r[1]*t+r[3]*n+r[5]}}},{key:"translateSelf",value:function(){var t=arguments.length>0&&void 0!==arguments[0]?arguments[0]:0,n=arguments.length>1&&void 0!==arguments[1]?arguments[1]:0;if(!t&&!n)return this;var r=this.m;return r[4]+=r[0]*t+r[2]*n,r[5]+=r[1]*t+r[3]*n,this.w=this.s=this.i=null,this}},{key:"rotateSelf",value:function(){var t=arguments.length>0&&void 0!==arguments[0]?arguments[0]:0;if(t%=360){var n=Y(t*=$),r=Z(t),e=this.m,i=e[0],o=e[1];e[0]=i*r+e[2]*n,e[1]=o*r+e[3]*n,e[2]=e[2]*r-i*n,e[3]=e[3]*r-o*n,this.w=this.s=this.i=null}return this}},{key:"scaleSelf",value:function(){var t=arguments.length>0&&void 0!==arguments[0]?arguments[0]:1,n=arguments.length>1&&void 0!==arguments[1]?arguments[1]:1;if(1!==t||1!==n){var r=this.m;r[0]*=t,r[1]*=t,r[2]*=n,r[3]*=n,this.w=this.s=this.i=null}return this}},{key:"skewSelf",value:function(t,n){if(n%=360,(t%=360)||n){var r=this.m,e=r[0],i=r[1],o=r[2],u=r[3];t&&(t=W(t*$),r[2]+=e*t,r[3]+=i*t),n&&(n=W(n*$),r[0]+=o*n,r[1]+=u*n),this.w=this.s=this.i=null}return this}},{key:"resetSelf",value:function(){var t=arguments.length>0&&void 0!==arguments[0]?arguments[0]:1,n=arguments.length>1&&void 0!==arguments[1]?arguments[1]:0,r=arguments.length>2&&void 0!==arguments[2]?arguments[2]:0,e=arguments.length>3&&void 0!==arguments[3]?arguments[3]:1,i=arguments.length>4&&void 0!==arguments[4]?arguments[4]:0,o=arguments.length>5&&void 0!==arguments[5]?arguments[5]:0,u=this.m;return u[0]=t,u[1]=n,u[2]=r,u[3]=e,u[4]=i,u[5]=o,this.w=this.s=this.i=null,this}},{key:"recomposeSelf",value:function(){var t=arguments.length>0&&void 0!==arguments[0]?arguments[0]:null,n=arguments.length>1&&void 0!==arguments[1]?arguments[1]:null,r=arguments.length>2&&void 0!==arguments[2]?arguments[2]:null,e=arguments.length>3&&void 0!==arguments[3]?arguments[3]:null,i=arguments.length>4&&void 0!==arguments[4]?arguments[4]:null;return this.isIdentity||this.resetSelf(),t&&(t.x||t.y)&&this.translateSelf(t.x,t.y),n&&this.rotateSelf(n),r&&(r.x&&this.skewSelf(r.x,0),r.y&&this.skewSelf(0,r.y)),!e||1===e.x&&1===e.y||this.scaleSelf(e.x,e.y),i&&(i.x||i.y)&&this.translateSelf(i.x,i.y),this}},{key:"decompose",value:function(){var t=arguments.length>0&&void 0!==arguments[0]?arguments[0]:0,n=arguments.length>1&&void 0!==arguments[1]?arguments[1]:0,r=this.m,e=r[0]*r[0]+r[1]*r[1],i=[[r[0],r[1]],[r[2],r[3]]],o=nt(e);if(0===o)return{origin:{x:s(r[4]),y:s(r[5])},translate:{x:s(t),y:s(n)},scale:{x:0,y:0},skew:{x:0,y:0},rotate:0};i[0][0]/=o,i[0][1]/=o;var u=r[0]*r[3]-r[1]*r[2]<0;u&&(o=-o);var a=i[0][0]*i[1][0]+i[0][1]*i[1][1];i[1][0]-=i[0][0]*a,i[1][1]-=i[0][1]*a;var l=nt(i[1][0]*i[1][0]+i[1][1]*i[1][1]);if(0===l)return{origin:{x:s(r[4]),y:s(r[5])},translate:{x:s(t),y:s(n)},scale:{x:s(o),y:0},skew:{x:0,y:0},rotate:0};i[1][0]/=l,i[1][1]/=l,a/=l;var f=0;return i[1][1]<0?(f=J(i[1][1])*tt,i[0][1]<0&&(f=360-f)):f=K(i[0][1])*tt,u&&(f=-f),a=X(a,nt(i[0][0]*i[0][0]+i[0][1]*i[0][1]))*tt,u&&(a=-a),{origin:{x:s(r[4]),y:s(r[5])},translate:{x:s(t),y:s(n)},scale:{x:s(o),y:s(l)},skew:{x:s(a),y:0},rotate:s(f)}}},{key:"toString",value:function(){return null===this.s&&(this.s="matrix("+this.m.map((function(t){return s(t)})).join(" ")+")"),this.s}}]),t}();Object.freeze({M:2,L:2,Z:0,H:1,V:1,C:6,Q:4,T:2,S:4,A:7});var et={},it=null;function ot(n){var r=function(){if(it)return it;if("object"!==("undefined"==typeof document?"undefined":t(document))||!document.createElementNS)return{};var n=document.createElementNS("http://www.w3.org/2000/svg","svg");return n&&n.style?(n.style.position="absolute",n.style.opacity="0.01",n.style.zIndex="-9999",n.style.left="-9999px",n.style.width="1px",n.style.height="1px",it={svg:n}):{}}().svg;if(!r)return function(t){return null};var e=document.createElementNS(r.namespaceURI,"path");e.setAttributeNS(null,"d",n),e.setAttributeNS(null,"fill","none"),e.setAttributeNS(null,"stroke","none"),r.appendChild(e);var i=e.getTotalLength();return function(t){var n=e.getPointAtLength(i*t);return{x:n.x,y:n.y}}}function ut(t){return et[t]?et[t]:et[t]=ot(t)}function at(t,n,r,e){if(!t||!e)return!1;var i=["M",t.x,t.y];if(n&&r&&(i.push("C"),i.push(n.x),i.push(n.y),i.push(r.x),i.push(r.y)),n?!r:r){var o=n||r;i.push("Q"),i.push(o.x),i.push(o.y)}return n||r||i.push("L"),i.push(e.x),i.push(e.y),i.join(" ")}function lt(t,n,r,e){var i=arguments.length>4&&void 0!==arguments[4]?arguments[4]:1,o=at(t,n,r,e),u=ut(o);try{return u(i)}catch(t){return null}}function ft(t,n,r,e){var i=1-e;return i*i*t+2*i*e*n+e*e*r}function st(t,n,r,e){return 2*(1-e)*(n-t)+2*e*(r-n)}function ct(t,n,r,e){var i=arguments.length>4&&void 0!==arguments[4]&&arguments[4],o=lt(t,n,null,r,e);return o||(o={x:ft(t.x,n.x,r.x,e),y:ft(t.y,n.y,r.y,e)}),i&&(o.a=ht(t,n,r,e)),o}function ht(t,n,r,e){return Math.atan2(st(t.y,n.y,r.y,e),st(t.x,n.x,r.x,e))}function vt(t,n,r,e,i){var o=i*i;return i*o*(e-t+3*(n-r))+3*o*(t+r-2*n)+3*i*(n-t)+t}function yt(t,n,r,e,i){var o=1-i;return 3*(o*o*(n-t)+2*o*i*(r-n)+i*i*(e-r))}function dt(t,n,r,e,i){var o=arguments.length>5&&void 0!==arguments[5]&&arguments[5],u=lt(t,n,r,e,i);return u||(u={x:vt(t.x,n.x,r.x,e.x,i),y:vt(t.y,n.y,r.y,e.y,i)}),o&&(u.a=gt(t,n,r,e,i)),u}function gt(t,n,r,e,i){return Math.atan2(yt(t.y,n.y,r.y,e.y,i),yt(t.x,n.x,r.x,e.x,i))}function pt(t,n,r){return t+(n-t)*r}function mt(t,n,r){var e=arguments.length>3&&void 0!==arguments[3]&&arguments[3],i={x:pt(t.x,n.x,r),y:pt(t.y,n.y,r)};return e&&(i.a=bt(t,n)),i}function bt(t,n){return Math.atan2(n.y-t.y,n.x-t.x)}function wt(t,n,r){var e=arguments.length>3&&void 0!==arguments[3]&&arguments[3];if(kt(n)){if(At(r))return ct(n,r.start,r,t,e)}else if(kt(r)){if(n.end)return ct(n,n.end,r,t,e)}else{if(n.end)return r.start?dt(n,n.end,r.start,r,t,e):ct(n,n.end,r,t,e);if(r.start)return ct(n,r.start,r,t,e)}return mt(n,r,t,e)}function xt(t,n,r){var e=wt(t,n,r,!0);return e.a=function(t){var n=arguments.length>1&&void 0!==arguments[1]&&arguments[1];return n?t+Math.PI:t}(e.a)/h,e}function kt(t){return!t.type||"corner"===t.type}function At(t){return null!=t.start&&!kt(t)}var _t=new rt;var St={f:Q,i:w},Ot={f:Q,i:function(t,n,r){var e=w(t,n,r);return e<=0?0:e>=1?1:e}};function Mt(t,n,r,e,i,o,u,a){return n=function(t,n,r){for(var e,i,o,u=t.length-1,a={},l=0;l<=u;l++)(e=t[l]).e&&(e.e=n(e.e)),e.v&&"g"===(i=e.v).t&&i.r&&(o=r.getElementById(i.r))&&(a[i.r]=o.querySelectorAll("stop"));return a}(t,e,a),function(e){var i,o=r(e,t,jt);return o?"c"===o.t?V(o.v):"g"===o.t?(n[o.r]&&function(t,n){for(var r=0,e=t.length;r<e;r++)t[r].setAttribute("stop-color",V(n[r]))}(n[o.r],o.v),(i=o.r)?"url(#"+i+")":"none"):"none":"none"}}function jt(t,n,r){if(0===t)return n;if(1===t)return r;if(n&&r){var e=n.t;if(e===r.t)switch(n.t){case"c":return{t:e,v:_(t,n.v,r.v)};case"g":if(n.r===r.r)return{t:e,v:S(t,n.v,r.v),r:n.r}}}return b(t,n,r)}var Pt={fill:Mt,"fill-opacity":Ot,stroke:Mt,"stroke-opacity":Ot,"stroke-width":St,"stroke-dashoffset":{f:Q,i:w},"stroke-dasharray":{f:function(t){var n=arguments.length>1&&void 0!==arguments[1]?arguments[1]:" ";return t&&t.length>0&&(t=t.map((function(t){return s(t,4)}))),U(t,n)},i:function(t,n,r){var e,i,o,u=n.length,a=r.length;if(u!==a)if(0===u)n=O(u=a,0);else if(0===a)a=u,r=O(u,0);else{var l=(o=(e=u)*(i=a)/function(t,n){for(var r;n;)r=n,n=t%n,t=r;return t||1}(e,i))<0?-o:o;n=M(n,Math.floor(l/u)),r=M(r,Math.floor(l/a)),u=a=l}for(var f=[],c=0;c<u;c++)f.push(s(x(t,n[c],r[c])));return f}},opacity:Ot,transform:function(n,r,e,i){if(!(n=function(n,r){if(!n||"object"!==t(n))return null;var e=!1;for(var i in n)n.hasOwnProperty(i)&&(n[i]&&n[i].length?(n[i].forEach((function(t){t.e&&(t.e=r(t.e))})),e=!0):delete n[i]);return e?n:null}(n,i)))return null;var o=function(t,i,o){var u=arguments.length>3&&void 0!==arguments[3]?arguments[3]:null;return n[t]?e(i,n[t],o):r&&r[t]?r[t]:u};return r&&r.a&&n.o?function(t){var r=e(t,n.o,xt);return _t.recomposeSelf(r,o("r",t,w,0)+r.a,o("k",t,k),o("s",t,k),o("t",t,k)).toString()}:function(t){return _t.recomposeSelf(o("o",t,wt,null),o("r",t,w,0),o("k",t,k),o("s",t,k),o("t",t,k)).toString()}},r:St,"#size":H,"#radius":G,_:function(t,n){if(Array.isArray(t))for(var r=0;r<t.length;r++)this[t[r]]=n;else this[t]=n}};return function(t){!function(t,n){if("function"!=typeof n&&null!==n)throw new TypeError("Super expression must either be null or a function");t.prototype=Object.create(n&&n.prototype,{constructor:{value:t,writable:!0,configurable:!0}}),n&&o(t,n)}(u,t);var r=a(u);function u(){return n(this,u),r.apply(this,arguments)}return e(u,null,[{key:"build",value:function(t){var n=l(i(u),"build",this).call(this,t,Pt);if(!n)return null;n.el,n.options;var r=n.player;return function(t,n,r){t.play()}(r),r}}]),u}(D)}));
__SVGATOR_PLAYER__.build({"root":"empty-state-2","animations":[{"duration":1500,"direction":1,"iterations":1,"fill":1,"alternate":false,"speed":1,"elements":{"empty-state-2-caixa":{"transform":{"data":{"o":{"x":97.5,"y":104.997542,"type":"corner"},"t":{"x":-100.5,"y":-100.322}},"keys":{"s":[{"t":0,"v":{"x":0.764082,"y":0.764082},"e":[0.42,0,0.58,1]},{"t":1200,"v":{"x":1,"y":1}}]}},"opacity":[{"t":0,"v":0},{"t":1200,"v":1,"e":[0.42,0,0.58,1]}]},"empty-state-2-voltinha":{"transform":{"data":{"o":{"x":105.418,"y":92.988943,"type":"corner"},"t":{"x":-92.720492,"y":-83.308487}},"keys":{"s":[{"t":900,"v":{"x":0.563803,"y":0.762873},"e":[0.42,0,1,1]},{"t":1500,"v":{"x":1,"y":1}}]}},"opacity":[{"t":900,"v":0},{"t":1500,"v":1}]},"empty-state-2-bicho":{"transform":{"data":{"t":{"x":-57.430012,"y":-22.633896}},"keys":{"o":[{"t":1100,"v":{"x":80.784453,"y":40.146815,"type":"corner"},"e":[0.42,0,0.58,1]},{"t":1500,"v":{"x":70.127518,"y":32.314351,"type":"corner"}}],"s":[{"t":1100,"v":{"x":0.650874,"y":0.650874}},{"t":1500,"v":{"x":1,"y":1}}]}},"opacity":[{"t":1100,"v":0},{"t":1500,"v":1}]}}}],"options":{"start":"load","hover":null,"click":null,"scroll":null,"font":"embed","exportedIds":"names","svgFormat":"animated","title":"empty-state-2"},"animationSettings":{"duration":1500,"direction":1,"iterations":1,"fill":1,"alternate":false,"speed":1}})]]></script></svg>