<svg width="22" height="22" viewBox="0 0 22 22" fill="none" xmlns="http://www.w3.org/2000/svg">
<path fill-rule="evenodd" clip-rule="evenodd" d="M11.0001 0.916626C5.43133 0.916626 0.916748 5.43121 0.916748 11C0.916748 16.5687 5.43133 21.0833 11.0001 21.0833C16.5688 21.0833 21.0834 16.5687 21.0834 11C21.0834 5.43121 16.5688 0.916626 11.0001 0.916626ZM14.3982 8.89804C14.5651 8.72516 14.6575 8.49361 14.6554 8.25326C14.6534 8.01291 14.557 7.783 14.387 7.61304C14.217 7.44308 13.9871 7.34668 13.7468 7.34459C13.5064 7.3425 13.2749 7.4349 13.102 7.60188L11.0001 9.70379L8.89816 7.60188C8.8136 7.51432 8.71246 7.44449 8.60062 7.39645C8.48878 7.34841 8.3685 7.32312 8.24678 7.32206C8.12507 7.32101 8.00436 7.3442 7.89171 7.39029C7.77905 7.43638 7.6767 7.50445 7.59064 7.59051C7.50457 7.67658 7.4365 7.77893 7.39041 7.89158C7.34432 8.00424 7.32113 8.12495 7.32218 8.24666C7.32324 8.36837 7.34853 8.48866 7.39657 8.6005C7.44461 8.71233 7.51445 8.81348 7.602 8.89804L9.70391 11L7.602 13.1019C7.51445 13.1864 7.44461 13.2876 7.39657 13.3994C7.34853 13.5113 7.32324 13.6315 7.32218 13.7533C7.32113 13.875 7.34432 13.9957 7.39041 14.1083C7.4365 14.221 7.50457 14.3233 7.59064 14.4094C7.6767 14.4955 7.77905 14.5635 7.89171 14.6096C8.00436 14.6557 8.12507 14.6789 8.24678 14.6779C8.3685 14.6768 8.48878 14.6515 8.60062 14.6035C8.71246 14.5554 8.8136 14.4856 8.89816 14.398L11.0001 12.2961L13.102 14.398C13.2749 14.565 13.5064 14.6574 13.7468 14.6553C13.9871 14.6532 14.217 14.5568 14.387 14.3869C14.557 14.2169 14.6534 13.987 14.6554 13.7467C14.6575 13.5063 14.5651 13.2748 14.3982 13.1019L12.2962 11L14.3982 8.89804Z" fill="#AD0505"/>
</svg>
