<svg width="388" height="349" viewBox="0 0 388 349" fill="none" xmlns="http://www.w3.org/2000/svg">
<path d="M44.718 15.694C44.718 7.02646 51.7528 0 60.4178 0H201.101L258.258 57.073V237.093C258.258 245.764 251.214 252.794 242.556 252.794H60.4201C51.748 252.794 44.718 245.769 44.718 237.1V15.694Z" fill="#F2F6FB"/>
<path d="M201.101 0L258.258 57.073L204.633 66.7331C196.094 68.2713 190.359 62.5984 191.826 54.0467L201.101 0Z" fill="#D8DEED"/>
<path d="M385.867 349C386.763 349 387.48 348.38 387.48 347.635V347.139C387.48 346.395 386.727 345.775 385.867 345.775H349.136C348.24 345.775 347.523 346.395 347.523 347.139V347.635C347.523 348.38 348.275 349 349.136 349H385.867ZM287.319 345.775H226.399C225.508 345.775 224.786 346.497 224.786 347.387C224.786 348.278 225.508 349 226.399 349H287.319C288.21 349 288.932 348.278 288.932 347.387C288.932 346.497 288.21 345.775 287.319 345.775Z" fill="#FF5645"/>
<path d="M226.208 345.786C226.27 345.779 226.334 345.775 226.399 345.775H287.319C287.421 345.775 287.521 345.784 287.618 345.802L284.739 322.84H257.791C255.2 324.685 253.061 326.262 251.376 327.57C250.88 327.956 250.391 328.343 249.909 328.731C247.529 330.65 244.914 332.256 242.126 333.511C239.356 334.758 236.587 336.051 233.817 337.389C232.097 338.213 230.448 339.109 228.8 340.149C228.011 340.865 226.614 342.299 226.184 344.019C226.112 344.305 226.112 344.592 226.076 344.843C226.076 345.179 226.126 345.495 226.208 345.786ZM348.547 345.869C348.729 345.808 348.927 345.775 349.136 345.775H385.406C383.954 342.627 380.715 334.988 375.69 322.859H347.273L348.547 345.869Z" fill="#474961"/>
<path d="M309.034 208.865L336.825 308.618C338.121 313.267 342.355 316.483 347.182 316.483H369.861C375.799 316.483 380.612 311.67 380.612 305.733C380.612 304.82 380.496 303.912 380.266 303.029L350.379 188.024C346.011 164.129 342.34 148.625 339.363 141.512C334.665 130.284 325.405 124.681 321.393 124.397C302.474 123.056 292.717 123.618 292.121 126.084C286.998 127.59 273.873 148.828 262.7 200.804C255.796 232.922 252.074 268.205 251.535 306.652C251.451 312.589 256.197 317.47 262.133 317.553C262.185 317.554 262.237 317.554 262.289 317.554L283.389 317.545C289.073 317.542 293.773 313.116 294.116 307.442L298.929 227.698L309.034 208.865Z" fill="#C04A26"/>
<path d="M244.519 69.8736L242.752 95.1397C242.655 96.5217 243.697 97.7204 245.079 97.817L254.374 98.467C255.756 98.5636 256.955 97.5216 257.051 96.1396L259.201 65.396C259.214 65.2064 259.206 65.0203 259.179 64.84L259.376 64.7721L269.241 63.1303C272.687 62.5568 275.326 59.7535 275.692 56.2791L275.693 56.27C276.058 52.7896 274.086 49.4846 270.849 48.1541L260.897 44.0631L239.214 29.387C238.845 29.1373 238.416 28.9904 237.972 28.9613C236.589 28.8707 235.395 29.9179 235.305 31.3004L232.753 70.2378C232.731 70.5694 232.776 70.9021 232.884 71.2165C233.334 72.5268 234.761 73.2243 236.071 72.7744L244.519 69.8736Z" fill="#474961"/>
<path opacity="0.176986" d="M247.437 62.1241L256.732 62.774C258.114 62.8706 259.156 64.0693 259.059 65.4514L256.909 96.1949C256.813 97.5769 255.614 98.6189 254.232 98.5223L244.937 97.8723C243.555 97.7757 242.513 96.577 242.61 95.195L244.76 64.4514C244.856 63.0694 246.055 62.0274 247.437 62.1241Z" fill="#444444"/>
<path d="M233.817 29.818C233.927 28.2385 235.297 27.0477 236.877 27.1581C238.456 27.2686 239.647 28.6385 239.537 30.218L236.662 71.3285C236.551 72.9079 235.182 74.0988 233.602 73.9884C232.023 73.8779 230.832 72.508 230.942 70.9285L233.817 29.818Z" fill="#474BFF"/>
<path d="M296.895 68.2411C291.121 70.7899 286.947 75.6296 285.391 81.1023C284.855 82.9657 284.754 84.9725 284.955 86.9077L287.169 112.1C287.203 112.494 287.236 112.853 287.236 113.247C287.27 115.11 287.639 117.404 289.081 119.303C291.161 122.098 294.381 126.04 307.799 125.897C320.278 125.753 323.263 121.812 325.276 119.088C326.719 117.153 327.02 114.501 327.054 112.709C327.054 112.315 327.088 111.957 327.121 111.563L328.078 99.2578C328.99 100.006 329.838 100.582 330.61 100.924C333.557 102.23 335.539 99.6353 336.555 93.1403C339.795 88.9644 349.37 82.8779 333.741 70.9879C327.883 66.5315 322.438 66.3971 318.284 68.2693C315.604 67.1572 312.55 66.4935 309.255 66.3617L309.188 65.4083C309.119 64.4211 308.263 63.6768 307.276 63.7458L298.339 64.3708C297.352 64.4398 296.607 65.296 296.676 66.2832L296.776 67.7131C296.789 67.899 296.83 68.0763 296.895 68.2411Z" fill="#6827AB"/>
<path d="M375.69 322.859L373.306 315.942L346.718 316.483L347.273 322.859H375.69ZM265.234 189.457C275.831 145.489 287.456 127.294 292.143 126.065C292.147 126.042 292.152 126.019 292.157 125.997C288.815 123.622 284.841 120.263 280.235 115.92C269.007 134.401 262.996 152.47 262.201 170.126C261.742 180.319 262.754 186.763 265.234 189.457ZM261.959 75.0422C261.755 74.9436 261.534 74.8711 261.3 74.8298L245.419 72.0295C244.055 71.789 242.754 72.7 242.513 74.0643L242.327 75.1231C242.216 75.7526 242.35 76.3688 242.661 76.8734C242.221 77.2395 241.904 77.7571 241.797 78.3646L241.61 79.4233C241.449 80.3346 241.802 81.2176 242.461 81.7753C241.587 82.0422 240.891 82.7785 240.722 83.7399L240.535 84.7987C240.294 86.163 241.205 87.4641 242.57 87.7046L255.488 89.9824C275.867 112.832 290.01 125.968 297.916 129.389C305.08 132.49 315.942 122.918 330.501 100.675C326.071 98.4619 319.261 89.0739 312.49 83.5179C312.405 83.4481 312.323 83.3762 312.244 83.3025L298.347 101.114C274.102 83.7023 261.979 74.9965 261.979 74.9965L261.959 75.0422ZM297.228 60.8541L297.448 64.8013C303.748 64.61 307.25 64.3153 307.952 63.9172L307.741 57.3608L307.952 54.8609L307.77 52.8365L304.859 53.1415L304.713 52.806C304.751 52.7727 304.754 52.737 304.754 52.737C304.886 52.387 305.228 52.1235 305.514 52.1435C306.17 52.0098 307.16 51.7198 308.039 50.9551C309.266 49.8554 310.078 48.0082 309.636 46.1093C309.224 44.2844 309.089 41.4005 307.371 41.3162C306.403 41.2845 304.866 41.2522 304.754 41.3162C304.641 41.3802 302.278 42.9365 302.373 42.081C302.437 41.5107 302.77 38.4685 303.371 32.9544C303.411 32.3825 303.017 31.852 302.447 31.7763C301.413 31.668 300.422 31.455 299.403 31.1323C298.305 30.9118 297.526 30.7496 297.278 30.6963C295.544 30.3236 292.391 30.2109 289.522 31.1598C288.303 31.6493 287.101 32.3915 286.056 33.468C285.786 33.7365 285.51 34.0764 285.235 34.4164C285.156 34.5187 285.077 34.6209 284.996 34.7589C284.196 35.9244 283.705 37.291 283.605 38.721L283.05 45.1124C283.041 45.7584 282.996 46.4019 283.058 47.0528C283.573 55.0997 286.358 61.0061 289.297 61.6069C289.65 61.7034 291.568 62.0171 293.89 61.6766C294.11 61.6201 293.926 61.6791 297.071 60.8931C297.123 60.8801 297.176 60.8671 297.228 60.8541ZM284.871 324.896L284.091 317.554L260.001 317.275L257.665 323.15L284.871 324.896Z" fill="#F2A98A"/>
<path opacity="0.176986" d="M309.132 208.632L292.225 126.276C292.222 126.198 292.228 126.121 292.242 126.046C287.227 127.178 273.955 148.321 262.673 200.805C255.751 233.002 252.036 268.299 251.525 306.697C251.449 312.462 256.06 317.197 261.825 317.274C261.872 317.274 261.918 317.275 261.964 317.275C265.142 317.275 272.24 317.329 283.258 317.437C288.985 317.494 293.75 313.051 294.095 307.335L298.902 227.699L309.132 208.632Z" fill="#444444"/>
<path opacity="0.2" d="M265.235 189.457C275.831 145.489 287.456 127.294 292.143 126.065C292.147 126.042 292.152 126.019 292.157 125.997C288.815 123.622 284.841 120.263 280.235 115.92C269.007 134.401 262.996 152.47 262.201 170.125C261.743 180.319 262.754 186.763 265.235 189.457Z" fill="#8C2A00"/>
<path d="M297.41 64.3574L301.123 59.7497L297.111 60.8819L297.41 64.3574Z" fill="#482D1F"/>
<path d="M301.251 45.3235L301.662 44.5458C301.662 44.5458 302.314 43.4419 303.623 42.7072C303.735 42.6432 304.554 42.2334 305.522 42.2652C307.24 42.3494 308.854 43.9351 309.265 45.76C309.743 47.6614 308.931 49.5086 307.707 50.5725C306.481 51.6722 304.818 51.7954 304.346 51.8701L304.336 51.8691C303.618 53.3572 303.549 54.9487 304.131 56.6434C304.635 58.1108 306.036 59.4961 307.699 60.6204L310.863 60.4075L307.855 56.4501C308.999 55.5283 310.748 54.0439 311.79 52.7979C312.614 51.8137 315.248 49.591 316.283 45.5682C316.394 45.0891 316.61 44.2106 316.727 43.1043C318.734 44.2095 321.155 44.6436 323.618 44.1648C329.058 43.1074 332.642 37.9979 331.622 32.7524C330.602 27.5069 325.366 24.1117 319.926 25.1691C315.738 25.9831 312.651 29.1984 311.917 33.0286C309.635 31.8955 307.402 32.1919 302.572 31.5335C302.146 31.4677 301.436 31.3462 300.511 31.2097C300.121 31.1465 299.801 31.0882 299.482 31.03C298.384 30.8095 297.605 30.6473 297.357 30.594C295.623 30.2213 292.47 30.1086 289.601 31.0575C288.382 31.547 287.18 32.2892 286.135 33.3657C285.865 33.6342 284.727 34.8706 284.452 35.2106C284.112 36.3712 285.336 36.8265 286.179 37.101C288.816 37.9319 292.515 36.1468 293.97 35.8893C296.313 38.8551 298.623 41.7827 300.93 44.7461C301.033 44.9246 301.14 45.1177 301.251 45.3235ZM282.249 43.6473C282.957 43.828 284.059 44.0293 285.041 43.7936C286.675 43.4128 285.148 42.4356 283.68 42.3587C282.965 42.3212 282.411 42.6151 282.074 42.8845C281.776 43.0843 281.895 43.557 282.249 43.6473ZM289.143 44.1829C289.837 44.4125 290.923 44.6902 291.993 44.4967C293.646 44.2664 292.195 43.1495 290.737 42.9704C289.99 42.8787 289.417 43.1333 289.062 43.3785C288.711 43.5882 288.797 44.0681 289.143 44.1829Z" fill="#482D1F"/>
<path d="M284.711 46.5571C284.712 46.1255 284.387 45.7373 283.958 45.6998C283.673 45.6749 283.41 45.7958 283.263 46.2505C282.841 47.3648 283.766 49.1363 284.318 48.5732C284.677 48.1729 284.729 47.1702 284.711 46.5571ZM291.098 47.1518C291.099 46.7203 290.774 46.3321 290.345 46.2946C290.06 46.2696 289.797 46.3906 289.65 46.8453C289.228 47.9595 290.153 49.7311 290.705 49.1679C291.064 48.7677 291.116 47.765 291.098 47.1518ZM287.876 54.0635C288.131 54.005 288.748 53.858 288.876 53.4699C288.88 53.3984 288.922 53.2929 288.889 53.2194C288.759 52.9614 288.323 53.0821 287.676 53.0841C286.529 53.0599 285.605 52.9038 285.605 52.9038C285.605 52.9038 285.818 53.6326 285.985 53.8567C286.313 54.448 287.477 54.1502 287.876 54.0635ZM286.483 47.0928L286.485 47.0693L286.489 47.0461L286.483 47.0928ZM285.716 50.8453C285.627 51.2486 285.919 51.6613 286.324 51.7507C286.369 51.7601 286.41 51.7681 286.451 51.7757C286.702 51.822 286.937 51.8499 287.374 51.89C287.441 51.8962 287.697 51.9193 287.701 51.9197C287.842 51.9325 287.958 51.9433 288.079 51.9548C288.276 51.9738 288.451 51.8294 288.47 51.6324C288.489 51.4354 288.344 51.2603 288.147 51.2414C288.026 51.2297 287.908 51.2188 287.765 51.2059C287.762 51.2055 287.506 51.1825 287.439 51.1763C287.023 51.1381 286.805 51.1122 286.581 51.0709C286.545 51.0642 286.509 51.0573 286.474 51.0499C286.446 51.0437 286.416 51.0009 286.417 50.9941L287.192 47.1891L287.198 47.1424L287.345 45.0329C287.358 44.8355 287.209 44.6643 287.012 44.6506C286.814 44.6369 286.643 44.7858 286.63 44.9833L286.485 47.0693L285.716 50.8453Z" fill="#482D1F"/>
<path d="M311.797 83.6132C312.034 79.1892 313.168 74.9589 315.196 70.9267C315.329 70.6615 315.653 70.5546 315.918 70.688C316.183 70.8214 316.29 71.1446 316.156 71.4098C314.195 75.3101 313.1 79.3956 312.871 83.6708C312.855 83.9672 312.602 84.1947 312.305 84.1788C312.009 84.1629 311.781 83.9097 311.797 83.6132Z" fill="#482D1F"/>
<path d="M189.538 114.847C189.558 123.81 186.069 132.425 179.817 138.848L185.257 144.288C189.449 139.981 192.675 134.828 194.718 129.175C196.762 123.522 197.576 117.499 197.108 111.506C196.639 105.513 194.897 99.6893 191.999 94.423C189.101 89.1567 185.113 84.5689 180.302 80.9658L175.674 87.126C179.993 90.3389 183.498 94.5211 185.906 99.3358C188.314 104.151 189.558 109.463 189.538 114.847Z" fill="#D8DEED"/>
<path d="M170.288 114.847C170.281 118.781 169.069 122.618 166.815 125.842L172.309 131.34C176.5 125.961 178.491 119.19 177.877 112.399C177.264 105.607 174.093 99.3021 169.006 94.7607L163.87 100.497C165.887 102.304 167.502 104.516 168.608 106.988C169.713 109.461 170.286 112.138 170.288 114.847Z" fill="#D8DEED"/>
<path d="M204.939 174.854L102.58 72.4957L97.1363 77.9397L111.42 92.2235C105.712 101.215 103.608 112.03 105.528 122.506C107.448 132.983 113.251 142.348 121.777 148.731L126.397 142.571C119.658 137.535 114.989 130.212 113.268 121.977C111.547 113.742 112.891 105.162 117.049 97.8485L125.508 106.307C123.819 111.294 123.636 116.667 124.98 121.758C126.325 126.848 129.138 131.43 133.069 134.932L138.205 129.196C136.187 127.389 134.573 125.178 133.467 122.705C132.361 120.233 131.789 117.555 131.787 114.847C131.799 114.144 131.85 113.442 131.941 112.744L147.187 127.991V180.298H154.888V135.691L199.495 180.298L204.939 174.854Z" fill="#D8DEED"/>
<path d="M37.0175 92.6021L1.13543 152.504C0.395622 153.786 0.00417562 155.238 3.32222e-05 156.718C-0.00410918 158.197 0.379197 159.652 1.11182 160.937C1.84444 162.222 2.90083 163.293 4.17591 164.044C5.45098 164.794 6.90028 165.197 8.37963 165.214H80.1438C81.6232 165.197 83.0725 164.794 84.3475 164.044C85.6226 163.293 86.679 162.222 87.4116 160.937C88.1442 159.652 88.5276 158.197 88.5234 156.718C88.5193 155.238 88.1278 153.786 87.388 152.504L51.5059 92.6021C50.7507 91.3571 49.6873 90.3277 48.4184 89.6133C47.1495 88.8989 45.7179 88.5236 44.2617 88.5236C42.8055 88.5236 41.3739 88.8989 40.105 89.6133C38.8361 90.3277 37.7727 91.3571 37.0175 92.6021V92.6021Z" fill="#FEBE1A"/>
<path d="M44.2617 114.377V131.323" stroke="white" stroke-width="6.10618" stroke-linecap="round" stroke-linejoin="round"/>
<path d="M44.2617 148.268H44.3046" stroke="white" stroke-width="6.10618" stroke-linecap="round" stroke-linejoin="round"/>
</svg>
