<svg width="450" height="446" viewBox="0 0 450 446" fill="none" xmlns="http://www.w3.org/2000/svg">
<path d="M73.5391 406.588V437.182H118.282H167.625V406.588H73.5391Z" fill="#F5F5F5"/>
<path d="M69.5909 398.04V406.588H170.922V398.04H118.282H69.5909Z" fill="#E0E0E0"/>
<path d="M120.256 437.182H167.625V406.588H170.922V398.04H118.282V405.796L120.256 437.182Z" fill="#E0E0E0"/>
<path d="M105.776 411.518H86.6966V416.128H105.776V411.518Z" fill="#E0E0E0"/>
<path d="M108.742 421.89H84.2414V431.61H108.742V421.89Z" fill="white"/>
<path d="M88.0193 367.486V398.08H132.763H182.105V367.486H88.0193Z" fill="#F5F5F5"/>
<path d="M84.071 358.928V367.486H185.392V358.928H132.763H84.071Z" fill="#E0E0E0"/>
<path d="M134.737 398.08H182.105V367.486H185.392V358.928H132.763V366.695L134.737 398.08Z" fill="#E0E0E0"/>
<path d="M120.256 372.417H101.177V377.026H120.256V372.417Z" fill="#E0E0E0"/>
<path d="M123.223 382.778H98.7216V392.498H123.223V382.778Z" fill="white"/>
<path d="M88.5103 30.203C91.0487 28.6747 93.778 27.4886 96.6273 26.6757L98.2907 18.6589L111.849 18.4385L113.853 26.3951C116.727 27.1045 119.494 28.193 122.08 29.6318L128.935 25.1425L138.695 34.5621L134.446 41.5767C135.979 44.113 137.165 46.8428 137.973 49.6937L145.99 51.3571L146.221 64.9254L138.244 66.8394C137.535 69.7131 136.446 72.4798 135.007 75.0666L139.497 81.9208L130.077 91.6812L123.062 87.4323C120.526 88.9648 117.796 90.1511 114.945 90.9597L113.282 98.9764L99.7237 99.2069L97.7195 91.2503C94.8458 90.5408 92.0792 89.4524 89.4924 88.0135L82.6381 92.5029L72.8777 83.0833L77.1266 76.0686C75.5943 73.5359 74.408 70.8093 73.5992 67.9617L65.5825 66.2882L65.3521 52.73L73.3086 50.7759C74.0181 47.9022 75.1066 45.1355 76.5454 42.5487L72.1061 35.7145L81.5258 25.9541L88.5404 30.203H88.5103ZM95.7454 48.2406C93.7463 50.3108 92.406 52.9273 91.8941 55.7593C91.3821 58.5912 91.7214 61.5114 92.869 64.1505C94.0167 66.7896 95.9212 69.0291 98.3417 70.5858C100.762 72.1425 103.59 72.9465 106.467 72.896C109.345 72.8456 112.143 71.943 114.507 70.3024C116.871 68.6618 118.696 66.3569 119.751 63.6791C120.805 61.0014 121.042 58.0711 120.431 55.2589C119.82 52.4466 118.389 49.8787 116.318 47.8799C113.538 45.2037 109.809 43.7414 105.951 43.8147C102.093 43.888 98.4218 45.4908 95.7454 48.2707V48.2406Z" fill="#EBEBEB"/>
<path d="M306.675 14.0393C309.694 12.2159 312.943 10.8038 316.335 9.84052L318.339 0.280584L334.483 0L336.808 9.47977C340.232 10.3235 343.528 11.621 346.608 13.3378L354.775 7.98665L366.4 19.2101L361.339 27.5575C363.164 30.5753 364.577 33.8243 365.538 37.2176L375.098 39.2218L375.378 55.3755L365.899 57.7003C365.051 61.123 363.753 64.4184 362.041 67.5007L367.392 75.6678L356.168 87.282L347.821 82.2214C344.805 84.0505 341.556 85.4629 338.161 86.4202L336.157 95.9801L320.003 96.2707L317.678 86.781C314.253 85.9416 310.956 84.6439 307.878 82.9229L299.711 88.2741L288.096 77.0607L293.157 68.7133C291.33 65.6966 289.917 62.4473 288.958 59.0531L279.398 57.049L279.108 40.8953L288.597 38.5704C289.44 35.146 290.738 31.8499 292.456 28.77L287.104 20.613L298.318 8.98874L306.665 13.9992L306.675 14.0393ZM315.293 35.5541C312.913 38.0196 311.318 41.1353 310.709 44.5074C310.1 47.8795 310.504 51.3565 311.871 54.4987C313.238 57.6409 315.506 60.3073 318.388 62.1606C321.271 64.0139 324.638 64.9709 328.064 64.9106C331.49 64.8504 334.821 63.7756 337.636 61.8221C340.452 59.8686 342.625 57.1241 343.88 53.9358C345.136 50.7475 345.418 47.2584 344.69 43.9098C343.963 40.5612 342.259 37.5035 339.794 35.1232C336.487 31.9335 332.049 30.1871 327.454 30.2679C322.86 30.3487 318.486 32.25 315.293 35.5541Z" fill="#EBEBEB"/>
<path d="M309.12 145.183C311.478 143.758 314.016 142.656 316.666 141.906L318.219 134.44L330.836 134.21L332.649 141.625C335.323 142.284 337.898 143.295 340.305 144.632L346.689 140.453L355.757 149.221L351.809 155.735C353.234 158.092 354.336 160.63 355.086 163.281L362.552 164.834L362.782 177.45L355.367 179.274C354.707 181.947 353.696 184.522 352.36 186.93L356.539 193.303L347.771 202.382L341.257 198.424C338.898 199.847 336.361 200.953 333.712 201.711L332.158 209.176L319.542 209.397L317.718 201.991C315.044 201.333 312.47 200.322 310.062 198.985L303.689 203.164L294.57 194.385L298.528 187.872C297.105 185.513 295.999 182.975 295.241 180.326L287.816 178.773L287.555 166.157L294.961 164.343C295.619 161.669 296.63 159.094 297.967 156.687L293.788 150.303L302.547 141.225L309.07 145.183H309.12ZM315.844 161.988C313.983 163.913 312.735 166.348 312.258 168.983C311.781 171.617 312.096 174.335 313.163 176.791C314.23 179.247 316.001 181.331 318.253 182.78C320.505 184.229 323.136 184.978 325.813 184.932C328.491 184.886 331.094 184.046 333.295 182.52C335.495 180.994 337.194 178.85 338.175 176.359C339.157 173.867 339.378 171.141 338.81 168.524C338.242 165.907 336.91 163.517 334.984 161.657C332.402 159.163 328.935 157.797 325.346 157.859C321.757 157.921 318.339 159.406 315.844 161.988Z" fill="#E0E0E0"/>
<path d="M376.471 106.362C377.781 105.573 379.189 104.959 380.659 104.538L381.521 100.389L388.536 100.269L389.538 104.388C391.024 104.749 392.454 105.312 393.787 106.061L397.334 103.736L402.345 108.606L400.15 112.224C400.943 113.535 401.557 114.948 401.974 116.423L406.123 117.285L406.243 124.299L402.124 125.301C401.76 126.785 401.201 128.214 400.461 129.55L402.776 133.097L397.905 138.108L394.288 135.913C392.978 136.703 391.569 137.316 390.099 137.737L389.227 141.886L382.213 142.006L381.211 137.887C379.726 137.52 378.298 136.957 376.962 136.214L373.414 138.539L368.404 133.669L370.598 130.051C369.809 128.738 369.196 127.326 368.775 125.852L364.626 124.991L364.506 117.976L368.624 116.974C368.992 115.49 369.554 114.061 370.298 112.725L367.973 109.178L372.843 104.167L376.471 106.362ZM380.198 115.701C379.169 116.772 378.479 118.123 378.217 119.586C377.955 121.048 378.132 122.555 378.726 123.917C379.32 125.278 380.304 126.434 381.554 127.236C382.804 128.039 384.264 128.453 385.749 128.426C387.234 128.4 388.678 127.934 389.899 127.087C391.119 126.24 392.062 125.05 392.606 123.668C393.151 122.286 393.274 120.774 392.96 119.322C392.646 117.87 391.908 116.544 390.841 115.511C390.13 114.823 389.291 114.283 388.371 113.92C387.451 113.557 386.469 113.38 385.48 113.398C384.491 113.415 383.516 113.628 382.61 114.023C381.703 114.418 380.884 114.989 380.198 115.701Z" fill="#F5F5F5"/>
<path d="M176.213 14.0594C177.521 13.2661 178.93 12.6527 180.402 12.2356L181.264 8.08692L188.278 7.96667L189.28 12.0752C190.764 12.4454 192.192 13.008 193.529 13.7487L197.077 11.4239L202.087 16.294L199.893 19.9116C200.686 21.2196 201.299 22.6285 201.716 24.1003L205.865 24.9621L205.985 31.9767L201.867 32.9788C201.503 34.4625 200.943 35.8913 200.203 37.2277L202.518 40.7751L197.648 45.7855L194.03 43.591C192.736 44.4097 191.337 45.0501 189.872 45.4949L189 49.6436L181.985 49.7738L180.983 45.6553C179.499 45.2879 178.07 44.7252 176.734 43.9818L173.187 46.3066L168.176 41.4365L170.311 37.7688C169.522 36.4587 168.908 35.0504 168.487 33.5801L164.348 32.7183L164.218 25.7037L168.337 24.7016C168.712 23.2122 169.285 21.7799 170.04 20.4427L167.715 16.9053L172.586 11.8949L176.213 14.0894V14.0594ZM179.941 23.449C178.911 24.5195 178.221 25.8712 177.959 27.3335C177.697 28.7957 177.874 30.3028 178.468 31.6645C179.062 33.0262 180.046 34.1813 181.296 34.9839C182.546 35.7866 184.006 36.2008 185.491 36.1742C186.977 36.1476 188.421 35.6815 189.641 34.8346C190.862 33.9878 191.804 32.7982 192.349 31.4162C192.894 30.0341 193.017 28.5216 192.703 27.0697C192.388 25.6178 191.651 24.2916 190.583 23.2586C189.872 22.5722 189.032 22.0327 188.113 21.6708C187.193 21.3089 186.211 21.1317 185.223 21.1494C184.234 21.1671 183.259 21.3793 182.353 21.7738C181.447 22.1684 180.627 22.7376 179.941 23.449Z" fill="#F5F5F5"/>
<path d="M113.092 127.245C114.4 126.452 115.808 125.839 117.28 125.422L118.142 121.273L125.157 121.153L126.159 125.271C127.648 125.632 129.081 126.195 130.418 126.945L133.955 124.62L138.965 129.49L136.761 133.108C137.556 134.418 138.17 135.831 138.585 137.306L142.733 138.168L142.854 145.183L138.745 146.185C138.378 147.669 137.815 149.098 137.072 150.434L139.386 153.981L134.526 158.992L130.899 156.797C129.589 157.586 128.18 158.199 126.71 158.621L125.848 162.769L118.834 162.89L117.831 158.771C116.344 158.406 114.911 157.843 113.573 157.098L110.035 159.423L105.025 154.552L107.229 150.935C106.436 149.623 105.822 148.211 105.405 146.736L101.257 145.874L101.127 138.86L105.245 137.858C105.611 136.373 106.174 134.944 106.919 133.609L104.594 130.061L109.464 125.051L113.092 127.245ZM116.829 136.585C115.798 137.655 115.107 139.007 114.844 140.469C114.58 141.932 114.757 143.44 115.35 144.802C115.944 146.165 116.928 147.321 118.178 148.124C119.429 148.927 120.889 149.342 122.375 149.315C123.861 149.289 125.306 148.822 126.526 147.974C127.747 147.127 128.689 145.937 129.234 144.554C129.778 143.171 129.9 141.658 129.585 140.205C129.269 138.753 128.531 137.427 127.462 136.394C126.751 135.708 125.912 135.169 124.994 134.807C124.075 134.446 123.093 134.269 122.106 134.286C121.119 134.304 120.144 134.516 119.239 134.91C118.333 135.305 117.515 135.874 116.829 136.585Z" fill="#F5F5F5"/>
<path d="M429.521 438.164C429.521 438.304 334.102 438.424 216.417 438.424C98.7316 438.424 3.2926 438.314 3.2926 438.164C3.2926 438.013 98.6915 437.903 216.417 437.903C334.142 437.903 429.521 438.023 429.521 438.164Z" fill="#263238"/>
<path d="M288.808 437.973L158.857 437.893C143.224 437.893 130.558 424.565 130.568 408.141L130.628 65.7572C130.628 49.3229 143.315 36.0051 158.957 36.0151L288.908 36.0953C304.541 36.0953 317.207 49.4231 317.197 65.8473L317.137 408.251C317.137 424.666 304.451 437.983 288.808 437.973Z" fill="#263238"/>
<path d="M288.768 48.2006H263.575C260.198 48.2006 257.453 51.2069 257.453 54.9146V59.7146C257.453 63.4323 254.717 66.4386 251.34 66.4386H202.237C198.85 66.4386 196.115 63.4323 196.115 59.7146V54.9046C196.115 51.1968 193.379 48.1805 190.002 48.1805H181.133H159.087C148.135 48.1805 139.246 57.5 139.246 69.014L139.186 403.211C139.186 414.715 148.054 424.044 158.997 424.044L288.698 424.124C299.651 424.124 308.529 414.805 308.529 403.291L308.599 69.044C308.599 57.52 299.721 48.2106 288.768 48.2006Z" fill="white"/>
<path d="M192.15 299.3H189.333V301.507H192.58V302H188.752V296.312H192.561V296.814H189.333V298.802H192.15V299.3ZM194.401 296.312L196.599 301.189L198.796 296.312H199.572V302H198.991V299.671L199.045 297.02L196.818 302H196.379L194.162 297.054L194.216 299.671V302H193.635V296.312H194.401ZM204.099 299.739V302H203.518V296.312H205.622C206.27 296.312 206.779 296.468 207.15 296.78C207.521 297.093 207.707 297.514 207.707 298.045C207.707 298.579 207.526 298.994 207.165 299.29C206.804 299.586 206.296 299.736 205.642 299.739H204.099ZM204.099 299.241H205.622C206.101 299.241 206.468 299.139 206.726 298.934C206.986 298.725 207.116 298.432 207.116 298.055C207.116 297.671 206.984 297.368 206.721 297.146C206.457 296.925 206.092 296.814 205.627 296.814H204.099V299.241ZM211.13 299.715H209.401V302H208.82V296.312H210.837C211.491 296.312 212.002 296.465 212.37 296.771C212.741 297.076 212.927 297.496 212.927 298.03C212.927 298.405 212.813 298.732 212.585 299.012C212.357 299.288 212.056 299.479 211.682 299.583L213.186 301.951V302H212.561L211.13 299.715ZM209.401 299.217H210.944C211.368 299.217 211.706 299.108 211.96 298.89C212.214 298.672 212.341 298.39 212.341 298.045C212.341 297.664 212.209 297.365 211.945 297.146C211.685 296.928 211.32 296.818 210.852 296.814H209.401V299.217ZM218.864 299.441C218.864 300.242 218.648 300.882 218.215 301.36C217.782 301.839 217.201 302.078 216.472 302.078C215.746 302.078 215.163 301.837 214.724 301.355C214.287 300.874 214.069 300.228 214.069 299.417V298.88C214.069 298.356 214.167 297.894 214.362 297.493C214.558 297.093 214.838 296.784 215.202 296.565C215.57 296.344 215.99 296.233 216.462 296.233C217.168 296.233 217.74 296.465 218.176 296.927C218.615 297.386 218.845 298.004 218.864 298.782V299.441ZM218.288 298.87C218.288 298.206 218.124 297.687 217.795 297.312C217.469 296.935 217.025 296.746 216.462 296.746C215.905 296.746 215.463 296.935 215.134 297.312C214.808 297.687 214.646 298.216 214.646 298.899V299.441C214.646 300.102 214.81 300.623 215.139 301.004C215.467 301.385 215.912 301.575 216.472 301.575C217.038 301.575 217.482 301.386 217.805 301.009C218.127 300.631 218.288 300.102 218.288 299.422V298.87ZM224.592 301.321C224.465 301.491 224.274 301.637 224.021 301.761C223.581 301.972 223.057 302.078 222.448 302.078C221.709 302.078 221.112 301.839 220.656 301.36C220.201 300.882 219.973 300.241 219.973 299.437V298.821C219.973 298.034 220.188 297.405 220.617 296.937C221.047 296.468 221.628 296.233 222.36 296.233C222.998 296.233 223.508 296.383 223.889 296.683C224.273 296.982 224.506 297.405 224.587 297.952H224.006C223.934 297.545 223.757 297.241 223.474 297.039C223.19 296.837 222.821 296.736 222.365 296.736C221.805 296.736 221.364 296.92 221.042 297.288C220.72 297.656 220.559 298.169 220.559 298.826V299.461C220.559 300.105 220.729 300.621 221.071 301.009C221.413 301.393 221.874 301.585 222.453 301.585C222.788 301.585 223.094 301.546 223.371 301.468C223.651 301.386 223.864 301.272 224.011 301.126V299.734H222.404V299.256H224.592V301.321ZM228.308 299.715H226.579V302H225.998V296.312H228.015C228.669 296.312 229.18 296.465 229.548 296.771C229.919 297.076 230.104 297.496 230.104 298.03C230.104 298.405 229.991 298.732 229.763 299.012C229.535 299.288 229.234 299.479 228.859 299.583L230.363 301.951V302H229.738L228.308 299.715ZM226.579 299.217H228.122C228.545 299.217 228.884 299.108 229.138 298.89C229.392 298.672 229.519 298.39 229.519 298.045C229.519 297.664 229.387 297.365 229.123 297.146C228.863 296.928 228.498 296.818 228.029 296.814H226.579V299.217ZM234.885 299.3H232.067V301.507H235.314V302H231.486V296.312H235.295V296.814H232.067V298.802H234.885V299.3ZM239.807 300.589C239.807 300.299 239.699 300.066 239.484 299.891C239.27 299.715 238.869 299.554 238.283 299.407C237.701 299.257 237.271 299.108 236.994 298.958C236.717 298.808 236.511 298.634 236.374 298.436C236.241 298.234 236.174 297.996 236.174 297.723C236.174 297.283 236.366 296.925 236.75 296.648C237.134 296.372 237.634 296.233 238.249 296.233C238.868 296.233 239.374 296.395 239.768 296.717C240.161 297.036 240.358 297.446 240.358 297.947H239.772C239.772 297.579 239.632 297.285 239.353 297.063C239.073 296.842 238.703 296.731 238.244 296.731C237.792 296.731 237.43 296.823 237.16 297.005C236.89 297.187 236.755 297.425 236.755 297.718C236.755 297.988 236.874 298.209 237.111 298.382C237.349 298.551 237.743 298.706 238.293 298.846C238.846 298.986 239.263 299.132 239.543 299.285C239.826 299.438 240.039 299.622 240.183 299.837C240.326 300.049 240.397 300.298 240.397 300.584C240.397 301.04 240.201 301.403 239.807 301.673C239.416 301.943 238.907 302.078 238.278 302.078C237.849 302.078 237.458 302.01 237.106 301.873C236.755 301.733 236.478 301.535 236.276 301.277C236.078 301.017 235.979 300.708 235.979 300.35H236.564C236.564 300.737 236.717 301.041 237.023 301.263C237.333 301.481 237.751 301.59 238.278 301.59C238.741 301.59 239.11 301.499 239.387 301.316C239.667 301.131 239.807 300.888 239.807 300.589ZM244.924 300.589C244.924 300.299 244.816 300.066 244.602 299.891C244.387 299.715 243.986 299.554 243.4 299.407C242.818 299.257 242.388 299.108 242.111 298.958C241.835 298.808 241.628 298.634 241.491 298.436C241.358 298.234 241.291 297.996 241.291 297.723C241.291 297.283 241.483 296.925 241.867 296.648C242.251 296.372 242.751 296.233 243.366 296.233C243.985 296.233 244.491 296.395 244.885 296.717C245.279 297.036 245.476 297.446 245.476 297.947H244.89C244.89 297.579 244.75 297.285 244.47 297.063C244.19 296.842 243.82 296.731 243.361 296.731C242.909 296.731 242.548 296.823 242.277 297.005C242.007 297.187 241.872 297.425 241.872 297.718C241.872 297.988 241.991 298.209 242.229 298.382C242.466 298.551 242.86 298.706 243.41 298.846C243.964 298.986 244.38 299.132 244.66 299.285C244.943 299.438 245.157 299.622 245.3 299.837C245.443 300.049 245.515 300.298 245.515 300.584C245.515 301.04 245.318 301.403 244.924 301.673C244.533 301.943 244.024 302.078 243.396 302.078C242.966 302.078 242.575 302.01 242.224 301.873C241.872 301.733 241.595 301.535 241.394 301.277C241.195 301.017 241.096 300.708 241.096 300.35H241.682C241.682 300.737 241.835 301.041 242.141 301.263C242.45 301.481 242.868 301.59 243.396 301.59C243.858 301.59 244.227 301.499 244.504 301.316C244.784 301.131 244.924 300.888 244.924 300.589ZM251.159 299.441C251.159 300.242 250.943 300.882 250.51 301.36C250.077 301.839 249.496 302.078 248.767 302.078C248.041 302.078 247.458 301.837 247.019 301.355C246.582 300.874 246.364 300.228 246.364 299.417V298.88C246.364 298.356 246.462 297.894 246.657 297.493C246.853 297.093 247.132 296.784 247.497 296.565C247.865 296.344 248.285 296.233 248.757 296.233C249.463 296.233 250.035 296.465 250.471 296.927C250.91 297.386 251.14 298.004 251.159 298.782V299.441ZM250.583 298.87C250.583 298.206 250.419 297.687 250.09 297.312C249.764 296.935 249.32 296.746 248.757 296.746C248.2 296.746 247.757 296.935 247.429 297.312C247.103 297.687 246.94 298.216 246.94 298.899V299.441C246.94 300.102 247.105 300.623 247.434 301.004C247.762 301.385 248.207 301.575 248.767 301.575C249.333 301.575 249.777 301.386 250.1 301.009C250.422 300.631 250.583 300.102 250.583 299.422V298.87Z" fill="#263E4B"/>
<path d="M256 301.699C255.999 301.635 256.01 301.572 256.034 301.512C256.057 301.452 256.093 301.398 256.137 301.353C256.182 301.307 256.236 301.27 256.295 301.246C256.354 301.221 256.417 301.208 256.481 301.208C256.611 301.208 256.736 301.26 256.828 301.352C256.92 301.444 256.972 301.569 256.972 301.699C256.972 301.83 256.921 301.956 256.829 302.05C256.737 302.144 256.612 302.198 256.481 302.2C256.417 302.199 256.353 302.185 256.294 302.159C256.235 302.133 256.181 302.096 256.137 302.049C256.092 302.003 256.057 301.948 256.034 301.888C256.01 301.828 255.999 301.764 256 301.699Z" fill="#263238"/>
<path d="M257.944 301.699C257.943 301.635 257.954 301.572 257.978 301.512C258.001 301.452 258.037 301.398 258.081 301.353C258.126 301.307 258.18 301.27 258.239 301.246C258.298 301.221 258.361 301.208 258.425 301.208C258.49 301.208 258.554 301.221 258.613 301.246C258.673 301.27 258.727 301.306 258.772 301.352C258.818 301.398 258.854 301.452 258.879 301.511C258.904 301.571 258.916 301.635 258.916 301.699C258.916 301.83 258.865 301.956 258.773 302.05C258.681 302.144 258.556 302.198 258.425 302.2C258.36 302.2 258.296 302.187 258.236 302.162C258.177 302.136 258.123 302.099 258.078 302.052C258.033 302.006 257.998 301.95 257.975 301.889C257.952 301.829 257.941 301.764 257.944 301.699Z" fill="#263238"/>
<path d="M259.848 301.699C259.847 301.635 259.858 301.572 259.882 301.512C259.905 301.452 259.941 301.398 259.985 301.353C260.03 301.307 260.084 301.27 260.143 301.246C260.202 301.221 260.265 301.208 260.329 301.208C260.393 301.208 260.457 301.221 260.516 301.246C260.575 301.27 260.628 301.307 260.673 301.353C260.718 301.398 260.753 301.452 260.776 301.512C260.8 301.572 260.811 301.635 260.81 301.699C260.811 301.764 260.8 301.828 260.777 301.888C260.753 301.948 260.718 302.003 260.673 302.049C260.629 302.096 260.575 302.133 260.516 302.159C260.457 302.185 260.394 302.199 260.329 302.2C260.264 302.2 260.2 302.187 260.14 302.162C260.081 302.136 260.027 302.099 259.982 302.052C259.937 302.006 259.902 301.95 259.879 301.889C259.856 301.829 259.845 301.764 259.848 301.699Z" fill="#263238"/>
<path d="M274.082 258.97H174.243C168.034 258.97 163 264.004 163 270.214V272.077C163 278.287 168.034 283.321 174.243 283.321H274.082C280.291 283.321 285.325 278.287 285.325 272.077V270.214C285.325 264.004 280.291 258.97 274.082 258.97Z" fill="#F5F5F5"/>
<path d="M219.534 258.97H174.019C167.809 258.97 162.775 264.004 162.775 270.214V272.077C162.775 278.287 167.809 283.321 174.019 283.321H219.534C225.743 283.321 230.777 278.287 230.777 272.077V270.214C230.777 264.004 225.743 258.97 219.534 258.97Z" fill="#4A6C80"/>
<path d="M260.018 272.969C260.018 274.232 259.146 275.194 257.382 275.194C256.897 275.215 256.412 275.137 255.957 274.965C255.502 274.792 255.087 274.529 254.737 274.192L255.018 273.771C255.324 274.08 255.692 274.323 256.097 274.483C256.503 274.644 256.937 274.719 257.372 274.703C258.765 274.703 259.477 274.001 259.477 272.999C259.477 271.997 258.815 271.266 256.771 271.266H255.248L255.649 267.608H259.657V268.109H256.13L255.839 270.765H256.911C259.186 270.715 260.018 271.586 260.018 272.969Z" fill="#4A6C80"/>
<path d="M265.97 272.969C265.97 274.232 265.098 275.194 263.335 275.194C262.849 275.215 262.364 275.137 261.909 274.965C261.454 274.792 261.039 274.529 260.689 274.192L260.97 273.771C261.277 274.08 261.644 274.323 262.05 274.483C262.455 274.644 262.889 274.719 263.325 274.703C264.718 274.703 265.419 274.001 265.419 272.999C265.419 271.997 264.768 271.266 262.724 271.266H261.2L261.591 267.608H265.6V268.109H262.062L261.782 270.765H262.854C265.129 270.715 265.97 271.586 265.97 272.969Z" fill="#4A6C80"/>
<path d="M266.792 269.552C266.792 268.33 267.473 267.548 268.445 267.548C269.417 267.548 270.119 268.36 270.119 269.552C270.119 270.745 269.427 271.556 268.445 271.556C267.463 271.556 266.792 270.785 266.792 269.552ZM269.708 269.552C269.708 268.55 269.197 267.889 268.445 267.889C267.694 267.889 267.203 268.52 267.203 269.552C267.203 270.584 267.704 271.226 268.445 271.226C269.187 271.226 269.708 270.594 269.708 269.552ZM273.035 267.548H273.526L268.385 275.094H267.924L273.035 267.548ZM271.291 273.099C271.291 271.867 271.973 271.095 272.955 271.095C273.937 271.095 274.608 271.897 274.608 273.099C274.608 274.302 273.937 275.104 272.955 275.104C271.973 275.104 271.291 274.342 271.291 273.11V273.099ZM274.197 273.099C274.197 272.097 273.696 271.426 272.955 271.426C272.213 271.426 271.692 272.057 271.692 273.099C271.692 274.142 272.203 274.773 272.955 274.773C273.706 274.773 274.197 274.142 274.197 273.11V273.099Z" fill="#4A6C80"/>
<g opacity="0.2">
<path opacity="0.2" d="M192.347 258.97L183.208 283.03H189.922L198.45 258.97H192.347Z" fill="white"/>
</g>
<g opacity="0.2">
<path opacity="0.2" d="M208.841 258.97L199.692 283.03H206.416L214.934 258.97H208.841Z" fill="white"/>
</g>
<g opacity="0.2">
<path opacity="0.2" d="M224.995 260.784L216.477 283.181H220.486C221.546 282.954 222.58 282.618 223.572 282.178L229.434 265.584C228.387 263.632 226.859 261.98 224.995 260.784Z" fill="white"/>
</g>
<g opacity="0.2">
<path opacity="0.2" d="M176.323 258.94L167.916 281.066C169.712 282.235 171.788 282.903 173.928 283L182.456 258.95L176.323 258.94Z" fill="white"/>
</g>
<path d="M274.115 283.321C275.037 283.265 275.952 283.131 276.851 282.92C279.432 282.261 281.701 280.718 283.264 278.561C284.395 277.017 285.109 275.209 285.339 273.31C285.452 272.221 285.479 271.126 285.419 270.033C285.375 268.859 285.145 267.698 284.737 266.596C284.05 264.706 282.87 263.034 281.32 261.753C279.769 260.472 277.905 259.629 275.919 259.311C274.425 259.153 272.921 259.103 271.42 259.16L174.718 259.241C173.567 259.258 172.424 259.433 171.321 259.762C170.234 260.125 169.205 260.641 168.264 261.295C166.421 262.618 165.023 264.471 164.256 266.606C162.903 270.825 163.344 275.915 166.26 279.182C167.679 280.827 169.545 282.024 171.631 282.629C173.636 283.251 175.87 283.02 178.015 283.07H190.581L234.052 283.12L263.363 283.211H271.379H273.444H274.155H273.444H271.379L263.363 283.261L234.052 283.341L190.581 283.401H174.798C173.687 283.392 172.582 283.237 171.511 282.94C169.306 282.307 167.335 281.041 165.843 279.299C164.35 277.557 163.401 275.416 163.114 273.14C162.997 271.991 162.97 270.835 163.033 269.682C163.082 268.507 163.316 267.348 163.725 266.245C164.545 263.998 166.03 262.054 167.984 260.674C168.968 259.993 170.044 259.456 171.18 259.08C172.335 258.733 173.532 258.547 174.738 258.529L271.44 258.599C272.969 258.6 274.496 258.714 276.009 258.94C278.049 259.274 279.962 260.15 281.548 261.475C283.134 262.801 284.336 264.528 285.028 266.476C286.491 271.246 285.629 275.905 283.445 278.661C281.844 280.841 279.522 282.383 276.891 283.01C276.499 283.111 276.101 283.181 275.698 283.221C275.41 283.27 275.119 283.293 274.827 283.291C274.356 283.331 274.115 283.321 274.115 283.321Z" fill="#263238"/>
<path d="M174.61 392.528V400.706C174.61 400.867 174.566 401.025 174.484 401.164C174.402 401.302 174.284 401.416 174.143 401.494C174.002 401.572 173.842 401.61 173.681 401.606C173.52 401.601 173.363 401.553 173.227 401.467L166.794 397.379C166.667 397.296 166.564 397.182 166.492 397.05C166.421 396.917 166.383 396.768 166.383 396.617C166.383 396.466 166.421 396.317 166.492 396.184C166.564 396.052 166.667 395.938 166.794 395.855L173.227 391.767C173.363 391.681 173.52 391.633 173.681 391.628C173.842 391.624 174.002 391.662 174.143 391.74C174.284 391.818 174.402 391.932 174.484 392.07C174.566 392.209 174.61 392.367 174.61 392.528Z" fill="#E0E0E0"/>
<path d="M227.43 396.537C227.428 397.652 227.095 398.742 226.474 399.669C225.853 400.595 224.971 401.317 223.94 401.742C222.909 402.168 221.775 402.278 220.681 402.059C219.588 401.84 218.583 401.302 217.795 400.513C217.007 399.723 216.471 398.718 216.254 397.624C216.037 396.53 216.15 395.396 216.577 394.366C217.004 393.335 217.727 392.455 218.655 391.835C219.582 391.216 220.673 390.885 221.788 390.885C222.53 390.885 223.264 391.031 223.95 391.316C224.635 391.6 225.257 392.016 225.781 392.541C226.305 393.066 226.72 393.689 227.003 394.375C227.286 395.06 227.431 395.795 227.43 396.537Z" fill="#E0E0E0"/>
<path d="M276.482 391.627H269.828C268.794 391.627 267.955 392.466 267.955 393.501V400.185C267.955 401.219 268.794 402.058 269.828 402.058H276.482C277.517 402.058 278.356 401.219 278.356 400.185V393.501C278.356 392.466 277.517 391.627 276.482 391.627Z" fill="#E0E0E0"/>
<path d="M396.332 257.828C396.914 253.723 397.142 249.576 397.014 245.432C396.879 241.27 395.712 237.206 393.617 233.607C393.286 233.076 390.67 229.599 390.069 229.759C389.638 229.889 391.502 233.266 391.352 233.697C390.114 237.832 390.156 242.244 391.472 246.354C392.659 250.348 394.289 254.196 396.332 257.828Z" fill="#263238"/>
<path d="M378.114 284.994C377.503 282.128 377.012 279.874 376.992 279.884C376.972 279.894 366.971 280.886 364.325 271.256C363.063 266.606 361.239 256.825 359.686 247.957C358.882 243.357 359.84 238.623 362.369 234.697C364.898 230.772 368.813 227.942 373.334 226.773L374.266 226.532C384.457 224.528 391.863 232.054 393.596 242.295L400.791 277.899L384.968 294.684L378.114 284.994Z" fill="#FFBE9D"/>
<path d="M376.992 279.833C381.451 278.653 385.478 276.219 388.596 272.819C388.596 272.819 387.434 280.765 377.573 282.389L376.992 279.833Z" fill="#EB996E"/>
<path d="M364.716 255.543C364.815 255.896 365.046 256.197 365.362 256.384C365.677 256.571 366.053 256.628 366.41 256.545C366.589 256.514 366.76 256.447 366.913 256.348C367.066 256.25 367.197 256.121 367.299 255.97C367.401 255.82 367.471 255.65 367.506 255.472C367.541 255.293 367.54 255.11 367.502 254.932C367.405 254.579 367.176 254.278 366.862 254.091C366.548 253.905 366.174 253.847 365.819 253.93C365.639 253.961 365.468 254.028 365.315 254.126C365.161 254.225 365.03 254.353 364.927 254.503C364.824 254.654 364.752 254.823 364.716 255.002C364.68 255.18 364.68 255.364 364.716 255.543Z" fill="#263238"/>
<path d="M362.782 251.374C363.003 251.514 363.844 250.472 365.328 250.091C366.811 249.711 368.093 250.172 368.214 249.941C368.334 249.711 368.013 249.56 367.442 249.34C366.687 249.062 365.865 249.024 365.087 249.23C364.304 249.427 363.603 249.865 363.083 250.482C362.712 250.923 362.712 251.314 362.782 251.374Z" fill="#263238"/>
<path d="M378.134 252.857C378.233 253.21 378.464 253.511 378.78 253.698C379.095 253.885 379.471 253.943 379.828 253.859C380.007 253.829 380.178 253.764 380.331 253.666C380.484 253.568 380.616 253.441 380.719 253.291C380.822 253.142 380.894 252.973 380.93 252.795C380.966 252.617 380.966 252.434 380.93 252.256C380.84 251.895 380.612 251.583 380.296 251.387C379.98 251.191 379.6 251.125 379.236 251.204C379.053 251.236 378.879 251.305 378.723 251.406C378.568 251.508 378.434 251.64 378.331 251.794C378.228 251.949 378.158 252.123 378.124 252.306C378.09 252.488 378.093 252.676 378.134 252.857Z" fill="#263238"/>
<path d="M377.473 248.208C377.693 248.348 378.535 247.306 380.018 246.925C381.501 246.544 382.784 247.005 382.894 246.785C383.004 246.564 382.694 246.404 382.133 246.183C381.376 245.896 380.548 245.858 379.768 246.073C378.983 246.261 378.28 246.697 377.763 247.316C377.443 247.787 377.363 248.157 377.473 248.208Z" fill="#263238"/>
<path d="M375.108 260.944C374.262 260.91 373.414 260.973 372.583 261.134C372.192 261.195 371.811 261.215 371.681 260.974C371.564 260.585 371.564 260.17 371.681 259.782C371.801 258.779 371.931 257.717 372.062 256.605C372.553 252.096 372.803 248.428 372.623 248.418C372.442 248.408 371.891 252.035 371.4 256.545C371.29 257.657 371.18 258.709 371.08 259.721C370.962 260.242 371.029 260.788 371.27 261.265C371.36 261.382 371.475 261.478 371.607 261.545C371.739 261.613 371.884 261.651 372.032 261.655C372.258 261.658 372.484 261.631 372.703 261.575C373.528 261.466 374.336 261.254 375.108 260.944Z" fill="#263238"/>
<path d="M379.748 260.884C379.497 260.934 379.918 262.547 378.836 264.041C377.753 265.534 375.99 265.814 376.04 266.045C376.09 266.275 376.501 266.265 377.232 266.095C378.176 265.861 379.009 265.304 379.587 264.522C380.142 263.766 380.38 262.824 380.249 261.896C380.128 261.195 379.838 260.844 379.748 260.884Z" fill="#263238"/>
<path d="M375.99 242.175C376.24 242.536 377.673 241.965 379.467 241.724C381.261 241.484 382.794 241.594 382.934 241.173C382.994 240.972 382.644 240.652 381.982 240.411C381.102 240.117 380.164 240.038 379.247 240.181C378.328 240.31 377.453 240.653 376.691 241.183C376.12 241.594 375.879 241.995 375.99 242.175Z" fill="#263238"/>
<path d="M362.121 246.283C362.472 246.554 363.403 245.943 364.626 245.602C365.849 245.261 366.951 245.241 367.101 244.83C367.161 244.63 366.911 244.339 366.37 244.139C365.661 243.911 364.9 243.9 364.185 244.109C363.471 244.318 362.835 244.737 362.361 245.311C362.021 245.772 361.96 246.153 362.121 246.283Z" fill="#263238"/>
<path d="M394.659 249.6C394.809 249.49 400.782 245.923 402.285 252.607C403.788 259.291 396.793 259.391 396.733 259.2C396.673 259.01 394.659 249.6 394.659 249.6Z" fill="#FFBE9D"/>
<path d="M398.196 256.194C398.196 256.194 398.336 256.244 398.547 256.294C398.85 256.348 399.162 256.283 399.419 256.114C399.79 255.748 400.055 255.288 400.187 254.784C400.319 254.28 400.314 253.749 400.17 253.248C400.056 252.672 399.817 252.128 399.469 251.655C399.361 251.46 399.206 251.295 399.019 251.175C398.832 251.054 398.618 250.981 398.397 250.963C398.256 250.96 398.119 251.004 398.007 251.09C397.896 251.176 397.818 251.297 397.785 251.434C397.735 251.645 397.785 251.765 397.785 251.785C397.785 251.805 397.615 251.705 397.615 251.414C397.611 251.235 397.671 251.061 397.785 250.923C397.861 250.833 397.955 250.759 398.06 250.706C398.165 250.653 398.279 250.621 398.397 250.613C398.681 250.605 398.963 250.67 399.216 250.801C399.468 250.933 399.683 251.126 399.84 251.364C400.251 251.877 400.529 252.482 400.651 253.128C400.912 254.481 400.511 255.894 399.649 256.385C399.483 256.48 399.297 256.534 399.105 256.545C398.914 256.555 398.723 256.521 398.547 256.445C398.246 256.354 398.176 256.214 398.196 256.194Z" fill="#EB996E"/>
<path d="M361.61 235.892C360.407 235.531 362.893 231.332 365.277 229.559C368.895 226.873 374.777 224.428 378.695 224.678C383.415 224.979 387.584 226.402 390.721 229.959C393.759 233.621 395.772 238.023 396.553 242.716C396.909 244.123 396.888 245.599 396.493 246.995C395.881 248.668 394.288 250.001 394.809 252.005C394.914 252.368 394.945 252.748 394.902 253.123C394.859 253.498 394.743 253.86 394.559 254.19C393.617 255.753 391.863 254.861 390.911 253.779C388.907 251.484 388.045 248.408 387.273 245.442C386.605 243.364 386.283 241.19 386.321 239.008C386.412 237.826 386.702 236.663 386.732 235.481C386.778 234.889 386.696 234.294 386.49 233.737C386.284 233.18 385.96 232.674 385.54 232.254C385.33 232.095 385.109 231.951 384.878 231.823C383.773 231.213 382.524 230.908 381.261 230.94C379.999 230.971 378.767 231.339 377.693 232.004C374.226 234.138 368.244 237.505 366.3 236.593C364.933 236.062 363.694 235.249 362.662 234.208L361.61 235.892Z" fill="#263238"/>
<path d="M377.252 221.011C377.713 220.961 388.997 220.67 393.677 227.945C398.356 235.22 398.186 237.856 398.186 237.856C398.669 238.015 399.128 238.241 399.549 238.527C400.12 238.938 400.11 241.614 398.647 241.684C387.053 239.68 374.597 242.365 360.958 246.263L350.396 248.799C347.54 249.891 346.308 249.37 347.39 248.308C348.202 247.506 355.718 242.035 355.718 242.035L357.05 240.411L359.876 233.286C359.876 233.286 359.125 232.585 360.017 231.623C360.908 230.661 368.244 222.003 377.252 221.011Z" fill="#4A6C80"/>
<path d="M357.02 240.411C357.16 240.388 357.297 240.355 357.431 240.311L358.604 239.99C359.606 239.69 361.089 239.329 362.923 238.908C367.714 237.876 372.585 237.262 377.483 237.074C382.382 236.906 387.287 237.013 392.174 237.395C394.058 237.525 395.571 237.666 396.623 237.756L397.825 237.856H398.246L397.835 237.796L396.623 237.666C395.621 237.555 394.068 237.395 392.184 237.255C387.296 236.824 382.386 236.696 377.483 236.874C372.572 237.059 367.689 237.69 362.893 238.758C359.225 239.64 357.02 240.411 357.02 240.411Z" fill="#263238"/>
<g opacity="0.3">
<path opacity="0.3" d="M388.185 223.225C388.185 223.225 376.21 224.227 371.691 228.055L372.212 227.604L367.883 230.982C367.564 231.315 367.174 231.574 366.742 231.738C366.311 231.903 365.848 231.97 365.388 231.934C367.14 229.607 369.312 227.629 371.791 226.101C376.19 223.255 383.656 220.62 388.185 223.225Z" fill="black"/>
</g>
<path d="M388.366 223.245C387.975 223.079 387.573 222.942 387.163 222.834C386.049 222.521 384.902 222.34 383.746 222.293C382.025 222.226 380.304 222.408 378.635 222.834C376.576 223.313 374.643 224.225 372.964 225.51C372.116 226.196 371.312 226.936 370.558 227.725C369.827 228.476 369.085 229.168 368.444 229.899C367.882 230.623 367.255 231.294 366.57 231.903C365.953 232.391 365.234 232.734 364.466 232.905C361.65 233.657 359.766 233.507 359.846 233.296C359.878 233.343 359.92 233.382 359.968 233.411C360.017 233.441 360.071 233.46 360.127 233.467C360.436 233.533 360.753 233.557 361.069 233.537C362.226 233.492 363.376 233.321 364.496 233.026C365.289 232.866 366.034 232.523 366.67 232.024C367.363 231.413 368 230.742 368.574 230.019C369.206 229.308 369.957 228.607 370.689 227.855C371.438 227.079 372.235 226.349 373.074 225.67C374.733 224.398 376.642 223.49 378.675 223.005C380.327 222.575 382.031 222.383 383.736 222.434C384.889 222.466 386.036 222.627 387.153 222.915L388.055 223.165C388.157 223.199 388.26 223.226 388.366 223.245Z" fill="#263238"/>
<g opacity="0.3">
<path opacity="0.3" d="M395.511 231.012C393.558 231.371 391.572 231.519 389.588 231.453C387.283 231.523 385.029 231.693 382.724 231.663C380.98 231.663 378.946 231.733 377.583 230.821C377.611 231.238 377.744 231.64 377.97 231.991C378.196 232.342 378.508 232.629 378.876 232.825C380.126 233.26 381.44 233.483 382.764 233.487C387.339 233.725 391.926 233.459 396.442 232.695C396.173 232.099 395.861 231.524 395.511 230.972" fill="black"/>
</g>
<path d="M393.126 227.154C394.569 227.394 395.47 227.574 395.791 228.677C396.052 229.589 396.152 230.771 395.28 231.162C395.009 231.268 394.719 231.319 394.428 231.312L379.467 232.054C378.963 232.14 378.444 232.044 378.004 231.783C377.732 231.504 377.58 231.13 377.58 230.741C377.58 230.352 377.732 229.978 378.004 229.699C378.577 229.173 379.291 228.824 380.058 228.697C384.313 227.611 388.695 227.102 393.085 227.184" fill="#4A6C80"/>
<path d="M378.275 231.934C378.052 231.81 377.865 231.631 377.733 231.412C377.574 231.108 377.501 230.765 377.524 230.422C377.547 230.079 377.665 229.749 377.864 229.468C378.585 228.72 379.539 228.24 380.569 228.106C381.722 227.875 383.004 227.635 384.347 227.434C386.642 227.059 388.966 226.891 391.292 226.933C392.184 226.933 392.895 227.013 393.396 227.053L393.967 227.113H394.168L393.977 227.063L393.406 226.973C392.905 226.913 392.184 226.823 391.292 226.793C388.944 226.713 386.595 226.864 384.277 227.244C382.934 227.444 381.652 227.695 380.499 227.935C379.434 228.08 378.453 228.59 377.723 229.378C377.514 229.678 377.394 230.032 377.378 230.397C377.362 230.763 377.45 231.125 377.633 231.442C377.738 231.609 377.882 231.747 378.054 231.843L378.275 231.934Z" fill="#263238"/>
<path d="M358.964 235.521L367.863 233.066L367.753 235.782L357.962 238.046L358.964 235.521Z" fill="white"/>
<path d="M374.517 240.04C374.517 239.99 370.378 240.431 365.277 241.043C360.177 241.654 356.058 242.165 356.058 242.215C356.058 242.265 360.207 241.824 365.297 241.213C370.388 240.602 374.527 240.091 374.517 240.04Z" fill="#263238"/>
<path d="M348.803 294.684L357.822 316.57L361.83 299.745C362.652 296.502 364.275 293.518 366.55 291.067C367.353 290.222 368.225 289.444 369.156 288.742L376.24 321.19C376.24 321.19 370.228 339.668 355.948 340.099C351.799 340.219 345.476 337.584 343.502 332.964C342.5 330.679 329.804 300.537 329.804 300.537L348.803 294.684Z" fill="#E0E0E0"/>
<path d="M352.661 312.181L353.172 308.944L342.54 299.925L340.656 302.04L334.593 308.984L357.501 327.563L363.023 320.929L352.661 312.181Z" fill="#263238"/>
<path d="M438.56 352.725C438.861 348.216 433.39 296.608 433.39 296.608L421.655 279.272L399.278 275.334C398.938 278.06 397.184 285.175 387.955 287.8C383.205 289.153 378.044 284.413 378.044 284.413L369.156 288.732L372.533 312.902L376.892 340.48L438.791 358.077C438.791 358.077 438.26 357.245 438.56 352.725Z" fill="#E0E0E0"/>
<path d="M379.667 343.346L376.892 310.076L409.259 303.523L438.35 346.573L439.202 361.283L394.468 359.89L379.667 343.346Z" fill="#4A6C80"/>
<path d="M371.31 300.116C371.484 300.624 371.608 301.147 371.681 301.679C371.891 302.681 372.152 304.164 372.452 305.978C373.044 309.625 373.705 314.686 374.366 320.278C375.028 325.869 375.619 330.92 376.12 334.578C376.371 336.331 376.571 337.784 376.721 338.897C376.824 339.422 376.881 339.955 376.892 340.49C376.73 339.979 376.606 339.456 376.521 338.927C376.31 337.925 376.05 336.451 375.759 334.628C375.158 330.98 374.497 325.929 373.845 320.338C373.194 314.746 372.583 309.686 372.082 306.038C371.841 304.284 371.641 302.821 371.48 301.709C371.384 301.183 371.327 300.65 371.31 300.116Z" fill="#263238"/>
<path d="M352.691 312.121C352.691 312.121 357.03 312.672 358.553 313.464C360.077 314.255 364.516 317.191 364.516 317.191L373.454 318.885L371.32 333.656L365.307 330.649L352.12 331.962C352.12 331.962 349.244 331.301 349.244 329.246C348.559 328.83 347.975 328.268 347.533 327.599C347.091 326.93 346.803 326.172 346.689 325.378C345.305 323.611 344.02 321.767 342.841 319.857C342.52 318.965 344.314 316.851 344.314 316.851C344.314 316.851 348.082 320.047 350.326 320.548C352.571 321.049 354.685 320.147 354.886 318.674C355.337 315.718 352.691 312.121 352.691 312.121Z" fill="#FFBE9D"/>
<g opacity="0.3">
<path opacity="0.3" d="M376.401 337.604C376.401 337.604 406.463 348.366 416.484 347.725C425.012 347.184 429.211 343.186 429.892 337.604C430.574 332.022 431.505 308.283 431.505 308.283L415.422 336.211L376.24 334.978L376.401 337.604Z" fill="black"/>
</g>
<path d="M425.142 336.101C427.307 329.928 429.682 318.063 429.682 318.063L433.419 298.292C433.553 293.137 431.824 288.106 428.549 284.122C426.094 281.176 422.657 278.661 418.067 278.681C408.357 278.681 408.698 296.628 408.698 296.628L406.052 322.272L368.033 316.059L365.618 334.337L410.331 343.987C412.212 344.457 414.172 344.511 416.076 344.146C417.98 343.781 419.781 343.005 421.354 341.873C423.172 340.377 424.493 338.364 425.142 336.101Z" fill="#E0E0E0"/>
<path d="M419.14 280.254C419.14 280.334 418.368 280.375 417.186 280.695C415.634 281.094 414.195 281.843 412.979 282.885C411.763 283.928 410.802 285.235 410.171 286.708C409.68 287.84 409.53 288.602 409.45 288.592C409.413 287.904 409.54 287.217 409.82 286.587C410.385 285.01 411.348 283.605 412.616 282.51C413.883 281.414 415.413 280.665 417.055 280.334C417.734 280.141 418.449 280.114 419.14 280.254Z" fill="#263238"/>
<path d="M433.419 298.282C433.419 298.282 433.419 298.452 433.359 298.763C433.299 299.074 433.219 299.555 433.119 300.146L432.167 305.477C431.736 307.792 431.215 310.628 430.614 313.904C430.012 317.181 429.301 320.919 428.349 325.018C427.878 327.072 427.347 329.216 426.766 331.431C426.475 332.543 426.144 333.666 425.764 334.808C425.417 335.987 424.978 337.136 424.451 338.245C423.904 339.407 423.154 340.463 422.236 341.362C421.256 342.251 420.135 342.972 418.919 343.496C416.366 344.583 413.546 344.88 410.822 344.348L375.469 336.742L365.538 334.598L365.297 334.548V334.317C366.129 328.004 366.941 321.891 367.712 316.029V315.778H367.963L406.082 322.071L405.872 322.232C406.724 314.285 407.415 307.882 407.876 303.443C408.117 301.258 408.317 299.555 408.447 298.372C408.518 297.811 408.568 297.37 408.608 297.059C408.648 296.749 408.678 296.608 408.678 296.608C408.678 296.608 408.678 296.769 408.678 297.059C408.678 297.35 408.618 297.821 408.568 298.382C408.457 299.565 408.297 301.268 408.087 303.463C407.656 307.912 407.014 314.315 406.233 322.272V322.462H406.042L367.963 316.33L368.244 316.119C367.482 321.971 366.68 328.084 365.849 334.397L365.718 334.097L375.649 336.231L410.983 343.877C413.61 344.4 416.333 344.121 418.799 343.075C419.972 342.596 421.053 341.918 421.996 341.071C422.884 340.205 423.611 339.187 424.14 338.065C424.656 336.977 425.088 335.851 425.433 334.698C425.784 333.565 426.114 332.443 426.435 331.341C427.046 329.126 427.567 326.992 428.048 324.947C429.05 320.859 429.772 317.141 430.383 313.854C430.994 310.567 431.576 307.762 432.027 305.447C432.478 303.132 432.828 301.378 433.079 300.136C433.199 299.555 433.299 299.134 433.369 298.763C433.44 298.392 433.419 298.282 433.419 298.282Z" fill="#263238"/>
<path d="M410.472 328.765C409.499 327.749 408.648 326.623 407.936 325.408C407.295 324.406 406.744 323.515 406.353 322.913C406.13 322.598 405.82 322.355 405.461 322.212C405.461 322.212 405.582 322.122 405.822 322.162C406.14 322.247 406.424 322.429 406.634 322.683C407.254 323.464 407.832 324.277 408.367 325.118C409.217 326.242 409.923 327.467 410.472 328.765Z" fill="#263238"/>
<path d="M403.968 305.287C403.968 305.287 397.204 288.131 404.259 279.743C405.083 278.784 406.123 278.033 407.294 277.552C408.464 277.071 409.732 276.874 410.993 276.977C413.218 277.148 416.174 277.579 418.068 278.671C418.068 278.671 412.055 277.599 409.56 280.254C407.716 282.258 403.277 288.582 407.957 303.783L403.968 305.287Z" fill="#4A6C80"/>
<path d="M377.012 310.878L370.118 288.271C370.515 287.551 371.131 286.974 371.876 286.625C372.621 286.276 373.458 286.172 374.266 286.327L380.92 310.878H377.012Z" fill="#4A6C80"/>
<path d="M354.535 318.875C354.445 318.985 350.707 316.169 346.178 312.582C343.395 310.486 340.72 308.251 338.161 305.888C338.251 305.777 341.989 308.593 346.518 312.181C349.301 314.277 351.976 316.511 354.535 318.875Z" fill="#455A64"/>
<path d="M336.558 306.739L334.503 304.846L335.485 303.633L337.87 305.236L336.558 306.739Z" fill="#455A64"/>
<path d="M317.237 277.178C317.008 276.284 317.134 275.336 317.591 274.534C318.047 273.732 318.797 273.138 319.682 272.879C323.41 271.777 329.162 270.404 330.705 271.877C333.08 274.051 338.722 279.312 338.722 279.312L346.558 295.576L333.872 299.314L330.264 286.938C330.264 286.938 324.492 287.249 325.003 284.152C325.003 284.152 322.117 283.02 322.528 281.266C322.939 279.513 325.314 279.102 325.314 279.102L324.803 276.005L317.217 277.338L317.237 277.178Z" fill="#FFBE9D"/>
<path d="M323.48 281.477H317.087V273.971H323.48C324.48 273.971 325.438 274.368 326.145 275.075C326.851 275.781 327.248 276.74 327.248 277.739C327.238 278.732 326.836 279.681 326.131 280.381C325.426 281.081 324.474 281.474 323.48 281.477Z" fill="#455A64"/>
<path d="M328.35 277.569L318.75 275.094C318.75 275.094 316.175 274.372 317.518 277.158C318.861 279.944 322.879 279.322 324.422 280.976C325.965 282.629 326.847 285.415 333.251 286.447" fill="#FFBE9D"/>
<path d="M333.251 286.447C332.823 286.447 332.396 286.4 331.978 286.307C330.831 286.097 329.717 285.74 328.661 285.245C327.933 284.889 327.259 284.434 326.657 283.892C325.985 283.255 325.375 282.558 324.833 281.808C323.831 280.074 321.466 280.164 319.382 279.212C318.849 278.97 318.366 278.63 317.959 278.21C317.579 277.785 317.284 277.292 317.087 276.757C316.986 276.49 316.922 276.21 316.897 275.925C316.884 275.761 316.908 275.595 316.967 275.441C317.026 275.287 317.118 275.148 317.237 275.033C317.483 274.883 317.759 274.79 318.045 274.762C318.332 274.735 318.621 274.772 318.891 274.873L323.841 276.206L327.168 277.148C327.581 277.246 327.984 277.384 328.37 277.559C327.946 277.539 327.526 277.468 327.118 277.348L323.741 276.557L318.73 275.334C318.537 275.262 318.331 275.232 318.125 275.246C317.92 275.26 317.72 275.317 317.538 275.414C317.287 275.605 317.357 276.126 317.538 276.577C317.712 277.047 317.97 277.481 318.299 277.859C318.671 278.22 319.101 278.515 319.572 278.731C320.57 279.125 321.591 279.46 322.628 279.733C323.15 279.879 323.646 280.102 324.102 280.395C324.514 280.709 324.875 281.084 325.174 281.507C325.693 282.245 326.277 282.936 326.917 283.571C327.49 284.096 328.126 284.547 328.811 284.914C330.242 285.556 331.728 286.07 333.251 286.447Z" fill="#EB996E"/>
<path d="M332.649 333.205C331.515 333.171 330.409 332.849 329.434 332.268C328.459 331.688 327.648 330.869 327.078 329.888C326.34 328.552 325.919 327.065 325.85 325.54C325.78 324.016 326.063 322.496 326.677 321.099C326.757 320.919 326.837 320.729 326.927 320.558L326.837 320.328C326.258 318.634 325.953 316.857 325.935 315.067C325.575 309.195 325.234 303.733 324.933 298.282C324.633 292.831 324.272 287.339 323.931 281.457H324.432C324.793 287.339 325.134 292.81 325.434 298.282C325.735 303.753 326.096 309.195 326.436 315.067C326.449 316.769 326.722 318.459 327.248 320.077C327.863 318.937 328.904 318.087 330.144 317.712C330.576 317.617 331.024 317.615 331.457 317.705C331.891 317.794 332.3 317.975 332.659 318.233C333.008 318.47 333.301 318.781 333.517 319.142C333.733 319.504 333.868 319.909 333.912 320.328C333.941 320.777 333.874 321.227 333.717 321.648C333.56 322.069 333.315 322.453 332.999 322.772C332.682 323.092 332.302 323.342 331.883 323.504C331.463 323.667 331.014 323.738 330.565 323.715C329.845 323.594 329.165 323.301 328.582 322.862C328 322.422 327.532 321.849 327.218 321.19L327.138 321.37C326.555 322.693 326.284 324.132 326.347 325.576C326.41 327.02 326.804 328.43 327.499 329.697C328.136 330.855 329.147 331.763 330.365 332.274C331.584 332.785 332.94 332.869 334.213 332.513C336.547 331.672 338.371 328.856 338.642 325.649C338.764 322.613 338.072 319.599 336.638 316.921C335.996 315.578 335.255 314.265 334.543 312.993C333.832 311.72 333.06 310.347 332.409 308.984C331.866 307.987 331.555 306.881 331.497 305.747C331.459 305.164 331.593 304.581 331.881 304.072C332.17 303.563 332.6 303.149 333.12 302.881C333.403 302.789 333.704 302.768 333.996 302.819C334.289 302.87 334.565 302.991 334.8 303.173C335.035 303.355 335.223 303.591 335.345 303.862C335.468 304.132 335.523 304.429 335.505 304.725H335.014C335.028 304.513 334.987 304.3 334.896 304.107C334.805 303.914 334.666 303.748 334.493 303.623C334.329 303.49 334.134 303.399 333.926 303.359C333.718 303.319 333.503 303.33 333.301 303.393C332.88 303.631 332.534 303.982 332.304 304.408C332.073 304.833 331.967 305.315 331.998 305.798C332.063 306.85 332.357 307.876 332.86 308.804C333.501 310.177 334.253 311.509 334.984 312.812C335.716 314.115 336.437 315.408 337.089 316.77C338.556 319.542 339.248 322.657 339.093 325.789C338.852 328.655 337.289 332.022 334.343 333.084C333.789 333.218 333.217 333.258 332.649 333.205ZM327.489 320.568C327.754 321.225 328.179 321.805 328.725 322.256C329.271 322.708 329.92 323.016 330.615 323.154C330.988 323.172 331.36 323.109 331.707 322.968C332.053 322.828 332.364 322.615 332.619 322.342C332.89 322.087 333.099 321.774 333.233 321.428C333.366 321.081 333.42 320.708 333.391 320.338C333.358 319.994 333.252 319.661 333.079 319.362C332.906 319.063 332.671 318.804 332.389 318.604C332.09 318.384 331.748 318.23 331.385 318.152C331.022 318.075 330.647 318.075 330.284 318.153C329.685 318.349 329.131 318.664 328.655 319.079C328.18 319.494 327.794 320 327.519 320.568H327.489Z" fill="#455A64"/>
<path d="M391.011 425.377L414.179 417.45C414.179 417.45 430.012 438.314 434.442 437.312L420.693 391.817L384.077 402.68L391.011 425.377Z" fill="#455A64"/>
<path d="M407.956 403.982C407.956 403.504 408.133 403.043 408.454 402.687C408.774 402.332 409.214 402.108 409.69 402.058C410.166 402.041 410.631 402.207 410.989 402.522C411.347 402.837 411.571 403.277 411.614 403.752C411.604 404.253 411.412 404.734 411.072 405.103C410.732 405.473 410.269 405.705 409.77 405.756C409.268 405.722 408.798 405.494 408.461 405.12C408.125 404.746 407.947 404.255 407.966 403.752" fill="#E0E0E0"/>
<path d="M421.635 391.496L418.088 392.498L431.586 436.149C431.586 436.149 433.089 437.913 434.442 437.252L421.635 391.496Z" fill="#E0E0E0"/>
<path d="M414.169 418.272C414.39 418.202 414.169 417.06 414.54 415.757C414.911 414.454 415.683 413.582 415.542 413.402C415.402 413.222 414.209 413.943 413.769 415.537C413.328 417.13 413.979 418.362 414.169 418.272Z" fill="#263238"/>
<path d="M417.587 422.431C417.817 422.431 417.907 421.338 418.589 420.296C419.27 419.254 420.222 418.743 420.152 418.523C420.082 418.302 418.769 418.523 417.907 419.855C417.045 421.188 417.376 422.491 417.587 422.431Z" fill="#263238"/>
<path d="M424.11 423.413C424.11 423.192 422.898 423.222 421.855 424.164C420.813 425.106 420.643 426.279 420.853 426.319C421.064 426.359 421.525 425.517 422.397 424.766C423.268 424.014 424.16 423.643 424.11 423.413Z" fill="#263238"/>
<path d="M408.688 419.475C408.868 419.324 408.247 418.392 407.956 417.11C407.666 415.827 407.766 414.735 407.535 414.675C407.305 414.614 406.804 415.797 407.175 417.3C407.545 418.803 408.548 419.635 408.688 419.475Z" fill="#263238"/>
<path d="M388.195 363.588C387.303 363.348 348.062 405.435 347.17 412.4C346.278 419.364 347.701 425.427 352.34 429.335C356.98 433.243 409.77 420.417 409.77 420.417L404.76 398.3L423.799 391.887L406.764 360.672L388.195 363.588Z" fill="#4A6C80"/>
<g opacity="0.3">
<path opacity="0.3" d="M378.906 372.918L377.653 374.27C377.653 374.27 400.14 397.87 407.045 397.539L418.067 393.801L380.75 370.873L378.906 372.918Z" fill="black"/>
</g>
<path d="M404.91 398.882C404.91 399.022 396.763 401.547 386.632 404.523C376.501 407.5 368.234 409.804 368.193 409.664C368.153 409.524 376.34 407.009 386.482 404.022C396.623 401.036 404.87 398.741 404.91 398.882Z" fill="#263238"/>
<path d="M355.908 401.317L363.534 425.507C363.534 425.507 341.488 441.39 342.49 446L389.939 432.893L379.607 394.703L355.908 401.317Z" fill="#455A64"/>
<path d="M377.633 419.404C378.128 419.415 378.601 419.608 378.962 419.947C379.322 420.285 379.545 420.745 379.587 421.238C379.606 421.743 379.427 422.235 379.089 422.61C378.75 422.984 378.278 423.211 377.773 423.242C377.251 423.214 376.758 422.993 376.388 422.623C376.018 422.254 375.798 421.76 375.769 421.238C375.839 420.236 376.912 419.234 377.874 419.424" fill="#E0E0E0"/>
<path d="M390.23 433.885L389.227 430.177L343.672 443.074C343.672 443.074 341.809 444.577 342.46 446L390.23 433.885Z" fill="#E0E0E0"/>
<path d="M362.712 425.477C362.792 425.708 363.975 425.477 365.318 425.928C366.66 426.379 367.542 427.161 367.733 427.01C367.923 426.86 367.202 425.617 365.568 425.126C363.935 424.635 362.592 425.287 362.712 425.477Z" fill="#263238"/>
<path d="M358.293 428.914C358.293 429.155 359.405 429.265 360.467 430.027C361.53 430.788 362.041 431.77 362.261 431.69C362.482 431.61 362.261 430.267 360.948 429.345C359.636 428.423 358.233 428.694 358.293 428.914Z" fill="#263238"/>
<path d="M357.11 435.648C357.331 435.648 357.331 434.396 356.389 433.293C355.447 432.191 354.224 431.981 354.174 432.201C354.124 432.422 354.986 432.913 355.748 433.834C356.509 434.756 356.87 435.688 357.11 435.648Z" fill="#263238"/>
<path d="M361.57 419.775C361.72 419.956 362.702 419.344 364.035 419.074C365.368 418.803 366.5 418.933 366.57 418.693C366.64 418.452 365.428 417.911 363.854 418.252C362.281 418.593 361.409 419.625 361.57 419.775Z" fill="#263238"/>
<g opacity="0.3">
<path opacity="0.3" d="M390.26 424.826L387.333 413.352L389.518 412.34L376.24 376.204L373.705 378.409L384.137 411.508L387.875 425.327L390.26 424.826Z" fill="black"/>
</g>
<path d="M358.934 335.379C356.36 334.827 353.698 334.827 351.124 335.379C348.55 335.932 346.123 337.025 344.003 338.586C341.859 340.095 340.194 342.189 339.206 344.617C338.219 347.046 337.95 349.707 338.431 352.285C340.566 367.316 359.716 418.422 359.716 418.422L386.211 410.456C386.361 410.456 386.512 409.975 386.421 410.105C386.211 410.456 372.983 367.857 373.314 368.358C373.645 368.859 400.05 390.214 411.013 394.082C415.92 395.862 421.27 396.016 426.272 394.522C431.274 393.028 435.663 389.964 438.791 385.784C441.356 382.197 441.536 366.424 438.791 358.087C438.791 358.087 362.331 336.411 360.898 335.88C360.255 335.671 359.599 335.504 358.934 335.379Z" fill="#4A6C80"/>
<path d="M357.852 350.972C362.084 353.829 365.659 357.556 368.337 361.903C371.015 366.251 372.736 371.119 373.384 376.184" fill="#4A6C80"/>
<path d="M439.873 385.263L439.552 385.774C439.221 386.258 438.863 386.723 438.48 387.167C436.956 388.867 435.198 390.341 433.259 391.546C430.18 393.515 426.728 394.828 423.118 395.404C420.847 395.772 418.534 395.803 416.254 395.495C413.679 395.184 411.177 394.431 408.858 393.27C407.596 392.739 406.403 392.017 405.131 391.366C403.858 390.715 402.615 389.933 401.353 389.131C398.821 387.561 396.222 385.851 393.556 384.001C388.212 380.313 382.654 376.164 376.882 371.555L374.717 369.801L373.635 368.899L373.344 368.629L373.204 368.498C373.294 368.498 372.953 368.378 373.394 368.558C373.745 368.188 373.495 368.378 373.575 368.338V368.408L373.765 369.09C374.326 370.893 374.888 372.727 375.469 374.591C376.645 378.299 377.844 382.097 379.066 385.985C381.551 393.761 384.137 401.878 386.812 410.265L386.893 410.506L386.642 410.586L359.816 418.663L359.576 418.733L359.495 418.503C357.782 413.913 356.008 409.033 354.234 404.073C350.386 393.31 346.729 382.768 343.512 372.477C341.899 367.336 340.396 362.255 339.193 357.195C339.043 356.563 338.872 355.942 338.752 355.301C338.632 354.66 338.522 354.028 338.401 353.397C338.138 352.135 338.013 350.848 338.031 349.559C338.035 346.991 338.772 344.477 340.155 342.314C341.555 340.299 343.364 338.602 345.463 337.333C347.563 336.064 349.906 335.251 352.34 334.948C354.677 334.612 357.055 334.71 359.355 335.239L361.029 335.67L362.642 336.151L365.839 337.103L389.298 344.118L423.268 354.299L432.498 357.095L434.893 357.826C435.434 357.996 435.704 358.097 435.704 358.097C435.704 358.097 435.424 358.037 434.873 357.876L432.468 357.195L423.208 354.489L389.137 344.468L365.648 337.514L362.452 336.572L360.808 336.101L359.195 335.7C356.962 335.195 354.657 335.1 352.391 335.419C350.023 335.716 347.744 336.508 345.703 337.744C343.662 338.98 341.905 340.633 340.546 342.594C339.217 344.691 338.521 347.127 338.542 349.609C338.526 350.871 338.65 352.132 338.912 353.367C339.023 353.988 339.143 354.619 339.263 355.251C339.383 355.882 339.554 356.503 339.694 357.135C340.897 362.145 342.4 367.236 344.023 372.376C347.24 382.648 350.897 393.19 354.745 403.952C356.519 408.903 358.293 413.793 359.996 418.372L359.686 418.212L386.522 410.195L386.351 410.506C383.686 402.118 381.111 394.002 378.635 386.225C377.413 382.331 376.217 378.526 375.048 374.812C374.477 372.958 373.915 371.114 373.354 369.3L373.164 368.609V368.508C373.244 368.448 372.984 368.589 373.334 368.218C373.805 368.408 373.485 368.278 373.595 368.338L373.715 368.438L373.956 368.649L375.028 369.551L377.182 371.304C382.944 375.904 388.506 380.083 393.807 383.78C396.452 385.644 399.048 387.348 401.573 388.931C402.826 389.723 404.098 390.434 405.321 391.166C406.544 391.897 407.776 392.538 409.019 393.08C411.308 394.235 413.779 394.988 416.324 395.304C418.576 395.622 420.862 395.601 423.108 395.244C426.693 394.694 430.127 393.415 433.199 391.486C435.137 390.307 436.901 388.863 438.44 387.197C438.832 386.764 439.2 386.309 439.542 385.835C439.703 385.424 439.873 385.263 439.873 385.263Z" fill="#263238"/>
<path d="M361.209 356.614C361.993 356.912 362.734 357.313 363.413 357.806C365.111 358.904 366.701 360.159 368.163 361.554C369.63 362.945 370.947 364.487 372.092 366.153C372.61 366.817 373.022 367.558 373.314 368.348C372.764 367.713 372.256 367.043 371.791 366.344C370.577 364.758 369.237 363.273 367.783 361.905C366.335 360.532 364.798 359.257 363.183 358.087C362.491 357.642 361.832 357.15 361.209 356.614Z" fill="#263238"/>
<path d="M370.258 353.657C370.686 354.274 371.023 354.949 371.26 355.662C371.909 357.323 372.428 359.031 372.813 360.772C373.204 362.51 373.456 364.276 373.565 366.053C373.661 366.788 373.661 367.533 373.565 368.268C373.404 368.268 373.234 364.911 372.322 360.882C371.41 356.854 370.108 353.718 370.258 353.657Z" fill="#263238"/>
<path d="M428.85 352.615L438.53 349.829L444.853 350.972L447.86 361.534C450.866 370.873 450.195 376.224 444.002 380.323C442.188 381.525 440.464 382.187 439.212 381.656C434.863 379.812 428.85 352.615 428.85 352.615Z" fill="#455A64"/>
<path d="M438.53 349.829L376.751 339.668L376.892 340.49L438.53 358.928V349.829Z" fill="#455A64"/>
<path d="M52.9461 397.9L46.8735 419.274C46.8735 419.274 66.2238 432.692 65.4823 436.741L24.2463 426.289L32.3733 392.669L52.9461 397.9Z" fill="#455A64"/>
<path d="M34.5678 414.174C34.1389 414.2 33.7346 414.383 33.4316 414.688C33.1286 414.993 32.9482 415.398 32.9244 415.827C32.9289 416.258 33.0972 416.67 33.395 416.981C33.6928 417.292 34.0979 417.478 34.5277 417.501C34.9831 417.471 35.4118 417.275 35.7316 416.95C36.0515 416.625 36.2401 416.193 36.2614 415.737C36.1812 414.875 35.2593 413.983 34.4075 414.194" fill="#E0E0E0"/>
<g opacity="0.6">
<path opacity="0.6" d="M24.2463 426.289L25.1983 422.932L64.38 434.205C64.38 434.205 66.0134 435.488 65.4823 436.741L24.2463 426.289Z" fill="white"/>
</g>
<path d="M47.595 419.174C47.5349 419.374 46.5127 419.174 45.3603 419.625C44.2079 420.076 43.4664 420.747 43.296 420.627C43.1257 420.507 43.7269 419.395 45.1298 418.924C46.5328 418.453 47.6852 419.004 47.595 419.174Z" fill="#263238"/>
<path d="M51.4731 422.09C51.4731 422.291 50.471 422.421 49.6192 423.092C48.7674 423.764 48.2965 424.646 48.096 424.585C47.8956 424.525 48.096 423.333 49.1883 422.501C50.2806 421.669 51.5132 421.89 51.4731 422.09Z" fill="#263238"/>
<path d="M52.6355 427.952C52.4351 427.952 52.4151 426.86 53.2067 425.878C53.9984 424.896 55.0506 424.686 55.0907 424.876C55.1307 425.066 54.3992 425.517 53.7679 426.329C53.1366 427.141 52.836 427.983 52.6355 427.952Z" fill="#263238"/>
<path d="M48.4468 414.164C48.3166 414.324 47.4447 413.813 46.3024 413.602C45.16 413.392 44.1679 413.532 44.1078 413.332C44.0477 413.131 45.1099 412.61 46.4426 412.881C47.7754 413.151 48.5871 414.023 48.4468 414.164Z" fill="#263238"/>
<path d="M38.496 402.92L37.4939 425.086C37.4939 425.086 59.4197 433.524 59.6401 437.643L17.1816 437.312L17.2718 402.7L38.496 402.92Z" fill="#455A64"/>
<path d="M24.4067 423.122C23.9943 423.25 23.6431 423.525 23.4196 423.894C23.1962 424.263 23.1159 424.702 23.1941 425.126C23.299 425.542 23.5586 425.902 23.9198 426.133C24.2811 426.364 24.7168 426.448 25.1382 426.369C25.5668 426.235 25.9321 425.949 26.1662 425.566C26.4003 425.183 26.4872 424.727 26.4108 424.285C26.2627 423.861 25.9539 423.512 25.5509 423.313C25.1479 423.114 24.683 423.082 24.2564 423.223" fill="#E0E0E0"/>
<g opacity="0.6">
<path opacity="0.6" d="M17.1816 437.312L17.3219 433.825L58.0167 435.448C58.0167 435.448 59.9007 436.3 59.6802 437.653L17.1816 437.312Z" fill="white"/>
</g>
<path d="M38.2255 424.876C38.2255 425.086 37.2234 425.177 36.1512 425.878C35.0789 426.58 34.5779 427.431 34.3875 427.341C34.1971 427.251 34.5178 426.048 35.7704 425.267C37.023 424.485 38.2756 424.686 38.2255 424.876Z" fill="#263238"/>
<path d="M42.6747 426.78C42.6747 426.98 41.8129 427.331 41.1015 428.223C40.39 429.115 40.1795 430.047 39.9791 430.027C39.7787 430.007 39.6484 428.834 40.5503 427.752C41.4522 426.67 42.6647 426.579 42.6747 426.78Z" fill="#263238"/>
<path d="M45.1599 432.211C44.9695 432.211 44.689 431.209 45.2301 430.047C45.7712 428.884 46.7533 428.453 46.8334 428.624C46.9136 428.794 46.3224 429.415 45.8915 430.367C45.4606 431.319 45.3704 432.191 45.1599 432.211Z" fill="#263238"/>
<path d="M37.8948 419.795C37.8046 419.986 36.8927 419.695 35.6802 419.795C34.4676 419.896 33.5958 420.236 33.4856 420.056C33.3754 419.875 34.2672 419.124 35.6501 419.054C37.033 418.984 38.0351 419.635 37.8948 419.795Z" fill="#263238"/>
<path d="M12.2012 240.652V258.188L16.8509 326.491C16.8509 326.491 13.9849 359.63 12.1812 378.339C10.638 394.583 13.1833 422.872 13.1833 422.872H40.2397L49.9199 328.525L55.9324 269.682L66.3542 242.907L12.2012 240.652Z" fill="#263238"/>
<path d="M78.6498 240.652L81.2652 311.85C81.0848 325.208 77.4072 350.15 72.6272 362.606L50.8919 410.356L49.6393 414.655L33.4756 410.696L45.4906 241.904L78.6498 240.652Z" fill="#263238"/>
<path d="M59.9307 259.511C59.9442 259.655 59.9442 259.799 59.9307 259.942C59.9307 260.243 59.9307 260.654 59.9307 261.185C59.9307 262.317 59.9307 263.93 59.9307 265.995C59.9307 270.173 59.9307 276.216 59.8005 283.682C59.6702 291.147 59.4397 300.036 58.9086 309.896C58.3775 319.757 57.666 330.63 55.3512 341.813C53.3169 353.006 51.0623 363.628 49.0581 373.288C47.0539 382.949 45.2702 391.657 43.9374 399.002C42.6046 406.347 41.6326 412.31 41.0414 416.448C40.7307 418.513 40.5704 420.126 40.4201 421.208C40.3499 421.74 40.2898 422.15 40.2497 422.451C40.2381 422.594 40.2112 422.735 40.1695 422.872C40.1561 422.729 40.1561 422.584 40.1695 422.441C40.1695 422.14 40.2297 421.73 40.2798 421.198C40.4 420.106 40.5303 418.493 40.8109 416.418C41.3019 412.27 42.1938 406.297 43.4764 398.932C44.7591 391.567 46.4827 382.899 48.4869 373.188C50.4911 363.478 52.7357 352.906 54.8702 341.713C57.175 330.559 57.8765 319.667 58.4577 309.866C59.0389 300.066 59.2794 291.137 59.4598 283.672C59.6401 276.206 59.7103 270.173 59.7604 265.995C59.7604 263.93 59.7604 262.317 59.7604 261.185C59.7604 260.654 59.7604 260.243 59.7604 259.942C59.8074 259.795 59.8643 259.651 59.9307 259.511Z" fill="#455A64"/>
<path d="M93.9917 222.454C94.3579 223.787 94.4934 225.173 94.3926 226.552C94.1921 228.647 94.0919 233.818 88.5003 235.571C82.9086 237.325 77.6276 233.136 75.924 231.242C74.2205 229.348 74.4109 223.145 74.4109 223.145L83.6001 219.057L93.9917 222.454Z" fill="#4A6C80"/>
<path d="M30.4693 143.559L25.8196 151.035L6.97034 159.052L11.6902 236.423L15.0772 250.452L77.8381 248.368L79.3913 237.505V185.326C77.9684 171.938 71.5049 163.621 65.5024 160.324L61.5842 157.639L60.0811 152.718L54.5495 147.538L36.8226 142.938L30.4693 143.559Z" fill="#4A6C80"/>
<g opacity="0.3">
<path opacity="0.3" d="M9.60583 230.541C11.6282 233.613 14.4893 236.041 17.8497 237.537C21.2102 239.032 24.9291 239.532 28.5654 238.978C34.8685 237.916 40.1896 233.757 46.2322 231.683C56.7441 228.056 68.7391 230.942 79.1007 226.903C79.3012 225.119 79.1809 222.895 79.3012 221.712C74.1204 221.442 68.5988 221.151 64.0193 218.706L59.8606 217.173L9.60583 230.541Z" fill="black"/>
</g>
<path d="M6.9703 159.062C6.9703 159.062 -1.97836 166.718 0.617055 186.679C3.02207 205.218 7.29097 231.052 12.9828 234.048C18.6747 237.044 30.9603 235.541 39.9491 230.451C48.9378 225.36 75.0222 211.571 75.0222 211.571L64.2297 192.391L29.4672 205.879C29.4672 205.879 24.9678 175.115 22.2722 169.804" fill="#4A6C80"/>
<path d="M22.2722 169.824C22.2722 169.824 22.3724 170.015 22.5428 170.405C22.6229 170.606 22.7432 170.846 22.8534 171.147L23.1941 172.199C23.7052 173.782 24.3165 176.207 24.9779 179.284C26.3207 185.507 27.9841 194.566 29.6476 205.849L29.3971 205.699L64.1395 192.171L64.3299 192.091L64.4401 192.271C67.8472 198.334 71.4548 204.777 75.2326 211.441L75.3629 211.671L75.1124 211.842L52.8259 223.867L41.8931 229.749C40.0994 230.751 38.3056 231.753 36.4518 232.515C34.6037 233.306 32.7057 233.976 30.7699 234.519C26.9986 235.567 23.0868 236.02 19.1758 235.862C17.2658 235.788 15.3821 235.391 13.6041 234.689L12.9528 234.399C12.7345 234.282 12.5236 234.151 12.3215 234.008C11.9545 233.709 11.6187 233.373 11.3194 233.006C10.7502 232.269 10.2567 231.477 9.8463 230.641C8.36106 227.423 7.19636 224.066 6.36905 220.62C5.48721 217.283 4.79577 214.006 4.17447 210.84C2.9419 204.486 2.03 198.534 1.26841 193.093C0.506826 187.651 -0.164574 182.691 0.0358443 178.312C0.138435 174.557 0.814297 170.84 2.04002 167.289C2.82409 165.05 3.93507 162.939 5.33689 161.026C5.70185 160.531 6.10028 160.063 6.52938 159.623C6.67103 159.47 6.82522 159.329 6.99034 159.202L6.55945 159.653C6.28888 159.964 5.88805 160.435 5.41706 161.086C4.06923 163.019 2.99674 165.13 2.23042 167.359C1.05525 170.894 0.423416 174.587 0.356513 178.312C0.186157 182.661 0.877598 187.591 1.65923 193.033C2.44086 198.474 3.38282 204.406 4.6655 210.739C5.29681 213.906 5.99827 217.173 6.88011 220.49C7.7032 223.917 8.86465 227.253 10.3473 230.451C10.7461 231.257 11.2227 232.022 11.7703 232.735C12.0475 233.078 12.3599 233.39 12.7023 233.667C12.8771 233.795 13.0613 233.909 13.2534 234.008L13.8747 234.289C15.6014 234.968 17.4315 235.348 19.286 235.411C23.1336 235.502 26.9717 234.988 30.6597 233.888C32.5712 233.365 34.4459 232.715 36.2714 231.944C38.1052 231.152 39.8489 230.16 41.6526 229.198L52.5954 223.306L74.8919 211.281L74.7917 211.631L64.0193 192.511L64.3099 192.612L29.5273 206.05L29.3169 206.14V205.899C27.6534 194.626 26.0902 185.547 24.8175 179.334C24.1862 176.218 23.605 173.823 23.134 172.229C23.0138 171.828 22.9135 171.478 22.8133 171.167L22.5328 170.425C22.3424 170.035 22.2722 169.824 22.2722 169.824Z" fill="#263238"/>
<path d="M25.2684 181.188L47.8455 179.705L52.8359 189.094L27.5332 193.644L25.2684 181.188Z" fill="#4A6C80"/>
<path d="M25.2685 181.188C25.3555 181.484 25.4257 181.785 25.4789 182.09C25.5992 182.721 25.7695 183.553 25.98 184.595C26.4008 186.79 26.982 189.856 27.7236 193.614L27.4931 193.454L50.2706 189.295L52.7959 188.844L52.6055 189.215C50.8618 185.908 49.1783 182.751 47.595 179.825L47.8255 179.945L31.6518 180.887L26.962 181.138H25.6994H25.2384C25.3718 181.127 25.5059 181.127 25.6392 181.138L26.8417 181.028L31.4714 180.657L47.7954 179.464H47.9558L48.0259 179.605L53.0364 188.984L53.2067 189.295L52.856 189.365L50.3407 189.816L27.5332 193.824H27.3428V193.634C26.7015 189.806 26.1703 186.679 25.7896 184.445C25.6192 183.443 25.4889 182.591 25.3887 181.98C25.3336 181.718 25.2934 181.454 25.2685 181.188Z" fill="#263238"/>
<path d="M29.4672 205.879C29.6075 205.99 27.5833 208.364 25.8998 211.752C24.2163 215.139 23.4948 218.185 23.3144 218.135C23.342 217.452 23.4703 216.776 23.6952 216.131C24.1188 214.54 24.6995 212.996 25.4288 211.521C26.1645 210.049 27.0476 208.656 28.0643 207.362C28.4538 206.8 28.9269 206.299 29.4672 205.879Z" fill="#263238"/>
<path d="M52.1445 162.86C51.6985 162.604 51.2789 162.306 50.8919 161.968L47.615 159.362H47.8956C46.6305 161.407 45.1269 163.294 43.4163 164.984L43.2559 165.144L43.0756 164.994L39.6184 162.118C35.9106 159.112 32.4434 156.466 29.9181 154.602L26.9119 152.388C26.531 152.139 26.1753 151.854 25.8496 151.536C26.2653 151.728 26.6613 151.959 27.0321 152.227C27.7737 152.698 28.8359 153.4 30.1286 154.302C32.714 156.096 36.2213 158.681 39.939 161.717C41.1515 162.719 42.324 163.721 43.3962 164.613H43.0455C44.7413 162.957 46.2532 161.123 47.5549 159.142L47.6752 158.951L47.8355 159.102L51.0622 161.797C51.4479 162.125 51.8095 162.48 52.1445 162.86Z" fill="#263238"/>
<path d="M61.4239 158.12C61.5573 158.523 61.6184 158.947 61.6042 159.372C61.67 160.489 61.6331 161.609 61.494 162.719L61.4239 163.311L61.0832 162.81C60.2502 161.607 59.3537 160.45 58.3976 159.342C57.9967 158.871 57.5859 158.43 57.185 158.01C57.0014 157.803 56.8074 157.605 56.6038 157.418C56.4034 157.288 56.4335 157.288 56.2531 157.478L54.5896 159.793C54.1126 160.538 53.562 161.233 52.9462 161.868C53.3179 161.064 53.7677 160.299 54.289 159.583L55.8723 157.188C55.9206 157.103 55.9872 157.031 56.0673 156.975C56.1474 156.92 56.2388 156.883 56.335 156.868C56.4311 156.852 56.5295 156.859 56.6228 156.886C56.7162 156.914 56.8021 156.962 56.8744 157.027C57.1349 157.248 57.2953 157.428 57.5157 157.649C57.9266 158.07 58.3475 158.521 58.7583 159.002C59.7302 160.123 60.621 161.311 61.4239 162.559L61.003 162.659C61.4539 159.964 61.3136 158.12 61.4239 158.12Z" fill="#263238"/>
<path d="M21.24 166.748C20.7245 166.235 20.255 165.679 19.8371 165.084C18.7816 163.718 17.5365 162.51 16.1394 161.497C14.6985 160.58 13.0796 159.979 11.3895 159.733C10.6678 159.674 9.95116 159.563 9.24503 159.402C9.97127 159.278 10.7134 159.278 11.4396 159.402C13.2312 159.582 14.9515 160.198 16.45 161.196C17.8969 162.233 19.1516 163.515 20.1578 164.984C20.5989 165.519 20.9631 166.112 21.24 166.748Z" fill="#263238"/>
<path d="M70.2924 180.637C69.5348 179.099 68.937 177.487 68.5086 175.827C67.9108 174.204 67.4777 172.525 67.2159 170.816C67.9763 172.358 68.5773 173.973 69.0097 175.636C69.6055 177.255 70.0352 178.931 70.2924 180.637Z" fill="#263238"/>
<path d="M79.1709 224.869C79.3152 225.527 79.3825 226.2 79.3713 226.873C79.4515 228.096 79.5918 229.779 79.6719 231.653C79.7616 233.26 79.7281 234.871 79.5717 236.473C79.5526 237.162 79.4065 237.841 79.1408 238.477C79.107 237.809 79.1271 237.138 79.2009 236.473C79.2009 235.251 79.2009 233.567 79.2009 231.703C79.2009 229.839 79.0406 228.146 79.0606 226.913C78.9856 226.23 79.0228 225.54 79.1709 224.869Z" fill="#263238"/>
<path d="M38.2054 187.792C37.9953 188.013 37.8762 188.305 37.872 188.61C37.8679 188.915 37.9789 189.211 38.1829 189.438C38.387 189.665 38.6691 189.806 38.9729 189.834C39.2768 189.862 39.58 189.775 39.8222 189.589C40.0643 189.403 40.2276 189.133 40.2794 188.833C40.3312 188.532 40.2677 188.223 40.1016 187.967C39.9354 187.711 39.6789 187.527 39.3832 187.452C39.0875 187.377 38.7743 187.416 38.5061 187.561" fill="#E0E0E0"/>
<g opacity="0.3">
<path opacity="0.3" d="M23.7653 174.424L30.0985 193.183L50.972 189.435L30.8501 197.321L29.1565 203.825L23.7653 174.424Z" fill="black"/>
</g>
<g opacity="0.3">
<path opacity="0.3" d="M26.3907 151.867L45.0497 168.752L47.9357 160.855L50.9419 161.857L47.7052 159.172C47.7052 159.172 44.1578 164.623 43.2158 164.723L26.3907 151.867Z" fill="black"/>
</g>
<path d="M61.955 192.311C61.7861 191.949 61.6584 191.569 61.5742 191.179C61.3437 190.337 61.0431 189.285 60.6924 188.042C59.9508 185.396 58.8786 181.759 57.5658 177.771C56.2531 173.782 54.9303 170.235 53.9483 167.66C53.4974 166.457 53.1065 165.445 52.7959 164.653C52.6305 164.286 52.503 163.904 52.4151 163.511C52.6417 163.843 52.83 164.199 52.9763 164.573C53.307 165.265 53.7579 166.287 54.299 167.579C55.3612 170.115 56.7341 173.672 58.0569 177.66C59.3796 181.649 60.4018 185.326 61.0631 188.002C61.3938 189.335 61.6343 190.427 61.7846 191.179C61.8855 191.548 61.9427 191.928 61.955 192.311Z" fill="#263238"/>
<path d="M61.6844 171.478C65.2118 174.995 74.1504 184.174 74.1504 184.174L76.5454 182.731L63.9491 169.283C63.6952 169.016 63.3562 168.846 62.9903 168.802C62.6245 168.758 62.2548 168.843 61.9449 169.043C61.7475 169.17 61.581 169.339 61.4578 169.539C61.3345 169.739 61.2575 169.964 61.2326 170.198C61.2076 170.431 61.2352 170.667 61.3134 170.889C61.3916 171.11 61.5183 171.312 61.6844 171.478Z" fill="#263238"/>
<path d="M64.2297 192.391L67.2359 183.933C67.5419 183.014 68.1215 182.211 68.897 181.631C69.6725 181.05 70.607 180.721 71.575 180.687C71.7249 180.672 71.876 180.672 72.0259 180.687C73.8297 180.887 83.0489 181.488 83.0489 181.488L86.6063 185.497C86.8949 185.833 87.0535 186.261 87.0535 186.704C87.0535 187.147 86.8949 187.576 86.6063 187.912L87.6084 195.097L85.6042 196.47L85.8047 201.48C85.8047 201.48 84.0009 202.683 83.2093 202.282L82.4076 201.881L81.2051 200.678L77.808 205.478L73.1082 208.194L64.2297 192.391Z" fill="#FFBE9D"/>
<path d="M86.6164 188.283C86.2136 187.79 85.7819 187.321 85.3237 186.88C84.8108 186.455 84.232 186.116 83.6101 185.878C82.7944 185.685 81.9623 185.571 81.1249 185.537C78.9179 185.415 76.7235 185.124 74.5612 184.665C76.7717 184.602 78.9836 184.719 81.175 185.016C82.0531 185.052 82.924 185.19 83.7704 185.427C84.4463 185.707 85.0595 186.119 85.5742 186.639C86.086 187.064 86.4507 187.639 86.6164 188.283Z" fill="#EB996E"/>
<path d="M86.4159 194.896C86.212 194.265 85.9642 193.649 85.6744 193.052C84.8608 191.682 83.612 190.624 82.127 190.046C80.6183 189.511 79.0279 189.243 77.4272 189.255C76.7588 189.301 76.0874 189.281 75.423 189.194C76.0684 188.978 76.7467 188.876 77.4272 188.894C79.0899 188.762 80.7614 188.991 82.3274 189.565C83.9174 190.173 85.2295 191.342 86.0151 192.852C86.3769 193.468 86.5183 194.189 86.4159 194.896Z" fill="#EB996E"/>
<path d="M85.5141 201.069C85.174 200.458 85.0077 199.765 85.0331 199.065C84.9942 198.357 84.842 197.66 84.5822 197.001C84.404 196.628 84.139 196.303 83.8095 196.054C83.48 195.805 83.0955 195.638 82.6882 195.568C81.1125 195.229 79.5155 194.997 77.9083 194.876C77.2163 194.857 76.5351 194.7 75.9041 194.415C76.5736 194.405 77.2431 194.439 77.9083 194.516C79.5533 194.525 81.1926 194.71 82.7985 195.067C83.2855 195.184 83.7449 195.395 84.1513 195.688C84.5243 195.983 84.8144 196.37 84.993 196.81C85.2513 197.523 85.377 198.277 85.3638 199.035C85.4039 200.308 85.5742 201.039 85.5141 201.069Z" fill="#EB996E"/>
<path d="M90.5145 185.186L50.8919 226.112L52.415 227.655L80.8042 224.458L119.004 188.062L118.964 186.319L90.5145 185.186Z" fill="#455A64"/>
<g opacity="0.3">
<path opacity="0.3" d="M93.0799 210.9C92.3118 210.2 91.4061 209.669 90.4209 209.339C89.4356 209.01 88.3924 208.889 87.3579 208.986C85.282 209.202 83.3177 210.032 81.7162 211.371C80.3655 212.362 79.3793 213.771 78.9103 215.379C78.2489 218.215 80.1329 221.181 82.6982 222.554L83.0489 222.143L92.8093 214.307C93.341 213.97 93.7408 213.461 93.9417 212.864C93.9697 212.491 93.9058 212.117 93.7556 211.775C93.6053 211.432 93.3733 211.132 93.0799 210.9Z" fill="black"/>
</g>
<path d="M88.9012 207.072C88.9012 207.072 92.7392 207.152 93.9918 207.773C95.2444 208.395 98.6916 212.072 98.6916 212.072C98.6916 212.072 98.6916 214.567 97.6895 214.668C97.8072 215.225 97.8743 215.792 97.8899 216.361C97.9901 217.764 98.1905 218.566 96.2866 219.758C96.2866 219.758 96.487 222.063 95.7855 222.654C95.3135 223.055 94.8146 223.424 94.2924 223.757C94.2924 223.757 92.0978 226.452 90.7951 226.252C89.4924 226.051 87.6185 227.655 87.6185 227.655C87.6185 227.655 80.6039 224.729 81.3053 223.897L83.7504 221.191C83.7504 221.191 78.9103 217.664 79.0105 216.562C79.1107 215.459 79.5116 215.369 79.5116 215.369C79.5116 215.369 79.3112 213.265 81.0047 213.064C81.0047 213.064 82.3074 210.469 83.6001 210.369C84.8928 210.268 93.6912 213.465 93.6912 213.465L90.3943 210.669C90.3943 210.669 87.0974 210.168 87.1976 209.076C87.2978 207.984 88.9012 207.072 88.9012 207.072Z" fill="#FFBE9D"/>
<path d="M88.3099 220.239C88.2297 220.359 86.3057 219.237 83.8606 218.075C82.3331 217.438 80.8411 216.718 79.3913 215.92C81.0339 216.229 82.6169 216.798 84.0811 217.604C85.6254 218.245 87.054 219.135 88.3099 220.239Z" fill="#EB996E"/>
<path d="M92.8895 217.173C90.9277 216.726 89.0095 216.105 87.1575 215.319C85.241 214.7 83.3832 213.912 81.606 212.964C83.5662 213.43 85.4836 214.06 87.3379 214.848C89.2505 215.466 91.1076 216.243 92.8895 217.173Z" fill="#EB996E"/>
<path d="M118.854 187.992C118.68 188.007 118.506 188.007 118.333 187.992H116.819L111.137 187.922L91.3863 187.541L91.5667 187.471L81.636 197.812C73.6193 206.08 66.3541 213.545 61.0531 219.007L54.77 225.38L53.0664 227.083C52.8712 227.29 52.6601 227.481 52.4351 227.655C52.6047 227.423 52.7924 227.205 52.9963 227.003L54.6497 225.22L60.8126 218.726L81.2852 197.432L91.236 187.16L91.3061 187.08H91.4164L111.168 187.651L116.839 187.862L118.353 187.932C118.522 187.928 118.69 187.949 118.854 187.992Z" fill="#263238"/>
<path d="M70.3024 106.492C69.0519 105.074 67.3129 104.18 65.4322 103.987C64.3832 103.706 63.27 103.791 62.2756 104.227C61.6914 104.623 61.2296 105.175 60.9427 105.819C60.6558 106.464 60.5552 107.176 60.6522 107.875C60.8698 109.261 61.2779 110.61 61.8648 111.883C62.4535 113.171 62.6521 114.603 62.436 116.002L66.0335 124.57C66.6515 124.337 67.2114 123.973 67.674 123.502C68.1367 123.031 68.4911 122.465 68.7125 121.843C68.9338 121.221 69.0168 120.558 68.9556 119.9C68.8945 119.243 68.6906 118.607 68.3583 118.036C68.928 117.727 69.4223 117.296 69.8056 116.774C70.189 116.251 70.4519 115.651 70.5755 115.014C70.6991 114.378 70.6803 113.723 70.5204 113.095C70.3606 112.467 70.0637 111.882 69.651 111.382C71.2944 110.501 71.4247 107.985 70.3024 106.492Z" fill="#263238"/>
<path d="M37.1132 128.859L36.6923 111.543L25.7295 111.042C25.061 111.21 24.4537 111.564 23.9778 112.063C23.5018 112.562 23.1764 113.185 23.0392 113.86C22.902 114.536 22.9585 115.237 23.2022 115.881C23.4459 116.526 23.867 117.089 24.4167 117.505C23.5713 117.886 22.8638 118.519 22.3908 119.316C21.9178 120.114 21.7022 121.038 21.7734 121.963C21.8446 122.887 22.1991 123.767 22.7887 124.483C23.3783 125.199 24.1742 125.716 25.0681 125.963C24.5654 126.586 24.2372 127.332 24.1173 128.123C23.9974 128.915 24.09 129.725 24.3857 130.469C24.6813 131.213 25.1694 131.865 25.7999 132.359C26.4304 132.852 27.1808 133.17 27.9742 133.278C27.9742 135.282 29.1165 137.527 31.0806 138.088C33.0447 138.649 35.3495 137.156 36.2715 135.212C37.1934 133.268 37.1633 131.013 37.1132 128.859Z" fill="#263238"/>
<path d="M25.4288 109.128C25.4288 109.128 26.511 123.457 27.914 127.827C29.0581 131.015 30.5644 134.061 32.4033 136.905L65.833 126.524C66.9654 118.788 68.1378 111.011 67.6568 104.919L56.9946 101.121L25.4288 109.128Z" fill="#263238"/>
<path d="M32.5036 127.826C31.086 123.994 29.9965 120.049 29.2468 116.032C28.5057 111.999 28.7812 107.846 30.0485 103.947C30.2489 103.355 32.0526 99.4373 32.6539 99.4974C33.0948 99.4974 32.0126 103.175 32.243 103.556C34.3014 107.275 35.1853 111.53 34.7783 115.761C34.4638 119.841 33.7009 123.874 32.5036 127.786" fill="#263238"/>
<path d="M55.7119 154.653V144.952C55.7119 144.952 65.5925 143.81 66.0936 134C66.3441 129.26 66.0936 119.459 65.6827 110.601C65.4922 106.005 63.5777 101.649 60.3205 98.4016C57.0634 95.1537 52.7024 93.2516 48.1061 93.0742H47.1641C36.9328 93.2646 31.3812 102.093 31.8622 112.294V145.524L52.0643 160.074L55.7119 154.653Z" fill="#FFBE9D"/>
<path d="M55.732 144.952C51.2026 144.769 46.8207 143.291 43.1056 140.693C43.1056 140.693 45.9415 147.958 55.772 147.457L55.732 144.952Z" fill="#EB996E"/>
<path d="M62.4961 118.988C62.4856 119.355 62.3318 119.703 62.0677 119.958C61.8036 120.213 61.4501 120.354 61.0832 120.351C60.9048 120.359 60.7267 120.331 60.5593 120.269C60.3919 120.207 60.2387 120.112 60.1088 119.989C59.9789 119.867 59.8749 119.72 59.803 119.556C59.7311 119.393 59.6927 119.217 59.6902 119.038C59.6929 118.67 59.8405 118.317 60.1011 118.056C60.3618 117.796 60.7145 117.648 61.0832 117.645C61.2656 117.634 61.4485 117.661 61.6202 117.724C61.792 117.786 61.949 117.884 62.0815 118.01C62.214 118.136 62.3192 118.287 62.3906 118.456C62.4619 118.624 62.4978 118.805 62.4961 118.988Z" fill="#263238"/>
<path d="M63.4481 114.639C63.2677 114.809 62.2356 113.988 60.7224 113.928C59.2092 113.868 58.0769 114.589 57.9266 114.399C57.7763 114.208 58.0368 113.988 58.5378 113.657C59.2054 113.228 59.99 113.018 60.7825 113.056C61.5668 113.083 62.3217 113.361 62.937 113.847C63.388 114.168 63.5383 114.509 63.4481 114.639Z" fill="#263238"/>
<path d="M48.9779 119.229C48.9674 119.594 48.815 119.94 48.5531 120.195C48.2911 120.449 47.9402 120.592 47.5749 120.592C47.3956 120.598 47.2168 120.569 47.0488 120.506C46.8808 120.443 46.727 120.347 46.5965 120.224C46.4659 120.101 46.3611 119.953 46.2883 119.789C46.2154 119.625 46.1759 119.448 46.172 119.269C46.185 118.903 46.3396 118.556 46.6032 118.302C46.8668 118.048 47.2188 117.906 47.585 117.906C47.7638 117.899 47.9422 117.928 48.1096 117.992C48.277 118.055 48.4301 118.151 48.5599 118.274C48.6896 118.397 48.7935 118.545 48.8653 118.709C48.937 118.873 48.9753 119.05 48.9779 119.229Z" fill="#263238"/>
<path d="M48.6472 114.639C48.4668 114.819 47.4347 113.988 45.9215 113.938C44.4084 113.888 43.2861 114.589 43.1257 114.399C42.9654 114.208 43.2359 113.988 43.737 113.657C44.4056 113.231 45.1894 113.021 45.9817 113.056C46.768 113.088 47.5247 113.365 48.1462 113.847C48.5871 114.208 48.7374 114.539 48.6472 114.639Z" fill="#263238"/>
<path d="M53.6075 126.424C54.4108 126.202 55.2393 126.084 56.0727 126.073C56.4535 126.073 56.8242 125.993 56.9044 125.732C56.9475 125.335 56.8707 124.933 56.6839 124.58C56.3633 123.631 56.0292 122.629 55.6819 121.574C54.2689 117.335 53.2568 113.857 53.4272 113.797C53.5975 113.737 54.8902 117.134 56.3032 121.373C56.6439 122.375 56.9746 123.377 57.3052 124.379C57.529 124.855 57.5821 125.393 57.4556 125.903C57.392 126.036 57.2998 126.154 57.1854 126.247C57.0711 126.341 56.9375 126.408 56.7942 126.444C56.5771 126.491 56.3549 126.511 56.1328 126.504C55.2909 126.58 54.4429 126.553 53.6075 126.424Z" fill="#263238"/>
<path d="M49.1283 127.295C49.3688 127.295 49.3086 128.929 50.6615 130.141C52.0143 131.354 53.7679 131.244 53.778 131.474C53.788 131.705 53.3771 131.775 52.6356 131.765C51.6785 131.751 50.7579 131.396 50.0402 130.763C49.3485 130.152 48.9209 129.297 48.8477 128.378C48.8176 127.666 49.0581 127.275 49.1283 127.295Z" fill="#263238"/>
<path d="M49.3386 109.438C49.1783 109.839 47.6752 109.588 45.9015 109.729C44.1278 109.869 42.6747 110.3 42.4543 109.929C42.3541 109.749 42.6146 109.368 43.2058 108.997C43.9925 108.532 44.8788 108.26 45.7912 108.205C46.7007 108.127 47.6156 108.272 48.4568 108.626C49.058 108.907 49.4088 109.248 49.3386 109.438Z" fill="#263238"/>
<path d="M63.0172 109.548C62.7366 109.879 61.7144 109.488 60.4618 109.418C59.2092 109.348 58.147 109.559 57.9165 109.188C57.8163 109.017 57.9967 108.677 58.4777 108.376C59.1075 107.999 59.8407 107.83 60.5721 107.895C61.3023 107.938 62.0018 108.204 62.5762 108.657C63.0071 109.027 63.1374 109.388 63.0172 109.548Z" fill="#263238"/>
<path d="M32.3933 119.559C32.233 119.479 25.7294 117.295 25.6793 124.019C25.6292 130.743 32.3833 129.4 32.4033 129.209C32.4234 129.019 32.3933 119.559 32.3933 119.559Z" fill="#FFBE9D"/>
<path d="M30.3691 126.664C30.3691 126.664 30.2489 126.744 30.0485 126.835C29.9106 126.893 29.7624 126.924 29.6125 126.924C29.4627 126.924 29.3145 126.893 29.1766 126.835C28.7427 126.559 28.391 126.171 28.1583 125.713C27.9256 125.255 27.8204 124.742 27.8539 124.229C27.8424 123.653 27.9587 123.081 28.1946 122.556C28.2594 122.347 28.3734 122.157 28.5268 122.002C28.6803 121.847 28.8688 121.731 29.0764 121.664C29.2122 121.63 29.3555 121.644 29.4817 121.705C29.6079 121.765 29.7091 121.868 29.7679 121.994C29.8581 122.175 29.7679 122.315 29.848 122.325C29.9282 122.335 29.9983 122.215 29.9382 121.934C29.9054 121.767 29.8128 121.617 29.6777 121.513C29.4948 121.374 29.2653 121.309 29.0363 121.333C28.7633 121.383 28.5072 121.501 28.2918 121.676C28.0764 121.852 27.9086 122.078 27.8038 122.335C27.5137 122.916 27.3693 123.56 27.3829 124.209C27.348 124.808 27.49 125.403 27.7911 125.922C28.0922 126.44 28.5392 126.859 29.0764 127.125C29.2569 127.176 29.4461 127.186 29.6311 127.157C29.8162 127.128 29.9927 127.059 30.1487 126.955C30.3491 126.804 30.3892 126.664 30.3691 126.664Z" fill="#EB996E"/>
<path d="M61.3337 99.4775C62.426 98.8762 59.1592 95.3589 56.4836 94.1464C52.4752 92.3226 46.2723 91.2002 42.5445 92.2624C38.0652 93.5451 34.3474 95.7798 32.1027 99.8683C29.9392 104.026 28.9223 108.685 29.1566 113.366C29.1187 114.798 29.4647 116.213 30.1587 117.465C31.1006 118.948 32.9044 119.88 32.8242 121.934C32.7907 122.668 33.0421 123.386 33.5257 123.938C34.7583 125.251 36.2614 124.019 36.9528 122.786C38.4259 120.151 38.5862 117.004 38.7065 113.988C38.9107 111.851 38.7652 109.695 38.2756 107.604C37.9449 106.482 37.4138 105.43 37.1432 104.288C36.9771 103.727 36.9332 103.137 37.0144 102.558C37.0957 101.979 37.3002 101.424 37.6142 100.931C37.7824 100.732 37.9667 100.548 38.1654 100.379C39.099 99.5795 40.2264 99.0391 41.4346 98.8122C42.6429 98.5853 43.8896 98.68 45.0497 99.0867C48.8376 100.419 55.3011 102.404 56.9846 101.091C58.1824 100.306 59.2058 99.2824 59.9909 98.0846L61.3337 99.4775Z" fill="#263238"/>
<path d="M42.3341 85.3178C41.8631 85.3679 30.3691 87.5625 27.2226 95.97C24.076 104.378 24.8376 106.993 24.8376 106.993C24.3825 107.264 23.9705 107.602 23.615 107.995C23.124 108.536 23.7253 111.232 25.2184 111.001C36.532 106.442 49.7395 106.392 64.4201 107.334L75.6736 107.574C78.8101 108.045 79.9525 107.244 78.6799 106.412C77.6778 105.77 68.8594 101.882 68.8594 101.882L67.0957 100.52L62.6665 93.9258C62.6665 93.9258 63.2677 93.0439 62.1554 92.2623C61.0431 91.4807 51.6836 84.3358 42.3341 85.3178Z" fill="#4A6C80"/>
<path d="M67.0957 100.52C66.9489 100.528 66.8017 100.528 66.6548 100.52L65.4022 100.449C64.3099 100.369 62.7366 100.329 60.7826 100.309C55.7072 100.304 50.641 100.74 45.641 101.612C40.64 102.517 35.695 103.709 30.8301 105.179C28.9562 105.72 27.4531 106.181 26.4109 106.522L25.2084 106.883L24.7775 107.003L25.1884 106.853L26.3808 106.452C27.3829 106.111 28.9261 105.61 30.79 105.049C35.652 103.542 40.6015 102.334 45.6109 101.431C50.6243 100.533 55.7093 100.093 60.8026 100.119C64.7108 100.219 67.0957 100.52 67.0957 100.52Z" fill="#263238"/>
<g opacity="0.3">
<path opacity="0.3" d="M31.752 89.9776C31.752 89.9776 44.1077 88.4044 49.529 91.2403L48.8977 90.8996L54.0685 93.3547C54.4662 93.6242 54.919 93.8018 55.3939 93.8746C55.8688 93.9474 56.354 93.9136 56.8142 93.7756C54.5219 91.8036 51.8811 90.2776 49.028 89.2762C43.9073 87.3622 35.7603 86.34 31.752 89.9776Z" fill="black"/>
</g>
<path d="M31.5716 90.0377C31.9261 89.7798 32.3016 89.5519 32.694 89.3563C33.7538 88.7904 34.8774 88.3531 36.0409 88.0536C37.7675 87.6069 39.5499 87.4145 41.332 87.4824C43.5271 87.5076 45.6908 88.0067 47.6752 88.9455C48.6857 89.4507 49.663 90.0197 50.6013 90.649C51.5032 91.2503 52.4051 91.7914 53.2168 92.3926C53.9527 92.9833 54.7333 93.516 55.5516 93.986C56.2886 94.3448 57.0969 94.5332 57.9166 94.5371C60.9228 94.6874 62.8067 94.1162 62.6865 93.9258C62.6294 94.0272 62.5417 94.1079 62.436 94.1563C62.1331 94.2837 61.8173 94.3778 61.494 94.4369C60.3105 94.6472 59.1075 94.7279 57.9065 94.6774C57.0667 94.6816 56.2371 94.493 55.4815 94.1263C54.6511 93.6604 53.8602 93.1275 53.1165 92.5329C52.3149 91.9417 51.403 91.4006 50.5011 90.7993C49.5667 90.181 48.5963 89.6188 47.595 89.1158C45.636 88.1858 43.5003 87.6869 41.332 87.6528C39.562 87.5779 37.7903 87.7568 36.071 88.1839C34.9143 88.4731 33.7921 88.8864 32.724 89.4164C32.3432 89.6068 32.0626 89.7672 31.8722 89.8774L31.5716 90.0377Z" fill="#263238"/>
<g opacity="0.3">
<path opacity="0.3" d="M26.01 99.4775C28.0703 99.4221 30.1177 99.133 32.1128 98.6157C34.4577 98.1848 36.7825 97.8642 39.1274 97.323C40.8911 96.9122 42.9754 96.5514 44.1378 95.3188C44.2085 95.7538 44.1664 96.1997 44.0155 96.6138C43.8647 97.0278 43.61 97.3963 43.276 97.6838C42.1061 98.397 40.8262 98.9117 39.4881 99.207C34.9064 100.456 30.2022 101.202 25.4589 101.432C25.597 100.751 25.7845 100.081 26.0201 99.4274" fill="black"/>
</g>
<path d="M27.6133 95.0483C26.2004 95.6095 25.3286 95.9903 25.2484 97.1727C25.1783 98.1748 25.3386 99.3873 26.3106 99.5877C26.6092 99.6376 26.9139 99.6376 27.2125 99.5877L42.5244 97.0324C43.054 97.0025 43.5568 96.79 43.9474 96.4312C44.1637 96.0915 44.2376 95.6803 44.1532 95.2866C44.0688 94.8928 43.8329 94.548 43.4965 94.3268C42.7992 93.9067 41.9951 93.6979 41.1816 93.7255C36.6186 93.5643 32.0547 94.0193 27.6133 95.0784" fill="#4A6C80"/>
<path d="M43.7069 96.6014C43.9066 96.427 44.0554 96.202 44.1378 95.9501C44.2353 95.606 44.2343 95.2414 44.1351 94.8978C44.036 94.5542 43.8425 94.2453 43.5767 94.006C42.6908 93.4152 41.6318 93.1399 40.5704 93.2244C39.3478 93.2244 38.005 93.2845 36.562 93.3747C34.1555 93.4969 31.7645 93.8323 29.4171 94.3768C28.5253 94.5872 27.8038 94.8177 27.3127 94.968L26.7416 95.1484L26.5411 95.2085C26.5411 95.2085 26.6013 95.2085 26.7315 95.1183L27.2927 94.8979C27.9786 94.6433 28.6778 94.4259 29.3871 94.2465C31.734 93.6513 34.1339 93.2888 36.552 93.1643C37.965 93.0741 39.3178 93.044 40.5604 93.034C41.6696 92.9486 42.7742 93.2495 43.6869 93.8858C43.9624 94.144 44.1593 94.4747 44.2551 94.8399C44.3508 95.2051 44.3414 95.59 44.228 95.9501C44.1577 96.1432 44.0447 96.3179 43.8973 96.4611L43.7069 96.6014Z" fill="#263238"/>
<path d="M64.0694 95.9901L54.5095 95.469L55.2209 98.1947L65.6427 98.3249L64.0694 95.9901Z" fill="white"/>
<path d="M49.3086 103.997C49.3086 103.997 53.5875 103.486 58.8786 102.995C64.1696 102.504 68.4786 102.093 68.4786 102.143C68.4786 102.193 64.1996 102.654 58.8986 103.145C53.5975 103.636 49.3086 104.047 49.3086 103.997Z" fill="#263238"/>
<path d="M81.2652 239.219H7.64169V251.514H81.2652V239.219Z" fill="#455A64"/>
<path d="M9.89639 245.161H43.9674V279.713C43.9674 281.552 43.2368 283.316 41.9364 284.617C40.6359 285.917 38.8721 286.648 37.033 286.648H16.8309C15.9202 286.648 15.0185 286.468 14.1772 286.12C13.3358 285.771 12.5714 285.261 11.9274 284.617C11.2835 283.973 10.7727 283.208 10.4242 282.367C10.0758 281.526 9.89639 280.624 9.89639 279.713V245.161Z" fill="#455A64"/>
<path d="M43.9875 256.395C43.8889 255.688 43.842 254.974 43.8472 254.26C43.8201 252.33 43.5679 250.41 43.0957 248.538C42.9309 247.948 42.6287 247.406 42.2138 246.955C41.7255 246.482 41.188 246.062 40.6105 245.702C39.3059 244.939 37.8475 244.477 36.3416 244.35C33.1349 244.109 29.5374 244.219 25.7896 244.249C22.0417 244.279 18.4242 243.949 15.2877 244.64C13.8011 244.864 12.4285 245.568 11.3795 246.644C10.6207 247.71 10.1889 248.974 10.1369 250.282C9.90644 252.717 9.95655 254.711 9.91646 256.084C9.91646 256.725 9.91646 257.246 9.91646 257.667C9.93121 257.851 9.93121 258.035 9.91646 258.218C9.87098 258.038 9.85075 257.853 9.85634 257.667C9.85634 257.246 9.85634 256.725 9.80623 256.084C9.80623 254.711 9.68598 252.727 9.86636 250.252C9.90504 248.863 10.3473 247.515 11.139 246.374C12.2425 245.209 13.7019 244.444 15.2877 244.199C16.9754 243.856 18.6969 243.708 20.4184 243.758C22.182 243.758 24.0159 243.758 25.8898 243.758C29.6476 243.758 33.205 243.628 36.4919 243.899C38.0625 244.048 39.5796 244.548 40.9311 245.362C41.5336 245.746 42.0916 246.197 42.5946 246.704C43.07 247.196 43.4146 247.799 43.5967 248.458C44.0496 250.364 44.2517 252.322 44.1979 254.28C44.1979 254.922 44.1979 255.443 44.1979 255.864C44.1439 256.047 44.0735 256.224 43.9875 256.395Z" fill="#263238"/>
<path d="M43.737 260.032C43.737 260.183 36.2414 260.293 26.9921 260.293C17.7428 260.293 10.2472 260.183 10.2472 260.032C10.2472 259.882 17.7428 259.772 26.9921 259.772C36.2414 259.772 43.737 259.942 43.737 260.032Z" fill="#263238"/>
<path d="M19.6568 286.998C19.5065 286.998 19.3962 280.936 19.3962 273.46C19.3962 265.985 19.5065 259.912 19.6568 259.912C19.8071 259.912 19.9173 265.975 19.9173 273.46C19.9173 280.946 19.7971 286.998 19.6568 286.998Z" fill="#263238"/>
<path d="M35.0288 286.908C34.8885 286.908 34.7682 280.896 34.7682 273.5C34.7682 266.105 34.8885 260.082 35.0288 260.082C35.1691 260.082 35.2893 266.095 35.2893 273.5C35.2893 280.906 35.1691 286.908 35.0288 286.908Z" fill="#263238"/>
<path d="M81.2653 239.219L85.5141 245.161C85.5141 245.161 89.312 280.575 87.6185 282.239C85.925 283.902 80.2331 283.862 80.2331 283.862L78.6799 241.463L81.2653 239.219Z" fill="#455A64"/>
<path d="M67.9274 251.023C67.2597 247.074 67.2056 243.045 67.767 239.078C67.922 241.079 67.9688 243.086 67.9073 245.091C68.0205 247.067 68.0272 249.047 67.9274 251.023Z" fill="#263238"/>
<path d="M81.3454 239.419C81.5918 240.062 81.7436 240.737 81.7964 241.423C81.9968 242.666 82.1972 244.43 82.3074 246.324C82.393 247.24 82.3559 248.163 82.1972 249.069C82.0529 249.849 81.6463 250.556 81.0448 251.073C80.6457 251.422 80.1411 251.627 79.6118 251.655C79.231 251.655 79.0506 251.565 79.0506 251.544C79.7 251.498 80.3145 251.233 80.7943 250.793C81.2939 250.31 81.6212 249.676 81.7262 248.989C81.8486 248.116 81.8688 247.232 81.7863 246.354C81.5859 242.516 81.1951 239.439 81.3454 239.419Z" fill="#263238"/>
<path d="M419.34 245.011L424.03 240.582C429.107 241.345 434.286 240.181 438.549 237.321C442.812 234.46 445.852 230.109 447.07 225.121C448.289 220.134 447.599 214.871 445.136 210.367C442.673 205.862 438.614 202.442 433.758 200.777C428.901 199.111 423.598 199.322 418.889 201.368C414.18 203.413 410.406 207.146 408.308 211.832C406.211 216.518 405.941 221.818 407.552 226.693C409.163 231.568 412.538 235.664 417.015 238.177L419.34 245.011Z" fill="white"/>
<g opacity="0.35">
<path fill-rule="evenodd" clip-rule="evenodd" d="M184 184C184 194.609 188.214 204.783 195.716 212.284C203.217 219.786 213.391 224 224 224C234.609 224 244.783 219.786 252.284 212.284C259.786 204.783 264 194.609 264 184C264 173.391 259.786 163.217 252.284 155.716C244.783 148.214 234.609 144 224 144C213.391 144 203.217 148.214 195.716 155.716C188.214 163.217 184 173.391 184 184ZM257.143 184C257.143 192.79 253.651 201.22 247.436 207.436C241.22 213.651 232.79 217.143 224 217.143C215.21 217.143 206.78 213.651 200.564 207.436C194.349 201.22 190.857 192.79 190.857 184C190.857 175.21 194.349 166.78 200.564 160.564C206.78 154.349 215.21 150.857 224 150.857C232.79 150.857 241.22 154.349 247.436 160.564C253.651 166.78 257.143 175.21 257.143 184Z" fill="#4A6C80"/>
<path fill-rule="evenodd" clip-rule="evenodd" d="M206.857 184C206.857 204.672 213.673 221.714 224 221.714C234.327 221.714 241.143 204.672 241.143 184C241.143 163.328 234.327 146.286 224 146.286C213.673 146.286 206.857 163.328 206.857 184ZM234.286 184C234.286 201.198 228.823 214.857 224 214.857C219.177 214.857 213.714 201.198 213.714 184C213.714 166.802 219.177 153.143 224 153.143C228.823 153.143 234.286 166.802 234.286 184Z" fill="#4A6C80"/>
<path d="M194.752 163.278L199.351 158.194C199.808 158.606 200.306 159.017 200.837 159.415C206.647 163.767 215.922 166.455 226.048 166.455C234.693 166.455 242.743 164.503 248.59 161.161C249.998 160.357 251.25 159.483 252.334 158.555L256.786 163.771C255.369 164.983 253.765 166.103 251.995 167.108C245.065 171.076 235.84 173.307 226.048 173.307C214.519 173.307 203.808 170.208 196.722 164.9C196.041 164.39 195.383 163.849 194.752 163.278Z" fill="#4A6C80"/>
<path d="M194.752 204.795L199.351 209.879C199.808 209.463 200.306 209.056 200.837 208.658C206.647 204.306 215.922 201.618 226.048 201.618C234.693 201.618 242.743 203.57 248.59 206.912C249.998 207.716 251.25 208.59 252.334 209.518L256.786 204.302C255.297 203.042 253.693 201.925 251.995 200.964C245.065 196.996 235.84 194.766 226.048 194.766C214.519 194.766 203.808 197.865 196.722 203.172C196.041 203.683 195.383 204.224 194.752 204.795Z" fill="#4A6C80"/>
<path d="M186.286 187.429V180.571H261.714V187.429H186.286Z" fill="#4A6C80"/>
</g>
</svg>
