<svg width="48" height="48" viewBox="0 0 48 48" fill="none" xmlns="http://www.w3.org/2000/svg">
<g id="icon-notf">
<circle id="fundo" cx="24" cy="24" r="24" fill="black" fill-opacity="0.05"/>
<path id="sino" d="M34.5714 31.4286V32.5714H14V31.4286L16.2857 29.1429V22.2857C16.2857 18.7429 18.6057 15.6229 22 14.6171C22 14.5029 22 14.4 22 14.2857C22 13.6795 22.2408 13.0981 22.6695 12.6695C23.0981 12.2408 23.6795 12 24.2857 12C24.8919 12 25.4733 12.2408 25.902 12.6695C26.3306 13.0981 26.5714 13.6795 26.5714 14.2857C26.5714 14.4 26.5714 14.5029 26.5714 14.6171C29.9657 15.6229 32.2857 18.7429 32.2857 22.2857V29.1429L34.5714 31.4286ZM26.5714 33.7143C26.5714 34.3205 26.3306 34.9019 25.902 35.3305C25.4733 35.7592 24.8919 36 24.2857 36C23.6795 36 23.0981 35.7592 22.6695 35.3305C22.2408 34.9019 22 34.3205 22 33.7143" fill="#00A2FF"/>
</g>
</svg>
