<?xml version="1.0" encoding="utf-8"?>
<!-- Generator: Adobe Illustrator 16.0.3, SVG Export Plug-In . SVG Version: 6.00 Build 0)  -->
<!DOCTYPE svg PUBLIC "-//W3C//DTD SVG 1.1//EN" "http://www.w3.org/Graphics/SVG/1.1/DTD/svg11.dtd">
<svg version="1.1" id="Camada_1" xmlns="http://www.w3.org/2000/svg" xmlns:xlink="http://www.w3.org/1999/xlink" x="0px" y="0px"
	 width="14px" height="14px" viewBox="1 1 14 14" enable-background="new 1 1 14 14" xml:space="preserve">
<g>
	<path fill="#FFFFFF" d="M11.925,6.363c0,0.015,0.001,0.029,0,0.043c-0.023,0.183-0.031,0.37-0.076,0.547
		c-0.038,0.147-0.111,0.286-0.183,0.422c-0.146,0.281-0.341,0.526-0.576,0.739c-0.306,0.275-0.651,0.486-1.021,0.661
		c-0.322,0.152-0.657,0.268-1,0.359C8.69,9.239,8.307,9.315,7.917,9.352C7.558,9.384,7.2,9.418,6.839,9.401
		c-0.456-0.021-0.912-0.02-1.363-0.088C5.279,9.285,5.081,9.265,4.885,9.227C4.583,9.17,4.282,9.1,3.982,9.034
		C3.833,9,3.688,8.963,3.541,8.925c-0.215-0.058-0.428-0.116-0.644-0.17C2.829,8.737,2.811,8.756,2.834,8.82
		C2.897,8.996,2.96,9.172,3.026,9.346c0.045,0.119,0.089,0.238,0.136,0.356c0.05,0.13,0.101,0.26,0.149,0.39
		c0.064,0.168,0.126,0.334,0.189,0.502c0.078,0.207,0.159,0.415,0.239,0.621c0.063,0.167,0.126,0.331,0.189,0.496
		c0.064,0.165,0.125,0.332,0.188,0.497c0.064,0.17,0.126,0.341,0.19,0.511c0.063,0.168,0.128,0.335,0.192,0.502
		c0.065,0.171,0.13,0.34,0.194,0.51c0.065,0.171,0.129,0.341,0.193,0.509c0.059,0.156,0.115,0.313,0.179,0.465
		c0.01,0.022,0.057,0.048,0.083,0.044c0.153-0.021,0.304-0.052,0.455-0.081c0.171-0.034,0.342-0.069,0.514-0.106
		c0.21-0.045,0.422-0.087,0.631-0.137c0.188-0.045,0.374-0.099,0.56-0.151c0.159-0.045,0.317-0.094,0.474-0.142
		c0.146-0.048,0.29-0.101,0.435-0.151c0.173-0.062,0.351-0.114,0.52-0.188c0.298-0.13,0.595-0.262,0.885-0.409
		c0.306-0.155,0.607-0.32,0.898-0.501c0.398-0.246,0.77-0.531,1.12-0.847c0.434-0.389,0.813-0.822,1.124-1.318
		c0.219-0.35,0.397-0.719,0.55-1.103c0.052-0.132,0.075-0.276,0.134-0.403c0.076-0.164,0.081-0.34,0.108-0.508
		c0.037-0.216,0.028-0.442,0.032-0.66c0.001-0.1-0.01-0.199-0.021-0.297c-0.013-0.09-0.032-0.18-0.053-0.269
		c-0.05-0.226-0.09-0.455-0.158-0.675c-0.06-0.193-0.147-0.378-0.23-0.563c-0.135-0.3-0.305-0.584-0.508-0.841
		c-0.229-0.29-0.475-0.568-0.719-0.843c-0.094-0.104-0.175-0.227-0.319-0.275c-0.069-0.023-0.126,0.002-0.116,0.075
		c0.013,0.115,0.024,0.231,0.061,0.341c0.089,0.277,0.197,0.547,0.286,0.824C11.899,5.79,11.932,6.075,11.925,6.363z M6.283,5.084
		c0.008,0,0.016-0.001,0.023-0.001c0-0.147-0.01-0.294,0.003-0.44c0.014-0.167,0.039-0.335,0.078-0.498
		c0.044-0.181,0.118-0.352,0.217-0.512C6.708,3.464,6.826,3.307,6.985,3.19c0.23-0.171,0.492-0.279,0.764-0.363
		c0.3-0.091,0.608-0.135,0.917-0.145C9.09,2.667,9.513,2.683,9.932,2.742c0.293,0.04,0.588,0.081,0.883,0.106
		c0.1,0.01,0.204-0.023,0.306-0.044c0.042-0.009,0.076-0.05,0.047-0.092C11.131,2.658,11.09,2.6,11.034,2.568
		c-0.101-0.059-0.212-0.102-0.322-0.15c-0.286-0.128-0.57-0.265-0.862-0.377C9.562,1.93,9.264,1.842,8.969,1.746
		C8.553,1.608,8.125,1.521,7.693,1.458C7.267,1.396,6.836,1.366,6.405,1.382C6.324,1.386,6.241,1.375,6.164,1.389
		c-0.25,0.042-0.499,0.092-0.747,0.145C5.096,1.601,4.792,1.718,4.503,1.875C4.145,2.07,3.827,2.318,3.563,2.631
		C3.344,2.888,3.163,3.169,3.01,3.471c-0.118,0.233-0.216,0.47-0.286,0.723C2.645,4.485,2.591,4.778,2.558,5.079
		C2.499,5.604,2.511,6.13,2.551,6.656c0.013,0.162,0.041,0.325,0.064,0.485c0.029,0.188,0.058,0.375,0.092,0.561
		C2.74,7.883,2.784,8.062,2.819,8.243c0.023,0.121,0.066,0.172,0.175,0.192c0.26,0.045,0.521,0.089,0.782,0.136
		c0.273,0.049,0.545,0.1,0.818,0.146C4.896,8.771,5.2,8.824,5.501,8.877C5.692,8.91,5.882,8.944,6.073,8.979
		c0.341,0.063,0.681,0.125,1.021,0.186c0.061,0.011,0.124,0.015,0.184,0.018c0.075,0.002,0.1-0.032,0.076-0.103
		C7.341,9.038,7.318,8.998,7.303,8.957C7.25,8.813,7.199,8.667,7.145,8.524C7.084,8.37,7.015,8.22,6.958,8.065
		c-0.074-0.199-0.146-0.4-0.207-0.604C6.673,7.211,6.596,6.96,6.536,6.703C6.468,6.411,6.41,6.116,6.364,5.818
		C6.325,5.576,6.309,5.329,6.283,5.084z M11.109,6.087c-0.021-0.101-0.049-0.253-0.087-0.404c-0.061-0.237-0.184-0.447-0.331-0.638
		c-0.385-0.5-0.881-0.853-1.484-1.049C8.917,3.905,8.619,3.839,8.313,3.88C8.145,3.904,7.969,3.924,7.816,3.99
		C7.483,4.133,7.204,4.348,7.061,4.7c-0.065,0.16-0.113,0.325-0.12,0.5C6.933,5.485,7.004,5.754,7.112,6.013
		c0.146,0.359,0.397,0.643,0.686,0.893c0.204,0.177,0.428,0.327,0.679,0.432c0.14,0.058,0.28,0.115,0.426,0.155
		c0.255,0.068,0.514,0.102,0.78,0.074c0.261-0.026,0.504-0.097,0.733-0.223c0.213-0.119,0.386-0.281,0.506-0.494
		C11.049,6.631,11.087,6.39,11.109,6.087z"/>
	<path fill="#C75000" d="M11.925,6.363c0.007-0.288-0.025-0.573-0.116-0.849c-0.088-0.276-0.196-0.546-0.287-0.823
		c-0.034-0.108-0.048-0.226-0.06-0.341c-0.009-0.072,0.048-0.097,0.116-0.075c0.146,0.048,0.227,0.171,0.319,0.275
		c0.245,0.275,0.49,0.554,0.719,0.843c0.203,0.257,0.372,0.542,0.508,0.841c0.083,0.186,0.172,0.37,0.23,0.563
		c0.068,0.22,0.108,0.449,0.158,0.675c0.02,0.089,0.04,0.179,0.052,0.27c0.014,0.097,0.023,0.197,0.022,0.297
		c-0.004,0.22,0.005,0.444-0.031,0.66c-0.027,0.169-0.034,0.346-0.11,0.508c-0.057,0.127-0.081,0.271-0.134,0.404
		c-0.152,0.383-0.329,0.752-0.548,1.103c-0.311,0.495-0.692,0.929-1.124,1.317c-0.353,0.315-0.724,0.602-1.122,0.848
		c-0.291,0.18-0.594,0.345-0.898,0.5c-0.288,0.147-0.588,0.279-0.886,0.409c-0.17,0.074-0.346,0.126-0.519,0.188
		c-0.145,0.051-0.289,0.102-0.434,0.15c-0.157,0.05-0.316,0.097-0.475,0.142c-0.187,0.053-0.372,0.106-0.56,0.152
		c-0.209,0.05-0.421,0.093-0.631,0.136c-0.171,0.037-0.343,0.073-0.514,0.104c-0.15,0.031-0.301,0.06-0.454,0.083
		c-0.027,0.004-0.074-0.02-0.084-0.045C5,14.547,4.943,14.392,4.885,14.237c-0.064-0.17-0.129-0.339-0.194-0.511
		c-0.064-0.169-0.13-0.339-0.194-0.509c-0.063-0.168-0.129-0.334-0.192-0.502c-0.063-0.171-0.125-0.342-0.19-0.512
		c-0.062-0.165-0.125-0.331-0.188-0.497c-0.063-0.165-0.126-0.329-0.189-0.496c-0.08-0.206-0.16-0.414-0.239-0.62
		c-0.063-0.167-0.126-0.335-0.189-0.503C3.261,9.96,3.209,9.83,3.161,9.7c-0.045-0.116-0.09-0.235-0.135-0.354
		C2.961,9.172,2.897,8.996,2.834,8.82C2.811,8.756,2.829,8.737,2.897,8.755c0.216,0.054,0.43,0.113,0.645,0.17
		c0.146,0.039,0.292,0.077,0.441,0.109c0.3,0.066,0.601,0.136,0.902,0.194c0.196,0.038,0.394,0.059,0.591,0.087
		c0.451,0.066,0.907,0.065,1.362,0.086C7.2,9.418,7.558,9.384,7.916,9.352c0.39-0.038,0.774-0.112,1.15-0.217
		c0.345-0.093,0.678-0.207,1-0.359c0.371-0.175,0.716-0.386,1.021-0.661c0.235-0.212,0.43-0.458,0.576-0.739
		c0.071-0.136,0.145-0.275,0.183-0.422c0.045-0.177,0.053-0.364,0.075-0.547C11.927,6.392,11.925,6.378,11.925,6.363z"/>
	<path fill="#C75000" d="M6.283,5.084C6.309,5.33,6.325,5.576,6.364,5.818C6.41,6.116,6.468,6.411,6.537,6.703
		C6.596,6.959,6.674,7.21,6.751,7.462c0.062,0.203,0.134,0.404,0.207,0.604C7.015,8.22,7.084,8.37,7.145,8.524
		C7.2,8.667,7.25,8.813,7.303,8.957c0.016,0.041,0.038,0.081,0.052,0.122c0.023,0.07,0,0.104-0.076,0.103
		C7.218,9.179,7.155,9.175,7.095,9.164c-0.341-0.061-0.68-0.122-1.021-0.186C5.882,8.944,5.692,8.91,5.501,8.877
		C5.2,8.824,4.896,8.773,4.594,8.718C4.321,8.671,4.049,8.62,3.776,8.571C3.515,8.524,3.254,8.48,2.993,8.436
		c-0.11-0.02-0.153-0.071-0.175-0.192C2.784,8.063,2.739,7.884,2.706,7.702C2.672,7.516,2.643,7.329,2.614,7.142
		C2.591,6.981,2.563,6.818,2.55,6.656C2.511,6.13,2.498,5.604,2.557,5.079c0.034-0.301,0.088-0.595,0.167-0.886
		c0.07-0.252,0.168-0.49,0.286-0.723c0.153-0.302,0.334-0.582,0.553-0.84C3.827,2.318,4.145,2.07,4.503,1.875
		c0.289-0.157,0.592-0.274,0.914-0.342C5.666,1.48,5.915,1.432,6.164,1.388c0.077-0.013,0.16-0.002,0.24-0.006
		c0.432-0.017,0.862,0.014,1.289,0.076c0.432,0.063,0.86,0.15,1.275,0.287C9.262,1.841,9.56,1.929,9.849,2.04
		c0.293,0.112,0.577,0.25,0.863,0.377c0.109,0.048,0.221,0.09,0.322,0.15c0.055,0.031,0.096,0.09,0.133,0.144
		c0.028,0.043-0.005,0.083-0.047,0.092c-0.102,0.02-0.208,0.054-0.306,0.044c-0.295-0.025-0.59-0.066-0.883-0.107
		c-0.419-0.06-0.842-0.075-1.265-0.06C8.359,2.692,8.051,2.734,7.75,2.826C7.478,2.909,7.216,3.017,6.987,3.189
		c-0.16,0.117-0.277,0.275-0.381,0.443c-0.1,0.16-0.173,0.332-0.218,0.512C6.349,4.308,6.324,4.476,6.31,4.643
		c-0.013,0.146-0.003,0.293-0.003,0.44C6.299,5.083,6.292,5.083,6.283,5.084z"/>
	<path fill="#C75000" d="M11.109,6.087c-0.023,0.302-0.062,0.543-0.186,0.763c-0.122,0.213-0.294,0.375-0.507,0.494
		C10.188,7.47,9.943,7.54,9.685,7.567C9.416,7.595,9.159,7.562,8.902,7.493C8.757,7.454,8.616,7.396,8.477,7.338
		c-0.25-0.104-0.475-0.255-0.679-0.432c-0.289-0.25-0.54-0.534-0.686-0.893C7.006,5.754,6.933,5.485,6.941,5.201
		C6.947,5.025,6.996,4.86,7.06,4.7c0.143-0.353,0.422-0.567,0.755-0.71c0.154-0.065,0.33-0.086,0.498-0.109
		c0.306-0.042,0.604,0.024,0.894,0.117c0.604,0.196,1.1,0.549,1.484,1.049c0.147,0.191,0.271,0.401,0.331,0.638
		C11.061,5.834,11.088,5.987,11.109,6.087z"/>
</g>
</svg>
