<?xml version="1.0" encoding="utf-8"?>
<!-- Generator: Adobe Illustrator 16.0.0, SVG Export Plug-In . SVG Version: 6.00 Build 0)  -->
<!DOCTYPE svg PUBLIC "-//W3C//DTD SVG 1.1//EN" "http://www.w3.org/Graphics/SVG/1.1/DTD/svg11.dtd">
<svg version="1.1" id="Camada_1" xmlns="http://www.w3.org/2000/svg" xmlns:xlink="http://www.w3.org/1999/xlink" x="0px" y="0px"
	 width="313.916px" height="236.448px" viewBox="0 0 313.916 236.448" preserveAspectRatio="xMidYMid meet" enable-background="new 0 0 313.916 236.448"
	 xml:space="preserve">
<g>
	<g>
		<g>
			<g>
				<g>
					<path fill="#FFFFFF" d="M26.566,117.107c1.07,0.933,2.383,1.886,3.965,2.817c1.557,0.936,3.307,1.787,5.254,2.534
						c1.921,0.773,4.02,1.38,6.25,1.841c2.261,0.454,4.582,0.705,6.981,0.705c4.937,0,8.76-0.876,11.498-2.599
						c2.722-1.741,4.091-4.124,4.091-7.193c0-1.84-0.446-3.386-1.37-4.685c-0.916-1.271-2.179-2.43-3.787-3.45
						c-1.603-1.013-3.521-1.937-5.683-2.782c-2.189-0.837-4.551-1.698-7.067-2.588c-5.071-1.851-9.249-3.664-12.564-5.478
						c-3.325-1.813-5.967-3.788-7.932-5.94c-1.947-2.143-3.334-4.544-4.137-7.201c-0.78-2.684-1.173-5.762-1.173-9.28
						c0-3.7,0.749-7.123,2.261-10.245c1.511-3.102,3.625-5.804,6.374-8.062c2.712-2.278,5.967-4.03,9.746-5.293
						c3.75-1.262,7.876-1.885,12.384-1.885c4.357,0,8.189,0.417,11.479,1.271c3.316,0.845,6.169,1.857,8.572,3.041
						c2.401,1.183,4.4,2.381,5.957,3.628c1.563,1.243,2.816,2.24,3.759,3.014l-7.699,11.79c-0.704-0.702-1.734-1.486-3.148-2.391
						c-1.412-0.898-3.05-1.753-4.925-2.572c-1.875-0.799-3.893-1.49-6.063-2.044c-2.158-0.551-4.295-0.818-6.411-0.818
						c-2.205,0-4.135,0.229-5.816,0.73c-1.678,0.479-3.066,1.156-4.186,1.992c-1.111,0.817-1.956,1.83-2.536,2.969
						c-0.577,1.138-0.871,2.364-0.871,3.664c0,1.599,0.365,2.968,1.073,4.097c0.717,1.132,1.8,2.181,3.257,3.131
						c1.441,0.935,3.29,1.851,5.512,2.748c2.279,0.899,4.911,1.902,7.968,3.006c4.561,1.625,8.473,3.342,11.738,5.101
						c3.27,1.782,5.946,3.809,8.045,6.066c2.108,2.259,3.672,4.836,4.65,7.706c0.987,2.882,1.495,6.217,1.495,10.007
						c0,3.429-0.758,6.685-2.268,9.76c-1.505,3.093-3.665,5.779-6.475,8.109c-2.818,2.348-6.232,4.178-10.269,5.549
						c-4.043,1.351-8.606,2.047-13.647,2.047c-3.938,0-7.604-0.364-10.98-1.071c-3.38-0.711-6.394-1.606-9.069-2.682
						c-2.695-1.077-5.051-2.276-7.068-3.559c-2.018-1.28-3.672-2.488-4.99-3.644L26.566,117.107z"/>
					<path fill="#FFFFFF" d="M148.449,100.055h-31.797v23.668h38.164v14.91H97.627V49.604h56.58v14.902h-37.555v20.617h31.797
						V100.055z"/>
					<path fill="#FFFFFF" d="M211.14,120.539h-25.758l-4.871,18.094h-19.208l26.907-89.028h20.168l26.919,89.028h-19.204
						L211.14,120.539z M189.427,105.61h17.676l-8.683-32.889h-0.358L189.427,105.61z"/>
					<path fill="#FFFFFF" d="M246.29,138.633V49.604h28.316c6.075,0,11.453,1.031,16.093,3.086
						c4.649,2.055,8.555,4.934,11.685,8.615c3.14,3.698,5.494,8.091,7.084,13.212c1.586,5.121,2.403,10.722,2.403,16.788v5.689
						c0,6.35-0.871,12.103-2.543,17.238c-1.708,5.149-4.153,9.525-7.345,13.117c-3.192,3.626-7.096,6.393-11.719,8.358
						c-4.596,1.946-9.813,2.924-15.658,2.924H246.29z M265.316,64.507v59.216h6.829c2.754,0,5.211-0.328,7.298-0.987
						c2.109-0.648,3.938-1.563,5.471-2.729c1.519-1.193,2.808-2.604,3.838-4.252c1.015-1.65,1.815-3.466,2.438-5.438
						c0.612-1.974,1.033-4.103,1.29-6.367c0.239-2.258,0.365-4.587,0.365-6.99v-5.798c0-3.91-0.322-7.504-0.971-10.756
						c-0.669-3.255-1.785-6.046-3.385-8.394c-1.587-2.347-3.721-4.182-6.366-5.505c-2.669-1.315-6.008-2-9.978-2H265.316z"/>
				</g>
			</g>
			<path fill="#FFFFFF" d="M104.329,17.452C90.551,6.643,72.163,0.026,51.995,0C31.801-0.026,14.386,7.362,0.578,18.13l4.863,4.162
				C17.852,12.262,34.639,6.128,53.096,6.154c17.891,0.026,34.189,5.85,46.46,15.37L104.329,17.452z"/>
			<path fill="#FFFFFF" d="M18.715,33.672c8.971-6.99,20.93-11.239,34.046-11.212c12.714,0.008,24.318,4.045,33.155,10.66
				l4.925-4.188C80.51,21.064,66.898,16.28,51.976,16.263C37.05,16.228,23.41,20.985,13.053,28.835"/>
			<path fill="#FFFFFF" d="M31.429,44.572c5.673-4.074,12.989-6.508,20.975-6.489c7.755,0,14.851,2.327,20.414,6.194l5.122-4.347
				c-6.881-4.97-15.817-7.976-25.519-7.992c-9.975-0.01-19.08,3.102-26.052,8.276L31.429,44.572z"/>
		</g>
		<g>
			<path fill="#FFFFFF" d="M149.429,165.334v47.522c0,4.064-0.706,7.64-2.074,10.687c-1.35,3.07-3.229,5.631-5.583,7.692
				c-2.394,2.081-5.15,3.627-8.322,4.659c-3.194,1.049-6.592,1.566-10.209,1.566c-3.85,0-7.397-0.533-10.625-1.637
				c-3.217-1.085-6.009-2.687-8.322-4.776c-2.305-2.105-4.105-4.685-5.405-7.744c-1.298-3.058-1.946-6.554-1.946-10.447v-47.522
				h14.918v47.479c0,4.358,0.979,7.577,2.933,9.639c1.983,2.069,4.794,3.093,8.428,3.093c3.683,0,6.494-1.014,8.415-3.021
				c1.921-2.009,2.888-5.247,2.888-9.71v-47.479H149.429z"/>
			<path fill="#FFFFFF" d="M201.627,207.38h-23.863v29.068h-14.911v-71.114h43.798v11.915h-28.887v18.206h23.863V207.38z"/>
			<path fill="#FFFFFF" d="M254.949,205.612h-24.913v18.909h29.893v11.927h-44.795v-71.114h44.314v11.915h-29.412v16.464h24.913
				V205.612z"/>
			<path fill="#FFFFFF" d="M271.967,219.784c0.869,0.746,1.917,1.467,3.163,2.169c1.253,0.704,2.579,1.334,4.001,1.867
				c1.414,0.534,2.89,0.944,4.386,1.264c1.5,0.303,2.96,0.461,4.364,0.461c1.549,0,2.996-0.188,4.278-0.541
				c1.286-0.357,2.397-0.865,3.316-1.529c0.941-0.668,1.653-1.469,2.178-2.448c0.522-0.959,0.754-2.063,0.754-3.288
				c0-1.459-0.231-2.719-0.799-3.743c-0.552-1.022-1.345-1.946-2.395-2.764c-1.059-0.801-2.352-1.547-3.881-2.224
				c-1.551-0.657-3.294-1.352-5.274-2.062c-3.974-1.479-7.158-2.989-9.573-4.571c-2.439-1.584-4.305-3.278-5.63-5.085
				c-1.351-1.797-2.232-3.752-2.677-5.834c-0.444-2.07-0.667-4.348-0.667-6.793c0-2.97,0.558-5.681,1.725-8.178
				c1.128-2.49,2.73-4.634,4.732-6.438c2.006-1.815,4.4-3.22,7.12-4.231c2.718-1.004,5.69-1.513,8.846-1.513
				c2.934,0,5.594,0.302,7.923,0.926c2.375,0.603,4.445,1.367,6.233,2.239c1.805,0.87,3.325,1.777,4.56,2.703
				c1.229,0.913,2.205,1.689,2.933,2.312l-6.008,9.404c-2.348-1.893-4.72-3.307-7.187-4.257c-2.434-0.932-4.854-1.404-7.254-1.404
				c-1.369,0-2.614,0.188-3.683,0.576c-1.09,0.392-2.022,0.919-2.788,1.584c-0.774,0.676-1.337,1.468-1.752,2.385
				c-0.393,0.903-0.597,1.893-0.597,2.931c0,1.265,0.197,2.368,0.576,3.239c0.375,0.907,1.043,1.725,1.966,2.479
				c0.934,0.758,2.177,1.479,3.771,2.18c1.558,0.691,3.547,1.481,5.964,2.365c3.583,1.299,6.537,2.737,8.937,4.303
				c2.366,1.565,4.288,3.289,5.736,5.201c1.429,1.893,2.445,3.992,3.046,6.25c0.605,2.258,0.919,4.732,0.919,7.424
				c0,2.729-0.578,5.319-1.716,7.78c-1.129,2.473-2.738,4.626-4.819,6.481c-2.118,1.858-4.622,3.335-7.549,4.42
				c-2.942,1.104-6.233,1.637-9.844,1.637c-2.577,0-5.075-0.25-7.443-0.748c-2.381-0.517-4.594-1.157-6.639-1.947
				c-2.037-0.801-3.868-1.69-5.467-2.678c-1.594-0.959-2.9-1.918-3.924-2.826L271.967,219.784z"/>
		</g>
	</g>
</g>
</svg>
