<svg xmlns="http://www.w3.org/2000/svg" viewBox="0 0 730 444.92"><title>fig-2-1</title><g id="fig-2-1"><g id="preto"><rect x="101.27" y="82.7" width="600.42" height="1" style="fill:#1d1d1b"/><rect x="101.27" y="127.63" width="600.42" height="1" style="fill:#1d1d1b"/><rect x="101.27" y="172.57" width="600.42" height="1" style="fill:#1d1d1b"/><rect x="101.27" y="217.51" width="600.42" height="1" style="fill:#1d1d1b"/><rect x="101.27" y="262.44" width="600.42" height="1" style="fill:#1d1d1b"/><rect x="101.27" y="307.6" width="600.42" height="0.57" style="fill:#1d1d1b"/><rect x="101.27" y="352.53" width="600.42" height="0.57" style="fill:#1d1d1b"/><rect x="105.51" y="83.15" width="1" height="274.16" style="fill:#1d1d1b"/><rect x="165.29" y="307.88" width="0.57" height="49.43" style="fill:#1d1d1b"/><rect x="224.86" y="307.88" width="0.57" height="49.43" style="fill:#1d1d1b"/><rect x="284.43" y="307.88" width="0.57" height="49.43" style="fill:#1d1d1b"/><rect x="344" y="307.88" width="0.57" height="49.43" style="fill:#1d1d1b"/><rect x="403.56" y="307.88" width="0.57" height="49.43" style="fill:#1d1d1b"/><rect x="463.13" y="307.88" width="0.57" height="49.43" style="fill:#1d1d1b"/><rect x="522.7" y="307.88" width="0.57" height="49.43" style="fill:#1d1d1b"/><rect x="582.26" y="307.88" width="0.57" height="49.43" style="fill:#1d1d1b"/><rect x="641.83" y="307.88" width="0.57" height="49.43" style="fill:#1d1d1b"/><rect x="701.4" y="307.88" width="0.57" height="49.43" style="fill:#1d1d1b"/><path d="M153.56,368.77a3.44,3.44,0,0,1,1,2.54,5.6,5.6,0,0,1-.55,2.46,11.74,11.74,0,0,1-1.7,2.52c-.78.92-2,2.28-3.74,4.1h6.35l-.16,1h-7.57v-1c1.85-2,3.17-3.42,4-4.37a12.23,12.23,0,0,0,1.69-2.46,5.13,5.13,0,0,0,.5-2.23,2.57,2.57,0,0,0-.7-1.9,2.46,2.46,0,0,0-1.84-.7,3.41,3.41,0,0,0-1.65.38,4.77,4.77,0,0,0-1.36,1.15l-.81-.61a5.44,5.44,0,0,1,1.75-1.45,4.7,4.7,0,0,1,2.13-.46A3.66,3.66,0,0,1,153.56,368.77Z" style="fill:#1d1d1b"/><path d="M164.68,369.54a10.08,10.08,0,0,1,1.07,5.18,10,10,0,0,1-1.08,5.15,3.67,3.67,0,0,1-6.28,0,13,13,0,0,1,0-10.34,3.7,3.7,0,0,1,6.29,0Zm-6.15,5.16q0,6,3,6a2.42,2.42,0,0,0,2.23-1.45,13.91,13.91,0,0,0,0-9,2.4,2.4,0,0,0-2.23-1.46Q158.53,368.75,158.53,374.7Z" style="fill:#1d1d1b"/><path d="M175.19,369.54a10.08,10.08,0,0,1,1.07,5.18,10,10,0,0,1-1.08,5.15,3.67,3.67,0,0,1-6.28,0,13,13,0,0,1,0-10.34,3.7,3.7,0,0,1,6.29,0ZM169,374.7q0,6,3,6a2.42,2.42,0,0,0,2.23-1.45,13.91,13.91,0,0,0,0-9,2.4,2.4,0,0,0-2.23-1.46Q169,368.75,169,374.7Z" style="fill:#1d1d1b"/><path d="M183.48,368v13.42h-1.17V369.29l-3.3,2.06-.55-.87,4-2.48Z" style="fill:#1d1d1b"/><path d="M93.73,368.77a3.44,3.44,0,0,1,1,2.54,5.75,5.75,0,0,1-.55,2.46,11.74,11.74,0,0,1-1.7,2.52c-.78.92-2,2.28-3.75,4.1h6.36l-.16,1H87.36v-1c1.85-2,3.17-3.42,4-4.37A12.23,12.23,0,0,0,93,373.6a5.13,5.13,0,0,0,.5-2.23,2.62,2.62,0,0,0-.7-1.9,2.47,2.47,0,0,0-1.85-.7,3.37,3.37,0,0,0-1.64.38A4.77,4.77,0,0,0,88,370.3l-.81-.61a5.44,5.44,0,0,1,1.75-1.45,4.69,4.69,0,0,1,2.12-.46A3.68,3.68,0,0,1,93.73,368.77Z" style="fill:#1d1d1b"/><path d="M104.85,369.54a10.08,10.08,0,0,1,1.07,5.18,10,10,0,0,1-1.08,5.15,3.67,3.67,0,0,1-6.28,0,13,13,0,0,1,0-10.34,3.7,3.7,0,0,1,6.29,0ZM98.7,374.7q0,6,3,6a2.4,2.4,0,0,0,2.22-1.45,13.73,13.73,0,0,0,0-9,2.37,2.37,0,0,0-2.22-1.46Q98.7,368.75,98.7,374.7Z" style="fill:#1d1d1b"/><path d="M116,369.54a10.19,10.19,0,0,1,1.07,5.18,10,10,0,0,1-1.08,5.15,3.68,3.68,0,0,1-6.29,0,13,13,0,0,1,0-10.34,3.7,3.7,0,0,1,6.3,0Zm-6.16,5.16c0,4,1,6,3,6a2.42,2.42,0,0,0,2.23-1.45,13.73,13.73,0,0,0,0-9,2.4,2.4,0,0,0-2.23-1.46C110.8,368.75,109.79,370.73,109.79,374.7Z" style="fill:#1d1d1b"/><path d="M127,369.54a10.19,10.19,0,0,1,1.07,5.18,10,10,0,0,1-1.08,5.15,3.67,3.67,0,0,1-6.28,0,13,13,0,0,1,0-10.34,3.7,3.7,0,0,1,6.29,0Zm-6.15,5.16q0,6,3,6a2.4,2.4,0,0,0,2.22-1.45,13.73,13.73,0,0,0,0-9,2.37,2.37,0,0,0-2.22-1.46Q120.89,368.75,120.89,374.7Z" style="fill:#1d1d1b"/><path d="M212.65,368.77a3.43,3.43,0,0,1,1,2.54,5.74,5.74,0,0,1-.54,2.46,11.46,11.46,0,0,1-1.71,2.52c-.77.92-2,2.28-3.74,4.1H214l-.16,1h-7.57v-1c1.84-2,3.16-3.42,4-4.37a12.67,12.67,0,0,0,1.69-2.46,5.12,5.12,0,0,0,.49-2.23,2.61,2.61,0,0,0-.69-1.9,2.49,2.49,0,0,0-1.85-.7,3.37,3.37,0,0,0-1.64.38,4.77,4.77,0,0,0-1.36,1.15l-.81-.61a5.52,5.52,0,0,1,1.74-1.45,4.76,4.76,0,0,1,2.13-.46A3.68,3.68,0,0,1,212.65,368.77Z" style="fill:#1d1d1b"/><path d="M223.77,369.54a10.19,10.19,0,0,1,1.07,5.18,10,10,0,0,1-1.08,5.15,3.67,3.67,0,0,1-6.28,0,13,13,0,0,1,0-10.34,3.7,3.7,0,0,1,6.29,0Zm-6.15,5.16q0,6,3,6a2.41,2.41,0,0,0,2.23-1.45,13.73,13.73,0,0,0,0-9,2.39,2.39,0,0,0-2.23-1.46Q217.62,368.75,217.62,374.7Z" style="fill:#1d1d1b"/><path d="M234.28,369.54a10.19,10.19,0,0,1,1.07,5.18,10,10,0,0,1-1.08,5.15,3.68,3.68,0,0,1-6.29,0,13.14,13.14,0,0,1,0-10.34,3.7,3.7,0,0,1,6.3,0Zm-6.15,5.16q0,6,3,6a2.41,2.41,0,0,0,2.23-1.45,13.73,13.73,0,0,0,0-9,2.39,2.39,0,0,0-2.23-1.46Q228.13,368.75,228.13,374.7Z" style="fill:#1d1d1b"/><path d="M243.91,368.77a3.4,3.4,0,0,1,1,2.54,5.6,5.6,0,0,1-.55,2.46,11.74,11.74,0,0,1-1.7,2.52c-.77.92-2,2.28-3.74,4.1h6.35l-.16,1h-7.56v-1c1.84-2,3.16-3.42,4-4.37a11.82,11.82,0,0,0,1.69-2.46,5.13,5.13,0,0,0,.5-2.23,2.57,2.57,0,0,0-.7-1.9,2.46,2.46,0,0,0-1.84-.7,3.41,3.41,0,0,0-1.65.38,4.9,4.9,0,0,0-1.36,1.15l-.81-.61a5.44,5.44,0,0,1,1.75-1.45,4.7,4.7,0,0,1,2.13-.46A3.66,3.66,0,0,1,243.91,368.77Z" style="fill:#1d1d1b"/><path d="M272.09,368.77a3.4,3.4,0,0,1,1,2.54,5.74,5.74,0,0,1-.54,2.46,11.46,11.46,0,0,1-1.71,2.52c-.77.92-2,2.28-3.74,4.1h6.36l-.17,1h-7.56v-1c1.84-2,3.16-3.42,4-4.37a12.34,12.34,0,0,0,1.7-2.46,5.12,5.12,0,0,0,.49-2.23,2.61,2.61,0,0,0-.69-1.9,2.49,2.49,0,0,0-1.85-.7,3.34,3.34,0,0,0-1.64.38,4.77,4.77,0,0,0-1.36,1.15l-.81-.61a5.52,5.52,0,0,1,1.74-1.45,4.76,4.76,0,0,1,2.13-.46A3.64,3.64,0,0,1,272.09,368.77Z" style="fill:#1d1d1b"/><path d="M283.22,369.54a10.19,10.19,0,0,1,1.07,5.18,10,10,0,0,1-1.08,5.15,3.67,3.67,0,0,1-6.28,0,13,13,0,0,1,0-10.34,3.7,3.7,0,0,1,6.29,0Zm-6.15,5.16q0,6,3,6a2.41,2.41,0,0,0,2.23-1.45,13.73,13.73,0,0,0,0-9,2.39,2.39,0,0,0-2.23-1.46Q277.07,368.75,277.07,374.7Z" style="fill:#1d1d1b"/><path d="M294.31,369.54a10.08,10.08,0,0,1,1.07,5.18,10,10,0,0,1-1.08,5.15,3.67,3.67,0,0,1-6.28,0,13,13,0,0,1,0-10.34,3.7,3.7,0,0,1,6.29,0Zm-6.15,5.16q0,6,3,6a2.42,2.42,0,0,0,2.23-1.45,13.91,13.91,0,0,0,0-9,2.4,2.4,0,0,0-2.23-1.46Q288.16,368.75,288.16,374.7Z" style="fill:#1d1d1b"/><path d="M303.14,368.22a3.16,3.16,0,0,1,1.28,1.2,3.3,3.3,0,0,1,.44,1.71,3.08,3.08,0,0,1-.73,2.13,3.22,3.22,0,0,1-1.91,1,3.13,3.13,0,0,1,2.17.94,3.32,3.32,0,0,1,.86,2.41,4.07,4.07,0,0,1-.53,2.08,3.61,3.61,0,0,1-1.5,1.42,4.67,4.67,0,0,1-2.25.52,4.88,4.88,0,0,1-3.85-1.74l.74-.66a4.77,4.77,0,0,0,1.43,1.08,4,4,0,0,0,1.64.33,3.08,3.08,0,0,0,2.28-.83,3,3,0,0,0,.83-2.18q0-2.82-3-2.82h-.89l.17-.95h.64a2.87,2.87,0,0,0,2-.7,2.45,2.45,0,0,0,.8-2,2.31,2.31,0,0,0-.7-1.77,2.69,2.69,0,0,0-1.88-.65,3.93,3.93,0,0,0-1.55.29,4.72,4.72,0,0,0-1.43,1l-.63-.73a5.64,5.64,0,0,1,1.7-1.14,5,5,0,0,1,2-.37A4.21,4.21,0,0,1,303.14,368.22Z" style="fill:#1d1d1b"/><path d="M331.93,368.77a3.43,3.43,0,0,1,1,2.54,5.74,5.74,0,0,1-.54,2.46,11.46,11.46,0,0,1-1.71,2.52c-.77.92-2,2.28-3.74,4.1h6.36l-.16,1h-7.57v-1c1.84-2,3.17-3.42,4-4.37a12.23,12.23,0,0,0,1.69-2.46,5.12,5.12,0,0,0,.49-2.23,2.61,2.61,0,0,0-.69-1.9,2.49,2.49,0,0,0-1.85-.7,3.37,3.37,0,0,0-1.64.38,4.77,4.77,0,0,0-1.36,1.15l-.81-.61a5.52,5.52,0,0,1,1.74-1.45,4.76,4.76,0,0,1,2.13-.46A3.68,3.68,0,0,1,331.93,368.77Z" style="fill:#1d1d1b"/><path d="M343.05,369.54a10.19,10.19,0,0,1,1.07,5.18,10,10,0,0,1-1.08,5.15,3.67,3.67,0,0,1-6.28,0,13,13,0,0,1,0-10.34,3.7,3.7,0,0,1,6.29,0Zm-6.15,5.16q0,6,3,6a2.4,2.4,0,0,0,2.23-1.45,13.73,13.73,0,0,0,0-9,2.38,2.38,0,0,0-2.23-1.46Q336.9,368.75,336.9,374.7Z" style="fill:#1d1d1b"/><path d="M354.15,369.54a10.2,10.2,0,0,1,1.06,5.18,10.06,10.06,0,0,1-1.07,5.15,3.68,3.68,0,0,1-6.29,0,13,13,0,0,1,0-10.34,3.7,3.7,0,0,1,6.3,0ZM348,374.7q0,6,3,6a2.42,2.42,0,0,0,2.23-1.45,13.91,13.91,0,0,0,0-9,2.4,2.4,0,0,0-2.23-1.46Q348,368.75,348,374.7Z" style="fill:#1d1d1b"/><path d="M366.29,376.92v1h-1.82v3.54h-1.15v-3.54h-5.87V377l4.1-9.24,1,.4-3.84,8.74h4.62l.14-3.94h1v3.94Z" style="fill:#1d1d1b"/><path d="M391.76,368.77a3.44,3.44,0,0,1,1,2.54,5.6,5.6,0,0,1-.55,2.46,11.74,11.74,0,0,1-1.7,2.52c-.78.92-2,2.28-3.74,4.1h6.35l-.16,1h-7.57v-1c1.85-2,3.17-3.42,4-4.37a12.23,12.23,0,0,0,1.69-2.46,5.13,5.13,0,0,0,.5-2.23,2.62,2.62,0,0,0-.7-1.9,2.47,2.47,0,0,0-1.85-.7,3.39,3.39,0,0,0-1.64.38A4.77,4.77,0,0,0,386,370.3l-.81-.61a5.44,5.44,0,0,1,1.75-1.45,4.69,4.69,0,0,1,2.12-.46A3.68,3.68,0,0,1,391.76,368.77Z" style="fill:#1d1d1b"/><path d="M402.88,369.54a10.08,10.08,0,0,1,1.07,5.18,10,10,0,0,1-1.08,5.15,3.67,3.67,0,0,1-6.28,0,13,13,0,0,1,0-10.34,3.7,3.7,0,0,1,6.29,0Zm-6.15,5.16q0,6,3,6a2.42,2.42,0,0,0,2.23-1.45,13.91,13.91,0,0,0,0-9,2.4,2.4,0,0,0-2.23-1.46Q396.73,368.75,396.73,374.7Z" style="fill:#1d1d1b"/><path d="M414,369.54a10.19,10.19,0,0,1,1.07,5.18,10,10,0,0,1-1.08,5.15,3.68,3.68,0,0,1-6.29,0,13.14,13.14,0,0,1,0-10.34,3.7,3.7,0,0,1,6.3,0Zm-6.15,5.16q0,6,3,6a2.41,2.41,0,0,0,2.23-1.45,13.73,13.73,0,0,0,0-9,2.39,2.39,0,0,0-2.23-1.46Q407.83,368.75,407.83,374.7Z" style="fill:#1d1d1b"/><path d="M424.55,369H419.1v4.58a4.61,4.61,0,0,1,2.3-.63,3.53,3.53,0,0,1,2.75,1.12,4.38,4.38,0,0,1,1,3.06,5,5,0,0,1-.53,2.35,3.91,3.91,0,0,1-1.51,1.61,4.36,4.36,0,0,1-2.27.58,5.07,5.07,0,0,1-3.8-1.62l.73-.7a4.53,4.53,0,0,0,1.37,1,4.26,4.26,0,0,0,1.7.32,2.85,2.85,0,0,0,2.26-1,3.87,3.87,0,0,0,.82-2.61,3.4,3.4,0,0,0-.75-2.41,2.71,2.71,0,0,0-2.05-.8A3.94,3.94,0,0,0,420,374a5.43,5.43,0,0,0-1.1.5H418V368h6.76Z" style="fill:#1d1d1b"/><path d="M451.59,368.77a3.44,3.44,0,0,1,1,2.54,5.6,5.6,0,0,1-.55,2.46,11.74,11.74,0,0,1-1.7,2.52c-.78.92-2,2.28-3.74,4.1H453l-.16,1h-7.57v-1c1.85-2,3.17-3.42,4-4.37a12.23,12.23,0,0,0,1.69-2.46,5.13,5.13,0,0,0,.5-2.23,2.62,2.62,0,0,0-.7-1.9,2.47,2.47,0,0,0-1.85-.7,3.39,3.39,0,0,0-1.64.38,4.77,4.77,0,0,0-1.36,1.15l-.81-.61a5.44,5.44,0,0,1,1.75-1.45,4.7,4.7,0,0,1,2.13-.46A3.67,3.67,0,0,1,451.59,368.77Z" style="fill:#1d1d1b"/><path d="M462.71,369.54a10.08,10.08,0,0,1,1.07,5.18,10,10,0,0,1-1.08,5.15,3.67,3.67,0,0,1-6.28,0,13,13,0,0,1,0-10.34,3.7,3.7,0,0,1,6.29,0Zm-6.15,5.16q0,6,3,6a2.42,2.42,0,0,0,2.23-1.45,13.91,13.91,0,0,0,0-9,2.4,2.4,0,0,0-2.23-1.46Q456.56,368.75,456.56,374.7Z" style="fill:#1d1d1b"/><path d="M473.81,369.54a10.19,10.19,0,0,1,1.07,5.18,10,10,0,0,1-1.08,5.15,3.68,3.68,0,0,1-6.29,0,13.14,13.14,0,0,1,0-10.34,3.7,3.7,0,0,1,6.3,0Zm-6.15,5.16q0,6,3,6a2.41,2.41,0,0,0,2.23-1.45,13.73,13.73,0,0,0,0-9,2.39,2.39,0,0,0-2.23-1.46Q467.66,368.75,467.66,374.7Z" style="fill:#1d1d1b"/><path d="M484.74,373.76a4.44,4.44,0,0,1,1,3.14,5.83,5.83,0,0,1-.51,2.51,3.91,3.91,0,0,1-1.42,1.65,3.59,3.59,0,0,1-2,.58,3.49,3.49,0,0,1-3.24-1.71,8.84,8.84,0,0,1-1-4.57,12.23,12.23,0,0,1,.59-4,5.67,5.67,0,0,1,1.67-2.63,3.85,3.85,0,0,1,2.58-.92,4.35,4.35,0,0,1,2.5.78l-.5.81a3.73,3.73,0,0,0-2-.62,2.91,2.91,0,0,0-2.6,1.63,8.69,8.69,0,0,0-1,4.28,4,4,0,0,1,3.45-2A3.35,3.35,0,0,1,484.74,373.76Zm-.9,5.89a4.6,4.6,0,0,0,.72-2.71,3.67,3.67,0,0,0-.7-2.48,2.3,2.3,0,0,0-1.84-.81,3.18,3.18,0,0,0-1.85.59,5.11,5.11,0,0,0-1.44,1.63,7.43,7.43,0,0,0,.79,3.57,2.45,2.45,0,0,0,2.28,1.23A2.34,2.34,0,0,0,483.84,379.65Z" style="fill:#1d1d1b"/><path d="M511.42,368.77a3.4,3.4,0,0,1,1,2.54,5.6,5.6,0,0,1-.55,2.46,11.74,11.74,0,0,1-1.7,2.52c-.77.92-2,2.28-3.74,4.1h6.35l-.16,1h-7.56v-1c1.84-2,3.16-3.42,4-4.37a12.23,12.23,0,0,0,1.69-2.46,5.13,5.13,0,0,0,.5-2.23,2.57,2.57,0,0,0-.7-1.9,2.46,2.46,0,0,0-1.84-.7,3.41,3.41,0,0,0-1.65.38,4.77,4.77,0,0,0-1.36,1.15l-.81-.61a5.44,5.44,0,0,1,1.75-1.45,4.7,4.7,0,0,1,2.13-.46A3.66,3.66,0,0,1,511.42,368.77Z" style="fill:#1d1d1b"/><path d="M522.54,369.54a10.08,10.08,0,0,1,1.07,5.18,10,10,0,0,1-1.08,5.15,3.67,3.67,0,0,1-6.28,0,13,13,0,0,1,0-10.34,3.7,3.7,0,0,1,6.29,0Zm-6.15,5.16q0,6,3,6a2.42,2.42,0,0,0,2.23-1.45,13.91,13.91,0,0,0,0-9,2.4,2.4,0,0,0-2.23-1.46Q516.39,368.75,516.39,374.7Z" style="fill:#1d1d1b"/><path d="M533.05,369.54a10.08,10.08,0,0,1,1.07,5.18,10,10,0,0,1-1.08,5.15,3.67,3.67,0,0,1-6.28,0,13,13,0,0,1,0-10.34,3.7,3.7,0,0,1,6.29,0Zm-6.15,5.16q0,6,3,6a2.42,2.42,0,0,0,2.23-1.45,13.91,13.91,0,0,0,0-9,2.4,2.4,0,0,0-2.23-1.46Q526.9,368.75,526.9,374.7Z" style="fill:#1d1d1b"/><path d="M543.54,368v.91l-5.28,12.67-1.09-.37L542.33,369h-6.27v-1Z" style="fill:#1d1d1b"/><path d="M570.12,368.77a3.44,3.44,0,0,1,1,2.54,5.6,5.6,0,0,1-.55,2.46,11.74,11.74,0,0,1-1.7,2.52c-.78.92-2,2.28-3.74,4.1h6.35l-.16,1h-7.57v-1c1.85-2,3.17-3.42,4-4.37a12.23,12.23,0,0,0,1.69-2.46,5.13,5.13,0,0,0,.5-2.23,2.62,2.62,0,0,0-.7-1.9,2.46,2.46,0,0,0-1.84-.7,3.41,3.41,0,0,0-1.65.38,4.77,4.77,0,0,0-1.36,1.15l-.81-.61a5.44,5.44,0,0,1,1.75-1.45,4.7,4.7,0,0,1,2.13-.46A3.66,3.66,0,0,1,570.12,368.77Z" style="fill:#1d1d1b"/><path d="M581.24,369.54a10.08,10.08,0,0,1,1.07,5.18,10,10,0,0,1-1.08,5.15,3.67,3.67,0,0,1-6.28,0,13,13,0,0,1,0-10.34,3.7,3.7,0,0,1,6.29,0Zm-6.15,5.16q0,6,3,6a2.42,2.42,0,0,0,2.23-1.45,13.91,13.91,0,0,0,0-9,2.4,2.4,0,0,0-2.23-1.46Q575.09,368.75,575.09,374.7Z" style="fill:#1d1d1b"/><path d="M592.34,369.54a10.19,10.19,0,0,1,1.07,5.18,10,10,0,0,1-1.08,5.15,3.68,3.68,0,0,1-6.29,0,13.14,13.14,0,0,1,0-10.34,3.7,3.7,0,0,1,6.3,0Zm-6.15,5.16q0,6,3,6a2.41,2.41,0,0,0,2.23-1.45,13.73,13.73,0,0,0,0-9,2.39,2.39,0,0,0-2.23-1.46Q586.19,368.75,586.19,374.7Z" style="fill:#1d1d1b"/><path d="M603.81,375.78a3.2,3.2,0,0,1,.71,2.15,3.42,3.42,0,0,1-.55,1.94,3.65,3.65,0,0,1-1.56,1.3,5.31,5.31,0,0,1-2.28.47,5.2,5.2,0,0,1-2.27-.47,3.41,3.41,0,0,1-2.05-3.22c0-1.73,1-3,2.88-3.74A4.5,4.5,0,0,1,597,373a2.86,2.86,0,0,1-.56-1.82,3.11,3.11,0,0,1,.53-1.8,3.28,3.28,0,0,1,1.39-1.16,4.49,4.49,0,0,1,1.86-.39,4.64,4.64,0,0,1,1.85.38,3.32,3.32,0,0,1,1.4,1.13,3,3,0,0,1,.54,1.82,2.84,2.84,0,0,1-.59,1.8,5.36,5.36,0,0,1-1.83,1.4A5.87,5.87,0,0,1,603.81,375.78Zm-1.38,4.15a2.42,2.42,0,0,0,.86-2,2.75,2.75,0,0,0-.3-1.35,2.64,2.64,0,0,0-.93-.92,9.4,9.4,0,0,0-1.75-.82l-.69-.26a4.34,4.34,0,0,0-2,1.34,3.26,3.26,0,0,0-.61,2,2.43,2.43,0,0,0,.85,2,4,4,0,0,0,4.54,0Zm-4.31-7.25a5.34,5.34,0,0,0,1.92,1.07l.63.22a5,5,0,0,0,1.62-1.25,2.5,2.5,0,0,0,.5-1.57,2.29,2.29,0,0,0-.72-1.8,3.11,3.11,0,0,0-3.78,0,2.3,2.3,0,0,0-.73,1.8A2.1,2.1,0,0,0,598.12,372.68Z" style="fill:#1d1d1b"/><path d="M630,368.77a3.4,3.4,0,0,1,1,2.54,5.74,5.74,0,0,1-.54,2.46,12.21,12.21,0,0,1-1.71,2.52c-.77.92-2,2.28-3.74,4.1h6.35l-.16,1h-7.56v-1c1.84-2,3.16-3.42,4-4.37a12.34,12.34,0,0,0,1.7-2.46,5.26,5.26,0,0,0,.49-2.23,2.57,2.57,0,0,0-.7-1.9,2.46,2.46,0,0,0-1.84-.7,3.41,3.41,0,0,0-1.65.38,4.9,4.9,0,0,0-1.36,1.15l-.8-.61a5.31,5.31,0,0,1,1.74-1.45,4.73,4.73,0,0,1,2.13-.46A3.64,3.64,0,0,1,630,368.77Z" style="fill:#1d1d1b"/><path d="M641.08,369.54a10.19,10.19,0,0,1,1.07,5.18,10,10,0,0,1-1.08,5.15,3.68,3.68,0,0,1-6.29,0,13,13,0,0,1,0-10.34,3.7,3.7,0,0,1,6.3,0Zm-6.16,5.16c0,4,1,6,3,6a2.42,2.42,0,0,0,2.23-1.45,13.73,13.73,0,0,0,0-9,2.4,2.4,0,0,0-2.23-1.46C635.93,368.75,634.92,370.73,634.92,374.7Z" style="fill:#1d1d1b"/><path d="M652.17,369.54a10.19,10.19,0,0,1,1.07,5.18,10,10,0,0,1-1.08,5.15,3.67,3.67,0,0,1-6.28,0,13,13,0,0,1,0-10.34,3.7,3.7,0,0,1,6.29,0ZM646,374.7q0,6,3,6a2.4,2.4,0,0,0,2.23-1.45,13.73,13.73,0,0,0,0-9,2.38,2.38,0,0,0-2.23-1.46Q646,368.75,646,374.7Z" style="fill:#1d1d1b"/><path d="M662.77,369.2a6.75,6.75,0,0,1,1,4,10.36,10.36,0,0,1-.75,4.26,6.2,6.2,0,0,1-2.18,2.64,14.32,14.32,0,0,1-3.81,1.72l-.3-.91a10,10,0,0,0,4.25-2.32,6,6,0,0,0,1.6-4,4.53,4.53,0,0,1-1.45,1.38,3.64,3.64,0,0,1-1.86.49,3.48,3.48,0,0,1-1.87-.51,3.6,3.6,0,0,1-1.31-1.47,5.11,5.11,0,0,1-.47-2.25,4.8,4.8,0,0,1,.54-2.33,3.74,3.74,0,0,1,1.46-1.54,4.15,4.15,0,0,1,2.08-.53A3.51,3.51,0,0,1,662.77,369.2Zm-1.57,5.73a5.23,5.23,0,0,0,1.4-1.5,7,7,0,0,0-.67-3.54,2.34,2.34,0,0,0-2.17-1.14,2.68,2.68,0,0,0-2.13.89,3.79,3.79,0,0,0-.78,2.56,3.62,3.62,0,0,0,.72,2.4,2.39,2.39,0,0,0,1.92.84A3,3,0,0,0,661.2,374.93Z" style="fill:#1d1d1b"/><path d="M689.78,368.77a3.4,3.4,0,0,1,1,2.54,5.74,5.74,0,0,1-.54,2.46,11.82,11.82,0,0,1-1.71,2.52c-.77.92-2,2.28-3.74,4.1h6.36l-.17,1h-7.56v-1c1.84-2,3.16-3.42,4-4.37a12.34,12.34,0,0,0,1.7-2.46,5.12,5.12,0,0,0,.49-2.23,2.61,2.61,0,0,0-.69-1.9,2.49,2.49,0,0,0-1.85-.7,3.34,3.34,0,0,0-1.64.38A4.8,4.8,0,0,0,684,370.3l-.8-.61a5.52,5.52,0,0,1,1.74-1.45,4.76,4.76,0,0,1,2.13-.46A3.64,3.64,0,0,1,689.78,368.77Z" style="fill:#1d1d1b"/><path d="M700.91,369.54a10.19,10.19,0,0,1,1.07,5.18,10,10,0,0,1-1.08,5.15,3.68,3.68,0,0,1-6.29,0,13.14,13.14,0,0,1,0-10.34,3.7,3.7,0,0,1,6.3,0Zm-6.15,5.16q0,6,3,6a2.41,2.41,0,0,0,2.23-1.45,13.73,13.73,0,0,0,0-9,2.39,2.39,0,0,0-2.23-1.46Q694.76,368.75,694.76,374.7Z" style="fill:#1d1d1b"/><path d="M707.84,368v13.42h-1.17V369.29l-3.31,2.06-.54-.87,4-2.48Z" style="fill:#1d1d1b"/><path d="M719,369.54a10.08,10.08,0,0,1,1.07,5.18,10,10,0,0,1-1.08,5.15,3.67,3.67,0,0,1-6.28,0,13,13,0,0,1,0-10.34,3.7,3.7,0,0,1,6.29,0Zm-6.15,5.16q0,6,3,6a2.42,2.42,0,0,0,2.23-1.45,13.91,13.91,0,0,0,0-9,2.4,2.4,0,0,0-2.23-1.46Q712.82,368.75,712.82,374.7Z" style="fill:#1d1d1b"/><path d="M59.77,344.12a3.23,3.23,0,0,1,1.28,1.2,3.28,3.28,0,0,1,.44,1.71,3,3,0,0,1-.73,2.12,3.18,3.18,0,0,1-1.91,1,3.13,3.13,0,0,1,2.17.94,3.32,3.32,0,0,1,.86,2.41,4.1,4.1,0,0,1-.53,2.08,3.67,3.67,0,0,1-1.5,1.42,4.79,4.79,0,0,1-2.25.52,4.88,4.88,0,0,1-3.85-1.74l.74-.66a4.57,4.57,0,0,0,1.43,1.07,3.82,3.82,0,0,0,1.64.34,3.08,3.08,0,0,0,2.28-.83,3,3,0,0,0,.83-2.18q0-2.82-3-2.82h-.89l.17-1h.64a2.87,2.87,0,0,0,2-.7,2.45,2.45,0,0,0,.8-2,2.31,2.31,0,0,0-.7-1.77,2.64,2.64,0,0,0-1.88-.65,3.93,3.93,0,0,0-1.55.29,4.72,4.72,0,0,0-1.43,1l-.63-.73a5.64,5.64,0,0,1,1.7-1.14,5,5,0,0,1,2-.37A4.21,4.21,0,0,1,59.77,344.12Z" style="fill:#1d1d1b"/><path d="M65.92,355.89a.93.93,0,0,1,.27.68,2.89,2.89,0,0,1-.3,1.11l-1.13,2.68h-.84l.8-3a.8.8,0,0,1-.34-.34,1,1,0,0,1-.12-.48.9.9,0,0,1,.28-.68,1,1,0,0,1,.69-.27A.93.93,0,0,1,65.92,355.89Z" style="fill:#1d1d1b"/><path d="M76,345.44a10.16,10.16,0,0,1,1.07,5.18A10,10,0,0,1,76,355.77a3.68,3.68,0,0,1-6.29,0,13.14,13.14,0,0,1,0-10.34,3.7,3.7,0,0,1,6.3,0Zm-6.15,5.16q0,6,3,6a2.41,2.41,0,0,0,2.23-1.45,13.73,13.73,0,0,0,0-9,2.39,2.39,0,0,0-2.23-1.46Q69.87,344.65,69.87,350.6Z" style="fill:#1d1d1b"/><path d="M87.11,345.44a12.95,12.95,0,0,1,0,10.33,3.67,3.67,0,0,1-6.28,0,13,13,0,0,1,0-10.34,3.7,3.7,0,0,1,6.29,0ZM81,350.6q0,6,3,6a2.4,2.4,0,0,0,2.22-1.45,13.73,13.73,0,0,0,0-9A2.37,2.37,0,0,0,84,344.65Q81,344.65,81,350.6Z" style="fill:#1d1d1b"/><path d="M58.47,312.71c-1.9,0-3.78-.76-3.94-2.88h1.76a1.85,1.85,0,0,0,2.1,1.73c1.67,0,2.36-.85,2.36-2.48,0-2-1-2.68-2.87-2.68v-1.15c1.68,0,2.64-.57,2.64-2.34,0-1.31-.54-2.28-2-2.28-1.09,0-2.08.48-2.12,1.67h-1.7a2.43,2.43,0,0,1,.33-1.17,3.66,3.66,0,0,1,3.39-1.65c2.11,0,3.63,1.21,3.63,3.41A2.84,2.84,0,0,1,60,305.77v0c1.73.39,2.3,1.74,2.3,3.41C62.32,311.58,60.69,312.71,58.47,312.71Z" style="fill:#1d1d1b"/><path d="M66.25,315H64.9l.26-4.5H67Z" style="fill:#1d1d1b"/><path d="M73.8,299.08v13.41H72.63V300.37l-3.31,2.05-.55-.86,4-2.48Z" style="fill:#1d1d1b"/><path d="M84.93,300.62a12.95,12.95,0,0,1,0,10.33,3.68,3.68,0,0,1-6.28,0,13,13,0,0,1,0-10.34,3.68,3.68,0,0,1,6.29,0Zm-6.15,5.15q0,6,3,6A2.38,2.38,0,0,0,84,310.29a13.73,13.73,0,0,0,0-9,2.39,2.39,0,0,0-2.22-1.46C79.78,299.82,78.78,301.81,78.78,305.77Z" style="fill:#1d1d1b"/><path d="M59.77,254.48a3.1,3.1,0,0,1,1.28,1.2,3.24,3.24,0,0,1,.44,1.7,3.08,3.08,0,0,1-.73,2.13,3.28,3.28,0,0,1-1.91,1,3.12,3.12,0,0,1,2.17.93,3.33,3.33,0,0,1,.86,2.42,4,4,0,0,1-.53,2.07,3.7,3.7,0,0,1-1.5,1.43,4.78,4.78,0,0,1-2.25.51,4.9,4.9,0,0,1-3.85-1.73l.74-.67a4.46,4.46,0,0,0,1.43,1.08,4,4,0,0,0,1.64.33,3,3,0,0,0,2.28-.83,2.93,2.93,0,0,0,.83-2.17c0-1.89-1-2.83-3-2.83h-.89l.17-.95h.64a2.91,2.91,0,0,0,2-.69,2.49,2.49,0,0,0,.8-2,2.27,2.27,0,0,0-.7-1.76,2.65,2.65,0,0,0-1.88-.66,4.11,4.11,0,0,0-1.55.29,5.12,5.12,0,0,0-1.43,1l-.63-.73a5.64,5.64,0,0,1,1.7-1.14,5.2,5.2,0,0,1,2-.37A4.09,4.09,0,0,1,59.77,254.48Z" style="fill:#1d1d1b"/><path d="M65.92,266.25a.9.9,0,0,1,.27.67,2.8,2.8,0,0,1-.3,1.11l-1.13,2.68h-.84l.8-3a.86.86,0,0,1-.34-.34,1,1,0,0,1-.12-.49.88.88,0,0,1,.28-.67.94.94,0,0,1,.69-.28A.9.9,0,0,1,65.92,266.25Z" style="fill:#1d1d1b"/><path d="M74.56,255a3.44,3.44,0,0,1,1,2.54A5.67,5.67,0,0,1,75,260a11.46,11.46,0,0,1-1.71,2.52c-.77.92-2,2.28-3.74,4.1h6.36l-.16,1H68.19v-1q2.76-2.94,4-4.37a12.23,12.23,0,0,0,1.69-2.46,5.09,5.09,0,0,0,.49-2.23,2.59,2.59,0,0,0-.69-1.89A2.49,2.49,0,0,0,71.8,255a3.48,3.48,0,0,0-1.64.38,4.77,4.77,0,0,0-1.36,1.15L68,256a5.26,5.26,0,0,1,1.74-1.45,4.76,4.76,0,0,1,2.13-.47A3.68,3.68,0,0,1,74.56,255Z" style="fill:#1d1d1b"/><path d="M85.68,255.8A10.12,10.12,0,0,1,86.75,261a10,10,0,0,1-1.08,5.15,3.67,3.67,0,0,1-6.28,0,13,13,0,0,1,0-10.33,3.68,3.68,0,0,1,6.29,0ZM79.53,261q0,6,3,6a2.38,2.38,0,0,0,2.23-1.45,13.73,13.73,0,0,0,0-9A2.39,2.39,0,0,0,82.53,255Q79.53,255,79.53,261Z" style="fill:#1d1d1b"/><path d="M59.77,209.65a3.23,3.23,0,0,1,1.28,1.2,3.28,3.28,0,0,1,.44,1.71,3,3,0,0,1-.73,2.12,3.18,3.18,0,0,1-1.91,1,3.13,3.13,0,0,1,2.17.94,3.32,3.32,0,0,1,.86,2.41,4.1,4.1,0,0,1-.53,2.08,3.67,3.67,0,0,1-1.5,1.42,4.79,4.79,0,0,1-2.25.52,4.88,4.88,0,0,1-3.85-1.74l.74-.66a4.57,4.57,0,0,0,1.43,1.07,3.82,3.82,0,0,0,1.64.34,3.08,3.08,0,0,0,2.28-.83,3,3,0,0,0,.83-2.18q0-2.82-3-2.82h-.89l.17-.95h.64a2.87,2.87,0,0,0,2-.7,2.45,2.45,0,0,0,.8-2,2.31,2.31,0,0,0-.7-1.77,2.69,2.69,0,0,0-1.88-.65,3.93,3.93,0,0,0-1.55.29,4.72,4.72,0,0,0-1.43,1l-.63-.73a5.64,5.64,0,0,1,1.7-1.14,5,5,0,0,1,2-.37A4.21,4.21,0,0,1,59.77,209.65Z" style="fill:#1d1d1b"/><path d="M65.92,221.42a.93.93,0,0,1,.27.68,2.89,2.89,0,0,1-.3,1.11l-1.13,2.68h-.84l.8-3a.8.8,0,0,1-.34-.34,1,1,0,0,1-.12-.48.9.9,0,0,1,.28-.68,1,1,0,0,1,.69-.27A.93.93,0,0,1,65.92,221.42Z" style="fill:#1d1d1b"/><path d="M73.75,209.65a3.23,3.23,0,0,1,1.28,1.2,3.28,3.28,0,0,1,.44,1.71,3,3,0,0,1-.73,2.12,3.18,3.18,0,0,1-1.91,1,3.13,3.13,0,0,1,2.17.94,3.32,3.32,0,0,1,.86,2.41,4.1,4.1,0,0,1-.53,2.08,3.67,3.67,0,0,1-1.5,1.42,4.79,4.79,0,0,1-2.25.52,4.88,4.88,0,0,1-3.85-1.74l.74-.66a4.46,4.46,0,0,0,1.43,1.07,3.79,3.79,0,0,0,1.64.34,3.08,3.08,0,0,0,2.28-.83,3,3,0,0,0,.83-2.18q0-2.82-3-2.82h-.89l.16-.95h.65a2.87,2.87,0,0,0,2-.7,2.48,2.48,0,0,0,.8-2,2.31,2.31,0,0,0-.7-1.77,2.69,2.69,0,0,0-1.88-.65,3.93,3.93,0,0,0-1.55.29,4.72,4.72,0,0,0-1.43,1l-.63-.73a5.64,5.64,0,0,1,1.7-1.14,5,5,0,0,1,2-.37A4.24,4.24,0,0,1,73.75,209.65Z" style="fill:#1d1d1b"/><path d="M85.82,211a10.16,10.16,0,0,1,1.07,5.18,10,10,0,0,1-1.08,5.15,3.67,3.67,0,0,1-6.28,0,13,13,0,0,1,0-10.34,3.7,3.7,0,0,1,6.29,0Zm-6.15,5.16q0,6,3,6a2.4,2.4,0,0,0,2.23-1.45,13.73,13.73,0,0,0,0-9,2.38,2.38,0,0,0-2.23-1.46Q79.67,210.18,79.67,216.13Z" style="fill:#1d1d1b"/><path d="M59.77,164.83a3.1,3.1,0,0,1,1.28,1.2,3.24,3.24,0,0,1,.44,1.7,3,3,0,0,1-.73,2.13,3.18,3.18,0,0,1-1.91,1,3.09,3.09,0,0,1,2.17.94,3.3,3.3,0,0,1,.86,2.41,4.1,4.1,0,0,1-.53,2.08,3.67,3.67,0,0,1-1.5,1.42,4.78,4.78,0,0,1-2.25.51,4.87,4.87,0,0,1-3.85-1.73l.74-.67a4.46,4.46,0,0,0,1.43,1.08,4,4,0,0,0,1.64.33,3.08,3.08,0,0,0,2.28-.82,3,3,0,0,0,.83-2.18c0-1.88-1-2.83-3-2.83h-.89l.17-.94h.64a2.92,2.92,0,0,0,2-.7,2.47,2.47,0,0,0,.8-2,2.28,2.28,0,0,0-.7-1.76,2.65,2.65,0,0,0-1.88-.66,3.93,3.93,0,0,0-1.55.3,4.87,4.87,0,0,0-1.43,1l-.63-.72a5.64,5.64,0,0,1,1.7-1.14,5,5,0,0,1,2-.38A4.09,4.09,0,0,1,59.77,164.83Z" style="fill:#1d1d1b"/><path d="M65.92,176.6a.92.92,0,0,1,.27.67,2.8,2.8,0,0,1-.3,1.11l-1.13,2.69h-.84l.8-3a.8.8,0,0,1-.34-.34,1,1,0,0,1-.12-.49.89.89,0,0,1,.28-.67,1,1,0,0,1,.69-.27A.93.93,0,0,1,65.92,176.6Z" style="fill:#1d1d1b"/><path d="M77.07,173.52v1H75.25V178H74.1v-3.53H68.23v-.87l4.1-9.24,1,.41-3.83,8.73H74.1l.14-3.93h1v3.93Z" style="fill:#1d1d1b"/><path d="M86.47,166.15a10.14,10.14,0,0,1,1.07,5.17,10,10,0,0,1-1.08,5.16,3.69,3.69,0,0,1-6.29,0,13,13,0,0,1,0-10.34,3.69,3.69,0,0,1,6.3,0Zm-6.16,5.15c0,4,1,6,3,6a2.4,2.4,0,0,0,2.23-1.45,13.73,13.73,0,0,0,0-9,2.41,2.41,0,0,0-2.23-1.46C81.32,165.35,80.31,167.34,80.31,171.3Z" style="fill:#1d1d1b"/><path d="M59.77,120a3.23,3.23,0,0,1,1.28,1.2,3.3,3.3,0,0,1,.44,1.71,3.08,3.08,0,0,1-.73,2.13,3.28,3.28,0,0,1-1.91,1A3.12,3.12,0,0,1,61,127a3.32,3.32,0,0,1,.86,2.41,4,4,0,0,1-.53,2.08,3.61,3.61,0,0,1-1.5,1.42,4.67,4.67,0,0,1-2.25.52,4.88,4.88,0,0,1-3.85-1.74l.74-.66a4.46,4.46,0,0,0,1.43,1.08,4,4,0,0,0,1.64.33,3,3,0,0,0,2.28-.83,2.94,2.94,0,0,0,.83-2.18q0-2.82-3-2.82h-.89l.17-.95h.64a2.91,2.91,0,0,0,2-.69,2.49,2.49,0,0,0,.8-2,2.31,2.31,0,0,0-.7-1.77,2.69,2.69,0,0,0-1.88-.65,4.11,4.11,0,0,0-1.55.29,5.12,5.12,0,0,0-1.43,1l-.63-.73a5.64,5.64,0,0,1,1.7-1.14,5.2,5.2,0,0,1,2-.37A4.21,4.21,0,0,1,59.77,120Z" style="fill:#1d1d1b"/><path d="M65.92,131.77a.94.94,0,0,1,.27.68,2.8,2.8,0,0,1-.3,1.11l-1.13,2.68h-.84l.8-3a.86.86,0,0,1-.34-.34,1,1,0,0,1-.12-.49.91.91,0,0,1,.28-.68,1,1,0,0,1,.69-.27A.93.93,0,0,1,65.92,131.77Z" style="fill:#1d1d1b"/><path d="M75.49,120.75H70.05v4.58a4.58,4.58,0,0,1,2.3-.63,3.56,3.56,0,0,1,2.75,1.12,4.38,4.38,0,0,1,1,3.06,5,5,0,0,1-.54,2.35,3.85,3.85,0,0,1-1.51,1.61,4.33,4.33,0,0,1-2.27.58A5.07,5.07,0,0,1,68,131.81l.73-.71a4.26,4.26,0,0,0,1.37,1,4.21,4.21,0,0,0,1.69.32,2.82,2.82,0,0,0,2.26-1,3.87,3.87,0,0,0,.83-2.61,3.35,3.35,0,0,0-.76-2.41,2.7,2.7,0,0,0-2-.8,3.94,3.94,0,0,0-1.14.15,5.63,5.63,0,0,0-1.09.5h-.93v-6.52h6.76Z" style="fill:#1d1d1b"/><path d="M85.84,121.33a12.92,12.92,0,0,1,0,10.32,3.67,3.67,0,0,1-6.28,0,13,13,0,0,1,0-10.33,3.68,3.68,0,0,1,6.29,0Zm-6.15,5.15q0,6,3,6A2.38,2.38,0,0,0,84.92,131a13.73,13.73,0,0,0,0-9,2.39,2.39,0,0,0-2.22-1.46Q79.69,120.53,79.69,126.48Z" style="fill:#1d1d1b"/><path d="M59.77,75.18a3.23,3.23,0,0,1,1.28,1.2,3.3,3.3,0,0,1,.44,1.71,3.08,3.08,0,0,1-.73,2.13,3.22,3.22,0,0,1-1.91,1,3.13,3.13,0,0,1,2.17.94,3.32,3.32,0,0,1,.86,2.41,4.07,4.07,0,0,1-.53,2.08,3.61,3.61,0,0,1-1.5,1.42,4.67,4.67,0,0,1-2.25.52,4.88,4.88,0,0,1-3.85-1.74l.74-.66a4.77,4.77,0,0,0,1.43,1.08,4,4,0,0,0,1.64.33,3.08,3.08,0,0,0,2.28-.83,3,3,0,0,0,.83-2.18q0-2.82-3-2.82h-.89l.17-1h.64a2.87,2.87,0,0,0,2-.7,2.45,2.45,0,0,0,.8-2,2.31,2.31,0,0,0-.7-1.77,2.69,2.69,0,0,0-1.88-.65,3.93,3.93,0,0,0-1.55.29,4.72,4.72,0,0,0-1.43,1l-.63-.73a5.64,5.64,0,0,1,1.7-1.14,5,5,0,0,1,2-.37A4.21,4.21,0,0,1,59.77,75.18Z" style="fill:#1d1d1b"/><path d="M65.92,87a.93.93,0,0,1,.27.68,2.89,2.89,0,0,1-.3,1.11l-1.13,2.68h-.84l.8-3a.88.88,0,0,1-.34-.35,1,1,0,0,1-.12-.48.9.9,0,0,1,.28-.68,1,1,0,0,1,.69-.27A.93.93,0,0,1,65.92,87Z" style="fill:#1d1d1b"/><path d="M75.86,80.72a4.44,4.44,0,0,1,1,3.14,5.83,5.83,0,0,1-.52,2.51A3.83,3.83,0,0,1,74.94,88a3.65,3.65,0,0,1-2,.58,3.49,3.49,0,0,1-3.24-1.71,8.85,8.85,0,0,1-1-4.57,12.51,12.51,0,0,1,.58-4,5.83,5.83,0,0,1,1.67-2.63,3.86,3.86,0,0,1,2.59-.92,4.37,4.37,0,0,1,2.5.78l-.51.81a3.68,3.68,0,0,0-2-.62,2.94,2.94,0,0,0-2.61,1.63,8.81,8.81,0,0,0-1,4.28,4,4,0,0,1,3.44-2A3.37,3.37,0,0,1,75.86,80.72ZM75,86.61a4.6,4.6,0,0,0,.72-2.71,3.73,3.73,0,0,0-.7-2.48,2.31,2.31,0,0,0-1.85-.81,3.15,3.15,0,0,0-1.84.59,5.11,5.11,0,0,0-1.44,1.63,7.56,7.56,0,0,0,.78,3.57,2.47,2.47,0,0,0,2.28,1.23A2.36,2.36,0,0,0,75,86.61Z" style="fill:#1d1d1b"/><path d="M86.59,76.5a10.19,10.19,0,0,1,1.07,5.18,10,10,0,0,1-1.08,5.15,3.68,3.68,0,0,1-6.29,0,10.13,10.13,0,0,1-1.06-5.17,10.1,10.1,0,0,1,1.06-5.17,3.7,3.7,0,0,1,6.3,0Zm-6.15,5.16q0,6,3,6a2.41,2.41,0,0,0,2.23-1.45,10.24,10.24,0,0,0,.76-4.5,10.29,10.29,0,0,0-.76-4.51,2.39,2.39,0,0,0-2.23-1.46Q80.44,75.71,80.44,81.66Z" style="fill:#1d1d1b"/><path d="M360.86,418.8l-1.05-3.49h-5.26l-1.05,3.49h-1.94L356,404.9h2.42l4.44,13.9Zm-5.85-5h4.34l-2.16-7.26Z" style="fill:#1d1d1b"/><path d="M372.19,408.8a3.34,3.34,0,0,1,.82,2.38v7.62h-1.86v-7.36a2.35,2.35,0,0,0-.42-1.59,1.61,1.61,0,0,0-1.25-.47,2.39,2.39,0,0,0-1.5.49,5,5,0,0,0-1.21,1.39v7.54h-1.85V408.17h1.59l.16,1.57a4.43,4.43,0,0,1,1.4-1.33,3.67,3.67,0,0,1,1.85-.48A3,3,0,0,1,372.19,408.8Z" style="fill:#1d1d1b"/><path d="M384.21,409.42a6.15,6.15,0,0,1,1.24,4.06,7,7,0,0,1-.56,2.91,4.46,4.46,0,0,1-1.64,2,4.58,4.58,0,0,1-2.54.69,4.3,4.3,0,0,1-3.49-1.49A6.13,6.13,0,0,1,376,413.5a7,7,0,0,1,.57-2.92,4.44,4.44,0,0,1,1.63-2,4.62,4.62,0,0,1,2.56-.69A4.27,4.27,0,0,1,384.21,409.42ZM378,413.5q0,4,2.74,4.05t2.75-4.07q0-4.07-2.73-4.06T378,413.5Z" style="fill:#1d1d1b"/><path d="M29.11,299.79v1.07l-6.05.57q-3.51.36-5.49.48l10,3.17v1.05l-10,3.28c1.19.06,2.77.19,4.74.37l.72.06,6.08.55v1.05l-12.63-1.2v-1.53l9.83-3.13-9.83-3V301Z" style="fill:#1d1d1b"/><path d="M16.48,284.17l12.63,2.76v1.38l-11.39,2.77,11.39,2.76v1.35L16.48,298v-1.13l11.6-2.39-11.6-2.77v-1.23l11.6-2.82-11.6-2.41Z" style="fill:#1d1d1b"/><path d="M20.05,275.39a3.15,3.15,0,0,1,2.16-.7h6.9v1.07H22.36c-1.48,0-2.23.61-2.23,1.83a2.74,2.74,0,0,0,.51,1.63,5.62,5.62,0,0,0,1.48,1.35h7v1.07H15.54l-.12-1.07h5.65a3.81,3.81,0,0,1-1.8-3.19A2.54,2.54,0,0,1,20.05,275.39Z" style="fill:#1d1d1b"/><path d="M14.31,261.22l.24-.92L31,264.58l-.24.92Z" style="fill:#1d1d1b"/><path d="M28.7,246.63a3.56,3.56,0,0,1,.61,2,2.31,2.31,0,0,1-.65,1.73,2.63,2.63,0,0,1-1.89.62H20.34v1.63h-.87V251h-2.3L17,250h2.43v-2.49l.87.13V250h6.37A1.91,1.91,0,0,0,28,249.6a1.32,1.32,0,0,0,.42-1.07,2.89,2.89,0,0,0-.43-1.48Z" style="fill:#1d1d1b"/><path d="M20.58,238.42a5.66,5.66,0,0,1,3.68-1.08,5.74,5.74,0,0,1,3.7,1.1,4,4,0,0,1,0,6,5.73,5.73,0,0,1-3.67,1.07,6.66,6.66,0,0,1-2.67-.49,4,4,0,0,1-1.76-1.42,3.92,3.92,0,0,1-.6-2.18A3.68,3.68,0,0,1,20.58,238.42Zm.64,5.17a5.2,5.2,0,0,0,3.08.77,5.16,5.16,0,0,0,3.06-.76,2.52,2.52,0,0,0,1.05-2.17,2.56,2.56,0,0,0-1.05-2.18,5.17,5.17,0,0,0-3.1-.79,5.1,5.1,0,0,0-3.05.77,2.8,2.8,0,0,0,0,4.36Z" style="fill:#1d1d1b"/><path d="M20,228a3.16,3.16,0,0,1,2.17-.69h6.9v1.07H22.36a2.53,2.53,0,0,0-1.69.46,1.69,1.69,0,0,0-.54,1.36,2.7,2.7,0,0,0,.51,1.63,5.48,5.48,0,0,0,1.48,1.36h7v1.07H19.47v-.92l1.64-.11a4.63,4.63,0,0,1-1.36-1.4,3.55,3.55,0,0,1-.48-1.83A2.53,2.53,0,0,1,20,228Z" style="fill:#1d1d1b"/><path d="M24.7,216.65v6.43a4.41,4.41,0,0,0,2.79-.9,2.66,2.66,0,0,0,.92-2.11,3.63,3.63,0,0,0-.23-1.33,6,6,0,0,0-.73-1.26l.68-.5a5.41,5.41,0,0,1,.88,1.47,4.53,4.53,0,0,1,.3,1.68,3.68,3.68,0,0,1-1.31,3,5.48,5.48,0,0,1-3.63,1.09,7.13,7.13,0,0,1-2.68-.47,4,4,0,0,1-1.79-1.35,3.38,3.38,0,0,1-.63-2,3.31,3.31,0,0,1,1.24-2.8,5.47,5.47,0,0,1,3.42-1A6.29,6.29,0,0,1,24.7,216.65Zm-1.1,1a4.21,4.21,0,0,0-2.54.67,2.58,2.58,0,0,0,0,3.94,4.78,4.78,0,0,0,2.8.81v-5.42Z" style="fill:#1d1d1b"/><path d="M28.85,213.21a1.88,1.88,0,0,1-1.36.45H15.54l-.12-1.07h12c.63,0,.94-.26.94-.77a1.54,1.54,0,0,0-.13-.67l.79-.29a2.45,2.45,0,0,1,.26,1.11A1.65,1.65,0,0,1,28.85,213.21Z" style="fill:#1d1d1b"/><path d="M28.06,202.15a1.17,1.17,0,0,0,.49-.61l.76.23a1.89,1.89,0,0,1-.5,1,2,2,0,0,1-1.12.47,3.28,3.28,0,0,1,1.62,3,3,3,0,0,1-.78,2.19,2.82,2.82,0,0,1-2.09.8,2.75,2.75,0,0,1-2.31-1.06,4.75,4.75,0,0,1-.81-2.94v-1.84h-.94a2.37,2.37,0,0,0-1.69.51,2.33,2.33,0,0,0-.52,1.71,7.78,7.78,0,0,0,.55,2.62l-.81.28a8.26,8.26,0,0,1-.64-3q0-3.15,3.06-3.15H27A2.26,2.26,0,0,0,28.06,202.15Zm-1.31,1.27H24.09v1.67a3.77,3.77,0,0,0,.58,2.25,2,2,0,0,0,1.71.77,2.07,2.07,0,0,0,1.53-.53,2,2,0,0,0,.53-1.49A2.91,2.91,0,0,0,26.75,203.42Z" style="fill:#1d1d1b"/><path d="M15.54,191.58H29.11v.93l-1.48.12a3.19,3.19,0,0,1,1.68,2.9A3.08,3.08,0,0,1,28,198.17a6,6,0,0,1-3.64,1,7.14,7.14,0,0,1-2.63-.45,4,4,0,0,1-1.79-1.31,3.25,3.25,0,0,1-.64-2,3.37,3.37,0,0,1,1.3-2.71H15.42ZM28,193.8a4.1,4.1,0,0,0-1.34-1.15h-5a3,3,0,0,0-1.46,2.53,2.39,2.39,0,0,0,1.09,2.07,5.22,5.22,0,0,0,3.08.75,5.62,5.62,0,0,0,3.05-.7,2.22,2.22,0,0,0,1.06-1.94A2.66,2.66,0,0,0,28,193.8Z" style="fill:#1d1d1b"/><path d="M28.06,181.5a1.19,1.19,0,0,0,.49-.62l.76.24a1.89,1.89,0,0,1-.5,1,1.94,1.94,0,0,1-1.12.47,3.28,3.28,0,0,1,1.62,3,3,3,0,0,1-.78,2.19,2.82,2.82,0,0,1-2.09.8,2.73,2.73,0,0,1-2.31-1.06,4.75,4.75,0,0,1-.81-2.94v-1.84h-.94a2.37,2.37,0,0,0-1.69.51,2.36,2.36,0,0,0-.52,1.72,7.73,7.73,0,0,0,.55,2.61l-.81.28a8.22,8.22,0,0,1-.64-3q0-3.15,3.06-3.15H27A2.41,2.41,0,0,0,28.06,181.5Zm-1.31,1.26H24.09v1.67a3.73,3.73,0,0,0,.58,2.25,2,2,0,0,0,1.71.78,2.07,2.07,0,0,0,1.53-.54,2,2,0,0,0,.53-1.49A2.91,2.91,0,0,0,26.75,182.76Z" style="fill:#1d1d1b"/><path d="M15.54,165.79H29.11v.92l-1.48.13a3.16,3.16,0,0,1,1.68,2.89A3.08,3.08,0,0,1,28,172.37a6,6,0,0,1-3.64,1,7.14,7.14,0,0,1-2.63-.45,4,4,0,0,1-1.79-1.31,3.25,3.25,0,0,1-.64-2,3.37,3.37,0,0,1,1.3-2.71H15.42ZM28,168a4,4,0,0,0-1.34-1.16h-5a3,3,0,0,0-1.46,2.53,2.39,2.39,0,0,0,1.09,2.07,5.22,5.22,0,0,0,3.08.75,5.62,5.62,0,0,0,3.05-.7,2.22,2.22,0,0,0,1.06-1.94A2.6,2.6,0,0,0,28,168Z" style="fill:#1d1d1b"/><path d="M24.7,155.08v6.43a4.47,4.47,0,0,0,2.79-.89,2.68,2.68,0,0,0,.92-2.11,3.69,3.69,0,0,0-.23-1.34,6,6,0,0,0-.73-1.26l.68-.5a5.41,5.41,0,0,1,.88,1.47,4.56,4.56,0,0,1,.3,1.68,3.72,3.72,0,0,1-1.31,3,5.53,5.53,0,0,1-3.63,1.08,6.93,6.93,0,0,1-2.68-.47,4,4,0,0,1-1.79-1.34,3.41,3.41,0,0,1-.63-2,3.31,3.31,0,0,1,1.24-2.8,5.47,5.47,0,0,1,3.42-1A6.29,6.29,0,0,1,24.7,155.08Zm-1.1,1a4.21,4.21,0,0,0-2.54.68,2.32,2.32,0,0,0-.91,2,2.37,2.37,0,0,0,.92,1.94,4.78,4.78,0,0,0,2.8.81v-5.42Z" style="fill:#1d1d1b"/><path d="M19.5,142.09a4.12,4.12,0,0,1,.74-1.26l.7.54a4,4,0,0,0-.57,1,3.49,3.49,0,0,0-.18,1.16,2.58,2.58,0,0,0,1.06,2.17,5,5,0,0,0,3.08.81,4.87,4.87,0,0,0,3-.8,2.63,2.63,0,0,0,1-2.17,3.34,3.34,0,0,0-.2-1.17,4.64,4.64,0,0,0-.61-1.06l.72-.51a4.13,4.13,0,0,1,1,2.76,4,4,0,0,1-.59,2.16,3.89,3.89,0,0,1-1.7,1.43,6.43,6.43,0,0,1-2.67.5,6.57,6.57,0,0,1-2.68-.5,4.12,4.12,0,0,1-1.78-1.43,3.79,3.79,0,0,1-.62-2.14A4.2,4.2,0,0,1,19.5,142.09Z" style="fill:#1d1d1b"/><path d="M28.85,137.86a1.88,1.88,0,0,1-1.36.45H15.54l-.12-1.07h12c.63,0,.94-.26.94-.77a1.54,1.54,0,0,0-.13-.67l.79-.29a2.44,2.44,0,0,1,.26,1.1A1.66,1.66,0,0,1,28.85,137.86Z" style="fill:#1d1d1b"/><path d="M20.58,126.67a5.66,5.66,0,0,1,3.68-1.08,5.74,5.74,0,0,1,3.7,1.1,4,4,0,0,1,0,6,5.67,5.67,0,0,1-3.67,1.08,6.66,6.66,0,0,1-2.67-.5,3.69,3.69,0,0,1-2.36-3.59A3.68,3.68,0,0,1,20.58,126.67Zm.64,5.17a5.13,5.13,0,0,0,3.08.78,5.15,5.15,0,0,0,3.06-.77,2.52,2.52,0,0,0,1.05-2.16,2.57,2.57,0,0,0-1.05-2.19,5.17,5.17,0,0,0-3.1-.78,5.1,5.1,0,0,0-3.05.76,2.56,2.56,0,0,0-1,2.19A2.53,2.53,0,0,0,21.22,131.84Z" style="fill:#1d1d1b"/><path d="M19.38,117.76l1,.21a3.34,3.34,0,0,0-.11.84,2,2,0,0,0,.71,1.58,5.77,5.77,0,0,0,2.22,1h5.9v1.07H19.47v-.92l2.16-.09a3.82,3.82,0,0,1-1.78-1.06,2.46,2.46,0,0,1-.58-1.67A3.33,3.33,0,0,1,19.38,117.76Z" style="fill:#1d1d1b"/><path d="M20.58,109.06A5.66,5.66,0,0,1,24.26,108a5.74,5.74,0,0,1,3.7,1.1,4,4,0,0,1,0,6,5.67,5.67,0,0,1-3.67,1.08,6.66,6.66,0,0,1-2.67-.5,3.69,3.69,0,0,1-2.36-3.6A3.68,3.68,0,0,1,20.58,109.06Zm.64,5.17a5.13,5.13,0,0,0,3.08.77,5.16,5.16,0,0,0,3.06-.76,2.52,2.52,0,0,0,1.05-2.17,2.56,2.56,0,0,0-1.05-2.18,5.17,5.17,0,0,0-3.1-.78,5.1,5.1,0,0,0-3.05.76,2.8,2.8,0,0,0,0,4.36Z" style="fill:#1d1d1b"/></g><g id="roxo"><polygon points="106.01 100.81 106.01 353.95 702.3 353.95 702.3 250.6 642.68 269.7 523.42 246.48 463.79 255.47 404.16 237.62 344.53 161.22 284.9 206.66 225.27 227.38 165.64 182.44 106.01 100.81" style="fill:#996ce0"/><path d="M118.1,18l-.29,2h-7v5.88h6.07v2h-6.07V34h7.48v2h-10V18Z" style="fill:#6827ab"/><path d="M131.63,23a4.3,4.3,0,0,1,1.06,3.08V36h-2.4V26.44a3.08,3.08,0,0,0-.55-2.06,2.1,2.1,0,0,0-1.62-.6,3.19,3.19,0,0,0-1.94.62,6.5,6.5,0,0,0-1.57,1.81V36H122.2V22.21h2.07l.21,2a5.46,5.46,0,0,1,1.82-1.73,4.67,4.67,0,0,1,2.39-.63A3.83,3.83,0,0,1,131.63,23Z" style="fill:#6827ab"/><path d="M147.89,29.92H139.1a5.35,5.35,0,0,0,1.15,3.35,3.32,3.32,0,0,0,2.56,1.07,5.68,5.68,0,0,0,1.84-.28,7.82,7.82,0,0,0,1.75-.92l1,1.44a7.62,7.62,0,0,1-4.81,1.73,5.55,5.55,0,0,1-4.48-1.89,7.67,7.67,0,0,1-1.61-5.18,9.79,9.79,0,0,1,.69-3.8,5.93,5.93,0,0,1,2-2.61,5.08,5.08,0,0,1,3-.94,5.13,5.13,0,0,1,4.22,1.81,7.74,7.74,0,0,1,1.46,5C147.94,29.1,147.92,29.5,147.89,29.92ZM145.56,28a5.08,5.08,0,0,0-.81-3.11,2.84,2.84,0,0,0-2.43-1.08c-2,0-3,1.45-3.22,4.34h6.46Z" style="fill:#6827ab"/><path d="M159.13,22.05l-.44,2.35a5.18,5.18,0,0,0-1.2-.15,2.55,2.55,0,0,0-2.07.94,7.07,7.07,0,0,0-1.23,2.93V36h-2.4V22.21h2.06l.24,2.8a5.14,5.14,0,0,1,1.49-2.33,3.35,3.35,0,0,1,2.19-.79A5.76,5.76,0,0,1,159.13,22.05Z" style="fill:#6827ab"/><path d="M173,22.83a7.57,7.57,0,0,1-1.73.35c-.63.05-1.39.07-2.3.07a3.65,3.65,0,0,1,2.43,3.48A4.41,4.41,0,0,1,170,30.11a5.44,5.44,0,0,1-3.85,1.3,5.53,5.53,0,0,1-1.75-.26,1.56,1.56,0,0,0-.68,1.28c0,.75.6,1.13,1.81,1.13h2.19a5.63,5.63,0,0,1,2.46.5,3.88,3.88,0,0,1,1.66,1.36,3.31,3.31,0,0,1,.59,2,3.5,3.5,0,0,1-1.65,3.1A8.81,8.81,0,0,1,166,41.56a10.79,10.79,0,0,1-3.52-.46,3.33,3.33,0,0,1-1.84-1.37,4.47,4.47,0,0,1-.55-2.35h2.17a2.48,2.48,0,0,0,.31,1.32,2,2,0,0,0,1.13.73,8.08,8.08,0,0,0,2.3.25,6.52,6.52,0,0,0,3.1-.54,1.73,1.73,0,0,0,.93-1.61,1.67,1.67,0,0,0-.73-1.46,3.62,3.62,0,0,0-2-.5h-2.17a4.13,4.13,0,0,1-2.66-.74,2.33,2.33,0,0,1-.9-1.87,2.44,2.44,0,0,1,.39-1.31A3.92,3.92,0,0,1,163,30.52,4.19,4.19,0,0,1,161.24,29a4.24,4.24,0,0,1-.56-2.26,4.57,4.57,0,0,1,.69-2.49,4.73,4.73,0,0,1,1.91-1.71,5.91,5.91,0,0,1,2.71-.62,19.76,19.76,0,0,0,2.72-.11,9.14,9.14,0,0,0,1.81-.4,18.45,18.45,0,0,0,1.77-.72Zm-9.12,1.64a3.26,3.26,0,0,0-.74,2.24,3.3,3.3,0,0,0,.75,2.26,2.72,2.72,0,0,0,2.15.85A2.77,2.77,0,0,0,168.2,29a3.34,3.34,0,0,0,.74-2.31q0-3.06-2.95-3.06A2.65,2.65,0,0,0,163.88,24.47Z" style="fill:#6827ab"/><path d="M177.89,16.06a1.61,1.61,0,0,1,.47,1.18,1.55,1.55,0,0,1-.47,1.16,1.69,1.69,0,0,1-1.23.46,1.62,1.62,0,0,1-1.2-.46,1.52,1.52,0,0,1-.48-1.16,1.58,1.58,0,0,1,.48-1.18,1.63,1.63,0,0,1,1.2-.47A1.7,1.7,0,0,1,177.89,16.06Zm0,6.15V36h-2.41V22.21Z" style="fill:#6827ab"/><path d="M192.43,34a1.75,1.75,0,0,0,.86.61l-.55,1.68A3.61,3.61,0,0,1,191,35.7a2.72,2.72,0,0,1-1-1.46,4.61,4.61,0,0,1-4.11,2.07,4.37,4.37,0,0,1-3.21-1.16,4,4,0,0,1-1.18-3,4,4,0,0,1,1.58-3.38,7.45,7.45,0,0,1,4.49-1.17h2.12v-1a2.7,2.7,0,0,0-.71-2.1,3.2,3.2,0,0,0-2.17-.62,12.15,12.15,0,0,0-3.72.73l-.6-1.76a14.08,14.08,0,0,1,4.76-.94,5,5,0,0,1,3.64,1.19,4.58,4.58,0,0,1,1.2,3.39v6.3A2.2,2.2,0,0,0,192.43,34Zm-2.69-1.66V29.19h-1.81q-3.83,0-3.82,2.83a2.57,2.57,0,0,0,.6,1.85,2.36,2.36,0,0,0,1.78.63A3.6,3.6,0,0,0,189.74,32.36Z" style="fill:#6827ab"/><path d="M214.37,29.92h-8.78a5.29,5.29,0,0,0,1.15,3.35,3.3,3.3,0,0,0,2.56,1.07,5.66,5.66,0,0,0,1.83-.28,7.61,7.61,0,0,0,1.75-.92l1.05,1.44a7.64,7.64,0,0,1-4.81,1.73,5.58,5.58,0,0,1-4.49-1.89A7.72,7.72,0,0,1,203,29.24a9.61,9.61,0,0,1,.7-3.8,6,6,0,0,1,2-2.61,5.64,5.64,0,0,1,7.26.87,7.69,7.69,0,0,1,1.47,5C214.43,29.1,214.41,29.5,214.37,29.92ZM212.05,28a5.08,5.08,0,0,0-.82-3.11,2.84,2.84,0,0,0-2.43-1.08q-3,0-3.21,4.34h6.46Z" style="fill:#6827ab"/><path d="M218.91,35.51a3.11,3.11,0,0,1-.77-2.24V16.66l2.41-.29V33.22a1.45,1.45,0,0,0,.19.84.8.8,0,0,0,.67.26,2.28,2.28,0,0,0,.89-.16l.63,1.67a3.9,3.9,0,0,1-1.91.48A2.82,2.82,0,0,1,218.91,35.51Z" style="fill:#6827ab"/><path d="M236.29,29.92H227.5a5.41,5.41,0,0,0,1.15,3.35,3.34,3.34,0,0,0,2.57,1.07,5.66,5.66,0,0,0,1.83-.28,7.61,7.61,0,0,0,1.75-.92l1,1.44A7.65,7.65,0,0,1,231,36.31a5.57,5.57,0,0,1-4.48-1.89,7.72,7.72,0,0,1-1.61-5.18,9.79,9.79,0,0,1,.69-3.8,6,6,0,0,1,2-2.61,5.64,5.64,0,0,1,7.26.87,7.69,7.69,0,0,1,1.46,5C236.34,29.1,236.33,29.5,236.29,29.92ZM234,28a5.08,5.08,0,0,0-.81-3.11,2.84,2.84,0,0,0-2.43-1.08q-3,0-3.22,4.34H234ZM232.81,15l1.08,2-5.55,2.25L227.61,18Z" style="fill:#6827ab"/><path d="M247.15,35.36a5.3,5.3,0,0,1-3.09,1,3.63,3.63,0,0,1-2.73-1,4,4,0,0,1-1-2.92V24.06h-2.41V22.21h2.41V19.1l2.4-.29v3.4H246l-.26,1.85h-3v8.22a2.54,2.54,0,0,0,.38,1.55,1.5,1.5,0,0,0,1.27.49,4,4,0,0,0,1.83-.55Z" style="fill:#6827ab"/><path d="M257,22.05l-.44,2.35a5.2,5.2,0,0,0-1.21-.15,2.54,2.54,0,0,0-2.06.94A6.82,6.82,0,0,0,252,28.12V36h-2.41V22.21h2.07l.23,2.8a5.23,5.23,0,0,1,1.49-2.33,3.36,3.36,0,0,1,2.2-.79A5.83,5.83,0,0,1,257,22.05Z" style="fill:#6827ab"/><path d="M262.13,16.06a1.57,1.57,0,0,1,.47,1.18,1.52,1.52,0,0,1-.47,1.16,1.66,1.66,0,0,1-1.23.46,1.62,1.62,0,0,1-1.2-.46,1.55,1.55,0,0,1-.47-1.16,1.61,1.61,0,0,1,1.67-1.65A1.67,1.67,0,0,1,262.13,16.06Zm0,6.15V36h-2.4V22.21Z" style="fill:#6827ab"/><path d="M274.37,22.25a6.11,6.11,0,0,1,2,1.13l-1.15,1.52a6.05,6.05,0,0,0-1.42-.77,4.39,4.39,0,0,0-1.53-.25,3,3,0,0,0-2.6,1.34,6.86,6.86,0,0,0-.93,3.94,6.54,6.54,0,0,0,.91,3.86,3.05,3.05,0,0,0,2.62,1.25,4.43,4.43,0,0,0,1.49-.25,8.38,8.38,0,0,0,1.52-.8l1.09,1.57a6.55,6.55,0,0,1-4.21,1.52,5.47,5.47,0,0,1-4.4-1.89,7.71,7.71,0,0,1-1.61-5.2,9.38,9.38,0,0,1,.73-3.85,5.9,5.9,0,0,1,2.08-2.56,5.55,5.55,0,0,1,3.2-.92A6.72,6.72,0,0,1,274.37,22.25Z" style="fill:#6827ab"/><path d="M289.18,34a1.75,1.75,0,0,0,.86.61l-.55,1.68a3.66,3.66,0,0,1-1.73-.61,2.76,2.76,0,0,1-1-1.46,4.64,4.64,0,0,1-4.11,2.07,4.41,4.41,0,0,1-3.22-1.16,4,4,0,0,1-1.17-3,4,4,0,0,1,1.58-3.38,7.42,7.42,0,0,1,4.48-1.17h2.12v-1a2.7,2.7,0,0,0-.7-2.1,3.21,3.21,0,0,0-2.18-.62,12.09,12.09,0,0,0-3.71.73l-.6-1.76a14,14,0,0,1,4.76-.94,5,5,0,0,1,3.64,1.19,4.58,4.58,0,0,1,1.2,3.39v6.3A2.12,2.12,0,0,0,289.18,34Zm-2.7-1.66V29.19h-1.8q-3.82,0-3.82,2.83a2.57,2.57,0,0,0,.6,1.85,2.34,2.34,0,0,0,1.78.63A3.58,3.58,0,0,0,286.48,32.36Z" style="fill:#6827ab"/><path d="M299.85,28.82v-2h7.4v2Z" style="fill:#6827ab"/><path d="M327.4,18.08a7.81,7.81,0,0,1,2.26,1.36L328.3,21a5.4,5.4,0,0,0-3.47-1.33,4.42,4.42,0,0,0-3.63,1.72q-1.36,1.72-1.37,5.55t1.36,5.48a4.35,4.35,0,0,0,3.61,1.76,4.81,4.81,0,0,0,2-.39,10.19,10.19,0,0,0,1.83-1.1l1.23,1.57a6.59,6.59,0,0,1-2.14,1.44,7.48,7.48,0,0,1-3,.58A6.93,6.93,0,0,1,318.14,32a12.28,12.28,0,0,1-.95-5.06,11.8,11.8,0,0,1,1-5.06,7.23,7.23,0,0,1,2.7-3.18,6.89,6.89,0,0,1,3.79-1.07A7.76,7.76,0,0,1,327.4,18.08Z" style="fill:#6827ab"/><path d="M342.57,23.83a8,8,0,0,1,1.61,5.26,9.14,9.14,0,0,1-.73,3.78,5.75,5.75,0,0,1-2.12,2.53,5.93,5.93,0,0,1-3.3.91,5.58,5.58,0,0,1-4.52-1.94,7.93,7.93,0,0,1-1.62-5.26,9.14,9.14,0,0,1,.73-3.78,5.69,5.69,0,0,1,2.12-2.53,5.88,5.88,0,0,1,3.32-.91A5.53,5.53,0,0,1,342.57,23.83Zm-8.09,5.28q0,5.27,3.55,5.26t3.56-5.28q0-5.27-3.53-5.26T334.48,29.11Z" style="fill:#6827ab"/><path d="M357.58,23a4.3,4.3,0,0,1,1.06,3.08V36h-2.4V26.44a3.08,3.08,0,0,0-.55-2.06,2.1,2.1,0,0,0-1.62-.6,3.19,3.19,0,0,0-1.94.62,6.5,6.5,0,0,0-1.57,1.81V36h-2.4V22.21h2.06l.21,2a5.46,5.46,0,0,1,1.82-1.73,4.67,4.67,0,0,1,2.39-.63A3.83,3.83,0,0,1,357.58,23Z" style="fill:#6827ab"/><path d="M369.76,22.29a7.62,7.62,0,0,1,2.14,1.17l-1,1.52a8,8,0,0,0-1.79-.89,5.55,5.55,0,0,0-1.79-.29,3.13,3.13,0,0,0-1.86.49,1.54,1.54,0,0,0-.68,1.32,1.56,1.56,0,0,0,.64,1.31,7.68,7.68,0,0,0,2.32.91,8.3,8.3,0,0,1,3.44,1.57,3.42,3.42,0,0,1,1.14,2.72,3.51,3.51,0,0,1-1.59,3.11,6.66,6.66,0,0,1-3.85,1.08,7.65,7.65,0,0,1-5.21-1.81L362.93,33a6.3,6.3,0,0,0,3.87,1.33,3.71,3.71,0,0,0,2.16-.56,1.79,1.79,0,0,0,.8-1.53,2,2,0,0,0-.29-1.14,2.31,2.31,0,0,0-1-.76,13,13,0,0,0-2.07-.69,7.14,7.14,0,0,1-3.18-1.55,3.3,3.3,0,0,1-1-2.45,3.25,3.25,0,0,1,.64-2,4.11,4.11,0,0,1,1.78-1.36,6.51,6.51,0,0,1,2.55-.49A7.48,7.48,0,0,1,369.76,22.29Z" style="fill:#6827ab"/><path d="M386,36h-2.07l-.18-2.14a5.32,5.32,0,0,1-1.8,1.87,4.93,4.93,0,0,1-2.49.59,3.67,3.67,0,0,1-2.82-1.1,4.43,4.43,0,0,1-1-3.12V22.21H378v9.62a3.13,3.13,0,0,0,.5,2,2,2,0,0,0,1.62.59c1.34,0,2.49-.79,3.45-2.38V22.21H386Z" style="fill:#6827ab"/><path d="M407.47,23a4.43,4.43,0,0,1,1,3.07V36h-2.4V26.44c0-1.77-.65-2.66-1.94-2.66a2.55,2.55,0,0,0-1.72.59,8.08,8.08,0,0,0-1.52,1.84V36H398.5V26.44c0-1.77-.64-2.66-1.93-2.66a2.6,2.6,0,0,0-1.75.6,8.14,8.14,0,0,0-1.5,1.83V36h-2.4V22.21H393l.21,2a4.63,4.63,0,0,1,4-2.33,3.59,3.59,0,0,1,2.18.66,3.49,3.49,0,0,1,1.3,1.83,6.61,6.61,0,0,1,1.79-1.85,4.19,4.19,0,0,1,2.31-.64A3.46,3.46,0,0,1,407.47,23Z" style="fill:#6827ab"/><path d="M423,23.83a7.93,7.93,0,0,1,1.61,5.26,9.14,9.14,0,0,1-.73,3.78,5.69,5.69,0,0,1-2.12,2.53,5.9,5.9,0,0,1-3.29.91A5.59,5.59,0,0,1,414,34.37a7.93,7.93,0,0,1-1.62-5.26,9.14,9.14,0,0,1,.73-3.78,5.75,5.75,0,0,1,2.12-2.53,5.88,5.88,0,0,1,3.32-.91A5.53,5.53,0,0,1,423,23.83Zm-8.09,5.28c0,3.51,1.18,5.26,3.56,5.26S422,32.61,422,29.09s-1.17-5.26-3.53-5.26S414.93,25.59,414.93,29.11Z" style="fill:#6827ab"/><path d="M445.43,18l-.29,2h-7v5.88h6.07v2h-6.07V34h7.48v2h-10V18Z" style="fill:#6827ab"/><path d="M455.81,22.29A7.62,7.62,0,0,1,458,23.46l-1,1.52a8,8,0,0,0-1.79-.89,5.6,5.6,0,0,0-1.79-.29,3.11,3.11,0,0,0-1.86.49,1.54,1.54,0,0,0-.68,1.32,1.56,1.56,0,0,0,.64,1.31,7.68,7.68,0,0,0,2.32.91,8.3,8.3,0,0,1,3.44,1.57,3.42,3.42,0,0,1,1.14,2.72,3.51,3.51,0,0,1-1.59,3.11,6.66,6.66,0,0,1-3.85,1.08,7.65,7.65,0,0,1-5.21-1.81L449,33a6.3,6.3,0,0,0,3.87,1.33,3.71,3.71,0,0,0,2.16-.56,1.79,1.79,0,0,0,.8-1.53,2,2,0,0,0-.29-1.14,2.31,2.31,0,0,0-1-.76,13,13,0,0,0-2.07-.69,7.14,7.14,0,0,1-3.18-1.55,3.3,3.3,0,0,1-1-2.45,3.25,3.25,0,0,1,.64-2,4.11,4.11,0,0,1,1.78-1.36,6.51,6.51,0,0,1,2.55-.49A7.48,7.48,0,0,1,455.81,22.29Z" style="fill:#6827ab"/><path d="M472,23.78a9.66,9.66,0,0,1,1.23,5.31,8.87,8.87,0,0,1-1.42,5.23,4.62,4.62,0,0,1-4,2,4.47,4.47,0,0,1-3.61-1.57v6.53l-2.4.29V22.21h2.06l.18,1.85a5.3,5.3,0,0,1,1.84-1.6,4.7,4.7,0,0,1,2.25-.57A4.28,4.28,0,0,1,472,23.78Zm-1.36,5.31q0-5.3-3.12-5.29a3.08,3.08,0,0,0-1.85.6A6.06,6.06,0,0,0,464.15,26v6.72a3.69,3.69,0,0,0,1.31,1.24,3.5,3.5,0,0,0,1.73.43C469.45,34.34,470.59,32.59,470.59,29.09Z" style="fill:#6827ab"/><path d="M487.64,29.92h-8.79A5.41,5.41,0,0,0,480,33.27a3.32,3.32,0,0,0,2.56,1.07,5.68,5.68,0,0,0,1.84-.28,7.82,7.82,0,0,0,1.75-.92l1,1.44a7.6,7.6,0,0,1-4.81,1.73,5.55,5.55,0,0,1-4.48-1.89,7.67,7.67,0,0,1-1.61-5.18,9.79,9.79,0,0,1,.69-3.8,6,6,0,0,1,2-2.61,5.64,5.64,0,0,1,7.26.87,7.74,7.74,0,0,1,1.46,5C487.69,29.1,487.67,29.5,487.64,29.92ZM485.31,28a5.08,5.08,0,0,0-.81-3.11,2.84,2.84,0,0,0-2.43-1.08c-2,0-3.05,1.45-3.22,4.34h6.46Z" style="fill:#6827ab"/><path d="M498.81,22.25a6.22,6.22,0,0,1,2,1.13l-1.15,1.52a6.11,6.11,0,0,0-1.43-.77,4.39,4.39,0,0,0-1.53-.25,3,3,0,0,0-2.6,1.34,6.86,6.86,0,0,0-.93,3.94,6.53,6.53,0,0,0,.92,3.86,3,3,0,0,0,2.61,1.25,4.43,4.43,0,0,0,1.49-.25,8.07,8.07,0,0,0,1.52-.8l1.1,1.57a6.57,6.57,0,0,1-4.21,1.52,5.48,5.48,0,0,1-4.41-1.89,7.76,7.76,0,0,1-1.61-5.2,9.55,9.55,0,0,1,.73-3.85,6,6,0,0,1,2.08-2.56,5.59,5.59,0,0,1,3.21-.92A6.72,6.72,0,0,1,498.81,22.25Z" style="fill:#6827ab"/><path d="M507.31,15l1.07,2-5.55,2.25L502.1,18Zm-.87,7.17V36H504V22.21Z" style="fill:#6827ab"/><path d="M518.15,16.61a8.77,8.77,0,0,1,1.82.71L519.13,19a6.58,6.58,0,0,0-2.9-.65,2.79,2.79,0,0,0-1.91.49,2.06,2.06,0,0,0-.53,1.55v1.83h7.69V36h-2.4V24.06h-5.29V36h-2.4V24.06h-2.2V22.21h2.2V20.4a3.84,3.84,0,0,1,1.17-2.93,5.12,5.12,0,0,1,3.59-1.1A7.78,7.78,0,0,1,518.15,16.61Z" style="fill:#6827ab"/><path d="M533.72,22.25a6.26,6.26,0,0,1,2,1.13l-1.16,1.52a5.86,5.86,0,0,0-1.42-.77,4.39,4.39,0,0,0-1.53-.25,3,3,0,0,0-2.6,1.34,6.86,6.86,0,0,0-.93,3.94A6.54,6.54,0,0,0,529,33a3.07,3.07,0,0,0,2.62,1.25,4.43,4.43,0,0,0,1.49-.25,8.38,8.38,0,0,0,1.52-.8l1.1,1.57a6.57,6.57,0,0,1-4.22,1.52,5.47,5.47,0,0,1-4.4-1.89,7.71,7.71,0,0,1-1.61-5.2,9.38,9.38,0,0,1,.73-3.85,5.9,5.9,0,0,1,2.08-2.56,5.58,5.58,0,0,1,3.2-.92A6.72,6.72,0,0,1,533.72,22.25Z" style="fill:#6827ab"/><path d="M548.65,23.83a8,8,0,0,1,1.6,5.26,9.14,9.14,0,0,1-.73,3.78,5.69,5.69,0,0,1-2.12,2.53,5.9,5.9,0,0,1-3.29.91,5.59,5.59,0,0,1-4.53-1.94A7.93,7.93,0,0,1,538,29.11a9.14,9.14,0,0,1,.73-3.78,5.75,5.75,0,0,1,2.12-2.53,5.9,5.9,0,0,1,3.32-.91A5.57,5.57,0,0,1,548.65,23.83Zm-8.1,5.28q0,5.27,3.56,5.26t3.55-5.28c0-3.51-1.17-5.26-3.53-5.26S540.55,25.59,540.55,29.11Z" style="fill:#6827ab"/><path d="M560.24,28.82v-2h7.41v2Z" style="fill:#6827ab"/><path d="M589.72,27.78a3.84,3.84,0,0,1,1.15,3.08q0,5.13-7.14,5.13h-5V18H583a10,10,0,0,1,5.24,1.13,3.74,3.74,0,0,1,1.82,3.42,3.7,3.7,0,0,1-1,2.62,4.45,4.45,0,0,1-2.4,1.33A6.08,6.08,0,0,1,589.72,27.78Zm-8.47-7.85v5.68H584a4.19,4.19,0,0,0,2.57-.76,2.54,2.54,0,0,0,1-2.15,2.29,2.29,0,0,0-1.06-2.17,6.65,6.65,0,0,0-3.2-.6Zm5.84,13.42a2.59,2.59,0,0,0,1.17-2.49,2.9,2.9,0,0,0-1.13-2.56,5,5,0,0,0-2.93-.78h-3V34h2.48A6.9,6.9,0,0,0,587.09,33.35Z" style="fill:#6827ab"/><path d="M604.11,34a1.75,1.75,0,0,0,.86.61l-.55,1.68a3.7,3.7,0,0,1-1.73-.61,2.76,2.76,0,0,1-1-1.46,4.64,4.64,0,0,1-4.11,2.07,4.41,4.41,0,0,1-3.22-1.16,4,4,0,0,1-1.17-3,4,4,0,0,1,1.58-3.38,7.42,7.42,0,0,1,4.48-1.17h2.12v-1a2.7,2.7,0,0,0-.7-2.1,3.2,3.2,0,0,0-2.17-.62,12.09,12.09,0,0,0-3.72.73l-.6-1.76a14.08,14.08,0,0,1,4.76-.94,5,5,0,0,1,3.64,1.19,4.58,4.58,0,0,1,1.2,3.39v6.3A2.12,2.12,0,0,0,604.11,34Zm-2.7-1.66V29.19h-1.8q-3.83,0-3.82,2.83a2.57,2.57,0,0,0,.6,1.85,2.34,2.34,0,0,0,1.78.63A3.58,3.58,0,0,0,601.41,32.36Z" style="fill:#6827ab"/><path d="M615,22.29a7.62,7.62,0,0,1,2.14,1.17l-1,1.52a8,8,0,0,0-1.79-.89,5.55,5.55,0,0,0-1.79-.29,3.13,3.13,0,0,0-1.86.49,1.54,1.54,0,0,0-.68,1.32,1.56,1.56,0,0,0,.64,1.31,7.68,7.68,0,0,0,2.32.91,8.3,8.3,0,0,1,3.44,1.57,3.42,3.42,0,0,1,1.14,2.72A3.51,3.51,0,0,1,616,35.23a6.66,6.66,0,0,1-3.85,1.08,7.65,7.65,0,0,1-5.21-1.81L608.21,33a6.3,6.3,0,0,0,3.87,1.33,3.71,3.71,0,0,0,2.16-.56,1.79,1.79,0,0,0,.8-1.53,2,2,0,0,0-.29-1.14,2.31,2.31,0,0,0-1-.76,13,13,0,0,0-2.07-.69,7.14,7.14,0,0,1-3.18-1.55,3.3,3.3,0,0,1-1-2.45,3.25,3.25,0,0,1,.64-2A4.11,4.11,0,0,1,610,22.38a6.51,6.51,0,0,1,2.55-.49A7.48,7.48,0,0,1,615,22.29Z" style="fill:#6827ab"/><path d="M631.33,29.92h-8.78a5.29,5.29,0,0,0,1.15,3.35,3.3,3.3,0,0,0,2.56,1.07,5.66,5.66,0,0,0,1.83-.28,7.61,7.61,0,0,0,1.75-.92l1,1.44a7.64,7.64,0,0,1-4.81,1.73,5.58,5.58,0,0,1-4.49-1.89A7.72,7.72,0,0,1,620,29.24a9.61,9.61,0,0,1,.7-3.8,6,6,0,0,1,2-2.61,5.64,5.64,0,0,1,7.26.87,7.69,7.69,0,0,1,1.47,5C631.39,29.1,631.37,29.5,631.33,29.92ZM629,28a5.08,5.08,0,0,0-.82-3.11,2.84,2.84,0,0,0-2.43-1.08q-3,0-3.21,4.34H629Z" style="fill:#6827ab"/><path d="M651.33,18.08a7.94,7.94,0,0,1,2.26,1.36L652.23,21a5.45,5.45,0,0,0-3.48-1.33,4.4,4.4,0,0,0-3.62,1.72c-.92,1.15-1.37,3-1.37,5.55s.45,4.3,1.36,5.48a4.34,4.34,0,0,0,3.61,1.76,4.84,4.84,0,0,0,2-.39,10.19,10.19,0,0,0,1.83-1.1l1.23,1.57a6.59,6.59,0,0,1-2.14,1.44,7.52,7.52,0,0,1-3,.58A6.93,6.93,0,0,1,642.07,32a12.12,12.12,0,0,1-1-5.06,11.8,11.8,0,0,1,1-5.06,7.27,7.27,0,0,1,2.69-3.18,7,7,0,0,1,3.8-1.07A7.76,7.76,0,0,1,651.33,18.08Z" style="fill:#6827ab"/><path d="M657.45,35.51a3.06,3.06,0,0,1-.77-2.24V16.66l2.4-.29V33.22a1.44,1.44,0,0,0,.2.84.79.79,0,0,0,.67.26,2.31,2.31,0,0,0,.89-.16l.62,1.67a3.84,3.84,0,0,1-1.91.48A2.8,2.8,0,0,1,657.45,35.51Z" style="fill:#6827ab"/><path d="M674.16,23.83a8,8,0,0,1,1.61,5.26,9.14,9.14,0,0,1-.73,3.78,5.75,5.75,0,0,1-2.12,2.53,5.91,5.91,0,0,1-3.3.91,5.58,5.58,0,0,1-4.52-1.94,7.93,7.93,0,0,1-1.62-5.26,9.14,9.14,0,0,1,.73-3.78,5.69,5.69,0,0,1,2.12-2.53,5.88,5.88,0,0,1,3.32-.91A5.53,5.53,0,0,1,674.16,23.83Zm-8.09,5.28q0,5.27,3.55,5.26c2.38,0,3.56-1.76,3.56-5.28s-1.18-5.26-3.53-5.26S666.07,25.59,666.07,29.11Z" style="fill:#6827ab"/><path d="M687.1,22.05l-.45,2.35a5.18,5.18,0,0,0-1.2-.15,2.56,2.56,0,0,0-2.07.94,7.07,7.07,0,0,0-1.23,2.93V36h-2.4V22.21h2.06l.24,2.8a5.14,5.14,0,0,1,1.49-2.33,3.36,3.36,0,0,1,2.2-.79A5.89,5.89,0,0,1,687.1,22.05Z" style="fill:#6827ab"/><path d="M699.53,23.83a8,8,0,0,1,1.61,5.26,9.14,9.14,0,0,1-.73,3.78,5.75,5.75,0,0,1-2.12,2.53,5.91,5.91,0,0,1-3.3.91,5.58,5.58,0,0,1-4.52-1.94,7.93,7.93,0,0,1-1.62-5.26,9.14,9.14,0,0,1,.73-3.78,5.69,5.69,0,0,1,2.12-2.53,5.88,5.88,0,0,1,3.32-.91A5.53,5.53,0,0,1,699.53,23.83Zm-8.09,5.28q0,5.27,3.55,5.26c2.38,0,3.56-1.76,3.56-5.28s-1.17-5.26-3.53-5.26S691.44,25.59,691.44,29.11Z" style="fill:#6827ab"/></g></g></svg>