<svg xmlns="http://www.w3.org/2000/svg" viewBox="0 0 730 420.35"><title>fig-2-4</title><g id="fig-2-4"><rect x="199.91" y="32.86" width="211.55" height="14.49" style="fill:#874cd3"/><rect x="199.91" y="70.27" width="227.41" height="14.49" style="fill:#874cd3"/><rect x="199.91" y="108.12" width="47.56" height="14.49" style="fill:#874cd3"/><rect x="199.91" y="145.65" width="146.61" height="14.49" style="fill:#874cd3"/><rect x="199.91" y="182.96" width="409.75" height="14.49" style="fill:#874cd3"/><rect x="199.91" y="220.58" width="116.21" height="14.49" style="fill:#874cd3"/><rect x="199.93" y="258.33" width="358.58" height="14.49" style="fill:#874cd3"/><rect x="199.93" y="295.74" width="47.54" height="14.49" style="fill:#874cd3"/><rect x="199.93" y="333.15" width="64.05" height="14.49" style="fill:#874cd3"/><g id="preto"><path d="M691.85,366.72h-.5v-5.36H528v5.36h-.5v-5.36H446v5.36h-.5v-5.36H364.07v5.36h-.5v-5.36H282.13v5.36h-.5v-5.36H194.91v-.5h86.72V22.78H199.91v.08h-5v-.08h-.13v-.5h86.85v-.4h.5v.4h81.44v-.4h.5v.4h81.45v-.4h.5v.4h81.44v-.4h.5v.4H691.35v-.4h.5ZM528,360.86H691.35V22.78H528Zm-81.94,0h81.44V22.78H446Zm-81.95,0h81.45V22.78H364.07Zm-81.94,0h81.44V22.78H282.13Zm-82.22-37.12h-5v-.5h5Zm0-37.6h-5v-.5h5Zm0-37.61h-5V248h5Zm0-37.62h-5v-.5h5Zm0-37.61h-5v-.5h5Zm0-37.61h-5v-.5h5Zm0-37.61h-5v-.5h5Zm0-37.61h-5V60h5Z" style="fill:#1d1d1b"/><path d="M107.58,37.45q1.53,1.19,1.53,4.35c0,2.06-.51,3.52-1.53,4.37a5.66,5.66,0,0,1-3.71,1.27h-2.68V36.28h2.33A6.5,6.5,0,0,1,107.58,37.45Zm-4.85.06v8.71H104a3.46,3.46,0,0,0,2.52-.95,4.81,4.81,0,0,0,1-3.47,5.83,5.83,0,0,0-.51-2.71,2.56,2.56,0,0,0-1.28-1.26,4.78,4.78,0,0,0-1.82-.32Z" style="fill:#1d1d1b"/><path d="M113,35.1a1,1,0,0,1,.29.73,1,1,0,0,1-.29.72,1.16,1.16,0,0,1-1.51,0,1,1,0,0,1-.29-.72,1,1,0,0,1,1-1A1,1,0,0,1,113,35.1Zm0,3.8v8.54h-1.49V38.9Z" style="fill:#1d1d1b"/><path d="M120,39a4.84,4.84,0,0,1,1.33.73l-.63.94a5.18,5.18,0,0,0-1.11-.55,3.4,3.4,0,0,0-1.11-.18,1.94,1.94,0,0,0-1.15.3,1,1,0,0,0,0,1.63,4.59,4.59,0,0,0,1.43.56,5.16,5.16,0,0,1,2.13,1,2.11,2.11,0,0,1,.7,1.68,2.18,2.18,0,0,1-1,1.93,4.17,4.17,0,0,1-2.39.66A4.7,4.7,0,0,1,115,46.51l.8-.9a3.85,3.85,0,0,0,2.39.82,2.24,2.24,0,0,0,1.34-.35,1.08,1.08,0,0,0,.49-.94,1.27,1.27,0,0,0-.18-.71,1.47,1.47,0,0,0-.61-.47,10.34,10.34,0,0,0-1.28-.43,4.31,4.31,0,0,1-2-1,2.07,2.07,0,0,1-.61-1.52,2,2,0,0,1,.4-1.21,2.61,2.61,0,0,1,1.1-.84,4,4,0,0,1,1.58-.3A4.79,4.79,0,0,1,120,39Z" style="fill:#1d1d1b"/><path d="M128,47.05a3.24,3.24,0,0,1-1.91.58,2.28,2.28,0,0,1-1.69-.62,2.52,2.52,0,0,1-.61-1.81V40.05h-1.49V38.9h1.49V37l1.49-.18v2.1h2l-.16,1.15h-1.87v5.09a1.54,1.54,0,0,0,.24,1,.93.93,0,0,0,.78.3,2.41,2.41,0,0,0,1.14-.34Z" style="fill:#1d1d1b"/><path d="M134.06,38.81l-.27,1.45a3.33,3.33,0,0,0-.75-.09,1.59,1.59,0,0,0-1.28.58,4.46,4.46,0,0,0-.76,1.81v4.88h-1.49V38.9h1.28l.15,1.74a3.22,3.22,0,0,1,.92-1.45,2.07,2.07,0,0,1,1.36-.48A3.22,3.22,0,0,1,134.06,38.81Z" style="fill:#1d1d1b"/><path d="M137.25,35.1a1,1,0,0,1,.29.73.94.94,0,0,1-.29.72,1,1,0,0,1-.76.28,1,1,0,0,1-.74-.28,1,1,0,0,1-.3-.72,1,1,0,0,1,1-1A1,1,0,0,1,137.25,35.1Zm0,3.8v8.54h-1.49V38.9Z" style="fill:#1d1d1b"/><path d="M146.55,39.88a5.51,5.51,0,0,1,.85,3.28,6.23,6.23,0,0,1-.4,2.34,3.45,3.45,0,0,1-1.17,1.57,2.93,2.93,0,0,1-1.78.56,2.82,2.82,0,0,1-2.26-1.13l-.15.94h-1.31v-12l1.49-.18V40a2.85,2.85,0,0,1,2.41-1.26A2.74,2.74,0,0,1,146.55,39.88Zm-1.31,5.77a4.45,4.45,0,0,0,.56-2.49,4.57,4.57,0,0,0-.52-2.5,1.66,1.66,0,0,0-1.47-.77,2.4,2.4,0,0,0-2,1.33V45.3a2.47,2.47,0,0,0,.83.84,1.92,1.92,0,0,0,1,.31A1.79,1.79,0,0,0,145.24,45.65Z" style="fill:#1d1d1b"/><path d="M156.29,47.44H155l-.11-1.33a3.29,3.29,0,0,1-1.12,1.16,3,3,0,0,1-1.53.36A2.27,2.27,0,0,1,150.5,47a2.72,2.72,0,0,1-.64-1.93V38.9h1.49v6a2,2,0,0,0,.31,1.24,1.27,1.27,0,0,0,1,.36A2.52,2.52,0,0,0,154.8,45V38.9h1.49Z" style="fill:#1d1d1b"/><path d="M160.86,35.1a1,1,0,0,1,.29.73,1,1,0,0,1-.29.72,1.05,1.05,0,0,1-.76.28,1,1,0,0,1-.75-.28,1,1,0,0,1-.29-.72,1,1,0,0,1,1-1A1,1,0,0,1,160.86,35.1Zm0,3.8v8.54h-1.49V38.9Z" style="fill:#1d1d1b"/><path d="M167.38,47.61v.73a1.77,1.77,0,0,1,1.15.45,1.29,1.29,0,0,1,.36.93,1.4,1.4,0,0,1-.57,1.2,2.34,2.34,0,0,1-1.44.42,3.22,3.22,0,0,1-.84-.11,1.84,1.84,0,0,1-.63-.28l.4-.84a2.21,2.21,0,0,0,1,.26.94.94,0,0,0,.59-.16.59.59,0,0,0-.12-1,2.64,2.64,0,0,0-1.1-.17l.18-1.46a3.25,3.25,0,0,1-2.25-1.36,5,5,0,0,1-.81-3,5.88,5.88,0,0,1,.45-2.38,3.63,3.63,0,0,1,1.29-1.58,3.44,3.44,0,0,1,2-.57,4.15,4.15,0,0,1,1.4.22,3.84,3.84,0,0,1,1.21.7l-.71.94a4.29,4.29,0,0,0-.88-.48,2.91,2.91,0,0,0-.95-.15,1.83,1.83,0,0,0-1.61.83,4.21,4.21,0,0,0-.58,2.44,4,4,0,0,0,.57,2.39,1.9,1.9,0,0,0,1.62.77,2.51,2.51,0,0,0,.92-.16,4.5,4.5,0,0,0,.94-.49l.68,1A4,4,0,0,1,167.38,47.61Z" style="fill:#1d1d1b"/><path d="M177.6,46.21a1.06,1.06,0,0,0,.53.38l-.34,1a2.26,2.26,0,0,1-1.06-.37,1.74,1.74,0,0,1-.6-.91,2.88,2.88,0,0,1-2.55,1.28,2.75,2.75,0,0,1-2-.71,2.52,2.52,0,0,1-.72-1.86,2.44,2.44,0,0,1,1-2.09,4.57,4.57,0,0,1,2.78-.73h1.31v-.63a1.67,1.67,0,0,0-.43-1.3,2,2,0,0,0-1.35-.39,7.38,7.38,0,0,0-2.3.46l-.37-1.09a8.56,8.56,0,0,1,3-.58,3.05,3.05,0,0,1,2.25.74,2.83,2.83,0,0,1,.74,2.09v3.9A1.3,1.3,0,0,0,177.6,46.21Zm-2.86-9.51a3.83,3.83,0,0,1-.56-.32,2.4,2.4,0,0,0-.41-.26.72.72,0,0,0-.35-.08.64.64,0,0,0-.45.18,1.8,1.8,0,0,0-.4.56l-.91-.45a3.06,3.06,0,0,1,.75-1,1.51,1.51,0,0,1,1-.39A1.22,1.22,0,0,1,174,35a5.3,5.3,0,0,1,.55.33l.2.13.28.14a.6.6,0,0,0,.26,0,.67.67,0,0,0,.44-.17,2.2,2.2,0,0,0,.42-.54l.91.45a2.76,2.76,0,0,1-.76,1,1.59,1.59,0,0,1-1,.35A1.3,1.3,0,0,1,174.74,36.7Zm1.19,8.49v-2h-1.11c-1.58,0-2.37.58-2.37,1.75a1.61,1.61,0,0,0,.37,1.14,1.47,1.47,0,0,0,1.11.39A2.21,2.21,0,0,0,175.93,45.19Z" style="fill:#1d1d1b"/><path d="M186.48,39.91a4.9,4.9,0,0,1,1,3.25A5.52,5.52,0,0,1,187,45.5a3.45,3.45,0,0,1-1.31,1.57,3.67,3.67,0,0,1-2,.56,3.45,3.45,0,0,1-2.8-1.2,4.9,4.9,0,0,1-1-3.25,5.68,5.68,0,0,1,.45-2.34,3.51,3.51,0,0,1,1.31-1.57,3.71,3.71,0,0,1,2.06-.56A3.41,3.41,0,0,1,186.48,39.91Zm-5,3.27c0,2.17.73,3.25,2.2,3.25s2.2-1.09,2.2-3.27-.72-3.25-2.18-3.25S181.47,41,181.47,43.18Z" style="fill:#1d1d1b"/><path d="M121.71,84.94h-1.49l-.39-5c-.16-2-.25-3.5-.28-4.55l-2.41,8.32H115.7l-2.54-8.34q0,2-.21,4.68l-.37,4.92h-1.46L112,73.78h2.07l2.35,8.12,2.24-8.12h2.09Z" style="fill:#1d1d1b"/><path d="M130.66,81.18h-5.44a3.4,3.4,0,0,0,.71,2.08,2.07,2.07,0,0,0,1.59.66,3.39,3.39,0,0,0,1.13-.18,4.52,4.52,0,0,0,1.09-.56l.65.89a4.74,4.74,0,0,1-3,1.07A3.45,3.45,0,0,1,124.63,84a4.82,4.82,0,0,1-1-3.21,6.15,6.15,0,0,1,.43-2.35,3.74,3.74,0,0,1,1.23-1.61,3.15,3.15,0,0,1,1.89-.59,3.2,3.2,0,0,1,2.61,1.12,4.82,4.82,0,0,1,.9,3.09C130.69,80.67,130.68,80.93,130.66,81.18ZM129.22,80a3.18,3.18,0,0,0-.5-1.93,1.79,1.79,0,0,0-1.51-.66c-1.22,0-1.88.89-2,2.68h4Z" style="fill:#1d1d1b"/><path d="M137.38,84.55a3.27,3.27,0,0,1-1.91.59,2.23,2.23,0,0,1-1.69-.63,2.45,2.45,0,0,1-.61-1.8V77.56h-1.49V76.41h1.49V74.48l1.49-.18v2.11h2l-.17,1.15h-1.86v5.08a1.52,1.52,0,0,0,.24,1,.89.89,0,0,0,.78.3,2.44,2.44,0,0,0,1.14-.34Z" style="fill:#1d1d1b"/><path d="M144.85,83.72a1,1,0,0,0,.53.38l-.34,1a2.3,2.3,0,0,1-1.07-.38,1.67,1.67,0,0,1-.6-.9,2.87,2.87,0,0,1-2.54,1.28,2.72,2.72,0,0,1-2-.72,2.73,2.73,0,0,1,.25-4,4.62,4.62,0,0,1,2.78-.73h1.31v-.63a1.66,1.66,0,0,0-.44-1.29,2,2,0,0,0-1.34-.39,7.51,7.51,0,0,0-2.3.45l-.37-1.08a8.53,8.53,0,0,1,2.94-.59,3.06,3.06,0,0,1,2.25.74,2.81,2.81,0,0,1,.75,2.1V83A1.35,1.35,0,0,0,144.85,83.72Zm-1.67-1v-2h-1.12c-1.57,0-2.36.58-2.36,1.75a1.59,1.59,0,0,0,.37,1.15,1.46,1.46,0,0,0,1.1.39A2.23,2.23,0,0,0,143.18,82.69Z" style="fill:#1d1d1b"/><path d="M148.12,84.64a1.94,1.94,0,0,1-.47-1.38V73l1.49-.18V83.22a.89.89,0,0,0,.12.52.48.48,0,0,0,.41.16,1.55,1.55,0,0,0,.55-.09l.39,1a2.38,2.38,0,0,1-1.18.3A1.75,1.75,0,0,1,148.12,84.64Z" style="fill:#1d1d1b"/><path d="M158.82,84.94h-1.28l-.11-1.33a3.29,3.29,0,0,1-1.12,1.16,3.05,3.05,0,0,1-1.54.37,2.29,2.29,0,0,1-1.75-.68,2.75,2.75,0,0,1-.63-1.93V76.41h1.49v6a1.88,1.88,0,0,0,.31,1.23,1.22,1.22,0,0,0,1,.37,2.54,2.54,0,0,0,2.14-1.47V76.41h1.49Z" style="fill:#1d1d1b"/><path d="M166.45,76.31l-.28,1.46a2.85,2.85,0,0,0-.74-.1,1.6,1.6,0,0,0-1.28.58,4.25,4.25,0,0,0-.76,1.82v4.87H161.9V76.41h1.27l.15,1.73a3.29,3.29,0,0,1,.92-1.44,2.1,2.1,0,0,1,1.36-.49A3.74,3.74,0,0,1,166.45,76.31Z" style="fill:#1d1d1b"/><path d="M175,76.8A5.63,5.63,0,0,1,174,77c-.39,0-.87,0-1.43,0A2.24,2.24,0,0,1,174,79.21a2.71,2.71,0,0,1-.88,2.09,3.34,3.34,0,0,1-2.37.81A3.83,3.83,0,0,1,169.7,82a.93.93,0,0,0-.31.34,1.06,1.06,0,0,0-.11.45c0,.46.37.7,1.12.7h1.36a3.65,3.65,0,0,1,1.52.3,2.62,2.62,0,0,1,1,.84,2.29,2.29,0,0,1-.66,3.14,5.41,5.41,0,0,1-3,.67,7,7,0,0,1-2.18-.28,2.13,2.13,0,0,1-1.14-.85A2.89,2.89,0,0,1,167,85.8h1.35a1.51,1.51,0,0,0,.19.82,1.19,1.19,0,0,0,.7.45,5.19,5.19,0,0,0,1.42.15,4.07,4.07,0,0,0,1.92-.33,1.07,1.07,0,0,0,.57-1,1,1,0,0,0-.45-.91,2.17,2.17,0,0,0-1.26-.31h-1.34a2.52,2.52,0,0,1-1.65-.46,1.46,1.46,0,0,1-.31-2,2.27,2.27,0,0,1,.69-.69,2.46,2.46,0,0,1-1.44-2.37,2.82,2.82,0,0,1,.43-1.54A3,3,0,0,1,169,76.59a3.71,3.71,0,0,1,1.68-.38,11.82,11.82,0,0,0,1.68-.07,6.1,6.1,0,0,0,1.13-.24,11.76,11.76,0,0,0,1.09-.45Zm-5.65,1a2.05,2.05,0,0,0-.46,1.38,2,2,0,0,0,.47,1.4,2,2,0,0,0,2.67,0,2.1,2.1,0,0,0,.46-1.43c0-1.27-.61-1.9-1.83-1.9A1.67,1.67,0,0,0,169.38,77.81Z" style="fill:#1d1d1b"/><path d="M178.05,72.6a1,1,0,0,1,.3.73,1,1,0,0,1-.3.72,1,1,0,0,1-.76.29,1,1,0,0,1-.74-.29.94.94,0,0,1-.29-.72,1,1,0,0,1,.29-.73,1,1,0,0,1,.74-.29A1,1,0,0,1,178.05,72.6Zm0,3.81v8.53h-1.48V76.41Z" style="fill:#1d1d1b"/><path d="M187.06,83.72a1.07,1.07,0,0,0,.53.38l-.34,1a2.3,2.3,0,0,1-1.07-.38,1.67,1.67,0,0,1-.6-.9A2.87,2.87,0,0,1,183,85.14a2.72,2.72,0,0,1-2-.72,2.73,2.73,0,0,1,.25-4,4.62,4.62,0,0,1,2.78-.73h1.31v-.63a1.66,1.66,0,0,0-.44-1.29,2,2,0,0,0-1.34-.39,7.57,7.57,0,0,0-2.3.45l-.37-1.08a8.58,8.58,0,0,1,2.94-.59,3.06,3.06,0,0,1,2.25.74,2.81,2.81,0,0,1,.75,2.1V83A1.35,1.35,0,0,0,187.06,83.72Zm-1.67-1v-2h-1.12c-1.57,0-2.36.58-2.36,1.75a1.59,1.59,0,0,0,.37,1.15,1.46,1.46,0,0,0,1.1.39A2.23,2.23,0,0,0,185.39,82.69Z" style="fill:#1d1d1b"/><path d="M113.56,298.81l-.18,1.23h-4.32v3.64h3.76v1.23h-3.76v3.82h4.63V310h-6.17V298.81Z" style="fill:#1d1d1b"/><path d="M119.38,305.4l3,4.56h-1.8l-2.09-3.61L116.33,310h-1.68l3-4.5-2.64-4h1.75l1.78,3.13,1.8-3.13H122Z" style="fill:#1d1d1b"/><path d="M130.27,302.4a6,6,0,0,1,.76,3.29,5.5,5.5,0,0,1-.87,3.24,2.86,2.86,0,0,1-2.48,1.23,2.76,2.76,0,0,1-2.23-1v4l-1.49.18v-12h1.28l.11,1.15a3.36,3.36,0,0,1,1.13-1,3,3,0,0,1,1.4-.34A2.63,2.63,0,0,1,130.27,302.4Zm-.84,3.29c0-2.18-.64-3.27-1.93-3.27a1.92,1.92,0,0,0-1.15.37,3.77,3.77,0,0,0-.9,1v4.16a2.21,2.21,0,0,0,.81.77,2.26,2.26,0,0,0,1.07.26C128.73,308.94,129.43,307.86,129.43,305.69Z" style="fill:#1d1d1b"/><path d="M139.57,302.43a4.92,4.92,0,0,1,1,3.26,5.75,5.75,0,0,1-.45,2.34,3.63,3.63,0,0,1-1.31,1.57,3.71,3.71,0,0,1-2,.56A3.47,3.47,0,0,1,134,309a4.9,4.9,0,0,1-1-3.25,5.68,5.68,0,0,1,.45-2.34,3.61,3.61,0,0,1,1.32-1.58,3.67,3.67,0,0,1,2.05-.55A3.44,3.44,0,0,1,139.57,302.43Zm-5,3.28c0,2.16.74,3.25,2.21,3.25s2.2-1.09,2.2-3.27-.73-3.26-2.19-3.26S134.56,303.52,134.56,305.71Z" style="fill:#1d1d1b"/><path d="M147.58,301.33l-.27,1.46a3.37,3.37,0,0,0-.75-.1,1.59,1.59,0,0,0-1.28.59,4.27,4.27,0,0,0-.76,1.81V310H143v-8.53h1.28l.15,1.73a3.24,3.24,0,0,1,.92-1.44,2.07,2.07,0,0,1,1.36-.48A3.73,3.73,0,0,1,147.58,301.33Z" style="fill:#1d1d1b"/><path d="M153.59,309.57a3.27,3.27,0,0,1-1.91.59,2.22,2.22,0,0,1-1.69-.63,2.44,2.44,0,0,1-.61-1.8v-5.15h-1.49v-1.15h1.49V299.5l1.49-.17v2.1h2l-.16,1.15h-1.86v5.08a1.63,1.63,0,0,0,.23,1,1,1,0,0,0,.79.3,2.53,2.53,0,0,0,1.13-.34Z" style="fill:#1d1d1b"/><path d="M161.05,308.74a1,1,0,0,0,.54.38l-.34,1a2.37,2.37,0,0,1-1.07-.37,1.74,1.74,0,0,1-.6-.91,2.87,2.87,0,0,1-2.54,1.28,2.74,2.74,0,0,1-2-.71,2.49,2.49,0,0,1-.73-1.87,2.44,2.44,0,0,1,1-2.09,4.61,4.61,0,0,1,2.77-.72h1.32v-.64a1.66,1.66,0,0,0-.44-1.29,2,2,0,0,0-1.35-.39,7.62,7.62,0,0,0-2.3.45l-.37-1.08a8.56,8.56,0,0,1,2.95-.58,3.09,3.09,0,0,1,2.25.73,2.8,2.8,0,0,1,.74,2.1V308A1.33,1.33,0,0,0,161.05,308.74Zm-1.66-1v-2h-1.12c-1.58,0-2.37.59-2.37,1.75a1.59,1.59,0,0,0,.38,1.15,1.43,1.43,0,0,0,1.1.39A2.23,2.23,0,0,0,159.39,307.71Z" style="fill:#1d1d1b"/><path d="M167.38,310.14v.73a1.72,1.72,0,0,1,1.15.45,1.29,1.29,0,0,1,.36.93,1.39,1.39,0,0,1-.57,1.19,2.28,2.28,0,0,1-1.44.43,3.22,3.22,0,0,1-.84-.11,1.84,1.84,0,0,1-.63-.28l.4-.84a2.2,2.2,0,0,0,1,.25,1,1,0,0,0,.59-.15.55.55,0,0,0,.22-.49.53.53,0,0,0-.34-.51,2.49,2.49,0,0,0-1.1-.17l.18-1.46a3.29,3.29,0,0,1-2.25-1.36,5,5,0,0,1-.81-3,5.84,5.84,0,0,1,.45-2.38,3.72,3.72,0,0,1,1.29-1.59,3.44,3.44,0,0,1,2-.56,4.42,4.42,0,0,1,1.4.21,3.88,3.88,0,0,1,1.21.71l-.71.94a3.5,3.5,0,0,0-.88-.48,2.91,2.91,0,0,0-.95-.15,1.84,1.84,0,0,0-1.61.82,4.24,4.24,0,0,0-.58,2.45,4,4,0,0,0,.57,2.39,1.9,1.9,0,0,0,1.62.76,2.73,2.73,0,0,0,.92-.15,5,5,0,0,0,.94-.49l.68,1A4,4,0,0,1,167.38,310.14Z" style="fill:#1d1d1b"/><path d="M177.6,308.74a1.06,1.06,0,0,0,.53.38l-.34,1a2.37,2.37,0,0,1-1.06-.37,1.74,1.74,0,0,1-.6-.91,2.88,2.88,0,0,1-2.55,1.28,2.75,2.75,0,0,1-2-.71,2.52,2.52,0,0,1-.72-1.87,2.46,2.46,0,0,1,1-2.09,4.65,4.65,0,0,1,2.78-.72h1.31v-.64a1.66,1.66,0,0,0-.43-1.29,2,2,0,0,0-1.35-.39,7.62,7.62,0,0,0-2.3.45l-.37-1.08a8.56,8.56,0,0,1,3-.58,3.09,3.09,0,0,1,2.25.73,2.84,2.84,0,0,1,.74,2.1V308A1.33,1.33,0,0,0,177.6,308.74Zm-2.86-9.51a5.32,5.32,0,0,1-.56-.33,3,3,0,0,0-.41-.25.73.73,0,0,0-.35-.09.64.64,0,0,0-.45.18,2,2,0,0,0-.4.57l-.91-.45a3,3,0,0,1,.75-1,1.51,1.51,0,0,1,1-.39,1.35,1.35,0,0,1,.59.12,5.3,5.3,0,0,1,.55.33,1.38,1.38,0,0,0,.2.13,1.3,1.3,0,0,0,.28.15.8.8,0,0,0,.26,0,.67.67,0,0,0,.44-.17,2.67,2.67,0,0,0,.42-.54l.91.45a2.84,2.84,0,0,1-.76,1,1.65,1.65,0,0,1-1,.35A1.47,1.47,0,0,1,174.74,299.23Zm1.19,8.48v-2h-1.11c-1.58,0-2.37.59-2.37,1.75a1.64,1.64,0,0,0,.37,1.15,1.47,1.47,0,0,0,1.11.39A2.2,2.2,0,0,0,175.93,307.71Z" style="fill:#1d1d1b"/><path d="M186.48,302.43a4.92,4.92,0,0,1,1,3.26A5.59,5.59,0,0,1,187,308a3.5,3.5,0,0,1-1.31,1.57,3.67,3.67,0,0,1-2,.56,3.45,3.45,0,0,1-2.8-1.2,4.9,4.9,0,0,1-1-3.25,5.68,5.68,0,0,1,.45-2.34,3.59,3.59,0,0,1,1.31-1.58,3.71,3.71,0,0,1,2.06-.55A3.44,3.44,0,0,1,186.48,302.43Zm-5,3.28c0,2.16.73,3.25,2.2,3.25s2.2-1.09,2.2-3.27-.72-3.26-2.18-3.26S181.47,303.52,181.47,305.71Z" style="fill:#1d1d1b"/><path d="M44,223.93a5.27,5.27,0,0,1,1.53,1l-.84.94a4.62,4.62,0,0,0-1.24-.73,3.49,3.49,0,0,0-1.3-.24,2.43,2.43,0,0,0-1.44.41,1.35,1.35,0,0,0-.57,1.18,1.63,1.63,0,0,0,.2.82,1.72,1.72,0,0,0,.72.6,9.13,9.13,0,0,0,1.53.59,9.66,9.66,0,0,1,1.75.69,3.08,3.08,0,0,1,1.12,1,3,3,0,0,1,.43,1.66,3.11,3.11,0,0,1-.48,1.72,3.27,3.27,0,0,1-1.37,1.16,5,5,0,0,1-2.13.42,5.18,5.18,0,0,1-3.79-1.44l.84-.94a5.32,5.32,0,0,0,1.38.84,4,4,0,0,0,1.55.28,2.81,2.81,0,0,0,1.72-.51,1.74,1.74,0,0,0,.68-1.48,1.59,1.59,0,0,0-.93-1.57,7.39,7.39,0,0,0-1.49-.59,6.57,6.57,0,0,1-2.51-1.24,2.81,2.81,0,0,1-.34-3.48,2.9,2.9,0,0,1,1.24-1,4.29,4.29,0,0,1,1.82-.37A5.22,5.22,0,0,1,44,223.93Z" style="fill:#1d1d1b"/><path d="M54,233.75a1.17,1.17,0,0,0,.54.38l-.34,1a2.26,2.26,0,0,1-1.07-.37,1.7,1.7,0,0,1-.6-.91A2.84,2.84,0,0,1,50,235.16a2.68,2.68,0,0,1-2-.71,2.47,2.47,0,0,1-.73-1.86,2.42,2.42,0,0,1,1-2.09,4.54,4.54,0,0,1,2.77-.73h1.31v-.63a1.67,1.67,0,0,0-.43-1.3,2,2,0,0,0-1.35-.38,7.62,7.62,0,0,0-2.3.45l-.37-1.09a8.8,8.8,0,0,1,2.95-.58,3.1,3.1,0,0,1,2.25.74,2.79,2.79,0,0,1,.74,2.09V233A1.35,1.35,0,0,0,54,233.75Zm-1.67-1v-2H51.26c-1.58,0-2.37.58-2.37,1.75a1.61,1.61,0,0,0,.38,1.15,1.43,1.43,0,0,0,1.1.39A2.22,2.22,0,0,0,52.37,232.72Z" style="fill:#1d1d1b"/><path d="M63.14,227.41a5.51,5.51,0,0,1,.86,3.28,6.23,6.23,0,0,1-.4,2.34,3.45,3.45,0,0,1-1.17,1.57,2.88,2.88,0,0,1-1.78.56A2.84,2.84,0,0,1,58.38,234l-.14.94H56.92V223l1.49-.18v4.68a2.87,2.87,0,0,1,2.42-1.26A2.71,2.71,0,0,1,63.14,227.41Zm-1.3,5.77a4.43,4.43,0,0,0,.56-2.49,4.66,4.66,0,0,0-.52-2.5,1.69,1.69,0,0,0-1.47-.77,2.44,2.44,0,0,0-2,1.33v4.08a2.59,2.59,0,0,0,.84.84,1.89,1.89,0,0,0,1,.31A1.79,1.79,0,0,0,61.84,233.18Z" style="fill:#1d1d1b"/><path d="M72.54,227.44a5,5,0,0,1,1,3.25,5.52,5.52,0,0,1-.46,2.34,3.51,3.51,0,0,1-1.31,1.57,3.59,3.59,0,0,1-2,.56,3.45,3.45,0,0,1-2.8-1.2,4.88,4.88,0,0,1-1-3.25,5.68,5.68,0,0,1,.45-2.34,3.56,3.56,0,0,1,1.31-1.57,3.71,3.71,0,0,1,2.06-.56A3.41,3.41,0,0,1,72.54,227.44Zm-2.43-3.21a3.37,3.37,0,0,1-.56-.32,2.4,2.4,0,0,0-.41-.26.85.85,0,0,0-.35-.08.64.64,0,0,0-.45.18,2.32,2.32,0,0,0-.41.56l-.9-.45a3.06,3.06,0,0,1,.75-1,1.53,1.53,0,0,1,1-.38,1.28,1.28,0,0,1,.58.12,4.47,4.47,0,0,1,.56.33l.2.13.28.14a.6.6,0,0,0,.26.05.63.63,0,0,0,.44-.17,2.2,2.2,0,0,0,.42-.54l.91.45a2.67,2.67,0,0,1-.77,1,1.56,1.56,0,0,1-1,.36A1.31,1.31,0,0,1,70.11,224.23Zm-2.58,6.48c0,2.17.73,3.25,2.2,3.25s2.2-1.09,2.2-3.27-.73-3.25-2.18-3.25S67.53,228.53,67.53,230.71Z" style="fill:#1d1d1b"/><path d="M82.41,231.21H77a3.28,3.28,0,0,0,.71,2.07,2,2,0,0,0,1.59.67,3.39,3.39,0,0,0,1.13-.18,4.58,4.58,0,0,0,1.09-.57l.64.89a4.66,4.66,0,0,1-3,1.07A3.47,3.47,0,0,1,76.38,234a4.76,4.76,0,0,1-1-3.21,6.15,6.15,0,0,1,.43-2.35A3.77,3.77,0,0,1,77,226.82a3.5,3.5,0,0,1,4.5.54,4.78,4.78,0,0,1,.9,3.09C82.44,230.7,82.43,231,82.41,231.21ZM81,230a3.16,3.16,0,0,0-.5-1.92,1.77,1.77,0,0,0-1.51-.67c-1.22,0-1.88.9-2,2.69h4Z" style="fill:#1d1d1b"/><path d="M88.71,226.48a5.12,5.12,0,0,1,1.33.73l-.63.94a5.18,5.18,0,0,0-1.11-.55,3.4,3.4,0,0,0-1.11-.18,1.94,1.94,0,0,0-1.15.3,1,1,0,0,0,0,1.63,4.89,4.89,0,0,0,1.44.57,5,5,0,0,1,2.13,1,2.14,2.14,0,0,1,.7,1.68,2.19,2.19,0,0,1-1,1.93,4.17,4.17,0,0,1-2.39.66,4.74,4.74,0,0,1-3.22-1.11l.79-.91a3.87,3.87,0,0,0,2.4.82,2.26,2.26,0,0,0,1.33-.34,1.12,1.12,0,0,0,.5-1,1.27,1.27,0,0,0-.18-.71,1.43,1.43,0,0,0-.62-.46,7.62,7.62,0,0,0-1.27-.43,4.35,4.35,0,0,1-2-1,2,2,0,0,1-.61-1.52,2,2,0,0,1,.4-1.21,2.55,2.55,0,0,1,1.1-.84,4,4,0,0,1,1.58-.3A4.84,4.84,0,0,1,88.71,226.48Z" style="fill:#1d1d1b"/><path d="M96.3,221.9l1.27.29-3.74,14.46-1.28-.31Z" style="fill:#1d1d1b"/><path d="M107.27,225c1,.78,1.53,2.23,1.53,4.34s-.51,3.52-1.53,4.37a5.66,5.66,0,0,1-3.71,1.27h-2.68V223.81h2.34A6.43,6.43,0,0,1,107.27,225Zm-4.85,0v8.71h1.25a3.44,3.44,0,0,0,2.53-.95,4.86,4.86,0,0,0,1-3.47,5.83,5.83,0,0,0-.51-2.71,2.58,2.58,0,0,0-1.27-1.26,4.87,4.87,0,0,0-1.83-.32Z" style="fill:#1d1d1b"/><path d="M117.64,231.21H112.2a3.34,3.34,0,0,0,.71,2.07,2.06,2.06,0,0,0,1.59.67,3.39,3.39,0,0,0,1.13-.18,4.58,4.58,0,0,0,1.09-.57l.65.89a4.68,4.68,0,0,1-3,1.07,3.49,3.49,0,0,1-2.78-1.16,4.81,4.81,0,0,1-1-3.21,6.16,6.16,0,0,1,.42-2.35,3.71,3.71,0,0,1,1.24-1.62,3.49,3.49,0,0,1,4.49.54,4.78,4.78,0,0,1,.9,3.09C117.67,230.7,117.66,231,117.64,231.21ZM116.2,230a3.16,3.16,0,0,0-.5-1.92,1.75,1.75,0,0,0-1.51-.67c-1.22,0-1.88.9-2,2.69h4Z" style="fill:#1d1d1b"/><path d="M124.36,234.58a3.26,3.26,0,0,1-1.91.58,2.23,2.23,0,0,1-1.69-.62,2.52,2.52,0,0,1-.61-1.81v-5.15h-1.49v-1.14h1.49v-1.93l1.49-.18v2.11h2l-.17,1.14h-1.86v5.09a1.54,1.54,0,0,0,.24,1,.91.91,0,0,0,.78.3,2.44,2.44,0,0,0,1.14-.34Z" style="fill:#1d1d1b"/><path d="M132.31,231.21h-5.44a3.34,3.34,0,0,0,.71,2.07,2.06,2.06,0,0,0,1.59.67,3.39,3.39,0,0,0,1.13-.18,4.58,4.58,0,0,0,1.09-.57l.65.89a4.68,4.68,0,0,1-3,1.07,3.49,3.49,0,0,1-2.78-1.16,4.81,4.81,0,0,1-1-3.21,6.16,6.16,0,0,1,.42-2.35,3.71,3.71,0,0,1,1.24-1.62,3.49,3.49,0,0,1,4.49.54,4.78,4.78,0,0,1,.9,3.09C132.34,230.7,132.33,231,132.31,231.21Zm-1.44-1.2a3.16,3.16,0,0,0-.5-1.92,1.75,1.75,0,0,0-1.51-.67c-1.22,0-1.88.9-2,2.69h4Z" style="fill:#1d1d1b"/><path d="M139.28,226.34,139,227.8a2.87,2.87,0,0,0-.75-.1,1.57,1.57,0,0,0-1.27.58,4.32,4.32,0,0,0-.77,1.81V235h-1.48v-8.53H136l.15,1.73a3.21,3.21,0,0,1,.92-1.44,2,2,0,0,1,1.36-.49A3.25,3.25,0,0,1,139.28,226.34Z" style="fill:#1d1d1b"/><path d="M147.86,226.82a4.41,4.41,0,0,1-1.07.21c-.39,0-.87.05-1.43.05a2.26,2.26,0,0,1,1.51,2.16,2.73,2.73,0,0,1-.87,2.09,3.39,3.39,0,0,1-2.39.8,3.44,3.44,0,0,1-1.08-.16,1,1,0,0,0-.31.35,1.06,1.06,0,0,0-.11.45c0,.46.37.69,1.12.69h1.36a3.5,3.5,0,0,1,1.52.31,2.62,2.62,0,0,1,1,.84,2.13,2.13,0,0,1,.36,1.22,2.17,2.17,0,0,1-1,1.92,5.5,5.5,0,0,1-3,.67,6.71,6.71,0,0,1-2.18-.29,2.09,2.09,0,0,1-1.14-.85,2.73,2.73,0,0,1-.34-1.45h1.35a1.47,1.47,0,0,0,.19.81,1.25,1.25,0,0,0,.7.46,5.19,5.19,0,0,0,1.42.15,4.07,4.07,0,0,0,1.92-.33,1.09,1.09,0,0,0,.58-1,1,1,0,0,0-.46-.9,2.17,2.17,0,0,0-1.26-.31h-1.35a2.51,2.51,0,0,1-1.64-.46,1.46,1.46,0,0,1-.31-2,2.41,2.41,0,0,1,.69-.7,2.59,2.59,0,0,1-1.09-1,2.67,2.67,0,0,1-.35-1.4,2.82,2.82,0,0,1,.43-1.54,3,3,0,0,1,1.18-1.06,3.71,3.71,0,0,1,1.68-.38,11.82,11.82,0,0,0,1.68-.07,6.1,6.1,0,0,0,1.13-.24c.29-.11.66-.26,1.09-.45Zm-5.65,1a2.31,2.31,0,0,0,0,2.78,2,2,0,0,0,2.67,0,2.11,2.11,0,0,0,.46-1.44,1.64,1.64,0,0,0-1.83-1.89A1.67,1.67,0,0,0,142.21,227.84Z" style="fill:#1d1d1b"/><path d="M155.81,231.21h-5.44a3.28,3.28,0,0,0,.71,2.07,2,2,0,0,0,1.59.67,3.43,3.43,0,0,0,1.13-.18,4.53,4.53,0,0,0,1.08-.57l.65.89a4.68,4.68,0,0,1-3,1.07,3.45,3.45,0,0,1-2.77-1.16,4.76,4.76,0,0,1-1-3.21,6,6,0,0,1,.43-2.35,3.69,3.69,0,0,1,1.23-1.62,3.49,3.49,0,0,1,4.49.54,4.72,4.72,0,0,1,.91,3.09C155.84,230.7,155.83,231,155.81,231.21Zm-1.44-1.2a3.09,3.09,0,0,0-.51-1.92,1.74,1.74,0,0,0-1.5-.67c-1.22,0-1.89.9-2,2.69h4Z" style="fill:#1d1d1b"/><path d="M164.06,226.94a2.7,2.7,0,0,1,.65,1.91V235h-1.49v-5.91a1.87,1.87,0,0,0-.34-1.28,1.27,1.27,0,0,0-1-.37,2,2,0,0,0-1.2.39,3.85,3.85,0,0,0-1,1.11V235h-1.49v-8.53h1.28l.13,1.26a3.36,3.36,0,0,1,1.12-1.07,2.93,2.93,0,0,1,1.49-.39A2.37,2.37,0,0,1,164.06,226.94Z" style="fill:#1d1d1b"/><path d="M172,234.58a3.24,3.24,0,0,1-1.91.58,2.24,2.24,0,0,1-1.69-.62,2.52,2.52,0,0,1-.61-1.81v-5.15h-1.48v-1.14h1.48v-1.93l1.49-.18v2.11h2l-.16,1.14h-1.87v5.09a1.54,1.54,0,0,0,.24,1,.94.94,0,0,0,.78.3,2.41,2.41,0,0,0,1.14-.34Z" style="fill:#1d1d1b"/><path d="M180,231.21h-5.44a3.34,3.34,0,0,0,.72,2.07,2,2,0,0,0,1.58.67,3.49,3.49,0,0,0,1.14-.18,4.73,4.73,0,0,0,1.08-.57l.65.89a4.68,4.68,0,0,1-3,1.07,3.49,3.49,0,0,1-2.78-1.16,4.81,4.81,0,0,1-1-3.21,6,6,0,0,1,.43-2.35,3.62,3.62,0,0,1,1.23-1.62,3.49,3.49,0,0,1,4.49.54,4.72,4.72,0,0,1,.91,3.09A6.56,6.56,0,0,1,180,231.21Zm-1.44-1.2a3.1,3.1,0,0,0-.5-1.92,1.74,1.74,0,0,0-1.5-.67c-1.22,0-1.89.9-2,2.69h4Z" style="fill:#1d1d1b"/><path d="M186.26,226.48a5,5,0,0,1,1.33.73l-.63.94a5.18,5.18,0,0,0-1.11-.55,3.4,3.4,0,0,0-1.11-.18,2,2,0,0,0-1.15.3,1,1,0,0,0-.42.82.93.93,0,0,0,.4.81,4.81,4.81,0,0,0,1.43.57,5,5,0,0,1,2.13,1,2.11,2.11,0,0,1,.7,1.68,2.17,2.17,0,0,1-1,1.93,4.14,4.14,0,0,1-2.38.66,4.77,4.77,0,0,1-3.23-1.11l.8-.91a3.85,3.85,0,0,0,2.39.82,2.29,2.29,0,0,0,1.34-.34,1.11,1.11,0,0,0,.49-1,1.36,1.36,0,0,0-.17-.71,1.5,1.5,0,0,0-.62-.46,7.79,7.79,0,0,0-1.28-.43,4.41,4.41,0,0,1-2-1,2.07,2.07,0,0,1-.6-1.52,2,2,0,0,1,.39-1.21,2.61,2.61,0,0,1,1.1-.84,4,4,0,0,1,1.58-.3A4.75,4.75,0,0,1,186.26,226.48Z" style="fill:#1d1d1b"/><path d="M609.91,366.72h-.5V21.88h.5Zm-409.73,0h-.5V21.88h.5Z" style="fill:#1d1d1b"/><path d="M182.18,380.5a11.71,11.71,0,0,1,0,9.78,3.87,3.87,0,0,1-6.39,0,11.71,11.71,0,0,1,0-9.78,3.87,3.87,0,0,1,6.39,0Zm-5,.92a13.4,13.4,0,0,0,0,7.93,2,2,0,0,0,3.66,0,13.16,13.16,0,0,0,0-7.92,2,2,0,0,0-3.66,0Z" style="fill:#1d1d1b"/><path d="M187.52,389.71a1.27,1.27,0,0,1,.38.93,3.31,3.31,0,0,1-.34,1.35l-1.28,2.92H185l.77-3.16a1.43,1.43,0,0,1-.4-.48,1.46,1.46,0,0,1-.14-.63,1.34,1.34,0,0,1,2.27-.93Z" style="fill:#1d1d1b"/><path d="M197.38,380.5a11.71,11.71,0,0,1,0,9.78,3.86,3.86,0,0,1-6.38,0,11.61,11.61,0,0,1,0-9.78,3.86,3.86,0,0,1,6.38,0Zm-5,.92a13.4,13.4,0,0,0,0,7.93,2,2,0,0,0,3.66,0,13.16,13.16,0,0,0,0-7.92,2,2,0,0,0-3.66,0Z" style="fill:#1d1d1b"/><path d="M208,380.5a11.71,11.71,0,0,1,0,9.78,3.87,3.87,0,0,1-6.39,0,11.71,11.71,0,0,1,0-9.78,3.87,3.87,0,0,1,6.39,0Zm-5,.92a13.4,13.4,0,0,0,0,7.93,2,2,0,0,0,3.66,0,13.16,13.16,0,0,0,0-7.92,2,2,0,0,0-3.66,0Z" style="fill:#1d1d1b"/><path d="M216.31,379.69a3.58,3.58,0,0,1,0,4.68,3.27,3.27,0,0,1-4.46,0,3.61,3.61,0,0,1,0-4.68,3.27,3.27,0,0,1,4.46,0Zm-3.43.87a2.81,2.81,0,0,0-.35,1.47,2.84,2.84,0,0,0,.35,1.46,1.28,1.28,0,0,0,1.19.58c1,0,1.55-.68,1.55-2a2.84,2.84,0,0,0-.35-1.46,1.53,1.53,0,0,0-2.39,0Zm8.93-2.36,1.22.8-8.82,13.34-1.22-.8Zm2.34,8.21a3.63,3.63,0,0,1,0,4.69,3,3,0,0,1-2.23.87,3,3,0,0,1-2.24-.87,3.63,3.63,0,0,1,0-4.69,3,3,0,0,1,2.24-.87A3,3,0,0,1,224.15,386.41Zm-3.42.89a2.73,2.73,0,0,0-.35,1.45,2.82,2.82,0,0,0,.35,1.46,1.28,1.28,0,0,0,1.19.58c1,0,1.54-.68,1.54-2a2.74,2.74,0,0,0-.34-1.44,1.55,1.55,0,0,0-2.39,0Z" style="fill:#1d1d1b"/><path d="M263.62,380.37h-5v3.76a4.38,4.38,0,0,1,2-.5,3.39,3.39,0,0,1,2.63,1.08,4.19,4.19,0,0,1,1,3,4.48,4.48,0,0,1-.55,2.24,3.84,3.84,0,0,1-1.55,1.52,4.82,4.82,0,0,1-2.32.54,4.91,4.91,0,0,1-2.07-.41,5.38,5.38,0,0,1-1.7-1.21l1-1a4.61,4.61,0,0,0,1.26.9,3.45,3.45,0,0,0,1.47.3,2.45,2.45,0,0,0,1.91-.77,3.07,3.07,0,0,0,.7-2.15,2.76,2.76,0,0,0-.63-2,2.3,2.3,0,0,0-1.7-.63,3.72,3.72,0,0,0-.91.11,5,5,0,0,0-.9.33H257V379h6.9Z" style="fill:#1d1d1b"/><path d="M268.38,389.71a1.27,1.27,0,0,1,.38.93,3.31,3.31,0,0,1-.34,1.35l-1.28,2.92h-1.26l.77-3.16a1.29,1.29,0,0,1-.39-.48,1.33,1.33,0,0,1-.15-.63,1.34,1.34,0,0,1,2.27-.93Z" style="fill:#1d1d1b"/><path d="M278.24,380.5a11.71,11.71,0,0,1,0,9.78,3.86,3.86,0,0,1-6.38,0,11.61,11.61,0,0,1,0-9.78,3.86,3.86,0,0,1,6.38,0Zm-5,.92a13.4,13.4,0,0,0,0,7.93,2,2,0,0,0,3.67,0,13.16,13.16,0,0,0,0-7.92,2,2,0,0,0-3.67,0Z" style="fill:#1d1d1b"/><path d="M288.87,380.5a11.71,11.71,0,0,1,0,9.78,3.86,3.86,0,0,1-6.38,0,11.61,11.61,0,0,1,0-9.78,3.86,3.86,0,0,1,6.38,0Zm-5,.92a13.4,13.4,0,0,0,0,7.93,2,2,0,0,0,3.67,0,13.16,13.16,0,0,0,0-7.92,2,2,0,0,0-3.67,0Z" style="fill:#1d1d1b"/><path d="M297.17,379.69a3.58,3.58,0,0,1,0,4.68,3,3,0,0,1-2.24.88,2.94,2.94,0,0,1-2.21-.88,3.58,3.58,0,0,1,0-4.68,2.94,2.94,0,0,1,2.21-.88A3,3,0,0,1,297.17,379.69Zm-3.43.87a2.81,2.81,0,0,0-.35,1.47,2.84,2.84,0,0,0,.35,1.46,1.29,1.29,0,0,0,1.19.58c1,0,1.55-.68,1.55-2a2.84,2.84,0,0,0-.35-1.46,1.27,1.27,0,0,0-1.2-.58A1.3,1.3,0,0,0,293.74,380.56Zm8.93-2.36,1.22.8-8.82,13.34-1.22-.8Zm2.34,8.21a3.63,3.63,0,0,1,0,4.69,3,3,0,0,1-2.23.87,3,3,0,0,1-2.24-.87,3.63,3.63,0,0,1,0-4.69,3,3,0,0,1,2.24-.87A3,3,0,0,1,305,386.41Zm-3.42.89a2.73,2.73,0,0,0-.35,1.45,2.82,2.82,0,0,0,.35,1.46,1.28,1.28,0,0,0,1.19.58c1,0,1.55-.68,1.55-2a2.74,2.74,0,0,0-.35-1.44,1.55,1.55,0,0,0-2.39,0Z" style="fill:#1d1d1b"/><path d="M338.88,379v12.75h-1.75V380.87l-3,1.81-.77-1.24,3.95-2.44Z" style="fill:#1d1d1b"/><path d="M349.48,380.5a11.61,11.61,0,0,1,0,9.78,3.86,3.86,0,0,1-6.38,0,11.61,11.61,0,0,1,0-9.78,3.86,3.86,0,0,1,6.38,0Zm-5,.92a13.4,13.4,0,0,0,0,7.93,2,2,0,0,0,3.67,0,13.16,13.16,0,0,0,0-7.92,2,2,0,0,0-3.67,0Z" style="fill:#1d1d1b"/><path d="M356,389.71a1.27,1.27,0,0,1,.38.93,3.47,3.47,0,0,1-.34,1.35l-1.28,2.92h-1.26l.76-3.16a1.53,1.53,0,0,1-.39-.48,1.46,1.46,0,0,1-.14-.63,1.27,1.27,0,0,1,.38-.93,1.24,1.24,0,0,1,.93-.38A1.3,1.3,0,0,1,356,389.71Z" style="fill:#1d1d1b"/><path d="M365.88,380.5a11.61,11.61,0,0,1,0,9.78,3.86,3.86,0,0,1-6.38,0,11.71,11.71,0,0,1,0-9.78,3.86,3.86,0,0,1,6.38,0Zm-5,.92a13.19,13.19,0,0,0,0,7.93,2,2,0,0,0,3.66,0,13.16,13.16,0,0,0,0-7.92,2,2,0,0,0-3.66,0Z" style="fill:#1d1d1b"/><path d="M376.51,380.5a11.61,11.61,0,0,1,0,9.78,3.86,3.86,0,0,1-6.38,0,11.71,11.71,0,0,1,0-9.78,3.86,3.86,0,0,1,6.38,0Zm-5,.92a13.19,13.19,0,0,0,0,7.93,2,2,0,0,0,3.66,0,13.16,13.16,0,0,0,0-7.92,2,2,0,0,0-3.66,0Z" style="fill:#1d1d1b"/><path d="M384.82,379.69a3.58,3.58,0,0,1,0,4.68,3.27,3.27,0,0,1-4.46,0,3.61,3.61,0,0,1,0-4.68,3.27,3.27,0,0,1,4.46,0Zm-3.43.87A2.81,2.81,0,0,0,381,382a2.84,2.84,0,0,0,.35,1.46,1.27,1.27,0,0,0,1.19.58c1,0,1.54-.68,1.54-2a2.84,2.84,0,0,0-.34-1.46,1.53,1.53,0,0,0-2.39,0Zm8.92-2.36,1.22.8-8.82,13.34-1.21-.8Zm2.35,8.21a3.66,3.66,0,0,1,0,4.69,3.31,3.31,0,0,1-4.47,0,3.6,3.6,0,0,1,0-4.69,3.31,3.31,0,0,1,4.47,0Zm-3.42.89a2.64,2.64,0,0,0-.35,1.45,2.72,2.72,0,0,0,.35,1.46,1.27,1.27,0,0,0,1.19.58c1,0,1.54-.68,1.54-2a2.74,2.74,0,0,0-.34-1.44,1.55,1.55,0,0,0-2.39,0Z" style="fill:#1d1d1b"/><path d="M420.43,379v12.75h-1.75V380.87l-3,1.81-.76-1.24,3.94-2.44Z" style="fill:#1d1d1b"/><path d="M430.53,380.37h-5v3.76a4.42,4.42,0,0,1,2-.5,3.42,3.42,0,0,1,2.63,1.08,4.19,4.19,0,0,1,1,3,4.49,4.49,0,0,1-.56,2.24,3.84,3.84,0,0,1-1.55,1.52,4.8,4.8,0,0,1-2.31.54,4.92,4.92,0,0,1-2.08-.41,5.38,5.38,0,0,1-1.7-1.21l1-1a4.61,4.61,0,0,0,1.26.9,3.45,3.45,0,0,0,1.47.3,2.45,2.45,0,0,0,1.91-.77,3,3,0,0,0,.7-2.15,2.76,2.76,0,0,0-.63-2,2.3,2.3,0,0,0-1.7-.63,3.72,3.72,0,0,0-.91.11,5,5,0,0,0-.9.33h-1.37V379h6.9Z" style="fill:#1d1d1b"/><path d="M435.29,389.71a1.23,1.23,0,0,1,.38.93,3.31,3.31,0,0,1-.34,1.35l-1.28,2.92H432.8l.76-3.16a1.29,1.29,0,0,1-.39-.48,1.33,1.33,0,0,1-.14-.63,1.3,1.3,0,0,1,1.31-1.31A1.26,1.26,0,0,1,435.29,389.71Z" style="fill:#1d1d1b"/><path d="M445.15,380.5a11.61,11.61,0,0,1,0,9.78,3.86,3.86,0,0,1-6.38,0,11.61,11.61,0,0,1,0-9.78,3.86,3.86,0,0,1,6.38,0Zm-5,.92a13.4,13.4,0,0,0,0,7.93,2,2,0,0,0,3.67,0,13.16,13.16,0,0,0,0-7.92,2,2,0,0,0-3.67,0Z" style="fill:#1d1d1b"/><path d="M455.78,380.5a11.61,11.61,0,0,1,0,9.78,3.86,3.86,0,0,1-6.38,0,11.61,11.61,0,0,1,0-9.78,3.86,3.86,0,0,1,6.38,0Zm-5,.92a13.4,13.4,0,0,0,0,7.93,2,2,0,0,0,3.67,0,13.16,13.16,0,0,0,0-7.92,2,2,0,0,0-3.67,0Z" style="fill:#1d1d1b"/><path d="M464.08,379.69a3.58,3.58,0,0,1,0,4.68,3.25,3.25,0,0,1-4.45,0,3.58,3.58,0,0,1,0-4.68,3.25,3.25,0,0,1,4.45,0Zm-3.42.87a2.71,2.71,0,0,0-.36,1.47,2.75,2.75,0,0,0,.36,1.46,1.27,1.27,0,0,0,1.19.58c1,0,1.54-.68,1.54-2a2.84,2.84,0,0,0-.34-1.46,1.53,1.53,0,0,0-2.39,0Zm8.92-2.36,1.22.8L462,392.34l-1.22-.8Zm2.34,8.21a3.63,3.63,0,0,1,0,4.69,3.29,3.29,0,0,1-4.46,0,3.6,3.6,0,0,1,0-4.69,3.29,3.29,0,0,1,4.46,0Zm-3.42.89a2.73,2.73,0,0,0-.35,1.45,2.82,2.82,0,0,0,.35,1.46,1.29,1.29,0,0,0,1.19.58c1,0,1.55-.68,1.55-2a2.74,2.74,0,0,0-.35-1.44,1.27,1.27,0,0,0-1.2-.57A1.3,1.3,0,0,0,468.5,387.3Z" style="fill:#1d1d1b"/><path d="M502.58,379.27a3.3,3.3,0,0,1,1.34,1.25,3.34,3.34,0,0,1,.48,1.78,5,5,0,0,1-.53,2.23,10.48,10.48,0,0,1-1.6,2.3q-1.09,1.25-3.3,3.45h5.73l-.21,1.47H497v-1.4q2.55-2.64,3.62-3.87a11,11,0,0,0,1.52-2.14,4.29,4.29,0,0,0,.46-2,2,2,0,0,0-2.1-2.11,2.89,2.89,0,0,0-1.37.32,5,5,0,0,0-1.25,1.07l-1.15-.91a5.11,5.11,0,0,1,1.74-1.45,4.64,4.64,0,0,1,2.13-.48A4.2,4.2,0,0,1,502.58,379.27Z" style="fill:#1d1d1b"/><path d="M514.16,380.5a11.61,11.61,0,0,1,0,9.78,3.86,3.86,0,0,1-6.38,0,11.61,11.61,0,0,1,0-9.78,3.86,3.86,0,0,1,6.38,0Zm-5,.92a13.4,13.4,0,0,0,0,7.93,2,2,0,0,0,3.67,0,13.16,13.16,0,0,0,0-7.92,2,2,0,0,0-3.67,0Z" style="fill:#1d1d1b"/><path d="M519.51,389.71a1.27,1.27,0,0,1,.38.93,3.34,3.34,0,0,1-.35,1.35l-1.27,2.92H517l.76-3.16a1.53,1.53,0,0,1-.39-.48,1.46,1.46,0,0,1-.14-.63,1.27,1.27,0,0,1,.38-.93,1.23,1.23,0,0,1,.93-.38A1.3,1.3,0,0,1,519.51,389.71Z" style="fill:#1d1d1b"/><path d="M529.36,380.5a11.61,11.61,0,0,1,0,9.78,3.86,3.86,0,0,1-6.38,0,11.71,11.71,0,0,1,0-9.78,3.86,3.86,0,0,1,6.38,0Zm-5,.92a13.4,13.4,0,0,0,0,7.93,2,2,0,0,0,3.67,0,13.16,13.16,0,0,0,0-7.92,2,2,0,0,0-3.67,0Z" style="fill:#1d1d1b"/><path d="M540,380.5a11.61,11.61,0,0,1,0,9.78,3.86,3.86,0,0,1-6.38,0,11.71,11.71,0,0,1,0-9.78,3.86,3.86,0,0,1,6.38,0Zm-5,.92a13.4,13.4,0,0,0,0,7.93,2,2,0,0,0,3.67,0,13.16,13.16,0,0,0,0-7.92,2,2,0,0,0-3.67,0Z" style="fill:#1d1d1b"/><path d="M548.3,379.69a3.61,3.61,0,0,1,0,4.68,3,3,0,0,1-2.24.88,3,3,0,0,1-2.22-.88,3.58,3.58,0,0,1,0-4.68,3,3,0,0,1,2.22-.88A3,3,0,0,1,548.3,379.69Zm-3.43.87a2.71,2.71,0,0,0-.35,1.47,2.75,2.75,0,0,0,.35,1.46,1.27,1.27,0,0,0,1.19.58c1,0,1.54-.68,1.54-2a2.84,2.84,0,0,0-.34-1.46,1.53,1.53,0,0,0-2.39,0Zm8.92-2.36,1.22.8-8.82,13.34-1.22-.8Zm2.35,8.21a3.66,3.66,0,0,1,0,4.69,3.31,3.31,0,0,1-4.47,0,3.6,3.6,0,0,1,0-4.69,3.31,3.31,0,0,1,4.47,0Zm-3.42.89a2.64,2.64,0,0,0-.36,1.45,2.72,2.72,0,0,0,.36,1.46,1.27,1.27,0,0,0,1.19.58c1,0,1.54-.68,1.54-2a2.74,2.74,0,0,0-.34-1.44,1.55,1.55,0,0,0-2.39,0Z" style="fill:#1d1d1b"/><path d="M584.53,379.27a3.24,3.24,0,0,1,1.34,1.25,3.34,3.34,0,0,1,.48,1.78,5,5,0,0,1-.52,2.23,10.92,10.92,0,0,1-1.61,2.3q-1.1,1.25-3.3,3.45h5.74l-.21,1.47h-7.53v-1.4q2.55-2.64,3.62-3.87a11,11,0,0,0,1.52-2.14,4.29,4.29,0,0,0,.46-2,2,2,0,0,0-2.09-2.11,2.93,2.93,0,0,0-1.38.32,5,5,0,0,0-1.25,1.07l-1.14-.91a5.08,5.08,0,0,1,1.73-1.45,4.64,4.64,0,0,1,2.13-.48A4.2,4.2,0,0,1,584.53,379.27Z" style="fill:#1d1d1b"/><path d="M595.61,380.37h-5v3.76a4.42,4.42,0,0,1,2-.5,3.38,3.38,0,0,1,2.62,1.08,4.19,4.19,0,0,1,1,3,4.48,4.48,0,0,1-.55,2.24,3.84,3.84,0,0,1-1.55,1.52,4.82,4.82,0,0,1-2.32.54,4.91,4.91,0,0,1-2.07-.41,5.38,5.38,0,0,1-1.7-1.21l1-1a4.61,4.61,0,0,0,1.26.9,3.45,3.45,0,0,0,1.47.3,2.45,2.45,0,0,0,1.91-.77,3.07,3.07,0,0,0,.7-2.15,2.76,2.76,0,0,0-.63-2,2.3,2.3,0,0,0-1.7-.63,3.72,3.72,0,0,0-.91.11,5,5,0,0,0-.9.33H589V379h6.9Z" style="fill:#1d1d1b"/><path d="M600.37,389.71a1.23,1.23,0,0,1,.38.93,3.31,3.31,0,0,1-.34,1.35l-1.28,2.92h-1.25l.76-3.16a1.29,1.29,0,0,1-.39-.48,1.33,1.33,0,0,1-.15-.63,1.31,1.31,0,0,1,1.32-1.31A1.26,1.26,0,0,1,600.37,389.71Z" style="fill:#1d1d1b"/><path d="M610.23,380.5a11.61,11.61,0,0,1,0,9.78,3.86,3.86,0,0,1-6.38,0,11.61,11.61,0,0,1,0-9.78,3.86,3.86,0,0,1,6.38,0Zm-5,.92a13.4,13.4,0,0,0,0,7.93,2,2,0,0,0,3.67,0,13.16,13.16,0,0,0,0-7.92,2,2,0,0,0-3.67,0Z" style="fill:#1d1d1b"/><path d="M620.86,380.5a11.71,11.71,0,0,1,0,9.78,3.86,3.86,0,0,1-6.38,0,11.61,11.61,0,0,1,0-9.78,3.86,3.86,0,0,1,6.38,0Zm-5,.92a13.4,13.4,0,0,0,0,7.93,2,2,0,0,0,3.67,0,13.16,13.16,0,0,0,0-7.92,2,2,0,0,0-3.67,0Z" style="fill:#1d1d1b"/><path d="M629.16,379.69a3.58,3.58,0,0,1,0,4.68,3.27,3.27,0,0,1-4.46,0,3.61,3.61,0,0,1,0-4.68,3.27,3.27,0,0,1,4.46,0Zm-3.43.87a2.81,2.81,0,0,0-.35,1.47,2.84,2.84,0,0,0,.35,1.46,1.29,1.29,0,0,0,1.19.58c1,0,1.55-.68,1.55-2a2.84,2.84,0,0,0-.35-1.46,1.27,1.27,0,0,0-1.2-.58A1.3,1.3,0,0,0,625.73,380.56Zm8.93-2.36,1.22.8-8.82,13.34-1.22-.8Zm2.34,8.21a3.63,3.63,0,0,1,0,4.69,3,3,0,0,1-2.23.87,3,3,0,0,1-2.24-.87,3.63,3.63,0,0,1,0-4.69,3,3,0,0,1,2.24-.87A3,3,0,0,1,637,386.41Zm-3.42.89a2.73,2.73,0,0,0-.35,1.45,2.82,2.82,0,0,0,.35,1.46,1.28,1.28,0,0,0,1.19.58c1,0,1.55-.68,1.55-2a2.74,2.74,0,0,0-.35-1.44,1.55,1.55,0,0,0-2.39,0Z" style="fill:#1d1d1b"/><path d="M666.44,379.25a3.15,3.15,0,0,1,1.29,1.18,3.09,3.09,0,0,1,.45,1.62,2.75,2.75,0,0,1-.67,1.91,3.36,3.36,0,0,1-1.81,1,3.21,3.21,0,0,1,2.08.92,2.89,2.89,0,0,1,.8,2.17,3.88,3.88,0,0,1-.53,2,3.71,3.71,0,0,1-1.53,1.4,4.91,4.91,0,0,1-2.28.5,5.26,5.26,0,0,1-2.13-.42,4.72,4.72,0,0,1-1.7-1.29l1.05-1a4.33,4.33,0,0,0,1.28.95,3.44,3.44,0,0,0,1.44.31,2.59,2.59,0,0,0,1.89-.68,2.47,2.47,0,0,0,.68-1.82,2.13,2.13,0,0,0-.64-1.77,3,3,0,0,0-1.89-.52h-1l.21-1.35h.64a2.4,2.4,0,0,0,1.65-.59,2.1,2.1,0,0,0,.66-1.66,1.85,1.85,0,0,0-.57-1.42,2.25,2.25,0,0,0-1.55-.52,3.4,3.4,0,0,0-1.36.27,4.62,4.62,0,0,0-1.26.87l-.92-1a5.19,5.19,0,0,1,3.64-1.51A4.41,4.41,0,0,1,666.44,379.25Z" style="fill:#1d1d1b"/><path d="M678.14,380.5a11.71,11.71,0,0,1,0,9.78,3.87,3.87,0,0,1-6.39,0,11.71,11.71,0,0,1,0-9.78,3.87,3.87,0,0,1,6.39,0Zm-5,.92a13.4,13.4,0,0,0,0,7.93,2,2,0,0,0,3.66,0,13.16,13.16,0,0,0,0-7.92,2,2,0,0,0-3.66,0Z" style="fill:#1d1d1b"/><path d="M683.48,389.71a1.27,1.27,0,0,1,.38.93,3.31,3.31,0,0,1-.34,1.35l-1.28,2.92H681l.76-3.16a1.53,1.53,0,0,1-.39-.48,1.46,1.46,0,0,1-.14-.63,1.34,1.34,0,0,1,2.27-.93Z" style="fill:#1d1d1b"/><path d="M693.34,380.5a11.71,11.71,0,0,1,0,9.78,3.87,3.87,0,0,1-6.39,0,11.71,11.71,0,0,1,0-9.78,3.87,3.87,0,0,1,6.39,0Zm-5,.92a13.4,13.4,0,0,0,0,7.93,2,2,0,0,0,3.66,0,13.16,13.16,0,0,0,0-7.92,2,2,0,0,0-3.66,0Z" style="fill:#1d1d1b"/><path d="M704,380.5a11.71,11.71,0,0,1,0,9.78,3.87,3.87,0,0,1-6.39,0,11.71,11.71,0,0,1,0-9.78,3.87,3.87,0,0,1,6.39,0Zm-5,.92a13.4,13.4,0,0,0,0,7.93,2,2,0,0,0,3.66,0,13.16,13.16,0,0,0,0-7.92,2,2,0,0,0-3.66,0Z" style="fill:#1d1d1b"/><path d="M712.27,379.69a3.58,3.58,0,0,1,0,4.68,3.27,3.27,0,0,1-4.46,0,3.61,3.61,0,0,1,0-4.68,3.27,3.27,0,0,1,4.46,0Zm-3.43.87a2.81,2.81,0,0,0-.35,1.47,2.84,2.84,0,0,0,.35,1.46,1.28,1.28,0,0,0,1.19.58c1,0,1.55-.68,1.55-2a2.84,2.84,0,0,0-.35-1.46,1.53,1.53,0,0,0-2.39,0Zm8.93-2.36,1.22.8-8.83,13.34-1.21-.8Zm2.34,8.21a3.63,3.63,0,0,1,0,4.69,3,3,0,0,1-2.23.87,3,3,0,0,1-2.24-.87,3.63,3.63,0,0,1,0-4.69,3,3,0,0,1,2.24-.87A3,3,0,0,1,720.11,386.41Zm-3.42.89a2.64,2.64,0,0,0-.35,1.45,2.72,2.72,0,0,0,.35,1.46,1.27,1.27,0,0,0,1.19.58c1,0,1.54-.68,1.54-2a2.74,2.74,0,0,0-.34-1.44,1.55,1.55,0,0,0-2.39,0Z" style="fill:#1d1d1b"/><path d="M76.4,184.5a3,3,0,0,1,1.14,2.58,3.18,3.18,0,0,1-1.19,2.72,5.09,5.09,0,0,1-3.14.89H71.8v4.1H70.27V183.63H73.2A5.14,5.14,0,0,1,76.4,184.5ZM75.2,189a2.18,2.18,0,0,0,.7-1.86,2.05,2.05,0,0,0-.7-1.74,3.35,3.35,0,0,0-2-.53H71.8v4.65h1.35A3.48,3.48,0,0,0,75.2,189Z"/><path d="M84.63,193.56a1.09,1.09,0,0,0,.53.39l-.34,1a2.3,2.3,0,0,1-1.07-.37,1.7,1.7,0,0,1-.6-.91A2.84,2.84,0,0,1,80.61,195a2.75,2.75,0,0,1-2-.71,2.49,2.49,0,0,1-.73-1.86,2.45,2.45,0,0,1,1-2.09,4.55,4.55,0,0,1,2.78-.73H83V189a1.67,1.67,0,0,0-.44-1.3,2,2,0,0,0-1.34-.39,7.62,7.62,0,0,0-2.3.46l-.37-1.09a8.55,8.55,0,0,1,2.94-.58,3.06,3.06,0,0,1,2.25.74,2.8,2.8,0,0,1,.75,2.09v3.91A1.29,1.29,0,0,0,84.63,193.56Zm-1.67-1v-2H81.84c-1.57,0-2.36.58-2.36,1.75a1.61,1.61,0,0,0,.37,1.15,1.46,1.46,0,0,0,1.1.38A2.23,2.23,0,0,0,83,192.54Z"/><path d="M93.82,187.23a5.94,5.94,0,0,1,.77,3.28,5.5,5.5,0,0,1-.88,3.24A2.86,2.86,0,0,1,91.23,195,2.73,2.73,0,0,1,89,194v4.05l-1.49.18v-12h1.28l.11,1.15a3.17,3.17,0,0,1,1.14-1,3,3,0,0,1,1.39-.35A2.63,2.63,0,0,1,93.82,187.23ZM93,190.51q0-3.27-1.92-3.27a2,2,0,0,0-1.15.37,3.64,3.64,0,0,0-.91,1v4.16a2.21,2.21,0,0,0,.81.77,2.15,2.15,0,0,0,1.07.27C92.28,193.77,93,192.68,93,190.51Z"/><path d="M103.54,191H98.1a3.28,3.28,0,0,0,.71,2.07,2,2,0,0,0,1.59.67,3.39,3.39,0,0,0,1.13-.18,4.58,4.58,0,0,0,1.09-.57l.64.89a4.66,4.66,0,0,1-3,1.07,3.47,3.47,0,0,1-2.78-1.16,4.76,4.76,0,0,1-1-3.21,6.24,6.24,0,0,1,.43-2.36,3.8,3.8,0,0,1,1.23-1.61,3.49,3.49,0,0,1,4.49.54,4.72,4.72,0,0,1,.91,3.09C103.57,190.52,103.56,190.77,103.54,191Zm-1.44-1.2a3.16,3.16,0,0,0-.5-1.92,1.77,1.77,0,0,0-1.51-.67c-1.22,0-1.88.9-2,2.69h4Z"/><path d="M106.35,194.49a1.91,1.91,0,0,1-.48-1.39V182.82l1.49-.18v10.43a.89.89,0,0,0,.12.52.48.48,0,0,0,.42.16,1.42,1.42,0,0,0,.55-.1l.38,1a2.45,2.45,0,0,1-1.18.29A1.72,1.72,0,0,1,106.35,194.49Z"/><path d="M118.91,181.72l1.26.29-3.74,14.46-1.28-.31Z"/><path d="M133.37,183.7a4.86,4.86,0,0,1,1.4.84l-.84,1a3.38,3.38,0,0,0-2.15-.83,2.72,2.72,0,0,0-2.24,1.07,5.5,5.5,0,0,0-.85,3.43,5.56,5.56,0,0,0,.84,3.39,2.67,2.67,0,0,0,2.23,1.1,2.88,2.88,0,0,0,1.25-.25,5.83,5.83,0,0,0,1.13-.68l.76,1a4.19,4.19,0,0,1-1.32.89,4.76,4.76,0,0,1-1.87.35,4.26,4.26,0,0,1-4.07-2.65,7.57,7.57,0,0,1-.59-3.13,7.28,7.28,0,0,1,.61-3.13,4.61,4.61,0,0,1,1.67-2,4.34,4.34,0,0,1,2.35-.66A4.66,4.66,0,0,1,133.37,183.7Z"/><path d="M142.85,191h-5.44a3.34,3.34,0,0,0,.72,2.07,2,2,0,0,0,1.58.67,3.49,3.49,0,0,0,1.14-.18,4.73,4.73,0,0,0,1.08-.57l.65.89a4.68,4.68,0,0,1-3,1.07,3.49,3.49,0,0,1-2.78-1.16,4.81,4.81,0,0,1-1-3.21,6.06,6.06,0,0,1,.43-2.36,3.65,3.65,0,0,1,1.23-1.61,3.09,3.09,0,0,1,1.88-.58,3.16,3.16,0,0,1,2.61,1.12,4.78,4.78,0,0,1,.91,3.09C142.89,190.52,142.87,190.77,142.85,191Zm-1.44-1.2a3.1,3.1,0,0,0-.5-1.92,1.75,1.75,0,0,0-1.5-.67c-1.23,0-1.89.9-2,2.69h4Z"/><path d="M145.66,194.49a1.9,1.9,0,0,1-.47-1.39V182.82l1.48-.18v10.43a.88.88,0,0,0,.13.52.48.48,0,0,0,.41.16,1.38,1.38,0,0,0,.55-.1l.39,1A2.48,2.48,0,0,1,147,195,1.74,1.74,0,0,1,145.66,194.49Z"/><path d="M156.36,194.79h-1.28l-.12-1.33a3.27,3.27,0,0,1-1.11,1.16,3.08,3.08,0,0,1-1.54.36,2.25,2.25,0,0,1-1.75-.68,2.72,2.72,0,0,1-.63-1.93v-6.12h1.49v6a1.89,1.89,0,0,0,.31,1.24,1.25,1.25,0,0,0,1,.37,2.54,2.54,0,0,0,2.14-1.48v-6.09h1.49Z"/><path d="M159.83,194.49a1.91,1.91,0,0,1-.48-1.39V182.82l1.49-.18v10.43a.89.89,0,0,0,.12.52.48.48,0,0,0,.42.16,1.38,1.38,0,0,0,.55-.1l.39,1a2.49,2.49,0,0,1-1.19.29A1.72,1.72,0,0,1,159.83,194.49Z"/><path d="M170.1,187.26a5,5,0,0,1,1,3.25,5.68,5.68,0,0,1-.45,2.34,3.51,3.51,0,0,1-1.31,1.57,3.63,3.63,0,0,1-2,.56,3.45,3.45,0,0,1-2.8-1.2,4.9,4.9,0,0,1-1-3.25,5.52,5.52,0,0,1,.46-2.34,3.5,3.5,0,0,1,1.31-1.57,3.68,3.68,0,0,1,2.05-.56A3.45,3.45,0,0,1,170.1,187.26Zm-5,3.27c0,2.17.74,3.25,2.21,3.25s2.2-1.09,2.2-3.27-.73-3.25-2.19-3.25S165.08,188.35,165.08,190.53Z"/><path d="M177.44,186.3a4.84,4.84,0,0,1,1.33.73l-.63.94a5.18,5.18,0,0,0-1.11-.55,3.4,3.4,0,0,0-1.11-.18,1.94,1.94,0,0,0-1.15.3,1,1,0,0,0,0,1.63,5,5,0,0,0,1.44.57,5,5,0,0,1,2.13,1,2.11,2.11,0,0,1,.7,1.68,2.19,2.19,0,0,1-1,1.93,4.17,4.17,0,0,1-2.39.66,4.7,4.7,0,0,1-3.22-1.12l.79-.9a3.9,3.9,0,0,0,2.4.82,2.31,2.31,0,0,0,1.34-.34,1.13,1.13,0,0,0,.49-.95,1.27,1.27,0,0,0-.18-.71,1.55,1.55,0,0,0-.61-.47,9.57,9.57,0,0,0-1.28-.42,4.35,4.35,0,0,1-2-1,2,2,0,0,1-.61-1.52,2,2,0,0,1,.4-1.21,2.55,2.55,0,0,1,1.1-.84,4,4,0,0,1,1.58-.3A4.84,4.84,0,0,1,177.44,186.3Z"/><path d="M187.53,191h-5.44a3.28,3.28,0,0,0,.71,2.07,2,2,0,0,0,1.59.67,3.43,3.43,0,0,0,1.13-.18,4.53,4.53,0,0,0,1.08-.57l.65.89a4.68,4.68,0,0,1-3,1.07,3.45,3.45,0,0,1-2.77-1.16,4.76,4.76,0,0,1-1-3.21,6.06,6.06,0,0,1,.43-2.36,3.65,3.65,0,0,1,1.23-1.61,3.09,3.09,0,0,1,1.88-.58,3.14,3.14,0,0,1,2.61,1.12,4.72,4.72,0,0,1,.91,3.09C187.56,190.52,187.55,190.77,187.53,191Zm-1.44-1.2a3.09,3.09,0,0,0-.51-1.92,1.74,1.74,0,0,0-1.5-.67c-1.22,0-1.89.9-2,2.69h4Z"/><path d="M157.44,111l-.16,1.31h-3.09v9.84h-1.54v-9.84h-3.17V111Z"/><path d="M164.66,118.35h-5.44a3.34,3.34,0,0,0,.72,2.07,2.05,2.05,0,0,0,1.58.66,3.78,3.78,0,0,0,1.14-.17,4.73,4.73,0,0,0,1.08-.57l.65.89a4.74,4.74,0,0,1-3,1.07,3.46,3.46,0,0,1-2.78-1.17,4.79,4.79,0,0,1-1-3.2,6,6,0,0,1,.43-2.36A3.59,3.59,0,0,1,159.3,114a3.09,3.09,0,0,1,1.88-.58,3.18,3.18,0,0,1,2.61,1.11,4.83,4.83,0,0,1,.91,3.1C164.7,117.83,164.68,118.09,164.66,118.35Zm-5.49-6.51-.63-.73,2.19-1.83h1l2.2,1.83-.65.73-2-1.36Zm4.05,5.31a3.2,3.2,0,0,0-.5-1.93,1.77,1.77,0,0,0-1.51-.66c-1.22,0-1.88.89-2,2.69h4Z"/><path d="M170.2,117.54l3,4.56h-1.79l-2.09-3.61-2.12,3.61h-1.69l3-4.5-2.64-4h1.75l1.78,3.13,1.8-3.13h1.68Z"/><path d="M179.09,121.71a3.27,3.27,0,0,1-1.91.59,2.23,2.23,0,0,1-1.69-.63,2.44,2.44,0,0,1-.61-1.8v-5.15h-1.49v-1.15h1.49v-1.93l1.49-.17v2.1h2l-.16,1.15h-1.86v5.08a1.63,1.63,0,0,0,.23,1,1,1,0,0,0,.79.3,2.53,2.53,0,0,0,1.13-.34Z"/><path d="M182.12,109.77a1,1,0,0,1,.29.72,1,1,0,0,1-.29.72,1.06,1.06,0,0,1-.76.29,1,1,0,0,1-.75-.29,1,1,0,0,1-.29-.72,1,1,0,0,1,.29-.72,1,1,0,0,1,.75-.3A1,1,0,0,1,182.12,109.77Zm0,3.8v8.53h-1.49v-8.53Z"/><path d="M185.59,121.8a1.9,1.9,0,0,1-.48-1.38V110.14l1.49-.18v10.43a.91.91,0,0,0,.12.52.53.53,0,0,0,.42.16,1.58,1.58,0,0,0,.55-.1l.39,1a2.49,2.49,0,0,1-1.19.29A1.72,1.72,0,0,1,185.59,121.8Z"/><path d="M147.22,147.3a4.48,4.48,0,0,1,1.65,2,7.62,7.62,0,0,1,.59,3.14,7.5,7.5,0,0,1-.59,3.11,4.63,4.63,0,0,1-6.59,2,4.29,4.29,0,0,1-1.65-2,8.52,8.52,0,0,1,0-6.23,4.52,4.52,0,0,1,1.66-2,4.42,4.42,0,0,1,2.46-.69A4.59,4.59,0,0,1,147.22,147.3Zm-4.74,1.7a5.8,5.8,0,0,0-.81,3.43,5.64,5.64,0,0,0,.82,3.4,2.68,2.68,0,0,0,2.26,1.08q3.08,0,3.08-4.5t-3.08-4.51A2.64,2.64,0,0,0,142.48,149Z"/><path d="M158.24,158H157l-.12-1.32a3.23,3.23,0,0,1-1.11,1.15,3,3,0,0,1-1.54.37,2.27,2.27,0,0,1-1.75-.68,2.75,2.75,0,0,1-.63-1.93v-6.12h1.49v6a1.93,1.93,0,0,0,.31,1.24,1.24,1.24,0,0,0,1,.36,2.55,2.55,0,0,0,2.14-1.47v-6.09h1.49Z"/><path d="M165.62,157.59a3.27,3.27,0,0,1-1.91.59,2.23,2.23,0,0,1-1.69-.63,2.44,2.44,0,0,1-.61-1.8V150.6h-1.49v-1.15h1.49v-1.93l1.49-.18v2.11h2l-.16,1.15H162.9v5.08a1.63,1.63,0,0,0,.23,1,1,1,0,0,0,.79.3,2.53,2.53,0,0,0,1.13-.34Z"/><path d="M171.71,149.35l-.28,1.46a3.36,3.36,0,0,0-.74-.1,1.58,1.58,0,0,0-1.28.59,4.15,4.15,0,0,0-.76,1.81V158h-1.49v-8.53h1.28l.14,1.73a3.28,3.28,0,0,1,.93-1.44,2.06,2.06,0,0,1,1.36-.48A3.73,3.73,0,0,1,171.71,149.35Z"/><path d="M178.92,150.45a5,5,0,0,1,1,3.26,5.59,5.59,0,0,1-.46,2.34,3.56,3.56,0,0,1-1.31,1.57,3.67,3.67,0,0,1-2,.56,3.45,3.45,0,0,1-2.8-1.2,4.91,4.91,0,0,1-1-3.26,5.75,5.75,0,0,1,.45-2.34,3.62,3.62,0,0,1,1.31-1.57,3.71,3.71,0,0,1,2.06-.55A3.41,3.41,0,0,1,178.92,150.45Zm-5,3.27c0,2.17.73,3.26,2.2,3.26s2.2-1.09,2.2-3.27-.73-3.26-2.18-3.26S173.91,151.54,173.91,153.72Z"/><path d="M186.26,149.5a4.46,4.46,0,0,1,1.33.73l-.63.94a4.75,4.75,0,0,0-1.11-.55,3.4,3.4,0,0,0-1.11-.18,2,2,0,0,0-1.15.3,1,1,0,0,0-.42.81.93.93,0,0,0,.4.81,4.32,4.32,0,0,0,1.43.57,5.16,5.16,0,0,1,2.13,1,2.12,2.12,0,0,1,.7,1.69,2.16,2.16,0,0,1-1,1.92,4.07,4.07,0,0,1-2.38.67,4.77,4.77,0,0,1-3.23-1.12l.8-.91a3.86,3.86,0,0,0,2.39.83,2.29,2.29,0,0,0,1.34-.35,1.1,1.1,0,0,0,.49-.95,1.32,1.32,0,0,0-.17-.7,1.43,1.43,0,0,0-.62-.47,7.79,7.79,0,0,0-1.28-.43,4.52,4.52,0,0,1-2-1,2.07,2.07,0,0,1-.6-1.53,2,2,0,0,1,.39-1.2,2.54,2.54,0,0,1,1.1-.84,4,4,0,0,1,1.58-.3A4.75,4.75,0,0,1,186.26,149.5Z"/><path d="M24.34,272.2a6,6,0,0,1,1.41.74l-1,1.29a6.12,6.12,0,0,0-1.85-1.18,6.88,6.88,0,0,0-2.36-.32,4.54,4.54,0,0,1-2.45-.66,4.33,4.33,0,0,1-1.64-1.94,7.52,7.52,0,0,1-.59-3.12,7.6,7.6,0,0,1,.59-3.11,4.52,4.52,0,0,1,1.66-2,4.42,4.42,0,0,1,2.46-.69,4.51,4.51,0,0,1,2.47.68,4.34,4.34,0,0,1,1.65,2,7.46,7.46,0,0,1,.59,3.14,6.42,6.42,0,0,1-.64,3.12,4.57,4.57,0,0,1-1.92,1.82A4.59,4.59,0,0,1,24.34,272.2Zm-6-1.79a2.69,2.69,0,0,0,2.26,1.09q3.08,0,3.08-4.51t-3.08-4.51a2.64,2.64,0,0,0-2.27,1.1,5.83,5.83,0,0,0-.8,3.43A5.71,5.71,0,0,0,18.31,270.41Z" style="fill:#1d1d1b"/><path d="M34,272.56H32.76l-.11-1.32a3.17,3.17,0,0,1-1.12,1.15,2.94,2.94,0,0,1-1.53.37,2.27,2.27,0,0,1-1.75-.68,2.74,2.74,0,0,1-.64-1.93V264H29.1v6a2,2,0,0,0,.31,1.24,1.27,1.27,0,0,0,1,.36,2.52,2.52,0,0,0,2.13-1.47V264H34Z" style="fill:#1d1d1b"/><path d="M39.14,259.59l.67,1.25-3.44,1.39-.45-.79ZM38.61,264v8.53H37.12V264Z" style="fill:#1d1d1b"/><path d="M51.93,264.54a2.7,2.7,0,0,1,.64,1.9v6.12H51.08v-5.91q0-1.65-1.2-1.65a1.58,1.58,0,0,0-1.07.37,4.9,4.9,0,0,0-.94,1.14v6.05H46.38v-5.91q0-1.65-1.2-1.65a1.6,1.6,0,0,0-1.08.38,5,5,0,0,0-.93,1.13v6.05H41.68V264H43l.13,1.25a2.87,2.87,0,0,1,2.46-1.44,2.28,2.28,0,0,1,1.36.4,2.22,2.22,0,0,1,.8,1.14,4,4,0,0,1,1.11-1.15,2.57,2.57,0,0,1,1.43-.39A2.14,2.14,0,0,1,51.93,264.54Z" style="fill:#1d1d1b"/><path d="M57.05,260.23a1.05,1.05,0,0,1,0,1.45,1.16,1.16,0,0,1-1.51,0,1.05,1.05,0,0,1,0-1.45,1.13,1.13,0,0,1,1.51,0Zm0,3.8v8.53H55.56V264Z" style="fill:#1d1d1b"/><path d="M64.63,264.06a3.84,3.84,0,0,1,1.21.7l-.71.94a3.5,3.5,0,0,0-.88-.48,2.87,2.87,0,0,0-1-.15,1.84,1.84,0,0,0-1.61.82,4.33,4.33,0,0,0-.57,2.45,4.05,4.05,0,0,0,.56,2.39,1.9,1.9,0,0,0,1.62.77,2.69,2.69,0,0,0,.92-.16,4.75,4.75,0,0,0,.94-.49l.68,1a4,4,0,0,1-2.6.94,3.38,3.38,0,0,1-2.73-1.17,4.76,4.76,0,0,1-1-3.22A5.68,5.68,0,0,1,60,266a3.7,3.7,0,0,1,1.28-1.59,3.52,3.52,0,0,1,2-.56A4.14,4.14,0,0,1,64.63,264.06Z" style="fill:#1d1d1b"/><path d="M73.79,271.34a1,1,0,0,0,.54.38l-.34,1a2.37,2.37,0,0,1-1.07-.37,1.74,1.74,0,0,1-.6-.91,2.87,2.87,0,0,1-2.54,1.28,2.74,2.74,0,0,1-2-.71,2.49,2.49,0,0,1-.73-1.87,2.41,2.41,0,0,1,1-2.08,4.54,4.54,0,0,1,2.77-.73h1.32v-.63a1.67,1.67,0,0,0-.44-1.3,2,2,0,0,0-1.35-.39,7.62,7.62,0,0,0-2.3.45l-.37-1.08a8.56,8.56,0,0,1,3-.58,3.09,3.09,0,0,1,2.25.73,2.81,2.81,0,0,1,.75,2.1v3.9A1.33,1.33,0,0,0,73.79,271.34Zm-1.66-1v-2H71c-1.58,0-2.37.59-2.37,1.75a1.59,1.59,0,0,0,.38,1.15,1.43,1.43,0,0,0,1.1.39A2.23,2.23,0,0,0,72.13,270.31Z" style="fill:#1d1d1b"/><path d="M84.88,259.5l1.27.29-3.74,14.46-1.28-.31Z" style="fill:#1d1d1b"/><path d="M99.89,262.27a3.05,3.05,0,0,1,1.14,2.59,3.21,3.21,0,0,1-1.18,2.72,5.14,5.14,0,0,1-3.15.89H95.3v4.09H93.76V261.41h2.93A5.21,5.21,0,0,1,99.89,262.27Zm-1.2,4.47a2.19,2.19,0,0,0,.7-1.87,2,2,0,0,0-.7-1.73,3.26,3.26,0,0,0-2-.53H95.3v4.64h1.34A3.46,3.46,0,0,0,98.69,266.74Z" style="fill:#1d1d1b"/><path d="M109.5,268.81h-5.44a3.28,3.28,0,0,0,.71,2.07,2.07,2.07,0,0,0,1.58.66,3.49,3.49,0,0,0,1.14-.17,4.53,4.53,0,0,0,1.08-.57l.65.89a4.74,4.74,0,0,1-3,1.07,3.46,3.46,0,0,1-2.78-1.17,4.77,4.77,0,0,1-1-3.2,6,6,0,0,1,.43-2.36,3.65,3.65,0,0,1,1.23-1.61,3.09,3.09,0,0,1,1.88-.58,3.16,3.16,0,0,1,2.61,1.11,4.77,4.77,0,0,1,.91,3.1C109.53,268.3,109.52,268.55,109.5,268.81Zm-1.45-1.2a3.15,3.15,0,0,0-.5-1.93,1.75,1.75,0,0,0-1.5-.66c-1.22,0-1.89.9-2,2.69h4Z" style="fill:#1d1d1b"/><path d="M116.22,272.18a3.37,3.37,0,0,1-1.92.58,2.28,2.28,0,0,1-1.69-.62,2.52,2.52,0,0,1-.6-1.81v-5.15h-1.49V264H112V262.1l1.49-.17V264h2l-.16,1.15H113.5v5.09a1.54,1.54,0,0,0,.23,1,1,1,0,0,0,.79.3,2.4,2.4,0,0,0,1.13-.34Z" style="fill:#1d1d1b"/><path d="M122.3,263.93l-.27,1.46a3.37,3.37,0,0,0-.75-.1,1.59,1.59,0,0,0-1.28.59,4.46,4.46,0,0,0-.76,1.81v4.87h-1.49V264H119l.15,1.73a3.32,3.32,0,0,1,.92-1.44,2.07,2.07,0,0,1,1.36-.48A3.73,3.73,0,0,1,122.3,263.93Z" style="fill:#1d1d1b"/><path d="M130,265a4.88,4.88,0,0,1,1,3.25,5.52,5.52,0,0,1-.46,2.34,3.5,3.5,0,0,1-1.31,1.57,3.67,3.67,0,0,1-2,.56,3.46,3.46,0,0,1-2.8-1.2,4.9,4.9,0,0,1-1-3.25,5.68,5.68,0,0,1,.45-2.34,3.51,3.51,0,0,1,1.31-1.57,3.65,3.65,0,0,1,2.06-.56A3.41,3.41,0,0,1,130,265Zm-5,3.27c0,2.17.74,3.25,2.2,3.25s2.21-1.09,2.21-3.27-.73-3.25-2.19-3.25S125,266.13,125,268.31Z" style="fill:#1d1d1b"/><path d="M140.07,264v12l-1.49-.18v-4.4a3,3,0,0,1-1.05,1,2.77,2.77,0,0,1-1.38.35,2.72,2.72,0,0,1-2.37-1.2,5.44,5.44,0,0,1-.85-3.22,6.25,6.25,0,0,1,.4-2.33,3.65,3.65,0,0,1,1.17-1.6,2.87,2.87,0,0,1,1.78-.57,3.13,3.13,0,0,1,2.39,1.15l.12-1Zm-2.43,7.23a3.85,3.85,0,0,0,.94-.95v-4.17a3.2,3.2,0,0,0-.9-.84,2.07,2.07,0,0,0-1.08-.28,1.72,1.72,0,0,0-1.53.82,4.6,4.6,0,0,0-.54,2.47,4.81,4.81,0,0,0,.5,2.46,1.61,1.61,0,0,0,1.44.81A2.14,2.14,0,0,0,137.64,271.26Z" style="fill:#1d1d1b"/><path d="M149.49,272.56h-1.28l-.11-1.32a3.26,3.26,0,0,1-1.12,1.15,3,3,0,0,1-1.54.37,2.29,2.29,0,0,1-1.75-.68,2.74,2.74,0,0,1-.63-1.93V264h1.49v6a1.91,1.91,0,0,0,.31,1.24,1.24,1.24,0,0,0,1,.36,2.54,2.54,0,0,0,2.14-1.47V264h1.49Z" style="fill:#1d1d1b"/><path d="M154.59,259.59l.66,1.25-3.43,1.39-.45-.79Zm-.53,4.44v8.53h-1.49V264Z" style="fill:#1d1d1b"/><path d="M167.38,264.54a2.74,2.74,0,0,1,.63,1.9v6.12h-1.49v-5.91c0-1.1-.4-1.65-1.19-1.65a1.57,1.57,0,0,0-1.07.37,4.66,4.66,0,0,0-.94,1.14v6.05h-1.49v-5.91q0-1.65-1.2-1.65a1.64,1.64,0,0,0-1.09.38,5,5,0,0,0-.92,1.13v6.05h-1.49V264h1.28l.13,1.25a2.87,2.87,0,0,1,2.46-1.44,2.15,2.15,0,0,1,2.16,1.54,4.06,4.06,0,0,1,1.1-1.15,2.63,2.63,0,0,1,1.44-.39A2.14,2.14,0,0,1,167.38,264.54Z" style="fill:#1d1d1b"/><path d="M172.5,260.23a1.05,1.05,0,0,1,0,1.45,1.09,1.09,0,0,1-.76.28,1.07,1.07,0,0,1-.75-.28,1.05,1.05,0,0,1,0-1.45,1,1,0,0,1,.75-.29A1,1,0,0,1,172.5,260.23Zm0,3.8v8.53H171V264Z" style="fill:#1d1d1b"/><path d="M180.08,264.06a3.84,3.84,0,0,1,1.21.7l-.71.94a3.5,3.5,0,0,0-.88-.48,2.91,2.91,0,0,0-.95-.15,1.84,1.84,0,0,0-1.61.82,4.24,4.24,0,0,0-.58,2.45,4,4,0,0,0,.57,2.39,1.9,1.9,0,0,0,1.62.77,2.73,2.73,0,0,0,.92-.16,5,5,0,0,0,.94-.49l.68,1a4,4,0,0,1-2.61.94,3.41,3.41,0,0,1-2.73-1.17,4.81,4.81,0,0,1-1-3.22,5.84,5.84,0,0,1,.45-2.38,3.65,3.65,0,0,1,1.29-1.59,3.49,3.49,0,0,1,2-.56A4.2,4.2,0,0,1,180.08,264.06Z" style="fill:#1d1d1b"/><path d="M189.24,271.34a1.06,1.06,0,0,0,.53.38l-.34,1a2.37,2.37,0,0,1-1.06-.37,1.74,1.74,0,0,1-.6-.91,2.88,2.88,0,0,1-2.55,1.28,2.75,2.75,0,0,1-2-.71,2.53,2.53,0,0,1-.73-1.87,2.44,2.44,0,0,1,1-2.08,4.57,4.57,0,0,1,2.78-.73h1.31v-.63a1.63,1.63,0,0,0-.44-1.3,2,2,0,0,0-1.34-.39,7.57,7.57,0,0,0-2.3.45l-.37-1.08a8.56,8.56,0,0,1,2.95-.58,3.09,3.09,0,0,1,2.25.73,2.84,2.84,0,0,1,.74,2.1v3.9A1.33,1.33,0,0,0,189.24,271.34Zm-1.67-1v-2h-1.12c-1.57,0-2.36.59-2.36,1.75a1.59,1.59,0,0,0,.37,1.15,1.46,1.46,0,0,0,1.1.39A2.21,2.21,0,0,0,187.57,270.31Z" style="fill:#1d1d1b"/><path d="M123.29,345.89l-.84-2.81h-4.23l-.84,2.81h-1.56l3.58-11.16h1.95l3.56,11.16Zm-4.7-4.05h3.48L120.34,336Z" style="fill:#1d1d1b"/><path d="M126.94,345.59a1.91,1.91,0,0,1-.48-1.39V333.92l1.49-.18v10.43a.89.89,0,0,0,.12.52.48.48,0,0,0,.42.16,1.42,1.42,0,0,0,.55-.1l.39,1a2.52,2.52,0,0,1-1.19.29A1.72,1.72,0,0,1,126.94,345.59Z" style="fill:#1d1d1b"/><path d="M132.78,333.55a1.05,1.05,0,0,1,0,1.45,1.05,1.05,0,0,1-.76.28,1,1,0,0,1-.75-.28,1.05,1.05,0,0,1,0-1.45,1,1,0,0,1,.75-.29A1,1,0,0,1,132.78,333.55Zm0,3.8v8.54h-1.49v-8.54Z" style="fill:#1d1d1b"/><path d="M146.1,337.86a2.77,2.77,0,0,1,.63,1.91v6.12h-1.48V340c0-1.11-.41-1.66-1.2-1.66a1.62,1.62,0,0,0-1.07.37,4.9,4.9,0,0,0-.94,1.14v6.06h-1.49V340c0-1.11-.4-1.66-1.2-1.66a1.6,1.6,0,0,0-1.08.38,4.77,4.77,0,0,0-.93,1.13v6.06h-1.49v-8.54h1.28l.13,1.25a2.87,2.87,0,0,1,2.46-1.44,2.13,2.13,0,0,1,2.16,1.54,3.79,3.79,0,0,1,1.11-1.14,2.5,2.5,0,0,1,1.43-.4A2.14,2.14,0,0,1,146.1,337.86Z" style="fill:#1d1d1b"/><path d="M156.14,342.13H150.7a3.34,3.34,0,0,0,.71,2.07,2.08,2.08,0,0,0,1.59.67,3.39,3.39,0,0,0,1.13-.18,4.58,4.58,0,0,0,1.09-.57l.65.89a4.74,4.74,0,0,1-3,1.07,3.45,3.45,0,0,1-2.78-1.17,4.77,4.77,0,0,1-1-3.2,6.21,6.21,0,0,1,.43-2.36,3.8,3.8,0,0,1,1.23-1.61,3.5,3.5,0,0,1,4.5.54,4.78,4.78,0,0,1,.9,3.09C156.17,341.62,156.16,341.87,156.14,342.13Zm-1.44-1.2a3.22,3.22,0,0,0-.5-1.93,1.79,1.79,0,0,0-1.51-.66c-1.22,0-1.88.9-2,2.69h4Z" style="fill:#1d1d1b"/><path d="M164.39,337.85a2.7,2.7,0,0,1,.66,1.92v6.12h-1.49V340a1.91,1.91,0,0,0-.34-1.28,1.3,1.3,0,0,0-1-.38,1.91,1.91,0,0,0-1.19.39,4.08,4.08,0,0,0-1,1.12v6.06h-1.49v-8.54h1.28l.13,1.27a3.39,3.39,0,0,1,1.13-1.07,2.9,2.9,0,0,1,1.48-.39A2.39,2.39,0,0,1,164.39,337.85Z" style="fill:#1d1d1b"/><path d="M172.35,345.5a3.26,3.26,0,0,1-1.91.58,2.27,2.27,0,0,1-1.69-.62,2.48,2.48,0,0,1-.61-1.81V338.5h-1.49v-1.15h1.49v-1.92l1.49-.18v2.1h2l-.16,1.15h-1.86v5.09a1.61,1.61,0,0,0,.23,1,1,1,0,0,0,.79.3,2.4,2.4,0,0,0,1.13-.34Z" style="fill:#1d1d1b"/><path d="M179.89,338.36a5,5,0,0,1,1,3.25,5.68,5.68,0,0,1-.45,2.34,3.51,3.51,0,0,1-1.31,1.57,3.67,3.67,0,0,1-2,.56,3.45,3.45,0,0,1-2.8-1.2,4.9,4.9,0,0,1-1-3.25,5.52,5.52,0,0,1,.46-2.34,3.51,3.51,0,0,1,1.31-1.57,3.6,3.6,0,0,1,2.05-.56A3.45,3.45,0,0,1,179.89,338.36Zm-5,3.27c0,2.17.73,3.25,2.2,3.25s2.2-1.09,2.2-3.27-.73-3.25-2.19-3.25S174.88,339.45,174.88,341.63Z" style="fill:#1d1d1b"/><path d="M187.23,337.4a4.84,4.84,0,0,1,1.33.73l-.63.94a5.18,5.18,0,0,0-1.11-.55,3.4,3.4,0,0,0-1.11-.18,1.94,1.94,0,0,0-1.15.3,1,1,0,0,0-.42.82,1,1,0,0,0,.39.81,4.78,4.78,0,0,0,1.44.56,5.16,5.16,0,0,1,2.13,1,2.11,2.11,0,0,1,.7,1.68,2.21,2.21,0,0,1-1,1.93,4.17,4.17,0,0,1-2.39.66,4.7,4.7,0,0,1-3.22-1.12l.79-.9a3.9,3.9,0,0,0,2.4.82,2.24,2.24,0,0,0,1.34-.35,1.08,1.08,0,0,0,.49-.94,1.24,1.24,0,0,0-.18-.71,1.47,1.47,0,0,0-.61-.47,8.89,8.89,0,0,0-1.28-.43,4.25,4.25,0,0,1-2-1,2.07,2.07,0,0,1-.61-1.52,2,2,0,0,1,.4-1.21,2.55,2.55,0,0,1,1.1-.84,4,4,0,0,1,1.58-.3A4.79,4.79,0,0,1,187.23,337.4Z" style="fill:#1d1d1b"/></g></g></svg>