<svg xmlns="http://www.w3.org/2000/svg" viewBox="0 0 730 449.35"><title>fig-6-6</title><g id="fig-6-6"><g id="preto"><path d="M440.81,103.94a5,5,0,0,1,1.59.92l-.93,1.23a4.76,4.76,0,0,0-1.16-.63,3.69,3.69,0,0,0-1.23-.2,2.42,2.42,0,0,0-2.11,1.08,5.62,5.62,0,0,0-.75,3.2,5.24,5.24,0,0,0,.74,3.12,2.47,2.47,0,0,0,2.12,1,3.55,3.55,0,0,0,1.2-.2,6.18,6.18,0,0,0,1.23-.65l.89,1.27a5.3,5.3,0,0,1-3.41,1.23,4.45,4.45,0,0,1-3.57-1.53,6.26,6.26,0,0,1-1.3-4.21,7.67,7.67,0,0,1,.59-3.11,4.86,4.86,0,0,1,1.69-2.08,4.51,4.51,0,0,1,2.59-.74A5.56,5.56,0,0,1,440.81,103.94Z" style="fill:#1d1d1b"/><path d="M452.89,105.22a6.43,6.43,0,0,1,1.31,4.25,7.33,7.33,0,0,1-.6,3.06,4.58,4.58,0,0,1-1.71,2.06,4.77,4.77,0,0,1-2.67.73,4.49,4.49,0,0,1-3.66-1.57,6.38,6.38,0,0,1-1.32-4.25,7.33,7.33,0,0,1,.6-3.06,4.58,4.58,0,0,1,1.71-2.06,4.81,4.81,0,0,1,2.69-.73A4.45,4.45,0,0,1,452.89,105.22Zm-6.55,4.28q0,4.25,2.88,4.25c1.92,0,2.88-1.42,2.88-4.28s-1-4.25-2.86-4.25S446.34,106.64,446.34,109.5Z" style="fill:#1d1d1b"/><path d="M465.68,105.17a7.91,7.91,0,0,1,1,4.3,7.17,7.17,0,0,1-1.14,4.24,3.77,3.77,0,0,1-3.24,1.61,3.6,3.6,0,0,1-2.93-1.27v5.29l-1.94.24V103.9h1.67l.15,1.51a4.16,4.16,0,0,1,1.48-1.3,3.81,3.81,0,0,1,1.82-.46A3.5,3.5,0,0,1,465.68,105.17Zm-1.11,4.3q0-4.27-2.52-4.27a2.53,2.53,0,0,0-1.5.48,4.91,4.91,0,0,0-1.19,1.25v5.45a3.06,3.06,0,0,0,1.06,1,2.91,2.91,0,0,0,1.4.35C463.66,113.73,464.57,112.31,464.57,109.47Z" style="fill:#1d1d1b"/><path d="M477.84,105.22a6.42,6.42,0,0,1,1.3,4.25,7.33,7.33,0,0,1-.59,3.06,4.65,4.65,0,0,1-1.71,2.06,4.77,4.77,0,0,1-2.67.73,4.52,4.52,0,0,1-3.67-1.57,6.43,6.43,0,0,1-1.31-4.25,7.49,7.49,0,0,1,.59-3.06,4.67,4.67,0,0,1,1.72-2.06,4.79,4.79,0,0,1,2.69-.73A4.47,4.47,0,0,1,477.84,105.22Zm-6.55,4.28q0,4.25,2.88,4.25c1.92,0,2.88-1.42,2.88-4.28s-1-4.25-2.86-4.25S471.29,106.64,471.29,109.5Z" style="fill:#1d1d1b"/><path d="M482.88,114.67a2.47,2.47,0,0,1-.62-1.81V99.42l1.95-.24v13.64a1.12,1.12,0,0,0,.16.68.61.61,0,0,0,.53.21,1.9,1.9,0,0,0,.73-.13l.5,1.36a3.19,3.19,0,0,1-1.54.38A2.28,2.28,0,0,1,482.88,114.67Z" style="fill:#1d1d1b"/><path d="M491.21,98.1l.87,1.63-4.49,1.82-.59-1Zm-.69,5.8v11.17h-1.95V103.9Z" style="fill:#1d1d1b"/><path d="M508,104.57a3.61,3.61,0,0,1,.82,2.49v8h-1.95v-7.74c0-1.43-.52-2.16-1.56-2.16a2.11,2.11,0,0,0-1.4.48,7,7,0,0,0-1.23,1.49v7.93h-1.95v-7.74c0-1.43-.52-2.16-1.56-2.16a2.13,2.13,0,0,0-1.42.49,6.52,6.52,0,0,0-1.21,1.48v7.93h-1.95V103.9h1.67l.17,1.64a3.75,3.75,0,0,1,3.22-1.89,3,3,0,0,1,1.77.53,2.88,2.88,0,0,1,1.05,1.48,5.3,5.3,0,0,1,1.45-1.49,3.3,3.3,0,0,1,1.87-.52A2.84,2.84,0,0,1,508,104.57Z" style="fill:#1d1d1b"/><path d="M521.08,110.15H514a4.36,4.36,0,0,0,.93,2.71,2.71,2.71,0,0,0,2.08.87,4.69,4.69,0,0,0,1.48-.23,6.06,6.06,0,0,0,1.42-.74l.85,1.16a6.2,6.2,0,0,1-3.9,1.4,4.51,4.51,0,0,1-3.63-1.53,6.22,6.22,0,0,1-1.31-4.19,7.83,7.83,0,0,1,.57-3.08,4.8,4.8,0,0,1,1.61-2.11,4.06,4.06,0,0,1,2.46-.76,4.14,4.14,0,0,1,3.41,1.46,6.26,6.26,0,0,1,1.19,4C521.12,109.48,521.11,109.81,521.08,110.15Zm-1.89-1.57a4.18,4.18,0,0,0-.65-2.52,2.34,2.34,0,0,0-2-.86q-2.4,0-2.61,3.51h5.23Z" style="fill:#1d1d1b"/><path d="M530.18,103.78l-.36,1.9a4.22,4.22,0,0,0-1-.12,2.06,2.06,0,0,0-1.67.76,5.6,5.6,0,0,0-1,2.37v6.38h-1.95V103.9h1.67l.2,2.27a4.14,4.14,0,0,1,1.2-1.88,2.67,2.67,0,0,1,1.78-.64A4.25,4.25,0,0,1,530.18,103.78Z" style="fill:#1d1d1b"/><path d="M540.25,105.22a6.42,6.42,0,0,1,1.3,4.25,7.33,7.33,0,0,1-.59,3.06,4.65,4.65,0,0,1-1.71,2.06,4.77,4.77,0,0,1-2.67.73,4.52,4.52,0,0,1-3.67-1.57,6.43,6.43,0,0,1-1.31-4.25,7.49,7.49,0,0,1,.59-3.06,4.67,4.67,0,0,1,1.72-2.06,4.79,4.79,0,0,1,2.69-.73A4.47,4.47,0,0,1,540.25,105.22Zm-6.55,4.28q0,4.25,2.88,4.25c1.92,0,2.88-1.42,2.88-4.28s-1-4.25-2.86-4.25S533.7,106.64,533.7,109.5Z" style="fill:#1d1d1b"/><path d="M558.77,110.15h-7.11a4.3,4.3,0,0,0,.93,2.71,2.7,2.7,0,0,0,2.07.87,4.7,4.7,0,0,0,1.49-.23,6.26,6.26,0,0,0,1.42-.74l.84,1.16a6.16,6.16,0,0,1-3.89,1.4,4.52,4.52,0,0,1-3.64-1.53,6.27,6.27,0,0,1-1.3-4.19,8,8,0,0,1,.56-3.08,4.87,4.87,0,0,1,1.61-2.11,4.07,4.07,0,0,1,2.47-.76,4.15,4.15,0,0,1,3.41,1.46,6.26,6.26,0,0,1,1.18,4C558.81,109.48,558.8,109.81,558.77,110.15Zm-1.88-1.57a4.11,4.11,0,0,0-.66-2.52,2.33,2.33,0,0,0-2-.86q-2.38,0-2.6,3.51h5.23Z" style="fill:#1d1d1b"/><path d="M575.33,104.57a3.62,3.62,0,0,1,.83,2.49v8h-1.95v-7.74c0-1.43-.52-2.16-1.57-2.16a2.08,2.08,0,0,0-1.39.48,7,7,0,0,0-1.23,1.49v7.93h-1.95v-7.74c0-1.43-.52-2.16-1.57-2.16a2.15,2.15,0,0,0-1.42.49,6.8,6.8,0,0,0-1.2,1.48v7.93h-2V103.9h1.67l.17,1.64a3.74,3.74,0,0,1,3.22-1.89,3,3,0,0,1,1.77.53,2.88,2.88,0,0,1,1,1.48,5.17,5.17,0,0,1,1.45-1.49,3.3,3.3,0,0,1,1.87-.52A2.82,2.82,0,0,1,575.33,104.57Z" style="fill:#1d1d1b"/><path d="M593.82,105.19a7.12,7.12,0,0,1,1.13,4.28,8.24,8.24,0,0,1-.53,3.06,4.66,4.66,0,0,1-1.53,2.06,3.8,3.8,0,0,1-2.33.73,3.67,3.67,0,0,1-3-1.48l-.19,1.23h-1.72V99.42l1.95-.24v6.12a3.72,3.72,0,0,1,3.15-1.65A3.55,3.55,0,0,1,593.82,105.19Zm-1.7,7.54a5.76,5.76,0,0,0,.73-3.26,6,6,0,0,0-.68-3.27,2.18,2.18,0,0,0-1.93-1,3.17,3.17,0,0,0-2.6,1.73v5.34a3.47,3.47,0,0,0,1.09,1.1,2.54,2.54,0,0,0,1.37.4A2.34,2.34,0,0,0,592.12,112.73Z" style="fill:#1d1d1b"/><path d="M598.79,114.67a2.48,2.48,0,0,1-.63-1.81V99.42l2-.24v13.64a1.19,1.19,0,0,0,.16.68.65.65,0,0,0,.54.21,1.81,1.81,0,0,0,.72-.13l.51,1.36a3.23,3.23,0,0,1-1.55.38A2.26,2.26,0,0,1,598.79,114.67Z" style="fill:#1d1d1b"/><path d="M612.32,105.22a6.43,6.43,0,0,1,1.31,4.25,7.33,7.33,0,0,1-.6,3.06,4.65,4.65,0,0,1-1.71,2.06,4.77,4.77,0,0,1-2.67.73,4.52,4.52,0,0,1-3.67-1.57,6.43,6.43,0,0,1-1.31-4.25,7.49,7.49,0,0,1,.59-3.06,4.67,4.67,0,0,1,1.72-2.06,4.79,4.79,0,0,1,2.69-.73A4.47,4.47,0,0,1,612.32,105.22Zm-6.55,4.28q0,4.25,2.88,4.25c1.92,0,2.88-1.42,2.88-4.28s-1-4.25-2.86-4.25S605.77,106.64,605.77,109.5Z" style="fill:#1d1d1b"/><path d="M622.73,103.94a5,5,0,0,1,1.59.92l-.93,1.23a4.76,4.76,0,0,0-1.16-.63,3.71,3.71,0,0,0-1.24-.2,2.41,2.41,0,0,0-2.1,1.08,5.62,5.62,0,0,0-.76,3.2,5.23,5.23,0,0,0,.75,3.12,2.47,2.47,0,0,0,2.11,1,3.61,3.61,0,0,0,1.21-.2,6.18,6.18,0,0,0,1.23-.65l.89,1.27a5.3,5.3,0,0,1-3.41,1.23,4.45,4.45,0,0,1-3.57-1.53,6.26,6.26,0,0,1-1.3-4.21,7.67,7.67,0,0,1,.59-3.11,4.91,4.91,0,0,1,1.68-2.08,4.56,4.56,0,0,1,2.6-.74A5.56,5.56,0,0,1,622.73,103.94Z" style="fill:#1d1d1b"/><path d="M634.81,105.22a6.43,6.43,0,0,1,1.31,4.25,7.33,7.33,0,0,1-.6,3.06,4.65,4.65,0,0,1-1.71,2.06,4.77,4.77,0,0,1-2.67.73,4.52,4.52,0,0,1-3.67-1.57,6.43,6.43,0,0,1-1.31-4.25,7.49,7.49,0,0,1,.59-3.06,4.67,4.67,0,0,1,1.72-2.06,4.81,4.81,0,0,1,2.69-.73A4.45,4.45,0,0,1,634.81,105.22Zm-6.55,4.28q0,4.25,2.88,4.25c1.92,0,2.88-1.42,2.88-4.28s-.95-4.25-2.86-4.25S628.26,106.64,628.26,109.5Z" style="fill:#1d1d1b"/><path d="M436.8,247.23a5,5,0,0,1,1.58.92l-.93,1.23a4.65,4.65,0,0,0-1.15-.62,3.55,3.55,0,0,0-1.24-.21,2.45,2.45,0,0,0-2.11,1.08,5.65,5.65,0,0,0-.75,3.2,5.33,5.33,0,0,0,.74,3.13,2.48,2.48,0,0,0,2.12,1,3.38,3.38,0,0,0,1.21-.2,6.66,6.66,0,0,0,1.23-.64l.88,1.27a5.27,5.27,0,0,1-3.41,1.22,4.42,4.42,0,0,1-3.56-1.52,6.28,6.28,0,0,1-1.31-4.21,7.55,7.55,0,0,1,.6-3.12,4.68,4.68,0,0,1,1.68-2.07A4.46,4.46,0,0,1,435,247,5.58,5.58,0,0,1,436.8,247.23Z" style="fill:#1d1d1b"/><path d="M448.88,248.51a6.47,6.47,0,0,1,1.3,4.26,7.49,7.49,0,0,1-.59,3.06,4.64,4.64,0,0,1-1.72,2,4.77,4.77,0,0,1-2.67.73,4.54,4.54,0,0,1-3.66-1.56,6.42,6.42,0,0,1-1.31-4.26,7.33,7.33,0,0,1,.59-3.06,4.58,4.58,0,0,1,1.72-2,4.76,4.76,0,0,1,2.68-.73A4.51,4.51,0,0,1,448.88,248.51Zm-6.56,4.28q0,4.26,2.88,4.26t2.88-4.28q0-4.26-2.86-4.26T442.32,252.79Z" style="fill:#1d1d1b"/><path d="M461.66,248.47a7.89,7.89,0,0,1,1,4.3,7.15,7.15,0,0,1-1.14,4.23,3.72,3.72,0,0,1-3.24,1.61,3.58,3.58,0,0,1-2.92-1.27v5.3l-2,.23V247.2h1.67l.15,1.5a4.35,4.35,0,0,1,1.48-1.3,3.93,3.93,0,0,1,1.83-.45A3.46,3.46,0,0,1,461.66,248.47Zm-1.1,4.3q0-4.28-2.52-4.28a2.47,2.47,0,0,0-1.5.49,4.59,4.59,0,0,0-1.19,1.25v5.44a2.92,2.92,0,0,0,1.06,1,2.87,2.87,0,0,0,1.39.35Q460.56,257,460.56,252.77Z" style="fill:#1d1d1b"/><path d="M473.83,248.51a6.53,6.53,0,0,1,1.3,4.26,7.49,7.49,0,0,1-.59,3.06,4.64,4.64,0,0,1-1.72,2,4.77,4.77,0,0,1-2.67.73,4.51,4.51,0,0,1-3.66-1.56,6.42,6.42,0,0,1-1.32-4.26,7.33,7.33,0,0,1,.6-3.06,4.56,4.56,0,0,1,1.71-2,4.81,4.81,0,0,1,2.69-.73A4.51,4.51,0,0,1,473.83,248.51Zm-6.56,4.28q0,4.26,2.88,4.26t2.88-4.28q0-4.26-2.86-4.26T467.27,252.79Z" style="fill:#1d1d1b"/><path d="M478.87,258a2.49,2.49,0,0,1-.63-1.81V242.71l1.95-.23v13.64a1.08,1.08,0,0,0,.16.67.63.63,0,0,0,.54.21,2,2,0,0,0,.72-.12l.51,1.35a3.15,3.15,0,0,1-1.55.38A2.24,2.24,0,0,1,478.87,258Z" style="fill:#1d1d1b"/><path d="M487.2,241.4l.87,1.63-4.49,1.82-.6-1Zm-.7,5.8v11.16h-1.95V247.2Z" style="fill:#1d1d1b"/><path d="M503.93,247.87a3.58,3.58,0,0,1,.83,2.49v8h-1.95v-7.73c0-1.44-.52-2.16-1.57-2.16a2.11,2.11,0,0,0-1.4.48,6.26,6.26,0,0,0-1.22,1.49v7.92h-1.95v-7.73c0-1.44-.53-2.16-1.57-2.16a2.1,2.1,0,0,0-1.42.49,6.84,6.84,0,0,0-1.21,1.48v7.92h-1.94V247.2h1.67l.17,1.63a3.72,3.72,0,0,1,3.22-1.88,2.76,2.76,0,0,1,2.81,2,5.35,5.35,0,0,1,1.45-1.5,3.41,3.41,0,0,1,1.88-.51A2.78,2.78,0,0,1,503.93,247.87Z" style="fill:#1d1d1b"/><path d="M517.06,253.45H510a4.3,4.3,0,0,0,.93,2.71A2.69,2.69,0,0,0,513,257a4.48,4.48,0,0,0,1.49-.24,5.66,5.66,0,0,0,1.41-.74l.85,1.17a6.15,6.15,0,0,1-3.9,1.39,4.51,4.51,0,0,1-3.63-1.52,6.24,6.24,0,0,1-1.3-4.19,8,8,0,0,1,.56-3.08,4.8,4.8,0,0,1,1.61-2.11,4.07,4.07,0,0,1,2.47-.76,4.12,4.12,0,0,1,3.41,1.46,6.23,6.23,0,0,1,1.18,4C517.1,252.78,517.09,253.11,517.06,253.45Zm-1.88-1.57a4.11,4.11,0,0,0-.66-2.52,2.31,2.31,0,0,0-2-.87q-2.38,0-2.6,3.52h5.23Z" style="fill:#1d1d1b"/><path d="M526.17,247.07l-.36,1.91a3.83,3.83,0,0,0-1-.13,2.09,2.09,0,0,0-1.67.76,5.72,5.72,0,0,0-1,2.38v6.37h-1.94V247.2h1.67l.19,2.27a4.21,4.21,0,0,1,1.21-1.89,2.69,2.69,0,0,1,1.78-.63A4.82,4.82,0,0,1,526.17,247.07Z" style="fill:#1d1d1b"/><path d="M536.24,248.51a6.47,6.47,0,0,1,1.3,4.26,7.49,7.49,0,0,1-.59,3.06,4.64,4.64,0,0,1-1.72,2,4.77,4.77,0,0,1-2.67.73,4.52,4.52,0,0,1-3.66-1.56,6.42,6.42,0,0,1-1.31-4.26,7.33,7.33,0,0,1,.59-3.06,4.56,4.56,0,0,1,1.71-2,4.81,4.81,0,0,1,2.69-.73A4.51,4.51,0,0,1,536.24,248.51Zm-6.56,4.28q0,4.26,2.88,4.26t2.88-4.28q0-4.26-2.86-4.26T529.68,252.79Z" style="fill:#1d1d1b"/><path d="M554.12,256.76a1.43,1.43,0,0,0,.7.5l-.44,1.35a3,3,0,0,1-1.4-.48,2.21,2.21,0,0,1-.78-1.19,3.74,3.74,0,0,1-3.33,1.67,3.55,3.55,0,0,1-2.6-.93,3.23,3.23,0,0,1-1-2.43,3.19,3.19,0,0,1,1.28-2.73,6,6,0,0,1,3.63-1h1.72v-.82a2.19,2.19,0,0,0-.57-1.7,2.59,2.59,0,0,0-1.76-.51,9.76,9.76,0,0,0-3,.6l-.48-1.42A11.17,11.17,0,0,1,550,247a4,4,0,0,1,2.94,1,3.69,3.69,0,0,1,1,2.74v5.11A1.78,1.78,0,0,0,554.12,256.76Zm-2.18-1.34v-2.57h-1.46c-2.06,0-3.09.77-3.09,2.29a2.05,2.05,0,0,0,.49,1.5,1.88,1.88,0,0,0,1.43.51A2.92,2.92,0,0,0,551.94,255.42Z" style="fill:#1d1d1b"/><path d="M558.41,258a2.49,2.49,0,0,1-.62-1.81V242.71l1.94-.23v13.64a1.16,1.16,0,0,0,.16.67.65.65,0,0,0,.54.21,2,2,0,0,0,.72-.12l.51,1.35a3.09,3.09,0,0,1-1.54.38A2.26,2.26,0,0,1,558.41,258Z" style="fill:#1d1d1b"/><path d="M569.73,257.85a4.27,4.27,0,0,1-2.5.76,3,3,0,0,1-2.21-.81,3.24,3.24,0,0,1-.8-2.36V248.7h-1.94v-1.5h1.94v-2.52l1.95-.23v2.75h2.65l-.21,1.5h-2.44v6.65a2,2,0,0,0,.31,1.26,1.2,1.2,0,0,0,1,.39,3.16,3.16,0,0,0,1.48-.44Z" style="fill:#1d1d1b"/><path d="M580.13,253.45H573a4.36,4.36,0,0,0,.94,2.71A2.67,2.67,0,0,0,576,257a4.38,4.38,0,0,0,1.48-.24,5.71,5.71,0,0,0,1.42-.74l.85,1.17a6.19,6.19,0,0,1-3.9,1.39,4.51,4.51,0,0,1-3.63-1.52,6.24,6.24,0,0,1-1.3-4.19,8,8,0,0,1,.56-3.08,4.8,4.8,0,0,1,1.61-2.11,4.06,4.06,0,0,1,2.46-.76,4.11,4.11,0,0,1,3.41,1.46,6.18,6.18,0,0,1,1.19,4C580.17,252.78,580.16,253.11,580.13,253.45Zm-1.89-1.57a4.12,4.12,0,0,0-.65-2.52,2.32,2.32,0,0,0-2-.87q-2.4,0-2.61,3.52h5.23Z" style="fill:#1d1d1b"/><path d="M589.23,247.07l-.35,1.91a3.83,3.83,0,0,0-1-.13,2.09,2.09,0,0,0-1.67.76,5.59,5.59,0,0,0-1,2.38v6.37h-2V247.2H585l.19,2.27a4.13,4.13,0,0,1,1.21-1.89,2.68,2.68,0,0,1,1.77-.63A4.69,4.69,0,0,1,589.23,247.07Z" style="fill:#1d1d1b"/><path d="M599.09,247.86a3.45,3.45,0,0,1,.86,2.5v8h-2v-7.73a2.5,2.5,0,0,0-.44-1.67,1.69,1.69,0,0,0-1.32-.49,2.52,2.52,0,0,0-1.56.51,5.17,5.17,0,0,0-1.27,1.46v7.92h-1.95V247.2h1.67l.17,1.65a4.56,4.56,0,0,1,1.47-1.4,3.89,3.89,0,0,1,1.94-.5A3.09,3.09,0,0,1,599.09,247.86Z" style="fill:#1d1d1b"/><path d="M611.62,256.76a1.43,1.43,0,0,0,.7.5l-.44,1.35a3,3,0,0,1-1.4-.48,2.22,2.22,0,0,1-.79-1.19,3.72,3.72,0,0,1-3.32,1.67,3.59,3.59,0,0,1-2.61-.93,3.26,3.26,0,0,1-1-2.43,3.19,3.19,0,0,1,1.28-2.73,6,6,0,0,1,3.63-1h1.72v-.82a2.19,2.19,0,0,0-.57-1.7,2.59,2.59,0,0,0-1.76-.51,9.76,9.76,0,0,0-3,.6l-.48-1.42a11.13,11.13,0,0,1,3.85-.76,4,4,0,0,1,2.94,1,3.69,3.69,0,0,1,1,2.74v5.11A1.7,1.7,0,0,0,611.62,256.76Zm-2.18-1.34v-2.57H608c-2.06,0-3.1.77-3.1,2.29a2.1,2.1,0,0,0,.49,1.5,1.92,1.92,0,0,0,1.44.51A2.92,2.92,0,0,0,609.44,255.42Z" style="fill:#1d1d1b"/><path d="M624,242.71v15.65h-1.72l-.19-1.55a4,4,0,0,1-1.37,1.33,3.87,3.87,0,0,1-5-1.09,7.18,7.18,0,0,1-1.11-4.22,8.3,8.3,0,0,1,.53-3.05,4.69,4.69,0,0,1,1.52-2.08,3.8,3.8,0,0,1,2.33-.75,4,4,0,0,1,3,1.37v-5.84Zm-3.18,14a4.67,4.67,0,0,0,1.23-1.24V250a4.38,4.38,0,0,0-1.17-1.09,2.8,2.8,0,0,0-1.41-.37,2.26,2.26,0,0,0-2,1.08,5.85,5.85,0,0,0-.71,3.22,6.33,6.33,0,0,0,.65,3.22,2.09,2.09,0,0,0,1.89,1.06A2.76,2.76,0,0,0,620.85,256.66Z" style="fill:#1d1d1b"/><path d="M635.9,248.51a6.47,6.47,0,0,1,1.3,4.26,7.49,7.49,0,0,1-.59,3.06,4.64,4.64,0,0,1-1.72,2,4.75,4.75,0,0,1-2.67.73,4.54,4.54,0,0,1-3.66-1.56,6.47,6.47,0,0,1-1.31-4.26,7.49,7.49,0,0,1,.59-3.06,4.64,4.64,0,0,1,1.72-2,4.77,4.77,0,0,1,2.69-.73A4.5,4.5,0,0,1,635.9,248.51Zm-6.55,4.28c0,2.84.95,4.26,2.87,4.26s2.89-1.43,2.89-4.28-1-4.26-2.86-4.26S629.35,249.94,629.35,252.79Z" style="fill:#1d1d1b"/><path d="M389.39,55.57V53.43h7.76v2.14Z" style="fill:#1d1d1b"/><path d="M411.6,63.09l-1.42-4.75H403l-1.43,4.75H399L405,44.19h3.29l6,18.9Zm-8-6.86h5.9l-2.94-9.88Z" style="fill:#1d1d1b"/><path d="M416.16,55.57V53.43h7.76v2.14Z" style="fill:#1d1d1b"/><path d="M438.38,63.09,437,58.34h-7.16l-1.43,4.75h-2.63l6.06-18.9h3.29l6,18.9Zm-8-6.86h5.9l-2.94-9.88Z" style="fill:#1d1d1b"/><path d="M442.93,55.57V53.43h7.76v2.14Z" style="fill:#1d1d1b"/><path d="M465.15,63.09l-1.43-4.75h-7.16l-1.43,4.75H452.5l6.06-18.9h3.3l6,18.9Zm-8-6.86h5.9l-2.94-9.88Z" style="fill:#1d1d1b"/><path d="M469.7,55.57V53.43h7.76v2.14Z" style="fill:#1d1d1b"/><path d="M491.92,63.09l-1.43-4.75h-7.16l-1.42,4.75h-2.64l6.07-18.9h3.29l6,18.9Zm-8-6.86h5.9l-2.93-9.88Z" style="fill:#1d1d1b"/><path d="M496.47,55.57V53.43h7.76v2.14Z" style="fill:#1d1d1b"/><path d="M518.69,63.09l-1.43-4.75H510.1l-1.42,4.75H506l6.07-18.9h3.29l6,18.9Zm-8-6.86h5.9l-2.93-9.88Z" style="fill:#1d1d1b"/><path d="M523.24,55.57V53.43H531v2.14Z" style="fill:#1d1d1b"/><path d="M546.89,54.47a4.08,4.08,0,0,1,1.2,3.24q0,5.37-7.48,5.38h-5.22V44.19h4.48a10.53,10.53,0,0,1,5.5,1.18,3.94,3.94,0,0,1,1.9,3.59,3.82,3.82,0,0,1-1,2.74,4.54,4.54,0,0,1-2.51,1.4A6.41,6.41,0,0,1,546.89,54.47ZM538,46.25v6h2.85a4.35,4.35,0,0,0,2.7-.8,2.64,2.64,0,0,0,1.06-2.25,2.39,2.39,0,0,0-1.11-2.27,7,7,0,0,0-3.36-.63Zm6.13,14.07a2.74,2.74,0,0,0,1.22-2.61A3,3,0,0,0,544.17,55a5.25,5.25,0,0,0-3.07-.82H538V61h2.61A7.39,7.39,0,0,0,544.13,60.32Z" style="fill:#1d1d1b"/><path d="M551,55.57V53.43h7.77v2.14Z" style="fill:#1d1d1b"/><path d="M574.62,54.47a4.08,4.08,0,0,1,1.2,3.24q0,5.37-7.48,5.38h-5.21V44.19h4.47a10.53,10.53,0,0,1,5.5,1.18A3.92,3.92,0,0,1,575,49a3.82,3.82,0,0,1-1,2.74,4.54,4.54,0,0,1-2.51,1.4A6.41,6.41,0,0,1,574.62,54.47Zm-8.89-8.22v6h2.85a4.4,4.4,0,0,0,2.71-.8,2.66,2.66,0,0,0,1.05-2.25,2.39,2.39,0,0,0-1.11-2.27,7,7,0,0,0-3.36-.63Zm6.13,14.07a2.74,2.74,0,0,0,1.22-2.61A3,3,0,0,0,571.9,55a5.23,5.23,0,0,0-3.07-.82h-3.1V61h2.61A7.39,7.39,0,0,0,571.86,60.32Z" style="fill:#1d1d1b"/><path d="M578.7,55.57V53.43h7.77v2.14Z" style="fill:#1d1d1b"/><path d="M602.35,54.47a4.08,4.08,0,0,1,1.2,3.24q0,5.37-7.48,5.38h-5.21V44.19h4.47a10.53,10.53,0,0,1,5.5,1.18,3.92,3.92,0,0,1,1.9,3.59,3.86,3.86,0,0,1-1,2.74,4.61,4.61,0,0,1-2.51,1.4A6.42,6.42,0,0,1,602.35,54.47Zm-8.89-8.22v6h2.85a4.4,4.4,0,0,0,2.71-.8,2.66,2.66,0,0,0,1.05-2.25A2.39,2.39,0,0,0,599,46.88a7,7,0,0,0-3.36-.63Zm6.13,14.07a2.72,2.72,0,0,0,1.22-2.61A3,3,0,0,0,599.63,55a5.23,5.23,0,0,0-3.07-.82h-3.1V61h2.61A7.39,7.39,0,0,0,599.59,60.32Z" style="fill:#1d1d1b"/><path d="M606.44,55.57V53.43h7.76v2.14Z" style="fill:#1d1d1b"/><path d="M630.08,54.47a4.09,4.09,0,0,1,1.21,3.24q0,5.37-7.49,5.38h-5.21V44.19h4.47a10.5,10.5,0,0,1,5.5,1.18,3.92,3.92,0,0,1,1.9,3.59,3.86,3.86,0,0,1-1,2.74,4.61,4.61,0,0,1-2.51,1.4A6.42,6.42,0,0,1,630.08,54.47Zm-8.89-8.22v6H624a4.4,4.4,0,0,0,2.71-.8,2.66,2.66,0,0,0,1-2.25,2.39,2.39,0,0,0-1.11-2.27,7,7,0,0,0-3.36-.63Zm6.13,14.07a2.72,2.72,0,0,0,1.22-2.61A3,3,0,0,0,627.36,55a5.23,5.23,0,0,0-3.07-.82h-3.1V61h2.61A7.39,7.39,0,0,0,627.32,60.32Z" style="fill:#1d1d1b"/><path d="M634.17,55.57V53.43h7.76v2.14Z" style="fill:#1d1d1b"/><path d="M657.81,54.47A4.05,4.05,0,0,1,659,57.71q0,5.37-7.49,5.38h-5.21V44.19h4.47a10.5,10.5,0,0,1,5.5,1.18A3.93,3.93,0,0,1,658.2,49a3.87,3.87,0,0,1-1,2.74,4.61,4.61,0,0,1-2.51,1.4A6.34,6.34,0,0,1,657.81,54.47Zm-8.89-8.22v6h2.86a4.39,4.39,0,0,0,2.7-.8,2.66,2.66,0,0,0,1-2.25,2.39,2.39,0,0,0-1.11-2.27,7,7,0,0,0-3.36-.63Zm6.13,14.07a2.72,2.72,0,0,0,1.23-2.61A3.07,3.07,0,0,0,655.1,55,5.26,5.26,0,0,0,652,54.2h-3.1V61h2.61A7.39,7.39,0,0,0,655.05,60.32Z" style="fill:#1d1d1b"/><path d="M661.9,55.57V53.43h7.76v2.14Z" style="fill:#1d1d1b"/><path d="M52.91,83.18v-2.3h8.35v2.3Z" style="fill:#1d1d1b"/><path d="M76.81,91.27l-1.53-5.11H67.57L66,91.27H63.21l6.52-20.34h3.54l6.49,20.34Zm-8.56-7.38H74.6L71.44,73.26Z" style="fill:#1d1d1b"/><path d="M81.71,83.18v-2.3h8.35v2.3Z" style="fill:#1d1d1b"/><path d="M105.62,91.27l-1.54-5.11h-7.7l-1.53,5.11H92l6.53-20.34h3.54l6.49,20.34Zm-8.56-7.38h6.34l-3.15-10.63Z" style="fill:#1d1d1b"/><path d="M110.52,83.18v-2.3h8.35v2.3Z" style="fill:#1d1d1b"/><path d="M134.42,91.27l-1.53-5.11h-7.71l-1.53,5.11h-2.83l6.52-20.34h3.54l6.49,20.34Zm-8.56-7.38h6.35l-3.16-10.63Z" style="fill:#1d1d1b"/><path d="M139.32,83.18v-2.3h8.35v2.3Z" style="fill:#1d1d1b"/><path d="M163.23,91.27l-1.54-5.11H154l-1.53,5.11h-2.84l6.52-20.34h3.55l6.49,20.34Zm-8.56-7.38H161l-3.15-10.63Z" style="fill:#1d1d1b"/><path d="M168.13,83.18v-2.3h8.35v2.3Z" style="fill:#1d1d1b"/><path d="M192,91.27l-1.53-5.11h-7.71l-1.53,5.11h-2.83L185,70.93h3.54L195,91.27Zm-8.56-7.38h6.35l-3.16-10.63Z" style="fill:#1d1d1b"/><path d="M196.93,83.18v-2.3h8.35v2.3Z" style="fill:#1d1d1b"/><path d="M220.84,91.27l-1.54-5.11h-7.7l-1.54,5.11h-2.83l6.52-20.34h3.54l6.5,20.34Zm-8.56-7.38h6.34l-3.16-10.63Z" style="fill:#1d1d1b"/><path d="M225.74,83.18v-2.3h8.35v2.3Z" style="fill:#1d1d1b"/><path d="M249.64,91.27l-1.53-5.11H240.4l-1.53,5.11H236l6.52-20.34h3.54l6.49,20.34Zm-8.56-7.38h6.35l-3.16-10.63Z" style="fill:#1d1d1b"/><path d="M254.54,83.18v-2.3h8.35v2.3Z" style="fill:#1d1d1b"/><path d="M278.45,91.27l-1.54-5.11h-7.7l-1.54,5.11h-2.83l6.52-20.34h3.54l6.5,20.34Zm-8.56-7.38h6.34l-3.16-10.63Z" style="fill:#1d1d1b"/><path d="M283.35,83.18v-2.3h8.35v2.3Z" style="fill:#1d1d1b"/><path d="M307.25,91.27l-1.53-5.11H298l-1.53,5.11h-2.83l6.52-20.34h3.54l6.49,20.34Zm-8.56-7.38H305l-3.16-10.63Z" style="fill:#1d1d1b"/><path d="M312.15,83.18v-2.3h8.35v2.3Z" style="fill:#1d1d1b"/><path d="M397.53,191.74v-2.12h7.68v2.12Z" style="fill:#1d1d1b"/><path d="M419.52,199.18l-1.41-4.7H411l-1.41,4.7H407l6-18.71h3.26l6,18.71Zm-7.87-6.79h5.83l-2.9-9.77Z" style="fill:#1d1d1b"/><path d="M424,191.74v-2.12h7.68v2.12Z" style="fill:#1d1d1b"/><path d="M447.43,190.65a4,4,0,0,1,1.2,3.21q0,5.32-7.42,5.32h-5.15V180.47h4.42a10.44,10.44,0,0,1,5.45,1.17,3.89,3.89,0,0,1,1.88,3.56,3.8,3.8,0,0,1-1,2.71,4.5,4.5,0,0,1-2.48,1.39A6.21,6.21,0,0,1,447.43,190.65Zm-8.79-8.14v5.89h2.82a4.26,4.26,0,0,0,2.67-.79,2.6,2.6,0,0,0,1.05-2.22,2.38,2.38,0,0,0-1.1-2.26,7,7,0,0,0-3.33-.62Zm6.07,13.93a2.7,2.7,0,0,0,1.2-2.58,3,3,0,0,0-1.16-2.66,5.17,5.17,0,0,0-3-.82h-3.07v6.74h2.57A7.31,7.31,0,0,0,444.71,196.44Z" style="fill:#1d1d1b"/><path d="M451.48,191.74v-2.12h7.68v2.12Z" style="fill:#1d1d1b"/><path d="M473.47,199.18l-1.41-4.7H465l-1.41,4.7H461l6-18.71h3.25l6,18.71Zm-7.87-6.79h5.84l-2.91-9.77Z" style="fill:#1d1d1b"/><path d="M478,191.74v-2.12h7.68v2.12Z" style="fill:#1d1d1b"/><path d="M501.39,190.65a4,4,0,0,1,1.19,3.21q0,5.32-7.41,5.32H490V180.47h4.43a10.4,10.4,0,0,1,5.44,1.17,3.9,3.9,0,0,1,1.89,3.56,3.8,3.8,0,0,1-1,2.71,4.57,4.57,0,0,1-2.49,1.39A6.29,6.29,0,0,1,501.39,190.65Zm-8.8-8.14v5.89h2.82a4.31,4.31,0,0,0,2.68-.79,2.59,2.59,0,0,0,1-2.22,2.36,2.36,0,0,0-1.1-2.26,7,7,0,0,0-3.32-.62Zm6.07,13.93a2.7,2.7,0,0,0,1.21-2.58,3,3,0,0,0-1.17-2.66,5.15,5.15,0,0,0-3-.82h-3.07v6.74h2.58A7.29,7.29,0,0,0,498.66,196.44Z" style="fill:#1d1d1b"/><path d="M505.43,191.74v-2.12h7.69v2.12Z" style="fill:#1d1d1b"/><path d="M527.43,199.18l-1.42-4.7h-7.08l-1.41,4.7h-2.61l6-18.71h3.26l6,18.71Zm-7.88-6.79h5.84l-2.91-9.77Z" style="fill:#1d1d1b"/><path d="M531.93,191.74v-2.12h7.69v2.12Z" style="fill:#1d1d1b"/><path d="M555.34,190.65a4,4,0,0,1,1.19,3.21q0,5.32-7.41,5.32H544V180.47h4.43a10.4,10.4,0,0,1,5.44,1.17,3.9,3.9,0,0,1,1.89,3.56,3.8,3.8,0,0,1-1,2.71,4.57,4.57,0,0,1-2.48,1.39A6.29,6.29,0,0,1,555.34,190.65Zm-8.8-8.14v5.89h2.83a4.3,4.3,0,0,0,2.67-.79,2.6,2.6,0,0,0,1.05-2.22,2.38,2.38,0,0,0-1.1-2.26,7.06,7.06,0,0,0-3.33-.62Zm6.07,13.93a2.68,2.68,0,0,0,1.21-2.58,3,3,0,0,0-1.17-2.66,5.15,5.15,0,0,0-3-.82h-3.07v6.74h2.58A7.29,7.29,0,0,0,552.61,196.44Z" style="fill:#1d1d1b"/><path d="M559.38,191.74v-2.12h7.69v2.12Z" style="fill:#1d1d1b"/><path d="M581.38,199.18l-1.41-4.7h-7.09l-1.41,4.7h-2.61l6-18.71h3.26l6,18.71Zm-7.88-6.79h5.84l-2.9-9.77Z" style="fill:#1d1d1b"/><path d="M585.88,191.74v-2.12h7.69v2.12Z" style="fill:#1d1d1b"/><path d="M609.29,190.65a4,4,0,0,1,1.2,3.21q0,5.32-7.42,5.32h-5.16V180.47h4.43a10.37,10.37,0,0,1,5.44,1.17,3.9,3.9,0,0,1,1.89,3.56,3.8,3.8,0,0,1-1,2.71,4.54,4.54,0,0,1-2.48,1.39A6.29,6.29,0,0,1,609.29,190.65Zm-8.8-8.14v5.89h2.83a4.3,4.3,0,0,0,2.67-.79,2.6,2.6,0,0,0,1-2.22,2.38,2.38,0,0,0-1.1-2.26,7,7,0,0,0-3.33-.62Zm6.07,13.93a2.68,2.68,0,0,0,1.21-2.58,3,3,0,0,0-1.17-2.66,5.15,5.15,0,0,0-3-.82h-3.07v6.74h2.58A7.26,7.26,0,0,0,606.56,196.44Z" style="fill:#1d1d1b"/><path d="M613.34,191.74v-2.12H621v2.12Z" style="fill:#1d1d1b"/><path d="M635.33,199.18l-1.41-4.7h-7.09l-1.41,4.7h-2.61l6-18.71h3.26l6,18.71Zm-7.87-6.79h5.83l-2.9-9.77Z" style="fill:#1d1d1b"/><path d="M639.84,191.74v-2.12h7.68v2.12Z" style="fill:#1d1d1b"/><path d="M663.24,190.65a4,4,0,0,1,1.2,3.21q0,5.32-7.41,5.32h-5.16V180.47h4.42a10.44,10.44,0,0,1,5.45,1.17,3.91,3.91,0,0,1,1.88,3.56,3.84,3.84,0,0,1-1,2.71,4.57,4.57,0,0,1-2.49,1.39A6.21,6.21,0,0,1,663.24,190.65Zm-8.79-8.14v5.89h2.82a4.26,4.26,0,0,0,2.67-.79,2.6,2.6,0,0,0,1-2.22,2.38,2.38,0,0,0-1.1-2.26,7,7,0,0,0-3.33-.62Zm6.06,13.93a2.68,2.68,0,0,0,1.21-2.58,3,3,0,0,0-1.17-2.66,5.13,5.13,0,0,0-3-.82h-3.06v6.74H657A7.24,7.24,0,0,0,660.51,196.44Z" style="fill:#1d1d1b"/><path d="M667.29,191.74v-2.12H675v2.12Z" style="fill:#1d1d1b"/><path d="M400,339v-2.09h7.57V339Z" style="fill:#1d1d1b"/><path d="M423.07,337.9a4,4,0,0,1,1.17,3.16q0,5.24-7.3,5.24h-5.08V327.87h4.36a10.24,10.24,0,0,1,5.36,1.15,3.85,3.85,0,0,1,1.86,3.5,3.76,3.76,0,0,1-1,2.68,4.47,4.47,0,0,1-2.45,1.36A6.23,6.23,0,0,1,423.07,337.9Zm-8.67-8v5.8h2.78a4.33,4.33,0,0,0,2.64-.77,2.61,2.61,0,0,0,1-2.2,2.32,2.32,0,0,0-1.09-2.22,6.8,6.8,0,0,0-3.27-.61Zm6,13.72a2.66,2.66,0,0,0,1.19-2.54,3,3,0,0,0-1.15-2.62,5.11,5.11,0,0,0-3-.81h-3v6.64h2.54A7.08,7.08,0,0,0,420.38,343.6Z" style="fill:#1d1d1b"/><path d="M427.05,339v-2.09h7.58V339Z" style="fill:#1d1d1b"/><path d="M450.12,337.9a4,4,0,0,1,1.17,3.16q0,5.24-7.3,5.24h-5.08V327.87h4.36a10.24,10.24,0,0,1,5.36,1.15,3.85,3.85,0,0,1,1.86,3.5,3.8,3.8,0,0,1-1,2.68,4.51,4.51,0,0,1-2.45,1.36A6.27,6.27,0,0,1,450.12,337.9Zm-8.67-8v5.8h2.78a4.33,4.33,0,0,0,2.64-.77,2.6,2.6,0,0,0,1-2.2,2.33,2.33,0,0,0-1.08-2.22,6.82,6.82,0,0,0-3.28-.61Zm6,13.72a2.66,2.66,0,0,0,1.19-2.54,3,3,0,0,0-1.15-2.62,5.11,5.11,0,0,0-3-.81h-3v6.64H444A7.11,7.11,0,0,0,447.43,343.6Z" style="fill:#1d1d1b"/><path d="M454.1,339v-2.09h7.57V339Z" style="fill:#1d1d1b"/><path d="M475.77,346.3l-1.39-4.63h-7L466,346.3h-2.57l5.91-18.43h3.21l5.89,18.43ZM468,339.61h5.75L470.9,330Z" style="fill:#1d1d1b"/><path d="M480.21,339v-2.09h7.57V339Z" style="fill:#1d1d1b"/><path d="M503.27,337.9a3.94,3.94,0,0,1,1.18,3.16q0,5.24-7.3,5.24h-5.09V327.87h4.36a10.25,10.25,0,0,1,5.37,1.15,3.85,3.85,0,0,1,1.86,3.5,3.77,3.77,0,0,1-1,2.68,4.48,4.48,0,0,1-2.44,1.36A6.19,6.19,0,0,1,503.27,337.9Zm-8.66-8v5.8h2.78a4.28,4.28,0,0,0,2.63-.77,2.59,2.59,0,0,0,1-2.2,2.33,2.33,0,0,0-1.08-2.22,6.85,6.85,0,0,0-3.28-.61Zm6,13.72a2.65,2.65,0,0,0,1.2-2.54,3,3,0,0,0-1.15-2.62,5.11,5.11,0,0,0-3-.81h-3v6.64h2.54A7.06,7.06,0,0,0,500.58,343.6Z" style="fill:#1d1d1b"/><path d="M507.26,339v-2.09h7.57V339Z" style="fill:#1d1d1b"/><path d="M528.93,346.3l-1.39-4.63h-7l-1.39,4.63H516.6l5.91-18.43h3.21l5.88,18.43Zm-7.76-6.69h5.75L524.06,330Z" style="fill:#1d1d1b"/><path d="M533.37,339v-2.09h7.57V339Z" style="fill:#1d1d1b"/><path d="M556.43,337.9a4,4,0,0,1,1.18,3.16q0,5.24-7.31,5.24h-5.08V327.87h4.36A10.25,10.25,0,0,1,555,329a3.85,3.85,0,0,1,1.86,3.5,3.77,3.77,0,0,1-1,2.68,4.48,4.48,0,0,1-2.44,1.36A6.19,6.19,0,0,1,556.43,337.9Zm-8.67-8v5.8h2.78a4.31,4.31,0,0,0,2.64-.77,2.59,2.59,0,0,0,1-2.2,2.33,2.33,0,0,0-1.08-2.22,6.88,6.88,0,0,0-3.28-.61Zm6,13.72a2.64,2.64,0,0,0,1.19-2.54,3,3,0,0,0-1.15-2.62,5.06,5.06,0,0,0-3-.81h-3v6.64h2.54A7.08,7.08,0,0,0,553.74,343.6Z" style="fill:#1d1d1b"/><path d="M560.42,339v-2.09H568V339Z" style="fill:#1d1d1b"/><path d="M582.09,346.3l-1.39-4.63h-7l-1.39,4.63h-2.57l5.92-18.43h3.21l5.88,18.43Zm-7.76-6.69h5.75L577.22,330Z" style="fill:#1d1d1b"/><path d="M586.53,339v-2.09h7.57V339Z" style="fill:#1d1d1b"/><path d="M608.2,346.3l-1.39-4.63h-7l-1.39,4.63h-2.57l5.92-18.43H605l5.88,18.43Zm-7.76-6.69h5.75L603.33,330Z" style="fill:#1d1d1b"/><path d="M612.64,339v-2.09h7.57V339Z" style="fill:#1d1d1b"/><path d="M634.31,346.3l-1.39-4.63h-7l-1.4,4.63H622l5.92-18.43h3.21L637,346.3Zm-7.76-6.69h5.75L629.44,330Z" style="fill:#1d1d1b"/><path d="M638.75,339v-2.09h7.57V339Z" style="fill:#1d1d1b"/><path d="M661.81,337.9a4,4,0,0,1,1.18,3.16q0,5.24-7.31,5.24H650.6V327.87H655a10.25,10.25,0,0,1,5.37,1.15,3.87,3.87,0,0,1,1.86,3.5,3.77,3.77,0,0,1-1,2.68,4.47,4.47,0,0,1-2.45,1.36A6.19,6.19,0,0,1,661.81,337.9Zm-8.67-8v5.8h2.78a4.33,4.33,0,0,0,2.64-.77,2.59,2.59,0,0,0,1-2.2,2.33,2.33,0,0,0-1.08-2.22,6.88,6.88,0,0,0-3.28-.61Zm6,13.72a2.66,2.66,0,0,0,1.19-2.54,3,3,0,0,0-1.15-2.62,5.08,5.08,0,0,0-3-.81h-3v6.64h2.54A7.08,7.08,0,0,0,659.12,343.6Z" style="fill:#1d1d1b"/><path d="M665.8,339v-2.09h7.57V339Z" style="fill:#1d1d1b"/><rect x="127.39" y="95.73" width="2.01" height="8.97" style="fill:#1d1d1b"/><rect x="127.39" y="138.26" width="2.01" height="8.97" style="fill:#1d1d1b"/><rect x="127.39" y="180.78" width="2.01" height="8.97" style="fill:#1d1d1b"/><rect x="127.39" y="223.3" width="2.01" height="8.97" style="fill:#1d1d1b"/><rect x="127.39" y="265.82" width="2.01" height="8.97" style="fill:#1d1d1b"/><rect x="127.39" y="308.34" width="2.01" height="8.97" style="fill:#1d1d1b"/><path d="M135.79,121a4.38,4.38,0,0,1,1.3,3.48q0,5.79-8.06,5.78h-5.61V109.88h4.81a11.3,11.3,0,0,1,5.92,1.27,4.23,4.23,0,0,1,2,3.87,4.14,4.14,0,0,1-1.11,3,4.92,4.92,0,0,1-2.7,1.5A6.85,6.85,0,0,1,135.79,121Zm-9.57-8.86v6.41h3.07a4.72,4.72,0,0,0,2.91-.86,2.84,2.84,0,0,0,1.14-2.42,2.58,2.58,0,0,0-1.2-2.45,7.52,7.52,0,0,0-3.61-.68Zm6.6,15.14a2.91,2.91,0,0,0,1.31-2.8,3.28,3.28,0,0,0-1.26-2.89,5.68,5.68,0,0,0-3.31-.89h-3.34V128H129A7.76,7.76,0,0,0,132.82,127.23Z" style="fill:#1d1d1b"/><path d="M135.79,163.48a4.37,4.37,0,0,1,1.3,3.48q0,5.79-8.06,5.78h-5.61V152.41h4.81a11.3,11.3,0,0,1,5.92,1.27,4.22,4.22,0,0,1,2,3.86,4.15,4.15,0,0,1-1.11,3,4.92,4.92,0,0,1-2.7,1.5A6.85,6.85,0,0,1,135.79,163.48Zm-9.57-8.86V161h3.07a4.72,4.72,0,0,0,2.91-.86,2.85,2.85,0,0,0,1.14-2.42,2.57,2.57,0,0,0-1.2-2.45,7.52,7.52,0,0,0-3.61-.68Zm6.6,15.14a2.91,2.91,0,0,0,1.31-2.8,3.28,3.28,0,0,0-1.26-2.89,5.68,5.68,0,0,0-3.31-.89h-3.34v7.32H129A7.87,7.87,0,0,0,132.82,169.76Z" style="fill:#1d1d1b"/><path d="M135.79,206a4.39,4.39,0,0,1,1.3,3.49q0,5.77-8.06,5.78h-5.61V194.94h4.81a11.3,11.3,0,0,1,5.92,1.27,4.22,4.22,0,0,1,2,3.86,4.13,4.13,0,0,1-1.11,3,4.93,4.93,0,0,1-2.7,1.51A6.85,6.85,0,0,1,135.79,206Zm-9.57-8.85v6.4h3.07a4.72,4.72,0,0,0,2.91-.85,2.85,2.85,0,0,0,1.14-2.42,2.57,2.57,0,0,0-1.2-2.45,7.52,7.52,0,0,0-3.61-.68Zm6.6,15.14a2.92,2.92,0,0,0,1.31-2.8,3.3,3.3,0,0,0-1.26-2.9,5.68,5.68,0,0,0-3.31-.88h-3.34V213H129A7.87,7.87,0,0,0,132.82,212.29Z" style="fill:#1d1d1b"/><path d="M135.79,248.53a4.39,4.39,0,0,1,1.3,3.49q0,5.78-8.06,5.78h-5.61V237.47h4.81a11.3,11.3,0,0,1,5.92,1.27,4.22,4.22,0,0,1,2,3.86,4.13,4.13,0,0,1-1.11,3,4.93,4.93,0,0,1-2.7,1.51A6.85,6.85,0,0,1,135.79,248.53Zm-9.57-8.85v6.4h3.07a4.72,4.72,0,0,0,2.91-.85,2.85,2.85,0,0,0,1.14-2.42,2.57,2.57,0,0,0-1.2-2.45,7.52,7.52,0,0,0-3.61-.68Zm6.6,15.14a2.92,2.92,0,0,0,1.31-2.8,3.27,3.27,0,0,0-1.26-2.89,5.61,5.61,0,0,0-3.31-.89h-3.34v7.32H129A7.87,7.87,0,0,0,132.82,254.82Z" style="fill:#1d1d1b"/><path d="M135.79,291.06a4.38,4.38,0,0,1,1.3,3.48q0,5.79-8.06,5.79h-5.61V280h4.81a11.4,11.4,0,0,1,5.92,1.27,4.24,4.24,0,0,1,2,3.87,4.14,4.14,0,0,1-1.11,2.95,4.86,4.86,0,0,1-2.7,1.5A6.85,6.85,0,0,1,135.79,291.06Zm-9.57-8.85v6.4h3.07a4.72,4.72,0,0,0,2.91-.86,2.84,2.84,0,0,0,1.14-2.42,2.58,2.58,0,0,0-1.2-2.45,7.54,7.54,0,0,0-3.61-.67Zm6.6,15.14a2.93,2.93,0,0,0,1.31-2.81,3.28,3.28,0,0,0-1.26-2.89,5.68,5.68,0,0,0-3.31-.89h-3.34v7.32H129A7.89,7.89,0,0,0,132.82,297.35Z" style="fill:#1d1d1b"/><rect x="240.96" y="95.73" width="2.01" height="8.97" style="fill:#1d1d1b"/><rect x="240.96" y="138.26" width="2.01" height="8.97" style="fill:#1d1d1b"/><rect x="240.96" y="180.78" width="2.01" height="8.97" style="fill:#1d1d1b"/><rect x="240.96" y="223.3" width="2.01" height="8.97" style="fill:#1d1d1b"/><rect x="240.96" y="265.82" width="2.01" height="8.97" style="fill:#1d1d1b"/><rect x="240.96" y="310.34" width="2.01" height="8.97" style="fill:#1d1d1b"/><path d="M249.36,121a4.38,4.38,0,0,1,1.3,3.48q0,5.79-8.06,5.78H237V109.88h4.81a11.3,11.3,0,0,1,5.92,1.27,4.23,4.23,0,0,1,2.05,3.87,4.14,4.14,0,0,1-1.11,3,4.92,4.92,0,0,1-2.7,1.5A6.85,6.85,0,0,1,249.36,121Zm-9.57-8.86v6.41h3.07a4.72,4.72,0,0,0,2.91-.86,2.84,2.84,0,0,0,1.14-2.42,2.58,2.58,0,0,0-1.2-2.45,7.52,7.52,0,0,0-3.61-.68Zm6.6,15.14a2.91,2.91,0,0,0,1.31-2.8,3.28,3.28,0,0,0-1.26-2.89,5.68,5.68,0,0,0-3.31-.89h-3.34V128h2.81A7.76,7.76,0,0,0,246.39,127.23Z" style="fill:#1d1d1b"/><path d="M249.36,163.48a4.37,4.37,0,0,1,1.3,3.48q0,5.79-8.06,5.78H237V152.41h4.81a11.3,11.3,0,0,1,5.92,1.27,4.22,4.22,0,0,1,2.05,3.86,4.15,4.15,0,0,1-1.11,3A4.92,4.92,0,0,1,246,162,6.85,6.85,0,0,1,249.36,163.48Zm-9.57-8.86V161h3.07a4.72,4.72,0,0,0,2.91-.86,2.85,2.85,0,0,0,1.14-2.42,2.57,2.57,0,0,0-1.2-2.45,7.52,7.52,0,0,0-3.61-.68Zm6.6,15.14a2.91,2.91,0,0,0,1.31-2.8,3.28,3.28,0,0,0-1.26-2.89,5.68,5.68,0,0,0-3.31-.89h-3.34v7.32h2.81A7.87,7.87,0,0,0,246.39,169.76Z" style="fill:#1d1d1b"/><path d="M249.36,206a4.39,4.39,0,0,1,1.3,3.49q0,5.77-8.06,5.78H237V194.94h4.81a11.3,11.3,0,0,1,5.92,1.27,4.22,4.22,0,0,1,2.05,3.86,4.13,4.13,0,0,1-1.11,3,4.93,4.93,0,0,1-2.7,1.51A6.85,6.85,0,0,1,249.36,206Zm-9.57-8.85v6.4h3.07a4.72,4.72,0,0,0,2.91-.85,2.85,2.85,0,0,0,1.14-2.42,2.57,2.57,0,0,0-1.2-2.45,7.52,7.52,0,0,0-3.61-.68Zm6.6,15.14a2.92,2.92,0,0,0,1.31-2.8,3.3,3.3,0,0,0-1.26-2.9,5.68,5.68,0,0,0-3.31-.88h-3.34V213h2.81A7.87,7.87,0,0,0,246.39,212.29Z" style="fill:#1d1d1b"/><path d="M249.36,248.53a4.39,4.39,0,0,1,1.3,3.49q0,5.78-8.06,5.78H237V237.47h4.81a11.3,11.3,0,0,1,5.92,1.27,4.22,4.22,0,0,1,2.05,3.86,4.13,4.13,0,0,1-1.11,3,4.93,4.93,0,0,1-2.7,1.51A6.85,6.85,0,0,1,249.36,248.53Zm-9.57-8.85v6.4h3.07a4.72,4.72,0,0,0,2.91-.85,2.85,2.85,0,0,0,1.14-2.42,2.57,2.57,0,0,0-1.2-2.45,7.52,7.52,0,0,0-3.61-.68Zm6.6,15.14a2.92,2.92,0,0,0,1.31-2.8,3.27,3.27,0,0,0-1.26-2.89,5.61,5.61,0,0,0-3.31-.89h-3.34v7.32h2.81A7.87,7.87,0,0,0,246.39,254.82Z" style="fill:#1d1d1b"/><path d="M249.36,291.06a4.38,4.38,0,0,1,1.3,3.48q0,5.79-8.06,5.79H237V280h4.81a11.4,11.4,0,0,1,5.92,1.27,4.24,4.24,0,0,1,2.05,3.87,4.14,4.14,0,0,1-1.11,2.95,4.86,4.86,0,0,1-2.7,1.5A6.85,6.85,0,0,1,249.36,291.06Zm-9.57-8.85v6.4h3.07a4.72,4.72,0,0,0,2.91-.86,2.84,2.84,0,0,0,1.14-2.42,2.58,2.58,0,0,0-1.2-2.45,7.54,7.54,0,0,0-3.61-.67Zm6.6,15.14a2.93,2.93,0,0,0,1.31-2.81,3.28,3.28,0,0,0-1.26-2.89,5.68,5.68,0,0,0-3.31-.89h-3.34v7.32h2.81A7.89,7.89,0,0,0,246.39,297.35Z" style="fill:#1d1d1b"/><path d="M446,393a4.83,4.83,0,0,1,1.58.92l-.93,1.23a4.71,4.71,0,0,0-1.15-.63,3.79,3.79,0,0,0-1.24-.2,2.43,2.43,0,0,0-2.11,1.08,5.62,5.62,0,0,0-.75,3.2,5.31,5.31,0,0,0,.74,3.12,2.47,2.47,0,0,0,2.12,1,3.61,3.61,0,0,0,1.21-.2,6.77,6.77,0,0,0,1.23-.65l.88,1.27a5.28,5.28,0,0,1-3.41,1.23,4.43,4.43,0,0,1-3.56-1.52,6.31,6.31,0,0,1-1.31-4.22,7.5,7.5,0,0,1,.6-3.11,4.77,4.77,0,0,1,1.68-2.08,4.53,4.53,0,0,1,2.59-.74A5.57,5.57,0,0,1,446,393Z" style="fill:#1d1d1b"/><path d="M458.09,394.29a6.42,6.42,0,0,1,1.3,4.25,7.49,7.49,0,0,1-.59,3.06,4.67,4.67,0,0,1-1.72,2.06,4.77,4.77,0,0,1-2.67.73,4.51,4.51,0,0,1-3.66-1.57,6.37,6.37,0,0,1-1.31-4.25,7.33,7.33,0,0,1,.59-3.06,4.65,4.65,0,0,1,1.71-2.06,4.81,4.81,0,0,1,2.69-.73A4.49,4.49,0,0,1,458.09,394.29Zm-6.56,4.28q0,4.24,2.88,4.25c1.92,0,2.88-1.42,2.88-4.28s-1-4.25-2.86-4.25S451.53,395.71,451.53,398.57Z" style="fill:#1d1d1b"/><path d="M470.87,394.25a7.85,7.85,0,0,1,1,4.29,7.17,7.17,0,0,1-1.14,4.24,3.74,3.74,0,0,1-3.24,1.61,3.58,3.58,0,0,1-2.92-1.27v5.29l-1.95.24V393h1.67l.15,1.51a4.16,4.16,0,0,1,1.48-1.3,3.81,3.81,0,0,1,1.82-.46A3.47,3.47,0,0,1,470.87,394.25Zm-1.1,4.29q0-4.28-2.52-4.27a2.58,2.58,0,0,0-1.51.48,5,5,0,0,0-1.18,1.25v5.45A2.87,2.87,0,0,0,467,402.8Q469.77,402.8,469.77,398.54Z" style="fill:#1d1d1b"/><path d="M483,394.29a6.48,6.48,0,0,1,1.3,4.25,7.33,7.33,0,0,1-.6,3.06,4.58,4.58,0,0,1-1.71,2.06,4.77,4.77,0,0,1-2.67.73,4.49,4.49,0,0,1-3.66-1.57,6.38,6.38,0,0,1-1.32-4.25,7.33,7.33,0,0,1,.6-3.06,4.58,4.58,0,0,1,1.71-2.06,4.81,4.81,0,0,1,2.69-.73A4.49,4.49,0,0,1,483,394.29Zm-6.56,4.28q0,4.24,2.88,4.25c1.92,0,2.88-1.42,2.88-4.28s-.95-4.25-2.86-4.25S476.48,395.71,476.48,398.57Z" style="fill:#1d1d1b"/><path d="M488.08,403.74a2.48,2.48,0,0,1-.63-1.81V388.49l1.95-.24v13.64a1.12,1.12,0,0,0,.16.68.62.62,0,0,0,.54.21,1.81,1.81,0,0,0,.72-.13l.51,1.36a3.26,3.26,0,0,1-1.55.38A2.24,2.24,0,0,1,488.08,403.74Z" style="fill:#1d1d1b"/><path d="M496.41,387.17l.87,1.63-4.49,1.82-.6-1Zm-.7,5.8v11.17h-1.95V393Z" style="fill:#1d1d1b"/><path d="M513.14,393.64a3.61,3.61,0,0,1,.82,2.49v8H512v-7.73c0-1.44-.53-2.16-1.57-2.16a2.1,2.1,0,0,0-1.4.47,7,7,0,0,0-1.23,1.49v7.93h-1.94v-7.73c0-1.44-.53-2.16-1.57-2.16a2.12,2.12,0,0,0-1.42.48,7.1,7.1,0,0,0-1.21,1.48v7.93h-1.95V393h1.68l.17,1.64a3.72,3.72,0,0,1,3.21-1.89,2.93,2.93,0,0,1,1.77.53,2.88,2.88,0,0,1,1.05,1.48,5.3,5.3,0,0,1,1.45-1.49,3.34,3.34,0,0,1,1.88-.52A2.82,2.82,0,0,1,513.14,393.64Z" style="fill:#1d1d1b"/><path d="M526.27,399.22h-7.12a4.36,4.36,0,0,0,.94,2.71,2.67,2.67,0,0,0,2.07.87,4.64,4.64,0,0,0,1.48-.23,5.88,5.88,0,0,0,1.42-.74l.85,1.16a6.18,6.18,0,0,1-3.9,1.4,4.54,4.54,0,0,1-3.63-1.52,6.26,6.26,0,0,1-1.3-4.2,8,8,0,0,1,.56-3.08,4.8,4.8,0,0,1,1.61-2.11,4.07,4.07,0,0,1,2.47-.76,4.15,4.15,0,0,1,3.41,1.46,6.26,6.26,0,0,1,1.18,4.05C526.31,398.55,526.3,398.88,526.27,399.22Zm-1.89-1.56a4.13,4.13,0,0,0-.65-2.53,2.34,2.34,0,0,0-2-.86q-2.4,0-2.61,3.51h5.23Z" style="fill:#1d1d1b"/><path d="M535.38,392.85l-.36,1.9a4.3,4.3,0,0,0-1-.12,2.06,2.06,0,0,0-1.67.76,5.73,5.73,0,0,0-1,2.37v6.38h-1.94V393h1.67l.19,2.27a4.23,4.23,0,0,1,1.21-1.88,2.65,2.65,0,0,1,1.78-.64A4.31,4.31,0,0,1,535.38,392.85Z" style="fill:#1d1d1b"/><path d="M545.45,394.29a6.48,6.48,0,0,1,1.3,4.25,7.33,7.33,0,0,1-.6,3.06,4.58,4.58,0,0,1-1.71,2.06,4.77,4.77,0,0,1-2.67.73,4.5,4.5,0,0,1-3.66-1.57,6.38,6.38,0,0,1-1.32-4.25,7.33,7.33,0,0,1,.6-3.06,4.58,4.58,0,0,1,1.71-2.06,4.81,4.81,0,0,1,2.69-.73A4.49,4.49,0,0,1,545.45,394.29Zm-6.56,4.28q0,4.24,2.88,4.25c1.92,0,2.88-1.42,2.88-4.28s-.95-4.25-2.86-4.25S538.89,395.71,538.89,398.57Z" style="fill:#1d1d1b"/><path d="M563.33,402.54a1.41,1.41,0,0,0,.7.49l-.44,1.36a2.9,2.9,0,0,1-1.4-.49,2.19,2.19,0,0,1-.79-1.18,3.74,3.74,0,0,1-3.32,1.67,3.59,3.59,0,0,1-2.61-.93,3.27,3.27,0,0,1-1-2.44,3.22,3.22,0,0,1,1.28-2.73,6.05,6.05,0,0,1,3.63-1h1.72v-.83a2.17,2.17,0,0,0-.57-1.69,2.59,2.59,0,0,0-1.76-.51,10,10,0,0,0-3,.59l-.48-1.42a11.13,11.13,0,0,1,3.85-.76,4,4,0,0,1,2.94,1,3.71,3.71,0,0,1,1,2.75v5.1A1.82,1.82,0,0,0,563.33,402.54Zm-2.18-1.35v-2.56h-1.46c-2.06,0-3.09.76-3.09,2.29a2.11,2.11,0,0,0,.48,1.5,1.92,1.92,0,0,0,1.44.51A2.91,2.91,0,0,0,561.15,401.19Z" style="fill:#1d1d1b"/><path d="M567.62,403.74a2.48,2.48,0,0,1-.63-1.81V388.49l2-.24v13.64a1.19,1.19,0,0,0,.16.68.65.65,0,0,0,.54.21,1.81,1.81,0,0,0,.72-.13l.51,1.36a3.23,3.23,0,0,1-1.55.38A2.26,2.26,0,0,1,567.62,403.74Z" style="fill:#1d1d1b"/><path d="M581.69,399.22h-7.11a4.3,4.3,0,0,0,.93,2.71,2.69,2.69,0,0,0,2.07.87,4.75,4.75,0,0,0,1.49-.23,6,6,0,0,0,1.41-.74l.85,1.16a6.16,6.16,0,0,1-3.89,1.4,4.55,4.55,0,0,1-3.64-1.52,6.32,6.32,0,0,1-1.3-4.2,8,8,0,0,1,.56-3.08,4.87,4.87,0,0,1,1.61-2.11,4.07,4.07,0,0,1,2.47-.76,4.15,4.15,0,0,1,3.41,1.46,6.26,6.26,0,0,1,1.18,4.05C581.73,398.55,581.72,398.88,581.69,399.22Zm-1.88-1.56a4.13,4.13,0,0,0-.66-2.53,2.33,2.33,0,0,0-2-.86q-2.38,0-2.6,3.51h5.23Z" style="fill:#1d1d1b"/><path d="M592.6,402.54a1.37,1.37,0,0,0,.7.49l-.45,1.36a2.86,2.86,0,0,1-1.39-.49,2.19,2.19,0,0,1-.79-1.18,3.76,3.76,0,0,1-3.32,1.67,3.59,3.59,0,0,1-2.61-.93,3.27,3.27,0,0,1-1-2.44,3.19,3.19,0,0,1,1.28-2.73,6,6,0,0,1,3.63-1h1.72v-.83a2.17,2.17,0,0,0-.57-1.69,2.6,2.6,0,0,0-1.76-.51,10,10,0,0,0-3,.59l-.49-1.42a11.22,11.22,0,0,1,3.86-.76,4,4,0,0,1,2.94,1,3.71,3.71,0,0,1,1,2.75v5.1A1.74,1.74,0,0,0,592.6,402.54Zm-2.18-1.35v-2.56H589c-2.07,0-3.1.76-3.1,2.29a2.11,2.11,0,0,0,.49,1.5,1.92,1.92,0,0,0,1.44.51A2.91,2.91,0,0,0,590.42,401.19Z" style="fill:#1d1d1b"/><path d="M602,403.63a4.25,4.25,0,0,1-2.5.76,2.93,2.93,0,0,1-2.21-.82,3.24,3.24,0,0,1-.79-2.36v-6.73h-2V393h2v-2.51l1.94-.24V393h2.65l-.21,1.51h-2.44v6.65a2.08,2.08,0,0,0,.31,1.26,1.24,1.24,0,0,0,1,.39,3.24,3.24,0,0,0,1.48-.44Z" style="fill:#1d1d1b"/><path d="M611.86,394.29a6.42,6.42,0,0,1,1.3,4.25,7.49,7.49,0,0,1-.59,3.06,4.55,4.55,0,0,1-4.38,2.79,4.52,4.52,0,0,1-3.67-1.57,6.43,6.43,0,0,1-1.31-4.25,7.49,7.49,0,0,1,.59-3.06,4.67,4.67,0,0,1,1.72-2.06,4.79,4.79,0,0,1,2.69-.73A4.48,4.48,0,0,1,611.86,394.29Zm-6.56,4.28c0,2.83,1,4.25,2.89,4.25s2.88-1.42,2.88-4.28-1-4.25-2.86-4.25S605.3,395.71,605.3,398.57Zm4.56-11.4.87,1.63-4.49,1.82-.6-1Z" style="fill:#1d1d1b"/><path d="M622.33,392.85l-.36,1.9a4.22,4.22,0,0,0-1-.12,2.06,2.06,0,0,0-1.67.76,5.6,5.6,0,0,0-1,2.37v6.38h-2V393h1.67l.2,2.27a4.14,4.14,0,0,1,1.2-1.88,2.67,2.67,0,0,1,1.78-.64A4.25,4.25,0,0,1,622.33,392.85Z" style="fill:#1d1d1b"/><path d="M626.5,388a1.27,1.27,0,0,1,.39.95,1.23,1.23,0,0,1-.39.94,1.34,1.34,0,0,1-1,.37,1.3,1.3,0,0,1-1-.37,1.23,1.23,0,0,1-.39-.94,1.32,1.32,0,0,1,1.36-1.33A1.3,1.3,0,0,1,626.5,388Zm0,5v11.17h-1.94V393Z" style="fill:#1d1d1b"/><path d="M638.38,394.29a6.48,6.48,0,0,1,1.3,4.25,7.33,7.33,0,0,1-.6,3.06,4.58,4.58,0,0,1-1.71,2.06,4.77,4.77,0,0,1-2.67.73,4.49,4.49,0,0,1-3.66-1.57,6.38,6.38,0,0,1-1.32-4.25,7.33,7.33,0,0,1,.6-3.06,4.58,4.58,0,0,1,1.71-2.06,4.81,4.81,0,0,1,2.69-.73A4.49,4.49,0,0,1,638.38,394.29Zm-6.56,4.28q0,4.24,2.88,4.25c1.92,0,2.88-1.42,2.88-4.28s-1-4.25-2.86-4.25S631.82,395.71,631.82,398.57Z" style="fill:#1d1d1b"/><path d="M63.21,376.37A5.88,5.88,0,0,1,65,377.42L64,378.82a5.41,5.41,0,0,0-1.32-.72,4.15,4.15,0,0,0-1.4-.22,2.77,2.77,0,0,0-2.4,1.22,6.38,6.38,0,0,0-.85,3.64,6,6,0,0,0,.84,3.55,2.81,2.81,0,0,0,2.41,1.14,3.83,3.83,0,0,0,1.37-.23,6.48,6.48,0,0,0,1.39-.73l1,1.44a6,6,0,0,1-3.88,1.4,5.08,5.08,0,0,1-4.06-1.73,7.2,7.2,0,0,1-1.48-4.79,8.63,8.63,0,0,1,.68-3.54,5.49,5.49,0,0,1,1.91-2.36,5.14,5.14,0,0,1,3-.84A6.51,6.51,0,0,1,63.21,376.37Z" style="fill:#1d1d1b"/><path d="M76.94,377.83a7.33,7.33,0,0,1,1.48,4.84,8.39,8.39,0,0,1-.67,3.47,5.25,5.25,0,0,1-2,2.34,5.46,5.46,0,0,1-3,.83,5.13,5.13,0,0,1-4.17-1.78,7.33,7.33,0,0,1-1.49-4.84,8.44,8.44,0,0,1,.67-3.48,5.28,5.28,0,0,1,2-2.33,5.43,5.43,0,0,1,3.06-.83A5.08,5.08,0,0,1,76.94,377.83Zm-7.45,4.86q0,4.85,3.28,4.84T76,382.67q0-4.85-3.25-4.84T69.49,382.69Z" style="fill:#1d1d1b"/><path d="M91.47,377.78a9,9,0,0,1,1.13,4.89,8.1,8.1,0,0,1-1.3,4.81,4.25,4.25,0,0,1-3.68,1.83,4.13,4.13,0,0,1-3.33-1.44v6l-2.21.27V376.34H84l.17,1.7a5,5,0,0,1,1.69-1.48,4.4,4.4,0,0,1,2.07-.51A4,4,0,0,1,91.47,377.78Zm-1.25,4.89q0-4.87-2.87-4.87a2.89,2.89,0,0,0-1.71.56,5.56,5.56,0,0,0-1.35,1.42V386a3.49,3.49,0,0,0,1.21,1.15,3.28,3.28,0,0,0,1.59.39C89.17,387.5,90.22,385.89,90.22,382.67Z" style="fill:#1d1d1b"/><path d="M105.3,377.83a7.38,7.38,0,0,1,1.48,4.84,8.39,8.39,0,0,1-.68,3.47,5.25,5.25,0,0,1-1.95,2.34,5.46,5.46,0,0,1-3,.83A5.11,5.11,0,0,1,97,387.53a7.28,7.28,0,0,1-1.5-4.84,8.44,8.44,0,0,1,.68-3.48,5.28,5.28,0,0,1,2-2.33,5.42,5.42,0,0,1,3-.83A5.11,5.11,0,0,1,105.3,377.83Zm-7.45,4.86q0,4.85,3.27,4.84t3.27-4.86q0-4.85-3.25-4.84T97.85,382.69Z" style="fill:#1d1d1b"/><path d="M111,388.58a2.86,2.86,0,0,1-.71-2.06V371.23l2.22-.26v15.5a1.3,1.3,0,0,0,.18.77.71.71,0,0,0,.61.24,2.31,2.31,0,0,0,.82-.14l.58,1.54a3.61,3.61,0,0,1-1.76.43A2.62,2.62,0,0,1,111,388.58Z" style="fill:#1d1d1b"/><path d="M120.5,369.74l1,1.85-5.1,2.07-.67-1.18Zm-.8,6.6V389h-2.21V376.34Z" style="fill:#1d1d1b"/><path d="M139.51,377.09a4.06,4.06,0,0,1,.94,2.83V389h-2.22v-8.78c0-1.64-.59-2.46-1.78-2.46a2.38,2.38,0,0,0-1.58.54,7.47,7.47,0,0,0-1.4,1.7v9h-2.22v-8.78c0-1.64-.59-2.46-1.78-2.46a2.38,2.38,0,0,0-1.61.55,7.57,7.57,0,0,0-1.37,1.69v9h-2.22V376.34h1.91l.19,1.85a4.24,4.24,0,0,1,3.66-2.14,3.37,3.37,0,0,1,2,.6,3.31,3.31,0,0,1,1.19,1.68,6.06,6.06,0,0,1,1.65-1.69,3.74,3.74,0,0,1,2.13-.59A3.22,3.22,0,0,1,139.51,377.09Z" style="fill:#1d1d1b"/><path d="M154.43,383.44h-8.08a4.86,4.86,0,0,0,1.06,3.08,3,3,0,0,0,2.35,1,5.08,5.08,0,0,0,1.69-.26,7.14,7.14,0,0,0,1.61-.84l1,1.32a7,7,0,0,1-4.42,1.59,5.15,5.15,0,0,1-4.13-1.73,7.11,7.11,0,0,1-1.48-4.77,9,9,0,0,1,.64-3.5,5.44,5.44,0,0,1,1.83-2.4,5.19,5.19,0,0,1,6.67.8,7.09,7.09,0,0,1,1.35,4.59C154.48,382.67,154.46,383.05,154.43,383.44Zm-2.14-1.78a4.68,4.68,0,0,0-.75-2.87,2.61,2.61,0,0,0-2.23-1c-1.82,0-2.8,1.34-3,4h5.94Z" style="fill:#1d1d1b"/><path d="M164.78,376.19l-.4,2.17a4.47,4.47,0,0,0-1.11-.15,2.34,2.34,0,0,0-1.9.87,6.45,6.45,0,0,0-1.14,2.7V389H158V376.34h1.9l.22,2.57a4.7,4.7,0,0,1,1.37-2.14,3.07,3.07,0,0,1,2-.72A4.94,4.94,0,0,1,164.78,376.19Z" style="fill:#1d1d1b"/><path d="M176.23,377.83a7.38,7.38,0,0,1,1.48,4.84,8.56,8.56,0,0,1-.67,3.47,5.21,5.21,0,0,1-2,2.34,5.46,5.46,0,0,1-3,.83,5.11,5.11,0,0,1-4.16-1.78,7.28,7.28,0,0,1-1.49-4.84,8.44,8.44,0,0,1,.67-3.48,5.28,5.28,0,0,1,2-2.33,5.43,5.43,0,0,1,3.06-.83A5.09,5.09,0,0,1,176.23,377.83Zm-7.45,4.86q0,4.85,3.27,4.84c2.18,0,3.28-1.62,3.28-4.86s-1.09-4.84-3.25-4.84S168.78,379.45,168.78,382.69Z" style="fill:#1d1d1b"/><path d="M198,376.91a6.91,6.91,0,0,1-1.58.32c-.58,0-1.29.07-2.12.07a3.35,3.35,0,0,1,2.24,3.2,4,4,0,0,1-1.3,3.1,5,5,0,0,1-3.54,1.21,5.18,5.18,0,0,1-1.61-.24,1.33,1.33,0,0,0-.46.51,1.48,1.48,0,0,0-.17.67c0,.69.55,1,1.66,1h2a5.29,5.29,0,0,1,2.27.46,3.63,3.63,0,0,1,1.52,1.25,3.07,3.07,0,0,1,.55,1.81,3.23,3.23,0,0,1-1.52,2.85,8.14,8.14,0,0,1-4.43,1,10.1,10.1,0,0,1-3.24-.42,3.06,3.06,0,0,1-1.69-1.27,4.11,4.11,0,0,1-.51-2.16h2a2.15,2.15,0,0,0,.29,1.21,1.8,1.8,0,0,0,1,.68,7.79,7.79,0,0,0,2.12.22,6,6,0,0,0,2.85-.49,1.61,1.61,0,0,0,.86-1.48,1.54,1.54,0,0,0-.68-1.35,3.34,3.34,0,0,0-1.87-.45h-2a3.77,3.77,0,0,1-2.45-.69,2.17,2.17,0,0,1-.46-2.92,3.39,3.39,0,0,1,1-1,3.63,3.63,0,0,1-2.14-3.51,4.16,4.16,0,0,1,.64-2.29,4.39,4.39,0,0,1,1.75-1.58,5.55,5.55,0,0,1,2.49-.56,18.33,18.33,0,0,0,2.51-.11,9,9,0,0,0,1.67-.36c.44-.16,1-.38,1.63-.66Zm-8.38,1.51a3.43,3.43,0,0,0,0,4.14,2.5,2.5,0,0,0,2,.78,2.53,2.53,0,0,0,2-.76,3,3,0,0,0,.68-2.13c0-1.88-.9-2.81-2.72-2.81A2.42,2.42,0,0,0,189.59,378.42Z" style="fill:#1d1d1b"/><path d="M207,376.19l-.41,2.17a4.47,4.47,0,0,0-1.11-.15,2.34,2.34,0,0,0-1.9.87,6.45,6.45,0,0,0-1.13,2.7V389h-2.22V376.34h1.9l.22,2.57a4.78,4.78,0,0,1,1.37-2.14,3.07,3.07,0,0,1,2-.72A5.07,5.07,0,0,1,207,376.19Z" style="fill:#1d1d1b"/><path d="M218.36,387.2a1.62,1.62,0,0,0,.8.57l-.51,1.54a3.47,3.47,0,0,1-1.59-.55,2.53,2.53,0,0,1-.89-1.35,4.25,4.25,0,0,1-3.78,1.9,4,4,0,0,1-3-1.06,3.71,3.71,0,0,1-1.08-2.77,3.62,3.62,0,0,1,1.45-3.1,6.86,6.86,0,0,1,4.13-1.09h1.95v-.93a2.46,2.46,0,0,0-.65-1.93,2.91,2.91,0,0,0-2-.58,11.16,11.16,0,0,0-3.41.68l-.56-1.62a13,13,0,0,1,4.38-.86,4.58,4.58,0,0,1,3.35,1.09,4.19,4.19,0,0,1,1.11,3.12v5.8A2,2,0,0,0,218.36,387.2Zm-2.48-1.53v-2.91h-1.66q-3.51,0-3.51,2.6a2.36,2.36,0,0,0,.55,1.71,2.16,2.16,0,0,0,1.64.58A3.29,3.29,0,0,0,215.88,385.67Z" style="fill:#1d1d1b"/><path d="M228.84,371.18a8.94,8.94,0,0,1,1.68.65l-.77,1.55a6,6,0,0,0-2.68-.61,2.57,2.57,0,0,0-1.75.46,1.89,1.89,0,0,0-.48,1.42v1.69h7.07V389H229.7V378h-4.86v11h-2.22V378h-2v-1.7h2v-1.67a3.48,3.48,0,0,1,1.09-2.69,4.69,4.69,0,0,1,3.29-1A7.44,7.44,0,0,1,228.84,371.18Z" style="fill:#1d1d1b"/><path d="M242.89,388.44a4.87,4.87,0,0,1-2.84.87,3.34,3.34,0,0,1-2.52-.93,3.7,3.7,0,0,1-.9-2.68V378h-2.21v-1.7h2.21v-2.87l2.21-.26v3.13h3l-.24,1.7h-2.77v7.56a2.38,2.38,0,0,0,.35,1.44,1.44,1.44,0,0,0,1.17.44,3.63,3.63,0,0,0,1.69-.51Z" style="fill:#1d1d1b"/><path d="M247.39,370.68a1.46,1.46,0,0,1,.43,1.08,1.41,1.41,0,0,1-.43,1.07,1.56,1.56,0,0,1-1.13.42,1.53,1.53,0,0,1-1.11-.42,1.41,1.41,0,0,1-.43-1.07,1.46,1.46,0,0,1,.43-1.08,1.5,1.5,0,0,1,1.11-.43A1.53,1.53,0,0,1,247.39,370.68Zm0,5.66V389h-2.22V376.34Z" style="fill:#1d1d1b"/><path d="M259.4,376.34V378l-6.62,9.15h6.69l-.26,1.85h-8.93v-1.66l6.59-9.15h-6v-1.87Z" style="fill:#1d1d1b"/><path d="M271.29,387.2a1.64,1.64,0,0,0,.79.57l-.5,1.54a3.47,3.47,0,0,1-1.59-.55,2.53,2.53,0,0,1-.89-1.35,4.25,4.25,0,0,1-3.78,1.9,4,4,0,0,1-3-1.06,3.71,3.71,0,0,1-1.08-2.77,3.62,3.62,0,0,1,1.45-3.1,6.83,6.83,0,0,1,4.13-1.09h1.95v-.93a2.5,2.5,0,0,0-.65-1.93,2.91,2.91,0,0,0-2-.58,11.1,11.1,0,0,0-3.41.68l-.56-1.62a12.91,12.91,0,0,1,4.38-.86,4.6,4.6,0,0,1,3.35,1.09,4.19,4.19,0,0,1,1.11,3.12v5.8A1.94,1.94,0,0,0,271.29,387.2Zm-2.48-1.53v-2.91h-1.66q-3.51,0-3.51,2.6a2.36,2.36,0,0,0,.55,1.71,2.14,2.14,0,0,0,1.64.58A3.3,3.3,0,0,0,268.81,385.67Z" style="fill:#1d1d1b"/><path d="M285.39,371.23V389h-1.94l-.22-1.76a4.53,4.53,0,0,1-1.57,1.51,4.36,4.36,0,0,1-5.62-1.24,8.16,8.16,0,0,1-1.26-4.79,9.38,9.38,0,0,1,.6-3.47,5.33,5.33,0,0,1,1.74-2.37,4.24,4.24,0,0,1,2.64-.85,4.56,4.56,0,0,1,3.42,1.56V371Zm-3.61,15.85a5.2,5.2,0,0,0,1.4-1.41v-6.21a4.78,4.78,0,0,0-1.34-1.23,3,3,0,0,0-1.6-.43A2.56,2.56,0,0,0,278,379a6.71,6.71,0,0,0-.81,3.66,7,7,0,0,0,.75,3.66,2.38,2.38,0,0,0,2.14,1.2A3,3,0,0,0,281.78,387.08Z" style="fill:#1d1d1b"/><path d="M298.89,377.83a7.38,7.38,0,0,1,1.48,4.84,8.39,8.39,0,0,1-.68,3.47,5.25,5.25,0,0,1-1.95,2.34,5.46,5.46,0,0,1-3,.83,5.15,5.15,0,0,1-4.17-1.78,7.33,7.33,0,0,1-1.49-4.84,8.44,8.44,0,0,1,.68-3.48,5.28,5.28,0,0,1,1.95-2.33,5.42,5.42,0,0,1,3.05-.83A5.11,5.11,0,0,1,298.89,377.83Zm-7.45,4.86q0,4.85,3.27,4.84t3.27-4.86q0-4.85-3.25-4.84T291.44,382.69Z" style="fill:#1d1d1b"/><path d="M126.44,406.71a7.33,7.33,0,0,1,1.48,4.84,8.41,8.41,0,0,1-.67,3.48,5.28,5.28,0,0,1-2,2.33,5.39,5.39,0,0,1-3,.83,5.13,5.13,0,0,1-4.16-1.78,7.33,7.33,0,0,1-1.49-4.84,8.39,8.39,0,0,1,.67-3.47,5.25,5.25,0,0,1,2-2.34,5.51,5.51,0,0,1,3.06-.83A5.09,5.09,0,0,1,126.44,406.71ZM119,411.57q0,4.85,3.27,4.84t3.28-4.86q0-4.85-3.25-4.84T119,411.57Z" style="fill:#1d1d1b"/><path d="M141,417.9h-1.91l-.16-2a4.84,4.84,0,0,1-1.67,1.72,4.47,4.47,0,0,1-2.28.54,3.34,3.34,0,0,1-2.6-1,4,4,0,0,1-.94-2.86v-9.1h2.21v8.86a2.91,2.91,0,0,0,.46,1.84,1.86,1.86,0,0,0,1.49.54,3.76,3.76,0,0,0,3.18-2.19v-9H141Z" style="fill:#1d1d1b"/><path d="M161.5,412.32h-8.09a5,5,0,0,0,1.06,3.08,3.07,3.07,0,0,0,2.36,1,5,5,0,0,0,1.68-.27,6.45,6.45,0,0,0,1.62-.84l1,1.32a7,7,0,0,1-4.43,1.59,5.12,5.12,0,0,1-4.13-1.73,7.09,7.09,0,0,1-1.48-4.77,9,9,0,0,1,.64-3.5,5.41,5.41,0,0,1,1.83-2.39,4.62,4.62,0,0,1,2.8-.87,4.7,4.7,0,0,1,3.88,1.66,7.1,7.1,0,0,1,1.35,4.6C161.55,411.56,161.53,411.93,161.5,412.32Zm-2.14-1.78a4.7,4.7,0,0,0-.75-2.87,2.64,2.64,0,0,0-2.24-1q-2.72,0-3,4h6Z" style="fill:#1d1d1b"/><path d="M170,411.12l4.4,6.78h-2.67l-3.11-5.36-3.15,5.36h-2.5l4.43-6.69-3.93-6H166l2.65,4.65,2.67-4.65h2.51Z" style="fill:#1d1d1b"/><path d="M186.29,412.32H178.2a5,5,0,0,0,1.06,3.08,3.07,3.07,0,0,0,2.36,1,5,5,0,0,0,1.68-.27,6.29,6.29,0,0,0,1.62-.84l1,1.32a7,7,0,0,1-4.43,1.59,5.14,5.14,0,0,1-4.13-1.73,7.15,7.15,0,0,1-1.48-4.77,9.14,9.14,0,0,1,.64-3.5,5.56,5.56,0,0,1,1.83-2.39,4.62,4.62,0,0,1,2.8-.87,4.7,4.7,0,0,1,3.88,1.66,7.1,7.1,0,0,1,1.35,4.6C186.34,411.56,186.32,411.93,186.29,412.32Zm-2.14-1.78a4.7,4.7,0,0,0-.75-2.87,2.64,2.64,0,0,0-2.24-1q-2.72,0-3,4h6Z" style="fill:#1d1d1b"/><path d="M196.64,405.08l-.41,2.16a4.89,4.89,0,0,0-1.11-.14,2.38,2.38,0,0,0-1.9.86,6.45,6.45,0,0,0-1.13,2.7v7.24h-2.21V405.22h1.9l.21,2.57a4.85,4.85,0,0,1,1.38-2.14,3,3,0,0,1,2-.72A5,5,0,0,1,196.64,405.08Z" style="fill:#1d1d1b"/><path d="M205.57,417.33a4.93,4.93,0,0,1-2.84.86,3.38,3.38,0,0,1-2.52-.92,3.72,3.72,0,0,1-.9-2.69v-7.65H197.1v-1.71h2.21v-2.86l2.22-.27v3.13h3l-.24,1.71h-2.76v7.56a2.37,2.37,0,0,0,.34,1.43,1.41,1.41,0,0,0,1.17.44,3.6,3.6,0,0,0,1.69-.5Z" style="fill:#1d1d1b"/><path d="M216.66,416.09a1.66,1.66,0,0,0,.8.56l-.51,1.54a3.32,3.32,0,0,1-1.58-.55,2.55,2.55,0,0,1-.9-1.35,4.24,4.24,0,0,1-3.77,1.9,4.06,4.06,0,0,1-3-1.06,4.05,4.05,0,0,1,.38-5.87,6.84,6.84,0,0,1,4.13-1.08h1.95v-.94a2.5,2.5,0,0,0-.65-1.93,3,3,0,0,0-2-.57,11.16,11.16,0,0,0-3.42.67l-.55-1.61a12.7,12.7,0,0,1,4.38-.87,4.57,4.57,0,0,1,3.34,1.1,4.16,4.16,0,0,1,1.11,3.11v5.8A2.06,2.06,0,0,0,216.66,416.09Zm-2.47-1.53v-2.91h-1.67c-2.34,0-3.51.86-3.51,2.6a2.44,2.44,0,0,0,.55,1.71,2.19,2.19,0,0,0,1.64.57A3.31,3.31,0,0,0,214.19,414.56Z" style="fill:#1d1d1b"/><path d="M230.77,400.12V417.9h-2l-.22-1.75a4.56,4.56,0,0,1-1.56,1.5,4.16,4.16,0,0,1-2.1.54,4.07,4.07,0,0,1-3.52-1.78,8.14,8.14,0,0,1-1.27-4.79,9.33,9.33,0,0,1,.61-3.46,5.31,5.31,0,0,1,1.73-2.37,4.27,4.27,0,0,1,2.65-.86,4.5,4.5,0,0,1,3.41,1.57v-6.65ZM227.16,416a5.48,5.48,0,0,0,1.39-1.41v-6.21a4.65,4.65,0,0,0-1.33-1.24,3.08,3.08,0,0,0-1.6-.42,2.58,2.58,0,0,0-2.28,1.23,6.74,6.74,0,0,0-.8,3.65,7.16,7.16,0,0,0,.74,3.66,2.37,2.37,0,0,0,2.15,1.21A3.13,3.13,0,0,0,227.16,416Z" style="fill:#1d1d1b"/><path d="M244.26,406.71a7.33,7.33,0,0,1,1.48,4.84,8.41,8.41,0,0,1-.67,3.48,5.28,5.28,0,0,1-1.95,2.33,5.39,5.39,0,0,1-3,.83,5.11,5.11,0,0,1-4.16-1.78,7.28,7.28,0,0,1-1.49-4.84,8.39,8.39,0,0,1,.67-3.47,5.25,5.25,0,0,1,2-2.34,5.51,5.51,0,0,1,3.06-.83A5.09,5.09,0,0,1,244.26,406.71Zm-7.45,4.86q0,4.85,3.27,4.84t3.28-4.86c0-3.23-1.09-4.84-3.25-4.84S236.81,408.33,236.81,411.57Z" style="fill:#1d1d1b"/></g><g id="roxo"><path d="M322.39,353.73H57.22a33.22,33.22,0,0,1-33.17-33.18V55.38A33.22,33.22,0,0,1,57.22,22.2H322.39a33.22,33.22,0,0,1,33.18,33.18V320.55A33.22,33.22,0,0,1,322.39,353.73ZM57.22,23.7A31.71,31.71,0,0,0,25.55,55.38V320.55a31.71,31.71,0,0,0,31.67,31.68H322.39a31.71,31.71,0,0,0,31.68-31.68V55.38A31.71,31.71,0,0,0,322.39,23.7Z" style="fill:#6827ab"/><path d="M691.91,87.38h-306a14.06,14.06,0,0,1-14.05-14V36.25a14.06,14.06,0,0,1,14.05-14h306a14.06,14.06,0,0,1,14,14.05V73.34A14.06,14.06,0,0,1,691.91,87.38Zm-306-63.68a12.56,12.56,0,0,0-12.55,12.55V73.34a12.56,12.56,0,0,0,12.55,12.54h306a12.55,12.55,0,0,0,12.54-12.54V36.25A12.56,12.56,0,0,0,691.91,23.7Z" style="fill:#6827ab"/><path d="M691.91,224h-306A14.07,14.07,0,0,1,371.83,210V172.89a14.07,14.07,0,0,1,14.05-14h306a14.07,14.07,0,0,1,14,14V210A14.07,14.07,0,0,1,691.91,224Zm-306-63.69a12.56,12.56,0,0,0-12.55,12.55V210a12.56,12.56,0,0,0,12.55,12.55h306A12.56,12.56,0,0,0,704.45,210V172.89a12.56,12.56,0,0,0-12.54-12.55Z" style="fill:#6827ab"/><path d="M691.91,368.63h-306a14.06,14.06,0,0,1-14.05-14.05V317.49a14.06,14.06,0,0,1,14.05-14h306a14.06,14.06,0,0,1,14,14v37.09A14.06,14.06,0,0,1,691.91,368.63ZM385.88,305a12.56,12.56,0,0,0-12.55,12.54v37.09a12.56,12.56,0,0,0,12.55,12.55h306a12.56,12.56,0,0,0,12.54-12.55V317.49A12.55,12.55,0,0,0,691.91,305Z" style="fill:#6827ab"/></g></g></svg>