<svg xmlns="http://www.w3.org/2000/svg" viewBox="0 0 730 433.57"><title>fig-7-4</title><g id="fig-7-4"><g id="preto"><path d="M126.16,373v-8.8l-1.9,1.28v-1.2l2.07-1.3h1v10Z" style="fill:#1d1d1b"/><path d="M133.81,373.18a2.66,2.66,0,0,1-2.62-1.46,2,2,0,0,1-.19-.79h1.4a1.36,1.36,0,0,0,1.44,1.35c2.17,0,2.14-2.93,2.14-4.45h0a2.81,2.81,0,0,1-2.38,1.19c-1.92,0-2.77-1.38-2.77-3.15a2.88,2.88,0,0,1,3.05-3.06c3.1,0,3.37,2.72,3.37,5.17S136.83,373.18,133.81,373.18Zm0-9.47c-1.36,0-1.82,1-1.82,2.16s.43,2.25,1.84,2.25,1.94-1,1.94-2.23A1.94,1.94,0,0,0,133.84,363.71Z" style="fill:#1d1d1b"/><path d="M141.71,373.18a2.66,2.66,0,0,1-2.62-1.46,2,2,0,0,1-.19-.79h1.41a1.36,1.36,0,0,0,1.44,1.35c2.16,0,2.13-2.93,2.13-4.45h0a2.84,2.84,0,0,1-2.39,1.19c-1.91,0-2.77-1.38-2.77-3.15a2.89,2.89,0,0,1,3.06-3.06c3.09,0,3.36,2.72,3.36,5.17S144.73,373.18,141.71,373.18Zm0-9.47c-1.36,0-1.82,1-1.82,2.16s.42,2.25,1.83,2.25a2,2,0,0,0,2-2.23A2,2,0,0,0,141.75,363.71Z" style="fill:#1d1d1b"/><path d="M149.93,373.18c-2.86,0-3.41-2.89-3.41-5.19s.54-5.18,3.41-5.18,3.42,2.89,3.42,5.18S152.8,373.18,149.93,373.18Zm0-9.47c-2.07,0-2.18,2.8-2.18,4.28s.11,4.29,2.18,4.29,2.19-2.79,2.19-4.29S152,363.71,149.93,363.71Z" style="fill:#1d1d1b"/><path d="M250.55,373v-8.8l-1.9,1.28v-1.2l2.07-1.3h1v10Z" style="fill:#1d1d1b"/><path d="M258.2,373.18a2.66,2.66,0,0,1-2.62-1.46,2,2,0,0,1-.19-.79h1.41a1.35,1.35,0,0,0,1.43,1.35c2.17,0,2.14-2.93,2.14-4.45h0A2.84,2.84,0,0,1,258,369c-1.91,0-2.77-1.38-2.77-3.15a2.88,2.88,0,0,1,3.05-3.06c3.1,0,3.37,2.72,3.37,5.17S261.22,373.18,258.2,373.18Zm0-9.47c-1.36,0-1.81,1-1.81,2.16s.42,2.25,1.83,2.25,1.94-1,1.94-2.23A1.94,1.94,0,0,0,258.23,363.71Z" style="fill:#1d1d1b"/><path d="M266.11,373.18a2.68,2.68,0,0,1-2.63-1.46,2,2,0,0,1-.19-.79h1.41a1.36,1.36,0,0,0,1.44,1.35c2.16,0,2.13-2.93,2.13-4.45h0a2.82,2.82,0,0,1-2.39,1.19c-1.91,0-2.76-1.38-2.76-3.15a2.88,2.88,0,0,1,3.05-3.06c3.09,0,3.36,2.72,3.36,5.17S269.13,373.18,266.11,373.18Zm0-9.47c-1.36,0-1.82,1-1.82,2.16s.43,2.25,1.83,2.25a2.22,2.22,0,0,0,0-4.41Z" style="fill:#1d1d1b"/><path d="M274.42,373.18a3,3,0,0,1-2.8-1.31,2.12,2.12,0,0,1-.27-.95h1.41a1.5,1.5,0,0,0,1.64,1.36c1.38,0,2-.86,2-2.19s-.55-2.26-1.87-2.26a1.69,1.69,0,0,0-1.58.8h-1.2l.27-5.65h5v1.08h-3.87l-.14,3.36a3.18,3.18,0,0,1,1.66-.49c2,0,3,1.3,3,3.2A3,3,0,0,1,274.42,373.18Z" style="fill:#1d1d1b"/><path d="M371.92,373v-1.06c1.6-1.31,4.64-4.33,4.64-6.48a1.59,1.59,0,0,0-1.66-1.75,1.51,1.51,0,0,0-1.65,1.53h-1.33c.07-1.69,1.51-2.43,3.05-2.43a2.65,2.65,0,0,1,2.82,2.78c0,2.48-2.63,4.79-4.33,6.34h4.47V373Z" style="fill:#1d1d1b"/><path d="M382.91,373.18c-2.86,0-3.41-2.89-3.41-5.19s.53-5.18,3.41-5.18,3.41,2.89,3.41,5.18S385.77,373.18,382.91,373.18Zm0-9.47c-2.07,0-2.18,2.8-2.18,4.28s.11,4.29,2.18,4.29,2.18-2.79,2.18-4.29S385,363.71,382.91,363.71Z" style="fill:#1d1d1b"/><path d="M390.81,373.18c-2.86,0-3.41-2.89-3.41-5.19s.54-5.18,3.41-5.18,3.42,2.89,3.42,5.18S393.68,373.18,390.81,373.18Zm0-9.47c-2.07,0-2.18,2.8-2.18,4.28s.11,4.29,2.18,4.29S393,369.49,393,368,392.9,363.71,390.81,363.71Z" style="fill:#1d1d1b"/><path d="M398.72,373.18c-2.86,0-3.42-2.89-3.42-5.19s.54-5.18,3.42-5.18,3.41,2.89,3.41,5.18S401.58,373.18,398.72,373.18Zm0-9.47c-2.07,0-2.18,2.8-2.18,4.28s.11,4.29,2.18,4.29,2.18-2.79,2.18-4.29S400.81,363.71,398.72,363.71Z" style="fill:#1d1d1b"/><path d="M496.32,373v-1.06c1.59-1.31,4.63-4.33,4.63-6.48a1.59,1.59,0,0,0-1.66-1.75,1.51,1.51,0,0,0-1.65,1.53h-1.32c.06-1.69,1.5-2.43,3.05-2.43a2.64,2.64,0,0,1,2.81,2.78c0,2.48-2.62,4.79-4.33,6.34h4.47V373Z" style="fill:#1d1d1b"/><path d="M507.31,373.18c-2.87,0-3.42-2.89-3.42-5.19s.54-5.18,3.42-5.18,3.41,2.89,3.41,5.18S510.17,373.18,507.31,373.18Zm0-9.47c-2.08,0-2.19,2.8-2.19,4.28s.11,4.29,2.19,4.29,2.18-2.79,2.18-4.29S509.39,363.71,507.31,363.71Z" style="fill:#1d1d1b"/><path d="M515.21,373.18c-2.86,0-3.42-2.89-3.42-5.19s.54-5.18,3.42-5.18,3.41,2.89,3.41,5.18S518.07,373.18,515.21,373.18Zm0-9.47c-2.07,0-2.18,2.8-2.18,4.28s.11,4.29,2.18,4.29,2.18-2.79,2.18-4.29S517.3,363.71,515.21,363.71Z" style="fill:#1d1d1b"/><path d="M523.21,373.18a3,3,0,0,1-2.8-1.31,2,2,0,0,1-.27-.95h1.41a1.5,1.5,0,0,0,1.64,1.36c1.38,0,2-.86,2-2.19s-.56-2.26-1.87-2.26a1.68,1.68,0,0,0-1.58.8h-1.2l.27-5.65h5v1.08h-3.87l-.15,3.36a3.21,3.21,0,0,1,1.66-.49,2.87,2.87,0,0,1,3,3.2A3,3,0,0,1,523.21,373.18Z" style="fill:#1d1d1b"/><path d="M620.71,373v-1.06c1.6-1.31,4.63-4.33,4.63-6.48a1.59,1.59,0,0,0-1.66-1.75,1.51,1.51,0,0,0-1.64,1.53h-1.33c.06-1.69,1.5-2.43,3-2.43a2.64,2.64,0,0,1,2.81,2.78c0,2.48-2.62,4.79-4.33,6.34h4.48V373Z" style="fill:#1d1d1b"/><path d="M631.7,373.18c-2.87,0-3.42-2.89-3.42-5.19s.54-5.18,3.42-5.18,3.41,2.89,3.41,5.18S634.56,373.18,631.7,373.18Zm0-9.47c-2.08,0-2.19,2.8-2.19,4.28s.11,4.29,2.19,4.29,2.18-2.79,2.18-4.29S633.78,363.71,631.7,363.71Z" style="fill:#1d1d1b"/><path d="M639,373v-8.8l-1.9,1.28v-1.2l2.07-1.3h1v10Z" style="fill:#1d1d1b"/><path d="M646.92,373.18c-2.86,0-3.42-2.89-3.42-5.19s.54-5.18,3.42-5.18,3.41,2.89,3.41,5.18S649.78,373.18,646.92,373.18Zm0-9.47c-2.07,0-2.18,2.8-2.18,4.28s.11,4.29,2.18,4.29,2.18-2.79,2.18-4.29S649,363.71,646.92,363.71Z" style="fill:#1d1d1b"/></g><rect id="roxo" x="337.51" y="403.44" width="27.36" height="11.36" style="fill:#6827ab"/><rect x="107.08" y="228.41" width="37.54" height="111.55" style="fill:#c4b0f4"/><rect x="233.05" y="200.16" width="37.54" height="139.8" style="fill:#c4b0f4"/><rect x="82.37" y="403.44" width="27.36" height="11.36" style="fill:#c4b0f4"/><rect x="358.13" y="159.98" width="37.54" height="179.98" style="fill:#c4b0f4"/><rect x="483.94" y="146.56" width="37.54" height="193.4" style="fill:#c4b0f4"/><rect x="609.9" y="94.94" width="37.54" height="245.02" style="fill:#c4b0f4"/><g id="roxo-2" data-name="roxo"><rect x="144.62" y="298.96" width="37.54" height="41" style="fill:#6827ab"/><rect x="270.59" y="290.56" width="37.54" height="49.4" style="fill:#6827ab"/><rect x="395.67" y="270.8" width="37.54" height="69.16" style="fill:#6827ab"/><rect x="521.48" y="249.97" width="37.54" height="89.99" style="fill:#6827ab"/><rect x="647.45" y="233.63" width="37.54" height="106.33" style="fill:#6827ab"/></g><g id="clarear"><path d="M145.58,266.72l-.18,0-1.94-.35a1,1,0,0,1-.81-1.16,1,1,0,0,1,1.16-.81l1.94.35a1,1,0,0,1-.17,2Z" style="fill:#b8564d"/><path d="M255.27,286.37l-6.64-1.19.35-2,6.65,1.19ZM241,283.81l-7.67-1.38.36-2,7.66,1.37Zm-15.33-2.75L218,279.69l.35-2,7.66,1.37Zm-15.32-2.74L202.66,277l.35-2,7.66,1.37ZM195,275.58l-7.66-1.37.35-2,7.67,1.37Zm-15.32-2.74L172,271.46l.35-2,7.66,1.37Z" style="fill:#b8564d"/><path d="M295,283.7l-.48-1.94,8.19-2,.48,1.94Zm16.38-4-.48-1.94,8.19-2,.47,1.94Zm16.37-4-.48-1.95,7.3-1.79.87-.22.52,1.93-.91.24Zm16.25-5-.8-1.84L351,265.5l.8,1.83ZM359.5,264l-.79-1.84,7.73-3.35.79,1.83ZM375,257.26l-.8-1.83,6.84-3,.79,1.84Z" style="fill:#b8564d"/><path d="M415.51,231.62l-1.2-1.59,6.19-4.66,1.2,1.6Zm12.38-9.31-1.21-1.59,6.2-4.66,1.2,1.6ZM440.27,213l-1.21-1.59,6.19-4.66,1.21,1.6Zm12.38-9.31-1.2-1.59,6.19-4.66,1.2,1.6ZM465,194.38l-1.2-1.59,6.19-4.66,1.2,1.6Zm12.38-9.31-1.2-1.59,6.19-4.66,1.2,1.6Zm12.38-9.31-1.2-1.59,6.18-4.66,1.21,1.6Zm12.38-9.3-1.2-1.6L506,161l1.2,1.6Z" style="fill:#b8564d"/><path d="M270.59,289.11l-7.75-1.39.36-2,7.39,1.33,10.22-1.86.36,2ZM156.87,268.75l-7.57-1.35.35-2,7.57,1.36Zm232.27-18.31-.91-1.78,7.75-4,6-5.39,1.33,1.49L397,246.39ZM513.36,158l-1.2-1.6,6.11-4.6,1.2,1.6Z" style="fill:#b8564d"/><path d="M520.46,152.45a1,1,0,0,1-.8-.39,1,1,0,0,1,.19-1.4l2-1.5,2.38.74a1,1,0,0,1,.66,1.25,1,1,0,0,1-1.26.66l-1.39-.44-1.17.88A1,1,0,0,1,520.46,152.45Z" style="fill:#b8564d"/><path d="M647.51,190.29a1,1,0,0,1-.3,0l-1.89-.59a1,1,0,0,1,.6-1.91l1.89.59a1,1,0,0,1-.3,1.95Z" style="fill:#b8564d"/><rect x="519.22" y="407.62" width="28.1" height="3" style="fill:#b8564d"/><path d="M636.5,186.92l-8.4-2.62.59-1.91,8.4,2.62Zm-16.8-5.23-8.4-2.61.6-1.91,8.39,2.61Zm-16.8-5.22-8.4-2.61.6-1.91,8.4,2.61Zm-16.8-5.23-8.39-2.61.59-1.91,8.4,2.61ZM569.31,166l-8.4-2.61.59-1.91,8.4,2.61Zm-16.8-5.23-8.4-2.61.59-1.91,8.4,2.61Zm-16.8-5.22-8.4-2.61.59-1.91,8.4,2.61Z" style="fill:#b8564d"/></g><g id="preto" data-name="preto"><path d="M152.29,245.62a2.57,2.57,0,0,1,1.44,2.32,2.27,2.27,0,0,1-.56,1.59,2.79,2.79,0,0,1-1.49.84,2.71,2.71,0,0,1,1.72.76,2.43,2.43,0,0,1,.67,1.8,3.11,3.11,0,0,1-.45,1.66,3,3,0,0,1-1.26,1.17,4.12,4.12,0,0,1-1.9.41,4.3,4.3,0,0,1-1.77-.35,3.84,3.84,0,0,1-1.41-1.07l.87-.8a3.93,3.93,0,0,0,1.07.79,2.76,2.76,0,0,0,1.19.25,2.15,2.15,0,0,0,1.57-.56,2,2,0,0,0,.57-1.51,1.76,1.76,0,0,0-.54-1.47,2.44,2.44,0,0,0-1.56-.43h-.79l.17-1.12h.54a1.94,1.94,0,0,0,1.36-.49,1.74,1.74,0,0,0,.55-1.38,1.53,1.53,0,0,0-.47-1.17,1.85,1.85,0,0,0-1.29-.44,3,3,0,0,0-1.13.22,3.78,3.78,0,0,0-1,.73l-.76-.87a4.36,4.36,0,0,1,3-1.25A3.54,3.54,0,0,1,152.29,245.62Z" style="fill:#1d1d1b"/><path d="M161.27,249.41a2.61,2.61,0,0,1,1.06,1.14,3.86,3.86,0,0,1,.4,1.85,4.19,4.19,0,0,1-.45,2,3.28,3.28,0,0,1-1.22,1.33,3.21,3.21,0,0,1-1.7.46,3,3,0,0,1-2.7-1.36,7.14,7.14,0,0,1-.86-3.79,8.65,8.65,0,0,1,.49-3,4.53,4.53,0,0,1,1.38-2,3.31,3.31,0,0,1,2.13-.72,3.93,3.93,0,0,1,2.19.65l-.57,1a3.1,3.1,0,0,0-1.63-.45,2,2,0,0,0-1.8,1.09,5.86,5.86,0,0,0-.73,2.92A3,3,0,0,1,159.8,249,2.93,2.93,0,0,1,161.27,249.41Zm-.5,4.92a3.28,3.28,0,0,0,.49-1.89c0-1.5-.57-2.26-1.71-2.26a2.27,2.27,0,0,0-1.28.39,3.44,3.44,0,0,0-1,1.07,5.5,5.5,0,0,0,.55,2.56,1.67,1.67,0,0,0,1.54.82A1.63,1.63,0,0,0,160.77,254.33Z" style="fill:#1d1d1b"/><path d="M166,254.29a1.06,1.06,0,0,1,.32.78,2.77,2.77,0,0,1-.29,1.12L165,258.61h-1l.63-2.62a1.26,1.26,0,0,1-.32-.4,1.14,1.14,0,0,1-.12-.52,1.06,1.06,0,0,1,.32-.78,1,1,0,0,1,.77-.31A1.06,1.06,0,0,1,166,254.29Z" style="fill:#1d1d1b"/><path d="M173.79,246.55h-4.12v3.11a3.73,3.73,0,0,1,1.69-.41,2.83,2.83,0,0,1,2.18.89,3.5,3.5,0,0,1,.82,2.46,3.67,3.67,0,0,1-.46,1.86,3.17,3.17,0,0,1-1.28,1.26,3.89,3.89,0,0,1-1.92.45,4.3,4.3,0,0,1-1.73-.33,4.74,4.74,0,0,1-1.4-1l.85-.84a3.73,3.73,0,0,0,1,.76,3,3,0,0,0,1.22.24,2.06,2.06,0,0,0,1.59-.63,2.58,2.58,0,0,0,.58-1.79,2.26,2.26,0,0,0-.53-1.67,1.87,1.87,0,0,0-1.4-.53,3,3,0,0,0-.76.09,3.8,3.8,0,0,0-.74.28h-1.14v-5.33H174Z" style="fill:#1d1d1b"/><path d="M180.2,246a3,3,0,0,1,0,3.89,2.74,2.74,0,0,1-3.7,0,3,3,0,0,1,0-3.89,2.71,2.71,0,0,1,3.7,0Zm-2.84.73a2.21,2.21,0,0,0-.29,1.21,2.24,2.24,0,0,0,.29,1.21,1.06,1.06,0,0,0,1,.49c.85,0,1.28-.57,1.28-1.7a2.38,2.38,0,0,0-.29-1.21,1.26,1.26,0,0,0-2,0Zm7.4-2,1,.66-7.32,11.07-1-.67Zm2,6.81a3,3,0,0,1,0,3.89,2.75,2.75,0,0,1-3.71,0,3,3,0,0,1,0-3.89,2.72,2.72,0,0,1,3.71,0Zm-2.84.74a2.27,2.27,0,0,0-.29,1.2,2.33,2.33,0,0,0,.29,1.21,1.07,1.07,0,0,0,1,.49c.85,0,1.28-.57,1.28-1.7a2.32,2.32,0,0,0-.29-1.2,1.28,1.28,0,0,0-2,0Z" style="fill:#1d1d1b"/><path d="M277.24,265.12a2.64,2.64,0,0,1,1.08,1,2.54,2.54,0,0,1,.37,1.35,2.28,2.28,0,0,1-.56,1.58,2.8,2.8,0,0,1-1.49.85,2.69,2.69,0,0,1,1.72.76,2.43,2.43,0,0,1,.66,1.8,3.12,3.12,0,0,1-.44,1.66,3,3,0,0,1-1.26,1.16,4.12,4.12,0,0,1-1.9.42,4.47,4.47,0,0,1-1.77-.35,4,4,0,0,1-1.41-1.07l.87-.81a3.6,3.6,0,0,0,1.07.79,2.76,2.76,0,0,0,1.19.26,2.12,2.12,0,0,0,1.57-.57,2,2,0,0,0,.57-1.51A1.75,1.75,0,0,0,277,271a2.45,2.45,0,0,0-1.57-.43h-.79l.18-1.12h.53a2,2,0,0,0,1.37-.49,1.75,1.75,0,0,0,.55-1.38,1.52,1.52,0,0,0-.48-1.18,1.8,1.8,0,0,0-1.28-.43,2.78,2.78,0,0,0-1.13.22,3.78,3.78,0,0,0-1.05.73l-.76-.87a4.3,4.3,0,0,1,3-1.25A3.62,3.62,0,0,1,277.24,265.12Z" style="fill:#1d1d1b"/><path d="M287.83,271.73v1.15h-1.38v2.61h-1.4v-2.61h-4.53v-1l3.18-7.08,1.22.5-2.86,6.47h3l.13-2.85h1.26v2.85Z" style="fill:#1d1d1b"/><path d="M291,273.8a1.06,1.06,0,0,1,.32.77,3,3,0,0,1-.28,1.13L290,278.12H288.9l.64-2.63a1.13,1.13,0,0,1-.33-.39,1.18,1.18,0,0,1-.12-.53,1.09,1.09,0,0,1,1.09-1.09A1.07,1.07,0,0,1,291,273.8Z" style="fill:#1d1d1b"/><path d="M298.43,268.92a2.64,2.64,0,0,1,1.06,1.13,3.92,3.92,0,0,1,.4,1.85,4.26,4.26,0,0,1-.45,2,3.32,3.32,0,0,1-1.22,1.32,3.13,3.13,0,0,1-1.7.47,2.94,2.94,0,0,1-2.7-1.37,7.1,7.1,0,0,1-.85-3.78,8.76,8.76,0,0,1,.48-3,4.5,4.5,0,0,1,1.38-2,3.31,3.31,0,0,1,2.14-.72,3.82,3.82,0,0,1,2.18.65l-.57,1a3,3,0,0,0-1.63-.46,2,2,0,0,0-1.8,1.09,5.93,5.93,0,0,0-.73,2.93,3,3,0,0,1,2.55-1.39A2.82,2.82,0,0,1,298.43,268.92Zm-.5,4.91a3.18,3.18,0,0,0,.49-1.88c0-1.51-.57-2.26-1.71-2.26a2.27,2.27,0,0,0-1.28.39,3.26,3.26,0,0,0-1,1.06,5.44,5.44,0,0,0,.54,2.57,1.69,1.69,0,0,0,1.54.82A1.62,1.62,0,0,0,297.93,273.83Z" style="fill:#1d1d1b"/><path d="M305.65,265.49a3,3,0,0,1,0,3.88,2.49,2.49,0,0,1-1.86.73,2.46,2.46,0,0,1-1.84-.73,3,3,0,0,1,0-3.88,2.46,2.46,0,0,1,1.84-.73A2.49,2.49,0,0,1,305.65,265.49Zm-2.84.72a2.61,2.61,0,0,0,0,2.43,1,1,0,0,0,1,.48c.86,0,1.28-.56,1.28-1.69a2.36,2.36,0,0,0-.28-1.21,1.27,1.27,0,0,0-2,0Zm7.4-2,1,.67L303.9,276l-1-.66Zm2,6.82a3,3,0,0,1,0,3.88,2.72,2.72,0,0,1-3.71,0,3,3,0,0,1,0-3.88,2.72,2.72,0,0,1,3.71,0Zm-2.84.73A2.19,2.19,0,0,0,309,273a2.26,2.26,0,0,0,.29,1.21,1.06,1.06,0,0,0,1,.48c.85,0,1.28-.56,1.28-1.69a2.29,2.29,0,0,0-.29-1.2,1.06,1.06,0,0,0-1-.48A1.07,1.07,0,0,0,309.32,271.8Z" style="fill:#1d1d1b"/><path d="M408.18,244.54a2.61,2.61,0,0,1,1.07,1,2.53,2.53,0,0,1,.37,1.34,2.24,2.24,0,0,1-.56,1.59,2.8,2.8,0,0,1-1.49.85,2.61,2.61,0,0,1,1.72.76,2.44,2.44,0,0,1,.67,1.8,3.16,3.16,0,0,1-.45,1.66,3,3,0,0,1-1.26,1.16,4.12,4.12,0,0,1-1.9.42,4.31,4.31,0,0,1-1.77-.36,3.81,3.81,0,0,1-1.41-1.06l.87-.81a3.73,3.73,0,0,0,1.07.79,2.77,2.77,0,0,0,1.2.25,2.1,2.1,0,0,0,1.56-.56,2,2,0,0,0,.57-1.51,1.78,1.78,0,0,0-.54-1.47,2.5,2.5,0,0,0-1.56-.42h-.79l.17-1.13h.54a2,2,0,0,0,1.37-.49,1.74,1.74,0,0,0,.54-1.37,1.54,1.54,0,0,0-.47-1.18,1.85,1.85,0,0,0-1.29-.44,2.73,2.73,0,0,0-1.12.23,3.62,3.62,0,0,0-1.06.72l-.76-.87a4.35,4.35,0,0,1,3-1.24A3.67,3.67,0,0,1,408.18,244.54Z" style="fill:#1d1d1b"/><path d="M418.82,252.08a2.72,2.72,0,0,1-.46,1.56,3.18,3.18,0,0,1-1.31,1.07,4.44,4.44,0,0,1-1.89.39,4.54,4.54,0,0,1-1.9-.38,3,3,0,0,1-1.27-1.06,2.74,2.74,0,0,1-.45-1.55,2.5,2.5,0,0,1,.53-1.64,3.9,3.9,0,0,1,1.55-1.11,3.16,3.16,0,0,1-1.24-1,2.56,2.56,0,0,1-.4-1.44,2.46,2.46,0,0,1,.45-1.47,2.82,2.82,0,0,1,1.19-.93,3.93,3.93,0,0,1,1.57-.31,4,4,0,0,1,1.55.3,2.85,2.85,0,0,1,1.2.9,2.43,2.43,0,0,1,.46,1.47,2.14,2.14,0,0,1-.45,1.36,3.69,3.69,0,0,1-1.36,1A3,3,0,0,1,418.82,252.08Zm-2.09,1.36a1.73,1.73,0,0,0,.58-1.35,1.88,1.88,0,0,0-.23-1,1.8,1.8,0,0,0-.71-.68,6.86,6.86,0,0,0-1.37-.59l-.4-.15a3,3,0,0,0-1.17,1,2.58,2.58,0,0,0-.38,1.43,1.67,1.67,0,0,0,.57,1.35,2.34,2.34,0,0,0,1.55.48A2.29,2.29,0,0,0,416.73,253.44Zm-2.85-7.75a1.55,1.55,0,0,0-.48,1.22,1.41,1.41,0,0,0,.47,1.15,4.37,4.37,0,0,0,1.49.73l.27.1a3.2,3.2,0,0,0,1-.87,2,2,0,0,0,.31-1.13,1.54,1.54,0,0,0-.46-1.18,1.82,1.82,0,0,0-1.32-.44A1.94,1.94,0,0,0,413.88,245.69Z" style="fill:#1d1d1b"/><path d="M422.21,253.22a1,1,0,0,1,.31.77,2.74,2.74,0,0,1-.28,1.12l-1.06,2.42h-1l.63-2.62a1.16,1.16,0,0,1-.33-.4,1.24,1.24,0,0,1-.12-.52,1.09,1.09,0,0,1,1.1-1.09A1.09,1.09,0,0,1,422.21,253.22Z" style="fill:#1d1d1b"/><path d="M428.57,244.54a2.6,2.6,0,0,1,1.45,2.32,2.29,2.29,0,0,1-.56,1.59,2.87,2.87,0,0,1-1.5.85,2.61,2.61,0,0,1,1.72.76,2.4,2.4,0,0,1,.67,1.8,3.16,3.16,0,0,1-.45,1.66,3,3,0,0,1-1.26,1.16,4.12,4.12,0,0,1-1.9.42,4.31,4.31,0,0,1-1.77-.36,3.86,3.86,0,0,1-1.4-1.06l.87-.81a3.57,3.57,0,0,0,1.06.79,2.8,2.8,0,0,0,1.2.25,2.1,2.1,0,0,0,1.56-.56,2,2,0,0,0,.57-1.51,1.78,1.78,0,0,0-.54-1.47,2.5,2.5,0,0,0-1.56-.42h-.79l.17-1.13h.54a2,2,0,0,0,1.37-.49,1.74,1.74,0,0,0,.54-1.37,1.54,1.54,0,0,0-.47-1.18,1.84,1.84,0,0,0-1.28-.44,2.75,2.75,0,0,0-1.13.23,3.46,3.46,0,0,0-1.05.72l-.76-.87a4.31,4.31,0,0,1,3-1.24A3.65,3.65,0,0,1,428.57,244.54Z" style="fill:#1d1d1b"/><path d="M436.32,244.9a2.63,2.63,0,0,1,.72,1.95,2.59,2.59,0,0,1-.72,1.94,2.7,2.7,0,0,1-3.69,0,2.63,2.63,0,0,1-.72-1.94,2.67,2.67,0,0,1,.72-1.95,2.72,2.72,0,0,1,3.69,0Zm-2.84.73a2.69,2.69,0,0,0,0,2.43,1.06,1.06,0,0,0,1,.48c.85,0,1.28-.57,1.28-1.69a2.33,2.33,0,0,0-.29-1.21,1.27,1.27,0,0,0-2,0Zm7.41-2,1,.66-7.32,11.07-1-.66Zm1.94,6.81a2.7,2.7,0,0,1,.71,2,2.66,2.66,0,0,1-.71,1.94,2.45,2.45,0,0,1-1.85.73,2.49,2.49,0,0,1-1.86-.73,2.63,2.63,0,0,1-.72-1.94,2.67,2.67,0,0,1,.72-2,2.52,2.52,0,0,1,1.86-.72A2.48,2.48,0,0,1,442.83,250.48Zm-2.84.74a2.28,2.28,0,0,0-.29,1.21,2.36,2.36,0,0,0,.29,1.21,1.08,1.08,0,0,0,1,.48c.85,0,1.28-.57,1.28-1.69a2.27,2.27,0,0,0-.28-1.2,1.06,1.06,0,0,0-1-.48A1.09,1.09,0,0,0,440,251.22Z" style="fill:#1d1d1b"/><path d="M514.58,133v1.15H513.2v2.61h-1.4v-2.61h-4.53v-1l3.18-7.08,1.22.5L508.81,133h3l.13-2.85h1.26V133Z" style="fill:#1d1d1b"/><path d="M521.39,130.19a2.7,2.7,0,0,1,1.06,1.13,4,4,0,0,1,.39,1.85,4.14,4.14,0,0,1-.45,2,3.39,3.39,0,0,1-1.21,1.33,3.21,3.21,0,0,1-1.7.46,2.94,2.94,0,0,1-2.71-1.37,7.2,7.2,0,0,1-.85-3.78,8.76,8.76,0,0,1,.48-3,4.51,4.51,0,0,1,1.39-2,3.31,3.31,0,0,1,2.13-.72,3.8,3.8,0,0,1,2.18.65l-.57,1a3.09,3.09,0,0,0-1.63-.46,2,2,0,0,0-1.8,1.09,6,6,0,0,0-.72,2.93,3,3,0,0,1,2.54-1.39A2.83,2.83,0,0,1,521.39,130.19Zm-.5,4.91a3.25,3.25,0,0,0,.49-1.88c0-1.51-.57-2.26-1.71-2.26a2.25,2.25,0,0,0-1.28.39,3.23,3.23,0,0,0-1,1.07,5.29,5.29,0,0,0,.55,2.56,1.68,1.68,0,0,0,1.54.82A1.62,1.62,0,0,0,520.89,135.1Z" style="fill:#1d1d1b"/><path d="M526.15,135.07a1,1,0,0,1,.31.77,2.79,2.79,0,0,1-.28,1.13l-1.06,2.42h-1l.63-2.63a1.1,1.1,0,0,1-.32-.39,1.15,1.15,0,0,1-.12-.53,1,1,0,0,1,.31-.77,1.06,1.06,0,0,1,.78-.32A1.09,1.09,0,0,1,526.15,135.07Z" style="fill:#1d1d1b"/><path d="M533.91,127.13a4.71,4.71,0,0,1,.87,3,8.68,8.68,0,0,1-.59,3.48,4.7,4.7,0,0,1-1.78,2.11,12.49,12.49,0,0,1-3.26,1.38l-.33-1.09a8,8,0,0,0,3.25-1.63,3.8,3.8,0,0,0,1.21-2.73,2.68,2.68,0,0,1-1,.91,2.81,2.81,0,0,1-1.39.35,2.72,2.72,0,0,1-1.49-.42,3,3,0,0,1-1-1.18,3.94,3.94,0,0,1-.39-1.8,3.69,3.69,0,0,1,.46-1.86,3.15,3.15,0,0,1,1.22-1.21,3.51,3.51,0,0,1,1.7-.42A3,3,0,0,1,533.91,127.13Zm-.6,3.34a4.81,4.81,0,0,0-.44-2.52,1.6,1.6,0,0,0-1.47-.77,1.76,1.76,0,0,0-1.44.62,2.68,2.68,0,0,0-.51,1.75,2.5,2.5,0,0,0,.48,1.67,1.56,1.56,0,0,0,1.28.56A2.46,2.46,0,0,0,533.31,130.47Z" style="fill:#1d1d1b"/><path d="M540.7,126.76a3,3,0,0,1,0,3.88,2.49,2.49,0,0,1-1.86.73,2.46,2.46,0,0,1-1.84-.73,3,3,0,0,1,0-3.88,2.46,2.46,0,0,1,1.84-.73A2.49,2.49,0,0,1,540.7,126.76Zm-2.85.72a2.69,2.69,0,0,0,0,2.43,1.08,1.08,0,0,0,1,.48c.86,0,1.28-.56,1.28-1.69a2.36,2.36,0,0,0-.28-1.21,1.07,1.07,0,0,0-1-.48A1.09,1.09,0,0,0,537.85,127.48Zm7.41-2,1,.67L539,137.25l-1-.66Zm1.94,6.82a3,3,0,0,1,0,3.88,2.45,2.45,0,0,1-1.85.73,2.48,2.48,0,0,1-1.85-.73,3,3,0,0,1,0-3.88,2.48,2.48,0,0,1,1.85-.73A2.45,2.45,0,0,1,547.2,132.34Zm-2.83.73a2.21,2.21,0,0,0-.3,1.21,2.26,2.26,0,0,0,.3,1.21,1,1,0,0,0,1,.48c.86,0,1.29-.56,1.29-1.69a2.29,2.29,0,0,0-.29-1.2,1.27,1.27,0,0,0-2,0Z" style="fill:#1d1d1b"/><path d="M658.74,201.22v1.15h-1.38V205H656v-2.61h-4.52v-1l3.17-7.08,1.22.5L653,201.22h3l.13-2.85h1.26v2.85Z" style="fill:#1d1d1b"/><path d="M664.45,194.61a2.64,2.64,0,0,1,1.08,1,2.53,2.53,0,0,1,.37,1.34,2.29,2.29,0,0,1-.56,1.59,2.8,2.8,0,0,1-1.49.85,2.69,2.69,0,0,1,1.72.76,2.43,2.43,0,0,1,.66,1.8,3.24,3.24,0,0,1-.44,1.66,3.07,3.07,0,0,1-1.26,1.16,4.15,4.15,0,0,1-1.9.42,4.24,4.24,0,0,1-1.77-.36,3.81,3.81,0,0,1-1.41-1.06l.87-.81a3.6,3.6,0,0,0,1.07.79,2.76,2.76,0,0,0,1.19.25,2.09,2.09,0,0,0,1.56-.56,2,2,0,0,0,.58-1.51,1.78,1.78,0,0,0-.54-1.47,2.51,2.51,0,0,0-1.57-.42h-.79l.18-1.13h.53a2,2,0,0,0,1.37-.49,1.75,1.75,0,0,0,.55-1.37,1.51,1.51,0,0,0-.48-1.18,1.8,1.8,0,0,0-1.28-.43,2.78,2.78,0,0,0-1.13.22,3.78,3.78,0,0,0-1,.73l-.76-.87a4.3,4.3,0,0,1,3-1.25A3.65,3.65,0,0,1,664.45,194.61Z" style="fill:#1d1d1b"/><path d="M669.77,203.29a1.06,1.06,0,0,1,.32.77,3,3,0,0,1-.28,1.13l-1.07,2.41h-1l.63-2.62a1.22,1.22,0,0,1-.32-.39,1.18,1.18,0,0,1-.12-.53A1.09,1.09,0,0,1,669,203,1.07,1.07,0,0,1,669.77,203.29Z" style="fill:#1d1d1b"/><path d="M677.54,195.54h-4.13v3.12a3.6,3.6,0,0,1,1.69-.41,2.83,2.83,0,0,1,2.18.89,3.48,3.48,0,0,1,.82,2.46,3.72,3.72,0,0,1-.46,1.86,3.17,3.17,0,0,1-1.28,1.26,4,4,0,0,1-1.92.45,4.14,4.14,0,0,1-1.73-.34,4.7,4.7,0,0,1-1.4-1l.85-.84a3.5,3.5,0,0,0,1,.75,3,3,0,0,0,1.22.24,2,2,0,0,0,1.59-.63,2.56,2.56,0,0,0,.58-1.78,2.3,2.3,0,0,0-.53-1.68,1.86,1.86,0,0,0-1.4-.52,3,3,0,0,0-.76.09,3.73,3.73,0,0,0-.74.27H672v-5.32h5.72Z" style="fill:#1d1d1b"/><path d="M683.94,195a2.67,2.67,0,0,1,.72,1.95,2.63,2.63,0,0,1-.72,1.94,2.45,2.45,0,0,1-1.85.73,2.48,2.48,0,0,1-1.85-.73,2.66,2.66,0,0,1-.71-1.94,2.7,2.7,0,0,1,.71-1.95,2.51,2.51,0,0,1,1.85-.72A2.48,2.48,0,0,1,683.94,195Zm-2.84.73a2.69,2.69,0,0,0,0,2.43,1.06,1.06,0,0,0,1,.48c.85,0,1.28-.56,1.28-1.69a2.33,2.33,0,0,0-.29-1.21,1.06,1.06,0,0,0-1-.48A1.07,1.07,0,0,0,681.1,195.7Zm7.4-2,1,.67-7.32,11.06-1-.66Zm2,6.81a2.7,2.7,0,0,1,.71,1.95,2.66,2.66,0,0,1-.71,1.94,2.72,2.72,0,0,1-3.71,0,2.63,2.63,0,0,1-.72-1.94,2.67,2.67,0,0,1,.72-1.95,2.75,2.75,0,0,1,3.71,0Zm-2.84.74a2.28,2.28,0,0,0-.29,1.21,2.36,2.36,0,0,0,.29,1.21,1.08,1.08,0,0,0,1,.48c.85,0,1.28-.56,1.28-1.69a2.27,2.27,0,0,0-.28-1.2,1.28,1.28,0,0,0-2,0Z" style="fill:#1d1d1b"/></g><g id="preto" data-name="preto"><path d="M22.6,55.42V65.79H21.17V56.94l-2.41,1.48-.62-1,3.2-2Z"/><path d="M31.22,56.64a7.39,7.39,0,0,1,.88,4,7.41,7.41,0,0,1-.88,4,3.13,3.13,0,0,1-5.19,0,7.51,7.51,0,0,1-.87-4,7.49,7.49,0,0,1,.87-4,3.14,3.14,0,0,1,5.19,0Zm-4.09.75a7.9,7.9,0,0,0-.49,3.23,8,8,0,0,0,.49,3.23,1.62,1.62,0,0,0,3,0,7.8,7.8,0,0,0,.49-3.23,7.74,7.74,0,0,0-.49-3.22,1.62,1.62,0,0,0-3,0Z"/><path d="M35.57,64.14a1,1,0,0,1,.31.75,1,1,0,0,1-.31.77,1.07,1.07,0,0,1-1.53,0,1,1,0,0,1-.31-.77,1,1,0,0,1,.31-.75,1.1,1.1,0,0,1,1.53,0Z"/><path d="M43.18,56.54h-4v3.05a3.69,3.69,0,0,1,1.66-.4,2.73,2.73,0,0,1,2.13.88,3.39,3.39,0,0,1,.81,2.41,3.64,3.64,0,0,1-.45,1.82A3.2,3.2,0,0,1,42,65.54a4,4,0,0,1-1.89.44,4.06,4.06,0,0,1-1.68-.33,4.46,4.46,0,0,1-1.38-1l.83-.82a3.47,3.47,0,0,0,1,.74,2.81,2.81,0,0,0,1.19.24,2,2,0,0,0,1.56-.62,2.55,2.55,0,0,0,.56-1.75,2.26,2.26,0,0,0-.51-1.65,1.86,1.86,0,0,0-1.38-.51,2.83,2.83,0,0,0-.74.09,3.13,3.13,0,0,0-.73.27H37.77V55.42h5.61Z"/><path d="M51.36,56.64a7.49,7.49,0,0,1,.87,4,7.51,7.51,0,0,1-.87,4,3.13,3.13,0,0,1-5.19,0,7.41,7.41,0,0,1-.88-4,7.39,7.39,0,0,1,.88-4,3.14,3.14,0,0,1,5.19,0Zm-4.09.75a7.74,7.74,0,0,0-.49,3.23,7.8,7.8,0,0,0,.49,3.23,1.58,1.58,0,0,0,1.49,1,1.6,1.6,0,0,0,1.49-1,7.8,7.8,0,0,0,.49-3.23,7.74,7.74,0,0,0-.49-3.22,1.61,1.61,0,0,0-3,0Z"/><path d="M60,56.64a7.49,7.49,0,0,1,.87,4,7.51,7.51,0,0,1-.87,4,3.14,3.14,0,0,1-5.2,0,7.51,7.51,0,0,1-.87-4,7.49,7.49,0,0,1,.87-4,3.15,3.15,0,0,1,5.2,0Zm-4.1.75a7.94,7.94,0,0,0-.48,3.23,8,8,0,0,0,.48,3.23,1.62,1.62,0,0,0,3,0,7.8,7.8,0,0,0,.49-3.23,7.74,7.74,0,0,0-.49-3.22,1.62,1.62,0,0,0-3,0Z"/><path d="M30.44,96.1a4.65,4.65,0,0,1,.86,3,8.54,8.54,0,0,1-.58,3.41A4.64,4.64,0,0,1,29,104.54a12.1,12.1,0,0,1-3.19,1.35l-.33-1.07a7.86,7.86,0,0,0,3.19-1.59,3.7,3.7,0,0,0,1.18-2.68,2.57,2.57,0,0,1-1,.89,2.7,2.7,0,0,1-1.36.35,2.62,2.62,0,0,1-1.46-.42,2.84,2.84,0,0,1-1-1.16,3.9,3.9,0,0,1-.38-1.76,3.6,3.6,0,0,1,.45-1.83,3.09,3.09,0,0,1,1.2-1.18A3.36,3.36,0,0,1,28,95,3,3,0,0,1,30.44,96.1Zm-.59,3.28a4.78,4.78,0,0,0-.42-2.47A1.58,1.58,0,0,0,28,96.16a1.72,1.72,0,0,0-1.41.6,2.67,2.67,0,0,0-.5,1.72,2.49,2.49,0,0,0,.47,1.64,1.55,1.55,0,0,0,1.25.55A2.41,2.41,0,0,0,29.85,99.38Z"/><path d="M34.69,103.89a1,1,0,0,1,.31.76,1,1,0,0,1-.31.77,1.06,1.06,0,0,1-.78.32,1.05,1.05,0,0,1-.76-.32,1.08,1.08,0,0,1-.3-.77,1.06,1.06,0,0,1,.3-.76,1.08,1.08,0,0,1,.76-.31A1.1,1.1,0,0,1,34.69,103.89Z"/><path d="M42.71,96.4a7.44,7.44,0,0,1,.88,4,7.52,7.52,0,0,1-.88,4,3.13,3.13,0,0,1-5.19,0,7.42,7.42,0,0,1-.88-4,7.35,7.35,0,0,1,.88-4,3.14,3.14,0,0,1,5.19,0Zm-4.09.75a7.71,7.71,0,0,0-.49,3.22,7.82,7.82,0,0,0,.49,3.24,1.61,1.61,0,0,0,3,0,7.79,7.79,0,0,0,.5-3.24,7.69,7.69,0,0,0-.5-3.21,1.61,1.61,0,0,0-3,0Z"/><path d="M51.36,96.4a7.45,7.45,0,0,1,.87,4,7.53,7.53,0,0,1-.87,4,3.13,3.13,0,0,1-5.19,0,7.42,7.42,0,0,1-.88-4,7.35,7.35,0,0,1,.88-4,3.14,3.14,0,0,1,5.19,0Zm-4.09.75a7.71,7.71,0,0,0-.49,3.22,7.82,7.82,0,0,0,.49,3.24,1.58,1.58,0,0,0,1.49,1,1.6,1.6,0,0,0,1.49-1,7.79,7.79,0,0,0,.5-3.24,7.69,7.69,0,0,0-.5-3.21,1.61,1.61,0,0,0-3,0Z"/><path d="M60,96.4a7.45,7.45,0,0,1,.87,4,7.53,7.53,0,0,1-.87,4,3.14,3.14,0,0,1-5.2,0,7.53,7.53,0,0,1-.87-4,7.45,7.45,0,0,1,.87-4,3.15,3.15,0,0,1,5.2,0Zm-4.1.75a7.91,7.91,0,0,0-.48,3.22,8,8,0,0,0,.48,3.24,1.62,1.62,0,0,0,3,0,7.82,7.82,0,0,0,.49-3.24,7.72,7.72,0,0,0-.49-3.21,1.62,1.62,0,0,0-3,0Z"/><path d="M32.49,134.94V136l-3.87,9.45L27.31,145l3.74-8.93H26.46v-1.16Z"/><path d="M35.57,143.65a1,1,0,0,1,.31.76,1,1,0,0,1-.31.76,1.07,1.07,0,0,1-1.53,0,1,1,0,0,1-.31-.76,1.08,1.08,0,0,1,1.84-.76Z"/><path d="M43.18,136.05h-4v3.06a3.58,3.58,0,0,1,1.66-.41,2.8,2.8,0,0,1,2.14.88,3.45,3.45,0,0,1,.8,2.41,3.64,3.64,0,0,1-.45,1.82A3.13,3.13,0,0,1,42,145.05a3.94,3.94,0,0,1-1.89.44,4.1,4.1,0,0,1-1.68-.33,4.3,4.3,0,0,1-1.38-1l.83-.82a3.47,3.47,0,0,0,1,.74,2.84,2.84,0,0,0,1.19.24,2,2,0,0,0,1.56-.62,2.54,2.54,0,0,0,.56-1.75,2.24,2.24,0,0,0-.51-1.64,1.83,1.83,0,0,0-1.38-.52,2.89,2.89,0,0,0-.74.09,4.4,4.4,0,0,0-.73.27H37.77v-5.22h5.62Z"/><path d="M51.36,136.15a9.54,9.54,0,0,1,0,8,3.13,3.13,0,0,1-5.19,0,9.44,9.44,0,0,1,0-8,3.14,3.14,0,0,1,5.19,0Zm-4.09.76a10.86,10.86,0,0,0,0,6.45,1.57,1.57,0,0,0,1.49,1,1.59,1.59,0,0,0,1.49-1,10.65,10.65,0,0,0,0-6.45,1.6,1.6,0,0,0-1.49-1A1.58,1.58,0,0,0,47.27,136.91Z"/><path d="M60,136.15a9.54,9.54,0,0,1,0,8,3.14,3.14,0,0,1-5.2,0,9.54,9.54,0,0,1,0-8,3.15,3.15,0,0,1,5.2,0Zm-4.1.76a11.07,11.07,0,0,0,0,6.45,1.62,1.62,0,0,0,3,0,10.86,10.86,0,0,0,0-6.45,1.62,1.62,0,0,0-3,0Z"/><path d="M30,178.62a2.55,2.55,0,0,1,1,1.11,3.89,3.89,0,0,1,.39,1.82,4.17,4.17,0,0,1-.44,1.94,3.22,3.22,0,0,1-1.2,1.3,3.08,3.08,0,0,1-1.66.46,2.9,2.9,0,0,1-2.65-1.34,7,7,0,0,1-.84-3.71,8.41,8.41,0,0,1,.48-3,4.4,4.4,0,0,1,1.35-2,3.26,3.26,0,0,1,2.09-.7,3.81,3.81,0,0,1,2.14.63l-.56,1a2.94,2.94,0,0,0-1.59-.45,2,2,0,0,0-1.77,1.07,5.91,5.91,0,0,0-.71,2.87,2.93,2.93,0,0,1,2.49-1.37A2.82,2.82,0,0,1,30,178.62Zm-.49,4.82a3.17,3.17,0,0,0,.48-1.85c0-1.48-.56-2.21-1.68-2.21a2.23,2.23,0,0,0-1.25.37,3.42,3.42,0,0,0-1,1.05,5.32,5.32,0,0,0,.54,2.51,1.64,1.64,0,0,0,1.51.81A1.59,1.59,0,0,0,29.53,183.44Z"/><path d="M34.69,183.4a1,1,0,0,1,.31.76,1,1,0,0,1-.31.77,1.06,1.06,0,0,1-.78.32,1.05,1.05,0,0,1-.76-.32,1.08,1.08,0,0,1-.3-.77,1.06,1.06,0,0,1,.3-.76,1.08,1.08,0,0,1,.76-.31A1.1,1.1,0,0,1,34.69,183.4Z"/><path d="M42.71,175.91a9.44,9.44,0,0,1,0,8,3.13,3.13,0,0,1-5.19,0,9.44,9.44,0,0,1,0-8,3.14,3.14,0,0,1,5.19,0Zm-4.09.75a10.89,10.89,0,0,0,0,6.46,1.61,1.61,0,0,0,3,0,10.65,10.65,0,0,0,0-6.45,1.61,1.61,0,0,0-3,0Z"/><path d="M51.36,175.91a9.54,9.54,0,0,1,0,8,3.13,3.13,0,0,1-5.19,0,9.44,9.44,0,0,1,0-8,3.14,3.14,0,0,1,5.19,0Zm-4.09.75a10.89,10.89,0,0,0,0,6.46,1.58,1.58,0,0,0,1.49,1,1.6,1.6,0,0,0,1.49-1,10.65,10.65,0,0,0,0-6.45,1.61,1.61,0,0,0-3,0Z"/><path d="M60,175.91a9.54,9.54,0,0,1,0,8,3.14,3.14,0,0,1-5.2,0,9.54,9.54,0,0,1,0-8,3.15,3.15,0,0,1,5.2,0Zm-4.1.75a11.11,11.11,0,0,0,0,6.46,1.62,1.62,0,0,0,3,0,10.86,10.86,0,0,0,0-6.45,1.62,1.62,0,0,0-3,0Z"/><path d="M31.64,221.12v1.13H30.29v2.55H28.91v-2.55H24.48v-1l3.11-6.94,1.2.5L26,221.12h2.94l.13-2.79h1.24v2.79Z"/><path d="M34.72,223.15a1,1,0,0,1,.31.76,1,1,0,0,1-.31.76A1,1,0,0,1,34,225a1.08,1.08,0,1,1,0-2.15A1,1,0,0,1,34.72,223.15Z"/><path d="M42.33,215.55h-4v3.06a3.57,3.57,0,0,1,1.65-.41,2.74,2.74,0,0,1,2.14.88,3.39,3.39,0,0,1,.81,2.41,3.64,3.64,0,0,1-.45,1.82,3.2,3.2,0,0,1-1.26,1.24,4,4,0,0,1-1.89.44,4.14,4.14,0,0,1-1.69-.33,4.53,4.53,0,0,1-1.38-1l.84-.82a3.56,3.56,0,0,0,1,.74,2.89,2.89,0,0,0,1.2.24,2,2,0,0,0,1.55-.62,2.49,2.49,0,0,0,.57-1.75,2.28,2.28,0,0,0-.51-1.65,1.86,1.86,0,0,0-1.38-.51,2.83,2.83,0,0,0-.74.09,4.4,4.4,0,0,0-.73.27H36.92v-5.22h5.61Z"/><path d="M50.51,215.65a9.54,9.54,0,0,1,0,8,3.14,3.14,0,0,1-5.2,0,9.54,9.54,0,0,1,0-8,3.15,3.15,0,0,1,5.2,0Zm-4.1.75a11.11,11.11,0,0,0,0,6.46,1.62,1.62,0,0,0,3,0,10.86,10.86,0,0,0,0-6.45,1.62,1.62,0,0,0-3,0Z"/><path d="M59.15,215.65a9.44,9.44,0,0,1,0,8,3.13,3.13,0,0,1-5.19,0,9.54,9.54,0,0,1,0-8,3.14,3.14,0,0,1,5.19,0Zm-4.09.75a10.89,10.89,0,0,0,0,6.46,1.62,1.62,0,0,0,3,0,10.86,10.86,0,0,0,0-6.45,1.62,1.62,0,0,0-3,0Z"/><path d="M28.62,254.39a2.62,2.62,0,0,1,1.06,1,2.51,2.51,0,0,1,.36,1.31,2.24,2.24,0,0,1-.55,1.56,2.72,2.72,0,0,1-1.46.83,2.66,2.66,0,0,1,1.69.74,2.43,2.43,0,0,1,.65,1.77,3.14,3.14,0,0,1-.44,1.63,3,3,0,0,1-1.24,1.14,4.08,4.08,0,0,1-1.86.41,4.24,4.24,0,0,1-1.73-.35,3.69,3.69,0,0,1-1.38-1l.85-.79a3.67,3.67,0,0,0,1.05.78,2.79,2.79,0,0,0,1.17.25,2.11,2.11,0,0,0,1.53-.55,2,2,0,0,0,.56-1.49,1.75,1.75,0,0,0-.53-1.44,2.47,2.47,0,0,0-1.53-.41H26l.17-1.11h.53a1.93,1.93,0,0,0,1.34-.48,1.7,1.7,0,0,0,.53-1.34,1.5,1.5,0,0,0-.46-1.16,1.81,1.81,0,0,0-1.26-.43,2.8,2.8,0,0,0-1.1.22,3.69,3.69,0,0,0-1,.72l-.74-.86A4.27,4.27,0,0,1,27,254,3.65,3.65,0,0,1,28.62,254.39Z"/><path d="M33.84,262.9a1.07,1.07,0,0,1,.31.76,1.09,1.09,0,0,1-.31.77,1.06,1.06,0,0,1-.78.32,1,1,0,0,1-.76-.32,1.09,1.09,0,0,1-.31-.77,1.06,1.06,0,0,1,1.07-1.07A1.1,1.1,0,0,1,33.84,262.9Z"/><path d="M41.86,255.41a7.45,7.45,0,0,1,.87,4,7.53,7.53,0,0,1-.87,4,3.13,3.13,0,0,1-5.19,0,7.42,7.42,0,0,1-.88-4,7.35,7.35,0,0,1,.88-4,3.14,3.14,0,0,1,5.19,0Zm-4.09.75a7.71,7.71,0,0,0-.49,3.22,7.82,7.82,0,0,0,.49,3.24,1.58,1.58,0,0,0,1.49,1,1.6,1.6,0,0,0,1.49-1,7.82,7.82,0,0,0,.49-3.24,7.72,7.72,0,0,0-.49-3.21,1.61,1.61,0,0,0-3,0Z"/><path d="M50.51,255.41a7.45,7.45,0,0,1,.87,4,7.53,7.53,0,0,1-.87,4,3.14,3.14,0,0,1-5.2,0,7.53,7.53,0,0,1-.87-4,7.45,7.45,0,0,1,.87-4,3.15,3.15,0,0,1,5.2,0Zm-4.1.75a7.91,7.91,0,0,0-.48,3.22,8,8,0,0,0,.48,3.24,1.62,1.62,0,0,0,3,0,7.82,7.82,0,0,0,.49-3.24,7.72,7.72,0,0,0-.49-3.21,1.62,1.62,0,0,0-3,0Z"/><path d="M59.15,255.41a7.35,7.35,0,0,1,.88,4,7.42,7.42,0,0,1-.88,4,3.13,3.13,0,0,1-5.19,0,7.53,7.53,0,0,1-.87-4,7.45,7.45,0,0,1,.87-4,3.14,3.14,0,0,1,5.19,0Zm-4.09.75a7.88,7.88,0,0,0-.49,3.22,8,8,0,0,0,.49,3.24,1.62,1.62,0,0,0,3,0,7.82,7.82,0,0,0,.49-3.24,7.72,7.72,0,0,0-.49-3.21,1.62,1.62,0,0,0-3,0Z"/><path d="M30.4,294v10.37H29v-8.85l-2.42,1.47-.62-1,3.21-2Z"/><path d="M34.72,302.66a1,1,0,0,1,.31.76,1,1,0,0,1-.31.77,1,1,0,0,1-.77.31,1,1,0,0,1-.76-.31,1,1,0,0,1-.31-.77,1,1,0,0,1,.31-.76,1,1,0,0,1,.76-.31A1,1,0,0,1,34.72,302.66Z"/><path d="M42.33,295.07h-4v3.05a3.56,3.56,0,0,1,1.65-.4,2.77,2.77,0,0,1,2.14.87,3.43,3.43,0,0,1,.81,2.41,3.64,3.64,0,0,1-.45,1.82,3.07,3.07,0,0,1-1.26,1.24,3.85,3.85,0,0,1-1.89.44,4.14,4.14,0,0,1-1.69-.33,4.67,4.67,0,0,1-1.38-1l.84-.82a3.52,3.52,0,0,0,1,.73,2.89,2.89,0,0,0,1.2.24,2,2,0,0,0,1.55-.62A2.47,2.47,0,0,0,41.4,301a2.25,2.25,0,0,0-.51-1.64,1.86,1.86,0,0,0-1.38-.51,2.85,2.85,0,0,0-.74.08,4.4,4.4,0,0,0-.73.27H36.92V294h5.61Z"/><path d="M50.51,295.17a7.45,7.45,0,0,1,.87,4,7.53,7.53,0,0,1-.87,4,3.15,3.15,0,0,1-5.2,0,7.53,7.53,0,0,1-.87-4,7.45,7.45,0,0,1,.87-4,3.15,3.15,0,0,1,5.2,0Zm-4.1.75a11.07,11.07,0,0,0,0,6.45,1.62,1.62,0,0,0,3,0,10.82,10.82,0,0,0,0-6.44,1.62,1.62,0,0,0-3,0Z"/><path d="M59.15,295.17a7.35,7.35,0,0,1,.88,4,7.42,7.42,0,0,1-.88,4,3.14,3.14,0,0,1-5.19,0,7.53,7.53,0,0,1-.87-4,7.45,7.45,0,0,1,.87-4,3.14,3.14,0,0,1,5.19,0Zm-4.09.75a10.86,10.86,0,0,0,0,6.45,1.62,1.62,0,0,0,3,0,10.82,10.82,0,0,0,0-6.44,1.62,1.62,0,0,0-3,0Z"/><path d="M59.15,334.92a9.44,9.44,0,0,1,0,8,3.13,3.13,0,0,1-5.19,0,9.54,9.54,0,0,1,0-8,3.14,3.14,0,0,1,5.19,0Zm-4.09.75a10.89,10.89,0,0,0,0,6.46,1.62,1.62,0,0,0,3,0,10.86,10.86,0,0,0,0-6.45,1.62,1.62,0,0,0-3,0Z"/><path d="M15,17.12l-.14,1.09H12.27v8.25H11V18.21H8.32V17.12Z"/><path d="M21.44,20.15a4.12,4.12,0,0,1,.84,2.73,4.83,4.83,0,0,1-.38,2,2.93,2.93,0,0,1-2.81,1.78,2.88,2.88,0,0,1-2.34-1,4.07,4.07,0,0,1-.85-2.73,4.83,4.83,0,0,1,.38-2,2.93,2.93,0,0,1,2.83-1.78A2.85,2.85,0,0,1,21.44,20.15Zm-4.19,2.74c0,1.82.61,2.73,1.84,2.73s1.85-.91,1.85-2.74-.61-2.73-1.83-2.73S17.25,21.07,17.25,22.89Z"/><path d="M29.23,19.73a2.27,2.27,0,0,1,.55,1.6v5.13H28.53V21.51a1.58,1.58,0,0,0-.28-1.07,1.08,1.08,0,0,0-.85-.31,1.61,1.61,0,0,0-1,.32,3.34,3.34,0,0,0-.81.94v5.07H24.34V19.31h1.07l.11,1.06a2.88,2.88,0,0,1,.94-.9,2.52,2.52,0,0,1,1.24-.32A2,2,0,0,1,29.23,19.73Z"/><path d="M37.66,23.31H33.1a2.73,2.73,0,0,0,.6,1.74A1.71,1.71,0,0,0,35,25.6a3.21,3.21,0,0,0,.95-.14,3.83,3.83,0,0,0,.91-.48l.54.75a4,4,0,0,1-2.5.89,2.88,2.88,0,0,1-2.32-1A4,4,0,0,1,31.77,23a5.05,5.05,0,0,1,.36-2,3.09,3.09,0,0,1,1-1.35,2.6,2.6,0,0,1,1.58-.49,2.65,2.65,0,0,1,2.19.94,4,4,0,0,1,.75,2.58C37.68,22.88,37.68,23.1,37.66,23.31Zm-1.21-1A2.62,2.62,0,0,0,36,20.7a1.46,1.46,0,0,0-1.26-.56c-1,0-1.58.75-1.67,2.25h3.35Z"/><path d="M40,26.21a1.59,1.59,0,0,1-.4-1.16V16.44l1.25-.15V25a.73.73,0,0,0,.1.44.41.41,0,0,0,.35.13,1.34,1.34,0,0,0,.46-.08l.32.87a2.07,2.07,0,0,1-1,.24A1.47,1.47,0,0,1,40,26.21Z"/><path d="M48.62,25.43a.82.82,0,0,0,.44.32l-.28.87a1.92,1.92,0,0,1-.9-.31,1.47,1.47,0,0,1-.5-.76,2.41,2.41,0,0,1-2.13,1.07,2.29,2.29,0,0,1-1.67-.6A2.09,2.09,0,0,1,43,24.46a2.05,2.05,0,0,1,.82-1.74,3.84,3.84,0,0,1,2.33-.61h1.1v-.53a1.38,1.38,0,0,0-.37-1.09,1.63,1.63,0,0,0-1.12-.32,6.09,6.09,0,0,0-1.93.38l-.31-.91A7.12,7.12,0,0,1,46,19.15a2.52,2.52,0,0,1,1.88.62,2.33,2.33,0,0,1,.63,1.75v3.27A1.08,1.08,0,0,0,48.62,25.43Zm-1.4-.86V22.93h-.94q-2,0-2,1.47a1.38,1.38,0,0,0,.31,1,1.23,1.23,0,0,0,.93.33A1.86,1.86,0,0,0,47.22,24.57Z"/><path d="M56.56,16.44v10h-1.1l-.12-1a2.64,2.64,0,0,1-.88.85,2.35,2.35,0,0,1-1.18.3,2.31,2.31,0,0,1-2-1,4.62,4.62,0,0,1-.71-2.7,5.18,5.18,0,0,1,.34-2,3,3,0,0,1,1-1.34,2.39,2.39,0,0,1,1.49-.48,2.54,2.54,0,0,1,1.92.88V16.29Zm-2,8.93a3,3,0,0,0,.78-.8V21.08a2.58,2.58,0,0,0-.75-.7,1.71,1.71,0,0,0-.9-.24,1.44,1.44,0,0,0-1.28.69,3.72,3.72,0,0,0-.46,2.06A4,4,0,0,0,52.34,25a1.34,1.34,0,0,0,1.21.68A1.81,1.81,0,0,0,54.53,25.37Z"/><path d="M64.1,25.43a.85.85,0,0,0,.45.32l-.29.87a1.84,1.84,0,0,1-.89-.31,1.36,1.36,0,0,1-.5-.76,2.41,2.41,0,0,1-2.13,1.07,2.28,2.28,0,0,1-1.67-.6,2,2,0,0,1-.61-1.56,2,2,0,0,1,.82-1.74,3.82,3.82,0,0,1,2.33-.61h1.1v-.53a1.42,1.42,0,0,0-.37-1.09,1.66,1.66,0,0,0-1.13-.32,6.09,6.09,0,0,0-1.92.38L59,19.64a7.12,7.12,0,0,1,2.47-.49,2.56,2.56,0,0,1,1.89.62A2.36,2.36,0,0,1,64,21.52v3.27A1.08,1.08,0,0,0,64.1,25.43Zm-1.39-.86V22.93h-.94q-2,0-2,1.47a1.34,1.34,0,0,0,.31,1,1.22,1.22,0,0,0,.92.33A1.86,1.86,0,0,0,62.71,24.57Z"/><path d="M69.77,19.35a4,4,0,0,1,1.11.61l-.53.79a4,4,0,0,0-.93-.46,2.83,2.83,0,0,0-.93-.15,1.63,1.63,0,0,0-1,.25.82.82,0,0,0-.35.69.79.79,0,0,0,.33.67,3.78,3.78,0,0,0,1.2.48,4.28,4.28,0,0,1,1.78.81,1.74,1.74,0,0,1,.59,1.41,1.83,1.83,0,0,1-.82,1.62,3.46,3.46,0,0,1-2,.55,4,4,0,0,1-2.7-.93l.67-.76a3.24,3.24,0,0,0,2,.69,2,2,0,0,0,1.12-.29.94.94,0,0,0,.41-.8,1.05,1.05,0,0,0-.15-.59,1.19,1.19,0,0,0-.51-.39A8.38,8.38,0,0,0,68,23.19a3.63,3.63,0,0,1-1.64-.8,1.7,1.7,0,0,1-.51-1.27,1.67,1.67,0,0,1,.33-1,2.14,2.14,0,0,1,.92-.71,3.34,3.34,0,0,1,1.32-.25A4.16,4.16,0,0,1,69.77,19.35Z"/></g><g id="preto" data-name="preto"><path d="M130,404.87a4.08,4.08,0,0,1,1.17.71l-.7.83a2.79,2.79,0,0,0-1.8-.7,2.27,2.27,0,0,0-1.88.9,4.58,4.58,0,0,0-.72,2.87,4.63,4.63,0,0,0,.71,2.84,2.26,2.26,0,0,0,1.87.92,2.62,2.62,0,0,0,1.05-.2,6.8,6.8,0,0,0,.95-.57l.63.81a3.5,3.5,0,0,1-1.11.75,3.81,3.81,0,0,1-1.56.3,3.7,3.7,0,0,1-2-.57,3.66,3.66,0,0,1-1.38-1.65,6.37,6.37,0,0,1-.49-2.63,6.15,6.15,0,0,1,.51-2.62,3.82,3.82,0,0,1,1.4-1.65,3.6,3.6,0,0,1,2-.55A4.13,4.13,0,0,1,130,404.87Z"/><path d="M137.86,407.86a4.15,4.15,0,0,1,.83,2.72,4.79,4.79,0,0,1-.38,2,2.93,2.93,0,0,1-1.1,1.32,3.09,3.09,0,0,1-1.71.47,2.89,2.89,0,0,1-2.34-1,4.11,4.11,0,0,1-.84-2.72,4.6,4.6,0,0,1,.38-2,2.93,2.93,0,0,1,1.1-1.32,3.1,3.1,0,0,1,1.72-.47A2.89,2.89,0,0,1,137.86,407.86Zm-4.2,2.74c0,1.81.62,2.72,1.84,2.72s1.85-.91,1.85-2.74-.61-2.72-1.83-2.72S133.66,408.77,133.66,410.6Z"/><path d="M145.64,407.44a2.21,2.21,0,0,1,.55,1.6v5.12h-1.25v-5a1.6,1.6,0,0,0-.28-1.07,1.07,1.07,0,0,0-.84-.31,1.69,1.69,0,0,0-1,.32,3.51,3.51,0,0,0-.81.94v5.07h-1.25V407h1.07l.11,1.05a2.78,2.78,0,0,1,.95-.89,2.37,2.37,0,0,1,1.24-.33A2,2,0,0,1,145.64,407.44Z"/><path d="M152,407.06a3.69,3.69,0,0,1,1.11.61l-.53.78a5,5,0,0,0-.93-.46,2.88,2.88,0,0,0-.93-.15,1.66,1.66,0,0,0-1,.25.79.79,0,0,0-.35.69.78.78,0,0,0,.33.68,3.82,3.82,0,0,0,1.2.47,4.35,4.35,0,0,1,1.78.81,2,2,0,0,1-.23,3,3.49,3.49,0,0,1-2,.56,4,4,0,0,1-2.7-.94l.67-.76a3.22,3.22,0,0,0,2,.69,1.93,1.93,0,0,0,1.12-.29.91.91,0,0,0,.42-.79,1.12,1.12,0,0,0-.15-.59,1.25,1.25,0,0,0-.52-.4,7.65,7.65,0,0,0-1.07-.36,3.53,3.53,0,0,1-1.65-.8,1.7,1.7,0,0,1-.51-1.27,1.67,1.67,0,0,1,.33-1,2.25,2.25,0,0,1,.93-.71,3.45,3.45,0,0,1,1.32-.25A3.89,3.89,0,0,1,152,407.06Z"/><path d="M160.35,414.16h-1.07l-.1-1.11a2.72,2.72,0,0,1-.93,1,2.59,2.59,0,0,1-1.29.31,1.92,1.92,0,0,1-1.47-.58,2.26,2.26,0,0,1-.52-1.61V407h1.24v5a1.62,1.62,0,0,0,.26,1,1,1,0,0,0,.84.31,2.12,2.12,0,0,0,1.79-1.24V407h1.25Z"/><path d="M171.51,407.44A2.34,2.34,0,0,1,172,409v5.12h-1.25v-5c0-.92-.33-1.38-1-1.38a1.4,1.4,0,0,0-.9.3,4.69,4.69,0,0,0-.78,1v5.07h-1.25v-5c0-.92-.34-1.38-1-1.38a1.32,1.32,0,0,0-.91.31,4.54,4.54,0,0,0-.78.95v5.07h-1.24V407H164l.11,1a2.38,2.38,0,0,1,2.06-1.21,1.8,1.8,0,0,1,1.8,1.29,3.42,3.42,0,0,1,.93-1,2.16,2.16,0,0,1,1.2-.33A1.8,1.8,0,0,1,171.51,407.44Z"/><path d="M179.57,407.86a4.1,4.1,0,0,1,.84,2.72,4.79,4.79,0,0,1-.38,2,3,3,0,0,1-1.1,1.32,3.09,3.09,0,0,1-1.71.47,2.91,2.91,0,0,1-2.35-1,4.11,4.11,0,0,1-.84-2.72,4.76,4.76,0,0,1,.38-2,2.93,2.93,0,0,1,1.1-1.32,3.1,3.1,0,0,1,1.72-.47A2.86,2.86,0,0,1,179.57,407.86Zm-4.19,2.74c0,1.81.61,2.72,1.84,2.72s1.84-.91,1.84-2.74-.61-2.72-1.83-2.72S175.38,408.77,175.38,410.6Z"/><path d="M191,413.14a.94.94,0,0,0,.44.32l-.28.87a1.92,1.92,0,0,1-.9-.32,1.43,1.43,0,0,1-.5-.76,2.39,2.39,0,0,1-2.13,1.08,2.29,2.29,0,0,1-1.67-.6,2.12,2.12,0,0,1-.61-1.56,2.07,2.07,0,0,1,.82-1.75,3.84,3.84,0,0,1,2.33-.61h1.1v-.53a1.34,1.34,0,0,0-.37-1.08,1.63,1.63,0,0,0-1.12-.33,6.39,6.39,0,0,0-1.93.38l-.31-.91a7.36,7.36,0,0,1,2.47-.49,2.57,2.57,0,0,1,1.88.62,2.35,2.35,0,0,1,.63,1.76v3.26A1.13,1.13,0,0,0,191,413.14Zm-1.4-.86v-1.64h-.94c-1.32,0-2,.48-2,1.46a1.35,1.35,0,0,0,.31,1,1.23,1.23,0,0,0,.93.33A1.87,1.87,0,0,0,189.63,412.28Z"/><path d="M198.73,407.83a5.06,5.06,0,0,1,.64,2.75,4.55,4.55,0,0,1-.74,2.71,2.4,2.4,0,0,1-2.07,1,2.3,2.3,0,0,1-1.87-.82v3.39l-1.25.15V407h1.07l.1,1a2.73,2.73,0,0,1,.95-.84,2.46,2.46,0,0,1,1.16-.29A2.24,2.24,0,0,1,198.73,407.83Zm-.71,2.75c0-1.82-.54-2.74-1.61-2.74a1.64,1.64,0,0,0-1,.31,3.06,3.06,0,0,0-.76.8v3.49a1.83,1.83,0,0,0,1.57.87C197.43,413.31,198,412.4,198,410.58Z"/><path d="M206.46,413.14a1,1,0,0,0,.44.32l-.28.87a1.92,1.92,0,0,1-.9-.32,1.43,1.43,0,0,1-.5-.76,2.38,2.38,0,0,1-2.13,1.08,2.25,2.25,0,0,1-1.66-.6,2.08,2.08,0,0,1-.61-1.56,2,2,0,0,1,.82-1.75,3.79,3.79,0,0,1,2.32-.61h1.1v-.53a1.38,1.38,0,0,0-.36-1.08,1.68,1.68,0,0,0-1.13-.33,6.45,6.45,0,0,0-1.93.38l-.31-.91a7.36,7.36,0,0,1,2.47-.49,2.57,2.57,0,0,1,1.88.62,2.35,2.35,0,0,1,.63,1.76v3.26A1.13,1.13,0,0,0,206.46,413.14Zm-1.4-.86v-1.64h-.93c-1.32,0-2,.48-2,1.46a1.31,1.31,0,0,0,.32,1,1.19,1.19,0,0,0,.92.33A1.87,1.87,0,0,0,205.06,412.28Z"/><path d="M212.68,406.93l-.23,1.22a2.78,2.78,0,0,0-.62-.08,1.34,1.34,0,0,0-1.07.49,3.49,3.49,0,0,0-.64,1.52v4.08h-1.25V407h1.07l.12,1.45a2.65,2.65,0,0,1,.78-1.21,1.72,1.72,0,0,1,1.14-.41A3.06,3.06,0,0,1,212.68,406.93Z"/><path d="M219.48,411h-4.56a2.72,2.72,0,0,0,.6,1.73,1.71,1.71,0,0,0,1.32.56,3,3,0,0,0,1-.15,3.78,3.78,0,0,0,.9-.48l.54.75a3.91,3.91,0,0,1-2.49.9,2.92,2.92,0,0,1-2.33-1,4,4,0,0,1-.83-2.69,5.05,5.05,0,0,1,.36-2,3.13,3.13,0,0,1,1-1.35,2.65,2.65,0,0,1,1.58-.49,2.62,2.62,0,0,1,2.18.94,4,4,0,0,1,.76,2.59C219.5,410.59,219.49,410.8,219.48,411Zm-1.21-1a2.64,2.64,0,0,0-.42-1.61,1.48,1.48,0,0,0-1.26-.56c-1,0-1.58.75-1.67,2.25h3.35Z"/><path d="M226.39,407.44a2.25,2.25,0,0,1,.54,1.6v5.12h-1.24v-5a1.59,1.59,0,0,0-.29-1.07,1.07,1.07,0,0,0-.84-.31,1.66,1.66,0,0,0-1,.32,3.52,3.52,0,0,0-.82.94v5.07H221.5V407h1.07l.11,1.05a2.66,2.66,0,0,1,.94-.89,2.4,2.4,0,0,1,1.24-.33A2,2,0,0,1,226.39,407.44Z"/><path d="M233.05,413.84a2.78,2.78,0,0,1-1.6.49,1.89,1.89,0,0,1-1.42-.53,2.06,2.06,0,0,1-.5-1.51V408h-1.25v-1h1.25V405.4l1.24-.15V407h1.7l-.14,1h-1.56v4.26a1.28,1.28,0,0,0,.2.8.78.78,0,0,0,.66.25,2.06,2.06,0,0,0,1-.28Z"/><path d="M239.71,411h-4.56a2.84,2.84,0,0,0,.6,1.73,1.74,1.74,0,0,0,1.33.56,2.91,2.91,0,0,0,.95-.15,3.83,3.83,0,0,0,.91-.48l.54.75a3.94,3.94,0,0,1-2.5.9,2.89,2.89,0,0,1-2.32-1,4,4,0,0,1-.84-2.69,5.05,5.05,0,0,1,.36-2,3.21,3.21,0,0,1,1-1.35,2.93,2.93,0,0,1,3.77.45,4,4,0,0,1,.76,2.59C239.74,410.59,239.73,410.8,239.71,411Zm-1.21-1a2.64,2.64,0,0,0-.42-1.61,1.48,1.48,0,0,0-1.26-.56c-1,0-1.58.75-1.67,2.25h3.35Z"/><path d="M250.86,404.14v10h-1.1l-.12-1a2.58,2.58,0,0,1-.89.85,2.33,2.33,0,0,1-1.18.31,2.28,2.28,0,0,1-2-1,4.55,4.55,0,0,1-.71-2.7,5.18,5.18,0,0,1,.34-1.95,3.07,3.07,0,0,1,1-1.34,2.42,2.42,0,0,1,1.49-.48,2.59,2.59,0,0,1,1.93.88V404Zm-2,8.93a3.11,3.11,0,0,0,.79-.79v-3.5a2.86,2.86,0,0,0-.75-.7,1.74,1.74,0,0,0-.91-.24,1.44,1.44,0,0,0-1.28.69,3.86,3.86,0,0,0-.45,2.07,4,4,0,0,0,.42,2.06,1.34,1.34,0,0,0,1.21.68A1.72,1.72,0,0,0,248.82,413.07Z"/><path d="M258.8,411h-4.55a2.78,2.78,0,0,0,.59,1.73,1.75,1.75,0,0,0,1.33.56,2.87,2.87,0,0,0,.95-.15,3.83,3.83,0,0,0,.91-.48l.54.75a3.93,3.93,0,0,1-2.49.9,2.91,2.91,0,0,1-2.33-1,4,4,0,0,1-.83-2.69,5.05,5.05,0,0,1,.36-2,3.13,3.13,0,0,1,1-1.35,2.91,2.91,0,0,1,3.76.45,4,4,0,0,1,.76,2.59C258.83,410.59,258.82,410.8,258.8,411Zm-1.2-1a2.64,2.64,0,0,0-.42-1.61,1.52,1.52,0,0,0-1.27-.56c-1,0-1.57.75-1.66,2.25h3.35Z"/><path d="M269.71,407.83a5.07,5.07,0,0,1,.63,2.75,4.55,4.55,0,0,1-.73,2.71,2.4,2.4,0,0,1-2.07,1,2.34,2.34,0,0,1-1.88-.82v3.39l-1.24.15V407h1.07l.09,1a2.91,2.91,0,0,1,.95-.84,2.53,2.53,0,0,1,1.17-.29A2.24,2.24,0,0,1,269.71,407.83Zm-.71,2.75c0-1.82-.54-2.74-1.61-2.74a1.67,1.67,0,0,0-1,.31,3.42,3.42,0,0,0-.76.8v3.49a2,2,0,0,0,.68.64,1.83,1.83,0,0,0,.9.23C268.41,413.31,269,412.4,269,410.58Z"/><path d="M277.44,413.14a.94.94,0,0,0,.44.32l-.28.87a1.92,1.92,0,0,1-.9-.32,1.43,1.43,0,0,1-.5-.76,2.39,2.39,0,0,1-2.13,1.08,2.29,2.29,0,0,1-1.67-.6,2.11,2.11,0,0,1-.6-1.56,2,2,0,0,1,.82-1.75,3.79,3.79,0,0,1,2.32-.61H276v-.53a1.34,1.34,0,0,0-.37-1.08,1.63,1.63,0,0,0-1.12-.33,6.39,6.39,0,0,0-1.93.38l-.31-.91a7.36,7.36,0,0,1,2.47-.49,2.57,2.57,0,0,1,1.88.62,2.35,2.35,0,0,1,.63,1.76v3.26A1.13,1.13,0,0,0,277.44,413.14Zm-1.4-.86v-1.64h-.94c-1.32,0-2,.48-2,1.46a1.31,1.31,0,0,0,.32,1,1.19,1.19,0,0,0,.92.33A1.87,1.87,0,0,0,276,412.28Z"/><path d="M285.14,407.83a5.06,5.06,0,0,1,.64,2.75,4.55,4.55,0,0,1-.74,2.71,2.38,2.38,0,0,1-2.07,1,2.3,2.3,0,0,1-1.87-.82v3.39l-1.25.15V407h1.07l.1,1a2.73,2.73,0,0,1,1-.84,2.49,2.49,0,0,1,1.16-.29A2.23,2.23,0,0,1,285.14,407.83Zm-.71,2.75c0-1.82-.54-2.74-1.61-2.74a1.66,1.66,0,0,0-1,.31,3.06,3.06,0,0,0-.76.8v3.49a1.81,1.81,0,0,0,.68.64,1.79,1.79,0,0,0,.89.23C283.85,413.31,284.43,412.4,284.43,410.58Z"/><path d="M293.28,411h-4.56a2.72,2.72,0,0,0,.6,1.73,1.71,1.71,0,0,0,1.32.56,2.83,2.83,0,0,0,.95-.15,3.65,3.65,0,0,0,.91-.48l.55.75a4,4,0,0,1-2.5.9,2.92,2.92,0,0,1-2.33-1,4,4,0,0,1-.83-2.69,5.05,5.05,0,0,1,.36-2,3.13,3.13,0,0,1,1-1.35,2.65,2.65,0,0,1,1.58-.49,2.62,2.62,0,0,1,2.18.94,4,4,0,0,1,.76,2.59C293.3,410.59,293.29,410.8,293.28,411Zm-1.21-1a2.64,2.64,0,0,0-.42-1.61,1.48,1.48,0,0,0-1.26-.56c-1,0-1.58.75-1.67,2.25h3.35Z"/><path d="M295.63,413.91a1.57,1.57,0,0,1-.4-1.16v-8.61l1.24-.15v8.73a.73.73,0,0,0,.11.44.39.39,0,0,0,.34.13,1.19,1.19,0,0,0,.47-.08l.32.87a2.08,2.08,0,0,1-1,.25A1.42,1.42,0,0,1,295.63,413.91Z"/><path d="M384.67,404.75a4.21,4.21,0,0,1,1.18.7l-.71.83a2.83,2.83,0,0,0-1.8-.69,2.29,2.29,0,0,0-1.88.89,6.15,6.15,0,0,0,0,5.72,2.25,2.25,0,0,0,1.87.91,2.46,2.46,0,0,0,1.05-.2,5,5,0,0,0,.95-.57l.64.81a3.43,3.43,0,0,1-1.12.75,3.81,3.81,0,0,1-1.56.3,3.74,3.74,0,0,1-2-.56,3.7,3.7,0,0,1-1.39-1.66,6.32,6.32,0,0,1-.49-2.62,6.2,6.2,0,0,1,.51-2.63,3.85,3.85,0,0,1,1.4-1.64,3.54,3.54,0,0,1,2-.56A3.87,3.87,0,0,1,384.67,404.75Z"/><path d="M392.54,407.73a4.12,4.12,0,0,1,.83,2.73,4.66,4.66,0,0,1-.38,2,2.94,2.94,0,0,1-1.09,1.31,3.09,3.09,0,0,1-1.71.47,2.92,2.92,0,0,1-2.35-1,4.12,4.12,0,0,1-.84-2.73,4.83,4.83,0,0,1,.38-2,3,3,0,0,1,1.1-1.32,3.09,3.09,0,0,1,1.72-.46A2.87,2.87,0,0,1,392.54,407.73Zm-4.2,2.74c0,1.82.62,2.73,1.85,2.73s1.84-.92,1.84-2.74-.61-2.73-1.83-2.73S388.34,408.64,388.34,410.47Z"/><path d="M400.32,407.31a2.22,2.22,0,0,1,.55,1.6V414h-1.24v-5a1.61,1.61,0,0,0-.29-1.08,1.11,1.11,0,0,0-.84-.31,1.6,1.6,0,0,0-1,.33,3.63,3.63,0,0,0-.82.93V414h-1.24v-7.15h1.07l.11,1.06a2.79,2.79,0,0,1,.94-.9,2.49,2.49,0,0,1,1.24-.32A2,2,0,0,1,400.32,407.31Z"/><path d="M406.64,406.93a4,4,0,0,1,1.11.61l-.53.79a3.81,3.81,0,0,0-.93-.46,2.83,2.83,0,0,0-.93-.15,1.63,1.63,0,0,0-1,.25.77.77,0,0,0-.35.68.8.8,0,0,0,.33.68,3.82,3.82,0,0,0,1.2.47,4.28,4.28,0,0,1,1.78.82A1.74,1.74,0,0,1,408,412a1.82,1.82,0,0,1-.82,1.61,3.46,3.46,0,0,1-2,.56,4,4,0,0,1-2.7-.94l.67-.76a3.23,3.23,0,0,0,2,.7,1.85,1.85,0,0,0,1.11-.3.9.9,0,0,0,.42-.79,1.05,1.05,0,0,0-.15-.59,1.16,1.16,0,0,0-.52-.39,5.69,5.69,0,0,0-1.07-.36,3.73,3.73,0,0,1-1.65-.8,1.72,1.72,0,0,1-.5-1.28,1.69,1.69,0,0,1,.33-1,2.12,2.12,0,0,1,.92-.7,3.27,3.27,0,0,1,1.32-.25A3.89,3.89,0,0,1,406.64,406.93Z"/><path d="M415,414H414l-.09-1.12a2.74,2.74,0,0,1-.94,1,2.47,2.47,0,0,1-1.29.31,1.89,1.89,0,0,1-1.46-.57,2.25,2.25,0,0,1-.53-1.61v-5.13h1.24v5a1.65,1.65,0,0,0,.26,1,1.06,1.06,0,0,0,.84.3,2.11,2.11,0,0,0,1.79-1.23v-5.1H415Z"/><path d="M426.19,407.32a2.25,2.25,0,0,1,.53,1.59V414h-1.25v-5c0-.93-.33-1.39-1-1.39a1.31,1.31,0,0,0-.89.31,4.07,4.07,0,0,0-.79.95V414h-1.25v-5c0-.93-.33-1.39-1-1.39a1.39,1.39,0,0,0-.91.31,4.54,4.54,0,0,0-.77.95V414h-1.25v-7.15h1.07l.11,1a2.39,2.39,0,0,1,2.06-1.2,1.85,1.85,0,0,1,1.13.34,1.82,1.82,0,0,1,.67.94,3.38,3.38,0,0,1,.93-.95,2.16,2.16,0,0,1,1.2-.33A1.77,1.77,0,0,1,426.19,407.32Z"/><path d="M434.25,407.73a4.12,4.12,0,0,1,.84,2.73,4.83,4.83,0,0,1-.38,2,3,3,0,0,1-1.1,1.31,3.09,3.09,0,0,1-1.71.47,2.91,2.91,0,0,1-2.34-1,4.07,4.07,0,0,1-.84-2.73,4.83,4.83,0,0,1,.37-2,2.89,2.89,0,0,1,2.83-1.78A2.85,2.85,0,0,1,434.25,407.73Zm-4.19,2.74c0,1.82.61,2.73,1.84,2.73s1.85-.92,1.85-2.74-.61-2.73-1.83-2.73S430.06,408.64,430.06,410.47Z"/><path d="M445.71,413a.92.92,0,0,0,.44.32l-.28.87a2,2,0,0,1-.9-.31,1.52,1.52,0,0,1-.5-.76,2.4,2.4,0,0,1-2.13,1.07,2.25,2.25,0,0,1-1.66-.6,2.08,2.08,0,0,1-.61-1.56,2,2,0,0,1,.82-1.75,3.86,3.86,0,0,1,2.32-.61h1.1v-.53a1.41,1.41,0,0,0-.36-1.08,1.68,1.68,0,0,0-1.13-.33,6.45,6.45,0,0,0-1.93.38l-.31-.91a7.33,7.33,0,0,1,2.47-.48,2.56,2.56,0,0,1,1.88.61,2.35,2.35,0,0,1,.63,1.76v3.27A1.1,1.1,0,0,0,445.71,413Zm-1.4-.86v-1.64h-.93c-1.32,0-2,.49-2,1.46a1.35,1.35,0,0,0,.32,1,1.22,1.22,0,0,0,.92.32A1.87,1.87,0,0,0,444.31,412.15Z"/><path d="M453.41,407.7a5.07,5.07,0,0,1,.64,2.76,4.57,4.57,0,0,1-.74,2.71,2.36,2.36,0,0,1-2.07,1,2.28,2.28,0,0,1-1.87-.82v3.4l-1.25.14v-10h1.07l.1,1a2.68,2.68,0,0,1,.95-.83,2.4,2.4,0,0,1,1.16-.29A2.22,2.22,0,0,1,453.41,407.7Zm-.7,2.76c0-1.83-.54-2.74-1.62-2.74a1.6,1.6,0,0,0-1,.31,3.07,3.07,0,0,0-.76.8v3.48a1.92,1.92,0,0,0,.68.65,1.81,1.81,0,0,0,.89.22C452.12,413.18,452.71,412.27,452.71,410.46Z"/><path d="M461.14,413a.9.9,0,0,0,.45.32l-.29.87a2,2,0,0,1-.89-.31,1.4,1.4,0,0,1-.5-.76,2.41,2.41,0,0,1-2.13,1.07,2.28,2.28,0,0,1-1.67-.6,2.08,2.08,0,0,1-.61-1.56,2,2,0,0,1,.82-1.75,3.88,3.88,0,0,1,2.32-.61h1.1v-.53a1.41,1.41,0,0,0-.36-1.08,1.66,1.66,0,0,0-1.13-.33,6.39,6.39,0,0,0-1.92.38l-.32-.91a7.33,7.33,0,0,1,2.47-.48,2.6,2.6,0,0,1,1.89.61,2.39,2.39,0,0,1,.62,1.76v3.27A1.1,1.1,0,0,0,461.14,413Zm-1.4-.86v-1.64h-.93c-1.32,0-2,.49-2,1.46a1.35,1.35,0,0,0,.31,1,1.24,1.24,0,0,0,.92.32A1.85,1.85,0,0,0,459.74,412.15Z"/><path d="M467.37,406.81l-.24,1.22a2.25,2.25,0,0,0-.62-.08,1.31,1.31,0,0,0-1.07.49,3.69,3.69,0,0,0-.64,1.51V414h-1.25v-7.15h1.08l.12,1.45a2.78,2.78,0,0,1,.77-1.21,1.73,1.73,0,0,1,1.14-.4A2.71,2.71,0,0,1,467.37,406.81Z"/><path d="M473.75,413a.9.9,0,0,0,.45.32l-.29.87a2,2,0,0,1-.89-.31,1.46,1.46,0,0,1-.5-.76,2.41,2.41,0,0,1-2.13,1.07,2.28,2.28,0,0,1-1.67-.6,2.08,2.08,0,0,1-.61-1.56,2,2,0,0,1,.82-1.75,3.89,3.89,0,0,1,2.33-.61h1.1v-.53a1.41,1.41,0,0,0-.37-1.08,1.66,1.66,0,0,0-1.13-.33,6.39,6.39,0,0,0-1.92.38l-.31-.91a7.23,7.23,0,0,1,2.46-.48,2.6,2.6,0,0,1,1.89.61,2.39,2.39,0,0,1,.62,1.76v3.27A1.1,1.1,0,0,0,473.75,413Zm-1.39-.86v-1.64h-.94c-1.32,0-2,.49-2,1.46a1.35,1.35,0,0,0,.31,1,1.25,1.25,0,0,0,.92.32A1.87,1.87,0,0,0,472.36,412.15Z"/><path d="M479.42,406.93a4,4,0,0,1,1.11.61l-.53.79a3.64,3.64,0,0,0-.93-.46,2.83,2.83,0,0,0-.93-.15,1.63,1.63,0,0,0-1,.25.85.85,0,0,0,0,1.36,3.82,3.82,0,0,0,1.2.47,4.28,4.28,0,0,1,1.78.82,1.74,1.74,0,0,1,.59,1.41,1.82,1.82,0,0,1-.82,1.61,3.46,3.46,0,0,1-2,.56,3.91,3.91,0,0,1-2.69-.94l.66-.76a3.25,3.25,0,0,0,2,.7,1.88,1.88,0,0,0,1.12-.3.91.91,0,0,0,.41-.79,1.05,1.05,0,0,0-.15-.59,1.19,1.19,0,0,0-.51-.39,6.11,6.11,0,0,0-1.08-.36A3.68,3.68,0,0,1,476,410a1.73,1.73,0,0,1-.51-1.28,1.69,1.69,0,0,1,.33-1,2.12,2.12,0,0,1,.92-.7,3.34,3.34,0,0,1,1.32-.25A3.89,3.89,0,0,1,479.42,406.93Z"/><path d="M568.89,404.69l-.13,1.1h-2.59V414h-1.29v-8.25h-2.66v-1.1Z"/><path d="M575.28,413a.9.9,0,0,0,.45.32l-.28.87a2,2,0,0,1-.9-.31,1.46,1.46,0,0,1-.5-.76,2.41,2.41,0,0,1-2.13,1.07,2.28,2.28,0,0,1-1.67-.6,2.08,2.08,0,0,1-.61-1.56,2,2,0,0,1,.82-1.75,3.89,3.89,0,0,1,2.33-.61h1.1v-.53a1.41,1.41,0,0,0-.37-1.08,1.64,1.64,0,0,0-1.13-.33,6.39,6.39,0,0,0-1.92.38l-.31-.91a7.23,7.23,0,0,1,2.46-.48,2.59,2.59,0,0,1,1.89.61,2.39,2.39,0,0,1,.62,1.76v3.27A1.1,1.1,0,0,0,575.28,413Zm-1.39-.86v-1.64H573c-1.32,0-2,.49-2,1.46a1.35,1.35,0,0,0,.31,1,1.25,1.25,0,0,0,.92.32A1.87,1.87,0,0,0,573.89,412.15Z"/><path d="M580.43,410.21l2.49,3.83h-1.51l-1.75-3-1.77,3h-1.42l2.5-3.77-2.21-3.38h1.46l1.5,2.62,1.5-2.62h1.41Z"/><path d="M589.24,413a.87.87,0,0,0,.44.32l-.28.87a2,2,0,0,1-.9-.31,1.52,1.52,0,0,1-.5-.76,2.41,2.41,0,0,1-2.13,1.07,2.25,2.25,0,0,1-1.66-.6,2.28,2.28,0,0,1,.2-3.31,3.91,3.91,0,0,1,2.33-.61h1.1v-.53a1.37,1.37,0,0,0-.37-1.08,1.63,1.63,0,0,0-1.12-.33,6.39,6.39,0,0,0-1.93.38l-.31-.91a7.33,7.33,0,0,1,2.47-.48,2.56,2.56,0,0,1,1.88.61,2.35,2.35,0,0,1,.63,1.76v3.27A1.1,1.1,0,0,0,589.24,413Zm-1.4-.86v-1.64h-.94c-1.32,0-2,.49-2,1.46a1.39,1.39,0,0,0,.31,1,1.26,1.26,0,0,0,.93.32A1.87,1.87,0,0,0,587.84,412.15Z"/><path d="M600.78,404v10h-1.1l-.12-1a2.55,2.55,0,0,1-.89.84,2.24,2.24,0,0,1-1.18.31,2.3,2.3,0,0,1-2-1,4.55,4.55,0,0,1-.71-2.7,5.2,5.2,0,0,1,.34-2,3,3,0,0,1,1-1.33,2.42,2.42,0,0,1,1.49-.48,2.55,2.55,0,0,1,1.93.88v-3.74Zm-2,8.93a3,3,0,0,0,.79-.79v-3.5a2.86,2.86,0,0,0-.75-.7,1.84,1.84,0,0,0-.91-.23,1.44,1.44,0,0,0-1.28.69,3.82,3.82,0,0,0-.45,2.06,4,4,0,0,0,.42,2.06,1.34,1.34,0,0,0,1.21.68A1.72,1.72,0,0,0,598.74,412.94Z"/><path d="M608.72,410.89h-4.55a2.81,2.81,0,0,0,.59,1.74,1.74,1.74,0,0,0,1.33.55A2.87,2.87,0,0,0,607,413a3.77,3.77,0,0,0,.91-.47l.54.74a3.93,3.93,0,0,1-2.49.9,2.91,2.91,0,0,1-2.33-1,4,4,0,0,1-.83-2.68,5.14,5.14,0,0,1,.36-2,3.13,3.13,0,0,1,1-1.35,2.62,2.62,0,0,1,1.58-.48,2.65,2.65,0,0,1,2.18.93,4,4,0,0,1,.76,2.59C608.75,410.46,608.74,410.67,608.72,410.89Zm-1.2-1a2.65,2.65,0,0,0-.42-1.62,1.51,1.51,0,0,0-1.27-.55c-1,0-1.57.75-1.66,2.25h3.35Z"/><path d="M618.15,406.81l-.23,1.22a2.37,2.37,0,0,0-.63-.08,1.31,1.31,0,0,0-1.07.49,3.69,3.69,0,0,0-.64,1.51V414h-1.24v-7.15h1.07l.12,1.45a2.78,2.78,0,0,1,.77-1.21,1.74,1.74,0,0,1,1.14-.4A2.66,2.66,0,0,1,618.15,406.81Z"/><path d="M624.94,410.89h-4.55a2.81,2.81,0,0,0,.59,1.74,1.73,1.73,0,0,0,1.33.55,2.91,2.91,0,0,0,1-.15,3.77,3.77,0,0,0,.91-.47l.54.74a3.93,3.93,0,0,1-2.49.9,2.91,2.91,0,0,1-2.33-1,4,4,0,0,1-.83-2.68,5.14,5.14,0,0,1,.36-2,3.06,3.06,0,0,1,1-1.35,2.62,2.62,0,0,1,1.58-.48,2.67,2.67,0,0,1,2.18.93,4,4,0,0,1,.76,2.59C625,410.46,625,410.67,624.94,410.89Zm-1.21-1a2.65,2.65,0,0,0-.42-1.62,1.48,1.48,0,0,0-1.26-.55c-1,0-1.58.75-1.66,2.25h3.34Z"/><path d="M630.73,406.91a3.33,3.33,0,0,1,1,.59l-.6.79a2.84,2.84,0,0,0-.74-.4,2.22,2.22,0,0,0-.79-.13,1.55,1.55,0,0,0-1.35.69,3.59,3.59,0,0,0-.48,2.05,3.45,3.45,0,0,0,.47,2,1.59,1.59,0,0,0,1.36.64,2.11,2.11,0,0,0,.77-.13,3.53,3.53,0,0,0,.79-.41l.57.81a3.36,3.36,0,0,1-2.18.79,2.86,2.86,0,0,1-2.29-1,4,4,0,0,1-.83-2.7,4.74,4.74,0,0,1,.38-2,3.09,3.09,0,0,1,1.07-1.33,2.88,2.88,0,0,1,1.67-.47A3.57,3.57,0,0,1,630.73,406.91Z"/><path d="M638.76,414h-1.07l-.1-1.12a2.64,2.64,0,0,1-.93,1,2.47,2.47,0,0,1-1.29.31,1.93,1.93,0,0,1-1.47-.57,2.29,2.29,0,0,1-.52-1.61v-5.13h1.24v5a1.65,1.65,0,0,0,.26,1,1,1,0,0,0,.84.3,2.11,2.11,0,0,0,1.79-1.23v-5.1h1.25Z"/><path d="M646.63,407.7a5.08,5.08,0,0,1,.63,2.76,4.57,4.57,0,0,1-.73,2.71,2.39,2.39,0,0,1-2.07,1,2.31,2.31,0,0,1-1.88-.82v3.4l-1.24.14v-10h1.07l.09,1a2.77,2.77,0,0,1,1-.83,2.42,2.42,0,0,1,1.17-.29A2.24,2.24,0,0,1,646.63,407.7Zm-.71,2.76c0-1.83-.54-2.74-1.61-2.74a1.6,1.6,0,0,0-1,.31,3.24,3.24,0,0,0-.76.8v3.48a2,2,0,0,0,.68.65,1.82,1.82,0,0,0,.9.22C645.33,413.18,645.92,412.27,645.92,410.46Z"/><path d="M654.76,410.89h-4.55a2.81,2.81,0,0,0,.59,1.74,1.74,1.74,0,0,0,1.33.55,2.91,2.91,0,0,0,1-.15,3.77,3.77,0,0,0,.91-.47l.54.74a3.93,3.93,0,0,1-2.49.9,2.91,2.91,0,0,1-2.33-1,4,4,0,0,1-.83-2.68,5.14,5.14,0,0,1,.36-2,3.13,3.13,0,0,1,1-1.35,2.95,2.95,0,0,1,3.76.45,4,4,0,0,1,.76,2.59C654.79,410.46,654.78,410.67,654.76,410.89Zm-1.2-1a2.65,2.65,0,0,0-.42-1.62,1.48,1.48,0,0,0-1.26-.55c-1,0-1.58.75-1.67,2.25h3.35Z"/><path d="M660.59,406.81l-.23,1.22a2.25,2.25,0,0,0-.62-.08,1.31,1.31,0,0,0-1.07.49A3.56,3.56,0,0,0,658,410V414h-1.25v-7.15h1.07l.13,1.45a2.69,2.69,0,0,1,.77-1.21,1.73,1.73,0,0,1,1.14-.4A2.59,2.59,0,0,1,660.59,406.81Z"/><path d="M667,413a.9.9,0,0,0,.45.32l-.29.87a2,2,0,0,1-.89-.31,1.46,1.46,0,0,1-.5-.76,2.41,2.41,0,0,1-2.13,1.07,2.28,2.28,0,0,1-1.67-.6,2.08,2.08,0,0,1-.61-1.56,2,2,0,0,1,.82-1.75,3.89,3.89,0,0,1,2.33-.61h1.09v-.53a1.41,1.41,0,0,0-.36-1.08,1.66,1.66,0,0,0-1.13-.33,6.39,6.39,0,0,0-1.92.38l-.31-.91a7.23,7.23,0,0,1,2.46-.48,2.6,2.6,0,0,1,1.89.61,2.39,2.39,0,0,1,.62,1.76v3.27A1.1,1.1,0,0,0,667,413Zm-1.4-.86v-1.64h-.93c-1.32,0-2,.49-2,1.46a1.35,1.35,0,0,0,.31,1,1.25,1.25,0,0,0,.92.32A1.85,1.85,0,0,0,665.58,412.15Z"/><path d="M672.28,414.19v.61a1.42,1.42,0,0,1,1,.37,1.1,1.1,0,0,1,.31.78,1.16,1.16,0,0,1-.48,1,2,2,0,0,1-1.21.35,2.64,2.64,0,0,1-.7-.08,1.54,1.54,0,0,1-.53-.24l.34-.71a1.71,1.71,0,0,0,.85.22.82.82,0,0,0,.5-.13.46.46,0,0,0,.18-.41.48.48,0,0,0-.28-.43,2.31,2.31,0,0,0-.93-.14l.15-1.22a2.76,2.76,0,0,1-1.88-1.14,4.23,4.23,0,0,1-.68-2.5,4.91,4.91,0,0,1,.38-2,3,3,0,0,1,1.08-1.33,2.84,2.84,0,0,1,1.66-.47,3.57,3.57,0,0,1,1.16.18,3.11,3.11,0,0,1,1,.59l-.6.79a2.79,2.79,0,0,0-.73-.4,2.28,2.28,0,0,0-.8-.13,1.55,1.55,0,0,0-1.35.69,3.59,3.59,0,0,0-.48,2.05,3.37,3.37,0,0,0,.48,2,1.57,1.57,0,0,0,1.35.64,2.2,2.2,0,0,0,.78-.13,3.71,3.71,0,0,0,.78-.41l.57.81A3.43,3.43,0,0,1,672.28,414.19Z"/><path d="M680.84,413a.9.9,0,0,0,.45.32l-.29.87a2,2,0,0,1-.89-.31,1.46,1.46,0,0,1-.5-.76,2.41,2.41,0,0,1-2.13,1.07,2.28,2.28,0,0,1-1.67-.6,2.08,2.08,0,0,1-.61-1.56,2,2,0,0,1,.82-1.75,3.89,3.89,0,0,1,2.33-.61h1.09v-.53a1.41,1.41,0,0,0-.36-1.08,1.66,1.66,0,0,0-1.13-.33,6.39,6.39,0,0,0-1.92.38l-.31-.91a7.23,7.23,0,0,1,2.46-.48,2.6,2.6,0,0,1,1.89.61,2.39,2.39,0,0,1,.62,1.76v3.27A1.1,1.1,0,0,0,680.84,413Zm-2.39-8a3.6,3.6,0,0,1-.47-.28,1.78,1.78,0,0,0-.35-.21.59.59,0,0,0-.29-.07.55.55,0,0,0-.38.15,2,2,0,0,0-.34.47l-.76-.38a2.63,2.63,0,0,1,.63-.86,1.26,1.26,0,0,1,.85-.33,1.07,1.07,0,0,1,.49.1,3.55,3.55,0,0,1,.46.28l.17.11.24.12a.52.52,0,0,0,.21,0,.57.57,0,0,0,.37-.14,1.88,1.88,0,0,0,.35-.46l.76.38a2.28,2.28,0,0,1-.63.87,1.36,1.36,0,0,1-.85.3A1.14,1.14,0,0,1,678.45,405.05Zm1,7.1v-1.64h-.93c-1.32,0-2,.49-2,1.46a1.35,1.35,0,0,0,.31,1,1.25,1.25,0,0,0,.92.32A1.85,1.85,0,0,0,679.44,412.15Z"/><path d="M688.28,407.73a4.18,4.18,0,0,1,.83,2.73,4.66,4.66,0,0,1-.38,2,3,3,0,0,1-1.09,1.31,3.11,3.11,0,0,1-1.71.47,2.92,2.92,0,0,1-2.35-1,4.12,4.12,0,0,1-.84-2.73,4.83,4.83,0,0,1,.38-2,3,3,0,0,1,1.1-1.32,3.09,3.09,0,0,1,1.72-.46A2.88,2.88,0,0,1,688.28,407.73Zm-4.2,2.74c0,1.82.62,2.73,1.85,2.73s1.84-.92,1.84-2.74-.61-2.73-1.83-2.73S684.08,408.64,684.08,410.47Z"/><path d="M699.18,405.77a4.1,4.1,0,0,1,.74,2.58,7.53,7.53,0,0,1-.5,3,4.16,4.16,0,0,1-1.53,1.81,10.82,10.82,0,0,1-2.8,1.19l-.28-.94a6.87,6.87,0,0,0,2.79-1.4,3.23,3.23,0,0,0,1-2.34,2.42,2.42,0,0,1-.84.78,2.48,2.48,0,0,1-2.47-.06,2.49,2.49,0,0,1-.9-1,3.35,3.35,0,0,1-.33-1.53,3.2,3.2,0,0,1,.39-1.61,2.73,2.73,0,0,1,1-1,3,3,0,0,1,1.46-.36A2.63,2.63,0,0,1,699.18,405.77Zm-.52,2.87a4.22,4.22,0,0,0-.37-2.16,1.38,1.38,0,0,0-1.27-.66,1.46,1.46,0,0,0-1.23.53,2.24,2.24,0,0,0-.44,1.5,2.16,2.16,0,0,0,.41,1.43,1.35,1.35,0,0,0,1.1.48A2.12,2.12,0,0,0,698.66,408.64Z"/><path d="M706,408.39a2.4,2.4,0,0,1,.91,1,3.46,3.46,0,0,1,.34,1.59,3.58,3.58,0,0,1-.39,1.7,2.9,2.9,0,0,1-1,1.14,2.68,2.68,0,0,1-1.45.4,2.54,2.54,0,0,1-2.32-1.17,6.14,6.14,0,0,1-.73-3.25,7.39,7.39,0,0,1,.41-2.6,3.83,3.83,0,0,1,1.19-1.73,2.78,2.78,0,0,1,1.83-.62,3.33,3.33,0,0,1,1.87.55l-.49.83a2.64,2.64,0,0,0-1.4-.39,1.73,1.73,0,0,0-1.54.93,5.2,5.2,0,0,0-.63,2.51,2.62,2.62,0,0,1,3.45-.87Zm-.44,4.22A2.74,2.74,0,0,0,706,411c0-1.29-.48-1.94-1.46-1.94a2,2,0,0,0-1.1.33,2.8,2.8,0,0,0-.85.92,4.58,4.58,0,0,0,.46,2.19,1.46,1.46,0,0,0,1.33.71A1.38,1.38,0,0,0,705.6,412.61Z"/></g><g id="preto" data-name="preto"><path d="M707.16,340.46H81.43v-1H707.16Zm0-39.61H81.43v-1H707.16Zm0-39.62H81.43v-1H707.16Zm0-39.61H81.43v-1H707.16Zm0-39.61H81.43v-1H707.16Zm0-39.62H81.43v-1H707.16Zm0-39.61H81.43v-1H707.16Zm0-39.61H81.43v-1H707.16Z" style="fill:#1d1d1b"/><rect x="81.46" y="339.46" width="625.89" height="1" style="fill:#1d1d1b"/></g></g></svg>