<svg xmlns="http://www.w3.org/2000/svg" viewBox="0 0 730 360.67"><title>fig-9-9</title><g id="fig-9-9"><g id="preto"><rect x="410.76" y="74.82" width="71.59" height="0.5" style="fill:#020200"/><polygon points="478.97 72.64 485.34 75.07 478.97 77.5 480.18 75.07 478.97 72.64 478.97 72.64" style="fill-rule:evenodd"/><rect x="90.54" y="75.15" width="92.88" height="0.36" style="fill:#575756"/><polygon points="176.87 72.9 183.24 75.33 176.87 77.76 178.09 75.33 176.87 72.9 176.87 72.9" style="fill:#575756;fill-rule:evenodd"/><path d="M175.85,78.68l1.68-3.35L175.85,72l8.79,3.35Zm2-4.85.75,1.5-.75,1.5,4-1.5Z" style="fill:#575756"/><polyline points="176.87 72.9 183.24 75.33 176.87 77.76 178.09 75.33 176.87 72.9"/><path d="M58.71,127.54H57.09l-3.56-7.46c0,.59.09,1.13.12,1.63s0,1.1,0,1.8v4H52.56v-8.78h1.58l3.6,7.47c0-.22-.06-.61-.1-1.16s-.06-1.06-.06-1.52v-4.79h1.13Z"/><path d="M66.57,127.54v-4.12h-3.7v4.12H61.66v-8.78h1.21v3.67h3.7v-3.67h1.21v8.78Z"/><path d="M36.43,130.07a4.33,4.33,0,0,1,1.1.66l-.66.78a2.71,2.71,0,0,0-1.7-.65,2.13,2.13,0,0,0-1.76.84,4.32,4.32,0,0,0-.67,2.7,4.42,4.42,0,0,0,.66,2.68,2.12,2.12,0,0,0,1.76.86,2.32,2.32,0,0,0,1-.2,4.52,4.52,0,0,0,.89-.53l.6.76a3.13,3.13,0,0,1-1.05.71,3.69,3.69,0,0,1-1.46.28,3.48,3.48,0,0,1-1.9-.53,3.42,3.42,0,0,1-1.3-1.56,6.63,6.63,0,0,1,0-4.93,3.56,3.56,0,0,1,1.32-1.55,3.34,3.34,0,0,1,1.84-.52A3.78,3.78,0,0,1,36.43,130.07Z"/><path d="M12.53,118.53a3.42,3.42,0,0,1,1.3,1.54,6,6,0,0,1,.47,2.48,5.88,5.88,0,0,1-.47,2.45,3.41,3.41,0,0,1-3.24,2.09,3.55,3.55,0,0,1-1.94-.53A3.37,3.37,0,0,1,7.35,125a6.65,6.65,0,0,1,0-4.91,3.56,3.56,0,0,1,1.3-1.57,3.52,3.52,0,0,1,1.94-.54A3.46,3.46,0,0,1,12.53,118.53Zm-3.72,1.33a4.55,4.55,0,0,0-.64,2.7,4.46,4.46,0,0,0,.64,2.68,2.1,2.1,0,0,0,1.78.85c1.61,0,2.42-1.18,2.42-3.54S12.2,119,10.59,119A2.08,2.08,0,0,0,8.81,119.86Z"/><path d="M36,156.75a4.17,4.17,0,0,1,1.1.66l-.66.78a2.68,2.68,0,0,0-1.69-.65,2.16,2.16,0,0,0-1.77.84,4.32,4.32,0,0,0-.67,2.7,4.42,4.42,0,0,0,.66,2.68,2.13,2.13,0,0,0,1.76.86,2.28,2.28,0,0,0,1-.2,4.88,4.88,0,0,0,.9-.53l.59.76a3.19,3.19,0,0,1-1,.71,3.74,3.74,0,0,1-1.47.28,3.36,3.36,0,0,1-3.2-2.09,5.92,5.92,0,0,1-.46-2.47,5.77,5.77,0,0,1,.48-2.46,3.54,3.54,0,0,1,1.31-1.55,3.38,3.38,0,0,1,1.85-.52A3.73,3.73,0,0,1,36,156.75Z"/><path d="M43.81,165.48v-4.11h-3.7v4.11H38.9V156.7h1.21v3.67h3.7V156.7H45v8.78Z"/><path d="M50,162.56a1.64,1.64,0,0,1,.68.62A1.58,1.58,0,0,1,51,164a1.44,1.44,0,0,1-.36,1,1.75,1.75,0,0,1-.94.53,1.83,1.83,0,0,1,1.09.48,1.58,1.58,0,0,1,.42,1.15,2.09,2.09,0,0,1-.28,1.05,2,2,0,0,1-.8.73,2.59,2.59,0,0,1-1.2.27,2.78,2.78,0,0,1-1.13-.22,2.52,2.52,0,0,1-.89-.68l.55-.51a2.52,2.52,0,0,0,.68.5,1.73,1.73,0,0,0,.76.16,1.34,1.34,0,0,0,1-.36,1.26,1.26,0,0,0,.36-.95,1.14,1.14,0,0,0-.34-.93,1.52,1.52,0,0,0-1-.28h-.5l.1-.71h.34a1.24,1.24,0,0,0,.87-.31,1.09,1.09,0,0,0,.35-.87,1,1,0,0,0-.3-.74,1.13,1.13,0,0,0-.81-.28,1.85,1.85,0,0,0-.72.14,2.37,2.37,0,0,0-.67.46l-.48-.55a2.74,2.74,0,0,1,1.91-.79A2.35,2.35,0,0,1,50,162.56Z"/><rect x="54.45" y="91.46" width="25.82" height="0.53" transform="translate(-37.09 46.55) rotate(-30.32)" style="fill:#575756"/><rect x="78.01" y="59.89" width="0.54" height="25.73" style="fill:#575756"/><rect x="73.77" y="62.01" width="0.54" height="21.48" style="fill:#575756"/><rect x="45.25" y="79.04" width="0.53" height="25.67" transform="translate(-56.84 85.94) rotate(-60.32)" style="fill:#575756"/><rect x="47.37" y="77.35" width="0.53" height="21.46" transform="translate(-52.48 86.07) rotate(-60.44)" style="fill:#575756"/><rect x="67.09" y="41.1" width="0.53" height="25.67" transform="translate(-12.85 85.76) rotate(-60.33)" style="fill:#575756"/><rect x="34.33" y="60.19" width="0.54" height="25.73" style="fill:#575756"/><rect x="32.61" y="53.82" width="25.82" height="0.53" transform="translate(-21.08 30.37) rotate(-30.32)" style="fill:#575756"/><rect x="36.91" y="57.46" width="21.46" height="0.53" transform="translate(-22.28 31.02) rotate(-29.56)" style="fill:#575756"/><rect x="46.76" y="107.09" width="19.05" height="0.53" transform="translate(-51.98 161.87) rotate(-89.06)" style="fill:#575756"/><polygon points="40.27 133.07 39.99 132.61 50.16 126.57 50.43 127.03 40.27 133.07" style="fill:#575756"/><polygon points="28.93 130.33 28.7 130.2 18.76 124.61 19.02 124.14 19.26 124.27 29.2 129.87 28.93 130.33" style="fill:#575756"/><polygon points="28.93 135.19 28.7 135.06 18.76 129.46 19.02 129 19.26 129.13 29.2 134.72 28.93 135.19" style="fill:#575756"/><rect x="34.63" y="142.15" width="0.54" height="12.68" style="fill:#575756"/><path d="M238.31,127.54h-1.62l-3.57-7.46c0,.59.09,1.13.12,1.63s0,1.1,0,1.8v4h-1.14v-8.78h1.58l3.61,7.47c0-.22-.06-.61-.1-1.16s-.07-1.06-.07-1.52v-4.79h1.14Z"/><path d="M246.15,127.54v-4.12h-3.69v4.12h-1.21v-8.78h1.21v3.67h3.69v-3.67h1.21v8.78Z"/><path d="M214.71,133.37a4.17,4.17,0,0,1,1.1.66l-.66.78a2.69,2.69,0,0,0-1.7-.65,2.14,2.14,0,0,0-1.76.84,4.33,4.33,0,0,0-.67,2.71,4.41,4.41,0,0,0,.66,2.67,2.12,2.12,0,0,0,1.76.86,2.48,2.48,0,0,0,1-.19,5.16,5.16,0,0,0,.89-.54l.6.77a3.33,3.33,0,0,1-1,.7,3.78,3.78,0,0,1-1.47.28,3.48,3.48,0,0,1-1.9-.53,3.43,3.43,0,0,1-1.3-1.56,5.9,5.9,0,0,1-.47-2.46,5.64,5.64,0,0,1,.49-2.47,3.54,3.54,0,0,1,1.31-1.55,3.38,3.38,0,0,1,1.85-.52A3.73,3.73,0,0,1,214.71,133.37Z"/><path d="M193.24,121.26a3.51,3.51,0,0,1,1.3,1.55,6,6,0,0,1,.47,2.48,5.83,5.83,0,0,1-.47,2.44,3.65,3.65,0,0,1-5.18,1.57,3.42,3.42,0,0,1-1.3-1.54,6.65,6.65,0,0,1,0-4.91,3.51,3.51,0,0,1,1.3-1.57,3.44,3.44,0,0,1,1.94-.55A3.55,3.55,0,0,1,193.24,121.26Zm-3.72,1.34a4.51,4.51,0,0,0-.64,2.7,4.43,4.43,0,0,0,.64,2.67,2.08,2.08,0,0,0,1.78.86c1.61,0,2.42-1.18,2.42-3.54s-.81-3.56-2.42-3.56A2.08,2.08,0,0,0,189.52,122.6Z"/><path d="M215,158.56a4.21,4.21,0,0,1,1.11.66l-.67.78a2.66,2.66,0,0,0-1.69-.65,2.16,2.16,0,0,0-1.77.84,5.81,5.81,0,0,0,0,5.38,2.12,2.12,0,0,0,1.76.86,2.32,2.32,0,0,0,1-.2,4.52,4.52,0,0,0,.89-.53l.6.76a3.13,3.13,0,0,1-1.05.71,3.69,3.69,0,0,1-1.46.28,3.37,3.37,0,0,1-3.21-2.09,5.92,5.92,0,0,1-.46-2.47,5.77,5.77,0,0,1,.48-2.46,3.61,3.61,0,0,1,1.31-1.55,3.4,3.4,0,0,1,1.85-.52A3.69,3.69,0,0,1,215,158.56Z"/><path d="M224.61,167.29v-4.11h-3.69v4.11h-1.21v-8.78h1.21v3.67h3.69v-3.67h1.21v8.78Z"/><path d="M230.86,164.37a1.61,1.61,0,0,1,.91,1.47,1.48,1.48,0,0,1-.35,1,1.82,1.82,0,0,1-.95.53,1.75,1.75,0,0,1,1.09.49A1.54,1.54,0,0,1,232,169a2,2,0,0,1-1.08,1.79,2.93,2.93,0,0,1-2.32,0,2.44,2.44,0,0,1-.89-.68l.55-.51a2.29,2.29,0,0,0,.67.5,1.73,1.73,0,0,0,.76.16,1.37,1.37,0,0,0,1-.35,1.3,1.3,0,0,0,.36-1,1.11,1.11,0,0,0-.34-.93,1.52,1.52,0,0,0-1-.27h-.5l.11-.72h.34a1.25,1.25,0,0,0,.87-.31,1.12,1.12,0,0,0,.34-.87,1,1,0,0,0-.3-.74,1.13,1.13,0,0,0-.81-.28,1.89,1.89,0,0,0-.72.14,2.56,2.56,0,0,0-.66.46l-.48-.55a2.7,2.7,0,0,1,1.91-.79A2.38,2.38,0,0,1,230.86,164.37Z"/><path d="M236.42,20.2a4.11,4.11,0,0,1,1.21.77l-.66.74a3.76,3.76,0,0,0-1-.58,2.84,2.84,0,0,0-1-.18,1.87,1.87,0,0,0-1.14.32,1.08,1.08,0,0,0-.44.93,1.26,1.26,0,0,0,.15.64,1.41,1.41,0,0,0,.57.48,8.05,8.05,0,0,0,1.2.46,8.29,8.29,0,0,1,1.38.54,2.45,2.45,0,0,1,.88.81,2.32,2.32,0,0,1,.34,1.31,2.44,2.44,0,0,1-.37,1.35,2.54,2.54,0,0,1-1.09.92,3.92,3.92,0,0,1-1.67.33,4.09,4.09,0,0,1-3-1.13l.66-.74a4.14,4.14,0,0,0,1.08.65,3.19,3.19,0,0,0,1.22.23,2.26,2.26,0,0,0,1.36-.4,1.39,1.39,0,0,0,.53-1.17,1.33,1.33,0,0,0-.17-.72,1.5,1.5,0,0,0-.56-.52,6.6,6.6,0,0,0-1.17-.46,4.93,4.93,0,0,1-2-1,2,2,0,0,1-.63-1.55,2.11,2.11,0,0,1,.35-1.19,2.31,2.31,0,0,1,1-.81,3.31,3.31,0,0,1,1.44-.3A4.16,4.16,0,0,1,236.42,20.2Z"/><path d="M258.47,7.73a3.5,3.5,0,0,1,1.29,1.55,5.91,5.91,0,0,1,.47,2.47,5.88,5.88,0,0,1-.47,2.45,3.38,3.38,0,0,1-3.24,2.09,3.65,3.65,0,0,1-1.94-.52,3.45,3.45,0,0,1-1.3-1.55,5.9,5.9,0,0,1-.47-2.46,6,6,0,0,1,.47-2.45,3.41,3.41,0,0,1,3.24-2.11A3.6,3.6,0,0,1,258.47,7.73Zm-3.73,1.33a4.55,4.55,0,0,0-.64,2.7,4.54,4.54,0,0,0,.64,2.68,2.11,2.11,0,0,0,1.78.85c1.62,0,2.42-1.18,2.42-3.54s-.8-3.56-2.42-3.56A2.08,2.08,0,0,0,254.74,9.06Z"/><path d="M214.77,7.73a3.45,3.45,0,0,1,1.3,1.55,5.91,5.91,0,0,1,.47,2.47,5.88,5.88,0,0,1-.47,2.45,3.41,3.41,0,0,1-3.24,2.09,3.63,3.63,0,0,1-1.94-.52,3.39,3.39,0,0,1-1.3-1.55,5.9,5.9,0,0,1-.47-2.46,6,6,0,0,1,.47-2.45,3.39,3.39,0,0,1,3.24-2.11A3.55,3.55,0,0,1,214.77,7.73ZM211,9.06a4.64,4.64,0,0,0-.63,2.7,4.46,4.46,0,0,0,.64,2.68,2.1,2.1,0,0,0,1.78.85c1.61,0,2.42-1.18,2.42-3.54s-.81-3.56-2.42-3.56A2.09,2.09,0,0,0,211,9.06Z"/><path d="M279.93,19.84a3.69,3.69,0,0,1,1.1.66l-.66.78a2.63,2.63,0,0,0-1.7-.65,2.14,2.14,0,0,0-1.76.84,4.32,4.32,0,0,0-.67,2.7,4.37,4.37,0,0,0,.66,2.67,2.11,2.11,0,0,0,1.76.86,2.29,2.29,0,0,0,1-.19,5.51,5.51,0,0,0,.9-.53l.59.76a3.17,3.17,0,0,1-1,.7,3.57,3.57,0,0,1-1.47.28,3.38,3.38,0,0,1-3.2-2.08,6,6,0,0,1-.47-2.47,5.74,5.74,0,0,1,.49-2.46,3.49,3.49,0,0,1,1.31-1.55,3.39,3.39,0,0,1,1.85-.53A3.67,3.67,0,0,1,279.93,19.84Z"/><path d="M282.82,28.33a1.5,1.5,0,0,1-.37-1.09V19.15l1.17-.14v8.21a.73.73,0,0,0,.09.41.42.42,0,0,0,.33.12,1.18,1.18,0,0,0,.43-.07l.31.81a1.83,1.83,0,0,1-.93.23A1.36,1.36,0,0,1,282.82,28.33Z"/><rect x="233.43" y="93.28" width="25.82" height="0.53" transform="translate(-13.53 137.14) rotate(-30.32)" style="fill:#575756"/><rect x="256.99" y="61.71" width="0.54" height="25.73" style="fill:#575756"/><rect x="252.74" y="63.83" width="0.54" height="21.48" style="fill:#575756"/><rect x="224.23" y="80.86" width="0.53" height="25.67" transform="translate(31.94 242.36) rotate(-60.32)" style="fill:#575756"/><rect x="226.35" y="79.17" width="0.53" height="21.46" transform="translate(36.64 242.69) rotate(-60.45)" style="fill:#575756"/><rect x="246.07" y="42.92" width="0.53" height="25.67" transform="translate(75.93 242.17) rotate(-60.32)" style="fill:#575756"/><rect x="213.31" y="62.01" width="0.54" height="25.73" style="fill:#575756"/><rect x="211.59" y="55.64" width="25.82" height="0.53" transform="translate(2.48 120.97) rotate(-30.32)" style="fill:#575756"/><rect x="215.89" y="59.28" width="21.46" height="0.53" transform="translate(0.12 119.56) rotate(-29.56)" style="fill:#575756"/><rect x="235.3" y="99.65" width="0.54" height="17.23" transform="matrix(1, -0.02, 0.02, 1, -1.92, 4.29)" style="fill:#575756"/><rect x="218" y="130.46" width="12.99" height="0.53" transform="translate(-34.68 148.46) rotate(-34.13)" style="fill:#575756"/><polygon points="207.91 132.16 207.68 132.02 197.74 126.43 198 125.96 198.24 126.09 208.18 131.69 207.91 132.16" style="fill:#575756"/><polygon points="207.91 137.01 207.68 136.88 197.74 131.28 198 130.82 198.24 130.95 208.18 136.55 207.91 137.01" style="fill:#575756"/><rect x="213.61" y="143.97" width="0.54" height="12.68" style="fill:#575756"/><rect x="226.04" y="40" width="19.05" height="0.53" transform="translate(191.43 275.15) rotate(-89.06)" style="fill:#575756"/><rect x="240.12" y="17.85" width="11.82" height="0.53" transform="translate(25.4 128.47) rotate(-30.78)" style="fill:#575756"/><polygon points="230.36 19.24 230.13 19.11 219.28 12.9 219.54 12.44 219.78 12.57 230.63 18.77 230.36 19.24" style="fill:#575756"/><polygon points="230.36 24.09 230.13 23.96 219.28 17.76 219.54 17.29 219.78 17.43 230.63 23.63 230.36 24.09" style="fill:#575756"/><polygon points="273.14 21.06 272.9 20.93 262.96 15.33 263.22 14.86 263.46 15 273.4 20.59 273.14 21.06" style="fill:#575756"/><path d="M299.36,71.85v1.91h1.86v1h-1.86v1.9h-1.07v-1.9h-1.85v-1h1.85V71.85Z"/><path d="M369.65,108.4H368l-3.57-7.46c0,.58.09,1.13.12,1.62s.05,1.1.05,1.81v4H363.5V99.61h1.58l3.61,7.47c0-.22-.06-.61-.1-1.16s-.07-1-.07-1.51v-4.8h1.13Z"/><path d="M348.11,70.77H346.5l-3.57-7.46c.05.59.09,1.13.12,1.63s0,1.1,0,1.8v4H342V62h1.58l3.6,7.47c0-.22-.05-.61-.1-1.16s-.06-1.06-.06-1.52V62h1.13Z"/><path d="M326,108.4h-1.61l-3.57-7.46c0,.58.09,1.13.12,1.62s0,1.1,0,1.81v4h-1.13V99.61h1.58l3.61,7.47c0-.22-.06-.61-.11-1.16s-.06-1-.06-1.51v-4.8H326Z"/><path d="M310.16,108.4v-4.12h-3.69v4.12h-1.21V99.61h1.21v3.67h3.69V99.61h1.21v8.79Z"/><path d="M316.43,105.49a1.78,1.78,0,0,1,.7.66,1.76,1.76,0,0,1,.25.94,2.67,2.67,0,0,1-.27,1.17,6,6,0,0,1-.85,1.21c-.38.44-1,1-1.73,1.82h3l-.11.77h-3.95v-.74c.89-.92,1.53-1.6,1.9-2a5.87,5.87,0,0,0,.8-1.13,2.29,2.29,0,0,0,.24-1,1.1,1.1,0,0,0-.3-.82,1.12,1.12,0,0,0-.8-.29,1.42,1.42,0,0,0-.72.17,2.46,2.46,0,0,0-.66.56l-.6-.48a2.68,2.68,0,0,1,.91-.76,2.43,2.43,0,0,1,1.12-.26A2.27,2.27,0,0,1,316.43,105.49Z"/><rect x="371.09" y="96.01" width="19.28" height="0.53" transform="translate(1.23 197.28) rotate(-29.1)" style="fill:#575756"/><rect x="388.65" y="66.26" width="0.54" height="25.73" style="fill:#575756"/><rect x="384.4" y="68.39" width="0.54" height="21.48" style="fill:#575756"/><rect x="352.85" y="86.67" width="0.53" height="18.9" transform="translate(89.66 350.14) rotate(-59.18)" style="fill:#575756"/><polygon points="364.13 97.86 363.9 97.72 348.81 88.78 349.08 88.32 349.31 88.46 364.41 97.4 364.13 97.86" style="fill:#575756"/><polygon points="389.01 66.89 388.78 66.76 367.01 53.87 367.28 53.41 367.51 53.55 389.28 66.44 389.01 66.89" style="fill:#575756"/><rect x="344.96" y="72.63" width="0.54" height="19.05" style="fill:#575756"/><rect x="349.55" y="58.07" width="19.28" height="0.53" transform="translate(16.96 182.02) rotate(-29.1)" style="fill:#575756"/><rect x="349.83" y="62.92" width="19.01" height="0.53" transform="translate(15.6 185.52) rotate(-29.56)" style="fill:#575756"/><polygon points="328.75 101.19 328.49 100.73 328.72 100.6 345.33 91.05 345.6 91.52 345.37 91.65 328.75 101.19" style="fill:#575756"/><path d="M535.9,85.63h-1.62l-3.57-7.46c0,.59.09,1.13.12,1.63s0,1.1,0,1.8v4h-1.14V76.85h1.58l3.61,7.47c0-.22-.06-.61-.1-1.16s-.07-1.06-.07-1.52V76.85h1.14Z"/><path d="M543.76,85.63V81.51h-3.7v4.12h-1.21V76.85h1.21v3.67h3.7V76.85H545v8.78Z"/><path d="M524.78,54.46a3.69,3.69,0,0,1,1.1.66l-.66.78a2.63,2.63,0,0,0-1.7-.65,2.13,2.13,0,0,0-1.76.84,4.32,4.32,0,0,0-.67,2.7,4.37,4.37,0,0,0,.66,2.67,2.09,2.09,0,0,0,1.76.86,2.32,2.32,0,0,0,1-.19,5.77,5.77,0,0,0,.89-.53l.6.76a3.17,3.17,0,0,1-1,.7,3.6,3.6,0,0,1-1.47.28,3.4,3.4,0,0,1-1.9-.53,3.45,3.45,0,0,1-1.3-1.55,6,6,0,0,1-.47-2.47,5.67,5.67,0,0,1,.49-2.47,3.51,3.51,0,0,1,1.31-1.54,3.39,3.39,0,0,1,1.85-.53A3.71,3.71,0,0,1,524.78,54.46Z"/><path d="M533.24,31.07a4.15,4.15,0,0,1,1.11.67l-.67.78a2.61,2.61,0,0,0-1.69-.65,2.13,2.13,0,0,0-1.77.84,4.39,4.39,0,0,0-.66,2.7,4.37,4.37,0,0,0,.66,2.67,2.12,2.12,0,0,0,1.76.86,2.32,2.32,0,0,0,1-.19,5.57,5.57,0,0,0,.89-.54l.6.77a3.27,3.27,0,0,1-1.05.7,3.49,3.49,0,0,1-4.67-1.8,6,6,0,0,1-.46-2.47,5.82,5.82,0,0,1,.48-2.47,3.67,3.67,0,0,1,1.31-1.55,3.49,3.49,0,0,1,1.85-.52A3.92,3.92,0,0,1,533.24,31.07Z"/><path d="M540.48,39.81V35.69h-3.69v4.12h-1.21V31h1.21V34.7h3.69V31h1.21v8.79Z"/><path d="M546.72,36.88a1.78,1.78,0,0,1,.68.62,1.73,1.73,0,0,1,.23.86,1.47,1.47,0,0,1-.35,1,1.83,1.83,0,0,1-.95.54,1.69,1.69,0,0,1,1.09.48,1.54,1.54,0,0,1,.42,1.14,2,2,0,0,1-.28,1,1.91,1.91,0,0,1-.8.74,2.58,2.58,0,0,1-1.2.26,2.73,2.73,0,0,1-1.12-.22,2.44,2.44,0,0,1-.89-.68l.55-.51a2.13,2.13,0,0,0,.67.5,1.76,1.76,0,0,0,.76.16,1.33,1.33,0,0,0,1-.35,1.3,1.3,0,0,0,.36-1,1.11,1.11,0,0,0-.34-.93,1.58,1.58,0,0,0-1-.27h-.5l.11-.71h.34a1.24,1.24,0,0,0,.86-.31,1.09,1.09,0,0,0,.35-.87,1,1,0,0,0-.3-.75,1.17,1.17,0,0,0-.81-.28,1.72,1.72,0,0,0-.72.15,2.14,2.14,0,0,0-.66.46l-.48-.55a2.72,2.72,0,0,1,1.91-.8A2.38,2.38,0,0,1,546.72,36.88Z"/><path d="M496.9,55.38a3.42,3.42,0,0,1,1.3,1.54,6.7,6.7,0,0,1,0,4.93,3.51,3.51,0,0,1-1.3,1.55,3.47,3.47,0,0,1-1.94.54,3.55,3.55,0,0,1-1.94-.53,3.42,3.42,0,0,1-1.3-1.54,6.65,6.65,0,0,1,0-4.91A3.39,3.39,0,0,1,495,54.85,3.46,3.46,0,0,1,496.9,55.38Zm-3.72,1.33a4.55,4.55,0,0,0-.64,2.7,4.54,4.54,0,0,0,.64,2.68,2.11,2.11,0,0,0,1.78.85c1.62,0,2.42-1.18,2.42-3.54s-.8-3.56-2.42-3.56A2.08,2.08,0,0,0,493.18,56.71Z"/><path d="M634.73,76.65a4,4,0,0,1,1.21.77l-.67.74a3.71,3.71,0,0,0-1-.58,2.9,2.9,0,0,0-1-.19,1.91,1.91,0,0,0-1.13.32,1.09,1.09,0,0,0-.45.93,1.21,1.21,0,0,0,.16.65,1.45,1.45,0,0,0,.56.48,8,8,0,0,0,1.21.45,8.09,8.09,0,0,1,1.37.55,2.48,2.48,0,0,1,.89.81,2.4,2.4,0,0,1,.34,1.31,2.45,2.45,0,0,1-.38,1.35,2.51,2.51,0,0,1-1.08.92,3.93,3.93,0,0,1-1.68.33,4.11,4.11,0,0,1-3-1.13l.66-.74a4,4,0,0,0,1.09.65,3.16,3.16,0,0,0,1.22.23,2.19,2.19,0,0,0,1.35-.41,1.34,1.34,0,0,0,.54-1.16,1.42,1.42,0,0,0-.17-.72,1.46,1.46,0,0,0-.57-.52,5.54,5.54,0,0,0-1.16-.46,5.2,5.2,0,0,1-2-1,2.23,2.23,0,0,1-.27-2.74,2.34,2.34,0,0,1,1-.82,3.45,3.45,0,0,1,1.43-.29A4,4,0,0,1,634.73,76.65Z"/><path d="M648,98.79a3.52,3.52,0,0,1,1.3,1.55,6.81,6.81,0,0,1,0,4.92,3.41,3.41,0,0,1-3.24,2.09,3.6,3.6,0,0,1-1.95-.52,3.54,3.54,0,0,1-1.3-1.54,6.78,6.78,0,0,1,0-4.91,3.56,3.56,0,0,1,1.31-1.58,3.52,3.52,0,0,1,1.94-.54A3.59,3.59,0,0,1,648,98.79Zm-3.73,1.33a4.63,4.63,0,0,0-.64,2.7,4.46,4.46,0,0,0,.65,2.68,2.11,2.11,0,0,0,1.78.86c1.61,0,2.42-1.19,2.42-3.55s-.81-3.56-2.42-3.56A2.09,2.09,0,0,0,644.24,100.12Z"/><path d="M648,55.08a3.57,3.57,0,0,1,1.3,1.55,5.92,5.92,0,0,1,.46,2.47,5.86,5.86,0,0,1-.46,2.45,3.66,3.66,0,0,1-5.19,1.57,3.49,3.49,0,0,1-1.3-1.54,6.78,6.78,0,0,1,0-4.91,3.61,3.61,0,0,1,1.31-1.58,3.52,3.52,0,0,1,1.94-.54A3.59,3.59,0,0,1,648,55.08Zm-3.73,1.33a4.64,4.64,0,0,0-.64,2.71,4.5,4.5,0,0,0,.65,2.68,2.12,2.12,0,0,0,1.78.85c1.61,0,2.42-1.18,2.42-3.55s-.81-3.55-2.42-3.55A2.11,2.11,0,0,0,644.24,56.41Z"/><path d="M674.53,63.49h-1.62L669.34,56c0,.59.09,1.13.12,1.63s0,1.1,0,1.8v4h-1.14V54.71H670l3.61,7.47c0-.22-.06-.61-.1-1.16s-.07-1.06-.07-1.52V54.71h1.14Z"/><path d="M682.39,63.49V59.37h-3.7v4.12h-1.21V54.71h1.21v3.67h3.7V54.71h1.21v8.78Z"/><path d="M712.15,85.34h-1.62L707,77.88c0,.58.1,1.13.13,1.62s0,1.1,0,1.81v4H706V76.55h1.58l3.6,7.47c0-.22-.06-.6-.1-1.16s-.06-1-.06-1.51v-4.8h1.13Z"/><path d="M674.53,107.2h-1.62l-3.57-7.46c0,.58.09,1.13.12,1.62s0,1.1,0,1.81v4h-1.14V98.41H670l3.61,7.47c0-.22-.06-.6-.1-1.16s-.07-1-.07-1.51v-4.8h1.14Z"/><polygon points="596.63 103.08 596.19 102.83 608.63 80.97 609.06 81.22 596.63 103.08" style="fill:#020200"/><rect x="602.23" y="57.52" width="0.5" height="25.3" transform="translate(46.64 312.96) rotate(-30.24)" style="fill:#020200"/><rect x="598.59" y="61.83" width="0.5" height="20.93" transform="translate(42.11 304.44) rotate(-29.52)" style="fill:#020200"/><rect x="571.23" y="102.7" width="25.18" height="0.5" style="fill:#020200"/><rect x="573.35" y="98.45" width="20.93" height="0.5" style="fill:#020200"/><rect x="570.66" y="58.98" width="25.71" height="0.54" style="fill:#575756"/><rect x="564.61" y="79.38" width="0.5" height="25.3" transform="translate(30.52 297.01) rotate(-30.24)" style="fill:#020200"/><polygon points="558.71 81.22 558.27 80.97 570.71 59.12 571.14 59.37 558.71 81.22" style="fill:#020200"/><rect x="558.04" y="72.05" width="20.93" height="0.5" transform="translate(225.9 531.69) rotate(-60.53)" style="fill:#020200"/><rect x="547.87" y="80.85" width="10.62" height="0.5" style="fill:#020200"/><polygon points="529.46 74.85 524.3 66.05 524.73 65.8 529.89 74.6 529.46 74.85" style="fill:#020200"/><polygon points="523.83 50.86 523.39 50.62 528.25 41.82 528.69 42.06 523.83 50.86" style="fill:#020200"/><rect x="501.76" y="56.87" width="13.05" height="0.5" style="fill:#020200"/><rect x="501.76" y="61.12" width="13.05" height="0.5" style="fill:#020200"/><rect x="608.85" y="80.85" width="19.72" height="0.5" style="fill:#020200"/><rect x="637.55" y="86.51" width="0.53" height="10.74" transform="translate(41.04 335) rotate(-30.36)" style="fill:#575756"/><polygon points="645.15 96.64 645.02 96.41 639.12 86.16 639.58 85.89 639.72 86.13 645.61 96.37 645.15 96.64" style="fill:#575756"/><polygon points="638.07 74.78 637.61 74.53 642.72 65.25 643.19 65.51 638.07 74.78" style="fill:#575756"/><rect x="652.57" y="58.98" width="13.58" height="0.54" style="fill:#575756"/><polygon points="684.12 81.37 684.11 80.84 684.38 80.83 703.76 80.52 703.77 81.06 703.5 81.06 684.12 81.37" style="fill:#575756"/><polygon points="675.68 96.64 675.22 96.37 684.28 80.73 684.75 81 675.68 96.64" style="fill:#575756"/><rect x="672.96" y="92.67" width="18.91" height="0.53" transform="translate(253.31 631.63) rotate(-59.22)" style="fill:#575756"/><polygon points="722.21 103.02 722.07 102.79 712.84 87.38 713.29 87.11 713.43 87.33 722.67 102.74 722.21 103.02" style="fill:#575756"/><rect x="712.63" y="85.97" width="0.53" height="18.49" transform="translate(50.09 374.45) rotate(-30.45)" style="fill:#575756"/><polygon points="684.28 124.87 675.22 109.23 675.68 108.96 684.75 124.6 684.28 124.87" style="fill:#575756"/><polygon points="709.66 124.87 709.2 124.6 722.2 102.28 722.67 102.55 709.66 124.87" style="fill:#575756"/><rect x="684.11" y="124.24" width="25.71" height="0.54" style="fill:#575756"/><rect x="686.24" y="119.99" width="21.47" height="0.54" style="fill:#575756"/><rect x="679.72" y="64.19" width="0.53" height="18.34" transform="translate(52.53 345.5) rotate(-29.6)" style="fill:#575756"/><rect x="634.69" y="163.08" width="0.5" height="85.29" style="fill:#020200"/><polygon points="637.36 242 634.94 248.38 632.51 242 634.94 243.22 637.36 242 637.36 242" style="fill-rule:evenodd"/><path d="M537.41,291.17H535.8l-3.57-7.46q.07.89.12,1.62c0,.5,0,1.1,0,1.81v4h-1.13v-8.79h1.58l3.61,7.47c0-.22-.06-.6-.11-1.16s-.06-1.05-.06-1.51v-4.8h1.13Z"/><path d="M521.6,291.17v-4.12h-3.69v4.12H516.7v-8.79h1.21v3.67h3.69v-3.67h1.21v8.79Z"/><path d="M527.87,288.25a1.77,1.77,0,0,1,1,1.6,2.67,2.67,0,0,1-.27,1.17,6,6,0,0,1-.85,1.21c-.38.44-1,1-1.73,1.82h3l-.11.77h-4v-.74c.89-.92,1.53-1.6,1.9-2a5.87,5.87,0,0,0,.8-1.13,2.29,2.29,0,0,0,.24-1,1.1,1.1,0,0,0-.3-.82,1.12,1.12,0,0,0-.8-.29,1.42,1.42,0,0,0-.72.17,2.46,2.46,0,0,0-.66.56l-.6-.48a2.59,2.59,0,0,1,.91-.76,2.43,2.43,0,0,1,1.12-.26A2.27,2.27,0,0,1,527.87,288.25Z"/><path d="M636.24,282.19a4.07,4.07,0,0,1,1.22.77l-.67.74a3.71,3.71,0,0,0-1-.58,2.9,2.9,0,0,0-1-.19,1.91,1.91,0,0,0-1.13.32,1.07,1.07,0,0,0-.45.93,1.21,1.21,0,0,0,.16.65,1.36,1.36,0,0,0,.56.47,6.91,6.91,0,0,0,1.21.46,8.09,8.09,0,0,1,1.37.55,2.48,2.48,0,0,1,.89.81,2.4,2.4,0,0,1,.34,1.31,2.45,2.45,0,0,1-.38,1.35,2.51,2.51,0,0,1-1.08.92,3.93,3.93,0,0,1-1.68.33,4.07,4.07,0,0,1-3-1.14l.66-.73a4.3,4.3,0,0,0,1.09.65,3.16,3.16,0,0,0,1.22.23,2.19,2.19,0,0,0,1.35-.41,1.34,1.34,0,0,0,.53-1.16,1.42,1.42,0,0,0-.16-.72,1.39,1.39,0,0,0-.57-.52,5.78,5.78,0,0,0-1.16-.46,5.2,5.2,0,0,1-2-1,2,2,0,0,1-.62-1.56,2,2,0,0,1,.35-1.18,2.34,2.34,0,0,1,1-.82,3.45,3.45,0,0,1,1.43-.29A3.92,3.92,0,0,1,636.24,282.19Z"/><path d="M649.49,304.31a3.57,3.57,0,0,1,1.3,1.55,6,6,0,0,1,.46,2.48,5.89,5.89,0,0,1-.46,2.45,3.63,3.63,0,0,1-1.3,1.55,3.53,3.53,0,0,1-2,.54,3.59,3.59,0,0,1-1.94-.53,3.43,3.43,0,0,1-1.3-1.54,6.78,6.78,0,0,1,0-4.91,3.53,3.53,0,0,1,1.31-1.57,3.48,3.48,0,0,1,1.93-.54A3.6,3.6,0,0,1,649.49,304.31Zm-3.73,1.34a4.61,4.61,0,0,0-.64,2.7,4.46,4.46,0,0,0,.65,2.68,2.09,2.09,0,0,0,1.77.85q2.43,0,2.43-3.54c0-2.37-.81-3.56-2.43-3.56A2.08,2.08,0,0,0,645.76,305.65Z"/><path d="M649.49,260.61a3.52,3.52,0,0,1,1.3,1.55,6.81,6.81,0,0,1,0,4.92,3.41,3.41,0,0,1-3.25,2.09,3.59,3.59,0,0,1-1.94-.53,3.43,3.43,0,0,1-1.3-1.54,6.75,6.75,0,0,1,0-4.9,3.56,3.56,0,0,1,1.31-1.58,3.48,3.48,0,0,1,1.93-.54A3.52,3.52,0,0,1,649.49,260.61Zm-3.73,1.33a4.63,4.63,0,0,0-.64,2.7,4.46,4.46,0,0,0,.65,2.68,2.09,2.09,0,0,0,1.77.85q2.43,0,2.43-3.54c0-2.37-.81-3.56-2.43-3.56A2.08,2.08,0,0,0,645.76,261.94Z"/><path d="M676,269h-1.61l-3.57-7.46c0,.58.09,1.13.12,1.62s0,1.1,0,1.81v4h-1.13v-8.79h1.58l3.61,7.47c0-.22-.06-.61-.11-1.16s-.06-1.06-.06-1.51v-4.8H676Z"/><path d="M683.89,269V264.9h-3.7V269H679v-8.79h1.21v3.67h3.7v-3.67h1.21V269Z"/><path d="M712.44,291.49h-1.62L707.26,284q.07.89.12,1.62c0,.5,0,1.1,0,1.81v4h-1.13V282.7h1.58l3.6,7.47c0-.22-.05-.6-.1-1.16s-.06-1.05-.06-1.51v-4.8h1.13Z"/><path d="M676,312.72h-1.61l-3.57-7.45q.07.87.12,1.62c0,.5,0,1.1,0,1.81v4h-1.13v-8.78h1.58l3.61,7.47c0-.22-.06-.61-.11-1.16s-.06-1.06-.06-1.52v-4.79H676Z"/><polygon points="598.14 308.61 597.71 308.36 610.15 286.5 610.58 286.75 598.14 308.61" style="fill:#020200"/><rect x="603.74" y="263.05" width="0.5" height="25.3" transform="translate(-56.66 341.69) rotate(-30.24)" style="fill:#020200"/><rect x="600.1" y="267.36" width="0.5" height="20.93" transform="translate(-58.95 331.91) rotate(-29.52)" style="fill:#020200"/><rect x="572.48" y="308.21" width="25.71" height="0.54" style="fill:#575756"/><rect x="574.87" y="303.98" width="20.93" height="0.5" style="fill:#020200"/><rect x="572.44" y="264.52" width="25.18" height="0.5" style="fill:#020200"/><rect x="566.13" y="284.91" width="0.5" height="25.3" transform="translate(-72.78 325.77) rotate(-30.24)" style="fill:#020200"/><rect x="553.65" y="275.45" width="25.15" height="0.5" transform="translate(46.44 631.29) rotate(-60.34)" style="fill:#020200"/><rect x="559.55" y="277.57" width="20.93" height="0.5" transform="translate(47.73 637.43) rotate(-60.53)" style="fill:#020200"/><rect x="540.29" y="286.38" width="19.72" height="0.5" style="fill:#020200"/><rect x="610.36" y="286.38" width="19.72" height="0.5" style="fill:#020200"/><polygon points="641.7 301.93 636.54 293.13 636.97 292.88 642.13 301.68 641.7 301.93" style="fill:#020200"/><rect x="643.63" y="291.02" width="0.5" height="11.56" transform="translate(-62.23 360.7) rotate(-29.92)" style="fill:#020200"/><polygon points="639.59 280.31 639.12 280.05 644.24 270.79 644.7 271.04 639.59 280.31" style="fill:#575756"/><rect x="654.35" y="264.52" width="13.04" height="0.5" style="fill:#020200"/><polygon points="703.79 287.18 685.89 286.88 685.9 286.38 703.8 286.68 703.79 287.18" style="fill:#020200"/><rect x="672.73" y="293.97" width="17.54" height="0.5" transform="translate(85.34 736.49) rotate(-59.92)" style="fill:#020200"/><rect x="674.74" y="298.22" width="18.38" height="0.5" transform="translate(77.57 733.4) rotate(-59.23)" style="fill:#020200"/><rect x="718.72" y="292.14" width="0.5" height="17.51" transform="translate(-46.19 449.16) rotate(-33.68)" style="fill:#020200"/><rect x="713.56" y="291.89" width="0.5" height="18.02" transform="translate(-49.65 432.02) rotate(-32.6)" style="fill:#020200"/><rect x="681.25" y="313.68" width="0.5" height="17.54" transform="translate(-69.81 385.23) rotate(-30.1)" style="fill:#020200"/><rect x="704.8" y="318.86" width="25.3" height="0.5" transform="translate(80.18 777.86) rotate(-59.73)" style="fill:#020200"/><rect x="685.63" y="329.77" width="25.71" height="0.54" style="fill:#575756"/><rect x="688.02" y="325.54" width="20.93" height="0.5" style="fill:#020200"/><polygon points="685.68 286.75 676.88 271.27 677.32 271.03 686.12 286.5 685.68 286.75" style="fill:#020200"/></g><g id="roxo"><path d="M23.77,183.67l-.66-2.21H19.78l-.66,2.21H17.89l2.82-8.79h1.53l2.8,8.79Zm-3.7-3.19h2.74l-1.36-4.59Z" style="fill:#7a40c6"/><path d="M29.87,177a3.13,3.13,0,0,1,1,.55l-.56.74a2.8,2.8,0,0,0-.7-.37,2,2,0,0,0-.74-.12,1.45,1.45,0,0,0-1.27.64,3.42,3.42,0,0,0-.45,1.93,3.24,3.24,0,0,0,.44,1.88,1.48,1.48,0,0,0,1.28.61,2.09,2.09,0,0,0,.72-.12,4.13,4.13,0,0,0,.74-.39l.54.76a3.21,3.21,0,0,1-2,.74,2.68,2.68,0,0,1-2.15-.92,3.77,3.77,0,0,1-.78-2.53,4.57,4.57,0,0,1,.35-1.88,2.94,2.94,0,0,1,1-1.25,2.73,2.73,0,0,1,1.56-.44A3.2,3.2,0,0,1,29.87,177Z" style="fill:#7a40c6"/><path d="M37.47,180.71H33.18a2.63,2.63,0,0,0,.56,1.63,1.64,1.64,0,0,0,1.25.53,2.62,2.62,0,0,0,.9-.15,3.64,3.64,0,0,0,.85-.44l.51.7a3.72,3.72,0,0,1-2.35.84,2.72,2.72,0,0,1-2.18-.92,3.76,3.76,0,0,1-.78-2.52,4.9,4.9,0,0,1,.33-1.86,3,3,0,0,1,1-1.27,2.77,2.77,0,0,1,3.54.43,3.76,3.76,0,0,1,.71,2.43C37.49,180.31,37.48,180.51,37.47,180.71Zm-1.14-.94a2.51,2.51,0,0,0-.39-1.52,1.4,1.4,0,0,0-1.19-.52c-1,0-1.48.7-1.57,2.11h3.15Z" style="fill:#7a40c6"/><path d="M42.65,183.36a2.54,2.54,0,0,1-1.5.46,1.74,1.74,0,0,1-1.33-.49,2,2,0,0,1-.48-1.42v-4.06H38.17V177h1.17v-1.52l1.17-.14V177H42.1l-.13.9H40.51v4a1.27,1.27,0,0,0,.18.76.77.77,0,0,0,.62.23,1.88,1.88,0,0,0,.89-.27Z" style="fill:#7a40c6"/><path d="M48.61,182.71A.86.86,0,0,0,49,183l-.26.82a1.78,1.78,0,0,1-.84-.29,1.33,1.33,0,0,1-.48-.72,2.25,2.25,0,0,1-2,1,2.14,2.14,0,0,1-1.56-.56,2.14,2.14,0,0,1,.19-3.11,3.66,3.66,0,0,1,2.19-.58h1v-.49a1.29,1.29,0,0,0-.34-1,1.53,1.53,0,0,0-1.06-.31,5.87,5.87,0,0,0-1.81.36l-.29-.86a6.84,6.84,0,0,1,2.32-.45,2.4,2.4,0,0,1,1.77.58,2.2,2.2,0,0,1,.58,1.65v3.07A1.12,1.12,0,0,0,48.61,182.71Zm-1.31-.82v-1.54h-.88q-1.86,0-1.86,1.38a1.26,1.26,0,0,0,.29.9,1.14,1.14,0,0,0,.87.31A1.75,1.75,0,0,0,47.3,181.89Z" style="fill:#7a40c6"/><path d="M55.37,177.34a2.1,2.1,0,0,1,.52,1.51v4.82H54.72V179a1.46,1.46,0,0,0-.27-1,1,1,0,0,0-.79-.3,1.54,1.54,0,0,0-.94.31,3.08,3.08,0,0,0-.77.88v4.77H50.78V177h1l.1,1a2.82,2.82,0,0,1,.88-.84,2.34,2.34,0,0,1,1.17-.3A1.88,1.88,0,0,1,55.37,177.34Z" style="fill:#7a40c6"/><path d="M59.31,174a.78.78,0,0,1,.24.58.71.71,0,0,1-.24.56.87.87,0,0,1-1.18,0,.74.74,0,0,1-.23-.56.82.82,0,0,1,.23-.58.87.87,0,0,1,1.18,0Zm0,3v6.72H58.14V177Z" style="fill:#7a40c6"/><path d="M62.24,183.43a1.5,1.5,0,0,1-.38-1.09v-8.09l1.18-.14v8.21a.7.7,0,0,0,.09.4.38.38,0,0,0,.33.13,1.18,1.18,0,0,0,.43-.07l.31.81a2,2,0,0,1-.93.23A1.36,1.36,0,0,1,62.24,183.43Z" style="fill:#7a40c6"/><path d="M67,174a.78.78,0,0,1,.23.58.7.7,0,0,1-.23.56.87.87,0,0,1-1.18,0,.74.74,0,0,1-.23-.56.82.82,0,0,1,.23-.58A.87.87,0,0,1,67,174Zm0,3v6.72H65.85V177Z" style="fill:#7a40c6"/><path d="M74.23,177.34a2.14,2.14,0,0,1,.51,1.51v4.82H73.57V179a1.52,1.52,0,0,0-.26-1,1,1,0,0,0-.8-.3,1.56,1.56,0,0,0-.94.31,3.22,3.22,0,0,0-.76.88v4.77H69.64V177h1l.1,1a2.85,2.85,0,0,1,.89-.84,2.32,2.32,0,0,1,1.17-.3A1.88,1.88,0,0,1,74.23,177.34Z" style="fill:#7a40c6"/><path d="M81.66,182.71a.86.86,0,0,0,.42.29l-.26.82a1.86,1.86,0,0,1-.85-.29,1.38,1.38,0,0,1-.47-.72,2.25,2.25,0,0,1-2,1,2.14,2.14,0,0,1-1.56-.56,2.14,2.14,0,0,1,.19-3.11,3.66,3.66,0,0,1,2.19-.58h1v-.49a1.29,1.29,0,0,0-.34-1,1.54,1.54,0,0,0-1.06-.31,5.87,5.87,0,0,0-1.81.36l-.29-.86a6.84,6.84,0,0,1,2.32-.45,2.4,2.4,0,0,1,1.77.58,2.2,2.2,0,0,1,.58,1.65v3.07A1.12,1.12,0,0,0,81.66,182.71Zm-1.31-.82v-1.54h-.88q-1.86,0-1.86,1.38a1.26,1.26,0,0,0,.29.9,1.14,1.14,0,0,0,.87.31A1.75,1.75,0,0,0,80.35,181.89Z" style="fill:#7a40c6"/><path d="M115.61,56a4.15,4.15,0,0,1,1.11.67l-.67.78a2.61,2.61,0,0,0-1.69-.65,2.16,2.16,0,0,0-1.77.84,4.38,4.38,0,0,0-.67,2.7,4.3,4.3,0,0,0,.67,2.67,2.1,2.1,0,0,0,1.75.86,2.33,2.33,0,0,0,1-.19,5.57,5.57,0,0,0,.89-.54l.6.77a3.27,3.27,0,0,1-1,.7,3.49,3.49,0,0,1-4.67-1.8,6,6,0,0,1-.46-2.47,5.82,5.82,0,0,1,.48-2.47,3.6,3.6,0,0,1,1.31-1.55,3.49,3.49,0,0,1,1.85-.52A3.92,3.92,0,0,1,115.61,56Z" style="fill:#7a40c6"/><path d="M118.5,64.47a1.5,1.5,0,0,1-.37-1.09V55.29l1.17-.14v8.21a.62.62,0,0,0,.1.4.36.36,0,0,0,.32.13,1,1,0,0,0,.43-.08l.31.82a1.94,1.94,0,0,1-.93.23A1.39,1.39,0,0,1,118.5,64.47Z" style="fill:#7a40c6"/><path d="M125.85,56a4.11,4.11,0,0,1,1.21.77l-.66.74a3.76,3.76,0,0,0-1-.58,2.88,2.88,0,0,0-1-.18,1.94,1.94,0,0,0-1.14.31,1.1,1.1,0,0,0-.44.93,1.3,1.3,0,0,0,.15.65,1.41,1.41,0,0,0,.57.48,8.29,8.29,0,0,0,1.2.46,8.65,8.65,0,0,1,1.38.54A2.45,2.45,0,0,1,127,61a2.32,2.32,0,0,1,.34,1.31,2.37,2.37,0,0,1-.38,1.35,2.51,2.51,0,0,1-1.08.92,3.92,3.92,0,0,1-1.67.33,4.13,4.13,0,0,1-3-1.13l.67-.74a4.09,4.09,0,0,0,1.08.65,3.19,3.19,0,0,0,1.22.23,2.15,2.15,0,0,0,1.35-.41,1.34,1.34,0,0,0,.54-1.16,1.42,1.42,0,0,0-.17-.72,1.5,1.5,0,0,0-.56-.52,6.6,6.6,0,0,0-1.17-.46,5.07,5.07,0,0,1-2-1,2,2,0,0,1-.63-1.56,2.1,2.1,0,0,1,.35-1.18,2.4,2.4,0,0,1,1-.82,3.46,3.46,0,0,1,1.44-.29A4,4,0,0,1,125.85,56Z" style="fill:#7a40c6"/><path d="M134.2,56.3a3.45,3.45,0,0,1,1.3,1.55,6.67,6.67,0,0,1,0,4.92,3.45,3.45,0,0,1-1.3,1.55,3.49,3.49,0,0,1-1.94.54,3.6,3.6,0,0,1-1.95-.52A3.52,3.52,0,0,1,129,62.8a6.65,6.65,0,0,1,0-4.91,3.62,3.62,0,0,1,5.18-1.59Zm-3.73,1.33a4.64,4.64,0,0,0-.63,2.7,4.46,4.46,0,0,0,.64,2.68,2.11,2.11,0,0,0,1.78.86c1.61,0,2.42-1.18,2.42-3.55s-.81-3.55-2.42-3.55A2.09,2.09,0,0,0,130.47,57.63Z" style="fill:#7a40c6"/><path d="M138.68,63.27a1.46,1.46,0,0,1,.56.51,1.32,1.32,0,0,1,.19.7,1.19,1.19,0,0,1-.29.82,1.44,1.44,0,0,1-.77.44,1.38,1.38,0,0,1,.89.39,1.26,1.26,0,0,1,.34.94,1.61,1.61,0,0,1-.23.86,1.57,1.57,0,0,1-.65.6,2.22,2.22,0,0,1-1,.22,2.12,2.12,0,0,1-.91-.19,1.93,1.93,0,0,1-.73-.55l.45-.42a1.83,1.83,0,0,0,.55.41,1.44,1.44,0,0,0,.62.13,1.07,1.07,0,0,0,.81-.29,1,1,0,0,0,.3-.78.92.92,0,0,0-.28-.76,1.28,1.28,0,0,0-.81-.22h-.41l.09-.59h.28a1,1,0,0,0,.7-.25.91.91,0,0,0,.29-.71.76.76,0,0,0-.25-.61.93.93,0,0,0-.66-.23,1.63,1.63,0,0,0-.59.11,2,2,0,0,0-.54.38l-.4-.45a2.27,2.27,0,0,1,1.57-.65A1.93,1.93,0,0,1,138.68,63.27Z" style="fill:#7a40c6"/><path d="M146.71,64.71V60.59H143v4.12h-1.21V55.92H143V59.6h3.69V55.92h1.21v8.79Z" style="fill:#7a40c6"/><path d="M121.55,94.12l-.66-2.21h-3.33l-.66,2.21h-1.22l2.81-8.79H120l2.8,8.79ZM120.27,82.5l.51,1-2.75,1-.3-.62Zm-2.42,8.43h2.74l-1.36-4.59Z" style="fill:#7a40c6"/><path d="M127.65,87.42a3.13,3.13,0,0,1,1,.55l-.56.74a2.8,2.8,0,0,0-.7-.37,2.17,2.17,0,0,0-.74-.13,1.44,1.44,0,0,0-1.27.66,3.36,3.36,0,0,0-.45,1.92,3.24,3.24,0,0,0,.44,1.88,1.52,1.52,0,0,0,1.28.61,1.88,1.88,0,0,0,.72-.13,3.48,3.48,0,0,0,.74-.38l.54.76a3.21,3.21,0,0,1-2.05.74,2.68,2.68,0,0,1-2.15-.92,3.79,3.79,0,0,1-.78-2.53,4.57,4.57,0,0,1,.35-1.88,3,3,0,0,1,1-1.25,2.71,2.71,0,0,1,1.57-.44A3.16,3.16,0,0,1,127.65,87.42Z" style="fill:#7a40c6"/><path d="M131.37,84.4a.78.78,0,0,1,.23.58.75.75,0,0,1-.23.57.85.85,0,0,1-.6.22.83.83,0,0,1-.58-.22A.75.75,0,0,1,130,85a.78.78,0,0,1,.23-.58.8.8,0,0,1,.58-.23A.81.81,0,0,1,131.37,84.4Zm0,3v6.72H130.2V87.4Z" style="fill:#7a40c6"/><path d="M139.18,84.7v9.42h-1l-.11-.93a2.5,2.5,0,0,1-.83.79,2.09,2.09,0,0,1-1.11.29,2.16,2.16,0,0,1-1.87-.94,4.37,4.37,0,0,1-.67-2.54,4.94,4.94,0,0,1,.32-1.83,2.8,2.8,0,0,1,.92-1.26,2.28,2.28,0,0,1,1.4-.45,2.41,2.41,0,0,1,1.81.82V84.56Zm-1.91,8.39a2.73,2.73,0,0,0,.74-.74V89.06a2.56,2.56,0,0,0-.71-.66,1.6,1.6,0,0,0-.84-.22,1.36,1.36,0,0,0-1.21.65,3.6,3.6,0,0,0-.43,1.94,3.75,3.75,0,0,0,.4,1.93,1.24,1.24,0,0,0,1.13.64A1.6,1.6,0,0,0,137.27,93.09Z" style="fill:#7a40c6"/><path d="M146.22,88.19a3.9,3.9,0,0,1,.79,2.56,4.41,4.41,0,0,1-.36,1.84,2.75,2.75,0,0,1-1,1.24,2.84,2.84,0,0,1-1.61.44,2.7,2.7,0,0,1-2.2-.94,3.86,3.86,0,0,1-.79-2.56,4.62,4.62,0,0,1,.35-1.85A2.77,2.77,0,0,1,144,87.25,2.69,2.69,0,0,1,146.22,88.19Zm-3.94,2.58c0,1.7.58,2.56,1.73,2.56s1.73-.86,1.73-2.58-.57-2.56-1.72-2.56S142.28,89.05,142.28,90.77Z" style="fill:#7a40c6"/><path d="M93.68,98a4,4,0,0,1,1.1.67l-.66.77a2.69,2.69,0,0,0-1.7-.65,2.13,2.13,0,0,0-1.76.84,4.35,4.35,0,0,0-.67,2.71,4.41,4.41,0,0,0,.66,2.67,2.12,2.12,0,0,0,1.76.86,2.48,2.48,0,0,0,1-.19,5.16,5.16,0,0,0,.89-.54l.6.77a3.33,3.33,0,0,1-1,.7,3.78,3.78,0,0,1-1.47.28,3.48,3.48,0,0,1-1.9-.53,3.43,3.43,0,0,1-1.3-1.56,5.9,5.9,0,0,1-.47-2.46,5.64,5.64,0,0,1,.49-2.47,3.54,3.54,0,0,1,1.31-1.55,3.38,3.38,0,0,1,1.85-.52A4,4,0,0,1,93.68,98Z" style="fill:#7a40c6"/><path d="M96.57,106.53a1.5,1.5,0,0,1-.38-1.09v-8.1l1.18-.14v8.21a.71.71,0,0,0,.09.41.38.38,0,0,0,.33.13,1.18,1.18,0,0,0,.43-.08l.31.82a2,2,0,0,1-.93.23A1.36,1.36,0,0,1,96.57,106.53Z" style="fill:#7a40c6"/><path d="M104.9,100.84a3.9,3.9,0,0,1,.79,2.56,4.41,4.41,0,0,1-.36,1.84,2.81,2.81,0,0,1-1,1.24,2.92,2.92,0,0,1-1.61.44,2.71,2.71,0,0,1-2.2-1,3.82,3.82,0,0,1-.79-2.56,4.57,4.57,0,0,1,.35-1.84,2.89,2.89,0,0,1,1-1.24,2.92,2.92,0,0,1,1.61-.44A2.69,2.69,0,0,1,104.9,100.84ZM101,103.41c0,1.71.58,2.56,1.73,2.56s1.73-.85,1.73-2.57-.57-2.56-1.72-2.56S101,101.7,101,103.41Z" style="fill:#7a40c6"/><path d="M111.1,100l-.22,1.15a2.45,2.45,0,0,0-.58-.08,1.24,1.24,0,0,0-1,.46,3.56,3.56,0,0,0-.6,1.43v3.84h-1.17v-6.72h1l.11,1.36a2.5,2.5,0,0,1,.73-1.13,1.59,1.59,0,0,1,1.07-.39A2.71,2.71,0,0,1,111.1,100Z" style="fill:#7a40c6"/><path d="M117.16,100.84a3.89,3.89,0,0,1,.78,2.56,4.57,4.57,0,0,1-.35,1.84,2.83,2.83,0,0,1-1,1.24,2.88,2.88,0,0,1-1.6.44,2.74,2.74,0,0,1-2.21-1,3.88,3.88,0,0,1-.79-2.56,4.41,4.41,0,0,1,.36-1.84,2.86,2.86,0,0,1,1-1.24,2.93,2.93,0,0,1,1.62-.44A2.71,2.71,0,0,1,117.16,100.84Zm-3.94,2.57c0,1.71.57,2.56,1.73,2.56s1.73-.85,1.73-2.57-.57-2.56-1.72-2.56S113.22,101.7,113.22,103.41Z" style="fill:#7a40c6"/><path d="M122.83,100.08a3.63,3.63,0,0,1,1,.58l-.5.74a4,4,0,0,0-.87-.44,2.83,2.83,0,0,0-.87-.14,1.53,1.53,0,0,0-.91.24.8.8,0,0,0,0,1.28,3.92,3.92,0,0,0,1.13.45,4,4,0,0,1,1.68.76,1.69,1.69,0,0,1,.55,1.33,1.71,1.71,0,0,1-.77,1.51,3.25,3.25,0,0,1-1.88.53,3.68,3.68,0,0,1-2.53-.88l.62-.72a3,3,0,0,0,1.88.65,1.83,1.83,0,0,0,1.06-.27.85.85,0,0,0,.38-.74.93.93,0,0,0-.14-.56,1.13,1.13,0,0,0-.48-.37,6.11,6.11,0,0,0-1-.34,3.25,3.25,0,0,1-1.54-.75,1.6,1.6,0,0,1-.48-1.2,1.57,1.57,0,0,1,.31-.95,2.1,2.1,0,0,1,.87-.66,3.08,3.08,0,0,1,1.24-.24A3.87,3.87,0,0,1,122.83,100.08Z" style="fill:#7a40c6"/><path d="M128.49,100.08a3.63,3.63,0,0,1,1,.58l-.5.74a4.45,4.45,0,0,0-.87-.44,2.84,2.84,0,0,0-.88-.14,1.5,1.5,0,0,0-.9.24.75.75,0,0,0-.33.64.73.73,0,0,0,.31.64,3.8,3.8,0,0,0,1.13.45,3.94,3.94,0,0,1,1.67.76,1.86,1.86,0,0,1-.21,2.84,3.28,3.28,0,0,1-1.88.53,3.71,3.71,0,0,1-2.54-.88l.63-.72a3,3,0,0,0,1.88.65,1.82,1.82,0,0,0,1-.27.86.86,0,0,0,.39-.74,1,1,0,0,0-.14-.56,1.13,1.13,0,0,0-.48-.37,6.46,6.46,0,0,0-1-.34,3.34,3.34,0,0,1-1.55-.75,1.6,1.6,0,0,1-.48-1.2,1.58,1.58,0,0,1,.32-.95,2.07,2.07,0,0,1,.86-.66,3.13,3.13,0,0,1,1.25-.24A3.87,3.87,0,0,1,128.49,100.08Z" style="fill:#7a40c6"/><path d="M136.09,106.77h-1l-.09-1a2.57,2.57,0,0,1-.88.91,2.38,2.38,0,0,1-1.21.29,1.78,1.78,0,0,1-1.38-.54,2.13,2.13,0,0,1-.49-1.51v-4.82h1.17v4.69a1.51,1.51,0,0,0,.24,1,1,1,0,0,0,.79.29,2,2,0,0,0,1.68-1.16v-4.79h1.18Z" style="fill:#7a40c6"/><path d="M138.72,106.53a1.5,1.5,0,0,1-.38-1.09v-8.1l1.17-.14v8.21a.63.63,0,0,0,.1.41.36.36,0,0,0,.32.13,1.23,1.23,0,0,0,.44-.08l.3.82a1.94,1.94,0,0,1-.93.23A1.35,1.35,0,0,1,138.72,106.53Z" style="fill:#7a40c6"/><path d="M143.84,98.38a1.06,1.06,0,0,0-.23.74v.93h1.64l-.13.9h-1.51v5.82h-1.17V101h-1.2v-.9h1.2v-.92a1.86,1.86,0,0,1,.56-1.4,2.16,2.16,0,0,1,1.55-.53,3.49,3.49,0,0,1,.82.09,4.19,4.19,0,0,1,.78.26l-.37.85a2.83,2.83,0,0,0-1.17-.25A1,1,0,0,0,143.84,98.38Z" style="fill:#7a40c6"/><path d="M151.71,100.84a3.89,3.89,0,0,1,.78,2.56,4.41,4.41,0,0,1-.35,1.84,2.81,2.81,0,0,1-1,1.24,2.92,2.92,0,0,1-1.61.44,2.71,2.71,0,0,1-2.2-1,3.82,3.82,0,0,1-.79-2.56,4.57,4.57,0,0,1,.35-1.84,2.89,2.89,0,0,1,1-1.24,2.92,2.92,0,0,1,1.61-.44A2.69,2.69,0,0,1,151.71,100.84Zm-3.83-2.16-.49-.57,1.72-1.44h.77l1.74,1.44-.51.57-1.61-1.07Zm-.11,4.73c0,1.71.58,2.56,1.73,2.56s1.73-.85,1.73-2.57-.57-2.56-1.72-2.56S147.77,101.7,147.77,103.41Z" style="fill:#7a40c6"/><path d="M158.92,100.44a2.1,2.1,0,0,1,.52,1.51v4.82h-1.17v-4.66a1.46,1.46,0,0,0-.27-1,1,1,0,0,0-.79-.3,1.48,1.48,0,0,0-.94.31,3.08,3.08,0,0,0-.77.88v4.77h-1.17v-6.72h1l.1,1a2.61,2.61,0,0,1,.88-.84,2.35,2.35,0,0,1,1.17-.31A1.88,1.88,0,0,1,158.92,100.44Z" style="fill:#7a40c6"/><path d="M162.87,97.05a.78.78,0,0,1,.23.58.77.77,0,0,1-.23.56.84.84,0,0,1-.6.22.8.8,0,0,1-.59-.22.77.77,0,0,1-.23-.56.78.78,0,0,1,.23-.58.81.81,0,0,1,.59-.23A.85.85,0,0,1,162.87,97.05Zm0,3v6.72h-1.18v-6.72Z" style="fill:#7a40c6"/><path d="M169,100.07a3.13,3.13,0,0,1,1,.55l-.56.74a2.85,2.85,0,0,0-.7-.38,2.19,2.19,0,0,0-.75-.12,1.45,1.45,0,0,0-1.26.65,3.42,3.42,0,0,0-.45,1.93,3.18,3.18,0,0,0,.44,1.88,1.49,1.49,0,0,0,1.27.6,2.11,2.11,0,0,0,.73-.12,3.57,3.57,0,0,0,.74-.39l.54.77a3.24,3.24,0,0,1-2.06.74,2.68,2.68,0,0,1-2.14-.92,3.8,3.8,0,0,1-.79-2.54,4.55,4.55,0,0,1,.36-1.87,2.94,2.94,0,0,1,1-1.25,2.7,2.7,0,0,1,1.56-.45A3.21,3.21,0,0,1,169,100.07Z" style="fill:#7a40c6"/><path d="M176.29,100.84a3.89,3.89,0,0,1,.78,2.56,4.57,4.57,0,0,1-.35,1.84,2.83,2.83,0,0,1-1,1.24,2.88,2.88,0,0,1-1.6.44,2.74,2.74,0,0,1-2.21-1,3.88,3.88,0,0,1-.79-2.56,4.41,4.41,0,0,1,.36-1.84,2.86,2.86,0,0,1,1-1.24,2.93,2.93,0,0,1,1.62-.44A2.71,2.71,0,0,1,176.29,100.84Zm-3.94,2.57c0,1.71.57,2.56,1.73,2.56s1.73-.85,1.73-2.57-.57-2.56-1.72-2.56S172.35,101.7,172.35,103.41Z" style="fill:#7a40c6"/><path d="M107.69,114.28a15.8,15.8,0,0,0-1,1.75,7.2,7.2,0,0,0-.61,1.75,10.39,10.39,0,0,0-.23,2.3,10.27,10.27,0,0,0,.23,2.28,7.68,7.68,0,0,0,.61,1.77,15.8,15.8,0,0,0,1,1.75l-.74.51c-.56-.8-1-1.46-1.29-2a7.92,7.92,0,0,1-.77-1.85,10.2,10.2,0,0,1,0-5,7.83,7.83,0,0,1,.77-1.84c.3-.52.73-1.18,1.29-2Z" style="fill:#7a40c6"/><path d="M114.45,121.58h-4.28a2.6,2.6,0,0,0,.56,1.63,1.64,1.64,0,0,0,1.25.53,2.77,2.77,0,0,0,.89-.14,4,4,0,0,0,.86-.45l.51.7a3.74,3.74,0,0,1-2.35.84,2.72,2.72,0,0,1-2.18-.92,3.76,3.76,0,0,1-.79-2.52,4.9,4.9,0,0,1,.34-1.86,3,3,0,0,1,1-1.26,2.42,2.42,0,0,1,1.49-.46,2.48,2.48,0,0,1,2,.88,3.78,3.78,0,0,1,.71,2.43Q114.48,121.28,114.45,121.58Zm-1.13-.94a2.51,2.51,0,0,0-.39-1.52,1.4,1.4,0,0,0-1.19-.52c-1,0-1.48.7-1.57,2.11h3.15Z" style="fill:#7a40c6"/><path d="M118.82,120.94l2.34,3.6h-1.42l-1.64-2.84-1.67,2.84H115.1l2.35-3.55-2.08-3.17h1.38l1.4,2.46,1.41-2.46h1.33Z" style="fill:#7a40c6"/><path d="M126.26,117.84a3,3,0,0,1,1,.55l-.56.74a2.93,2.93,0,0,0-.69-.37,2.27,2.27,0,0,0-.75-.12,1.45,1.45,0,0,0-1.27.65,3.36,3.36,0,0,0-.45,1.92,3.15,3.15,0,0,0,.45,1.88,1.46,1.46,0,0,0,1.27.61,2.19,2.19,0,0,0,.73-.12,3.52,3.52,0,0,0,.73-.39l.54.76a3.15,3.15,0,0,1-2,.74,2.68,2.68,0,0,1-2.15-.92,3.77,3.77,0,0,1-.78-2.53,4.57,4.57,0,0,1,.36-1.88,2.85,2.85,0,0,1,1-1.25,2.75,2.75,0,0,1,1.56-.44A3.16,3.16,0,0,1,126.26,117.84Z" style="fill:#7a40c6"/><path d="M133.86,121.58h-4.28a2.55,2.55,0,0,0,.56,1.63,1.62,1.62,0,0,0,1.25.53,2.81,2.81,0,0,0,.89-.14,4.15,4.15,0,0,0,.85-.45l.51.7a3.69,3.69,0,0,1-2.34.84,2.74,2.74,0,0,1-2.19-.92,3.76,3.76,0,0,1-.78-2.52,4.71,4.71,0,0,1,.34-1.86,2.8,2.8,0,0,1,1-1.26,2.41,2.41,0,0,1,1.48-.46,2.48,2.48,0,0,1,2,.88,3.72,3.72,0,0,1,.71,2.43C133.88,121.18,133.88,121.38,133.86,121.58Zm-1.14-.94a2.51,2.51,0,0,0-.39-1.52,1.39,1.39,0,0,0-1.19-.52c-1,0-1.48.7-1.56,2.11h3.14Z" style="fill:#7a40c6"/><path d="M138.71,117.86a3.84,3.84,0,0,1,1,.57l-.5.74a4.36,4.36,0,0,0-.87-.43,2.58,2.58,0,0,0-.88-.14,1.58,1.58,0,0,0-.9.23.77.77,0,0,0-.33.65.76.76,0,0,0,.31.64,3.69,3.69,0,0,0,1.13.44,3.94,3.94,0,0,1,1.67.77,1.66,1.66,0,0,1,.56,1.32,1.74,1.74,0,0,1-.77,1.52,3.27,3.27,0,0,1-1.88.52,3.71,3.71,0,0,1-2.54-.88l.63-.71a3,3,0,0,0,1.88.65,1.74,1.74,0,0,0,1-.28.86.86,0,0,0,.39-.74,1,1,0,0,0-.14-.56,1.13,1.13,0,0,0-.48-.37,8,8,0,0,0-1-.33,3.44,3.44,0,0,1-1.55-.76,1.62,1.62,0,0,1-.47-1.19,1.55,1.55,0,0,1,.31-1,2,2,0,0,1,.86-.67,3.31,3.31,0,0,1,1.25-.23A3.61,3.61,0,0,1,138.71,117.86Z" style="fill:#7a40c6"/><path d="M144.37,117.86a3.94,3.94,0,0,1,1,.57l-.49.74a4.17,4.17,0,0,0-.88-.43,2.48,2.48,0,0,0-.87-.14,1.58,1.58,0,0,0-.9.23.77.77,0,0,0-.33.65.76.76,0,0,0,.31.64,3.58,3.58,0,0,0,1.13.44,4,4,0,0,1,1.67.77,1.65,1.65,0,0,1,.55,1.32,1.72,1.72,0,0,1-.77,1.52,3.24,3.24,0,0,1-1.87.52,3.71,3.71,0,0,1-2.54-.88l.62-.71a3.07,3.07,0,0,0,1.89.65,1.74,1.74,0,0,0,1-.28.86.86,0,0,0,.39-.74,1,1,0,0,0-.14-.56,1.17,1.17,0,0,0-.49-.37,7.24,7.24,0,0,0-1-.33,3.39,3.39,0,0,1-1.55-.76,1.59,1.59,0,0,1-.48-1.19,1.61,1.61,0,0,1,.31-1,2,2,0,0,1,.87-.67,3.26,3.26,0,0,1,1.24-.23A3.71,3.71,0,0,1,144.37,117.86Z" style="fill:#7a40c6"/><path d="M151.69,118.61a3.89,3.89,0,0,1,.78,2.56,4.66,4.66,0,0,1-.35,1.85,2.76,2.76,0,0,1-2.64,1.67,2.73,2.73,0,0,1-2.21-.94,3.9,3.9,0,0,1-.79-2.56,4.49,4.49,0,0,1,.36-1.85,2.78,2.78,0,0,1,1-1.23,2.85,2.85,0,0,1,1.62-.44A2.7,2.7,0,0,1,151.69,118.61Zm-3.94,2.58c0,1.7.57,2.56,1.73,2.56s1.73-.86,1.73-2.58-.57-2.56-1.72-2.56S147.75,119.47,147.75,121.19Z" style="fill:#7a40c6"/><path d="M155.64,115.74a8.28,8.28,0,0,1,.76,1.84,9.89,9.89,0,0,1,0,5,8.38,8.38,0,0,1-.76,1.85c-.3.51-.73,1.17-1.29,2l-.74-.51a15.8,15.8,0,0,0,1-1.75,8.18,8.18,0,0,0,.61-1.77,10.31,10.31,0,0,0,.22-2.28,10.44,10.44,0,0,0-.22-2.3,7.65,7.65,0,0,0-.61-1.75,15.8,15.8,0,0,0-1-1.75l.74-.51C154.91,114.56,155.34,115.22,155.64,115.74Z" style="fill:#7a40c6"/><path d="M342.64,140.4a2.32,2.32,0,0,1,.9.83,2.27,2.27,0,0,1,.31,1.19,3.3,3.3,0,0,1-.35,1.5,7.32,7.32,0,0,1-1.07,1.54c-.49.55-1.22,1.32-2.21,2.31h3.84l-.14,1h-5v-.93c1.13-1.19,1.94-2,2.42-2.6a7.24,7.24,0,0,0,1-1.43,2.85,2.85,0,0,0,.31-1.32,1.39,1.39,0,0,0-.38-1,1.41,1.41,0,0,0-1-.38,1.82,1.82,0,0,0-.92.22,3.37,3.37,0,0,0-.84.71l-.76-.61a3.4,3.4,0,0,1,1.16-1,3.15,3.15,0,0,1,1.42-.32A2.8,2.8,0,0,1,342.64,140.4Z" style="fill:#7a40c6"/><path d="M345.36,145.25v-1H349v1Z" style="fill:#7a40c6"/><path d="M355.68,148.75l-.67-2.21h-3.32l-.66,2.21H349.8l2.82-8.79h1.53l2.8,8.79Zm-3.7-3.19h2.74L353.36,141Z" style="fill:#7a40c6"/><path d="M366.3,142.43a2.17,2.17,0,0,1,.5,1.5v4.82h-1.17v-4.66c0-.86-.32-1.3-.95-1.3a1.28,1.28,0,0,0-.84.29,4.11,4.11,0,0,0-.74.9v4.77h-1.17v-4.66c0-.86-.31-1.3-.94-1.3a1.24,1.24,0,0,0-.85.3,3.73,3.73,0,0,0-.73.89v4.77h-1.17V142h1l.11,1a2.22,2.22,0,0,1,1.93-1.13,1.74,1.74,0,0,1,1.07.32,1.77,1.77,0,0,1,.63.89,3.13,3.13,0,0,1,.87-.9,2,2,0,0,1,1.13-.31A1.68,1.68,0,0,1,366.3,142.43Z" style="fill:#7a40c6"/><path d="M370.64,139a.81.81,0,0,1,.22.58.73.73,0,0,1-.22.56.85.85,0,0,1-.6.23.81.81,0,0,1-.59-.23.74.74,0,0,1-.23-.56.82.82,0,0,1,.23-.58.81.81,0,0,1,.59-.23A.85.85,0,0,1,370.64,139Zm0,3v6.72h-1.18V142Z" style="fill:#7a40c6"/><path d="M377.84,142.42a2.14,2.14,0,0,1,.52,1.51v4.82h-1.18v-4.66a1.52,1.52,0,0,0-.26-1,1,1,0,0,0-.79-.3,1.59,1.59,0,0,0-.95.31,3.22,3.22,0,0,0-.76.88v4.77h-1.17V142h1l.1,1a2.85,2.85,0,0,1,.89-.84,2.32,2.32,0,0,1,1.17-.3A1.88,1.88,0,0,1,377.84,142.42Z" style="fill:#7a40c6"/><path d="M385.33,142.82a3.89,3.89,0,0,1,.78,2.56,4.41,4.41,0,0,1-.35,1.84,2.75,2.75,0,0,1-1,1.24,2.92,2.92,0,0,1-1.61.44,2.7,2.7,0,0,1-2.2-.94,3.87,3.87,0,0,1-.79-2.57,4.61,4.61,0,0,1,.35-1.84,2.74,2.74,0,0,1,1-1.23,2.82,2.82,0,0,1,1.61-.44A2.69,2.69,0,0,1,385.33,142.82Zm-3.94,2.57c0,1.71.58,2.57,1.73,2.57s1.73-.86,1.73-2.58-.57-2.56-1.72-2.56S381.39,143.68,381.39,145.39Z" style="fill:#7a40c6"/><path d="M335.22,158.83v8.53h-1.17v-7.28l-2,1.21-.5-.83,2.63-1.63Z" style="fill:#7a40c6"/><path d="M338.68,166a.83.83,0,0,1,.25.62,2.17,2.17,0,0,1-.23.91l-.85,1.95H337l.51-2.12a.82.82,0,0,1-.26-.32.87.87,0,0,1-.1-.42.89.89,0,0,1,.88-.88A.87.87,0,0,1,338.68,166Z" style="fill:#7a40c6"/><path d="M343.89,159a2.09,2.09,0,0,1,.87.79,2,2,0,0,1,.3,1.08,1.84,1.84,0,0,1-.45,1.28,2.27,2.27,0,0,1-1.21.68,2.14,2.14,0,0,1,1.39.62,1.94,1.94,0,0,1,.54,1.45,2.56,2.56,0,0,1-.36,1.34,2.51,2.51,0,0,1-1,.94,3.38,3.38,0,0,1-1.53.33,3.46,3.46,0,0,1-1.42-.28,3.08,3.08,0,0,1-1.14-.86l.7-.66a2.87,2.87,0,0,0,.86.64,2.25,2.25,0,0,0,1,.21,1.7,1.7,0,0,0,1.26-.46,1.63,1.63,0,0,0,.45-1.21,1.44,1.44,0,0,0-.43-1.19,2,2,0,0,0-1.26-.34h-.64l.14-.91h.44a1.59,1.59,0,0,0,1.1-.39,1.45,1.45,0,0,0,.44-1.11,1.23,1.23,0,0,0-.38-.95,1.46,1.46,0,0,0-1-.35,2.27,2.27,0,0,0-.91.18,3,3,0,0,0-.84.58l-.62-.7a3.52,3.52,0,0,1,2.44-1A2.83,2.83,0,0,1,343.89,159Z" style="fill:#7a40c6"/><path d="M346.69,163.87v-1h3.61v1Z" style="fill:#7a40c6"/><path d="M357.47,157.94v9.42h-1l-.12-.93a2.41,2.41,0,0,1-.82.8,2.23,2.23,0,0,1-1.11.28,2.16,2.16,0,0,1-1.87-.94,4.27,4.27,0,0,1-.67-2.54,4.94,4.94,0,0,1,.32-1.83,2.8,2.8,0,0,1,.92-1.26,2.26,2.26,0,0,1,1.4-.45,2.39,2.39,0,0,1,1.81.83V157.8Zm-1.91,8.39a2.87,2.87,0,0,0,.74-.74V162.3a2.56,2.56,0,0,0-.71-.66,1.61,1.61,0,0,0-.85-.22,1.33,1.33,0,0,0-1.2.65,3.51,3.51,0,0,0-.43,1.94,3.72,3.72,0,0,0,.4,1.94,1.25,1.25,0,0,0,1.13.63A1.63,1.63,0,0,0,355.56,166.33Z" style="fill:#7a40c6"/><path d="M361,157.64a.82.82,0,0,1,.23.58.78.78,0,0,1-.23.57.81.81,0,0,1-.6.22.78.78,0,0,1-.58-.22.74.74,0,0,1-.23-.57.77.77,0,0,1,.81-.8A.81.81,0,0,1,361,157.64Zm0,3v6.72h-1.17v-6.72Z" style="fill:#7a40c6"/><path d="M368.24,166.4a.85.85,0,0,0,.42.3l-.27.81a1.78,1.78,0,0,1-.84-.29,1.33,1.33,0,0,1-.47-.71,2.25,2.25,0,0,1-2,1,2.11,2.11,0,0,1-1.57-.56,2,2,0,0,1-.57-1.46,1.91,1.91,0,0,1,.77-1.65,3.6,3.6,0,0,1,2.18-.57h1v-.5a1.32,1.32,0,0,0-.34-1,1.58,1.58,0,0,0-1.06-.3,5.87,5.87,0,0,0-1.81.35l-.29-.85a6.67,6.67,0,0,1,2.32-.46,2.4,2.4,0,0,1,1.77.58,2.23,2.23,0,0,1,.59,1.65v3.07A1,1,0,0,0,368.24,166.4Zm-1.32-.81v-1.54H366c-1.24,0-1.86.45-1.86,1.37a1.26,1.26,0,0,0,.3.91,1.14,1.14,0,0,0,.86.3A1.74,1.74,0,0,0,366.92,165.59Z" style="fill:#7a40c6"/><path d="M374.34,160.64v.89l-3.51,4.85h3.55l-.14,1h-4.73v-.88l3.49-4.85h-3.2v-1Z" style="fill:#7a40c6"/><path d="M377.14,157.64a.78.78,0,0,1,.23.58.74.74,0,0,1-.23.57.81.81,0,0,1-.6.22.79.79,0,0,1-.58-.22.74.74,0,0,1-.23-.57.78.78,0,0,1,.23-.58.79.79,0,0,1,.58-.22A.81.81,0,0,1,377.14,157.64Zm0,3v6.72H376v-6.72Z" style="fill:#7a40c6"/><path d="M385,157.94v9.42h-1l-.11-.93a2.53,2.53,0,0,1-.83.8,2.33,2.33,0,0,1-3-.66,4.35,4.35,0,0,1-.67-2.54,4.94,4.94,0,0,1,.32-1.83,2.8,2.8,0,0,1,.92-1.26,2.28,2.28,0,0,1,1.4-.45,2.39,2.39,0,0,1,1.81.83V157.8ZM383,166.33a2.73,2.73,0,0,0,.74-.74V162.3a2.56,2.56,0,0,0-.71-.66,1.61,1.61,0,0,0-.85-.22,1.35,1.35,0,0,0-1.2.65,3.6,3.6,0,0,0-.43,1.94A3.82,3.82,0,0,0,381,166a1.25,1.25,0,0,0,1.13.63A1.6,1.6,0,0,0,383,166.33Z" style="fill:#7a40c6"/><path d="M391.93,166.4a1,1,0,0,0,.42.3l-.26.81a1.78,1.78,0,0,1-.84-.29,1.34,1.34,0,0,1-.48-.71,2.24,2.24,0,0,1-2,1,2.1,2.1,0,0,1-1.56-.56,2.14,2.14,0,0,1,.19-3.11,3.66,3.66,0,0,1,2.19-.57h1v-.5a1.32,1.32,0,0,0-.34-1,1.58,1.58,0,0,0-1.06-.3,5.81,5.81,0,0,0-1.81.35l-.29-.85a6.63,6.63,0,0,1,2.32-.46,2.4,2.4,0,0,1,1.77.58,2.23,2.23,0,0,1,.58,1.65v3.07A1.1,1.1,0,0,0,391.93,166.4Zm-1.31-.81v-1.54h-.88c-1.24,0-1.86.45-1.86,1.37a1.26,1.26,0,0,0,.3.91,1.14,1.14,0,0,0,.86.3A1.74,1.74,0,0,0,390.62,165.59Z" style="fill:#7a40c6"/><path d="M435.43,64.11a.85.85,0,0,0,.42.3l-.27.81a1.78,1.78,0,0,1-.84-.29,1.33,1.33,0,0,1-.48-.72,2.23,2.23,0,0,1-2,1,2.1,2.1,0,0,1-1.56-.56,2,2,0,0,1-.58-1.46,1.94,1.94,0,0,1,.77-1.65,3.66,3.66,0,0,1,2.19-.57h1v-.5a1.29,1.29,0,0,0-.34-1,1.58,1.58,0,0,0-1.06-.31,5.92,5.92,0,0,0-1.81.36l-.29-.85a6.63,6.63,0,0,1,2.32-.46,2.4,2.4,0,0,1,1.77.58,2.2,2.2,0,0,1,.58,1.65V63.5A1,1,0,0,0,435.43,64.11Zm-1.55-9.25.53,1-2.71,1.1-.35-.63Zm.23,8.44V61.75h-.88q-1.86,0-1.86,1.38a1.26,1.26,0,0,0,.3.91,1.14,1.14,0,0,0,.86.3A1.75,1.75,0,0,0,434.11,63.3Z" style="fill:#7a40c6"/><path d="M437.9,64.83a1.5,1.5,0,0,1-.37-1.09V55.65l1.17-.14v8.21a.76.76,0,0,0,.09.41.42.42,0,0,0,.33.12,1.14,1.14,0,0,0,.43-.07l.31.81a1.94,1.94,0,0,1-.93.23A1.37,1.37,0,0,1,437.9,64.83Z" style="fill:#7a40c6"/><path d="M445.06,58.37a3,3,0,0,1,.95.55l-.56.74a2.93,2.93,0,0,0-.69-.37,2.27,2.27,0,0,0-.75-.12,1.46,1.46,0,0,0-1.27.65,3.36,3.36,0,0,0-.45,1.92,3.15,3.15,0,0,0,.45,1.88,1.46,1.46,0,0,0,1.27.61,2.15,2.15,0,0,0,.73-.12,3.57,3.57,0,0,0,.74-.39l.53.76a3.19,3.19,0,0,1-2.05.74,2.67,2.67,0,0,1-2.15-.92,3.77,3.77,0,0,1-.78-2.53,4.57,4.57,0,0,1,.36-1.88,2.85,2.85,0,0,1,1-1.25A2.77,2.77,0,0,1,444,58.2,3.25,3.25,0,0,1,445.06,58.37Z" style="fill:#7a40c6"/><path d="M452.27,64.11a.85.85,0,0,0,.42.3l-.27.81a1.78,1.78,0,0,1-.84-.29,1.32,1.32,0,0,1-.47-.72,2.24,2.24,0,0,1-2,1,2.13,2.13,0,0,1-1.57-.56A2,2,0,0,1,447,63.2a1.91,1.91,0,0,1,.77-1.65,3.6,3.6,0,0,1,2.18-.57h1v-.5a1.29,1.29,0,0,0-.35-1,1.57,1.57,0,0,0-1.05-.31,5.81,5.81,0,0,0-1.81.36l-.3-.85a6.67,6.67,0,0,1,2.32-.46,2.4,2.4,0,0,1,1.77.58,2.2,2.2,0,0,1,.59,1.65V63.5A1.12,1.12,0,0,0,452.27,64.11ZM451,63.3V61.75h-.88q-1.86,0-1.86,1.38a1.26,1.26,0,0,0,.29.91,1.16,1.16,0,0,0,.87.3A1.77,1.77,0,0,0,451,63.3Z" style="fill:#7a40c6"/><path d="M454.75,64.83a1.46,1.46,0,0,1-.38-1.09V55.65l1.17-.14v8.21a.67.67,0,0,0,.1.41.38.38,0,0,0,.32.12,1.23,1.23,0,0,0,.44-.07l.3.81a1.94,1.94,0,0,1-.93.23A1.35,1.35,0,0,1,454.75,64.83Z" style="fill:#7a40c6"/><path d="M459.53,55.35a.82.82,0,0,1,.23.58.78.78,0,0,1-.23.57.85.85,0,0,1-.6.22.82.82,0,0,1-.58-.22.74.74,0,0,1-.23-.57.77.77,0,0,1,.81-.8A.81.81,0,0,1,459.53,55.35Zm0,3v6.72h-1.17V58.35Z" style="fill:#7a40c6"/><path d="M185,174.86a4.24,4.24,0,0,1,1.21.77l-.66.74a3.76,3.76,0,0,0-1-.58,2.88,2.88,0,0,0-1-.18,1.94,1.94,0,0,0-1.14.31,1.08,1.08,0,0,0-.44.94,1.29,1.29,0,0,0,.15.64,1.41,1.41,0,0,0,.57.48,7.26,7.26,0,0,0,1.2.46,8.65,8.65,0,0,1,1.38.54,2.45,2.45,0,0,1,.88.81,2.32,2.32,0,0,1,.34,1.31,2.45,2.45,0,0,1-.38,1.35,2.51,2.51,0,0,1-1.08.92,3.93,3.93,0,0,1-1.68.33,4.12,4.12,0,0,1-3-1.13l.67-.74a3.84,3.84,0,0,0,1.08.65,3.16,3.16,0,0,0,1.22.23,2.15,2.15,0,0,0,1.35-.41,1.34,1.34,0,0,0,.54-1.16,1.42,1.42,0,0,0-.17-.72,1.46,1.46,0,0,0-.57-.52,6.15,6.15,0,0,0-1.16-.46,5.2,5.2,0,0,1-2-1,2,2,0,0,1-.62-1.55,2.11,2.11,0,0,1,.35-1.19,2.34,2.34,0,0,1,1-.82,3.45,3.45,0,0,1,1.43-.29A4,4,0,0,1,185,174.86Z" style="fill:#7a40c6"/><path d="M193.2,183.55h-1l-.09-1.05a2.57,2.57,0,0,1-.88.91,2.31,2.31,0,0,1-1.21.29,1.81,1.81,0,0,1-1.38-.53,2.17,2.17,0,0,1-.5-1.52v-4.82h1.18v4.69a1.57,1.57,0,0,0,.24,1,1,1,0,0,0,.79.28,2,2,0,0,0,1.68-1.16v-4.79h1.17Z" style="fill:#7a40c6"/><path d="M195.83,183.31a1.5,1.5,0,0,1-.37-1.09v-8.09l1.17-.14v8.21a.67.67,0,0,0,.1.41.38.38,0,0,0,.32.12,1.14,1.14,0,0,0,.43-.07l.31.81a1.83,1.83,0,0,1-.93.23A1.37,1.37,0,0,1,195.83,183.31Z" style="fill:#7a40c6"/><path d="M201,175.17a1,1,0,0,0-.23.73v.93h1.63l-.12.9h-1.51v5.82h-1.17v-5.82h-1.2v-.9h1.2v-.92a1.82,1.82,0,0,1,.56-1.39,2.09,2.09,0,0,1,1.54-.53,3.4,3.4,0,0,1,.82.08,4.84,4.84,0,0,1,.79.26l-.37.86a2.84,2.84,0,0,0-1.17-.26A1,1,0,0,0,201,175.17Z" style="fill:#7a40c6"/><path d="M208.83,177.62a3.89,3.89,0,0,1,.78,2.56,4.66,4.66,0,0,1-.35,1.85,2.8,2.8,0,0,1-1,1.23,2.88,2.88,0,0,1-1.6.44,2.73,2.73,0,0,1-2.21-.94,3.89,3.89,0,0,1-.78-2.56,4.46,4.46,0,0,1,.35-1.85,2.78,2.78,0,0,1,1-1.23,2.85,2.85,0,0,1,1.62-.44A2.7,2.7,0,0,1,208.83,177.62Zm-3.94,2.58c0,1.7.57,2.56,1.73,2.56s1.73-.86,1.73-2.58-.57-2.56-1.72-2.56S204.89,178.48,204.89,180.2Z" style="fill:#7a40c6"/><path d="M216,177.22a2.1,2.1,0,0,1,.52,1.51v4.82h-1.17v-4.66a1.46,1.46,0,0,0-.27-1,1,1,0,0,0-.79-.3,1.54,1.54,0,0,0-.94.31,3.22,3.22,0,0,0-.77.88v4.77h-1.17v-6.72h1l.11,1a2.71,2.71,0,0,1,.88-.84,2.32,2.32,0,0,1,1.17-.3A1.88,1.88,0,0,1,216,177.22Z" style="fill:#7a40c6"/><path d="M220,173.83a.78.78,0,0,1,.23.58.7.7,0,0,1-.23.56.87.87,0,0,1-1.18,0,.74.74,0,0,1-.23-.56.82.82,0,0,1,.23-.58.87.87,0,0,1,1.18,0Zm0,3v6.72h-1.17v-6.72Z" style="fill:#7a40c6"/><path d="M222.91,183.31a1.5,1.5,0,0,1-.38-1.09v-8.09l1.17-.14v8.21a.75.75,0,0,0,.1.41.39.39,0,0,0,.33.12,1.18,1.18,0,0,0,.43-.07l.3.81a1.83,1.83,0,0,1-.93.23A1.35,1.35,0,0,1,222.91,183.31Z" style="fill:#7a40c6"/><path d="M230.06,176.85a3.13,3.13,0,0,1,1,.55l-.56.74a2.8,2.8,0,0,0-.7-.37,2.17,2.17,0,0,0-.74-.12,1.44,1.44,0,0,0-1.27.65,3.36,3.36,0,0,0-.45,1.92,3.24,3.24,0,0,0,.44,1.88,1.49,1.49,0,0,0,1.28.61,2.09,2.09,0,0,0,.72-.12,3.34,3.34,0,0,0,.74-.39l.54.76a3.15,3.15,0,0,1-2.05.74,2.68,2.68,0,0,1-2.15-.92,3.77,3.77,0,0,1-.78-2.53,4.57,4.57,0,0,1,.35-1.88,2.94,2.94,0,0,1,1-1.25,2.73,2.73,0,0,1,1.56-.44A3.16,3.16,0,0,1,230.06,176.85Z" style="fill:#7a40c6"/><path d="M232.92,183.31a1.5,1.5,0,0,1-.37-1.09v-8.09l1.17-.14v8.21a.76.76,0,0,0,.09.41.42.42,0,0,0,.33.12,1.14,1.14,0,0,0,.43-.07l.31.81a1.83,1.83,0,0,1-.93.23A1.37,1.37,0,0,1,232.92,183.31Z" style="fill:#7a40c6"/><path d="M241.25,177.62a3.84,3.84,0,0,1,.79,2.56,4.49,4.49,0,0,1-.36,1.85,2.78,2.78,0,0,1-1,1.23,2.92,2.92,0,0,1-1.61.44,2.71,2.71,0,0,1-2.2-.94,3.84,3.84,0,0,1-.79-2.56,4.46,4.46,0,0,1,.36-1.85,2.72,2.72,0,0,1,1-1.23,2.85,2.85,0,0,1,1.62-.44A2.68,2.68,0,0,1,241.25,177.62Zm-3.94,2.58c0,1.7.58,2.56,1.73,2.56s1.74-.86,1.74-2.58-.58-2.56-1.72-2.56S237.31,178.48,237.31,180.2Z" style="fill:#7a40c6"/><path d="M247.45,176.75l-.21,1.15a2.53,2.53,0,0,0-.59-.08,1.27,1.27,0,0,0-1,.46,3.43,3.43,0,0,0-.59,1.43v3.84h-1.18v-6.72h1l.11,1.36a2.5,2.5,0,0,1,.73-1.13,1.6,1.6,0,0,1,1.07-.38A2.73,2.73,0,0,1,247.45,176.75Z" style="fill:#7a40c6"/><path d="M253.84,180.59h-4.28a2.55,2.55,0,0,0,.56,1.63,1.62,1.62,0,0,0,1.25.53,2.86,2.86,0,0,0,.89-.14,4.15,4.15,0,0,0,.85-.45l.51.7a3.69,3.69,0,0,1-2.34.84,2.72,2.72,0,0,1-2.19-.92,3.76,3.76,0,0,1-.78-2.52,4.9,4.9,0,0,1,.33-1.86,3,3,0,0,1,1-1.27,2.77,2.77,0,0,1,3.54.43,3.78,3.78,0,0,1,.71,2.43C253.86,180.19,253.85,180.39,253.84,180.59Zm-1.14-.94a2.51,2.51,0,0,0-.39-1.52,1.4,1.4,0,0,0-1.19-.52c-1,0-1.48.7-1.56,2.11h3.14Z" style="fill:#7a40c6"/><path d="M259,183.24a2.54,2.54,0,0,1-1.5.46,1.76,1.76,0,0,1-1.33-.49,2,2,0,0,1-.48-1.42v-4.06h-1.17v-.9h1.17v-1.52l1.17-.14v1.66h1.59l-.12.9h-1.47v4a1.2,1.2,0,0,0,.19.76.74.74,0,0,0,.61.23,1.94,1.94,0,0,0,.9-.27Z" style="fill:#7a40c6"/><path d="M265,177.62a3.9,3.9,0,0,1,.79,2.56,4.49,4.49,0,0,1-.36,1.85,2.78,2.78,0,0,1-1,1.23,2.92,2.92,0,0,1-1.61.44,2.7,2.7,0,0,1-2.2-.94,3.84,3.84,0,0,1-.79-2.56,4.62,4.62,0,0,1,.35-1.85,2.8,2.8,0,0,1,1-1.23,2.84,2.84,0,0,1,1.61-.44A2.69,2.69,0,0,1,265,177.62Zm-3.94,2.58c0,1.7.58,2.56,1.73,2.56s1.73-.86,1.73-2.58-.57-2.56-1.72-2.56S261.1,178.48,261.1,180.2Z" style="fill:#7a40c6"/><path d="M276.32,174.13v9.42h-1l-.11-.93a2.41,2.41,0,0,1-.83.79,2.09,2.09,0,0,1-1.11.29,2.16,2.16,0,0,1-1.87-.94,4.37,4.37,0,0,1-.66-2.54,5,5,0,0,1,.31-1.84,2.9,2.9,0,0,1,.92-1.25,2.28,2.28,0,0,1,1.4-.45,2.39,2.39,0,0,1,1.81.83V174Zm-1.91,8.39a2.73,2.73,0,0,0,.74-.74v-3.29a2.43,2.43,0,0,0-.71-.66,1.6,1.6,0,0,0-.84-.22,1.36,1.36,0,0,0-1.21.65,3.61,3.61,0,0,0-.42,1.94,3.77,3.77,0,0,0,.39,1.93,1.26,1.26,0,0,0,1.14.64A1.59,1.59,0,0,0,274.41,182.52Z" style="fill:#7a40c6"/><path d="M283.69,180.59h-4.28a2.55,2.55,0,0,0,.56,1.63,1.62,1.62,0,0,0,1.25.53,2.81,2.81,0,0,0,.89-.14,4.15,4.15,0,0,0,.85-.45l.51.7a3.69,3.69,0,0,1-2.34.84,2.74,2.74,0,0,1-2.19-.92,3.76,3.76,0,0,1-.78-2.52,4.71,4.71,0,0,1,.34-1.86,2.89,2.89,0,0,1,1-1.27,2.76,2.76,0,0,1,3.53.43,3.72,3.72,0,0,1,.71,2.43C283.71,180.19,283.71,180.39,283.69,180.59Zm-1.13-.94a2.5,2.5,0,0,0-.4-1.52,1.39,1.39,0,0,0-1.19-.52c-1,0-1.48.7-1.56,2.11h3.15Z" style="fill:#7a40c6"/><path d="M179,195.36a4.69,4.69,0,0,1,.6,2.58,4.28,4.28,0,0,1-.69,2.55,2.25,2.25,0,0,1-1.95,1,2.15,2.15,0,0,1-1.75-.76v3.18L174,204v-9.44h1l.09.91a2.57,2.57,0,0,1,.89-.79,2.35,2.35,0,0,1,1.1-.27A2.07,2.07,0,0,1,179,195.36Zm-.66,2.58c0-1.71-.51-2.57-1.52-2.57a1.53,1.53,0,0,0-.9.29,3,3,0,0,0-.71.75v3.28a1.83,1.83,0,0,0,.63.61,1.74,1.74,0,0,0,.84.21C177.76,200.51,178.31,199.65,178.31,197.94Z" style="fill:#7a40c6"/><path d="M181,197.82v-1h3.61v1Z" style="fill:#7a40c6"/><path d="M191.27,200.35a.85.85,0,0,0,.42.3l-.27.81a1.78,1.78,0,0,1-.84-.29,1.33,1.33,0,0,1-.47-.71,2.25,2.25,0,0,1-2,1,2.11,2.11,0,0,1-1.57-.56,2,2,0,0,1-.57-1.46,1.91,1.91,0,0,1,.77-1.65,3.6,3.6,0,0,1,2.18-.57h1v-.5a1.29,1.29,0,0,0-.34-1,1.58,1.58,0,0,0-1.06-.31,5.92,5.92,0,0,0-1.81.36l-.29-.85a6.67,6.67,0,0,1,2.32-.46,2.4,2.4,0,0,1,1.77.58,2.22,2.22,0,0,1,.59,1.65v3.07A1,1,0,0,0,191.27,200.35Zm-1.32-.81V198h-.87q-1.86,0-1.86,1.38a1.26,1.26,0,0,0,.29.91,1.15,1.15,0,0,0,.87.3A1.74,1.74,0,0,0,190,199.54Z" style="fill:#7a40c6"/><path d="M197,194.61a2.91,2.91,0,0,1,1,.55l-.56.74a2.93,2.93,0,0,0-.69-.37,2.27,2.27,0,0,0-.75-.12,1.45,1.45,0,0,0-1.27.65,3.36,3.36,0,0,0-.45,1.92,3.15,3.15,0,0,0,.45,1.88,1.46,1.46,0,0,0,1.27.61,2.15,2.15,0,0,0,.73-.12,3.52,3.52,0,0,0,.73-.39l.54.76a3.19,3.19,0,0,1-2.05.74,2.68,2.68,0,0,1-2.15-.91A3.82,3.82,0,0,1,193,198a4.57,4.57,0,0,1,.36-1.88,2.85,2.85,0,0,1,1-1.25,2.77,2.77,0,0,1,1.56-.44A3.16,3.16,0,0,1,197,194.61Z" style="fill:#7a40c6"/><path d="M204.57,198.35h-4.28a2.63,2.63,0,0,0,.56,1.63,1.62,1.62,0,0,0,1.25.53,2.81,2.81,0,0,0,.89-.14,3.91,3.91,0,0,0,.85-.45l.51.7a3.69,3.69,0,0,1-2.34.84,2.73,2.73,0,0,1-2.19-.91A3.81,3.81,0,0,1,199,198a4.75,4.75,0,0,1,.34-1.86,2.8,2.8,0,0,1,1-1.26,2.41,2.41,0,0,1,1.48-.46,2.48,2.48,0,0,1,2,.88,3.7,3.7,0,0,1,.71,2.43C204.59,198,204.59,198.15,204.57,198.35Zm-1.14-.94a2.51,2.51,0,0,0-.39-1.52,1.39,1.39,0,0,0-1.19-.52c-1,0-1.48.7-1.56,2.11h3.14Z" style="fill:#7a40c6"/><path d="M209.75,201a2.54,2.54,0,0,1-1.5.46,1.76,1.76,0,0,1-1.33-.49,2,2,0,0,1-.48-1.42V195.5h-1.17v-.91h1.17v-1.52l1.17-.14v1.66h1.6l-.13.91h-1.47v4a1.26,1.26,0,0,0,.19.76.76.76,0,0,0,.62.23,1.91,1.91,0,0,0,.89-.27Z" style="fill:#7a40c6"/><path d="M215.72,200.35a.85.85,0,0,0,.42.3l-.27.81a1.78,1.78,0,0,1-.84-.29,1.33,1.33,0,0,1-.47-.71,2.25,2.25,0,0,1-2,1,2.11,2.11,0,0,1-1.57-.56,2,2,0,0,1-.57-1.46,1.91,1.91,0,0,1,.77-1.65,3.6,3.6,0,0,1,2.18-.57h1v-.5a1.29,1.29,0,0,0-.34-1,1.58,1.58,0,0,0-1.06-.31,5.92,5.92,0,0,0-1.81.36l-.29-.85a6.67,6.67,0,0,1,2.32-.46A2.4,2.4,0,0,1,215,195a2.22,2.22,0,0,1,.59,1.65v3.07A1,1,0,0,0,215.72,200.35Zm-1.32-.81V198h-.87c-1.24,0-1.87.46-1.87,1.38a1.26,1.26,0,0,0,.3.91,1.14,1.14,0,0,0,.86.3A1.74,1.74,0,0,0,214.4,199.54Z" style="fill:#7a40c6"/><path d="M226,195a2.17,2.17,0,0,1,.49,1.5v4.82h-1.17v-4.65c0-.87-.31-1.3-.94-1.3a1.27,1.27,0,0,0-.84.28,3.85,3.85,0,0,0-.74.9v4.77h-1.17v-4.65c0-.87-.32-1.3-.94-1.3a1.26,1.26,0,0,0-.86.29,3.72,3.72,0,0,0-.72.89v4.77h-1.18v-6.72h1l.1,1a2.26,2.26,0,0,1,1.94-1.13,1.71,1.71,0,0,1,1.06.32,1.77,1.77,0,0,1,.63.89,3.41,3.41,0,0,1,.87-.9,2,2,0,0,1,1.13-.31A1.7,1.7,0,0,1,226,195Z" style="fill:#7a40c6"/><path d="M230.28,191.59a.82.82,0,0,1,.23.58.78.78,0,0,1-.23.57.85.85,0,0,1-.6.22.86.86,0,0,1-.59-.22.77.77,0,0,1-.22-.57.84.84,0,0,1,1.41-.58Zm0,3v6.72h-1.17v-6.72Z" style="fill:#7a40c6"/><path d="M238.09,191.89v9.42h-1l-.12-.93a2.5,2.5,0,0,1-.82.8,2.23,2.23,0,0,1-1.11.28,2.16,2.16,0,0,1-1.87-.94,4.27,4.27,0,0,1-.67-2.54,4.94,4.94,0,0,1,.32-1.83,2.8,2.8,0,0,1,.92-1.26,2.26,2.26,0,0,1,1.4-.45,2.39,2.39,0,0,1,1.81.83v-3.52Zm-1.91,8.39a2.87,2.87,0,0,0,.74-.74v-3.29a2.56,2.56,0,0,0-.71-.66,1.61,1.61,0,0,0-.85-.22,1.34,1.34,0,0,0-1.2.65,3.51,3.51,0,0,0-.43,1.94,3.66,3.66,0,0,0,.4,1.93,1.24,1.24,0,0,0,1.13.64A1.63,1.63,0,0,0,236.18,200.28Z" style="fill:#7a40c6"/><path d="M245.13,195.38a3.89,3.89,0,0,1,.78,2.56,4.66,4.66,0,0,1-.35,1.85,2.76,2.76,0,0,1-2.64,1.67,2.72,2.72,0,0,1-2.21-.94,3.9,3.9,0,0,1-.79-2.56,4.46,4.46,0,0,1,.36-1.85,2.78,2.78,0,0,1,1-1.23,2.85,2.85,0,0,1,1.62-.44A2.7,2.7,0,0,1,245.13,195.38ZM241.19,198c0,1.7.57,2.56,1.73,2.56s1.73-.86,1.73-2.58-.57-2.56-1.72-2.56S241.19,196.24,241.19,198Z" style="fill:#7a40c6"/><path d="M252.64,195.36a4.32,4.32,0,0,1,.67,2.58,5.05,5.05,0,0,1-.31,1.85,2.78,2.78,0,0,1-.92,1.23,2.27,2.27,0,0,1-1.4.44,2.24,2.24,0,0,1-1.79-.89l-.11.74h-1v-9.42l1.17-.14v3.68a2.25,2.25,0,0,1,1.9-1A2.15,2.15,0,0,1,252.64,195.36Zm-1,4.54a3.4,3.4,0,0,0,.44-2,3.57,3.57,0,0,0-.41-2,1.3,1.3,0,0,0-1.15-.6,1.9,1.9,0,0,0-1.57,1v3.22a2.16,2.16,0,0,0,.65.66,1.57,1.57,0,0,0,.83.24A1.4,1.4,0,0,0,251.61,199.9Z" style="fill:#7a40c6"/><path d="M260.26,198.35H256a2.63,2.63,0,0,0,.56,1.63,1.62,1.62,0,0,0,1.25.53,2.81,2.81,0,0,0,.89-.14,4.15,4.15,0,0,0,.85-.45l.51.7a3.69,3.69,0,0,1-2.34.84,2.73,2.73,0,0,1-2.19-.91,3.81,3.81,0,0,1-.78-2.53,4.75,4.75,0,0,1,.34-1.86,2.8,2.8,0,0,1,1-1.26,2.41,2.41,0,0,1,1.48-.46,2.48,2.48,0,0,1,2.05.88,3.7,3.7,0,0,1,.71,2.43C260.28,198,260.28,198.15,260.26,198.35Zm-1.13-.94a2.5,2.5,0,0,0-.4-1.52,1.38,1.38,0,0,0-1.18-.52c-1,0-1.49.7-1.57,2.11h3.15Z" style="fill:#7a40c6"/><path d="M266.65,195a2.1,2.1,0,0,1,.51,1.5v4.82H266v-4.65a1.47,1.47,0,0,0-.27-1,1,1,0,0,0-.79-.29,1.55,1.55,0,0,0-.94.3,3.38,3.38,0,0,0-.76.88v4.77h-1.17v-6.72h1l.1,1a2.85,2.85,0,0,1,.89-.84,2.32,2.32,0,0,1,1.17-.3A1.86,1.86,0,0,1,266.65,195Z" style="fill:#7a40c6"/><path d="M273.36,194.59v.89l-3.51,4.85h3.54l-.14,1h-4.72v-.88l3.49-4.85h-3.2v-1Z" style="fill:#7a40c6"/><path d="M280,198.35h-4.28a2.63,2.63,0,0,0,.56,1.63,1.64,1.64,0,0,0,1.25.53,2.81,2.81,0,0,0,.89-.14,4.2,4.2,0,0,0,.86-.45l.51.7a3.74,3.74,0,0,1-2.35.84,2.71,2.71,0,0,1-2.18-.91,3.76,3.76,0,0,1-.79-2.53,4.93,4.93,0,0,1,.34-1.86,3,3,0,0,1,1-1.26,2.41,2.41,0,0,1,1.48-.46,2.47,2.47,0,0,1,2,.88,3.71,3.71,0,0,1,.72,2.43Q280.06,198,280,198.35Zm-1.13-.94a2.44,2.44,0,0,0-.4-1.52,1.37,1.37,0,0,0-1.18-.52c-1,0-1.48.7-1.57,2.11h3.15Z" style="fill:#7a40c6"/><path d="M286.42,195a2.06,2.06,0,0,1,.52,1.5v4.82h-1.17v-4.65a1.47,1.47,0,0,0-.27-1,1,1,0,0,0-.79-.29,1.53,1.53,0,0,0-.94.3,3.22,3.22,0,0,0-.77.88v4.77h-1.17v-6.72h1l.1,1a2.82,2.82,0,0,1,.88-.84,2.34,2.34,0,0,1,1.17-.3A1.85,1.85,0,0,1,286.42,195Z" style="fill:#7a40c6"/><path d="M293.91,195.38a3.84,3.84,0,0,1,.79,2.56,4.49,4.49,0,0,1-.36,1.85,2.78,2.78,0,0,1-1,1.23,2.84,2.84,0,0,1-1.61.44,2.71,2.71,0,0,1-2.2-.94,3.84,3.84,0,0,1-.79-2.56,4.46,4.46,0,0,1,.36-1.85,2.72,2.72,0,0,1,1-1.23,2.85,2.85,0,0,1,1.62-.44A2.68,2.68,0,0,1,293.91,195.38ZM290,198c0,1.7.58,2.56,1.73,2.56s1.74-.86,1.74-2.58-.58-2.56-1.72-2.56S290,196.24,290,198Z" style="fill:#7a40c6"/><path d="M585.36,148.89l-.66-2.2h-3.33l-.66,2.2h-1.22l2.82-8.78h1.52l2.81,8.78Zm-3.69-3.18h2.74L583,141.12Z" style="fill:#7a40c6"/><path d="M591.47,142.2a2.8,2.8,0,0,1,.95.55l-.56.74a3,3,0,0,0-.69-.38,2.27,2.27,0,0,0-.75-.12,1.47,1.47,0,0,0-1.27.65,3.42,3.42,0,0,0-.45,1.93,3.15,3.15,0,0,0,.45,1.88,1.48,1.48,0,0,0,1.27.6,2.15,2.15,0,0,0,.73-.12,3.84,3.84,0,0,0,.74-.39l.53.77a3.19,3.19,0,0,1-2,.74,2.7,2.7,0,0,1-2.15-.92,3.8,3.8,0,0,1-.78-2.54,4.52,4.52,0,0,1,.36-1.87,2.8,2.8,0,0,1,1-1.25,2.7,2.7,0,0,1,1.56-.45A3.25,3.25,0,0,1,591.47,142.2Z" style="fill:#7a40c6"/><path d="M599.06,145.94h-4.28a2.63,2.63,0,0,0,.56,1.63,1.62,1.62,0,0,0,1.25.52,2.56,2.56,0,0,0,.89-.14,3.46,3.46,0,0,0,.85-.44l.51.7a3.69,3.69,0,0,1-2.34.84,2.74,2.74,0,0,1-2.19-.92,3.76,3.76,0,0,1-.78-2.52,4.71,4.71,0,0,1,.34-1.86,2.83,2.83,0,0,1,1-1.27,2.48,2.48,0,0,1,1.48-.46,2.51,2.51,0,0,1,2,.88,3.75,3.75,0,0,1,.71,2.44C599.08,145.53,599.08,145.73,599.06,145.94Zm-1.13-.95a2.49,2.49,0,0,0-.4-1.51,1.39,1.39,0,0,0-1.18-.53c-1,0-1.49.71-1.57,2.12h3.15Z" style="fill:#7a40c6"/><path d="M604.24,148.59a2.61,2.61,0,0,1-1.5.46,1.8,1.8,0,0,1-1.33-.49,2,2,0,0,1-.48-1.43v-4h-1.17v-.9h1.17v-1.52l1.17-.14v1.66h1.6l-.13.9H602.1v4a1.24,1.24,0,0,0,.19.76.73.73,0,0,0,.62.24,1.91,1.91,0,0,0,.89-.27Z" style="fill:#7a40c6"/><path d="M606.72,139.18a.79.79,0,0,1,.23.57.78.78,0,0,1-.23.57.85.85,0,0,1-.6.23.81.81,0,0,1-.59-.23.78.78,0,0,1-.23-.57.79.79,0,0,1,.23-.57.81.81,0,0,1,.59-.23A.85.85,0,0,1,606.72,139.18Zm0,3v6.71h-1.18v-6.71Z" style="fill:#7a40c6"/><path d="M609.64,148.66a1.5,1.5,0,0,1-.38-1.09v-8.1l1.18-.14v8.21a.71.71,0,0,0,.09.41.38.38,0,0,0,.33.13,1.18,1.18,0,0,0,.43-.08l.31.82a1.94,1.94,0,0,1-.93.23A1.36,1.36,0,0,1,609.64,148.66Z" style="fill:#7a40c6"/><path d="M616.31,142.21a3.58,3.58,0,0,1,1,.58l-.49.74a4.25,4.25,0,0,0-.88-.44,2.74,2.74,0,0,0-.87-.14,1.5,1.5,0,0,0-.9.24.75.75,0,0,0-.33.64.73.73,0,0,0,.31.64,3.54,3.54,0,0,0,1.13.45,4,4,0,0,1,1.67.76,1.69,1.69,0,0,1,.56,1.33,1.72,1.72,0,0,1-.78,1.52,3.33,3.33,0,0,1-1.88.52,3.75,3.75,0,0,1-2.53-.88l.62-.71a3.07,3.07,0,0,0,1.89.65,1.81,1.81,0,0,0,1-.28.86.86,0,0,0,.39-.75,1,1,0,0,0-.14-.55,1.17,1.17,0,0,0-.49-.37,5.94,5.94,0,0,0-1-.34,3.55,3.55,0,0,1-1.55-.75,1.6,1.6,0,0,1-.48-1.2,1.58,1.58,0,0,1,.32-1,2,2,0,0,1,.86-.66,3.08,3.08,0,0,1,1.24-.24A4,4,0,0,1,616.31,142.21Z" style="fill:#7a40c6"/><path d="M623.9,148.89h-1l-.09-1a2.57,2.57,0,0,1-.88.91,2.41,2.41,0,0,1-1.21.29,1.78,1.78,0,0,1-1.38-.54,2.13,2.13,0,0,1-.49-1.51v-4.82H620v4.69a1.51,1.51,0,0,0,.24,1,1,1,0,0,0,.79.29,2,2,0,0,0,1.68-1.16v-4.79h1.17Z" style="fill:#7a40c6"/><path d="M626.53,148.66a1.5,1.5,0,0,1-.37-1.09v-8.1l1.17-.14v8.21a.63.63,0,0,0,.1.41.36.36,0,0,0,.32.13,1.14,1.14,0,0,0,.43-.08l.31.82a1.94,1.94,0,0,1-.93.23A1.39,1.39,0,0,1,626.53,148.66Z" style="fill:#7a40c6"/><path d="M631.66,140.51a1,1,0,0,0-.23.74v.93h1.63l-.12.9h-1.51v5.81h-1.17v-5.81h-1.2v-.9h1.2v-.92a1.87,1.87,0,0,1,.55-1.4,2.17,2.17,0,0,1,1.55-.53,3.37,3.37,0,0,1,.82.09,4,4,0,0,1,.79.26l-.37.85a2.83,2.83,0,0,0-1.17-.25A1.09,1.09,0,0,0,631.66,140.51Z" style="fill:#7a40c6"/><path d="M639.47,147.93a1,1,0,0,0,.42.3l-.26.82a1.75,1.75,0,0,1-.85-.3,1.39,1.39,0,0,1-.47-.71,2.25,2.25,0,0,1-2,1,2.14,2.14,0,0,1-1.56-.56,2.14,2.14,0,0,1,.19-3.11,3.57,3.57,0,0,1,2.19-.58h1v-.5a1.28,1.28,0,0,0-.34-1,1.54,1.54,0,0,0-1.06-.31,5.87,5.87,0,0,0-1.81.36l-.29-.86A6.86,6.86,0,0,1,637,142a2.47,2.47,0,0,1,1.78.58,2.23,2.23,0,0,1,.58,1.65v3.08A1.06,1.06,0,0,0,639.47,147.93Zm-1.31-.81v-1.54h-.88q-1.86,0-1.86,1.38a1.26,1.26,0,0,0,.29.9,1.14,1.14,0,0,0,.87.31A1.75,1.75,0,0,0,638.16,147.12Z" style="fill:#7a40c6"/><path d="M646.84,139.47v9.42h-1l-.12-.93a2.44,2.44,0,0,1-.83.8,2.3,2.3,0,0,1-3-.65,4.29,4.29,0,0,1-.67-2.54,4.83,4.83,0,0,1,.32-1.84,2.81,2.81,0,0,1,.91-1.25,2.23,2.23,0,0,1,1.41-.46,2.4,2.4,0,0,1,1.8.83v-3.52Zm-1.91,8.4a2.76,2.76,0,0,0,.73-.75v-3.29a2.64,2.64,0,0,0-.7-.65,1.64,1.64,0,0,0-.85-.23,1.35,1.35,0,0,0-1.2.65,3.53,3.53,0,0,0-.43,1.94,3.81,3.81,0,0,0,.39,1.94,1.29,1.29,0,0,0,1.14.64A1.65,1.65,0,0,0,644.93,147.87Z" style="fill:#7a40c6"/><path d="M650.33,139.18a.79.79,0,0,1,.23.57.78.78,0,0,1-.23.57.85.85,0,0,1-.6.23.82.82,0,0,1-.59-.23.78.78,0,0,1-.23-.57.79.79,0,0,1,.23-.57.82.82,0,0,1,.59-.23A.85.85,0,0,1,650.33,139.18Zm0,3v6.71h-1.18v-6.71Z" style="fill:#7a40c6"/><path d="M657.6,147.93a1,1,0,0,0,.42.3l-.26.82a1.75,1.75,0,0,1-.85-.3,1.39,1.39,0,0,1-.47-.71,2.25,2.25,0,0,1-2,1,2.14,2.14,0,0,1-1.56-.56,2.14,2.14,0,0,1,.19-3.11,3.57,3.57,0,0,1,2.19-.58h1v-.5a1.28,1.28,0,0,0-.34-1,1.54,1.54,0,0,0-1.06-.31,5.87,5.87,0,0,0-1.81.36l-.29-.86a6.86,6.86,0,0,1,2.31-.46,2.47,2.47,0,0,1,1.78.58,2.23,2.23,0,0,1,.58,1.65v3.08A1.06,1.06,0,0,0,657.6,147.93Zm-1.31-.81v-1.54h-.88q-1.86,0-1.86,1.38a1.26,1.26,0,0,0,.29.9,1.14,1.14,0,0,0,.87.31A1.75,1.75,0,0,0,656.29,147.12Z" style="fill:#7a40c6"/><path d="M663.71,142.18v.89l-3.51,4.84h3.54l-.14,1h-4.72V148l3.49-4.85h-3.2v-1Z" style="fill:#7a40c6"/><path d="M666.51,139.18a.79.79,0,0,1,.23.57.78.78,0,0,1-.23.57.81.81,0,0,1-.6.23.82.82,0,0,1-.59-.23.77.77,0,0,1-.22-.57.78.78,0,0,1,.22-.57.82.82,0,0,1,.59-.23A.81.81,0,0,1,666.51,139.18Zm0,3v6.71h-1.17v-6.71Z" style="fill:#7a40c6"/><path d="M673.71,142.57a2.1,2.1,0,0,1,.52,1.51v4.81h-1.17v-4.65a1.51,1.51,0,0,0-.27-1,1,1,0,0,0-.79-.29,1.48,1.48,0,0,0-.94.31,3,3,0,0,0-.77.88v4.76h-1.17v-6.71h1l.1,1a2.61,2.61,0,0,1,.88-.84,2.35,2.35,0,0,1,1.17-.31A1.88,1.88,0,0,1,673.71,142.57Z" style="fill:#7a40c6"/><path d="M681.15,147.93a.85.85,0,0,0,.42.3l-.27.82a1.68,1.68,0,0,1-.84-.3A1.33,1.33,0,0,1,680,148a2.26,2.26,0,0,1-2,1,2.17,2.17,0,0,1-1.57-.56,2,2,0,0,1-.57-1.47,1.9,1.9,0,0,1,.77-1.64,3.54,3.54,0,0,1,2.18-.58h1v-.5a1.29,1.29,0,0,0-.35-1,1.53,1.53,0,0,0-1.06-.31,5.92,5.92,0,0,0-1.81.36l-.29-.86a6.91,6.91,0,0,1,2.32-.46,2.45,2.45,0,0,1,1.77.58,2.23,2.23,0,0,1,.59,1.65v3.08A1,1,0,0,0,681.15,147.93Zm-1.31-.81v-1.54H679q-1.86,0-1.86,1.38a1.22,1.22,0,0,0,.29.9,1.11,1.11,0,0,0,.87.31A1.76,1.76,0,0,0,679.84,147.12Z" style="fill:#7a40c6"/><path d="M650.11,184.81a1.06,1.06,0,0,0-.23.74v.93h1.63l-.13.9h-1.5v5.82h-1.17v-5.82h-1.2v-.9h1.2v-.92a1.85,1.85,0,0,1,.55-1.4,2.17,2.17,0,0,1,1.55-.53,3.37,3.37,0,0,1,.82.09,4.27,4.27,0,0,1,.79.26l-.37.85a2.91,2.91,0,0,0-1.18-.25A1.06,1.06,0,0,0,650.11,184.81Z" style="fill:#7a40c6"/><path d="M658.3,190.24H654a2.63,2.63,0,0,0,.56,1.63,1.62,1.62,0,0,0,1.25.52,2.56,2.56,0,0,0,.89-.14,3.69,3.69,0,0,0,.86-.44l.51.7a3.74,3.74,0,0,1-2.35.84,2.72,2.72,0,0,1-2.18-.92,3.71,3.71,0,0,1-.79-2.52,4.9,4.9,0,0,1,.34-1.86,3,3,0,0,1,1-1.27,2.72,2.72,0,0,1,3.53.43,3.71,3.71,0,0,1,.72,2.43Q658.33,189.94,658.3,190.24Zm-1.13-.94a2.44,2.44,0,0,0-.4-1.52,1.38,1.38,0,0,0-1.18-.52c-1,0-1.48.7-1.57,2.11h3.15Z" style="fill:#7a40c6"/><path d="M663.68,186.4l-.22,1.15a2.45,2.45,0,0,0-.58-.08,1.26,1.26,0,0,0-1,.46,3.43,3.43,0,0,0-.6,1.43v3.84H660.1v-6.72h1l.12,1.36a2.5,2.5,0,0,1,.73-1.13,1.59,1.59,0,0,1,1.07-.39A2.84,2.84,0,0,1,663.68,186.4Z" style="fill:#7a40c6"/><path d="M670,186.48l-2.28,6.72h-1.42l-2.32-6.72h1.28l1.76,5.67,1.74-5.67Z" style="fill:#7a40c6"/><path d="M676.93,190.24h-4.28a2.63,2.63,0,0,0,.56,1.63,1.62,1.62,0,0,0,1.25.52,2.56,2.56,0,0,0,.89-.14,3.46,3.46,0,0,0,.85-.44l.51.7a3.69,3.69,0,0,1-2.34.84,2.74,2.74,0,0,1-2.19-.92,3.76,3.76,0,0,1-.78-2.52,4.71,4.71,0,0,1,.34-1.86,2.83,2.83,0,0,1,1-1.27,2.72,2.72,0,0,1,3.53.43,3.7,3.7,0,0,1,.71,2.43C677,189.84,677,190,676.93,190.24Zm-1.13-.94a2.5,2.5,0,0,0-.4-1.52,1.38,1.38,0,0,0-1.18-.52c-1,0-1.49.7-1.57,2.11h3.15Z" style="fill:#7a40c6"/><path d="M682.31,186.4l-.22,1.15a2.46,2.46,0,0,0-.59-.08,1.25,1.25,0,0,0-1,.46,3.3,3.3,0,0,0-.6,1.43v3.84h-1.18v-6.72h1l.12,1.36a2.48,2.48,0,0,1,.72-1.13,1.62,1.62,0,0,1,1.07-.39A2.86,2.86,0,0,1,682.31,186.4Z" style="fill:#7a40c6"/><path d="M690.65,186.5a3.13,3.13,0,0,1,1,.55l-.56.74a2.8,2.8,0,0,0-.7-.37,2,2,0,0,0-.74-.12,1.45,1.45,0,0,0-1.27.64,3.42,3.42,0,0,0-.45,1.93,3.16,3.16,0,0,0,.44,1.88,1.5,1.5,0,0,0,1.28.61,2.09,2.09,0,0,0,.72-.13,4,4,0,0,0,.74-.38l.54.76a3.21,3.21,0,0,1-2.05.74,2.68,2.68,0,0,1-2.15-.92,3.8,3.8,0,0,1-.78-2.54A4.56,4.56,0,0,1,687,188a2.94,2.94,0,0,1,1-1.25,2.71,2.71,0,0,1,1.57-.45A3.2,3.2,0,0,1,690.65,186.5Z" style="fill:#7a40c6"/><path d="M697.92,187.27a3.89,3.89,0,0,1,.78,2.56,4.57,4.57,0,0,1-.35,1.84,2.77,2.77,0,0,1-1,1.24,2.88,2.88,0,0,1-1.6.44,2.7,2.7,0,0,1-2.2-.94,3.87,3.87,0,0,1-.79-2.57,4.44,4.44,0,0,1,.35-1.84,2.78,2.78,0,0,1,1-1.23,2.85,2.85,0,0,1,1.62-.45A2.71,2.71,0,0,1,697.92,187.27ZM694,189.84c0,1.71.57,2.57,1.73,2.57s1.73-.86,1.73-2.58-.57-2.56-1.72-2.56S694,188.13,694,189.84Z" style="fill:#7a40c6"/><path d="M708.6,186.88a2.17,2.17,0,0,1,.5,1.5v4.82h-1.17v-4.66c0-.86-.32-1.3-.95-1.3a1.28,1.28,0,0,0-.84.29,4.11,4.11,0,0,0-.74.9v4.77h-1.17v-4.66c0-.86-.31-1.3-.94-1.3a1.24,1.24,0,0,0-.85.3,4,4,0,0,0-.73.89v4.77h-1.17v-6.72h1l.11,1a2.24,2.24,0,0,1,1.93-1.14,1.69,1.69,0,0,1,1.7,1.22,3,3,0,0,1,.87-.9,2,2,0,0,1,1.13-.32A1.69,1.69,0,0,1,708.6,186.88Z" style="fill:#7a40c6"/><path d="M657.32,211v-4.12h-3.7V211h-1.21v-8.79h1.21v3.67h3.7v-3.67h1.21V211Z" style="fill:#7a40c6"/><path d="M665.39,202.22a4.11,4.11,0,0,1,1.1.67l-.66.77a2.69,2.69,0,0,0-1.7-.65,2.14,2.14,0,0,0-1.76.85,4.32,4.32,0,0,0-.67,2.7,4.37,4.37,0,0,0,.66,2.67,2.12,2.12,0,0,0,1.76.86,2.32,2.32,0,0,0,1-.19,5.16,5.16,0,0,0,.89-.54l.6.77a3.33,3.33,0,0,1-1,.7,3.6,3.6,0,0,1-1.47.28,3.38,3.38,0,0,1-3.2-2.08,6,6,0,0,1-.47-2.47,5.82,5.82,0,0,1,.48-2.47,3.69,3.69,0,0,1,1.32-1.55,3.38,3.38,0,0,1,1.85-.52A4,4,0,0,1,665.39,202.22Z" style="fill:#7a40c6"/><path d="M668.28,210.72a1.5,1.5,0,0,1-.38-1.09v-8.09l1.18-.15v8.22a.7.7,0,0,0,.09.4.37.37,0,0,0,.33.13,1,1,0,0,0,.43-.08l.3.82a1.94,1.94,0,0,1-.93.23A1.35,1.35,0,0,1,668.28,210.72Z" style="fill:#7a40c6"/><path d="M678.26,202.43V211h-1.17v-7.28l-2,1.21-.51-.83,2.64-1.63Z" style="fill:#7a40c6"/><path d="M684.91,203.35h-3.32v2.51a2.94,2.94,0,0,1,1.36-.33,2.28,2.28,0,0,1,1.76.72,2.82,2.82,0,0,1,.66,2,3,3,0,0,1-.37,1.5,2.62,2.62,0,0,1-1,1,3.2,3.2,0,0,1-1.55.36,3.36,3.36,0,0,1-1.38-.27,4,4,0,0,1-1.14-.81l.69-.68a3.09,3.09,0,0,0,.84.61,2.38,2.38,0,0,0,1,.19,1.64,1.64,0,0,0,1.28-.51,2.06,2.06,0,0,0,.47-1.44,1.85,1.85,0,0,0-.42-1.35,1.54,1.54,0,0,0-1.14-.42,2.92,2.92,0,0,0-.61.07,3.71,3.71,0,0,0-.6.22h-.91v-4.29h4.61Z" style="fill:#7a40c6"/><path d="M690,202.89a2.4,2.4,0,0,1,0,3.13,2,2,0,0,1-1.5.59A2,2,0,0,1,687,206a2.4,2.4,0,0,1,0-3.13,2,2,0,0,1,1.48-.59A2,2,0,0,1,690,202.89Zm-2.3.58a1.93,1.93,0,0,0-.23,1,1.91,1.91,0,0,0,.23,1,.87.87,0,0,0,.8.39c.69,0,1-.46,1-1.36a1.92,1.92,0,0,0-.23-1,.85.85,0,0,0-.8-.39A.88.88,0,0,0,687.68,203.47Zm6-1.58.82.54-5.9,8.92-.82-.53Zm1.57,5.5a2.43,2.43,0,0,1,0,3.13,2,2,0,0,1-1.49.59,2,2,0,0,1-1.5-.59,2.4,2.4,0,0,1,0-3.13,2,2,0,0,1,1.5-.59A2,2,0,0,1,695.22,207.39Zm-2.29.59a1.78,1.78,0,0,0-.23,1,1.81,1.81,0,0,0,.23,1,.86.86,0,0,0,.8.39c.69,0,1-.45,1-1.36a1.86,1.86,0,0,0-.23-1,.85.85,0,0,0-.8-.39A.87.87,0,0,0,692.93,208Z" style="fill:#7a40c6"/><path d="M616.53,342.11a4.24,4.24,0,0,1,1.21.77l-.67.74a3.71,3.71,0,0,0-1-.58,2.9,2.9,0,0,0-1-.18,1.86,1.86,0,0,0-1.13.32,1.06,1.06,0,0,0-.45.93,1.26,1.26,0,0,0,.16.64,1.45,1.45,0,0,0,.56.48,7.82,7.82,0,0,0,1.21.46,8.14,8.14,0,0,1,1.37.54,2.42,2.42,0,0,1,.89.82,2.34,2.34,0,0,1,.34,1.3,2.45,2.45,0,0,1-.38,1.35,2.51,2.51,0,0,1-1.08.92,3.93,3.93,0,0,1-1.68.33,4.12,4.12,0,0,1-3-1.13l.66-.74a4,4,0,0,0,1.09.65,3.16,3.16,0,0,0,1.22.23,2.25,2.25,0,0,0,1.35-.4,1.37,1.37,0,0,0,.54-1.17,1.42,1.42,0,0,0-.17-.72,1.54,1.54,0,0,0-.57-.52,6.15,6.15,0,0,0-1.16-.46,5.06,5.06,0,0,1-2-1,2,2,0,0,1-.62-1.55,2.11,2.11,0,0,1,.35-1.19,2.25,2.25,0,0,1,1-.81,3.3,3.3,0,0,1,1.43-.3A4.22,4.22,0,0,1,616.53,342.11Z" style="fill:#7a40c6"/><path d="M624.73,350.8h-1l-.08-1.05a2.69,2.69,0,0,1-.88.92,2.41,2.41,0,0,1-1.21.28,1.81,1.81,0,0,1-1.38-.53,2.17,2.17,0,0,1-.5-1.52v-4.82h1.18v4.69a1.55,1.55,0,0,0,.24,1,1,1,0,0,0,.79.29,2,2,0,0,0,1.68-1.16v-4.8h1.17Z" style="fill:#7a40c6"/><path d="M627.36,350.56a1.5,1.5,0,0,1-.37-1.09v-8.09l1.17-.14v8.21a.76.76,0,0,0,.09.41.42.42,0,0,0,.33.12,1.14,1.14,0,0,0,.43-.07l.31.81a1.83,1.83,0,0,1-.93.23A1.37,1.37,0,0,1,627.36,350.56Z" style="fill:#7a40c6"/><path d="M632.49,342.42a1,1,0,0,0-.23.73v.93h1.63l-.13.91h-1.5v5.81h-1.17V345h-1.2v-.91h1.2v-.92a1.82,1.82,0,0,1,.55-1.39,2.13,2.13,0,0,1,1.55-.53,4,4,0,0,1,.82.08,4.84,4.84,0,0,1,.79.26l-.37.86a2.88,2.88,0,0,0-1.17-.26A1,1,0,0,0,632.49,342.42Z" style="fill:#7a40c6"/><path d="M640.3,349.84a.85.85,0,0,0,.42.3l-.27.81a1.78,1.78,0,0,1-.84-.29,1.33,1.33,0,0,1-.47-.71,2.25,2.25,0,0,1-2,1,2.14,2.14,0,0,1-1.57-.56,2.15,2.15,0,0,1,.2-3.11,3.64,3.64,0,0,1,2.19-.57h1v-.5a1.29,1.29,0,0,0-.35-1,1.55,1.55,0,0,0-1-.31,5.81,5.81,0,0,0-1.81.36l-.3-.85a6.72,6.72,0,0,1,2.32-.46,2.4,2.4,0,0,1,1.77.58,2.18,2.18,0,0,1,.59,1.65v3.07A1.1,1.1,0,0,0,640.3,349.84ZM639,349v-1.55h-.88q-1.86,0-1.86,1.38a1.31,1.31,0,0,0,.29.91,1.18,1.18,0,0,0,.87.3A1.75,1.75,0,0,0,639,349Z" style="fill:#7a40c6"/><path d="M647.67,341.38v9.42h-1l-.11-.93a2.53,2.53,0,0,1-.83.8,2.18,2.18,0,0,1-1.11.28,2.13,2.13,0,0,1-1.86-.94,4.27,4.27,0,0,1-.67-2.54,4.94,4.94,0,0,1,.31-1.83,2.88,2.88,0,0,1,.92-1.26,2.28,2.28,0,0,1,1.4-.45,2.39,2.39,0,0,1,1.81.83v-3.52Zm-1.92,8.39a2.6,2.6,0,0,0,.74-.74v-3.29a2.53,2.53,0,0,0-.7-.66,1.66,1.66,0,0,0-.85-.22,1.36,1.36,0,0,0-1.21.65,3.61,3.61,0,0,0-.42,1.94,3.77,3.77,0,0,0,.39,1.93,1.26,1.26,0,0,0,1.14.64A1.59,1.59,0,0,0,645.75,349.77Z" style="fill:#7a40c6"/><path d="M651.16,341.08a.82.82,0,0,1,.23.58.78.78,0,0,1-.23.57.84.84,0,0,1-.6.22.8.8,0,0,1-.59-.22.78.78,0,0,1-.23-.57.82.82,0,0,1,.23-.58.8.8,0,0,1,.59-.22A.84.84,0,0,1,651.16,341.08Zm0,3v6.72H650v-6.72Z" style="fill:#7a40c6"/><path d="M658.43,349.84a.89.89,0,0,0,.42.3l-.27.81a1.86,1.86,0,0,1-.84-.29,1.33,1.33,0,0,1-.47-.71,2.25,2.25,0,0,1-2,1,2.14,2.14,0,0,1-1.57-.56,2.15,2.15,0,0,1,.2-3.11,3.64,3.64,0,0,1,2.19-.57h1v-.5a1.29,1.29,0,0,0-.35-1,1.55,1.55,0,0,0-1-.31,5.81,5.81,0,0,0-1.81.36l-.29-.85a6.62,6.62,0,0,1,2.31-.46,2.45,2.45,0,0,1,1.78.58,2.21,2.21,0,0,1,.58,1.65v3.07A1.1,1.1,0,0,0,658.43,349.84Zm-1.31-.81v-1.55h-.88q-1.86,0-1.86,1.38a1.31,1.31,0,0,0,.29.91,1.18,1.18,0,0,0,.87.3A1.75,1.75,0,0,0,657.12,349Z" style="fill:#7a40c6"/><path d="M664.53,344.08V345l-3.5,4.85h3.54l-.14,1h-4.72v-.88l3.49-4.85H660v-1Z" style="fill:#7a40c6"/><path d="M667.34,341.08a.82.82,0,0,1,.23.58.78.78,0,0,1-.23.57.84.84,0,0,1-.6.22.82.82,0,0,1-.59-.22.78.78,0,0,1-.23-.57.77.77,0,0,1,.82-.8A.84.84,0,0,1,667.34,341.08Zm0,3v6.72h-1.18v-6.72Z" style="fill:#7a40c6"/><path d="M674.54,344.48a2.06,2.06,0,0,1,.52,1.5v4.82h-1.17v-4.65a1.47,1.47,0,0,0-.27-1,1,1,0,0,0-.79-.29,1.53,1.53,0,0,0-.94.3,3.22,3.22,0,0,0-.77.88v4.77H670v-6.72h1l.1,1a2.82,2.82,0,0,1,.88-.84,2.34,2.34,0,0,1,1.17-.3A1.85,1.85,0,0,1,674.54,344.48Z" style="fill:#7a40c6"/><path d="M682,349.84a.85.85,0,0,0,.42.3l-.27.81a1.78,1.78,0,0,1-.84-.29,1.33,1.33,0,0,1-.47-.71,2.25,2.25,0,0,1-2,1,2.11,2.11,0,0,1-1.57-.56,2,2,0,0,1-.57-1.46,1.91,1.91,0,0,1,.77-1.65,3.6,3.6,0,0,1,2.18-.57h1v-.5a1.29,1.29,0,0,0-.34-1,1.58,1.58,0,0,0-1.06-.31,5.92,5.92,0,0,0-1.81.36l-.29-.85a6.67,6.67,0,0,1,2.32-.46,2.4,2.4,0,0,1,1.77.58,2.22,2.22,0,0,1,.59,1.65v3.07A1,1,0,0,0,682,349.84Zm-1.32-.81v-1.55h-.87c-1.25,0-1.86.46-1.86,1.38a1.26,1.26,0,0,0,.29.91,1.14,1.14,0,0,0,.86.3A1.74,1.74,0,0,0,680.66,349Z" style="fill:#7a40c6"/></g></g></svg>