<svg xmlns="http://www.w3.org/2000/svg" viewBox="0 0 730 292.9"><title>fig-9-8</title><g id="fig-9-8"><g id="roxo"><path d="M19.37,207.92v1.66h-2v3.77h-2v-3.77H8.72v-1.5l4.63-10.22,1.78.73L11,207.92h4.38l.18-4.11h1.84v4.11Z" style="fill:#7a40c6"/><path d="M21.25,207.1v-1.78h6.52v1.78Z" style="fill:#7a40c6"/><path d="M45.65,213.35H43.53l-.55-7.1q-.34-4.17-.39-6.41l-3.44,11.73h-2l-3.61-11.75q0,2.85-.3,6.59l-.53,6.94H30.59l1.31-15.72h3l3.34,11.43,3.18-11.43h3Z" style="fill:#7a40c6"/><path d="M58.39,208.06H50.65a4.69,4.69,0,0,0,1,2.92,3,3,0,0,0,2.26.93,4.9,4.9,0,0,0,1.61-.25,6.56,6.56,0,0,0,1.55-.8l.92,1.26a6.78,6.78,0,0,1-4.24,1.5A4.94,4.94,0,0,1,49.81,212a6.67,6.67,0,0,1-1.42-4.52,8.66,8.66,0,0,1,.61-3.32,5.29,5.29,0,0,1,1.75-2.27,5,5,0,0,1,6.39.76,6.62,6.62,0,0,1,1.3,4.35C58.44,207.33,58.42,207.69,58.39,208.06Zm-2-1.69a4.48,4.48,0,0,0-.71-2.72,2.54,2.54,0,0,0-2.15-.93c-1.73,0-2.68,1.26-2.83,3.78h5.69Z" style="fill:#7a40c6"/><path d="M67.77,212.8a4.69,4.69,0,0,1-2.72.82,3.2,3.2,0,0,1-2.41-.88,3.44,3.44,0,0,1-.86-2.54V203H59.66v-1.62h2.12v-2.72l2.11-.25v3h2.88L66.54,203H63.89v7.16a2.24,2.24,0,0,0,.34,1.36,1.34,1.34,0,0,0,1.12.42,3.51,3.51,0,0,0,1.61-.48Z" style="fill:#7a40c6"/><path d="M72.23,196a1.45,1.45,0,0,1,0,2,1.63,1.63,0,0,1-2.14,0,1.47,1.47,0,0,1,0-2,1.57,1.57,0,0,1,2.14,0Zm0,5.36v12H70.11v-12Z" style="fill:#7a40c6"/><path d="M77.52,212.93a2.71,2.71,0,0,1-.68-2V196.49l2.12-.25v14.69a1.27,1.27,0,0,0,.17.73.71.71,0,0,0,.59.23,2.13,2.13,0,0,0,.78-.14l.56,1.46a3.54,3.54,0,0,1-1.68.41A2.48,2.48,0,0,1,77.52,212.93Z" style="fill:#7a40c6"/><path d="M93,202.7a8.37,8.37,0,0,1,1.08,4.63,7.67,7.67,0,0,1-1.25,4.56,4.09,4.09,0,0,1-3.52,1.73,3.92,3.92,0,0,1-3.18-1.37V218l-2.12.25V201.33h1.82L86,203a4.7,4.7,0,0,1,1.61-1.41,4.34,4.34,0,0,1,2-.49A3.79,3.79,0,0,1,93,202.7Zm-1.2,4.63c0-3.08-.92-4.61-2.74-4.61a2.76,2.76,0,0,0-1.64.52,5.21,5.21,0,0,0-1.29,1.35v5.86a3.2,3.2,0,0,0,1.15,1.08,3,3,0,0,0,1.52.38Q91.84,211.91,91.84,207.33Z" style="fill:#7a40c6"/><path d="M99.67,196a1.47,1.47,0,0,1,0,2,1.53,1.53,0,0,1-1.08.4,1.48,1.48,0,0,1-1.06-.4,1.45,1.45,0,0,1,0-2,1.42,1.42,0,0,1,1.06-.42A1.46,1.46,0,0,1,99.67,196Zm0,5.36v12H97.55v-12Z" style="fill:#7a40c6"/><path d="M110.86,201.19l-.39,2.05a4.45,4.45,0,0,0-1.06-.13,2.26,2.26,0,0,0-1.82.82,6,6,0,0,0-1.08,2.55v6.87h-2.12v-12h1.82l.21,2.44a4.51,4.51,0,0,1,1.31-2,2.94,2.94,0,0,1,1.94-.69A4.92,4.92,0,0,1,110.86,201.19Z" style="fill:#7a40c6"/><path d="M115.4,196a1.45,1.45,0,0,1,0,2,1.51,1.51,0,0,1-1.08.4,1.5,1.5,0,0,1-1.06-.4,1.47,1.47,0,0,1,0-2,1.43,1.43,0,0,1,1.06-.42A1.45,1.45,0,0,1,115.4,196Zm0,5.36v12h-2.12v-12Z" style="fill:#7a40c6"/><path d="M129.52,196.49v16.86h-1.86l-.21-1.67a4.36,4.36,0,0,1-1.5,1.43,4,4,0,0,1-2,.51,3.91,3.91,0,0,1-3.38-1.69,7.66,7.66,0,0,1-1.2-4.54,8.84,8.84,0,0,1,.57-3.28,5.08,5.08,0,0,1,1.66-2.25,4.11,4.11,0,0,1,2.53-.81,4.36,4.36,0,0,1,3.27,1.49v-6.3Zm-3.45,15a5.23,5.23,0,0,0,1.33-1.33v-5.89a4.44,4.44,0,0,0-1.27-1.17,3,3,0,0,0-1.54-.4,2.47,2.47,0,0,0-2.17,1.16,6.28,6.28,0,0,0-.78,3.47,6.63,6.63,0,0,0,.72,3.47,2.27,2.27,0,0,0,2,1.14A3,3,0,0,0,126.07,211.51Z" style="fill:#7a40c6"/><path d="M135.83,196a1.45,1.45,0,0,1,0,2,1.63,1.63,0,0,1-2.14,0,1.47,1.47,0,0,1,0-2,1.57,1.57,0,0,1,2.14,0Zm0,5.36v12h-2.12v-12Z" style="fill:#7a40c6"/><path d="M148.86,202a3.79,3.79,0,0,1,.93,2.7v8.62h-2.11V205a2.65,2.65,0,0,0-.49-1.8,1.84,1.84,0,0,0-1.43-.52,2.8,2.8,0,0,0-1.7.54,5.76,5.76,0,0,0-1.38,1.58v8.53h-2.12v-12h1.82l.18,1.78a4.8,4.8,0,0,1,1.6-1.51,4.23,4.23,0,0,1,2.11-.55A3.41,3.41,0,0,1,148.86,202Z" style="fill:#7a40c6"/><path d="M162.3,211.63a1.56,1.56,0,0,0,.76.53l-.48,1.46a3.22,3.22,0,0,1-1.52-.52,2.36,2.36,0,0,1-.85-1.28,4.1,4.1,0,0,1-3.62,1.8,3.88,3.88,0,0,1-2.83-1,3.82,3.82,0,0,1,.35-5.57,6.61,6.61,0,0,1,3.95-1h1.87v-.89a2.35,2.35,0,0,0-.62-1.83,2.86,2.86,0,0,0-1.91-.55,10.92,10.92,0,0,0-3.27.64l-.53-1.53a12.47,12.47,0,0,1,4.19-.82,4.42,4.42,0,0,1,3.2,1,3.94,3.94,0,0,1,1.06,3v5.49A1.89,1.89,0,0,0,162.3,211.63Zm-2.37-1.45v-2.76h-1.59q-3.36,0-3.36,2.46a2.21,2.21,0,0,0,.53,1.62,2,2,0,0,0,1.56.55A3.17,3.17,0,0,0,159.93,210.18Z" style="fill:#7a40c6"/><path d="M483,57.38V50H476.3v7.36h-2.19V41.67h2.19v6.57H483V41.67h2.19V57.38Z" style="fill:#7a40c6"/><path d="M493.22,54.85a2.57,2.57,0,0,1,1,1,2.63,2.63,0,0,1,.37,1.37,3.81,3.81,0,0,1-.41,1.71A8.47,8.47,0,0,1,493,60.67c-.56.63-1.42,1.52-2.56,2.65h4.46l-.17,1.13h-5.85V63.38c1.33-1.36,2.26-2.35,2.82-3a8.54,8.54,0,0,0,1.18-1.65,3.29,3.29,0,0,0,.36-1.51,1.59,1.59,0,0,0-.45-1.2,1.62,1.62,0,0,0-1.18-.43,2.17,2.17,0,0,0-1.07.25,3.79,3.79,0,0,0-1,.82l-.89-.7A4.25,4.25,0,0,1,490,54.86a3.78,3.78,0,0,1,1.66-.37A3.27,3.27,0,0,1,493.22,54.85Z" style="fill:#7a40c6"/><path d="M509.92,57.38H507L500.54,44c.09,1.05.17,2,.22,2.91s.08,2,.08,3.23v7.2h-2V41.67h2.86L508.17,55c-.05-.39-.11-1.08-.19-2.07s-.11-1.89-.11-2.72V41.67h2.05Z" style="fill:#7a40c6"/><path d="M525.49,57.38h-2.93L516.12,44q.14,1.58.21,2.91c.06.89.08,2,.08,3.23v7.2h-2V41.67h2.85L523.74,55q-.07-.59-.18-2.07c-.08-1-.12-1.89-.12-2.72V41.67h2Z" style="fill:#7a40c6"/><path d="M538.81,57.38V50h-6.68v7.36h-2.19V41.67h2.19v6.57h6.68V41.67H541V57.38Z" style="fill:#7a40c6"/><path d="M550.8,54.85a2.57,2.57,0,0,1,1.05,1,2.63,2.63,0,0,1,.37,1.37,3.81,3.81,0,0,1-.41,1.71,8.47,8.47,0,0,1-1.25,1.78c-.56.63-1.42,1.52-2.56,2.65h4.46l-.17,1.13h-5.85V63.38c1.33-1.36,2.26-2.35,2.82-3a8.54,8.54,0,0,0,1.18-1.65,3.29,3.29,0,0,0,.36-1.51,1.59,1.59,0,0,0-.45-1.2,1.62,1.62,0,0,0-1.18-.43,2.17,2.17,0,0,0-1.07.25,3.79,3.79,0,0,0-1,.82l-.89-.7a4.25,4.25,0,0,1,1.35-1.12,3.78,3.78,0,0,1,1.66-.37A3.27,3.27,0,0,1,550.8,54.85Z" style="fill:#7a40c6"/><path d="M475.85,103.61V96.25h-6.68v7.36H467V87.9h2.19v6.57h6.68V87.9H478v15.71Z" style="fill:#7a40c6"/><path d="M484.49,86.23a1.43,1.43,0,0,1,.41,1,1.35,1.35,0,0,1-.41,1,1.5,1.5,0,0,1-1.09.4,1.46,1.46,0,0,1-1.06-.4,1.35,1.35,0,0,1-.41-1,1.43,1.43,0,0,1,.41-1,1.46,1.46,0,0,1,1.06-.41A1.5,1.5,0,0,1,484.49,86.23Zm0,5.36v12h-2.12v-12Z" style="fill:#7a40c6"/><path d="M498.61,86.76v16.85h-1.87l-.21-1.66a4.38,4.38,0,0,1-1.49,1.42,4.18,4.18,0,0,1-5.38-1.17,7.63,7.63,0,0,1-1.21-4.54,8.81,8.81,0,0,1,.57-3.28,5.15,5.15,0,0,1,1.66-2.25,4.12,4.12,0,0,1,2.54-.81,4.38,4.38,0,0,1,3.27,1.48V86.51Zm-3.46,15a5.14,5.14,0,0,0,1.34-1.34V94.56a4.67,4.67,0,0,0-1.28-1.18,3,3,0,0,0-1.53-.4,2.47,2.47,0,0,0-2.18,1.17,6.33,6.33,0,0,0-.77,3.46,6.71,6.71,0,0,0,.71,3.47,2.29,2.29,0,0,0,2.05,1.14A3,3,0,0,0,495.15,101.78Z" style="fill:#7a40c6"/><path d="M509.27,91.46l-.39,2.05a4.48,4.48,0,0,0-1.06-.14,2.26,2.26,0,0,0-1.82.82,6.08,6.08,0,0,0-1.08,2.56v6.86H502.8v-12h1.82l.21,2.44a4.62,4.62,0,0,1,1.31-2,3,3,0,0,1,1.93-.68A4.59,4.59,0,0,1,509.27,91.46Z" style="fill:#7a40c6"/><path d="M520.12,101.89a1.51,1.51,0,0,0,.76.54l-.48,1.46a3.22,3.22,0,0,1-1.52-.53,2.34,2.34,0,0,1-.85-1.27,4.1,4.1,0,0,1-3.62,1.8,3.89,3.89,0,0,1-2.83-1,3.45,3.45,0,0,1-1-2.62,3.42,3.42,0,0,1,1.39-2.94,6.54,6.54,0,0,1,3.95-1h1.87V95.4a2.32,2.32,0,0,0-.62-1.82,2.82,2.82,0,0,0-1.92-.55,10.67,10.67,0,0,0-3.27.64l-.53-1.53a12.32,12.32,0,0,1,4.2-.82,4.37,4.37,0,0,1,3.2,1,3.92,3.92,0,0,1,1.06,3v5.5A1.85,1.85,0,0,0,520.12,101.89Zm-2.37-1.45V97.68h-1.59c-2.24,0-3.36.82-3.36,2.47a2.23,2.23,0,0,0,.53,1.62,2.08,2.08,0,0,0,1.56.54A3.16,3.16,0,0,0,517.75,100.44Z" style="fill:#7a40c6"/><path d="M531.16,91.59v1.6l-6.34,8.67h6.4l-.25,1.75h-8.54V102l6.31-8.67H523V91.59Z" style="fill:#7a40c6"/><path d="M536.22,86.23a1.4,1.4,0,0,1,.42,1,1.32,1.32,0,0,1-.42,1,1.63,1.63,0,0,1-2.14,0,1.31,1.31,0,0,1-.41-1,1.39,1.39,0,0,1,.41-1,1.6,1.6,0,0,1,2.14,0Zm0,5.36v12H534.1v-12Z" style="fill:#7a40c6"/><path d="M549.25,92.3a3.74,3.74,0,0,1,.93,2.69v8.62h-2.12V95.29a2.66,2.66,0,0,0-.48-1.8,1.85,1.85,0,0,0-1.43-.53,2.75,2.75,0,0,0-1.7.55,5.72,5.72,0,0,0-1.39,1.57v8.53H541v-12h1.82l.18,1.78a4.67,4.67,0,0,1,1.6-1.5,4.13,4.13,0,0,1,2.11-.55A3.42,3.42,0,0,1,549.25,92.3Z" style="fill:#7a40c6"/><path d="M562.69,101.89a1.51,1.51,0,0,0,.76.54l-.48,1.46a3.22,3.22,0,0,1-1.52-.53,2.34,2.34,0,0,1-.85-1.27,4.1,4.1,0,0,1-3.62,1.8,3.93,3.93,0,0,1-2.84-1,3.48,3.48,0,0,1-1-2.62,3.42,3.42,0,0,1,1.39-2.94,6.54,6.54,0,0,1,4-1h1.87V95.4a2.32,2.32,0,0,0-.62-1.82,2.83,2.83,0,0,0-1.91-.55,10.67,10.67,0,0,0-3.28.64L554,92.14a12.32,12.32,0,0,1,4.2-.82,4.37,4.37,0,0,1,3.2,1,4,4,0,0,1,1.06,3v5.5A1.85,1.85,0,0,0,562.69,101.89Zm-2.37-1.45V97.68h-1.59c-2.24,0-3.36.82-3.36,2.47a2.23,2.23,0,0,0,.53,1.62,2.08,2.08,0,0,0,1.56.54A3.16,3.16,0,0,0,560.32,100.44Z" style="fill:#7a40c6"/><path d="M365.2,247.26l-1.2-3.95h-6l-1.2,3.95h-2.21l5.09-15.72h2.76l5.07,15.72Zm-2.31-20.78.93,1.76-5,1.8-.55-1.12Zm-4.37,15.08h5L361,233.35Z" style="fill:#7a40c6"/><path d="M376.23,235.27a5.55,5.55,0,0,1,1.73,1l-1,1.32a5.16,5.16,0,0,0-1.26-.67,3.9,3.9,0,0,0-1.35-.22,2.66,2.66,0,0,0-2.29,1.16,6.06,6.06,0,0,0-.82,3.45,5.62,5.62,0,0,0,.81,3.36,2.7,2.7,0,0,0,2.3,1.09,4,4,0,0,0,1.32-.22,7.22,7.22,0,0,0,1.33-.7l1,1.37a5.81,5.81,0,0,1-3.71,1.32,4.84,4.84,0,0,1-3.88-1.64,6.69,6.69,0,0,1-1.42-4.54,8.14,8.14,0,0,1,.65-3.35,5.22,5.22,0,0,1,1.83-2.24,4.94,4.94,0,0,1,2.82-.79A6.23,6.23,0,0,1,376.23,235.27Z" style="fill:#7a40c6"/><path d="M383,229.88a1.41,1.41,0,0,1,.41,1,1.36,1.36,0,0,1-.41,1,1.49,1.49,0,0,1-1.08.4,1.44,1.44,0,0,1-1.06-.4,1.34,1.34,0,0,1-.42-1,1.38,1.38,0,0,1,.42-1,1.45,1.45,0,0,1,1.06-.41A1.49,1.49,0,0,1,383,229.88Zm0,5.36v12h-2.12v-12Z" style="fill:#7a40c6"/><path d="M397.08,230.4v16.86h-1.87l-.2-1.66a4.42,4.42,0,0,1-1.5,1.42,4,4,0,0,1-2,.51,3.92,3.92,0,0,1-3.37-1.68,7.63,7.63,0,0,1-1.21-4.54,8.7,8.7,0,0,1,.58-3.29,5,5,0,0,1,1.65-2.24,4.14,4.14,0,0,1,2.54-.81,4.38,4.38,0,0,1,3.27,1.48v-6.3Zm-3.46,15a5.09,5.09,0,0,0,1.34-1.33v-5.88a4.67,4.67,0,0,0-1.28-1.18,2.91,2.91,0,0,0-1.53-.4,2.48,2.48,0,0,0-2.18,1.16,6.4,6.4,0,0,0-.77,3.47,6.74,6.74,0,0,0,.71,3.47,2.29,2.29,0,0,0,2,1.14A3,3,0,0,0,393.62,245.42Z" style="fill:#7a40c6"/><path d="M409.81,236.65a7,7,0,0,1,1.41,4.59,7.93,7.93,0,0,1-.64,3.3,5,5,0,0,1-1.87,2.21,5.26,5.26,0,0,1-2.9.78,5,5,0,0,1-4-1.68,6.9,6.9,0,0,1-1.42-4.59A8,8,0,0,1,401,238a5,5,0,0,1,1.87-2.21,5.31,5.31,0,0,1,2.92-.78A4.93,4.93,0,0,1,409.81,236.65Zm-7.13,4.61q0,4.59,3.13,4.59t3.13-4.61c0-3.06-1-4.59-3.11-4.59S402.68,238.19,402.68,241.26Z" style="fill:#7a40c6"/><path d="M327.12,262.79v15.72h-2.19V262.79Z" style="fill:#7a40c6"/><path d="M337.3,266.56a6.7,6.7,0,0,1,1.89,1l-.9,1.33a7.44,7.44,0,0,0-1.58-.78,4.84,4.84,0,0,0-1.58-.25,2.79,2.79,0,0,0-1.63.42,1.42,1.42,0,0,0,0,2.29,6.54,6.54,0,0,0,2,.8,7.26,7.26,0,0,1,3,1.37,3,3,0,0,1,1,2.37,3.08,3.08,0,0,1-1.4,2.72,6,6,0,0,1-3.4.93,6.74,6.74,0,0,1-4.58-1.57l1.13-1.28a5.49,5.49,0,0,0,3.41,1.16,3.24,3.24,0,0,0,1.9-.49,1.53,1.53,0,0,0,.7-1.33,1.73,1.73,0,0,0-.25-1,2,2,0,0,0-.88-.66,11.47,11.47,0,0,0-1.82-.61,6.24,6.24,0,0,1-2.8-1.34,2.91,2.91,0,0,1-.86-2.15,2.84,2.84,0,0,1,.56-1.7,3.65,3.65,0,0,1,1.57-1.18,5.61,5.61,0,0,1,2.25-.43A6.78,6.78,0,0,1,337.3,266.56Z" style="fill:#7a40c6"/><path d="M350.54,267.9a7,7,0,0,1,1.41,4.59,7.92,7.92,0,0,1-.64,3.29,5.11,5.11,0,0,1-1.87,2.22,5.26,5.26,0,0,1-2.9.78,4.92,4.92,0,0,1-4-1.69,6.86,6.86,0,0,1-1.42-4.58,7.93,7.93,0,0,1,.64-3.3,5.06,5.06,0,0,1,1.86-2.21,5.34,5.34,0,0,1,2.93-.79A4.93,4.93,0,0,1,350.54,267.9Zm-7.14,4.61c0,3.06,1.05,4.58,3.14,4.58s3.13-1.53,3.13-4.6-1-4.59-3.11-4.59S343.4,269.44,343.4,272.51Z" style="fill:#7a40c6"/><path d="M363.57,267.19a3.75,3.75,0,0,1,.94,2.7v8.62h-2.12v-8.33a2.65,2.65,0,0,0-.49-1.8,1.84,1.84,0,0,0-1.43-.52,2.8,2.8,0,0,0-1.7.54,5.76,5.76,0,0,0-1.38,1.58v8.53h-2.12v-12h1.82l.18,1.78a4.9,4.9,0,0,1,1.6-1.51,4.23,4.23,0,0,1,2.11-.55A3.41,3.41,0,0,1,363.57,267.19Z" style="fill:#7a40c6"/><path d="M370.7,261.13a1.45,1.45,0,0,1,0,2,1.51,1.51,0,0,1-1.08.4,1.5,1.5,0,0,1-1.06-.4,1.45,1.45,0,0,1,0-2,1.42,1.42,0,0,1,1.06-.41A1.44,1.44,0,0,1,370.7,261.13Zm0,5.36v12h-2.12v-12Z" style="fill:#7a40c6"/><path d="M381.83,266.52a5.84,5.84,0,0,1,1.73,1l-1,1.33a5.36,5.36,0,0,0-1.25-.68,4.15,4.15,0,0,0-1.35-.21,2.65,2.65,0,0,0-2.29,1.16,5.94,5.94,0,0,0-.82,3.44,5.71,5.71,0,0,0,.8,3.37,2.72,2.72,0,0,0,2.31,1.08,3.91,3.91,0,0,0,1.31-.21,7,7,0,0,0,1.34-.7l1,1.37a5.83,5.83,0,0,1-3.71,1.32,4.86,4.86,0,0,1-3.89-1.64,6.74,6.74,0,0,1-1.41-4.54,8.11,8.11,0,0,1,.64-3.35A5.17,5.17,0,0,1,377,267a4.94,4.94,0,0,1,2.82-.8A6.23,6.23,0,0,1,381.83,266.52Z" style="fill:#7a40c6"/><path d="M395,267.9a7,7,0,0,1,1.42,4.59,7.92,7.92,0,0,1-.65,3.29,5.09,5.09,0,0,1-1.86,2.22,5.32,5.32,0,0,1-2.91.78,4.92,4.92,0,0,1-4-1.69,6.86,6.86,0,0,1-1.43-4.58,7.93,7.93,0,0,1,.65-3.3,5,5,0,0,1,1.86-2.21,5.32,5.32,0,0,1,2.93-.79A4.91,4.91,0,0,1,395,267.9Zm-7.13,4.61c0,3.06,1,4.58,3.13,4.58s3.14-1.53,3.14-4.6-1-4.59-3.11-4.59S387.84,269.44,387.84,272.51Z" style="fill:#7a40c6"/><path d="M405.83,278a4.67,4.67,0,0,1-2.72.82,3.18,3.18,0,0,1-2.4-.88,3.45,3.45,0,0,1-.87-2.54v-7.25h-2.12v-1.62h2.12v-2.72l2.12-.25v3h2.88l-.23,1.62H402v7.16a2.16,2.16,0,0,0,.34,1.36,1.33,1.33,0,0,0,1.11.42,3.51,3.51,0,0,0,1.62-.48Z" style="fill:#7a40c6"/><path d="M411.06,260.24,412,262l-4.89,2-.64-1.12Zm-.76,6.25v12h-2.12v-12Z" style="fill:#7a40c6"/><path d="M423.14,267.19a3.75,3.75,0,0,1,.94,2.7v8.62H422v-8.33a2.65,2.65,0,0,0-.49-1.8,1.84,1.84,0,0,0-1.43-.52,2.8,2.8,0,0,0-1.7.54A5.76,5.76,0,0,0,417,270v8.53h-2.12v-12h1.82l.18,1.78a4.9,4.9,0,0,1,1.6-1.51,4.23,4.23,0,0,1,2.11-.55A3.41,3.41,0,0,1,423.14,267.19Z" style="fill:#7a40c6"/><path d="M430.27,261.13a1.45,1.45,0,0,1,0,2,1.51,1.51,0,0,1-1.08.4,1.5,1.5,0,0,1-1.06-.4,1.45,1.45,0,0,1,0-2,1.42,1.42,0,0,1,1.06-.41A1.44,1.44,0,0,1,430.27,261.13Zm0,5.36v12h-2.12v-12Z" style="fill:#7a40c6"/><path d="M441.4,266.52a5.84,5.84,0,0,1,1.73,1l-1,1.33a5.36,5.36,0,0,0-1.25-.68,4.15,4.15,0,0,0-1.35-.21,2.65,2.65,0,0,0-2.29,1.16,5.94,5.94,0,0,0-.82,3.44,5.63,5.63,0,0,0,.81,3.37,2.68,2.68,0,0,0,2.3,1.08,3.91,3.91,0,0,0,1.31-.21,7,7,0,0,0,1.34-.7l1,1.37a5.83,5.83,0,0,1-3.71,1.32,4.82,4.82,0,0,1-3.88-1.64,6.69,6.69,0,0,1-1.42-4.54,8.11,8.11,0,0,1,.64-3.35A5.17,5.17,0,0,1,436.6,267a4.94,4.94,0,0,1,2.82-.8A6.23,6.23,0,0,1,441.4,266.52Z" style="fill:#7a40c6"/><path d="M454.54,267.9a7,7,0,0,1,1.42,4.59,7.92,7.92,0,0,1-.65,3.29,5.09,5.09,0,0,1-1.86,2.22,5.32,5.32,0,0,1-2.91.78,4.92,4.92,0,0,1-4-1.69,6.86,6.86,0,0,1-1.43-4.58,7.93,7.93,0,0,1,.65-3.3,5.06,5.06,0,0,1,1.86-2.21,5.34,5.34,0,0,1,2.93-.79A4.91,4.91,0,0,1,454.54,267.9Zm-7.13,4.61c0,3.06,1,4.58,3.13,4.58s3.14-1.53,3.14-4.6-1-4.59-3.11-4.59S447.41,269.44,447.41,272.51Z" style="fill:#7a40c6"/><path d="M610.68,262.17v15.71h-2.19V262.17Z" style="fill:#7a40c6"/><path d="M620.86,265.93a6.74,6.74,0,0,1,1.89,1l-.9,1.32a7.44,7.44,0,0,0-1.58-.78,5.13,5.13,0,0,0-1.58-.25,2.79,2.79,0,0,0-1.63.42,1.43,1.43,0,0,0,0,2.3,6.8,6.8,0,0,0,2,.8,7.39,7.39,0,0,1,3,1.36,3,3,0,0,1,1,2.38,3.06,3.06,0,0,1-1.39,2.71,6,6,0,0,1-3.4.94,6.75,6.75,0,0,1-4.58-1.58l1.13-1.28a5.51,5.51,0,0,0,3.41,1.17,3.26,3.26,0,0,0,1.9-.49,1.54,1.54,0,0,0,.7-1.34,1.73,1.73,0,0,0-.25-1,2.11,2.11,0,0,0-.88-.66,11.63,11.63,0,0,0-1.82-.6,6.35,6.35,0,0,1-2.8-1.35,2.89,2.89,0,0,1-.86-2.14,2.82,2.82,0,0,1,.56-1.7,3.67,3.67,0,0,1,1.57-1.19,5.75,5.75,0,0,1,2.25-.42A6.78,6.78,0,0,1,620.86,265.93Z" style="fill:#7a40c6"/><path d="M634.09,267.28a6.86,6.86,0,0,1,1.42,4.58,8.09,8.09,0,0,1-.64,3.3,5.15,5.15,0,0,1-1.87,2.21,5.29,5.29,0,0,1-2.9.79,5,5,0,0,1-4-1.69,6.89,6.89,0,0,1-1.43-4.59,7.92,7.92,0,0,1,.65-3.29,5,5,0,0,1,1.86-2.21,5.26,5.26,0,0,1,2.93-.79A4.88,4.88,0,0,1,634.09,267.28Zm-7.13,4.6q0,4.59,3.14,4.59c2.08,0,3.13-1.54,3.13-4.61s-1-4.58-3.11-4.58S627,268.81,627,271.88Z" style="fill:#7a40c6"/><path d="M647.13,266.57a3.74,3.74,0,0,1,.93,2.69v8.62H646v-8.32a2.64,2.64,0,0,0-.49-1.8,1.85,1.85,0,0,0-1.43-.53,2.75,2.75,0,0,0-1.7.55,5.7,5.7,0,0,0-1.38,1.57v8.53h-2.12v-12h1.82l.18,1.78a4.8,4.8,0,0,1,1.6-1.51,4.22,4.22,0,0,1,2.11-.54A3.42,3.42,0,0,1,647.13,266.57Z" style="fill:#7a40c6"/><path d="M654.26,260.5a1.38,1.38,0,0,1,.42,1,1.32,1.32,0,0,1-.42,1,1.49,1.49,0,0,1-1.08.4,1.44,1.44,0,0,1-1.06-.4,1.32,1.32,0,0,1-.42-1,1.38,1.38,0,0,1,.42-1,1.45,1.45,0,0,1,1.06-.41A1.49,1.49,0,0,1,654.26,260.5Zm0,5.36v12h-2.12v-12Z" style="fill:#7a40c6"/><path d="M667.41,276.16a1.55,1.55,0,0,0,.76.54l-.48,1.46a3.22,3.22,0,0,1-1.52-.53,2.38,2.38,0,0,1-.85-1.28,4.08,4.08,0,0,1-3.62,1.81,3.89,3.89,0,0,1-2.83-1,3.49,3.49,0,0,1-1-2.62,3.42,3.42,0,0,1,1.39-2.94,6.55,6.55,0,0,1,4-1H665v-.89a2.32,2.32,0,0,0-.62-1.82,2.81,2.81,0,0,0-1.91-.55,10.67,10.67,0,0,0-3.27.64l-.53-1.53a12.22,12.22,0,0,1,4.19-.82,4.37,4.37,0,0,1,3.2,1,3.92,3.92,0,0,1,1.06,2.95v5.5A1.87,1.87,0,0,0,667.41,276.16ZM665,274.71V272h-1.59c-2.24,0-3.36.82-3.36,2.47a2.27,2.27,0,0,0,.53,1.62,2.09,2.09,0,0,0,1.57.54A3.15,3.15,0,0,0,665,274.71Z" style="fill:#7a40c6"/><path d="M678.45,265.86v1.6l-6.34,8.67h6.41l-.26,1.75h-8.54v-1.57l6.31-8.67h-5.78v-1.78Z" style="fill:#7a40c6"/><path d="M683.52,260.5a1.41,1.41,0,0,1,.41,1,1.35,1.35,0,0,1-.41,1,1.5,1.5,0,0,1-1.09.4,1.46,1.46,0,0,1-1.06-.4,1.35,1.35,0,0,1-.41-1,1.41,1.41,0,0,1,.41-1,1.46,1.46,0,0,1,1.06-.41A1.5,1.5,0,0,1,683.52,260.5Zm0,5.36v12H681.4v-12Z" style="fill:#7a40c6"/><path d="M697.64,261v16.85h-1.87l-.21-1.66a4.38,4.38,0,0,1-1.49,1.42,4.18,4.18,0,0,1-5.38-1.17,7.63,7.63,0,0,1-1.21-4.54,8.9,8.9,0,0,1,.57-3.29,5.18,5.18,0,0,1,1.66-2.24,4.12,4.12,0,0,1,2.54-.81,4.38,4.38,0,0,1,3.27,1.48v-6.3Zm-3.46,15a5.31,5.31,0,0,0,1.34-1.34v-5.88a4.67,4.67,0,0,0-1.28-1.18,3,3,0,0,0-1.53-.4,2.46,2.46,0,0,0-2.18,1.17,6.33,6.33,0,0,0-.77,3.46,6.74,6.74,0,0,0,.71,3.47,2.29,2.29,0,0,0,2,1.14A3,3,0,0,0,694.18,276.05Z" style="fill:#7a40c6"/><path d="M710.26,276.16a1.51,1.51,0,0,0,.76.54l-.48,1.46a3.22,3.22,0,0,1-1.52-.53,2.39,2.39,0,0,1-.86-1.28,4.06,4.06,0,0,1-3.61,1.81,3.93,3.93,0,0,1-2.84-1,3.48,3.48,0,0,1-1-2.62,3.42,3.42,0,0,1,1.39-2.94,6.54,6.54,0,0,1,3.95-1h1.87v-.89a2.32,2.32,0,0,0-.62-1.82,2.84,2.84,0,0,0-1.92-.55,10.67,10.67,0,0,0-3.27.64l-.53-1.53a12.32,12.32,0,0,1,4.2-.82,4.39,4.39,0,0,1,3.2,1,4,4,0,0,1,1.06,2.95v5.5A1.87,1.87,0,0,0,710.26,276.16Zm-2.37-1.45V272H706.3c-2.24,0-3.36.82-3.36,2.47a2.27,2.27,0,0,0,.52,1.62,2.12,2.12,0,0,0,1.57.54A3.17,3.17,0,0,0,707.89,274.71Z" style="fill:#7a40c6"/><path d="M182.74,40.19A6.26,6.26,0,0,1,185.09,43a10.53,10.53,0,0,1,.84,4.42,10.37,10.37,0,0,1-.84,4.38,6.13,6.13,0,0,1-5.87,3.75,6.58,6.58,0,0,1-3.51-.94,6.18,6.18,0,0,1-2.35-2.76,10.47,10.47,0,0,1-.84-4.4,10.5,10.5,0,0,1,.84-4.38,6.15,6.15,0,0,1,5.86-3.79A6.51,6.51,0,0,1,182.74,40.19ZM176,42.57a8.16,8.16,0,0,0-1.15,4.84A7.91,7.91,0,0,0,176,52.2a3.82,3.82,0,0,0,3.21,1.53q4.38,0,4.38-6.35T179.22,41A3.79,3.79,0,0,0,176,42.57Z" style="fill:#7a40c6"/><path d="M194.2,48.8l4.21,6.43h-2.55l-3-5.09-3,5.09h-2.4l4.24-6.34L188,43.21h2.49l2.54,4.4,2.55-4.4h2.4Z" style="fill:#7a40c6"/><path d="M203.37,37.85a1.41,1.41,0,0,1,.41,1,1.35,1.35,0,0,1-.41,1,1.5,1.5,0,0,1-1.09.4,1.46,1.46,0,0,1-1.06-.4,1.35,1.35,0,0,1-.41-1,1.41,1.41,0,0,1,.41-1,1.46,1.46,0,0,1,1.06-.41A1.5,1.5,0,0,1,203.37,37.85Zm0,5.36v12h-2.12v-12Z" style="fill:#7a40c6"/><path d="M217.49,38.37V55.23h-1.87l-.21-1.66A4.48,4.48,0,0,1,213.92,55a4,4,0,0,1-2,.52,3.92,3.92,0,0,1-3.37-1.69,7.63,7.63,0,0,1-1.21-4.54A8.9,8.9,0,0,1,207.9,46a5.18,5.18,0,0,1,1.66-2.24,4.12,4.12,0,0,1,2.54-.81,4.38,4.38,0,0,1,3.27,1.48v-6.3ZM214,53.4a5.31,5.31,0,0,0,1.34-1.34V46.18A4.67,4.67,0,0,0,214.09,45a2.94,2.94,0,0,0-1.53-.4,2.47,2.47,0,0,0-2.18,1.16,6.4,6.4,0,0,0-.77,3.47,6.74,6.74,0,0,0,.71,3.47,2.29,2.29,0,0,0,2.05,1.14A3,3,0,0,0,214,53.4Z" style="fill:#7a40c6"/><path d="M230.11,53.51a1.57,1.57,0,0,0,.76.54l-.49,1.46a3.33,3.33,0,0,1-1.51-.53A2.39,2.39,0,0,1,228,53.7a4.09,4.09,0,0,1-3.61,1.81,3.91,3.91,0,0,1-2.84-1,3.48,3.48,0,0,1-1-2.62,3.42,3.42,0,0,1,1.39-2.94,6.54,6.54,0,0,1,4-1h1.87V47a2.36,2.36,0,0,0-.62-1.83,2.89,2.89,0,0,0-1.92-.54,10.67,10.67,0,0,0-3.27.64l-.53-1.53a12.27,12.27,0,0,1,4.19-.82,4.44,4.44,0,0,1,3.21,1,4,4,0,0,1,1.06,3v5.5A1.87,1.87,0,0,0,230.11,53.51Zm-2.37-1.45V49.3h-1.59c-2.25,0-3.37.82-3.37,2.46a2.24,2.24,0,0,0,.53,1.62,2.09,2.09,0,0,0,1.57.55A3.18,3.18,0,0,0,227.74,52.06Z" style="fill:#7a40c6"/><path d="M238.93,55.48v1a2.42,2.42,0,0,1,1.62.63,1.78,1.78,0,0,1,.52,1.31,2,2,0,0,1-.8,1.69,3.41,3.41,0,0,1-2.05.59,4.59,4.59,0,0,1-1.2-.15,2.68,2.68,0,0,1-.9-.4L236.7,59a3.08,3.08,0,0,0,1.45.36,1.42,1.42,0,0,0,.84-.22.84.84,0,0,0-.17-1.41,3.8,3.8,0,0,0-1.57-.24l.25-2.05a4.69,4.69,0,0,1-3.2-1.92,7,7,0,0,1-1.15-4.2,8.31,8.31,0,0,1,.64-3.35,5.17,5.17,0,0,1,1.84-2.24,4.94,4.94,0,0,1,2.82-.79,6.23,6.23,0,0,1,2,.3,5.67,5.67,0,0,1,1.73,1l-1,1.32a5.29,5.29,0,0,0-1.25-.67,3.9,3.9,0,0,0-1.35-.22,2.65,2.65,0,0,0-2.29,1.16,6,6,0,0,0-.82,3.45,5.62,5.62,0,0,0,.81,3.36,2.67,2.67,0,0,0,2.3,1.09,3.91,3.91,0,0,0,1.31-.22,6.44,6.44,0,0,0,1.34-.7l1,1.37A5.76,5.76,0,0,1,238.93,55.48Z" style="fill:#7a40c6"/><path d="M253.47,53.51a1.57,1.57,0,0,0,.76.54l-.49,1.46a3.37,3.37,0,0,1-1.52-.53,2.44,2.44,0,0,1-.85-1.28,4.09,4.09,0,0,1-3.62,1.81,3.9,3.9,0,0,1-2.83-1,3.49,3.49,0,0,1-1-2.62,3.42,3.42,0,0,1,1.4-2.94,6.54,6.54,0,0,1,3.95-1h1.87V47a2.33,2.33,0,0,0-.63-1.83,2.85,2.85,0,0,0-1.91-.54,10.67,10.67,0,0,0-3.27.64l-.53-1.53a12.27,12.27,0,0,1,4.19-.82,4.4,4.4,0,0,1,3.2,1,4,4,0,0,1,1.06,3v5.5A1.87,1.87,0,0,0,253.47,53.51Zm-4.07-13.4a5.28,5.28,0,0,1-.79-.46,3.22,3.22,0,0,0-.59-.36,1.11,1.11,0,0,0-.49-.12,1,1,0,0,0-.65.25,3.38,3.38,0,0,0-.58.8L245,39.58a4.46,4.46,0,0,1,1.07-1.46,2.19,2.19,0,0,1,1.45-.54,1.74,1.74,0,0,1,.82.17,7.12,7.12,0,0,1,.79.46,2,2,0,0,0,.29.19,1.86,1.86,0,0,0,.4.2,1,1,0,0,0,1-.17,3.57,3.57,0,0,0,.6-.76l1.29.64a4,4,0,0,1-1.08,1.46,2.31,2.31,0,0,1-1.43.5A2,2,0,0,1,249.4,40.11Zm1.7,12V49.3h-1.59c-2.25,0-3.37.82-3.37,2.46a2.24,2.24,0,0,0,.53,1.62,2.09,2.09,0,0,0,1.57.55A3.18,3.18,0,0,0,251.1,52.06Z" style="fill:#7a40c6"/><path d="M265.92,44.62a7,7,0,0,1,1.41,4.59,7.93,7.93,0,0,1-.64,3.3,5,5,0,0,1-1.87,2.21,5.26,5.26,0,0,1-2.9.79,5,5,0,0,1-4-1.69,6.85,6.85,0,0,1-1.43-4.59,7.92,7.92,0,0,1,.64-3.29A5.11,5.11,0,0,1,259,43.72a5.32,5.32,0,0,1,2.93-.78A4.92,4.92,0,0,1,265.92,44.62Zm-7.13,4.61q0,4.59,3.13,4.59t3.13-4.61q0-4.59-3.1-4.59T258.79,49.23Z" style="fill:#7a40c6"/></g><g id="preto"><rect x="455.67" y="73.32" width="129.92" height="0.48" style="fill:#010000"/><polygon points="573.82 69.21 585.34 73.56 573.82 77.9 576.02 73.56 573.82 69.21 573.82 69.21" style="fill:#010000;fill-rule:evenodd"/><path d="M573.33,78.34l2.42-4.78-2.42-4.79L586,73.56Zm1-8.69,2,3.91-2,3.9,10.36-3.9Z" style="fill:#010000"/><rect x="149.52" y="73.24" width="152.95" height="0.48" style="fill:#010000"/><polygon points="290.71 69.13 302.23 73.48 290.71 77.82 292.91 73.48 290.71 69.13 290.71 69.13" style="fill:#010000;fill-rule:evenodd"/><path d="M290.22,78.26l2.42-4.78-2.42-4.79,12.69,4.79Zm1-8.69,2,3.91-2,3.9,10.35-3.9Z" style="fill:#010000"/><path d="M79.54,25.61H76.62L70.17,12.26c.09,1.05.16,2,.22,2.91s.08,2,.08,3.23v7.21h-2V9.89h2.86l6.51,13.37c0-.4-.1-1.09-.18-2.08s-.12-1.89-.12-2.71V9.89h2.05Z"/><path d="M75.11,149.3a7.27,7.27,0,0,1,2,1.19l-1.2,1.39a4.82,4.82,0,0,0-3.06-1.16,3.9,3.9,0,0,0-3.19,1.5q-1.22,1.51-1.21,4.84a7.76,7.76,0,0,0,1.2,4.78,3.82,3.82,0,0,0,3.18,1.54,4.27,4.27,0,0,0,1.77-.34,9.45,9.45,0,0,0,1.61-1l1.09,1.37a5.93,5.93,0,0,1-1.89,1.25,6.49,6.49,0,0,1-2.65.5,6.38,6.38,0,0,1-3.45-.94A6.24,6.24,0,0,1,67,161.47a10.36,10.36,0,0,1-.85-4.41,10.2,10.2,0,0,1,.88-4.41,6.31,6.31,0,0,1,2.37-2.77,6.13,6.13,0,0,1,3.34-.94A7,7,0,0,1,75.11,149.3Z"/><path d="M88.67,164.93v-7.37H82v7.37H79.8V149.21H82v6.57h6.68v-6.57h2.19v15.72Z"/><path d="M99.94,159.69a2.89,2.89,0,0,1,1.23,1.11,2.8,2.8,0,0,1,.43,1.52,2.61,2.61,0,0,1-.64,1.8,3.28,3.28,0,0,1-1.72,1,3.12,3.12,0,0,1,2,.86A2.79,2.79,0,0,1,102,168a3.56,3.56,0,0,1-.51,1.88,3.42,3.42,0,0,1-1.45,1.31,4.72,4.72,0,0,1-2.17.48,5,5,0,0,1-2-.4,4.59,4.59,0,0,1-1.61-1.21l1-.92a4.08,4.08,0,0,0,1.22.9,3.27,3.27,0,0,0,1.37.29,2.48,2.48,0,0,0,1.79-.64,2.3,2.3,0,0,0,.65-1.71,2,2,0,0,0-.61-1.67,2.9,2.9,0,0,0-1.8-.48h-.9l.2-1.28h.61a2.28,2.28,0,0,0,1.57-.55,2,2,0,0,0,.62-1.56,1.73,1.73,0,0,0-.54-1.34,2.14,2.14,0,0,0-1.47-.49,3.19,3.19,0,0,0-1.29.25,4.2,4.2,0,0,0-1.2.83l-.87-1A5,5,0,0,1,98,159.27,4.13,4.13,0,0,1,99.94,159.69Z"/><rect x="70.01" y="100.59" width="45.6" height="0.5" transform="translate(-37.96 59.84) rotate(-29.97)" style="fill:#020200"/><rect x="112.31" y="44.36" width="0.5" height="45.08" style="fill:#020200"/><rect x="104.63" y="48.16" width="0.5" height="37.47" style="fill:#020200"/><rect x="53.07" y="78.45" width="0.5" height="45.34" transform="translate(-60.95 97.9) rotate(-60.58)" style="fill:#020200"/><rect x="56.91" y="75.46" width="0.5" height="37.73" transform="translate(-53.07 98.01) rotate(-60.7)" style="fill:#020200"/><rect x="97.5" y="18.91" width="0.5" height="34.07" transform="translate(18.2 103.16) rotate(-60.38)" style="fill:#020200"/><rect x="33.33" y="44.9" width="0.5" height="45.08" style="fill:#020200"/><rect x="31.28" y="36.24" width="33.12" height="0.5" transform="translate(-11.91 29.41) rotate(-30.58)" style="fill:#020200"/><rect x="38.61" y="41.12" width="31.62" height="0.5" transform="translate(-13.38 32.6) rotate(-29.87)" style="fill:#020200"/><rect x="73.09" y="112.25" width="0.5" height="33.13" transform="translate(-2.12 1.23) rotate(-0.95)" style="fill:#020200"/><path d="M391.24,30.24h-2.92l-6.45-13.35c.09,1.05.16,2,.22,2.91s.08,2,.08,3.23v7.21h-2.05V14.52H383l6.52,13.37c0-.4-.11-1.09-.18-2.08s-.12-1.89-.12-2.71V14.52h2.05Z"/><path d="M386.81,153.11a7.27,7.27,0,0,1,2,1.19l-1.2,1.39a4.82,4.82,0,0,0-3.06-1.16,3.9,3.9,0,0,0-3.19,1.5q-1.22,1.51-1.21,4.84a7.76,7.76,0,0,0,1.2,4.78,3.85,3.85,0,0,0,3.18,1.54,4.27,4.27,0,0,0,1.77-.35,8.74,8.74,0,0,0,1.61-1l1.09,1.37a5.93,5.93,0,0,1-1.89,1.25,6.66,6.66,0,0,1-2.65.5,6.06,6.06,0,0,1-5.8-3.73,10.52,10.52,0,0,1-.84-4.41,10.28,10.28,0,0,1,.88-4.42,6.43,6.43,0,0,1,2.37-2.77,6.2,6.2,0,0,1,3.34-.93A7,7,0,0,1,386.81,153.11Z"/><path d="M347.83,174.85a6.32,6.32,0,0,1,2.35,2.77,10.55,10.55,0,0,1,.84,4.43,10.43,10.43,0,0,1-.84,4.38,6.14,6.14,0,0,1-5.87,3.74,6.49,6.49,0,0,1-3.51-.94,6.12,6.12,0,0,1-2.35-2.76,11.89,11.89,0,0,1,0-8.78,6.15,6.15,0,0,1,5.86-3.79A6.51,6.51,0,0,1,347.83,174.85Zm-6.74,2.38a8.16,8.16,0,0,0-1.15,4.84,8,8,0,0,0,1.16,4.79,3.82,3.82,0,0,0,3.21,1.53c2.92,0,4.38-2.12,4.38-6.34s-1.46-6.37-4.38-6.37A3.79,3.79,0,0,0,341.09,177.23Z"/><path d="M426.81,174.85a6.25,6.25,0,0,1,2.35,2.77,10.54,10.54,0,0,1,.85,4.43,10.43,10.43,0,0,1-.85,4.38,6.14,6.14,0,0,1-5.86,3.74,6.47,6.47,0,0,1-3.51-.94,6.12,6.12,0,0,1-2.35-2.76,11.89,11.89,0,0,1,0-8.78,6.58,6.58,0,0,1,9.37-2.84Zm-6.73,2.38a8.16,8.16,0,0,0-1.15,4.84,7.91,7.91,0,0,0,1.16,4.79,3.81,3.81,0,0,0,3.21,1.53c2.92,0,4.38-2.12,4.38-6.34s-1.46-6.37-4.38-6.37A3.78,3.78,0,0,0,420.08,177.23Z"/><path d="M441.18,189.89v-7.36H434.5v7.36h-2.19V174.18h2.19v6.57h6.68v-6.57h2.19v15.71Z"/><rect x="381.55" y="102.77" width="45.6" height="0.5" transform="translate(2.6 215.74) rotate(-29.97)" style="fill:#020200"/><rect x="423.84" y="46.53" width="0.5" height="45.08" style="fill:#020200"/><rect x="416.16" y="50.34" width="0.5" height="37.47" style="fill:#020200"/><rect x="364.61" y="80.62" width="0.5" height="45.34" transform="translate(95.69 370.38) rotate(-60.58)" style="fill:#020200"/><rect x="368.45" y="77.63" width="0.5" height="37.73" transform="translate(104.11 370.81) rotate(-60.7)" style="fill:#020200"/><rect x="409.03" y="21.08" width="0.5" height="34.07" transform="translate(173.9 375.1) rotate(-60.39)" style="fill:#020200"/><rect x="344.86" y="47.08" width="0.5" height="45.08" style="fill:#020200"/><rect x="342.81" y="38.41" width="33.12" height="0.5" transform="translate(30.31 188.2) rotate(-30.58)" style="fill:#020200"/><polygon points="352.37 51.64 352.12 51.2 379.54 35.45 379.79 35.89 352.37 51.64" style="fill:#020200"/><polygon points="384.3 146.47 383.8 146.46 384.35 114.42 384.85 114.42 384.3 146.47" style="fill:#020200"/><rect x="355.14" y="165.5" width="19.42" height="0.5" transform="translate(-32.32 219.06) rotate(-32.08)" style="fill:#020200"/><polygon points="356.75 179.81 356.5 179.38 372.95 169.61 373.21 170.03 356.75 179.81" style="fill:#020200"/><rect x="403.27" y="158.79" width="0.5" height="22.06" transform="translate(56.96 437.33) rotate(-60.49)" style="fill:#020200"/><path d="M657.46,32.94h-2.92l-6.45-13.35c.09,1.05.16,2,.22,2.91s.08,2,.08,3.23v7.21h-2V17.22h2.85l6.52,13.37c0-.4-.11-1.09-.18-2.08s-.12-1.89-.12-2.71V17.22h2.05Z"/><path d="M655.5,154.6a7.27,7.27,0,0,1,2,1.19l-1.19,1.39a4.86,4.86,0,0,0-3.07-1.16,3.9,3.9,0,0,0-3.19,1.5,10.2,10.2,0,0,0,0,9.62,3.82,3.82,0,0,0,3.18,1.54,4.36,4.36,0,0,0,1.77-.34,9.5,9.5,0,0,0,1.62-1l1.08,1.37a5.82,5.82,0,0,1-1.89,1.25,6.49,6.49,0,0,1-2.65.5,6.32,6.32,0,0,1-3.44-.94,6.2,6.2,0,0,1-2.35-2.79,10.52,10.52,0,0,1-.84-4.41,10.2,10.2,0,0,1,.87-4.41,6.47,6.47,0,0,1,2.37-2.78,6.24,6.24,0,0,1,3.35-.93A7,7,0,0,1,655.5,154.6Z"/><path d="M616,176a6.25,6.25,0,0,1,2.35,2.77,10.58,10.58,0,0,1,.84,4.43,10.43,10.43,0,0,1-.84,4.38,6.28,6.28,0,0,1-2.35,2.78,6.39,6.39,0,0,1-3.51,1,6.58,6.58,0,0,1-3.52-.93,6.29,6.29,0,0,1-2.35-2.76,11.92,11.92,0,0,1,0-8.79,6.18,6.18,0,0,1,5.87-3.78A6.47,6.47,0,0,1,616,176Zm-6.74,2.39a8.18,8.18,0,0,0-1.15,4.83A8,8,0,0,0,609.3,188a3.83,3.83,0,0,0,3.22,1.53c2.92,0,4.37-2.11,4.37-6.34s-1.45-6.36-4.37-6.36A3.77,3.77,0,0,0,609.29,178.34Z"/><path d="M697.5,191h-2.93l-6.44-13.35q.14,1.57.21,2.91c.06.89.08,2,.08,3.23V191h-2V175.28h2.86l6.52,13.37c0-.4-.11-1.09-.19-2.08s-.11-1.89-.11-2.71v-8.58h2Z"/><path d="M709.26,191v-7.37h-6.68V191h-2.19V175.28h2.19v6.57h6.68v-6.57h2.19V191Z"/><path d="M697.5,236.07h-2.93l-6.44-13.34c.09,1.05.16,2,.21,2.9s.08,2,.08,3.23v7.21h-2V220.35h2.86l6.52,13.37c0-.39-.11-1.09-.19-2.08s-.11-1.89-.11-2.71v-8.58h2Z"/><path d="M709.13,236.07V228.7h-6.68v7.37h-2.19V220.35h2.19v6.57h6.68v-6.57h2.18v15.72Z"/><path d="M719.28,230.86a3.11,3.11,0,0,1,1.72,2.85,4.62,4.62,0,0,1-.49,2.09A10.65,10.65,0,0,1,719,238c-.69.78-1.74,1.86-3.13,3.25h5.44l-.2,1.38H714v-1.31c1.61-1.66,2.76-2.88,3.43-3.65a10.17,10.17,0,0,0,1.45-2,4.07,4.07,0,0,0,.44-1.85,2,2,0,0,0-.55-1.46,2,2,0,0,0-1.44-.53,2.75,2.75,0,0,0-1.31.3,4.88,4.88,0,0,0-1.19,1l-1.09-.86a4.86,4.86,0,0,1,1.65-1.36,4.49,4.49,0,0,1,2-.45A4,4,0,0,1,719.28,230.86Z"/><rect x="649.75" y="103.85" width="45.61" height="0.5" transform="translate(37.91 349.85) rotate(-29.97)" style="fill:#020200"/><rect x="692.05" y="47.62" width="0.5" height="45.08" style="fill:#020200"/><rect x="684.37" y="51.42" width="0.5" height="37.47" style="fill:#020200"/><rect x="632.81" y="81.71" width="0.5" height="45.33" transform="translate(231.19 604.53) rotate(-60.58)" style="fill:#020200"/><rect x="636.65" y="78.72" width="0.5" height="37.73" transform="translate(240.14 605.27) rotate(-60.7)" style="fill:#020200"/><rect x="677.23" y="22.16" width="0.5" height="34.07" transform="translate(308.63 608.82) rotate(-60.39)" style="fill:#020200"/><rect x="613.07" y="48.16" width="0.5" height="45.08" style="fill:#020200"/><rect x="611.02" y="39.49" width="33.12" height="0.5" transform="translate(67.06 324.79) rotate(-30.58)" style="fill:#020200"/><polygon points="620.57 52.72 620.32 52.29 647.74 36.54 647.99 36.97 620.57 52.72" style="fill:#020200"/><polygon points="652.51 147.56 652.01 147.55 652.55 115.5 653.05 115.51 652.51 147.56" style="fill:#020200"/><rect x="623.35" y="166.58" width="19.42" height="0.5" transform="translate(8.05 361.66) rotate(-32.08)" style="fill:#020200"/><rect x="623.49" y="175.54" width="19.14" height="0.5" transform="translate(-0.81 348.64) rotate(-30.77)" style="fill:#020200"/><rect x="671.75" y="159.78" width="0.5" height="22.8" transform="translate(187.66 667.47) rotate(-59.99)" style="fill:#020200"/><polygon points="692.55 216.53 692.05 216.52 692.59 194.8 693.09 194.81 692.55 216.53" style="fill:#020200"/></g></g></svg>