<svg xmlns="http://www.w3.org/2000/svg" xmlns:xlink="http://www.w3.org/1999/xlink" viewBox="0 0 730 529.86"><defs><clipPath id="clip-path"><rect x="31.2" y="49.7" width="667.71" height="425.66" style="fill:none"/></clipPath></defs><title>fig-1-2</title><g id="fig-1-2"><line x1="164.02" y1="485.56" x2="192.98" y2="485.56" style="fill:none;stroke:#e55843;stroke-miterlimit:10;stroke-width:2px"/><line x1="324.27" y1="485.56" x2="353.23" y2="485.56" style="fill:none;stroke:#40cc67;stroke-linecap:round;stroke-width:2px"/><g><path d="M683.3,131.62c-2,.87-4.18,4-5.55,5.61-1.74,2-3.87,3.82-5.62,5.94-3.58,4.32-4.63,9.93-7.53,14.74s-5.35,8.79-8.38,13.33c-1.44,2.16-4.15,3.95-6,5.79a10.53,10.53,0,0,0-3.17,5.5A98.32,98.32,0,0,1,640.74,198c-2,4.13-3.2,10.78-7.19,13.15s-7.91,5.17-12.29,6.61c-2.33.77-6.56,1.74-8,4-3.46,5.12-6.5,9.46-8.92,13.41-1.61,2.62-1.95,4-4.74,5.12-2.26.9-4.81,2.29-7,2.91-2.73.79-4.45,1.39-6.43,1.41a12.26,12.26,0,0,0-4,.42c-1.15.37-4.12,1.46-5.25,1.44-6.93-.17-7,1.46-11.38,3.13a21.44,21.44,0,0,0-8.16,6c-1.18,1.29-2.61,2.22-3.59,3.6-1.1,1.54-2.81,2.72-4,4.15s-1.67,5.14-3.6,5.32-4-2-5.45-3.13c-1.18-.93-2.77-3.71-5.63-5s-7.27-3.44-9.9-4.9c-2.92-1.63-4.64-.63-7.86,0-1.24.26-3.26.74-4.53,1-1.49.32-5,.43-6.43.89-3,.94-4.76,1.71-8,1.91-4.37.26-6.47-.17-10.16,1.27-2,.79-5.62,4-7.26,5.5-.65.59-1.16,1.14-2.13,2-.5.44-2.58,2.36-2.11,2.24" style="fill:none;stroke:#40cc67;stroke-linecap:round"/><path d="M682.56,160.88c-4.28.47-5.78,4-8.29,7.05-2,2.37-4.31,4.4-6.21,6.88-3.87,5.07-.61,7.21-8.79,16.7-2.26,2.61-4.78,5.34-6.94,8.11a59.08,59.08,0,0,0-5.42,7.95c-3.08,5.57-6.54,11.06-9.06,17.15a30.89,30.89,0,0,1-5,7.61,75.47,75.47,0,0,1-6,6.59c-4.67,4.29-9.68,8-14.53,11.84a75,75,0,0,0-7.57,7.7c-.91,1-2.69.7-4.1.93a37.39,37.39,0,0,1-4.76.3c-3.54.12-6.11.39-9.24,2.42-2.54,1.65-4.48,3.79-6.73,5.75-3.19,2.78-8.12,9-12.35,8.87a3.53,3.53,0,0,1-2.37-.67c-.67-.47-1.51-1.33-2.08-1.74-.73-.53-1.33-1.12-2-1.52-1.94-1.13-3.11-.84-5.12.66-1.44,1.09-4.21,3.35-5,5a32.82,32.82,0,0,1-2,3.27,53,53,0,0,0-3.27,6.09c-2,4.23-3.83,8.35-5.75,12.63-.8,1.78-3.45,9-6,8a7.82,7.82,0,0,1-3.86-4.2c-.86-2.15-1-4.32-1.58-6.6-.54-2.05-.35-4.15-1.27-6-.65-1.32-2.4-2.41-3.92-3.1a6.35,6.35,0,0,0-2.4-.78,16.74,16.74,0,0,0-2.55.3c-2,.33-5,1.15-6.6,1.06-4-.22-4.3-4.47-6.41-7.24a19.43,19.43,0,0,0-5.92-5,9.78,9.78,0,0,0-3.73-.4c-2.32,0-3.55.25-5.21.12a21.62,21.62,0,0,0-4.6.17,36,36,0,0,0-6.4,1.38c-5.46,1.69-10.91,3.32-15.85,6a130.24,130.24,0,0,1-15.82,7.45c-7.5,2.86-9.58,11.53-14,17.68a60.37,60.37,0,0,1-13.36,13.62c-3.24,2.39-6.15,5.19-10.2,5.88-3.27.55-6.43.21-9.5,1.65-3.58,1.67-5.33,5.16-7.72,8.34a60.83,60.83,0,0,0-3.77,5.82c-.93,1.63-2.46,5.06-3.39,6.26-2.15,2.78-5.28,5-7.84,7.44-1.24,1.19-3,2.48-4.11,3.61a5.65,5.65,0,0,1-5.93,1.56c-2.26-.83-6.87-.44-9-.16-4.17.56-6.16,2.39-9.08,4.75-2.46,2-4.63,4.44-7,6.48-2.84,2.45-3.42,4.65-7.05,5-1.3.14-3.41-.07-4.63-.06-2,0-3.7,1.2-5.41,1.7-1.95.56-7.08,1.9-8.74,3" style="fill:none;stroke:#e55843;stroke-miterlimit:10"/><path id="roxo" d="M683.3,153.85c-2.18-.92-5.46,3.71-6.48,5-1.46,1.85-3.53,3-5.33,4.44-4,3.12-3.77,8.2-6.73,12.19s-5.66,7.73-8.41,11.8c-1.27,1.9-2.37,4.25-3.93,5.54a18.44,18.44,0,0,0-4.53,4.78c-1.38,2.12-2.71,5.16-3.87,7.15-.06,0-.81,2-.83,1.92a37.4,37.4,0,0,1-2.42,3.62,38.15,38.15,0,0,0-3.5,5,17,17,0,0,1-3.38,4.91c-1.48,1.38-4.27,2.73-5.79,4.34-3.15,3.35-5.44,7.44-8.26,11a48.54,48.54,0,0,0-3.32,4.65,19.63,19.63,0,0,1-4,4.5c-.12.11-1.17.64-1.31.73-1.3.87-2.68,1.21-3.86,2a33.39,33.39,0,0,1-4.53,2,38.6,38.6,0,0,1-4.94,1.52c-1.61.4-3.61.55-5,1.43-.75.47-1.46.8-2.17,1.32a22.1,22.1,0,0,0-2.29,1.57c-1.52,1.44-3.75,2.77-5.29,4.23a84.21,84.21,0,0,1-8,7.09,26.86,26.86,0,0,1-4.42,2.55,6.8,6.8,0,0,1-4.83,0,27.39,27.39,0,0,1-5.92-2.33,4.5,4.5,0,0,0-3.84-.23c-2.91,1.28-3.88,3.74-5.86,6a40.39,40.39,0,0,0-3.56,5,117.71,117.71,0,0,0-6.2,11.56c-2.47,5-3,10-7,13.6a1,1,0,0,1-.8.12,11,11,0,0,1-2.67-3.68,34.32,34.32,0,0,0-2.76-3.72,44.51,44.51,0,0,1-2.88-4.41c-.57-1-2.82-3.05-4-3.11a4.58,4.58,0,0,0-1.46.09c-.84.22-1.72.31-2.57.46-2,.37-4.08,1.2-6,.43-1.46-.59-1.54-1-2.5-2.33a23.83,23.83,0,0,0-4.4-4.82c-1.46-1.18-2.27-2.76-3.59-4.1s-2.06-1-3.78-1.05-3.74,0-5.58.11a30.28,30.28,0,0,0-3.16,0c-1.25.17-2.47.24-3.67.46-2.19.39-3.8.16-6,.55-2.45.45-4.19,1.18-6.73.3-2-.68-4.54-1.68-6.72-.63-2.36,1.14-3.72,3.43-5.5,5.21a73.35,73.35,0,0,1-5.71,5c-2.29,1.85-4.2.2-6.7.46-3,.31-4.41.41-6.09,3.16-1.46,2.41-2.72,6.28-4.11,8.85-1.72,3.18-3.55,6.46-5.36,9.59-1.92,3.32-5.2,5.75-8.4,8a52.75,52.75,0,0,1-7,4.58c-2.41,1.14-5,2.26-7.4,3.21a25,25,0,0,1-3.86,1.07c-1.31.27-2.09.56-3.3.84-2.45.54-4,3.66-5.41,5.66-2.75,3.89-3.31,5.62-6.09,9.9A87.61,87.61,0,0,0,385,350.5c-1.15,2.38-3.83,3.5-5.63,5.08-.79.7-1.78,1.56-2.61,2.24a15.39,15.39,0,0,1-2.72,1.9,17.06,17.06,0,0,1-6.27,2,6.17,6.17,0,0,1-1.67,0,20.79,20.79,0,0,0-3.51-.17c-4.93.71-7,1.21-11.59,3.89a56.14,56.14,0,0,0-4.7,3.26c-2.45,1.82-4.73,3.39-7.13,5.27s-6.59,1.29-9.55,1.13c-3.72-.2-6.88,3.16-9.78,5.4-2.57,2-3.8,3.46-7,3.51a16.76,16.76,0,0,0-6.56,1.91A37.06,37.06,0,0,0,302,388.7c-1.7,1.3-2.23,2.33-3.81,3.3a48,48,0,0,0-4.4,2.7c-1.69,1.57-3.71,3.49-5.45,5.25a13.69,13.69,0,0,1-5.8,3.26c-3.1,1.05-4.61.29-9.13-.23-2.6-.3-6,1-7.61,1.83s-2.48.9-4.17,1.87a8.09,8.09,0,0,1-3.24-.51c-1.49-.4-2.11-.64-3.42-.89a12.79,12.79,0,0,1-3.52-.64,28.25,28.25,0,0,0-2.86-.64,15.76,15.76,0,0,0-1.82,0,21.91,21.91,0,0,0-5.09,1.55c-2,1.15-2.4,1.55-4.56,1.75-3.78.34-6.11,0-9.94,0-3.17,0-6.74-.21-10.16,0s-7.1-.08-10.45.08c-3.63.18-6,1-9.76,1-7.31,0-14.28,2.08-21.52,2.08s-14.24.61-21.63.62c-3.69,0-16.67.84-20,1.08" style="fill:none;stroke:#6827ab;stroke-miterlimit:10"/></g><g id="roxo"><line x1="484.52" y1="485.56" x2="513.47" y2="485.56" style="fill:none;stroke:#6827ab;stroke-miterlimit:10;stroke-width:2px"/><path d="M286.61,42.32h-2.9l-.4-6.48c-.14-2.32-.2-4.16-.2-5.52v-.81l-2.83,11.13h-2.81l-3-11.15c0,1,0,1.73,0,2.24,0,1.36,0,2.76-.13,4.2L274,42.32h-2.88l1.24-15.5h3.81l2.76,10.86,2.61-10.86h3.85Z" style="fill:#6827a7"/><path d="M299,37.28h-7.45a3.79,3.79,0,0,0,.89,2.46,2.77,2.77,0,0,0,2,.74,4.22,4.22,0,0,0,1.48-.25,7,7,0,0,0,1.48-.8l1.19,1.64a6.82,6.82,0,0,1-4.39,1.59A5.3,5.3,0,0,1,290.07,41a6.6,6.6,0,0,1-1.47-4.53,8.15,8.15,0,0,1,.63-3.27,5.12,5.12,0,0,1,1.82-2.26,5.4,5.4,0,0,1,6.68.76,6.47,6.47,0,0,1,1.37,4.41Q299.1,36.33,299,37.28Zm-2.79-2q0-3.12-2.31-3.12a2,2,0,0,0-1.65.77,4.67,4.67,0,0,0-.7,2.48h4.66Z" style="fill:#6827a7"/><path d="M308.73,30.3l-.49,2.78a4.41,4.41,0,0,0-1.06-.14,2,2,0,0,0-1.66.76,5.65,5.65,0,0,0-1,2.3v6.32h-2.88V30.45h2.49l.27,2.34a4.37,4.37,0,0,1,1.24-2,2.83,2.83,0,0,1,1.86-.68A4.08,4.08,0,0,1,308.73,30.3Z" style="fill:#6827a7"/><path d="M316.73,30.45a5.67,5.67,0,0,1,1.76,1.06l-1.28,1.73a4.31,4.31,0,0,0-1.17-.65,3.45,3.45,0,0,0-1.23-.21q-2.67,0-2.67,4.07a5,5,0,0,0,.69,3,2.38,2.38,0,0,0,2,.91,3.06,3.06,0,0,0,1.15-.21,6.88,6.88,0,0,0,1.25-.65l1.28,1.82a5.92,5.92,0,0,1-3.84,1.37,5.69,5.69,0,0,1-3-.75,5,5,0,0,1-1.93-2.14,7.44,7.44,0,0,1-.67-3.28,7.77,7.77,0,0,1,.67-3.33,5.19,5.19,0,0,1,1.93-2.25,5.39,5.39,0,0,1,2.94-.79A6.25,6.25,0,0,1,316.73,30.45Z" style="fill:#6827a7"/><path d="M329.34,40.2a1.35,1.35,0,0,0,.68.51l-.61,1.9a3.49,3.49,0,0,1-1.64-.49,2.49,2.49,0,0,1-1-1.23,3.77,3.77,0,0,1-1.51,1.33,4.68,4.68,0,0,1-2,.44,3.85,3.85,0,0,1-2.81-1,3.53,3.53,0,0,1-1-2.65,3.44,3.44,0,0,1,1.4-3,6.75,6.75,0,0,1,4-1h1.48v-.67a2.08,2.08,0,0,0-.53-1.61,2.59,2.59,0,0,0-1.69-.46,10,10,0,0,0-3.15.63l-.67-2a12,12,0,0,1,4.31-.85c3,0,4.55,1.36,4.55,4.08v5A1.8,1.8,0,0,0,329.34,40.2Zm-3-1.09v-2.4h-1.19c-1.86,0-2.78.69-2.78,2.07a1.9,1.9,0,0,0,.42,1.32,1.59,1.59,0,0,0,1.26.47A2.54,2.54,0,0,0,326.3,39.11Z" style="fill:#6827a7"/><path d="M342.58,25.7V42.32h-2.53l-.2-1.5a4.19,4.19,0,0,1-1.43,1.35,3.85,3.85,0,0,1-2,.49A3.81,3.81,0,0,1,333.12,41,7.9,7.9,0,0,1,332,36.4a8.47,8.47,0,0,1,.58-3.24,5,5,0,0,1,1.68-2.23,4.2,4.2,0,0,1,5.5.47v-6Zm-4,14.41a3.7,3.7,0,0,0,1.1-1.15V33.53a4,4,0,0,0-1-.94,2.34,2.34,0,0,0-1.22-.32,2,2,0,0,0-1.81,1,5.77,5.77,0,0,0-.66,3.09,6.34,6.34,0,0,0,.58,3.15,1.87,1.87,0,0,0,1.71.95A2.41,2.41,0,0,0,338.61,40.11Z" style="fill:#6827a7"/><path d="M355,31.79a6.7,6.7,0,0,1,1.47,4.59,7.54,7.54,0,0,1-.67,3.28,5.08,5.08,0,0,1-1.93,2.21,5.47,5.47,0,0,1-3,.79,5.21,5.21,0,0,1-4.1-1.67,6.7,6.7,0,0,1-1.48-4.61A7.54,7.54,0,0,1,346,33.1a5.19,5.19,0,0,1,1.94-2.2,5.61,5.61,0,0,1,3-.78A5.17,5.17,0,0,1,355,31.79Zm-6.67,4.59a5.89,5.89,0,0,0,.64,3.11,2.33,2.33,0,0,0,3.83,0,5.84,5.84,0,0,0,.64-3.09,5.84,5.84,0,0,0-.64-3.09,2.11,2.11,0,0,0-1.89-1C349.17,32.29,348.31,33.66,348.31,36.38Z" style="fill:#6827a7"/><path d="M374.13,31.77a7.86,7.86,0,0,1,1.17,4.61,8.74,8.74,0,0,1-.57,3.26,5.16,5.16,0,0,1-1.63,2.22,4,4,0,0,1-2.49.8,3.83,3.83,0,0,1-1.76-.4,4.09,4.09,0,0,1-1.38-1.15l-.18,1.21h-2.54V25.7l2.87-.32V31.8a4,4,0,0,1,1.43-1.24,3.86,3.86,0,0,1,1.85-.44A3.74,3.74,0,0,1,374.13,31.77Zm-2.49,7.74a5.82,5.82,0,0,0,.65-3.13,6.18,6.18,0,0,0-.6-3.18,1.94,1.94,0,0,0-1.71-.93,2.81,2.81,0,0,0-2.36,1.62v5.25a3,3,0,0,0,1,1,2.27,2.27,0,0,0,1.24.36A2.06,2.06,0,0,0,371.64,39.51Z" style="fill:#6827a7"/><path d="M385.17,30.3l-.49,2.78a4.35,4.35,0,0,0-1.06-.14,2,2,0,0,0-1.66.76,5.79,5.79,0,0,0-1,2.3v6.32h-2.88V30.45h2.5l.26,2.34a4.37,4.37,0,0,1,1.24-2,2.83,2.83,0,0,1,1.86-.68A4.08,4.08,0,0,1,385.17,30.3Z" style="fill:#6827a7"/><path d="M395.17,40.2a1.35,1.35,0,0,0,.68.51l-.61,1.9a3.49,3.49,0,0,1-1.64-.49,2.49,2.49,0,0,1-1-1.23,3.73,3.73,0,0,1-1.52,1.33,4.62,4.62,0,0,1-2,.44,3.85,3.85,0,0,1-2.8-1,3.53,3.53,0,0,1-1-2.65,3.44,3.44,0,0,1,1.4-3,6.71,6.71,0,0,1,4-1h1.49v-.67a2.08,2.08,0,0,0-.53-1.61,2.6,2.6,0,0,0-1.7-.46,10,10,0,0,0-3.14.63l-.67-2a12,12,0,0,1,4.31-.85q4.55,0,4.55,4.08v5A1.8,1.8,0,0,0,395.17,40.2Zm-3-1.09v-2.4h-1.19q-2.79,0-2.79,2.07a1.9,1.9,0,0,0,.43,1.32,1.58,1.58,0,0,0,1.26.47A2.54,2.54,0,0,0,392.13,39.11Z" style="fill:#6827a7"/><path d="M406.17,31.53l-1.12,1.68a5.6,5.6,0,0,0-3-1,2.4,2.4,0,0,0-1.33.32,1,1,0,0,0-.47.87,1.11,1.11,0,0,0,.2.67,1.93,1.93,0,0,0,.73.51,12.67,12.67,0,0,0,1.56.52,6.87,6.87,0,0,1,2.86,1.37,3.07,3.07,0,0,1,.93,2.38,3.19,3.19,0,0,1-1.43,2.77,6.08,6.08,0,0,1-3.57,1,7.54,7.54,0,0,1-2.66-.45A6.46,6.46,0,0,1,396.82,41l1.43-1.62a5.28,5.28,0,0,0,3.23,1.17,2.78,2.78,0,0,0,1.54-.38,1.22,1.22,0,0,0,.57-1.06,1.45,1.45,0,0,0-.21-.82,1.72,1.72,0,0,0-.76-.53,16.5,16.5,0,0,0-1.72-.58,5.77,5.77,0,0,1-2.67-1.38,3,3,0,0,1-.85-2.21A2.92,2.92,0,0,1,398,31.8a3.83,3.83,0,0,1,1.61-1.23,6,6,0,0,1,2.39-.45A6.69,6.69,0,0,1,406.17,31.53Z" style="fill:#6827a7"/><path d="M411.61,25a1.76,1.76,0,0,1,0,2.48,2,2,0,0,1-2.6,0A1.76,1.76,0,0,1,409,25a1.91,1.91,0,0,1,2.6,0Zm.15,5.5V42.32h-2.87V30.45Z" style="fill:#6827a7"/><path d="M415.87,41.86a3.12,3.12,0,0,1-.77-2.25V25.7l2.87-.32V39.52c0,.55.23.83.68.83a2.29,2.29,0,0,0,.67-.11l.6,2a4.53,4.53,0,0,1-1.9.4A2.88,2.88,0,0,1,415.87,41.86Z" style="fill:#6827a7"/><path d="M431.39,37.28h-7.45a3.73,3.73,0,0,0,.9,2.46,2.75,2.75,0,0,0,2,.74,4.3,4.3,0,0,0,1.48-.25,7.26,7.26,0,0,0,1.48-.8L431,41.07a6.84,6.84,0,0,1-4.4,1.59A5.27,5.27,0,0,1,422.43,41,6.6,6.6,0,0,1,421,36.47a8.32,8.32,0,0,1,.62-3.27,5.19,5.19,0,0,1,1.82-2.26,4.86,4.86,0,0,1,2.83-.82,4.81,4.81,0,0,1,3.86,1.58,6.52,6.52,0,0,1,1.37,4.41C431.46,36.26,431.44,36.65,431.39,37.28Zm-2.78-2q0-3.12-2.31-3.12a2,2,0,0,0-1.65.77,4.66,4.66,0,0,0-.71,2.48h4.67Z" style="fill:#6827a7"/><path d="M436.76,25a1.76,1.76,0,0,1,0,2.48,2,2,0,0,1-2.6,0,1.79,1.79,0,0,1,0-2.48,1.91,1.91,0,0,1,2.6,0Zm.15,5.5V42.32H434V30.45Z" style="fill:#6827a7"/><path d="M447.41,30.3l-.49,2.78a4.35,4.35,0,0,0-1.06-.14,2,2,0,0,0-1.66.76,5.79,5.79,0,0,0-1,2.3v6.32h-2.87V30.45h2.49l.26,2.34a4.37,4.37,0,0,1,1.24-2,2.83,2.83,0,0,1,1.86-.68A4,4,0,0,1,447.41,30.3Z" style="fill:#6827a7"/><path d="M457.47,31.79a6.7,6.7,0,0,1,1.47,4.59,7.54,7.54,0,0,1-.67,3.28,5.08,5.08,0,0,1-1.93,2.21,5.46,5.46,0,0,1-3,.79A5.23,5.23,0,0,1,449.25,41a6.7,6.7,0,0,1-1.48-4.61,7.54,7.54,0,0,1,.67-3.28,5.19,5.19,0,0,1,1.94-2.2,5.63,5.63,0,0,1,3-.78A5.17,5.17,0,0,1,457.47,31.79Zm-6.67,4.59a5.89,5.89,0,0,0,.64,3.11,2.12,2.12,0,0,0,1.92,1,2.09,2.09,0,0,0,1.91-1,5.84,5.84,0,0,0,.64-3.09,5.84,5.84,0,0,0-.64-3.09,2.1,2.1,0,0,0-1.89-1C451.66,32.29,450.8,33.66,450.8,36.38Z" style="fill:#6827a7"/><path d="M285.54,52.62V69.25H283l-.2-1.51a4.16,4.16,0,0,1-1.42,1.35,3.89,3.89,0,0,1-2,.49,3.82,3.82,0,0,1-3.34-1.68,7.9,7.9,0,0,1-1.16-4.58,8.47,8.47,0,0,1,.58-3.24,5.09,5.09,0,0,1,1.67-2.23,4.22,4.22,0,0,1,5.51.47v-6Zm-4,14.42a3.86,3.86,0,0,0,1.1-1.16V60.45a4.07,4.07,0,0,0-1.05-.94,2.31,2.31,0,0,0-1.22-.31,2,2,0,0,0-1.8,1,5.65,5.65,0,0,0-.67,3.08,6.27,6.27,0,0,0,.59,3.15,1.87,1.87,0,0,0,1.7,1A2.53,2.53,0,0,0,281.57,67Z" style="fill:#6827a7"/><path d="M298.67,64.2h-7.45a3.84,3.84,0,0,0,.89,2.47,2.81,2.81,0,0,0,2,.74,4.22,4.22,0,0,0,1.48-.26,6.58,6.58,0,0,0,1.48-.8L298.28,68a6.82,6.82,0,0,1-4.39,1.59,5.3,5.3,0,0,1-4.19-1.66,6.57,6.57,0,0,1-1.47-4.53,8.07,8.07,0,0,1,.63-3.26,5.15,5.15,0,0,1,1.82-2.27,5.4,5.4,0,0,1,6.68.76A6.51,6.51,0,0,1,298.73,63Q298.73,63.26,298.67,64.2Zm-2.79-2q0-3.12-2.31-3.12a2,2,0,0,0-1.65.78,4.61,4.61,0,0,0-.7,2.48h4.66Z" style="fill:#6827a7"/><path d="M315.91,67.13a1.4,1.4,0,0,0,.68.5l-.6,1.91a3.61,3.61,0,0,1-1.65-.49,2.53,2.53,0,0,1-1-1.24,3.79,3.79,0,0,1-1.51,1.34,4.64,4.64,0,0,1-2,.43,3.83,3.83,0,0,1-2.81-1,3.51,3.51,0,0,1-1-2.64,3.43,3.43,0,0,1,1.4-3,6.75,6.75,0,0,1,4-1h1.48v-.68a2.05,2.05,0,0,0-.53-1.6,2.53,2.53,0,0,0-1.69-.46,9.94,9.94,0,0,0-3.14.63l-.68-2a12.18,12.18,0,0,1,4.31-.85q4.56,0,4.56,4.09v5A1.94,1.94,0,0,0,315.91,67.13Zm-3-16.28L314,53.09l-5.08,2-.8-1.46Zm0,15.19v-2.4h-1.19c-1.85,0-2.78.69-2.78,2.06a2,2,0,0,0,.42,1.33,1.64,1.64,0,0,0,1.26.47A2.55,2.55,0,0,0,312.87,66Z" style="fill:#6827a7"/><path d="M326.05,57.38a5.45,5.45,0,0,1,1.76,1l-1.28,1.73a4.42,4.42,0,0,0-1.16-.65,3.79,3.79,0,0,0-1.24-.2q-2.67,0-2.67,4.06a4.88,4.88,0,0,0,.7,3,2.32,2.32,0,0,0,2,.91,3.32,3.32,0,0,0,1.16-.2,8,8,0,0,0,1.24-.65l1.28,1.82A5.92,5.92,0,0,1,324,69.58a5.69,5.69,0,0,1-3-.75,4.9,4.9,0,0,1-1.93-2.14,7.44,7.44,0,0,1-.67-3.28,7.83,7.83,0,0,1,.67-3.33A5.16,5.16,0,0,1,321,57.84,5.39,5.39,0,0,1,324,57,6,6,0,0,1,326.05,57.38Z" style="fill:#6827a7"/><path d="M332.62,51.87a1.69,1.69,0,0,1,.51,1.25,1.64,1.64,0,0,1-.51,1.23,2,2,0,0,1-2.6,0,1.64,1.64,0,0,1-.5-1.23,1.68,1.68,0,0,1,.5-1.25,1.94,1.94,0,0,1,2.6,0Zm.15,5.51V69.25H329.9V57.38Z" style="fill:#6827a7"/><path d="M346.21,52.62V69.25h-2.54l-.2-1.51a4.16,4.16,0,0,1-1.42,1.35,3.89,3.89,0,0,1-2,.49,3.82,3.82,0,0,1-3.34-1.68,7.9,7.9,0,0,1-1.17-4.58,8.47,8.47,0,0,1,.59-3.24,5.09,5.09,0,0,1,1.67-2.23,4.22,4.22,0,0,1,5.51.47v-6Zm-4,14.42a3.86,3.86,0,0,0,1.1-1.16V60.45a4.07,4.07,0,0,0-1-.94,2.33,2.33,0,0,0-1.22-.31,2.07,2.07,0,0,0-1.81,1,5.76,5.76,0,0,0-.66,3.08,6.27,6.27,0,0,0,.59,3.15,1.87,1.87,0,0,0,1.7,1A2.53,2.53,0,0,0,342.24,67Z" style="fill:#6827a7"/><path d="M358.61,58.71a6.78,6.78,0,0,1,1.47,4.59,7.61,7.61,0,0,1-.68,3.29,5.08,5.08,0,0,1-1.93,2.21,5.54,5.54,0,0,1-3,.78,5.19,5.19,0,0,1-4.11-1.67,6.69,6.69,0,0,1-1.48-4.61,7.64,7.64,0,0,1,.67-3.27,5,5,0,0,1,1.95-2.2,5.49,5.49,0,0,1,3-.79A5.19,5.19,0,0,1,358.61,58.71Zm-6.68,4.59a5.87,5.87,0,0,0,.64,3.11,2.34,2.34,0,0,0,3.84,0,6,6,0,0,0,.64-3.1,5.87,5.87,0,0,0-.64-3.08,2.11,2.11,0,0,0-1.9-1Q351.93,59.22,351.93,63.3Z" style="fill:#6827a7"/><path d="M376.34,58.46l-1.12,1.68a5.61,5.61,0,0,0-3-1,2.31,2.31,0,0,0-1.33.33,1,1,0,0,0-.47.86,1.14,1.14,0,0,0,.2.68,1.92,1.92,0,0,0,.73.5,12.38,12.38,0,0,0,1.56.53,6.75,6.75,0,0,1,2.86,1.37,3.06,3.06,0,0,1,.93,2.37,3.19,3.19,0,0,1-1.43,2.78,6.15,6.15,0,0,1-3.57,1,7.77,7.77,0,0,1-2.66-.44A6.31,6.31,0,0,1,367,67.9l1.43-1.61a5.33,5.33,0,0,0,3.23,1.16,2.68,2.68,0,0,0,1.54-.38,1.19,1.19,0,0,0,.57-1,1.4,1.4,0,0,0-.21-.82,1.81,1.81,0,0,0-.76-.54,14.78,14.78,0,0,0-1.72-.57,5.77,5.77,0,0,1-2.67-1.38,3.06,3.06,0,0,1-.85-2.21,3,3,0,0,1,.57-1.78,3.83,3.83,0,0,1,1.61-1.23,6,6,0,0,1,2.39-.45A6.64,6.64,0,0,1,376.34,58.46Z" style="fill:#6827a7"/><path d="M388.55,69.25h-2.49l-.16-1.66a4.4,4.4,0,0,1-1.54,1.5,4.22,4.22,0,0,1-2.09.49,3.09,3.09,0,0,1-2.46-1,3.92,3.92,0,0,1-.87-2.71V57.38h2.88v8.17a2.29,2.29,0,0,0,.34,1.43,1.36,1.36,0,0,0,1.12.43,2.9,2.9,0,0,0,2.4-1.68V57.38h2.87Z" style="fill:#6827a7"/><path d="M392.66,68.79a3.13,3.13,0,0,1-.77-2.26V52.62l2.87-.31V66.44c0,.56.23.83.68.83a2,2,0,0,0,.67-.11l.6,2a4.53,4.53,0,0,1-1.9.4A2.88,2.88,0,0,1,392.66,68.79Z" style="fill:#6827a7"/><path d="M402.2,54.88a1.74,1.74,0,0,0-.37,1.24v1.26h2.85l-.31,2.06h-2.54v9.81H399V59.44H397V57.38H399v-1.3a3.61,3.61,0,0,1,1.09-2.73,4.28,4.28,0,0,1,3.08-1,7.34,7.34,0,0,1,3.08.69l-.83,1.93a4.63,4.63,0,0,0-2-.45A1.64,1.64,0,0,0,402.2,54.88Z" style="fill:#6827a7"/><path d="M415.9,69.25h-2.49l-.16-1.66a4.4,4.4,0,0,1-1.54,1.5,4.22,4.22,0,0,1-2.09.49,3.09,3.09,0,0,1-2.46-1,3.92,3.92,0,0,1-.87-2.71V57.38h2.88v8.17a2.29,2.29,0,0,0,.34,1.43,1.36,1.36,0,0,0,1.12.43,2.9,2.9,0,0,0,2.4-1.68V57.38h2.87Zm-3.1-18.4L414,53.09l-5.07,2-.81-1.46Z" style="fill:#6827a7"/><path d="M426.4,57.22,425.91,60a4.39,4.39,0,0,0-1.06-.13,2,2,0,0,0-1.66.75,5.71,5.71,0,0,0-1,2.3v6.33h-2.88V57.38h2.49l.27,2.33a4.33,4.33,0,0,1,1.24-2,2.79,2.79,0,0,1,1.86-.69A4.45,4.45,0,0,1,426.4,57.22Z" style="fill:#6827a7"/><path d="M430.92,51.87a1.68,1.68,0,0,1,.5,1.25,1.64,1.64,0,0,1-.5,1.23,1.79,1.79,0,0,1-1.31.49,1.74,1.74,0,0,1-1.29-.49,1.64,1.64,0,0,1-.51-1.23,1.69,1.69,0,0,1,.51-1.25,1.71,1.71,0,0,1,1.29-.5A1.76,1.76,0,0,1,430.92,51.87Zm.15,5.51V69.25h-2.88V57.38Z" style="fill:#6827a7"/><path d="M441.4,57.38a5.45,5.45,0,0,1,1.76,1l-1.28,1.73a4.31,4.31,0,0,0-1.17-.65,3.69,3.69,0,0,0-1.23-.2q-2.67,0-2.67,4.06a5,5,0,0,0,.69,3,2.35,2.35,0,0,0,2,.91,3.27,3.27,0,0,0,1.15-.2,7.59,7.59,0,0,0,1.25-.65l1.28,1.82a5.92,5.92,0,0,1-3.84,1.36,5.69,5.69,0,0,1-3-.75,4.9,4.9,0,0,1-1.93-2.14,7.44,7.44,0,0,1-.67-3.28,7.83,7.83,0,0,1,.67-3.33,5.16,5.16,0,0,1,1.93-2.24,5.39,5.39,0,0,1,2.94-.8A6,6,0,0,1,441.4,57.38Z" style="fill:#6827a7"/><path d="M453.74,58.71a6.73,6.73,0,0,1,1.47,4.59,7.76,7.76,0,0,1-.67,3.29,5.15,5.15,0,0,1-1.93,2.21,5.57,5.57,0,0,1-3,.78,5.19,5.19,0,0,1-4.11-1.67A6.74,6.74,0,0,1,444,63.3a7.49,7.49,0,0,1,.68-3.27,5,5,0,0,1,1.94-2.2,5.49,5.49,0,0,1,3-.79A5.19,5.19,0,0,1,453.74,58.71Zm-6.68,4.59a6,6,0,0,0,.64,3.11,2.34,2.34,0,0,0,3.84,0,5.88,5.88,0,0,0,.64-3.1,5.77,5.77,0,0,0-.64-3.08,2.11,2.11,0,0,0-1.9-1Q447.06,59.22,447.06,63.3Z" style="fill:#6827a7"/></g><g id="preto"><rect x="108.58" y="106.13" width="0.5" height="322.82" style="fill:#1d1d1b"/><rect x="109.63" y="141.18" width="573.66" height="0.5" style="fill:#9d9d9c"/><path d="M683.3,388.79H109.63v-.5H683.3Zm0-35.3H109.63V353H683.3Zm0-35.3H109.63v-.5H683.3Zm0-35.31H109.63v-.5H683.3Zm0-35.3H109.63v-.5H683.3Zm0-35.3H109.63v-.5H683.3Zm0-35.3H109.63v-.5H683.3Z" style="fill:#9d9d9c"/><rect x="166.06" y="106.12" width="0.5" height="317.72" style="fill:#9d9d9c"/><path d="M626.41,423.84h-.5V106.12h.5Zm-57.48,0h-.5V106.12h.5Zm-57.48,0H511V106.12h.5Zm-57.48,0h-.5V106.12h.5Zm-57.48,0H396V106.12h.5Zm-57.48,0h-.5V106.12h.5Zm-57.48,0H281V106.12h.5Zm-57.49,0h-.5V106.12h.5Z" style="fill:#9d9d9c"/><path d="M626.41,429h-.5V418.74h.5Zm-57.48,0h-.5V418.74h.5Zm-57.48,0H511V418.74h.5ZM454,429h-.5V418.74h.5Zm-57.48,0H396V418.74h.5ZM339,429h-.5V418.74h.5Zm-57.47,0H281V418.74h.5ZM224,429h-.5V418.74h.5Zm-57.48,0h-.5V418.74h.5Zm-52.62-40.16H103.73v-.5h10.21Zm0-35.3H103.73V353h10.21Zm0-35.3H103.73v-.5h10.21Zm0-35.31H103.73v-.5h10.21Zm0-35.3H103.73v-.5h10.21Zm0-35.3H103.73v-.5h10.21Zm0-35.3H103.73v-.5h10.21Zm0-35.3H103.73v-.5h10.21Z" style="fill:#1d1d1b"/><path d="M97.76,436.51v10.63H96.3v-9.07l-2.48,1.5-.63-1,3.28-2Z"/><path d="M106.61,437.75a9.82,9.82,0,0,1,0,8.17,3.22,3.22,0,0,1-5.33,0,9.72,9.72,0,0,1,0-8.17,3.24,3.24,0,0,1,5.33,0Zm-4.2.78a8,8,0,0,0-.5,3.3,8.16,8.16,0,0,0,.5,3.32,1.66,1.66,0,0,0,3.06,0,11,11,0,0,0,0-6.62,1.66,1.66,0,0,0-3.06,0Z"/><path d="M115.05,437.65h-4.14v3.13a3.74,3.74,0,0,1,1.7-.41,2.83,2.83,0,0,1,2.19.9,3.51,3.51,0,0,1,.83,2.47,3.74,3.74,0,0,1-.47,1.87,3.16,3.16,0,0,1-1.29,1.27,4,4,0,0,1-1.93.45,4.11,4.11,0,0,1-1.73-.34,4.82,4.82,0,0,1-1.42-1l.86-.84a3.53,3.53,0,0,0,1,.75,2.83,2.83,0,0,0,1.22.25,2,2,0,0,0,1.6-.64,2.54,2.54,0,0,0,.58-1.79,2.31,2.31,0,0,0-.52-1.69,1.93,1.93,0,0,0-1.42-.52,3.62,3.62,0,0,0-.76.08,4.67,4.67,0,0,0-.75.28h-1.14v-5.35h5.75Z"/><path d="M122.94,437.65h-4.15v3.13a3.77,3.77,0,0,1,1.7-.41,2.83,2.83,0,0,1,2.19.9,3.51,3.51,0,0,1,.83,2.47,3.73,3.73,0,0,1-.46,1.87,3.24,3.24,0,0,1-1.3,1.27,4,4,0,0,1-1.93.45,4.17,4.17,0,0,1-1.73-.34,4.82,4.82,0,0,1-1.42-1l.86-.84a3.53,3.53,0,0,0,1,.75,2.85,2.85,0,0,0,1.23.25,2,2,0,0,0,1.59-.64,2.54,2.54,0,0,0,.58-1.79,2.31,2.31,0,0,0-.52-1.69,1.91,1.91,0,0,0-1.42-.52,3.62,3.62,0,0,0-.76.08,5.05,5.05,0,0,0-.75.28h-1.14v-5.35h5.75Z"/><path d="M154.51,437v10.64h-1.46v-9.08L150.57,440l-.64-1,3.29-2Z"/><path d="M163.36,438.22a9.8,9.8,0,0,1,0,8.16,3.21,3.21,0,0,1-5.33,0,9.7,9.7,0,0,1,0-8.16,3.24,3.24,0,0,1,5.33,0Zm-4.2.77a11.21,11.21,0,0,0,0,6.62,1.61,1.61,0,0,0,1.53,1,1.63,1.63,0,0,0,1.53-1,11,11,0,0,0,0-6.61,1.66,1.66,0,0,0-3.06,0Z"/><path d="M171.5,441a2.61,2.61,0,0,1,1.06,1.14A3.93,3.93,0,0,1,173,444a4.23,4.23,0,0,1-.45,2,3.22,3.22,0,0,1-2.93,1.81,3,3,0,0,1-2.72-1.38,7.15,7.15,0,0,1-.86-3.8,8.64,8.64,0,0,1,.49-3.05,4.47,4.47,0,0,1,1.39-2,3.33,3.33,0,0,1,2.14-.72,3.81,3.81,0,0,1,2.19.65l-.57,1A3,3,0,0,0,170,438a2,2,0,0,0-1.82,1.09,6.17,6.17,0,0,0-.73,2.94,3,3,0,0,1,2.56-1.4A2.9,2.9,0,0,1,171.5,441Zm-.51,4.94a3.23,3.23,0,0,0,.49-1.89q0-2.28-1.71-2.28a2.28,2.28,0,0,0-1.29.39,3.26,3.26,0,0,0-1,1.08,5.31,5.31,0,0,0,.55,2.57,1.69,1.69,0,0,0,1.55.83A1.64,1.64,0,0,0,171,445.94Z"/><path d="M180.69,438.22a9.7,9.7,0,0,1,0,8.16,3.2,3.2,0,0,1-5.32,0,9.7,9.7,0,0,1,0-8.16,3.23,3.23,0,0,1,5.32,0Zm-4.19.77a11.21,11.21,0,0,0,0,6.62,1.61,1.61,0,0,0,1.53,1,1.63,1.63,0,0,0,1.53-1,11,11,0,0,0,0-6.61,1.66,1.66,0,0,0-3.06,0Z"/><path d="M215.77,437v10.64h-1.46v-9.08L211.83,440l-.64-1,3.29-2Z"/><path d="M224.62,438.22a9.8,9.8,0,0,1,0,8.16,3.21,3.21,0,0,1-5.33,0,9.7,9.7,0,0,1,0-8.16,3.24,3.24,0,0,1,5.33,0Zm-4.2.77a11.21,11.21,0,0,0,0,6.62,1.61,1.61,0,0,0,1.53,1,1.63,1.63,0,0,0,1.53-1,11,11,0,0,0,0-6.61,1.66,1.66,0,0,0-3.06,0Z"/><path d="M232.76,441a2.61,2.61,0,0,1,1.06,1.14,3.93,3.93,0,0,1,.4,1.86,4.23,4.23,0,0,1-.45,2,3.26,3.26,0,0,1-1.23,1.34,3.22,3.22,0,0,1-1.7.47,3,3,0,0,1-2.72-1.38,7.15,7.15,0,0,1-.86-3.8,8.64,8.64,0,0,1,.49-3.05,4.47,4.47,0,0,1,1.39-2,3.33,3.33,0,0,1,2.14-.72,3.81,3.81,0,0,1,2.19.65l-.57,1a3,3,0,0,0-1.63-.46,2,2,0,0,0-1.82,1.09,6.17,6.17,0,0,0-.73,2.94,3,3,0,0,1,2.56-1.4A2.9,2.9,0,0,1,232.76,441Zm-.51,4.94a3.23,3.23,0,0,0,.49-1.89q0-2.28-1.71-2.28a2.28,2.28,0,0,0-1.29.39,3.26,3.26,0,0,0-1,1.08,5.31,5.31,0,0,0,.55,2.57,1.69,1.69,0,0,0,1.55.83A1.64,1.64,0,0,0,232.25,445.94Z"/><path d="M241.45,438.12h-4.14v3.13a3.61,3.61,0,0,1,1.7-.41,2.86,2.86,0,0,1,2.19.89,3.54,3.54,0,0,1,.83,2.48,3.7,3.7,0,0,1-.47,1.86,3.1,3.1,0,0,1-1.29,1.27,3.91,3.91,0,0,1-1.93.46,4.27,4.27,0,0,1-1.73-.34,4.82,4.82,0,0,1-1.42-1l.86-.85a3.58,3.58,0,0,0,1,.76,3,3,0,0,0,1.22.25,2.08,2.08,0,0,0,1.6-.64,2.55,2.55,0,0,0,.58-1.8,2.3,2.3,0,0,0-.52-1.68,1.93,1.93,0,0,0-1.42-.53,3,3,0,0,0-.76.09,3.88,3.88,0,0,0-.75.28h-1.14V437h5.75Z"/><path d="M272.33,437v10.64h-1.46v-9.08L268.39,440l-.63-1,3.28-2Z"/><path d="M281.18,438.22a9.7,9.7,0,0,1,0,8.16,3.21,3.21,0,0,1-5.33,0,9.8,9.8,0,0,1,0-8.16,3.24,3.24,0,0,1,5.33,0ZM277,439a11.21,11.21,0,0,0,0,6.62,1.65,1.65,0,0,0,3.06,0,11,11,0,0,0,0-6.61,1.66,1.66,0,0,0-3.06,0Z"/><path d="M289.21,437v1.1l-4,9.7-1.34-.45,3.83-9.15H283V437Z"/><path d="M296.59,438.22a9.7,9.7,0,0,1,0,8.16,3.2,3.2,0,0,1-5.32,0,9.7,9.7,0,0,1,0-8.16,3.23,3.23,0,0,1,5.32,0Zm-4.19.77a11.21,11.21,0,0,0,0,6.62,1.61,1.61,0,0,0,1.53,1,1.63,1.63,0,0,0,1.53-1,11,11,0,0,0,0-6.61,1.66,1.66,0,0,0-3.06,0Z"/><path d="M328.9,437v10.64h-1.46v-9.08L325,440l-.63-1,3.28-2Z"/><path d="M337.75,438.22a9.8,9.8,0,0,1,0,8.16,3.21,3.21,0,0,1-5.33,0,9.7,9.7,0,0,1,0-8.16,3.24,3.24,0,0,1,5.33,0Zm-4.2.77a11.21,11.21,0,0,0,0,6.62,1.65,1.65,0,0,0,3.06,0,11,11,0,0,0,0-6.61,1.66,1.66,0,0,0-3.06,0Z"/><path d="M345.78,437v1.1l-4,9.7-1.34-.45,3.83-9.15h-4.7V437Z"/><path d="M352.69,438.12h-4.14v3.13a3.61,3.61,0,0,1,1.7-.41,2.86,2.86,0,0,1,2.19.89,3.54,3.54,0,0,1,.83,2.48,3.8,3.8,0,0,1-.46,1.86,3.18,3.18,0,0,1-1.3,1.27,3.91,3.91,0,0,1-1.93.46,4.31,4.31,0,0,1-1.73-.34,4.82,4.82,0,0,1-1.42-1l.86-.85a3.58,3.58,0,0,0,1,.76,3,3,0,0,0,1.22.25,2.08,2.08,0,0,0,1.6-.64,2.55,2.55,0,0,0,.58-1.8,2.3,2.3,0,0,0-.52-1.68,1.92,1.92,0,0,0-1.42-.53,3,3,0,0,0-.76.09,4.14,4.14,0,0,0-.75.28h-1.14V437h5.75Z"/><path d="M383.41,437v10.64H382v-9.08L379.47,440l-.63-1,3.29-2Z"/><path d="M392.26,438.22a9.7,9.7,0,0,1,0,8.16,3.21,3.21,0,0,1-5.33,0,9.8,9.8,0,0,1,0-8.16,3.24,3.24,0,0,1,5.33,0Zm-4.2.77a11.21,11.21,0,0,0,0,6.62,1.65,1.65,0,0,0,3.06,0,11,11,0,0,0,0-6.61,1.66,1.66,0,0,0-3.06,0Z"/><path d="M402.07,444.76a2.69,2.69,0,0,1-.47,1.57,3.12,3.12,0,0,1-1.31,1.08,4.91,4.91,0,0,1-3.81,0,3,3,0,0,1-1.28-1.07,2.75,2.75,0,0,1-.45-1.56,2.55,2.55,0,0,1,.53-1.65,3.87,3.87,0,0,1,1.56-1.11,3.18,3.18,0,0,1-1.24-1,2.56,2.56,0,0,1-.41-1.44,2.45,2.45,0,0,1,.45-1.48,3,3,0,0,1,1.19-.94,4.22,4.22,0,0,1,3.15,0,2.79,2.79,0,0,1,1.2.91,2.36,2.36,0,0,1,.46,1.47,2.2,2.2,0,0,1-.44,1.37,4,4,0,0,1-1.37,1A3,3,0,0,1,402.07,444.76Zm-2.1,1.37a1.73,1.73,0,0,0,.58-1.35,1.77,1.77,0,0,0-.94-1.65,8,8,0,0,0-1.38-.59l-.4-.15a2.9,2.9,0,0,0-1.18,1,2.56,2.56,0,0,0-.38,1.43,1.68,1.68,0,0,0,.57,1.36,2.7,2.7,0,0,0,3.13,0Zm-2.86-7.79a1.55,1.55,0,0,0-.49,1.23,1.46,1.46,0,0,0,.47,1.16,4.73,4.73,0,0,0,1.5.73l.27.09a3,3,0,0,0,1-.87,1.9,1.9,0,0,0,.32-1.13,1.52,1.52,0,0,0-.47-1.19,1.82,1.82,0,0,0-1.32-.45A1.93,1.93,0,0,0,397.11,438.34Z"/><path d="M409.88,438.22a9.7,9.7,0,0,1,0,8.16,3.2,3.2,0,0,1-5.32,0,9.7,9.7,0,0,1,0-8.16,3.23,3.23,0,0,1,5.32,0Zm-4.19.77a11.21,11.21,0,0,0,0,6.62,1.61,1.61,0,0,0,1.53,1,1.63,1.63,0,0,0,1.53-1,11,11,0,0,0,0-6.61,1.66,1.66,0,0,0-3.06,0Z"/><path d="M442.76,437v10.64H441.3v-9.08L438.82,440l-.63-1,3.29-2Z"/><path d="M451.61,438.22a9.7,9.7,0,0,1,0,8.16,3.21,3.21,0,0,1-5.33,0,9.8,9.8,0,0,1,0-8.16,3.24,3.24,0,0,1,5.33,0Zm-4.2.77a11.21,11.21,0,0,0,0,6.62,1.65,1.65,0,0,0,3.06,0,11,11,0,0,0,0-6.61,1.66,1.66,0,0,0-3.06,0Z"/><path d="M461.42,444.76a2.69,2.69,0,0,1-.47,1.57,3.12,3.12,0,0,1-1.31,1.08,4.91,4.91,0,0,1-3.81,0,3,3,0,0,1-1.28-1.07,2.75,2.75,0,0,1-.46-1.56,2.56,2.56,0,0,1,.54-1.65,3.87,3.87,0,0,1,1.56-1.11,3.18,3.18,0,0,1-1.24-1,2.48,2.48,0,0,1-.41-1.44,2.45,2.45,0,0,1,.45-1.48,2.92,2.92,0,0,1,1.19-.94,4.22,4.22,0,0,1,3.15,0,2.79,2.79,0,0,1,1.2.91,2.36,2.36,0,0,1,.46,1.47,2.2,2.2,0,0,1-.44,1.37,4.06,4.06,0,0,1-1.37,1A3,3,0,0,1,461.42,444.76Zm-2.1,1.37a1.73,1.73,0,0,0,.58-1.35,1.77,1.77,0,0,0-.94-1.65,8,8,0,0,0-1.38-.59l-.4-.15a2.9,2.9,0,0,0-1.18,1,2.56,2.56,0,0,0-.38,1.43,1.68,1.68,0,0,0,.57,1.36,2.7,2.7,0,0,0,3.13,0Zm-2.86-7.79a1.55,1.55,0,0,0-.49,1.23,1.46,1.46,0,0,0,.47,1.16,4.73,4.73,0,0,0,1.5.73l.27.09a3,3,0,0,0,1-.87,1.9,1.9,0,0,0,.32-1.13,1.52,1.52,0,0,0-.47-1.19,1.82,1.82,0,0,0-1.32-.45A1.91,1.91,0,0,0,456.46,438.34Z"/><path d="M468.81,438.12h-4.15v3.13a3.64,3.64,0,0,1,1.7-.41,2.86,2.86,0,0,1,2.2.89,3.54,3.54,0,0,1,.82,2.48,3.69,3.69,0,0,1-.46,1.86,3.16,3.16,0,0,1-1.29,1.27,3.91,3.91,0,0,1-1.93.46,4.35,4.35,0,0,1-1.74-.34,4.78,4.78,0,0,1-1.41-1l.86-.85a3.58,3.58,0,0,0,1,.76,3,3,0,0,0,1.22.25,2.08,2.08,0,0,0,1.6-.64,2.59,2.59,0,0,0,.58-1.8,2.3,2.3,0,0,0-.53-1.68,1.91,1.91,0,0,0-1.41-.53,3,3,0,0,0-.76.09,3.65,3.65,0,0,0-.75.28h-1.15V437H469Z"/><path d="M500.22,437v10.64h-1.47v-9.08L496.28,440l-.64-1,3.29-2Z"/><path d="M509.06,438.22a9.7,9.7,0,0,1,0,8.16,3.2,3.2,0,0,1-5.32,0,9.7,9.7,0,0,1,0-8.16,3.23,3.23,0,0,1,5.32,0Zm-4.19.77a11.21,11.21,0,0,0,0,6.62,1.61,1.61,0,0,0,1.53,1,1.63,1.63,0,0,0,1.53-1,11.17,11.17,0,0,0,0-6.61,1.66,1.66,0,0,0-3.06,0Z"/><path d="M517.93,438.22a9.7,9.7,0,0,1,0,8.16,3.2,3.2,0,0,1-5.32,0,9.7,9.7,0,0,1,0-8.16,3.23,3.23,0,0,1,5.32,0Zm-4.2.77a11.21,11.21,0,0,0,0,6.62,1.63,1.63,0,0,0,1.54,1,1.61,1.61,0,0,0,1.52-1,11,11,0,0,0,0-6.61,1.61,1.61,0,0,0-1.52-1A1.64,1.64,0,0,0,513.73,439Z"/><path d="M526.8,438.22a9.7,9.7,0,0,1,0,8.16,3.21,3.21,0,0,1-5.33,0,9.8,9.8,0,0,1,0-8.16,3.24,3.24,0,0,1,5.33,0Zm-4.2.77a11.21,11.21,0,0,0,0,6.62,1.65,1.65,0,0,0,3.06,0,11,11,0,0,0,0-6.61,1.66,1.66,0,0,0-3.06,0Z"/><path d="M557.7,437v10.64h-1.46v-9.08L553.76,440l-.64-1,3.29-2Z"/><path d="M566.54,438.22a9.7,9.7,0,0,1,0,8.16,3.2,3.2,0,0,1-5.32,0,9.7,9.7,0,0,1,0-8.16,3.23,3.23,0,0,1,5.32,0Zm-4.19.77a11.21,11.21,0,0,0,0,6.62,1.61,1.61,0,0,0,1.53,1,1.63,1.63,0,0,0,1.53-1,11,11,0,0,0,0-6.61,1.66,1.66,0,0,0-3.06,0Z"/><path d="M575.41,438.22a9.7,9.7,0,0,1,0,8.16,3.2,3.2,0,0,1-5.32,0,9.7,9.7,0,0,1,0-8.16,3.23,3.23,0,0,1,5.32,0Zm-4.19.77a11,11,0,0,0,0,6.62,1.61,1.61,0,0,0,1.53,1,1.63,1.63,0,0,0,1.53-1,11.17,11.17,0,0,0,0-6.61,1.66,1.66,0,0,0-3.06,0Z"/><path d="M583.86,438.12h-4.15v3.13a3.64,3.64,0,0,1,1.7-.41,2.86,2.86,0,0,1,2.19.89,3.49,3.49,0,0,1,.83,2.48,3.69,3.69,0,0,1-.46,1.86,3.18,3.18,0,0,1-1.3,1.27,3.88,3.88,0,0,1-1.93.46,4.34,4.34,0,0,1-1.73-.34,4.65,4.65,0,0,1-1.41-1l.86-.85a3.42,3.42,0,0,0,1,.76,3,3,0,0,0,1.23.25,2.08,2.08,0,0,0,1.6-.64,2.59,2.59,0,0,0,.58-1.8,2.3,2.3,0,0,0-.53-1.68A1.91,1.91,0,0,0,581,442a3.13,3.13,0,0,0-.77.09,3.8,3.8,0,0,0-.74.28h-1.15V437h5.76Z"/><path d="M615.82,437.2a2.81,2.81,0,0,1,1.12,1,2.85,2.85,0,0,1,.4,1.48,4.17,4.17,0,0,1-.44,1.86,9,9,0,0,1-1.34,1.93c-.61.69-1.52,1.64-2.75,2.87h4.78l-.18,1.23h-6.27v-1.16c1.42-1.48,2.42-2.55,3-3.24a9.32,9.32,0,0,0,1.27-1.79,3.62,3.62,0,0,0,.38-1.63,1.75,1.75,0,0,0-.48-1.3,1.73,1.73,0,0,0-1.27-.47,2.34,2.34,0,0,0-1.14.27,4.21,4.21,0,0,0-1,.89l-1-.76a4.53,4.53,0,0,1,1.45-1.21,4,4,0,0,1,1.78-.39A3.47,3.47,0,0,1,615.82,437.2Z"/><path d="M625.48,438.22a9.7,9.7,0,0,1,0,8.16,3.2,3.2,0,0,1-5.32,0,9.7,9.7,0,0,1,0-8.16,3.23,3.23,0,0,1,5.32,0Zm-4.19.77a11,11,0,0,0,0,6.62,1.64,1.64,0,0,0,3.05,0,11,11,0,0,0,0-6.61,1.65,1.65,0,0,0-3.05,0Z"/><path d="M634.35,438.22a9.7,9.7,0,0,1,0,8.16,3.2,3.2,0,0,1-5.32,0,9.7,9.7,0,0,1,0-8.16,3.23,3.23,0,0,1,5.32,0Zm-4.2.77a11.21,11.21,0,0,0,0,6.62,1.63,1.63,0,0,0,1.54,1,1.62,1.62,0,0,0,1.52-1,11,11,0,0,0,0-6.61,1.62,1.62,0,0,0-1.52-1A1.64,1.64,0,0,0,630.15,439Z"/><path d="M643.22,438.22a9.7,9.7,0,0,1,0,8.16,3.21,3.21,0,0,1-5.33,0,9.8,9.8,0,0,1,0-8.16,3.24,3.24,0,0,1,5.33,0ZM639,439a11.21,11.21,0,0,0,0,6.62,1.65,1.65,0,0,0,3.06,0,11,11,0,0,0,0-6.61,1.66,1.66,0,0,0-3.06,0Z"/><path d="M673.3,437.2a2.81,2.81,0,0,1,1.12,1,2.85,2.85,0,0,1,.4,1.48,4.17,4.17,0,0,1-.44,1.86,9,9,0,0,1-1.34,1.93c-.61.69-1.53,1.64-2.75,2.87h4.78l-.18,1.23h-6.27v-1.16c1.42-1.48,2.42-2.55,3-3.24a9.32,9.32,0,0,0,1.27-1.79,3.62,3.62,0,0,0,.38-1.63,1.75,1.75,0,0,0-.48-1.3,1.73,1.73,0,0,0-1.27-.47,2.34,2.34,0,0,0-1.14.27,4.21,4.21,0,0,0-1,.89l-1-.76a4.53,4.53,0,0,1,1.45-1.21,4,4,0,0,1,1.78-.39A3.47,3.47,0,0,1,673.3,437.2Z"/><path d="M683,438.22a9.7,9.7,0,0,1,0,8.16,3.2,3.2,0,0,1-5.32,0,9.7,9.7,0,0,1,0-8.16,3.23,3.23,0,0,1,5.32,0Zm-4.2.77a11.21,11.21,0,0,0,0,6.62,1.63,1.63,0,0,0,1.54,1,1.61,1.61,0,0,0,1.52-1,11,11,0,0,0,0-6.61,1.61,1.61,0,0,0-1.52-1A1.64,1.64,0,0,0,678.76,439Z"/><path d="M691.83,438.22a9.7,9.7,0,0,1,0,8.16,3.21,3.21,0,0,1-5.33,0,9.8,9.8,0,0,1,0-8.16,3.24,3.24,0,0,1,5.33,0Zm-4.2.77a11.21,11.21,0,0,0,0,6.62,1.65,1.65,0,0,0,3.06,0,11,11,0,0,0,0-6.61,1.66,1.66,0,0,0-3.06,0Z"/><path d="M700.28,438.12h-4.15v3.13a3.61,3.61,0,0,1,1.7-.41,2.86,2.86,0,0,1,2.19.89,3.54,3.54,0,0,1,.83,2.48,3.8,3.8,0,0,1-.46,1.86,3.18,3.18,0,0,1-1.3,1.27,3.88,3.88,0,0,1-1.93.46,4.31,4.31,0,0,1-1.73-.34,4.82,4.82,0,0,1-1.42-1l.86-.85a3.58,3.58,0,0,0,1,.76,3,3,0,0,0,1.22.25,2.06,2.06,0,0,0,1.6-.64,2.55,2.55,0,0,0,.58-1.8,2.3,2.3,0,0,0-.52-1.68,1.92,1.92,0,0,0-1.42-.53,3,3,0,0,0-.76.09,4.14,4.14,0,0,0-.75.28h-1.14V437h5.75Z"/><path d="M66.92,384.58v10H65.55V386l-2.32,1.42-.6-1,3.09-1.91Z" style="fill:#1d1d1b"/><path d="M71.08,393a1,1,0,0,1,.3.73,1,1,0,0,1-.3.74,1.05,1.05,0,0,1-1.47,0,1,1,0,0,1-.3-.74,1,1,0,0,1,1.77-.73Z" style="fill:#1d1d1b"/><path d="M78.8,385.75a9.13,9.13,0,0,1,0,7.65,3,3,0,0,1-5,0,9.13,9.13,0,0,1,0-7.65,3,3,0,0,1,5,0Zm-3.94.72a10.49,10.49,0,0,0,0,6.21,1.55,1.55,0,0,0,2.87,0,7.41,7.41,0,0,0,.48-3.11,7.34,7.34,0,0,0-.48-3.09,1.56,1.56,0,0,0-2.87,0Z" style="fill:#1d1d1b"/><path d="M87.11,385.75a9,9,0,0,1,0,7.65,3,3,0,0,1-5,0,9.13,9.13,0,0,1,0-7.65,3,3,0,0,1,5,0Zm-3.93.72a10.49,10.49,0,0,0,0,6.21,1.52,1.52,0,0,0,1.44,1,1.53,1.53,0,0,0,1.43-1,7.41,7.41,0,0,0,.48-3.11,7.34,7.34,0,0,0-.48-3.09,1.56,1.56,0,0,0-2.87,0Z" style="fill:#1d1d1b"/><path d="M95.43,385.75a9.13,9.13,0,0,1,0,7.65,3,3,0,0,1-5,0,9.13,9.13,0,0,1,0-7.65,3,3,0,0,1,5,0Zm-3.93.72a10.49,10.49,0,0,0,0,6.21,1.52,1.52,0,0,0,1.44,1,1.53,1.53,0,0,0,1.43-1,7.61,7.61,0,0,0,.47-3.11,7.54,7.54,0,0,0-.47-3.09,1.56,1.56,0,0,0-2.87,0Z" style="fill:#1d1d1b"/><path d="M67.08,349.35a2.59,2.59,0,0,1,1,1,2.64,2.64,0,0,1,.37,1.4,4,4,0,0,1-.4,1.74,8.75,8.75,0,0,1-1.26,1.8q-.86,1-2.58,2.7h4.48l-.16,1.15H62.69V358c1.33-1.38,2.28-2.39,2.83-3a8.41,8.41,0,0,0,1.2-1.68,3.37,3.37,0,0,0,.35-1.53,1.52,1.52,0,0,0-1.64-1.66,2.2,2.2,0,0,0-1.07.25,3.93,3.93,0,0,0-1,.84l-.9-.72a4.21,4.21,0,0,1,1.36-1.13,3.66,3.66,0,0,1,1.67-.37A3.28,3.28,0,0,1,67.08,349.35Z" style="fill:#1d1d1b"/><path d="M72,357.51A1.05,1.05,0,0,1,72,359a1,1,0,0,1-.75.31,1,1,0,0,1-.73-.31,1,1,0,0,1,.73-1.76A1.05,1.05,0,0,1,72,357.51Z" style="fill:#1d1d1b"/><path d="M79.72,350.31a9.13,9.13,0,0,1,0,7.65,3,3,0,0,1-5,0,9.13,9.13,0,0,1,0-7.65,3,3,0,0,1,5,0Zm-3.93.72a10.49,10.49,0,0,0,0,6.21,1.52,1.52,0,0,0,1.44,1,1.53,1.53,0,0,0,1.43-1,7.61,7.61,0,0,0,.47-3.11,7.54,7.54,0,0,0-.47-3.09,1.53,1.53,0,0,0-1.43-1A1.51,1.51,0,0,0,75.79,351Z" style="fill:#1d1d1b"/><path d="M88,350.31A9.13,9.13,0,0,1,88,358a3,3,0,0,1-5,0,9,9,0,0,1,0-7.65,3,3,0,0,1,5,0ZM84.1,351a10.49,10.49,0,0,0,0,6.21,1.54,1.54,0,0,0,1.44,1,1.52,1.52,0,0,0,1.43-1,7.41,7.41,0,0,0,.48-3.11A7.34,7.34,0,0,0,87,351a1.56,1.56,0,0,0-2.87,0Z" style="fill:#1d1d1b"/><path d="M96.36,350.31a9.13,9.13,0,0,1,0,7.65,3,3,0,0,1-5,0,9.13,9.13,0,0,1,0-7.65,3,3,0,0,1,5,0Zm-3.94.72a10.49,10.49,0,0,0,0,6.21,1.55,1.55,0,0,0,2.87,0,7.41,7.41,0,0,0,.48-3.11,7.34,7.34,0,0,0-.48-3.09,1.52,1.52,0,0,0-1.43-1A1.51,1.51,0,0,0,92.42,351Z" style="fill:#1d1d1b"/><path d="M67.05,313.91a2.61,2.61,0,0,1,1,.92,2.45,2.45,0,0,1,.35,1.27,2.16,2.16,0,0,1-.53,1.5,2.75,2.75,0,0,1-1.41.8,2.5,2.5,0,0,1,1.62.71,2.3,2.3,0,0,1,.63,1.7,3,3,0,0,1-.42,1.57,2.86,2.86,0,0,1-1.19,1.09,3.93,3.93,0,0,1-1.79.4,4.15,4.15,0,0,1-1.67-.34,3.68,3.68,0,0,1-1.33-1l.82-.77a3.52,3.52,0,0,0,1,.75,2.63,2.63,0,0,0,1.13.24,2,2,0,0,0,1.47-.53,1.9,1.9,0,0,0,.54-1.42,1.67,1.67,0,0,0-.51-1.39,2.32,2.32,0,0,0-1.47-.4h-.75l.16-1.06h.51a1.88,1.88,0,0,0,1.29-.46,1.67,1.67,0,0,0,.51-1.3,1.41,1.41,0,0,0-.44-1.11,1.74,1.74,0,0,0-1.21-.41,2.69,2.69,0,0,0-1.07.21,3.74,3.74,0,0,0-1,.68l-.71-.82a4.07,4.07,0,0,1,2.84-1.17A3.39,3.39,0,0,1,67.05,313.91Z" style="fill:#1d1d1b"/><path d="M72.07,322.09a1,1,0,0,1,.3.73,1,1,0,0,1-.3.74,1,1,0,0,1-.75.31,1,1,0,0,1-.73-.31,1,1,0,0,1-.3-.74,1,1,0,0,1,1-1A1,1,0,0,1,72.07,322.09Z" style="fill:#1d1d1b"/><path d="M79.78,314.89a7.12,7.12,0,0,1,.84,3.82,7.21,7.21,0,0,1-.84,3.83,3,3,0,0,1-5,0,7.21,7.21,0,0,1-.84-3.83,7.12,7.12,0,0,1,.84-3.82,3,3,0,0,1,5,0Zm-3.93.72a7.36,7.36,0,0,0-.47,3.1,7.44,7.44,0,0,0,.47,3.11,1.52,1.52,0,0,0,1.44,1,1.53,1.53,0,0,0,1.43-1,7.61,7.61,0,0,0,.47-3.11,7.54,7.54,0,0,0-.47-3.09,1.55,1.55,0,0,0-2.87,0Z" style="fill:#1d1d1b"/><path d="M88.1,314.89a7.12,7.12,0,0,1,.84,3.82,7.21,7.21,0,0,1-.84,3.83,3,3,0,0,1-5,0,7.11,7.11,0,0,1-.85-3.83,7,7,0,0,1,.85-3.82,3,3,0,0,1,5,0Zm-3.94.72a7.53,7.53,0,0,0-.47,3.1,7.61,7.61,0,0,0,.47,3.11,1.55,1.55,0,0,0,2.87,0,7.41,7.41,0,0,0,.48-3.11,7.34,7.34,0,0,0-.48-3.09,1.52,1.52,0,0,0-1.43-1A1.54,1.54,0,0,0,84.16,315.61Z" style="fill:#1d1d1b"/><path d="M96.42,314.89a7.12,7.12,0,0,1,.84,3.82,7.21,7.21,0,0,1-.84,3.83,3,3,0,0,1-5,0,7.21,7.21,0,0,1-.84-3.83,7.12,7.12,0,0,1,.84-3.82,3,3,0,0,1,5,0Zm-3.94.72a7.53,7.53,0,0,0-.47,3.1,7.61,7.61,0,0,0,.47,3.11,1.55,1.55,0,0,0,2.87,0,7.41,7.41,0,0,0,.48-3.11,7.34,7.34,0,0,0-.48-3.09,1.55,1.55,0,0,0-2.87,0Z" style="fill:#1d1d1b"/><path d="M69.59,284.7v1.09H68.3v2.46H67v-2.46H62.71v-1l3-6.68,1.15.47-2.7,6.1H67L67.1,282h1.2v2.68Z" style="fill:#1d1d1b"/><path d="M72.56,286.65a1.05,1.05,0,0,1,0,1.47,1,1,0,0,1-.75.31,1,1,0,0,1-.73-.31,1.08,1.08,0,0,1,0-1.47,1,1,0,0,1,.73-.29A1.05,1.05,0,0,1,72.56,286.65Z" style="fill:#1d1d1b"/><path d="M80.27,279.45a9,9,0,0,1,0,7.65,3,3,0,0,1-5,0,9.13,9.13,0,0,1,0-7.65,3,3,0,0,1,5,0Zm-3.93.72a10.49,10.49,0,0,0,0,6.21,1.52,1.52,0,0,0,1.44,1,1.53,1.53,0,0,0,1.43-1,7.44,7.44,0,0,0,.47-3.11,7.37,7.37,0,0,0-.47-3.09,1.53,1.53,0,0,0-1.43-1A1.51,1.51,0,0,0,76.34,280.17Z" style="fill:#1d1d1b"/><path d="M88.59,279.45a9.13,9.13,0,0,1,0,7.65,3,3,0,0,1-5,0,9,9,0,0,1,0-7.65,3,3,0,0,1,5,0Zm-3.93.72a10.49,10.49,0,0,0,0,6.21,1.55,1.55,0,0,0,2.86,0,7.41,7.41,0,0,0,.48-3.11,7.34,7.34,0,0,0-.48-3.09,1.55,1.55,0,0,0-2.86,0Z" style="fill:#1d1d1b"/><path d="M96.91,279.45a9.13,9.13,0,0,1,0,7.65,3,3,0,0,1-5,0,9.13,9.13,0,0,1,0-7.65,3,3,0,0,1,5,0Zm-3.94.72a10.49,10.49,0,0,0,0,6.21,1.55,1.55,0,0,0,2.87,0,7.41,7.41,0,0,0,.48-3.11,7.34,7.34,0,0,0-.48-3.09,1.56,1.56,0,0,0-2.87,0Z" style="fill:#1d1d1b"/><path d="M68.37,243.93H64.48v2.93a3.46,3.46,0,0,1,1.6-.38,2.65,2.65,0,0,1,2,.84,3.27,3.27,0,0,1,.78,2.32,3.63,3.63,0,0,1-.43,1.75,3,3,0,0,1-1.22,1.19,3.78,3.78,0,0,1-1.81.42,3.86,3.86,0,0,1-1.63-.32,4.46,4.46,0,0,1-1.32-.94l.8-.79a3.28,3.28,0,0,0,1,.7,2.61,2.61,0,0,0,1.14.24,1.91,1.91,0,0,0,1.5-.6,2.43,2.43,0,0,0,.55-1.68A2.14,2.14,0,0,0,67,248a1.77,1.77,0,0,0-1.32-.5,3.24,3.24,0,0,0-.72.08,4.15,4.15,0,0,0-.7.27H63.17v-5h5.39Z" style="fill:#1d1d1b"/><path d="M72.1,251.23a1,1,0,0,1,.3.73,1,1,0,0,1-1.05,1,1,1,0,0,1-.73-.3,1,1,0,0,1-.3-.74,1,1,0,0,1,1-1A1,1,0,0,1,72.1,251.23Z" style="fill:#1d1d1b"/><path d="M79.81,244a9.15,9.15,0,0,1,0,7.66,3,3,0,0,1-5,0,9.15,9.15,0,0,1,0-7.66,3,3,0,0,1,5,0Zm-3.93.73a10.46,10.46,0,0,0,0,6.2,1.51,1.51,0,0,0,1.43,1,1.53,1.53,0,0,0,1.44-1,10.46,10.46,0,0,0,0-6.2,1.54,1.54,0,0,0-1.44-1A1.52,1.52,0,0,0,75.88,244.75Z" style="fill:#1d1d1b"/><path d="M88.13,244a9.15,9.15,0,0,1,0,7.66,3,3,0,0,1-5,0,9.15,9.15,0,0,1,0-7.66,3,3,0,0,1,5,0Zm-3.94.73a10.46,10.46,0,0,0,0,6.2,1.55,1.55,0,0,0,2.87,0,10.25,10.25,0,0,0,0-6.2,1.55,1.55,0,0,0-2.87,0Z" style="fill:#1d1d1b"/><path d="M96.45,244a9.15,9.15,0,0,1,0,7.66,3,3,0,0,1-5,0,9.15,9.15,0,0,1,0-7.66,3,3,0,0,1,5,0Zm-3.94.73a10.46,10.46,0,0,0,0,6.2,1.51,1.51,0,0,0,1.44,1,1.53,1.53,0,0,0,1.43-1,10.25,10.25,0,0,0,0-6.2,1.53,1.53,0,0,0-1.43-1A1.52,1.52,0,0,0,92.51,244.75Z" style="fill:#1d1d1b"/><path d="M68.09,211.18a2.62,2.62,0,0,1,1,1.08,3.8,3.8,0,0,1,.37,1.74,3.88,3.88,0,0,1-.43,1.87,3.07,3.07,0,0,1-1.14,1.25,3,3,0,0,1-1.61.44,2.76,2.76,0,0,1-2.54-1.29,6.69,6.69,0,0,1-.81-3.57,8.28,8.28,0,0,1,.45-2.85,4.29,4.29,0,0,1,1.31-1.91,3.15,3.15,0,0,1,2-.68,3.71,3.71,0,0,1,2.06.61l-.54.91a2.86,2.86,0,0,0-1.53-.43,1.89,1.89,0,0,0-1.7,1,5.63,5.63,0,0,0-.69,2.76,2.82,2.82,0,0,1,2.4-1.32A2.74,2.74,0,0,1,68.09,211.18Zm-.48,4.64a3,3,0,0,0,.46-1.78c0-1.42-.53-2.13-1.61-2.13a2.07,2.07,0,0,0-1.2.37,3.12,3.12,0,0,0-.94,1,5.13,5.13,0,0,0,.51,2.42,1.57,1.57,0,0,0,1.45.77A1.52,1.52,0,0,0,67.61,215.82Z" style="fill:#1d1d1b"/><path d="M72.58,215.79a1,1,0,0,1,.29.73,1.06,1.06,0,0,1-.29.74,1,1,0,0,1-.75.3,1,1,0,0,1-.73-.3,1,1,0,0,1-.3-.74,1,1,0,0,1,1-1A1,1,0,0,1,72.58,215.79Z" style="fill:#1d1d1b"/><path d="M80.29,208.58a7.17,7.17,0,0,1,.84,3.82,7.25,7.25,0,0,1-.84,3.84,3,3,0,0,1-5,0,7.25,7.25,0,0,1-.84-3.84,7.17,7.17,0,0,1,.84-3.82,3,3,0,0,1,5,0Zm-3.94.72a10.49,10.49,0,0,0,0,6.21,1.55,1.55,0,0,0,2.87,0,10.25,10.25,0,0,0,0-6.2,1.52,1.52,0,0,0-1.43-1A1.54,1.54,0,0,0,76.35,209.3Z" style="fill:#1d1d1b"/><path d="M88.61,208.58a7.17,7.17,0,0,1,.84,3.82,7.25,7.25,0,0,1-.84,3.84,3,3,0,0,1-5,0,7.25,7.25,0,0,1-.84-3.84,7.17,7.17,0,0,1,.84-3.82,3,3,0,0,1,5,0Zm-3.94.72a10.49,10.49,0,0,0,0,6.21,1.55,1.55,0,0,0,2.87,0,10.25,10.25,0,0,0,0-6.2,1.56,1.56,0,0,0-2.87,0Z" style="fill:#1d1d1b"/><path d="M96.92,208.58a7.16,7.16,0,0,1,.85,3.82,7.24,7.24,0,0,1-.85,3.84,3,3,0,0,1-5,0,7.25,7.25,0,0,1-.84-3.84,7.17,7.17,0,0,1,.84-3.82,3,3,0,0,1,5,0ZM93,209.3a10.49,10.49,0,0,0,0,6.21,1.52,1.52,0,0,0,1.44,1,1.53,1.53,0,0,0,1.43-1,10.46,10.46,0,0,0,0-6.2,1.56,1.56,0,0,0-2.87,0Z" style="fill:#1d1d1b"/><path d="M68.28,172v1l-3.73,9.09-1.25-.41,3.6-8.59H62.48V172Z" style="fill:#1d1d1b"/><path d="M71.25,180.35a1,1,0,0,1,.3.73,1,1,0,0,1-1,1,1,1,0,0,1-.73-.3,1,1,0,0,1-.3-.74,1,1,0,0,1,1-1A1,1,0,0,1,71.25,180.35Z" style="fill:#1d1d1b"/><path d="M79,173.14a9.15,9.15,0,0,1,0,7.66,3,3,0,0,1-5,0,9.15,9.15,0,0,1,0-7.66,3,3,0,0,1,5,0Zm-3.93.73a10.46,10.46,0,0,0,0,6.2,1.51,1.51,0,0,0,1.43,1,1.53,1.53,0,0,0,1.44-1,10.46,10.46,0,0,0,0-6.2,1.54,1.54,0,0,0-1.44-1A1.52,1.52,0,0,0,75,173.87Z" style="fill:#1d1d1b"/><path d="M87.28,173.14a9.15,9.15,0,0,1,0,7.66,3,3,0,0,1-5,0,9.05,9.05,0,0,1,0-7.66,3,3,0,0,1,5,0Zm-3.94.73a10.46,10.46,0,0,0,0,6.2,1.55,1.55,0,0,0,2.87,0,10.25,10.25,0,0,0,0-6.2,1.55,1.55,0,0,0-2.87,0Z" style="fill:#1d1d1b"/><path d="M95.6,173.14a9.15,9.15,0,0,1,0,7.66,3,3,0,0,1-5,0,9.15,9.15,0,0,1,0-7.66,3,3,0,0,1,5,0Zm-3.94.73a10.46,10.46,0,0,0,0,6.2,1.55,1.55,0,0,0,2.87,0,10.25,10.25,0,0,0,0-6.2,1.55,1.55,0,0,0-2.87,0Z" style="fill:#1d1d1b"/><path d="M69.65,143.85a2.5,2.5,0,0,1-.44,1.47,2.9,2.9,0,0,1-1.23,1,4.24,4.24,0,0,1-1.79.36,4.16,4.16,0,0,1-1.78-.36,2.75,2.75,0,0,1-1.2-1,2.56,2.56,0,0,1-.43-1.47,2.44,2.44,0,0,1,.5-1.55,3.75,3.75,0,0,1,1.47-1,2.9,2.9,0,0,1-1.17-1A2.39,2.39,0,0,1,63.2,139a2.31,2.31,0,0,1,.42-1.39,2.71,2.71,0,0,1,1.12-.88,3.69,3.69,0,0,1,1.48-.3,4,4,0,0,1,1.47.28,2.63,2.63,0,0,1,1.13.86,2.2,2.2,0,0,1,.43,1.38,2,2,0,0,1-.42,1.28,3.64,3.64,0,0,1-1.28,1A2.84,2.84,0,0,1,69.65,143.85Zm-2,1.29a1.61,1.61,0,0,0,.54-1.27A1.76,1.76,0,0,0,68,143a1.73,1.73,0,0,0-.67-.64,6.82,6.82,0,0,0-1.29-.56l-.38-.14a2.66,2.66,0,0,0-1.1.91,2.37,2.37,0,0,0-.36,1.34,1.58,1.58,0,0,0,.54,1.28,2.56,2.56,0,0,0,2.93,0ZM65,137.83a1.44,1.44,0,0,0-.46,1.15,1.36,1.36,0,0,0,.44,1.09,4,4,0,0,0,1.41.68l.25.09a2.81,2.81,0,0,0,1-.82,1.78,1.78,0,0,0,.3-1.05,1.48,1.48,0,0,0-.44-1.12,1.73,1.73,0,0,0-1.25-.42A1.76,1.76,0,0,0,65,137.83Z" style="fill:#1d1d1b"/><path d="M72.84,144.93a1,1,0,0,1,.3.73,1,1,0,0,1-.3.74,1.05,1.05,0,0,1-1.47,0,1,1,0,0,1-.3-.74,1,1,0,0,1,1.77-.73Z" style="fill:#1d1d1b"/><path d="M80.56,137.72a9.13,9.13,0,0,1,0,7.65,3,3,0,0,1-5,0,9.13,9.13,0,0,1,0-7.65,3,3,0,0,1,5,0Zm-3.94.72a10.49,10.49,0,0,0,0,6.21,1.55,1.55,0,0,0,2.87,0,10.25,10.25,0,0,0,0-6.2,1.56,1.56,0,0,0-2.87,0Z" style="fill:#1d1d1b"/><path d="M88.87,137.72a9,9,0,0,1,0,7.65,3,3,0,0,1-5,0,9.13,9.13,0,0,1,0-7.65,3,3,0,0,1,5,0Zm-3.93.72a10.49,10.49,0,0,0,0,6.21,1.52,1.52,0,0,0,1.44,1,1.53,1.53,0,0,0,1.43-1,10.46,10.46,0,0,0,0-6.2,1.56,1.56,0,0,0-2.87,0Z" style="fill:#1d1d1b"/><path d="M97.19,137.72a9.13,9.13,0,0,1,0,7.65,3,3,0,0,1-5,0,9.13,9.13,0,0,1,0-7.65,3,3,0,0,1,5,0Zm-3.93.72a10.49,10.49,0,0,0,0,6.21,1.55,1.55,0,0,0,2.86,0,10.25,10.25,0,0,0,0-6.2,1.55,1.55,0,0,0-2.86,0Z" style="fill:#1d1d1b"/><path d="M68.37,102a4.44,4.44,0,0,1,.82,2.84,8.15,8.15,0,0,1-.55,3.28,4.59,4.59,0,0,1-1.68,2,11.9,11.9,0,0,1-3.08,1.3l-.31-1a7.55,7.55,0,0,0,3.06-1.53,3.57,3.57,0,0,0,1.14-2.58,2.46,2.46,0,0,1-.92.86,2.6,2.6,0,0,1-1.31.33,2.57,2.57,0,0,1-1.4-.39,2.77,2.77,0,0,1-1-1.12,3.63,3.63,0,0,1-.37-1.69,3.4,3.4,0,0,1,.43-1.76,3,3,0,0,1,1.16-1.14A3.19,3.19,0,0,1,66,101,2.89,2.89,0,0,1,68.37,102Zm-.57,3.15a4.59,4.59,0,0,0-.41-2.38,1.5,1.5,0,0,0-1.39-.72,1.65,1.65,0,0,0-1.36.58,2.6,2.6,0,0,0-.47,1.66,2.43,2.43,0,0,0,.44,1.57,1.53,1.53,0,0,0,1.21.53A2.31,2.31,0,0,0,67.8,105.15Z" style="fill:#1d1d1b"/><path d="M72.46,109.49a1,1,0,0,1,.29.73,1.06,1.06,0,0,1-.29.74,1,1,0,0,1-.75.3A1,1,0,0,1,71,111a1,1,0,0,1-.3-.74,1,1,0,0,1,1-1A1,1,0,0,1,72.46,109.49Z" style="fill:#1d1d1b"/><path d="M80.17,102.28a9.15,9.15,0,0,1,0,7.66,3,3,0,0,1-5,0,9.05,9.05,0,0,1,0-7.66,3,3,0,0,1,5,0Zm-3.94.72a10.49,10.49,0,0,0,0,6.21,1.54,1.54,0,0,0,1.44,1,1.52,1.52,0,0,0,1.43-1,10.25,10.25,0,0,0,0-6.2,1.52,1.52,0,0,0-1.43-1A1.54,1.54,0,0,0,76.23,103Z" style="fill:#1d1d1b"/><path d="M88.49,102.28a9.15,9.15,0,0,1,0,7.66,3,3,0,0,1-5,0,9.15,9.15,0,0,1,0-7.66,3,3,0,0,1,5,0Zm-3.94.72a10.49,10.49,0,0,0,0,6.21,1.55,1.55,0,0,0,2.87,0,10.25,10.25,0,0,0,0-6.2,1.56,1.56,0,0,0-2.87,0Z" style="fill:#1d1d1b"/><path d="M96.8,102.28a9.05,9.05,0,0,1,0,7.66,3,3,0,0,1-5,0,9.15,9.15,0,0,1,0-7.66,3,3,0,0,1,5,0Zm-3.93.72a10.49,10.49,0,0,0,0,6.21,1.52,1.52,0,0,0,1.44,1,1.53,1.53,0,0,0,1.43-1,10.46,10.46,0,0,0,0-6.2,1.56,1.56,0,0,0-2.87,0Z" style="fill:#1d1d1b"/><path d="M36.94,355.52H29.27V363h7.67v1.37H21.25V363H28.1v-7.51H21.25v-1.38H36.94Z" style="fill:#1d1d1b"/><path d="M21.42,336.61a7,7,0,0,1,1.32-2l.87.8a6.84,6.84,0,0,0-1.1,1.74,5.11,5.11,0,0,0-.34,1.93,3.65,3.65,0,0,0,.72,2.36,2.37,2.37,0,0,0,1.93.89,2.6,2.6,0,0,0,1.37-.33,2.82,2.82,0,0,0,1-1.11,12.44,12.44,0,0,0,.86-2.22,12.42,12.42,0,0,1,1-2.52,4.07,4.07,0,0,1,1.42-1.49,4.19,4.19,0,0,1,2.2-.53,4.46,4.46,0,0,1,2.36.64,4.37,4.37,0,0,1,1.6,1.82,6.24,6.24,0,0,1,.57,2.74,7,7,0,0,1-2,5l-.87-.78a7.54,7.54,0,0,0,1.25-2,5.74,5.74,0,0,0,.42-2.27,4.12,4.12,0,0,0-.89-2.76,3,3,0,0,0-2.43-1.06,3.24,3.24,0,0,0-1.58.35A3,3,0,0,0,30.06,337a12.45,12.45,0,0,0-.91,2.23,9,9,0,0,1-1.69,3.44,3.42,3.42,0,0,1-2.61,1,3.47,3.47,0,0,1-2-.59,3.92,3.92,0,0,1-1.38-1.62,5.56,5.56,0,0,1-.49-2.4A6.6,6.6,0,0,1,21.42,336.61Z" style="fill:#1d1d1b"/><path d="M21.93,321.6a6.06,6.06,0,0,1,2.76-2.25,11,11,0,0,1,4.42-.8,10.85,10.85,0,0,1,4.36.79,6.16,6.16,0,0,1,2.77,2.23,6.48,6.48,0,0,1,0,6.74,6.06,6.06,0,0,1-2.75,2.24,10.63,10.63,0,0,1-4.37.8,10.76,10.76,0,0,1-4.37-.8A6.16,6.16,0,0,1,22,328.3,5.92,5.92,0,0,1,21,325,6.06,6.06,0,0,1,21.93,321.6Zm2,7a8.54,8.54,0,0,0,5.21,1.33,8.36,8.36,0,0,0,5.15-1.34,4.68,4.68,0,0,0,0-7.27A8.54,8.54,0,0,0,29.11,320a8.53,8.53,0,0,0-5.21,1.32,4.67,4.67,0,0,0,0,7.27Z" style="fill:#1d1d1b"/><path d="M18.32,298.07A35.09,35.09,0,0,0,21.54,300a14.48,14.48,0,0,0,3.22,1.18,17.27,17.27,0,0,0,4.16.45,17.29,17.29,0,0,0,4.17-.45A14.48,14.48,0,0,0,36.31,300a35.09,35.09,0,0,0,3.22-1.95l.55.85c-1.33.95-2.47,1.69-3.41,2.23a14.11,14.11,0,0,1-3.33,1.34,16.23,16.23,0,0,1-4.42.53,16.33,16.33,0,0,1-4.42-.53,14.2,14.2,0,0,1-3.32-1.34c-.94-.54-2.08-1.28-3.41-2.23Z" style="fill:#1d1d1b"/><path d="M21.71,290.15H36.94v1.33H23.18l2.33,3.76-1,.61-2.82-4.55Z" style="fill:#1d1d1b"/><path d="M23.46,277.51a11.51,11.51,0,0,1,5.88-1.22,11.32,11.32,0,0,1,5.85,1.23,4.18,4.18,0,0,1,0,7.13,11.51,11.51,0,0,1-5.88,1.22,11.4,11.4,0,0,1-5.86-1.22,4.19,4.19,0,0,1,0-7.14Zm5.85,7c4.52,0,6.78-1.13,6.78-3.41a2.73,2.73,0,0,0-1.65-2.53,11.57,11.57,0,0,0-5.1-.86,11.67,11.67,0,0,0-5.12.86,2.72,2.72,0,0,0-1.66,2.53C22.56,283.36,24.81,284.49,29.31,284.49Z" style="fill:#1d1d1b"/><path d="M23.46,264.91a11.52,11.52,0,0,1,5.88-1.21,11.44,11.44,0,0,1,5.85,1.22,4.19,4.19,0,0,1,0,7.14,11.52,11.52,0,0,1-5.88,1.21,11.41,11.41,0,0,1-5.86-1.21,4.2,4.2,0,0,1,0-7.15Zm5.85,7q6.78,0,6.78-3.42A2.74,2.74,0,0,0,34.44,266a11.57,11.57,0,0,0-5.1-.86,11.67,11.67,0,0,0-5.12.86,2.73,2.73,0,0,0-1.66,2.53Q22.56,271.9,29.31,271.9Z" style="fill:#1d1d1b"/><path d="M23.46,252.31a11.52,11.52,0,0,1,5.88-1.21,11.32,11.32,0,0,1,5.85,1.23,4.18,4.18,0,0,1,0,7.13,11.52,11.52,0,0,1-5.88,1.21,11.41,11.41,0,0,1-5.86-1.21,4.2,4.2,0,0,1,0-7.15Zm5.85,7q6.78,0,6.78-3.41a2.72,2.72,0,0,0-1.65-2.53,11.42,11.42,0,0,0-5.1-.86,11.52,11.52,0,0,0-5.12.86,2.71,2.71,0,0,0-1.66,2.53Q22.56,259.3,29.31,259.3Z" style="fill:#1d1d1b"/><path d="M36.44,235.32a4.49,4.49,0,0,1,.75,2.52,2.83,2.83,0,0,1-.81,2.15,3.27,3.27,0,0,1-2.35.78H26v2H25v-2H22.1l-.16-1.33h3v-3.09l1.08.16v2.93H34a2.39,2.39,0,0,0,1.57-.43,1.67,1.67,0,0,0,.52-1.33,3.66,3.66,0,0,0-.53-1.83Z" style="fill:#1d1d1b"/><path d="M35.33,232.24a1,1,0,0,1,.76-.31,1,1,0,0,1,.79.31,1.06,1.06,0,0,1,.31.79,1.08,1.08,0,0,1-.32.78,1.06,1.06,0,0,1-.78.32,1,1,0,0,1-.76-.32,1.15,1.15,0,0,1,0-1.57Z" style="fill:#1d1d1b"/><path d="M26.32,220a8.1,8.1,0,0,1,4.57-1.09,7.94,7.94,0,0,1,4.6,1.18,3.87,3.87,0,0,1,1.7,3.38,4.3,4.3,0,0,1-.44,2,4.39,4.39,0,0,1-1.21,1.46h5.91l.19,1.33H25v-1.15L26.7,227a4.87,4.87,0,0,1-1.46-1.61,4.26,4.26,0,0,1-.53-2.08A3.67,3.67,0,0,1,26.32,220Zm8.44,1.2a7,7,0,0,0-3.87-.87q-5.09,0-5.08,3.19a3.16,3.16,0,0,0,.55,1.86,6.51,6.51,0,0,0,1.51,1.5h6.37a3.62,3.62,0,0,0,1.83-3.16A2.85,2.85,0,0,0,34.76,221.21Z" style="fill:#1d1d1b"/><path d="M35.33,214.19a1,1,0,0,1,.76-.31,1.09,1.09,0,0,1,.79.31,1.14,1.14,0,0,1,0,1.57,1,1,0,0,1-.78.32,1,1,0,0,1-.76-.32,1.15,1.15,0,0,1,0-1.57Z" style="fill:#1d1d1b"/><path d="M35.63,202.49a1.42,1.42,0,0,0,.62-.77l.94.3a2.34,2.34,0,0,1-.62,1.27,2.42,2.42,0,0,1-1.39.58,4.1,4.1,0,0,1,2,3.74,3.7,3.7,0,0,1-1,2.71,3.46,3.46,0,0,1-2.6,1A3.38,3.38,0,0,1,30.76,210a5.84,5.84,0,0,1-1-3.65v-2.29H28.58a2.87,2.87,0,0,0-2.09.64,2.89,2.89,0,0,0-.66,2.13,9.68,9.68,0,0,0,.69,3.25l-1,.34a10.31,10.31,0,0,1-.8-3.77c0-2.62,1.27-3.92,3.8-3.92h5.77A2.8,2.8,0,0,0,35.63,202.49ZM34,204.06h-3.3v2.08a4.72,4.72,0,0,0,.71,2.8,2.47,2.47,0,0,0,2.13,1,2.55,2.55,0,0,0,1.9-.67,2.51,2.51,0,0,0,.67-1.85A3.64,3.64,0,0,0,34,204.06Z" style="fill:#1d1d1b"/><path d="M21.18,196a14.2,14.2,0,0,1,3.32-1.34,16.73,16.73,0,0,1,4.42-.53,16.63,16.63,0,0,1,4.42.53A14.11,14.11,0,0,1,36.67,196c.94.54,2.08,1.28,3.41,2.23l-.55.85a35.09,35.09,0,0,0-3.22-2A14.48,14.48,0,0,0,33.09,196a17.29,17.29,0,0,0-4.17-.45,17.27,17.27,0,0,0-4.16.45,14.48,14.48,0,0,0-3.22,1.18,35.09,35.09,0,0,0-3.22,2l-.55-.85C19.1,197.29,20.24,196.55,21.18,196Z" style="fill:#1d1d1b"/><path d="M33.12,347.33a2.34,2.34,0,0,1,.86-.93,2.29,2.29,0,0,1,1.22-.32,3.44,3.44,0,0,1,1.53.36,7.38,7.38,0,0,1,1.59,1.1c.56.5,1.35,1.25,2.36,2.27v-3.94l1,.14v5.17h-.95c-1.22-1.17-2.1-2-2.67-2.49a7.25,7.25,0,0,0-1.47-1,3,3,0,0,0-1.35-.32,1.41,1.41,0,0,0-1.06.39,1.45,1.45,0,0,0-.39,1,1.89,1.89,0,0,0,.22.94,3.26,3.26,0,0,0,.74.87l-.63.78a3.48,3.48,0,0,1-1-1.19,3.16,3.16,0,0,1-.32-1.46A2.87,2.87,0,0,1,33.12,347.33Z"/><path d="M38.58,309.84h1V311h2.16v1.16H39.53v3.74h-.86l-5.86-2.63.41-1,5.36,2.37v-2.48L36.22,312v-1h2.36Z"/><path d="M206.65,480.78a3.35,3.35,0,0,1,1.24,2.83,3.47,3.47,0,0,1-1.3,3,5.51,5.51,0,0,1-3.44,1H201.6v4.49h-1.69V479.83h3.22A5.67,5.67,0,0,1,206.65,480.78Zm-1.33,4.89a2.37,2.37,0,0,0,.77-2,2.21,2.21,0,0,0-.77-1.9,3.59,3.59,0,0,0-2.21-.59H201.6v5.1h1.48A3.72,3.72,0,0,0,205.32,485.67Z"/><path d="M213.82,486.88h-1.9v5.18h-1.69V479.83h3.22a5.8,5.8,0,0,1,3.47.87,3,3,0,0,1,1.18,2.59,3.21,3.21,0,0,1-.65,2.08,4.15,4.15,0,0,1-2,1.21l3.3,5.48h-2Zm-.19-1.3a3.16,3.16,0,0,0,2-.54,2.11,2.11,0,0,0,.68-1.75,1.88,1.88,0,0,0-.69-1.64,3.68,3.68,0,0,0-2.19-.51h-1.51v4.44Z"/><path d="M227.9,480.35a4.86,4.86,0,0,1,1.81,2.16,8.28,8.28,0,0,1,.65,3.44,8.17,8.17,0,0,1-.65,3.41,5.09,5.09,0,0,1-7.23,2.19,4.83,4.83,0,0,1-1.81-2.15,9.32,9.32,0,0,1,0-6.84,4.9,4.9,0,0,1,1.82-2.19,4.82,4.82,0,0,1,2.7-.76A5,5,0,0,1,227.9,480.35Zm-5.2,1.86a6.39,6.39,0,0,0-.89,3.76,6.19,6.19,0,0,0,.9,3.73,2.92,2.92,0,0,0,2.48,1.19c2.25,0,3.37-1.64,3.37-4.94s-1.12-4.95-3.37-4.95A2.9,2.9,0,0,0,222.7,482.21Z"/><path d="M240.12,481.11q1.68,1.29,1.68,4.77c0,2.27-.56,3.86-1.68,4.79a6.17,6.17,0,0,1-4.08,1.39h-2.93V479.83h2.56A7.17,7.17,0,0,1,240.12,481.11Zm-5.32.07v9.55h1.37a3.79,3.79,0,0,0,2.77-1.05c.71-.69,1.06-2,1.06-3.8a6.41,6.41,0,0,0-.55-3,2.81,2.81,0,0,0-1.4-1.39,5.36,5.36,0,0,0-2-.34Z"/><path d="M252.94,488.14a4.42,4.42,0,0,1-.51,2.16,3.6,3.6,0,0,1-1.47,1.45,4.82,4.82,0,0,1-2.32.53,4.25,4.25,0,0,1-3.16-1.13,4.11,4.11,0,0,1-1.11-3v-8.31h1.69V488a3.11,3.11,0,0,0,.64,2.14,3,3,0,0,0,3.89,0,3.06,3.06,0,0,0,.64-2.14v-8.18h1.71Z"/><path d="M262.89,491.79a4.83,4.83,0,0,1-1.68.45v.82a1.87,1.87,0,0,1,1.25.49,1.42,1.42,0,0,1,.41,1,1.51,1.51,0,0,1-.63,1.31,2.56,2.56,0,0,1-1.58.47,3.36,3.36,0,0,1-.92-.12,2,2,0,0,1-.69-.31l.44-.92a2.48,2.48,0,0,0,1.12.28,1.14,1.14,0,0,0,.65-.17.61.61,0,0,0,.24-.54.6.6,0,0,0-.38-.56,2.92,2.92,0,0,0-1.2-.19l.19-1.56a4.57,4.57,0,0,1-2.4-.9,4.9,4.9,0,0,1-1.62-2.15,8.31,8.31,0,0,1-.58-3.27,8,8,0,0,1,.68-3.44,5,5,0,0,1,1.83-2.16,4.75,4.75,0,0,1,2.57-.73,5.3,5.3,0,0,1,1.86.29,5.46,5.46,0,0,1,1.53.92l-.92,1.08a3.71,3.71,0,0,0-2.36-.9,3,3,0,0,0-2.46,1.17,8,8,0,0,0,0,7.49,2.93,2.93,0,0,0,2.45,1.2,3.25,3.25,0,0,0,1.37-.27,7.45,7.45,0,0,0,1.24-.75l.84,1.07A4.6,4.6,0,0,1,262.89,491.79Z"/><path d="M272.78,492.06l-.93-3.07h-4.63l-.93,3.07h-1.7l3.92-12.23h2.14l3.9,12.23Zm-2.78-14a3.48,3.48,0,0,1-.62-.36,2.43,2.43,0,0,0-.45-.28.85.85,0,0,0-.38-.09.72.72,0,0,0-.5.2,2.26,2.26,0,0,0-.44.62l-1-.5a3.58,3.58,0,0,1,.83-1.14,1.64,1.64,0,0,1,1.11-.42,1.41,1.41,0,0,1,.64.13,4.28,4.28,0,0,1,.6.37l.22.14.32.16a.87.87,0,0,0,.28.05.68.68,0,0,0,.48-.19,2.68,2.68,0,0,0,.46-.59l1,.5a3.07,3.07,0,0,1-.84,1.13,1.74,1.74,0,0,1-1.1.39A1.48,1.48,0,0,1,270,478.05Zm-2.38,9.57h3.82l-1.9-6.39Z"/><path d="M283.34,480.35a4.86,4.86,0,0,1,1.81,2.16,8.28,8.28,0,0,1,.65,3.44,8.17,8.17,0,0,1-.65,3.41,5.09,5.09,0,0,1-7.23,2.19,4.77,4.77,0,0,1-1.81-2.15,9.32,9.32,0,0,1,0-6.84,4.9,4.9,0,0,1,1.82-2.19,4.82,4.82,0,0,1,2.7-.76A5,5,0,0,1,283.34,480.35Zm-5.2,1.86a6.39,6.39,0,0,0-.89,3.76,6.19,6.19,0,0,0,.9,3.73,2.91,2.91,0,0,0,2.48,1.19c2.25,0,3.37-1.64,3.37-4.94s-1.12-4.95-3.37-4.95A2.9,2.9,0,0,0,278.14,482.21Z"/><path d="M367.31,479.9a5.5,5.5,0,0,1,1.54.92l-.93,1.08a3.69,3.69,0,0,0-2.36-.9,3,3,0,0,0-2.46,1.17,8,8,0,0,0,0,7.49,2.94,2.94,0,0,0,2.45,1.2,3.25,3.25,0,0,0,1.37-.27,7.45,7.45,0,0,0,1.24-.75l.84,1.07a4.61,4.61,0,0,1-1.46,1,5,5,0,0,1-2,.39,4.88,4.88,0,0,1-2.66-.74,4.83,4.83,0,0,1-1.81-2.17,8.3,8.3,0,0,1-.65-3.43,8,8,0,0,1,.68-3.44,5,5,0,0,1,1.83-2.16,4.78,4.78,0,0,1,2.57-.73A5.26,5.26,0,0,1,367.31,479.9Z"/><path d="M377.64,492.06l-.93-3.07h-4.63l-.92,3.07h-1.71l3.93-12.23h2.13l3.9,12.23Zm-5.15-4.44h3.82l-1.9-6.39Z"/><path d="M388,480.78a3.32,3.32,0,0,1,1.24,2.83,3.49,3.49,0,0,1-1.29,3,5.56,5.56,0,0,1-3.45,1H383v4.49H381.3V479.83h3.21A5.65,5.65,0,0,1,388,480.78Zm-1.32,4.89a2.39,2.39,0,0,0,.77-2,2.24,2.24,0,0,0-.77-1.9,3.63,3.63,0,0,0-2.21-.59H383v5.1h1.47A3.78,3.78,0,0,0,386.71,485.67Z"/><path d="M397.07,492.06l-.92-3.07h-4.64l-.92,3.07h-1.71l3.93-12.23h2.13l3.91,12.23Zm-5.15-4.44h3.82l-1.9-6.39Z"/><path d="M406.69,479.9a5.5,5.5,0,0,1,1.54.92l-.93,1.08a3.69,3.69,0,0,0-2.36-.9,3,3,0,0,0-2.46,1.17,8,8,0,0,0,0,7.49,2.94,2.94,0,0,0,2.45,1.2,3.25,3.25,0,0,0,1.37-.27,7.45,7.45,0,0,0,1.24-.75l.84,1.07a4.61,4.61,0,0,1-1.46,1,5,5,0,0,1-2,.39,4.88,4.88,0,0,1-2.66-.74,4.83,4.83,0,0,1-1.81-2.17,8.3,8.3,0,0,1-.65-3.43,8,8,0,0,1,.68-3.44,5,5,0,0,1,1.83-2.16,4.78,4.78,0,0,1,2.57-.73A5.26,5.26,0,0,1,406.69,479.9Z"/><path d="M412.19,479.83v12.23H410.5V479.83Z"/><path d="M422.75,481.11q1.68,1.29,1.68,4.77c0,2.27-.56,3.86-1.68,4.79a6.17,6.17,0,0,1-4.08,1.39h-2.93V479.83h2.56A7.17,7.17,0,0,1,422.75,481.11Zm-5.32.07v9.55h1.36a3.79,3.79,0,0,0,2.78-1.05c.71-.69,1.06-2,1.06-3.8a6.41,6.41,0,0,0-.55-3,2.85,2.85,0,0,0-1.4-1.39,5.36,5.36,0,0,0-2-.34Z"/><path d="M433.52,492.06,432.6,489H428l-.92,3.07h-1.71l3.93-12.23h2.13l3.91,12.23Zm-5.15-4.44h3.82l-1.9-6.39Z"/><path d="M444.19,481.11q1.68,1.29,1.68,4.77c0,2.27-.56,3.86-1.68,4.79a6.17,6.17,0,0,1-4.08,1.39h-2.93V479.83h2.56A7.19,7.19,0,0,1,444.19,481.11Zm-5.32.07v9.55h1.36a3.81,3.81,0,0,0,2.78-1.05c.71-.69,1.06-2,1.06-3.8a6.41,6.41,0,0,0-.55-3,2.85,2.85,0,0,0-1.4-1.39,5.36,5.36,0,0,0-2-.34Z"/><path d="M455.24,479.83l-.19,1.35h-4.74v4h4.12v1.35h-4.12v4.19h5.08v1.35h-6.77V479.83Z"/><path d="M527.17,479.9a5.36,5.36,0,0,1,1.54.92l-.92,1.08a3.73,3.73,0,0,0-2.36-.9,3,3,0,0,0-2.47,1.17,8,8,0,0,0,0,7.49,2.93,2.93,0,0,0,2.45,1.2,3.28,3.28,0,0,0,1.37-.27,7.45,7.45,0,0,0,1.24-.75l.83,1.07a4.57,4.57,0,0,1-1.45,1,5.1,5.1,0,0,1-2,.39,4.85,4.85,0,0,1-2.65-.74,4.77,4.77,0,0,1-1.81-2.17,8.3,8.3,0,0,1-.65-3.43,8,8,0,0,1,.67-3.44,5,5,0,0,1,1.83-2.16,4.79,4.79,0,0,1,2.58-.73A5.24,5.24,0,0,1,527.17,479.9Z"/><path d="M537.71,480.35a4.86,4.86,0,0,1,1.81,2.16,8.28,8.28,0,0,1,.65,3.44,8.17,8.17,0,0,1-.65,3.41,5.09,5.09,0,0,1-7.23,2.19,4.77,4.77,0,0,1-1.81-2.15,9.32,9.32,0,0,1,0-6.84,4.9,4.9,0,0,1,1.82-2.19,4.82,4.82,0,0,1,2.7-.76A5,5,0,0,1,537.71,480.35Zm-5.2,1.86a6.39,6.39,0,0,0-.89,3.76,6.19,6.19,0,0,0,.9,3.73,2.92,2.92,0,0,0,2.48,1.19c2.25,0,3.37-1.64,3.37-4.94S537.25,481,535,481A2.9,2.9,0,0,0,532.51,482.21Z"/><path d="M551.5,492.06h-2.25l-5-10.39c.07.82.13,1.58.17,2.27s.06,1.53.06,2.51v5.61h-1.58V479.83h2.2l5,10.41c0-.31-.08-.85-.14-1.62s-.09-1.48-.09-2.11v-6.68h1.58Z"/><path d="M560.17,480a5.9,5.9,0,0,1,1.69,1.07l-.93,1a5.25,5.25,0,0,0-1.36-.8,3.75,3.75,0,0,0-1.43-.26,2.7,2.7,0,0,0-1.58.44,1.51,1.51,0,0,0-.62,1.3,1.72,1.72,0,0,0,.22.9,1.86,1.86,0,0,0,.79.66,9.83,9.83,0,0,0,1.67.64,10.61,10.61,0,0,1,1.92.77,3.34,3.34,0,0,1,1.24,1.12,3.3,3.3,0,0,1,.47,1.82,3.45,3.45,0,0,1-.53,1.89,3.54,3.54,0,0,1-1.51,1.28,5.53,5.53,0,0,1-2.33.46,5.71,5.71,0,0,1-4.16-1.58l.93-1a6,6,0,0,0,1.51.91,4.37,4.37,0,0,0,1.7.31,3,3,0,0,0,1.88-.56,1.89,1.89,0,0,0,.75-1.62,2,2,0,0,0-.23-1,2.24,2.24,0,0,0-.79-.72,9,9,0,0,0-1.63-.64,7.09,7.09,0,0,1-2.75-1.36,3.09,3.09,0,0,1-.38-3.82,3.16,3.16,0,0,1,1.37-1.14,4.69,4.69,0,0,1,2-.41A5.7,5.7,0,0,1,560.17,480Z"/><path d="M573.12,488.14a4.42,4.42,0,0,1-.51,2.16,3.6,3.6,0,0,1-1.47,1.45,4.82,4.82,0,0,1-2.32.53,4.23,4.23,0,0,1-3.15-1.13,4.11,4.11,0,0,1-1.11-3v-8.31h1.68V488a3.16,3.16,0,0,0,.64,2.14,3,3,0,0,0,3.89,0,3.06,3.06,0,0,0,.64-2.14v-8.18h1.71Z"/><path d="M587.43,492.06H585.8l-.43-5.52c-.17-2.17-.27-3.83-.3-5l-2.64,9.13h-1.59l-2.78-9.15c0,1.48-.08,3.19-.23,5.13l-.41,5.4h-1.6l1-12.23h2.27l2.58,8.9,2.45-8.9h2.29Z"/><path d="M597.21,480.35a4.88,4.88,0,0,1,1.82,2.16,8.29,8.29,0,0,1,.64,3.44,8.17,8.17,0,0,1-.64,3.41,5,5,0,0,1-1.82,2.17,4.86,4.86,0,0,1-2.71.75,4.92,4.92,0,0,1-2.7-.73A4.85,4.85,0,0,1,590,489.4a9.46,9.46,0,0,1,0-6.84,4.92,4.92,0,0,1,1.83-2.19,4.81,4.81,0,0,1,2.69-.76A4.93,4.93,0,0,1,597.21,480.35ZM592,482.21a6.39,6.39,0,0,0-.89,3.76,6.19,6.19,0,0,0,.9,3.73,2.89,2.89,0,0,0,2.47,1.19c2.25,0,3.38-1.64,3.38-4.94S596.75,481,594.5,481A2.89,2.89,0,0,0,592,482.21Z"/><rect x="104.53" y="105.87" width="578.77" height="0.5" style="fill:#1d1d1b"/><rect x="104.53" y="423.59" width="578.77" height="0.5" style="fill:#1d1d1b"/><path d="M96.3,416.2a9.05,9.05,0,0,1,0,7.66,3,3,0,0,1-5,0,9.15,9.15,0,0,1,0-7.66,3,3,0,0,1,5,0Zm-3.93.73a7.53,7.53,0,0,0-.47,3.1,7.61,7.61,0,0,0,.47,3.11,1.52,1.52,0,0,0,1.44,1,1.53,1.53,0,0,0,1.43-1,7.44,7.44,0,0,0,.47-3.11,7.37,7.37,0,0,0-.47-3.09,1.55,1.55,0,0,0-2.87,0Z" style="fill:#1d1d1b"/><rect x="683.39" y="106.13" width="0.5" height="322.82" style="fill:#1d1d1b"/></g></g></svg>