<svg xmlns="http://www.w3.org/2000/svg" viewBox="0 0 730 407.97"><title>fig-7-5</title><g id="fig-7-5"><path d="M667.84,18.7H61.16V140.62H667.84c26,0,47.06-27.29,47.06-61s-21.07-61-47.06-61" style="fill:#ffcfc5"/><path id="preto" d="M667.84,141.62H60.16V17.69H667.84c26.5,0,48.06,27.8,48.06,62S694.34,141.62,667.84,141.62Zm-605.68-2H667.84c25.4,0,46.06-26.9,46.06-60s-20.66-60-46.06-60H62.16Z" style="fill:#1d1d1b"/><path d="M362.67,19.63H59.86l-.41,121.92H362.67c25.29,0,45.8-27.29,45.8-61s-20.51-61-45.8-61" style="fill:#c4b0f4"/><path id="preto" data-name="preto" d="M362.67,141.12H59v-.5l.41-122.43H362.67c25.53,0,46.3,27.58,46.3,61.47S388.2,141.12,362.67,141.12ZM60,140.12H362.67c25,0,45.3-27.12,45.3-60.46s-20.32-60.47-45.3-60.47H60.36Z" style="fill:#1d1d1b"/><path d="M108.22,79.66c0,33.67-21.07,61-47.06,61s-47.06-27.29-47.06-61,21.07-61,47.06-61,47.06,27.3,47.06,61" style="fill:#c4b0f4"/><g id="preto" data-name="preto"><path d="M61.16,141.62c-26.5,0-48.06-27.79-48.06-62s21.56-62,48.06-62,48.06,27.8,48.06,62S87.66,141.62,61.16,141.62Zm0-121.93c-25.4,0-46.06,26.9-46.06,60s20.66,60,46.06,60,46.06-26.9,46.06-60S86.55,19.69,61.16,19.69Z" style="fill:#1d1d1b"/><path d="M361.41,141.12v-1C387.08,140.12,408,113,408,79.66s-20.89-60.47-46.56-60.47v-1c26.22,0,47.56,27.58,47.56,61.47S387.63,141.12,361.41,141.12ZM61.15,130.19c-19.8,0-35.91-21.7-35.91-48.36S41.35,33.46,61.15,33.46s35.92,21.7,35.92,48.37S81,130.19,61.15,130.19Zm0-95.73c-19.25,0-34.91,21.25-34.91,47.37s15.66,47.36,34.91,47.36,34.92-21.25,34.92-47.36S80.41,34.46,61.15,34.46Zm0,78.85c-13,0-23.64-14.13-23.64-31.51S48.12,50.28,61.15,50.28,84.8,64.42,84.8,81.8,74.19,113.31,61.15,113.31Zm0-62C48.67,51.28,38.51,65,38.51,81.8s10.16,30.51,22.64,30.51S83.8,98.62,83.8,81.8,73.64,51.28,61.15,51.28Z" style="fill:#1d1d1b"/></g><path d="M204.25,72.31V85.83h6.32l-.25,1.85h-8.19V72.31Z"/><path d="M215.19,70.68a1.33,1.33,0,0,1,.4,1,1.31,1.31,0,0,1-.4,1,1.45,1.45,0,0,1-1.05.39,1.42,1.42,0,0,1-1-.39,1.31,1.31,0,0,1-.4-1,1.33,1.33,0,0,1,.4-1,1.39,1.39,0,0,1,1-.41A1.42,1.42,0,0,1,215.19,70.68Zm0,5.24V87.68h-2.05V75.92Z"/><path d="M228.92,76.46a6.58,6.58,0,0,1-1.48.29c-.53,0-1.19.06-2,.06a3.12,3.12,0,0,1,2.08,3,3.75,3.75,0,0,1-1.21,2.88,4.61,4.61,0,0,1-3.28,1.12,5.13,5.13,0,0,1-1.5-.22,1.13,1.13,0,0,0-.42.47,1.3,1.3,0,0,0-.16.62c0,.64.52,1,1.54,1h1.88a5,5,0,0,1,2.1.42,3.4,3.4,0,0,1,1.41,1.16,2.88,2.88,0,0,1,.51,1.68A3,3,0,0,1,227,91.51a7.49,7.49,0,0,1-4.11.93,9.32,9.32,0,0,1-3-.39,2.82,2.82,0,0,1-1.57-1.17,3.79,3.79,0,0,1-.47-2h1.85A2.08,2.08,0,0,0,220,90a1.7,1.7,0,0,0,1,.62,7.06,7.06,0,0,0,2,.21,5.55,5.55,0,0,0,2.65-.46,1.47,1.47,0,0,0,.79-1.37,1.41,1.41,0,0,0-.63-1.25,3.06,3.06,0,0,0-1.74-.42h-1.85a3.47,3.47,0,0,1-2.27-.64,2,2,0,0,1-.76-1.59,2.11,2.11,0,0,1,.33-1.12,3.13,3.13,0,0,1,1-1,3.36,3.36,0,0,1-2-3.26,3.91,3.91,0,0,1,.59-2.12,4,4,0,0,1,1.63-1.46,5.1,5.1,0,0,1,2.31-.53,16,16,0,0,0,2.33-.1,8.13,8.13,0,0,0,1.55-.33c.41-.14.91-.35,1.5-.62Zm-7.78,1.39a3.18,3.18,0,0,0,0,3.84,2.3,2.3,0,0,0,1.83.73,2.35,2.35,0,0,0,1.84-.71,2.85,2.85,0,0,0,.64-2c0-1.74-.84-2.61-2.53-2.61A2.26,2.26,0,0,0,221.14,77.85Z"/><path d="M239.08,76.61a3.67,3.67,0,0,1,.91,2.64v8.43h-2.05V79.54a2.64,2.64,0,0,0-.47-1.77,1.81,1.81,0,0,0-1.39-.51,2.68,2.68,0,0,0-1.65.54,5.46,5.46,0,0,0-1.34,1.54v8.34H231V75.92h1.76l.18,1.74a4.72,4.72,0,0,1,1.55-1.47,4,4,0,0,1,2-.54A3.28,3.28,0,0,1,239.08,76.61Z"/><path d="M246.17,70.68a1.33,1.33,0,0,1,.4,1,1.31,1.31,0,0,1-.4,1,1.45,1.45,0,0,1-1,.39,1.4,1.4,0,0,1-1-.39,1.32,1.32,0,0,1-.41-1,1.34,1.34,0,0,1,.41-1,1.37,1.37,0,0,1,1-.41A1.42,1.42,0,0,1,246.17,70.68Zm0,5.24V87.68h-2V75.92Z"/><path d="M258.46,76.61a3.71,3.71,0,0,1,.9,2.64v8.43h-2.05V79.54a2.64,2.64,0,0,0-.47-1.77,1.77,1.77,0,0,0-1.38-.51,2.64,2.64,0,0,0-1.65.54,5.31,5.31,0,0,0-1.34,1.54v8.34h-2.06V75.92h1.77l.18,1.74a4.63,4.63,0,0,1,1.55-1.47,3.94,3.94,0,0,1,2-.54A3.28,3.28,0,0,1,258.46,76.61Z"/><path d="M271.66,86a1.53,1.53,0,0,0,.74.52L271.93,88a3,3,0,0,1-1.47-.51,2.36,2.36,0,0,1-.83-1.25,4,4,0,0,1-3.5,1.76,3.75,3.75,0,0,1-2.75-1,3.42,3.42,0,0,1-1-2.57,3.37,3.37,0,0,1,1.35-2.88,6.31,6.31,0,0,1,3.83-1h1.8v-.87a2.31,2.31,0,0,0-.6-1.79,2.76,2.76,0,0,0-1.85-.53,10.56,10.56,0,0,0-3.17.62l-.51-1.49a11.71,11.71,0,0,1,4.06-.81,4.23,4.23,0,0,1,3.1,1,3.87,3.87,0,0,1,1,2.89v5.38A1.87,1.87,0,0,0,271.66,86Zm-2.3-1.42v-2.7h-1.54c-2.17,0-3.25.8-3.25,2.41a2.23,2.23,0,0,0,.51,1.59,2,2,0,0,0,1.52.53A3.06,3.06,0,0,0,269.36,84.58Z"/><path d="M492.48,72.39a6.92,6.92,0,0,1,1.93,1.17l-1.16,1.36a4.66,4.66,0,0,0-3-1.14,3.76,3.76,0,0,0-3.09,1.47A7.62,7.62,0,0,0,486,80a7.6,7.6,0,0,0,1.16,4.68,3.7,3.7,0,0,0,3.08,1.51,4,4,0,0,0,1.72-.34,8.38,8.38,0,0,0,1.56-.94l1,1.34a5.87,5.87,0,0,1-1.83,1.23,6.3,6.3,0,0,1-2.57.49,6.18,6.18,0,0,1-3.34-.92,6.11,6.11,0,0,1-2.27-2.73,10.28,10.28,0,0,1-.82-4.32,10,10,0,0,1,.85-4.32,6.31,6.31,0,0,1,2.3-2.71,6,6,0,0,1,3.24-.91A6.85,6.85,0,0,1,492.48,72.39Z"/><path d="M505.33,86a1.45,1.45,0,0,0,.73.52L505.59,88a3,3,0,0,1-1.47-.51,2.36,2.36,0,0,1-.83-1.25,3.94,3.94,0,0,1-3.5,1.76A3.75,3.75,0,0,1,497,87a3.42,3.42,0,0,1-1-2.57,3.37,3.37,0,0,1,1.35-2.88,6.33,6.33,0,0,1,3.83-1H503v-.87a2.32,2.32,0,0,0-.61-1.79,2.76,2.76,0,0,0-1.85-.53,10.56,10.56,0,0,0-3.17.62l-.51-1.49a11.75,11.75,0,0,1,4.06-.81,4.23,4.23,0,0,1,3.1,1,3.87,3.87,0,0,1,1,2.89v5.38A1.78,1.78,0,0,0,505.33,86ZM503,84.58v-2.7h-1.54c-2.18,0-3.26.8-3.26,2.41a2.23,2.23,0,0,0,.51,1.59,2,2,0,0,0,1.52.53A3.07,3.07,0,0,0,503,84.58Z"/><path d="M515.57,75.79l-.38,2a4.23,4.23,0,0,0-1-.14,2.19,2.19,0,0,0-1.77.81,6.12,6.12,0,0,0-1,2.5v6.71H509.3V75.92h1.76l.2,2.39a4.52,4.52,0,0,1,1.28-2,2.86,2.86,0,0,1,1.87-.67A4.73,4.73,0,0,1,515.57,75.79Z"/><path d="M526.49,77.27a7.54,7.54,0,0,1,1.18,4.52,8.71,8.71,0,0,1-.56,3.23,4.78,4.78,0,0,1-1.61,2.16,4,4,0,0,1-2.45.77,3.9,3.9,0,0,1-3.13-1.56l-.2,1.29h-1.8V71.19l2.05-.25v6.45a3.94,3.94,0,0,1,3.32-1.74A3.77,3.77,0,0,1,526.49,77.27Zm-1.8,8a6.11,6.11,0,0,0,.77-3.43,6.44,6.44,0,0,0-.71-3.45,2.34,2.34,0,0,0-2-1.06A3.32,3.32,0,0,0,520,79.11v5.63a3.54,3.54,0,0,0,1.15,1.16,2.68,2.68,0,0,0,1.44.42A2.46,2.46,0,0,0,524.69,85.22Z"/><path d="M539.44,77.31a6.76,6.76,0,0,1,1.38,4.48,7.79,7.79,0,0,1-.63,3.23,4.87,4.87,0,0,1-1.8,2.16,5,5,0,0,1-2.82.77,4.76,4.76,0,0,1-3.86-1.65,6.79,6.79,0,0,1-1.38-4.49,7.74,7.74,0,0,1,.62-3.22,5,5,0,0,1,1.81-2.17,5.1,5.1,0,0,1,2.83-.77A4.69,4.69,0,0,1,539.44,77.31Zm-6.9,4.5c0,3,1,4.49,3,4.49s3-1.5,3-4.51-1-4.48-3-4.48S532.54,78.81,532.54,81.81Z"/><path d="M552.26,76.61a3.71,3.71,0,0,1,.9,2.64v8.43h-2V79.54a2.59,2.59,0,0,0-.48-1.77,1.84,1.84,0,0,0-1.4-.51,2.64,2.64,0,0,0-1.63.54,5.76,5.76,0,0,0-1.34,1.51v8.37h-2V71.21l2-.22v6.56a4.2,4.2,0,0,1,3.49-1.9A3.28,3.28,0,0,1,552.26,76.61Z"/><path d="M559.35,70.68a1.37,1.37,0,0,1,.4,1,1.35,1.35,0,0,1-.4,1,1.45,1.45,0,0,1-1.05.39,1.42,1.42,0,0,1-1-.39,1.31,1.31,0,0,1-.4-1,1.33,1.33,0,0,1,.4-1,1.39,1.39,0,0,1,1-.41A1.42,1.42,0,0,1,559.35,70.68Zm0,5.24V87.68h-2.06V75.92Z"/><path d="M572.69,71.19V87.68h-1.8l-.2-1.62a4.21,4.21,0,0,1-1.46,1.39,3.74,3.74,0,0,1-1.94.5A3.78,3.78,0,0,1,564,86.3a7.54,7.54,0,0,1-1.17-4.44,8.73,8.73,0,0,1,.56-3.22A4.93,4.93,0,0,1,565,76.45a3.94,3.94,0,0,1,2.45-.8,4.24,4.24,0,0,1,3.17,1.45V70.94Zm-3.34,14.7a5.18,5.18,0,0,0,1.29-1.31V78.82a4.57,4.57,0,0,0-1.24-1.15,2.85,2.85,0,0,0-1.48-.39,2.38,2.38,0,0,0-2.11,1.14,6.22,6.22,0,0,0-.75,3.39,6.62,6.62,0,0,0,.69,3.4,2.22,2.22,0,0,0,2,1.11A2.91,2.91,0,0,0,569.35,85.89Z"/><path d="M583.21,75.79l-.38,2a4.24,4.24,0,0,0-1-.14,2.16,2.16,0,0,0-1.76.81,5.86,5.86,0,0,0-1,2.5v6.71h-2V75.92h1.76l.2,2.39a4.51,4.51,0,0,1,1.27-2,2.88,2.88,0,0,1,1.88-.67A4.79,4.79,0,0,1,583.21,75.79Z"/><path d="M593.72,86a1.53,1.53,0,0,0,.74.52L594,88a3,3,0,0,1-1.47-.51,2.31,2.31,0,0,1-.83-1.25,4,4,0,0,1-3.5,1.76,3.73,3.73,0,0,1-2.75-1,3.42,3.42,0,0,1-1-2.57,3.37,3.37,0,0,1,1.35-2.88,6.29,6.29,0,0,1,3.82-1h1.81v-.87a2.31,2.31,0,0,0-.6-1.79,2.76,2.76,0,0,0-1.85-.53,10.5,10.5,0,0,0-3.17.62l-.52-1.49a11.8,11.8,0,0,1,4.07-.81,4.23,4.23,0,0,1,3.1,1,3.91,3.91,0,0,1,1,2.89v5.38A1.87,1.87,0,0,0,593.72,86Zm-2.3-1.42v-2.7h-1.54c-2.17,0-3.26.8-3.26,2.41a2.19,2.19,0,0,0,.52,1.59,2,2,0,0,0,1.51.53A3.06,3.06,0,0,0,591.42,84.58Z"/><path d="M603.63,87.15A4.54,4.54,0,0,1,601,88a3.06,3.06,0,0,1-2.33-.86,3.41,3.41,0,0,1-.84-2.49V77.51h-2.05V75.92h2.05V73.26l2-.24v2.9h2.79l-.22,1.59h-2.57v7a2.11,2.11,0,0,0,.33,1.33,1.27,1.27,0,0,0,1.08.42,3.39,3.39,0,0,0,1.56-.47Z"/><path d="M614,77.31a6.76,6.76,0,0,1,1.38,4.48,7.79,7.79,0,0,1-.63,3.23A4.82,4.82,0,0,1,613,87.18a5,5,0,0,1-2.81.77,4.76,4.76,0,0,1-3.86-1.65,6.79,6.79,0,0,1-1.38-4.49,7.74,7.74,0,0,1,.62-3.22,5,5,0,0,1,1.81-2.17,5.1,5.1,0,0,1,2.83-.77A4.69,4.69,0,0,1,614,77.31Zm-6.9,4.5c0,3,1,4.49,3,4.49s3-1.5,3-4.51-1-4.48-3-4.48S607.12,78.81,607.12,81.81Z"/><path d="M624.15,76A6.57,6.57,0,0,1,626,77l-.87,1.3a6.78,6.78,0,0,0-1.53-.76,4.63,4.63,0,0,0-1.53-.25,2.68,2.68,0,0,0-1.59.42,1.39,1.39,0,0,0,0,2.24,6.24,6.24,0,0,0,2,.78,7,7,0,0,1,2.93,1.34,2.92,2.92,0,0,1,1,2.32A3,3,0,0,1,625,87a5.73,5.73,0,0,1-3.29.91,6.47,6.47,0,0,1-4.44-1.54l1.09-1.25a5.33,5.33,0,0,0,3.3,1.14,3.17,3.17,0,0,0,1.85-.48,1.52,1.52,0,0,0,.68-1.31,1.68,1.68,0,0,0-.25-1,1.92,1.92,0,0,0-.85-.64,10.43,10.43,0,0,0-1.76-.59A6.05,6.05,0,0,1,618.58,81a2.82,2.82,0,0,1-.84-2.1,2.69,2.69,0,0,1,.55-1.66,3.46,3.46,0,0,1,1.52-1.16,5.38,5.38,0,0,1,2.17-.42A6.38,6.38,0,0,1,624.15,76Z"/><g id="preto" data-name="preto"><path d="M675,359.76H606.67V317H675Zm-66.9-1.43h65.47V318.4H608.09Zm-21.94,1.43H441.32V317H586.15Zm-143.4-1.43h142V318.4h-142Z" style="fill:#1d1d1b"/><rect x="383.16" y="201.19" width="6.93" height="1.55" style="fill:#1d1d1b"/><rect x="383.16" y="249.24" width="6.93" height="1.55" style="fill:#1d1d1b"/><path d="M327.47,368.79h-1.42v-9.27H225.17l11.21-8.8L232,338l.55-.28c11.81-6,12.4-6,12.6-6,.51-.11,5.22-2.22,9.38-4.17l5.76-5-7.65-5.3h122.2v42.31H327.47ZM229.29,358.1H373.42V318.64H257.21l5.4,3.74-7.38,6.41c-5.84,2.73-9.19,4.19-10,4.34h0c-.72.18-7.21,3.41-11.5,5.59l4.29,12.49Zm-44,1.42H71.7V317.21H213l7.46,5.17-7.38,6.41c-5.84,2.73-9.19,4.19-10,4.34h0c-.72.18-7.21,3.41-11.5,5.59l4.29,12.49ZM73.13,358.1H184.82l9.4-7.38L189.85,338l.55-.28c11.81-6,12.4-6,12.6-6,.51-.11,5.22-2.22,9.38-4.17l5.76-5-5.59-3.87H73.13Z" style="fill:#1d1d1b"/><polygon points="406.35 338.74 401.85 338.74 401.85 337.35 406.35 337.35 406.35 332.88 407.9 332.88 407.9 337.35 412.39 337.35 412.39 338.74 407.9 338.74 407.9 343.6 406.35 343.6 406.35 338.74" style="fill:#1d1d1b"/><path d="M396.91,247.1l-.8-1.18,146.23-98.76.79,1.18Zm-55.65,0L195,148.34l.8-1.18,146.22,98.76Zm55.62-51.68-.73-1.22,78.43-47.06.73,1.22Zm-55.58,0-78.44-47.06.74-1.22L342,194.2Z" style="fill:#1d1d1b"/><path d="M362,193.93a6.11,6.11,0,0,1,2.27,2.71,10.34,10.34,0,0,1,.82,4.34,10.15,10.15,0,0,1-.82,4.28,5.93,5.93,0,0,1-5.68,3.66,6.26,6.26,0,0,1-3.4-.91,6,6,0,0,1-2.28-2.7,11.82,11.82,0,0,1,0-8.6,6.26,6.26,0,0,1,2.29-2.75,6.05,6.05,0,0,1,3.39-1A6.31,6.31,0,0,1,362,193.93Zm-6.53,2.34a8,8,0,0,0-1.12,4.73,7.84,7.84,0,0,0,1.13,4.69,3.69,3.69,0,0,0,3.11,1.49q4.25,0,4.24-6.2c0-4.16-1.41-6.23-4.24-6.23A3.62,3.62,0,0,0,355.46,196.27Z"/><path d="M377.13,208.65v-7.21h-6.47v7.21h-2.12V193.27h2.12v6.43h6.47v-6.43h2.12v15.38Z"/><path d="M362,241.48a7.27,7.27,0,0,1,2.12,1.35l-1.16,1.3a6.76,6.76,0,0,0-1.71-1,5.09,5.09,0,0,0-1.8-.32,3.33,3.33,0,0,0-2,.56,1.85,1.85,0,0,0-.78,1.63,2.16,2.16,0,0,0,.26,1.12,2.33,2.33,0,0,0,1,.84,13.48,13.48,0,0,0,2.11.81,12.83,12.83,0,0,1,2.41,1,4.2,4.2,0,0,1,1.55,1.41,4.14,4.14,0,0,1,.59,2.29,4.31,4.31,0,0,1-.66,2.37,4.36,4.36,0,0,1-1.9,1.6,6.78,6.78,0,0,1-2.93.58,7.19,7.19,0,0,1-5.23-2l1.17-1.3a7.32,7.32,0,0,0,1.89,1.15,5.68,5.68,0,0,0,2.15.39,3.8,3.8,0,0,0,2.36-.7,2.39,2.39,0,0,0,.94-2,2.5,2.5,0,0,0-.29-1.26,2.6,2.6,0,0,0-1-.91,10.16,10.16,0,0,0-2.05-.8,9.1,9.1,0,0,1-3.46-1.72,3.51,3.51,0,0,1-1.09-2.72,3.63,3.63,0,0,1,.61-2.08,4.12,4.12,0,0,1,1.72-1.43,6,6,0,0,1,2.51-.51A7.16,7.16,0,0,1,362,241.48Z"/><path d="M376.37,256.7v-7.21H369.9v7.21h-2.13V241.32h2.13v6.43h6.47v-6.43h2.12V256.7Z"/><path d="M228.73,288.78a7.4,7.4,0,0,1,2.12,1.35l-1.16,1.3a6.76,6.76,0,0,0-1.71-1,4.87,4.87,0,0,0-1.8-.32,3.36,3.36,0,0,0-2,.55,1.89,1.89,0,0,0-.78,1.63,2.17,2.17,0,0,0,.27,1.13,2.36,2.36,0,0,0,1,.84,13.41,13.41,0,0,0,2.11.8,14,14,0,0,1,2.41,1,4.35,4.35,0,0,1,1.56,1.42,4.14,4.14,0,0,1,.59,2.29,4.26,4.26,0,0,1-.66,2.36,4.38,4.38,0,0,1-1.9,1.61,6.81,6.81,0,0,1-2.93.58,7.16,7.16,0,0,1-5.23-2l1.16-1.29a7.53,7.53,0,0,0,1.9,1.15,5.63,5.63,0,0,0,2.14.39,3.85,3.85,0,0,0,2.37-.7,2.42,2.42,0,0,0,.94-2.05,2.55,2.55,0,0,0-.29-1.26,2.7,2.7,0,0,0-1-.9,9.7,9.7,0,0,0-2-.8,9,9,0,0,1-3.46-1.72,3.52,3.52,0,0,1-1.09-2.73,3.62,3.62,0,0,1,.61-2.07,4.06,4.06,0,0,1,1.72-1.43,5.92,5.92,0,0,1,2.51-.51A7.16,7.16,0,0,1,228.73,288.78Z"/><path d="M243.06,304v-7.21h-6.48V304h-2.12V288.61h2.12V295h6.48v-6.43h2.12V304Z"/><path d="M198.31,372.68a7.27,7.27,0,0,1,2.12,1.35l-1.16,1.3a6.76,6.76,0,0,0-1.71-1,5.09,5.09,0,0,0-1.8-.32,3.27,3.27,0,0,0-2,.56,1.85,1.85,0,0,0-.79,1.63,2.16,2.16,0,0,0,.27,1.12,2.33,2.33,0,0,0,1,.84,12.85,12.85,0,0,0,2.1.8,14.15,14.15,0,0,1,2.42,1,4.32,4.32,0,0,1,1.55,1.42,4.14,4.14,0,0,1,.59,2.29,4.26,4.26,0,0,1-.66,2.36,4.32,4.32,0,0,1-1.9,1.61,6.78,6.78,0,0,1-2.93.58,7.19,7.19,0,0,1-5.23-2l1.16-1.3a7.53,7.53,0,0,0,1.9,1.15,5.66,5.66,0,0,0,2.14.39,3.81,3.81,0,0,0,2.37-.7,2.39,2.39,0,0,0,.94-2,2.5,2.5,0,0,0-.29-1.26,2.6,2.6,0,0,0-1-.91,9.6,9.6,0,0,0-2.05-.8,9.1,9.1,0,0,1-3.46-1.72,3.52,3.52,0,0,1-1.09-2.73,3.62,3.62,0,0,1,.61-2.07,4.12,4.12,0,0,1,1.72-1.43,6,6,0,0,1,2.51-.51A7.16,7.16,0,0,1,198.31,372.68Z"/><path d="M212.64,387.89v-7.21h-6.48v7.21H204V372.51h2.12v6.43h6.48v-6.43h2.12v15.38Z"/><path d="M322.27,372.68a7.4,7.4,0,0,1,2.12,1.35l-1.16,1.3a6.76,6.76,0,0,0-1.71-1,5.09,5.09,0,0,0-1.8-.32,3.32,3.32,0,0,0-2,.56,1.87,1.87,0,0,0-.78,1.63,2.16,2.16,0,0,0,.27,1.12,2.36,2.36,0,0,0,1,.84,13.41,13.41,0,0,0,2.11.8,13.69,13.69,0,0,1,2.41,1,4.35,4.35,0,0,1,1.56,1.42,4.14,4.14,0,0,1,.59,2.29,4.26,4.26,0,0,1-.66,2.36,4.32,4.32,0,0,1-1.9,1.61,6.78,6.78,0,0,1-2.93.58,7.19,7.19,0,0,1-5.23-2l1.16-1.3a7.53,7.53,0,0,0,1.9,1.15,5.63,5.63,0,0,0,2.14.39,3.81,3.81,0,0,0,2.37-.7,2.39,2.39,0,0,0,.94-2,2.5,2.5,0,0,0-.29-1.26,2.64,2.64,0,0,0-1-.91,9.48,9.48,0,0,0-2-.8,9,9,0,0,1-3.46-1.72,3.52,3.52,0,0,1-1.09-2.73,3.62,3.62,0,0,1,.61-2.07,4.06,4.06,0,0,1,1.72-1.43,5.92,5.92,0,0,1,2.51-.51A7.16,7.16,0,0,1,322.27,372.68Z"/><path d="M336.6,387.89v-7.21h-6.48v7.21H328V372.51h2.12v6.43h6.48v-6.43h2.12v15.38Z"/><path d="M116.22,330.4v13.53h6.32l-.25,1.85H114.1V330.4Z"/><path d="M127.16,328.77a1.41,1.41,0,0,1,.4,1,1.35,1.35,0,0,1-.4,1,1.45,1.45,0,0,1-1,.39,1.42,1.42,0,0,1-1-.39,1.31,1.31,0,0,1-.4-1,1.37,1.37,0,0,1,.4-1,1.43,1.43,0,0,1,1-.4A1.46,1.46,0,0,1,127.16,328.77Zm0,5.25v11.76H125.1V334Z"/><path d="M140.88,334.56a6.38,6.38,0,0,1-1.47.29c-.53,0-1.19.06-2,.06a3.12,3.12,0,0,1,2.07,3,3.74,3.74,0,0,1-1.2,2.88,4.63,4.63,0,0,1-3.28,1.12,5.13,5.13,0,0,1-1.5-.22,1.1,1.1,0,0,0-.42.48,1.24,1.24,0,0,0-.16.61c0,.64.51,1,1.54,1h1.88a5,5,0,0,1,2.09.42,3.43,3.43,0,0,1,1.42,1.16,2.87,2.87,0,0,1,.5,1.68,3,3,0,0,1-1.4,2.64,7.49,7.49,0,0,1-4.11.93,9.24,9.24,0,0,1-3-.39A2.88,2.88,0,0,1,130.3,349a3.88,3.88,0,0,1-.47-2h1.86a2.08,2.08,0,0,0,.27,1.13,1.63,1.63,0,0,0,1,.62,7.06,7.06,0,0,0,2,.21,5.5,5.5,0,0,0,2.64-.46,1.48,1.48,0,0,0,.8-1.37,1.41,1.41,0,0,0-.63-1.25,3.09,3.09,0,0,0-1.74-.42H134.1a3.47,3.47,0,0,1-2.27-.64,2,2,0,0,1-.77-1.59,2,2,0,0,1,.34-1.12,3.13,3.13,0,0,1,1-1,3.36,3.36,0,0,1-2-3.26,3.91,3.91,0,0,1,.59-2.12,4,4,0,0,1,1.63-1.46,5,5,0,0,1,2.31-.53,15.81,15.81,0,0,0,2.32-.1,7.8,7.8,0,0,0,1.55-.33c.41-.14.92-.35,1.51-.62ZM133.11,336a3.18,3.18,0,0,0,0,3.84,2.34,2.34,0,0,0,1.83.73,2.37,2.37,0,0,0,1.84-.71,2.83,2.83,0,0,0,.63-2q0-2.61-2.52-2.61A2.26,2.26,0,0,0,133.11,336Z"/><path d="M297.82,334.89a3.67,3.67,0,0,1,.91,2.64V346h-2.06v-8.14a2.63,2.63,0,0,0-.46-1.77,1.81,1.81,0,0,0-1.39-.51,2.73,2.73,0,0,0-1.65.53,5.75,5.75,0,0,0-1.34,1.54V346h-2.05V334.2h1.76l.18,1.74a4.62,4.62,0,0,1,1.55-1.47,4,4,0,0,1,2-.54A3.28,3.28,0,0,1,297.82,334.89Z"/><path d="M304.91,329a1.37,1.37,0,0,1,.4,1,1.31,1.31,0,0,1-.4,1,1.45,1.45,0,0,1-1.05.39,1.38,1.38,0,0,1-1-.39,1.32,1.32,0,0,1-.41-1,1.38,1.38,0,0,1,1.43-1.41A1.46,1.46,0,0,1,304.91,329Zm0,5.25V346h-2.05V334.2Z"/><path d="M317.2,334.89a3.71,3.71,0,0,1,.9,2.64V346h-2.05v-8.14a2.63,2.63,0,0,0-.47-1.77,1.77,1.77,0,0,0-1.38-.51,2.69,2.69,0,0,0-1.65.53,5.58,5.58,0,0,0-1.34,1.54V346h-2.06V334.2h1.77l.17,1.74a4.65,4.65,0,0,1,1.56-1.47,3.94,3.94,0,0,1,2-.54A3.28,3.28,0,0,1,317.2,334.89Z"/><path d="M330.4,344.28a1.53,1.53,0,0,0,.74.52l-.47,1.43a3,3,0,0,1-1.47-.51,2.4,2.4,0,0,1-.83-1.25,4,4,0,0,1-3.5,1.76,3.79,3.79,0,0,1-2.75-1,3.44,3.44,0,0,1-1-2.57,3.37,3.37,0,0,1,1.35-2.88,6.31,6.31,0,0,1,3.83-1h1.8v-.87a2.3,2.3,0,0,0-.6-1.79,2.71,2.71,0,0,0-1.85-.53,10.26,10.26,0,0,0-3.17.62l-.51-1.49a11.71,11.71,0,0,1,4.06-.81,4.23,4.23,0,0,1,3.1,1,3.85,3.85,0,0,1,1,2.89v5.38A1.89,1.89,0,0,0,330.4,344.28Zm-2.3-1.42v-2.7h-1.54c-2.17,0-3.25.8-3.25,2.41a2.23,2.23,0,0,0,.51,1.59,2,2,0,0,0,1.52.53A3.06,3.06,0,0,0,328.1,342.86Z"/><path d="M470.56,330.43a6.72,6.72,0,0,1,1.85,1.12l-1.11,1.3a4.45,4.45,0,0,0-2.85-1.09,3.61,3.61,0,0,0-3,1.41,9.68,9.68,0,0,0,0,9,3.54,3.54,0,0,0,2.95,1.44,3.86,3.86,0,0,0,1.65-.32,7.87,7.87,0,0,0,1.49-.9l1,1.29a5.47,5.47,0,0,1-1.75,1.17,6,6,0,0,1-2.46.47,5.62,5.62,0,0,1-5.38-3.49,10,10,0,0,1-.78-4.14,9.67,9.67,0,0,1,.81-4.14,5.92,5.92,0,0,1,2.2-2.6,5.66,5.66,0,0,1,3.1-.88A6.6,6.6,0,0,1,470.56,330.43Z"/><path d="M482.87,343.47a1.41,1.41,0,0,0,.71.5l-.45,1.37a2.91,2.91,0,0,1-1.41-.49,2.19,2.19,0,0,1-.8-1.2,3.76,3.76,0,0,1-3.35,1.69,3.61,3.61,0,0,1-2.64-.94,3.28,3.28,0,0,1-1-2.46,3.21,3.21,0,0,1,1.3-2.76,6,6,0,0,1,3.66-1h1.74v-.83a2.24,2.24,0,0,0-.58-1.72,2.65,2.65,0,0,0-1.78-.51,9.87,9.87,0,0,0-3,.6l-.5-1.43a11.23,11.23,0,0,1,3.9-.77,4.07,4.07,0,0,1,3,1,3.71,3.71,0,0,1,1,2.77v5.16A1.74,1.74,0,0,0,482.87,343.47Zm-2.2-1.36v-2.59h-1.48c-2.08,0-3.12.78-3.12,2.32a2.08,2.08,0,0,0,.49,1.51,1.89,1.89,0,0,0,1.45.52A3,3,0,0,0,480.67,342.11Z"/><path d="M492.69,333.68l-.37,1.93a3.83,3.83,0,0,0-1-.13,2.1,2.1,0,0,0-1.69.77,5.63,5.63,0,0,0-1,2.4v6.44h-2V333.81h1.69l.19,2.29a4.32,4.32,0,0,1,1.22-1.9,2.7,2.7,0,0,1,1.8-.64A4.84,4.84,0,0,1,492.69,333.68Z"/><path d="M503.15,335.11a7.26,7.26,0,0,1,1.13,4.33,8.4,8.4,0,0,1-.53,3.09,4.72,4.72,0,0,1-1.54,2.08,3.89,3.89,0,0,1-2.36.73,3.71,3.71,0,0,1-3-1.49l-.19,1.24h-1.74V329.28l2-.24v6.18a3.79,3.79,0,0,1,3.19-1.66A3.59,3.59,0,0,1,503.15,335.11Zm-1.72,7.61a5.81,5.81,0,0,0,.73-3.28,6.08,6.08,0,0,0-.68-3.31,2.23,2.23,0,0,0-2-1,3.18,3.18,0,0,0-2.63,1.75v5.39a3.68,3.68,0,0,0,1.1,1.12,2.59,2.59,0,0,0,1.38.4A2.36,2.36,0,0,0,501.43,342.72Z"/><path d="M515.57,335.14a6.57,6.57,0,0,1,1.31,4.3,7.47,7.47,0,0,1-.6,3.09,4.73,4.73,0,0,1-1.73,2.08,4.84,4.84,0,0,1-2.69.73,4.57,4.57,0,0,1-3.71-1.58,6.5,6.5,0,0,1-1.32-4.3,7.47,7.47,0,0,1,.6-3.09,4.73,4.73,0,0,1,1.73-2.08,4.89,4.89,0,0,1,2.72-.73A4.52,4.52,0,0,1,515.57,335.14ZM509,339.46q0,4.31,2.91,4.3c1.93,0,2.91-1.44,2.91-4.32s-1-4.3-2.89-4.3S509,336.58,509,339.46Z"/><path d="M527.85,334.48a3.55,3.55,0,0,1,.86,2.52v8.09h-2v-7.81a2.44,2.44,0,0,0-.46-1.69,1.71,1.71,0,0,0-1.33-.49,2.52,2.52,0,0,0-1.56.51,5.46,5.46,0,0,0-1.29,1.45v8h-2V329.3l2-.21v6.29a4,4,0,0,1,3.34-1.82A3.13,3.13,0,0,1,527.85,334.48Z"/><path d="M534.64,328.79a1.39,1.39,0,0,1,0,1.91,1.39,1.39,0,0,1-1,.38,1.35,1.35,0,0,1-1-.38,1.36,1.36,0,0,1,0-1.91,1.32,1.32,0,0,1,1-.39A1.36,1.36,0,0,1,534.64,328.79Zm0,5v11.28h-2V333.81Z"/><path d="M547.43,329.28v15.81H545.7l-.19-1.56a4.13,4.13,0,0,1-1.4,1.33,3.87,3.87,0,0,1-5-1.1A7.2,7.2,0,0,1,538,339.5a8.46,8.46,0,0,1,.53-3.08,4.73,4.73,0,0,1,1.54-2.1,3.79,3.79,0,0,1,2.36-.76,4,4,0,0,1,3,1.39V329Zm-3.21,14.08a4.6,4.6,0,0,0,1.24-1.25v-5.52a4.2,4.2,0,0,0-1.19-1.1,2.69,2.69,0,0,0-1.42-.37,2.28,2.28,0,0,0-2,1.09,6,6,0,0,0-.72,3.25,6.28,6.28,0,0,0,.67,3.25,2.09,2.09,0,0,0,1.9,1.07A2.75,2.75,0,0,0,544.22,343.36Z"/><path d="M557.51,333.68l-.37,1.93a3.83,3.83,0,0,0-1-.13,2.1,2.1,0,0,0-1.69.77,5.63,5.63,0,0,0-1,2.4v6.44h-2V333.81h1.7l.19,2.29a4.23,4.23,0,0,1,1.22-1.9,2.69,2.69,0,0,1,1.79-.64A5,5,0,0,1,557.51,333.68Z"/><path d="M567.58,343.47a1.41,1.41,0,0,0,.71.5l-.45,1.37a2.91,2.91,0,0,1-1.41-.49,2.24,2.24,0,0,1-.8-1.2,3.76,3.76,0,0,1-3.35,1.69,3.57,3.57,0,0,1-2.63-.94,3.25,3.25,0,0,1-1-2.46,3.21,3.21,0,0,1,1.3-2.76,6.05,6.05,0,0,1,3.67-1h1.73v-.83a2.21,2.21,0,0,0-.58-1.72,2.65,2.65,0,0,0-1.78-.51,9.92,9.92,0,0,0-3,.6l-.5-1.43a11.23,11.23,0,0,1,3.9-.77,4.06,4.06,0,0,1,3,1,3.71,3.71,0,0,1,1,2.77v5.16A1.74,1.74,0,0,0,567.58,343.47Zm-2.2-1.36v-2.59H563.9c-2.08,0-3.12.78-3.12,2.32a2.08,2.08,0,0,0,.49,1.51,1.9,1.9,0,0,0,1.46.52A2.94,2.94,0,0,0,565.38,342.11Z"/><path d="M634,345.09a4.34,4.34,0,0,1-2.52.77,3,3,0,0,1-2.24-.83,3.29,3.29,0,0,1-.8-2.38v-6.8h-2v-1.52h2v-2.55l2-.23v2.78h2.67l-.21,1.52h-2.46v6.71a2.08,2.08,0,0,0,.31,1.28,1.23,1.23,0,0,0,1,.39,3.19,3.19,0,0,0,1.5-.45Z"/><path d="M644,335.65a6.52,6.52,0,0,1,1.31,4.3,7.47,7.47,0,0,1-.59,3.09,4.7,4.7,0,0,1-1.74,2.08,4.82,4.82,0,0,1-2.69.74,4.54,4.54,0,0,1-3.7-1.59,6.45,6.45,0,0,1-1.33-4.3,7.47,7.47,0,0,1,.6-3.09,4.72,4.72,0,0,1,1.73-2.07,4.9,4.9,0,0,1,2.72-.74A4.55,4.55,0,0,1,644,335.65ZM637.37,340q0,4.3,2.91,4.3t2.91-4.32c0-2.86-1-4.3-2.89-4.3S637.37,337.09,637.37,340Z"/><path d="M653.69,334.39a6.27,6.27,0,0,1,1.75,1l-.83,1.24a6.78,6.78,0,0,0-1.46-.72,4.53,4.53,0,0,0-1.47-.24,2.54,2.54,0,0,0-1.52.4,1.25,1.25,0,0,0-.56,1.08,1.27,1.27,0,0,0,.53,1.07,6.47,6.47,0,0,0,1.89.75,6.69,6.69,0,0,1,2.81,1.28,2.77,2.77,0,0,1,.94,2.22,2.9,2.9,0,0,1-1.3,2.55,5.51,5.51,0,0,1-3.15.88,6.26,6.26,0,0,1-4.26-1.48l1.05-1.2a5.07,5.07,0,0,0,3.16,1.09,3,3,0,0,0,1.77-.46,1.45,1.45,0,0,0,.65-1.25,1.65,1.65,0,0,0-.24-.93,1.88,1.88,0,0,0-.81-.62,10.82,10.82,0,0,0-1.69-.57,5.73,5.73,0,0,1-2.6-1.26,2.73,2.73,0,0,1-.8-2,2.7,2.7,0,0,1,.52-1.59,3.37,3.37,0,0,1,1.46-1.11,5.19,5.19,0,0,1,2.09-.4A6.34,6.34,0,0,1,653.69,334.39Z"/></g></g></svg>