<svg xmlns="http://www.w3.org/2000/svg" viewBox="0 0 257.49 572.52"><title>fig-2-8-2</title><g id="fig-2-8-2"><line x1="222.66" y1="113.86" x2="222.66" y2="525.08" style="fill:none;stroke:#e55843;stroke-miterlimit:10;stroke-width:3px"/><polygon points="213.94 119.81 222.66 87.28 231.38 119.81 213.94 119.81" style="fill:#e55843"/><polygon points="213.94 519.13 222.66 551.65 231.38 519.13 213.94 519.13" style="fill:#e55843"/><rect x="19.3" y="81.46" width="176.89" height="107.48" rx="26.82" style="fill:#fce0db"/><text transform="translate(39.59 112.11)" style="font-size:13px;font-family:FiraSans-Regular, Fira Sans"><tspan style="letter-spacing:-0.019981971153846152em">C</tspan><tspan x="7.02" y="0">onsumo de ene</tspan><tspan x="98.14" y="0" style="letter-spacing:-0.015024038461538462em">r</tspan><tspan x="102.96" y="0">gia </tspan><tspan x="0" y="19">e</tspan><tspan x="7.08" y="19" style="letter-spacing:-0.004957932692307692em">l</tspan><tspan x="10.83" y="19">étri</tspan><tspan x="31.29" y="19" style="letter-spacing:-0.009990985576923076em">c</tspan><tspan x="37.38" y="19">a </tspan><tspan x="47.89" y="19" style="letter-spacing:-0.020057091346153848em">c</tspan><tspan x="53.85" y="19">om</tspan><tspan x="72.58" y="19" style="letter-spacing:-0.009990985576923076em">p</tspan><tspan x="80.17" y="19">a</tspan><tspan x="87.24" y="19" style="letter-spacing:-0.03493088942307692em">r</tspan><tspan x="91.81" y="19" style="letter-spacing:-0.015024038461538462em">á</tspan><tspan x="98.68" y="19" style="letter-spacing:-0.003981370192307692em">v</tspan><tspan x="105.03" y="19">el </tspan><tspan x="0" y="38">ao d</tspan><tspan x="25.88" y="38" style="letter-spacing:-0.009990985576923076em">a</tspan><tspan x="32.83" y="38">s </tspan><tspan x="42.34" y="38" style="letter-spacing:-0.019981971153846152em">c</tspan><tspan x="48.3" y="38">élu</tspan><tspan x="66.75" y="38" style="letter-spacing:-0.005033052884615385em">l</tspan><tspan x="70.5" y="38" style="letter-spacing:-0.009990985576923076em">a</tspan><tspan x="77.44" y="38">s de </tspan><tspan x="0" y="57">diaf</tspan><tspan x="22.87" y="57" style="letter-spacing:-0.035006009615384616em">r</tspan><tspan x="27.43" y="57" style="letter-spacing:-0.009990985576923076em">a</tspan><tspan x="34.37" y="57">gma;</tspan></text><rect x="18.27" y="195.85" width="177.92" height="92.31" rx="23.31" style="fill:#ffcfc5"/><text transform="translate(38.07 230.48)" style="font-size:13px;font-family:FiraSans-Regular, Fira Sans">Qu<tspan x="16.55" y="0" style="letter-spacing:-0.009990985576923076em">a</tspan><tspan x="23.49" y="0">lidade dos p</tspan><tspan x="96.72" y="0" style="letter-spacing:-0.029972956730769232em">r</tspan><tspan x="101.35" y="0">odu</tspan><tspan x="124.28" y="0" style="letter-spacing:-0.015024038461538462em">t</tspan><tspan x="128.78" y="0">os </tspan><tspan x="0" y="19">simi</tspan><tspan x="24.54" y="19" style="letter-spacing:-0.004957932692307692em">l</tspan><tspan x="28.29" y="19">ar aos obtidos por </tspan><tspan x="0" y="38" style="letter-spacing:-0.019981971153846152em">c</tspan><tspan x="5.95" y="38">élu</tspan><tspan x="24.41" y="38" style="letter-spacing:-0.005033052884615385em">l</tspan><tspan x="28.16" y="38" style="letter-spacing:-0.009990985576923076em">a</tspan><tspan x="35.1" y="38">s de me</tspan><tspan x="81.14" y="38" style="letter-spacing:-0.029972956730769232em">r</tspan><tspan x="85.77" y="38" style="letter-spacing:-0.009990985576923076em">c</tspan><tspan x="91.86" y="38">úrio;</tspan></text><g id="preto"><path d="M33.77,16.61a6,6,0,0,1,1.74,1l-1.27,1.48a3.82,3.82,0,0,0-2.43-.93,2.81,2.81,0,0,0-2.35,1.18,6.22,6.22,0,0,0-.88,3.71,6.25,6.25,0,0,0,.87,3.66A2.78,2.78,0,0,0,31.81,28a3.26,3.26,0,0,0,1.39-.28,7.14,7.14,0,0,0,1.29-.78l1.18,1.48A5.78,5.78,0,0,1,34,29.51a5.59,5.59,0,0,1-2.28.45,5.72,5.72,0,0,1-3-.79,5.33,5.33,0,0,1-2-2.35,8.8,8.8,0,0,1-.72-3.73,8.35,8.35,0,0,1,.75-3.69,5.42,5.42,0,0,1,2-2.34,5.54,5.54,0,0,1,2.94-.8A5.83,5.83,0,0,1,33.77,16.61Z"/><path d="M45.19,25.4H38.88a3.14,3.14,0,0,0,.76,2.09,2.34,2.34,0,0,0,1.71.63,3.46,3.46,0,0,0,1.25-.22,6,6,0,0,0,1.26-.67l1,1.38A5.76,5.76,0,0,1,41.14,30a4.49,4.49,0,0,1-3.54-1.4,5.6,5.6,0,0,1-1.25-3.84A7,7,0,0,1,36.88,22,4.44,4.44,0,0,1,38.42,20a4.56,4.56,0,0,1,5.66.64,5.51,5.51,0,0,1,1.16,3.74C45.24,24.54,45.22,24.87,45.19,25.4ZM42.32,14.1l1,1.9L39,17.71l-.68-1.24Zm.51,9.61c0-1.76-.65-2.64-2-2.64a1.65,1.65,0,0,0-1.39.66,3.8,3.8,0,0,0-.6,2.1h3.95Z"/><path d="M48,29.29a2.62,2.62,0,0,1-.66-1.91V15.6l2.43-.27v12c0,.47.19.71.57.71a1.63,1.63,0,0,0,.57-.1l.52,1.71A3.89,3.89,0,0,1,49.8,30,2.41,2.41,0,0,1,48,29.29Z"/><path d="M61.07,29.68H59l-.13-1.41a3.77,3.77,0,0,1-1.3,1.28,3.71,3.71,0,0,1-1.78.41,2.63,2.63,0,0,1-2.08-.82,3.33,3.33,0,0,1-.73-2.29V19.63h2.43v6.91a2,2,0,0,0,.29,1.22,1.15,1.15,0,0,0,.94.36,2.46,2.46,0,0,0,2-1.42V19.63h2.43Z"/><path d="M64.56,29.29a2.62,2.62,0,0,1-.66-1.91V15.6l2.43-.27v12c0,.47.19.71.57.71a1.63,1.63,0,0,0,.57-.1L68,29.62a3.89,3.89,0,0,1-1.62.34A2.39,2.39,0,0,1,64.56,29.29Z"/><path d="M77.11,27.88a1.14,1.14,0,0,0,.58.43l-.51,1.62a3.26,3.26,0,0,1-1.4-.42A2.15,2.15,0,0,1,75,28.46a3.14,3.14,0,0,1-1.28,1.13A3.9,3.9,0,0,1,72,30a3.24,3.24,0,0,1-2.38-.85,3,3,0,0,1-.87-2.24,2.89,2.89,0,0,1,1.18-2.5,5.71,5.71,0,0,1,3.4-.87h1.25v-.57a1.7,1.7,0,0,0-.45-1.35,2.13,2.13,0,0,0-1.43-.39,8.3,8.3,0,0,0-2.66.53l-.57-1.66a10.16,10.16,0,0,1,3.65-.72q3.86,0,3.85,3.46V27A1.6,1.6,0,0,0,77.11,27.88ZM74.54,27v-2h-1c-1.57,0-2.35.58-2.35,1.75a1.62,1.62,0,0,0,.36,1.12,1.37,1.37,0,0,0,1.06.4A2.17,2.17,0,0,0,74.54,27Z"/><path d="M93.08,15.6V29.68H90.94l-.17-1.27a3.56,3.56,0,0,1-1.21,1.14A3.38,3.38,0,0,1,87.9,30a3.22,3.22,0,0,1-2.83-1.42,6.69,6.69,0,0,1-1-3.88,7.16,7.16,0,0,1,.49-2.74A4.24,4.24,0,0,1,86,20a3.55,3.55,0,0,1,4.66.4v-5.1ZM89.72,27.81a3.26,3.26,0,0,0,.93-1v-4.6a3.57,3.57,0,0,0-.88-.8,2.08,2.08,0,0,0-1-.26A1.74,1.74,0,0,0,87.2,22a4.91,4.91,0,0,0-.56,2.61,5.33,5.33,0,0,0,.5,2.67,1.59,1.59,0,0,0,1.44.81A2.07,2.07,0,0,0,89.72,27.81Z"/><path d="M104.2,25.4H97.89a3.19,3.19,0,0,0,.76,2.09,2.34,2.34,0,0,0,1.71.63,3.46,3.46,0,0,0,1.25-.22,5.55,5.55,0,0,0,1.26-.67l1,1.38A5.81,5.81,0,0,1,100.15,30a4.5,4.5,0,0,1-3.54-1.4,5.6,5.6,0,0,1-1.25-3.84A6.81,6.81,0,0,1,95.9,22,4.35,4.35,0,0,1,97.43,20a4.58,4.58,0,0,1,5.67.64,5.56,5.56,0,0,1,1.16,3.74C104.26,24.54,104.24,24.87,104.2,25.4Zm-2.36-1.69q0-2.64-2-2.64a1.65,1.65,0,0,0-1.4.66,3.8,3.8,0,0,0-.6,2.1h4Z"/><path d="M119.38,25.4h-6.31a3.19,3.19,0,0,0,.76,2.09,2.34,2.34,0,0,0,1.71.63,3.56,3.56,0,0,0,1.26-.22,5.71,5.71,0,0,0,1.25-.67l1,1.38A5.81,5.81,0,0,1,115.33,30a4.5,4.5,0,0,1-3.54-1.4,5.6,5.6,0,0,1-1.25-3.84,6.81,6.81,0,0,1,.54-2.77A4.35,4.35,0,0,1,112.61,20a4.58,4.58,0,0,1,5.67.64,5.56,5.56,0,0,1,1.16,3.74C119.44,24.54,119.42,24.87,119.38,25.4ZM117,23.71q0-2.64-2-2.64a1.66,1.66,0,0,0-1.4.66,3.8,3.8,0,0,0-.6,2.1h4Z"/><path d="M122.18,29.29a2.62,2.62,0,0,1-.65-1.91V15.6l2.43-.27v12c0,.47.19.71.57.71a1.63,1.63,0,0,0,.57-.1l.51,1.71A3.85,3.85,0,0,1,124,30,2.42,2.42,0,0,1,122.18,29.29Z"/><path d="M135.32,25.4H129a3.19,3.19,0,0,0,.76,2.09,2.34,2.34,0,0,0,1.71.63,3.56,3.56,0,0,0,1.26-.22,5.71,5.71,0,0,0,1.25-.67l1,1.38A5.81,5.81,0,0,1,131.27,30a4.5,4.5,0,0,1-3.54-1.4,5.59,5.59,0,0,1-1.24-3.84A6.81,6.81,0,0,1,127,22,4.3,4.3,0,0,1,128.56,20a4.56,4.56,0,0,1,5.66.64,5.56,5.56,0,0,1,1.16,3.74C135.38,24.54,135.36,24.87,135.32,25.4ZM133,23.71q0-2.64-2-2.64a1.66,1.66,0,0,0-1.4.66,3.8,3.8,0,0,0-.6,2.1h4Z"/><path d="M143.32,29.2a3.64,3.64,0,0,1-1.19.57,4.67,4.67,0,0,1-1.34.19,3,3,0,0,1-2.25-.84,3.48,3.48,0,0,1-.77-2.44v-5.3h-1.58V19.63h1.58V17.4l2.43-.28v2.51h2.34l-.25,1.75H140.2v5.24a1.72,1.72,0,0,0,.26,1.06,1,1,0,0,0,.81.33,2.48,2.48,0,0,0,1.19-.36Z"/><path d="M150.65,19.49l-.42,2.36a3.44,3.44,0,0,0-.89-.11,1.71,1.71,0,0,0-1.4.63,4.82,4.82,0,0,0-.82,1.95v5.36h-2.43v-10h2.11l.22,2a3.6,3.6,0,0,1,1-1.66,2.34,2.34,0,0,1,1.58-.58A3.9,3.9,0,0,1,150.65,19.49Z"/><path d="M159.17,20.76a5.67,5.67,0,0,1,1.25,3.88,6.47,6.47,0,0,1-.57,2.79,4.34,4.34,0,0,1-1.64,1.87,4.69,4.69,0,0,1-2.52.66,4.43,4.43,0,0,1-3.48-1.41A5.69,5.69,0,0,1,151,24.64a6.38,6.38,0,0,1,.57-2.77A4.25,4.25,0,0,1,153.17,20a4.67,4.67,0,0,1,2.54-.67A4.34,4.34,0,0,1,159.17,20.76Zm-2-6.66,1,1.9-4.3,1.71-.68-1.24Zm-3.61,10.54a5.06,5.06,0,0,0,.54,2.64,1.81,1.81,0,0,0,1.63.84,1.79,1.79,0,0,0,1.62-.85,5,5,0,0,0,.54-2.63,5,5,0,0,0-.54-2.61,1.78,1.78,0,0,0-1.6-.84Q153.52,21.19,153.52,24.64Z"/><path d="M163.26,29.29a2.62,2.62,0,0,1-.66-1.91V15.6l2.43-.27v12c0,.47.2.71.58.71a1.67,1.67,0,0,0,.57-.1l.51,1.71a3.89,3.89,0,0,1-1.62.34A2.41,2.41,0,0,1,163.26,29.29Z"/><path d="M170.61,15A1.43,1.43,0,0,1,171,16a1.37,1.37,0,0,1-.43,1,1.5,1.5,0,0,1-1.11.42,1.49,1.49,0,0,1-1.09-.42,1.37,1.37,0,0,1-.43-1,1.43,1.43,0,0,1,.43-1.06,1.49,1.49,0,0,1,1.09-.42A1.5,1.5,0,0,1,170.61,15Zm.12,4.67V29.68H168.3v-10Z"/><path d="M180.41,20.54,179.46,22a4.79,4.79,0,0,0-2.53-.81,2,2,0,0,0-1.12.27.85.85,0,0,0-.4.73.94.94,0,0,0,.17.57,1.43,1.43,0,0,0,.62.43,11.37,11.37,0,0,0,1.32.45,5.81,5.81,0,0,1,2.42,1.16,2.57,2.57,0,0,1,.79,2,2.72,2.72,0,0,1-1.22,2.35,5.17,5.17,0,0,1-3,.84,6.25,6.25,0,0,1-2.25-.38,5.51,5.51,0,0,1-1.76-1l1.22-1.37a4.48,4.48,0,0,0,2.74,1,2.38,2.38,0,0,0,1.3-.32,1,1,0,0,0,.48-.9,1.18,1.18,0,0,0-.18-.69,1.57,1.57,0,0,0-.65-.46,14.24,14.24,0,0,0-1.45-.48,4.84,4.84,0,0,1-2.26-1.17,2.59,2.59,0,0,1-.72-1.87,2.49,2.49,0,0,1,.48-1.5,3.27,3.27,0,0,1,1.37-1.05,5.12,5.12,0,0,1,2-.38A5.67,5.67,0,0,1,180.41,20.54Z"/><path d="M190.89,25.4h-6.3a3.09,3.09,0,0,0,.76,2.09,2.34,2.34,0,0,0,1.71.63,3.46,3.46,0,0,0,1.25-.22,5.71,5.71,0,0,0,1.25-.67l1,1.38A5.78,5.78,0,0,1,186.85,30a4.51,4.51,0,0,1-3.55-1.4,5.59,5.59,0,0,1-1.24-3.84,7,7,0,0,1,.53-2.77A4.44,4.44,0,0,1,184.13,20a4.56,4.56,0,0,1,5.66.64A5.56,5.56,0,0,1,191,24.42C191,24.54,190.93,24.87,190.89,25.4Zm-2.35-1.69c0-1.76-.65-2.64-2-2.64a1.68,1.68,0,0,0-1.4.66,3.89,3.89,0,0,0-.59,2.1h3.95Z"/><path d="M203.71,19.63a4.91,4.91,0,0,1,1.49.89L204.12,22a4.12,4.12,0,0,0-1-.55,3.21,3.21,0,0,0-1-.17c-1.5,0-2.26,1.15-2.26,3.44a4.23,4.23,0,0,0,.59,2.52,2,2,0,0,0,1.67.77,2.76,2.76,0,0,0,1-.17,7.28,7.28,0,0,0,1.06-.55l1.08,1.53A5,5,0,0,1,202,30a4.85,4.85,0,0,1-2.51-.63,4.18,4.18,0,0,1-1.63-1.82,6.28,6.28,0,0,1-.57-2.77,6.57,6.57,0,0,1,.57-2.82,4.34,4.34,0,0,1,1.63-1.9,4.55,4.55,0,0,1,2.49-.68A5.23,5.23,0,0,1,203.71,19.63Z"/><path d="M214.16,20.76a5.67,5.67,0,0,1,1.24,3.88,6.47,6.47,0,0,1-.57,2.79,4.32,4.32,0,0,1-1.63,1.87,4.7,4.7,0,0,1-2.53.66,4.39,4.39,0,0,1-3.47-1.41,5.69,5.69,0,0,1-1.26-3.91,6.38,6.38,0,0,1,.57-2.77A4.31,4.31,0,0,1,208.15,20a4.7,4.7,0,0,1,2.54-.67A4.37,4.37,0,0,1,214.16,20.76Zm-5.65,3.88a5.06,5.06,0,0,0,.54,2.64,2,2,0,0,0,3.25,0,5,5,0,0,0,.54-2.63A5,5,0,0,0,212.3,22a1.79,1.79,0,0,0-1.61-.84C209.24,21.19,208.51,22.34,208.51,24.64Z"/><path d="M230.28,20.17A3.27,3.27,0,0,1,231,22.4v7.28h-2.43v-6.9c0-1.08-.37-1.61-1.1-1.61a1.51,1.51,0,0,0-1,.37,4.49,4.49,0,0,0-.88,1.15v7h-2.43v-6.9c0-1.08-.37-1.61-1.11-1.61a1.5,1.5,0,0,0-1,.37,4.5,4.5,0,0,0-.89,1.15v7h-2.43v-10h2.11l.19,1.31a3.44,3.44,0,0,1,2.91-1.6A2.47,2.47,0,0,1,225.32,21a4.75,4.75,0,0,1,1.34-1.25,3.24,3.24,0,0,1,1.68-.44A2.45,2.45,0,0,1,230.28,20.17Z"/><path d="M48.06,46.17a3.22,3.22,0,0,1,.73,2.23v7.28H46.35v-6.9c0-1.08-.36-1.61-1.1-1.61a1.47,1.47,0,0,0-1,.37,4.5,4.5,0,0,0-.89,1.15v7H40.92v-6.9c0-1.08-.37-1.61-1.1-1.61a1.52,1.52,0,0,0-1,.37,4.49,4.49,0,0,0-.88,1.15v7H35.47v-10h2.11l.19,1.31a3.43,3.43,0,0,1,2.9-1.6,2.52,2.52,0,0,1,1.51.45A2.49,2.49,0,0,1,43.11,47a4.62,4.62,0,0,1,1.34-1.25,3.19,3.19,0,0,1,1.68-.44A2.43,2.43,0,0,1,48.06,46.17Z"/><path d="M59.81,51.4H53.5a3.14,3.14,0,0,0,.76,2.09,2.34,2.34,0,0,0,1.71.63,3.46,3.46,0,0,0,1.25-.22,6,6,0,0,0,1.26-.67l1,1.38A5.76,5.76,0,0,1,55.76,56a4.49,4.49,0,0,1-3.54-1.4A5.6,5.6,0,0,1,51,50.72,7,7,0,0,1,51.5,48,4.44,4.44,0,0,1,53,46a4.56,4.56,0,0,1,5.66.64,5.51,5.51,0,0,1,1.16,3.74C59.86,50.54,59.84,50.87,59.81,51.4Zm-2.36-1.69c0-1.76-.65-2.64-2-2.64a1.65,1.65,0,0,0-1.39.66,3.8,3.8,0,0,0-.6,2.1h4Z"/><path d="M74.64,46.17a3.22,3.22,0,0,1,.73,2.23v7.28H72.93v-6.9c0-1.08-.36-1.61-1.1-1.61a1.47,1.47,0,0,0-1,.37,4.5,4.5,0,0,0-.89,1.15v7H67.5v-6.9c0-1.08-.37-1.61-1.1-1.61a1.52,1.52,0,0,0-1,.37,4.49,4.49,0,0,0-.88,1.15v7H62.05v-10h2.11l.19,1.31a3.43,3.43,0,0,1,2.9-1.6,2.52,2.52,0,0,1,1.51.45A2.49,2.49,0,0,1,69.69,47,4.62,4.62,0,0,1,71,45.78a3.19,3.19,0,0,1,1.68-.44A2.43,2.43,0,0,1,74.64,46.17Z"/><path d="M86.14,46.74a6.65,6.65,0,0,1,1,3.9,7.28,7.28,0,0,1-.49,2.77,4.32,4.32,0,0,1-1.37,1.88,3.41,3.41,0,0,1-2.11.67,3.24,3.24,0,0,1-1.5-.34,3.37,3.37,0,0,1-1.16-1l-.16,1H78.2V41.6l2.43-.27v5.44a3.33,3.33,0,0,1,2.77-1.43A3.18,3.18,0,0,1,86.14,46.74ZM84,53.29a4.92,4.92,0,0,0,.55-2.65A5.24,5.24,0,0,0,84.07,48a1.64,1.64,0,0,0-1.45-.78,2.37,2.37,0,0,0-2,1.36V53a2.4,2.4,0,0,0,.81.86,1.94,1.94,0,0,0,1,.3A1.73,1.73,0,0,0,84,53.29Z"/><path d="M95.49,45.49l-.42,2.36a3.44,3.44,0,0,0-.89-.11,1.71,1.71,0,0,0-1.41.63,5.11,5.11,0,0,0-.82,2v5.36H89.52v-10h2.11l.23,2a3.67,3.67,0,0,1,1-1.66,2.36,2.36,0,0,1,1.58-.58A4,4,0,0,1,95.49,45.49Z"/><path d="M104,53.88a1.14,1.14,0,0,0,.58.43L104,55.93a3.21,3.21,0,0,1-1.4-.42,2.15,2.15,0,0,1-.82-1,3.17,3.17,0,0,1-1.29,1.13,3.84,3.84,0,0,1-1.72.37,3.23,3.23,0,0,1-2.37-.85,3,3,0,0,1-.88-2.24,2.9,2.9,0,0,1,1.19-2.5,5.66,5.66,0,0,1,3.39-.87h1.26v-.57a1.7,1.7,0,0,0-.45-1.35,2.16,2.16,0,0,0-1.43-.39,8.25,8.25,0,0,0-2.66.53l-.57-1.66a10.15,10.15,0,0,1,3.64-.72c2.58,0,3.86,1.15,3.86,3.46V53A1.6,1.6,0,0,0,104,53.88ZM101.38,53v-2h-1c-1.57,0-2.36.58-2.36,1.75a1.58,1.58,0,0,0,.37,1.12,1.37,1.37,0,0,0,1.06.4A2.17,2.17,0,0,0,101.38,53Z"/><path d="M114.17,46.15a3.19,3.19,0,0,1,.75,2.25v7.28h-2.43v-6.9a1.92,1.92,0,0,0-.31-1.25,1.16,1.16,0,0,0-.92-.36,1.78,1.78,0,0,0-1.13.39,4.33,4.33,0,0,0-1,1.13v7h-2.43v-10h2.11l.19,1.31a3.71,3.71,0,0,1,3-1.6A2.72,2.72,0,0,1,114.17,46.15Z"/><path d="M125.36,53.88a1.17,1.17,0,0,0,.59.43l-.52,1.62a3.26,3.26,0,0,1-1.4-.42,2.15,2.15,0,0,1-.82-1,3.14,3.14,0,0,1-1.28,1.13,3.9,3.9,0,0,1-1.72.37,3.26,3.26,0,0,1-2.38-.85,3,3,0,0,1-.87-2.24,2.88,2.88,0,0,1,1.19-2.5,5.66,5.66,0,0,1,3.39-.87h1.25v-.57a1.7,1.7,0,0,0-.45-1.35,2.13,2.13,0,0,0-1.43-.39,8.3,8.3,0,0,0-2.66.53l-.57-1.66a10.16,10.16,0,0,1,3.65-.72q3.86,0,3.85,3.46V53A1.6,1.6,0,0,0,125.36,53.88ZM122.79,53v-2h-1c-1.57,0-2.35.58-2.35,1.75a1.62,1.62,0,0,0,.36,1.12,1.37,1.37,0,0,0,1.06.4A2.16,2.16,0,0,0,122.79,53Z"/><path d="M140.9,46.73a7,7,0,0,1,.91,3.89,7.69,7.69,0,0,1-.47,2.77A4.24,4.24,0,0,1,140,55.28a3.44,3.44,0,0,1-2.14.68,3.13,3.13,0,0,1-2.53-1.1v4.69l-2.43.27V45.63H135l.13,1.23a4,4,0,0,1,1.35-1.14,3.59,3.59,0,0,1,1.6-.38A3.15,3.15,0,0,1,140.9,46.73Zm-1.64,3.91a5.53,5.53,0,0,0-.47-2.66,1.55,1.55,0,0,0-1.43-.81,2,2,0,0,0-1.14.37,3.35,3.35,0,0,0-.91,1v4.53a2.14,2.14,0,0,0,1.84,1C138.56,54.1,139.26,53,139.26,50.64Z"/><path d="M151.78,46.76A5.67,5.67,0,0,1,153,50.64a6.47,6.47,0,0,1-.57,2.79,4.32,4.32,0,0,1-1.63,1.87,4.72,4.72,0,0,1-2.53.66,4.43,4.43,0,0,1-3.48-1.41,5.74,5.74,0,0,1-1.25-3.91,6.38,6.38,0,0,1,.57-2.77A4.31,4.31,0,0,1,145.77,46a4.67,4.67,0,0,1,2.54-.67A4.37,4.37,0,0,1,151.78,46.76Zm-5.66,3.88a5.06,5.06,0,0,0,.54,2.64,1.83,1.83,0,0,0,1.63.84,1.79,1.79,0,0,0,1.62-.85,5,5,0,0,0,.54-2.63,5,5,0,0,0-.54-2.61,1.78,1.78,0,0,0-1.6-.84Q146.12,47.19,146.12,50.64Z"/><path d="M155.86,55.29a2.62,2.62,0,0,1-.66-1.91V41.6l2.44-.27v12c0,.47.19.71.57.71a1.63,1.63,0,0,0,.57-.1l.51,1.71a3.89,3.89,0,0,1-1.62.34A2.41,2.41,0,0,1,155.86,55.29Z"/><path d="M163.21,41a1.43,1.43,0,0,1,.43,1.06,1.37,1.37,0,0,1-.43,1,1.5,1.5,0,0,1-1.11.42,1.49,1.49,0,0,1-1.09-.42,1.37,1.37,0,0,1-.43-1A1.43,1.43,0,0,1,161,41a1.49,1.49,0,0,1,1.09-.42A1.5,1.5,0,0,1,163.21,41Zm.13,4.67v10H160.9v-10Z"/><path d="M178.86,46.17a3.27,3.27,0,0,1,.72,2.23v7.28h-2.43v-6.9c0-1.08-.37-1.61-1.1-1.61a1.49,1.49,0,0,0-1,.37,4.49,4.49,0,0,0-.88,1.15v7h-2.43v-6.9c0-1.08-.37-1.61-1.11-1.61a1.5,1.5,0,0,0-1,.37,4.5,4.5,0,0,0-.89,1.15v7h-2.43v-10h2.11l.19,1.31a3.44,3.44,0,0,1,2.91-1.6,2.57,2.57,0,0,1,1.51.45A2.53,2.53,0,0,1,173.9,47a4.75,4.75,0,0,1,1.34-1.25,3.24,3.24,0,0,1,1.68-.44A2.45,2.45,0,0,1,178.86,46.17Z"/><path d="M190.6,51.4h-6.31a3.19,3.19,0,0,0,.76,2.09,2.34,2.34,0,0,0,1.71.63A3.52,3.52,0,0,0,188,53.9a5.71,5.71,0,0,0,1.25-.67l1,1.38A5.81,5.81,0,0,1,186.55,56a4.5,4.5,0,0,1-3.54-1.4,5.59,5.59,0,0,1-1.24-3.84A6.81,6.81,0,0,1,182.3,48,4.37,4.37,0,0,1,183.84,46a4.56,4.56,0,0,1,5.66.64,5.56,5.56,0,0,1,1.16,3.74C190.66,50.54,190.64,50.87,190.6,51.4Zm-2.87-11.3,1,1.9-4.29,1.71-.69-1.24Zm.51,9.61q0-2.64-2-2.64a1.66,1.66,0,0,0-1.4.66,4,4,0,0,0-.6,2.1h4Z"/><path d="M198.81,45.49l-.42,2.36a3.44,3.44,0,0,0-.89-.11,1.71,1.71,0,0,0-1.41.63,5.11,5.11,0,0,0-.82,2v5.36h-2.43v-10H195l.23,2a3.67,3.67,0,0,1,1-1.66,2.37,2.37,0,0,1,1.58-.58A4,4,0,0,1,198.81,45.49Z"/><path d="M202.64,41a1.47,1.47,0,0,1,.43,1.06,1.41,1.41,0,0,1-.43,1,1.53,1.53,0,0,1-1.11.42,1.51,1.51,0,0,1-1.1-.42,1.4,1.4,0,0,1-.42-1,1.46,1.46,0,0,1,.42-1.06,1.51,1.51,0,0,1,1.1-.42A1.53,1.53,0,0,1,202.64,41Zm.12,4.67v10h-2.43v-10Z"/><path d="M211.51,45.63a4.79,4.79,0,0,1,1.49.89L211.92,48a4.12,4.12,0,0,0-1-.55,3.15,3.15,0,0,0-1-.17c-1.51,0-2.26,1.15-2.26,3.44a4.24,4.24,0,0,0,.58,2.52,2,2,0,0,0,1.68.77,2.74,2.74,0,0,0,1-.17,7.28,7.28,0,0,0,1.06-.55L213,54.8A5,5,0,0,1,209.75,56a4.79,4.79,0,0,1-2.5-.63,4.21,4.21,0,0,1-1.64-1.82,6.28,6.28,0,0,1-.57-2.77,6.57,6.57,0,0,1,.57-2.82,4.36,4.36,0,0,1,1.64-1.9,4.5,4.5,0,0,1,2.48-.68A5.19,5.19,0,0,1,211.51,45.63Z"/><path d="M222.19,53.88a1.1,1.1,0,0,0,.58.43l-.51,1.62a3.21,3.21,0,0,1-1.4-.42,2.16,2.16,0,0,1-.83-1,3.14,3.14,0,0,1-1.28,1.13A3.87,3.87,0,0,1,217,56a3.23,3.23,0,0,1-2.37-.85,3,3,0,0,1-.88-2.24,2.9,2.9,0,0,1,1.19-2.5,5.66,5.66,0,0,1,3.39-.87h1.25v-.57a1.7,1.7,0,0,0-.44-1.35,2.17,2.17,0,0,0-1.44-.39,8.35,8.35,0,0,0-2.66.53l-.57-1.66a10.2,10.2,0,0,1,3.65-.72q3.85,0,3.86,3.46V53A1.6,1.6,0,0,0,222.19,53.88ZM219.61,53v-2h-1c-1.57,0-2.36.58-2.36,1.75a1.62,1.62,0,0,0,.36,1.12,1.39,1.39,0,0,0,1.07.4A2.15,2.15,0,0,0,219.61,53Z"/></g><rect x="18.27" y="295.07" width="177.92" height="90.37" rx="23.25" style="fill:#ffc9c0"/><text transform="translate(40.7 327)" style="font-size:13px;font-family:FiraSans-Regular, Fira Sans"><tspan style="letter-spacing:-0.019981971153846152em">C</tspan><tspan x="7.02" y="0">on</tspan><tspan x="22.23" y="0" style="letter-spacing:-0.019981971153846152em">c</tspan><tspan x="28.18" y="0">ent</tspan><tspan x="47.58" y="0" style="letter-spacing:-0.035006009615384616em">r</tspan><tspan x="52.14" y="0">a</tspan><tspan x="59.22" y="0" style="letter-spacing:-0.009990985576923076em">ç</tspan><tspan x="65.3" y="0">ão de soda </tspan><tspan x="0" y="19" style="letter-spacing:-0.009990985576923076em">c</tspan><tspan x="6.08" y="19">áusti</tspan><tspan x="35.15" y="19" style="letter-spacing:-0.009990985576923076em">c</tspan><tspan x="41.24" y="19">a menor que no </tspan><tspan x="0" y="38">p</tspan><tspan x="7.72" y="38" style="letter-spacing:-0.029972956730769232em">r</tspan><tspan x="12.35" y="38">o</tspan><tspan x="19.94" y="38" style="letter-spacing:-0.019981971153846152em">c</tspan><tspan x="25.9" y="38">e</tspan><tspan x="32.98" y="38" style="letter-spacing:-0.009990985576923076em">s</tspan><tspan x="38.92" y="38">so de me</tspan><tspan x="92.56" y="38" style="letter-spacing:-0.030048076923076924em">r</tspan><tspan x="97.19" y="38" style="letter-spacing:-0.009990985576923076em">c</tspan><tspan x="103.27" y="38">úrio;</tspan></text><rect x="18.27" y="392.35" width="177.92" height="82.31" rx="21.9" style="fill:#fcb6ac"/><text transform="translate(44.54 420.25)" style="font-size:13px;font-family:FiraSans-Regular, Fira Sans">As ma<tspan x="35.18" y="0" style="letter-spacing:-0.015024038461538462em">t</tspan><tspan x="39.68" y="0">éri</tspan><tspan x="55.45" y="0" style="letter-spacing:-0.009990985576923076em">as</tspan><tspan x="68.33" y="0">-prim</tspan><tspan x="101.11" y="0" style="letter-spacing:-0.009990985576923076em">a</tspan><tspan x="108.06" y="0">s </tspan><tspan x="0" y="19">p</tspan><tspan x="7.72" y="19" style="letter-spacing:-0.029972956730769232em">r</tspan><tspan x="12.35" y="19">eci</tspan><tspan x="29.31" y="19" style="letter-spacing:-0.009990985576923076em">s</tspan><tspan x="35.26" y="19">am ser de </tspan><tspan x="96.84" y="19" style="letter-spacing:-0.009990985576923076em">a</tspan><tspan x="103.78" y="19">l</tspan><tspan x="107.59" y="19" style="letter-spacing:-0.006986177884615385em">t</tspan><tspan x="112.19" y="19">a </tspan><tspan x="0" y="38">pu</tspan><tspan x="15.29" y="38" style="letter-spacing:-0.029972956730769232em">r</tspan><tspan x="19.92" y="38" style="letter-spacing:-0.006986177884615385em">e</tspan><tspan x="26.91" y="38" style="letter-spacing:-0.015024038461538462em">z</tspan><tspan x="32.39" y="38">a</tspan></text><rect x="18.2" y="480.14" width="177.99" height="71.52" rx="21.18" style="fill:#fca49d"/><text transform="translate(39.23 511.68)" style="font-size:13px;font-family:FiraSans-Regular, Fira Sans"><tspan style="letter-spacing:-0.01697716346153846em">C</tspan><tspan x="7.06" y="0">us</tspan><tspan x="20.7" y="0" style="letter-spacing:-0.015024038461538462em">t</tspan><tspan x="25.19" y="0">o de </tspan><tspan x="54.54" y="0" style="letter-spacing:-0.029972956730769232em">r</tspan><tspan x="59.16" y="0">eposi</tspan><tspan x="91.3" y="0" style="letter-spacing:-0.009990985576923076em">ç</tspan><tspan x="97.38" y="0">ão </tspan><tspan x="0" y="19">d</tspan><tspan x="7.77" y="19" style="letter-spacing:-0.009990985576923076em">a</tspan><tspan x="14.72" y="19">s memb</tspan><tspan x="61.32" y="19" style="letter-spacing:-0.035006009615384616em">r</tspan><tspan x="65.88" y="19">an</tspan><tspan x="80.57" y="19" style="letter-spacing:-0.009990985576923076em">a</tspan><tspan x="87.52" y="19">s é </tspan><tspan x="107.56" y="19" style="letter-spacing:-0.009990985576923076em">a</tspan><tspan x="114.5" y="19">l</tspan><tspan x="118.31" y="19" style="letter-spacing:-0.015024038461538462em">t</tspan><tspan x="122.81" y="19">o</tspan></text></g></svg>