<svg xmlns="http://www.w3.org/2000/svg" viewBox="0 0 730 109.59"><title>fig-9-7</title><g id="fig-9-7"><g id="roxo"><path d="M31.77,65.42l-.92-3h-4.6l-.92,3H23.64l3.89-12h2.12l3.88,12Zm-5.12-4.34h3.79l-1.88-6.25Z" style="fill:#7a40c6"/><path d="M40.21,56.3a4.19,4.19,0,0,1,1.32.75l-.77,1a4,4,0,0,0-1-.51,3,3,0,0,0-1-.17,2,2,0,0,0-1.75.89,4.5,4.5,0,0,0-.63,2.62A4.29,4.29,0,0,0,37,63.45a2.06,2.06,0,0,0,1.76.82,3,3,0,0,0,1-.16,5.28,5.28,0,0,0,1-.53l.74,1a4.45,4.45,0,0,1-2.84,1,3.76,3.76,0,0,1-3-1.25,5.14,5.14,0,0,1-1.08-3.46,6.14,6.14,0,0,1,.49-2.55,4,4,0,0,1,1.4-1.7,3.85,3.85,0,0,1,2.16-.61A4.57,4.57,0,0,1,40.21,56.3Z" style="fill:#7a40c6"/><path d="M50.72,61.39H44.79a3.49,3.49,0,0,0,.78,2.22,2.26,2.26,0,0,0,1.73.72,3.78,3.78,0,0,0,1.23-.2,4.87,4.87,0,0,0,1.18-.6l.71,1a5.17,5.17,0,0,1-3.25,1.15,3.79,3.79,0,0,1-3-1.25,5.1,5.1,0,0,1-1.08-3.44,6.4,6.4,0,0,1,.46-2.52,3.92,3.92,0,0,1,1.34-1.73,3.83,3.83,0,0,1,4.89.57,5.06,5.06,0,0,1,1,3.32Q50.75,61,50.72,61.39Zm-1.57-1.28A3.4,3.4,0,0,0,48.6,58,1.94,1.94,0,0,0,47,57.33c-1.33,0-2.05,1-2.17,2.88h4.36Z" style="fill:#7a40c6"/><path d="M57.89,65a3.57,3.57,0,0,1-2.08.63A2.49,2.49,0,0,1,54,65,2.65,2.65,0,0,1,53.31,63V57.5H51.69V56.27h1.62V54.21l1.62-.2v2.26h2.2L57,57.5h-2V63a1.69,1.69,0,0,0,.26,1,1,1,0,0,0,.85.32,2.63,2.63,0,0,0,1.24-.37Z" style="fill:#7a40c6"/><path d="M66.22,57.35a5.19,5.19,0,0,1,1.09,3.49,5.93,5.93,0,0,1-.5,2.5A3.78,3.78,0,0,1,65.38,65a4,4,0,0,1-2.22.6,3.79,3.79,0,0,1-3-1.29A5.19,5.19,0,0,1,59,60.85a6,6,0,0,1,.49-2.5,3.84,3.84,0,0,1,1.43-1.69,4.07,4.07,0,0,1,2.24-.6A3.74,3.74,0,0,1,66.22,57.35Zm-5.45,3.5c0,2.33.8,3.49,2.39,3.49s2.4-1.17,2.4-3.5-.79-3.49-2.38-3.49S60.77,58.52,60.77,60.85Z" style="fill:#7a40c6"/><path d="M76.2,56.81a2.83,2.83,0,0,1,.71,2v6.56H75.29V59.08a2,2,0,0,0-.37-1.37,1.44,1.44,0,0,0-1.09-.4,2.14,2.14,0,0,0-1.31.42,4.52,4.52,0,0,0-1,1.2v6.49H69.84V56.27h1.4l.14,1.36a3.71,3.71,0,0,1,1.22-1.15,3.21,3.21,0,0,1,1.62-.42A2.62,2.62,0,0,1,76.2,56.81Z" style="fill:#7a40c6"/><path d="M86.49,64.11a1.22,1.22,0,0,0,.58.41l-.37,1.11a2.49,2.49,0,0,1-1.16-.4,1.8,1.8,0,0,1-.66-1,3.13,3.13,0,0,1-2.76,1.37A3,3,0,0,1,80,64.86a2.88,2.88,0,0,1,.27-4.23,5.05,5.05,0,0,1,3-.78h1.43v-.68a1.79,1.79,0,0,0-.47-1.39,2.19,2.19,0,0,0-1.47-.41,8.4,8.4,0,0,0-2.5.48l-.41-1.16A9.44,9.44,0,0,1,83,56.06a3.4,3.4,0,0,1,2.45.79,3,3,0,0,1,.81,2.25v4.18A1.43,1.43,0,0,0,86.49,64.11ZM84.67,63v-2.1H83.46c-1.72,0-2.58.62-2.58,1.87A1.69,1.69,0,0,0,81.29,64a1.59,1.59,0,0,0,1.2.42A2.42,2.42,0,0,0,84.67,63Z" style="fill:#7a40c6"/><path d="M519.94,64.55l-.92-3h-4.6l-.91,3h-1.7l3.9-11.95h2.12l3.87,11.95Zm-5.11-4.34h3.79L516.73,54Z" style="fill:#7a40c6"/><path d="M528.39,55.43a4.45,4.45,0,0,1,1.32.76l-.78,1a3.8,3.8,0,0,0-1-.52,3.05,3.05,0,0,0-1-.16,2,2,0,0,0-1.75.88,4.52,4.52,0,0,0-.63,2.62,4.32,4.32,0,0,0,.62,2.57,2.09,2.09,0,0,0,1.76.82,2.91,2.91,0,0,0,1-.17,4.82,4.82,0,0,0,1-.53l.74,1a4.46,4.46,0,0,1-2.84,1,3.7,3.7,0,0,1-3-1.25,5.1,5.1,0,0,1-1.09-3.45,6.14,6.14,0,0,1,.5-2.55,3.87,3.87,0,0,1,1.4-1.7,3.73,3.73,0,0,1,2.16-.61A4.89,4.89,0,0,1,528.39,55.43Z" style="fill:#7a40c6"/><path d="M538.89,60.53H533a3.57,3.57,0,0,0,.77,2.22,2.3,2.3,0,0,0,1.73.71,3.79,3.79,0,0,0,1.24-.19,5.12,5.12,0,0,0,1.18-.61l.7,1a5.19,5.19,0,0,1-3.24,1.14,3.76,3.76,0,0,1-3-1.25,5,5,0,0,1-1.09-3.43,6.48,6.48,0,0,1,.47-2.53,4,4,0,0,1,1.34-1.73,3.85,3.85,0,0,1,4.89.58,5,5,0,0,1,1,3.31A7.63,7.63,0,0,1,538.89,60.53Zm-1.57-1.29a3.35,3.35,0,0,0-.54-2.06,1.93,1.93,0,0,0-1.64-.71c-1.33,0-2,1-2.17,2.88h4.35Z" style="fill:#7a40c6"/><path d="M546.07,64.14a3.66,3.66,0,0,1-2.08.62,2.45,2.45,0,0,1-1.84-.67,2.63,2.63,0,0,1-.67-1.93V56.64h-1.62V55.41h1.62V53.34l1.63-.19v2.26h2.2l-.18,1.23h-2v5.45a1.66,1.66,0,0,0,.25,1,1,1,0,0,0,.86.32,2.72,2.72,0,0,0,1.23-.36Z" style="fill:#7a40c6"/><path d="M554.32,63.24a1.16,1.16,0,0,0,.58.41l-.37,1.11a2.38,2.38,0,0,1-1.16-.4,1.81,1.81,0,0,1-.66-1A3.1,3.1,0,0,1,550,64.76a3,3,0,0,1-2.17-.76,2.89,2.89,0,0,1,.27-4.24,5.06,5.06,0,0,1,3-.78h1.42v-.67a1.79,1.79,0,0,0-.47-1.39,2.19,2.19,0,0,0-1.47-.42,8.14,8.14,0,0,0-2.5.49l-.41-1.17a9.71,9.71,0,0,1,3.21-.62,3.36,3.36,0,0,1,2.45.79,3,3,0,0,1,.82,2.25v4.18A1.4,1.4,0,0,0,554.32,63.24Zm-1.82-1.1V60h-1.21c-1.72,0-2.58.63-2.58,1.88a1.71,1.71,0,0,0,.41,1.23,1.59,1.59,0,0,0,1.2.42A2.42,2.42,0,0,0,552.5,62.14Z" style="fill:#7a40c6"/><path d="M562,64.14a3.64,3.64,0,0,1-2.08.62,2.46,2.46,0,0,1-1.84-.67,2.63,2.63,0,0,1-.66-1.93V56.64H555.8V55.41h1.62V53.34l1.62-.19v2.26h2.21l-.18,1.23h-2v5.45a1.65,1.65,0,0,0,.26,1,1,1,0,0,0,.85.32,2.72,2.72,0,0,0,1.24-.36Z" style="fill:#7a40c6"/><path d="M570.33,56.48A5.21,5.21,0,0,1,571.42,60a6,6,0,0,1-.5,2.51,3.78,3.78,0,0,1-1.42,1.68,4.05,4.05,0,0,1-2.22.6,3.76,3.76,0,0,1-3-1.28,5.21,5.21,0,0,1-1.1-3.49,6,6,0,0,1,.5-2.51,3.85,3.85,0,0,1,1.42-1.68,4.07,4.07,0,0,1,2.24-.6A3.76,3.76,0,0,1,570.33,56.48ZM564.88,60c0,2.33.8,3.49,2.4,3.49s2.39-1.17,2.39-3.51-.79-3.49-2.38-3.49S564.88,57.65,564.88,60Z" style="fill:#7a40c6"/><path d="M515.57,76.67V89.5h-1.43L514,88.23a3.32,3.32,0,0,1-1.15,1.09,3,3,0,0,1-1.53.39,3,3,0,0,1-2.58-1.29,5.74,5.74,0,0,1-.93-3.45,6.72,6.72,0,0,1,.44-2.5,3.93,3.93,0,0,1,1.27-1.71,3.17,3.17,0,0,1,1.94-.62,3.35,3.35,0,0,1,2.5,1.13V76.48ZM512.92,88.1a3.74,3.74,0,0,0,1-1V82.61a3.69,3.69,0,0,0-1-.9,2.33,2.33,0,0,0-1.18-.3,1.89,1.89,0,0,0-1.66.89,4.72,4.72,0,0,0-.59,2.63,5.06,5.06,0,0,0,.54,2.64,1.76,1.76,0,0,0,1.57.87A2.25,2.25,0,0,0,512.92,88.1Z" style="fill:#7a40c6"/><path d="M525.76,85.47h-5.93a3.49,3.49,0,0,0,.78,2.22,2.24,2.24,0,0,0,1.73.72,4.06,4.06,0,0,0,1.23-.19,4.93,4.93,0,0,0,1.18-.61l.71,1a5.17,5.17,0,0,1-3.25,1.15,3.79,3.79,0,0,1-3-1.25A5.09,5.09,0,0,1,518.1,85a6.4,6.4,0,0,1,.47-2.52,4,4,0,0,1,1.34-1.73,3.83,3.83,0,0,1,4.89.57,5.08,5.08,0,0,1,1,3.32C525.79,84.92,525.78,85.2,525.76,85.47Zm-1.57-1.28a3.4,3.4,0,0,0-.55-2.07,1.94,1.94,0,0,0-1.64-.71c-1.33,0-2,1-2.17,2.88h4.36Z" style="fill:#7a40c6"/><path d="M537.94,80.38a4.39,4.39,0,0,1,1.32.75l-.78,1a4.09,4.09,0,0,0-1-.51,3,3,0,0,0-1-.17,2,2,0,0,0-1.75.89,4.5,4.5,0,0,0-.63,2.62,4.29,4.29,0,0,0,.62,2.56,2.06,2.06,0,0,0,1.76.82,3,3,0,0,0,1-.16,5.59,5.59,0,0,0,1-.53l.74,1a4.47,4.47,0,0,1-2.84,1,3.73,3.73,0,0,1-3-1.25A5.12,5.12,0,0,1,532.37,85a6.14,6.14,0,0,1,.49-2.55,4,4,0,0,1,1.4-1.7,3.85,3.85,0,0,1,2.16-.61A4.61,4.61,0,0,1,537.94,80.38Z" style="fill:#7a40c6"/><path d="M547.92,88.19a1.16,1.16,0,0,0,.58.41l-.37,1.11a2.57,2.57,0,0,1-1.17-.4,1.84,1.84,0,0,1-.65-1,3.13,3.13,0,0,1-2.77,1.37,3,3,0,0,1-2.16-.77,2.88,2.88,0,0,1,.27-4.23,5.05,5.05,0,0,1,3-.78h1.43v-.68a1.76,1.76,0,0,0-.48-1.39,2.19,2.19,0,0,0-1.46-.41,8.4,8.4,0,0,0-2.5.48l-.41-1.16a9.4,9.4,0,0,1,3.21-.63,3.42,3.42,0,0,1,2.45.79,3,3,0,0,1,.81,2.25v4.19A1.39,1.39,0,0,0,547.92,88.19ZM545.78,75.6l.73,1.33-3.74,1.5-.5-.85Zm.32,11.49V85h-1.22c-1.71,0-2.57.62-2.57,1.87a1.67,1.67,0,0,0,.41,1.23,1.58,1.58,0,0,0,1.19.42A2.42,2.42,0,0,0,546.1,87.09Z" style="fill:#7a40c6"/><path d="M551.34,89.18a2.06,2.06,0,0,1-.51-1.49v-11l1.62-.19V87.66a.93.93,0,0,0,.13.56.55.55,0,0,0,.45.17,1.89,1.89,0,0,0,.6-.1l.42,1.11a2.79,2.79,0,0,1-1.29.31A1.93,1.93,0,0,1,551.34,89.18Z" style="fill:#7a40c6"/><path d="M561.24,80.38a4.56,4.56,0,0,1,1.33.75l-.78,1a4.09,4.09,0,0,0-1-.51,3.09,3.09,0,0,0-1-.17,2,2,0,0,0-1.76.89,4.58,4.58,0,0,0-.62,2.62,4.22,4.22,0,0,0,.62,2.56,2.05,2.05,0,0,0,1.76.82,2.91,2.91,0,0,0,1-.16,5.33,5.33,0,0,0,1-.53l.74,1a4.49,4.49,0,0,1-2.84,1,3.73,3.73,0,0,1-3-1.25A5.07,5.07,0,0,1,555.67,85a6.14,6.14,0,0,1,.5-2.55,3.93,3.93,0,0,1,1.4-1.7,3.81,3.81,0,0,1,2.16-.61A4.51,4.51,0,0,1,561.24,80.38Z" style="fill:#7a40c6"/><path d="M566.39,76.27a1.06,1.06,0,0,1,.32.78,1,1,0,0,1-.32.78,1.16,1.16,0,0,1-.83.3,1.13,1.13,0,0,1-.81-.3,1,1,0,0,1-.32-.78,1.06,1.06,0,0,1,.32-.78,1.13,1.13,0,0,1,.81-.31A1.17,1.17,0,0,1,566.39,76.27Zm0,4.08V89.5h-1.62V80.35Z" style="fill:#7a40c6"/><path d="M576.54,81.43a5.26,5.26,0,0,1,1.08,3.49,6,6,0,0,1-.49,2.51,3.87,3.87,0,0,1-1.43,1.68,4,4,0,0,1-2.22.6,3.78,3.78,0,0,1-3.05-1.29,5.19,5.19,0,0,1-1.09-3.49,6,6,0,0,1,.49-2.5,3.78,3.78,0,0,1,1.43-1.69,4.05,4.05,0,0,1,2.24-.6A3.77,3.77,0,0,1,576.54,81.43Zm-5.46,3.5c0,2.33.8,3.49,2.4,3.49s2.4-1.16,2.4-3.5-.8-3.49-2.38-3.49S571.08,82.6,571.08,84.93Z" style="fill:#7a40c6"/><path d="M171.9,64.59V59h-5.11v5.61h-1.68v-12h1.68v5h5.11v-5h1.67v12Z" style="fill:#7a40c6"/><path d="M178.51,51.36a1.06,1.06,0,0,1,.32.78,1,1,0,0,1-.32.78,1.16,1.16,0,0,1-.83.3,1.13,1.13,0,0,1-.81-.3,1,1,0,0,1-.32-.78,1.06,1.06,0,0,1,.32-.78,1.09,1.09,0,0,1,.81-.31A1.12,1.12,0,0,1,178.51,51.36Zm0,4.08v9.15h-1.62V55.44Z" style="fill:#7a40c6"/><path d="M189,56.48a6.4,6.4,0,0,1,.83,3.53,5.84,5.84,0,0,1-1,3.47,3.14,3.14,0,0,1-2.7,1.32,3,3,0,0,1-2.43-1v4.33l-1.63.2V55.44h1.4l.12,1.23a3.55,3.55,0,0,1,1.23-1.06,3.29,3.29,0,0,1,1.52-.38A2.91,2.91,0,0,1,189,56.48ZM188.08,60c0-2.34-.7-3.51-2.09-3.51a2.12,2.12,0,0,0-1.26.4,4.15,4.15,0,0,0-1,1v4.46a2.33,2.33,0,0,0,.88.83,2.4,2.4,0,0,0,1.16.29C187.32,63.5,188.08,62.33,188.08,60Z" style="fill:#7a40c6"/><path d="M199,56.52A5.24,5.24,0,0,1,200.07,60a5.93,5.93,0,0,1-.49,2.5,3.84,3.84,0,0,1-1.43,1.69,4,4,0,0,1-2.22.6,3.78,3.78,0,0,1-3.05-1.29A5.19,5.19,0,0,1,191.79,60a6,6,0,0,1,.49-2.5,3.78,3.78,0,0,1,1.43-1.69,4.05,4.05,0,0,1,2.24-.6A3.77,3.77,0,0,1,199,56.52ZM193.53,60c0,2.33.8,3.49,2.4,3.49s2.4-1.17,2.4-3.5-.8-3.49-2.38-3.49S193.53,57.69,193.53,60Z" style="fill:#7a40c6"/><path d="M207.51,55.47a4.19,4.19,0,0,1,1.32.75l-.77,1a4.09,4.09,0,0,0-1-.51,3.15,3.15,0,0,0-1-.17,2,2,0,0,0-1.75.89,4.5,4.5,0,0,0-.63,2.62,4.29,4.29,0,0,0,.62,2.56,2.06,2.06,0,0,0,1.76.82,3,3,0,0,0,1-.16,5,5,0,0,0,1-.53l.74,1a4.45,4.45,0,0,1-2.84,1,3.76,3.76,0,0,1-3-1.25,5.14,5.14,0,0,1-1.08-3.46,6.14,6.14,0,0,1,.49-2.55,4,4,0,0,1,1.4-1.7,3.85,3.85,0,0,1,2.16-.61A4.57,4.57,0,0,1,207.51,55.47Z" style="fill:#7a40c6"/><path d="M211.47,64.27a2,2,0,0,1-.52-1.49v-11l1.62-.19V62.75a.89.89,0,0,0,.13.55.53.53,0,0,0,.45.18,1.57,1.57,0,0,0,.6-.11l.42,1.11a2.61,2.61,0,0,1-1.28.32A1.9,1.9,0,0,1,211.47,64.27Z" style="fill:#7a40c6"/><path d="M223,56.52A5.24,5.24,0,0,1,224.08,60a5.93,5.93,0,0,1-.49,2.5,3.84,3.84,0,0,1-1.43,1.69,4,4,0,0,1-2.22.6,3.78,3.78,0,0,1-3.05-1.29A5.19,5.19,0,0,1,215.8,60a6,6,0,0,1,.49-2.5,3.78,3.78,0,0,1,1.43-1.69,4.05,4.05,0,0,1,2.24-.6A3.77,3.77,0,0,1,223,56.52ZM217.54,60c0,2.33.8,3.49,2.4,3.49s2.4-1.17,2.4-3.5-.8-3.49-2.38-3.49S217.54,57.69,217.54,60Z" style="fill:#7a40c6"/><path d="M231.58,55.34l-.3,1.56a3.46,3.46,0,0,0-.82-.1,1.72,1.72,0,0,0-1.39.62,4.7,4.7,0,0,0-.83,1.94v5.23h-1.62V55.44H228l.16,1.86a3.49,3.49,0,0,1,1-1.55,2.28,2.28,0,0,1,1.48-.52A3.87,3.87,0,0,1,231.58,55.34Z" style="fill:#7a40c6"/><path d="M235.05,51.36a1.06,1.06,0,0,1,.32.78,1,1,0,0,1-.32.78,1.16,1.16,0,0,1-.83.3,1.13,1.13,0,0,1-.81-.3,1,1,0,0,1-.32-.78,1.06,1.06,0,0,1,.32-.78,1.09,1.09,0,0,1,.81-.31A1.12,1.12,0,0,1,235.05,51.36Zm0,4.08v9.15h-1.62V55.44Z" style="fill:#7a40c6"/><path d="M243.35,64.17a3.57,3.57,0,0,1-2.08.63,2.49,2.49,0,0,1-1.84-.67,2.65,2.65,0,0,1-.66-1.94V56.67h-1.63V55.44h1.63V53.38l1.62-.2v2.26h2.2l-.17,1.23h-2v5.45a1.69,1.69,0,0,0,.25,1,1.05,1.05,0,0,0,.86.32,2.59,2.59,0,0,0,1.23-.37Z" style="fill:#7a40c6"/><path d="M251.68,56.52A5.24,5.24,0,0,1,252.77,60a5.93,5.93,0,0,1-.5,2.5,3.78,3.78,0,0,1-1.43,1.69,4,4,0,0,1-2.22.6,3.79,3.79,0,0,1-3.05-1.29A5.19,5.19,0,0,1,244.48,60a6,6,0,0,1,.49-2.5,3.84,3.84,0,0,1,1.43-1.69,4.05,4.05,0,0,1,2.24-.6A3.75,3.75,0,0,1,251.68,56.52ZM246.22,60c0,2.33.8,3.49,2.4,3.49S251,62.34,251,60s-.79-3.49-2.38-3.49S246.22,57.69,246.22,60Z" style="fill:#7a40c6"/><path d="M178.93,77.52V90.35H177.5l-.16-1.27a3.42,3.42,0,0,1-1.15,1.09,3.06,3.06,0,0,1-1.53.39,3,3,0,0,1-2.58-1.29,5.76,5.76,0,0,1-.93-3.45,6.72,6.72,0,0,1,.44-2.5,3.86,3.86,0,0,1,1.27-1.71A3.17,3.17,0,0,1,174.8,81a3.35,3.35,0,0,1,2.5,1.13V77.33ZM176.28,89a3.93,3.93,0,0,0,1-1V83.46a3.53,3.53,0,0,0-1-.9,2.33,2.33,0,0,0-1.18-.3,1.88,1.88,0,0,0-1.66.88,4.74,4.74,0,0,0-.59,2.64,5.1,5.1,0,0,0,.54,2.64,1.76,1.76,0,0,0,1.57.87A2.27,2.27,0,0,0,176.28,89Z" style="fill:#7a40c6"/><path d="M189.12,86.32h-5.93a3.49,3.49,0,0,0,.78,2.22,2.23,2.23,0,0,0,1.73.71,3.78,3.78,0,0,0,1.23-.19,5.06,5.06,0,0,0,1.18-.6l.71,1a5.23,5.23,0,0,1-3.25,1.15,3.79,3.79,0,0,1-3-1.25,5.1,5.1,0,0,1-1.09-3.44,6.48,6.48,0,0,1,.47-2.53,3.94,3.94,0,0,1,1.34-1.72,3.83,3.83,0,0,1,4.89.57,5.06,5.06,0,0,1,1,3.32Q189.15,85.9,189.12,86.32ZM187.55,85A3.38,3.38,0,0,0,187,83a2,2,0,0,0-1.64-.71c-1.33,0-2.05,1-2.17,2.88h4.36Z" style="fill:#7a40c6"/><path d="M201.3,81.23a4.1,4.1,0,0,1,1.32.75l-.78,1a4.09,4.09,0,0,0-1-.51,3,3,0,0,0-1-.17,2,2,0,0,0-1.75.89,4.5,4.5,0,0,0-.63,2.62,4.31,4.31,0,0,0,.62,2.56,2.06,2.06,0,0,0,1.76.82,3,3,0,0,0,1-.16,5.59,5.59,0,0,0,1-.53l.74,1a4.47,4.47,0,0,1-2.84,1,3.73,3.73,0,0,1-3-1.25,5.14,5.14,0,0,1-1.08-3.46,6.14,6.14,0,0,1,.49-2.55,4,4,0,0,1,1.4-1.7,3.78,3.78,0,0,1,2.16-.61A4.61,4.61,0,0,1,201.3,81.23Z" style="fill:#7a40c6"/><path d="M211.28,89a1.22,1.22,0,0,0,.58.41l-.37,1.11a2.53,2.53,0,0,1-1.17-.4,1.83,1.83,0,0,1-.65-1,3.12,3.12,0,0,1-2.77,1.38,3,3,0,0,1-2.16-.77,2.64,2.64,0,0,1-.8-2A2.6,2.6,0,0,1,205,85.56a5.05,5.05,0,0,1,3-.78h1.43V84.1a1.76,1.76,0,0,0-.48-1.39,2.14,2.14,0,0,0-1.46-.42,8.4,8.4,0,0,0-2.5.49l-.41-1.16a9.4,9.4,0,0,1,3.21-.63,3.42,3.42,0,0,1,2.45.79,3,3,0,0,1,.81,2.25v4.18A1.43,1.43,0,0,0,211.28,89Zm-2.14-12.6.73,1.34-3.74,1.49-.5-.85Zm.32,11.49V85.84h-1.22c-1.71,0-2.57.62-2.57,1.87a1.66,1.66,0,0,0,.41,1.23,1.57,1.57,0,0,0,1.19.42A2.43,2.43,0,0,0,209.46,87.93Z" style="fill:#7a40c6"/><path d="M214.7,90a2.08,2.08,0,0,1-.52-1.49v-11l1.63-.19V88.51a.89.89,0,0,0,.13.55.53.53,0,0,0,.45.18,1.64,1.64,0,0,0,.6-.11l.42,1.11a2.68,2.68,0,0,1-1.29.32A1.92,1.92,0,0,1,214.7,90Z" style="fill:#7a40c6"/><path d="M224.6,81.23a4.14,4.14,0,0,1,1.33.75l-.78,1a4.09,4.09,0,0,0-1-.51,3.09,3.09,0,0,0-1-.17,2,2,0,0,0-1.76.89,4.58,4.58,0,0,0-.62,2.62,4.31,4.31,0,0,0,.61,2.56,2.08,2.08,0,0,0,1.77.82,2.91,2.91,0,0,0,1-.16,5,5,0,0,0,1-.53l.75,1a4.49,4.49,0,0,1-2.84,1,3.73,3.73,0,0,1-3-1.25A5.09,5.09,0,0,1,219,85.85a6.14,6.14,0,0,1,.5-2.55,3.86,3.86,0,0,1,1.4-1.7,3.73,3.73,0,0,1,2.16-.61A4.55,4.55,0,0,1,224.6,81.23Z" style="fill:#7a40c6"/><path d="M229.75,77.12a1.06,1.06,0,0,1,.32.78,1,1,0,0,1-.32.77,1.12,1.12,0,0,1-.83.31,1.09,1.09,0,0,1-.81-.31,1,1,0,0,1-.32-.77,1.06,1.06,0,0,1,.32-.78,1.09,1.09,0,0,1,.81-.31A1.12,1.12,0,0,1,229.75,77.12Zm0,4.08v9.15h-1.62V81.2Z" style="fill:#7a40c6"/><path d="M239.9,82.28A5.24,5.24,0,0,1,241,85.77a6,6,0,0,1-.49,2.5A3.84,3.84,0,0,1,239.06,90a4,4,0,0,1-2.22.6,3.78,3.78,0,0,1-3.05-1.29,5.19,5.19,0,0,1-1.09-3.49,6,6,0,0,1,.49-2.51,3.8,3.8,0,0,1,1.43-1.68,4.05,4.05,0,0,1,2.24-.6A3.77,3.77,0,0,1,239.9,82.28Zm-5.46,3.5c0,2.33.8,3.49,2.4,3.49s2.4-1.17,2.4-3.5-.8-3.49-2.38-3.49S234.44,83.45,234.44,85.78Z" style="fill:#7a40c6"/><path d="M371.84,52.71a5.32,5.32,0,0,1,1.52.9l-.92,1.06a3.71,3.71,0,0,0-2.34-.89,3,3,0,0,0-2.44,1.15,5.83,5.83,0,0,0-.93,3.68,5.87,5.87,0,0,0,.92,3.63,2.94,2.94,0,0,0,2.43,1.18,3.37,3.37,0,0,0,1.36-.26,7.46,7.46,0,0,0,1.23-.73l.83,1a4.46,4.46,0,0,1-1.44,1,5,5,0,0,1-2,.38,4.89,4.89,0,0,1-2.64-.72A4.67,4.67,0,0,1,365.6,62a8,8,0,0,1-.65-3.36,7.66,7.66,0,0,1,.67-3.36,4.86,4.86,0,0,1,1.82-2.11,4.75,4.75,0,0,1,2.55-.71A5.26,5.26,0,0,1,371.84,52.71Z" style="fill:#7a40c6"/><path d="M375.84,64.27a2,2,0,0,1-.52-1.48v-11l1.62-.19V62.76a.89.89,0,0,0,.13.55.52.52,0,0,0,.45.17,1.57,1.57,0,0,0,.6-.1l.42,1.11a2.61,2.61,0,0,1-1.28.31A1.86,1.86,0,0,1,375.84,64.27Z" style="fill:#7a40c6"/><path d="M387.37,56.52A5.26,5.26,0,0,1,388.45,60a6,6,0,0,1-.49,2.51,3.84,3.84,0,0,1-1.43,1.69,4.09,4.09,0,0,1-2.22.59,3.77,3.77,0,0,1-3.05-1.28A5.21,5.21,0,0,1,380.17,60a6,6,0,0,1,.49-2.51,3.8,3.8,0,0,1,1.43-1.68,4.05,4.05,0,0,1,2.24-.6A3.79,3.79,0,0,1,387.37,56.52ZM381.91,60c0,2.33.8,3.49,2.4,3.49s2.4-1.17,2.4-3.51-.8-3.49-2.38-3.49S381.91,57.69,381.91,60Z" style="fill:#7a40c6"/><path d="M396,55.34l-.3,1.57a3.5,3.5,0,0,0-.82-.11,1.73,1.73,0,0,0-1.39.63,4.58,4.58,0,0,0-.83,1.94V64.6H391V55.45h1.39l.16,1.86a3.44,3.44,0,0,1,1-1.55,2.23,2.23,0,0,1,1.48-.52A3.87,3.87,0,0,1,396,55.34Z" style="fill:#7a40c6"/><path d="M404.33,56.52A5.26,5.26,0,0,1,405.41,60a6,6,0,0,1-.49,2.51,3.84,3.84,0,0,1-1.43,1.69,4.09,4.09,0,0,1-2.22.59,3.77,3.77,0,0,1-3-1.28A5.21,5.21,0,0,1,397.13,60a6,6,0,0,1,.49-2.51,3.8,3.8,0,0,1,1.43-1.68,4.05,4.05,0,0,1,2.24-.6A3.79,3.79,0,0,1,404.33,56.52ZM398.87,60c0,2.33.8,3.49,2.4,3.49s2.4-1.17,2.4-3.51-.8-3.49-2.38-3.49S398.87,57.69,398.87,60Z" style="fill:#7a40c6"/><path d="M410.05,53.18a1.4,1.4,0,0,0-.32,1v1.27H412l-.18,1.23h-2.08V64.6h-1.62V56.68h-1.66V55.45h1.66V54.2a2.45,2.45,0,0,1,.77-1.9,3,3,0,0,1,2.14-.72,5.65,5.65,0,0,1,1.14.11,6.5,6.5,0,0,1,1.08.36l-.51,1.16a4,4,0,0,0-1.62-.35A1.46,1.46,0,0,0,410.05,53.18Z" style="fill:#7a40c6"/><path d="M420.93,56.52A5.21,5.21,0,0,1,422,60a6,6,0,0,1-.5,2.51,3.76,3.76,0,0,1-1.42,1.69,4.13,4.13,0,0,1-2.22.59,3.76,3.76,0,0,1-3.05-1.28,5.21,5.21,0,0,1-1.1-3.49,6,6,0,0,1,.5-2.51,3.78,3.78,0,0,1,1.42-1.68,4.07,4.07,0,0,1,2.24-.6A3.76,3.76,0,0,1,420.93,56.52ZM415.48,60c0,2.33.8,3.49,2.4,3.49s2.39-1.17,2.39-3.51-.79-3.49-2.38-3.49S415.48,57.69,415.48,60Zm3.79-9.34L420,52l-3.74,1.49-.49-.85Z" style="fill:#7a40c6"/><path d="M429.51,55.34l-.3,1.57a3.35,3.35,0,0,0-.81-.11,1.71,1.71,0,0,0-1.39.63,4.46,4.46,0,0,0-.83,1.94V64.6h-1.62V55.45H426l.16,1.86a3.42,3.42,0,0,1,1-1.55,2.27,2.27,0,0,1,1.48-.52A3.82,3.82,0,0,1,429.51,55.34Z" style="fill:#7a40c6"/><path d="M442.52,56a2.89,2.89,0,0,1,.69,2V64.6h-1.62V58.26c0-1.18-.44-1.77-1.31-1.77a1.77,1.77,0,0,0-1.16.39,5.38,5.38,0,0,0-1,1.22v6.5h-1.63V58.26c0-1.18-.43-1.77-1.3-1.77a1.76,1.76,0,0,0-1.18.4,5.77,5.77,0,0,0-1,1.21v6.5h-1.62V55.45h1.39l.15,1.34a3.11,3.11,0,0,1,2.68-1.55,2.48,2.48,0,0,1,1.47.43,2.45,2.45,0,0,1,.87,1.22,4.39,4.39,0,0,1,1.21-1.22,2.77,2.77,0,0,1,1.56-.43A2.34,2.34,0,0,1,442.52,56Z" style="fill:#7a40c6"/><path d="M448.52,51.37a1.06,1.06,0,0,1,.31.78,1,1,0,0,1-.31.77,1.14,1.14,0,0,1-.83.31,1.09,1.09,0,0,1-.81-.31,1,1,0,0,1-.32-.77,1,1,0,0,1,.32-.78,1.09,1.09,0,0,1,.81-.31A1.14,1.14,0,0,1,448.52,51.37Zm0,4.08V64.6h-1.63V55.45Z" style="fill:#7a40c6"/><path d="M458.66,56.52A5.26,5.26,0,0,1,459.75,60a6,6,0,0,1-.5,2.51,3.78,3.78,0,0,1-1.43,1.69,4.09,4.09,0,0,1-2.22.59,3.78,3.78,0,0,1-3.05-1.28A5.21,5.21,0,0,1,451.46,60a6,6,0,0,1,.49-2.51,3.87,3.87,0,0,1,1.43-1.68,4.05,4.05,0,0,1,2.24-.6A3.78,3.78,0,0,1,458.66,56.52ZM453.2,60c0,2.33.8,3.49,2.4,3.49S458,62.35,458,60s-.79-3.49-2.38-3.49S453.2,57.69,453.2,60Z" style="fill:#7a40c6"/><path d="M645.79,64.55V59h-5.12v5.6H639V52.6h1.67v5h5.12v-5h1.67V64.55Z" style="fill:#7a40c6"/><path d="M652.4,51.33a1.06,1.06,0,0,1,.32.78,1,1,0,0,1-.32.77,1.17,1.17,0,0,1-.83.31,1.13,1.13,0,0,1-.81-.31,1,1,0,0,1-.32-.77,1.06,1.06,0,0,1,.32-.78,1.09,1.09,0,0,1,.81-.31A1.12,1.12,0,0,1,652.4,51.33Zm0,4.08v9.14h-1.62V55.41Z" style="fill:#7a40c6"/><path d="M663.21,51.73V64.55h-1.43l-.16-1.26a3.38,3.38,0,0,1-1.15,1.08,3.06,3.06,0,0,1-1.53.39,3,3,0,0,1-2.58-1.28,5.79,5.79,0,0,1-.93-3.46,6.75,6.75,0,0,1,.44-2.5,4,4,0,0,1,1.27-1.7,3.1,3.1,0,0,1,1.94-.62,3.35,3.35,0,0,1,2.5,1.13V51.54Zm-2.65,11.43a4.1,4.1,0,0,0,1-1V57.66a3.48,3.48,0,0,0-1-.89,2.33,2.33,0,0,0-1.18-.3,1.88,1.88,0,0,0-1.66.88,4.74,4.74,0,0,0-.59,2.64,5.1,5.1,0,0,0,.54,2.64,1.76,1.76,0,0,0,1.57.87A2.33,2.33,0,0,0,660.56,63.16Z" style="fill:#7a40c6"/><path d="M671.37,55.3l-.3,1.57a3.35,3.35,0,0,0-.81-.11,1.75,1.75,0,0,0-1.4.63,4.58,4.58,0,0,0-.82,1.94v5.22h-1.63V55.41h1.4l.16,1.85a3.44,3.44,0,0,1,1-1.54,2.25,2.25,0,0,1,1.48-.52A3.82,3.82,0,0,1,671.37,55.3Z" style="fill:#7a40c6"/><path d="M679.75,56.48A5.26,5.26,0,0,1,680.83,60a6,6,0,0,1-.49,2.51,3.8,3.8,0,0,1-1.43,1.68,4,4,0,0,1-2.22.6,3.78,3.78,0,0,1-3.05-1.28A5.21,5.21,0,0,1,672.55,60a6,6,0,0,1,.49-2.51,3.87,3.87,0,0,1,1.43-1.68,4.05,4.05,0,0,1,2.24-.6A3.78,3.78,0,0,1,679.75,56.48ZM674.29,60c0,2.33.8,3.49,2.4,3.49s2.4-1.17,2.4-3.51-.79-3.49-2.38-3.49S674.29,57.65,674.29,60Zm3.79-9.34.73,1.34-3.74,1.49-.49-.85Z" style="fill:#7a40c6"/><path d="M686.93,59.66l3.23,4.89h-2l-2.27-3.87-2.31,3.87h-1.83L685,59.73l-2.87-4.32h1.9L686,58.76l2-3.35h1.83Z" style="fill:#7a40c6"/><path d="M694,51.33a1.06,1.06,0,0,1,.32.78,1,1,0,0,1-.32.77,1.17,1.17,0,0,1-.83.31,1.13,1.13,0,0,1-.81-.31,1,1,0,0,1-.32-.77,1.06,1.06,0,0,1,.32-.78,1.09,1.09,0,0,1,.81-.31A1.12,1.12,0,0,1,694,51.33Zm0,4.08v9.14h-1.62V55.41Z" style="fill:#7a40c6"/><path d="M704.76,51.73V64.55h-1.43l-.16-1.26A3.3,3.3,0,0,1,702,64.37a3,3,0,0,1-1.53.39,3,3,0,0,1-2.58-1.28A5.79,5.79,0,0,1,697,60a6.75,6.75,0,0,1,.44-2.5,4,4,0,0,1,1.27-1.7,3.12,3.12,0,0,1,1.94-.62,3.39,3.39,0,0,1,2.51,1.13V51.54Zm-2.65,11.43a4,4,0,0,0,1-1V57.66a3.65,3.65,0,0,0-1-.89,2.33,2.33,0,0,0-1.18-.3,1.88,1.88,0,0,0-1.66.88,4.74,4.74,0,0,0-.59,2.64,5.1,5.1,0,0,0,.54,2.64,1.76,1.76,0,0,0,1.57.87A2.33,2.33,0,0,0,702.11,63.16Z" style="fill:#7a40c6"/><path d="M714.5,56.48A5.26,5.26,0,0,1,715.58,60a6,6,0,0,1-.49,2.51,3.87,3.87,0,0,1-1.43,1.68,4,4,0,0,1-2.22.6,3.77,3.77,0,0,1-3.05-1.28A5.21,5.21,0,0,1,707.3,60a6,6,0,0,1,.49-2.51,3.8,3.8,0,0,1,1.43-1.68,4.05,4.05,0,0,1,2.24-.6A3.79,3.79,0,0,1,714.5,56.48ZM709,60c0,2.33.8,3.49,2.4,3.49s2.4-1.17,2.4-3.51-.8-3.49-2.38-3.49S709,57.65,709,60Z" style="fill:#7a40c6"/><path d="M651.16,77.49V90.31h-1.43l-.16-1.26a3.3,3.3,0,0,1-1.15,1.08,3.23,3.23,0,0,1-4.11-.89,5.79,5.79,0,0,1-.93-3.46,6.72,6.72,0,0,1,.44-2.5,3.93,3.93,0,0,1,1.27-1.71A3.18,3.18,0,0,1,647,81a3.35,3.35,0,0,1,2.51,1.13v-4.8Zm-2.65,11.43a4,4,0,0,0,1-1V83.42a3.65,3.65,0,0,0-1-.89,2.33,2.33,0,0,0-1.18-.31,1.89,1.89,0,0,0-1.66.89,4.82,4.82,0,0,0-.59,2.64,5.1,5.1,0,0,0,.54,2.64,1.77,1.77,0,0,0,1.57.86A2.33,2.33,0,0,0,648.51,88.92Z" style="fill:#7a40c6"/><path d="M661.35,86.29h-5.93a3.53,3.53,0,0,0,.78,2.22,2.28,2.28,0,0,0,1.73.71,3.73,3.73,0,0,0,1.23-.19,4.93,4.93,0,0,0,1.18-.61l.71,1a5.21,5.21,0,0,1-3.25,1.14,3.79,3.79,0,0,1-3-1.25,5.08,5.08,0,0,1-1.08-3.44,6.44,6.44,0,0,1,.46-2.52,4,4,0,0,1,1.34-1.73,3.88,3.88,0,0,1,4.9.57,5.13,5.13,0,0,1,1,3.32C661.38,85.74,661.37,86,661.35,86.29ZM659.78,85a3.28,3.28,0,0,0-.55-2.06,1.92,1.92,0,0,0-1.64-.72c-1.33,0-2.05,1-2.17,2.89h4.36Z" style="fill:#7a40c6"/><path d="M673.53,81.19a4.22,4.22,0,0,1,1.32.76l-.77,1a4,4,0,0,0-1-.51,3.05,3.05,0,0,0-1-.16,2,2,0,0,0-1.75.88,4.52,4.52,0,0,0-.63,2.62,4.29,4.29,0,0,0,.62,2.56,2.07,2.07,0,0,0,1.76.83,3,3,0,0,0,1-.17,5,5,0,0,0,1-.53l.74,1a4.41,4.41,0,0,1-2.84,1,3.73,3.73,0,0,1-3-1.25A5.09,5.09,0,0,1,668,85.82a6.08,6.08,0,0,1,.49-2.55,4,4,0,0,1,1.4-1.71A3.85,3.85,0,0,1,672,81,4.85,4.85,0,0,1,673.53,81.19Z" style="fill:#7a40c6"/><path d="M683.51,89a1.16,1.16,0,0,0,.58.41l-.37,1.11a2.49,2.49,0,0,1-1.16-.4,1.8,1.8,0,0,1-.66-1,3.13,3.13,0,0,1-2.76,1.37,3,3,0,0,1-2.17-.76,2.66,2.66,0,0,1-.8-2,2.62,2.62,0,0,1,1.07-2.24,5.05,5.05,0,0,1,3-.78h1.43v-.68a1.81,1.81,0,0,0-.47-1.39,2.24,2.24,0,0,0-1.47-.41,8.4,8.4,0,0,0-2.5.48l-.41-1.16a9.71,9.71,0,0,1,3.21-.62,3.36,3.36,0,0,1,2.45.79,3,3,0,0,1,.81,2.24v4.19A1.39,1.39,0,0,0,683.51,89Zm-2.13-12.59.72,1.34-3.74,1.49-.49-.85Zm.31,11.49V85.8h-1.21c-1.72,0-2.58.62-2.58,1.87a1.72,1.72,0,0,0,.41,1.24,1.63,1.63,0,0,0,1.2.41A2.42,2.42,0,0,0,681.69,87.9Z" style="fill:#7a40c6"/><path d="M686.94,90a2,2,0,0,1-.52-1.48v-11l1.62-.2V88.47a.93.93,0,0,0,.13.56.55.55,0,0,0,.45.17,1.64,1.64,0,0,0,.6-.1l.42,1.11a2.63,2.63,0,0,1-1.28.31A1.9,1.9,0,0,1,686.94,90Z" style="fill:#7a40c6"/><path d="M696.84,81.19a4.45,4.45,0,0,1,1.32.76l-.78,1a4.09,4.09,0,0,0-1-.51,3.05,3.05,0,0,0-1-.16,2,2,0,0,0-1.75.88,4.52,4.52,0,0,0-.63,2.62,4.29,4.29,0,0,0,.62,2.56,2.07,2.07,0,0,0,1.76.83,2.91,2.91,0,0,0,1-.17,4.82,4.82,0,0,0,1-.53l.74,1a4.41,4.41,0,0,1-2.84,1,3.73,3.73,0,0,1-3-1.25,5.1,5.1,0,0,1-1.09-3.45,6.07,6.07,0,0,1,.5-2.55,4,4,0,0,1,1.4-1.71,3.8,3.8,0,0,1,2.16-.6A4.89,4.89,0,0,1,696.84,81.19Z" style="fill:#7a40c6"/><path d="M702,77.09a1.1,1.1,0,0,1,0,1.55,1.14,1.14,0,0,1-.83.3,1.16,1.16,0,0,1-.81-.3,1.12,1.12,0,0,1,0-1.55,1.13,1.13,0,0,1,.81-.32A1.11,1.11,0,0,1,702,77.09Zm0,4.08v9.14h-1.62V81.17Z" style="fill:#7a40c6"/><path d="M712.13,82.24a5.26,5.26,0,0,1,1.08,3.49,6,6,0,0,1-.49,2.51,3.8,3.8,0,0,1-1.43,1.68,4,4,0,0,1-2.22.6A3.81,3.81,0,0,1,706,89.24a5.21,5.21,0,0,1-1.09-3.49,6,6,0,0,1,.49-2.51,3.87,3.87,0,0,1,1.43-1.68,4.05,4.05,0,0,1,2.24-.6A3.75,3.75,0,0,1,712.13,82.24Zm-5.46,3.51c0,2.32.8,3.49,2.4,3.49s2.4-1.17,2.4-3.51-.8-3.49-2.38-3.49S706.67,83.41,706.67,85.75Z" style="fill:#7a40c6"/></g><g id="preto"><path d="M136.57,21.62v2.6h2.58v1.32h-2.58v2.59h-1.48V25.54h-2.55V24.22h2.55v-2.6Z"/><rect x="277.94" y="24.21" width="72.19" height="0.5" style="fill:#020200"/><polygon points="345.73 21.16 354.54 24.46 345.73 27.77 347.4 24.46 345.73 21.16 345.73 21.16" style="fill-rule:evenodd"/><path d="M383.3,17.21a3.11,3.11,0,0,1,1.24,1.14A3.07,3.07,0,0,1,385,20a4.56,4.56,0,0,1-.48,2,10.59,10.59,0,0,1-1.49,2.1q-1,1.13-3.05,3.14h5.3l-.19,1.33h-7V27.32q2.37-2.41,3.35-3.54a9.45,9.45,0,0,0,1.41-2,3.78,3.78,0,0,0,.43-1.79,1.88,1.88,0,0,0-.53-1.41,1.94,1.94,0,0,0-1.41-.51,2.7,2.7,0,0,0-1.27.29,4.58,4.58,0,0,0-1.16,1l-1.06-.83a4.81,4.81,0,0,1,1.6-1.32,4.43,4.43,0,0,1,2-.43A4.11,4.11,0,0,1,383.3,17.21Z"/><path d="M398.26,16.69a5.65,5.65,0,0,1,1.53.91l-.92,1.06a3.71,3.71,0,0,0-2.34-.89,3,3,0,0,0-2.44,1.15,5.83,5.83,0,0,0-.93,3.68,5.87,5.87,0,0,0,.92,3.63,2.93,2.93,0,0,0,2.43,1.17,3.21,3.21,0,0,0,1.36-.26,6.58,6.58,0,0,0,1.23-.73l.83,1.05a4.51,4.51,0,0,1-1.45.95,5.35,5.35,0,0,1-4.66-.34A4.73,4.73,0,0,1,392,26a8,8,0,0,1-.64-3.35,7.66,7.66,0,0,1,.67-3.36,4.86,4.86,0,0,1,1.82-2.11,4.67,4.67,0,0,1,2.55-.71A5.46,5.46,0,0,1,398.26,16.69Z"/><path d="M408.71,28.58V23H403.6v5.6h-1.68V16.63h1.68v5h5.11v-5h1.67v12Z"/><path d="M419.88,16.69a5.61,5.61,0,0,1,1.52.91l-.91,1.06a3.73,3.73,0,0,0-2.35-.89,3,3,0,0,0-2.44,1.15,5.83,5.83,0,0,0-.93,3.68,5.87,5.87,0,0,0,.92,3.63,2.93,2.93,0,0,0,2.43,1.17,3.21,3.21,0,0,0,1.36-.26,6.28,6.28,0,0,0,1.23-.73l.83,1.05a4.35,4.35,0,0,1-1.44.95,5,5,0,0,1-2,.38,4.89,4.89,0,0,1-2.64-.72A4.77,4.77,0,0,1,413.64,26,7.94,7.94,0,0,1,413,22.6a7.8,7.8,0,0,1,.67-3.36,4.86,4.86,0,0,1,1.82-2.11,4.68,4.68,0,0,1,2.56-.71A5.5,5.5,0,0,1,419.88,16.69Z"/><path d="M423.88,28.26a2,2,0,0,1-.52-1.48v-11l1.62-.19V26.74a1,1,0,0,0,.13.56.52.52,0,0,0,.45.17,1.57,1.57,0,0,0,.6-.1l.42,1.11a2.61,2.61,0,0,1-1.28.31A1.88,1.88,0,0,1,423.88,28.26Z"/><path d="M433.21,24.61a2.36,2.36,0,0,1,1,.84,2.25,2.25,0,0,1,.32,1.16A1.93,1.93,0,0,1,434,28a2.46,2.46,0,0,1-1.31.73,2.42,2.42,0,0,1,1.51.66,2.07,2.07,0,0,1,.58,1.55,2.67,2.67,0,0,1-.39,1.43,2.63,2.63,0,0,1-1.1,1,3.73,3.73,0,0,1-1.67.36,3.77,3.77,0,0,1-1.55-.31,3.32,3.32,0,0,1-1.23-.92l.76-.69a3.54,3.54,0,0,0,.94.68,2.51,2.51,0,0,0,1,.22,1.9,1.9,0,0,0,1.37-.49,1.7,1.7,0,0,0,.5-1.3,1.54,1.54,0,0,0-.47-1.27,2.21,2.21,0,0,0-1.37-.37h-.69l.15-1h.47a1.76,1.76,0,0,0,1.2-.42,1.5,1.5,0,0,0,.48-1.19,1.29,1.29,0,0,0-.42-1,1.62,1.62,0,0,0-1.12-.38,2.64,2.64,0,0,0-1,.19,3.29,3.29,0,0,0-.92.63l-.67-.75a3.83,3.83,0,0,1,2.65-1.08A3.19,3.19,0,0,1,433.21,24.61Z"/><path d="M462.73,21.67v2.6h2.57v1.32h-2.57v2.59h-1.48V25.59h-2.56V24.27h2.56v-2.6Z"/><path d="M174.23,16.39a3,3,0,0,1,1.2,1.08,2.82,2.82,0,0,1,.41,1.48,2.52,2.52,0,0,1-.62,1.74,3.17,3.17,0,0,1-1.67.93,3,3,0,0,1,1.92.83,2.64,2.64,0,0,1,.74,2,3.43,3.43,0,0,1-.49,1.82,3.37,3.37,0,0,1-1.41,1.28,4.63,4.63,0,0,1-2.12.46,4.91,4.91,0,0,1-2-.39,4.34,4.34,0,0,1-1.57-1.17l1-.89a4,4,0,0,0,1.19.87,3.08,3.08,0,0,0,1.33.28,2.39,2.39,0,0,0,1.74-.62,2.18,2.18,0,0,0,.64-1.66,1.92,1.92,0,0,0-.6-1.61,2.81,2.81,0,0,0-1.75-.47h-.88l.2-1.23h.6a2.19,2.19,0,0,0,1.52-.54,1.9,1.9,0,0,0,.61-1.51,1.67,1.67,0,0,0-.53-1.29,2,2,0,0,0-1.43-.48,3.22,3.22,0,0,0-1.26.24,4.36,4.36,0,0,0-1.17.8l-.85-.95A4.85,4.85,0,0,1,172.35,16,4.18,4.18,0,0,1,174.23,16.39Z"/><path d="M189.3,15.89a5.87,5.87,0,0,1,1.53.9l-.92,1.06a3.69,3.69,0,0,0-2.34-.88,3,3,0,0,0-2.45,1.14,5.92,5.92,0,0,0-.92,3.68,5.82,5.82,0,0,0,.92,3.64,2.93,2.93,0,0,0,2.43,1.17,3.37,3.37,0,0,0,1.36-.26,7.18,7.18,0,0,0,1.23-.73l.83,1a4.53,4.53,0,0,1-1.45,1,5.12,5.12,0,0,1-2,.38,4.89,4.89,0,0,1-2.64-.72,4.78,4.78,0,0,1-1.8-2.12,8,8,0,0,1-.64-3.36,7.72,7.72,0,0,1,.67-3.36,4.82,4.82,0,0,1,1.81-2.1,4.73,4.73,0,0,1,2.56-.72A5.44,5.44,0,0,1,189.3,15.89Z"/><path d="M199.32,26.47a1.19,1.19,0,0,0,.59.41L199.54,28a2.53,2.53,0,0,1-1.17-.4,1.84,1.84,0,0,1-.65-1A3.14,3.14,0,0,1,195,28a3,3,0,0,1-2.17-.76,2.65,2.65,0,0,1-.79-2A2.62,2.62,0,0,1,193.06,23a5.05,5.05,0,0,1,3-.78h1.43v-.68a1.76,1.76,0,0,0-.48-1.39,2.21,2.21,0,0,0-1.46-.41,8.34,8.34,0,0,0-2.5.48l-.41-1.16a9.37,9.37,0,0,1,3.21-.62,3.42,3.42,0,0,1,2.45.78,3,3,0,0,1,.81,2.25v4.19A1.48,1.48,0,0,0,199.32,26.47Zm-1.81-1.1v-2.1h-1.22c-1.71,0-2.57.62-2.57,1.87a1.71,1.71,0,0,0,.4,1.24,1.63,1.63,0,0,0,1.2.41A2.42,2.42,0,0,0,197.51,25.37Z"/><path d="M205.65,13.81a22.5,22.5,0,0,0-1.45,2.39,10.4,10.4,0,0,0-.85,2.38,14.34,14.34,0,0,0-.31,3.13,14.18,14.18,0,0,0,.31,3.1,10.84,10.84,0,0,0,.85,2.41,20.61,20.61,0,0,0,1.45,2.38l-1,.7c-.77-1.09-1.37-2-1.79-2.68a10.92,10.92,0,0,1-1.06-2.52,12.35,12.35,0,0,1-.43-3.39,12.38,12.38,0,0,1,.43-3.4,11,11,0,0,1,1.06-2.51c.42-.7,1-1.6,1.79-2.69Z"/><path d="M215.15,16.33a4.81,4.81,0,0,1,1.8,2.11,8.14,8.14,0,0,1,.64,3.37,8,8,0,0,1-.64,3.33,4.84,4.84,0,0,1-1.8,2.12,4.91,4.91,0,0,1-2.69.73,5.07,5.07,0,0,1-2.69-.71,4.78,4.78,0,0,1-1.8-2.1,7.92,7.92,0,0,1-.64-3.35A7.88,7.88,0,0,1,208,18.5a4.82,4.82,0,0,1,1.81-2.15,4.9,4.9,0,0,1,2.68-.74A5,5,0,0,1,215.15,16.33ZM210,18.15a6.14,6.14,0,0,0-.88,3.68,6,6,0,0,0,.89,3.64,2.91,2.91,0,0,0,2.46,1.17q3.34,0,3.35-4.83T212.46,17A2.9,2.9,0,0,0,210,18.15Z"/><path d="M226.15,15.89a5.82,5.82,0,0,1,1.52.9l-.92,1.06a3.69,3.69,0,0,0-2.34-.88A3,3,0,0,0,222,18.11a5.85,5.85,0,0,0-.93,3.68,5.88,5.88,0,0,0,.92,3.64,2.93,2.93,0,0,0,2.43,1.17,3.37,3.37,0,0,0,1.36-.26,6.82,6.82,0,0,0,1.23-.73l.83,1a4.37,4.37,0,0,1-1.44,1,5.17,5.17,0,0,1-2,.38,4.89,4.89,0,0,1-2.64-.72,4.7,4.7,0,0,1-1.79-2.12,8,8,0,0,1-.65-3.36,7.86,7.86,0,0,1,.67-3.36,4.84,4.84,0,0,1,1.82-2.1,4.68,4.68,0,0,1,2.55-.72A5.5,5.5,0,0,1,226.15,15.89Z"/><path d="M230.15,27.46a2,2,0,0,1-.52-1.48V15l1.62-.19V25.94a.93.93,0,0,0,.13.56.55.55,0,0,0,.45.17,1.57,1.57,0,0,0,.6-.1l.42,1.11a2.61,2.61,0,0,1-1.28.31A1.92,1.92,0,0,1,230.15,27.46Z"/><path d="M236.6,15.8a11,11,0,0,1,1.06,2.51,12,12,0,0,1,.43,3.4,12,12,0,0,1-.43,3.39,10.92,10.92,0,0,1-1.06,2.52c-.42.7-1,1.59-1.79,2.68l-1-.7a20.61,20.61,0,0,0,1.45-2.38,10.84,10.84,0,0,0,.85-2.41,14.18,14.18,0,0,0,.31-3.1,14.34,14.34,0,0,0-.31-3.13,10.4,10.4,0,0,0-.85-2.38,22.5,22.5,0,0,0-1.45-2.39l1-.7C235.59,14.2,236.18,15.1,236.6,15.8Z"/><path d="M245.48,23.79A2.39,2.39,0,0,1,246.8,26a3.58,3.58,0,0,1-.38,1.59,8.2,8.2,0,0,1-1.17,1.65c-.53.59-1.33,1.42-2.4,2.47H247l-.15,1H241.4v-1c1.23-1.26,2.11-2.18,2.63-2.77a7.64,7.64,0,0,0,1.11-1.54,3,3,0,0,0,.33-1.4,1.47,1.47,0,0,0-.42-1.11,1.49,1.49,0,0,0-1.1-.4,2,2,0,0,0-1,.23,3.68,3.68,0,0,0-.92.76l-.83-.65a3.81,3.81,0,0,1,1.26-1,3.43,3.43,0,0,1,1.55-.34A3.12,3.12,0,0,1,245.48,23.79Z"/><path d="M14.76,17.21A3,3,0,0,1,16,18.35,3,3,0,0,1,16.45,20,4.57,4.57,0,0,1,16,22a10.19,10.19,0,0,1-1.49,2.1q-1,1.13-3.05,3.14h5.31l-.2,1.33h-7V27.32q2.36-2.41,3.35-3.54a9.45,9.45,0,0,0,1.41-2A3.9,3.9,0,0,0,14.75,20a1.84,1.84,0,0,0-.53-1.41,1.94,1.94,0,0,0-1.41-.51,2.73,2.73,0,0,0-1.27.29,4.76,4.76,0,0,0-1.16,1l-1.06-.83a4.84,4.84,0,0,1,1.61-1.32,4.35,4.35,0,0,1,2-.43A4,4,0,0,1,14.76,17.21Z"/><path d="M29.73,16.69a5.46,5.46,0,0,1,1.52.91l-.91,1.06A3.71,3.71,0,0,0,28,17.77a3,3,0,0,0-2.44,1.15,5.83,5.83,0,0,0-.92,3.68,5.88,5.88,0,0,0,.91,3.63A2.93,2.93,0,0,0,28,27.4a3.21,3.21,0,0,0,1.36-.26,6.64,6.64,0,0,0,1.24-.73l.82,1.05a4.35,4.35,0,0,1-1.44.95,5,5,0,0,1-2,.38,4.85,4.85,0,0,1-2.63-.72A4.73,4.73,0,0,1,23.49,26a7.94,7.94,0,0,1-.65-3.35,7.8,7.8,0,0,1,.67-3.36,4.93,4.93,0,0,1,1.82-2.11,4.7,4.7,0,0,1,2.56-.71A5.46,5.46,0,0,1,29.73,16.69Z"/><path d="M40.17,28.58V23H35.06v5.6H33.39V16.63h1.67v5h5.11v-5h1.68v12Z"/><path d="M49.14,24.61a2.33,2.33,0,0,1,.94.84,2.17,2.17,0,0,1,.33,1.16A2,2,0,0,1,49.92,28a2.46,2.46,0,0,1-1.31.73,2.44,2.44,0,0,1,1.51.66,2.11,2.11,0,0,1,.58,1.55,2.67,2.67,0,0,1-1.5,2.44,3.65,3.65,0,0,1-1.66.36A3.77,3.77,0,0,1,46,33.41a3.32,3.32,0,0,1-1.23-.92l.76-.69a3.35,3.35,0,0,0,.93.68,2.6,2.6,0,0,0,1,.22,1.9,1.9,0,0,0,1.37-.49,1.74,1.74,0,0,0,.5-1.3,1.54,1.54,0,0,0-.47-1.27,2.23,2.23,0,0,0-1.37-.37h-.7l.16-1h.47a1.76,1.76,0,0,0,1.2-.42,1.53,1.53,0,0,0,.47-1.19,1.32,1.32,0,0,0-.41-1,1.62,1.62,0,0,0-1.12-.38,2.74,2.74,0,0,0-1,.19,3.44,3.44,0,0,0-.92.63L45,25.37a3.81,3.81,0,0,1,2.64-1.08A3.2,3.2,0,0,1,49.14,24.61Z"/><path d="M60.37,16.69a5.61,5.61,0,0,1,1.52.91L61,18.66a3.71,3.71,0,0,0-2.34-.89,3,3,0,0,0-2.44,1.15,5.83,5.83,0,0,0-.93,3.68,5.87,5.87,0,0,0,.92,3.63,2.93,2.93,0,0,0,2.43,1.17A3.21,3.21,0,0,0,60,27.14a6.28,6.28,0,0,0,1.23-.73L62,27.46a4.46,4.46,0,0,1-1.44.95,5,5,0,0,1-2,.38,4.89,4.89,0,0,1-2.64-.72A4.65,4.65,0,0,1,54.13,26a7.94,7.94,0,0,1-.65-3.35,7.66,7.66,0,0,1,.67-3.36A4.86,4.86,0,0,1,56,17.13a4.67,4.67,0,0,1,2.55-.71A5.52,5.52,0,0,1,60.37,16.69Z"/><path d="M71.05,17.14a4.75,4.75,0,0,1,1.8,2.11,7.9,7.9,0,0,1,.64,3.36A7.9,7.9,0,0,1,72.85,26a4.81,4.81,0,0,1-1.8,2.11,4.91,4.91,0,0,1-2.69.73,5,5,0,0,1-2.69-.71,4.67,4.67,0,0,1-1.8-2.1,7.92,7.92,0,0,1-.64-3.35,8,8,0,0,1,.64-3.33,5.07,5.07,0,0,1,7.18-2.16ZM65.89,19A6.16,6.16,0,0,0,65,22.63a6,6,0,0,0,.89,3.65,2.93,2.93,0,0,0,2.46,1.16q3.35,0,3.35-4.83t-3.35-4.84A2.9,2.9,0,0,0,65.89,19Z"/><path d="M82.05,16.69a5.46,5.46,0,0,1,1.52.91l-.91,1.06a3.71,3.71,0,0,0-2.35-.89,3,3,0,0,0-2.44,1.15A5.83,5.83,0,0,0,77,22.6a5.88,5.88,0,0,0,.91,3.63,2.93,2.93,0,0,0,2.43,1.17,3.21,3.21,0,0,0,1.36-.26,6.64,6.64,0,0,0,1.24-.73l.82,1.05a4.35,4.35,0,0,1-1.44.95,5,5,0,0,1-2,.38,4.85,4.85,0,0,1-2.63-.72A4.73,4.73,0,0,1,75.81,26a8,8,0,0,1-.64-3.35,7.8,7.8,0,0,1,.66-3.36,4.93,4.93,0,0,1,1.82-2.11,4.73,4.73,0,0,1,2.56-.71A5.46,5.46,0,0,1,82.05,16.69Z"/><path d="M92.5,28.58V23H87.38v5.6H85.71V16.63h1.67v5H92.5v-5h1.67v12Z"/><path d="M101.16,24.61a2.33,2.33,0,0,1,.94.84,2.25,2.25,0,0,1,.32,1.16,1.93,1.93,0,0,1-.49,1.37,2.42,2.42,0,0,1-1.31.73,2.42,2.42,0,0,1,1.51.66,2.07,2.07,0,0,1,.58,1.55,2.75,2.75,0,0,1-.38,1.43,2.65,2.65,0,0,1-1.11,1,3.68,3.68,0,0,1-1.66.36A3.78,3.78,0,0,1,98,33.41a3.32,3.32,0,0,1-1.23-.92l.76-.69a3.54,3.54,0,0,0,.94.68,2.55,2.55,0,0,0,1,.22,1.88,1.88,0,0,0,1.37-.49,1.7,1.7,0,0,0,.5-1.3,1.51,1.51,0,0,0-.47-1.27,2.21,2.21,0,0,0-1.37-.37h-.69l.15-1h.47a1.76,1.76,0,0,0,1.2-.42,1.5,1.5,0,0,0,.48-1.19,1.29,1.29,0,0,0-.42-1,1.6,1.6,0,0,0-1.12-.38,2.64,2.64,0,0,0-1,.19,3.29,3.29,0,0,0-.92.63L97,25.37a3.83,3.83,0,0,1,2.65-1.08A3.26,3.26,0,0,1,101.16,24.61Z"/><path d="M617.19,21.25v2.6h2.57v1.32h-2.57v2.59h-1.48V25.17h-2.56V23.85h2.56v-2.6Z"/><path d="M499.58,18a5.65,5.65,0,0,1,1.53.91l-.92,1.06a3.71,3.71,0,0,0-2.35-.89,3,3,0,0,0-2.44,1.15,5.9,5.9,0,0,0-.92,3.68,5.88,5.88,0,0,0,.91,3.63,3,3,0,0,0,2.44,1.17,3.16,3.16,0,0,0,1.35-.26,6.64,6.64,0,0,0,1.24-.73l.83,1.05a4.51,4.51,0,0,1-1.45.95,5,5,0,0,1-2,.38,4.88,4.88,0,0,1-2.63-.72,4.73,4.73,0,0,1-1.8-2.12,8,8,0,0,1-.64-3.35,7.66,7.66,0,0,1,.67-3.36,4.84,4.84,0,0,1,1.81-2.11,4.73,4.73,0,0,1,2.56-.71A5.46,5.46,0,0,1,499.58,18Z"/><path d="M509.6,28.54a1.2,1.2,0,0,0,.58.41l-.37,1.11a2.38,2.38,0,0,1-1.16-.4,1.8,1.8,0,0,1-.65-1,3.12,3.12,0,0,1-2.77,1.37,3,3,0,0,1-2.17-.76,2.64,2.64,0,0,1-.79-2,2.6,2.6,0,0,1,1.07-2.24,5,5,0,0,1,3-.78h1.43v-.67a1.76,1.76,0,0,0-.48-1.39,2.16,2.16,0,0,0-1.46-.42,8.2,8.2,0,0,0-2.51.49l-.4-1.17a9.61,9.61,0,0,1,3.21-.62,3.37,3.37,0,0,1,2.45.79,3,3,0,0,1,.81,2.25v4.18A1.4,1.4,0,0,0,509.6,28.54Zm-1.81-1.1v-2.1h-1.22c-1.72,0-2.57.63-2.57,1.88a1.7,1.7,0,0,0,.4,1.23,1.59,1.59,0,0,0,1.2.42A2.43,2.43,0,0,0,507.79,27.44Z"/><path d="M515.93,15.88a22.5,22.5,0,0,0-1.45,2.39,10.32,10.32,0,0,0-.85,2.39,13.72,13.72,0,0,0-.31,3.12,13.68,13.68,0,0,0,.31,3.11,10.75,10.75,0,0,0,.85,2.4,20.66,20.66,0,0,0,1.45,2.39l-1,.69c-.78-1.09-1.37-2-1.79-2.68a10.92,10.92,0,0,1-1.06-2.52,11.93,11.93,0,0,1-.43-3.39,11.93,11.93,0,0,1,.43-3.39,10.92,10.92,0,0,1,1.06-2.52c.42-.7,1-1.59,1.79-2.68Z"/><path d="M524.49,18a5.65,5.65,0,0,1,1.53.91l-.92,1.06a3.71,3.71,0,0,0-2.35-.89,3,3,0,0,0-2.44,1.15,5.9,5.9,0,0,0-.92,3.68,5.88,5.88,0,0,0,.91,3.63,3,3,0,0,0,2.44,1.17,3.16,3.16,0,0,0,1.35-.26,6.64,6.64,0,0,0,1.24-.73l.83,1.05a4.51,4.51,0,0,1-1.45.95,5,5,0,0,1-2,.38,4.88,4.88,0,0,1-2.63-.72,4.73,4.73,0,0,1-1.8-2.12,8,8,0,0,1-.64-3.35,7.66,7.66,0,0,1,.67-3.36,4.84,4.84,0,0,1,1.81-2.11,4.73,4.73,0,0,1,2.56-.71A5.46,5.46,0,0,1,524.49,18Z"/><path d="M531.9,25.86a2.56,2.56,0,0,1,1,.89,2.43,2.43,0,0,1,.34,1.28,3.54,3.54,0,0,1-.38,1.59,7.47,7.47,0,0,1-1.17,1.65c-.53.6-1.33,1.42-2.4,2.47h4.17l-.15,1h-5.47v-1c1.24-1.27,2.11-2.19,2.63-2.78a7.62,7.62,0,0,0,1.11-1.53,3.11,3.11,0,0,0,.33-1.41,1.5,1.5,0,0,0-.41-1.11,1.53,1.53,0,0,0-1.11-.4,2.14,2.14,0,0,0-1,.23,3.69,3.69,0,0,0-.91.76l-.83-.65a3.73,3.73,0,0,1,1.26-1,3.56,3.56,0,0,1,1.55-.34A3.11,3.11,0,0,1,531.9,25.86Z"/><path d="M543.79,29.85v-5.6h-5.11v5.6H537v-12h1.68v5h5.11v-5h1.68v12Z"/><path d="M552.87,25.85a2.33,2.33,0,0,1,.94.84,2.25,2.25,0,0,1,.32,1.16,1.93,1.93,0,0,1-.49,1.37,2.49,2.49,0,0,1-1.31.73,2.37,2.37,0,0,1,1.51.66,2.07,2.07,0,0,1,.58,1.55,2.75,2.75,0,0,1-.38,1.43,2.72,2.72,0,0,1-1.11,1,3.68,3.68,0,0,1-1.66.36,4,4,0,0,1-1.56-.31,3.32,3.32,0,0,1-1.23-.92l.76-.7a3.37,3.37,0,0,0,.94.69,2.54,2.54,0,0,0,1,.21,1.87,1.87,0,0,0,1.37-.48,1.7,1.7,0,0,0,.5-1.3,1.5,1.5,0,0,0-.47-1.27,2.15,2.15,0,0,0-1.37-.37h-.69l.15-1h.47a1.76,1.76,0,0,0,1.2-.42,1.5,1.5,0,0,0,.48-1.19,1.29,1.29,0,0,0-.42-1,1.6,1.6,0,0,0-1.12-.38,2.64,2.64,0,0,0-1,.19,3.29,3.29,0,0,0-.92.63l-.67-.75a3.83,3.83,0,0,1,2.65-1.08A3.26,3.26,0,0,1,552.87,25.85Z"/><path d="M565,18.41a4.75,4.75,0,0,1,1.8,2.11,7.89,7.89,0,0,1,.65,3.36,7.9,7.9,0,0,1-.65,3.34,4.81,4.81,0,0,1-1.8,2.11,4.88,4.88,0,0,1-2.69.73,5,5,0,0,1-2.68-.71,4.67,4.67,0,0,1-1.8-2.1,7.88,7.88,0,0,1-.64-3.35,8,8,0,0,1,.64-3.33,4.69,4.69,0,0,1,4.48-2.88A5,5,0,0,1,565,18.41Zm-5.15,1.81A6.16,6.16,0,0,0,559,23.9a6,6,0,0,0,.89,3.65,2.92,2.92,0,0,0,2.45,1.16c2.24,0,3.35-1.61,3.35-4.83S564.57,19,562.33,19A2.89,2.89,0,0,0,559.87,20.22Z"/><path d="M575.13,25.86a2.46,2.46,0,0,1,1,.89,2.44,2.44,0,0,1,.35,1.28,3.54,3.54,0,0,1-.38,1.59,8.2,8.2,0,0,1-1.17,1.65c-.53.6-1.33,1.42-2.4,2.47h4.17l-.15,1h-5.47v-1c1.23-1.27,2.11-2.19,2.63-2.78a7.62,7.62,0,0,0,1.11-1.53,3.11,3.11,0,0,0,.33-1.41A1.47,1.47,0,0,0,574.7,27a1.49,1.49,0,0,0-1.1-.4,2.11,2.11,0,0,0-1,.23,3.91,3.91,0,0,0-.92.76l-.83-.65a3.93,3.93,0,0,1,1.26-1,3.61,3.61,0,0,1,1.56-.34A3.11,3.11,0,0,1,575.13,25.86Z"/><path d="M582,17.87a10.92,10.92,0,0,1,1.06,2.52,11.93,11.93,0,0,1,.43,3.39,11.93,11.93,0,0,1-.43,3.39A10.92,10.92,0,0,1,582,29.69c-.41.7-1,1.59-1.79,2.68l-1-.69a20.87,20.87,0,0,0,1.46-2.39,10.74,10.74,0,0,0,.84-2.4,13.68,13.68,0,0,0,.31-3.11,13.72,13.72,0,0,0-.31-3.12,10.31,10.31,0,0,0-.84-2.39,22.76,22.76,0,0,0-1.46-2.39l1-.69C581,16.28,581.59,17.17,582,17.87Z"/><path d="M589.4,25.86a2.46,2.46,0,0,1,1,.89,2.44,2.44,0,0,1,.35,1.28,3.54,3.54,0,0,1-.38,1.59,8.2,8.2,0,0,1-1.17,1.65c-.53.6-1.33,1.42-2.4,2.47h4.17l-.15,1h-5.47v-1c1.23-1.27,2.11-2.19,2.63-2.78a7.62,7.62,0,0,0,1.11-1.53,3.11,3.11,0,0,0,.33-1.41A1.47,1.47,0,0,0,589,27a1.49,1.49,0,0,0-1.1-.4,2.14,2.14,0,0,0-1,.23,3.69,3.69,0,0,0-.91.76l-.84-.65a3.93,3.93,0,0,1,1.26-1,3.61,3.61,0,0,1,1.56-.34A3.11,3.11,0,0,1,589.4,25.86Z"/><path d="M645.65,19.71a3.23,3.23,0,0,1,1.24,1.13,3.14,3.14,0,0,1,.44,1.63,4.43,4.43,0,0,1-.49,2,9.69,9.69,0,0,1-1.49,2.1c-.67.75-1.68,1.8-3.05,3.14h5.31l-.19,1.34h-7V29.81c1.58-1.61,2.69-2.79,3.35-3.53a10,10,0,0,0,1.41-2,3.84,3.84,0,0,0,.43-1.79,1.9,1.9,0,0,0-.53-1.42,2,2,0,0,0-1.41-.51,2.56,2.56,0,0,0-1.27.3,4.56,4.56,0,0,0-1.17,1l-1-.83a4.58,4.58,0,0,1,1.6-1.32,4.43,4.43,0,0,1,2-.44A4,4,0,0,1,645.65,19.71Z"/><path d="M660.61,19.19a5.36,5.36,0,0,1,1.53.9l-.92,1.06a3.71,3.71,0,0,0-2.34-.89,3,3,0,0,0-2.45,1.15,5.9,5.9,0,0,0-.92,3.68,5.86,5.86,0,0,0,.92,3.64,2.93,2.93,0,0,0,2.43,1.17,3.37,3.37,0,0,0,1.36-.26,7.89,7.89,0,0,0,1.23-.73l.83,1a4.51,4.51,0,0,1-1.45.95,5.29,5.29,0,0,1-4.66-.33,4.78,4.78,0,0,1-1.8-2.12,8,8,0,0,1-.64-3.36,7.66,7.66,0,0,1,.67-3.36,4.9,4.9,0,0,1,1.81-2.11,4.81,4.81,0,0,1,2.56-.71A5.2,5.2,0,0,1,660.61,19.19Z"/><path d="M670.63,29.77a1.17,1.17,0,0,0,.59.4l-.37,1.12a2.65,2.65,0,0,1-1.17-.4,1.87,1.87,0,0,1-.65-1,3.12,3.12,0,0,1-2.77,1.38,3,3,0,0,1-2.17-.77,2.67,2.67,0,0,1-.79-2,2.6,2.6,0,0,1,1.07-2.24,5.05,5.05,0,0,1,3-.78h1.43v-.68a1.76,1.76,0,0,0-.48-1.39,2.14,2.14,0,0,0-1.46-.42,8.4,8.4,0,0,0-2.5.49L664,22.35a9.4,9.4,0,0,1,3.21-.63,3.37,3.37,0,0,1,2.45.79,3,3,0,0,1,.81,2.25v4.18A1.52,1.52,0,0,0,670.63,29.77Zm-1.81-1.11v-2.1H667.6c-1.71,0-2.57.63-2.57,1.88a1.7,1.7,0,0,0,.4,1.23,1.59,1.59,0,0,0,1.2.42A2.43,2.43,0,0,0,668.82,28.66Z"/><path d="M677,17.1a23.55,23.55,0,0,0-1.45,2.39,10.49,10.49,0,0,0-.85,2.39,14.31,14.31,0,0,0-.31,3.12,14.28,14.28,0,0,0,.31,3.11,10.75,10.75,0,0,0,.85,2.4A20.66,20.66,0,0,0,677,32.9l-1,.69c-.77-1.08-1.37-2-1.79-2.68a11,11,0,0,1-1.06-2.51,12.38,12.38,0,0,1-.43-3.4,12.35,12.35,0,0,1,.43-3.39,10.92,10.92,0,0,1,1.06-2.52c.42-.7,1-1.59,1.79-2.68Z"/><path d="M686.46,19.63a4.75,4.75,0,0,1,1.8,2.11,8.14,8.14,0,0,1,.64,3.37,8,8,0,0,1-.64,3.33,4.89,4.89,0,0,1-1.8,2.12,5.35,5.35,0,0,1-5.38,0,4.67,4.67,0,0,1-1.8-2.1,7.88,7.88,0,0,1-.64-3.35,8,8,0,0,1,.64-3.33,4.79,4.79,0,0,1,1.81-2.14,4.93,4.93,0,0,1,2.68-.74A5,5,0,0,1,686.46,19.63Zm-5.16,1.81a6.18,6.18,0,0,0-.88,3.68,6,6,0,0,0,.89,3.65,2.93,2.93,0,0,0,2.46,1.16q3.35,0,3.35-4.82t-3.35-4.85A2.92,2.92,0,0,0,681.3,21.44Z"/><path d="M698.15,31.08V25.47H693v5.61h-1.67v-12H693v5h5.11v-5h1.68v12Z"/><path d="M705,19.09a11.37,11.37,0,0,1,1,2.52,12,12,0,0,1,.43,3.39,12,12,0,0,1-.43,3.4,11.49,11.49,0,0,1-1,2.51c-.42.7-1,1.6-1.79,2.68l-1-.69a20.87,20.87,0,0,0,1.46-2.39,10.27,10.27,0,0,0,.84-2.4,13.68,13.68,0,0,0,.31-3.11,13.72,13.72,0,0,0-.31-3.12,10,10,0,0,0-.84-2.39,23.83,23.83,0,0,0-1.46-2.39l1-.69C704,17.5,704.57,18.39,705,19.09Z"/><path d="M713.55,27.08a2.44,2.44,0,0,1,1,.9,2.37,2.37,0,0,1,.34,1.27,3.46,3.46,0,0,1-.38,1.6,7.47,7.47,0,0,1-1.17,1.65c-.53.59-1.32,1.41-2.39,2.47h4.16L714.94,36h-5.47V35c1.24-1.26,2.12-2.19,2.63-2.77a7.64,7.64,0,0,0,1.11-1.54,3.07,3.07,0,0,0,.33-1.4,1.47,1.47,0,0,0-.41-1.12,1.57,1.57,0,0,0-1.11-.4,2.14,2.14,0,0,0-1,.23,3.72,3.72,0,0,0-.91.77l-.83-.66a3.77,3.77,0,0,1,1.26-1,3.43,3.43,0,0,1,1.55-.34A3.11,3.11,0,0,1,713.55,27.08Z"/></g></g></svg>