<svg xmlns="http://www.w3.org/2000/svg" viewBox="0 0 730 556.21"><title>fig-1-4</title><g id="fig-1-4"><polyline id="roxo" points="165.28 422.26 229.58 421.51 294.12 418.78 358.67 409.8 422.97 386.63 487.51 337.29 552.06 245.34 616.35 89.35" style="fill:none;stroke:#6827ab;stroke-miterlimit:10;stroke-width:3px"/><g id="preto"><path d="M88.55,463.09a4,4,0,0,1,1.68,1.52,4,4,0,0,1,.58,2.09,3.59,3.59,0,0,1-.87,2.48,4.47,4.47,0,0,1-2.34,1.31,4.23,4.23,0,0,1,2.7,1.18,3.8,3.8,0,0,1,1,2.81,4.93,4.93,0,0,1-.69,2.58,4.8,4.8,0,0,1-2,1.81,6.56,6.56,0,0,1-3,.65,6.77,6.77,0,0,1-2.76-.56,6,6,0,0,1-2.2-1.66l1.36-1.25a5.65,5.65,0,0,0,1.66,1.23,4.44,4.44,0,0,0,1.87.39,3.32,3.32,0,0,0,2.44-.87,3.11,3.11,0,0,0,.89-2.35,2.77,2.77,0,0,0-.84-2.29,3.88,3.88,0,0,0-2.44-.66H84.44l.27-1.75h.84a3.08,3.08,0,0,0,2.14-.76,2.72,2.72,0,0,0,.85-2.14A2.33,2.33,0,0,0,87.8,465a2.85,2.85,0,0,0-2-.68,4.39,4.39,0,0,0-1.76.35,5.66,5.66,0,0,0-1.65,1.13l-1.18-1.35a6.75,6.75,0,0,1,4.71-2A5.61,5.61,0,0,1,88.55,463.09Z" style="fill:#010000"/><path d="M103.72,464.7a15,15,0,0,1,0,12.63,5,5,0,0,1-8.28,0,15,15,0,0,1,0-12.63,5,5,0,0,1,8.28,0Zm-6.52,1.19a17.23,17.23,0,0,0,0,10.25,2.58,2.58,0,0,0,4.75,0,17,17,0,0,0,0-10.24,2.58,2.58,0,0,0-4.75,0Z" style="fill:#010000"/><path d="M117.49,464.7a14.94,14.94,0,0,1,0,12.63,5,5,0,0,1-8.27,0,15,15,0,0,1,0-12.63,5,5,0,0,1,8.27,0ZM111,465.89a17.23,17.23,0,0,0,0,10.25,2.58,2.58,0,0,0,4.75,0,17,17,0,0,0,0-10.24,2.54,2.54,0,0,0-2.37-1.58A2.51,2.51,0,0,0,111,465.89Z" style="fill:#010000"/><path d="M157.31,473.37v1.79h-2.15v4.06H153v-4.06H145.9v-1.62l5-11,1.9.79-4.47,10.06H153l.19-4.43h2v4.43Z" style="fill:#010000"/><path d="M169.07,464.7a14.94,14.94,0,0,1,0,12.63,5,5,0,0,1-8.27,0,15,15,0,0,1,0-12.63,5,5,0,0,1,8.27,0Zm-6.52,1.19a17.44,17.44,0,0,0,0,10.25,2.58,2.58,0,0,0,4.76,0,17,17,0,0,0,0-10.24,2.59,2.59,0,0,0-4.76,0Z" style="fill:#010000"/><path d="M182.85,464.7a14.94,14.94,0,0,1,0,12.63,5,5,0,0,1-8.27,0,14.94,14.94,0,0,1,0-12.63,5,5,0,0,1,8.27,0Zm-6.52,1.19a17.23,17.23,0,0,0,0,10.25,2.58,2.58,0,0,0,4.76,0,17,17,0,0,0,0-10.24,2.59,2.59,0,0,0-4.76,0Z" style="fill:#010000"/><path d="M219.58,464.54h-6.44v4.85a5.71,5.71,0,0,1,2.64-.64,4.41,4.41,0,0,1,3.41,1.39,5.43,5.43,0,0,1,1.28,3.82,5.84,5.84,0,0,1-.71,2.89,5,5,0,0,1-2,2,6.27,6.27,0,0,1-3,.7,6.59,6.59,0,0,1-2.69-.53,7.17,7.17,0,0,1-2.2-1.56l1.34-1.31a5.39,5.39,0,0,0,1.63,1.17,4.45,4.45,0,0,0,1.9.38,3.18,3.18,0,0,0,2.48-1,4,4,0,0,0,.9-2.78,3.58,3.58,0,0,0-.81-2.61,3,3,0,0,0-2.2-.81,5,5,0,0,0-1.19.14,6.2,6.2,0,0,0-1.16.43H211v-8.29h8.94Z" style="fill:#010000"/><path d="M232.61,464.7a15,15,0,0,1,0,12.63,5,5,0,0,1-8.27,0,14.94,14.94,0,0,1,0-12.63,5,5,0,0,1,8.27,0Zm-6.52,1.19a17.23,17.23,0,0,0,0,10.25,2.58,2.58,0,0,0,4.75,0,17,17,0,0,0,0-10.24,2.58,2.58,0,0,0-4.75,0Z" style="fill:#010000"/><path d="M246.39,464.7a15,15,0,0,1,0,12.63,5,5,0,0,1-8.27,0,14.94,14.94,0,0,1,0-12.63,5,5,0,0,1,8.27,0Zm-6.52,1.19a17.23,17.23,0,0,0,0,10.25,2.58,2.58,0,0,0,4.75,0,17,17,0,0,0,0-10.24,2.58,2.58,0,0,0-4.75,0Z" style="fill:#010000"/><path d="M283.66,469a4.38,4.38,0,0,1,1.66,1.77,6.19,6.19,0,0,1,.61,2.88,6.58,6.58,0,0,1-.7,3.09,5.12,5.12,0,0,1-1.9,2.06,5,5,0,0,1-2.66.73,4.62,4.62,0,0,1-4.22-2.13,11.05,11.05,0,0,1-1.33-5.89,13.53,13.53,0,0,1,.75-4.71,7,7,0,0,1,2.16-3.15,5.23,5.23,0,0,1,3.33-1.12,6.07,6.07,0,0,1,3.41,1l-.89,1.5a4.8,4.8,0,0,0-2.54-.71,3.17,3.17,0,0,0-2.82,1.7,9.22,9.22,0,0,0-1.13,4.54,4.66,4.66,0,0,1,4-2.16A4.6,4.6,0,0,1,283.66,469Zm-.79,7.65a5,5,0,0,0,.77-2.93q0-3.51-2.67-3.51a3.56,3.56,0,0,0-2,.6,5.09,5.09,0,0,0-1.56,1.66,8.31,8.31,0,0,0,.86,4,2.59,2.59,0,0,0,2.4,1.28A2.53,2.53,0,0,0,282.87,476.64Z" style="fill:#010000"/><path d="M298,464.7a15,15,0,0,1,0,12.63,5,5,0,0,1-8.28,0,15,15,0,0,1,0-12.63,5,5,0,0,1,8.28,0Zm-6.52,1.19a17.23,17.23,0,0,0,0,10.25,2.58,2.58,0,0,0,4.75,0,17,17,0,0,0,0-10.24,2.58,2.58,0,0,0-4.75,0Z" style="fill:#010000"/><path d="M311.72,464.7a14.94,14.94,0,0,1,0,12.63,5,5,0,0,1-8.27,0,15,15,0,0,1,0-12.63,5,5,0,0,1,8.27,0Zm-6.52,1.19a17.44,17.44,0,0,0,0,10.25,2.58,2.58,0,0,0,4.76,0,17,17,0,0,0,0-10.24,2.59,2.59,0,0,0-4.76,0Z" style="fill:#010000"/><path d="M348.53,462.77v1.7l-6.17,15-2.08-.69,6-14.17h-7.31v-1.84Z" style="fill:#010000"/><path d="M360.29,464.7a14.94,14.94,0,0,1,0,12.63,5,5,0,0,1-8.27,0,15,15,0,0,1,0-12.63,5,5,0,0,1,8.27,0Zm-6.51,1.19a17.23,17.23,0,0,0,0,10.25,2.58,2.58,0,0,0,4.75,0,17,17,0,0,0,0-10.24,2.54,2.54,0,0,0-2.37-1.58A2.51,2.51,0,0,0,353.78,465.89Z" style="fill:#010000"/><path d="M374.07,464.7a14.94,14.94,0,0,1,0,12.63,5,5,0,0,1-8.27,0,15,15,0,0,1,0-12.63,5,5,0,0,1,8.27,0Zm-6.52,1.19a17.44,17.44,0,0,0,0,10.25,2.58,2.58,0,0,0,4.76,0,17,17,0,0,0,0-10.24,2.59,2.59,0,0,0-4.76,0Z" style="fill:#010000"/><path d="M415.1,474.82a4.16,4.16,0,0,1-.73,2.42,4.8,4.8,0,0,1-2,1.68,7.66,7.66,0,0,1-5.92,0,4.73,4.73,0,0,1-2-1.65,4.26,4.26,0,0,1-.7-2.41,4,4,0,0,1,.82-2.56,6.15,6.15,0,0,1,2.44-1.72A4.88,4.88,0,0,1,405,469a3.92,3.92,0,0,1-.63-2.23,3.72,3.72,0,0,1,.7-2.28A4.36,4.36,0,0,1,407,463a6.18,6.18,0,0,1,2.46-.5,6.37,6.37,0,0,1,2.43.47,4.33,4.33,0,0,1,1.87,1.41,3.73,3.73,0,0,1,.71,2.28,3.32,3.32,0,0,1-.69,2.11,5.92,5.92,0,0,1-2.12,1.6C413.94,471.33,415.1,472.8,415.1,474.82Zm-3.27,2.12a2.66,2.66,0,0,0,.9-2.09,2.93,2.93,0,0,0-.35-1.49,3,3,0,0,0-1.11-1.06,11.53,11.53,0,0,0-2.15-.92l-.61-.22a4.4,4.4,0,0,0-1.83,1.48,4,4,0,0,0-.59,2.23A2.58,2.58,0,0,0,407,477a4.23,4.23,0,0,0,4.85,0Zm-4.45-12.06a2.42,2.42,0,0,0-.75,1.9,2.2,2.2,0,0,0,.73,1.79,6.89,6.89,0,0,0,2.33,1.13l.42.15a4.77,4.77,0,0,0,1.61-1.35,3,3,0,0,0,.49-1.75,2.4,2.4,0,0,0-.73-1.84,2.87,2.87,0,0,0-2.06-.69A3,3,0,0,0,407.38,464.88Z" style="fill:#010000"/><path d="M427.24,464.7a15,15,0,0,1,0,12.63,5,5,0,0,1-8.28,0,15,15,0,0,1,0-12.63,5,5,0,0,1,8.28,0Zm-6.52,1.19a17.23,17.23,0,0,0,0,10.25,2.58,2.58,0,0,0,4.75,0,17,17,0,0,0,0-10.24,2.58,2.58,0,0,0-4.75,0Z" style="fill:#010000"/><path d="M441,464.7a14.94,14.94,0,0,1,0,12.63,5,5,0,0,1-8.27,0,15,15,0,0,1,0-12.63,5,5,0,0,1,8.27,0Zm-6.51,1.19a17.23,17.23,0,0,0,0,10.25,2.58,2.58,0,0,0,4.75,0,17,17,0,0,0,0-10.24,2.54,2.54,0,0,0-2.37-1.58A2.51,2.51,0,0,0,434.5,465.89Z" style="fill:#010000"/><path d="M477.52,464.23a7.31,7.31,0,0,1,1.36,4.69,13.5,13.5,0,0,1-.91,5.42,7.4,7.4,0,0,1-2.79,3.27,19.42,19.42,0,0,1-5.09,2.15l-.52-1.69a12.64,12.64,0,0,0,5.08-2.54,5.84,5.84,0,0,0,1.88-4.25,4.22,4.22,0,0,1-1.53,1.43,4.34,4.34,0,0,1-2.17.54,4.22,4.22,0,0,1-2.32-.66,4.46,4.46,0,0,1-1.64-1.84,6,6,0,0,1-.61-2.79,5.62,5.62,0,0,1,.72-2.9,5,5,0,0,1,1.91-1.89,5.54,5.54,0,0,1,2.66-.65A4.76,4.76,0,0,1,477.52,464.23Zm-.94,5.2a7.61,7.61,0,0,0-.67-3.92,2.52,2.52,0,0,0-2.31-1.19,2.74,2.74,0,0,0-2.25,1,4.17,4.17,0,0,0-.79,2.73,3.92,3.92,0,0,0,.74,2.59,2.49,2.49,0,0,0,2,.88A3.85,3.85,0,0,0,476.58,469.43Z" style="fill:#010000"/><path d="M491.14,464.7a14.94,14.94,0,0,1,0,12.63,5,5,0,0,1-8.27,0,14.94,14.94,0,0,1,0-12.63,5,5,0,0,1,8.27,0Zm-6.52,1.19a17.23,17.23,0,0,0,0,10.25,2.58,2.58,0,0,0,4.75,0,17,17,0,0,0,0-10.24,2.58,2.58,0,0,0-4.75,0Z" style="fill:#010000"/><path d="M504.92,464.7a15,15,0,0,1,0,12.63,5,5,0,0,1-8.27,0,14.94,14.94,0,0,1,0-12.63,5,5,0,0,1,8.27,0Zm-6.52,1.19a17.23,17.23,0,0,0,0,10.25,2.58,2.58,0,0,0,4.75,0,17,17,0,0,0,0-10.24,2.58,2.58,0,0,0-4.75,0Z" style="fill:#010000"/><path d="M534.94,462.77v16.45h-2.28v-14l-3.85,2.34-1-1.6,5.11-3.15Z" style="fill:#010000"/><path d="M548.68,464.7a15,15,0,0,1,0,12.63,5,5,0,0,1-8.27,0,14.94,14.94,0,0,1,0-12.63,5,5,0,0,1,8.27,0Zm-6.52,1.19a17.23,17.23,0,0,0,0,10.25,2.58,2.58,0,0,0,4.75,0,17,17,0,0,0,0-10.24,2.58,2.58,0,0,0-4.75,0Z" style="fill:#010000"/><path d="M562.46,464.7a15,15,0,0,1,0,12.63,5,5,0,0,1-8.28,0,15,15,0,0,1,0-12.63,5,5,0,0,1,8.28,0Zm-6.52,1.19a17.23,17.23,0,0,0,0,10.25,2.58,2.58,0,0,0,4.75,0,17,17,0,0,0,0-10.24,2.58,2.58,0,0,0-4.75,0Z" style="fill:#010000"/><path d="M576.24,464.7a15,15,0,0,1,0,12.63,5,5,0,0,1-8.28,0,15,15,0,0,1,0-12.63,5,5,0,0,1,8.28,0Zm-6.52,1.19a17.23,17.23,0,0,0,0,10.25,2.58,2.58,0,0,0,4.75,0,17,17,0,0,0,0-10.24,2.58,2.58,0,0,0-4.75,0Z" style="fill:#010000"/><path d="M599.24,462.77v16.45H597v-14l-3.85,2.34-1-1.6,5.11-3.15Z" style="fill:#010000"/><path d="M609.93,462.77v16.45h-2.27v-14l-3.85,2.34-1-1.6,5.11-3.15Z" style="fill:#010000"/><path d="M623.68,464.7a15,15,0,0,1,0,12.63,5,5,0,0,1-8.28,0,15,15,0,0,1,0-12.63,5,5,0,0,1,8.28,0Zm-6.52,1.19a17.23,17.23,0,0,0,0,10.25,2.58,2.58,0,0,0,4.75,0,17,17,0,0,0,0-10.24,2.58,2.58,0,0,0-4.75,0Z" style="fill:#010000"/><path d="M637.45,464.7a14.94,14.94,0,0,1,0,12.63,5,5,0,0,1-8.27,0,15,15,0,0,1,0-12.63,5,5,0,0,1,8.27,0Zm-6.51,1.19a17.23,17.23,0,0,0,0,10.25,2.58,2.58,0,0,0,4.75,0,17,17,0,0,0,0-10.24,2.54,2.54,0,0,0-2.37-1.58A2.51,2.51,0,0,0,630.94,465.89Z" style="fill:#010000"/><path d="M663.79,462.77v16.45h-2.28v-14l-3.85,2.34-1-1.6,5.12-3.15Z" style="fill:#010000"/><path d="M674.74,463.11A4.29,4.29,0,0,1,677.1,467a6.48,6.48,0,0,1-.68,2.88,14.35,14.35,0,0,1-2.09,3c-.94,1.06-2.36,2.55-4.27,4.45h7.43l-.27,1.89h-9.75v-1.79c2.2-2.28,3.77-3.95,4.69-5a14.12,14.12,0,0,0,2-2.76,5.55,5.55,0,0,0,.6-2.54,2.55,2.55,0,0,0-2.72-2.73,3.63,3.63,0,0,0-1.78.42,6.6,6.6,0,0,0-1.63,1.38L667.12,465a6.66,6.66,0,0,1,2.25-1.87,6.09,6.09,0,0,1,2.76-.62A5.58,5.58,0,0,1,674.74,463.11Z" style="fill:#010000"/><path d="M689.75,464.7a14.94,14.94,0,0,1,0,12.63,5,5,0,0,1-8.27,0,14.94,14.94,0,0,1,0-12.63,5,5,0,0,1,8.27,0Zm-6.52,1.19a17.23,17.23,0,0,0,0,10.25,2.58,2.58,0,0,0,4.76,0,17,17,0,0,0,0-10.24,2.59,2.59,0,0,0-4.76,0Z" style="fill:#010000"/><path d="M703.53,464.7a15,15,0,0,1,0,12.63,5,5,0,0,1-8.27,0,14.94,14.94,0,0,1,0-12.63,5,5,0,0,1,8.27,0ZM697,465.89a17.23,17.23,0,0,0,0,10.25,2.58,2.58,0,0,0,4.75,0,17,17,0,0,0,0-10.24,2.58,2.58,0,0,0-4.75,0Z" style="fill:#010000"/><path d="M86.9,417.18a15,15,0,0,1,0,12.63,5,5,0,0,1-8.27,0,14.94,14.94,0,0,1,0-12.63,5,5,0,0,1,8.27,0Zm-6.52,1.19a17.19,17.19,0,0,0,0,10.24,2.57,2.57,0,0,0,4.75,0,17,17,0,0,0,0-10.23,2.58,2.58,0,0,0-4.75,0Z"/><path d="M84.11,350.31a4.3,4.3,0,0,1,1.74,1.61,4.38,4.38,0,0,1,.62,2.3,6.48,6.48,0,0,1-.68,2.88,14.06,14.06,0,0,1-2.09,3c-.94,1.07-2.36,2.55-4.27,4.46h7.43l-.27,1.89H76.84v-1.8c2.2-2.27,3.77-3.94,4.69-5a13.85,13.85,0,0,0,2-2.77,5.48,5.48,0,0,0,.6-2.53,2.54,2.54,0,0,0-2.72-2.73,3.63,3.63,0,0,0-1.78.42A6.76,6.76,0,0,0,78,353.38l-1.48-1.18a6.78,6.78,0,0,1,2.25-1.87,6.22,6.22,0,0,1,2.76-.61A5.58,5.58,0,0,1,84.11,350.31Z"/><path d="M88.27,295.29v1.79H86.12v4.06h-2.2v-4.06H76.86v-1.62l5-11,1.91.79-4.47,10.06H84l.2-4.43h2v4.43Z"/><path d="M85.77,225.84a4.13,4.13,0,0,1,1.66,1.77,6.12,6.12,0,0,1,.62,2.87,6.52,6.52,0,0,1-.71,3.09,5.15,5.15,0,0,1-1.9,2.07,5,5,0,0,1-2.65.72,4.64,4.64,0,0,1-4.23-2.12,11.17,11.17,0,0,1-1.33-5.89,13.53,13.53,0,0,1,.75-4.71,7.09,7.09,0,0,1,2.16-3.15,5.18,5.18,0,0,1,3.34-1.12,6,6,0,0,1,3.41,1l-.89,1.5a4.77,4.77,0,0,0-2.55-.72,3.17,3.17,0,0,0-2.81,1.7,9.37,9.37,0,0,0-1.14,4.55,4.68,4.68,0,0,1,4-2.16A4.47,4.47,0,0,1,85.77,225.84ZM85,233.49a4.94,4.94,0,0,0,.77-2.93q0-3.52-2.67-3.52a3.58,3.58,0,0,0-2,.6,5.16,5.16,0,0,0-1.55,1.66,8.34,8.34,0,0,0,.85,4,2.63,2.63,0,0,0,2.41,1.28A2.52,2.52,0,0,0,85,233.49Z"/><path d="M88.37,166.36a4.24,4.24,0,0,1-.73,2.42,4.91,4.91,0,0,1-2,1.67,7,7,0,0,1-3,.6,6.89,6.89,0,0,1-3-.59,4.64,4.64,0,0,1-2-1.64,4.26,4.26,0,0,1-.71-2.41,4,4,0,0,1,.83-2.56,6.11,6.11,0,0,1,2.43-1.72,4.92,4.92,0,0,1-1.93-1.61,4,4,0,0,1-.63-2.23,3.75,3.75,0,0,1,.7-2.29,4.43,4.43,0,0,1,1.85-1.45,6.17,6.17,0,0,1,2.46-.49,6.41,6.41,0,0,1,2.43.47A4.24,4.24,0,0,1,87,155.94a3.65,3.65,0,0,1,.72,2.28,3.32,3.32,0,0,1-.69,2.11,6.16,6.16,0,0,1-2.12,1.6Q88.37,163.33,88.37,166.36Zm-3.27,2.11a2.63,2.63,0,0,0,.9-2.09,2.66,2.66,0,0,0-1.46-2.54,11.76,11.76,0,0,0-2.15-.93l-.62-.22A4.38,4.38,0,0,0,80,164.18a3.93,3.93,0,0,0-.6,2.23,2.61,2.61,0,0,0,.89,2.1,3.65,3.65,0,0,0,2.42.75A3.56,3.56,0,0,0,85.1,168.47Zm-4.45-12.05a2.38,2.38,0,0,0-.75,1.89,2.21,2.21,0,0,0,.73,1.8A6.89,6.89,0,0,0,83,161.24l.42.15A4.85,4.85,0,0,0,85,160a3,3,0,0,0,.5-1.75,2.42,2.42,0,0,0-.73-1.85,2.92,2.92,0,0,0-2.06-.68A3,3,0,0,0,80.65,156.42Z"/><path d="M74.35,89.06v16.45H72.08v-14L68.23,93.8l-1-1.6,5.11-3.14Z"/><path d="M88.1,91a11.73,11.73,0,0,1,1.39,6.3,11.84,11.84,0,0,1-1.39,6.33,5,5,0,0,1-8.28,0,11.84,11.84,0,0,1-1.39-6.33A11.73,11.73,0,0,1,79.82,91a5,5,0,0,1,8.28,0Zm-6.52,1.19a12.27,12.27,0,0,0-.78,5.11,12.37,12.37,0,0,0,.78,5.13,2.57,2.57,0,0,0,4.75,0,12.18,12.18,0,0,0,.79-5.13,12.11,12.11,0,0,0-.79-5.1,2.57,2.57,0,0,0-4.75,0Z"/><path d="M74.35,23.74V40.2H72.08V26.15l-3.85,2.34-1-1.6,5.11-3.15Z"/><path d="M85.31,24.09a4.43,4.43,0,0,1,1.74,1.61,4.37,4.37,0,0,1,.61,2.3A6.35,6.35,0,0,1,87,30.88a13.62,13.62,0,0,1-2.08,3q-1.41,1.6-4.27,4.45h7.43l-.27,1.9H78V38.4c2.21-2.28,3.77-3.94,4.69-5a13.55,13.55,0,0,0,2-2.77,5.5,5.5,0,0,0,.59-2.53,2.52,2.52,0,0,0-2.71-2.73,3.63,3.63,0,0,0-1.78.42,6.32,6.32,0,0,0-1.63,1.37L77.69,26a6.85,6.85,0,0,1,2.24-1.87,6.16,6.16,0,0,1,2.77-.61A5.46,5.46,0,0,1,85.31,24.09Z"/><path d="M681.28,455.28h-.75v-9.22h.75Zm-32.28,0h-.75v-5H649Zm-32.27,0H616v-9.22h.75Zm-32,0H584v-5h.75Zm-32.27,0h-.75v-9.22h.75Zm-32.27,0h-.75v-5h.75Zm-32.27,0h-.75v-9.22h.75Zm-32.28,0h-.75v-5h.75Zm-32.27,0h-.75v-9.22h.75Zm-32,0h-.75v-5h.75Zm-32.28,0h-.75v-9.22H359Zm-32.27,0H326v-5h.75Zm-32.27,0h-.75v-9.22h.75Zm-32.28,0h-.75v-5h.75Zm-32.27,0h-.75v-9.22H230Zm-32,0h-.75v-5h.75Zm-32.27,0h-.75v-9.22h.75Zm-32.28,0h-.75v-5h.75Zm-32.27,0h-.75v-9.22h.75Z" style="fill:#010000"/><rect x="100.4" y="454.57" width="580.84" height="0.67" style="fill:#010000"/><polygon points="101.23 455.4 100.23 455.4 100.23 30.29 681.4 30.29 681.4 39.75 680.4 39.75 680.4 31.29 616.85 31.29 616.85 39.75 615.85 39.75 615.85 31.29 552.56 31.29 552.56 39.75 551.56 39.75 551.56 31.29 488.01 31.29 488.01 39.75 487.01 39.75 487.01 31.29 423.47 31.29 423.47 39.75 422.47 39.75 422.47 31.29 359.17 31.29 359.17 39.75 358.17 39.75 358.17 31.29 294.62 31.29 294.62 39.75 293.62 39.75 293.62 31.29 230.07 31.29 230.07 39.75 229.07 39.75 229.07 31.29 165.78 31.29 165.78 39.75 164.78 39.75 164.78 31.29 101.23 31.29 101.23 62.93 105.48 62.93 105.48 63.93 101.23 63.93 101.23 95.57 109.74 95.57 109.74 96.57 101.23 96.57 101.23 128.21 105.48 128.21 105.48 129.21 101.23 129.21 101.23 160.86 109.74 160.86 109.74 161.86 101.23 161.86 101.23 193.51 105.48 193.51 105.48 194.51 101.23 194.51 101.23 226.15 109.74 226.15 109.74 227.15 101.23 227.15 101.23 258.54 105.48 258.54 105.48 259.54 101.23 259.54 101.23 291.19 109.74 291.19 109.74 292.19 101.23 292.19 101.23 323.83 105.48 323.83 105.48 324.83 101.23 324.83 101.23 356.48 109.74 356.48 109.74 357.48 101.23 357.48 101.23 389.12 105.48 389.12 105.48 390.12 101.23 390.12 101.23 421.76 109.74 421.76 109.74 422.76 101.23 422.76 101.23 455.4" style="fill:#010000"/><polygon points="681.4 455.4 680.4 455.4 680.4 422.76 671.89 422.76 671.89 421.76 680.4 421.76 680.4 357.48 671.89 357.48 671.89 356.48 680.4 356.48 680.4 292.19 671.89 292.19 671.89 291.19 680.4 291.19 680.4 227.15 671.89 227.15 671.89 226.15 680.4 226.15 680.4 161.86 671.89 161.86 671.89 160.86 680.4 160.86 680.4 96.57 671.89 96.57 671.89 95.57 680.4 95.57 680.4 31.29 671.89 31.29 671.89 30.29 681.4 30.29 681.4 455.4" style="fill:#010000"/><path d="M276.87,512.24l-.29,2.35H271v17.63h-2.76V514.59H262.6v-2.35Z" style="fill:#1d1d1b"/><path d="M291.4,525.49h-9.75a5.94,5.94,0,0,0,1.28,3.71,3.7,3.7,0,0,0,2.84,1.19,6.31,6.31,0,0,0,2-.32,8,8,0,0,0,1.94-1l1.16,1.59a8.41,8.41,0,0,1-5.33,1.92,6.21,6.21,0,0,1-5-2.09,8.55,8.55,0,0,1-1.78-5.74,10.88,10.88,0,0,1,.77-4.22,6.67,6.67,0,0,1,2.2-2.89,6.27,6.27,0,0,1,8.05,1,8.56,8.56,0,0,1,1.62,5.54C291.45,524.57,291.43,525,291.4,525.49Zm-2.59-2.15a5.67,5.67,0,0,0-.9-3.45,3.15,3.15,0,0,0-2.69-1.19q-3.29,0-3.57,4.82h7.16Z" style="fill:#1d1d1b"/><path d="M314.07,517.85a4.89,4.89,0,0,1,1.13,3.41v11h-2.66V521.63c0-2-.72-3-2.15-3a2.86,2.86,0,0,0-1.91.65,8.75,8.75,0,0,0-1.69,2v10.85h-2.66V521.63c0-2-.72-3-2.15-3a2.91,2.91,0,0,0-1.94.66,9,9,0,0,0-1.66,2v10.85h-2.66V516.94H298l.23,2.23a5.12,5.12,0,0,1,4.41-2.58,4.05,4.05,0,0,1,2.42.72,4,4,0,0,1,1.43,2,7.19,7.19,0,0,1,2-2,4.55,4.55,0,0,1,2.57-.71A3.85,3.85,0,0,1,314.07,517.85Z" style="fill:#1d1d1b"/><path d="M331.88,518.68a10.7,10.7,0,0,1,1.36,5.88,9.83,9.83,0,0,1-1.56,5.8,5.14,5.14,0,0,1-4.44,2.21,4.92,4.92,0,0,1-4-1.74v7.25l-2.67.32V516.94h2.29l.2,2a5.93,5.93,0,0,1,2-1.78,5.38,5.38,0,0,1,2.5-.62A4.74,4.74,0,0,1,331.88,518.68Zm-1.51,5.88c0-3.9-1.15-5.86-3.45-5.86a3.47,3.47,0,0,0-2.06.67,6.63,6.63,0,0,0-1.62,1.71v7.45a4,4,0,0,0,1.45,1.38,3.87,3.87,0,0,0,1.91.48Q330.37,530.39,330.37,524.56Z" style="fill:#1d1d1b"/><path d="M349.28,525.49h-9.75a6,6,0,0,0,1.28,3.71,3.7,3.7,0,0,0,2.84,1.19,6.26,6.26,0,0,0,2-.32,8,8,0,0,0,1.94-1l1.17,1.59a8.46,8.46,0,0,1-5.34,1.92,6.17,6.17,0,0,1-5-2.09,8.56,8.56,0,0,1-1.79-5.74,10.88,10.88,0,0,1,.77-4.22,6.67,6.67,0,0,1,2.2-2.89,6.27,6.27,0,0,1,8,1,8.56,8.56,0,0,1,1.63,5.54C349.34,524.57,349.32,525,349.28,525.49Zm-2.58-2.15a5.67,5.67,0,0,0-.9-3.45,3.18,3.18,0,0,0-2.7-1.19q-3.27,0-3.57,4.82h7.17Z" style="fill:#1d1d1b"/><path d="M361.75,516.76l-.5,2.61a5.71,5.71,0,0,0-1.33-.17,2.84,2.84,0,0,0-2.29,1,7.81,7.81,0,0,0-1.36,3.25v8.73H353.6V516.94h2.29l.26,3.1a5.88,5.88,0,0,1,1.65-2.58,3.7,3.7,0,0,1,2.44-.87A6.59,6.59,0,0,1,361.75,516.76Z" style="fill:#1d1d1b"/><path d="M375.41,530a1.9,1.9,0,0,0,.95.68l-.61,1.86a4.07,4.07,0,0,1-1.91-.67,3.06,3.06,0,0,1-1.07-1.63,5.15,5.15,0,0,1-4.56,2.3,4.88,4.88,0,0,1-3.56-1.28,4.46,4.46,0,0,1-1.31-3.34,4.39,4.39,0,0,1,1.76-3.74,8.19,8.19,0,0,1,5-1.3h2.35v-1.13a3,3,0,0,0-.78-2.32,3.54,3.54,0,0,0-2.41-.7,13.54,13.54,0,0,0-4.12.81l-.67-1.94a15.57,15.57,0,0,1,5.28-1,5.51,5.51,0,0,1,4,1.32,5,5,0,0,1,1.34,3.75v7A2.34,2.34,0,0,0,375.41,530Zm-3-1.84v-3.51h-2q-4.25,0-4.24,3.13a2.9,2.9,0,0,0,.67,2.06,2.62,2.62,0,0,0,2,.69A4,4,0,0,0,372.42,528.19Z" style="fill:#1d1d1b"/><path d="M388.28,531.52a5.82,5.82,0,0,1-3.42,1.05,4,4,0,0,1-3-1.12,4.42,4.42,0,0,1-1.09-3.23V519h-2.67v-2h2.67v-3.46l2.67-.32v3.78H387l-.29,2h-3.33v9.11a2.84,2.84,0,0,0,.42,1.73,1.71,1.71,0,0,0,1.41.53,4.35,4.35,0,0,0,2-.61Z" style="fill:#1d1d1b"/><path d="M402.4,532.22h-2.29l-.2-2.38a5.78,5.78,0,0,1-2,2.07,5.37,5.37,0,0,1-2.76.66,4.08,4.08,0,0,1-3.13-1.22,4.89,4.89,0,0,1-1.13-3.45v-11h2.67v10.67a3.47,3.47,0,0,0,.55,2.22,2.26,2.26,0,0,0,1.8.65c1.49,0,2.76-.88,3.83-2.64v-10.9h2.66Z" style="fill:#1d1d1b"/><path d="M416.06,516.76l-.49,2.61a5.77,5.77,0,0,0-1.33-.17,2.84,2.84,0,0,0-2.29,1,7.8,7.8,0,0,0-1.37,3.25v8.73h-2.67V516.94h2.29l.27,3.1a5.71,5.71,0,0,1,1.65-2.58,3.7,3.7,0,0,1,2.44-.87A6.44,6.44,0,0,1,416.06,516.76Z" style="fill:#1d1d1b"/><path d="M429.72,530a1.89,1.89,0,0,0,1,.68l-.61,1.86a4.07,4.07,0,0,1-1.91-.67,3,3,0,0,1-1.08-1.63,5.12,5.12,0,0,1-4.55,2.3,4.89,4.89,0,0,1-3.57-1.28,4.45,4.45,0,0,1-1.3-3.34,4.38,4.38,0,0,1,1.75-3.74,8.22,8.22,0,0,1,5-1.3h2.34v-1.13a3,3,0,0,0-.78-2.32,3.5,3.5,0,0,0-2.41-.7,13.43,13.43,0,0,0-4.11.81l-.67-1.94a15.48,15.48,0,0,1,5.28-1,5.51,5.51,0,0,1,4,1.32,5,5,0,0,1,1.33,3.75v7A2.42,2.42,0,0,0,429.72,530Zm-3-1.84v-3.51h-2q-4.23,0-4.23,3.13a2.85,2.85,0,0,0,.67,2.06,2.61,2.61,0,0,0,2,.69A4,4,0,0,0,426.73,528.19Z" style="fill:#1d1d1b"/><path d="M449.59,508.81l2.26.53-6.7,25.89-2.29-.55Z" style="fill:#1d1d1b"/><path d="M466.59,520.62a4.44,4.44,0,0,1-1.75-1.61,4.92,4.92,0,0,1,0-5,4.37,4.37,0,0,1,1.75-1.61,5.1,5.1,0,0,1,2.34-.55,5,5,0,0,1,2.33.55,4.42,4.42,0,0,1,1.76,1.62,4.69,4.69,0,0,1,.66,2.5A4.59,4.59,0,0,1,473,519a4.34,4.34,0,0,1-1.76,1.59,5.27,5.27,0,0,1-4.67,0Zm4.14-2a3.41,3.41,0,0,0,0-4.19,2.41,2.41,0,0,0-1.8-.74,2.44,2.44,0,0,0-1.8.72,3.39,3.39,0,0,0,0,4.19,2.57,2.57,0,0,0,3.59,0Z" style="fill:#1d1d1b"/><path d="M490.66,512.35a8.86,8.86,0,0,1,2.51,1.51l-1.51,1.77a6,6,0,0,0-3.85-1.48,4.9,4.9,0,0,0-4,1.91q-1.52,1.92-1.52,6.15c0,2.75.5,4.77,1.51,6.08a4.81,4.81,0,0,0,4,2,5.34,5.34,0,0,0,2.23-.44,11.6,11.6,0,0,0,2-1.22l1.36,1.74a7.42,7.42,0,0,1-2.37,1.6,8.32,8.32,0,0,1-3.34.64,7.93,7.93,0,0,1-4.33-1.21,7.84,7.84,0,0,1-3-3.54,13.41,13.41,0,0,1-1.06-5.61,13.15,13.15,0,0,1,1.1-5.61,8.16,8.16,0,0,1,3-3.52,7.73,7.73,0,0,1,4.2-1.19A8.63,8.63,0,0,1,490.66,512.35Z" style="fill:#1d1d1b"/><path d="M22.15,269h23v3.17H25.52l3.27,5.37L26.56,279l-4.41-7.13Z" style="fill:#1d1d1b"/><path d="M17.4,253.65,18,251l30.74,8-.65,2.72Z" style="fill:#1d1d1b"/><path d="M21.46,227.72l10.85,9,12.87-9.64v4l-12.67,9.36-11-9Zm0,12.91H45.18v3.27H21.46Z" style="fill:#1d1d1b"/><path d="M39.34,215.35A8.48,8.48,0,0,1,44,214.27a7.74,7.74,0,0,1,4.59,1.24A4.09,4.09,0,0,1,50.33,219,3.92,3.92,0,0,1,49,222.22h5.74l.26,2.12H38v-1.82l1.63-.16a4.73,4.73,0,0,1-1.41-1.62,4.21,4.21,0,0,1-.49-2A3.78,3.78,0,0,1,39.34,215.35Zm4.66,1.2c-3.09,0-4.64.92-4.64,2.74a2.77,2.77,0,0,0,.53,1.64,5.21,5.21,0,0,0,1.35,1.29h5.9a3.1,3.1,0,0,0,1.47-2.67Q48.61,216.55,44,216.55Z"/></g></g></svg>