<svg xmlns="http://www.w3.org/2000/svg" viewBox="0 0 334.18 44.5"><title>fig-4-2-5</title><g id="fig-4-2-5"><g id="preto"><path d="M20.13,18.83a4.14,4.14,0,0,1,1.13.68l-.68.8a2.66,2.66,0,0,0-1.73-.67,2.21,2.21,0,0,0-1.8.86,4.41,4.41,0,0,0-.68,2.76A4.48,4.48,0,0,0,17,26a2.15,2.15,0,0,0,1.8.88,2.38,2.38,0,0,0,1-.19,5.38,5.38,0,0,0,.91-.55l.61.78a3.3,3.3,0,0,1-1.06.72,3.75,3.75,0,0,1-1.5.28,3.44,3.44,0,0,1-3.27-2.13,6,6,0,0,1-.48-2.52,5.87,5.87,0,0,1,.5-2.52,3.62,3.62,0,0,1,1.34-1.58,3.4,3.4,0,0,1,1.88-.53A3.86,3.86,0,0,1,20.13,18.83Z"/><path d="M29.39,27.76V23.55H25.62v4.21H24.38v-9h1.24v3.75h3.77V18.78h1.23v9Z"/><path d="M42.43,17.27a16.74,16.74,0,0,0-1.07,1.79,7.53,7.53,0,0,0-.62,1.79,10.22,10.22,0,0,0-.23,2.35,10.15,10.15,0,0,0,.23,2.33,7.62,7.62,0,0,0,.62,1.8,14.23,14.23,0,0,0,1.07,1.79l-.75.53c-.57-.82-1-1.49-1.32-2a7.91,7.91,0,0,1-.78-1.89,9.23,9.23,0,0,1-.32-2.54,9.25,9.25,0,0,1,.32-2.55,8.27,8.27,0,0,1,.78-1.89q.47-.78,1.32-2Z"/><path d="M49.72,21.2a3.28,3.28,0,0,1-.86.17c-.31,0-.7,0-1.15,0a1.81,1.81,0,0,1,1.21,1.74,2.2,2.2,0,0,1-.7,1.68,2.71,2.71,0,0,1-1.91.65,3,3,0,0,1-.87-.13.68.68,0,0,0-.25.28.73.73,0,0,0-.09.35q0,.57.9.57h1.09a2.92,2.92,0,0,1,1.22.24,2,2,0,0,1,.83.68A1.84,1.84,0,0,1,48.61,30a4.34,4.34,0,0,1-2.39.54,5.45,5.45,0,0,1-1.75-.23,1.66,1.66,0,0,1-.92-.68,2.3,2.3,0,0,1-.27-1.17h1.08a1.23,1.23,0,0,0,.15.65.94.94,0,0,0,.56.37,4.24,4.24,0,0,0,1.15.12,3.38,3.38,0,0,0,1.54-.26.87.87,0,0,0,.46-.81.81.81,0,0,0-.36-.72,1.77,1.77,0,0,0-1-.25H45.76a2.08,2.08,0,0,1-1.32-.37,1.16,1.16,0,0,1-.45-.93,1.24,1.24,0,0,1,.2-.66,2.12,2.12,0,0,1,.56-.56,2.1,2.1,0,0,1-.88-.77,2.13,2.13,0,0,1-.28-1.13,2.16,2.16,0,0,1,.35-1.23,2.3,2.3,0,0,1,.94-.86,3,3,0,0,1,1.35-.3,10.41,10.41,0,0,0,1.35-.06,5,5,0,0,0,.91-.2,9.21,9.21,0,0,0,.88-.36ZM45.18,22a1.86,1.86,0,0,0,0,2.24,1.36,1.36,0,0,0,1.07.42,1.34,1.34,0,0,0,1.07-.41,1.64,1.64,0,0,0,.37-1.15c0-1-.49-1.52-1.47-1.52A1.33,1.33,0,0,0,45.18,22Z"/><path d="M52.31,18.76a8.27,8.27,0,0,1,.78,1.89,8.88,8.88,0,0,1,.32,2.55,8.86,8.86,0,0,1-.32,2.54,7.91,7.91,0,0,1-.78,1.89c-.31.53-.74,1.2-1.32,2l-.75-.53a14.23,14.23,0,0,0,1.07-1.79,8.09,8.09,0,0,0,.63-1.8,10.79,10.79,0,0,0,.22-2.33,10.85,10.85,0,0,0-.22-2.35,8,8,0,0,0-.63-1.79,16.74,16.74,0,0,0-1.07-1.79l.75-.52C51.57,17.57,52,18.24,52.31,18.76Z"/><path d="M38.21,29v.75h-.89v1.69h-.91V29.77H33.49V29.1l2-4.59.79.33L34.48,29h1.94l.08-1.84h.82V29Z"/><rect x="153.41" y="23.59" width="54.21" height="0.5" style="fill:#020200"/><polygon points="202.92 21.26 209.68 23.84 202.92 26.41 204.21 23.84 202.92 21.26 202.92 21.26" style="fill-rule:evenodd"/><path d="M69.36,21.6v2h1.9v1h-1.9v1.94H68.27V24.55H66.38v-1h1.89v-2Z"/><path d="M97.28,27.13V22.92H93.5v4.21H92.27v-9H93.5v3.75h3.78V18.16h1.23v9Z"/><path d="M104.82,24.15a1.79,1.79,0,0,1,.72.67,1.82,1.82,0,0,1,.26,1,2.64,2.64,0,0,1-.29,1.19,5.26,5.26,0,0,1-.86,1.24c-.39.45-1,1.06-1.77,1.85H106l-.11.79h-4v-.74c.91-.95,1.56-1.65,1.94-2.09a5.71,5.71,0,0,0,.82-1.15,2.39,2.39,0,0,0,.25-1.05,1.16,1.16,0,0,0-.31-.84,1.13,1.13,0,0,0-.82-.3,1.44,1.44,0,0,0-.73.18,2.39,2.39,0,0,0-.68.57l-.61-.49a2.81,2.81,0,0,1,.93-.78,2.52,2.52,0,0,1,1.14-.26A2.33,2.33,0,0,1,104.82,24.15Z"/><path d="M114.78,18.54a3.59,3.59,0,0,1,1.33,1.58,6,6,0,0,1,.47,2.53,5.94,5.94,0,0,1-.47,2.5,3.57,3.57,0,0,1-1.33,1.59,3.87,3.87,0,0,1-4,0,3.51,3.51,0,0,1-1.33-1.57,6,6,0,0,1-.48-2.52,6,6,0,0,1,.48-2.5A3.45,3.45,0,0,1,112.8,18,3.6,3.6,0,0,1,114.78,18.54ZM111,19.9a4.64,4.64,0,0,0-.65,2.76A4.55,4.55,0,0,0,111,25.4a2.13,2.13,0,0,0,1.81.87q2.48,0,2.47-3.62T112.8,19A2.12,2.12,0,0,0,111,19.9Z"/><path d="M123.51,16.65a15,15,0,0,0-1.07,1.79,7.38,7.38,0,0,0-.62,1.79,10.19,10.19,0,0,0-.23,2.34,10.1,10.1,0,0,0,.23,2.33,7.86,7.86,0,0,0,.62,1.81,15,15,0,0,0,1.07,1.79l-.75.52q-.86-1.23-1.32-2a8.27,8.27,0,0,1-.78-1.89,9.25,9.25,0,0,1-.32-2.55,9.23,9.23,0,0,1,.32-2.54,7.91,7.91,0,0,1,.78-1.89c.31-.53.75-1.2,1.32-2Z"/><path d="M130.8,20.58a3.75,3.75,0,0,1-.86.17c-.31,0-.7,0-1.15,0A1.8,1.8,0,0,1,130,22.52a2.17,2.17,0,0,1-.7,1.68,2.67,2.67,0,0,1-1.91.65,2.73,2.73,0,0,1-.87-.13.68.68,0,0,0-.25.28.8.8,0,0,0-.09.36c0,.37.3.56.9.56h1.09a2.77,2.77,0,0,1,1.22.25,1.94,1.94,0,0,1,.83.68,1.71,1.71,0,0,1,.29,1,1.75,1.75,0,0,1-.82,1.55,4.34,4.34,0,0,1-2.39.54,5.45,5.45,0,0,1-1.75-.23,1.63,1.63,0,0,1-.92-.69,2.25,2.25,0,0,1-.27-1.17h1.08a1.24,1.24,0,0,0,.15.66,1,1,0,0,0,.56.36,3.82,3.82,0,0,0,1.15.13,3.23,3.23,0,0,0,1.54-.27.86.86,0,0,0,.46-.8.84.84,0,0,0-.36-.73,1.85,1.85,0,0,0-1-.25h-1.08a2,2,0,0,1-1.32-.37,1.16,1.16,0,0,1-.45-.93,1.23,1.23,0,0,1,.2-.65,1.87,1.87,0,0,1,.56-.56,2.19,2.19,0,0,1-.88-.78,2.07,2.07,0,0,1-.28-1.12,2.19,2.19,0,0,1,.35-1.24,2.22,2.22,0,0,1,.94-.85,2.91,2.91,0,0,1,1.35-.31,8.89,8.89,0,0,0,1.35-.06,5.11,5.11,0,0,0,.91-.19l.88-.36Zm-4.54.81a1.7,1.7,0,0,0-.37,1.12,1.62,1.62,0,0,0,.38,1.12,1.34,1.34,0,0,0,1.07.43,1.38,1.38,0,0,0,1.07-.41,1.67,1.67,0,0,0,.37-1.16,1.49,1.49,0,0,0-2.52-1.1Z"/><path d="M133.39,18.14a7.91,7.91,0,0,1,.78,1.89,8.86,8.86,0,0,1,.32,2.54,8.88,8.88,0,0,1-.32,2.55,8.27,8.27,0,0,1-.78,1.89c-.31.52-.74,1.19-1.32,2l-.75-.52a15,15,0,0,0,1.07-1.79A8.37,8.37,0,0,0,133,24.9a10.72,10.72,0,0,0,.22-2.33,10.82,10.82,0,0,0-.22-2.34,7.83,7.83,0,0,0-.63-1.79,15,15,0,0,0-1.07-1.79l.75-.53C132.65,16.94,133.08,17.61,133.39,18.14Z"/><path d="M247.15,15.92a15.85,15.85,0,0,0-1.07,1.8,7.83,7.83,0,0,0-.63,1.79,10.76,10.76,0,0,0-.22,2.34,10.72,10.72,0,0,0,.22,2.33,8.37,8.37,0,0,0,.63,1.81,15,15,0,0,0,1.07,1.79l-.75.52q-.85-1.23-1.32-2a8.27,8.27,0,0,1-.78-1.89,9,9,0,0,1-.32-2.55,9,9,0,0,1,.32-2.55,8,8,0,0,1,.78-1.88c.31-.53.75-1.2,1.32-2Z"/><path d="M254.44,19.86a4.37,4.37,0,0,1-.86.17c-.31,0-.7,0-1.15,0a1.8,1.8,0,0,1,1.21,1.73,2.2,2.2,0,0,1-.7,1.68,3.08,3.08,0,0,1-2.78.52.68.68,0,0,0-.25.28.8.8,0,0,0-.09.36c0,.37.3.56.9.56h1.09a2.77,2.77,0,0,1,1.22.25,2,2,0,0,1,.83.67,1.84,1.84,0,0,1-.53,2.52,4.36,4.36,0,0,1-2.39.54,5.48,5.48,0,0,1-1.75-.22,1.68,1.68,0,0,1-.92-.69A2.25,2.25,0,0,1,248,27.1h1.08a1.24,1.24,0,0,0,.15.66,1,1,0,0,0,.56.36,4.17,4.17,0,0,0,1.15.13,3.23,3.23,0,0,0,1.54-.27.87.87,0,0,0,.46-.8.82.82,0,0,0-.36-.73,1.77,1.77,0,0,0-1-.25h-1.08a2,2,0,0,1-1.32-.37,1.16,1.16,0,0,1-.45-.93,1.21,1.21,0,0,1,.2-.65,1.87,1.87,0,0,1,.56-.56,2.19,2.19,0,0,1-.88-.78,2.09,2.09,0,0,1-.28-1.12,2.19,2.19,0,0,1,.35-1.24,2.3,2.3,0,0,1,.94-.86,3,3,0,0,1,1.35-.3,8.89,8.89,0,0,0,1.35-.06,4.29,4.29,0,0,0,.91-.2c.24-.08.53-.2.88-.35Zm-4.54.81a1.68,1.68,0,0,0-.37,1.12,1.63,1.63,0,0,0,.38,1.12,1.57,1.57,0,0,0,2.14,0,1.67,1.67,0,0,0,.37-1.16,1.49,1.49,0,0,0-2.52-1.1Z"/><path d="M257,17.42a8,8,0,0,1,.78,1.88,9,9,0,0,1,.32,2.55,9,9,0,0,1-.32,2.55,8.27,8.27,0,0,1-.78,1.89q-.46.78-1.32,2l-.75-.52A15,15,0,0,0,256,26a8.37,8.37,0,0,0,.63-1.81,10.72,10.72,0,0,0,.22-2.33,10.76,10.76,0,0,0-.22-2.34,7.83,7.83,0,0,0-.63-1.79,15.85,15.85,0,0,0-1.07-1.8l.75-.52C256.28,16.22,256.72,16.89,257,17.42Z"/><path d="M232.38,17.49a4,4,0,0,1,1.13.68l-.68.79a2.72,2.72,0,0,0-1.73-.66,2.17,2.17,0,0,0-1.8.85,4.45,4.45,0,0,0-.69,2.77,4.49,4.49,0,0,0,.68,2.73,2.16,2.16,0,0,0,1.8.87,2.41,2.41,0,0,0,1-.19,5.12,5.12,0,0,0,.91-.55l.61.78a3.24,3.24,0,0,1-1.07.72,3.67,3.67,0,0,1-1.49.29,3.57,3.57,0,0,1-2-.54,3.49,3.49,0,0,1-1.32-1.59,6,6,0,0,1-.48-2.52,5.87,5.87,0,0,1,.5-2.52,3.59,3.59,0,0,1,1.34-1.59,3.49,3.49,0,0,1,1.88-.53A3.85,3.85,0,0,1,232.38,17.49Z"/><path d="M241,17.82a3.57,3.57,0,0,1,1.32,1.58,6,6,0,0,1,.48,2.53,5.93,5.93,0,0,1-.48,2.5A3.6,3.6,0,0,1,241,26a3.89,3.89,0,0,1-4,0,3.51,3.51,0,0,1-1.33-1.57,6.19,6.19,0,0,1-.47-2.52,6.19,6.19,0,0,1,.47-2.5A3.68,3.68,0,0,1,237,17.83a3.6,3.6,0,0,1,2-.55A3.64,3.64,0,0,1,241,17.82Zm-3.81,1.36a4.72,4.72,0,0,0-.65,2.76,4.55,4.55,0,0,0,.66,2.74,2.14,2.14,0,0,0,1.81.87q2.47,0,2.47-3.62T239,18.3A2.12,2.12,0,0,0,237.17,19.18Z"/><path d="M278.41,21.19v1.95h1.9v1h-1.9v1.94h-1.09V24.13h-1.89v-1h1.89V21.19Z"/><path d="M303.52,17.87a2.14,2.14,0,0,1,.88.8,2.07,2.07,0,0,1,.31,1.11,1.88,1.88,0,0,1-.47,1.31,2.35,2.35,0,0,1-1.22.7,2.19,2.19,0,0,1,1.41.62A2,2,0,0,1,305,23.9a2.61,2.61,0,0,1-.36,1.36,2.51,2.51,0,0,1-1.05,1,3.38,3.38,0,0,1-1.56.35,3.48,3.48,0,0,1-1.45-.3,3.14,3.14,0,0,1-1.16-.87l.72-.67a2.82,2.82,0,0,0,.87.65,2.31,2.31,0,0,0,1,.21,1.73,1.73,0,0,0,1.28-.46,1.7,1.7,0,0,0,.47-1.25,1.49,1.49,0,0,0-.44-1.21,2.07,2.07,0,0,0-1.29-.35h-.65l.14-.92h.45a1.61,1.61,0,0,0,1.12-.41,1.43,1.43,0,0,0,.45-1.13,1.25,1.25,0,0,0-.39-1,1.49,1.49,0,0,0-1.05-.36,2.34,2.34,0,0,0-.93.18,3,3,0,0,0-.87.6l-.62-.71a3.52,3.52,0,0,1,2.48-1A3,3,0,0,1,303.52,17.87Z"/><path d="M312,26.41V22.2h-3.77v4.21H307v-9h1.23v3.75H312V17.44h1.24v9Z"/><path d="M318.19,23.39a1.77,1.77,0,0,1,1,1.63,2.64,2.64,0,0,1-.28,1.2,5.7,5.7,0,0,1-.86,1.24c-.39.44-1,1.06-1.77,1.85h3.08l-.11.79h-4v-.75c.91-1,1.56-1.64,1.94-2.08a6.49,6.49,0,0,0,.82-1.15,2.39,2.39,0,0,0,.24-1.06,1,1,0,0,0-1.12-1.13,1.47,1.47,0,0,0-.74.17,3,3,0,0,0-.67.57l-.61-.49a2.72,2.72,0,0,1,.93-.78,2.51,2.51,0,0,1,1.14-.25A2.32,2.32,0,0,1,318.19,23.39Z"/></g><g id="roxo"><path d="M180.85,20.43H179.2l-3.64-7.62c.05.6.09,1.15.12,1.66s0,1.12,0,1.84v4.12h-1.16v-9h1.61l3.68,7.64c0-.23-.06-.62-.1-1.19s-.07-1.08-.07-1.55v-4.9h1.16Z" style="fill:#7a40c6"/><path d="M184.58,10.5a.79.79,0,0,1,.24.59.77.77,0,0,1-.24.58.82.82,0,0,1-.61.23.81.81,0,0,1-.59-.23.77.77,0,0,1-.24-.58.79.79,0,0,1,.24-.59.81.81,0,0,1,.59-.23A.82.82,0,0,1,184.58,10.5Zm0,3.06v6.87h-1.19V13.56Z" style="fill:#7a40c6"/></g></g></svg>