<svg xmlns="http://www.w3.org/2000/svg" xmlns:xlink="http://www.w3.org/1999/xlink" viewBox="0 0 730 726.76"><defs><clipPath id="clip-path"><rect x="19.79" y="18.21" width="690.41" height="690.34" style="fill:none"/></clipPath></defs><title>fig-7-3</title><g id="fig-7-3"><g style="clip-path:url(#clip-path)"><path d="M365.05,363.41,29.91,280.14a346.26,346.26,0,0,0-10.12,83.21C19.79,554,174.35,708.55,365,708.55c185.3,0,336.48-146,344.82-329.24Z" style="fill:#6827ab"/><path d="M357.91,18.21C204.58,21.31,75.81,124.38,34.06,264.9l323.85,80.38Z" style="fill:#996ce0"/><path d="M372.77,18.24V348.07L710.2,363.63c0-.09,0-.19,0-.28,0-188.06-150.38-341-337.44-345.11" style="fill:#c4b0f4"/></g><text transform="translate(146.18 213.69)" style="font-size:27.828439712524414px;fill:#fff;font-family:FiraSans-Regular, Fira Sans">Exportações</text><text transform="translate(203.56 250.15)" style="font-size:27.828439712524414px;fill:#fff;font-family:FiraSans-Regular, Fira Sans">21</text><text transform="translate(231.38 250.15)" style="font-size:27.828439712524414px;fill:#fff;font-family:FiraSans-Regular, Fira Sans">%</text><text transform="translate(416.69 215.31)" style="font-size:27.828439712524414px;font-family:FiraSans-Regular, Fira Sans">Consumo Próprio</text><text transform="translate(486.72 249.99)" style="font-size:27.828439712524414px;font-family:FiraSans-Regular, Fira Sans">26%</text><text transform="translate(212.12 532.07)" style="font-size:27.828439712524414px;fill:#fff;font-family:FiraSans-Regular, Fira Sans">Vendas Mercado Doméstico</text><text transform="translate(333.01 566.75)" style="font-size:27.828439712524414px;fill:#fff;font-family:FiraSans-Regular, Fira Sans">53%</text></g></svg>