<svg xmlns="http://www.w3.org/2000/svg" viewBox="0 0 730 314.11"><title>fig-2-3</title><g id="fig-2-3"><path d="M152.57,190.43l84-78.56M72.1,215.35v-115m65,115h115m26.33,0h115m-105-110h115" style="fill:none;stroke:#6827ab;stroke-miterlimit:10;stroke-width:3px"/><rect x="13.9" y="64.22" width="116.41" height="80.21" rx="13.86" style="fill:#c9baf7"/><rect x="206.07" y="63.68" width="110.87" height="81.3" rx="13.86" style="fill:#c9baf7"/><rect x="206.07" y="167.15" width="110.87" height="81.3" rx="13.86" style="fill:#c9baf7"/><path d="M716.1,131.12c0,7.65-6.47,13.86-14.47,13.86H358.2c-8,0-14.47-6.21-14.47-13.86V18.4c0-7.65,6.48-13.85,14.47-13.85H701.63c8,0,14.47,6.2,14.47,13.85Z" style="fill:#c9baf7"/><path d="M716.1,284.49c0,7.65-6.47,13.86-14.47,13.86H358.2c-8,0-14.47-6.21-14.47-13.86V182.86c0-7.65,6.48-13.86,14.47-13.86H701.63c8,0,14.47,6.21,14.47,13.86Z" style="fill:#c9baf7"/><path d="M180.2,238.76c0,8.13-6.21,14.72-13.86,14.72H27.75c-7.65,0-13.85-6.59-13.85-14.72V181.87c0-8.13,6.2-14.72,13.85-14.72H166.34c7.65,0,13.86,6.59,13.86,14.72Z" style="fill:#c9baf7"/><text transform="translate(47.46 111.9)" style="font-size:20.947900772094727px;fill:#1d1d1b;font-family:FiraSans-Regular, Fira Sans">NaCl</text><text transform="translate(245.67 215.46)" style="font-size:20.947900772094727px;fill:#1d1d1b;font-family:FiraSans-Regular, Fira Sans">Cl</text><text transform="translate(263.58 220)" style="font-size:12.734439849853516px;fill:#1d1d1b;font-family:FiraSans-Regular, Fira Sans">2</text><text transform="translate(234.45 112.62)" style="font-size:20.947900772094727px;fill:#1d1d1b;font-family:FiraSans-Regular, Fira Sans">NaOH</text><text transform="translate(634.33 84.83)" style="font-size:22.8900203704834px;fill:#1d1d1b;font-family:RotisSansSerifStd, Rotis SansSerif Std"> </text><text transform="translate(41.76 205.17)" style="font-size:20.947900772094727px;fill:#1d1d1b;font-family:FiraSans-Regular, Fira Sans">Processo</text><text transform="translate(42.11 232.31)" style="font-size:20.947900772094727px;fill:#1d1d1b;font-family:FiraSans-Regular, Fira Sans">eletrolítico</text><text transform="translate(371.72 57.98)" style="font-size:20.947900772094727px;fill:#1d1d1b;font-family:FiraSans-Regular, Fira Sans">Sabão; corantes; papel; alimentos;</text><text transform="translate(371.19 83.98)" style="font-size:20.947900772094727px;fill:#1d1d1b;font-family:FiraSans-Regular, Fira Sans">borracha; produtos químicos;</text><text transform="translate(633.23 84.31)" style="font-size:22.8900203704834px;fill:#1d1d1b;font-family:RotisSansSerifStd, Rotis SansSerif Std"> </text><text transform="translate(371.19 109.97)" style="font-size:20.947900772094727px;fill:#1d1d1b;font-family:FiraSans-Regular, Fira Sans">petróleo e metalurgia</text><text transform="translate(370.96 213.72)" style="font-size:20.947900772094727px;font-family:FiraSans-Regular, Fira Sans">Polpa e papel; solventes;<tspan x="0" y="27.31">plásticos; pesticidas; produtos</tspan><tspan x="0" y="54.63">sanitários; fluidos de refrigeração</tspan></text></g></svg>