<svg xmlns="http://www.w3.org/2000/svg" viewBox="0 0 336.82 728.89"><title>fig-1-5</title><g id="fig-1-5"><g id="roxo"><rect x="68.97" y="484.2" width="114.94" height="6.19" style="fill:#996ce0"></rect><rect x="69.14" y="451.65" width="114.94" height="6.19" style="fill:#996ce0"></rect><rect x="68.68" y="617.34" width="114.94" height="6.19" style="fill:#996ce0"></rect><rect x="68.51" y="649.89" width="114.94" height="6.19" style="fill:#996ce0"></rect><rect x="68.17" y="297.25" width="114.94" height="6.19" style="fill:#996ce0"></rect><rect x="69" y="329.81" width="114.94" height="6.19" style="fill:#996ce0"></rect><rect x="68.46" y="125.22" width="114.94" height="6.19" style="fill:#996ce0"></rect><rect x="68.29" y="157.77" width="114.94" height="6.19" style="fill:#996ce0"></rect><path d="M233.49,185.94a29.81,29.81,0,0,1-3.05-1.12v3.8a29.13,29.13,0,0,1,3.05-1.13,21.43,21.43,0,0,1,3.32-.77,21.67,21.67,0,0,1-3.32-.78" style="fill:#6827ab"></path><rect x="189.94" y="186.34" width="41.77" height="0.75" style="fill:#6827ab"></rect><path d="M233.49,360.86a29.81,29.81,0,0,1-3.05-1.12v3.8a27.47,27.47,0,0,1,3.05-1.12,22.94,22.94,0,0,1,3.32-.78,21.67,21.67,0,0,1-3.32-.78" style="fill:#6827ab"></path><rect x="189.94" y="361.26" width="41.77" height="0.75" style="fill:#6827ab"></rect><path d="M233.49,517.8a32.39,32.39,0,0,1-3.05-1.12v3.79a29.74,29.74,0,0,1,3.05-1.12,21.43,21.43,0,0,1,3.32-.77,22.94,22.94,0,0,1-3.32-.78" style="fill:#6827ab"></path><rect x="189.94" y="518.2" width="41.77" height="0.75" style="fill:#6827ab"></rect><path d="M233.49,680.92a29.81,29.81,0,0,1-3.05-1.12v3.8a29.13,29.13,0,0,1,3.05-1.13,22.67,22.67,0,0,1,3.32-.77,21.67,21.67,0,0,1-3.32-.78" style="fill:#6827ab"></path><rect x="189.94" y="681.32" width="41.77" height="0.75" style="fill:#6827ab"></rect><path d="M248.74,182a4.74,4.74,0,0,1,1.33.85l-.73.81a3.88,3.88,0,0,0-1.07-.63,3,3,0,0,0-1.12-.21,2.12,2.12,0,0,0-1.25.35,1.19,1.19,0,0,0-.49,1,1.37,1.37,0,0,0,.17.7,1.52,1.52,0,0,0,.62.53,8.1,8.1,0,0,0,1.32.5,9.1,9.1,0,0,1,1.51.6,2.63,2.63,0,0,1,1,.89,2.57,2.57,0,0,1,.37,1.44,2.72,2.72,0,0,1-.41,1.48,2.82,2.82,0,0,1-1.19,1,4.39,4.39,0,0,1-1.85.36,4.48,4.48,0,0,1-3.27-1.24l.73-.81a5,5,0,0,0,1.19.72,3.59,3.59,0,0,0,1.34.24,2.46,2.46,0,0,0,1.49-.44,1.5,1.5,0,0,0,.58-1.28,1.57,1.57,0,0,0-.18-.79,1.65,1.65,0,0,0-.62-.57,6.56,6.56,0,0,0-1.28-.5,5.6,5.6,0,0,1-2.17-1.08,2.2,2.2,0,0,1-.69-1.71,2.26,2.26,0,0,1,.39-1.3,2.58,2.58,0,0,1,1.07-.9,3.81,3.81,0,0,1,1.58-.32A4.53,4.53,0,0,1,248.74,182Z" style="fill:#6827ab"></path><path d="M257.39,190.48a1.07,1.07,0,0,0,.46.33l-.29.89a1.86,1.86,0,0,1-.92-.32,1.44,1.44,0,0,1-.52-.78,2.5,2.5,0,0,1-2.2,1.1,2.35,2.35,0,0,1-1.72-.61,2.15,2.15,0,0,1-.63-1.61,2.1,2.1,0,0,1,.85-1.81,3.94,3.94,0,0,1,2.4-.63H256v-.54a1.43,1.43,0,0,0-.38-1.13,1.73,1.73,0,0,0-1.16-.33,6.58,6.58,0,0,0-2,.39l-.32-.94a7.52,7.52,0,0,1,2.55-.5,2.61,2.61,0,0,1,1.94.64,2.43,2.43,0,0,1,.65,1.81v3.37A1.21,1.21,0,0,0,257.39,190.48Zm-1.44-.89V187.9h-1c-1.37,0-2.05.5-2.05,1.51a1.39,1.39,0,0,0,.32,1,1.3,1.3,0,0,0,1,.34A1.93,1.93,0,0,0,256,189.59Z" style="fill:#6827ab"></path><path d="M261.64,180.32l.57,1.08-3,1.2-.39-.68Zm-.47,3.84v7.38h-1.28v-7.38Z" style="fill:#6827ab"></path><path d="M269.55,181.19v10.35h-1.14l-.12-1a2.72,2.72,0,0,1-.91.88,2.43,2.43,0,0,1-1.22.31,2.36,2.36,0,0,1-2.05-1,4.73,4.73,0,0,1-.74-2.79,5.42,5.42,0,0,1,.35-2,3.07,3.07,0,0,1,1-1.38,2.43,2.43,0,0,1,1.54-.5,2.64,2.64,0,0,1,2,.91V181Zm-2.1,9.22a3.16,3.16,0,0,0,.81-.82V186a2.74,2.74,0,0,0-.78-.72,1.73,1.73,0,0,0-.93-.25,1.48,1.48,0,0,0-1.32.72,3.81,3.81,0,0,0-.47,2.12,4.12,4.12,0,0,0,.43,2.13,1.39,1.39,0,0,0,1.25.7A1.84,1.84,0,0,0,267.45,190.41Z" style="fill:#6827ab"></path><path d="M277.33,190.48a1,1,0,0,0,.46.33l-.29.89a1.9,1.9,0,0,1-.93-.32,1.49,1.49,0,0,1-.51-.78,2.5,2.5,0,0,1-2.2,1.1,2.35,2.35,0,0,1-1.72-.61,2.15,2.15,0,0,1-.63-1.61,2.12,2.12,0,0,1,.84-1.81,4,4,0,0,1,2.4-.63h1.14v-.54a1.47,1.47,0,0,0-.38-1.13,1.73,1.73,0,0,0-1.16-.33,6.53,6.53,0,0,0-2,.39l-.32-.94a7.52,7.52,0,0,1,2.55-.5,2.64,2.64,0,0,1,1.94.64,2.42,2.42,0,0,1,.64,1.81v3.37A1.2,1.2,0,0,0,277.33,190.48Zm-1.44-.89V187.9h-1c-1.36,0-2,.5-2,1.51a1.39,1.39,0,0,0,.32,1,1.28,1.28,0,0,0,.95.34A1.94,1.94,0,0,0,275.89,189.59Z" style="fill:#6827ab"></path><path d="M288.58,184.59a2.3,2.3,0,0,1,.57,1.65v5.3h-1.29v-5.11a1.6,1.6,0,0,0-.3-1.11,1.07,1.07,0,0,0-.86-.32,1.7,1.7,0,0,0-1,.33,3.56,3.56,0,0,0-.84,1v5.24h-1.29v-7.38h1.11l.11,1.09a2.93,2.93,0,0,1,1-.92A2.48,2.48,0,0,1,287,184,2.08,2.08,0,0,1,288.58,184.59Z" style="fill:#6827ab"></path><path d="M295.92,182.67a3.57,3.57,0,0,1,0,4.27,2.51,2.51,0,0,1-2,.8,2.6,2.6,0,0,1-2-.78,3.11,3.11,0,0,1-.71-2.15,3,3,0,0,1,.73-2.12,2.93,2.93,0,0,1,4,0Zm-4.65,8.87v-1.08h5.27v1.08Zm1.25-6.73c0,1.31.46,2,1.39,2s1.38-.66,1.38-2a2.55,2.55,0,0,0-.34-1.48,1.18,1.18,0,0,0-1-.48C293,182.85,292.52,183.51,292.52,184.81Z" style="fill:#6827ab"></path><path d="M305.64,182.17v9.37h-1.29v-8l-2.18,1.33-.56-.91,2.89-1.79Z" style="fill:#6827ab"></path><path d="M248.74,357a4.48,4.48,0,0,1,1.33.84l-.73.82a3.93,3.93,0,0,0-1.07-.64,3,3,0,0,0-1.13-.21,2,2,0,0,0-1.24.36,1.16,1.16,0,0,0-.49,1,1.37,1.37,0,0,0,.17.7,1.45,1.45,0,0,0,.62.53,7.26,7.26,0,0,0,1.32.5,9.1,9.1,0,0,1,1.51.6,2.71,2.71,0,0,1,1,.89,2.57,2.57,0,0,1,.37,1.44,2.72,2.72,0,0,1-.41,1.48,2.82,2.82,0,0,1-1.19,1,4.39,4.39,0,0,1-1.85.37,4.49,4.49,0,0,1-3.27-1.25l.73-.81a4.67,4.67,0,0,0,1.19.72,3.59,3.59,0,0,0,1.34.24,2.35,2.35,0,0,0,1.48-.44,1.48,1.48,0,0,0,.59-1.28,1.57,1.57,0,0,0-.18-.79,1.65,1.65,0,0,0-.62-.57,7.26,7.26,0,0,0-1.28-.5,5.6,5.6,0,0,1-2.17-1.08,2.2,2.2,0,0,1-.69-1.71,2.26,2.26,0,0,1,.39-1.3,2.58,2.58,0,0,1,1.07-.9,3.81,3.81,0,0,1,1.58-.32A4.32,4.32,0,0,1,248.74,357Z" style="fill:#6827ab"></path><path d="M257.39,365.46a1.07,1.07,0,0,0,.46.33l-.29.9a2,2,0,0,1-.92-.33,1.41,1.41,0,0,1-.52-.78,2.48,2.48,0,0,1-2.2,1.11,2.35,2.35,0,0,1-1.72-.62,2.15,2.15,0,0,1-.63-1.61,2.12,2.12,0,0,1,.85-1.81,3.94,3.94,0,0,1,2.4-.63H256v-.54a1.43,1.43,0,0,0-.38-1.12,1.68,1.68,0,0,0-1.16-.34,6.58,6.58,0,0,0-2,.39l-.32-.93a7.31,7.31,0,0,1,2.55-.51,2.61,2.61,0,0,1,1.94.64,2.43,2.43,0,0,1,.65,1.81v3.37A1.19,1.19,0,0,0,257.39,365.46Zm-1.44-.89v-1.69h-1c-1.36,0-2,.5-2,1.51a1.39,1.39,0,0,0,.32,1,1.26,1.26,0,0,0,1,.34A1.92,1.92,0,0,0,256,364.57Z" style="fill:#6827ab"></path><path d="M261.63,355.3l.58,1.08-3,1.2-.39-.68Zm-.46,3.84v7.38h-1.29v-7.38Z" style="fill:#6827ab"></path><path d="M269.55,356.17v10.35h-1.14l-.12-1a2.79,2.79,0,0,1-.91.87,2.44,2.44,0,0,1-1.22.32,2.37,2.37,0,0,1-2.05-1,4.73,4.73,0,0,1-.74-2.79,5.5,5.5,0,0,1,.35-2,3.07,3.07,0,0,1,1-1.38,2.49,2.49,0,0,1,1.54-.5,2.64,2.64,0,0,1,2,.91V356Zm-2.1,9.22a3.15,3.15,0,0,0,.81-.82V361a2.74,2.74,0,0,0-.78-.72,1.75,1.75,0,0,0-.93-.25,1.48,1.48,0,0,0-1.32.72,3.81,3.81,0,0,0-.47,2.12,4.09,4.09,0,0,0,.43,2.13,1.39,1.39,0,0,0,1.25.7A1.84,1.84,0,0,0,267.45,365.39Z" style="fill:#6827ab"></path><path d="M277.33,365.46a1,1,0,0,0,.46.33l-.29.9a2,2,0,0,1-.93-.33,1.52,1.52,0,0,1-.52-.78,2.45,2.45,0,0,1-2.19,1.11,2.38,2.38,0,0,1-1.73-.62,2.19,2.19,0,0,1-.62-1.61,2.13,2.13,0,0,1,.84-1.81,4,4,0,0,1,2.4-.63h1.14v-.54a1.43,1.43,0,0,0-.38-1.12,1.68,1.68,0,0,0-1.16-.34,6.53,6.53,0,0,0-2,.39l-.32-.93a7.31,7.31,0,0,1,2.55-.51,2.64,2.64,0,0,1,1.94.64,2.42,2.42,0,0,1,.64,1.81v3.37A1.18,1.18,0,0,0,277.33,365.46Zm-1.44-.89v-1.69h-1c-1.36,0-2,.5-2,1.51a1.34,1.34,0,0,0,.32,1,1.23,1.23,0,0,0,.95.34A1.92,1.92,0,0,0,275.89,364.57Z" style="fill:#6827ab"></path><path d="M288.58,359.57a2.31,2.31,0,0,1,.57,1.66v5.29h-1.29v-5.11a1.62,1.62,0,0,0-.3-1.11,1.11,1.11,0,0,0-.86-.32,1.7,1.7,0,0,0-1,.33,3.56,3.56,0,0,0-.84,1v5.24h-1.29v-7.38h1.11l.11,1.09a2.93,2.93,0,0,1,1-.92A2.48,2.48,0,0,1,287,359,2.08,2.08,0,0,1,288.58,359.57Z" style="fill:#6827ab"></path><path d="M295.91,357.65a3,3,0,0,1,.71,2.15,3.09,3.09,0,0,1-.72,2.13,2.54,2.54,0,0,1-2,.79,2.6,2.6,0,0,1-2-.78,3.09,3.09,0,0,1-.71-2.14,3,3,0,0,1,.73-2.13,2.57,2.57,0,0,1,2-.8A2.54,2.54,0,0,1,295.91,357.65Zm-4.64,8.87v-1.08h5.27v1.08Zm1.25-6.72c0,1.3.46,2,1.39,2s1.38-.66,1.38-2a2.56,2.56,0,0,0-.34-1.49,1.2,1.2,0,0,0-1-.47C293,357.84,292.52,358.49,292.52,359.8Z" style="fill:#6827ab"></path><path d="M305.78,357.35a2.42,2.42,0,0,1,1.34,2.22,3.75,3.75,0,0,1-.38,1.64,8.05,8.05,0,0,1-1.19,1.7c-.53.6-1.34,1.45-2.42,2.53h4.22l-.16,1.08h-5.53v-1c1.25-1.3,2.14-2.25,2.66-2.85a8.13,8.13,0,0,0,1.12-1.58,3.12,3.12,0,0,0,.34-1.44,1.43,1.43,0,0,0-1.54-1.55,2,2,0,0,0-1,.23,3.5,3.5,0,0,0-.92.79l-.84-.67a3.73,3.73,0,0,1,1.27-1.07,3.52,3.52,0,0,1,1.57-.35A3,3,0,0,1,305.78,357.35Z" style="fill:#6827ab"></path><path d="M248.74,513.91a4.48,4.48,0,0,1,1.33.84l-.73.82a3.93,3.93,0,0,0-1.07-.64,3,3,0,0,0-1.13-.2,2,2,0,0,0-1.24.35,1.16,1.16,0,0,0-.49,1,1.37,1.37,0,0,0,.17.7,1.45,1.45,0,0,0,.62.53,7.26,7.26,0,0,0,1.32.5,8.26,8.26,0,0,1,1.51.61,2.6,2.6,0,0,1,1,.88,2.57,2.57,0,0,1,.37,1.44,2.72,2.72,0,0,1-.41,1.48,2.82,2.82,0,0,1-1.19,1,4.39,4.39,0,0,1-1.85.37,4.49,4.49,0,0,1-3.27-1.25l.73-.81a4.67,4.67,0,0,0,1.19.72,3.59,3.59,0,0,0,1.34.24,2.35,2.35,0,0,0,1.48-.44,1.48,1.48,0,0,0,.59-1.28,1.57,1.57,0,0,0-.18-.79,1.65,1.65,0,0,0-.62-.57,7.26,7.26,0,0,0-1.28-.5,5.6,5.6,0,0,1-2.17-1.08,2.2,2.2,0,0,1-.69-1.71,2.26,2.26,0,0,1,.39-1.3,2.48,2.48,0,0,1,1.07-.89,3.66,3.66,0,0,1,1.58-.33A4.32,4.32,0,0,1,248.74,513.91Z" style="fill:#6827ab"></path><path d="M257.39,522.39a.93.93,0,0,0,.46.33l-.29.9a2,2,0,0,1-.92-.33,1.41,1.41,0,0,1-.52-.78,2.48,2.48,0,0,1-2.2,1.11,2.35,2.35,0,0,1-1.72-.62,2.15,2.15,0,0,1-.63-1.61,2.12,2.12,0,0,1,.85-1.81,3.94,3.94,0,0,1,2.4-.63H256v-.54a1.44,1.44,0,0,0-.38-1.12,1.68,1.68,0,0,0-1.16-.34,6.58,6.58,0,0,0-2,.39l-.32-.93a7.31,7.31,0,0,1,2.55-.51,2.61,2.61,0,0,1,1.94.64,2.43,2.43,0,0,1,.65,1.81v3.38A1.17,1.17,0,0,0,257.39,522.39ZM256,521.5v-1.69h-1c-1.36,0-2,.5-2,1.51a1.39,1.39,0,0,0,.32,1,1.26,1.26,0,0,0,1,.34A1.92,1.92,0,0,0,256,521.5Z" style="fill:#6827ab"></path><path d="M261.63,512.23l.58,1.08-3,1.21-.39-.69Zm-.46,3.84v7.38h-1.29v-7.38Z" style="fill:#6827ab"></path><path d="M269.55,513.1v10.35h-1.14l-.12-1a2.79,2.79,0,0,1-.91.87,2.44,2.44,0,0,1-1.22.32,2.37,2.37,0,0,1-2.05-1,4.73,4.73,0,0,1-.74-2.79,5.5,5.5,0,0,1,.35-2,3.07,3.07,0,0,1,1-1.38,2.49,2.49,0,0,1,1.54-.5,2.67,2.67,0,0,1,2,.91V513Zm-2.1,9.22a3.15,3.15,0,0,0,.81-.82v-3.61a2.74,2.74,0,0,0-.78-.72,1.85,1.85,0,0,0-.93-.25,1.48,1.48,0,0,0-1.32.72,3.82,3.82,0,0,0-.47,2.13,4.07,4.07,0,0,0,.43,2.12,1.39,1.39,0,0,0,1.25.7A1.84,1.84,0,0,0,267.45,522.32Z" style="fill:#6827ab"></path><path d="M277.33,522.39a.89.89,0,0,0,.46.33l-.29.9a2,2,0,0,1-.93-.33,1.52,1.52,0,0,1-.52-.78,2.45,2.45,0,0,1-2.19,1.11,2.38,2.38,0,0,1-1.73-.62,2.19,2.19,0,0,1-.62-1.61,2.13,2.13,0,0,1,.84-1.81,4,4,0,0,1,2.4-.63h1.14v-.54a1.44,1.44,0,0,0-.38-1.12,1.68,1.68,0,0,0-1.16-.34,6.53,6.53,0,0,0-2,.39l-.32-.93a7.31,7.31,0,0,1,2.55-.51,2.64,2.64,0,0,1,1.94.64,2.42,2.42,0,0,1,.64,1.81v3.38A1.16,1.16,0,0,0,277.33,522.39Zm-1.44-.89v-1.69h-1c-1.36,0-2,.5-2,1.51a1.34,1.34,0,0,0,.32,1,1.23,1.23,0,0,0,.95.34A1.92,1.92,0,0,0,275.89,521.5Z" style="fill:#6827ab"></path><path d="M288.58,516.5a2.34,2.34,0,0,1,.57,1.66v5.29h-1.29v-5.11a1.62,1.62,0,0,0-.3-1.11,1.11,1.11,0,0,0-.86-.32,1.64,1.64,0,0,0-1,.34,3.36,3.36,0,0,0-.84,1v5.24h-1.29v-7.38h1.11l.11,1.09a2.93,2.93,0,0,1,1-.92,2.48,2.48,0,0,1,1.28-.34A2.08,2.08,0,0,1,288.58,516.5Z" style="fill:#6827ab"></path><path d="M295.91,514.58a3,3,0,0,1,.71,2.15,3.09,3.09,0,0,1-.72,2.13,2.54,2.54,0,0,1-2,.79,2.6,2.6,0,0,1-2-.78,3.09,3.09,0,0,1-.71-2.14,3,3,0,0,1,.73-2.13,2.57,2.57,0,0,1,2-.8A2.54,2.54,0,0,1,295.91,514.58Zm-4.64,8.87v-1.08h5.27v1.08Zm1.25-6.72c0,1.3.46,2,1.39,2s1.38-.66,1.38-2a2.58,2.58,0,0,0-.34-1.49,1.2,1.2,0,0,0-1-.47C293,514.77,292.52,515.42,292.52,516.73Z" style="fill:#6827ab"></path><path d="M305.76,514.26a2.43,2.43,0,0,1,.95.87,2.27,2.27,0,0,1,.33,1.19,2,2,0,0,1-.5,1.41,2.48,2.48,0,0,1-1.32.75,2.35,2.35,0,0,1,1.52.67,2.16,2.16,0,0,1,.59,1.6,2.84,2.84,0,0,1-.39,1.47,2.7,2.7,0,0,1-1.12,1,3.65,3.65,0,0,1-1.68.38,3.86,3.86,0,0,1-1.57-.32,3.41,3.41,0,0,1-1.24-.94l.77-.72a3.11,3.11,0,0,0,.94.7,2.49,2.49,0,0,0,1.06.23,1.87,1.87,0,0,0,1.38-.5,1.79,1.79,0,0,0,.51-1.34,1.57,1.57,0,0,0-.48-1.3,2.2,2.2,0,0,0-1.38-.38h-.71l.16-1h.48a1.77,1.77,0,0,0,1.21-.44,1.55,1.55,0,0,0,.48-1.21,1.36,1.36,0,0,0-.42-1,1.64,1.64,0,0,0-1.13-.38,2.56,2.56,0,0,0-1,.19,3.36,3.36,0,0,0-.93.65l-.67-.77a3.83,3.83,0,0,1,2.68-1.11A3.31,3.31,0,0,1,305.76,514.26Z" style="fill:#6827ab"></path><path d="M248.74,677.31a4.52,4.52,0,0,1,1.33.85l-.73.81a4.2,4.2,0,0,0-1.07-.64,3.18,3.18,0,0,0-1.12-.2,2.12,2.12,0,0,0-1.25.35,1.16,1.16,0,0,0-.49,1,1.41,1.41,0,0,0,.17.71,1.44,1.44,0,0,0,.62.52,8,8,0,0,0,1.32.51,8.31,8.31,0,0,1,1.51.6,2.45,2.45,0,0,1,1.35,2.32,2.75,2.75,0,0,1-.41,1.49,2.89,2.89,0,0,1-1.19,1,4.39,4.39,0,0,1-1.85.36,4.49,4.49,0,0,1-3.27-1.25l.73-.81a4.4,4.4,0,0,0,1.19.72,3.4,3.4,0,0,0,1.34.25,2.46,2.46,0,0,0,1.49-.44,1.51,1.51,0,0,0,.58-1.28,1.54,1.54,0,0,0-.18-.79,1.65,1.65,0,0,0-.62-.57,6.48,6.48,0,0,0-1.28-.51,5.46,5.46,0,0,1-2.17-1.07,2.2,2.2,0,0,1-.69-1.71,2.24,2.24,0,0,1,.39-1.3,2.44,2.44,0,0,1,1.07-.9,3.81,3.81,0,0,1,1.58-.32A4.53,4.53,0,0,1,248.74,677.31Z" style="fill:#6827ab"></path><path d="M257.39,685.79a.93.93,0,0,0,.46.33l-.29.9a2,2,0,0,1-.92-.32,1.43,1.43,0,0,1-.52-.79,2.48,2.48,0,0,1-2.2,1.11,2.35,2.35,0,0,1-1.72-.62,2.14,2.14,0,0,1-.63-1.61,2.1,2.1,0,0,1,.85-1.8,3.94,3.94,0,0,1,2.4-.63H256v-.55a1.42,1.42,0,0,0-.38-1.12,1.73,1.73,0,0,0-1.16-.33,6.58,6.58,0,0,0-2,.39l-.32-.94a7.29,7.29,0,0,1,2.55-.5,2.65,2.65,0,0,1,1.94.63,2.45,2.45,0,0,1,.65,1.82v3.37A1.15,1.15,0,0,0,257.39,685.79Zm-1.44-.88v-1.7h-1c-1.37,0-2.05.51-2.05,1.51a1.43,1.43,0,0,0,.32,1,1.3,1.3,0,0,0,1,.33A1.92,1.92,0,0,0,256,684.91Z" style="fill:#6827ab"></path><path d="M261.64,675.64l.57,1.08-3,1.2-.39-.69Zm-.47,3.83v7.38h-1.28v-7.38Z" style="fill:#6827ab"></path><path d="M269.55,676.51v10.34h-1.14l-.12-1a2.82,2.82,0,0,1-.91.88,2.43,2.43,0,0,1-1.22.31,2.37,2.37,0,0,1-2.05-1,4.72,4.72,0,0,1-.74-2.78,5.52,5.52,0,0,1,.35-2,3.07,3.07,0,0,1,1-1.38,2.49,2.49,0,0,1,1.54-.49,2.64,2.64,0,0,1,2,.91v-3.87Zm-2.1,9.22a3.32,3.32,0,0,0,.81-.82v-3.62a3.06,3.06,0,0,0-.78-.72,1.81,1.81,0,0,0-.93-.24,1.49,1.49,0,0,0-1.32.71,3.87,3.87,0,0,0-.47,2.13,4.14,4.14,0,0,0,.43,2.13,1.41,1.41,0,0,0,1.25.7A1.84,1.84,0,0,0,267.45,685.73Z" style="fill:#6827ab"></path><path d="M277.33,685.79a.89.89,0,0,0,.46.33l-.29.9a2,2,0,0,1-.93-.32,1.48,1.48,0,0,1-.51-.79,2.48,2.48,0,0,1-2.2,1.11,2.35,2.35,0,0,1-1.72-.62,2.14,2.14,0,0,1-.63-1.61,2.12,2.12,0,0,1,.84-1.8,4,4,0,0,1,2.4-.63h1.14v-.55a1.46,1.46,0,0,0-.38-1.12,1.73,1.73,0,0,0-1.16-.33,6.53,6.53,0,0,0-2,.39l-.32-.94a7.29,7.29,0,0,1,2.55-.5,2.68,2.68,0,0,1,1.94.63,2.45,2.45,0,0,1,.64,1.82v3.37A1.14,1.14,0,0,0,277.33,685.79Zm-1.44-.88v-1.7h-1c-1.36,0-2,.51-2,1.51a1.43,1.43,0,0,0,.32,1,1.28,1.28,0,0,0,.95.33A1.93,1.93,0,0,0,275.89,684.91Z" style="fill:#6827ab"></path><path d="M288.58,679.91a2.3,2.3,0,0,1,.57,1.65v5.29h-1.29v-5.11a1.59,1.59,0,0,0-.3-1.1,1.08,1.08,0,0,0-.86-.33,1.71,1.71,0,0,0-1,.34,3.42,3.42,0,0,0-.84,1v5.23h-1.29v-7.38h1.11l.11,1.1a3,3,0,0,1,1-.93,2.57,2.57,0,0,1,1.28-.33A2.08,2.08,0,0,1,288.58,679.91Z" style="fill:#6827ab"></path><path d="M295.92,678a3.09,3.09,0,0,1,.7,2.15,3.05,3.05,0,0,1-.72,2.13,2.91,2.91,0,0,1-4,0,3.53,3.53,0,0,1,0-4.27,3,3,0,0,1,4,0Zm-4.65,8.87v-1.08h5.27v1.08Zm1.25-6.72c0,1.31.46,2,1.39,2s1.38-.65,1.38-2a2.55,2.55,0,0,0-.34-1.48,1.18,1.18,0,0,0-1-.48C293,678.17,292.52,678.83,292.52,680.13Z" style="fill:#6827ab"></path><path d="M308.14,683.52v1h-1.22v2.31h-1.24v-2.31h-4v-.92l2.82-6.27,1.08.44L303,683.52h2.66l.12-2.52h1.11v2.52Z" style="fill:#6827ab"></path></g><rect x="68.68" y="623.53" width="114.89" height="26.21" style="fill:#ffcfc5"></rect><rect x="68.17" y="303.44" width="114.89" height="26.21" style="fill:#ffcfc5"></rect><rect x="68.46" y="131.41" width="114.89" height="26.21" style="fill:#ffcfc5"></rect><rect x="69.14" y="457.84" width="114.89" height="26.21" style="fill:#ffcfc5"></rect><g id="preto"><path d="M183.88,663.36H68.44v-14H183.88Zm-114.94-.5H183.38v-6.29H68.94Zm0-6.79H183.38v-6.16H68.94Zm114.94-32.2H68.44v-6.69H183.88Zm-114.94-.5H183.38v-5.69H68.94Zm114.94-67.49H68.44v-6.69H183.88Zm-114.94-.5H183.38v-5.69H68.94ZM184,170.63H68.44V157.37H183.88v6.48H184Zm-115.06-.5H183.5v-5.78H68.94Zm0-6.39H183.38v-5.87H68.94Z" style="fill:#1d1d1b"></path><path d="M148.85,497.29l-.21-.13,3.69-6.19.22.13Zm-4.42,0-.21-.13,3.69-6.19.22.13Zm-39.78,0-.21-.13,3.69-6.19.22.13Zm-35.36,0-.21-.13L72.77,491l.21.13Zm88.41,0-.22-.13,3.69-6.19.22.13Zm-4.43,0-.21-.13,3.69-6.19.22.13Zm-17.68,0-.21-.13,3.69-6.19.22.13Zm-22.1,0-.21-.13L117,491l.22.13Zm-13.26,0-.21-.13,3.69-6.19.21.13Zm-8.84,0-.21-.13L94.87,491l.22.13Zm-8.84,0-.21-.13L86,491l.22.13Zm97.25,0-.22-.13,3.69-6.19.22.13Zm-4.42,0-.22-.13,3.69-6.19.22.13Zm-35.37,0-.21-.13,3.69-6.19.22.13Zm-8.84,0-.21-.13,3.69-6.19.22.13Zm-22.1,0-.21-.13,3.69-6.19.22.13Zm-13.26,0-.21-.13L99.29,491l.21.13Zm-17.68,0-.21-.13L81.61,491l.21.13Zm-4.42,0-.21-.13L77.19,491l.21.13Zm97.25,0-.22-.13,3.69-6.19.22.13Zm-4.42,0-.22-.13L170,491l.22.13Zm-4.42,0-.22-.13,3.69-6.19.22.13Zm-35.36,0-.22-.13,3.69-6.19.22.13Zm-4.42,0-.22-.13,3.69-6.19.22.13Zm-4.43,0-.21-.13,3.69-6.19.21.13Zm-30.94,0-.21-.13L90.45,491l.21.13Zm61.76-6.83-.21-.13,3.69-6.19.22.13Zm-44.2,0-.21-.13,3.69-6.19.21.13Zm-35.36,0-.22-.13,3.7-6.19.21.13Zm106.08,0-.21-.13,3.69-6.19.22.13Zm-17.68,0-.21-.13,3.69-6.19.22.13Zm-4.42,0-.21-.13,3.69-6.19.21.13Zm-17.68,0-.21-.13,3.69-6.19.22.13Zm-22.1,0-.21-.13,3.69-6.19.21.13Zm-13.26,0-.21-.13,3.69-6.19.21.13Zm79.56,0-.21-.13,3.69-6.19.22.13Zm-17.68,0-.21-.13,3.69-6.19.22.13Zm-17.68,0-.21-.13,3.69-6.19.21.13Zm-4.42,0-.21-.13,3.69-6.19.21.13Zm-8.84,0-.21-.13,3.69-6.19.21.13Zm-22.1,0-.21-.13,3.69-6.19.21.13Zm-13.26,0-.21-.13,3.69-6.19.21.13Zm-17.68,0-.21-.13,3.69-6.19.21.13Zm-4.42,0-.21-.13,3.69-6.19.21.13Zm97.24,0-.21-.13,3.69-6.19.21.13Zm-4.42,0-.21-.13,3.69-6.19.21.13Zm-39.78,0-.21-.13,3.69-6.19.21.13Zm-4.42,0-.21-.13,3.69-6.19.21.13Zm-4.42,0-.21-.13,3.69-6.19.21.13Zm-26.52,0-.21-.13,3.69-6.19.21.13Zm-4.42,0-.21-.13,3.69-6.19.21.13Zm-4.42,0-.21-.13,3.69-6.19.21.13ZM153.27,458l-.21-.13,3.69-6.19.22.12Zm-4.42,0-.21-.13,3.69-6.19.22.12Zm-39.78,0-.21-.13,3.69-6.19.22.12Zm57.46,0-.21-.13,3.69-6.19.22.12Zm-8.84,0-.21-.13,3.69-6.19.22.12Zm-35.36,0-.21-.13,3.69-6.19.22.12Zm-4.42,0-.21-.13,3.69-6.19.21.12Zm-13.26,0-.21-.13,3.69-6.19.22.12ZM87,458l-.21-.13,3.69-6.19.21.12Zm-8.84,0-.21-.13,3.69-6.19.21.12Zm-8.84,0-.21-.13,3.69-6.19.21.12Zm75.14,0-.21-.13,3.69-6.19.22.12ZM140,458l-.21-.13,3.69-6.19.21.12Zm-4.42,0-.21-.13,3.69-6.19.22.12Zm-35.36,0-.21-.13,3.69-6.19.21.12Zm-4.42,0-.21-.13,3.69-6.19.21.12Zm-4.42,0-.21-.13,3.69-6.19.21.12Zm-17.68,0-.21-.13,3.69-6.19.21.12Zm106.09,0-.22-.13,3.69-6.19.22.12Zm-4.42,0-.22-.13,3.69-6.19.22.12ZM171,458l-.21-.13,3.69-6.19.21.12Zm-8.83,0-.22-.13,3.69-6.19.22.12Zm-31,0-.21-.13,3.69-6.19.22.12Zm-4.42,0-.21-.13,3.69-6.19.21.12Zm-13.26,0-.21-.13,3.69-6.19.21.12Zm-30.94,0-.21-.13L86,451.71l.21.12Z" style="fill:#9d9d9c"></path><path d="M180.47,329.74l-.22-.12,1.71-3.13-2.56-4.81-2.54,4.71,1.73,3.23-.22.12-1.65-3.09-1.66,3.09-.22-.12,1.74-3.23-2.46-4.61-2.52,4.72,1.66,3.12-.22.12-1.59-3-1.58,3-.22-.12,1.66-3.12-2.52-4.72-2.52,4.72,1.66,3.12-.22.12-1.58-3-1.59,3-.22-.12L166,326.5l-2.52-4.73-2.52,4.73,1.66,3.12-.22.12-1.58-3-1.59,3-.22-.12,1.66-3.12-2.52-4.72-2.52,4.72,1.67,3.12-.23.12-1.58-3-1.59,3-.22-.12,1.67-3.12-2.53-4.73-2.52,4.73,1.67,3.12-.22.12-1.59-3-1.59,3-.22-.12L150,326.5l-2.52-4.73L145,326.51l1.67,3.12-.22.11-1.59-3-1.58,3-.22-.11,1.66-3.12-2.52-4.74-2.53,4.73,1.67,3.12-.22.12-1.59-3-1.58,3-.23-.12,1.67-3.12-2.52-4.73-2.52,4.73,1.66,3.12-.22.12-1.59-3-1.58,3-.22-.12L134,326.5l-2.52-4.72L129,326.5l1.66,3.12-.22.12-1.59-3-1.58,3-.22-.12,1.66-3.12-2.52-4.73-2.52,4.73,1.66,3.12-.22.12-1.58-3-1.59,3-.22-.12,1.66-3.12-2.52-4.73-2.52,4.73,1.66,3.12-.22.12-1.58-3-1.59,3-.22-.12L118,326.5l-2.52-4.73L113,326.5l1.66,3.12-.22.12-1.58-3-1.59,3-.22-.12,1.67-3.12-2.53-4.73-2.52,4.73,1.67,3.12-.23.12-1.58-3-1.59,3-.22-.12,1.67-3.12-2.53-4.73-2.52,4.73,1.67,3.12-.22.12-1.59-3-1.59,3-.22-.12L102,326.5l-2.52-4.73L97,326.5l1.67,3.13-.22.11-1.59-3-1.58,3-.22-.12,1.66-3.12-2.52-4.73-2.53,4.73,1.67,3.12-.22.12-1.59-3-1.58,3-.22-.12,1.66-3.12-2.52-4.72-2.52,4.72L88,329.62l-.22.12-1.59-3-1.58,3-.22-.12,1.66-3.12-2.52-4.72L81,326.5l1.66,3.12-.22.12-1.58-3-1.59,3-.22-.12,1.66-3.12-2.52-4.73-2.29,4.31,1.82,3.38-.22.12-1.75-3.24L74,329.74l-.22-.12,1.89-3.54-2.53-4.71-2.57,4.81,1.8,3.28-.22.12-1.72-3.14-1.76,3.3-.22-.12,1.84-3.44-1.36-2.48.22-.12,1.28,2.34,2.56-4.81-2.36-4.39-1.48,2.74-.22-.11,1.56-2.89-1.56-2.88.22-.12,1.48,2.74,2.34-4.33-2.57-4.81-1.25,2.28-.22-.12,1.33-2.42-1.69-3.18.22-.11,1.61,3,1.75-3.19.22.12-1.83,3.34,2.57,4.8,2.53-4.7-1.74-3.28.22-.11,1.67,3.12,1.77-3.29.22.12-1.85,3.44,2.32,4.35,2.52-4.73-1.55-2.9.23-.11,1.46,2.75,1.47-2.75.22.11L81,306.52l2.52,4.73,2.52-4.73-1.54-2.9.22-.11,1.46,2.75,1.47-2.75.22.11-1.54,2.9,2.52,4.73,2.52-4.73-1.54-2.9.22-.11,1.46,2.75L93,303.51l.22.11-1.54,2.9,2.52,4.73,2.52-4.72-1.55-2.91.22-.11,1.47,2.75,1.47-2.75.22.11L97,306.53l2.53,4.73,2.52-4.73-1.55-2.91.22-.11,1.47,2.75,1.47-2.75.22.11-1.55,2.91,2.52,4.73,2.53-4.73-1.55-2.91.22-.11,1.47,2.75,1.47-2.75.22.11-1.55,2.91,2.52,4.72,2.53-4.73-1.55-2.9.22-.11,1.47,2.75,1.47-2.75.22.11-1.55,2.9,2.52,4.73,2.52-4.73-1.54-2.9.22-.11,1.47,2.75,1.46-2.75.22.11-1.54,2.9,2.52,4.73,2.52-4.73-1.54-2.9.22-.11,1.47,2.75,1.46-2.75.22.11-1.54,2.9,2.52,4.73,2.52-4.73-1.54-2.9.22-.11,1.46,2.75,1.47-2.75.22.11-1.54,2.9,2.52,4.73,2.52-4.73-1.54-2.9.22-.11,1.46,2.75,1.47-2.75.22.11-1.54,2.9,2.52,4.73,2.52-4.73-1.55-2.9.22-.11,1.47,2.75,1.47-2.75.22.11-1.55,2.9,2.53,4.73,2.52-4.73-1.55-2.9.22-.11,1.47,2.75,1.47-2.75.22.11-1.55,2.9,2.52,4.73,2.53-4.72-1.55-2.91.22-.11,1.47,2.75,1.47-2.75.22.11-1.55,2.91,2.52,4.72,2.53-4.73-1.55-2.9.22-.11,1.47,2.75,1.47-2.75.22.11-1.55,2.9,2.52,4.73,2.52-4.72-1.54-2.91.22-.11,1.47,2.75,1.46-2.75.23.11-1.55,2.91,2.52,4.73,2.52-4.73-1.54-2.91.22-.11,1.47,2.75,1.46-2.75.23.11-1.55,2.91,2.52,4.72,2.52-4.73-1.54-2.9.22-.11,1.46,2.75,1.47-2.75.22.11-1.54,2.9,2.52,4.73,2.4-4.5-1.68-3.13.22-.11,1.6,3,1.59-3,.22.11-1.67,3.13,2.54,4.71,2.56-4.81-1.65-3,.22-.12,1.57,2.88,1.54-2.88.22.11-1.61,3,1.49,2.74-.22.12-1.41-2.59-2.57,4.8,2.5,4.64,1.48-2.74.22.12-1.55,2.88,1.55,2.89-.22.12L182,316.89l-2.44,4.53,2.56,4.81,1.36-2.49.22.12-1.43,2.63,1.67,3.13-.22.12-1.6-3Zm-38.18-8.23,2.52,4.73,2.52-4.73-2.52-4.73Zm26.64,0,2.52,4.73,2.53-4.73-2.53-4.73Zm-90.59,0,2.53,4.73,2.52-4.73-2.52-4.73Zm53.29,0,2.52,4.73,2.53-4.73-2.53-4.73Zm-37.3,0,2.52,4.73,2.53-4.73-2.53-4.73Zm-5.33,0,2.52,4.73,2.53-4.73-2.53-4.73Zm26.64,0,2.53,4.73,2.52-4.73-2.52-4.73Zm-10.65,0,2.52,4.73,2.52-4.73-2.52-4.73Zm-21.32,0,2.52,4.73,2.53-4.73-2.53-4.73Zm53.29,0,2.52,4.73,2.52-4.73-2.52-4.73Zm-10.66,0,2.52,4.73,2.53-4.73-2.53-4.73Zm-5.33,0,2.53,4.73,2.52-4.73-2.52-4.73Zm-10.66,0,2.53,4.73,2.52-4.73-2.52-4.73Zm53.29,0,2.53,4.73,2.52-4.73-2.52-4.73Zm-5.33,0,2.53,4.73,2.52-4.73-2.52-4.73Zm-5.32,0,2.52,4.73,2.52-4.73-2.52-4.73Zm-5.33,0,2.52,4.73,2.52-4.73-2.52-4.73Zm-48,0,2.52,4.73,2.52-4.73-2.52-4.73Zm74.6,0,2.46,4.61,2.54-4.7-2.48-4.64Zm-101-.4,2.53,4.7,2.3-4.3-2.52-4.73Zm13.11-4.59,2.52,4.72,2.52-4.73-2.52-4.73Zm-5.33,0,2.52,4.73,2.52-4.72-2.52-4.73Zm90.59,0,2.52,4.73,2.52-4.72-2.52-4.73Zm-42.63,0,2.52,4.72,2.52-4.73-2.52-4.72Zm37.3,0,2.52,4.72,2.52-4.73-2.52-4.72Zm-10.66,0,2.52,4.73,2.53-4.72-2.53-4.73Zm-21.31,0,2.52,4.73,2.52-4.73-2.52-4.73Zm-10.66,0,2.52,4.73,2.52-4.72-2.52-4.73Zm-16,0,2.52,4.73,2.53-4.73-2.53-4.72Zm-32,0,2.52,4.73,2.52-4.73-2.52-4.73Zm69.27,0,2.53,4.73,2.52-4.73-2.53-4.72Zm-5.33,0,2.53,4.73,2.52-4.73-2.52-4.73Zm-26.64,0,2.52,4.73,2.52-4.73-2.52-4.73Zm-16,0,2.53,4.73,2.52-4.72-2.52-4.73Zm-5.32,0,2.52,4.73,2.52-4.73-2.52-4.73Zm69.27,0,2.52,4.72,2.52-4.72-2.52-4.73Zm-58.62,0,2.52,4.72,2.53-4.73-2.53-4.72Zm48,0,2.52,4.73,2.53-4.73-2.53-4.72Zm-32,0,2.52,4.73,2.52-4.73-2.52-4.73Zm58.61,0,2.48,4.64,2.44-4.54-2.5-4.64Zm-106.2-.06,2.37,4.38,2.3-4.33-2.33-4.38Zm28.94-4.94,2.52,4.73,2.52-4.73-2.52-4.73Zm-16,0,2.52,4.73,2.53-4.73-2.53-4.73Zm79.93,0,2.53,4.73,2.52-4.73-2.52-4.73Zm-5.33,0,2.53,4.73,2.52-4.73-2.52-4.73Zm16,0,2.52,4.73,2.42-4.53-2.54-4.7Zm-48,0,2.52,4.73,2.53-4.73-2.53-4.73Zm42.63,0,2.52,4.73,2.53-4.73-2.53-4.73Zm-16,0,2.52,4.73,2.52-4.73-2.52-4.73Zm-5.33,0,2.52,4.73,2.52-4.73-2.52-4.73Zm-69.28,0,2.53,4.73,2.52-4.73-2.53-4.73Zm53.29,0,2.52,4.73,2.53-4.73-2.53-4.73Zm-21.32,0,2.53,4.73,2.52-4.73-2.52-4.73Zm10.66,0,2.53,4.73,2.52-4.73-2.52-4.73Zm-16,0,2.52,4.73,2.52-4.73-2.52-4.73Zm-31.79.35,2.34,4.38,2.52-4.73-2.32-4.36Zm63.76-.35,2.52,4.73,2.53-4.73-2.53-4.73Zm-42.63,0,2.52,4.73,2.52-4.73-2.52-4.73Zm48,0,2.52,4.73,2.52-4.73-2.52-4.73Zm-53.29,0,2.52,4.73,2.53-4.73-2.53-4.73Zm26.64,0,2.53,4.73,2.52-4.73-2.52-4.73Zm6.88-8.11-.21-.13,3.69-6.19.22.12Zm-4.42,0-.21-.13,3.69-6.19.22.12Zm-4.42,0-.21-.13,3.69-6.19.22.12Zm66.31,0-.22-.13,3.69-6.19.22.12Zm-4.42,0-.22-.13,3.69-6.19.22.12Zm-4.42,0-.22-.13,3.69-6.19.22.12Zm-4.42,0-.22-.13,3.69-6.19.22.12Zm-4.42,0-.22-.13,3.69-6.19.22.12Zm-8.84,0-.22-.13,3.69-6.19.22.12Zm-4.42,0-.22-.13,3.69-6.19.22.12Zm-4.42,0-.22-.13,3.69-6.19.22.12Zm-8.84,0-.22-.13,3.69-6.19.22.12Zm-4.42,0-.22-.13,3.69-6.19.22.12Zm-4.42,0-.22-.13,3.69-6.19.22.12Zm-22.11,0-.21-.13,3.69-6.19.22.12Zm-4.42,0-.21-.13,3.69-6.19.22.12Zm-13.26,0-.21-.13,3.69-6.19.22.12Zm-4.42,0-.21-.13,3.69-6.19.22.12Zm-4.42,0-.21-.13,3.69-6.19.22.12Zm-4.42,0-.21-.13,3.69-6.19.21.12Zm-4.42,0-.21-.13L73,297.09l.21.12Zm88.41,0-.22-.13,3.69-6.19.22.12Zm-17.68,0-.22-.13,3.69-6.19.22.12Zm-30.94,0-.22-.13,3.69-6.19.22.12Zm-13.26,0-.22-.13,3.69-6.19.22.12Zm-4.43,0-.21-.13,3.69-6.19.21.12Zm70-68.91-.22-.13,3.7-6.19.21.13Zm-13.26,0-.22-.13,3.7-6.19.21.13Zm-8.84,0-.22-.13,3.69-6.19.22.13Zm39.78,0-.22-.13,3.7-6.19.21.13Zm-4.42,0-.22-.13,3.69-6.19.22.13Zm-17.68,0-.22-.13,3.69-6.19.22.13Zm-4.42,0-.22-.13,3.69-6.19.22.13Zm-8.84,0-.22-.13,3.69-6.19.22.13Zm-8.84,0-.22-.13,3.7-6.19.21.13Zm-4.42,0-.22-.13,3.69-6.19.22.13Zm-13.26,0-.22-.13,3.69-6.19.22.13Zm-4.42,0-.22-.13,3.69-6.19.22.13Zm-4.42,0-.22-.13,3.69-6.19.22.13Zm-4.42,0-.22-.13,3.69-6.19.22.13Zm-4.42,0-.22-.13,3.69-6.19.22.13Zm-4.43,0-.21-.13,3.69-6.19.22.13ZM82,234.5l-.22-.13,3.69-6.19.22.13Zm-4.43,0-.21-.13,3.69-6.19.22.13Zm-4.42,0-.21-.13,3.69-6.19.22.13Zm-4.41,0-.22-.13,3.69-6.19.22.13Zm101.66,0-.22-.13,3.69-6.19.22.13Zm-4.42,0-.22-.13,3.69-6.19.22.13Zm-39.78,0-.22-.13,3.69-6.19.22.13Zm-4.42,0-.22-.13,3.69-6.19.22.13Zm-30.94,0-.22-.13,3.69-6.19.22.13Zm-4.43,0-.21-.13,3.69-6.19.22.13Zm22.64-6.73-.21-.12,3.69-6.2.22.13Zm53,0-.21-.12,3.69-6.2.22.13Zm-13.26,0-.21-.12,3.69-6.2.22.13Zm-8.84,0-.21-.12,3.69-6.2.22.13Zm-17.68,0-.21-.12,3.69-6.2.22.13Zm-4.42,0-.21-.12,3.69-6.2.21.13Zm-30.94,0-.21-.12,3.69-6.2.21.13Zm-8.84,0-.21-.12,3.69-6.2.21.13Zm-4.42,0-.21-.12,3.69-6.2.21.13Zm-4.42,0-.21-.12,3.69-6.2.21.13Zm110.51,0-.22-.12,3.69-6.2.22.13Zm-4.42,0-.22-.12,3.69-6.2.22.13Zm-4.43,0-.21-.12,3.69-6.2.21.13Zm-4.42,0-.21-.12,3.69-6.2.22.13Zm-8.84,0-.21-.12,3.69-6.2.22.13Zm-4.42,0-.21-.12,3.69-6.2.22.13Zm-8.84,0-.21-.12,3.69-6.2.22.13Zm-8.84,0-.21-.12,3.69-6.2.22.13Zm-4.42,0-.21-.12,3.69-6.2.22.13Zm-4.42,0-.21-.12,3.69-6.2.21.13Zm-13.26,0-.21-.12,3.69-6.2.21.13Zm-8.84,0-.21-.12,3.69-6.2.21.13Zm-4.42,0-.21-.12,3.69-6.2.21.13Zm-4.42,0-.21-.12,3.69-6.2.21.13Zm-4.42,0-.21-.12,3.69-6.2.21.13Zm-8.84,0-.21-.12,3.69-6.2.21.13Zm98.1-70.18-.22-.12,1.71-3.14-2.56-4.8-2.54,4.7,1.73,3.24-.22.12-1.65-3.09-1.67,3.09-.22-.12,1.75-3.24-2.46-4.61-2.53,4.73,1.67,3.12-.22.12-1.59-3-1.58,3-.22-.12,1.66-3.12L169,149.62l-2.52,4.73,1.66,3.12-.22.12-1.59-3-1.58,3-.22-.12,1.66-3.12-2.52-4.73-2.52,4.73,1.66,3.12-.22.12-1.58-3-1.59,3-.22-.12,1.66-3.12-2.52-4.73-2.52,4.73,1.66,3.12-.22.12-1.58-3-1.59,3-.22-.12,1.66-3.12L153,149.62l-2.52,4.73,1.67,3.12-.22.12-1.59-3-1.59,3-.22-.12,1.67-3.12-2.53-4.73-2.52,4.73,1.67,3.12-.22.12-1.59-3-1.59,3-.22-.12,1.67-3.12-2.52-4.73-2.53,4.73,1.67,3.12-.22.12-1.59-3-1.58,3-.23-.12,1.67-3.12L137,149.62l-2.53,4.73,1.67,3.12-.22.12-1.59-3-1.58,3-.22-.12,1.66-3.12-2.52-4.73-2.53,4.73,1.67,3.12-.22.12-1.59-3-1.58,3-.22-.12,1.66-3.12-2.52-4.73-2.52,4.73,1.66,3.12-.22.12-1.59-3-1.58,3-.22-.12,1.66-3.12L121,149.62l-2.52,4.73,1.66,3.12-.22.12-1.59-3-1.58,3-.22-.12,1.66-3.12-2.52-4.73-2.52,4.73,1.66,3.12-.22.12-1.58-3-1.59,3-.22-.12,1.66-3.12-2.52-4.73-2.52,4.73,1.66,3.12-.22.12-1.58-3-1.59,3-.22-.12,1.67-3.12L105,149.62l-2.52,4.73,1.67,3.12-.22.12-1.59-3-1.59,3-.22-.12,1.67-3.12-2.53-4.73-2.52,4.73,1.67,3.12-.22.12-1.59-3-1.59,3-.22-.12,1.67-3.12-2.52-4.73-2.53,4.73,1.67,3.12-.22.12-1.59-3-1.58,3-.22-.12,1.66-3.12L89,149.62l-2.53,4.73,1.67,3.12-.22.12-1.59-3-1.58,3-.22-.12,1.66-3.12-2.52-4.73-2.53,4.73,1.67,3.12-.22.12-1.59-3-1.58,3-.22-.12,1.66-3.12-2.52-4.73-2.3,4.3,1.83,3.39-.22.11-1.75-3.24-1.81,3.41-.22-.12,1.89-3.55-2.54-4.7L70.7,154l1.79,3.28-.21.12-1.72-3.14-1.76,3.31-.22-.12L70.42,154l-1.36-2.48.22-.12,1.28,2.34L73.12,149l-2.36-4.38-1.48,2.74-.22-.12,1.56-2.89-1.56-2.88.22-.12L70.76,144l2.33-4.33-2.56-4.81-1.25,2.29-.22-.12,1.33-2.43-1.69-3.17.22-.12,1.61,3,1.75-3.19.21.12-1.82,3.33,2.57,4.81,2.53-4.71L74,131.47l.22-.12,1.66,3.13,1.78-3.29.22.12-1.85,3.43,2.32,4.36,2.52-4.73-1.55-2.9.23-.12L81,134.1l1.47-2.75.22.12-1.54,2.9,2.52,4.73,2.52-4.73-1.55-2.9.22-.12,1.47,2.75,1.47-2.75.22.12-1.55,2.9L89,139.1l2.52-4.73L90,131.47l.22-.12,1.47,2.75,1.47-2.75.22.12-1.55,2.9,2.53,4.73,2.52-4.73-1.55-2.9.22-.12L97,134.1l1.47-2.75.22.12-1.55,2.9,2.52,4.73,2.53-4.73-1.55-2.9.22-.12,1.47,2.75,1.47-2.75.22.12-1.55,2.9L105,139.1l2.53-4.73-1.55-2.9.22-.12,1.47,2.75,1.47-2.75.22.12-1.55,2.9,2.52,4.73,2.52-4.73-1.54-2.9.22-.12L113,134.1l1.46-2.75.22.12-1.54,2.9,2.52,4.73,2.52-4.74-1.54-2.89.22-.12,1.46,2.75,1.47-2.75.22.12-1.54,2.89L121,139.1l2.52-4.74L122,131.47l.22-.12,1.46,2.75,1.47-2.75.22.12-1.54,2.89,2.52,4.74,2.52-4.73-1.55-2.9.23-.12L129,134.1l1.47-2.75.22.12-1.55,2.9,2.53,4.73,2.52-4.73-1.55-2.9.22-.12,1.47,2.75,1.47-2.75.22.12-1.55,2.9L137,139.1l2.52-4.73-1.55-2.9.22-.12,1.47,2.75,1.47-2.75.22.12-1.55,2.9,2.53,4.73,2.52-4.73-1.55-2.9.22-.12L145,134.1l1.47-2.75.22.12-1.55,2.9,2.52,4.73,2.53-4.73-1.55-2.9.22-.12,1.47,2.75,1.47-2.75.22.12-1.55,2.9L153,139.1l2.53-4.73-1.55-2.9.22-.12,1.47,2.75,1.47-2.75.22.12-1.55,2.9,2.52,4.73,2.52-4.73-1.54-2.9.22-.12L161,134.1l1.47-2.75.22.12-1.54,2.9,2.52,4.73,2.52-4.73-1.55-2.9.23-.12,1.46,2.75,1.47-2.75.22.12-1.54,2.9L169,139.1l2.52-4.73-1.55-2.9.23-.12,1.46,2.75,1.47-2.75.22.12-1.55,2.9,2.53,4.73,2.4-4.51L175,131.47l.22-.12,1.61,3,1.59-3,.22.12L177,134.59l2.54,4.71,2.56-4.8-1.65-3,.22-.12,1.57,2.88,1.54-2.88.22.12-1.62,3,1.5,2.74-.22.12-1.42-2.59-2.56,4.8,2.5,4.64,1.48-2.73.22.11-1.56,2.89,1.56,2.88-.22.12-1.48-2.74-2.44,4.53,2.56,4.81,1.36-2.49.22.12-1.44,2.63,1.68,3.14-.22.12-1.6-3Zm-70.16-8.24,2.53,4.73,2.52-4.73L113,144.62Zm16,0,2.52,4.73,2.53-4.73L129,144.62Zm-5.33,0,2.52,4.73,2.53-4.73-2.53-4.73Zm-37.3,0,2.52,4.73,2.53-4.73-2.53-4.73Zm21.31,0,2.53,4.73,2.52-4.73-2.52-4.73Zm64,0,2.52,4.73,2.53-4.73-2.53-4.73Zm-10.66,0,2.53,4.73,2.52-4.73L161,144.62Zm-21.31,0,2.52,4.73,2.52-4.73-2.52-4.73Zm-42.63,0L97,154.08l2.52-4.73L97,144.62Zm-5.33,0,2.52,4.73,2.52-4.73-2.52-4.73Zm26.64,0,2.52,4.73,2.53-4.73-2.53-4.73Zm-37.3,0L81,154.08l2.53-4.73L81,144.62Zm85.26,0,2.52,4.73,2.53-4.73-2.53-4.73Zm-21.31,0,2.52,4.73,2.52-4.73L145,144.62Zm-10.66,0,2.52,4.73,2.52-4.73-2.52-4.73Zm21.31,0,2.53,4.73,2.52-4.73-2.52-4.73Zm-53.28,0,2.52,4.73,2.52-4.73-2.52-4.73Zm48,0,2.52,4.73,2.52-4.73-2.52-4.73Zm26.64,0L176.9,154l2.54-4.71L177,144.62Zm-101-.4,2.53,4.71,2.3-4.31-2.53-4.73Zm34.42-4.59,2.52,4.73,2.52-4.73-2.52-4.73Zm-16,0,2.53,4.73,2.52-4.73-2.52-4.73Zm26.65,0,2.52,4.73,2.52-4.73L121,139.63Zm42.63,0,2.52,4.73,2.52-4.73-2.52-4.73Zm-26.65,0,2.53,4.73,2.52-4.73L137,139.63Zm32,0,2.52,4.73,2.52-4.73L169,139.63Zm-26.65,0,2.53,4.73,2.52-4.73-2.52-4.73Zm-26.64,0,2.52,4.73,2.52-4.73-2.52-4.73Zm16,0,2.53,4.73,2.52-4.73-2.52-4.73Zm-5.32,0,2.52,4.73,2.52-4.73-2.52-4.73Zm-42.64,0,2.53,4.73,2.52-4.73-2.52-4.73Zm21.32,0,2.52,4.73,2.53-4.73L105,139.63Zm-5.33,0,2.52,4.73,2.53-4.73-2.53-4.73Zm74.6,0,2.53,4.73,2.52-4.73-2.52-4.73Zm-16,0,2.52,4.73,2.52-4.73-2.52-4.73Zm-69.28,0L89,149.09l2.52-4.73L89,139.63Zm64,0,2.52,4.73,2.52-4.73L153,139.63Zm-5.33,0,2.52,4.73,2.53-4.73-2.53-4.73Zm-69.27,0,2.52,4.73,2.52-4.73-2.52-4.73Zm101.24,0,2.48,4.64,2.44-4.53-2.5-4.64ZM70.9,144.3l2.36,4.39,2.31-4.33L73.24,140Zm28.94-4.94,2.52,4.73,2.52-4.73-2.52-4.73Zm48,0,2.52,4.73,2.52-4.73-2.52-4.73Zm16,0,2.52,4.73,2.53-4.73-2.53-4.73Zm-5.33,0,2.52,4.73,2.53-4.73L161,134.63Zm-69.27,0,2.52,4.73,2.52-4.73-2.52-4.73Zm48,0,2.52,4.73,2.52-4.73-2.52-4.73Zm-32,0,2.53,4.73,2.52-4.73-2.52-4.73Zm-10.65,0L97,144.09l2.52-4.73L97,134.63Zm37.3,0,2.52,4.73,2.52-4.73-2.52-4.73Zm-16,0,2.52,4.73,2.53-4.73-2.53-4.73Zm-42.44.35,2.34,4.38,2.52-4.73L75.91,135Zm95.73-.35,2.52,4.73,2.53-4.73-2.53-4.73Zm-16,0,2.53,4.73,2.52-4.73-2.52-4.73Zm-10.65,0,2.52,4.73,2.52-4.73L145,134.63Zm-21.32,0,2.52,4.73,2.53-4.73-2.53-4.73Zm-37.3,0,2.52,4.73,2.52-4.73-2.52-4.73Zm-5.33,0L81,144.09l2.53-4.73L81,134.63Zm95.92,0,2.52,4.73,2.42-4.53-2.54-4.7Zm-63.95,0,2.53,4.73,2.52-4.73L113,134.63Zm16,0,2.52,4.73,2.53-4.73L129,134.63Zm26.91-8.05-.21-.13,3.69-6.19.21.13Zm-48.62,0-.22-.13,3.7-6.19.21.13Zm75.14,0-.21-.13,3.69-6.19.22.13Zm-8.84,0-.21-.13,3.69-6.19.21.13Zm-4.42,0-.21-.13,3.69-6.19.21.13Zm-4.42,0-.21-.13,3.69-6.19.22.13Zm-4.42,0-.21-.13,3.69-6.19.22.13Zm-8.84,0-.21-.13,3.69-6.19.21.13Zm-4.42,0-.21-.13L148,125l.21.13Zm-4.42,0-.21-.13,3.69-6.19.21.13Zm-13.26,0-.21-.13,3.69-6.19.21.13Zm-4.42,0-.21-.13,3.69-6.19.21.13Zm-13.26,0-.21-.13,3.69-6.19.21.13Zm-8.84,0-.21-.13,3.69-6.19.21.13Zm-4.42,0-.21-.13L99.41,125l.21.13Zm-4.42,0-.22-.13L95,125l.21.13Zm-4.42,0-.22-.13,3.7-6.19.21.13Zm-4.42,0-.21-.13L86.15,125l.21.13Zm-4.42,0-.21-.13L81.73,125l.21.13Zm-4.42,0-.22-.13,3.7-6.19.21.13Zm-4.42,0-.22-.13,3.7-6.19.21.13Zm106.08,0-.21-.13L179,125l.21.13Zm-39.78,0-.21-.13,3.69-6.19.21.13Zm-4.42,0-.21-.13,3.69-6.19.21.13Zm-13.26,0-.21-.13,3.69-6.19.21.13Zm-4.42,0-.21-.13,3.69-6.19.21.13Z" style="fill:#9d9d9c"></path><path d="M180.23,649.8l-.22-.12,1.71-3.13-2.56-4.81-2.53,4.71,1.72,3.23-.22.12-1.65-3.09-1.66,3.09-.22-.12,1.74-3.24-2.46-4.61-2.52,4.73,1.66,3.12-.22.12-1.58-3-1.59,3-.22-.12,1.67-3.12-2.53-4.73L166,646.56l1.66,3.12-.22.12-1.58-3-1.59,3-.22-.12,1.67-3.12-2.53-4.73-2.52,4.73,1.66,3.12-.22.12-1.58-3-1.59,3-.22-.12,1.67-3.12-2.53-4.73-2.52,4.73,1.67,3.12-.22.12-1.59-3-1.59,3-.22-.12,1.67-3.12-2.52-4.73L150,646.56l1.67,3.12-.22.12-1.59-3-1.58,3-.23-.12,1.67-3.12-2.52-4.73-2.52,4.73,1.66,3.12-.22.12-1.59-3-1.58,3-.22-.12,1.66-3.12-2.52-4.73-2.52,4.73,1.66,3.12-.22.12-1.58-3-1.59,3-.22-.12,1.66-3.12-2.52-4.73-2.52,4.73,1.66,3.12-.22.12-1.58-3-1.59,3-.22-.12,1.66-3.12-2.52-4.73-2.52,4.73,1.66,3.12-.22.12-1.58-3-1.59,3-.22-.12,1.67-3.12-2.53-4.73-2.52,4.73,1.66,3.12-.22.12-1.58-3-1.59,3-.22-.12,1.67-3.12-2.53-4.73-2.52,4.73,1.67,3.12-.22.12-1.59-3-1.59,3-.22-.12,1.67-3.12-2.53-4.73-2.52,4.73,1.67,3.12-.22.12-1.59-3-1.59,3-.22-.12,1.67-3.12-2.52-4.73-2.53,4.73,1.67,3.12-.22.12-1.59-3-1.59,3-.22-.12,1.67-3.12-2.52-4.73-2.53,4.73,1.67,3.12-.22.12-1.59-3-1.58,3-.22-.12,1.66-3.12-2.52-4.73-2.52,4.73,1.66,3.12-.22.12-1.58-3-1.59,3-.22-.12,1.66-3.12L94,641.83l-2.52,4.73,1.66,3.12-.22.12-1.58-3-1.59,3-.22-.12,1.66-3.12-2.52-4.73-2.52,4.73,1.66,3.12-.22.12-1.58-3-1.59,3-.22-.12,1.67-3.12-2.53-4.73-2.52,4.73,1.66,3.12-.22.12-1.58-3-1.59,3-.22-.12,1.67-3.12L78,641.83l-2.29,4.3,1.82,3.39-.22.12-1.74-3.24-1.82,3.4-.22-.12,1.89-3.55-2.53-4.7-2.56,4.8,1.79,3.29-.22.12-1.71-3.14-1.77,3.3-.22-.12L70,646.24l-1.35-2.48.22-.12L70.14,646l2.57-4.8-2.37-4.39-1.47,2.74-.22-.11,1.55-2.89-1.55-2.89.22-.12,1.47,2.75,2.34-4.34-2.57-4.8-1.24,2.28-.22-.12L70,626.85l-1.69-3.17.22-.12,1.62,3,1.74-3.19.22.12-1.82,3.34,2.56,4.8,2.54-4.7-1.75-3.28.22-.12,1.67,3.13,1.77-3.29.22.12L75.64,627,78,631.31l2.53-4.73-1.55-2.9.22-.12,1.47,2.76,1.47-2.76.22.12-1.55,2.9,2.52,4.73,2.52-4.73-1.54-2.9.22-.12L86,626.32l1.46-2.76.23.12-1.55,2.9,2.52,4.73,2.52-4.73-1.54-2.9.22-.12,1.47,2.76,1.46-2.75.22.11-1.54,2.9L94,631.31l2.52-4.73-1.55-2.9.23-.11,1.46,2.75,1.47-2.76.22.12-1.54,2.9,2.52,4.73,2.52-4.73-1.55-2.9.22-.12,1.47,2.76,1.47-2.76.22.12-1.54,2.9,2.52,4.73,2.52-4.73-1.55-2.9.22-.12,1.47,2.76,1.47-2.75.22.11-1.55,2.9,2.53,4.73,2.52-4.73-1.55-2.9.22-.11,1.47,2.75,1.47-2.75.22.11-1.55,2.9,2.52,4.73,2.53-4.73-1.55-2.9.22-.12,1.47,2.76,1.47-2.76.22.12-1.55,2.9,2.52,4.73,2.53-4.73-1.55-2.9.22-.11,1.47,2.75,1.47-2.76.22.12-1.55,2.9,2.52,4.73,2.53-4.73-1.55-2.9.22-.11,1.47,2.75,1.46-2.76.23.12-1.55,2.9,2.52,4.73,2.52-4.73-1.54-2.9.22-.12,1.47,2.76,1.46-2.76.22.12-1.54,2.9,2.52,4.73,2.52-4.73-1.54-2.9.22-.11,1.46,2.75,1.47-2.75.22.11-1.54,2.9,2.52,4.73,2.52-4.73-1.55-2.9.22-.11,1.47,2.75,1.47-2.75.22.11-1.54,2.9,2.52,4.73,2.52-4.73-1.55-2.9.22-.11,1.47,2.75,1.47-2.76.22.12-1.55,2.9,2.53,4.73,2.52-4.73-1.55-2.9.22-.11,1.47,2.75,1.47-2.75.22.11-1.55,2.9,2.53,4.73,2.52-4.73-1.55-2.9.22-.12,1.47,2.76,1.47-2.76.22.12-1.55,2.9,2.52,4.73,2.53-4.73-1.55-2.9.22-.12,1.47,2.76,1.47-2.76.22.12-1.55,2.9,2.52,4.73,2.53-4.73-1.55-2.9.22-.12,1.47,2.76,1.47-2.76.22.12-1.55,2.9,2.52,4.73,2.4-4.5-1.68-3.13.22-.12,1.6,3,1.59-3,.22.11-1.66,3.13,2.53,4.7,2.57-4.8-1.66-3,.22-.12,1.58,2.89,1.53-2.89.22.12-1.61,3,1.49,2.73-.22.12L181.81,627l-2.56,4.81,2.5,4.64,1.47-2.74.22.12-1.55,2.88,1.55,2.89-.22.12L181.75,637l-2.45,4.53,2.57,4.8,1.35-2.48.22.12L182,646.55l1.67,3.13-.22.12-1.59-3Zm-48.84-8.23,2.53,4.73,2.52-4.73-2.52-4.73Zm26.65,0,2.52,4.73,2.52-4.73-2.52-4.73Zm5.33,0,2.52,4.73,2.52-4.73-2.52-4.73Zm-69.28,0,2.53,4.73,2.52-4.73-2.53-4.73Zm58.62,0,2.52,4.73,2.52-4.73-2.52-4.73Zm-26.65,0,2.53,4.73,2.52-4.73-2.52-4.73Zm-5.33,0,2.53,4.73,2.52-4.73-2.52-4.73Zm-16,0,2.52,4.73,2.52-4.73-2.52-4.73Zm37.3,0,2.52,4.73,2.53-4.73-2.53-4.73Zm-5.33,0,2.53,4.73,2.52-4.73-2.52-4.73Zm-58.62,0,2.53,4.73,2.52-4.73-2.52-4.73Zm32,0,2.52,4.73,2.52-4.73-2.52-4.73Zm-21.32,0,2.53,4.73,2.52-4.73-2.52-4.73Zm79.93,0,2.53,4.73,2.52-4.73-2.52-4.73Zm-85.26,0L86,646.29l2.52-4.72L86,636.84Zm16,0,2.52,4.72,2.53-4.72-2.53-4.73Zm48,0,2.52,4.72,2.52-4.72-2.52-4.73Zm-32,0,2.52,4.72,2.52-4.72-2.52-4.73Zm58.61,0,2.47,4.61,2.53-4.7-2.47-4.64Zm-101-.4,2.54,4.7,2.29-4.3-2.52-4.73Zm23.77-4.6,2.52,4.73,2.52-4.73-2.52-4.73Zm58.61,0,2.52,4.73,2.53-4.73-2.52-4.73Zm-5.33,0,2.53,4.73,2.52-4.73-2.52-4.72Zm-5.32,0,2.52,4.73,2.52-4.73-2.52-4.73Zm-10.66,0,2.52,4.73,2.52-4.73-2.52-4.73Zm-32,0,2.52,4.73,2.52-4.73-2.52-4.73Zm-16,0,2.52,4.73,2.52-4.73-2.52-4.73Zm42.63,0,2.52,4.73,2.52-4.73-2.52-4.73Zm-5.33,0,2.52,4.73,2.53-4.73-2.53-4.73Zm42.63,0,2.52,4.73,2.53-4.73-2.53-4.73Zm-5.33,0,2.52,4.73,2.53-4.73-2.53-4.73Zm-21.31,0,2.52,4.73,2.52-4.73-2.52-4.73Zm32,0,2.52,4.73,2.52-4.73-2.52-4.73Zm-58.62,0,2.52,4.73,2.53-4.73-2.53-4.73Zm-21.31,0L94,641.3l2.52-4.73L94,631.84Zm16,0,2.53,4.73,2.52-4.73-2.52-4.73Zm-32,0L78,641.3l2.53-4.73L78,631.84Zm5.33,0,2.52,4.73,2.52-4.73-2.52-4.73Zm37.3,0,2.52,4.73,2.53-4.73-2.53-4.73Zm58.62,0,2.47,4.64,2.44-4.53L179.1,632Zm-106.2-.05,2.36,4.38,2.31-4.33-2.34-4.38Zm82.22-4.94,2.52,4.73,2.52-4.73-2.52-4.73Zm-53.29,0,2.52,4.73,2.53-4.73-2.53-4.73Zm48,0,2.52,4.73,2.52-4.73-2.52-4.73Zm26.64,0,2.53,4.73,2.41-4.53-2.53-4.71Zm-79.93,0,2.52,4.73,2.53-4.73-2.53-4.73Zm-5.33,0,2.53,4.73,2.52-4.73-2.52-4.73Zm-15.8.35,2.34,4.38,2.52-4.73-2.32-4.36Zm69.09-.35,2.52,4.73,2.53-4.73-2.53-4.73Zm-5.33,0,2.53,4.73,2.52-4.73-2.53-4.73Zm-21.31,0,2.52,4.73,2.52-4.73-2.52-4.73Zm53.28,0,2.53,4.73,2.52-4.73-2.52-4.73Zm-63.94,0,2.52,4.73,2.52-4.73-2.52-4.73Zm-21.32,0L86,636.31l2.52-4.73L86,626.85Zm79.94,0,2.52,4.73,2.52-4.73-2.52-4.73Zm-5.33,0,2.52,4.73,2.52-4.73-2.52-4.73Zm-32,0,2.53,4.73,2.52-4.73-2.52-4.73Zm-5.32,0,2.52,4.73,2.52-4.73-2.52-4.73Zm-10.66,0,2.52,4.73,2.52-4.73-2.52-4.73Zm-32,0,2.52,4.73,2.52-4.73-2.52-4.73Zm53.28,0,2.53,4.73,2.52-4.73-2.52-4.73Zm48.9-147.44-.22-.12,1.72-3.14-2.57-4.8-2.53,4.7,1.72,3.24-.22.12-1.65-3.09-1.66,3.09-.22-.12,1.74-3.24-2.46-4.61-2.52,4.73,1.67,3.12-.23.12-1.58-3-1.59,3-.22-.12,1.67-3.12-2.53-4.73-2.52,4.73,1.67,3.12-.23.12-1.58-3-1.59,3-.22-.12,1.67-3.12-2.53-4.73-2.52,4.73,1.66,3.12-.22.12-1.58-3-1.59,3-.22-.12,1.67-3.12L158,476.17l-2.52,4.73L157.1,484l-.22.12-1.59-3-1.59,3-.22-.12,1.67-3.12-2.52-4.73-2.53,4.73,1.67,3.12-.22.12-1.59-3-1.58,3-.23-.12,1.67-3.12-2.52-4.73-2.52,4.73,1.66,3.12-.22.12-1.59-3-1.58,3-.22-.12,1.66-3.12L142,476.17l-2.52,4.73,1.66,3.12-.22.12-1.58-3-1.59,3-.22-.12,1.66-3.12-2.52-4.73-2.52,4.73,1.66,3.12-.22.12-1.58-3-1.59,3-.22-.12,1.67-3.12-2.53-4.73-2.52,4.73,1.66,3.12-.22.12-1.58-3-1.59,3-.22-.12,1.67-3.12L126,476.17l-2.52,4.73,1.67,3.12-.23.12-1.58-3-1.59,3-.22-.12,1.67-3.12-2.53-4.73-2.52,4.73L119.8,484l-.22.12-1.59-3-1.59,3-.22-.12,1.67-3.12-2.52-4.73-2.53,4.73,1.67,3.12-.22.12-1.59-3-1.59,3-.22-.12,1.67-3.12L110,476.17l-2.53,4.73,1.67,3.12-.22.12-1.59-3-1.58,3-.23-.12,1.67-3.12-2.52-4.73-2.52,4.73,1.66,3.12-.22.12-1.59-3-1.58,3-.22-.12,1.66-3.12-2.52-4.73-2.52,4.73L98.48,484l-.22.12-1.59-3-1.58,3-.22-.12,1.66-3.12L94,476.17l-2.52,4.73L93.15,484l-.22.12-1.58-3-1.59,3-.22-.12,1.66-3.12-2.52-4.73-2.52,4.73L87.82,484l-.22.12-1.58-3-1.59,3-.22-.12,1.67-3.12-2.53-4.73-2.52,4.73L82.5,484l-.22.12-1.59-3-1.59,3-.22-.12,1.67-3.12L78,476.17l-2.29,4.3,1.82,3.39-.22.12-1.74-3.24-1.82,3.4-.22-.12,1.89-3.55-2.53-4.7-2.56,4.8,1.79,3.29-.22.12-1.71-3.14-1.77,3.3-.22-.12,1.84-3.45-1.35-2.47.22-.12,1.27,2.33,2.57-4.81-2.37-4.38-1.47,2.74-.22-.12,1.55-2.88L68.71,468l.22-.12,1.47,2.74,2.34-4.33-2.57-4.8-1.24,2.28-.22-.12L70,461.19,68.34,458l.22-.12,1.62,3,1.74-3.19.22.12-1.82,3.33L72.88,466l2.54-4.71L73.67,458l.22-.12L75.56,461l1.77-3.29.22.12-1.85,3.43L78,465.65l2.53-4.73L79,458l.22-.12,1.47,2.76,1.47-2.76.22.12-1.55,2.9,2.52,4.73,2.53-4.73L84.33,458l.22-.12L86,460.66l1.47-2.76.22.12-1.55,2.9,2.52,4.73,2.52-4.73L89.66,458l.22-.12,1.47,2.76,1.46-2.76L93,458l-1.54,2.9L94,465.65l2.52-4.73L95,458l.23-.12,1.46,2.76,1.47-2.76.22.12-1.54,2.9,2.52,4.73,2.52-4.73-1.55-2.9.22-.12,1.47,2.76,1.47-2.76.22.12-1.54,2.9,2.52,4.73,2.52-4.73-1.55-2.9.22-.12,1.47,2.76,1.47-2.76.22.12-1.55,2.9,2.53,4.73,2.52-4.73L111,458l.22-.12,1.47,2.76,1.47-2.76.22.12-1.55,2.9,2.53,4.73,2.52-4.73L116.3,458l.22-.12,1.47,2.76,1.47-2.76.22.12-1.55,2.9,2.52,4.73,2.53-4.73-1.55-2.9.22-.12,1.47,2.76,1.47-2.76.22.12-1.55,2.9,2.52,4.73,2.53-4.73L127,458l.22-.12,1.47,2.76,1.47-2.76.22.12-1.55,2.9,2.52,4.73,2.53-4.73-1.55-2.9.22-.12,1.47,2.76,1.46-2.76.22.12-1.54,2.9,2.52,4.73,2.52-4.73-1.54-2.9.22-.12,1.46,2.76,1.47-2.76.22.12-1.54,2.9,2.52,4.73,2.52-4.73-1.55-2.9.22-.12,1.47,2.76,1.47-2.76.22.12-1.54,2.9,2.52,4.73,2.52-4.73-1.55-2.9.22-.12,1.47,2.76,1.47-2.76.22.12-1.55,2.9,2.53,4.73,2.52-4.73L153.6,458l.22-.12,1.47,2.76,1.47-2.76.22.12-1.55,2.9,2.53,4.73,2.52-4.73-1.55-2.9.22-.12,1.47,2.76,1.47-2.76.22.12-1.55,2.9,2.52,4.73,2.53-4.73-1.55-2.9.22-.12,1.47,2.76,1.47-2.76.22.12-1.55,2.9,2.52,4.73,2.53-4.73-1.55-2.9.22-.12,1.47,2.76,1.47-2.76.22.12-1.55,2.9,2.52,4.73,2.4-4.5L174.66,458l.22-.12,1.6,3,1.59-3,.23.12-1.67,3.13,2.53,4.7,2.57-4.8-1.66-3,.22-.12,1.58,2.89,1.53-2.89.23.12-1.62,3,1.49,2.73-.22.12-1.41-2.59-2.56,4.81,2.5,4.64,1.47-2.74.22.11L182,471l1.55,2.89-.22.11-1.47-2.74-2.45,4.53,2.57,4.81,1.35-2.48.22.12-1.43,2.62,1.67,3.14-.22.12-1.59-3Zm-22.19-8.23,2.52,4.73,2.52-4.73-2.52-4.73Zm-32,0,2.52,4.73,2.52-4.73-2.52-4.73Zm-5.33,0,2.52,4.73,2.52-4.73-2.52-4.73Zm10.65,0,2.53,4.73,2.52-4.73L134,471.18Zm-16,0,2.52,4.73,2.52-4.73L118,471.18Zm37.3,0,2.52,4.72,2.52-4.72-2.52-4.73Zm-16,0,2.53,4.72,2.52-4.72-2.52-4.73Zm5.33,0,2.52,4.72,2.53-4.73-2.53-4.72Zm21.32,0,2.52,4.72,2.52-4.73L166,471.18Zm-74.61,0,2.53,4.73,2.52-4.72-2.52-4.73Zm79.94,0,2.52,4.73,2.52-4.73-2.52-4.72Zm-63.95,0,2.52,4.72,2.52-4.73-2.52-4.72Zm5.33,0,2.52,4.73,2.52-4.72-2.52-4.73Zm-26.65,0L86,480.63l2.52-4.73L86,471.18Zm10.66,0,2.52,4.72,2.53-4.73-2.53-4.72Zm-16,0,2.52,4.73,2.52-4.72-2.52-4.73Zm21.31,0,2.52,4.73,2.53-4.72L102,471.18Zm48,0,2.52,4.73,2.52-4.72L150,471.18Zm26.64,0,2.47,4.62,2.53-4.71-2.47-4.63Zm-101-.4,2.54,4.71,2.29-4.31-2.52-4.72Zm50.41-4.59,2.52,4.73,2.53-4.73L126,466.18Zm32,0,2.52,4.73,2.53-4.73L158,466.18Zm-21.31,0,2.52,4.73,2.52-4.73-2.52-4.73Zm-5.33,0,2.52,4.73,2.53-4.73-2.53-4.73Zm-10.66,0,2.52,4.73,2.53-4.73-2.53-4.73Zm21.32,0,2.52,4.73,2.52-4.73L142,466.18Zm21.31,0,2.52,4.73,2.53-4.73-2.53-4.73Zm-10.66,0,2.53,4.73,2.52-4.73-2.52-4.73Zm-58.61,0L94,475.64l2.52-4.73L94,466.18Zm10.65,0,2.53,4.73,2.52-4.73-2.52-4.73Zm10.66,0,2.53,4.73,2.52-4.73-2.52-4.73Zm-32,0,2.52,4.73,2.53-4.73-2.53-4.73Zm26.64,0,2.53,4.73,2.52-4.73L110,466.18Zm-21.31,0,2.52,4.73,2.52-4.73-2.52-4.73Zm10.66,0,2.52,4.73,2.52-4.73-2.52-4.73Zm74.6,0,2.52,4.73,2.53-4.73-2.53-4.73Zm-26.64,0,2.52,4.73,2.52-4.73-2.52-4.73Zm-69.28,0L78,475.64l2.53-4.73L78,466.18Zm90.59,0,2.52,4.73,2.53-4.73-2.53-4.73Zm10.66,0,2.47,4.64,2.44-4.53-2.5-4.64Zm-106.2-.05,2.36,4.38,2.31-4.33-2.34-4.38Zm76.89-4.94,2.52,4.73,2.53-4.73L150,461.19Zm-48,0,2.52,4.73,2.53-4.73L102,461.19Zm37.3,0,2.53,4.73,2.52-4.73-2.53-4.73Zm-10.66,0,2.53,4.73,2.52-4.73-2.52-4.73Zm-5.32,0,2.52,4.73,2.52-4.73-2.52-4.73Zm-26.65,0,2.52,4.73,2.53-4.73-2.53-4.73Zm58.62,0,2.52,4.73,2.52-4.73-2.52-4.73Zm21.31,0,2.53,4.73,2.41-4.53-2.53-4.71Zm-16,0,2.52,4.73,2.52-4.73-2.52-4.73Zm-16,0,2.52,4.73,2.53-4.73-2.53-4.73Zm-32,0,2.52,4.73,2.52-4.73-2.52-4.73Zm-5.33,0,2.52,4.73,2.52-4.73-2.52-4.73Zm-26.64,0,2.52,4.73,2.52-4.73-2.52-4.73Zm85.26,0,2.52,4.73,2.52-4.73L166,461.19Zm-48,0,2.52,4.73,2.52-4.73L118,461.19Zm-26.65,0,2.53,4.73,2.52-4.73-2.52-4.73Zm-5.33,0L86,470.65l2.52-4.73L86,461.19Zm48,0,2.53,4.73,2.52-4.73L134,461.19ZM73,466.26l2.34,4.38,2.52-4.72-2.32-4.36Zm95.74-.34,2.52,4.72,2.52-4.72-2.52-4.73Zm-19.91-69.16-.21-.13,3.69-6.19.22.13Zm-75.14,0-.21-.13,3.69-6.19.21.13Zm-4.42,0-.21-.13,3.69-6.19.21.13Zm110.51,0-.22-.13,3.69-6.19.22.13Zm-4.43,0-.21-.13,3.69-6.19.22.13Zm-4.42,0-.21-.13,3.69-6.19.21.13Zm-4.42,0-.21-.13,3.69-6.19.22.13Zm-4.41,0-.22-.13,3.69-6.19.22.13Zm-4.43,0-.21-.13,3.69-6.19.22.13Zm-4.42,0-.21-.13,3.69-6.19.22.13Zm-8.84,0-.21-.13,3.69-6.19.22.13Zm-4.42,0-.21-.13,3.69-6.19.22.13Zm-4.42,0-.21-.13,3.69-6.19.22.13Zm-4.42,0-.21-.13,3.69-6.19.22.13Zm-4.42,0-.21-.13,3.69-6.19.21.13Zm-4.42,0-.21-.13,3.69-6.19.22.13Zm-4.42,0-.21-.13,3.69-6.19.21.13Zm-4.42,0-.21-.13,3.69-6.19.21.13Zm-4.42,0-.21-.13,3.69-6.19.21.13Zm-4.42,0-.21-.13,3.69-6.19.21.13Zm-4.42,0-.21-.13,3.69-6.19.21.13Zm-4.42,0-.21-.13,3.69-6.19.21.13Zm-4.42,0-.21-.13,3.69-6.19.21.13Zm-4.42,0-.21-.13,3.69-6.19.21.13Zm-4.42,0-.21-.13L86,390.44l.21.13Zm-4.42,0-.21-.13,3.69-6.19.21.13Zm101.3-53.95-.21-.13,3.69-6.19.21.13Zm-13.26,0-.21-.13,3.69-6.19.21.13Zm-4.42,0-.21-.13,3.69-6.19.21.13Zm-4.42,0-.21-.13,3.69-6.19.21.13Zm-17.68,0-.22-.13,3.7-6.19.21.13Zm-4.42,0-.22-.13,3.7-6.19.21.13Zm-4.42,0-.22-.13,3.7-6.19.21.13Zm-4.42,0-.22-.13,3.7-6.19.21.13Zm-4.42,0-.22-.13,3.69-6.19.22.13Zm-4.42,0-.22-.13,3.7-6.19.21.13Zm-4.42,0-.22-.13,3.69-6.19.22.13Zm-4.42,0-.22-.13,3.7-6.19.21.13Zm-13.26,0-.22-.13,3.69-6.19.22.13Zm-4.42,0-.22-.13,3.69-6.19.22.13Zm-4.42,0-.22-.13,3.69-6.19.22.13Zm-4.42,0-.22-.13,3.7-6.19.21.13Zm-4.42,0-.22-.13,3.69-6.19.22.13Zm-4.42,0-.22-.13,3.69-6.19.22.13Zm101.66,0-.21-.13,3.69-6.19.21.13Zm-4.42,0-.21-.13,3.69-6.19.21.13Zm-17.68,0-.21-.13,3.69-6.19.21.13Zm-4.42,0-.21-.13,3.69-6.19.21.13Zm-4.42,0-.22-.13,3.7-6.19.21.13Zm-39.78,0-.22-.13,3.69-6.19.22.13Zm-4.42,0-.22-.13,3.69-6.19.22.13Zm-30.94,0-.22-.13,3.69-6.19.22.13Zm97.43-6.72-.21-.13,3.69-6.19.21.13Zm-70.72,0-.22-.13,3.7-6.19.21.13Zm-4.42,0L91,336l3.7-6.19.21.13Zm-4.42,0-.22-.13,3.7-6.19.21.13Zm92.82,0-.21-.13,3.69-6.19.21.13Zm-4.42,0L175,336l3.69-6.19.21.13Zm-4.42,0-.21-.13,3.69-6.19.21.13Zm-8.84,0-.21-.13,3.69-6.19.21.13Zm-4.42,0-.21-.13,3.69-6.19.22.13Zm-4.42,0-.21-.13,3.69-6.19.21.13Zm-4.42,0-.21-.13,3.69-6.19.21.13Zm-4.42,0-.21-.13,3.69-6.19.21.13Zm-4.42,0-.21-.13,3.69-6.19.21.13Zm-4.42,0-.21-.13,3.69-6.19.21.13Zm-4.42,0-.21-.13,3.69-6.19.21.13Zm-4.42,0-.21-.13,3.69-6.19.21.13Zm-4.42,0L122,336l3.69-6.19.21.13Zm-4.42,0-.21-.13,3.69-6.19.21.13Zm-4.42,0-.21-.13,3.69-6.19.21.13Zm-4.42,0-.21-.13,3.69-6.19.21.13Zm-4.42,0-.21-.13,3.69-6.19.21.13Zm-4.42,0-.22-.13,3.7-6.19.21.13Zm-17.68,0-.21-.13,3.69-6.19.21.13Zm-4.42,0-.21-.13,3.69-6.19.21.13Zm-4.42,0-.22-.13,3.7-6.19.21.13Zm-4.42,0-.21-.13,3.69-6.19.21.13Z" style="fill:#9d9d9c"></path><path d="M190.2,714.42H62.12V703.58H49.71v2a3.09,3.09,0,1,1-6.16,0V661a3.09,3.09,0,1,1,6.16,0v3.07H62.12V603.4H49.71v2.78a3.09,3.09,0,1,1-6.16,0v-44.6a3.09,3.09,0,1,1,6.16,0V564H62.12V541.1H49.71v2.38a3.09,3.09,0,1,1-6.16,0v-44.6a3.09,3.09,0,1,1,6.16,0v2.71H62.12V443.51H49.71v2.16a3.09,3.09,0,1,1-6.16,0V401.06a3.09,3.09,0,1,1,6.16,0v3H62.12V383.13H49.71v2a3.09,3.09,0,1,1-6.16,0V340.5a3.09,3.09,0,1,1,6.16,0v3.19H62.12V281H49.71v2.79a3.09,3.09,0,1,1-6.16,0V239.15a3.09,3.09,0,1,1,6.16,0v2.46H62.12V215.37H49.71v2.3a3.09,3.09,0,1,1-6.16,0v-44.6a3.09,3.09,0,1,1,6.16,0v3.43H62.12V94.15l.12-.11c.21-.21,21.39-20.08,52.8-23.6V67.82h-7.77V60.88H152.4v6.94h-6.9l0,2.58c1.72.26,10.07,1.56,14.49,2.81l6.45-7.46L163,63.17a2.35,2.35,0,0,1-.91-1.84,3.44,3.44,0,0,1,.71-2.16A3.35,3.35,0,0,1,165,57.82a2.31,2.31,0,0,1,1.73.41L192.63,77.6a2.4,2.4,0,0,1,.91,1.85,3.52,3.52,0,0,1-.71,2.16A3.36,3.36,0,0,1,190.67,83a2.34,2.34,0,0,1-1.74-.42L185.54,80l-2.28,2.51c1.3.71,5.2,2.93,6.86,5l.08.11v82.47h22.86v-8.89H220v51.11h-6.94v-8.9H190.2v35.82h22.86v-8.9H220v51.12h-6.94v-8.9H190.2v72.34h22.86V336H220v51.11h-6.94v-8.89H190.2v24.54h22.86v-8.9H220v50.6h-6.94v-8.9H190.2v65.75h22.86v-8.9H220V544h-6.94v-8.9H190.2v29.18h22.86v-8.9H220V606.7h-6.94v-8.9H190.2v67.1h22.86V656H220v53h-7.33V698.55H190.2Zm-127.33-.75H189.45V697.8h24v10.45h5.83v-15.5H184V709H68.31V698.16H49.71v4.67H62.87Zm6.19-5.42h114.2V692h36V671.85H183.08v-7h.18v-74h36V571.22h-36V528.16h36v-20h-36V497.9H69.06v10.63H49.71v25.63H69.06V570.9H49.71v25.55H69.06V671H49.71v26.38H69.06ZM46.63,658.37A2.5,2.5,0,0,0,44.3,661v44.6a2.35,2.35,0,1,0,4.66,0V661A2.5,2.5,0,0,0,46.63,658.37Zm137.2,12.73h35.42V656.76h-5.44v8.89H189.45v-68.6h24.36V606h5.44V591.61H184v74h-.18Zm-134.12-.82h18.6V597.2H49.71v5.45H62.87v62.18H49.71ZM46.63,558.94a2.5,2.5,0,0,0-2.33,2.64v44.6a2.35,2.35,0,1,0,4.66,0v-44.6A2.5,2.5,0,0,0,46.63,558.94ZM184,570.47h35.24V556.13h-5.44V565H189.45V534.35h24.36v8.9h5.44V528.91H184Zm-134.3-.32h18.6V534.91H49.71v5.44H62.87v24.36H49.71Zm-3.08-73.9a2.49,2.49,0,0,0-2.33,2.63v44.6a2.35,2.35,0,1,0,4.66,0v-44.6A2.49,2.49,0,0,0,46.63,496.25Zm3.08,11.53h18.6V437.32H49.71v5.44H62.87v59.58H49.71Zm134.3-.33h35.24V493.11h-5.44V502H189.45V434.76h24.36v8.9h5.44V429.31H184ZM69.06,497.15h114.2v-6H69.06Zm0-6.79h114.2v-5.91H69.06Zm0-6.66h114.2V458.34H69.06Zm0-26.11h114.2v-5.44H69.06Zm0-6.19h114.2V428.56h36V409.65h-36V397.12H69.06V411H49.71v25.57H69.06Zm-22.43-53a2.49,2.49,0,0,0-2.33,2.63v44.61a2.35,2.35,0,1,0,4.66,0V401.06A2.49,2.49,0,0,0,46.63,398.43Zm3.08,11.82h18.6V376.94H49.71v5.44H62.87v22.43H49.71ZM184,408.9h35.24V394.56h-5.44v8.9H189.45v-26h24.36v8.89h5.44V372H184ZM69.06,396.37h114.2v-5.44H69.06Zm0-6.19h114.2v-19h36V351.79h-36v-8.37H69.06v7.21H49.71v25.56H69.06ZM46.63,337.86a2.5,2.5,0,0,0-2.33,2.64v44.6a2.35,2.35,0,1,0,4.66,0V340.5A2.5,2.5,0,0,0,46.63,337.86ZM184,351h35.24V336.7h-5.44v8.9H189.45V271.76h24.36v8.9h5.44V266.32H184V297h.12v6.94H184Zm-134.3-1.16h18.6V274.77H49.71v5.45H62.87v64.22H49.71Zm19.35-7.21h114.2v-6H69.06Zm0-6.79h114.2V330H69.06Zm0-6.65h114.2V303.94H69.06Zm.13-26H183.26v-5.44H69.19ZM69.06,297h114.2V265.57h36V246.13h-36v-11H69.06v13.45H49.71V274H69.06ZM46.63,236.52a2.49,2.49,0,0,0-2.33,2.63v44.61a2.35,2.35,0,1,0,4.66,0V239.15A2.49,2.49,0,0,0,46.63,236.52Zm3.08,11.28h18.6V209.17H49.71v5.45H62.87v27.74H49.71ZM184,245.38h35.24V231h-5.44v8.9H189.45V202.62h24.36v8.9h5.44V197.18H184Zm-114.95-11h114.2v-6H69.06Zm0-6.79h114.2V196.43h36V177h-36V164.48H69.06v19H49.71v25H69.06ZM46.63,170.43a2.5,2.5,0,0,0-2.33,2.64v44.6a2.35,2.35,0,1,0,4.66,0v-44.6A2.5,2.5,0,0,0,46.63,170.43Zm3.08,12.26h18.6V94.14l.12-.11c19.31-18,48.93-20.5,52.52-20.75V61.63H108v5.44h7.77v4.05l-.33,0C85.32,74.4,64.61,92.88,62.87,94.47v82.78H49.71ZM184,176.25h35.24V161.91h-5.44v8.89H189.45v-83c-1.93-2.27-6.92-4.88-7-4.91l-.43-.22,2.88-3.17-3.08-2.3-5.2,5.91a71.15,71.15,0,0,1,7.19,4.24l.17.11v69.61h.06v7.36H184ZM69.06,163.73h114.2v-5.86H69.06Zm0-6.61h114.2v-25.5H69.06Zm.12-26.25H183.12v-5.44H69.18Zm-.12-6.19h114.2V87.91a66.45,66.45,0,0,0-7.37-4.28l-.46-.21,5.82-6.62-10.33-7.72-8.28,9.32-.23-.06c-.14,0-13.95-4-23.09-4.36L139,74V61.63H121.7V74l-.36,0c-.32,0-32,1.7-52.28,20.46ZM186,79.44l3.34,2.5a1.55,1.55,0,0,0,1.18.27,2.63,2.63,0,0,0,1.67-1,2.7,2.7,0,0,0,.56-1.68,1.64,1.64,0,0,0-.61-1.28L166.27,58.83a1.59,1.59,0,0,0-1.18-.27,2.65,2.65,0,0,0-1.67,1.06,2.7,2.7,0,0,0-.56,1.68,1.62,1.62,0,0,0,.61,1.27l18.28,13.66h0L186,79.44Zm-46.33-6.2c8.57.4,20.86,3.8,22.68,4.31l7.93-8.92-3.25-2.43-6.8,7.86L160,74c-4.79-1.4-14.84-2.88-14.94-2.9l-.32,0,0-4h6.91V61.63H139.71Z" style="fill:#1d1d1b"></path><path d="M175.36,662.94l-.43-.26,3.69-6.19.43.25Zm-17.68,0-.43-.26,3.69-6.19.43.25Zm-4.42,0-.43-.26,3.69-6.19.43.25Zm-4.42,0-.43-.26,3.69-6.19.43.25Zm-13.26,0-.43-.26,3.69-6.19.43.25Zm-22.1,0-.43-.26,3.69-6.19.43.25Zm-8.84,0-.43-.26,3.69-6.19.43.25Zm-4.42,0-.43-.26,3.69-6.19.43.25Zm-4.42,0-.43-.26,3.69-6.19.43.25Zm-26.52,0-.43-.26,3.69-6.19.43.25Zm110.5,0-.43-.26,3.69-6.19.43.25Zm-8.84,0-.43-.26,3.69-6.19.43.25Zm-4.42,0-.43-.26,3.69-6.19.43.25Zm-4.42,0-.43-.26,3.69-6.19.43.25Zm-17.68,0-.43-.26,3.69-6.19.43.25Zm-4.42,0-.43-.26,3.69-6.19.43.25Zm-8.84,0-.43-.26,3.69-6.19.43.25Zm-4.42,0-.43-.26,3.69-6.19.43.25Zm-4.42,0-.43-.26,3.69-6.19.43.25Zm-4.42,0-.43-.26,3.69-6.19.43.25Zm-8.84,0-.43-.26,3.69-6.19.43.25Zm-17.68,0-.43-.26,3.69-6.19.43.25Zm-4.42,0-.43-.26,3.69-6.19.43.25Zm-4.42,0-.43-.26,3.69-6.19.43.25Zm-4.42,0-.43-.26,3.69-6.19.43.25Zm-4.42,0-.43-.26L77,656.49l.43.25Zm48.56-6.73-.43-.25,3.7-6.19.43.25Zm-4.42,0-.43-.25,3.7-6.19.43.25Zm-4.42,0L113,656l3.7-6.19.43.25Zm57.46,0-.43-.25,3.7-6.19.43.25Zm-4.41,0L166,656l3.69-6.19.43.25Zm-4.42,0-.43-.25,3.69-6.19.43.25Zm-4.42,0-.43-.25,3.69-6.19.43.25Zm-4.43,0-.43-.25,3.7-6.19.43.25Zm-4.42,0-.43-.25,3.7-6.19.43.25Zm-13.26,0-.43-.25,3.7-6.19.43.25Zm-4.42,0-.43-.25,3.7-6.19.43.25Zm-4.42,0-.43-.25,3.7-6.19.43.25Zm-17.68,0-.43-.25,3.7-6.19.43.25Zm-4.42,0-.43-.25,3.7-6.19.43.25Zm-4.42,0-.43-.25,3.69-6.19.43.25Zm-13.26,0-.43-.25,3.69-6.19.43.25Zm-4.42,0-.43-.25,3.7-6.19.42.25Zm-4.42,0-.43-.25,3.69-6.19.43.25Zm-8.84,0-.43-.25,3.69-6.19.43.25Zm110.51,0-.43-.25,3.69-6.19.43.25Zm-4.42,0-.43-.25,3.69-6.19.43.25Zm-30.95,0-.43-.25,3.7-6.19.42.25Zm-4.42,0-.43-.25,3.7-6.19.42.25Zm-44.2,0-.43-.25L99,649.77l.43.25Zm-4.42,0-.43-.25,3.69-6.19L95,650Zm-17.68,0-.43-.25,3.69-6.19.43.25Zm93-100.45-.43-.26,3.69-6.19.43.25Zm-8.84,0-.43-.26,3.69-6.19.43.25Zm-4.42,0-.43-.26,3.69-6.19.43.25Zm-4.42,0-.43-.26,3.69-6.19.43.25Zm-26.52,0-.43-.26,3.69-6.19.43.25Zm-4.42,0-.43-.26,3.69-6.19.43.25Zm-8.84,0-.43-.26,3.69-6.19.43.25Zm-4.42,0-.43-.26,3.69-6.19.43.25Zm-17.68,0-.43-.26,3.69-6.19.43.25Zm-8.84,0-.43-.26,3.69-6.19.43.25Zm-8.84,0L69,555.5l3.69-6.19.43.25Zm110.5,0-.43-.26,3.69-6.19.43.25Zm-4.42,0-.43-.26,3.69-6.19.43.25Zm-4.42,0-.43-.26,3.69-6.19.43.25Zm-8.84,0-.43-.26,3.69-6.19.43.25Zm-17.68,0-.43-.26,3.69-6.19.43.25Zm-4.42,0-.43-.26,3.69-6.19.43.25Zm-4.42,0-.43-.26,3.69-6.19.43.25Zm-4.42,0-.43-.26,3.69-6.19.43.25Zm-4.42,0-.43-.26,3.69-6.19.43.25Zm-13.26,0-.43-.26,3.69-6.19.43.25Zm-13.26,0-.43-.26,3.69-6.19.43.25Zm-4.42,0-.43-.26,3.69-6.19.43.25Zm-4.42,0-.43-.26,3.69-6.19.43.25Zm-8.84,0-.43-.26,3.69-6.19.43.25Zm-8.84,0-.43-.26,3.69-6.19.43.25Zm95.91-327.92-3.69-6.2.43-.25,3.69,6.19Zm-8.84,0-3.69-6.2.43-.25,3.69,6.19Zm-4.42,0-3.69-6.2.43-.25,3.69,6.19Zm-17.68,0-3.69-6.2.43-.25,3.69,6.19Zm-4.42,0-3.69-6.2.43-.25,3.69,6.19Zm30.94,0-3.69-6.2.43-.25,3.69,6.19Zm-13.26,0-3.69-6.2.43-.25,3.69,6.19Zm-4.42,0-3.69-6.2.43-.25,3.69,6.19Zm-4.42,0-3.69-6.2.43-.25,3.69,6.19Z" style="fill:#9d9d9c"></path><path d="M130.06,227.77l-3.69-6.19.21-.13,3.69,6.2Zm-4.42,0L122,221.58l.21-.13,3.69,6.2Z" style="fill:#1d1d1b"></path><path d="M170.46,623.46l-.21-.13,3.69-5.93.21.13Zm-4.42,0-.21-.13,3.69-5.93.21.13Zm-4.42,0-.21-.13,3.69-5.93.21.13Zm-4.42,0-.21-.13,3.69-5.93.22.13Zm-4.42,0-.21-.13,3.69-5.93.21.13Zm-4.42,0-.21-.13,3.69-5.93.21.13Zm-4.42,0-.21-.13,3.69-5.93.21.13Zm-8.84,0-.21-.13,3.69-5.93.21.13Zm-5.53,0-1.66-2.65-1.65,2.65-.21-.13,1.72-2.76-1.89-3,.21-.13,1.82,2.94,1.83-2.94.21.13-1.89,3,1.72,2.76Zm-4.42,0-1.66-2.65-1.65,2.65-.21-.13,1.72-2.76-1.89-3,.21-.13,1.82,2.94,1.83-2.94.21.13-1.89,3,1.72,2.76Zm-7.73,0-.21-.13,3.69-5.93.21.13Zm-4.42,0-.21-.13,3.69-5.93.21.13Zm-4.42,0-.21-.13,3.69-5.93.21.13Zm-4.42,0-.21-.13,3.69-5.93.21.13Zm-8.84,0-.21-.13,3.69-5.93.21.13Zm-8.84,0-.21-.13L90,617.4l.21.13Zm-4.42,0-.21-.13,3.69-5.93.21.13Zm-4.42,0-.21-.13,3.69-5.93.21.13Zm-4.42,0-.21-.13,3.69-5.93.21.13Zm106.08,0-.21-.13,3.69-5.93.21.13Zm-4.42,0-.21-.13,3.69-5.93.21.13Zm-35.36,0-.21-.13L143,617.4l.21.13Zm-8.84,0-.21-.13,3.69-5.93.21.13Zm-30.94,0-.21-.13,3.69-5.93.21.13Zm-8.84,0-.21-.13,3.69-5.93.21.13Zm-22.1,0-.21-.13,3.69-5.93.21.13ZM183.1,227.77l-3.69-6.19.21-.13,3.69,6.2Zm-4.42,0L175,221.58l.21-.13,3.7,6.2Zm-4.42,0-3.69-6.19.21-.13,3.69,6.2Zm-53,0-3.69-6.19.21-.13,3.69,6.2Zm-4.42,0-3.69-6.19.21-.13,3.69,6.2Zm-4.42,0-3.69-6.19.21-.13,3.69,6.2Zm-4.42,0-3.69-6.19.21-.13,3.69,6.2Zm-4.42,0-3.7-6.19.22-.13,3.69,6.2Zm-4.42,0-3.7-6.19.22-.13,3.69,6.2Zm-4.42,0L91,221.58l.21-.13,3.69,6.2Zm-4.42,0-3.69-6.19.21-.13,3.69,6.2Zm-4.42,0-3.69-6.19.21-.13,3.69,6.2Zm-4.42,0-3.69-6.19.21-.13,3.69,6.2Zm-4.42,0-3.69-6.19.21-.13,3.69,6.2Zm-4.06,0-3.69-6.19.21-.13,3.69,6.2Zm106.83-63.94-.21-.13,3.69-5.92.21.13Zm-4.42,0-.21-.13,3.69-5.92.21.13Zm-4.42,0-.21-.13,3.69-5.92.21.13Zm-4.42,0-.21-.13,3.69-5.92.21.13Zm-13.26,0-.21-.13,3.69-5.92.21.13Zm-4.42,0-.21-.13,3.69-5.92.21.13Zm-4.42,0-.21-.13,3.69-5.92.21.13Zm-4.42,0-.21-.13,3.69-5.92.21.13Zm-4.42,0-.21-.13,3.69-5.92.21.13Zm-4.42,0-.21-.13,3.69-5.92.21.13Zm-4.42,0-.21-.13,3.69-5.92.21.13Zm-4.42,0-.21-.13,3.69-5.92.21.13Zm-4.42,0-.21-.13,3.69-5.92.21.13Zm-8.84,0-.21-.13,3.69-5.92.21.13Zm-4.42,0-.21-.13,3.69-5.92.21.13Zm-4.42,0-.21-.13,3.69-5.92.21.13Zm-4.42,0-.22-.13,3.7-5.92.21.13Zm-4.42,0-.22-.13,3.7-5.92.21.13Zm-8.84,0-.21-.13L86,157.78l.21.13Zm-4.42,0-.21-.13,3.69-5.92.21.13Zm-4.42,0-.21-.13,3.69-5.92.21.13Zm-4.42,0-.22-.13,3.7-5.92.21.13Zm92.82,0-.21-.13,3.69-5.92.21.13Zm-4.42,0-.21-.13,3.69-5.92.21.13Zm-44.2,0-.21-.13,3.69-5.92.21.13Zm-26.52,0-.21-.13,3.69-5.92.21.13Z" style="fill:#9d9d9c"></path><rect x="130.34" y="34.97" width="0.5" height="41.77" style="fill:#1b1c1b"></rect><path d="M131.36,78.52c.38-1.25.72-2,1.12-3h-3.79a32.42,32.42,0,0,1,1.12,3,22.67,22.67,0,0,1,.77,3.32,22.94,22.94,0,0,1,.78-3.32" style="fill:#1b1c1b"></path><rect x="198.74" y="256.35" width="41.77" height="0.5" style="fill:#1b1c1b"></rect><path d="M197,257.37a29.81,29.81,0,0,1,3,1.12v-3.8a29.13,29.13,0,0,1-3,1.13,22.67,22.67,0,0,1-3.32.77,21.67,21.67,0,0,1,3.32.78" style="fill:#1b1c1b"></path><rect x="195.64" y="419.12" width="41.77" height="0.5" style="fill:#1b1c1b"></rect><path d="M193.87,420.14c1.24.38,2,.72,3,1.12v-3.79a31.73,31.73,0,0,1-3,1.12,21.51,21.51,0,0,1-3.33.77,23,23,0,0,1,3.33.78" style="fill:#1b1c1b"></path><rect x="195.64" y="579.11" width="41.77" height="0.5" style="fill:#1b1c1b"></rect><path d="M193.87,580.13c1.24.38,2,.73,3,1.13v-3.8a29.17,29.17,0,0,1-3,1.12,23,23,0,0,1-3.33.78,22.75,22.75,0,0,1,3.33.77" style="fill:#1b1c1b"></path><path d="M22.87,196.91a2.08,2.08,0,0,1,.62,1.65q0,2.74-3.82,2.75H17v-9.65h2.28a5.41,5.41,0,0,1,2.81.6,2,2,0,0,1,1,1.84,2,2,0,0,1-.53,1.4,2.34,2.34,0,0,1-1.28.71A3.22,3.22,0,0,1,22.87,196.91Zm-4.53-4.2v3h1.45a2.24,2.24,0,0,0,1.38-.41,1.35,1.35,0,0,0,.54-1.15,1.22,1.22,0,0,0-.57-1.16,3.6,3.6,0,0,0-1.71-.32Zm3.13,7.18a1.39,1.39,0,0,0,.62-1.33,1.56,1.56,0,0,0-.6-1.37,2.7,2.7,0,0,0-1.57-.42H18.34v3.47h1.33A3.68,3.68,0,0,0,21.47,199.89Z" style="fill:#1d1d1b"></path><path d="M191.87,56.54a2.22,2.22,0,0,1,.66,1.77c0,2-1.36,2.94-4.1,2.94h-2.84V50.92H188a5.78,5.78,0,0,1,3,.64,2.17,2.17,0,0,1,1,2,2.13,2.13,0,0,1-.56,1.5,2.56,2.56,0,0,1-1.38.76A3.48,3.48,0,0,1,191.87,56.54ZM187,52V55.3h1.56a2.41,2.41,0,0,0,1.48-.44,1.46,1.46,0,0,0,.58-1.23,1.31,1.31,0,0,0-.61-1.24,3.84,3.84,0,0,0-1.84-.35Zm3.35,7.7a1.49,1.49,0,0,0,.67-1.43,1.67,1.67,0,0,0-.65-1.47,2.84,2.84,0,0,0-1.67-.45H187v3.72h1.42A4,4,0,0,0,190.36,59.74Z" style="fill:#1d1d1b"></path><path d="M22.87,263.75a2.08,2.08,0,0,1,.62,1.65q0,2.75-3.82,2.75H17V258.5h2.28a5.41,5.41,0,0,1,2.81.6,2,2,0,0,1,1,1.84,2,2,0,0,1-.53,1.4,2.34,2.34,0,0,1-1.28.71A3.22,3.22,0,0,1,22.87,263.75Zm-4.53-4.2v3h1.45a2.24,2.24,0,0,0,1.38-.41,1.34,1.34,0,0,0,.54-1.14,1.24,1.24,0,0,0-.57-1.17,3.6,3.6,0,0,0-1.71-.32Zm3.13,7.18a1.39,1.39,0,0,0,.62-1.33,1.56,1.56,0,0,0-.6-1.37,2.7,2.7,0,0,0-1.57-.42H18.34v3.47h1.33A3.68,3.68,0,0,0,21.47,266.73Z" style="fill:#1d1d1b"></path><path d="M22.87,363.24a2.09,2.09,0,0,1,.62,1.66q0,2.75-3.82,2.74H17V358h2.28a5.31,5.31,0,0,1,2.81.61,2,2,0,0,1,1,1.83,2,2,0,0,1-.53,1.4,2.34,2.34,0,0,1-1.28.71A3.31,3.31,0,0,1,22.87,363.24ZM18.34,359v3h1.45a2.24,2.24,0,0,0,1.38-.4,1.36,1.36,0,0,0,.54-1.15,1.21,1.21,0,0,0-.57-1.16,3.47,3.47,0,0,0-1.71-.33Zm3.13,7.19a1.41,1.41,0,0,0,.62-1.33,1.57,1.57,0,0,0-.6-1.38,2.7,2.7,0,0,0-1.57-.42H18.34v3.48h1.33A3.8,3.8,0,0,0,21.47,366.23Z" style="fill:#1d1d1b"></path><path d="M22.87,423.46a2.09,2.09,0,0,1,.62,1.66q0,2.75-3.82,2.74H17v-9.65h2.28a5.31,5.31,0,0,1,2.81.61,2,2,0,0,1,1,1.83,2,2,0,0,1-.53,1.4,2.34,2.34,0,0,1-1.28.71A3.31,3.31,0,0,1,22.87,423.46Zm-4.53-4.2v3h1.45a2.24,2.24,0,0,0,1.38-.4,1.36,1.36,0,0,0,.54-1.15,1.21,1.21,0,0,0-.57-1.16,3.47,3.47,0,0,0-1.71-.33Zm3.13,7.19a1.41,1.41,0,0,0,.62-1.33,1.57,1.57,0,0,0-.6-1.38,2.7,2.7,0,0,0-1.57-.42H18.34v3.48h1.33A3.8,3.8,0,0,0,21.47,426.45Z" style="fill:#1d1d1b"></path><path d="M20,525.89H17V514.47h3c1.79,0,3.12.93,3.12,2.81a2.51,2.51,0,0,1-1.68,2.54v0a2.66,2.66,0,0,1,2.21,2.95C23.69,525.05,22.08,525.89,20,525.89Zm-.44-10.34H18.31v3.85h1.11c1.39,0,2.45-.43,2.45-2S20.86,515.55,19.6,515.55Zm.35,4.93H18.31v4.34H19.8c1.42,0,2.6-.53,2.6-2.16A2.19,2.19,0,0,0,20,520.48Z" style="fill:#1d1d1b"></path><path d="M22.87,584.2a2.08,2.08,0,0,1,.62,1.65q0,2.74-3.82,2.75H17V579h2.28a5.31,5.31,0,0,1,2.81.61,2,2,0,0,1,1,1.83,2,2,0,0,1-.53,1.4,2.34,2.34,0,0,1-1.28.71A3.31,3.31,0,0,1,22.87,584.2ZM18.34,580v3h1.45a2.24,2.24,0,0,0,1.38-.4,1.37,1.37,0,0,0,.54-1.15,1.21,1.21,0,0,0-.57-1.16,3.47,3.47,0,0,0-1.71-.33Zm3.13,7.19a1.41,1.41,0,0,0,.62-1.34,1.56,1.56,0,0,0-.6-1.37,2.7,2.7,0,0,0-1.57-.42H18.34v3.48h1.33A3.8,3.8,0,0,0,21.47,587.19Z" style="fill:#1d1d1b"></path><path d="M22.87,684a2.09,2.09,0,0,1,.62,1.66q0,2.75-3.82,2.74H17v-9.65h2.28a5.4,5.4,0,0,1,2.81.61,2,2,0,0,1,1,1.83,2,2,0,0,1-.53,1.4,2.34,2.34,0,0,1-1.28.71A3.31,3.31,0,0,1,22.87,684Zm-4.53-4.2v3h1.45a2.24,2.24,0,0,0,1.38-.4,1.36,1.36,0,0,0,.54-1.15,1.21,1.21,0,0,0-.57-1.16,3.47,3.47,0,0,0-1.71-.33ZM21.47,687a1.41,1.41,0,0,0,.62-1.33,1.57,1.57,0,0,0-.6-1.38,2.7,2.7,0,0,0-1.57-.42H18.34v3.48h1.33A3.8,3.8,0,0,0,21.47,687Z" style="fill:#1d1d1b"></path><path d="M134.46,16.26l-.16,1.06h-3.74v3.15h3.25v1.07h-3.25v3.3h4v1.07h-5.34V16.26Z" style="fill:#1d1d1b"></path><path d="M141.7,19a2.3,2.3,0,0,1,.57,1.65v5.3H141V20.8a1.68,1.68,0,0,0-.29-1.11,1.15,1.15,0,0,0-.87-.32,1.72,1.72,0,0,0-1,.33,3.56,3.56,0,0,0-.84,1v5.24h-1.29V18.53h1.11l.11,1.09a2.87,2.87,0,0,1,1-.92,2.43,2.43,0,0,1,1.28-.34A2.06,2.06,0,0,1,141.7,19Z" style="fill:#1d1d1b"></path><path d="M148.58,25.57a2.78,2.78,0,0,1-1.65.5,1.93,1.93,0,0,1-1.46-.53,2.16,2.16,0,0,1-.53-1.57V19.52h-1.29v-1h1.29V16.86l1.29-.15v1.82H148l-.14,1h-1.61v4.4a1.39,1.39,0,0,0,.2.83.84.84,0,0,0,.68.26,2.16,2.16,0,0,0,1-.29Z" style="fill:#1d1d1b"></path><path d="M153.85,18.44l-.24,1.26a3,3,0,0,0-.65-.08,1.38,1.38,0,0,0-1.1.5,3.79,3.79,0,0,0-.66,1.57v4.22h-1.29V18.53H151l.12,1.5a2.91,2.91,0,0,1,.8-1.25,1.8,1.8,0,0,1,1.18-.42A3.4,3.4,0,0,1,153.85,18.44Z" style="fill:#1d1d1b"></path><path d="M160.44,24.85a1,1,0,0,0,.46.33l-.29.89a1.9,1.9,0,0,1-.93-.32,1.49,1.49,0,0,1-.51-.78,2.47,2.47,0,0,1-2.2,1.1,2.35,2.35,0,0,1-1.72-.61,2.15,2.15,0,0,1-.63-1.61,2.12,2.12,0,0,1,.84-1.81,4,4,0,0,1,2.4-.63H159v-.54a1.43,1.43,0,0,0-.38-1.12,1.68,1.68,0,0,0-1.16-.34,6.53,6.53,0,0,0-2,.39l-.32-.94a7.52,7.52,0,0,1,2.55-.5,2.64,2.64,0,0,1,1.94.64,2.43,2.43,0,0,1,.65,1.81v3.37A1.19,1.19,0,0,0,160.44,24.85ZM159,24V22.27h-1c-1.36,0-2,.5-2,1.51a1.34,1.34,0,0,0,.32,1,1.23,1.23,0,0,0,.95.34A1.92,1.92,0,0,0,159,24Z" style="fill:#1d1d1b"></path><path d="M168.64,15.56V25.91h-1.13l-.13-1a2.55,2.55,0,0,1-.91.88A2.56,2.56,0,0,1,163.2,25a4.81,4.81,0,0,1-.73-2.79,5.46,5.46,0,0,1,.35-2,3.07,3.07,0,0,1,1-1.38,2.49,2.49,0,0,1,1.54-.5,2.65,2.65,0,0,1,2,.91V15.41Zm-2.1,9.22a3.34,3.34,0,0,0,.82-.82V20.35a2.88,2.88,0,0,0-.78-.72,1.75,1.75,0,0,0-.93-.25,1.51,1.51,0,0,0-1.33.72,3.9,3.9,0,0,0-.46,2.12,4.09,4.09,0,0,0,.43,2.13,1.37,1.37,0,0,0,1.25.7A1.8,1.8,0,0,0,166.54,24.78Z" style="fill:#1d1d1b"></path><path d="M176.43,24.85a1,1,0,0,0,.46.33l-.29.89a1.9,1.9,0,0,1-.93-.32,1.56,1.56,0,0,1-.52-.78,2.45,2.45,0,0,1-2.19,1.1,2.37,2.37,0,0,1-1.73-.61,2.15,2.15,0,0,1-.63-1.61,2.13,2.13,0,0,1,.85-1.81,4,4,0,0,1,2.4-.63H175v-.54a1.43,1.43,0,0,0-.38-1.12,1.68,1.68,0,0,0-1.16-.34,6.47,6.47,0,0,0-2,.39l-.32-.94a7.51,7.51,0,0,1,2.54-.5,2.65,2.65,0,0,1,1.95.64,2.42,2.42,0,0,1,.64,1.81v3.37A1.18,1.18,0,0,0,176.43,24.85ZM175,24V22.27h-1c-1.36,0-2,.5-2,1.51a1.34,1.34,0,0,0,.32,1,1.23,1.23,0,0,0,.95.34A1.92,1.92,0,0,0,175,24Z" style="fill:#1d1d1b"></path><path d="M187.68,19a2.34,2.34,0,0,1,.56,1.65v5.3H187V20.8a1.62,1.62,0,0,0-.3-1.11,1.12,1.12,0,0,0-.87-.32,1.69,1.69,0,0,0-1,.33,3.56,3.56,0,0,0-.84,1v5.24h-1.29V18.53h1.11l.11,1.09a2.84,2.84,0,0,1,1-.92,2.45,2.45,0,0,1,1.28-.34A2.08,2.08,0,0,1,187.68,19Z" style="fill:#1d1d1b"></path><path d="M195,17a3.08,3.08,0,0,1,.71,2.15,3,3,0,0,1-.72,2.12,2.54,2.54,0,0,1-2,.8,2.59,2.59,0,0,1-2-.78,3.09,3.09,0,0,1-.71-2.14,3,3,0,0,1,.73-2.13,2.57,2.57,0,0,1,2-.8A2.54,2.54,0,0,1,195,17Zm-4.64,8.87V24.83h5.27v1.08Zm1.25-6.72c0,1.3.46,2,1.38,2s1.39-.66,1.39-2a2.56,2.56,0,0,0-.34-1.49,1.21,1.21,0,0,0-1-.47C192.09,17.23,191.62,17.88,191.62,19.19Z" style="fill:#1d1d1b"></path><path d="M204.74,16.54v9.37h-1.29v-8l-2.19,1.33-.56-.91,2.9-1.79Z" style="fill:#1d1d1b"></path><path d="M248.53,414.79l-.15,1.06h-3.74V419h3.25v1.06h-3.25v3.31h4v1.06h-5.33v-9.64Z" style="fill:#1d1d1b"></path><path d="M255.78,417.49a2.34,2.34,0,0,1,.56,1.65v5.29h-1.28v-5.11a1.59,1.59,0,0,0-.3-1.1,1.09,1.09,0,0,0-.87-.33,1.7,1.7,0,0,0-1,.34,3.42,3.42,0,0,0-.84,1v5.23h-1.29v-7.38h1.11l.11,1.1a2.87,2.87,0,0,1,1-.93,2.54,2.54,0,0,1,1.28-.33A2.08,2.08,0,0,1,255.78,417.49Z" style="fill:#1d1d1b"></path><path d="M262.66,424.1a2.89,2.89,0,0,1-1.65.5,2,2,0,0,1-1.47-.54,2.15,2.15,0,0,1-.52-1.56v-4.45h-1.29v-1H259v-1.66l1.29-.16v1.82h1.75l-.14,1h-1.61v4.39a1.35,1.35,0,0,0,.2.84.81.81,0,0,0,.68.26,2.1,2.1,0,0,0,1-.3Z" style="fill:#1d1d1b"></path><path d="M267.92,417l-.24,1.26a2.44,2.44,0,0,0-.64-.08,1.36,1.36,0,0,0-1.11.5,3.67,3.67,0,0,0-.65,1.57v4.21H264v-7.38h1.1l.13,1.5a2.73,2.73,0,0,1,.8-1.24,1.77,1.77,0,0,1,1.17-.42A2.82,2.82,0,0,1,267.92,417Z" style="fill:#1d1d1b"></path><path d="M274.51,423.37a.92.92,0,0,0,.47.33l-.3.9a2,2,0,0,1-.92-.32,1.49,1.49,0,0,1-.52-.79,2.47,2.47,0,0,1-2.2,1.11,2.35,2.35,0,0,1-1.72-.62,2.14,2.14,0,0,1-.63-1.61,2.1,2.1,0,0,1,.85-1.8,3.94,3.94,0,0,1,2.4-.63h1.13v-.55a1.42,1.42,0,0,0-.38-1.12,1.73,1.73,0,0,0-1.16-.33,6.47,6.47,0,0,0-2,.39l-.33-.94a7.37,7.37,0,0,1,2.55-.5,2.69,2.69,0,0,1,2,.63,2.44,2.44,0,0,1,.64,1.81v3.38A1.15,1.15,0,0,0,274.51,423.37Zm-1.44-.88v-1.7h-1c-1.37,0-2.05.5-2.05,1.51a1.43,1.43,0,0,0,.32,1,1.3,1.3,0,0,0,1,.33A1.92,1.92,0,0,0,273.07,422.49Z" style="fill:#1d1d1b"></path><path d="M282.72,414.08v10.35h-1.13l-.13-1a2.7,2.7,0,0,1-.91.87,2.41,2.41,0,0,1-1.22.32,2.37,2.37,0,0,1-2.05-1,4.72,4.72,0,0,1-.73-2.78,5.52,5.52,0,0,1,.34-2,3.15,3.15,0,0,1,1-1.38,2.49,2.49,0,0,1,1.54-.49,2.66,2.66,0,0,1,2,.9v-3.86Zm-2.1,9.22a3.1,3.1,0,0,0,.81-.81v-3.62a2.91,2.91,0,0,0-.78-.72,1.79,1.79,0,0,0-.93-.24,1.49,1.49,0,0,0-1.32.71,4,4,0,0,0-.47,2.13,4.13,4.13,0,0,0,.44,2.13,1.38,1.38,0,0,0,1.24.7A1.76,1.76,0,0,0,280.62,423.3Z" style="fill:#1d1d1b"></path><path d="M290.5,423.37a.92.92,0,0,0,.47.33l-.3.9a2,2,0,0,1-.92-.32,1.43,1.43,0,0,1-.52-.79,2.48,2.48,0,0,1-2.2,1.11,2.35,2.35,0,0,1-1.72-.62,2.14,2.14,0,0,1-.63-1.61,2.1,2.1,0,0,1,.85-1.8,3.94,3.94,0,0,1,2.4-.63h1.13v-.55a1.46,1.46,0,0,0-.38-1.12,1.73,1.73,0,0,0-1.16-.33,6.58,6.58,0,0,0-2,.39l-.32-.94a7.33,7.33,0,0,1,2.55-.5,2.69,2.69,0,0,1,1.95.63,2.48,2.48,0,0,1,.64,1.81v3.38A1.15,1.15,0,0,0,290.5,423.37Zm-1.44-.88v-1.7h-1c-1.36,0-2,.5-2,1.51a1.43,1.43,0,0,0,.32,1,1.3,1.3,0,0,0,1,.33A1.92,1.92,0,0,0,289.06,422.49Z" style="fill:#1d1d1b"></path><path d="M301.75,417.49a2.3,2.3,0,0,1,.57,1.65v5.29H301v-5.11a1.65,1.65,0,0,0-.29-1.1,1.12,1.12,0,0,0-.87-.33,1.73,1.73,0,0,0-1,.34,3.42,3.42,0,0,0-.84,1v5.23h-1.28v-7.38h1.1l.11,1.1a2.9,2.9,0,0,1,1-.93,2.52,2.52,0,0,1,1.28-.33A2.06,2.06,0,0,1,301.75,417.49Z" style="fill:#1d1d1b"></path><path d="M309.09,415.56a3.1,3.1,0,0,1,.71,2.15,3.06,3.06,0,0,1-.73,2.13,2.9,2.9,0,0,1-4,0,3,3,0,0,1-.72-2.14,3.07,3.07,0,0,1,.73-2.13,3,3,0,0,1,4,0Zm-4.64,8.87v-1.08h5.26v1.08Zm1.24-6.72c0,1.31.47,2,1.39,2s1.39-.65,1.39-2a2.52,2.52,0,0,0-.35-1.48,1.18,1.18,0,0,0-1-.48C306.16,415.75,305.69,416.4,305.69,417.71Z" style="fill:#1d1d1b"></path><path d="M318.93,415.25a2.29,2.29,0,0,1,1.28,2.06,2,2,0,0,1-.5,1.4,2.48,2.48,0,0,1-1.32.75,2.4,2.4,0,0,1,1.53.67,2.19,2.19,0,0,1,.59,1.6,2.84,2.84,0,0,1-.4,1.47,2.67,2.67,0,0,1-1.12,1,3.59,3.59,0,0,1-1.68.37,3.78,3.78,0,0,1-1.56-.32,3.36,3.36,0,0,1-1.25-.94l.77-.72a3.28,3.28,0,0,0,.94.71,2.68,2.68,0,0,0,1.06.22,1.91,1.91,0,0,0,1.39-.5,1.8,1.8,0,0,0,.5-1.33,1.62,1.62,0,0,0-.47-1.31,2.21,2.21,0,0,0-1.39-.37h-.7l.15-1h.48a1.74,1.74,0,0,0,1.21-.43,1.57,1.57,0,0,0,.48-1.22,1.33,1.33,0,0,0-.42-1,1.6,1.6,0,0,0-1.13-.39,2.51,2.51,0,0,0-1,.2,3,3,0,0,0-.93.64l-.68-.77a3.84,3.84,0,0,1,2.68-1.1A3.15,3.15,0,0,1,318.93,415.25Z" style="fill:#1d1d1b"></path><path d="M248.53,252.54l-.15,1.06h-3.74v3.15h3.25v1.07h-3.25v3.3h4v1.07h-5.33v-9.65Z" style="fill:#1d1d1b"></path><path d="M255.78,255.24a2.35,2.35,0,0,1,.56,1.66v5.29h-1.28v-5.11a1.62,1.62,0,0,0-.3-1.11,1.12,1.12,0,0,0-.87-.32,1.69,1.69,0,0,0-1,.33,3.56,3.56,0,0,0-.84,1v5.24h-1.29v-7.38h1.11l.11,1.09a2.84,2.84,0,0,1,1-.92,2.45,2.45,0,0,1,1.28-.34A2.08,2.08,0,0,1,255.78,255.24Z" style="fill:#1d1d1b"></path><path d="M262.66,261.85a2.82,2.82,0,0,1-1.65.5,2,2,0,0,1-1.47-.53,2.16,2.16,0,0,1-.52-1.57V255.8h-1.29v-1H259v-1.67l1.29-.15v1.82h1.75l-.14,1h-1.61v4.4a1.32,1.32,0,0,0,.2.83.81.81,0,0,0,.68.26,2.19,2.19,0,0,0,1-.29Z" style="fill:#1d1d1b"></path><path d="M267.92,254.73l-.24,1.25a3,3,0,0,0-.64-.08,1.39,1.39,0,0,0-1.11.5,3.67,3.67,0,0,0-.65,1.57v4.22H264v-7.38h1.1l.13,1.5a2.82,2.82,0,0,1,.8-1.25,1.77,1.77,0,0,1,1.17-.42A2.81,2.81,0,0,1,267.92,254.73Z" style="fill:#1d1d1b"></path><path d="M274.51,261.13a1,1,0,0,0,.47.33l-.3.89a1.86,1.86,0,0,1-.92-.32,1.46,1.46,0,0,1-.52-.78,2.46,2.46,0,0,1-2.2,1.1,2.35,2.35,0,0,1-1.72-.61,2.15,2.15,0,0,1-.63-1.61,2.12,2.12,0,0,1,.85-1.81,3.94,3.94,0,0,1,2.4-.63h1.13v-.54a1.39,1.39,0,0,0-.38-1.12,1.68,1.68,0,0,0-1.16-.34,6.47,6.47,0,0,0-2,.39l-.33-.93a7.4,7.4,0,0,1,2.55-.51,2.65,2.65,0,0,1,2,.64,2.42,2.42,0,0,1,.64,1.81v3.37A1.19,1.19,0,0,0,274.51,261.13Zm-1.44-.89v-1.69h-1c-1.37,0-2.05.5-2.05,1.51a1.39,1.39,0,0,0,.32,1,1.26,1.26,0,0,0,1,.34A1.92,1.92,0,0,0,273.07,260.24Z" style="fill:#1d1d1b"></path><path d="M282.72,251.84v10.35h-1.13l-.13-1a2.7,2.7,0,0,1-.91.87,2.41,2.41,0,0,1-1.22.31,2.36,2.36,0,0,1-2.05-1,4.73,4.73,0,0,1-.73-2.79,5.47,5.47,0,0,1,.34-2,3.15,3.15,0,0,1,1-1.38,2.49,2.49,0,0,1,1.54-.5,2.64,2.64,0,0,1,2,.91v-3.86Zm-2.1,9.22a3.16,3.16,0,0,0,.81-.82v-3.61a2.61,2.61,0,0,0-.78-.72,1.71,1.71,0,0,0-.93-.25,1.48,1.48,0,0,0-1.32.72,3.89,3.89,0,0,0-.47,2.12,4.08,4.08,0,0,0,.44,2.13,1.36,1.36,0,0,0,1.24.7A1.84,1.84,0,0,0,280.62,261.06Z" style="fill:#1d1d1b"></path><path d="M290.5,261.13a1,1,0,0,0,.47.33l-.3.89a1.86,1.86,0,0,1-.92-.32,1.41,1.41,0,0,1-.52-.78,2.47,2.47,0,0,1-2.2,1.1,2.35,2.35,0,0,1-1.72-.61,2.15,2.15,0,0,1-.63-1.61,2.12,2.12,0,0,1,.85-1.81,3.94,3.94,0,0,1,2.4-.63h1.13v-.54a1.43,1.43,0,0,0-.38-1.12,1.68,1.68,0,0,0-1.16-.34,6.58,6.58,0,0,0-2,.39l-.32-.93a7.36,7.36,0,0,1,2.55-.51,2.65,2.65,0,0,1,1.95.64,2.46,2.46,0,0,1,.64,1.81v3.37A1.19,1.19,0,0,0,290.5,261.13Zm-1.44-.89v-1.69h-1c-1.36,0-2,.5-2,1.51a1.39,1.39,0,0,0,.32,1,1.26,1.26,0,0,0,1,.34A1.92,1.92,0,0,0,289.06,260.24Z" style="fill:#1d1d1b"></path><path d="M301.75,255.24a2.31,2.31,0,0,1,.57,1.66v5.29H301v-5.11a1.68,1.68,0,0,0-.29-1.11,1.15,1.15,0,0,0-.87-.32,1.72,1.72,0,0,0-1,.33,3.56,3.56,0,0,0-.84,1v5.24h-1.28v-7.38h1.1l.11,1.09a2.87,2.87,0,0,1,1-.92,2.43,2.43,0,0,1,1.28-.34A2.06,2.06,0,0,1,301.75,255.24Z" style="fill:#1d1d1b"></path><path d="M309.09,253.32a3.54,3.54,0,0,1,0,4.28,2.93,2.93,0,0,1-4,0,3.51,3.51,0,0,1,0-4.27,2.93,2.93,0,0,1,4,0Zm-4.64,8.87v-1.08h5.26v1.08Zm1.24-6.72c0,1.3.47,2,1.39,2s1.39-.66,1.39-2a2.56,2.56,0,0,0-.35-1.49,1.2,1.2,0,0,0-1-.47C306.16,253.51,305.69,254.16,305.69,255.47Z" style="fill:#1d1d1b"></path><path d="M319,253a2.42,2.42,0,0,1,1.34,2.22,3.63,3.63,0,0,1-.39,1.64,8.35,8.35,0,0,1-1.18,1.7c-.53.6-1.34,1.45-2.43,2.53h4.22l-.15,1.08h-5.53v-1c1.25-1.3,2.13-2.25,2.66-2.85a8.59,8.59,0,0,0,1.12-1.58,3.24,3.24,0,0,0,.33-1.44,1.43,1.43,0,0,0-1.54-1.55,2.06,2.06,0,0,0-1,.23,3.66,3.66,0,0,0-.92.79l-.84-.67a3.83,3.83,0,0,1,1.27-1.07,3.52,3.52,0,0,1,1.57-.35A3.08,3.08,0,0,1,319,253Z" style="fill:#1d1d1b"></path><path d="M248.53,575.06l-.15,1.06h-3.74v3.15h3.25v1.07h-3.25v3.3h4v1.07h-5.33v-9.65Z" style="fill:#1d1d1b"></path><path d="M255.78,577.76a2.34,2.34,0,0,1,.56,1.65v5.3h-1.28V579.6a1.62,1.62,0,0,0-.3-1.11,1.12,1.12,0,0,0-.87-.32,1.69,1.69,0,0,0-1,.33,3.56,3.56,0,0,0-.84,1v5.24h-1.29v-7.38h1.11l.11,1.09a2.84,2.84,0,0,1,1-.92,2.45,2.45,0,0,1,1.28-.34A2.08,2.08,0,0,1,255.78,577.76Z" style="fill:#1d1d1b"></path><path d="M262.66,584.37a2.82,2.82,0,0,1-1.65.5,2,2,0,0,1-1.47-.53,2.16,2.16,0,0,1-.52-1.57v-4.45h-1.29v-1H259v-1.67l1.29-.15v1.82h1.75l-.14,1h-1.61v4.4a1.32,1.32,0,0,0,.2.83.81.81,0,0,0,.68.26,2.19,2.19,0,0,0,1-.29Z" style="fill:#1d1d1b"></path><path d="M267.92,577.24l-.24,1.26a3,3,0,0,0-.64-.08,1.39,1.39,0,0,0-1.11.5,3.67,3.67,0,0,0-.65,1.57v4.22H264v-7.38h1.1l.13,1.5a2.82,2.82,0,0,1,.8-1.25,1.77,1.77,0,0,1,1.17-.42A3.33,3.33,0,0,1,267.92,577.24Z" style="fill:#1d1d1b"></path><path d="M274.51,583.65a1,1,0,0,0,.47.33l-.3.89a1.86,1.86,0,0,1-.92-.32,1.5,1.5,0,0,1-.52-.78,2.46,2.46,0,0,1-2.2,1.1,2.35,2.35,0,0,1-1.72-.61,2.15,2.15,0,0,1-.63-1.61,2.1,2.1,0,0,1,.85-1.81,3.94,3.94,0,0,1,2.4-.63h1.13v-.54a1.39,1.39,0,0,0-.38-1.12,1.68,1.68,0,0,0-1.16-.34,6.47,6.47,0,0,0-2,.39l-.33-.94a7.61,7.61,0,0,1,2.55-.5,2.65,2.65,0,0,1,2,.64,2.42,2.42,0,0,1,.64,1.81V583A1.21,1.21,0,0,0,274.51,583.65Zm-1.44-.89v-1.69h-1c-1.37,0-2.05.5-2.05,1.51a1.39,1.39,0,0,0,.32,1,1.26,1.26,0,0,0,1,.34A1.92,1.92,0,0,0,273.07,582.76Z" style="fill:#1d1d1b"></path><path d="M282.72,574.36v10.35h-1.13l-.13-1a2.64,2.64,0,0,1-.91.88,2.41,2.41,0,0,1-1.22.31,2.36,2.36,0,0,1-2.05-1,4.73,4.73,0,0,1-.73-2.79,5.47,5.47,0,0,1,.34-2,3.15,3.15,0,0,1,1-1.38,2.49,2.49,0,0,1,1.54-.5,2.64,2.64,0,0,1,2,.91v-3.86Zm-2.1,9.22a3.16,3.16,0,0,0,.81-.82v-3.61a2.61,2.61,0,0,0-.78-.72,1.71,1.71,0,0,0-.93-.25,1.48,1.48,0,0,0-1.32.72,3.89,3.89,0,0,0-.47,2.12,4.08,4.08,0,0,0,.44,2.13,1.36,1.36,0,0,0,1.24.7A1.84,1.84,0,0,0,280.62,583.58Z" style="fill:#1d1d1b"></path><path d="M290.5,583.65a1,1,0,0,0,.47.33l-.3.89a1.86,1.86,0,0,1-.92-.32,1.44,1.44,0,0,1-.52-.78,2.47,2.47,0,0,1-2.2,1.1,2.35,2.35,0,0,1-1.72-.61,2.15,2.15,0,0,1-.63-1.61,2.1,2.1,0,0,1,.85-1.81,3.94,3.94,0,0,1,2.4-.63h1.13v-.54a1.43,1.43,0,0,0-.38-1.12,1.68,1.68,0,0,0-1.16-.34,6.58,6.58,0,0,0-2,.39l-.32-.94a7.57,7.57,0,0,1,2.55-.5,2.65,2.65,0,0,1,1.95.64,2.46,2.46,0,0,1,.64,1.81V583A1.21,1.21,0,0,0,290.5,583.65Zm-1.44-.89v-1.69h-1c-1.36,0-2,.5-2,1.51a1.39,1.39,0,0,0,.32,1,1.26,1.26,0,0,0,1,.34A1.92,1.92,0,0,0,289.06,582.76Z" style="fill:#1d1d1b"></path><path d="M301.75,577.76a2.3,2.3,0,0,1,.57,1.65v5.3H301V579.6a1.68,1.68,0,0,0-.29-1.11,1.15,1.15,0,0,0-.87-.32,1.72,1.72,0,0,0-1,.33,3.56,3.56,0,0,0-.84,1v5.24h-1.28v-7.38h1.1l.11,1.09a2.87,2.87,0,0,1,1-.92,2.43,2.43,0,0,1,1.28-.34A2.06,2.06,0,0,1,301.75,577.76Z" style="fill:#1d1d1b"></path><path d="M309.09,575.84a3.08,3.08,0,0,1,.71,2.15,3,3,0,0,1-.73,2.12,2.51,2.51,0,0,1-2,.8,2.56,2.56,0,0,1-2-.78,3.51,3.51,0,0,1,0-4.27,2.93,2.93,0,0,1,4,0Zm-4.64,8.87v-1.08h5.26v1.08Zm1.24-6.72c0,1.3.47,2,1.39,2s1.39-.66,1.39-2a2.56,2.56,0,0,0-.35-1.49,1.2,1.2,0,0,0-1-.47C306.16,576,305.69,576.68,305.69,578Z" style="fill:#1d1d1b"></path><path d="M321.32,581.37v1H320.1v2.31h-1.25V582.4h-4v-.93l2.81-6.27,1.08.45-2.53,5.72h2.66l.11-2.52h1.12v2.52Z" style="fill:#1d1d1b"></path><path d="M179.79,170.27l-.21-.13,1.72-2.76-1.89-3,.21-.13,1.82,2.93,1.83-2.93.21.13-1.89,3,1.72,2.76-.21.13-1.66-2.65Zm-1.11,0L177,167.61l-1.65,2.66-.21-.13,1.72-2.76-1.89-3,.21-.13,1.82,2.93,1.83-2.93.21.13-1.89,3,1.72,2.76Zm-4.42,0-1.66-2.65L171,170.27l-.21-.13,1.72-2.76-1.9-3,.22-.13,1.82,2.93,1.83-2.93.21.13-1.89,3,1.72,2.76Zm-29.83,0-.21-.13,1.71-2.76-1.89-3,.22-.13,1.82,2.93,1.83-2.93.21.13-1.89,3,1.72,2.76-.21.13-1.66-2.65Zm-27.63,0-1.66-2.66-1.65,2.66-.21-.13,1.72-2.76-1.9-3,.22-.13,1.82,2.93,1.83-2.93.21.13-1.89,3,1.72,2.76Zm-7.73,0-.21-.13,1.72-2.76-1.9-3,.22-.13,1.82,2.93,1.83-2.93.21.13-1.89,3,1.72,2.76-.21.13-1.66-2.65Zm-8.84,0-.22-.13,1.72-2.76-1.89-3,.22-.13,1.82,2.93,1.83-2.93.21.13-1.89,3,1.72,2.76-.22.13-1.65-2.65Zm-1.11,0-1.66-2.65-1.65,2.65-.22-.13,1.72-2.76-1.89-3,.21-.13,1.83,2.93,1.83-2.93.21.13-1.89,3,1.72,2.76Zm70.72,0-1.66-2.66-1.65,2.66-.21-.13,1.72-2.76-1.89-3,.21-.13,1.82,2.93,1.83-2.93.21.13-1.89,3,1.72,2.76Zm-16.57,0-.21-.13,1.72-2.76-1.9-3,.22-.13,1.82,2.93,1.83-2.93.21.13-1.89,3,1.72,2.76-.21.13-1.66-2.65Zm-4.42,0-.21-.13,1.72-2.76-1.89-3,.21-.13,1.82,2.93,1.83-2.93.21.13-1.89,3,1.72,2.76-.21.13-1.66-2.65Zm-14.37,0-1.66-2.65-1.65,2.65-.21-.13,1.72-2.76-1.9-3,.22-.13,1.82,2.93,1.83-2.93.21.13-1.89,3,1.72,2.76Zm-4.42,0-1.66-2.65-1.65,2.65-.21-.13,1.72-2.76-1.9-3,.22-.13,1.82,2.93,1.83-2.93.21.13-1.89,3,1.72,2.76Zm-12.15,0-.21-.13,1.71-2.76-1.89-3,.22-.13,1.82,2.93,1.83-2.93.21.13-1.89,3,1.72,2.76-.22.13-1.65-2.65Zm-13.26,0-.21-.13,1.72-2.76-1.9-3,.22-.13,1.82,2.93,1.83-2.93.21.13-1.89,3,1.72,2.76-.21.13-1.66-2.65Zm-23.22,0-1.65-2.65-1.65,2.65-.21-.13,1.71-2.76-1.89-3,.22-.13,1.82,2.93,1.83-2.93.21.13-1.89,3,1.72,2.76Zm-4.42,0-1.65-2.65-1.65,2.65-.21-.13,1.71-2.76-1.89-3,.21-.13,1.83,2.93,1.83-2.93.21.13-1.89,3,1.72,2.76Zm-7.72,0-.22-.13,1.91-3-1.71-2.75.21-.13,1.64,2.64,1.65-2.64.21.13-1.71,2.75,1.9,3-.21.13-1.84-3Zm91.71,0-1.66-2.65-1.65,2.65-.21-.13,1.72-2.76-1.89-3,.21-.13,1.82,2.93,1.83-2.93.21.13-1.89,3,1.72,2.76Zm-21,0-.21-.13,1.72-2.76-1.89-3,.21-.13,1.82,2.93,1.83-2.93.21.13-1.89,3,1.72,2.76-.21.13-1.66-2.66Zm-1.11,0-1.66-2.65-1.65,2.65-.21-.13,1.72-2.76-1.89-3,.21-.13,1.82,2.93,1.83-2.93.21.13-1.89,3,1.72,2.76Zm-13.27,0L124,167.62l-1.65,2.65-.21-.13,1.72-2.76-1.9-3,.22-.13,1.82,2.93,1.83-2.93.21.13-1.89,3,1.72,2.76Zm-30.94,0L93,167.62l-1.65,2.65-.22-.13,1.72-2.76-1.89-3,.22-.13L93,167.14l1.83-2.93.21.13-1.89,3,1.72,2.76Zm-4.41,0-1.66-2.66L87,170.27l-.22-.13,1.72-2.76-1.89-3,.22-.13,1.82,2.93,1.83-2.93.21.13-1.89,3,1.72,2.76Zm-4.43,0-1.65-2.65-1.65,2.65-.21-.13,1.71-2.76-1.89-3,.22-.13,1.82,2.93L86,164.21l.21.13-1.89,3,1.72,2.76Zm79.57,0-1.66-2.65-1.65,2.65-.21-.13,1.72-2.76-1.89-3,.21-.13,1.82,2.93,1.83-2.93.21.13-1.89,3,1.72,2.76Z" style="fill:#9d9d9c"></path><path d="M183.88,228.19H68.4V221H183.88Zm-115-.5H183.38v-6.16H68.9Zm115-57H68.44V163.8H183.88Zm-114.94-.5H183.38V164.3H68.94Z" style="fill:#1d1d1b"></path><path d="M132.89,708.87H119.43V173.27h13.46Zm-13-.5h12.46V173.77H119.93Z" style="fill:#1d1d1b"></path><path d="M132.17,174.55H119.06c-2.61,0-3.85-1.12-4.44-2.05a4.2,4.2,0,0,1-.64-2.07v-.25h23.44l-.07.3A5.07,5.07,0,0,1,132.17,174.55Zm-13.1-.5h13a4.59,4.59,0,0,0,4.76-3.37H114.5c.09.82.7,3.37,4.56,3.37Z" style="fill:#1d1d1b"></path><path d="M133.1,238.85H120c-2.61,0-3.86-1.12-4.44-2a4.2,4.2,0,0,1-.64-2.07v-.25h23.43l-.06.3A5.07,5.07,0,0,1,133.1,238.85Zm-13.11-.5h13a4.59,4.59,0,0,0,4.76-3.37h-22.3c.1.82.7,3.37,4.57,3.37Z" style="fill:#1d1d1b"></path><path d="M132.79,401.59H119.67c-2.61,0-3.85-1.12-4.44-2a4.33,4.33,0,0,1-.64-2.07v-.25H138l-.06.3A5.08,5.08,0,0,1,132.79,401.59Zm-13.11-.5h13a4.61,4.61,0,0,0,4.77-3.37h-22.3c.09.83.7,3.37,4.56,3.37Z" style="fill:#1d1d1b"></path><path d="M132.79,347.21H119.67c-2.61,0-3.85-1.12-4.44-2a4.33,4.33,0,0,1-.64-2.07v-.25H138l-.06.3A5.08,5.08,0,0,1,132.79,347.21Zm-13.11-.5h13a4.6,4.6,0,0,0,4.77-3.37h-22.3c.09.83.7,3.37,4.56,3.37Z" style="fill:#1d1d1b"></path><path d="M132.79,559.88H119.67c-2.61,0-3.85-1.11-4.44-2a4.33,4.33,0,0,1-.64-2.07v-.25H138l-.06.3A5.08,5.08,0,0,1,132.79,559.88Zm-13.11-.51h13a4.58,4.58,0,0,0,4.77-3.36h-22.3c.09.82.7,3.36,4.56,3.36Z" style="fill:#1d1d1b"></path><path d="M132.67,501.64H119.55c-2.61,0-3.85-1.11-4.44-2.05a4.28,4.28,0,0,1-.64-2.06v-.25h23.44l-.06.3A5.08,5.08,0,0,1,132.67,501.64Zm-13.11-.5h13a4.6,4.6,0,0,0,4.77-3.36H115c.09.82.7,3.36,4.56,3.36Z" style="fill:#1d1d1b"></path><path d="M132.79,667.23H119.67c-2.61,0-3.85-1.11-4.44-2.05a4.28,4.28,0,0,1-.64-2.06v-.25H138l-.06.3A5.09,5.09,0,0,1,132.79,667.23Zm-13.11-.51h13a4.59,4.59,0,0,0,4.77-3.36h-22.3c.09.82.7,3.36,4.56,3.36Z" style="fill:#1d1d1b"></path><path d="M21.6,642.21v-4.83h0a2,2,0,0,1-2.07,1.47c-2.15,0-2.67-2.5-2.67-4.18s.42-4.06,2.68-4.06a2.14,2.14,0,0,1,2.06,1.52h0v-1.34h1.13v11.42Zm-1.85-10.66c-1.44,0-1.63,1.82-1.63,2.9s.14,3.46,1.66,3.46,1.82-2.1,1.82-3.21S21.17,631.55,19.75,631.55Z" style="fill:#1d1d1b"></path><polygon points="76.67 653.89 27.66 635.65 27.79 635.3 27.68 634.94 77.07 620.17 77.28 620.89 28.97 635.34 76.94 653.19 76.67 653.89" style="fill:#1d1d1b"></polygon><path d="M23.11,465.18v10.36l-1.28-.16v-3.81a2.63,2.63,0,0,1-.91.85,2.42,2.42,0,0,1-1.19.3,2.38,2.38,0,0,1-2.06-1,4.75,4.75,0,0,1-.73-2.79,5.52,5.52,0,0,1,.35-2,3.19,3.19,0,0,1,1-1.38,2.49,2.49,0,0,1,1.54-.49,2.73,2.73,0,0,1,2.07,1l.1-.82ZM21,471.43a3.53,3.53,0,0,0,.82-.82V467a3.1,3.1,0,0,0-.78-.73,1.84,1.84,0,0,0-.93-.24,1.52,1.52,0,0,0-1.33.71,4,4,0,0,0-.46,2.13,4.14,4.14,0,0,0,.43,2.13,1.37,1.37,0,0,0,1.25.7A1.8,1.8,0,0,0,21,471.43Z" style="fill:#1d1d1b"></path><polygon points="76.43 487.88 27.42 469.64 27.55 469.29 27.44 468.93 76.82 454.16 77.04 454.87 28.73 469.33 76.69 487.18 76.43 487.88" style="fill:#1d1d1b"></polygon><path d="M21.6,322v-4.83h0a2,2,0,0,1-2.07,1.47c-2.15,0-2.67-2.5-2.67-4.19s.42-4.05,2.68-4.05a2.14,2.14,0,0,1,2.06,1.52h0v-1.34h1.13V322Zm-1.85-10.66c-1.44,0-1.63,1.82-1.63,2.9s.14,3.46,1.66,3.46,1.82-2.1,1.82-3.21S21.17,311.33,19.75,311.33Z" style="fill:#1d1d1b"></path><polygon points="77.4 333.37 28.38 315.12 28.47 314.89 28.4 314.65 77.78 299.88 77.92 300.36 29.26 314.92 77.57 332.9 77.4 333.37" style="fill:#1d1d1b"></polygon><path d="M21.6,149.65v-4.83h0a2,2,0,0,1-2.07,1.47c-2.15,0-2.67-2.5-2.67-4.19s.42-4.06,2.68-4.06a2.15,2.15,0,0,1,2.06,1.53h0v-1.34h1.13v11.42ZM19.75,139c-1.44,0-1.63,1.82-1.63,2.9s.14,3.46,1.66,3.46,1.82-2.11,1.82-3.22S21.17,139,19.75,139Z" style="fill:#1d1d1b"></path><polygon points="76.91 161.33 27.9 143.09 28.03 142.74 27.92 142.38 77.31 127.6 77.52 128.32 29.21 142.78 77.17 160.63 76.91 161.33" style="fill:#1d1d1b"></polygon></g><text transform="translate(149.51 152.74)" style="font-size:15px;fill:#1d1d1b;font-family:FiraSans-Regular, Fira Sans">A</text><text transform="translate(151.08 324.01)" style="font-size:15px;fill:#1d1d1b;font-family:FiraSans-Regular, Fira Sans">A</text><text transform="translate(151.76 479.15)" style="font-size:15px;fill:#1d1d1b;font-family:FiraSans-Regular, Fira Sans">A</text><text transform="translate(151.76 645.49)" style="font-size:15px;fill:#1d1d1b;font-family:FiraSans-Regular, Fira Sans">A</text></g></svg>