<svg xmlns="http://www.w3.org/2000/svg" viewBox="0 0 730 89.02"><title>fig-9-5</title><g id="fig-9-5"><g id="preto"><path d="M7.93,18.8a2.19,2.19,0,0,1,.89.81,2.15,2.15,0,0,1,.3,1.11A1.89,1.89,0,0,1,8.66,22a2.34,2.34,0,0,1-1.23.69,2.18,2.18,0,0,1,1.42.63,2,2,0,0,1,.55,1.48A2.65,2.65,0,0,1,9,26.2a2.48,2.48,0,0,1-1,1,3.38,3.38,0,0,1-1.56.34A3.69,3.69,0,0,1,5,27.21a3.16,3.16,0,0,1-1.15-.88l.71-.66a3.17,3.17,0,0,0,.88.65,2.3,2.3,0,0,0,1,.21,1.75,1.75,0,0,0,1.29-.47,1.66,1.66,0,0,0,.47-1.24,1.47,1.47,0,0,0-.44-1.21,2,2,0,0,0-1.29-.35H5.77l.14-.93h.44a1.63,1.63,0,0,0,1.13-.4,1.45,1.45,0,0,0,.45-1.14,1.27,1.27,0,0,0-.39-1,1.56,1.56,0,0,0-1.06-.35,2.34,2.34,0,0,0-.93.18,2.93,2.93,0,0,0-.86.6l-.63-.72a3.6,3.6,0,0,1,2.49-1A3,3,0,0,1,7.93,18.8Z"/><path d="M19.34,18.42a4.29,4.29,0,0,1,1.13.68l-.68.8a2.68,2.68,0,0,0-1.73-.67,2.18,2.18,0,0,0-1.8.86,4.41,4.41,0,0,0-.68,2.76,4.48,4.48,0,0,0,.67,2.73,2.15,2.15,0,0,0,1.8.88,2.41,2.41,0,0,0,1-.19,5.8,5.8,0,0,0,.91-.55l.61.78a3.24,3.24,0,0,1-1.07.72A3.67,3.67,0,0,1,18,27.5a3.42,3.42,0,0,1-3.27-2.13,6,6,0,0,1-.48-2.52,5.87,5.87,0,0,1,.5-2.52,3.56,3.56,0,0,1,1.34-1.58A3.4,3.4,0,0,1,18,18.22,3.86,3.86,0,0,1,19.34,18.42Z"/><path d="M24.87,24.35a1.73,1.73,0,0,1,.72.67,1.8,1.8,0,0,1,.25.95,2.64,2.64,0,0,1-.28,1.2,5.47,5.47,0,0,1-.86,1.24c-.39.44-1,1.06-1.77,1.85H26l-.11.79h-4V30.3c.91-.95,1.56-1.64,1.94-2.08a6.15,6.15,0,0,0,.82-1.15A2.39,2.39,0,0,0,24.86,26a1,1,0,0,0-1.12-1.13,1.58,1.58,0,0,0-.74.17,3,3,0,0,0-.67.57l-.62-.49a2.9,2.9,0,0,1,.93-.77,2.59,2.59,0,0,1,1.15-.26A2.21,2.21,0,0,1,24.87,24.35Z"/><path d="M33.67,27.35V23.14H29.9v4.21H28.66v-9H29.9v3.75h3.77V18.37h1.24v9Z"/><path d="M42.49,28.61v.75H41.6v1.69h-.91V29.36H37.77v-.67l2.06-4.59.78.33-1.85,4.18H40.7l.09-1.84h.81v1.84Z"/><rect x="158.69" y="23.18" width="54.21" height="0.5" style="fill:#020200"/><polygon points="208.21 20.85 214.96 23.43 208.21 26 209.49 23.43 208.21 20.85 208.21 20.85" style="fill-rule:evenodd"/><polygon points="162.07 20.85 155.32 23.43 162.07 26 160.78 23.43 162.07 20.85 162.07 20.85" style="fill-rule:evenodd"/><path d="M59.65,21.19v2h1.89v1H59.65v1.94h-1.1V24.14H56.67v-1h1.88v-2Z"/><path d="M651.12,19.27a2.32,2.32,0,0,1,.92.86,2.28,2.28,0,0,1,.33,1.22,3.4,3.4,0,0,1-.36,1.52,7.73,7.73,0,0,1-1.1,1.58c-.5.56-1.25,1.35-2.25,2.35h3.91l-.14,1h-5.14v-.95c1.16-1.21,2-2.1,2.47-2.66a6.84,6.84,0,0,0,1-1.46,2.94,2.94,0,0,0,.32-1.34A1.34,1.34,0,0,0,649.69,20a2,2,0,0,0-.94.22,3.37,3.37,0,0,0-.86.73l-.78-.62a3.4,3.4,0,0,1,1.18-1,3.2,3.2,0,0,1,1.46-.33A3,3,0,0,1,651.12,19.27Z"/><path d="M663,27.81V23.6H659.2v4.21H658v-9h1.24v3.75H663V18.83h1.23v9Z"/><path d="M668.77,24.82a1.79,1.79,0,0,1,.72.67,1.84,1.84,0,0,1,.26,1,2.7,2.7,0,0,1-.28,1.2,5.87,5.87,0,0,1-.87,1.23c-.38.45-1,1.07-1.76,1.86h3.07l-.11.79h-4v-.75c.92-1,1.56-1.64,2-2.09a5.35,5.35,0,0,0,.81-1.15,2.23,2.23,0,0,0,.25-1.05,1.07,1.07,0,0,0-1.13-1.14,1.44,1.44,0,0,0-.73.18,2.53,2.53,0,0,0-.68.57l-.61-.49a2.81,2.81,0,0,1,.93-.78,2.51,2.51,0,0,1,1.14-.25A2.32,2.32,0,0,1,668.77,24.82Z"/><path d="M676.3,18.93a4.2,4.2,0,0,1,1.23.79l-.67.75a3.9,3.9,0,0,0-1-.59,2.76,2.76,0,0,0-1.05-.19,1.91,1.91,0,0,0-1.15.33,1.07,1.07,0,0,0-.46.95,1.24,1.24,0,0,0,.16.66,1.32,1.32,0,0,0,.58.48,6.8,6.8,0,0,0,1.23.47,8.46,8.46,0,0,1,1.4.56,2.47,2.47,0,0,1,.9.83,2.4,2.4,0,0,1,.35,1.34,2.46,2.46,0,0,1-1.49,2.31,3.92,3.92,0,0,1-1.71.34,4.16,4.16,0,0,1-3-1.16l.68-.75a4.5,4.5,0,0,0,1.11.67,3.31,3.31,0,0,0,1.25.23,2.23,2.23,0,0,0,1.37-.41,1.4,1.4,0,0,0,.55-1.2,1.46,1.46,0,0,0-.17-.73,1.44,1.44,0,0,0-.58-.53,5.85,5.85,0,0,0-1.19-.47,5.2,5.2,0,0,1-2-1,2,2,0,0,1-.64-1.59,2.1,2.1,0,0,1,.36-1.21,2.28,2.28,0,0,1,1-.83,3.4,3.4,0,0,1,1.46-.3A4.18,4.18,0,0,1,676.3,18.93Z"/><path d="M684.82,19.22a3.54,3.54,0,0,1,1.33,1.58,6,6,0,0,1,.48,2.53,6,6,0,0,1-.48,2.5,3.68,3.68,0,0,1-1.33,1.59,3.6,3.6,0,0,1-2,.54,3.69,3.69,0,0,1-2-.53,3.54,3.54,0,0,1-1.33-1.58,6,6,0,0,1-.48-2.51,6,6,0,0,1,.48-2.5,3.62,3.62,0,0,1,1.33-1.61,3.87,3.87,0,0,1,4,0ZM681,20.58a4.64,4.64,0,0,0-.65,2.76,4.53,4.53,0,0,0,.66,2.73,2.11,2.11,0,0,0,1.81.88q2.48,0,2.47-3.62t-2.47-3.64A2.13,2.13,0,0,0,681,20.58Z"/><path d="M691.76,29.09v.75h-.89v1.69H690V29.84H687v-.68l2.05-4.58.79.32L688,29.09H690l.08-1.84h.82v1.84Z"/><path d="M696.94,17.32a18.59,18.59,0,0,0-1.07,1.79,8,8,0,0,0-.62,1.79,10.22,10.22,0,0,0-.23,2.35,10.15,10.15,0,0,0,.23,2.33,8.09,8.09,0,0,0,.62,1.8,15.54,15.54,0,0,0,1.07,1.79l-.75.52q-.86-1.22-1.32-2a7.91,7.91,0,0,1-.78-1.89,9.23,9.23,0,0,1-.32-2.54,9.25,9.25,0,0,1,.32-2.55,8.27,8.27,0,0,1,.78-1.89q.46-.78,1.32-2Z"/><path d="M703.77,27.81V23.6H700v4.21h-1.23v-9H700v3.75h3.77V18.83H705v9Z"/><path d="M710.58,24.82a1.79,1.79,0,0,1,.72.67,1.83,1.83,0,0,1,.25,1,2.7,2.7,0,0,1-.28,1.2,5.78,5.78,0,0,1-.86,1.23q-.58.68-1.77,1.86h3.08l-.11.79h-4v-.75c.91-1,1.56-1.64,1.94-2.09a5.84,5.84,0,0,0,.82-1.15,2.35,2.35,0,0,0,.24-1.05,1.13,1.13,0,0,0-.3-.83,1.1,1.1,0,0,0-.82-.31,1.47,1.47,0,0,0-.74.18,2.51,2.51,0,0,0-.67.57l-.62-.49a2.81,2.81,0,0,1,.93-.78,2.58,2.58,0,0,1,1.15-.25A2.32,2.32,0,0,1,710.58,24.82Z"/><path d="M719.56,19.22a3.52,3.52,0,0,1,1.32,1.58,6,6,0,0,1,.48,2.53,6,6,0,0,1-.48,2.5A3.42,3.42,0,0,1,717.57,28a3.71,3.71,0,0,1-2-.53,3.54,3.54,0,0,1-1.33-1.58,6.11,6.11,0,0,1-.47-2.51,6.13,6.13,0,0,1,.47-2.5,3.71,3.71,0,0,1,5.3-1.62Zm-3.81,1.36a4.72,4.72,0,0,0-.65,2.76,4.53,4.53,0,0,0,.66,2.73,2.13,2.13,0,0,0,1.81.88Q720,27,720,23.33t-2.47-3.64A2.13,2.13,0,0,0,715.75,20.58Z"/><path d="M724.76,18.81a8.27,8.27,0,0,1,.78,1.89,9.25,9.25,0,0,1,.32,2.55,9.23,9.23,0,0,1-.32,2.54,7.91,7.91,0,0,1-.78,1.89q-.46.8-1.32,2l-.75-.52a15.54,15.54,0,0,0,1.07-1.79,8.09,8.09,0,0,0,.62-1.8,10.15,10.15,0,0,0,.23-2.33,10.22,10.22,0,0,0-.23-2.35,8,8,0,0,0-.62-1.79,18.59,18.59,0,0,0-1.07-1.79l.75-.52Q724.3,18,724.76,18.81Z"/><path d="M85.59,18.19a2.27,2.27,0,0,1,.91.85,2.3,2.3,0,0,1,.33,1.22,3.36,3.36,0,0,1-.36,1.52,7.11,7.11,0,0,1-1.1,1.58c-.49.57-1.24,1.35-2.25,2.36H87l-.15,1H81.76v-.95c1.16-1.21,2-2.09,2.47-2.65a7.67,7.67,0,0,0,1-1.47,2.9,2.9,0,0,0,.31-1.34,1.43,1.43,0,0,0-.39-1.06,1.4,1.4,0,0,0-1-.38,1.89,1.89,0,0,0-.94.22,3.55,3.55,0,0,0-.86.73l-.78-.63a3.66,3.66,0,0,1,1.19-1,3.15,3.15,0,0,1,1.45-.32A2.92,2.92,0,0,1,85.59,18.19Z"/><path d="M97.43,26.72V22.51H93.66v4.21H92.42v-9h1.24V21.5h3.77V17.75h1.24v9Z"/><path d="M105.1,23.74a1.79,1.79,0,0,1,.72.67,1.82,1.82,0,0,1,.26,1,2.77,2.77,0,0,1-.28,1.19,5.66,5.66,0,0,1-.87,1.24c-.39.45-1,1.06-1.76,1.85h3.07l-.11.79h-4V29.7c.91-.95,1.56-1.65,1.94-2.09a5.34,5.34,0,0,0,.82-1.15,2.26,2.26,0,0,0,.25-1.05A1.05,1.05,0,0,0,104,24.27a1.44,1.44,0,0,0-.73.18,2.53,2.53,0,0,0-.68.57l-.61-.49a2.81,2.81,0,0,1,.93-.78,2.52,2.52,0,0,1,1.14-.26A2.33,2.33,0,0,1,105.1,23.74Z"/><path d="M112.63,17.84a4.41,4.41,0,0,1,1.23.79l-.67.76a3.63,3.63,0,0,0-1-.59,2.76,2.76,0,0,0-1-.19,1.91,1.91,0,0,0-1.15.32,1.09,1.09,0,0,0-.46.95,1.24,1.24,0,0,0,.16.66,1.33,1.33,0,0,0,.58.49,7.65,7.65,0,0,0,1.23.47,7.67,7.67,0,0,1,1.4.56,2.32,2.32,0,0,1,.9.83,2.29,2.29,0,0,1,.35,1.33,2.55,2.55,0,0,1-.38,1.38,2.64,2.64,0,0,1-1.11.94,4.07,4.07,0,0,1-1.71.34,4.16,4.16,0,0,1-3-1.16l.67-.76a4.21,4.21,0,0,0,1.11.67,3.13,3.13,0,0,0,1.25.23,2.22,2.22,0,0,0,1.38-.41,1.62,1.62,0,0,0,.37-1.93,1.43,1.43,0,0,0-.58-.52,5.32,5.32,0,0,0-1.19-.47,5.2,5.2,0,0,1-2-1,2,2,0,0,1-.64-1.58,2.13,2.13,0,0,1,.36-1.22,2.42,2.42,0,0,1,1-.83,3.43,3.43,0,0,1,1.46-.3A4.18,4.18,0,0,1,112.63,17.84Z"/><path d="M121.16,18.13a3.57,3.57,0,0,1,1.32,1.58,6,6,0,0,1,.48,2.53,5.93,5.93,0,0,1-.48,2.5,3.55,3.55,0,0,1-1.32,1.59,3.64,3.64,0,0,1-2,.55,3.6,3.6,0,0,1-2-.54,3.51,3.51,0,0,1-1.33-1.57,6,6,0,0,1-.47-2.52,6,6,0,0,1,.47-2.5,3.45,3.45,0,0,1,3.31-2.16A3.64,3.64,0,0,1,121.16,18.13Zm-3.81,1.36a4.72,4.72,0,0,0-.65,2.76,4.55,4.55,0,0,0,.66,2.74,2.13,2.13,0,0,0,1.81.87q2.47,0,2.47-3.62t-2.47-3.63A2.12,2.12,0,0,0,117.35,19.49Z"/><path d="M128.09,28v.74h-.89v1.69h-.91V28.75h-2.92v-.67l2-4.59.79.33L124.36,28h1.94l.08-1.85h.82V28Z"/><path d="M233.66,17.08a3.9,3.9,0,0,1,1.13.68l-.68.79a2.7,2.7,0,0,0-1.73-.66,2.2,2.2,0,0,0-1.8.85,4.46,4.46,0,0,0-.68,2.77,4.5,4.5,0,0,0,.67,2.73,2.16,2.16,0,0,0,1.8.87,2.41,2.41,0,0,0,1-.19,4.79,4.79,0,0,0,.91-.55l.61.78a3.3,3.3,0,0,1-1.06.72,3.75,3.75,0,0,1-1.5.29A3.42,3.42,0,0,1,229.06,24a6,6,0,0,1-.48-2.52,5.87,5.87,0,0,1,.5-2.52,3.65,3.65,0,0,1,1.34-1.59,3.49,3.49,0,0,1,1.88-.53A3.85,3.85,0,0,1,233.66,17.08Z"/><path d="M239.47,23a1.77,1.77,0,0,1,1,1.63,2.64,2.64,0,0,1-.28,1.2,6.08,6.08,0,0,1-.86,1.24c-.39.44-1,1.06-1.77,1.85h3.08l-.12.79h-4v-.75c.91-1,1.56-1.64,1.94-2.08a6.49,6.49,0,0,0,.82-1.15,2.39,2.39,0,0,0,.24-1.06,1.05,1.05,0,0,0-1.12-1.13,1.47,1.47,0,0,0-.74.17,3,3,0,0,0-.67.57l-.62-.49a2.81,2.81,0,0,1,.93-.78,2.55,2.55,0,0,1,1.15-.25A2.32,2.32,0,0,1,239.47,23Z"/><path d="M247.61,26V21.79h-3.78V26H242.6V17h1.23v3.75h3.78V17h1.23v9Z"/><path d="M255.16,23.58h-2.67v2a2.5,2.5,0,0,1,1.1-.26,1.83,1.83,0,0,1,1.41.58,2.26,2.26,0,0,1,.53,1.59,2.38,2.38,0,0,1-.3,1.2,2,2,0,0,1-.83.82,2.61,2.61,0,0,1-1.24.29,2.67,2.67,0,0,1-1.12-.22,3.06,3.06,0,0,1-.91-.65l.56-.54a2.2,2.2,0,0,0,.67.48,1.83,1.83,0,0,0,.79.16,1.31,1.31,0,0,0,1-.41,1.69,1.69,0,0,0,.37-1.15,1.48,1.48,0,0,0-.34-1.09,1.25,1.25,0,0,0-.91-.34,1.93,1.93,0,0,0-.49.06,2.88,2.88,0,0,0-.48.18h-.74V22.84h3.7Z"/><path d="M263.26,17.41A3.59,3.59,0,0,1,264.59,19a6.21,6.21,0,0,1,.47,2.53,6.09,6.09,0,0,1-.47,2.5,3.72,3.72,0,0,1-5.3,1.6A3.51,3.51,0,0,1,258,24.05a6.19,6.19,0,0,1-.47-2.52A6.16,6.16,0,0,1,258,19a3.63,3.63,0,0,1,1.34-1.61,3.54,3.54,0,0,1,2-.55A3.64,3.64,0,0,1,263.26,17.41Zm-3.81,1.36a4.72,4.72,0,0,0-.65,2.76,4.55,4.55,0,0,0,.66,2.74,2.14,2.14,0,0,0,1.81.87q2.48,0,2.48-3.62t-2.48-3.63A2.13,2.13,0,0,0,259.45,18.77Z"/><path d="M270.92,17.12a4.41,4.41,0,0,1,1.23.79l-.68.76a3.91,3.91,0,0,0-1-.6,3,3,0,0,0-1.05-.18,1.94,1.94,0,0,0-1.16.32,1.1,1.1,0,0,0-.45.95,1.34,1.34,0,0,0,.15.66,1.46,1.46,0,0,0,.58.49,8.05,8.05,0,0,0,1.23.47,7.51,7.51,0,0,1,1.41.56,2.29,2.29,0,0,1,1.25,2.16,2.48,2.48,0,0,1-.39,1.38,2.55,2.55,0,0,1-1.1.94,4.07,4.07,0,0,1-1.71.34A4.2,4.2,0,0,1,266.19,25l.68-.76a4.17,4.17,0,0,0,1.1.67,3.16,3.16,0,0,0,1.25.23,2.24,2.24,0,0,0,1.38-.41,1.38,1.38,0,0,0,.55-1.19,1.27,1.27,0,0,0-.75-1.26,5.32,5.32,0,0,0-1.19-.47,5.33,5.33,0,0,1-2-1,2.06,2.06,0,0,1-.63-1.59,2.2,2.2,0,0,1,.35-1.21,2.45,2.45,0,0,1,1-.83,3.4,3.4,0,0,1,1.46-.3A4.18,4.18,0,0,1,270.92,17.12Z"/><path d="M279.44,17.41A3.59,3.59,0,0,1,280.77,19a6,6,0,0,1,.47,2.53,5.94,5.94,0,0,1-.47,2.5,3.72,3.72,0,0,1-5.3,1.6,3.49,3.49,0,0,1-1.32-1.57,6,6,0,0,1-.48-2.52,6,6,0,0,1,.48-2.5,3.61,3.61,0,0,1,1.33-1.61,3.55,3.55,0,0,1,2-.55A3.63,3.63,0,0,1,279.44,17.41Zm-3.8,1.36a4.64,4.64,0,0,0-.65,2.76,4.63,4.63,0,0,0,.65,2.74,2.16,2.16,0,0,0,1.82.87q2.48,0,2.47-3.62t-2.47-3.63A2.12,2.12,0,0,0,275.64,18.77Z"/><path d="M285.41,23a1.74,1.74,0,0,1,.7.64,1.63,1.63,0,0,1,.24.87,1.46,1.46,0,0,1-.37,1,1.76,1.76,0,0,1-1,.54,1.71,1.71,0,0,1,1.11.5,1.54,1.54,0,0,1,.43,1.16,2,2,0,0,1-.29,1.08,2,2,0,0,1-.81.75,2.71,2.71,0,0,1-1.23.27,2.8,2.8,0,0,1-1.14-.23,2.35,2.35,0,0,1-.91-.69l.56-.52a2.28,2.28,0,0,0,.69.51,1.77,1.77,0,0,0,.77.16,1.37,1.37,0,0,0,1-.36,1.3,1.3,0,0,0,.37-1,1.15,1.15,0,0,0-.35-.95,1.62,1.62,0,0,0-1-.28h-.51l.11-.72h.35a1.27,1.27,0,0,0,.88-.32,1.12,1.12,0,0,0,.36-.89,1,1,0,0,0-.31-.76,1.18,1.18,0,0,0-.83-.29,1.77,1.77,0,0,0-.73.15,2.26,2.26,0,0,0-.68.47l-.49-.56a2.79,2.79,0,0,1,1.95-.81A2.41,2.41,0,0,1,285.41,23Z"/><path d="M293.28,26V21.79h-3.77V26h-1.24V17h1.24v3.75h3.77V17h1.23v9Z"/><path d="M317.69,20.78v1.95h1.9v1h-1.9v1.94H316.6V23.72h-1.89v-1h1.89V20.78Z"/><path d="M334.34,15.52a15,15,0,0,0-1.07,1.79,7.38,7.38,0,0,0-.62,1.79,10.19,10.19,0,0,0-.23,2.34,10.1,10.1,0,0,0,.23,2.33,7.86,7.86,0,0,0,.62,1.81,15,15,0,0,0,1.07,1.79l-.75.52q-.85-1.23-1.32-2a8.27,8.27,0,0,1-.78-1.89,9.3,9.3,0,0,1-.32-2.55,9.23,9.23,0,0,1,.32-2.54,7.91,7.91,0,0,1,.78-1.89c.31-.53.75-1.2,1.32-2Z"/><path d="M340.66,17.08a3.86,3.86,0,0,1,1.12.68l-.67.79a2.74,2.74,0,0,0-1.73-.66,2.17,2.17,0,0,0-1.8.85,4.45,4.45,0,0,0-.69,2.77,4.49,4.49,0,0,0,.68,2.73,2.16,2.16,0,0,0,1.79.87,2.43,2.43,0,0,0,1-.19,5.12,5.12,0,0,0,.91-.55l.61.78a3.35,3.35,0,0,1-1.07.72,3.67,3.67,0,0,1-1.49.29A3.44,3.44,0,0,1,336.05,24a6.19,6.19,0,0,1-.47-2.52,5.87,5.87,0,0,1,.49-2.52,3.72,3.72,0,0,1,1.34-1.59,3.55,3.55,0,0,1,1.89-.53A3.85,3.85,0,0,1,340.66,17.08Z"/><path d="M346,23a2,2,0,0,1,.72.67,1.86,1.86,0,0,1,.25,1,2.64,2.64,0,0,1-.28,1.2,6.51,6.51,0,0,1-.86,1.24c-.39.44-1,1.06-1.77,1.85h3.07l-.11.79h-4v-.75c.92-1,1.56-1.64,1.95-2.08a5.89,5.89,0,0,0,.81-1.15,2.27,2.27,0,0,0,.25-1.06,1.05,1.05,0,0,0-1.12-1.13,1.47,1.47,0,0,0-.74.17,2.75,2.75,0,0,0-.67.57l-.62-.49a2.81,2.81,0,0,1,.93-.78,2.52,2.52,0,0,1,1.15-.25A2.35,2.35,0,0,1,346,23Z"/><path d="M354.8,26V21.79H351V26h-1.23V17H351v3.75h3.78V17H356v9Z"/><path d="M362.35,23.58h-2.66v2a2.43,2.43,0,0,1,1.09-.26,1.8,1.8,0,0,1,1.41.58,2.26,2.26,0,0,1,.53,1.59,2.48,2.48,0,0,1-.29,1.2,2.14,2.14,0,0,1-.84.82,2.58,2.58,0,0,1-1.24.29,2.62,2.62,0,0,1-1.11-.22,2.94,2.94,0,0,1-.91-.65l.55-.54a2.2,2.2,0,0,0,.67.48,1.86,1.86,0,0,0,.79.16,1.3,1.3,0,0,0,1-.41,1.64,1.64,0,0,0,.37-1.15,1.48,1.48,0,0,0-.34-1.09,1.23,1.23,0,0,0-.91-.34,1.93,1.93,0,0,0-.49.06,2.88,2.88,0,0,0-.48.18h-.73V22.84h3.7Z"/><path d="M366.56,17a7.91,7.91,0,0,1,.78,1.89,9.23,9.23,0,0,1,.32,2.54,9.3,9.3,0,0,1-.32,2.55,8.27,8.27,0,0,1-.78,1.89q-.46.78-1.32,2l-.76-.52a15.18,15.18,0,0,0,1.08-1.79,8.36,8.36,0,0,0,.62-1.81,10.68,10.68,0,0,0,.23-2.33,10.78,10.78,0,0,0-.23-2.34,7.83,7.83,0,0,0-.62-1.79,15.18,15.18,0,0,0-1.08-1.79l.76-.53C365.81,15.81,366.25,16.48,366.56,17Z"/><path d="M372,23a1.77,1.77,0,0,1,1,1.63,2.64,2.64,0,0,1-.28,1.2,6.08,6.08,0,0,1-.86,1.24c-.39.44-1,1.06-1.77,1.85h3.08l-.11.79h-4v-.75c.91-1,1.56-1.64,1.94-2.08a6.49,6.49,0,0,0,.82-1.15,2.39,2.39,0,0,0,.24-1.06,1,1,0,0,0-1.12-1.13,1.47,1.47,0,0,0-.74.17,3,3,0,0,0-.67.57l-.62-.49a2.81,2.81,0,0,1,.93-.78,2.58,2.58,0,0,1,1.15-.25A2.32,2.32,0,0,1,372,23Z"/><path d="M380.4,17.41A3.59,3.59,0,0,1,381.73,19a6.21,6.21,0,0,1,.47,2.53,6.09,6.09,0,0,1-.47,2.5,3.72,3.72,0,0,1-5.3,1.6,3.43,3.43,0,0,1-1.32-1.57,6,6,0,0,1-.48-2.52,6,6,0,0,1,.48-2.5,3.61,3.61,0,0,1,1.33-1.61,3.55,3.55,0,0,1,2-.55A3.63,3.63,0,0,1,380.4,17.41Zm-3.81,1.36a4.72,4.72,0,0,0-.65,2.76,4.55,4.55,0,0,0,.66,2.74,2.15,2.15,0,0,0,1.82.87c1.64,0,2.47-1.21,2.47-3.62s-.83-3.63-2.47-3.63A2.15,2.15,0,0,0,376.59,18.77Z"/><path d="M388.06,17.12a4.41,4.41,0,0,1,1.23.79l-.67.76a4,4,0,0,0-1-.6,3,3,0,0,0-1.05-.18,1.91,1.91,0,0,0-1.15.32,1.08,1.08,0,0,0-.46.95,1.24,1.24,0,0,0,.16.66,1.33,1.33,0,0,0,.58.49,7.86,7.86,0,0,0,1.22.47,7.51,7.51,0,0,1,1.41.56,2.29,2.29,0,0,1,1.25,2.16,2.48,2.48,0,0,1-.39,1.38,2.55,2.55,0,0,1-1.1.94,4.07,4.07,0,0,1-1.71.34A4.2,4.2,0,0,1,383.33,25l.68-.76a4.21,4.21,0,0,0,1.11.67,3.13,3.13,0,0,0,1.25.23,2.23,2.23,0,0,0,1.37-.41,1.38,1.38,0,0,0,.55-1.19,1.5,1.5,0,0,0-.17-.74,1.43,1.43,0,0,0-.58-.52,5.32,5.32,0,0,0-1.19-.47,5.2,5.2,0,0,1-2-1,2,2,0,0,1-.64-1.59,2.13,2.13,0,0,1,.36-1.21,2.36,2.36,0,0,1,1-.83,3.4,3.4,0,0,1,1.46-.3A4.18,4.18,0,0,1,388.06,17.12Z"/><path d="M396.58,17.41A3.59,3.59,0,0,1,397.91,19a6,6,0,0,1,.48,2.53,5.93,5.93,0,0,1-.48,2.5,3.71,3.71,0,0,1-5.29,1.6,3.51,3.51,0,0,1-1.33-1.57,6,6,0,0,1-.48-2.52,6,6,0,0,1,.48-2.5,3.68,3.68,0,0,1,1.33-1.61,3.87,3.87,0,0,1,4,0Zm-3.8,1.36a4.64,4.64,0,0,0-.65,2.76,4.55,4.55,0,0,0,.66,2.74,2.13,2.13,0,0,0,1.81.87q2.47,0,2.47-3.62t-2.47-3.63A2.12,2.12,0,0,0,392.78,18.77Z"/><path d="M402.9,23a1.77,1.77,0,0,1,1,1.63,2.64,2.64,0,0,1-.28,1.2,6.08,6.08,0,0,1-.86,1.24c-.39.44-1,1.06-1.77,1.85H404l-.12.79h-4v-.75c.91-1,1.56-1.64,1.94-2.08a6.49,6.49,0,0,0,.82-1.15,2.39,2.39,0,0,0,.24-1.06,1.05,1.05,0,0,0-1.12-1.13,1.47,1.47,0,0,0-.74.17,2.75,2.75,0,0,0-.67.57l-.62-.49a2.81,2.81,0,0,1,.93-.78,2.55,2.55,0,0,1,1.15-.25A2.32,2.32,0,0,1,402.9,23Z"/><rect x="421.1" y="23.18" width="54.21" height="0.5" style="fill:#020200"/><polygon points="470.62 20.95 477.13 23.43 470.62 25.91 471.86 23.43 470.62 20.95 470.62 20.95" style="fill-rule:evenodd"/><path d="M493.14,17.34a4.25,4.25,0,0,1,1.12.68l-.68.79a2.7,2.7,0,0,0-1.73-.66,2.21,2.21,0,0,0-1.8.86,4.47,4.47,0,0,0-.68,2.76,4.43,4.43,0,0,0,.68,2.73,2.13,2.13,0,0,0,1.79.88,2.38,2.38,0,0,0,1-.2,5.28,5.28,0,0,0,.91-.54l.62.78a3.48,3.48,0,0,1-2.57,1,3.52,3.52,0,0,1-1.94-.54,3.57,3.57,0,0,1-1.33-1.59,6,6,0,0,1-.47-2.52,5.87,5.87,0,0,1,.49-2.52,3.63,3.63,0,0,1,1.34-1.58,3.42,3.42,0,0,1,1.89-.54A3.89,3.89,0,0,1,493.14,17.34Z"/><path d="M500.34,23.27a1.79,1.79,0,0,1,.72.67,1.82,1.82,0,0,1,.26,1,2.77,2.77,0,0,1-.28,1.19,5.66,5.66,0,0,1-.87,1.24c-.39.45-1,1.06-1.77,1.85h3.08l-.11.79h-4v-.74c.91-.95,1.56-1.65,1.94-2.09a5.71,5.71,0,0,0,.82-1.15,2.38,2.38,0,0,0,.24-1,1,1,0,0,0-1.12-1.14,1.44,1.44,0,0,0-.73.18,2.39,2.39,0,0,0-.68.57l-.61-.49a2.81,2.81,0,0,1,.93-.78,2.52,2.52,0,0,1,1.14-.26A2.33,2.33,0,0,1,500.34,23.27Z"/><path d="M509.13,26.27V22.06h-3.78v4.21h-1.23v-9h1.23V21h3.78V17.29h1.23v9Z"/><path d="M516.7,23.86H514v2a2.35,2.35,0,0,1,1.1-.27,1.86,1.86,0,0,1,1.41.58,2.3,2.3,0,0,1,.53,1.59,2.38,2.38,0,0,1-.3,1.2,2,2,0,0,1-.83.82,2.5,2.5,0,0,1-1.24.3,2.67,2.67,0,0,1-1.12-.23,2.9,2.9,0,0,1-.91-.64l.55-.55a2.47,2.47,0,0,0,.68.49,1.8,1.8,0,0,0,.79.16,1.33,1.33,0,0,0,1-.41,1.65,1.65,0,0,0,.38-1.16,1.49,1.49,0,0,0-.34-1.08,1.22,1.22,0,0,0-.91-.34,1.88,1.88,0,0,0-.49.06,2.14,2.14,0,0,0-.48.17h-.74V23.13h3.7Z"/><path d="M524.79,17.67a3.57,3.57,0,0,1,1.33,1.59,6,6,0,0,1,.47,2.52,6,6,0,0,1-.47,2.51,3.59,3.59,0,0,1-1.33,1.58,3.55,3.55,0,0,1-2,.55,3.66,3.66,0,0,1-2-.53,3.48,3.48,0,0,1-1.33-1.58A6,6,0,0,1,519,21.8a6,6,0,0,1,.48-2.5,3.48,3.48,0,0,1,3.31-2.17A3.63,3.63,0,0,1,524.79,17.67ZM521,19a4.64,4.64,0,0,0-.65,2.76,4.61,4.61,0,0,0,.65,2.73,2.17,2.17,0,0,0,1.82.88q2.48,0,2.47-3.63t-2.47-3.63A2.13,2.13,0,0,0,521,19Z"/><path d="M533.71,26.27V22.06h-3.77v4.21H528.7v-9h1.24V21h3.77V17.29H535v9Z"/><path d="M548.43,20.74v2h1.9v1h-1.9v1.94h-1.1V23.69h-1.88v-1h1.88v-2Z"/><path d="M565.94,15.78a16.74,16.74,0,0,0-1.07,1.79,8,8,0,0,0-.63,1.79,10.85,10.85,0,0,0-.22,2.35,10.79,10.79,0,0,0,.22,2.33,8.09,8.09,0,0,0,.63,1.8,14.23,14.23,0,0,0,1.07,1.79l-.75.52c-.57-.81-1-1.48-1.32-2a7.91,7.91,0,0,1-.78-1.89,8.86,8.86,0,0,1-.32-2.54,8.88,8.88,0,0,1,.32-2.55,8.27,8.27,0,0,1,.78-1.89c.3-.52.75-1.2,1.32-2Z"/><path d="M572.26,17.34a4.1,4.1,0,0,1,1.12.68l-.67.79a2.74,2.74,0,0,0-1.73-.66,2.21,2.21,0,0,0-1.81.86,4.47,4.47,0,0,0-.68,2.76,4.49,4.49,0,0,0,.68,2.73,2.14,2.14,0,0,0,1.79.88,2.38,2.38,0,0,0,1-.2,5.74,5.74,0,0,0,.92-.54l.61.78a3.48,3.48,0,0,1-2.57,1,3.44,3.44,0,0,1-3.27-2.13,6.19,6.19,0,0,1-.47-2.52,5.87,5.87,0,0,1,.49-2.52A3.63,3.63,0,0,1,569,17.67a3.44,3.44,0,0,1,1.89-.54A3.85,3.85,0,0,1,572.26,17.34Z"/><path d="M578.48,23.27a1.79,1.79,0,0,1,.72.67,1.82,1.82,0,0,1,.26,1,2.64,2.64,0,0,1-.29,1.19,5.26,5.26,0,0,1-.86,1.24c-.39.45-1,1.06-1.77,1.85h3.08l-.11.79h-4v-.74c.91-.95,1.56-1.65,1.94-2.09a5.71,5.71,0,0,0,.82-1.15,2.38,2.38,0,0,0,.24-1,1,1,0,0,0-1.12-1.14,1.44,1.44,0,0,0-.73.18,2.39,2.39,0,0,0-.68.57l-.61-.49a2.81,2.81,0,0,1,.93-.78A2.52,2.52,0,0,1,577.4,23,2.33,2.33,0,0,1,578.48,23.27Z"/><path d="M587.28,26.27V22.06h-3.77v4.21h-1.24v-9h1.24V21h3.77V17.29h1.24v9Z"/><path d="M594.86,23.86h-2.67v2a2.34,2.34,0,0,1,1.09-.27,1.83,1.83,0,0,1,1.41.58,2.25,2.25,0,0,1,.53,1.59,2.37,2.37,0,0,1-.29,1.2,2,2,0,0,1-.84.82,2.47,2.47,0,0,1-1.24.3,2.65,2.65,0,0,1-1.11-.23,2.9,2.9,0,0,1-.91-.64l.55-.55a2.44,2.44,0,0,0,.67.49,1.86,1.86,0,0,0,.79.16,1.33,1.33,0,0,0,1-.41,1.65,1.65,0,0,0,.37-1.16,1.48,1.48,0,0,0-.33-1.08,1.22,1.22,0,0,0-.91-.34,2,2,0,0,0-.5.06,2.14,2.14,0,0,0-.48.17h-.73V23.13H595Z"/><path d="M599.06,17.27a8.27,8.27,0,0,1,.78,1.89,9.25,9.25,0,0,1,.32,2.55,9.23,9.23,0,0,1-.32,2.54,7.91,7.91,0,0,1-.78,1.89q-.46.8-1.32,2l-.76-.52a15.75,15.75,0,0,0,1.08-1.79,8.09,8.09,0,0,0,.62-1.8,10.75,10.75,0,0,0,.23-2.33,10.81,10.81,0,0,0-.23-2.35,8,8,0,0,0-.62-1.79A18.91,18.91,0,0,0,597,15.78l.76-.52C598.31,16.07,598.75,16.75,599.06,17.27Z"/><path d="M604.49,23.27a1.79,1.79,0,0,1,.72.67,1.82,1.82,0,0,1,.26,1,2.64,2.64,0,0,1-.29,1.19,5.26,5.26,0,0,1-.86,1.24c-.39.45-1,1.06-1.77,1.85h3.08l-.11.79h-4v-.74c.91-.95,1.56-1.65,1.94-2.09a5.71,5.71,0,0,0,.82-1.15,2.38,2.38,0,0,0,.24-1,1,1,0,0,0-1.12-1.14,1.44,1.44,0,0,0-.73.18,2.39,2.39,0,0,0-.68.57l-.61-.49a2.81,2.81,0,0,1,.93-.78,2.52,2.52,0,0,1,1.14-.26A2.33,2.33,0,0,1,604.49,23.27Z"/><path d="M613.49,17.67a3.55,3.55,0,0,1,1.32,1.59,6,6,0,0,1,.48,2.52,6,6,0,0,1-.48,2.51,3.46,3.46,0,0,1-3.31,2.13,3.71,3.71,0,0,1-2-.53,3.54,3.54,0,0,1-1.33-1.58,6.11,6.11,0,0,1-.47-2.51,6.13,6.13,0,0,1,.47-2.5,3.51,3.51,0,0,1,3.31-2.17A3.64,3.64,0,0,1,613.49,17.67ZM609.68,19A4.72,4.72,0,0,0,609,21.8a4.53,4.53,0,0,0,.66,2.73,2.15,2.15,0,0,0,1.81.88q2.47,0,2.47-3.63t-2.47-3.63A2.14,2.14,0,0,0,609.68,19Z"/><path d="M632.67,21.69v1.95h1.9v1h-1.9v1.94h-1.09V24.63h-1.89v-1h1.89V21.69Z"/></g><g id="roxo"><path d="M10.58,48.76l-.14,1H7v2.93h3v1H7v3.08h3.73v1h-5v-9Z" style="fill:#7a40c6"/><path d="M16.08,57.42a2.57,2.57,0,0,1-1.53.47,1.78,1.78,0,0,1-1.36-.5,2,2,0,0,1-.49-1.45V51.8H11.5v-.93h1.2V49.32l1.2-.14v1.69h1.62l-.13.93H13.9v4.09a1.23,1.23,0,0,0,.19.77.74.74,0,0,0,.63.24,2,2,0,0,0,.91-.27Z" style="fill:#7a40c6"/><path d="M22.17,56.75a.87.87,0,0,0,.43.31l-.27.83a1.75,1.75,0,0,1-.86-.3,1.31,1.31,0,0,1-.48-.73,2.29,2.29,0,0,1-2,1,2.19,2.19,0,0,1-1.6-.57,2,2,0,0,1-.59-1.5,2,2,0,0,1,.79-1.68,3.68,3.68,0,0,1,2.23-.58h1v-.51a1.33,1.33,0,0,0-.35-1,1.57,1.57,0,0,0-1.08-.32,6.2,6.2,0,0,0-1.85.37l-.3-.87a6.73,6.73,0,0,1,2.37-.47,2.45,2.45,0,0,1,1.81.59A2.26,2.26,0,0,1,22,53v3.13A1.11,1.11,0,0,0,22.17,56.75Zm-1.34-.82V54.35h-.9Q18,54.35,18,55.76a1.27,1.27,0,0,0,.29.92,1.18,1.18,0,0,0,.89.31A1.78,1.78,0,0,0,20.83,55.93Z" style="fill:#7a40c6"/><path d="M29.07,51.28a2.14,2.14,0,0,1,.53,1.53v4.93H28.4V53a1.55,1.55,0,0,0-.27-1,1,1,0,0,0-.81-.3,1.56,1.56,0,0,0-1,.32,3,3,0,0,0-.78.89v4.88h-1.2V50.87h1l.11,1a2.64,2.64,0,0,1,.9-.86,2.32,2.32,0,0,1,1.19-.31A1.88,1.88,0,0,1,29.07,51.28Z" style="fill:#7a40c6"/><path d="M36.72,51.68a3.93,3.93,0,0,1,.8,2.62,4.6,4.6,0,0,1-.36,1.88,2.81,2.81,0,0,1-2.69,1.71,2.79,2.79,0,0,1-2.26-1,4,4,0,0,1-.8-2.62,4.6,4.6,0,0,1,.36-1.88,2.82,2.82,0,0,1,2.71-1.71A2.75,2.75,0,0,1,36.72,51.68Zm-4,2.63c0,1.75.59,2.62,1.77,2.62s1.77-.88,1.77-2.63-.59-2.62-1.76-2.62S32.7,52.56,32.7,54.31Z" style="fill:#7a40c6"/><path d="M440.37,16v-4.2H436.6V16h-1.24V7h1.24v3.75h3.77V7h1.24v9Z" style="fill:#7a40c6"/><path d="M446.16,14.53a1.57,1.57,0,0,1,.59.55,1.6,1.6,0,0,1,.2.79,2.14,2.14,0,0,1-.23,1,4.87,4.87,0,0,1-.7,1c-.32.36-.8.87-1.45,1.51h2.52L447,20h-3.31v-.61q1.13-1.17,1.59-1.71a4.66,4.66,0,0,0,.67-.94,1.94,1.94,0,0,0,.2-.86.86.86,0,0,0-.92-.93,1.27,1.27,0,0,0-.6.14,2.22,2.22,0,0,0-.55.47l-.5-.4a2.17,2.17,0,0,1,.76-.64,2.05,2.05,0,0,1,.93-.21A2,2,0,0,1,446.16,14.53Z" style="fill:#7a40c6"/><path d="M454.49,7.4A3.57,3.57,0,0,1,455.81,9a6,6,0,0,1,.48,2.53,5.93,5.93,0,0,1-.48,2.5,3.45,3.45,0,0,1-3.31,2.14,3.6,3.6,0,0,1-2-.54A3.51,3.51,0,0,1,449.19,14a6,6,0,0,1-.47-2.51A6,6,0,0,1,449.19,9a3.49,3.49,0,0,1,3.31-2.16A3.64,3.64,0,0,1,454.49,7.4Zm-3.81,1.36a4.73,4.73,0,0,0-.65,2.77,4.53,4.53,0,0,0,.66,2.73,2.13,2.13,0,0,0,1.81.87c1.65,0,2.47-1.2,2.47-3.62s-.82-3.63-2.47-3.63A2.12,2.12,0,0,0,450.68,8.76Z" style="fill:#7a40c6"/><path d="M71.53,57.91l-.68-2.26h-3.4l-.67,2.26H65.53l2.87-9H70l2.87,9ZM70.22,46l.53,1-2.82,1-.31-.63Zm-2.47,8.61h2.8L69.16,50Z" style="fill:#7a40c6"/><path d="M77.76,51.06a3.25,3.25,0,0,1,1,.57l-.57.75a2.9,2.9,0,0,0-.71-.38,2.29,2.29,0,0,0-.76-.12,1.47,1.47,0,0,0-1.29.66,3.43,3.43,0,0,0-.47,2,3.19,3.19,0,0,0,.46,1.92,1.52,1.52,0,0,0,1.3.62,2,2,0,0,0,.74-.13,3.67,3.67,0,0,0,.76-.39l.54.78a3.25,3.25,0,0,1-2.09.75,2.73,2.73,0,0,1-2.19-.93,3.85,3.85,0,0,1-.8-2.6A4.72,4.72,0,0,1,74,52.62a3,3,0,0,1,1-1.28,2.81,2.81,0,0,1,1.6-.45A3.6,3.6,0,0,1,77.76,51.06Z" style="fill:#7a40c6"/><path d="M81.56,48a.82.82,0,0,1,.23.59.8.8,0,0,1-.23.58.86.86,0,0,1-.62.23.81.81,0,0,1-.59-.23.77.77,0,0,1-.24-.58.79.79,0,0,1,.24-.59.81.81,0,0,1,.59-.23A.86.86,0,0,1,81.56,48Zm0,3.06v6.87h-1.2V51Z" style="fill:#7a40c6"/><path d="M89.53,48.28v9.63h-1L88.36,57a2.53,2.53,0,0,1-.85.81,2.14,2.14,0,0,1-1.13.29,2.2,2.2,0,0,1-1.9-1,4.37,4.37,0,0,1-.69-2.59,5,5,0,0,1,.33-1.88,2.94,2.94,0,0,1,.93-1.28,2.32,2.32,0,0,1,1.44-.46,2.46,2.46,0,0,1,1.84.84V48.14Zm-2,8.58a2.85,2.85,0,0,0,.75-.76V52.74a2.37,2.37,0,0,0-.72-.67,1.56,1.56,0,0,0-.86-.23,1.39,1.39,0,0,0-1.23.66,3.65,3.65,0,0,0-.44,2,3.81,3.81,0,0,0,.4,2,1.28,1.28,0,0,0,1.16.65A1.67,1.67,0,0,0,87.58,56.86Z" style="fill:#7a40c6"/><path d="M96.72,51.85a4,4,0,0,1,.8,2.62,4.44,4.44,0,0,1-.37,1.88,2.79,2.79,0,0,1-1.05,1.26,2.94,2.94,0,0,1-1.64.45,2.78,2.78,0,0,1-2.25-1,4,4,0,0,1-.81-2.62,4.6,4.6,0,0,1,.37-1.88,2.84,2.84,0,0,1,1-1.26,3,3,0,0,1,1.65-.45A2.77,2.77,0,0,1,96.72,51.85Zm-4,2.63c0,1.75.59,2.62,1.77,2.62s1.77-.88,1.77-2.63-.59-2.62-1.76-2.62S92.69,52.73,92.69,54.48Z" style="fill:#7a40c6"/><path d="M106.05,51.08a3.9,3.9,0,0,1,1.07.59l-.51.75a4.31,4.31,0,0,0-.89-.44,2.91,2.91,0,0,0-.89-.14,1.55,1.55,0,0,0-.92.24.82.82,0,0,0,0,1.31,3.6,3.6,0,0,0,1.15.45,4.13,4.13,0,0,1,1.71.79,1.69,1.69,0,0,1,.56,1.35,1.76,1.76,0,0,1-.78,1.55,3.33,3.33,0,0,1-1.92.53,3.84,3.84,0,0,1-2.59-.89l.64-.73a3.1,3.1,0,0,0,1.92.66,1.84,1.84,0,0,0,1.08-.28.89.89,0,0,0,.39-.76,1,1,0,0,0-.14-.57,1.25,1.25,0,0,0-.49-.38,8.21,8.21,0,0,0-1-.34,3.47,3.47,0,0,1-1.58-.77,1.63,1.63,0,0,1-.49-1.22,1.55,1.55,0,0,1,.32-1,2,2,0,0,1,.88-.68,3.23,3.23,0,0,1,1.27-.24A3.79,3.79,0,0,1,106.05,51.08Z" style="fill:#7a40c6"/><path d="M113.81,57.91h-1l-.09-1.07a2.52,2.52,0,0,1-.9.93,2.4,2.4,0,0,1-1.24.29,1.82,1.82,0,0,1-1.4-.54,2.19,2.19,0,0,1-.51-1.55V51h1.2v4.8a1.56,1.56,0,0,0,.24,1,1,1,0,0,0,.81.3,2,2,0,0,0,1.72-1.19V51h1.2Z" style="fill:#7a40c6"/><path d="M116.49,57.67a1.58,1.58,0,0,1-.38-1.12V48.28l1.2-.14v8.39a.71.71,0,0,0,.09.41.39.39,0,0,0,.33.13,1.25,1.25,0,0,0,.45-.07l.31.83a1.91,1.91,0,0,1-.95.23A1.42,1.42,0,0,1,116.49,57.67Z" style="fill:#7a40c6"/><path d="M121.73,49.34a1,1,0,0,0-.24.75V51h1.67L123,52h-1.54v5.94H120.3V52h-1.23V51h1.23v-.93a1.91,1.91,0,0,1,.56-1.43,2.21,2.21,0,0,1,1.58-.54,4.13,4.13,0,0,1,.84.08,5,5,0,0,1,.8.27l-.37.87a3,3,0,0,0-1.2-.26A1,1,0,0,0,121.73,49.34Z" style="fill:#7a40c6"/><path d="M130,57.91h-1l-.09-1.07a2.52,2.52,0,0,1-.9.93,2.36,2.36,0,0,1-1.23.29,1.85,1.85,0,0,1-1.41-.54,2.19,2.19,0,0,1-.5-1.55V51h1.19v4.8a1.55,1.55,0,0,0,.25,1,1,1,0,0,0,.81.3,2,2,0,0,0,1.71-1.19V51H130Zm-1.55-10.44.54,1-2.76,1.12L125.9,49Z" style="fill:#7a40c6"/><path d="M136.06,51l-.22,1.17a2.53,2.53,0,0,0-.59-.08,1.28,1.28,0,0,0-1,.47,3.39,3.39,0,0,0-.61,1.46v3.92h-1.2V51h1l.11,1.4a2.65,2.65,0,0,1,.74-1.16,1.68,1.68,0,0,1,1.1-.39A2.37,2.37,0,0,1,136.06,51Z" style="fill:#7a40c6"/><path d="M138.63,48a.82.82,0,0,1,.23.59.8.8,0,0,1-.23.58.85.85,0,0,1-.61.23.81.81,0,0,1-.6-.23.77.77,0,0,1-.24-.58.79.79,0,0,1,.24-.59.81.81,0,0,1,.6-.23A.85.85,0,0,1,138.63,48Zm0,3.06v6.87h-1.2V51Z" style="fill:#7a40c6"/><path d="M144.91,51.06a3.29,3.29,0,0,1,1,.57l-.58.75a2.9,2.9,0,0,0-.71-.38,2.29,2.29,0,0,0-.76-.12,1.49,1.49,0,0,0-1.29.66,3.43,3.43,0,0,0-.46,2,3.27,3.27,0,0,0,.45,1.92,1.54,1.54,0,0,0,1.3.62,2,2,0,0,0,.74-.13,3.67,3.67,0,0,0,.76-.39l.55.78a3.3,3.3,0,0,1-2.1.75,2.73,2.73,0,0,1-2.19-.93,3.9,3.9,0,0,1-.8-2.6,4.72,4.72,0,0,1,.36-1.91,3,3,0,0,1,1-1.28,2.78,2.78,0,0,1,1.59-.45A3.6,3.6,0,0,1,144.91,51.06Z" style="fill:#7a40c6"/><path d="M152.33,51.85a3.94,3.94,0,0,1,.8,2.62,4.6,4.6,0,0,1-.36,1.88,2.8,2.8,0,0,1-1.06,1.26,2.91,2.91,0,0,1-1.63.45,2.79,2.79,0,0,1-2.26-1,4,4,0,0,1-.8-2.62,4.6,4.6,0,0,1,.36-1.88,2.82,2.82,0,0,1,2.71-1.71A2.75,2.75,0,0,1,152.33,51.85Zm-4,2.63c0,1.75.59,2.62,1.77,2.62s1.76-.88,1.76-2.63-.58-2.62-1.75-2.62S148.31,52.73,148.31,54.48Z" style="fill:#7a40c6"/><path d="M100.66,71.49a3.87,3.87,0,0,1,.72,2.48,7.17,7.17,0,0,1-.48,2.87,3.9,3.9,0,0,1-1.47,1.74,10.19,10.19,0,0,1-2.68,1.14l-.28-.9a6.65,6.65,0,0,0,2.68-1.34,3.11,3.11,0,0,0,1-2.26,2.24,2.24,0,0,1-.8.76,2.31,2.31,0,0,1-1.15.29A2.23,2.23,0,0,1,97,75.92a2.45,2.45,0,0,1-.87-1,3.26,3.26,0,0,1-.32-1.48,3,3,0,0,1,.38-1.53,2.55,2.55,0,0,1,1-1,2.87,2.87,0,0,1,1.4-.34A2.5,2.5,0,0,1,100.66,71.49Zm-.49,2.76a4,4,0,0,0-.36-2.08,1.32,1.32,0,0,0-1.22-.63,1.46,1.46,0,0,0-1.18.5A2.22,2.22,0,0,0,97,73.49a2.11,2.11,0,0,0,.39,1.37,1.32,1.32,0,0,0,1.06.47A2,2,0,0,0,100.17,74.25Z" style="fill:#7a40c6"/><path d="M107.39,71.65H104v2.57a3,3,0,0,1,1.4-.34,2.32,2.32,0,0,1,1.79.74,2.87,2.87,0,0,1,.68,2,3,3,0,0,1-.38,1.53,2.61,2.61,0,0,1-1.06,1,3.35,3.35,0,0,1-1.58.37,3.56,3.56,0,0,1-1.42-.28,4,4,0,0,1-1.16-.83l.71-.69a3,3,0,0,0,.85.62,2.49,2.49,0,0,0,1,.2,1.65,1.65,0,0,0,1.3-.52,2.1,2.1,0,0,0,.48-1.47,1.9,1.9,0,0,0-.43-1.38,1.55,1.55,0,0,0-1.16-.43,2.4,2.4,0,0,0-.62.07,2.89,2.89,0,0,0-.61.23h-.94V70.72h4.71Z" style="fill:#7a40c6"/><path d="M112.56,71.19a2.46,2.46,0,0,1,0,3.2,2.23,2.23,0,0,1-3,0,2.43,2.43,0,0,1,0-3.2,2.23,2.23,0,0,1,3,0Zm-2.34.59a1.91,1.91,0,0,0-.24,1,1.86,1.86,0,0,0,.24,1,.86.86,0,0,0,.81.4c.7,0,1.06-.46,1.06-1.39a1.92,1.92,0,0,0-.24-1,1,1,0,0,0-1.63,0Zm6.09-1.61.84.55-6,9.11-.83-.54Zm1.6,5.61a2.48,2.48,0,0,1,0,3.21,2,2,0,0,1-1.52.6,2.07,2.07,0,0,1-1.53-.6,2.48,2.48,0,0,1,0-3.21,2.07,2.07,0,0,1,1.53-.6A2,2,0,0,1,117.91,75.78Zm-2.33.61a2.18,2.18,0,0,0,0,2,.86.86,0,0,0,.81.4c.7,0,1.06-.47,1.06-1.39a1.86,1.86,0,0,0-.24-1,1,1,0,0,0-1.63,0Z" style="fill:#7a40c6"/><path d="M500,49.42l-.14,1h-3.48v2.93h3v1h-3v3.08h3.72v1h-4.95v-9Z" style="fill:#7a40c6"/><path d="M505.49,58.08a2.57,2.57,0,0,1-1.53.47,1.78,1.78,0,0,1-1.36-.5,2,2,0,0,1-.49-1.45V52.46h-1.2v-.93h1.2V50l1.2-.14v1.69h1.62l-.13.93h-1.49v4.09a1.3,1.3,0,0,0,.18.77.77.77,0,0,0,.64.24,2,2,0,0,0,.91-.27Z" style="fill:#7a40c6"/><path d="M511.58,57.41a.83.83,0,0,0,.43.31l-.27.83a1.72,1.72,0,0,1-.86-.3,1.31,1.31,0,0,1-.48-.73,2.31,2.31,0,0,1-2,1,2.21,2.21,0,0,1-1.6-.57,2,2,0,0,1-.58-1.5A2,2,0,0,1,507,54.8a3.71,3.71,0,0,1,2.24-.59h1.05v-.5a1.37,1.37,0,0,0-.35-1.05,1.66,1.66,0,0,0-1.08-.31,5.9,5.9,0,0,0-1.85.37l-.3-.88a6.94,6.94,0,0,1,2.37-.46,2.45,2.45,0,0,1,1.81.59,2.26,2.26,0,0,1,.6,1.68v3.14A1,1,0,0,0,511.58,57.41Zm-1.34-.82V55h-.9c-1.26,0-1.9.47-1.9,1.41a1.29,1.29,0,0,0,.3.92,1.18,1.18,0,0,0,.89.31A1.78,1.78,0,0,0,510.24,56.59Z" style="fill:#7a40c6"/><path d="M518.48,51.94a2.14,2.14,0,0,1,.53,1.53V58.4h-1.2V53.64a1.55,1.55,0,0,0-.27-1,1,1,0,0,0-.81-.3,1.56,1.56,0,0,0-1,.32,3,3,0,0,0-.78.89V58.4h-1.2V51.53h1l.1,1a2.76,2.76,0,0,1,.91-.86,2.3,2.3,0,0,1,1.19-.31A1.88,1.88,0,0,1,518.48,51.94Z" style="fill:#7a40c6"/><path d="M526.13,52.34a4,4,0,0,1,.8,2.62,4.6,4.6,0,0,1-.36,1.88,2.82,2.82,0,0,1-2.7,1.71,2.78,2.78,0,0,1-2.25-1,3.94,3.94,0,0,1-.8-2.62,4.6,4.6,0,0,1,.36-1.88,2.87,2.87,0,0,1,1.05-1.27,3,3,0,0,1,1.66-.44A2.75,2.75,0,0,1,526.13,52.34Zm-4,2.63c0,1.75.59,2.62,1.77,2.62s1.77-.88,1.77-2.63-.58-2.62-1.75-2.62S522.1,53.22,522.1,55Z" style="fill:#7a40c6"/><path d="M529.12,58.15a1.54,1.54,0,0,1-.38-1.11V48.77l1.2-.14V57a.71.71,0,0,0,.09.41.39.39,0,0,0,.33.13,1.06,1.06,0,0,0,.45-.08l.31.84a2,2,0,0,1-1,.23A1.39,1.39,0,0,1,529.12,58.15Z" style="fill:#7a40c6"/><path d="M582.39,49.25l-.15,1h-3.47v2.93h3v1h-3v3.07h3.72v1h-5v-9Zm-1.34-2.89.52,1-2.81,1-.31-.64Z" style="fill:#7a40c6"/><path d="M587.89,57.91a2.65,2.65,0,0,1-1.54.47,1.8,1.8,0,0,1-1.35-.5,2,2,0,0,1-.49-1.46V52.28h-1.2v-.92h1.2V49.81l1.19-.15v1.7h1.63l-.13.92h-1.5v4.09a1.31,1.31,0,0,0,.19.78.77.77,0,0,0,.63.24,1.86,1.86,0,0,0,.91-.28Z" style="fill:#7a40c6"/><path d="M594.37,55.2H590a2.69,2.69,0,0,0,.57,1.67,1.67,1.67,0,0,0,1.27.53,2.9,2.9,0,0,0,.91-.14,3.93,3.93,0,0,0,.88-.46l.52.72a3.82,3.82,0,0,1-2.4.86,2.77,2.77,0,0,1-2.23-.94,3.88,3.88,0,0,1-.8-2.58,4.86,4.86,0,0,1,.35-1.89,2.92,2.92,0,0,1,1-1.3,2.49,2.49,0,0,1,1.51-.47,2.56,2.56,0,0,1,2.1.9,3.88,3.88,0,0,1,.72,2.49C594.39,54.79,594.39,55,594.37,55.2Zm-1.16-1a2.5,2.5,0,0,0-.4-1.54,1.42,1.42,0,0,0-1.21-.54c-1,0-1.52.72-1.6,2.16h3.21Z" style="fill:#7a40c6"/><path d="M599.86,51.28l-.22,1.17a2.61,2.61,0,0,0-.6-.08,1.28,1.28,0,0,0-1,.47,3.51,3.51,0,0,0-.61,1.46v3.92h-1.2V51.36h1l.12,1.39a2.62,2.62,0,0,1,.74-1.16,1.66,1.66,0,0,1,1.09-.39A3,3,0,0,1,599.86,51.28Z" style="fill:#7a40c6"/></g></g></svg>