<svg xmlns="http://www.w3.org/2000/svg" viewBox="0 0 730 188.08"><title>fig-9-6</title><g id="fig-9-6"><g id="roxo"><path d="M39.46,151.54l-.86-2.87H34.26l-.86,2.87H31.81l3.67-11.44h2l3.65,11.44ZM37.8,136.41l.66,1.28L34.88,139l-.4-.81Zm-3.16,11h3.57l-1.77-6Z" style="fill:#7a40c6"/><path d="M47.41,142.81a4,4,0,0,1,1.25.72l-.73,1A3.54,3.54,0,0,0,47,144a2.7,2.7,0,0,0-1-.16,1.88,1.88,0,0,0-1.65.85,4.41,4.41,0,0,0-.59,2.51,4.1,4.1,0,0,0,.58,2.44,1.93,1.93,0,0,0,1.66.79,2.87,2.87,0,0,0,1-.15,5,5,0,0,0,1-.51l.7,1a4.17,4.17,0,0,1-2.67,1,3.48,3.48,0,0,1-2.8-1.2,4.92,4.92,0,0,1-1-3.3,5.94,5.94,0,0,1,.46-2.44A3.76,3.76,0,0,1,44,143.17a3.52,3.52,0,0,1,2-.58A4.27,4.27,0,0,1,47.41,142.81Z" style="fill:#7a40c6"/><path d="M52.26,138.88a1,1,0,0,1,.3.75,1,1,0,0,1-.3.74,1.09,1.09,0,0,1-.78.29,1.06,1.06,0,0,1-.76-.29,1,1,0,0,1-.3-.74,1,1,0,0,1,1.06-1A1.06,1.06,0,0,1,52.26,138.88Zm0,3.91v8.75H50.73v-8.75Z" style="fill:#7a40c6"/><path d="M62.44,139.26v12.28H61.1L61,150.33a3.25,3.25,0,0,1-1.08,1,2.85,2.85,0,0,1-1.45.37A2.81,2.81,0,0,1,56,150.51a5.61,5.61,0,0,1-.87-3.3,6.63,6.63,0,0,1,.41-2.4,3.74,3.74,0,0,1,1.2-1.63,2.91,2.91,0,0,1,1.83-.59,3.13,3.13,0,0,1,2.35,1.08v-4.59ZM60,150.2a3.68,3.68,0,0,0,1-1V145a3.08,3.08,0,0,0-.92-.86,2.12,2.12,0,0,0-1.1-.29,1.76,1.76,0,0,0-1.57.85,4.61,4.61,0,0,0-.56,2.52,4.85,4.85,0,0,0,.52,2.53,1.63,1.63,0,0,0,1.47.83A2.11,2.11,0,0,0,60,150.2Z" style="fill:#7a40c6"/><path d="M71.61,143.82a5,5,0,0,1,1,3.34,5.79,5.79,0,0,1-.47,2.39,3.71,3.71,0,0,1-1.34,1.62,3.79,3.79,0,0,1-2.1.57,3.54,3.54,0,0,1-2.87-1.23,5,5,0,0,1-1-3.34,5.81,5.81,0,0,1,.47-2.4,3.61,3.61,0,0,1,1.34-1.61,3.8,3.8,0,0,1,2.11-.57A3.51,3.51,0,0,1,71.61,143.82Zm-5.13,3.35c0,2.23.75,3.34,2.25,3.34S71,149.39,71,147.16s-.74-3.34-2.24-3.34S66.48,144.93,66.48,147.17Z" style="fill:#7a40c6"/><path d="M28.35,165.89a4.46,4.46,0,0,1,1.36.75l-.64,1a5.51,5.51,0,0,0-1.14-.57,3.58,3.58,0,0,0-1.14-.18,2,2,0,0,0-1.18.31,1,1,0,0,0-.43.84,1,1,0,0,0,.41.83,4.73,4.73,0,0,0,1.47.58,5.21,5.21,0,0,1,2.18,1,2.16,2.16,0,0,1,.72,1.72,2.23,2.23,0,0,1-1,2,4.3,4.3,0,0,1-2.45.68,4.84,4.84,0,0,1-3.31-1.15l.82-.93a3.93,3.93,0,0,0,2.46.85,2.42,2.42,0,0,0,1.37-.35,1.16,1.16,0,0,0,.5-1,1.28,1.28,0,0,0-.18-.72,1.49,1.49,0,0,0-.63-.48,8.17,8.17,0,0,0-1.31-.44,4.42,4.42,0,0,1-2-1,2.08,2.08,0,0,1-.62-1.56,2,2,0,0,1,.4-1.24,2.61,2.61,0,0,1,1.13-.86,4,4,0,0,1,1.62-.31A4.73,4.73,0,0,1,28.35,165.89Z" style="fill:#7a40c6"/><path d="M37.82,173.34a1.12,1.12,0,0,0,.54.39L38,174.79a2.28,2.28,0,0,1-1.1-.38,1.71,1.71,0,0,1-.61-.93,3,3,0,0,1-2.61,1.31,2.77,2.77,0,0,1-2-.73,2.55,2.55,0,0,1-.75-1.91,2.5,2.5,0,0,1,1-2.14,4.69,4.69,0,0,1,2.85-.75h1.35v-.65a1.71,1.71,0,0,0-.45-1.33,2.07,2.07,0,0,0-1.38-.4,7.76,7.76,0,0,0-2.36.47l-.38-1.11a8.79,8.79,0,0,1,3-.6,3.18,3.18,0,0,1,2.31.75,2.92,2.92,0,0,1,.76,2.16v4A1.32,1.32,0,0,0,37.82,173.34Zm-1.71-1.06v-2H35c-1.62,0-2.42.6-2.42,1.8a1.63,1.63,0,0,0,.38,1.18,1.5,1.5,0,0,0,1.13.39A2.28,2.28,0,0,0,36.11,172.28Z" style="fill:#7a40c6"/><path d="M41.05,174.28a1.93,1.93,0,0,1-.49-1.42V162.32l1.52-.19v10.7a.89.89,0,0,0,.13.53.49.49,0,0,0,.42.17,1.48,1.48,0,0,0,.57-.1l.4,1.06a2.51,2.51,0,0,1-1.22.3A1.75,1.75,0,0,1,41.05,174.28Z" style="fill:#7a40c6"/><path d="M47.28,161.93a1,1,0,0,1,.3.75,1,1,0,0,1-.3.74,1,1,0,0,1-.78.29,1,1,0,0,1-.76-.29,1,1,0,0,1-.3-.74,1,1,0,0,1,.3-.75,1.06,1.06,0,0,1,.76-.29A1.09,1.09,0,0,1,47.28,161.93Zm0,3.91v8.75H45.75v-8.75Z" style="fill:#7a40c6"/><path d="M55.3,165.86a3.93,3.93,0,0,1,1.25.73l-.73,1a3.71,3.71,0,0,0-.91-.49,2.74,2.74,0,0,0-1-.16,1.88,1.88,0,0,0-1.65.85,4.33,4.33,0,0,0-.59,2.51,4.16,4.16,0,0,0,.58,2.45,2,2,0,0,0,1.66.79,2.91,2.91,0,0,0,1-.16,5.36,5.36,0,0,0,1-.51l.7,1a4.18,4.18,0,0,1-2.68,1,3.47,3.47,0,0,1-2.79-1.2,4.9,4.9,0,0,1-1-3.3,6,6,0,0,1,.47-2.44,3.76,3.76,0,0,1,1.32-1.63,3.51,3.51,0,0,1,2-.58A4.33,4.33,0,0,1,55.3,165.86Z" style="fill:#7a40c6"/><path d="M60.7,161.29l.68,1.28L57.86,164l-.47-.81Zm-.55,4.55v8.75H58.62v-8.75Z" style="fill:#7a40c6"/><path d="M63.83,174.28a1.93,1.93,0,0,1-.49-1.42V162.32l1.53-.19v10.7a.9.9,0,0,0,.12.53.49.49,0,0,0,.42.17,1.48,1.48,0,0,0,.57-.1l.4,1.06a2.51,2.51,0,0,1-1.22.3A1.75,1.75,0,0,1,63.83,174.28Z" style="fill:#7a40c6"/><path d="M70.06,161.93a1,1,0,0,1,.3.75,1,1,0,0,1-.3.74,1,1,0,0,1-.78.29,1,1,0,0,1-.76-.29,1,1,0,0,1-.3-.74,1,1,0,0,1,.3-.75,1.06,1.06,0,0,1,.76-.29A1.09,1.09,0,0,1,70.06,161.93Zm0,3.91v8.75H68.54v-8.75Z" style="fill:#7a40c6"/><path d="M78.08,165.86a3.82,3.82,0,0,1,1.25.73l-.73,1a3.54,3.54,0,0,0-.91-.49,2.7,2.7,0,0,0-1-.16,1.88,1.88,0,0,0-1.65.85,4.41,4.41,0,0,0-.59,2.51,4.16,4.16,0,0,0,.58,2.45,2,2,0,0,0,1.66.79,2.91,2.91,0,0,0,1-.16,5,5,0,0,0,1-.51l.7,1a4.17,4.17,0,0,1-2.67,1,3.48,3.48,0,0,1-2.8-1.2,4.9,4.9,0,0,1-1-3.3,6,6,0,0,1,.46-2.44,3.76,3.76,0,0,1,1.32-1.63,3.52,3.52,0,0,1,2-.58A4.27,4.27,0,0,1,78.08,165.86Z" style="fill:#7a40c6"/><path d="M87.56,166.87a5.07,5.07,0,0,1,1,3.34,5.81,5.81,0,0,1-.47,2.4,3.68,3.68,0,0,1-1.34,1.61,3.78,3.78,0,0,1-2.09.57,3.56,3.56,0,0,1-2.88-1.23,5.07,5.07,0,0,1-1-3.34,5.87,5.87,0,0,1,.47-2.4,3.68,3.68,0,0,1,1.34-1.61,3.8,3.8,0,0,1,2.11-.57A3.53,3.53,0,0,1,87.56,166.87Zm-5.14,3.35c0,2.23.75,3.34,2.26,3.34s2.25-1.12,2.25-3.35-.74-3.34-2.24-3.34S82.42,168,82.42,170.22Z" style="fill:#7a40c6"/><path d="M344,36.08V30.71h-4.82v5.37h-1.58V24.63h1.58v4.79H344V24.63h1.58V36.08Z" style="fill:#7a40c6"/><path d="M351.32,34.21a1.91,1.91,0,0,1,.76.7,2,2,0,0,1,.26,1,2.86,2.86,0,0,1-.29,1.25,6.34,6.34,0,0,1-.9,1.29c-.41.47-1,1.11-1.85,1.94h3.21l-.11.82h-4.22v-.78c.95-1,1.63-1.72,2-2.17a5.78,5.78,0,0,0,.85-1.21,2.41,2.41,0,0,0,.26-1.1,1.09,1.09,0,0,0-1.18-1.18,1.53,1.53,0,0,0-.76.18,2.63,2.63,0,0,0-.71.6L348,35a2.86,2.86,0,0,1,1-.82,2.75,2.75,0,0,1,1.2-.26A2.37,2.37,0,0,1,351.32,34.21Z" style="fill:#7a40c6"/><path d="M360.13,24.76a5.23,5.23,0,0,1,1.58,1l-.86,1a4.79,4.79,0,0,0-1.27-.76,3.71,3.71,0,0,0-1.34-.24,2.47,2.47,0,0,0-1.48.42,1.4,1.4,0,0,0-.58,1.21,1.68,1.68,0,0,0,.2.84,1.83,1.83,0,0,0,.74.62,9.33,9.33,0,0,0,1.57.6,10.24,10.24,0,0,1,1.79.71,3.19,3.19,0,0,1,1.16,1.06,3.07,3.07,0,0,1,.44,1.7,3.26,3.26,0,0,1-.49,1.76,3.34,3.34,0,0,1-1.41,1.2,5.81,5.81,0,0,1-6.07-1.05l.86-1a5.69,5.69,0,0,0,1.41.85A4.11,4.11,0,0,0,358,35a2.87,2.87,0,0,0,1.76-.52,1.8,1.8,0,0,0,.69-1.52,1.9,1.9,0,0,0-.21-.94,2,2,0,0,0-.74-.67,7.71,7.71,0,0,0-1.52-.6,6.72,6.72,0,0,1-2.58-1.28,2.62,2.62,0,0,1-.81-2,2.66,2.66,0,0,1,.46-1.54,3,3,0,0,1,1.28-1.06,4.27,4.27,0,0,1,1.86-.38A5.19,5.19,0,0,1,360.13,24.76Z" style="fill:#7a40c6"/><path d="M371,25.12a4.58,4.58,0,0,1,1.69,2,7.66,7.66,0,0,1,.61,3.23,7.49,7.49,0,0,1-.61,3.18,4.41,4.41,0,0,1-4.22,2.73A4.73,4.73,0,0,1,366,35.6a4.55,4.55,0,0,1-1.69-2,7.79,7.79,0,0,1-.61-3.21,7.79,7.79,0,0,1,.61-3.19,4.62,4.62,0,0,1,1.7-2.05,4.56,4.56,0,0,1,2.53-.7A4.72,4.72,0,0,1,371,25.12Zm-4.86,1.74a6,6,0,0,0-.83,3.52,5.8,5.8,0,0,0,.84,3.49A2.74,2.74,0,0,0,368.49,35q3.15,0,3.15-4.61t-3.15-4.64A2.73,2.73,0,0,0,366.16,26.86Z" style="fill:#7a40c6"/><path d="M378.67,38.67v.78h-.92v1.76h-.95V39.45h-3.06v-.71L375.89,34l.82.34-1.93,4.37h2l.08-1.93h.86v1.93Z" style="fill:#7a40c6"/><path d="M316.3,56.32a22.5,22.5,0,0,0-1.37,2.29,10.17,10.17,0,0,0-.79,2.28,15.46,15.46,0,0,0,0,6,10.35,10.35,0,0,0,.79,2.3,19.65,19.65,0,0,0,1.37,2.29l-1,.66c-.73-1-1.29-1.89-1.69-2.56a10.79,10.79,0,0,1-1-2.41,13.09,13.09,0,0,1,0-6.5,10.79,10.79,0,0,1,1-2.41c.4-.67,1-1.52,1.69-2.56Z" style="fill:#7a40c6"/><path d="M323.16,61a3.93,3.93,0,0,1,1.25.73l-.73,1a4.08,4.08,0,0,0-.91-.49,3,3,0,0,0-1-.16,1.9,1.9,0,0,0-1.65.85,4.35,4.35,0,0,0-.59,2.51,4.14,4.14,0,0,0,.58,2.45,2,2,0,0,0,1.66.79,2.67,2.67,0,0,0,.95-.16,5.07,5.07,0,0,0,1-.51l.7,1a4.18,4.18,0,0,1-2.68,1,3.49,3.49,0,0,1-2.79-1.19,4.9,4.9,0,0,1-1-3.31,6,6,0,0,1,.47-2.44,3.76,3.76,0,0,1,1.32-1.63,3.51,3.51,0,0,1,2-.58A4.61,4.61,0,0,1,323.16,61Z" style="fill:#7a40c6"/><path d="M332.56,68.44a1.1,1.1,0,0,0,.55.39l-.35,1.06a2.28,2.28,0,0,1-1.1-.38,1.77,1.77,0,0,1-.61-.93,2.93,2.93,0,0,1-2.61,1.31,2.79,2.79,0,0,1-2-.73,2.55,2.55,0,0,1-.75-1.91,2.51,2.51,0,0,1,1-2.14,4.68,4.68,0,0,1,2.84-.75h1.35v-.65a1.71,1.71,0,0,0-.45-1.33A2.07,2.07,0,0,0,329,62a7.65,7.65,0,0,0-2.35.46l-.39-1.11a8.83,8.83,0,0,1,3-.6,3.14,3.14,0,0,1,2.31.76,2.88,2.88,0,0,1,.77,2.15v4A1.38,1.38,0,0,0,332.56,68.44Zm-1.71-1.06v-2H329.7c-1.61,0-2.42.59-2.42,1.79a1.67,1.67,0,0,0,.38,1.18,1.52,1.52,0,0,0,1.13.4A2.29,2.29,0,0,0,330.85,67.38Z" style="fill:#7a40c6"/><path d="M339.8,69.3a3.43,3.43,0,0,1-2,.59,2.32,2.32,0,0,1-1.74-.64,2.55,2.55,0,0,1-.62-1.85V62.12H334V60.94h1.53V59l1.53-.18v2.16h2.07l-.16,1.18H337v5.22a1.58,1.58,0,0,0,.24,1,1,1,0,0,0,.81.31,2.53,2.53,0,0,0,1.16-.35Z" style="fill:#7a40c6"/><path d="M347.57,68.44a1.1,1.1,0,0,0,.55.39l-.35,1.06a2.31,2.31,0,0,1-1.1-.38,1.77,1.77,0,0,1-.61-.93,2.93,2.93,0,0,1-2.61,1.31,2.79,2.79,0,0,1-2-.73,2.55,2.55,0,0,1-.75-1.91,2.51,2.51,0,0,1,1-2.14,4.68,4.68,0,0,1,2.84-.75h1.35v-.65a1.71,1.71,0,0,0-.45-1.33A2.07,2.07,0,0,0,344,62a7.76,7.76,0,0,0-2.36.46l-.38-1.11a8.84,8.84,0,0,1,3-.6,3.13,3.13,0,0,1,2.3.76,2.88,2.88,0,0,1,.77,2.15v4A1.38,1.38,0,0,0,347.57,68.44Zm-1.71-1.06v-2h-1.15c-1.61,0-2.42.59-2.42,1.79a1.67,1.67,0,0,0,.38,1.18,1.52,1.52,0,0,0,1.13.4A2.29,2.29,0,0,0,345.86,67.38Z" style="fill:#7a40c6"/><path d="M350.8,69.39a2,2,0,0,1-.49-1.42V57.42l1.53-.18V67.93a.9.9,0,0,0,.12.53.48.48,0,0,0,.43.17,1.43,1.43,0,0,0,.56-.1l.4,1.06a2.49,2.49,0,0,1-1.21.3A1.8,1.8,0,0,1,350.8,69.39Z" style="fill:#7a40c6"/><path d="M357,57a1,1,0,0,1,.29.74,1,1,0,0,1-.29.74,1.06,1.06,0,0,1-.79.29,1,1,0,0,1-.76-.29,1,1,0,0,1-.3-.74,1,1,0,0,1,.3-.74,1,1,0,0,1,.76-.3A1.06,1.06,0,0,1,357,57Zm0,3.9v8.75h-1.53V60.94Z" style="fill:#7a40c6"/><path d="M364.42,61a4.86,4.86,0,0,1,1.37.75l-.65,1a5.43,5.43,0,0,0-1.14-.56,3.33,3.33,0,0,0-1.14-.19,2.06,2.06,0,0,0-1.18.31,1,1,0,0,0-.43.84,1,1,0,0,0,.41.83,4.73,4.73,0,0,0,1.47.58,5.34,5.34,0,0,1,2.18,1,2.17,2.17,0,0,1,.72,1.73,2.22,2.22,0,0,1-1,2,4.23,4.23,0,0,1-2.45.68,4.83,4.83,0,0,1-3.3-1.14l.81-.93a4,4,0,0,0,2.46.84,2.34,2.34,0,0,0,1.37-.35,1.15,1.15,0,0,0,.5-1,1.34,1.34,0,0,0-.18-.73,1.49,1.49,0,0,0-.63-.48,9.32,9.32,0,0,0-1.31-.44,4.47,4.47,0,0,1-2-1,2.12,2.12,0,0,1-.62-1.56,2,2,0,0,1,.41-1.24,2.58,2.58,0,0,1,1.12-.86,4.07,4.07,0,0,1,1.62-.31A4.73,4.73,0,0,1,364.42,61Z" style="fill:#7a40c6"/><path d="M373.89,68.44a1.1,1.1,0,0,0,.55.39l-.35,1.06a2.28,2.28,0,0,1-1.1-.38,1.71,1.71,0,0,1-.61-.93,2.93,2.93,0,0,1-2.61,1.31,2.79,2.79,0,0,1-2-.73,2.55,2.55,0,0,1-.75-1.91,2.51,2.51,0,0,1,1-2.14,4.66,4.66,0,0,1,2.84-.75h1.35v-.65a1.71,1.71,0,0,0-.45-1.33,2.07,2.07,0,0,0-1.38-.39,7.7,7.7,0,0,0-2.36.46l-.38-1.11a8.79,8.79,0,0,1,3-.6,3.14,3.14,0,0,1,2.31.76,2.88,2.88,0,0,1,.77,2.15v4A1.38,1.38,0,0,0,373.89,68.44Zm-1.71-1.06v-2H371c-1.61,0-2.42.59-2.42,1.79a1.67,1.67,0,0,0,.38,1.18,1.51,1.51,0,0,0,1.13.4A2.29,2.29,0,0,0,372.18,67.38Z" style="fill:#7a40c6"/><path d="M383.49,57.42V69.69h-1.35L382,68.48a3.25,3.25,0,0,1-1.08,1,3,3,0,0,1-3.87-.86,5.54,5.54,0,0,1-.88-3.3,6.33,6.33,0,0,1,.42-2.39,3.7,3.7,0,0,1,1.19-1.64,3,3,0,0,1,1.83-.59A3.15,3.15,0,0,1,382,61.82V57.24ZM381,68.36a3.74,3.74,0,0,0,1-1V63.1a3.49,3.49,0,0,0-.92-.86,2.19,2.19,0,0,0-1.11-.29,1.79,1.79,0,0,0-1.57.85,4.68,4.68,0,0,0-.55,2.53,4.92,4.92,0,0,0,.51,2.52,1.66,1.66,0,0,0,1.48.83A2.24,2.24,0,0,0,381,68.36Z" style="fill:#7a40c6"/><path d="M392.66,62a5.07,5.07,0,0,1,1,3.34,5.81,5.81,0,0,1-.46,2.4,3.63,3.63,0,0,1-1.35,1.61,3.76,3.76,0,0,1-2.09.57,3.53,3.53,0,0,1-2.87-1.23,5,5,0,0,1-1-3.33,5.89,5.89,0,0,1,.46-2.41,3.69,3.69,0,0,1,1.35-1.61,3.78,3.78,0,0,1,2.11-.57A3.52,3.52,0,0,1,392.66,62Zm-5.14,3.36c0,2.22.75,3.33,2.26,3.33S392,67.55,392,65.31,391.29,62,389.8,62,387.52,63.09,387.52,65.33Z" style="fill:#7a40c6"/><path d="M400.74,60.84l-.28,1.5a3,3,0,0,0-.77-.1,1.61,1.61,0,0,0-1.31.59,4.51,4.51,0,0,0-.78,1.86v5h-1.53V60.94h1.31l.15,1.78a3.33,3.33,0,0,1,1-1.48,2.13,2.13,0,0,1,1.4-.5A3.44,3.44,0,0,1,400.74,60.84Z" style="fill:#7a40c6"/><path d="M404.22,58.22a10.79,10.79,0,0,1,1,2.41,13.09,13.09,0,0,1,0,6.5,10.79,10.79,0,0,1-1,2.41c-.4.67-1,1.52-1.69,2.56l-1-.66a19.65,19.65,0,0,0,1.37-2.29,10.35,10.35,0,0,0,.8-2.3,15.46,15.46,0,0,0,0-6,10.17,10.17,0,0,0-.8-2.28,22.5,22.5,0,0,0-1.37-2.29l1-.66C403.26,56.7,403.82,57.55,404.22,58.22Z" style="fill:#7a40c6"/><path d="M226.11,87.14l-.86-2.87h-4.34l-.86,2.87h-1.6l3.67-11.44h2l3.65,11.44ZM221.29,83h3.57l-1.77-6Z" style="fill:#7a40c6"/><path d="M235.43,78.9a2.75,2.75,0,0,1,.68,2v6.28h-1.53V81.08a1.94,1.94,0,0,0-.35-1.31,1.31,1.31,0,0,0-1-.39,2,2,0,0,0-1.23.4,4.29,4.29,0,0,0-1,1.15v6.21h-1.52V78.39h1.31l.13,1.29a3.45,3.45,0,0,1,1.16-1.09,2.89,2.89,0,0,1,1.51-.4A2.46,2.46,0,0,1,235.43,78.9Z" style="fill:#7a40c6"/><path d="M240.57,74.48a1,1,0,0,1,.3.75,1,1,0,0,1-.3.74,1,1,0,0,1-.78.29A1,1,0,0,1,239,76a1,1,0,0,1-.3-.74,1,1,0,0,1,.3-.75,1.06,1.06,0,0,1,.76-.29A1.09,1.09,0,0,1,240.57,74.48Zm0,3.91v8.75H239V78.39Z" style="fill:#7a40c6"/><path d="M250.75,74.87V87.14h-1.34l-.15-1.21a3.25,3.25,0,0,1-1.08,1,2.85,2.85,0,0,1-1.45.37,2.81,2.81,0,0,1-2.43-1.23,5.61,5.61,0,0,1-.87-3.3,6.63,6.63,0,0,1,.41-2.4,3.74,3.74,0,0,1,1.2-1.63,3,3,0,0,1,1.83-.59,3.13,3.13,0,0,1,2.35,1.08V74.68ZM248.26,85.8a3.68,3.68,0,0,0,1-1V80.55a3.21,3.21,0,0,0-.92-.86,2.15,2.15,0,0,0-1.1-.29,1.76,1.76,0,0,0-1.57.85,4.61,4.61,0,0,0-.56,2.52,4.85,4.85,0,0,0,.52,2.53,1.63,1.63,0,0,0,1.47.83A2.11,2.11,0,0,0,248.26,85.8Z" style="fill:#7a40c6"/><path d="M258.44,78.29l-.28,1.49a3.54,3.54,0,0,0-.77-.1,1.62,1.62,0,0,0-1.31.6,4.51,4.51,0,0,0-.78,1.86v5h-1.53V78.39h1.31l.15,1.78a3.33,3.33,0,0,1,1-1.48,2.07,2.07,0,0,1,1.4-.5A3.38,3.38,0,0,1,258.44,78.29Z" style="fill:#7a40c6"/><path d="M261.71,74.48a1,1,0,0,1,.3.75,1,1,0,0,1-.3.74,1,1,0,0,1-.78.29,1,1,0,0,1-.76-.29,1,1,0,0,1-.3-.74,1,1,0,0,1,.3-.75,1,1,0,0,1,.76-.29A1.09,1.09,0,0,1,261.71,74.48Zm0,3.91v8.75h-1.53V78.39Z" style="fill:#7a40c6"/><path d="M271.89,74.87V87.14h-1.35l-.15-1.21a3.07,3.07,0,0,1-1.08,1,3,3,0,0,1-3.87-.86,5.61,5.61,0,0,1-.87-3.3,6.43,6.43,0,0,1,.41-2.4,3.74,3.74,0,0,1,1.2-1.63,3,3,0,0,1,1.82-.59,3.13,3.13,0,0,1,2.36,1.08V74.68ZM269.4,85.8a3.68,3.68,0,0,0,1-1V80.55a3.35,3.35,0,0,0-.92-.86,2.19,2.19,0,0,0-1.11-.29,1.75,1.75,0,0,0-1.56.85,4.52,4.52,0,0,0-.56,2.52,5,5,0,0,0,.51,2.53,1.66,1.66,0,0,0,1.48.83A2.11,2.11,0,0,0,269.4,85.8Z" style="fill:#7a40c6"/><path d="M281.06,79.42a5.07,5.07,0,0,1,1,3.34,5.84,5.84,0,0,1-.46,2.4,3.63,3.63,0,0,1-1.35,1.61,3.74,3.74,0,0,1-2.09.57,3.54,3.54,0,0,1-2.87-1.23,5,5,0,0,1-1-3.34,5.87,5.87,0,0,1,.46-2.4,3.63,3.63,0,0,1,1.35-1.61,3.8,3.8,0,0,1,2.11-.57A3.51,3.51,0,0,1,281.06,79.42Zm-5.14,3.35c0,2.23.76,3.34,2.26,3.34s2.26-1.12,2.26-3.35-.75-3.34-2.24-3.34S275.92,80.54,275.92,82.77Z" style="fill:#7a40c6"/><path d="M230.76,110.46a1.2,1.2,0,0,0,.55.39l-.35,1.06a2.34,2.34,0,0,1-1.09-.38,1.78,1.78,0,0,1-.62-.93,2.93,2.93,0,0,1-2.6,1.31,2.79,2.79,0,0,1-2.05-.73,2.59,2.59,0,0,1-.74-1.91,2.52,2.52,0,0,1,1-2.15,4.76,4.76,0,0,1,2.85-.74h1.34v-.65a1.74,1.74,0,0,0-.44-1.33,2,2,0,0,0-1.38-.4,7.76,7.76,0,0,0-2.36.47l-.38-1.12a9,9,0,0,1,3-.59,3.18,3.18,0,0,1,2.31.75,2.89,2.89,0,0,1,.76,2.15v4A1.42,1.42,0,0,0,230.76,110.46Zm-1.71-1.06v-2h-1.14c-1.62,0-2.43.6-2.43,1.79a1.6,1.6,0,0,0,.39,1.18,1.47,1.47,0,0,0,1.13.4A2.26,2.26,0,0,0,229.05,109.4Z" style="fill:#7a40c6"/><path d="M238.2,103a4,4,0,0,1,1.25.72l-.73,1a3.26,3.26,0,0,0-.91-.49,2.7,2.7,0,0,0-1-.16,1.88,1.88,0,0,0-1.65.85,4.39,4.39,0,0,0-.59,2.5,4.11,4.11,0,0,0,.58,2.45,1.93,1.93,0,0,0,1.66.79,2.91,2.91,0,0,0,.95-.15,5,5,0,0,0,1-.51l.7,1a4.17,4.17,0,0,1-2.67,1,3.48,3.48,0,0,1-2.8-1.2,4.92,4.92,0,0,1-1-3.3,6,6,0,0,1,.46-2.45,3.73,3.73,0,0,1,1.32-1.62,3.52,3.52,0,0,1,2-.58A4.27,4.27,0,0,1,238.2,103Z" style="fill:#7a40c6"/><path d="M248.1,107.86h-5.58a3.42,3.42,0,0,0,.73,2.12,2.09,2.09,0,0,0,1.63.68,3.57,3.57,0,0,0,1.16-.18,4.56,4.56,0,0,0,1.11-.58l.67.91a4.85,4.85,0,0,1-3.06,1.1,3.55,3.55,0,0,1-2.85-1.2,4.89,4.89,0,0,1-1-3.29,6.28,6.28,0,0,1,.44-2.41,3.83,3.83,0,0,1,1.27-1.66,3.59,3.59,0,0,1,4.6.55,4.91,4.91,0,0,1,.93,3.17C248.13,107.33,248.12,107.59,248.1,107.86Zm-1.48-1.23a3.25,3.25,0,0,0-.51-2,1.84,1.84,0,0,0-1.55-.68q-1.87,0-2,2.76h4.1Zm-.73-8.23.68,1.28-3.52,1.43-.46-.81Z" style="fill:#7a40c6"/><path d="M254.86,111.31a3.36,3.36,0,0,1-2,.6,2.32,2.32,0,0,1-1.74-.64,2.57,2.57,0,0,1-.62-1.85v-5.29H249V103h1.53v-2l1.53-.18V103h2.07l-.16,1.17h-1.91v5.22a1.64,1.64,0,0,0,.24,1,1,1,0,0,0,.8.31,2.54,2.54,0,0,0,1.17-.35Z" style="fill:#7a40c6"/><path d="M258.08,99.05a1,1,0,0,1,.3.75,1,1,0,0,1-.3.74,1.09,1.09,0,0,1-.78.29,1,1,0,0,1-.76-.29,1,1,0,0,1-.3-.74,1,1,0,0,1,1.06-1A1.06,1.06,0,0,1,258.08,99.05Zm0,3.91v8.75h-1.53V103Z" style="fill:#7a40c6"/><path d="M266.1,103a3.93,3.93,0,0,1,1.24.72l-.73,1a3.35,3.35,0,0,0-.9-.49,2.74,2.74,0,0,0-1-.16,1.88,1.88,0,0,0-1.65.85,4.32,4.32,0,0,0-.59,2.5,4.11,4.11,0,0,0,.58,2.45,1.92,1.92,0,0,0,1.66.79,2.81,2.81,0,0,0,.94-.15,5.42,5.42,0,0,0,1-.51l.69,1a4.13,4.13,0,0,1-2.67,1,3.49,3.49,0,0,1-2.8-1.2,4.92,4.92,0,0,1-1-3.3,6,6,0,0,1,.47-2.45,3.73,3.73,0,0,1,1.32-1.62,3.51,3.51,0,0,1,2-.58A4.33,4.33,0,0,1,266.1,103Z" style="fill:#7a40c6"/><path d="M275.57,104a5,5,0,0,1,1,3.33,5.81,5.81,0,0,1-.46,2.4,3.66,3.66,0,0,1-1.35,1.62,3.74,3.74,0,0,1-2.09.57,3.53,3.53,0,0,1-2.87-1.23,5,5,0,0,1-1-3.34,5.81,5.81,0,0,1,.46-2.4,3.63,3.63,0,0,1,1.35-1.61,3.8,3.8,0,0,1,2.11-.57A3.51,3.51,0,0,1,275.57,104Zm-5.14,3.35c0,2.23.76,3.34,2.26,3.34s2.26-1.12,2.26-3.36-.75-3.33-2.24-3.33S270.43,105.1,270.43,107.34Z" style="fill:#7a40c6"/><path d="M495.26,150.75l-.86-2.87h-4.34l-.86,2.87h-1.6l3.67-11.44h2l3.65,11.44Zm-1.66-15.13.66,1.28-3.58,1.31-.4-.81Zm-3.16,11H494l-1.77-6Z" style="fill:#7a40c6"/><path d="M503.21,142a4.09,4.09,0,0,1,1.25.72l-.73,1a3.54,3.54,0,0,0-.91-.49,2.7,2.7,0,0,0-1-.16,1.88,1.88,0,0,0-1.65.85,4.41,4.41,0,0,0-.59,2.51,4.1,4.1,0,0,0,.58,2.44,1.93,1.93,0,0,0,1.66.79,2.91,2.91,0,0,0,.95-.15,5,5,0,0,0,1-.51l.7,1a4.17,4.17,0,0,1-2.67,1,3.48,3.48,0,0,1-2.8-1.2,4.92,4.92,0,0,1-1-3.3,5.94,5.94,0,0,1,.46-2.44,3.76,3.76,0,0,1,1.32-1.63,3.52,3.52,0,0,1,2-.58A4.27,4.27,0,0,1,503.21,142Z" style="fill:#7a40c6"/><path d="M508.06,138.09a1,1,0,0,1,.3.75,1,1,0,0,1-.3.74,1.09,1.09,0,0,1-.78.29,1.06,1.06,0,0,1-.76-.29,1,1,0,0,1-.3-.74,1,1,0,0,1,1.06-1.05A1.06,1.06,0,0,1,508.06,138.09Zm0,3.91v8.75h-1.53V142Z" style="fill:#7a40c6"/><path d="M518.24,138.47v12.28h-1.35l-.14-1.21a3.25,3.25,0,0,1-1.08,1,2.87,2.87,0,0,1-1.45.37,2.81,2.81,0,0,1-2.43-1.23,5.61,5.61,0,0,1-.87-3.3,6.63,6.63,0,0,1,.41-2.4,3.74,3.74,0,0,1,1.2-1.63,2.9,2.9,0,0,1,1.82-.59,3.13,3.13,0,0,1,2.36,1.08v-4.59Zm-2.49,10.94a3.68,3.68,0,0,0,1-1v-4.28a3.2,3.2,0,0,0-.92-.86,2.15,2.15,0,0,0-1.1-.29,1.76,1.76,0,0,0-1.57.85,4.61,4.61,0,0,0-.56,2.52,4.85,4.85,0,0,0,.52,2.53,1.63,1.63,0,0,0,1.47.83A2.11,2.11,0,0,0,515.75,149.41Z" style="fill:#7a40c6"/><path d="M527.41,143a5.07,5.07,0,0,1,1,3.34,5.79,5.79,0,0,1-.47,2.39,3.71,3.71,0,0,1-1.34,1.62,3.79,3.79,0,0,1-2.1.57,3.54,3.54,0,0,1-2.87-1.23,5,5,0,0,1-1-3.34,5.81,5.81,0,0,1,.47-2.4,3.61,3.61,0,0,1,1.34-1.61,3.8,3.8,0,0,1,2.11-.57A3.51,3.51,0,0,1,527.41,143Zm-5.13,3.35c0,2.23.75,3.34,2.25,3.34s2.26-1.12,2.26-3.35S526,143,524.55,143,522.28,144.14,522.28,146.38Z" style="fill:#7a40c6"/><path d="M466.71,175.14a1.12,1.12,0,0,0,.54.39l-.35,1.06a2.34,2.34,0,0,1-1.09-.38,1.78,1.78,0,0,1-.62-.93,2.93,2.93,0,0,1-2.6,1.31,2.79,2.79,0,0,1-2-.73,2.58,2.58,0,0,1-.74-1.91,2.49,2.49,0,0,1,1-2.14,4.69,4.69,0,0,1,2.85-.75H465v-.65a1.74,1.74,0,0,0-.44-1.33,2.07,2.07,0,0,0-1.38-.4,7.76,7.76,0,0,0-2.36.47l-.38-1.11a8.75,8.75,0,0,1,3-.6,3.18,3.18,0,0,1,2.31.75,2.89,2.89,0,0,1,.76,2.15v4A1.34,1.34,0,0,0,466.71,175.14ZM465,174.08v-2h-1.14q-2.43,0-2.43,1.8a1.63,1.63,0,0,0,.39,1.18,1.5,1.5,0,0,0,1.13.39A2.26,2.26,0,0,0,465,174.08Z" style="fill:#7a40c6"/><path d="M474.14,167.66a4,4,0,0,1,1.25.72l-.73,1a3.54,3.54,0,0,0-.91-.49,2.7,2.7,0,0,0-1-.16,1.88,1.88,0,0,0-1.65.85,4.41,4.41,0,0,0-.59,2.51,4.16,4.16,0,0,0,.58,2.45,2,2,0,0,0,1.66.78,2.87,2.87,0,0,0,1-.15,5,5,0,0,0,1-.51l.7,1a4.17,4.17,0,0,1-2.67,1,3.48,3.48,0,0,1-2.8-1.2,4.9,4.9,0,0,1-1-3.3,5.94,5.94,0,0,1,.46-2.44,3.76,3.76,0,0,1,1.32-1.63,3.52,3.52,0,0,1,2-.58A4.27,4.27,0,0,1,474.14,167.66Z" style="fill:#7a40c6"/><path d="M484,172.54h-5.58a3.42,3.42,0,0,0,.73,2.12,2.09,2.09,0,0,0,1.63.68,3.57,3.57,0,0,0,1.16-.18,4.4,4.4,0,0,0,1.11-.58l.67.91a4.85,4.85,0,0,1-3.06,1.1,3.55,3.55,0,0,1-2.85-1.2,4.88,4.88,0,0,1-1-3.28,6.29,6.29,0,0,1,.44-2.42,3.8,3.8,0,0,1,1.27-1.65,3.17,3.17,0,0,1,1.93-.6,3.25,3.25,0,0,1,2.67,1.14,4.94,4.94,0,0,1,.93,3.18Q484.07,172.14,484,172.54Zm-1.48-1.23a3.27,3.27,0,0,0-.51-2,1.84,1.84,0,0,0-1.55-.68q-1.87,0-2,2.76h4.1Z" style="fill:#7a40c6"/><path d="M490.8,176a3.36,3.36,0,0,1-2,.6,2.32,2.32,0,0,1-1.74-.64,2.57,2.57,0,0,1-.62-1.85v-5.28H485v-1.18h1.53v-2l1.53-.18v2.16h2.07l-.16,1.18H488V174a1.6,1.6,0,0,0,.24,1,1,1,0,0,0,.8.31,2.54,2.54,0,0,0,1.17-.35Z" style="fill:#7a40c6"/><path d="M494,163.73a1,1,0,0,1,.3.75,1,1,0,0,1-.3.74,1.18,1.18,0,0,1-1.55,0,1,1,0,0,1-.29-.74,1.09,1.09,0,0,1,1.84-.75Zm0,3.91v8.75h-1.53v-8.75Z" style="fill:#7a40c6"/><path d="M497.83,176.08a1.93,1.93,0,0,1-.49-1.42V164.12l1.53-.19v10.7a.92.92,0,0,0,.12.53.52.52,0,0,0,.43.17,1.64,1.64,0,0,0,.56-.1l.4,1.06a2.49,2.49,0,0,1-1.21.3A1.77,1.77,0,0,1,497.83,176.08Z" style="fill:#7a40c6"/><path d="M506.52,167.69a4.64,4.64,0,0,1,1.36.74l-.64,1a5.51,5.51,0,0,0-1.14-.57,3.58,3.58,0,0,0-1.14-.18,2,2,0,0,0-1.18.31,1,1,0,0,0,0,1.67,4.73,4.73,0,0,0,1.47.58,5.09,5.09,0,0,1,2.18,1,2.16,2.16,0,0,1,.72,1.72,2.23,2.23,0,0,1-1,2,4.3,4.3,0,0,1-2.45.68,4.79,4.79,0,0,1-3.3-1.15l.81-.93a3.93,3.93,0,0,0,2.46.85A2.34,2.34,0,0,0,506,175a1.13,1.13,0,0,0,.5-1,1.28,1.28,0,0,0-.18-.72,1.49,1.49,0,0,0-.63-.48,8.17,8.17,0,0,0-1.31-.44,4.52,4.52,0,0,1-2-1,2.08,2.08,0,0,1-.62-1.56,2,2,0,0,1,.4-1.24,2.61,2.61,0,0,1,1.13-.86,4,4,0,0,1,1.62-.31A4.73,4.73,0,0,1,506.52,167.69Z" style="fill:#7a40c6"/><path d="M516,175.14a1.1,1.1,0,0,0,.55.39l-.35,1.06a2.38,2.38,0,0,1-1.1-.38,1.71,1.71,0,0,1-.61-.93,3,3,0,0,1-2.61,1.31,2.77,2.77,0,0,1-2-.73,2.55,2.55,0,0,1-.75-1.91,2.49,2.49,0,0,1,1-2.14,4.69,4.69,0,0,1,2.85-.75h1.35v-.65a1.71,1.71,0,0,0-.45-1.33,2.07,2.07,0,0,0-1.38-.4,7.76,7.76,0,0,0-2.36.47l-.38-1.11a8.75,8.75,0,0,1,3-.6,3.18,3.18,0,0,1,2.31.75,2.89,2.89,0,0,1,.76,2.15v4A1.41,1.41,0,0,0,516,175.14Zm-1.71-1.06v-2h-1.15c-1.62,0-2.42.6-2.42,1.8a1.63,1.63,0,0,0,.38,1.18,1.5,1.5,0,0,0,1.13.39A2.28,2.28,0,0,0,514.28,174.08Z" style="fill:#7a40c6"/><path d="M519.22,176.08a1.93,1.93,0,0,1-.49-1.42V164.12l1.52-.19v10.7a.91.91,0,0,0,.13.53.49.49,0,0,0,.42.17,1.7,1.7,0,0,0,.57-.1l.4,1.06a2.51,2.51,0,0,1-1.22.3A1.75,1.75,0,0,1,519.22,176.08Z" style="fill:#7a40c6"/><path d="M525.45,163.73a1,1,0,0,1,.3.75,1,1,0,0,1-.3.74,1.09,1.09,0,0,1-.78.29,1.06,1.06,0,0,1-.76-.29,1,1,0,0,1-.3-.74,1,1,0,0,1,1.06-1A1.06,1.06,0,0,1,525.45,163.73Zm0,3.91v8.75h-1.53v-8.75Z" style="fill:#7a40c6"/><path d="M533.47,167.66a4.09,4.09,0,0,1,1.25.72l-.73,1a3.54,3.54,0,0,0-.91-.49,2.74,2.74,0,0,0-1-.16,1.88,1.88,0,0,0-1.65.85,4.41,4.41,0,0,0-.59,2.51,4.16,4.16,0,0,0,.58,2.45,2,2,0,0,0,1.66.78,2.91,2.91,0,0,0,.95-.15,5.36,5.36,0,0,0,1-.51l.7,1a4.18,4.18,0,0,1-2.68,1,3.47,3.47,0,0,1-2.79-1.2,4.9,4.9,0,0,1-1-3.3,5.93,5.93,0,0,1,.47-2.44A3.76,3.76,0,0,1,530,168a3.51,3.51,0,0,1,2-.58A4.33,4.33,0,0,1,533.47,167.66Z" style="fill:#7a40c6"/><path d="M538.87,163.09l.68,1.27L536,165.79l-.47-.81Zm-.55,4.55v8.75h-1.53v-8.75Z" style="fill:#7a40c6"/><path d="M542,176.08a1.93,1.93,0,0,1-.49-1.42V164.12l1.53-.19v10.7a.92.92,0,0,0,.12.53.49.49,0,0,0,.42.17,1.7,1.7,0,0,0,.57-.1l.4,1.06a2.51,2.51,0,0,1-1.22.3A1.75,1.75,0,0,1,542,176.08Z" style="fill:#7a40c6"/><path d="M548.23,163.73a1,1,0,0,1,.3.75,1,1,0,0,1-.3.74,1.09,1.09,0,0,1-.78.29,1.06,1.06,0,0,1-.76-.29,1,1,0,0,1-.3-.74,1,1,0,0,1,1.06-1A1.06,1.06,0,0,1,548.23,163.73Zm0,3.91v8.75h-1.52v-8.75Z" style="fill:#7a40c6"/><path d="M556.25,167.66a4.09,4.09,0,0,1,1.25.72l-.73,1a3.54,3.54,0,0,0-.91-.49,2.7,2.7,0,0,0-1-.16,1.88,1.88,0,0,0-1.65.85,4.41,4.41,0,0,0-.59,2.51,4.16,4.16,0,0,0,.58,2.45,2,2,0,0,0,1.66.78,2.91,2.91,0,0,0,1-.15,5,5,0,0,0,1-.51l.7,1a4.17,4.17,0,0,1-2.67,1,3.48,3.48,0,0,1-2.8-1.2,4.9,4.9,0,0,1-1-3.3,5.94,5.94,0,0,1,.46-2.44,3.76,3.76,0,0,1,1.32-1.63,3.52,3.52,0,0,1,2-.58A4.27,4.27,0,0,1,556.25,167.66Z" style="fill:#7a40c6"/><path d="M565.73,168.67a5.07,5.07,0,0,1,1,3.34,5.87,5.87,0,0,1-.47,2.4,3.73,3.73,0,0,1-1.34,1.61,3.78,3.78,0,0,1-2.09.57,3.56,3.56,0,0,1-2.88-1.23,5.07,5.07,0,0,1-1-3.34,5.81,5.81,0,0,1,.47-2.4,3.68,3.68,0,0,1,1.34-1.61,3.8,3.8,0,0,1,2.11-.57A3.53,3.53,0,0,1,565.73,168.67ZM560.59,172c0,2.23.75,3.34,2.26,3.34s2.25-1.12,2.25-3.35-.74-3.34-2.24-3.34S560.59,169.79,560.59,172Z" style="fill:#7a40c6"/><path d="M675.17,87.54l-.87-2.88H670l-.87,2.88h-1.59l3.67-11.45h2l3.66,11.45ZM673.5,72.4l.67,1.28L670.58,75l-.4-.82Zm-3.15,11h3.57l-1.78-6Z" style="fill:#7a40c6"/><path d="M683.12,78.81a3.93,3.93,0,0,1,1.24.72l-.73,1a4,4,0,0,0-.9-.49,3,3,0,0,0-1-.15,1.89,1.89,0,0,0-1.65.84,4.35,4.35,0,0,0-.59,2.51,4.11,4.11,0,0,0,.58,2.45,1.92,1.92,0,0,0,1.66.79,2.58,2.58,0,0,0,.94-.16,4.74,4.74,0,0,0,1-.5l.69,1a4.14,4.14,0,0,1-2.67,1,3.49,3.49,0,0,1-2.8-1.2,5,5,0,0,1-1-3.31,6,6,0,0,1,.47-2.44,3.76,3.76,0,0,1,1.32-1.63,3.59,3.59,0,0,1,2-.58A4.33,4.33,0,0,1,683.12,78.81Z" style="fill:#7a40c6"/><path d="M688,74.88a1,1,0,0,1,.3.75,1,1,0,0,1-.3.74,1.18,1.18,0,0,1-1.55,0,1,1,0,0,1-.3-.74,1,1,0,0,1,.3-.75,1.15,1.15,0,0,1,1.55,0Zm0,3.9v8.76h-1.53V78.78Z" style="fill:#7a40c6"/><path d="M698.15,75.26V87.54H696.8l-.15-1.22a3.15,3.15,0,0,1-1.08,1,3,3,0,0,1-3.87-.85,5.55,5.55,0,0,1-.88-3.31,6.37,6.37,0,0,1,.42-2.39,3.76,3.76,0,0,1,1.19-1.64,3,3,0,0,1,1.83-.59,3.15,3.15,0,0,1,2.36,1.08V75.08ZM695.66,86.2a3.84,3.84,0,0,0,1-1V80.94a3.44,3.44,0,0,0-.92-.85,2.09,2.09,0,0,0-1.11-.29,1.78,1.78,0,0,0-1.57.84,4.68,4.68,0,0,0-.55,2.53,4.9,4.9,0,0,0,.51,2.52,1.64,1.64,0,0,0,1.48.83A2.15,2.15,0,0,0,695.66,86.2Z" style="fill:#7a40c6"/><path d="M707.32,79.81a5.09,5.09,0,0,1,1,3.34,5.81,5.81,0,0,1-.46,2.4,3.63,3.63,0,0,1-1.35,1.61,3.68,3.68,0,0,1-2.09.58,3.53,3.53,0,0,1-2.87-1.23,5,5,0,0,1-1-3.34,5.81,5.81,0,0,1,.46-2.4,3.63,3.63,0,0,1,1.35-1.61,3.71,3.71,0,0,1,2.11-.58A3.52,3.52,0,0,1,707.32,79.81Zm-5.14,3.36c0,2.22.75,3.34,2.26,3.34s2.26-1.12,2.26-3.36-.75-3.34-2.24-3.34S702.18,80.93,702.18,83.17Z" style="fill:#7a40c6"/><path d="M669.93,111.91a1.1,1.1,0,0,0,.55.39l-.35,1.06A2.28,2.28,0,0,1,669,113a1.71,1.71,0,0,1-.61-.93,3,3,0,0,1-2.61,1.31,2.77,2.77,0,0,1-2-.73,2.55,2.55,0,0,1-.75-1.91,2.5,2.5,0,0,1,1-2.14,4.69,4.69,0,0,1,2.85-.75h1.35v-.65a1.71,1.71,0,0,0-.45-1.33,2.07,2.07,0,0,0-1.38-.39,7.7,7.7,0,0,0-2.36.46l-.38-1.11a8.79,8.79,0,0,1,3-.6A3.14,3.14,0,0,1,669,105a2.88,2.88,0,0,1,.77,2.15v4A1.4,1.4,0,0,0,669.93,111.91Zm-1.71-1.06v-2h-1.15c-1.61,0-2.42.6-2.42,1.8a1.63,1.63,0,0,0,.38,1.18,1.51,1.51,0,0,0,1.13.4A2.29,2.29,0,0,0,668.22,110.85Z" style="fill:#7a40c6"/><path d="M677.37,104.43a3.89,3.89,0,0,1,1.24.73l-.73,1a4,4,0,0,0-.9-.49,3.05,3.05,0,0,0-1-.16,1.93,1.93,0,0,0-1.65.85,4.41,4.41,0,0,0-.59,2.51,4.21,4.21,0,0,0,.58,2.45,2,2,0,0,0,1.66.79,2.87,2.87,0,0,0,1-.16,5,5,0,0,0,1-.51l.7,1a4.17,4.17,0,0,1-2.67,1,3.5,3.5,0,0,1-2.8-1.19,5,5,0,0,1-1-3.31,6,6,0,0,1,.46-2.44,3.76,3.76,0,0,1,1.32-1.63,3.52,3.52,0,0,1,2-.58A4.66,4.66,0,0,1,677.37,104.43Z" style="fill:#7a40c6"/><path d="M687.26,109.31h-5.58a3.47,3.47,0,0,0,.73,2.13,2.14,2.14,0,0,0,1.63.68,3.32,3.32,0,0,0,1.16-.19,4.45,4.45,0,0,0,1.12-.58l.66.92a4.84,4.84,0,0,1-3.06,1.09,3.55,3.55,0,0,1-2.84-1.19,4.92,4.92,0,0,1-1-3.29,6.11,6.11,0,0,1,.44-2.42,3.77,3.77,0,0,1,1.26-1.65,3.19,3.19,0,0,1,1.93-.6,3.25,3.25,0,0,1,2.68,1.15,4.89,4.89,0,0,1,.93,3.17C687.3,108.78,687.28,109,687.26,109.31Zm-1.48-1.23a3.29,3.29,0,0,0-.51-2,1.82,1.82,0,0,0-1.54-.68c-1.26,0-1.94.92-2.05,2.76h4.1Zm-.73-8.22.68,1.28-3.52,1.43-.46-.82Z" style="fill:#7a40c6"/><path d="M694,112.76a3.34,3.34,0,0,1-2,.6,2.28,2.28,0,0,1-1.73-.64,2.51,2.51,0,0,1-.63-1.85v-5.28h-1.52v-1.18h1.52v-2l1.53-.18v2.16h2.08l-.17,1.18h-1.91v5.21a1.6,1.6,0,0,0,.24,1,1,1,0,0,0,.81.31,2.53,2.53,0,0,0,1.16-.35Z" style="fill:#7a40c6"/><path d="M697.24,100.51a1,1,0,0,1,.3.74,1,1,0,0,1-.3.74,1,1,0,0,1-.78.29,1,1,0,0,1-.76-.29,1,1,0,0,1-.3-.74,1,1,0,0,1,.3-.74,1,1,0,0,1,.76-.3A1.06,1.06,0,0,1,697.24,100.51Zm0,3.9v8.75h-1.53v-8.75Z" style="fill:#7a40c6"/><path d="M705.26,104.43a3.93,3.93,0,0,1,1.25.73l-.73,1a3.88,3.88,0,0,0-.91-.49,3,3,0,0,0-1-.16,1.9,1.9,0,0,0-1.65.85,4.41,4.41,0,0,0-.59,2.51,4.14,4.14,0,0,0,.58,2.45,2,2,0,0,0,1.66.79,2.91,2.91,0,0,0,1-.16,5.36,5.36,0,0,0,1-.51l.7,1a4.18,4.18,0,0,1-2.68,1,3.49,3.49,0,0,1-2.79-1.19,5,5,0,0,1-1-3.31,6,6,0,0,1,.47-2.44,3.76,3.76,0,0,1,1.32-1.63,3.51,3.51,0,0,1,2-.58A4.61,4.61,0,0,1,705.26,104.43Z" style="fill:#7a40c6"/><path d="M714.73,105.44a5,5,0,0,1,1,3.34,5.81,5.81,0,0,1-.47,2.4,3.68,3.68,0,0,1-1.34,1.61,3.79,3.79,0,0,1-2.1.57,3.55,3.55,0,0,1-2.87-1.23,5,5,0,0,1-1-3.33,5.89,5.89,0,0,1,.47-2.41,3.67,3.67,0,0,1,1.34-1.61,3.8,3.8,0,0,1,2.11-.57A3.51,3.51,0,0,1,714.73,105.44Zm-5.13,3.36q0,3.33,2.25,3.33c1.51,0,2.26-1.12,2.26-3.35s-.75-3.34-2.24-3.34S709.6,106.56,709.6,108.8Z" style="fill:#7a40c6"/></g><g id="preto"><path d="M173.31,45.08v2.49h2.43v1.26h-2.43v2.48h-1.39V48.83h-2.41V47.57h2.41V45.08Z"/><rect x="313.39" y="48.16" width="88.53" height="0.36" style="fill:#575756"/><polygon points="393.43 45.17 401.74 48.34 393.43 51.5 395.01 48.34 393.43 45.17 393.43 45.17" style="fill:#575756;fill-rule:evenodd"/><path d="M392.42,52.43l2-4.09-2-4.09,10.72,4.09Zm2-6.33,1.12,2.24-1.12,2.24,5.88-2.24Z" style="fill:#575756"/><polyline points="393.43 45.17 401.74 48.34 393.43 51.5 395.01 48.34 393.43 45.17"/><path d="M658.4,40a5.13,5.13,0,0,1,1.43.87l-.86,1a3.43,3.43,0,0,0-2.21-.85,2.8,2.8,0,0,0-2.3,1.1,5.67,5.67,0,0,0-.87,3.52,5.75,5.75,0,0,0,.86,3.48,2.75,2.75,0,0,0,2.29,1.12A3,3,0,0,0,658,50a6.22,6.22,0,0,0,1.17-.7l.78,1a4.15,4.15,0,0,1-1.37.91,4.58,4.58,0,0,1-1.91.37,4.38,4.38,0,0,1-4.17-2.72,7.63,7.63,0,0,1-.61-3.21,7.47,7.47,0,0,1,.63-3.21,4.58,4.58,0,0,1,1.71-2,4.39,4.39,0,0,1,2.41-.68A4.91,4.91,0,0,1,658.4,40Z"/><path d="M668.24,51.42V46.05h-4.82v5.37h-1.58V40h1.58v4.78h4.82V40h1.57V51.42Z"/><path d="M674.77,47.6a2.19,2.19,0,0,1,.89.81,2.15,2.15,0,0,1,.3,1.11,1.89,1.89,0,0,1-.46,1.31,2.42,2.42,0,0,1-1.23.7,2.24,2.24,0,0,1,1.42.62,2,2,0,0,1,.55,1.49,2.56,2.56,0,0,1-.37,1.37,2.48,2.48,0,0,1-1,1,3.43,3.43,0,0,1-1.57.35,3.53,3.53,0,0,1-1.46-.3,3.17,3.17,0,0,1-1.16-.88l.72-.66a3,3,0,0,0,.88.65,2.3,2.3,0,0,0,1,.21,1.75,1.75,0,0,0,1.29-.47,1.64,1.64,0,0,0,.47-1.24,1.46,1.46,0,0,0-.44-1.22,2.07,2.07,0,0,0-1.29-.35h-.65l.14-.93h.44a1.61,1.61,0,0,0,1.13-.4,1.45,1.45,0,0,0,.45-1.14,1.27,1.27,0,0,0-.39-1,1.5,1.5,0,0,0-1.06-.36,2.21,2.21,0,0,0-.93.19,3.1,3.1,0,0,0-.87.6l-.62-.72a3.56,3.56,0,0,1,2.49-1A3,3,0,0,1,674.77,47.6Z"/><path d="M685.35,40a5.32,5.32,0,0,1,1.44.87l-.87,1a3.41,3.41,0,0,0-2.21-.85,2.78,2.78,0,0,0-2.29,1.1,5.6,5.6,0,0,0-.88,3.52,5.67,5.67,0,0,0,.87,3.48,2.73,2.73,0,0,0,2.29,1.12A3,3,0,0,0,685,50a6.5,6.5,0,0,0,1.16-.7l.78,1a4.1,4.1,0,0,1-1.36.91,4.62,4.62,0,0,1-1.91.37,4.4,4.4,0,0,1-4.18-2.72,7.79,7.79,0,0,1-.6-3.21,7.47,7.47,0,0,1,.63-3.21,4.58,4.58,0,0,1,1.71-2,4.37,4.37,0,0,1,2.41-.68A4.89,4.89,0,0,1,685.35,40Z"/><path d="M695.41,40.46a4.6,4.6,0,0,1,1.7,2,7.83,7.83,0,0,1,.6,3.23,7.73,7.73,0,0,1-.6,3.19,4.6,4.6,0,0,1-1.7,2,4.54,4.54,0,0,1-2.53.7,4.69,4.69,0,0,1-2.53-.68,4.49,4.49,0,0,1-1.69-2,8.7,8.7,0,0,1,0-6.4,4.62,4.62,0,0,1,1.7-2.05,4.55,4.55,0,0,1,2.52-.7A4.69,4.69,0,0,1,695.41,40.46Zm-4.85,1.74a5.93,5.93,0,0,0-.83,3.52,5.88,5.88,0,0,0,.83,3.49,2.76,2.76,0,0,0,2.32,1.11c2.1,0,3.16-1.54,3.16-4.61s-1.06-4.64-3.16-4.64A2.71,2.71,0,0,0,690.56,42.2Z"/><path d="M707,40.46a4.58,4.58,0,0,1,1.69,2,7.66,7.66,0,0,1,.61,3.23,7.57,7.57,0,0,1-.61,3.19,4.42,4.42,0,0,1-4.22,2.72,4.67,4.67,0,0,1-2.53-.68,4.57,4.57,0,0,1-1.7-2,8.83,8.83,0,0,1,0-6.4,4.69,4.69,0,0,1,1.7-2.05,4.58,4.58,0,0,1,2.53-.7A4.72,4.72,0,0,1,707,40.46Zm-4.86,1.74a6,6,0,0,0-.83,3.52,5.8,5.8,0,0,0,.84,3.49,2.74,2.74,0,0,0,2.32,1.11q3.15,0,3.15-4.61t-3.15-4.64A2.74,2.74,0,0,0,702.16,42.2Z"/><path d="M718.4,51.42V46.05h-4.81v5.37H712V40h1.58v4.78h4.81V40H720V51.42Z"/><path d="M619.66,44.78v2.5h2.42v1.26h-2.42V51h-1.39V48.54h-2.41V47.28h2.41v-2.5Z"/><path d="M95.32,8.9a4.47,4.47,0,0,1,1.69,2,7.61,7.61,0,0,1,.61,3.22A7.57,7.57,0,0,1,97,17.33a4.55,4.55,0,0,1-1.69,2,5,5,0,0,1-5.06,0,4.46,4.46,0,0,1-1.7-2,7.71,7.71,0,0,1-.6-3.2,7.79,7.79,0,0,1,.6-3.19A4.73,4.73,0,0,1,95.32,8.9Zm-4.86,1.74a6,6,0,0,0-.83,3.52,5.84,5.84,0,0,0,.84,3.49,2.74,2.74,0,0,0,2.32,1.11q3.15,0,3.15-4.62T92.79,9.51A2.72,2.72,0,0,0,90.46,10.64Z"/><path d="M105.67,19.85V14.49h-4.81v5.36H99.28V8.41h1.58v4.78h4.81V8.41h1.58V19.85Z"/><path d="M95.22,74.13a5.32,5.32,0,0,1,1.44.87l-.87,1a3.41,3.41,0,0,0-2.2-.85,2.79,2.79,0,0,0-2.3,1.1,5.67,5.67,0,0,0-.87,3.52,5.68,5.68,0,0,0,.86,3.48,2.73,2.73,0,0,0,2.29,1.12,3,3,0,0,0,1.28-.25,6.5,6.5,0,0,0,1.16-.7l.78,1a4.1,4.1,0,0,1-1.36.91,4.58,4.58,0,0,1-1.91.37A4.4,4.4,0,0,1,89.34,83a7.79,7.79,0,0,1-.6-3.21,7.47,7.47,0,0,1,.63-3.21,4.58,4.58,0,0,1,1.71-2,4.37,4.37,0,0,1,2.41-.68A5.12,5.12,0,0,1,95.22,74.13Z"/><path d="M96.62,107.38a4.57,4.57,0,0,1,1.7,2,7.83,7.83,0,0,1,.6,3.23,7.73,7.73,0,0,1-.6,3.19,4.6,4.6,0,0,1-1.7,2,4.51,4.51,0,0,1-2.53.7,4.72,4.72,0,0,1-2.53-.68,4.49,4.49,0,0,1-1.69-2,8.7,8.7,0,0,1,0-6.4,4.62,4.62,0,0,1,1.7-2,4.93,4.93,0,0,1,5.05,0Zm-4.85,1.73a5.93,5.93,0,0,0-.83,3.52,5.8,5.8,0,0,0,.84,3.49,2.73,2.73,0,0,0,2.31,1.11q3.16,0,3.16-4.61T94.09,108A2.72,2.72,0,0,0,91.77,109.11Z"/><path d="M107,118.33V113h-4.82v5.37h-1.58V106.89h1.58v4.78H107v-4.78h1.57v11.44Z"/><path d="M123.77,57.94a4.6,4.6,0,0,1,1.7,2,7.81,7.81,0,0,1,.6,3.22,7.7,7.7,0,0,1-.6,3.19,4.43,4.43,0,0,1-4.23,2.73,4.69,4.69,0,0,1-2.53-.68,4.49,4.49,0,0,1-1.69-2,8.7,8.7,0,0,1,0-6.4,4.72,4.72,0,0,1,6.75-2.07Zm-4.85,1.74a5.93,5.93,0,0,0-.83,3.52,5.82,5.82,0,0,0,.84,3.49,2.73,2.73,0,0,0,2.31,1.11c2.1,0,3.16-1.54,3.16-4.62s-1.06-4.63-3.16-4.63A2.72,2.72,0,0,0,118.92,59.68Z"/><rect x="65.04" y="30.94" width="0.5" height="32.83" style="fill:#020200"/><rect x="59.5" y="33.71" width="0.5" height="27.29" style="fill:#020200"/><polygon points="37.1 74.26 13.37 60.82 13.62 60.38 37.34 73.83 37.1 74.26" style="fill:#020200"/><polygon points="37.23 80.66 37.1 80.59 8.11 64.31 8.11 31.19 8.23 31.12 36.42 14.43 36.55 14.51 65.41 30.72 65.17 31.16 36.43 15.01 8.61 31.48 8.61 64.01 37.22 80.08 65.16 63.55 65.42 63.98 37.23 80.66" style="fill:#020200"/><rect x="11.6" y="27.72" width="27.13" height="0.5" transform="translate(-10.75 16.75) rotate(-30.68)" style="fill:#020200"/><rect x="63.68" y="24.76" width="23.39" height="0.5" transform="translate(-2.27 41.67) rotate(-30.47)" style="fill:#020200"/><rect x="75.52" y="57.66" width="0.5" height="24.08" transform="translate(-22.21 101.29) rotate(-60.48)" style="fill:#020200"/><rect x="93.9" y="88.28" width="0.5" height="15.82" style="fill:#020200"/><rect x="100.23" y="74.78" width="14.72" height="0.5" transform="translate(-23.23 65.39) rotate(-30.68)" style="fill:#020200"/><rect x="100.23" y="68.46" width="14.72" height="0.5" transform="translate(-20 64.5) rotate(-30.68)" style="fill:#020200"/><path d="M213.13,38.12a20.76,20.76,0,0,0-1.37,2.28,9.7,9.7,0,0,0-.8,2.28,15.51,15.51,0,0,0,0,6,10,10,0,0,0,.8,2.3,19,19,0,0,0,1.37,2.28l-1,.67c-.73-1-1.29-1.9-1.68-2.57a10.59,10.59,0,0,1-1-2.41,13.36,13.36,0,0,1,0-6.49,10.59,10.59,0,0,1,1-2.41c.39-.67,1-1.53,1.68-2.57Z"/><path d="M221.19,40.11a5.27,5.27,0,0,1,1.44.86l-.87,1a3.43,3.43,0,0,0-2.21-.85,2.8,2.8,0,0,0-2.3,1.1,5.67,5.67,0,0,0-.87,3.52,5.67,5.67,0,0,0,.87,3.48,2.75,2.75,0,0,0,2.29,1.12,3.21,3.21,0,0,0,1.28-.25,7.15,7.15,0,0,0,1.16-.7l.78,1a4.38,4.38,0,0,1-1.36.91,4.78,4.78,0,0,1-1.91.37A4.38,4.38,0,0,1,215.31,49a7.79,7.79,0,0,1-.61-3.21,7.51,7.51,0,0,1,.64-3.22,4.7,4.7,0,0,1,1.71-2,4.44,4.44,0,0,1,2.4-.68A4.89,4.89,0,0,1,221.19,40.11Z"/><path d="M231,51.49V46.12h-4.82v5.37h-1.58V40h1.58v4.79H231V40h1.57V51.49Z"/><path d="M238.88,47.68a2.16,2.16,0,0,1,.88.81,2.07,2.07,0,0,1,.31,1.11,1.87,1.87,0,0,1-.46,1.31,2.34,2.34,0,0,1-1.24.7,2.24,2.24,0,0,1,1.43.62,2.05,2.05,0,0,1,.54,1.49,2.64,2.64,0,0,1-.36,1.37,2.54,2.54,0,0,1-1,1,3.46,3.46,0,0,1-1.57.35,3.5,3.5,0,0,1-1.46-.3,3,3,0,0,1-1.16-.88l.71-.66a3.06,3.06,0,0,0,.89.65,2.27,2.27,0,0,0,1,.21,1.78,1.78,0,0,0,1.29-.46,1.66,1.66,0,0,0,.47-1.25,1.46,1.46,0,0,0-.44-1.21,2,2,0,0,0-1.29-.36h-.66l.15-.92h.44a1.64,1.64,0,0,0,1.13-.41,1.45,1.45,0,0,0,.45-1.13,1.27,1.27,0,0,0-.39-1,1.49,1.49,0,0,0-1.06-.35,2.34,2.34,0,0,0-.93.18,3.1,3.1,0,0,0-.87.6l-.63-.72a3.56,3.56,0,0,1,2.5-1A3,3,0,0,1,238.88,47.68Z"/><path d="M249.46,40.11a5.08,5.08,0,0,1,1.43.86L250,42a3.43,3.43,0,0,0-2.21-.85,2.8,2.8,0,0,0-2.3,1.1,5.67,5.67,0,0,0-.87,3.52,5.75,5.75,0,0,0,.86,3.48,2.78,2.78,0,0,0,2.3,1.12,3.13,3.13,0,0,0,1.27-.25,6.8,6.8,0,0,0,1.17-.7l.78,1a4.38,4.38,0,0,1-1.36.91,4.78,4.78,0,0,1-1.91.37A4.38,4.38,0,0,1,243.58,49a7.79,7.79,0,0,1-.61-3.21,7.52,7.52,0,0,1,.63-3.22,4.7,4.7,0,0,1,1.71-2,4.48,4.48,0,0,1,2.41-.68A4.89,4.89,0,0,1,249.46,40.11Z"/><path d="M259.52,40.53a4.52,4.52,0,0,1,1.69,2,7.65,7.65,0,0,1,.61,3.22,7.53,7.53,0,0,1-.61,3.19,4.55,4.55,0,0,1-1.69,2,5,5,0,0,1-5.06,0,4.57,4.57,0,0,1-1.7-2,8.83,8.83,0,0,1,0-6.4,4.73,4.73,0,0,1,6.76-2.07Zm-4.86,1.74a6,6,0,0,0-.83,3.52,5.82,5.82,0,0,0,.84,3.49A2.74,2.74,0,0,0,257,50.39q3.15,0,3.15-4.62T257,41.14A2.74,2.74,0,0,0,254.66,42.27Z"/><path d="M266.16,40a10.59,10.59,0,0,1,1,2.41,13.36,13.36,0,0,1,0,6.49,10.59,10.59,0,0,1-1,2.41c-.39.67-1,1.52-1.68,2.57l-1-.67A17.81,17.81,0,0,0,264.88,51a10,10,0,0,0,.8-2.3,15.51,15.51,0,0,0,0-6,9.7,9.7,0,0,0-.8-2.28,19.3,19.3,0,0,0-1.37-2.28l1-.67C265.21,38.49,265.77,39.35,266.16,40Z"/><path d="M273.83,47.69a2.3,2.3,0,0,1,1.25,2.08,3.44,3.44,0,0,1-.36,1.53,7.69,7.69,0,0,1-1.1,1.57c-.5.57-1.25,1.36-2.26,2.37h3.93l-.15,1H270v-1c1.16-1.21,2-2.1,2.48-2.66a7.67,7.67,0,0,0,1-1.47,2.9,2.9,0,0,0,.31-1.34,1.34,1.34,0,0,0-1.43-1.45,2,2,0,0,0-.94.22,3.37,3.37,0,0,0-.86.73l-.78-.62a3.4,3.4,0,0,1,1.18-1,3.23,3.23,0,0,1,1.46-.33A2.87,2.87,0,0,1,273.83,47.69Z"/><path d="M285.26,40.53a4.6,4.6,0,0,1,1.7,2,7.81,7.81,0,0,1,.6,3.22A7.7,7.7,0,0,1,287,49a4.43,4.43,0,0,1-4.23,2.73A4.69,4.69,0,0,1,280.2,51a4.49,4.49,0,0,1-1.69-2,8.7,8.7,0,0,1,0-6.4,4.72,4.72,0,0,1,6.75-2.07Zm-4.85,1.74a5.93,5.93,0,0,0-.83,3.52,5.82,5.82,0,0,0,.84,3.49,2.73,2.73,0,0,0,2.31,1.11c2.1,0,3.16-1.54,3.16-4.62s-1.06-4.63-3.16-4.63A2.72,2.72,0,0,0,280.41,42.27Z"/><path d="M519.93,11.28a4.53,4.53,0,0,1,1.69,2,7.8,7.8,0,0,1,.61,3.22,7.69,7.69,0,0,1-.61,3.19,4.41,4.41,0,0,1-4.23,2.73,4.72,4.72,0,0,1-2.53-.68,4.55,4.55,0,0,1-1.69-2,7.63,7.63,0,0,1-.61-3.21,7.63,7.63,0,0,1,.61-3.19,4.44,4.44,0,0,1,4.22-2.76A4.65,4.65,0,0,1,519.93,11.28ZM515.07,13a6,6,0,0,0-.83,3.52,5.82,5.82,0,0,0,.84,3.49,2.74,2.74,0,0,0,2.31,1.11q3.17,0,3.16-4.62t-3.16-4.63A2.7,2.7,0,0,0,515.07,13Z"/><path d="M519.83,76.51a5.08,5.08,0,0,1,1.43.86l-.86,1a3.43,3.43,0,0,0-2.21-.85,2.79,2.79,0,0,0-2.3,1.09,5.72,5.72,0,0,0-.87,3.53,5.75,5.75,0,0,0,.86,3.48,2.78,2.78,0,0,0,2.3,1.12,3.13,3.13,0,0,0,1.27-.25,6.8,6.8,0,0,0,1.17-.7l.78,1a4.38,4.38,0,0,1-1.36.91,4.78,4.78,0,0,1-1.91.37A4.38,4.38,0,0,1,514,85.37a7.79,7.79,0,0,1-.61-3.21,7.52,7.52,0,0,1,.63-3.22,4.78,4.78,0,0,1,1.72-2,4.42,4.42,0,0,1,2.4-.68A4.89,4.89,0,0,1,519.83,76.51Z"/><path d="M520.31,109.75a4.6,4.6,0,0,1,1.7,2,7.81,7.81,0,0,1,.6,3.22,7.7,7.7,0,0,1-.6,3.19,4.43,4.43,0,0,1-4.23,2.73,4.69,4.69,0,0,1-2.53-.68,4.57,4.57,0,0,1-1.7-2,8.83,8.83,0,0,1,0-6.4,4.65,4.65,0,0,1,1.71-2,4.56,4.56,0,0,1,2.52-.71A4.61,4.61,0,0,1,520.31,109.75Zm-4.85,1.74a7.82,7.82,0,0,0,0,7,2.74,2.74,0,0,0,2.32,1.11c2.1,0,3.16-1.54,3.16-4.62s-1.06-4.63-3.16-4.63A2.71,2.71,0,0,0,515.46,111.49Z"/><path d="M533.14,120.71v-5.37h-4.82v5.37h-1.57V109.26h1.57v4.79h4.82v-4.79h1.58v11.45Z"/><path d="M548.4,60.32a4.53,4.53,0,0,1,1.69,2,7.8,7.8,0,0,1,.61,3.22,7.69,7.69,0,0,1-.61,3.19,4.41,4.41,0,0,1-4.23,2.73,4.72,4.72,0,0,1-2.53-.68,4.55,4.55,0,0,1-1.69-2,8.7,8.7,0,0,1,0-6.4,4.44,4.44,0,0,1,4.22-2.76A4.65,4.65,0,0,1,548.4,60.32Zm-4.86,1.74a6,6,0,0,0-.83,3.52,5.82,5.82,0,0,0,.84,3.49,2.74,2.74,0,0,0,2.31,1.11q3.17,0,3.16-4.62t-3.16-4.63A2.7,2.7,0,0,0,543.54,62.06Z"/><path d="M550.29,10.86a5.08,5.08,0,0,1,1.43.86l-.86,1a3.45,3.45,0,0,0-2.21-.85,2.79,2.79,0,0,0-2.3,1.09,5.7,5.7,0,0,0-.87,3.53,5.75,5.75,0,0,0,.86,3.48,2.77,2.77,0,0,0,2.29,1.12,3.14,3.14,0,0,0,1.28-.25,6.8,6.8,0,0,0,1.17-.7l.78,1a4.31,4.31,0,0,1-1.37.91,4.75,4.75,0,0,1-1.91.37,4.38,4.38,0,0,1-4.17-2.72,7.63,7.63,0,0,1-.61-3.21,7.52,7.52,0,0,1,.63-3.22,4.7,4.7,0,0,1,1.71-2,4.48,4.48,0,0,1,2.41-.68A4.89,4.89,0,0,1,550.29,10.86Z"/><path d="M560.35,11.28a4.53,4.53,0,0,1,1.69,2,7.65,7.65,0,0,1,.61,3.22,7.53,7.53,0,0,1-.61,3.19,4.41,4.41,0,0,1-4.22,2.73,4.73,4.73,0,0,1-2.54-.68,4.55,4.55,0,0,1-1.69-2,7.79,7.79,0,0,1-.61-3.21,7.79,7.79,0,0,1,.61-3.19,4.44,4.44,0,0,1,4.23-2.76A4.64,4.64,0,0,1,560.35,11.28ZM555.49,13a6,6,0,0,0-.83,3.52A5.82,5.82,0,0,0,555.5,20a2.74,2.74,0,0,0,2.32,1.11q3.15,0,3.15-4.62t-3.15-4.63A2.7,2.7,0,0,0,555.49,13Z"/><path d="M571.08,10.86a5.22,5.22,0,0,1,1.43.86l-.86,1a3.45,3.45,0,0,0-2.21-.85,2.79,2.79,0,0,0-2.3,1.09,5.7,5.7,0,0,0-.87,3.53,5.75,5.75,0,0,0,.86,3.48,2.77,2.77,0,0,0,2.29,1.12,3.14,3.14,0,0,0,1.28-.25,6.75,6.75,0,0,0,1.16-.7l.78,1a4.15,4.15,0,0,1-1.36.91,4.75,4.75,0,0,1-1.91.37,4.38,4.38,0,0,1-4.17-2.72,7.63,7.63,0,0,1-.61-3.21,7.52,7.52,0,0,1,.63-3.22,4.7,4.7,0,0,1,1.71-2,4.45,4.45,0,0,1,2.41-.68A4.93,4.93,0,0,1,571.08,10.86Z"/><path d="M581.28,22.24V16.87h-4.82v5.37h-1.57V10.79h1.57v4.79h4.82V10.79h1.58V22.24Z"/><path d="M589.79,18.43a2.16,2.16,0,0,1,.88.81,2.07,2.07,0,0,1,.31,1.11,1.87,1.87,0,0,1-.46,1.31,2.34,2.34,0,0,1-1.24.7,2.24,2.24,0,0,1,1.43.62,2.05,2.05,0,0,1,.54,1.49,2.64,2.64,0,0,1-.36,1.37,2.48,2.48,0,0,1-1,1,3.46,3.46,0,0,1-1.57.35,3.5,3.5,0,0,1-1.46-.3,3.07,3.07,0,0,1-1.16-.88l.72-.66a3,3,0,0,0,.88.65,2.27,2.27,0,0,0,1,.21,1.78,1.78,0,0,0,1.29-.46,1.66,1.66,0,0,0,.47-1.25,1.46,1.46,0,0,0-.44-1.21,2,2,0,0,0-1.29-.36h-.66l.15-.92h.44a1.64,1.64,0,0,0,1.13-.41,1.45,1.45,0,0,0,.45-1.13,1.27,1.27,0,0,0-.39-1,1.49,1.49,0,0,0-1.06-.35,2.34,2.34,0,0,0-.93.18,3.1,3.1,0,0,0-.87.6l-.62-.72a3.54,3.54,0,0,1,2.49-1A3,3,0,0,1,589.79,18.43Z"/><rect x="489.65" y="33.31" width="0.5" height="32.83" style="fill:#020200"/><rect x="484.11" y="36.08" width="0.5" height="27.29" style="fill:#020200"/><polygon points="461.71 76.64 437.98 63.19 438.23 62.76 461.95 76.2 461.71 76.64" style="fill:#020200"/><polygon points="461.83 83.03 461.71 82.96 432.72 66.68 432.72 33.56 432.84 33.49 461.03 16.81 461.16 16.88 490.02 33.09 489.77 33.53 461.04 17.38 433.22 33.85 433.22 66.38 461.83 82.46 489.77 65.92 490.02 66.35 461.83 83.03" style="fill:#020200"/><polygon points="438.24 37.48 437.98 37.05 461.31 23.21 461.56 23.64 438.24 37.48" style="fill:#020200"/><rect x="488.28" y="27.13" width="23.4" height="0.5" transform="translate(55.15 257.28) rotate(-30.47)" style="fill:#020200"/><rect x="500.13" y="60.03" width="0.5" height="24.08" transform="translate(191.15 472) rotate(-60.48)" style="fill:#020200"/><rect x="518.51" y="90.66" width="0.5" height="15.82" style="fill:#020200"/><polygon points="526 81.38 525.75 80.95 538.4 73.44 538.66 73.86 526 81.38" style="fill:#020200"/><polygon points="526 75.05 525.75 74.62 538.4 67.11 538.66 67.54 526 75.05" style="fill:#020200"/><rect x="526.27" y="16.45" width="15.02" height="0.5" style="fill:#020200"/></g></g></svg>