  <svg xmlns="http://www.w3.org/2000/svg" viewBox="0 0 722.63 423.33"><title>fig-2-2</title><g id="fig-2-2"><path d="M353.71,92.75A186.72,186.72,0,0,1,396.64,212c0,104.45-85.88,189.12-191.81,189.12S13,316.45,13,212a188,188,0,0,1,2.75-32.14" style="fill:#b18ef4"></path><path d="M353.7,92.75h0A192.47,192.47,0,0,0,204.83,22.87h0V212Z" style="fill:#6827ab"></path><path d="M15.93,179.74l190,32.1-1.07-189-.5.42.5-.42c-94.51,0-173,67.4-188.89,156.12l-.75.62.62.11,0,.14Z" style="fill:#996ce0"></path><text transform="translate(85.54 139.94)" style="font-size:39.642738342285156px;fill:#fff;font-family:FiraSans-Regular, Fira Sans">23%</text><text transform="translate(231.72 112.01)" style="font-size:39.642738342285156px;fill:#fff;font-family:FiraSans-Regular, Fira Sans">14%</text><text transform="translate(172.42 309.85)" style="font-size:39.642738342285156px;fill:#fff;font-family:FiraSans-Regular, Fira Sans">63%</text><rect x="437.57" y="99.69" width="16.9" height="17.34" style="fill:#6827ab"/><rect x="437.57" y="143.57" width="17.34" height="17.34" style="fill:#996ce0"/><rect x="437.57" y="186.38" width="17.34" height="17.34" style="fill:#b18ef4"/><g id="preto"><text transform="translate(437.57 68.74)" style="font-size:27.542789459228516px;fill:#1d1d1b;font-family:FiraSans-Medium, Fira Sans;font-weight:500">Capacidade Instalada</text><text transform="translate(479.3 117.03)" style="font-size:23.60810089111328px;fill:#1d1d1b;font-family:FiraSans-Light, Fira Sans;font-weight:300">Mercúrio</text><text transform="translate(479.3 160.92)" style="font-size:23.60810089111328px;fill:#1d1d1b;font-family:FiraSans-Light, Fira Sans;font-weight:300">Membrana</text><text transform="translate(479.3 203.74)" style="font-size:23.60810089111328px;fill:#1d1d1b;font-family:FiraSans-Light, Fira Sans;font-weight:300">Diafragma</text></g></g></svg>