<svg xmlns="http://www.w3.org/2000/svg" viewBox="0 0 730 515.55"><title>fig-7-2</title><g id="fig-7-2"><rect id="roxo" x="519.58" y="104.04" width="14.61" height="14.61" style="fill:#874cd3"/><rect x="519.58" y="131.96" width="14.61" height="14.61" style="fill:#e55843"/><rect x="519.58" y="159.89" width="14.61" height="14.61" style="fill:#f2887c"/><rect x="519.58" y="188.01" width="14.61" height="14.61" style="fill:#a1f000"/><rect x="519.58" y="215.94" width="14.61" height="14.61" style="fill:#c4b0f4"/><g id="preto"><path d="M562.53,106.15a5.57,5.57,0,0,1,1.58.95l-1,1.11a3.8,3.8,0,0,0-2.43-.93,3.05,3.05,0,0,0-2.52,1.21,8.2,8.2,0,0,0,0,7.68,3,3,0,0,0,2.52,1.24,3.24,3.24,0,0,0,1.4-.28,7.78,7.78,0,0,0,1.28-.76l.86,1.09a4.58,4.58,0,0,1-1.5,1,5.14,5.14,0,0,1-2.1.41,4.82,4.82,0,0,1-4.59-3,8.55,8.55,0,0,1-.66-3.53,8.26,8.26,0,0,1,.69-3.53,5,5,0,0,1,1.88-2.21,4.84,4.84,0,0,1,2.65-.75A5.54,5.54,0,0,1,562.53,106.15Z" style="fill:#1d1d1b"/><path d="M572.93,109.6a3,3,0,0,1,.74,2.15v6.9H572V112a2.1,2.1,0,0,0-.39-1.44,1.48,1.48,0,0,0-1.14-.42,2.16,2.16,0,0,0-1.33.43,4.73,4.73,0,0,0-1.1,1.25v6.84h-1.68V105.18L568,105v5.36a3.42,3.42,0,0,1,2.85-1.55A2.7,2.7,0,0,1,572.93,109.6Z" style="fill:#1d1d1b"/><path d="M578.72,104.75a1.17,1.17,0,0,1,0,1.63,1.18,1.18,0,0,1-.85.32,1.15,1.15,0,0,1-.84-.32,1.17,1.17,0,0,1,0-1.63,1.12,1.12,0,0,1,.84-.33A1.15,1.15,0,0,1,578.72,104.75Zm0,4.28v9.62H577V109Z" style="fill:#1d1d1b"/><path d="M588.77,109.6a3,3,0,0,1,.73,2.15v6.9h-1.67V112a2.1,2.1,0,0,0-.39-1.44,1.44,1.44,0,0,0-1.13-.42,2.2,2.2,0,0,0-1.35.43,4.76,4.76,0,0,0-1.09,1.26v6.83h-1.68V109h1.44l.15,1.43a3.73,3.73,0,0,1,1.26-1.21,3.33,3.33,0,0,1,1.67-.44A2.72,2.72,0,0,1,588.77,109.6Z" style="fill:#1d1d1b"/><path d="M599.56,117.27a1.2,1.2,0,0,0,.6.43l-.38,1.17a2.7,2.7,0,0,1-1.21-.42,1.9,1.9,0,0,1-.67-1,3.22,3.22,0,0,1-2.87,1.45,3,3,0,0,1-2.24-.81A2.78,2.78,0,0,1,592,116a2.74,2.74,0,0,1,1.1-2.35,5.16,5.16,0,0,1,3.13-.82h1.48v-.71a1.9,1.9,0,0,0-.49-1.46,2.26,2.26,0,0,0-1.52-.44,8.45,8.45,0,0,0-2.59.51l-.42-1.22a9.63,9.63,0,0,1,3.32-.66,3.5,3.5,0,0,1,2.54.83,3.19,3.19,0,0,1,.84,2.37v4.39A1.47,1.47,0,0,0,599.56,117.27Zm-1.88-1.16V113.9h-1.26c-1.78,0-2.67.66-2.67,2a1.8,1.8,0,0,0,.42,1.3,1.66,1.66,0,0,0,1.24.44A2.51,2.51,0,0,0,597.68,116.11Z" style="fill:#1d1d1b"/><path d="M562.92,146.58l-.95-3.15h-4.76l-1,3.15h-1.75l4-12.57h2.19l4,12.57ZM561.1,130l.73,1.41-3.94,1.44-.44-.89ZM557.63,142h3.92l-1.95-6.56Z" style="fill:#1d1d1b"/><path d="M571,137a5.6,5.6,0,0,1,1.49.82l-.71,1.06a6,6,0,0,0-1.25-.62,3.94,3.94,0,0,0-1.25-.2,2.17,2.17,0,0,0-1.29.34,1.13,1.13,0,0,0,0,1.83,5.31,5.31,0,0,0,1.61.64A5.7,5.7,0,0,1,572,142a2.4,2.4,0,0,1,.79,1.89,2.44,2.44,0,0,1-1.11,2.17,4.65,4.65,0,0,1-2.69.75,5.31,5.31,0,0,1-3.63-1.26l.9-1a4.34,4.34,0,0,0,2.7.93,2.57,2.57,0,0,0,1.5-.39A1.25,1.25,0,0,0,571,144a1.42,1.42,0,0,0-.2-.79,1.67,1.67,0,0,0-.7-.53,9.14,9.14,0,0,0-1.44-.48,4.89,4.89,0,0,1-2.21-1.08,2.29,2.29,0,0,1-.69-1.71,2.22,2.22,0,0,1,.45-1.36,2.85,2.85,0,0,1,1.24-.95,4.42,4.42,0,0,1,1.78-.34A5.39,5.39,0,0,1,571,137Z" style="fill:#1d1d1b"/><path d="M576.79,132.68a1.11,1.11,0,0,1,.33.82,1.07,1.07,0,0,1-.33.81,1.16,1.16,0,0,1-.86.32,1.13,1.13,0,0,1-.84-.32,1.07,1.07,0,0,1-.33-.81,1.11,1.11,0,0,1,.33-.82,1.14,1.14,0,0,1,.84-.33A1.17,1.17,0,0,1,576.79,132.68Zm0,4.29v9.61h-1.68V137Z" style="fill:#1d1d1b"/><path d="M586.93,145.21a1.23,1.23,0,0,0,.6.42l-.38,1.17a2.51,2.51,0,0,1-1.2-.42,1.92,1.92,0,0,1-.68-1,3.22,3.22,0,0,1-2.86,1.44,3.07,3.07,0,0,1-2.25-.8,2.83,2.83,0,0,1-.82-2.1,2.75,2.75,0,0,1,1.11-2.35,5.11,5.11,0,0,1,3.12-.82h1.48V140a1.86,1.86,0,0,0-.49-1.46,2.19,2.19,0,0,0-1.52-.44,8.44,8.44,0,0,0-2.58.51l-.42-1.22a9.59,9.59,0,0,1,3.32-.66,3.47,3.47,0,0,1,2.53.83,3.16,3.16,0,0,1,.84,2.36v4.4A1.55,1.55,0,0,0,586.93,145.21Zm-1.88-1.16v-2.21h-1.26c-1.77,0-2.66.66-2.66,2a1.83,1.83,0,0,0,.42,1.3,1.64,1.64,0,0,0,1.24.43A2.5,2.5,0,0,0,585.05,144.05Z" style="fill:#1d1d1b"/><path d="M599.43,131.86l1.42.33-4.21,16.29-1.44-.35Z" style="fill:#1d1d1b"/><path d="M611.86,134.55a5,5,0,0,1,1.86,2.22,8.38,8.38,0,0,1,.67,3.54,8.28,8.28,0,0,1-.67,3.5,4.83,4.83,0,0,1-4.64,3,5.1,5.1,0,0,1-2.78-.75,4.83,4.83,0,0,1-1.86-2.2,9.56,9.56,0,0,1,0-7,5.08,5.08,0,0,1,1.86-2.25,5,5,0,0,1,2.78-.77A5.12,5.12,0,0,1,611.86,134.55Zm-5.34,1.91a6.63,6.63,0,0,0-.91,3.87,6.43,6.43,0,0,0,.92,3.83,3,3,0,0,0,2.55,1.22q3.46,0,3.46-5.07c0-3.4-1.15-5.09-3.46-5.09A3,3,0,0,0,606.52,136.46Z" style="fill:#1d1d1b"/><path d="M622.2,137a4.12,4.12,0,0,1,1.36.79l-.8,1.06a4.06,4.06,0,0,0-1-.54,3,3,0,0,0-1.07-.17,2.1,2.1,0,0,0-1.82.93,4.84,4.84,0,0,0-.64,2.75,4.5,4.5,0,0,0,.64,2.69,2.11,2.11,0,0,0,1.82.87,3.15,3.15,0,0,0,1-.17,5.24,5.24,0,0,0,1.06-.56l.76,1.09a4.52,4.52,0,0,1-2.93,1.06,3.86,3.86,0,0,1-3.08-1.31,5.42,5.42,0,0,1-1.12-3.63,6.54,6.54,0,0,1,.51-2.68,4.12,4.12,0,0,1,1.45-1.79,3.86,3.86,0,0,1,2.24-.64A4.66,4.66,0,0,1,622.2,137Z" style="fill:#1d1d1b"/><path d="M633.07,142.35h-6.13a3.76,3.76,0,0,0,.8,2.34,2.35,2.35,0,0,0,1.79.74,3.78,3.78,0,0,0,1.28-.2,4.8,4.8,0,0,0,1.22-.64l.73,1a5.32,5.32,0,0,1-3.36,1.2,3.91,3.91,0,0,1-3.13-1.31,5.43,5.43,0,0,1-1.12-3.61,6.9,6.9,0,0,1,.48-2.66,4.2,4.2,0,0,1,1.39-1.81,3.5,3.5,0,0,1,2.13-.66,3.56,3.56,0,0,1,2.93,1.26,5.39,5.39,0,0,1,1,3.48C633.11,141.77,633.09,142.06,633.07,142.35ZM631.45,141a3.53,3.53,0,0,0-.57-2.17,2,2,0,0,0-1.7-.75c-1.37,0-2.12,1-2.24,3h4.51Z" style="fill:#1d1d1b"/><path d="M642.46,145.21a1.26,1.26,0,0,0,.61.42l-.39,1.17a2.51,2.51,0,0,1-1.2-.42,1.92,1.92,0,0,1-.68-1,3.22,3.22,0,0,1-2.86,1.44,3,3,0,0,1-2.24-.8,2.79,2.79,0,0,1-.82-2.1,2.74,2.74,0,0,1,1.1-2.35,5.14,5.14,0,0,1,3.13-.82h1.47V140a1.86,1.86,0,0,0-.49-1.46,2.18,2.18,0,0,0-1.51-.44,8.45,8.45,0,0,0-2.59.51l-.42-1.22a9.63,9.63,0,0,1,3.32-.66,3.47,3.47,0,0,1,2.53.83,3.16,3.16,0,0,1,.84,2.36v4.4A1.55,1.55,0,0,0,642.46,145.21Zm-1.88-1.16v-2.21h-1.25c-1.78,0-2.67.66-2.67,2a1.83,1.83,0,0,0,.42,1.3,1.66,1.66,0,0,0,1.24.43A2.49,2.49,0,0,0,640.58,144.05Z" style="fill:#1d1d1b"/><path d="M652.29,137.53a3.06,3.06,0,0,1,.74,2.16v6.89h-1.68v-6.66a2.1,2.1,0,0,0-.39-1.44,1.44,1.44,0,0,0-1.13-.42,2.21,2.21,0,0,0-1.35.44,4.63,4.63,0,0,0-1.09,1.26v6.82h-1.68V137h1.44l.15,1.42a3.73,3.73,0,0,1,1.27-1.2,3.28,3.28,0,0,1,1.67-.44A2.71,2.71,0,0,1,652.29,137.53Z" style="fill:#1d1d1b"/><path d="M658.08,132.68a1.11,1.11,0,0,1,.33.82,1.07,1.07,0,0,1-.33.81,1.16,1.16,0,0,1-.86.32,1.13,1.13,0,0,1-.84-.32,1.07,1.07,0,0,1-.33-.81,1.11,1.11,0,0,1,.33-.82,1.14,1.14,0,0,1,.84-.33A1.17,1.17,0,0,1,658.08,132.68Zm0,4.29v9.61H656.4V137Z" style="fill:#1d1d1b"/><path d="M668.22,145.21a1.26,1.26,0,0,0,.61.42l-.39,1.17a2.51,2.51,0,0,1-1.2-.42,1.92,1.92,0,0,1-.68-1,3.22,3.22,0,0,1-2.86,1.44,3,3,0,0,1-2.24-.8,2.8,2.8,0,0,1-.83-2.1,2.75,2.75,0,0,1,1.11-2.35,5.14,5.14,0,0,1,3.13-.82h1.47V140a1.86,1.86,0,0,0-.49-1.46,2.18,2.18,0,0,0-1.51-.44,8.45,8.45,0,0,0-2.59.51l-.42-1.22a9.63,9.63,0,0,1,3.32-.66,3.47,3.47,0,0,1,2.53.83,3.16,3.16,0,0,1,.84,2.36v4.4A1.55,1.55,0,0,0,668.22,145.21Zm-1.88-1.16v-2.21h-1.25c-1.78,0-2.67.66-2.67,2a1.83,1.83,0,0,0,.42,1.3,1.66,1.66,0,0,0,1.24.43A2.49,2.49,0,0,0,666.34,144.05Z" style="fill:#1d1d1b"/><path d="M562.92,174.52l-.95-3.16h-4.76l-1,3.16h-1.75l4-12.57h2.19l4,12.57ZM557.63,170h3.92l-1.95-6.57Z" style="fill:#1d1d1b"/><path d="M578.14,165.48a3.1,3.1,0,0,1,.71,2.14v6.9h-1.68v-6.66q0-1.86-1.35-1.86a1.84,1.84,0,0,0-1.2.41,5.59,5.59,0,0,0-1.06,1.29v6.82h-1.68v-6.66q0-1.86-1.35-1.86a1.81,1.81,0,0,0-1.22.42,5.43,5.43,0,0,0-1,1.28v6.82h-1.68V164.9H568l.15,1.41a3.21,3.21,0,0,1,2.77-1.62,2.53,2.53,0,0,1,1.52.45,2.58,2.58,0,0,1,.91,1.28,4.41,4.41,0,0,1,1.25-1.29,2.92,2.92,0,0,1,1.61-.44A2.43,2.43,0,0,1,578.14,165.48Z" style="fill:#1d1d1b"/><path d="M589.45,170.29h-6.13a3.75,3.75,0,0,0,.8,2.33,2.33,2.33,0,0,0,1.79.75,4,4,0,0,0,1.28-.2,5.14,5.14,0,0,0,1.22-.64l.73,1a5.28,5.28,0,0,1-3.36,1.21,3.89,3.89,0,0,1-3.13-1.32,5.41,5.41,0,0,1-1.12-3.61,6.66,6.66,0,0,1,.49-2.65,4.19,4.19,0,0,1,1.38-1.82,3.5,3.5,0,0,1,2.13-.65,3.58,3.58,0,0,1,2.93,1.25,5.41,5.41,0,0,1,1,3.49C589.49,169.71,589.47,170,589.45,170.29Zm-1.62-1.35a3.51,3.51,0,0,0-.57-2.17,2,2,0,0,0-1.7-.75c-1.37,0-2.12,1-2.24,3h4.51Zm-.81-9,.75,1.4-3.87,1.57-.51-.89Z" style="fill:#1d1d1b"/><path d="M597.29,164.8l-.31,1.64a3.13,3.13,0,0,0-.84-.11,1.81,1.81,0,0,0-1.44.65,4.87,4.87,0,0,0-.85,2.05v5.49h-1.68V164.9h1.44l.16,2a3.8,3.8,0,0,1,1-1.63,2.35,2.35,0,0,1,1.54-.54A3.51,3.51,0,0,1,597.29,164.8Z" style="fill:#1d1d1b"/><path d="M600.89,160.62a1.11,1.11,0,0,1,.33.82,1.07,1.07,0,0,1-.33.81,1.2,1.2,0,0,1-.86.32,1.17,1.17,0,0,1-.84-.32,1.07,1.07,0,0,1-.33-.81,1.11,1.11,0,0,1,.33-.82,1.14,1.14,0,0,1,.84-.33A1.17,1.17,0,0,1,600.89,160.62Zm0,4.28v9.62h-1.68V164.9Z" style="fill:#1d1d1b"/><path d="M609.43,164.93a4.34,4.34,0,0,1,1.36.8l-.8,1.05a4,4,0,0,0-1-.53,3.08,3.08,0,0,0-1.07-.18,2.09,2.09,0,0,0-1.82.93,4.85,4.85,0,0,0-.64,2.76,4.54,4.54,0,0,0,.64,2.69,2.11,2.11,0,0,0,1.82.86,2.91,2.91,0,0,0,1-.17,5.15,5.15,0,0,0,1.06-.55l.76,1.09a4.57,4.57,0,0,1-2.93,1.06,3.82,3.82,0,0,1-3.08-1.32,5.43,5.43,0,0,1-1.12-3.63,6.57,6.57,0,0,1,.51-2.68,4.16,4.16,0,0,1,1.45-1.79,3.93,3.93,0,0,1,2.24-.63A4.92,4.92,0,0,1,609.43,164.93Z" style="fill:#1d1d1b"/><path d="M619.75,173.14a1.24,1.24,0,0,0,.6.43l-.38,1.17a2.51,2.51,0,0,1-1.2-.42,1.92,1.92,0,0,1-.68-1,3.22,3.22,0,0,1-2.86,1.44,3.07,3.07,0,0,1-2.25-.81,2.81,2.81,0,0,1-.82-2.09,2.77,2.77,0,0,1,1.11-2.36,5.17,5.17,0,0,1,3.12-.82h1.48V168a1.86,1.86,0,0,0-.49-1.46,2.23,2.23,0,0,0-1.51-.44,8.45,8.45,0,0,0-2.59.51l-.42-1.22a9.56,9.56,0,0,1,3.32-.65,3.43,3.43,0,0,1,2.53.83,3.16,3.16,0,0,1,.84,2.36v4.39A1.55,1.55,0,0,0,619.75,173.14ZM617.87,172v-2.2h-1.26c-1.77,0-2.66.65-2.66,2a1.79,1.79,0,0,0,.42,1.29,1.64,1.64,0,0,0,1.24.44A2.51,2.51,0,0,0,617.87,172Z" style="fill:#1d1d1b"/><path d="M635.28,161v13.48H633.8l-.17-1.33a3.57,3.57,0,0,1-1.18,1.14,3.16,3.16,0,0,1-1.59.41,3.09,3.09,0,0,1-2.67-1.35,6.15,6.15,0,0,1-1-3.63,7,7,0,0,1,.46-2.63,4,4,0,0,1,1.31-1.8,3.24,3.24,0,0,1,2-.64,3.45,3.45,0,0,1,2.59,1.18v-5Zm-2.74,12A4.14,4.14,0,0,0,633.6,172v-4.7a3.66,3.66,0,0,0-1-.94,2.29,2.29,0,0,0-1.22-.32,2,2,0,0,0-1.72.93,5.06,5.06,0,0,0-.61,2.77,5.42,5.42,0,0,0,.56,2.77,1.81,1.81,0,0,0,1.63.92A2.32,2.32,0,0,0,632.54,173.05Z" style="fill:#1d1d1b"/><path d="M645.5,166a5.54,5.54,0,0,1,1.12,3.66,6.41,6.41,0,0,1-.51,2.64,4,4,0,0,1-1.48,1.77,4.09,4.09,0,0,1-2.29.63,3.89,3.89,0,0,1-3.16-1.35,5.55,5.55,0,0,1-1.13-3.67,6.33,6.33,0,0,1,.51-2.63,3.87,3.87,0,0,1,1.48-1.77,4.15,4.15,0,0,1,2.32-.63A3.85,3.85,0,0,1,645.5,166Zm-5.64,3.68c0,2.45.82,3.67,2.48,3.67s2.48-1.23,2.48-3.69S644,166,642.36,166,639.86,167.26,639.86,169.72Z" style="fill:#1d1d1b"/><path d="M663.13,174.52h-2.31l-5.11-10.67c.07.84.13,1.61.17,2.32s.07,1.57.07,2.58v5.77h-1.63V162h2.26l5.17,10.69c0-.32-.09-.87-.15-1.66s-.09-1.51-.09-2.17V162h1.62Z" style="fill:#1d1d1b"/><path d="M673.45,166a5.54,5.54,0,0,1,1.12,3.66,6.41,6.41,0,0,1-.51,2.64,4,4,0,0,1-1.48,1.77,4.09,4.09,0,0,1-2.29.63,3.89,3.89,0,0,1-3.16-1.35,5.55,5.55,0,0,1-1.13-3.67,6.33,6.33,0,0,1,.51-2.63,3.87,3.87,0,0,1,1.48-1.77,4.12,4.12,0,0,1,2.31-.63A3.87,3.87,0,0,1,673.45,166Zm-5.65,3.68q0,3.67,2.49,3.67t2.48-3.69q0-3.66-2.47-3.66C668.64,166,667.8,167.26,667.8,169.72Z" style="fill:#1d1d1b"/><path d="M682.47,164.8l-.31,1.64a3.13,3.13,0,0,0-.84-.11,1.81,1.81,0,0,0-1.44.65A5,5,0,0,0,679,169v5.49h-1.67V164.9h1.44l.16,2a3.71,3.71,0,0,1,1-1.63,2.35,2.35,0,0,1,1.53-.54A3.59,3.59,0,0,1,682.47,164.8Z" style="fill:#1d1d1b"/><path d="M689.24,174.08a3.67,3.67,0,0,1-2.15.66,2.58,2.58,0,0,1-1.91-.7,2.8,2.8,0,0,1-.68-2v-5.8h-1.68v-1.3h1.68v-2.17l1.67-.2v2.37h2.29l-.19,1.3h-2.1v5.73a1.71,1.71,0,0,0,.27,1.08,1,1,0,0,0,.88.34,2.8,2.8,0,0,0,1.28-.38Z" style="fill:#1d1d1b"/><path d="M698.2,170.29h-6.13a3.75,3.75,0,0,0,.8,2.33,2.33,2.33,0,0,0,1.79.75,4.09,4.09,0,0,0,1.28-.2,5.34,5.34,0,0,0,1.22-.64l.73,1a5.28,5.28,0,0,1-3.36,1.21,3.89,3.89,0,0,1-3.13-1.32,5.36,5.36,0,0,1-1.12-3.61,6.85,6.85,0,0,1,.48-2.65,4.29,4.29,0,0,1,1.39-1.82,3.5,3.5,0,0,1,2.13-.65,3.58,3.58,0,0,1,2.93,1.25,5.41,5.41,0,0,1,1,3.49C698.23,169.71,698.22,170,698.2,170.29Zm-1.63-1.35a3.58,3.58,0,0,0-.56-2.17,2,2,0,0,0-1.7-.75c-1.37,0-2.12,1-2.24,3h4.5Z" style="fill:#1d1d1b"/><path d="M562.92,202.63l-.95-3.16h-4.76l-1,3.16h-1.75l4-12.57h2.19l4,12.57Zm-5.29-4.56h3.92l-1.95-6.57Z" style="fill:#1d1d1b"/><path d="M578.14,193.59a3.1,3.1,0,0,1,.71,2.14v6.9h-1.68V196q0-1.86-1.35-1.86a1.79,1.79,0,0,0-1.2.41,5.73,5.73,0,0,0-1.06,1.28v6.83h-1.68V196q0-1.86-1.35-1.86a1.81,1.81,0,0,0-1.22.42,5.56,5.56,0,0,0-1,1.27v6.83h-1.68V193H568l.15,1.41a3.2,3.2,0,0,1,2.77-1.63,2.44,2.44,0,0,1,2.43,1.74,4.41,4.41,0,0,1,1.25-1.29,2.84,2.84,0,0,1,1.61-.45A2.44,2.44,0,0,1,578.14,193.59Z" style="fill:#1d1d1b"/><path d="M589.45,198.39h-6.13a3.76,3.76,0,0,0,.8,2.34,2.33,2.33,0,0,0,1.79.75,4,4,0,0,0,1.28-.2,5.54,5.54,0,0,0,1.22-.64l.73,1a5.32,5.32,0,0,1-3.36,1.2,3.88,3.88,0,0,1-3.13-1.31,5.41,5.41,0,0,1-1.12-3.61,6.75,6.75,0,0,1,.49-2.66,4.16,4.16,0,0,1,1.38-1.81,3.5,3.5,0,0,1,2.13-.66,3.56,3.56,0,0,1,2.93,1.26,5.4,5.4,0,0,1,1,3.49C589.49,197.82,589.47,198.1,589.45,198.39ZM587.83,197a3.53,3.53,0,0,0-.57-2.17,2,2,0,0,0-1.7-.74c-1.37,0-2.12,1-2.24,3h4.51Zm-.81-9,.75,1.41L583.9,191l-.51-.9Z" style="fill:#1d1d1b"/><path d="M597.29,192.9l-.31,1.64a3.59,3.59,0,0,0-.84-.11,1.79,1.79,0,0,0-1.44.66,4.88,4.88,0,0,0-.85,2v5.5h-1.68V193h1.44l.16,2a3.82,3.82,0,0,1,1-1.62,2.36,2.36,0,0,1,1.54-.55A4,4,0,0,1,597.29,192.9Z" style="fill:#1d1d1b"/><path d="M600.89,188.72a1.13,1.13,0,0,1,.33.83,1.1,1.1,0,0,1-.33.81,1.2,1.2,0,0,1-.86.32,1.17,1.17,0,0,1-.84-.32,1.1,1.1,0,0,1-.33-.81,1.13,1.13,0,0,1,.33-.83,1.17,1.17,0,0,1,.84-.32A1.2,1.2,0,0,1,600.89,188.72Zm0,4.29v9.62h-1.68V193Z" style="fill:#1d1d1b"/><path d="M609.43,193a4.3,4.3,0,0,1,1.36.79l-.8,1.06a4.43,4.43,0,0,0-1-.54,3.33,3.33,0,0,0-1.07-.17,2.09,2.09,0,0,0-1.82.93,4.84,4.84,0,0,0-.64,2.75,4.55,4.55,0,0,0,.64,2.7,2.13,2.13,0,0,0,1.82.86,3.15,3.15,0,0,0,1-.17,5.24,5.24,0,0,0,1.06-.56l.76,1.1a4.56,4.56,0,0,1-2.93,1.05,3.82,3.82,0,0,1-3.08-1.31,5.43,5.43,0,0,1-1.12-3.63,6.57,6.57,0,0,1,.51-2.68,4.11,4.11,0,0,1,1.45-1.79,3.93,3.93,0,0,1,2.24-.64A4.92,4.92,0,0,1,609.43,193Z" style="fill:#1d1d1b"/><path d="M619.75,201.25a1.24,1.24,0,0,0,.6.43l-.38,1.16a2.62,2.62,0,0,1-1.2-.41,1.91,1.91,0,0,1-.68-1,3.2,3.2,0,0,1-2.86,1.44A3.07,3.07,0,0,1,613,202a2.82,2.82,0,0,1-.82-2.1,2.75,2.75,0,0,1,1.11-2.35,5.11,5.11,0,0,1,3.12-.82h1.48v-.71a1.86,1.86,0,0,0-.49-1.46,2.23,2.23,0,0,0-1.51-.44,8.45,8.45,0,0,0-2.59.51l-.42-1.22a9.59,9.59,0,0,1,3.32-.66,3.47,3.47,0,0,1,2.53.83,3.19,3.19,0,0,1,.84,2.37v4.39A1.55,1.55,0,0,0,619.75,201.25Zm-1.88-1.16v-2.21h-1.26c-1.77,0-2.66.66-2.66,2a1.81,1.81,0,0,0,.42,1.3,1.64,1.64,0,0,0,1.24.44A2.51,2.51,0,0,0,617.87,200.09Z" style="fill:#1d1d1b"/><path d="M629.66,190.06v11.05h5.16l-.2,1.52h-6.7V190.06Z" style="fill:#1d1d1b"/><path d="M643.6,201.25a1.2,1.2,0,0,0,.6.43l-.39,1.16a2.62,2.62,0,0,1-1.2-.41,1.9,1.9,0,0,1-.67-1,3.21,3.21,0,0,1-2.87,1.44,3,3,0,0,1-2.24-.8,2.78,2.78,0,0,1-.82-2.1,2.74,2.74,0,0,1,1.1-2.35,5.16,5.16,0,0,1,3.13-.82h1.48v-.71a1.87,1.87,0,0,0-.5-1.46,2.23,2.23,0,0,0-1.51-.44,8.45,8.45,0,0,0-2.59.51l-.42-1.22a9.63,9.63,0,0,1,3.32-.66,3.46,3.46,0,0,1,2.53.83,3.15,3.15,0,0,1,.84,2.37v4.39A1.47,1.47,0,0,0,643.6,201.25Zm-1.88-1.16v-2.21h-1.26c-1.78,0-2.67.66-2.67,2a1.81,1.81,0,0,0,.42,1.3,1.66,1.66,0,0,0,1.24.44A2.52,2.52,0,0,0,641.72,200.09Z" style="fill:#1d1d1b"/><path d="M651.7,202.19a3.69,3.69,0,0,1-2.16.65,2.55,2.55,0,0,1-1.91-.7,2.81,2.81,0,0,1-.68-2v-5.8h-1.68V193H647v-2.17l1.68-.2V193h2.28l-.18,1.3h-2.1V200a1.8,1.8,0,0,0,.26,1.08,1.06,1.06,0,0,0,.89.34,2.83,2.83,0,0,0,1.28-.38Z" style="fill:#1d1d1b"/><path d="M655.11,188.72a1.13,1.13,0,0,1,.33.83,1.1,1.1,0,0,1-.33.81,1.2,1.2,0,0,1-.86.32,1.17,1.17,0,0,1-.84-.32,1.1,1.1,0,0,1-.33-.81,1.13,1.13,0,0,1,.33-.83,1.17,1.17,0,0,1,.84-.32A1.2,1.2,0,0,1,655.11,188.72Zm0,4.29v9.62h-1.68V193Z" style="fill:#1d1d1b"/><path d="M665.15,193.58a3,3,0,0,1,.74,2.15v6.9h-1.68V196a2.16,2.16,0,0,0-.38-1.44,1.47,1.47,0,0,0-1.13-.42,2.18,2.18,0,0,0-1.35.43,4.79,4.79,0,0,0-1.1,1.26v6.83h-1.68V193H660l.15,1.42a3.73,3.73,0,0,1,1.27-1.2,3.28,3.28,0,0,1,1.67-.44A2.66,2.66,0,0,1,665.15,193.58Z" style="fill:#1d1d1b"/><path d="M675.94,201.25a1.2,1.2,0,0,0,.6.43l-.38,1.16a2.62,2.62,0,0,1-1.2-.41,1.91,1.91,0,0,1-.68-1,3.21,3.21,0,0,1-2.86,1.44,3.07,3.07,0,0,1-2.25-.8,2.82,2.82,0,0,1-.82-2.1,2.75,2.75,0,0,1,1.11-2.35,5.11,5.11,0,0,1,3.12-.82h1.48v-.71a1.86,1.86,0,0,0-.49-1.46,2.26,2.26,0,0,0-1.52-.44,8.5,8.5,0,0,0-2.59.51l-.42-1.22a9.68,9.68,0,0,1,3.33-.66,3.47,3.47,0,0,1,2.53.83,3.19,3.19,0,0,1,.84,2.37v4.39A1.55,1.55,0,0,0,675.94,201.25Zm-1.88-1.16v-2.21H672.8c-1.77,0-2.66.66-2.66,2a1.81,1.81,0,0,0,.42,1.3,1.64,1.64,0,0,0,1.24.44A2.51,2.51,0,0,0,674.06,200.09Z" style="fill:#1d1d1b"/><path d="M563,218l-.2,1.39H558v4.11h4.23v1.38H558v4.31h5.22v1.38h-6.95V218Z" style="fill:#1d1d1b"/><path d="M573.05,230.56h-1.44l-.13-1.49a3.58,3.58,0,0,1-1.26,1.3,3.33,3.33,0,0,1-1.73.41,2.55,2.55,0,0,1-2-.76,3.06,3.06,0,0,1-.72-2.17V221h1.68v6.71a2.19,2.19,0,0,0,.35,1.4,1.42,1.42,0,0,0,1.13.41,2.85,2.85,0,0,0,2.41-1.66V221h1.68Z" style="fill:#1d1d1b"/><path d="M581.64,220.84l-.31,1.64a3.59,3.59,0,0,0-.84-.11,1.77,1.77,0,0,0-1.44.66,5,5,0,0,0-.86,2v5.49h-1.68V221H578l.16,2a3.61,3.61,0,0,1,1-1.62,2.3,2.3,0,0,1,1.53-.55A4.06,4.06,0,0,1,581.64,220.84Z" style="fill:#1d1d1b"/><path d="M590.31,222.08a5.55,5.55,0,0,1,1.13,3.67,6.36,6.36,0,0,1-.51,2.63,4,4,0,0,1-1.48,1.77,4.13,4.13,0,0,1-2.3.63,3.91,3.91,0,0,1-3.16-1.35,5.54,5.54,0,0,1-1.13-3.66,6.41,6.41,0,0,1,.51-2.64,4,4,0,0,1,1.48-1.77,4.17,4.17,0,0,1,2.32-.63A3.84,3.84,0,0,1,590.31,222.08Zm-5.64,3.69q0,3.66,2.48,3.66t2.48-3.68q0-3.67-2.46-3.67T584.67,225.77Z" style="fill:#1d1d1b"/><path d="M601.32,222a6.7,6.7,0,0,1,.86,3.71,6.23,6.23,0,0,1-1,3.65,3.23,3.23,0,0,1-2.79,1.38,3.1,3.1,0,0,1-2.52-1.09v4.56l-1.68.2V221h1.44l.13,1.3a3.63,3.63,0,0,1,1.28-1.13,3.32,3.32,0,0,1,1.57-.39A3,3,0,0,1,601.32,222Zm-.94,3.71c0-2.46-.73-3.69-2.17-3.69a2.17,2.17,0,0,0-1.3.42,4.06,4.06,0,0,0-1,1.08v4.69a2.57,2.57,0,0,0,.91.86,2.48,2.48,0,0,0,1.2.3Q600.39,229.41,600.38,225.75Z" style="fill:#1d1d1b"/><path d="M611.72,229.19a1.27,1.27,0,0,0,.61.43l-.39,1.16a2.51,2.51,0,0,1-1.2-.42,2,2,0,0,1-.68-1,3.22,3.22,0,0,1-2.86,1.44A3,3,0,0,1,605,230a2.79,2.79,0,0,1-.83-2.1,2.75,2.75,0,0,1,1.11-2.35,5.14,5.14,0,0,1,3.13-.82h1.48V224a1.87,1.87,0,0,0-.5-1.46,2.23,2.23,0,0,0-1.51-.44,8.45,8.45,0,0,0-2.59.51l-.42-1.22a9.63,9.63,0,0,1,3.32-.66,3.46,3.46,0,0,1,2.53.83,3.16,3.16,0,0,1,.84,2.36v4.4A1.55,1.55,0,0,0,611.72,229.19ZM609.85,228v-2.21h-1.26c-1.78,0-2.67.66-2.67,2a1.83,1.83,0,0,0,.42,1.3,1.66,1.66,0,0,0,1.24.43A2.51,2.51,0,0,0,609.85,228Z" style="fill:#1d1d1b"/></g><g id="preto" data-name="preto"><path d="M542.31,24a5.92,5.92,0,0,1,1.58.95l-.95,1.12a3.78,3.78,0,0,0-2.42-.93,3.08,3.08,0,0,0-2.53,1.2,6.21,6.21,0,0,0-1,3.87A6.28,6.28,0,0,0,538,34a3,3,0,0,0,2.52,1.23,3.36,3.36,0,0,0,1.4-.27,7.89,7.89,0,0,0,1.28-.77l.86,1.1a4.74,4.74,0,0,1-1.5,1,5.13,5.13,0,0,1-2.09.4,4.83,4.83,0,0,1-4.59-3,8.42,8.42,0,0,1-.67-3.53,8.23,8.23,0,0,1,.69-3.53,5.18,5.18,0,0,1,1.88-2.22,4.87,4.87,0,0,1,2.65-.75A5.5,5.5,0,0,1,542.31,24Z" style="fill:#1d1d1b"/><path d="M548.42,21.9l.74,1.4-3.86,1.57-.51-.89Zm-.61,5v9.61h-1.67V26.9Z" style="fill:#1d1d1b"/><path d="M556.41,26.79l-.31,1.64a3.59,3.59,0,0,0-.84-.11,1.77,1.77,0,0,0-1.44.66,4.82,4.82,0,0,0-.86,2v5.49h-1.68V26.9h1.44l.17,2a3.62,3.62,0,0,1,1-1.63,2.35,2.35,0,0,1,1.53-.54A3.59,3.59,0,0,1,556.41,26.79Z" style="fill:#1d1d1b"/><path d="M563.39,26.92a4.38,4.38,0,0,1,1.37.8l-.8,1.06a3.65,3.65,0,0,0-1-.54,3,3,0,0,0-1.06-.18,2.08,2.08,0,0,0-1.82.94,4.82,4.82,0,0,0-.64,2.75,4.6,4.6,0,0,0,.63,2.69,2.14,2.14,0,0,0,1.83.87,2.91,2.91,0,0,0,1-.18,5.41,5.41,0,0,0,1.06-.55l.76,1.09a4.52,4.52,0,0,1-2.93,1.06,3.85,3.85,0,0,1-3.08-1.31,5.42,5.42,0,0,1-1.12-3.63,6.59,6.59,0,0,1,.51-2.69,4.08,4.08,0,0,1,1.45-1.78,3.86,3.86,0,0,1,2.24-.64A4.82,4.82,0,0,1,563.39,26.92Z" style="fill:#1d1d1b"/><path d="M574.2,36.51h-1.45l-.12-1.5a3.7,3.7,0,0,1-1.26,1.31,3.5,3.5,0,0,1-1.74.41,2.57,2.57,0,0,1-2-.77,3.08,3.08,0,0,1-.71-2.17V26.9h1.68v6.71A2.21,2.21,0,0,0,569,35a1.42,1.42,0,0,0,1.13.41,2.88,2.88,0,0,0,2.41-1.66V26.9h1.68Z" style="fill:#1d1d1b"/><path d="M578.11,36.17a2.14,2.14,0,0,1-.54-1.56V23l1.68-.2V34.58a1,1,0,0,0,.13.58.57.57,0,0,0,.47.18,1.52,1.52,0,0,0,.62-.11l.44,1.17a2.73,2.73,0,0,1-1.33.33A2,2,0,0,1,578.11,36.17Z" style="fill:#1d1d1b"/><path d="M589.77,28a5.59,5.59,0,0,1,1.12,3.66,6.41,6.41,0,0,1-.51,2.64,4,4,0,0,1-1.48,1.77,4.13,4.13,0,0,1-2.3.63,3.91,3.91,0,0,1-3.16-1.35,5.55,5.55,0,0,1-1.13-3.67,6.39,6.39,0,0,1,.51-2.63,4,4,0,0,1,1.48-1.77,4.17,4.17,0,0,1,2.32-.63A3.87,3.87,0,0,1,589.77,28Zm-5.65,3.68q0,3.67,2.48,3.67t2.48-3.69q0-3.66-2.46-3.66T584.12,31.71Z" style="fill:#1d1d1b"/><path d="M600.17,22.61a1.11,1.11,0,0,1,.33.82,1.07,1.07,0,0,1-.33.81,1.15,1.15,0,0,1-.86.32,1.11,1.11,0,0,1-.83-.32,1.07,1.07,0,0,1-.33-.81,1.13,1.13,0,0,1,1.16-1.15A1.15,1.15,0,0,1,600.17,22.61Zm0,4.29v9.61h-1.68V26.9Z" style="fill:#1d1d1b"/><path d="M610.21,27.46a3,3,0,0,1,.75,2.16v6.89h-1.68V29.85a2.1,2.1,0,0,0-.39-1.44,1.44,1.44,0,0,0-1.13-.42,2.21,2.21,0,0,0-1.35.44,4.47,4.47,0,0,0-1.09,1.26v6.82h-1.68V26.9h1.44l.15,1.42a3.79,3.79,0,0,1,1.26-1.2,3.21,3.21,0,0,1,1.67-.44A2.68,2.68,0,0,1,610.21,27.46Z" style="fill:#1d1d1b"/><path d="M619.18,36.07a3.67,3.67,0,0,1-2.15.66,2.54,2.54,0,0,1-1.91-.7,2.84,2.84,0,0,1-.68-2v-5.8h-1.68V26.9h1.68V24.73l1.68-.2V26.9h2.28l-.19,1.29h-2.09v5.73a1.84,1.84,0,0,0,.26,1.09,1.08,1.08,0,0,0,.89.33,2.67,2.67,0,0,0,1.27-.38Z" style="fill:#1d1d1b"/><path d="M628.14,32.28H622a3.7,3.7,0,0,0,.8,2.33,2.34,2.34,0,0,0,1.79.75,3.78,3.78,0,0,0,1.28-.2,5.14,5.14,0,0,0,1.22-.64l.73,1a5.32,5.32,0,0,1-3.36,1.2,3.91,3.91,0,0,1-3.13-1.31,5.44,5.44,0,0,1-1.12-3.62,6.7,6.7,0,0,1,.49-2.65,4.1,4.1,0,0,1,1.38-1.81,3.5,3.5,0,0,1,2.13-.66,3.56,3.56,0,0,1,2.93,1.26,5.33,5.33,0,0,1,1,3.48C628.18,31.7,628.16,32,628.14,32.28Zm-1.62-1.35a3.53,3.53,0,0,0-.57-2.17,2,2,0,0,0-1.7-.75c-1.37,0-2.12,1-2.24,3h4.51Z" style="fill:#1d1d1b"/><path d="M636,26.79l-.31,1.64a3.59,3.59,0,0,0-.84-.11,1.79,1.79,0,0,0-1.44.66,4.82,4.82,0,0,0-.85,2v5.49h-1.68V26.9h1.44l.16,2a3.71,3.71,0,0,1,1-1.63,2.35,2.35,0,0,1,1.54-.54A3.51,3.51,0,0,1,636,26.79Z" style="fill:#1d1d1b"/><path d="M644.48,27.46a3,3,0,0,1,.73,2.16v6.89h-1.67V29.85a2.1,2.1,0,0,0-.39-1.44A1.44,1.44,0,0,0,642,28a2.21,2.21,0,0,0-1.35.44,4.47,4.47,0,0,0-1.09,1.26v6.82H637.9V26.9h1.44l.15,1.42a3.79,3.79,0,0,1,1.26-1.2,3.23,3.23,0,0,1,1.67-.44A2.71,2.71,0,0,1,644.48,27.46Z" style="fill:#1d1d1b"/><path d="M655.35,28a5.54,5.54,0,0,1,1.12,3.66,6.41,6.41,0,0,1-.51,2.64,4,4,0,0,1-1.48,1.77,4.11,4.11,0,0,1-2.3.63A3.87,3.87,0,0,1,649,35.38a5.5,5.5,0,0,1-1.13-3.67,6.39,6.39,0,0,1,.51-2.63,4,4,0,0,1,1.47-1.77,4.17,4.17,0,0,1,2.32-.63A3.87,3.87,0,0,1,655.35,28Zm-5.65,3.68q0,3.67,2.48,3.67t2.49-3.69c0-2.44-.83-3.66-2.47-3.66S649.7,29.26,649.7,31.71Z" style="fill:#1d1d1b"/><path d="M663.44,31.51V30.09h5.16v1.42Z" style="fill:#1d1d1b"/><path d="M680.62,24.56a3.22,3.22,0,0,1,1.74,2.9,4.87,4.87,0,0,1-.5,2.14,10.72,10.72,0,0,1-1.54,2.2c-.7.79-1.75,1.9-3.16,3.31h5.49l-.2,1.4h-7.21V35.18q2.44-2.53,3.47-3.71a10.39,10.39,0,0,0,1.46-2.06,4.15,4.15,0,0,0,.44-1.87,1.88,1.88,0,0,0-2-2,2.62,2.62,0,0,0-1.31.31,5,5,0,0,0-1.21,1L675,26a5,5,0,0,1,1.66-1.39,4.56,4.56,0,0,1,2-.46A4.13,4.13,0,0,1,680.62,24.56Z" style="fill:#1d1d1b"/><path d="M691.71,25.74a8.69,8.69,0,0,1,1,4.68,8.8,8.8,0,0,1-1,4.69,3.69,3.69,0,0,1-6.11,0,8.8,8.8,0,0,1-1-4.69,8.69,8.69,0,0,1,1-4.68,3.69,3.69,0,0,1,6.11,0Zm-4.82.88a9.28,9.28,0,0,0-.57,3.8,9.28,9.28,0,0,0,.57,3.8,1.9,1.9,0,0,0,3.51,0,9.05,9.05,0,0,0,.59-3.8,9.06,9.06,0,0,0-.59-3.79,1.9,1.9,0,0,0-3.51,0Z" style="fill:#1d1d1b"/><path d="M699.63,24.31v12.2H698V26.09l-2.85,1.74-.73-1.19,3.78-2.33Z" style="fill:#1d1d1b"/><path d="M709.79,25.74a8.78,8.78,0,0,1,1,4.68,8.89,8.89,0,0,1-1,4.69,3.69,3.69,0,0,1-6.11,0,8.79,8.79,0,0,1-1-4.69,8.68,8.68,0,0,1,1-4.68,3.69,3.69,0,0,1,6.11,0Zm-4.82.88a9.28,9.28,0,0,0-.57,3.8,9.28,9.28,0,0,0,.57,3.8,1.9,1.9,0,0,0,3.51,0,9.05,9.05,0,0,0,.59-3.8,9.06,9.06,0,0,0-.59-3.79,1.9,1.9,0,0,0-3.51,0Z" style="fill:#1d1d1b"/><path d="M542.31,52.73a5.67,5.67,0,0,1,1.58,1l-.95,1.11a3.78,3.78,0,0,0-2.42-.93A3.06,3.06,0,0,0,538,55.07a6.2,6.2,0,0,0-1,3.86,6.29,6.29,0,0,0,1,3.83A3,3,0,0,0,540.5,64a3.24,3.24,0,0,0,1.4-.28,7.13,7.13,0,0,0,1.28-.76L544,64a4.76,4.76,0,0,1-1.5,1,5.31,5.31,0,0,1-2.1.4,4.82,4.82,0,0,1-4.58-3,8.36,8.36,0,0,1-.67-3.53,8.26,8.26,0,0,1,.69-3.53,5.21,5.21,0,0,1,1.88-2.21,4.84,4.84,0,0,1,2.65-.75A5.5,5.5,0,0,1,542.31,52.73Z" style="fill:#1d1d1b"/><path d="M548.42,50.62l.74,1.4-3.87,1.57-.5-.89Zm-.61,5v9.62h-1.68V55.61Z" style="fill:#1d1d1b"/><path d="M556.41,55.5l-.31,1.65a3.18,3.18,0,0,0-.84-.11,1.79,1.79,0,0,0-1.44.65,4.87,4.87,0,0,0-.86,2.05v5.49h-1.68V55.61h1.44l.17,2a3.62,3.62,0,0,1,1-1.63,2.33,2.33,0,0,1,1.53-.54A4.07,4.07,0,0,1,556.41,55.5Z" style="fill:#1d1d1b"/><path d="M563.39,55.64a4.38,4.38,0,0,1,1.37.8l-.8,1.05a3.89,3.89,0,0,0-1-.53,3,3,0,0,0-1.06-.18,2.09,2.09,0,0,0-1.82.93,4.85,4.85,0,0,0-.65,2.76,4.61,4.61,0,0,0,.64,2.69,2.14,2.14,0,0,0,1.83.86,3,3,0,0,0,1-.17A5.41,5.41,0,0,0,564,63.3l.76,1.09a4.58,4.58,0,0,1-2.94,1.06,3.82,3.82,0,0,1-3.07-1.32,5.38,5.38,0,0,1-1.12-3.63,6.57,6.57,0,0,1,.51-2.68A4.16,4.16,0,0,1,559.59,56a3.9,3.9,0,0,1,2.23-.63A4.84,4.84,0,0,1,563.39,55.64Z" style="fill:#1d1d1b"/><path d="M574.19,65.23h-1.44l-.12-1.5A3.79,3.79,0,0,1,571.37,65a3.5,3.5,0,0,1-1.74.41,2.57,2.57,0,0,1-2-.77,3.08,3.08,0,0,1-.71-2.17v-6.9h1.68v6.72a2.11,2.11,0,0,0,.35,1.39,1.37,1.37,0,0,0,1.13.41,2.86,2.86,0,0,0,2.41-1.66V55.61h1.67Z" style="fill:#1d1d1b"/><path d="M578.11,64.89a2.14,2.14,0,0,1-.54-1.56V51.75l1.68-.2V63.3a1,1,0,0,0,.13.58.56.56,0,0,0,.47.18,1.71,1.71,0,0,0,.62-.11l.44,1.17a2.74,2.74,0,0,1-1.34.33A1.94,1.94,0,0,1,578.11,64.89Z" style="fill:#1d1d1b"/><path d="M589.76,56.75a5.54,5.54,0,0,1,1.13,3.66,6.58,6.58,0,0,1-.51,2.64,4,4,0,0,1-1.48,1.77,4.13,4.13,0,0,1-2.3.63,3.91,3.91,0,0,1-3.16-1.35,5.55,5.55,0,0,1-1.13-3.67,6.33,6.33,0,0,1,.51-2.63A3.93,3.93,0,0,1,584.3,56a4.17,4.17,0,0,1,2.32-.63A3.84,3.84,0,0,1,589.76,56.75Zm-5.64,3.68q0,3.68,2.48,3.67t2.48-3.69q0-3.66-2.46-3.66C585,56.75,584.12,58,584.12,60.43Z" style="fill:#1d1d1b"/><path d="M605.72,61h-6.13a3.75,3.75,0,0,0,.8,2.33,2.33,2.33,0,0,0,1.79.75,4,4,0,0,0,1.28-.2,5.34,5.34,0,0,0,1.22-.64l.73,1a5.28,5.28,0,0,1-3.36,1.21,3.89,3.89,0,0,1-3.13-1.32,5.36,5.36,0,0,1-1.12-3.61,6.85,6.85,0,0,1,.48-2.65,4.29,4.29,0,0,1,1.39-1.82,3.49,3.49,0,0,1,2.12-.65,3.59,3.59,0,0,1,2.94,1.25,5.41,5.41,0,0,1,1,3.49C605.75,60.42,605.74,60.7,605.72,61Zm-1.63-1.35a3.51,3.51,0,0,0-.56-2.17,2,2,0,0,0-1.7-.75c-1.37,0-2.12,1-2.24,3h4.5Z" style="fill:#1d1d1b"/><path d="M612.12,60.08l3.34,5.15h-2l-2.35-4.07-2.39,4.07h-1.9l3.36-5.07-3-4.55h2l2,3.53,2-3.53h1.9Z" style="fill:#1d1d1b"/><path d="M622.14,64.79a3.7,3.7,0,0,1-2.16.66,2.55,2.55,0,0,1-1.9-.7,2.8,2.8,0,0,1-.69-2v-5.8h-1.68v-1.3h1.68V53.44l1.68-.2v2.37h2.28l-.18,1.3h-2.1v5.73a1.71,1.71,0,0,0,.27,1.08,1,1,0,0,0,.88.34,2.83,2.83,0,0,0,1.28-.38Z" style="fill:#1d1d1b"/><path d="M631.09,61H625a3.75,3.75,0,0,0,.81,2.33,2.3,2.3,0,0,0,1.78.75,4,4,0,0,0,1.28-.2,5,5,0,0,0,1.22-.64l.73,1a5.27,5.27,0,0,1-3.35,1.21,3.89,3.89,0,0,1-3.13-1.32,5.36,5.36,0,0,1-1.12-3.61,6.85,6.85,0,0,1,.48-2.65,4.14,4.14,0,0,1,1.39-1.82,3.49,3.49,0,0,1,2.12-.65,3.59,3.59,0,0,1,2.94,1.25,5.41,5.41,0,0,1,1,3.49A8.51,8.51,0,0,1,631.09,61Zm-1.62-1.35a3.51,3.51,0,0,0-.57-2.17,2,2,0,0,0-1.69-.75c-1.38,0-2.12,1-2.25,3h4.51Z" style="fill:#1d1d1b"/><path d="M638.94,55.5l-.31,1.65a3.13,3.13,0,0,0-.84-.11,1.79,1.79,0,0,0-1.44.65,4.87,4.87,0,0,0-.86,2.05v5.49h-1.68V55.61h1.44l.17,2a3.62,3.62,0,0,1,1-1.63A2.33,2.33,0,0,1,638,55.4,4.07,4.07,0,0,1,638.94,55.5Z" style="fill:#1d1d1b"/><path d="M647.43,56.18a3,3,0,0,1,.74,2.15v6.9h-1.68V58.57a2.16,2.16,0,0,0-.38-1.44,1.47,1.47,0,0,0-1.13-.42,2.21,2.21,0,0,0-1.35.44,4.48,4.48,0,0,0-1.1,1.26v6.82h-1.68V55.61h1.44l.15,1.43a3.86,3.86,0,0,1,1.27-1.21,3.27,3.27,0,0,1,1.67-.43A2.69,2.69,0,0,1,647.43,56.18Z" style="fill:#1d1d1b"/><path d="M658.3,56.75a5.54,5.54,0,0,1,1.13,3.66,6.41,6.41,0,0,1-.52,2.64,4,4,0,0,1-1.47,1.77,4.13,4.13,0,0,1-2.3.63A3.91,3.91,0,0,1,652,64.1a5.55,5.55,0,0,1-1.13-3.67,6.33,6.33,0,0,1,.51-2.63A3.93,3.93,0,0,1,652.84,56a4.15,4.15,0,0,1,2.32-.63A3.85,3.85,0,0,1,658.3,56.75Zm-5.64,3.68c0,2.45.82,3.67,2.48,3.67s2.48-1.23,2.48-3.69-.82-3.66-2.46-3.66S652.66,58,652.66,60.43Z" style="fill:#1d1d1b"/><path d="M666.39,60.23V58.81h5.17v1.42Z" style="fill:#1d1d1b"/><path d="M683.57,53.28a3.23,3.23,0,0,1,1.29,1.19,3.31,3.31,0,0,1,.45,1.71,4.69,4.69,0,0,1-.5,2.13,10.13,10.13,0,0,1-1.54,2.21q-1,1.18-3.16,3.3h5.5l-.21,1.41h-7.2V63.9q2.44-2.53,3.46-3.72a10.19,10.19,0,0,0,1.47-2,4.15,4.15,0,0,0,.43-1.88,1.88,1.88,0,0,0-2-2,2.67,2.67,0,0,0-1.31.31,5,5,0,0,0-1.2,1l-1.1-.88a5,5,0,0,1,1.66-1.38,4.45,4.45,0,0,1,2-.46A4.06,4.06,0,0,1,683.57,53.28Z" style="fill:#1d1d1b"/><path d="M694.66,54.46a8.69,8.69,0,0,1,1,4.68,8.73,8.73,0,0,1-1,4.68,3.68,3.68,0,0,1-6.11,0,8.73,8.73,0,0,1-1-4.68,8.69,8.69,0,0,1,1-4.68,3.69,3.69,0,0,1,6.11,0Zm-4.81.88a9,9,0,0,0-.58,3.8,9.11,9.11,0,0,0,.58,3.8,1.9,1.9,0,0,0,3.51,0,9.11,9.11,0,0,0,.58-3.8,9.06,9.06,0,0,0-.58-3.79,1.89,1.89,0,0,0-1.75-1.18A1.86,1.86,0,0,0,689.85,55.34Z" style="fill:#1d1d1b"/><path d="M702.59,53V65.23h-1.68V54.81l-2.85,1.74-.72-1.19L701.11,53Z" style="fill:#1d1d1b"/><path d="M710.49,53V65.23h-1.68V54.81L706,56.55l-.73-1.19L709,53Z" style="fill:#1d1d1b"/></g><path d="M185.68,489.35c-4.6-1.22-9.15-2.59-13.63-4.08L247.8,258.11,185.68,489.58" style="fill:#a1f000"/><path d="M185.68,489.35c-4.6-1.22-9.15-2.59-13.63-4.08L247.8,258.11,185.68,489.58" style="fill:none;stroke:#fff;stroke-miterlimit:10;stroke-width:2px"/><path d="M455.78,377.1c-37.57,69.26-121.42,121.53-208,120.37a253.29,253.29,0,0,1-62.12-8.12L247.8,258.11Z" style="fill:#f2887c"/><path d="M455.78,377.1c-37.57,69.26-121.42,121.53-208,120.37a253.29,253.29,0,0,1-62.12-8.12L247.8,258.11Z" style="fill:none;stroke:#fff;stroke-miterlimit:10;stroke-width:2px"/><path d="M487.36,272.74c-3.38,35.2-11.75,71.94-31.58,104.36l-208-119,238.43,14.56" style="fill:#e55843"/><path d="M487.36,272.74c-3.38,35.2-11.75,71.94-31.58,104.36l-208-119,238.43,14.56" style="fill:none;stroke:#fff;stroke-miterlimit:10;stroke-width:2px"/><path d="M7.77,257.44c0,106.09,68.83,196.11,164.28,227.83L247.8,258.11V17.4c-132.56,0-240,107.47-240,240" style="fill:#c4b0f4"/><path d="M7.77,257.44c0,106.09,68.83,196.11,164.28,227.83L247.8,258.11V17.4C115.24,17.4,7.77,124.87,7.77,257.44Z" style="fill:none;stroke:#fff;stroke-miterlimit:10"/><path d="M247.8,258.11,238.34,17.59C389.05,14.5,487.83,124.87,487.83,257.44c0,5.14-.15,10.23-.47,15.3Z" style="fill:#874cd3"/><path d="M247.8,258.11,238.34,17.59C389.05,14.5,487.83,124.87,487.83,257.44c0,5.14-.15,10.23-.47,15.3Z" style="fill:none;stroke:#fff;stroke-miterlimit:10"/><path d="M201.87,428.93q-5.1-1.37-10.09-3l56-168L201.87,429.1" style="fill:#a1f000"/><path d="M201.87,428.93q-5.1-1.37-10.09-3l56-168L201.87,429.1" style="fill:none;stroke:#fff;stroke-miterlimit:10;stroke-width:2px"/><path d="M391.42,361.74a177.77,177.77,0,0,1-189.55,67.19L247.8,258Z" style="fill:#f2887c"/><path d="M391.42,361.74a177.77,177.77,0,0,1-189.55,67.19L247.8,258Z" style="fill:none;stroke:#fff;stroke-miterlimit:10;stroke-width:2px"/><path d="M424.93,268.76a176.67,176.67,0,0,1-33.51,93L247.8,258l176.29,10.76" style="fill:#e55843"/><path d="M424.93,268.76a176.67,176.67,0,0,1-33.51,93L247.8,258l176.29,10.76" style="fill:none;stroke:#fff;stroke-miterlimit:10;stroke-width:2px"/><path d="M247.8,258V80A177.49,177.49,0,0,1,425.28,257.45q0,5.7-.36,11.31Z" style="fill:#874cd3"/><path d="M247.8,258V80A177.49,177.49,0,0,1,425.28,257.45q0,5.7-.36,11.31Z" style="fill:none;stroke:#fff;stroke-miterlimit:10"/><path d="M70.32,257.45A177.56,177.56,0,0,0,191.78,425.91l56-168V80A177.49,177.49,0,0,0,70.32,257.45" style="fill:#c4b0f4"/><path d="M70.32,257.45A177.56,177.56,0,0,0,191.78,425.91l56-168V80A177.49,177.49,0,0,0,70.32,257.45Z" style="fill:none;stroke:#fff;stroke-miterlimit:10"/><text transform="translate(297.53 187.1)" style="font-size:27.845260620117188px;fill:#fff;font-family:FiraSans-Regular, Fira Sans">24%</text><text transform="translate(365.02 110.92)" style="font-size:27.845260620117188px;fill:#fff;font-family:FiraSans-Regular, Fira Sans">26%</text><text transform="translate(132.66 251.32)" style="font-size:27.845260620117188px;fill:#1d1d1b;font-family:FiraSans-Regular, Fira Sans">46%</text><text transform="translate(18.23 217.51)" style="font-size:27.845260620117188px;fill:#1d1d1b;font-family:FiraSans-Regular, Fira Sans">45%</text><text transform="translate(342.78 302.28)" style="font-size:27.845260620117188px;fill:#fff;font-family:FiraSans-Regular, Fira Sans">11%</text><text transform="translate(422.81 330.01)" style="font-size:27.845260620117188px;fill:#fff;font-family:FiraSans-Regular, Fira Sans">9%</text><text transform="translate(259.01 373.83)" style="font-size:27.845260620117188px;fill:#1d1d1b;font-family:FiraSans-Regular, Fira Sans">18%</text><text transform="translate(294.33 461.98)" style="font-size:27.845260620117188px;fill:#1d1d1b;font-family:FiraSans-Regular, Fira Sans">19%</text><text transform="translate(174.08 395.52)" style="font-size:27.845260620117188px;fill:#1d1d1b;font-family:FiraSans-Regular, Fira Sans">1%</text><text transform="translate(150.29 459.9)" style="font-size:27.845260620117188px;fill:#1d1d1b;font-family:FiraSans-Regular, Fira Sans">1%</text><line id="roxo-2" data-name="roxo" x1="519.58" y1="20.36" x2="519.58" y2="66.53" style="fill:none;stroke:#874cd3;stroke-miterlimit:10;stroke-width:2px"/></g></svg>