<svg id="fig-6-1" xmlns="http://www.w3.org/2000/svg" viewBox="0 0 730 421.12"><title>fig-6-1</title><line x1="366.29" y1="99.25" x2="366.29" y2="367.64" style="fill:none;stroke:#6827ab;stroke-miterlimit:10;stroke-width:2px"/><path d="M431.39,93a11.29,11.29,0,0,1-11.31,11.28H312.49A11.3,11.3,0,0,1,301.18,93v-41a11.3,11.3,0,0,1,11.31-11.28H420.08a11.29,11.29,0,0,1,11.31,11.28Z" style="fill:#6827ab"/><polyline points="366.31 278.5 231.21 278.5 231.21 361.26" style="fill:none;stroke:#6827ab;stroke-miterlimit:10;stroke-width:2px"/><polyline points="366.29 278.52 501.39 278.52 501.39 361.28" style="fill:none;stroke:#6827ab;stroke-miterlimit:10;stroke-width:2px"/><polyline points="367.66 83.1 250.42 83.1 250.42 165.86" style="fill:none;stroke:#6827ab;stroke-miterlimit:10;stroke-width:2px"/><polyline points="367.64 83.13 484.88 83.13 484.88 165.88" style="fill:none;stroke:#6827ab;stroke-miterlimit:10;stroke-width:2px"/><polyline points="193.09 172.32 164.69 172.32 164.69 69.61 78.28 69.61" style="fill:none;stroke:#6827ab;stroke-miterlimit:10;stroke-width:2px"/><line x1="78.59" y1="138.69" x2="164.69" y2="138.69" style="fill:none;stroke:#6827ab;stroke-miterlimit:10;stroke-width:2px"/><polyline points="193.09 172.32 164.69 172.32 164.69 281.15 78.28 281.15" style="fill:none;stroke:#6827ab;stroke-miterlimit:10;stroke-width:2px"/><line x1="78.59" y1="210.16" x2="164.69" y2="210.16" style="fill:none;stroke:#6827ab;stroke-miterlimit:10;stroke-width:2px"/><polyline points="640.34 138.69 569.13 138.69 569.13 174.26 484.88 174.26" style="fill:none;stroke:#6827ab;stroke-miterlimit:10;stroke-width:2px"/><polyline points="640.34 208.75 569.13 208.75 569.13 173.97 484.88 173.97" style="fill:none;stroke:#6827ab;stroke-miterlimit:10;stroke-width:2px"/><path d="M423.62,298.36a7.18,7.18,0,0,1-7.19,7.18H316.14a7.18,7.18,0,0,1-7.19-7.18V256.77a7.19,7.19,0,0,1,7.19-7.18H416.43a7.19,7.19,0,0,1,7.19,7.18Z" style="fill:#874cd3"/><path d="M307.76,193.12a7.19,7.19,0,0,1-7.19,7.18H200.28a7.19,7.19,0,0,1-7.19-7.18v-41.6a7.18,7.18,0,0,1,7.19-7.17H300.57a7.18,7.18,0,0,1,7.19,7.17Z" style="fill:#874cd3"/><path d="M135.92,224.86c0,2.58-3.07,4.67-6.86,4.67H28.11c-3.79,0-6.86-2.09-6.86-4.67V196c0-2.58,3.07-4.67,6.86-4.67h101c3.79,0,6.86,2.09,6.86,4.67Z" style="fill:#d5cdf7"/><path d="M135.92,295.57c0,2.58-3.07,4.67-6.86,4.67H28.11c-3.79,0-6.86-2.09-6.86-4.67V266.74c0-2.58,3.07-4.67,6.86-4.67h101c3.79,0,6.86,2.09,6.86,4.67Z" style="fill:#d5cdf7"/><path d="M135.92,153.1c0,2.58-3.07,4.67-6.86,4.67H28.11c-3.79,0-6.86-2.09-6.86-4.67V124.27c0-2.58,3.07-4.67,6.86-4.67h101c3.79,0,6.86,2.09,6.86,4.67Z" style="fill:#d5cdf7"/><path d="M708.75,223.17c0,2.57-3.07,4.67-6.86,4.67H600.94c-3.79,0-6.86-2.1-6.86-4.67V194.33c0-2.58,3.07-4.67,6.86-4.67H701.89c3.79,0,6.86,2.09,6.86,4.67Z" style="fill:#d5cdf7"/><path d="M423.62,375.67c0,2.58-3.07,4.67-6.86,4.67H315.81c-3.78,0-6.86-2.09-6.86-4.67V346.84c0-2.58,3.08-4.67,6.86-4.67H416.76c3.79,0,6.86,2.09,6.86,4.67Z" style="fill:#d5cdf7"/><path d="M288.54,375.67c0,2.58-3.07,4.67-6.86,4.67H180.74c-3.79,0-6.86-2.09-6.86-4.67V346.84c0-2.58,3.07-4.67,6.86-4.67H281.68c3.79,0,6.86,2.09,6.86,4.67Z" style="fill:#d5cdf7"/><path d="M558.72,375.67c0,2.58-3.07,4.67-6.86,4.67H450.92c-3.79,0-6.86-2.09-6.86-4.67V346.84c0-2.58,3.07-4.67,6.86-4.67H551.86c3.79,0,6.86,2.09,6.86,4.67Z" style="fill:#d5cdf7"/><path d="M708.75,153.1c0,2.58-3.07,4.67-6.86,4.67H600.94c-3.79,0-6.86-2.09-6.86-4.67V124.27c0-2.58,3.07-4.67,6.86-4.67H701.89c3.79,0,6.86,2.09,6.86,4.67Z" style="fill:#d5cdf7"/><path d="M135.92,84c0,2.58-3.07,4.67-6.86,4.67H28.11c-3.79,0-6.86-2.09-6.86-4.67V55.19c0-2.58,3.07-4.67,6.86-4.67h101c3.79,0,6.86,2.09,6.86,4.67Z" style="fill:#d5cdf7"/><path d="M542.22,193.12A7.19,7.19,0,0,1,535,200.3H434.74a7.19,7.19,0,0,1-7.19-7.18v-41.6a7.18,7.18,0,0,1,7.19-7.17H535a7.18,7.18,0,0,1,7.19,7.17Z" style="fill:#874cd3"/><text transform="translate(329.38 283.8)" style="font-size:15.143699645996094px;fill:#fff;font-family:FiraSans-Regular, Fira Sans">Aromáticas</text><text transform="translate(622.78 144.14)" style="font-size:15.143699645996094px;fill:#1d1d1b;font-family:FiraSans-Regular, Fira Sans">Metanol</text><text transform="translate(57.69 74.96)" style="font-size:15.143699645996094px;fill:#1d1d1b;font-family:FiraSans-Regular, Fira Sans">Eteno</text><text transform="translate(48.9 144.35)" style="font-size:15.143699645996094px;fill:#1d1d1b;font-family:FiraSans-Regular, Fira Sans">Propeno</text><text transform="translate(53.46 215.8)" style="font-size:15.143699645996094px;fill:#1d1d1b;font-family:FiraSans-Regular, Fira Sans">Buteno</text><text transform="translate(42.77 286.07)" style="font-size:15.143699645996094px;fill:#1d1d1b;font-family:FiraSans-Regular, Fira Sans">Butadieno</text><text transform="translate(623.72 214.09)" style="font-size:15.143699645996094px;fill:#1d1d1b;font-family:FiraSans-Regular, Fira Sans">Amônia</text><text transform="translate(221.17 178.33)" style="font-size:15.143699645996094px;fill:#fff;font-family:FiraSans-Regular, Fira Sans">Olefinas</text><text transform="translate(459.33 169.73)" style="font-size:15.143699645996094px;fill:#fff;font-family:FiraSans-Regular, Fira Sans">Gás de <tspan x="0.47" y="18.17">síntese</tspan></text><text transform="translate(326.44 68.21)" style="font-size:18.26066017150879px;fill:#fff;font-family:FiraSans-Regular, Fira Sans"><tspan style="letter-spacing:-0.020014009704891284em">C</tspan><tspan x="9.86" y="0">or</tspan><tspan x="27.57" y="0" style="letter-spacing:-0.029994329211063736em">r</tspan><tspan x="34.07" y="0">en</tspan><tspan x="54.73" y="0" style="letter-spacing:-0.014997164605531868em">t</tspan><tspan x="61.05" y="0">es </tspan><tspan x="2.75" y="21">de </tspan><tspan x="28.46" y="21" style="letter-spacing:-0.029994329211063736em">r</tspan><tspan x="34.96" y="21">efino</tspan></text><text transform="translate(200.93 367.64)" style="font-size:15.143699645996094px;fill:#1d1d1b;font-family:FiraSans-Regular, Fira Sans">Benzeno</text><text transform="translate(335.98 367.64)" style="font-size:15.143699645996094px;fill:#1d1d1b;font-family:FiraSans-Regular, Fira Sans">Tolueno</text><text transform="translate(479.43 367.64)" style="font-size:15.143699645996094px;fill:#1d1d1b;font-family:FiraSans-Regular, Fira Sans">Xileno</text></svg>