<svg xmlns="http://www.w3.org/2000/svg" viewBox="0 0 730 337.12"><title>fig-6-4</title><g id="fig-6-4"><path d="M607.74,289.89a24.57,24.57,0,1,1-24.57-24.57,24.57,24.57,0,0,1,24.57,24.57" style="fill:#d13f29"/><path d="M607.74,211a24.57,24.57,0,1,1-24.57-24.57A24.57,24.57,0,0,1,607.74,211" style="fill:#d13f29"/><g id="roxo"><path d="M101.45,290.16,74.73,265.59l.51-.55L102,289.61Zm514.3,0-.52-.54,35.35-34.06.52.54ZM79.54,248.8l-.49-.58,33.71-28.44.49.57Zm571.17-3.39-43.1-15.59.25-.71L651,244.71Zm-582.27-8-.71-.25,39.66-109.45.7.26Zm589.82-6.82-43.1-87.93.67-.33,43.11,87.93Z" style="fill:#6827a7"/><path d="M262.9,38.18h-3.19l-.34-6.24c-.1-1.87-.15-3.45-.15-4.75,0-.7,0-1.2,0-1.51l-2.6,10.85h-3.08l-2.78-10.88c.06.91.09,1.92.09,3.05s0,2.3-.09,3.3l-.33,6.18h-3.18l1.2-15.37h4.15l2.53,10.59,2.38-10.59h4.2Z" style="fill:#6827a7"/><path d="M274.43,27.71a6.61,6.61,0,0,1,1.49,4.58,7.51,7.51,0,0,1-.68,3.28,5,5,0,0,1-2,2.18,5.63,5.63,0,0,1-3,.78,5.32,5.32,0,0,1-4.15-1.65,6.62,6.62,0,0,1-1.49-4.59,7.49,7.49,0,0,1,.67-3.27,5.09,5.09,0,0,1,2-2.19,5.69,5.69,0,0,1,3-.78A5.25,5.25,0,0,1,274.43,27.71Zm-5.92,1.64a5.73,5.73,0,0,0-.59,2.94,5.68,5.68,0,0,0,.59,2.94,2.11,2.11,0,0,0,3.53,0,5.68,5.68,0,0,0,.59-2.94,5.74,5.74,0,0,0-.58-2.94,1.91,1.91,0,0,0-1.75-.94A2,2,0,0,0,268.51,29.35Z" style="fill:#6827a7"/><path d="M279,37.7a3.3,3.3,0,0,1-.8-2.37V21.72l3.16-.35V35.25c0,.51.21.77.64.77a1.35,1.35,0,0,0,.62-.13l.65,2.24a4.92,4.92,0,0,1-2,.4A3,3,0,0,1,279,37.7Z" style="fill:#6827a7"/><path d="M294.66,33.25h-7.35a3.49,3.49,0,0,0,.86,2.26,2.71,2.71,0,0,0,1.94.67,4,4,0,0,0,1.42-.25,6.83,6.83,0,0,0,1.44-.77l1.31,1.77a6.9,6.9,0,0,1-4.46,1.6,5.43,5.43,0,0,1-4.27-1.66,6.54,6.54,0,0,1-1.48-4.51,7.92,7.92,0,0,1,.63-3.23,5.15,5.15,0,0,1,1.84-2.26,5.08,5.08,0,0,1,2.88-.82,5,5,0,0,1,3.91,1.58,6.42,6.42,0,0,1,1.39,4.4C294.72,32.17,294.7,32.58,294.66,33.25Zm-3.53-13.44,1.24,2.42-5.11,2.05-.88-1.62Zm.46,11.33c0-2-.7-2.93-2.11-2.93a1.81,1.81,0,0,0-1.52.72,4.45,4.45,0,0,0-.65,2.34h4.28Z" style="fill:#6827a7"/><path d="M304,26.4a6,6,0,0,1,1.79,1.07l-1.38,1.87a4.19,4.19,0,0,0-1.12-.64,3.31,3.31,0,0,0-1.19-.2c-1.67,0-2.51,1.28-2.51,3.86a4.72,4.72,0,0,0,.64,2.8,2.2,2.2,0,0,0,1.85.84,3.15,3.15,0,0,0,1.13-.19,5.87,5.87,0,0,0,1.2-.63l1.38,2A6,6,0,0,1,302,38.53a5.85,5.85,0,0,1-3-.75,5,5,0,0,1-2-2.15,7.18,7.18,0,0,1-.69-3.25,7.55,7.55,0,0,1,.69-3.3,5.32,5.32,0,0,1,2-2.23,5.5,5.5,0,0,1,3-.8A6.16,6.16,0,0,1,304,26.4Z" style="fill:#6827a7"/><path d="M317,38.18h-2.73l-.16-1.58a4,4,0,0,1-1.51,1.45,4.26,4.26,0,0,1-2.06.48,3.1,3.1,0,0,1-2.45-1,4,4,0,0,1-.84-2.7V26.41h3.15v8.06a2.2,2.2,0,0,0,.31,1.32,1.19,1.19,0,0,0,1,.39,2.55,2.55,0,0,0,2.16-1.53V26.41H317Z" style="fill:#6827a7"/><path d="M320.84,37.7a3.26,3.26,0,0,1-.8-2.37V21.72l3.15-.35V35.25c0,.51.21.77.64.77a1.39,1.39,0,0,0,.63-.13l.64,2.24a4.92,4.92,0,0,1-2,.4A3,3,0,0,1,320.84,37.7Z" style="fill:#6827a7"/><path d="M335.8,35.92a1.15,1.15,0,0,0,.67.48l-.67,2.09a3.88,3.88,0,0,1-1.7-.49,2.64,2.64,0,0,1-1-1.24,3.92,3.92,0,0,1-3.53,1.77,3.76,3.76,0,0,1-2.78-1,3.51,3.51,0,0,1-1-2.63,3.43,3.43,0,0,1,1.4-2.95,6.74,6.74,0,0,1,4-1h1.36v-.58a1.94,1.94,0,0,0-.49-1.51,2.5,2.5,0,0,0-1.62-.42,10,10,0,0,0-3.11.62l-.71-2.11a11.71,11.71,0,0,1,4.35-.87,5.12,5.12,0,0,1,3.53,1,4,4,0,0,1,1.13,3.07v4.75A2,2,0,0,0,335.8,35.92Zm-3.28-1V32.71h-1c-1.7,0-2.55.64-2.55,1.91a1.73,1.73,0,0,0,.39,1.21,1.42,1.42,0,0,0,1.12.44A2.33,2.33,0,0,0,332.52,35Z" style="fill:#6827a7"/><path d="M354.36,21.72V38.18h-2.77l-.18-1.45a3.89,3.89,0,0,1-3.37,1.8,3.77,3.77,0,0,1-3.32-1.67,8,8,0,0,1-1.15-4.57,8.38,8.38,0,0,1,.59-3.23,5.1,5.1,0,0,1,1.68-2.21,4.13,4.13,0,0,1,2.51-.8,4,4,0,0,1,2.86,1.18V21.37Zm-4.17,14.11a3.63,3.63,0,0,0,1-1.07V29.49a3.92,3.92,0,0,0-.94-.83,2.22,2.22,0,0,0-1.1-.28,1.91,1.91,0,0,0-1.7,1,5.57,5.57,0,0,0-.61,2.95,6.09,6.09,0,0,0,.54,3,1.75,1.75,0,0,0,1.57.89A2.21,2.21,0,0,0,350.19,35.83Z" style="fill:#6827a7"/><path d="M367.35,33.25H360a3.54,3.54,0,0,0,.87,2.26,2.68,2.68,0,0,0,1.93.67,3.89,3.89,0,0,0,1.42-.25,6.65,6.65,0,0,0,1.45-.77L367,36.93a6.91,6.91,0,0,1-4.47,1.6,5.41,5.41,0,0,1-4.26-1.66,6.54,6.54,0,0,1-1.49-4.51,7.76,7.76,0,0,1,.64-3.23,5.15,5.15,0,0,1,1.84-2.26,5,5,0,0,1,2.87-.82A5,5,0,0,1,366,27.63a6.37,6.37,0,0,1,1.4,4.4C367.42,32.17,367.4,32.58,367.35,33.25Zm-3.06-2.11c0-2-.7-2.93-2.11-2.93a1.79,1.79,0,0,0-1.52.72,4.53,4.53,0,0,0-.66,2.34h4.29Z" style="fill:#6827a7"/><path d="M385.38,22.81,385,25.36h-3.89V38.18h-3.26V25.36h-4.09V22.81Z" style="fill:#6827a7"/><path d="M395.64,33.25h-7.35a3.49,3.49,0,0,0,.87,2.26,2.68,2.68,0,0,0,1.93.67,3.93,3.93,0,0,0,1.42-.25,6.65,6.65,0,0,0,1.45-.77l1.3,1.77a6.86,6.86,0,0,1-4.46,1.6,5.41,5.41,0,0,1-4.26-1.66,6.54,6.54,0,0,1-1.49-4.51,7.92,7.92,0,0,1,.63-3.23,5.24,5.24,0,0,1,1.85-2.26,5,5,0,0,1,2.87-.82,5,5,0,0,1,3.91,1.58,6.42,6.42,0,0,1,1.4,4.4C395.71,32.17,395.69,32.58,395.64,33.25Zm-3.06-2.11c0-2-.7-2.93-2.11-2.93a1.79,1.79,0,0,0-1.52.72,4.44,4.44,0,0,0-.66,2.34h4.29Z" style="fill:#6827a7"/><path d="M407,27a3.7,3.7,0,0,1,.86,2.61v8.57H404.7v-8a2.14,2.14,0,0,0-.32-1.34,1.18,1.18,0,0,0-1-.39,1.94,1.94,0,0,0-1.21.41,4.42,4.42,0,0,0-1.05,1.23v8.13H398V26.41h2.73L401,27.9a5.28,5.28,0,0,1,1.61-1.38,4.21,4.21,0,0,1,2-.47A3.13,3.13,0,0,1,407,27Z" style="fill:#6827a7"/><path d="M419,27.47l-1.2,1.8a5.48,5.48,0,0,0-2.93-.93,2.17,2.17,0,0,0-1.2.29.89.89,0,0,0-.42.78,1,1,0,0,0,.19.6,1.84,1.84,0,0,0,.71.46,13.84,13.84,0,0,0,1.57.53,6.62,6.62,0,0,1,2.77,1.37,3,3,0,0,1,.91,2.34,3.24,3.24,0,0,1-.67,2,4.43,4.43,0,0,1-1.84,1.32,7,7,0,0,1-2.57.45,7.78,7.78,0,0,1-2.71-.45,6.52,6.52,0,0,1-2.09-1.26l1.56-1.73a5.05,5.05,0,0,0,3.15,1.16,2.54,2.54,0,0,0,1.41-.35,1.06,1.06,0,0,0,.52-.94,1.25,1.25,0,0,0-.2-.74,2,2,0,0,0-.73-.5,15.12,15.12,0,0,0-1.67-.54A5.58,5.58,0,0,1,411,31.79a3.1,3.1,0,0,1-.85-2.23,3.06,3.06,0,0,1,.57-1.8,3.82,3.82,0,0,1,1.64-1.25,6.19,6.19,0,0,1,2.45-.46A6.63,6.63,0,0,1,419,27.47Z" style="fill:#6827a7"/><path d="M430.57,27.71a6.61,6.61,0,0,1,1.49,4.58,7.51,7.51,0,0,1-.68,3.28,5,5,0,0,1-1.95,2.18,5.67,5.67,0,0,1-3,.78,5.31,5.31,0,0,1-4.14-1.65,6.57,6.57,0,0,1-1.5-4.59,7.35,7.35,0,0,1,.68-3.27,5.07,5.07,0,0,1,2-2.19,5.69,5.69,0,0,1,3-.78A5.25,5.25,0,0,1,430.57,27.71Zm-5.92,1.64a5.73,5.73,0,0,0-.59,2.94,5.68,5.68,0,0,0,.59,2.94,2.11,2.11,0,0,0,3.53,0,5.58,5.58,0,0,0,.59-2.94,5.74,5.74,0,0,0-.58-2.94,1.91,1.91,0,0,0-1.75-.94A2,2,0,0,0,424.65,29.35Z" style="fill:#6827a7"/><path d="M443.43,35.92a1.13,1.13,0,0,0,.66.48l-.66,2.09a3.84,3.84,0,0,1-1.7-.49,2.52,2.52,0,0,1-1-1.24,3.93,3.93,0,0,1-3.53,1.77,3.8,3.8,0,0,1-2.79-1,3.5,3.5,0,0,1-1-2.63,3.4,3.4,0,0,1,1.4-2.95,6.74,6.74,0,0,1,4-1h1.35v-.58a1.9,1.9,0,0,0-.49-1.51,2.46,2.46,0,0,0-1.62-.42,10.09,10.09,0,0,0-3.11.62l-.71-2.11a11.79,11.79,0,0,1,4.35-.87,5.1,5.1,0,0,1,3.53,1,3.92,3.92,0,0,1,1.14,3.07v4.75A1.89,1.89,0,0,0,443.43,35.92Zm-3.29-1V32.71h-1c-1.71,0-2.56.64-2.56,1.91a1.73,1.73,0,0,0,.39,1.21,1.42,1.42,0,0,0,1.12.44A2.32,2.32,0,0,0,440.14,35Z" style="fill:#6827a7"/><path d="M453.42,37.62a5,5,0,0,1-1.46.68,6,6,0,0,1-1.61.23,3.59,3.59,0,0,1-2.75-1,4.31,4.31,0,0,1-.93-3V28.63h-1.76V26.41h1.76V23.83l3.15-.37v2.95h2.71l-.31,2.22h-2.4v5.79a2.08,2.08,0,0,0,.29,1.23A1,1,0,0,0,451,36a2.79,2.79,0,0,0,1.33-.4Z" style="fill:#6827a7"/><path d="M457.76,20.87a1.88,1.88,0,0,1,0,2.64,1.92,1.92,0,0,1-1.39.52,1.85,1.85,0,0,1-1.37-.52,1.88,1.88,0,0,1,0-2.64,1.85,1.85,0,0,1,1.37-.52A1.92,1.92,0,0,1,457.76,20.87Zm.21,5.54V38.18h-3.15V26.41Z" style="fill:#6827a7"/><path d="M470.85,26.41l-3.78,11.77h-3.75l-3.84-11.77h3.42l2.33,9.3,2.38-9.3Z" style="fill:#6827a7"/><path d="M481.29,27.71a6.61,6.61,0,0,1,1.48,4.58,7.51,7.51,0,0,1-.67,3.28,5.07,5.07,0,0,1-2,2.18,5.65,5.65,0,0,1-3,.78A5.31,5.31,0,0,1,473,36.88a6.57,6.57,0,0,1-1.5-4.59,7.49,7.49,0,0,1,.68-3.27,5.07,5.07,0,0,1,1.95-2.19,5.75,5.75,0,0,1,3-.78A5.26,5.26,0,0,1,481.29,27.71Zm-5.92,1.64a5.73,5.73,0,0,0-.59,2.94,5.68,5.68,0,0,0,.59,2.94,2.11,2.11,0,0,0,3.53,0,5.68,5.68,0,0,0,.59-2.94,5.85,5.85,0,0,0-.58-2.94,1.92,1.92,0,0,0-1.75-.94A2,2,0,0,0,475.37,29.35Z" style="fill:#6827a7"/><path d="M234.06,53l-.38,2a4.1,4.1,0,0,0-1-.14,2.17,2.17,0,0,0-1.75.8,6,6,0,0,0-1,2.49v6.68h-2V53.12h1.76l.2,2.38a4.4,4.4,0,0,1,1.26-2,2.86,2.86,0,0,1,1.87-.67A4.65,4.65,0,0,1,234.06,53Z" style="fill:#6827a7"/><path d="M244.52,59.67h-7.46a4.5,4.5,0,0,0,1,2.84,2.8,2.8,0,0,0,2.17.91,4.9,4.9,0,0,0,1.56-.24,6.08,6.08,0,0,0,1.48-.78l.89,1.22a6.43,6.43,0,0,1-4.08,1.47,4.73,4.73,0,0,1-3.81-1.6,6.57,6.57,0,0,1-1.37-4.4,8.38,8.38,0,0,1,.59-3.23,5,5,0,0,1,1.69-2.21,4.29,4.29,0,0,1,2.59-.8,4.34,4.34,0,0,1,3.57,1.54,6.53,6.53,0,0,1,1.24,4.24C244.56,59,244.55,59.32,244.52,59.67Zm-2-1.64a4.29,4.29,0,0,0-.69-2.64,2.39,2.39,0,0,0-2.06-.91c-1.67,0-2.58,1.22-2.73,3.68h5.48Z" style="fill:#6827a7"/><path d="M256.49,54.45a8.29,8.29,0,0,1,1,4.51,7.48,7.48,0,0,1-1.2,4.44,3.91,3.91,0,0,1-3.4,1.69,3.76,3.76,0,0,1-3.06-1.33v5.55l-2,.24V53.12h1.75l.16,1.58a4.5,4.5,0,0,1,1.55-1.37,4,4,0,0,1,1.91-.48A3.66,3.66,0,0,1,256.49,54.45ZM255.33,59q0-4.49-2.64-4.48a2.66,2.66,0,0,0-1.58.51,5,5,0,0,0-1.24,1.31V62A3.2,3.2,0,0,0,251,63.06a3,3,0,0,0,1.47.36C254.37,63.42,255.33,61.94,255.33,59Z" style="fill:#6827a7"/><path d="M267.26,53l-.38,2a4.23,4.23,0,0,0-1-.14,2.19,2.19,0,0,0-1.76.8,6,6,0,0,0-1,2.49v6.68h-2V53.12h1.75l.2,2.38a4.33,4.33,0,0,1,1.27-2,2.83,2.83,0,0,1,1.86-.67A4.73,4.73,0,0,1,267.26,53Z" style="fill:#6827a7"/><path d="M277.71,59.67h-7.46a4.55,4.55,0,0,0,1,2.84,2.82,2.82,0,0,0,2.18.91,4.8,4.8,0,0,0,1.55-.24,6.13,6.13,0,0,0,1.49-.78l.89,1.22a6.48,6.48,0,0,1-4.09,1.47,4.73,4.73,0,0,1-3.81-1.6,6.56,6.56,0,0,1-1.36-4.4,8.2,8.2,0,0,1,.59-3.23,5.1,5.1,0,0,1,1.68-2.21,4.78,4.78,0,0,1,6.16.74,6.53,6.53,0,0,1,1.25,4.24C277.76,59,277.74,59.32,277.71,59.67Zm-2-1.64a4.29,4.29,0,0,0-.69-2.64,2.42,2.42,0,0,0-2.07-.91c-1.67,0-2.58,1.22-2.73,3.68h5.49Z" style="fill:#6827a7"/><path d="M286.35,53.19a6.28,6.28,0,0,1,1.82,1l-.86,1.28a7.1,7.1,0,0,0-1.52-.75,4.85,4.85,0,0,0-1.53-.24,2.61,2.61,0,0,0-1.57.41,1.28,1.28,0,0,0-.58,1.12,1.31,1.31,0,0,0,.54,1.11,6.8,6.8,0,0,0,2,.78,6.85,6.85,0,0,1,2.92,1.33,2.92,2.92,0,0,1,1,2.31,3,3,0,0,1-1.35,2.64,5.67,5.67,0,0,1-3.27.91,6.48,6.48,0,0,1-4.42-1.53l1.09-1.25a5.26,5.26,0,0,0,3.28,1.14,3.1,3.1,0,0,0,1.83-.48,1.49,1.49,0,0,0,.68-1.3,1.76,1.76,0,0,0-.24-1,2.13,2.13,0,0,0-.85-.64,12.41,12.41,0,0,0-1.75-.59,6,6,0,0,1-2.7-1.31,2.83,2.83,0,0,1-.83-2.09,2.76,2.76,0,0,1,.54-1.65A3.53,3.53,0,0,1,282,53.27a5.42,5.42,0,0,1,2.17-.42A6.55,6.55,0,0,1,286.35,53.19Z" style="fill:#6827a7"/><path d="M300.18,59.67h-7.46a4.55,4.55,0,0,0,1,2.84,2.82,2.82,0,0,0,2.18.91,4.8,4.8,0,0,0,1.55-.24,6,6,0,0,0,1.49-.78l.89,1.22a6.48,6.48,0,0,1-4.09,1.47,4.73,4.73,0,0,1-3.81-1.6,6.56,6.56,0,0,1-1.36-4.4,8.2,8.2,0,0,1,.59-3.23,5.1,5.1,0,0,1,1.68-2.21,4.79,4.79,0,0,1,6.17.74,6.59,6.59,0,0,1,1.24,4.24C300.23,59,300.21,59.32,300.18,59.67Zm-2-1.64a4.29,4.29,0,0,0-.69-2.64,2.42,2.42,0,0,0-2.06-.91c-1.68,0-2.59,1.22-2.74,3.68h5.49Z" style="fill:#6827a7"/><path d="M311.5,53.81a3.67,3.67,0,0,1,.9,2.62v8.39h-2v-8.1a2.62,2.62,0,0,0-.46-1.76,1.77,1.77,0,0,0-1.38-.51,2.63,2.63,0,0,0-1.64.54,5.24,5.24,0,0,0-1.33,1.53v8.3h-2.05V53.12h1.76l.17,1.73A4.59,4.59,0,0,1,307,53.39a3.93,3.93,0,0,1,2-.54A3.25,3.25,0,0,1,311.5,53.81Z" style="fill:#6827a7"/><path d="M322.41,64.29a4.51,4.51,0,0,1-2.62.8,3.1,3.1,0,0,1-2.32-.86,3.41,3.41,0,0,1-.83-2.47V54.7h-2V53.12h2V50.48l2-.25v2.89h2.78l-.23,1.58h-2.55v7A2.17,2.17,0,0,0,319,63a1.29,1.29,0,0,0,1.08.41,3.3,3.3,0,0,0,1.55-.46Z" style="fill:#6827a7"/><path d="M332.49,63.15a1.55,1.55,0,0,0,.73.52l-.46,1.42a3.16,3.16,0,0,1-1.47-.51,2.35,2.35,0,0,1-.82-1.25A3.92,3.92,0,0,1,327,65.09a3.77,3.77,0,0,1-2.74-1,3.43,3.43,0,0,1-1-2.55,3.37,3.37,0,0,1,1.35-2.87,6.31,6.31,0,0,1,3.81-1h1.8v-.86a2.33,2.33,0,0,0-.6-1.78,2.76,2.76,0,0,0-1.85-.53,10.39,10.39,0,0,0-3.15.62l-.51-1.49a11.85,11.85,0,0,1,4-.8,4.24,4.24,0,0,1,3.09,1,3.89,3.89,0,0,1,1,2.88v5.35A1.87,1.87,0,0,0,332.49,63.15Zm-2.28-1.41V59.05h-1.54q-3.24,0-3.24,2.4a2.18,2.18,0,0,0,.51,1.57,2,2,0,0,0,1.51.54A3.07,3.07,0,0,0,330.21,61.74Z" style="fill:#6827a7"/><path d="M341.17,65.07v1a2.37,2.37,0,0,1,1.57.61,1.77,1.77,0,0,1,.5,1.27,1.94,1.94,0,0,1-.78,1.65,3.24,3.24,0,0,1-2,.57,4.29,4.29,0,0,1-1.16-.14,2.92,2.92,0,0,1-.87-.39l.56-1.15a3,3,0,0,0,1.4.35,1.39,1.39,0,0,0,.81-.21.78.78,0,0,0,.3-.68.76.76,0,0,0-.47-.7,3.68,3.68,0,0,0-1.51-.23l.25-2a4.48,4.48,0,0,1-3.09-1.86,6.9,6.9,0,0,1-1.11-4.09,8,8,0,0,1,.62-3.26A5.05,5.05,0,0,1,338,53.63a4.71,4.71,0,0,1,2.72-.78,5.84,5.84,0,0,1,1.91.3,5.46,5.46,0,0,1,1.66,1l-1,1.29a5,5,0,0,0-1.21-.66,3.9,3.9,0,0,0-1.3-.21,2.54,2.54,0,0,0-2.21,1.13A5.87,5.87,0,0,0,337.8,59a5.51,5.51,0,0,0,.78,3.27,2.56,2.56,0,0,0,2.22,1.06,3.66,3.66,0,0,0,1.26-.21,6.25,6.25,0,0,0,1.29-.68l.93,1.33A5.51,5.51,0,0,1,341.17,65.07Z" style="fill:#6827a7"/><path d="M355,63.15a1.53,1.53,0,0,0,.74.52l-.47,1.42a3.16,3.16,0,0,1-1.47-.51,2.35,2.35,0,0,1-.82-1.25,3.91,3.91,0,0,1-3.48,1.76,3.72,3.72,0,0,1-2.73-1,3.75,3.75,0,0,1,.34-5.42,6.35,6.35,0,0,1,3.81-1h1.8v-.86a2.29,2.29,0,0,0-.6-1.78,2.76,2.76,0,0,0-1.85-.53,10.5,10.5,0,0,0-3.15.62l-.51-1.49a11.85,11.85,0,0,1,4-.8,4.24,4.24,0,0,1,3.09,1,3.89,3.89,0,0,1,1,2.88v5.35A1.87,1.87,0,0,0,355,63.15ZM351,50.1a5.35,5.35,0,0,1-.76-.44,3.41,3.41,0,0,0-.57-.36,1.12,1.12,0,0,0-.47-.11.88.88,0,0,0-.63.25,3.13,3.13,0,0,0-.55.77l-1.25-.62a4.36,4.36,0,0,1,1-1.42,2,2,0,0,1,1.39-.53,1.74,1.74,0,0,1,.79.16,6.16,6.16,0,0,1,.76.46l.28.18a3.64,3.64,0,0,0,.39.2,1,1,0,0,0,.35.06.92.92,0,0,0,.6-.23,3.33,3.33,0,0,0,.58-.74l1.24.62a3.77,3.77,0,0,1-1,1.42,2.24,2.24,0,0,1-1.38.49A1.93,1.93,0,0,1,351,50.1Zm1.64,11.64V59.05h-1.54q-3.24,0-3.24,2.4a2.18,2.18,0,0,0,.51,1.57,2,2,0,0,0,1.51.54A3.07,3.07,0,0,0,352.68,61.74Z" style="fill:#6827a7"/><path d="M367.14,54.5A6.75,6.75,0,0,1,368.51,59a7.89,7.89,0,0,1-.62,3.21,5,5,0,0,1-1.8,2.15,5,5,0,0,1-2.8.77,4.76,4.76,0,0,1-3.84-1.64A6.75,6.75,0,0,1,358.07,59a7.89,7.89,0,0,1,.62-3.21,5,5,0,0,1,1.8-2.15,5.09,5.09,0,0,1,2.82-.77A4.69,4.69,0,0,1,367.14,54.5ZM360.27,59q0,4.47,3,4.47t3-4.49q0-4.45-3-4.46T360.27,59Z" style="fill:#6827a7"/><path d="M386.56,59.67H379.1a4.5,4.5,0,0,0,1,2.84,2.82,2.82,0,0,0,2.17.91,4.86,4.86,0,0,0,1.56-.24,5.9,5.9,0,0,0,1.48-.78l.89,1.22a6.43,6.43,0,0,1-4.08,1.47,4.73,4.73,0,0,1-3.81-1.6,6.57,6.57,0,0,1-1.37-4.4,8.38,8.38,0,0,1,.59-3.23,5.12,5.12,0,0,1,1.69-2.21,4.29,4.29,0,0,1,2.59-.8,4.34,4.34,0,0,1,3.57,1.54,6.53,6.53,0,0,1,1.25,4.24C386.61,59,386.59,59.32,386.56,59.67Zm-2-1.64a4.36,4.36,0,0,0-.68-2.64,2.42,2.42,0,0,0-2.07-.91c-1.67,0-2.58,1.22-2.73,3.68h5.48Z" style="fill:#6827a7"/><path d="M395.2,53.19a6.41,6.41,0,0,1,1.82,1l-.87,1.28a6.88,6.88,0,0,0-1.52-.75,4.79,4.79,0,0,0-1.52-.24,2.67,2.67,0,0,0-1.58.41A1.29,1.29,0,0,0,391,56a1.31,1.31,0,0,0,.54,1.11,6.67,6.67,0,0,0,2,.78,6.91,6.91,0,0,1,2.92,1.33,2.91,2.91,0,0,1,1,2.31A3,3,0,0,1,396,64.18a5.7,5.7,0,0,1-3.28.91,6.5,6.5,0,0,1-4.42-1.53l1.09-1.25a5.28,5.28,0,0,0,3.29,1.14,3.1,3.1,0,0,0,1.83-.48,1.51,1.51,0,0,0,.68-1.3,1.68,1.68,0,0,0-.25-1,2,2,0,0,0-.84-.64,12.41,12.41,0,0,0-1.75-.59,5.85,5.85,0,0,1-2.7-1.31,2.93,2.93,0,0,1-.29-3.74,3.47,3.47,0,0,1,1.51-1.15,5.37,5.37,0,0,1,2.16-.42A6.61,6.61,0,0,1,395.2,53.19Z" style="fill:#6827a7"/><path d="M409.3,53.12V69.55l-2.05-.24v-6a4.06,4.06,0,0,1-1.43,1.34,4,4,0,0,1-5.15-1.16A7.49,7.49,0,0,1,399.51,59a8.62,8.62,0,0,1,.55-3.2,5,5,0,0,1,1.6-2.19,4,4,0,0,1,2.44-.79,4.32,4.32,0,0,1,3.29,1.58l.15-1.31ZM406,63a5.11,5.11,0,0,0,1.28-1.3V56A4.26,4.26,0,0,0,406,54.86a2.8,2.8,0,0,0-1.47-.38,2.35,2.35,0,0,0-2.1,1.13A6.14,6.14,0,0,0,401.7,59a6.54,6.54,0,0,0,.69,3.38,2.2,2.2,0,0,0,2,1.11A3,3,0,0,0,406,63Z" style="fill:#6827a7"/><path d="M422.22,64.82h-1.75L420.31,63a4.34,4.34,0,0,1-1.53,1.59,4.2,4.2,0,0,1-2.11.5,3.13,3.13,0,0,1-2.4-.93,3.76,3.76,0,0,1-.86-2.65V53.12h2v8.17a2.66,2.66,0,0,0,.42,1.7,1.72,1.72,0,0,0,1.38.5,3.48,3.48,0,0,0,2.93-2V53.12h2Z" style="fill:#6827a7"/><path d="M435.23,59.67h-7.46a4.55,4.55,0,0,0,1,2.84,2.82,2.82,0,0,0,2.17.91,4.86,4.86,0,0,0,1.56-.24A6.13,6.13,0,0,0,434,62.4l.89,1.22a6.48,6.48,0,0,1-4.09,1.47,4.73,4.73,0,0,1-3.81-1.6,6.56,6.56,0,0,1-1.36-4.4,8.38,8.38,0,0,1,.58-3.23,5.2,5.2,0,0,1,1.69-2.21,4.78,4.78,0,0,1,6.16.74,6.53,6.53,0,0,1,1.25,4.24C435.28,59,435.26,59.32,435.23,59.67Zm-2-1.64a4.29,4.29,0,0,0-.69-2.64,2.42,2.42,0,0,0-2.07-.91c-1.67,0-2.58,1.22-2.73,3.68h5.49Z" style="fill:#6827a7"/><path d="M452.6,53.82a3.78,3.78,0,0,1,.86,2.61v8.39h-2v-8.1c0-1.51-.55-2.27-1.64-2.27a2.24,2.24,0,0,0-1.47.5A7.23,7.23,0,0,0,447,56.52v8.3h-2v-8.1c0-1.51-.55-2.27-1.64-2.27a2.23,2.23,0,0,0-1.49.51,7.1,7.1,0,0,0-1.27,1.56v8.3h-2V53.12h1.75l.18,1.71a3.93,3.93,0,0,1,3.38-2A3,3,0,0,1,446.8,55a5.53,5.53,0,0,1,1.52-1.56,3.55,3.55,0,0,1,2-.55A3,3,0,0,1,452.6,53.82Z" style="fill:#6827a7"/><path d="M465.7,63.15a1.45,1.45,0,0,0,.73.52L466,65.09a3.15,3.15,0,0,1-1.46-.51,2.3,2.3,0,0,1-.82-1.25,3.94,3.94,0,0,1-3.49,1.76,3.76,3.76,0,0,1-2.73-1,3.75,3.75,0,0,1,.34-5.42,6.35,6.35,0,0,1,3.81-1h1.8v-.86a2.29,2.29,0,0,0-.6-1.78,2.73,2.73,0,0,0-1.84-.53,10.5,10.5,0,0,0-3.16.62l-.51-1.49a11.85,11.85,0,0,1,4-.8,4.24,4.24,0,0,1,3.09,1,3.89,3.89,0,0,1,1,2.88v5.35A1.78,1.78,0,0,0,465.7,63.15ZM463,47l.91,1.71-4.71,1.91-.62-1.09Zm.4,14.7V59.05h-1.53q-3.24,0-3.24,2.4a2.18,2.18,0,0,0,.51,1.57,2,2,0,0,0,1.51.54A3.05,3.05,0,0,0,463.41,61.74Z" style="fill:#6827a7"/><path d="M475.56,64.29a4.53,4.53,0,0,1-2.62.8,3.07,3.07,0,0,1-2.32-.86,3.37,3.37,0,0,1-.84-2.47V54.7h-2V53.12h2V50.48l2.05-.25v2.89h2.77l-.22,1.58h-2.55v7a2.1,2.1,0,0,0,.32,1.32,1.25,1.25,0,0,0,1.07.41,3.37,3.37,0,0,0,1.56-.46Z" style="fill:#6827a7"/><path d="M479.71,47.9a1.39,1.39,0,0,1,.4,1,1.35,1.35,0,0,1-.4,1,1.45,1.45,0,0,1-1,.39,1.41,1.41,0,0,1-1-.39,1.35,1.35,0,0,1-.4-1,1.39,1.39,0,0,1,.4-1,1.42,1.42,0,0,1,1-.4A1.46,1.46,0,0,1,479.71,47.9Zm0,5.22v11.7h-2V53.12Z" style="fill:#6827a7"/><path d="M490.1,53.15a5.34,5.34,0,0,1,1.66,1l-1,1.29a5,5,0,0,0-1.21-.66,3.85,3.85,0,0,0-1.3-.21,2.54,2.54,0,0,0-2.21,1.13,5.87,5.87,0,0,0-.79,3.36,5.51,5.51,0,0,0,.78,3.27,2.58,2.58,0,0,0,2.22,1.06,3.62,3.62,0,0,0,1.26-.21,6.25,6.25,0,0,0,1.29-.68l.93,1.33a5.52,5.52,0,0,1-3.57,1.29,4.65,4.65,0,0,1-3.74-1.6,6.6,6.6,0,0,1-1.37-4.42,7.87,7.87,0,0,1,.63-3.26,5,5,0,0,1,1.76-2.18,4.71,4.71,0,0,1,2.72-.78A5.8,5.8,0,0,1,490.1,53.15Z" style="fill:#6827a7"/><path d="M502.45,63.15a1.45,1.45,0,0,0,.73.52l-.47,1.42a3.11,3.11,0,0,1-1.46-.51,2.36,2.36,0,0,1-.83-1.25,3.91,3.91,0,0,1-3.48,1.76,3.72,3.72,0,0,1-2.73-1,3.75,3.75,0,0,1,.34-5.42,6.35,6.35,0,0,1,3.81-1h1.8v-.86a2.29,2.29,0,0,0-.6-1.78,2.75,2.75,0,0,0-1.84-.53,10.5,10.5,0,0,0-3.16.62l-.51-1.49a11.85,11.85,0,0,1,4-.8,4.24,4.24,0,0,1,3.09,1,3.89,3.89,0,0,1,1,2.88v5.35A1.78,1.78,0,0,0,502.45,63.15Zm-2.29-1.41V59.05h-1.53c-2.17,0-3.25.8-3.25,2.4a2.18,2.18,0,0,0,.51,1.57,2,2,0,0,0,1.52.54A3.06,3.06,0,0,0,500.16,61.74Z" style="fill:#6827a7"/></g><g id="preto"><path d="M583.17,315.21a25.32,25.32,0,1,1,25.32-25.32A25.35,25.35,0,0,1,583.17,315.21Zm0-49.14A23.82,23.82,0,1,0,607,289.89,23.84,23.84,0,0,0,583.17,266.07Z" style="fill:#1d1d1b"/><path d="M583.17,236.33A25.32,25.32,0,1,1,608.49,211,25.35,25.35,0,0,1,583.17,236.33Zm0-49.14A23.82,23.82,0,1,0,607,211,23.85,23.85,0,0,0,583.17,187.19Z" style="fill:#1d1d1b"/><path d="M558.6,290.64H113v-1.5H558.6Zm-1.37-79L531,195.39l-26.26,16.26-.24-.4-.25.4-26.76-16.57-26.76,16.57-.24-.4-.24.4-26.76-16.57-26.76,16.57-.25-.4-.24.4-26.76-16.57L342.7,211.65l-.24-.4-.25.4-26.76-16.57-26.76,16.57-.24-.39-.24.39-26.76-16.57-26.76,16.57-.25-.4-.24.4-26.76-16.57-26.76,16.57-.24-.4-.25.4-26.76-16.57-26.76,16.57-.79-1.28L153,193.56l.39.64.4-.64L180.44,210,207,193.56l.4.64.39-.64L234.44,210l26.61-16.47.4.64.39-.64L288.45,210l26.61-16.47.39.64.4-.64L342.46,210l26.6-16.47.4.64.39-.64L396.46,210l26.61-16.47.4.64.39-.64L450.47,210l26.61-16.47.39.64.4-.64L504.48,210l26.25-16.25.14-.22.11.07.1-.07.14.22L558,210.37ZM598,124.87,571.21,108.3l-26.76,16.57-.25-.39-.24.39L517.7,108.62l-26.26,16.25-.24-.39-.24.39L464.2,108.3l-26.76,16.57-.25-.39-.24.39L410.19,108.3l-26.76,16.57-.24-.39-.25.39L356.18,108.3l-26.76,16.57-.24-.39-.24.39L302.18,108.3l-26.76,16.57-.24-.39-.25.39L248.17,108.3l-26.76,16.57-.24-.39-.25.39L194.17,108.3,167.4,124.87l-.24-.39-.24.39L140.16,108.3,113.4,124.87l-.79-1.28,27.15-16.81.4.64.39-.64,26.61,16.48,26.61-16.48.4.64.39-.64,26.61,16.48,26.61-16.48.39.64.4-.64,26.61,16.48,26.6-16.48.4.64.39-.64,26.61,16.48,26.61-16.48.39.64.4-.64,26.61,16.48,26.61-16.48.39.64.39-.64,26.61,16.48,26.61-16.48.4.64.39-.64,26.61,16.48L517.46,107l.13-.22.11.07.11-.07.13.22,26.26,16.26,23.15-14.33.13-31.22H569L568.85,108l2-1.22.4.64.39-.64,2.41,1.5.13-30.57h1.5l-.13,31.48,23.25,14.39Z" style="fill:#1d1d1b"/><path d="M571.49,72.53a6.93,6.93,0,0,1-3-.64,6.54,6.54,0,0,1-2.34-1.81,8.43,8.43,0,0,1-1.52-2.85,12.3,12.3,0,0,1-.54-3.77,12,12,0,0,1,.54-3.74,8.18,8.18,0,0,1,1.52-2.8,6.41,6.41,0,0,1,2.34-1.76,7.62,7.62,0,0,1,6,0,6.92,6.92,0,0,1,2.35,1.77,7.94,7.94,0,0,1,1.54,2.81,11.86,11.86,0,0,1,.54,3.71,12.3,12.3,0,0,1-.54,3.77,8.12,8.12,0,0,1-1.54,2.85,6.66,6.66,0,0,1-2.35,1.81A6.93,6.93,0,0,1,571.49,72.53Zm0-1.93a4.29,4.29,0,0,0,2.1-.51,4.62,4.62,0,0,0,1.62-1.44,7.13,7.13,0,0,0,1-2.24,10.78,10.78,0,0,0,.37-2.95,10.53,10.53,0,0,0-.37-2.91,6.75,6.75,0,0,0-1-2.19A4.77,4.77,0,0,0,573.59,57a4.4,4.4,0,0,0-2.1-.49,4.45,4.45,0,0,0-2.1.49,4.74,4.74,0,0,0-1.61,1.39,6.76,6.76,0,0,0-1,2.19,10.92,10.92,0,0,0-.37,2.91,11.18,11.18,0,0,0,.37,2.95,7.14,7.14,0,0,0,1,2.24,4.59,4.59,0,0,0,1.61,1.44A4.35,4.35,0,0,0,571.49,70.6Z" style="fill:#1d1d1b"/><path d="M612,136.69a7.07,7.07,0,0,1-3-.63,6.84,6.84,0,0,1-2.34-1.81,8.57,8.57,0,0,1-1.52-2.86,12.24,12.24,0,0,1-.54-3.76,12,12,0,0,1,.54-3.74,8.23,8.23,0,0,1,1.52-2.81,6.67,6.67,0,0,1,2.34-1.75,7.22,7.22,0,0,1,3-.61,7,7,0,0,1,3,.62,6.7,6.7,0,0,1,2.36,1.77,8.12,8.12,0,0,1,1.53,2.8,11.93,11.93,0,0,1,.54,3.72,12.24,12.24,0,0,1-.54,3.76,8.41,8.41,0,0,1-1.53,2.86,6.82,6.82,0,0,1-2.36,1.81A7,7,0,0,1,612,136.69Zm0-1.93a4.36,4.36,0,0,0,2.11-.5,4.68,4.68,0,0,0,1.61-1.44,7.19,7.19,0,0,0,1-2.25,10.65,10.65,0,0,0,.37-2.94,10.43,10.43,0,0,0-.37-2.91,6.7,6.7,0,0,0-1-2.2,4.7,4.7,0,0,0-1.61-1.38,4.77,4.77,0,0,0-4.21,0,4.7,4.7,0,0,0-1.61,1.38,6.51,6.51,0,0,0-1,2.2,10.43,10.43,0,0,0-.37,2.91,10.65,10.65,0,0,0,.37,2.94,7,7,0,0,0,1,2.25,4.68,4.68,0,0,0,1.61,1.44A4.34,4.34,0,0,0,612,134.76Z" style="fill:#1d1d1b"/><path d="M619.75,119.4v-1.66h6.08v1.66Z" style="fill:#1d1d1b"/><path d="M667,241.68a6,6,0,0,1,1.63,1l-1,1.14a3.93,3.93,0,0,0-2.51-1,3.18,3.18,0,0,0-2.61,1.25,8.49,8.49,0,0,0,0,7.94,3.12,3.12,0,0,0,2.6,1.28,3.49,3.49,0,0,0,1.46-.29,7,7,0,0,0,1.31-.79l.89,1.13a4.85,4.85,0,0,1-1.54,1,5.32,5.32,0,0,1-2.17.42,5.16,5.16,0,0,1-2.82-.79,5,5,0,0,1-1.92-2.3,8.74,8.74,0,0,1-.69-3.65,8.56,8.56,0,0,1,.71-3.64,5.32,5.32,0,0,1,1.94-2.29,5,5,0,0,1,2.74-.78A5.67,5.67,0,0,1,667,241.68Z"/><path d="M677.66,253.18a1.32,1.32,0,0,0,.62.44l-.39,1.21a2.72,2.72,0,0,1-1.25-.44,2,2,0,0,1-.69-1,3.35,3.35,0,0,1-3,1.49,3.17,3.17,0,0,1-2.32-.83,2.9,2.9,0,0,1-.85-2.17A2.83,2.83,0,0,1,671,249.4a5.31,5.31,0,0,1,3.23-.85h1.53v-.74a2,2,0,0,0-.51-1.51,2.31,2.31,0,0,0-1.56-.45,8.8,8.8,0,0,0-2.68.53l-.44-1.26a9.89,9.89,0,0,1,3.44-.68,3.61,3.61,0,0,1,2.62.85,3.3,3.3,0,0,1,.86,2.45v4.54A1.57,1.57,0,0,0,677.66,253.18Zm-1.94-1.2V249.7h-1.3c-1.84,0-2.75.68-2.75,2a1.86,1.86,0,0,0,.43,1.34,1.71,1.71,0,0,0,1.28.45A2.59,2.59,0,0,0,675.72,252Z"/><path d="M688.26,245.8a6.45,6.45,0,0,1,1,3.82,7.43,7.43,0,0,1-.47,2.73,4.2,4.2,0,0,1-1.36,1.83,3.43,3.43,0,0,1-2.08.65,3.29,3.29,0,0,1-2.64-1.32l-.17,1.09H681V240.67l1.73-.21v5.45a3.34,3.34,0,0,1,2.81-1.47A3.18,3.18,0,0,1,688.26,245.8Zm-1.52,6.72a5.18,5.18,0,0,0,.65-2.9,5.4,5.4,0,0,0-.6-2.91,2,2,0,0,0-1.72-.9,2.82,2.82,0,0,0-2.32,1.55v4.75a3.13,3.13,0,0,0,1,1,2.28,2.28,0,0,0,1.22.36A2.07,2.07,0,0,0,686.74,252.52Z"/><path d="M699.68,250.23h-6.33a3.83,3.83,0,0,0,.83,2.41,2.42,2.42,0,0,0,1.85.77,4.06,4.06,0,0,0,1.32-.21,4.79,4.79,0,0,0,1.26-.66l.75,1a5.48,5.48,0,0,1-3.47,1.25,4,4,0,0,1-3.23-1.36,5.59,5.59,0,0,1-1.16-3.73A7.14,7.14,0,0,1,692,247a4.25,4.25,0,0,1,1.43-1.87,3.62,3.62,0,0,1,2.2-.68,3.69,3.69,0,0,1,3,1.3,5.59,5.59,0,0,1,1.05,3.6C699.72,249.63,699.71,249.92,699.68,250.23Zm-1.68-1.4a3.65,3.65,0,0,0-.58-2.24,2,2,0,0,0-1.75-.78c-1.42,0-2.2,1.05-2.32,3.13H698Z"/><path d="M706.51,254.81v.85a2.06,2.06,0,0,1,1.33.51,1.53,1.53,0,0,1,.42,1.09,1.62,1.62,0,0,1-.66,1.39,2.72,2.72,0,0,1-1.68.49,3.87,3.87,0,0,1-1-.12,2.15,2.15,0,0,1-.73-.33l.47-1a2.5,2.5,0,0,0,1.19.3,1.18,1.18,0,0,0,.69-.18.65.65,0,0,0,.25-.57.64.64,0,0,0-.4-.6,3.09,3.09,0,0,0-1.28-.19l.21-1.7a3.82,3.82,0,0,1-2.62-1.58,5.84,5.84,0,0,1-.94-3.47,6.86,6.86,0,0,1,.52-2.78,4.37,4.37,0,0,1,1.5-1.84,4,4,0,0,1,2.31-.66,4.92,4.92,0,0,1,1.62.25,4.47,4.47,0,0,1,1.42.82l-.83,1.1a4,4,0,0,0-1-.56,3.21,3.21,0,0,0-1.1-.18,2.16,2.16,0,0,0-1.88,1,5,5,0,0,0-.67,2.85,4.71,4.71,0,0,0,.66,2.78,2.2,2.2,0,0,0,1.89.9,3,3,0,0,0,1.07-.18,5.38,5.38,0,0,0,1.1-.58l.79,1.13A4.73,4.73,0,0,1,706.51,254.81Z"/><path d="M718.22,253.18a1.27,1.27,0,0,0,.62.44l-.4,1.21a2.68,2.68,0,0,1-1.24-.44,1.94,1.94,0,0,1-.7-1,3.34,3.34,0,0,1-3,1.49,3.2,3.2,0,0,1-2.32-.83,2.94,2.94,0,0,1-.85-2.17,2.83,2.83,0,0,1,1.14-2.43,5.32,5.32,0,0,1,3.24-.85h1.53v-.74a2,2,0,0,0-.51-1.51,2.32,2.32,0,0,0-1.57-.45,8.86,8.86,0,0,0-2.68.53l-.43-1.26a9.84,9.84,0,0,1,3.43-.68,3.59,3.59,0,0,1,2.62.85,3.3,3.3,0,0,1,.87,2.45v4.54A1.57,1.57,0,0,0,718.22,253.18Zm-1.94-1.2V249.7H715c-1.83,0-2.75.68-2.75,2a1.86,1.86,0,0,0,.44,1.34,1.68,1.68,0,0,0,1.28.45A2.59,2.59,0,0,0,716.28,252Z"/><path d="M667.63,265.24a3.57,3.57,0,0,1,1.32,3,3.71,3.71,0,0,1-1.38,3.17,5.9,5.9,0,0,1-3.65,1h-1.64v4.77h-1.79v-13h3.41A6,6,0,0,1,667.63,265.24Zm-1.4,5.2a2.55,2.55,0,0,0,.82-2.17,2.4,2.4,0,0,0-.82-2,3.87,3.87,0,0,0-2.35-.62h-1.6V271h1.56A4,4,0,0,0,666.23,270.44Z"/><path d="M677.76,268.46a5.7,5.7,0,0,1,1.16,3.79,6.6,6.6,0,0,1-.52,2.72,4.13,4.13,0,0,1-1.53,1.83,4.31,4.31,0,0,1-2.38.65,4,4,0,0,1-3.26-1.39,5.73,5.73,0,0,1-1.17-3.79,6.68,6.68,0,0,1,.53-2.73,4.18,4.18,0,0,1,1.53-1.83,4.29,4.29,0,0,1,2.39-.65A4,4,0,0,1,677.76,268.46Zm-5.83,3.81c0,2.52.85,3.79,2.56,3.79s2.57-1.27,2.57-3.81-.85-3.79-2.55-3.79S671.93,269.73,671.93,272.27Z"/><path d="M682.25,276.88a2.24,2.24,0,0,1-.55-1.62v-12l1.73-.21v12.15a1.06,1.06,0,0,0,.14.6.57.57,0,0,0,.48.19,1.62,1.62,0,0,0,.64-.12l.46,1.21a2.82,2.82,0,0,1-1.38.34A2,2,0,0,1,682.25,276.88Z"/><path d="M694.12,275.8a1.26,1.26,0,0,0,.62.44l-.39,1.21a2.72,2.72,0,0,1-1.25-.43,2,2,0,0,1-.69-1.06,3.35,3.35,0,0,1-3,1.49,3.17,3.17,0,0,1-2.32-.83,3.18,3.18,0,0,1,.29-4.6,5.37,5.37,0,0,1,3.23-.85h1.53v-.73a1.92,1.92,0,0,0-.51-1.51,2.31,2.31,0,0,0-1.56-.45,8.75,8.75,0,0,0-2.68.52l-.44-1.26a10.13,10.13,0,0,1,3.44-.68,3.61,3.61,0,0,1,2.62.86,3.27,3.27,0,0,1,.86,2.44v4.55A1.52,1.52,0,0,0,694.12,275.8Zm-1.94-1.2v-2.28h-1.3c-1.84,0-2.75.68-2.75,2a1.86,1.86,0,0,0,.43,1.34,1.71,1.71,0,0,0,1.28.45A2.61,2.61,0,0,0,692.18,274.6Z"/><path d="M702.77,267.18l-.32,1.69a3.83,3.83,0,0,0-.86-.11,1.84,1.84,0,0,0-1.49.68,4.91,4.91,0,0,0-.89,2.11v5.67h-1.73v-9.93H699l.17,2a3.67,3.67,0,0,1,1.07-1.68,2.38,2.38,0,0,1,1.58-.57A3.76,3.76,0,0,1,702.77,267.18Z"/><path d="M24.61,250.36a6.13,6.13,0,0,1,1.63,1l-1,1.15a3.91,3.91,0,0,0-2.51-1,3.18,3.18,0,0,0-2.61,1.25,8.51,8.51,0,0,0,0,8,3.13,3.13,0,0,0,2.6,1.27,3.44,3.44,0,0,0,1.45-.29,6.76,6.76,0,0,0,1.32-.79l.89,1.13a4.79,4.79,0,0,1-1.55,1,5.28,5.28,0,0,1-2.17.42,5,5,0,0,1-4.74-3.09,8.74,8.74,0,0,1-.69-3.65,8.41,8.41,0,0,1,.72-3.64,5.25,5.25,0,0,1,1.94-2.29,5,5,0,0,1,2.74-.78A5.67,5.67,0,0,1,24.61,250.36Z"/><path d="M35.27,261.86a1.27,1.27,0,0,0,.62.44l-.39,1.21a2.68,2.68,0,0,1-1.25-.44,2,2,0,0,1-.7-1.05,3.33,3.33,0,0,1-3,1.49,3.2,3.2,0,0,1-2.32-.83,2.93,2.93,0,0,1-.84-2.17,2.83,2.83,0,0,1,1.14-2.43,5.29,5.29,0,0,1,3.23-.85h1.53v-.74a2,2,0,0,0-.51-1.51,2.32,2.32,0,0,0-1.57-.45,8.75,8.75,0,0,0-2.67.53l-.44-1.26a9.84,9.84,0,0,1,3.43-.68,3.54,3.54,0,0,1,2.62.86,3.26,3.26,0,0,1,.87,2.44V261A1.57,1.57,0,0,0,35.27,261.86Zm-1.94-1.2v-2.28H32c-1.84,0-2.76.68-2.76,2a1.86,1.86,0,0,0,.44,1.34,1.69,1.69,0,0,0,1.28.46A2.61,2.61,0,0,0,33.33,260.66Z"/><path d="M46,263.28H44.53l-.14-1.55a3.68,3.68,0,0,1-1.3,1.35,3.54,3.54,0,0,1-1.79.43,2.64,2.64,0,0,1-2-.8,3.15,3.15,0,0,1-.74-2.24v-7.13h1.74v6.94a2.24,2.24,0,0,0,.35,1.44,1.43,1.43,0,0,0,1.17.43,2.94,2.94,0,0,0,2.49-1.72v-7.09H46Z"/><path d="M57.29,249.35v13.93H55.76l-.17-1.38a3.44,3.44,0,0,1-1.22,1.18,3.26,3.26,0,0,1-1.64.43,3.2,3.2,0,0,1-2.76-1.4,6.36,6.36,0,0,1-1-3.75,7.25,7.25,0,0,1,.47-2.72,4.12,4.12,0,0,1,1.35-1.85,3.36,3.36,0,0,1,2.08-.67,3.59,3.59,0,0,1,2.68,1.22v-5.2Zm-2.83,12.41a4.24,4.24,0,0,0,1.1-1.1v-4.87a3.93,3.93,0,0,0-1.05-1,2.41,2.41,0,0,0-1.25-.33,2,2,0,0,0-1.79,1,5.25,5.25,0,0,0-.63,2.86,5.57,5.57,0,0,0,.59,2.87,1.86,1.86,0,0,0,1.67.94A2.41,2.41,0,0,0,54.46,261.76Z"/><path d="M67.77,261.86a1.3,1.3,0,0,0,.63.44l-.4,1.21a2.72,2.72,0,0,1-1.25-.44,2,2,0,0,1-.69-1.05,3.35,3.35,0,0,1-3,1.49,3.18,3.18,0,0,1-2.32-.83,2.9,2.9,0,0,1-.85-2.17,2.83,2.83,0,0,1,1.14-2.43,5.31,5.31,0,0,1,3.23-.85h1.53v-.74a2,2,0,0,0-.51-1.51,2.31,2.31,0,0,0-1.56-.45,8.86,8.86,0,0,0-2.68.53l-.43-1.26a9.8,9.8,0,0,1,3.43-.68,3.55,3.55,0,0,1,2.62.86,3.26,3.26,0,0,1,.87,2.44V261A1.58,1.58,0,0,0,67.77,261.86Zm-1.94-1.2v-2.28h-1.3c-1.84,0-2.75.68-2.75,2a1.86,1.86,0,0,0,.43,1.34,1.71,1.71,0,0,0,1.28.46A2.58,2.58,0,0,0,65.83,260.66Z"/><path d="M22.17,285.9l-1-3.26H16.26l-1,3.26H13.47l4.17-13H19.9l4.15,13Zm-5.47-4.71h4.05l-2-6.79Z"/><path d="M33.31,277.1a7,7,0,0,1,.88,3.83,6.37,6.37,0,0,1-1,3.77,3.34,3.34,0,0,1-2.89,1.43,3.22,3.22,0,0,1-2.6-1.13v4.71l-1.73.21V276h1.48l.14,1.34a3.65,3.65,0,0,1,1.32-1.16,3.42,3.42,0,0,1,1.62-.41A3.08,3.08,0,0,1,33.31,277.1Zm-1,3.83q0-3.81-2.25-3.81a2.2,2.2,0,0,0-1.33.43,4.17,4.17,0,0,0-1.06,1.11v4.85a2.69,2.69,0,0,0,.94.9,2.63,2.63,0,0,0,1.25.31C31.51,284.72,32.33,283.45,32.33,280.93Z"/><path d="M44.14,277.14a5.76,5.76,0,0,1,1.16,3.79,6.6,6.6,0,0,1-.53,2.72,4.07,4.07,0,0,1-1.53,1.83,4.25,4.25,0,0,1-2.37.65,4,4,0,0,1-3.26-1.39A5.73,5.73,0,0,1,36.44,281a6.52,6.52,0,0,1,.53-2.73,4.22,4.22,0,0,1,1.52-1.83,4.35,4.35,0,0,1,2.4-.65A4,4,0,0,1,44.14,277.14ZM38.3,281c0,2.52.86,3.79,2.57,3.79s2.56-1.27,2.56-3.81-.85-3.79-2.54-3.79S38.3,278.41,38.3,281Z"/><path d="M48.63,285.56a2.24,2.24,0,0,1-.56-1.62V272l1.74-.21v12.15a1,1,0,0,0,.14.6.54.54,0,0,0,.48.19,1.62,1.62,0,0,0,.64-.12l.45,1.21a2.77,2.77,0,0,1-1.38.34A2,2,0,0,1,48.63,285.56Z"/><path d="M60.5,284.48a1.17,1.17,0,0,0,.62.44l-.4,1.21a2.67,2.67,0,0,1-1.24-.43,2,2,0,0,1-.7-1.06,3.34,3.34,0,0,1-3,1.49,3.2,3.2,0,0,1-2.32-.83,2.91,2.91,0,0,1-.85-2.17,2.86,2.86,0,0,1,1.14-2.43,5.39,5.39,0,0,1,3.24-.85h1.52v-.73a2,2,0,0,0-.5-1.51,2.34,2.34,0,0,0-1.57-.45,8.8,8.8,0,0,0-2.68.52l-.43-1.26a10.07,10.07,0,0,1,3.43-.68,3.59,3.59,0,0,1,2.62.86,3.28,3.28,0,0,1,.87,2.44v4.55A1.52,1.52,0,0,0,60.5,284.48Zm-2-1.2V281h-1.3c-1.83,0-2.75.68-2.75,2a1.91,1.91,0,0,0,.43,1.34,1.71,1.71,0,0,0,1.29.45A2.58,2.58,0,0,0,58.55,283.28Z"/><path d="M69.15,275.86l-.32,1.69a3.84,3.84,0,0,0-.87-.11,1.87,1.87,0,0,0-1.49.68,5,5,0,0,0-.88,2.11v5.67H63.85V276h1.49l.17,2a3.74,3.74,0,0,1,1.08-1.68,2.38,2.38,0,0,1,1.58-.57A3.81,3.81,0,0,1,69.15,275.86Z"/></g></g></svg>