<svg xmlns="http://www.w3.org/2000/svg" viewBox="0 0 237.44 55.34"><title>fig-5-1</title><g id="fig-5-1"><g id="preto"><path d="M15.69,25.74a1.84,1.84,0,0,1-.72-.69A2,2,0,0,1,14.7,24,1.89,1.89,0,0,1,15,23a1.84,1.84,0,0,1,.72-.69,2,2,0,0,1,1-.24,2.06,2.06,0,0,1,1,.24,1.66,1.66,0,0,1,.71.68A2,2,0,0,1,18.61,24a2,2,0,0,1-.27,1,1.79,1.79,0,0,1-.71.68,2.06,2.06,0,0,1-1,.24A2.12,2.12,0,0,1,15.69,25.74ZM17.58,25a1.4,1.4,0,0,0,.35-1,1.42,1.42,0,0,0-.35-1,1.34,1.34,0,0,0-1.85,0,1.58,1.58,0,0,0,0,2,1.24,1.24,0,0,0,.92.38A1.23,1.23,0,0,0,17.58,25Z"/><path d="M26.65,31.12,26,28.86H22.58l-.68,2.26H20.65l2.88-9h1.56l2.86,9Zm-3.77-3.26h2.79l-1.39-4.69Z"/><path d="M34.26,22.84a2.44,2.44,0,0,1,.91,2.08,2.58,2.58,0,0,1-1,2.19,4.12,4.12,0,0,1-2.52.71H30.57v3.3H29.33v-9h2.35A4.15,4.15,0,0,1,34.26,22.84Zm-1,3.59a1.75,1.75,0,0,0,.57-1.5,1.62,1.62,0,0,0-.57-1.39,2.62,2.62,0,0,0-1.62-.43h-1.1v3.73h1.08A2.72,2.72,0,0,0,33.29,26.43Z"/><path d="M38.12,22.14v9H36.89v-9Z"/><path d="M54.1,26.05v-1H59v1Zm0,2.51v-1H59v1Z"/><rect x="76.3" y="25.86" width="96.86" height="0.5" style="fill:#020200"/><path d="M115.43,13.52v8.34h-1.14V14.74l-2,1.18-.49-.81,2.57-1.59Z"/><path d="M123.05,18.89v.91H122v2.06h-1.11V19.8H117.3V19l2.5-5.59,1,.4-2.25,5.1h2.36l.1-2.24h1v2.24Z"/><path d="M127.44,13.52v8.34H126.3V14.74l-1.94,1.18-.5-.81,2.58-1.59Z"/><path d="M130.92,20.52a.85.85,0,0,1,.24.61,2.18,2.18,0,0,1-.22.89l-.83,1.9h-.83l.5-2.06a1,1,0,0,1-.25-.32.92.92,0,0,1-.1-.41.85.85,0,0,1,.86-.86A.89.89,0,0,1,130.92,20.52Z"/><path d="M137,14.41h-3.25v2.46a2.84,2.84,0,0,1,1.33-.32,2.22,2.22,0,0,1,1.72.7,2.76,2.76,0,0,1,.65,1.94,2.93,2.93,0,0,1-.36,1.46,2.58,2.58,0,0,1-1,1,3.09,3.09,0,0,1-1.51.35,3.27,3.27,0,0,1-1.36-.26,3.78,3.78,0,0,1-1.11-.79l.68-.67a2.65,2.65,0,0,0,.82.6,2.25,2.25,0,0,0,1,.19,1.63,1.63,0,0,0,1.25-.5,2,2,0,0,0,.45-1.41,1.85,1.85,0,0,0-.41-1.32,1.5,1.5,0,0,0-1.11-.41,2.35,2.35,0,0,0-.6.07,2.82,2.82,0,0,0-.58.22h-.9v-4.2h4.51Z"/><path d="M201,19.66V28h-1.15V20.89L198,22.07l-.5-.81,2.58-1.6Z"/><path d="M208.66,25V26h-1.09V28h-1.11V26h-3.55v-.83l2.5-5.58,1,.4L204.11,25h2.37l.1-2.25h1V25Z"/><path d="M213.05,19.66V28h-1.14V20.89L210,22.07l-.5-.81,2.58-1.6Z"/><path d="M216.52,26.67a.82.82,0,0,1,.25.61,2.14,2.14,0,0,1-.22.88l-.84,1.91h-.82l.5-2.07a.88.88,0,0,1-.26-.31.91.91,0,0,1-.09-.41.85.85,0,0,1,.86-.86A.81.81,0,0,1,216.52,26.67Z"/><path d="M222.63,20.56h-3.24V23a2.82,2.82,0,0,1,1.33-.33,2.25,2.25,0,0,1,1.72.71,2.75,2.75,0,0,1,.64,1.94,3,3,0,0,1-.36,1.46,2.56,2.56,0,0,1-1,1,3.22,3.22,0,0,1-1.52.35,3.25,3.25,0,0,1-1.35-.27,3.44,3.44,0,0,1-1.11-.79l.67-.66a2.68,2.68,0,0,0,.82.59,2.29,2.29,0,0,0,1,.2,1.61,1.61,0,0,0,1.25-.5,2,2,0,0,0,.46-1.41,1.81,1.81,0,0,0-.41-1.32,1.53,1.53,0,0,0-1.11-.41,2.25,2.25,0,0,0-.6.07,3.16,3.16,0,0,0-.58.21h-.9v-4.2h4.51Z"/><path d="M183.94,26.49v-1h4.68v1Z"/><path d="M114.66,29.58a13.86,13.86,0,0,0-1,1.72A7.31,7.31,0,0,0,113,33a11.46,11.46,0,0,0,0,4.47,7.65,7.65,0,0,0,.6,1.73,13.12,13.12,0,0,0,1,1.71l-.73.5c-.54-.78-1-1.42-1.26-1.92a8.21,8.21,0,0,1-.75-1.81,10,10,0,0,1,0-4.87,7.83,7.83,0,0,1,.75-1.81c.29-.5.72-1.15,1.26-1.93Z"/><path d="M120.14,34.43a2.16,2.16,0,0,1,.84.9,3.09,3.09,0,0,1,.31,1.46,3.38,3.38,0,0,1-.35,1.56,2.71,2.71,0,0,1-1,1,2.59,2.59,0,0,1-1.34.36,2.32,2.32,0,0,1-2.13-1.07,5.64,5.64,0,0,1-.67-3,6.77,6.77,0,0,1,.38-2.39,3.51,3.51,0,0,1,1.09-1.59,2.59,2.59,0,0,1,1.68-.57,3,3,0,0,1,1.71.51l-.44.76a2.41,2.41,0,0,0-1.29-.36,1.59,1.59,0,0,0-1.41.86,4.78,4.78,0,0,0-.58,2.31,2.38,2.38,0,0,1,2-1.1A2.24,2.24,0,0,1,120.14,34.43Zm-.39,3.88a2.61,2.61,0,0,0,.38-1.49c0-1.19-.45-1.78-1.34-1.78a1.74,1.74,0,0,0-1,.31,2.44,2.44,0,0,0-.78.84,4.26,4.26,0,0,0,.42,2,1.33,1.33,0,0,0,1.22.64A1.29,1.29,0,0,0,119.75,38.31Z"/><path d="M127.35,32.25a6.1,6.1,0,0,1,.7,3.2,6.12,6.12,0,0,1-.7,3.21,2.31,2.31,0,0,1-2.09,1.1,2.29,2.29,0,0,1-2.08-1.1,6,6,0,0,1-.71-3.21,6,6,0,0,1,.71-3.2,2.31,2.31,0,0,1,2.08-1.1A2.33,2.33,0,0,1,127.35,32.25Zm-3.29.61a6.31,6.31,0,0,0-.39,2.59,6.36,6.36,0,0,0,.39,2.6,1.26,1.26,0,0,0,1.2.8,1.28,1.28,0,0,0,1.2-.8,6.36,6.36,0,0,0,.39-2.6,6.25,6.25,0,0,0-.39-2.58,1.29,1.29,0,0,0-1.2-.81A1.27,1.27,0,0,0,124.06,32.86Z"/><path d="M132.93,29.56l1,.22L131,40.91l-1-.24Z"/><path d="M140.2,34.43a2.14,2.14,0,0,1,.83.9,3.09,3.09,0,0,1,.31,1.46,3.26,3.26,0,0,1-.35,1.56,2.71,2.71,0,0,1-1,1,2.56,2.56,0,0,1-1.34.36,2.32,2.32,0,0,1-2.13-1.07,5.73,5.73,0,0,1-.67-3,7,7,0,0,1,.38-2.39,3.59,3.59,0,0,1,1.09-1.59,2.59,2.59,0,0,1,1.68-.57,3.07,3.07,0,0,1,1.72.51l-.45.76a2.4,2.4,0,0,0-1.28-.36,1.6,1.6,0,0,0-1.42.86,4.67,4.67,0,0,0-.57,2.31,2.35,2.35,0,0,1,2-1.1A2.31,2.31,0,0,1,140.2,34.43Zm-.4,3.88a2.53,2.53,0,0,0,.39-1.49c0-1.19-.45-1.78-1.35-1.78a1.77,1.77,0,0,0-1,.31,2.53,2.53,0,0,0-.78.84,4.25,4.25,0,0,0,.43,2,1.31,1.31,0,0,0,1.21.64A1.29,1.29,0,0,0,139.8,38.31Z"/><path d="M147.4,32.25a6,6,0,0,1,.7,3.2,6,6,0,0,1-.7,3.21,2.53,2.53,0,0,1-4.17,0,6,6,0,0,1-.7-3.21,6,6,0,0,1,.7-3.2,2.53,2.53,0,0,1,4.17,0Zm-3.29.61a6.31,6.31,0,0,0-.39,2.59,6.36,6.36,0,0,0,.39,2.6,1.3,1.3,0,0,0,2.4,0,6.16,6.16,0,0,0,.4-2.6,6.06,6.06,0,0,0-.4-2.58,1.3,1.3,0,0,0-2.4,0Z"/><path d="M151.27,31a7.83,7.83,0,0,1,.75,1.81,10,10,0,0,1,0,4.87,8.21,8.21,0,0,1-.75,1.81q-.44.75-1.26,1.92l-.72-.5a14.13,14.13,0,0,0,1-1.71,7.19,7.19,0,0,0,.6-1.73,11.46,11.46,0,0,0,0-4.47,6.88,6.88,0,0,0-.6-1.71,15,15,0,0,0-1-1.72l.72-.5C150.56,29.86,151,30.51,151.27,31Z"/><path d="M103.6,30.42l-1.3,9.19h-1V38.53a2.9,2.9,0,0,1-.86.91,2,2,0,0,1-1.12.32,1.85,1.85,0,0,1-1.54-.69,3.05,3.05,0,0,1-.54-1.91,6.29,6.29,0,0,1,.32-1.93,4,4,0,0,1,1-1.66,2.38,2.38,0,0,1,1.73-.67,2,2,0,0,1,1.68.82l.49-3.43Zm-4.27,3.94a3.18,3.18,0,0,0-.66,1.34,6.4,6.4,0,0,0-.2,1.55,2.1,2.1,0,0,0,.29,1.21.94.94,0,0,0,.81.39,1.48,1.48,0,0,0,1-.37,4.94,4.94,0,0,0,.92-1.15l.39-2.73a1.92,1.92,0,0,0-.58-.59,1.42,1.42,0,0,0-.78-.2A1.47,1.47,0,0,0,99.33,34.36Z"/><path d="M109,33l-.34,1.11a2.23,2.23,0,0,0-.54-.06,1.37,1.37,0,0,0-1.06.53,5.1,5.1,0,0,0-.82,1.58l-.49,3.47h-1.14l.93-6.56h1l-.08,1.34a3.09,3.09,0,0,1,.85-1.12,1.71,1.71,0,0,1,1.06-.37A3.29,3.29,0,0,1,109,33Z"/></g></g></svg>