<svg xmlns="http://www.w3.org/2000/svg" viewBox="0 0 730 349.24"><title>fig-7-1</title><g id="fig-7-1"><polygon points="592.01 135.73 592.01 57.1 500.22 73.99 338.51 95.19 244.59 234.63 592.01 234.63 592.01 135.73" style="fill:#c4b0f4"/><rect x="610.07" y="73.21" width="16.01" height="16.01" style="fill:#c4b0f4"/><g id="roxo"><polygon points="592.01 130.81 592.01 292.99 85.02 292.99 85.02 278.27 175.21 236.47 256.86 214.97 338.51 144.94 419.14 138.19 510.89 138.19 592.01 130.81" style="fill:#996ce0"/><rect x="610.07" y="202.51" width="16.01" height="16.01" style="fill:#996ce0"/></g><g id="preto"><polygon points="592.01 293.36 85.02 293.36 85.02 292.99 84.64 292.99 84.64 225.59 82.88 225.59 82.88 224.84 84.64 224.84 84.64 26.69 85.39 26.69 85.39 26.93 592.01 26.93 592.01 27.68 85.39 27.68 85.39 60.1 592.01 60.1 592.01 60.85 85.39 60.85 85.39 92.66 592.01 92.66 592.01 93.41 85.39 93.41 85.39 126.14 592.01 126.14 592.01 126.89 85.39 126.89 85.39 159.62 592.01 159.62 592.01 160.37 85.39 160.37 85.39 192.79 592.01 192.79 592.01 193.54 85.39 193.54 85.39 224.84 589.88 224.84 589.88 225.59 85.39 225.59 85.39 258.83 592.01 258.83 592.01 259.58 85.39 259.58 85.39 292.61 592.01 292.61 592.01 293.36" style="fill:#9d9d9c"/><path d="M72.47,285.68a9.6,9.6,0,0,1,1,4.92,9.49,9.49,0,0,1-1,4.89,3.49,3.49,0,0,1-6,0,12.44,12.44,0,0,1,0-9.82,3.52,3.52,0,0,1,6,0Zm-5.84,4.9q0,5.67,2.85,5.67a2.29,2.29,0,0,0,2.12-1.38,13.05,13.05,0,0,0,0-8.55,2.28,2.28,0,0,0-2.12-1.39Q66.63,284.93,66.63,290.58Z" style="fill:#1d1d1b"/><path d="M72.44,251.88a3.29,3.29,0,0,1,1,2.42,5.34,5.34,0,0,1-.52,2.34A11.21,11.21,0,0,1,71.25,259c-.73.87-1.92,2.17-3.55,3.89h6l-.15,1H66.4V263q2.63-2.81,3.76-4.15a11.34,11.34,0,0,0,1.61-2.34,4.86,4.86,0,0,0,.47-2.11,2.43,2.43,0,0,0-.66-1.8,2.35,2.35,0,0,0-1.75-.68,3.34,3.34,0,0,0-1.57.37A4.57,4.57,0,0,0,67,253.34l-.76-.57a5,5,0,0,1,1.65-1.38,4.44,4.44,0,0,1,2-.44A3.49,3.49,0,0,1,72.44,251.88Z" style="fill:#1d1d1b"/><path d="M74.08,224.8v.91H72.36v3.36h-1.1v-3.36H65.69v-.82l3.89-8.77.94.38-3.64,8.3h4.38l.14-3.74h1v3.74Z" style="fill:#1d1d1b"/><path d="M72.82,191.41a4.18,4.18,0,0,1,1,3,5.56,5.56,0,0,1-.48,2.38A3.72,3.72,0,0,1,72,198.34a3.48,3.48,0,0,1-1.93.55,3.32,3.32,0,0,1-3.08-1.62,8.46,8.46,0,0,1-1-4.34,11.91,11.91,0,0,1,.55-3.83,5.46,5.46,0,0,1,1.59-2.5,3.7,3.7,0,0,1,2.46-.87,4.18,4.18,0,0,1,2.37.74l-.48.77a3.51,3.51,0,0,0-1.91-.59,2.8,2.8,0,0,0-2.48,1.55,8.33,8.33,0,0,0-1,4.06,3.83,3.83,0,0,1,3.27-1.88A3.17,3.17,0,0,1,72.82,191.41ZM72,197a4.32,4.32,0,0,0,.68-2.57,3.56,3.56,0,0,0-.66-2.36,2.2,2.2,0,0,0-1.75-.77,2.93,2.93,0,0,0-1.75.57,4.91,4.91,0,0,0-1.37,1.54,7.16,7.16,0,0,0,.74,3.39A2.34,2.34,0,0,0,70,198,2.22,2.22,0,0,0,72,197Z" style="fill:#1d1d1b"/><path d="M73.06,160.09a3,3,0,0,1,.68,2,3.29,3.29,0,0,1-.53,1.85,3.4,3.4,0,0,1-1.48,1.23,5,5,0,0,1-2.17.44,4.9,4.9,0,0,1-2.16-.44,3.26,3.26,0,0,1-1.94-3.06q0-2.46,2.74-3.55a4.33,4.33,0,0,1-1.66-1.19,2.77,2.77,0,0,1-.52-1.74,2.93,2.93,0,0,1,.49-1.7,3.21,3.21,0,0,1,1.32-1.1,4.34,4.34,0,0,1,3.53,0,3.18,3.18,0,0,1,1.33,1.07,2.87,2.87,0,0,1,.51,1.72,2.73,2.73,0,0,1-.56,1.72,5.15,5.15,0,0,1-1.74,1.33A5.64,5.64,0,0,1,73.06,160.09ZM71.75,164a2.34,2.34,0,0,0,.82-1.91,2.54,2.54,0,0,0-.29-1.27,2.57,2.57,0,0,0-.88-.89,9.61,9.61,0,0,0-1.67-.77l-.65-.25a4.17,4.17,0,0,0-1.87,1.27,3.12,3.12,0,0,0-.58,1.93,2.36,2.36,0,0,0,.8,1.9,3.79,3.79,0,0,0,4.32,0Zm-4.1-6.89a5,5,0,0,0,1.83,1l.6.21a4.69,4.69,0,0,0,1.54-1.18,2.42,2.42,0,0,0,.47-1.5,2.18,2.18,0,0,0-.68-1.7,2.6,2.6,0,0,0-1.81-.62,2.57,2.57,0,0,0-1.78.62,2.15,2.15,0,0,0-.69,1.7A2,2,0,0,0,67.65,157.15Z" style="fill:#1d1d1b"/><path d="M61.9,118.25V131H60.79V119.48l-3.15,2-.51-.82,3.81-2.36Z" style="fill:#1d1d1b"/><path d="M72.47,119.72a9.56,9.56,0,0,1,1,4.91,9.43,9.43,0,0,1-1,4.9,3.5,3.5,0,0,1-6,0,12.44,12.44,0,0,1,0-9.82,3.51,3.51,0,0,1,6,0Zm-5.84,4.89q0,5.67,2.85,5.67a2.28,2.28,0,0,0,2.12-1.38,13.05,13.05,0,0,0,0-8.55A2.27,2.27,0,0,0,69.48,119C67.58,119,66.63,120.85,66.63,124.61Z" style="fill:#1d1d1b"/><path d="M63.26,85.39V98.13H62.15V86.62L59,88.57l-.51-.82,3.81-2.36Z" style="fill:#1d1d1b"/><path d="M72.44,86.12a3.25,3.25,0,0,1,1,2.41,5.34,5.34,0,0,1-.52,2.34,11,11,0,0,1-1.62,2.39c-.73.87-1.92,2.17-3.55,3.89h6l-.16,1H66.4v-.94c1.75-1.86,3-3.25,3.76-4.15a11.59,11.59,0,0,0,1.61-2.33,4.94,4.94,0,0,0,.47-2.12,2.45,2.45,0,0,0-.66-1.8,2.33,2.33,0,0,0-1.75-.67,3.27,3.27,0,0,0-1.56.36A4.47,4.47,0,0,0,67,87.57L66.21,87a5,5,0,0,1,1.65-1.38,4.57,4.57,0,0,1,2-.44A3.45,3.45,0,0,1,72.44,86.12Z" style="fill:#1d1d1b"/><path d="M62.51,51.7V64.44H61.4V52.92l-3.15,2-.51-.83,3.81-2.35Z" style="fill:#1d1d1b"/><path d="M74.08,60.16v.92H72.36v3.36h-1.1V61.08H65.69v-.82l3.89-8.77.94.38-3.64,8.29h4.38l.14-3.73h1v3.73Z" style="fill:#1d1d1b"/><path d="M62.39,22V34.71H61.28V23.2l-3.14,1.95-.52-.82L61.44,22Z" style="fill:#1d1d1b"/><path d="M72.82,27.44a4.26,4.26,0,0,1,1,3,5.6,5.6,0,0,1-.48,2.39,3.79,3.79,0,0,1-1.35,1.57,3.5,3.5,0,0,1-1.92.54,3.32,3.32,0,0,1-3.08-1.62A8.46,8.46,0,0,1,66,29a12,12,0,0,1,.55-3.83,5.52,5.52,0,0,1,1.59-2.5,3.69,3.69,0,0,1,2.45-.87,4.12,4.12,0,0,1,2.38.75l-.48.77a3.45,3.45,0,0,0-1.92-.6,2.8,2.8,0,0,0-2.47,1.55,8.25,8.25,0,0,0-1,4.06,3.82,3.82,0,0,1,3.27-1.87A3.2,3.2,0,0,1,72.82,27.44ZM72,33a4.38,4.38,0,0,0,.68-2.58A3.56,3.56,0,0,0,72,28.1a2.19,2.19,0,0,0-1.75-.76,3,3,0,0,0-1.75.56,4.91,4.91,0,0,0-1.37,1.54,7.06,7.06,0,0,0,.74,3.4A2.36,2.36,0,0,0,70,34,2.23,2.23,0,0,0,72,33Z" style="fill:#1d1d1b"/><path d="M75.41,313.31V324H73.94v-9.1l-2.49,1.52-.63-1,3.3-2Z" style="fill:#1d1d1b"/><path d="M83.86,314.26a4.79,4.79,0,0,1,.87,3,8.69,8.69,0,0,1-.59,3.52,4.76,4.76,0,0,1-1.8,2.12,12.31,12.31,0,0,1-3.28,1.39l-.34-1.1A8.05,8.05,0,0,0,82,321.58a3.79,3.79,0,0,0,1.22-2.76,2.78,2.78,0,0,1-2.39,1.28,2.76,2.76,0,0,1-1.5-.42,2.89,2.89,0,0,1-1.06-1.2,4,4,0,0,1-.39-1.81,3.66,3.66,0,0,1,.46-1.88,3.16,3.16,0,0,1,1.24-1.22,3.49,3.49,0,0,1,1.71-.42A3.08,3.08,0,0,1,83.86,314.26Zm-.61,3.37a4.87,4.87,0,0,0-.44-2.54,1.61,1.61,0,0,0-1.49-.78,1.78,1.78,0,0,0-1.45.62,2.74,2.74,0,0,0-.51,1.77,2.56,2.56,0,0,0,.48,1.69,1.62,1.62,0,0,0,1.29.56A2.49,2.49,0,0,0,83.25,317.63Z" style="fill:#1d1d1b"/><path d="M92,313.31v1.1l-4,9.72-1.34-.44,3.84-9.19H85.77v-1.19Z" style="fill:#1d1d1b"/><path d="M99.57,314.56a7.63,7.63,0,0,1,.9,4.09,7.72,7.72,0,0,1-.9,4.1,3.23,3.23,0,0,1-5.34,0,7.72,7.72,0,0,1-.9-4.1,7.63,7.63,0,0,1,.9-4.09,3.23,3.23,0,0,1,5.34,0Zm-4.21.77a11.27,11.27,0,0,0,0,6.64,1.66,1.66,0,0,0,3.07,0,11,11,0,0,0,0-6.63,1.66,1.66,0,0,0-3.07,0Z" style="fill:#1d1d1b"/><path d="M155.4,313.52v10.67h-1.47v-9.11l-2.49,1.52-.63-1,3.3-2Z" style="fill:#1d1d1b"/><path d="M163.85,314.47a4.8,4.8,0,0,1,.87,3,8.67,8.67,0,0,1-.59,3.51,4.71,4.71,0,0,1-1.8,2.12,12.62,12.62,0,0,1-3.28,1.4l-.34-1.1A8.18,8.18,0,0,0,162,321.8a3.84,3.84,0,0,0,1.22-2.76,2.82,2.82,0,0,1-1,.92,2.93,2.93,0,0,1-2.9-.07,2.93,2.93,0,0,1-1.06-1.19,4,4,0,0,1-.39-1.81,3.7,3.7,0,0,1,.46-1.89,3.13,3.13,0,0,1,1.24-1.21,3.39,3.39,0,0,1,1.71-.43A3.08,3.08,0,0,1,163.85,314.47Zm-.61,3.37a5,5,0,0,0-.44-2.54,1.6,1.6,0,0,0-1.49-.77,1.75,1.75,0,0,0-1.45.62,2.71,2.71,0,0,0-.51,1.77,2.55,2.55,0,0,0,.48,1.68,1.6,1.6,0,0,0,1.29.57A2.5,2.5,0,0,0,163.24,317.84Z" style="fill:#1d1d1b"/><path d="M173.58,321.33a2.67,2.67,0,0,1-.47,1.57A3.07,3.07,0,0,1,171.8,324a4.5,4.5,0,0,1-1.91.39A4.63,4.63,0,0,1,168,324a3.09,3.09,0,0,1-1.28-1.07,2.79,2.79,0,0,1-.45-1.56,2.54,2.54,0,0,1,.53-1.66,4,4,0,0,1,1.57-1.12,3.21,3.21,0,0,1-1.25-1,2.57,2.57,0,0,1-.41-1.45,2.41,2.41,0,0,1,.46-1.48,2.84,2.84,0,0,1,1.19-.94,4.12,4.12,0,0,1,3.16,0,2.79,2.79,0,0,1,1.2.91,2.37,2.37,0,0,1,.46,1.48,2.2,2.2,0,0,1-.44,1.37,3.93,3.93,0,0,1-1.37,1A3,3,0,0,1,173.58,321.33Zm-2.11,1.37a1.7,1.7,0,0,0,.58-1.35,1.7,1.7,0,0,0-.94-1.65,7.2,7.2,0,0,0-1.38-.6l-.4-.14a2.75,2.75,0,0,0-1.18,1,2.55,2.55,0,0,0-.38,1.45,1.7,1.7,0,0,0,.57,1.36,2.35,2.35,0,0,0,1.56.48A2.3,2.3,0,0,0,171.47,322.7Zm-2.87-7.81a1.58,1.58,0,0,0-.48,1.23,1.41,1.41,0,0,0,.47,1.16,4.52,4.52,0,0,0,1.5.74l.27.09a3,3,0,0,0,1-.87,2,2,0,0,0,.32-1.14,1.59,1.59,0,0,0-.47-1.19,1.85,1.85,0,0,0-1.33-.45A2,2,0,0,0,168.6,314.89Z" style="fill:#1d1d1b"/><path d="M181.42,314.77a9.77,9.77,0,0,1,0,8.19,3.22,3.22,0,0,1-5.34,0,9.77,9.77,0,0,1,0-8.19,3.23,3.23,0,0,1,5.34,0Zm-4.21.78a8.07,8.07,0,0,0-.5,3.31,8.22,8.22,0,0,0,.5,3.33,1.67,1.67,0,0,0,3.07,0,11.06,11.06,0,0,0,0-6.64,1.67,1.67,0,0,0-3.07,0Z" style="fill:#1d1d1b"/><path d="M241.63,313.73V324.4h-1.47v-9.1l-2.49,1.51-.63-1,3.29-2Z" style="fill:#1d1d1b"/><path d="M250.88,314.68a4.74,4.74,0,0,1,.88,3,8.78,8.78,0,0,1-.59,3.51,4.71,4.71,0,0,1-1.8,2.12,12.29,12.29,0,0,1-3.28,1.4l-.34-1.1A8.05,8.05,0,0,0,249,322a3.82,3.82,0,0,0,1.22-2.76,2.82,2.82,0,0,1-1,.92,2.86,2.86,0,0,1-2.9-.07,2.93,2.93,0,0,1-1.06-1.19,4,4,0,0,1-.39-1.81,3.66,3.66,0,0,1,.46-1.88A3.2,3.2,0,0,1,246.6,314a3.56,3.56,0,0,1,1.72-.42A3.06,3.06,0,0,1,250.88,314.68Zm-.6,3.37a5,5,0,0,0-.44-2.54,1.62,1.62,0,0,0-1.49-.77,1.78,1.78,0,0,0-1.45.62,2.74,2.74,0,0,0-.51,1.77,2.55,2.55,0,0,0,.48,1.68,1.6,1.6,0,0,0,1.29.57A2.48,2.48,0,0,0,250.28,318.05Z" style="fill:#1d1d1b"/><path d="M259.25,314.68a4.74,4.74,0,0,1,.88,3,8.78,8.78,0,0,1-.59,3.51,4.71,4.71,0,0,1-1.8,2.12,12.23,12.23,0,0,1-3.29,1.4l-.33-1.1A8.12,8.12,0,0,0,257.4,322a3.82,3.82,0,0,0,1.22-2.76,2.82,2.82,0,0,1-1,.92,2.79,2.79,0,0,1-1.41.36,2.73,2.73,0,0,1-1.49-.43,2.93,2.93,0,0,1-1.06-1.19,4,4,0,0,1-.39-1.81,3.66,3.66,0,0,1,.46-1.88A3.14,3.14,0,0,1,255,314a3.56,3.56,0,0,1,1.72-.42A3.06,3.06,0,0,1,259.25,314.68Zm-.6,3.37a5,5,0,0,0-.44-2.54,1.63,1.63,0,0,0-1.49-.77,1.78,1.78,0,0,0-1.45.62,2.74,2.74,0,0,0-.51,1.77,2.55,2.55,0,0,0,.48,1.68,1.57,1.57,0,0,0,1.29.57A2.5,2.5,0,0,0,258.65,318.05Z" style="fill:#1d1d1b"/><path d="M268,315a9.74,9.74,0,0,1,0,8.18,3.22,3.22,0,0,1-5.34,0,9.74,9.74,0,0,1,0-8.18,3.23,3.23,0,0,1,5.34,0Zm-4.2.77a7.87,7.87,0,0,0-.51,3.31,8,8,0,0,0,.51,3.33,1.62,1.62,0,0,0,1.53,1,1.64,1.64,0,0,0,1.53-1,8,8,0,0,0,.51-3.33,7.85,7.85,0,0,0-.51-3.3,1.65,1.65,0,0,0-3.06,0Z" style="fill:#1d1d1b"/><path d="M327.36,313.53a2.91,2.91,0,0,1,1.12,1.05,2.86,2.86,0,0,1,.4,1.49,4.17,4.17,0,0,1-.44,1.86,8.76,8.76,0,0,1-1.35,1.93c-.6.69-1.52,1.65-2.76,2.89h4.8L329,324h-6.3v-1.16q2.13-2.22,3-3.24a9.2,9.2,0,0,0,1.27-1.8,3.54,3.54,0,0,0,.39-1.64,1.64,1.64,0,0,0-1.76-1.77,2.34,2.34,0,0,0-1.14.27,4.26,4.26,0,0,0-1.06.9l-.95-.77a4.31,4.31,0,0,1,1.45-1.21,3.85,3.85,0,0,1,1.78-.4A3.66,3.66,0,0,1,327.36,313.53Z" style="fill:#1d1d1b"/><path d="M337.05,314.56a9.77,9.77,0,0,1,0,8.19,3.22,3.22,0,0,1-5.34,0,9.77,9.77,0,0,1,0-8.19,3.23,3.23,0,0,1,5.34,0Zm-4.21.77a11.27,11.27,0,0,0,0,6.64,1.66,1.66,0,0,0,3.07,0,11,11,0,0,0,0-6.63,1.66,1.66,0,0,0-3.07,0Z" style="fill:#1d1d1b"/><path d="M345.94,314.56a9.77,9.77,0,0,1,0,8.19,3.22,3.22,0,0,1-5.34,0,9.77,9.77,0,0,1,0-8.19,3.23,3.23,0,0,1,5.34,0Zm-4.21.77a11.27,11.27,0,0,0,0,6.64,1.66,1.66,0,0,0,3.07,0,11,11,0,0,0,0-6.63,1.66,1.66,0,0,0-3.07,0Z" style="fill:#1d1d1b"/><path d="M354.32,313.31v1.1l-4,9.72-1.34-.44,3.85-9.19h-4.72v-1.19Z" style="fill:#1d1d1b"/><path d="M409.6,314.38a2.84,2.84,0,0,1,1.12,1.05,2.8,2.8,0,0,1,.4,1.49,4.17,4.17,0,0,1-.44,1.86,8.76,8.76,0,0,1-1.35,1.93c-.6.69-1.52,1.66-2.75,2.89h4.8l-.18,1.23h-6.3v-1.17q2.14-2.22,3-3.24a9.61,9.61,0,0,0,1.28-1.79,3.73,3.73,0,0,0,.38-1.65,1.64,1.64,0,0,0-1.75-1.77,2.35,2.35,0,0,0-1.15.27,4.28,4.28,0,0,0-1.05.9l-1-.77a4.53,4.53,0,0,1,1.45-1.21,3.89,3.89,0,0,1,1.79-.4A3.65,3.65,0,0,1,409.6,314.38Z" style="fill:#1d1d1b"/><path d="M419.29,315.41a9.77,9.77,0,0,1,0,8.19,3.22,3.22,0,0,1-5.34,0,9.77,9.77,0,0,1,0-8.19,3.23,3.23,0,0,1,5.34,0Zm-4.21.78a8.07,8.07,0,0,0-.5,3.31,8.22,8.22,0,0,0,.5,3.33,1.67,1.67,0,0,0,3.07,0,11.06,11.06,0,0,0,0-6.64,1.67,1.67,0,0,0-3.07,0Z" style="fill:#1d1d1b"/><path d="M428.18,315.41a9.77,9.77,0,0,1,0,8.19,3.22,3.22,0,0,1-5.34,0,9.77,9.77,0,0,1,0-8.19,3.23,3.23,0,0,1,5.34,0Zm-4.2.78a7.87,7.87,0,0,0-.51,3.31,8,8,0,0,0,.51,3.33,1.66,1.66,0,0,0,3.06,0,11.06,11.06,0,0,0,0-6.64,1.66,1.66,0,0,0-3.06,0Z" style="fill:#1d1d1b"/><path d="M438,322a2.74,2.74,0,0,1-.47,1.57,3.17,3.17,0,0,1-1.32,1.09,4.5,4.5,0,0,1-1.91.39,4.43,4.43,0,0,1-1.91-.39,3,3,0,0,1-1.29-1.06,2.8,2.8,0,0,1-.45-1.57,2.59,2.59,0,0,1,.53-1.65,4,4,0,0,1,1.57-1.12,3.21,3.21,0,0,1-1.25-1,2.57,2.57,0,0,1-.4-1.45,2.47,2.47,0,0,1,.45-1.48,2.81,2.81,0,0,1,1.2-.94,4,4,0,0,1,1.58-.32,4.14,4.14,0,0,1,1.57.3,2.77,2.77,0,0,1,1.2.92,2.38,2.38,0,0,1,.47,1.48,2.17,2.17,0,0,1-.45,1.37,3.84,3.84,0,0,1-1.37,1A3,3,0,0,1,438,322Zm-2.11,1.37a1.73,1.73,0,0,0,.58-1.35,1.93,1.93,0,0,0-.23-1,1.87,1.87,0,0,0-.71-.68,7.05,7.05,0,0,0-1.39-.6l-.4-.14a2.81,2.81,0,0,0-1.18,1,2.62,2.62,0,0,0-.38,1.44,1.71,1.71,0,0,0,.57,1.37,2.39,2.39,0,0,0,1.57.48A2.32,2.32,0,0,0,435.92,323.34Zm-2.87-7.81a1.55,1.55,0,0,0-.49,1.23,1.44,1.44,0,0,0,.47,1.16,4.58,4.58,0,0,0,1.51.74l.27.09a3.08,3.08,0,0,0,1-.87,1.91,1.91,0,0,0,.32-1.14,1.54,1.54,0,0,0-.47-1.19,1.83,1.83,0,0,0-1.33-.45A1.93,1.93,0,0,0,433.05,315.53Z" style="fill:#1d1d1b"/><path d="M493.67,314.6a2.78,2.78,0,0,1,1.13,1,2.89,2.89,0,0,1,.4,1.49,4.24,4.24,0,0,1-.44,1.87,9,9,0,0,1-1.35,1.92c-.6.7-1.52,1.66-2.76,2.89h4.8l-.17,1.23H489v-1.17q2.13-2.21,3-3.24a9.18,9.18,0,0,0,1.27-1.79,3.58,3.58,0,0,0,.39-1.65,1.64,1.64,0,0,0-1.76-1.76,2.32,2.32,0,0,0-1.14.27,4,4,0,0,0-1.06.89l-.95-.77a4.43,4.43,0,0,1,1.45-1.21,4,4,0,0,1,1.78-.4A3.47,3.47,0,0,1,493.67,314.6Z" style="fill:#1d1d1b"/><path d="M503.37,315.63a7.62,7.62,0,0,1,.9,4.08,7.7,7.7,0,0,1-.9,4.1,3.22,3.22,0,0,1-5.34,0,7.7,7.7,0,0,1-.9-4.1,7.62,7.62,0,0,1,.9-4.08,3.22,3.22,0,0,1,5.34,0Zm-4.21.77a7.91,7.91,0,0,0-.5,3.31,8,8,0,0,0,.5,3.33,1.66,1.66,0,0,0,3.07,0,8,8,0,0,0,.51-3.33,7.85,7.85,0,0,0-.51-3.3,1.66,1.66,0,0,0-3.07,0Z" style="fill:#1d1d1b"/><path d="M512.26,315.63a7.62,7.62,0,0,1,.9,4.08,7.7,7.7,0,0,1-.9,4.1,3.22,3.22,0,0,1-5.34,0,7.7,7.7,0,0,1-.9-4.1,7.62,7.62,0,0,1,.9-4.08,3.22,3.22,0,0,1,5.34,0Zm-4.21.77a8.07,8.07,0,0,0-.5,3.31,8.22,8.22,0,0,0,.5,3.33,1.66,1.66,0,0,0,3.07,0,8,8,0,0,0,.51-3.33,7.85,7.85,0,0,0-.51-3.3,1.66,1.66,0,0,0-3.07,0Z" style="fill:#1d1d1b"/><path d="M520.73,315.32a4.74,4.74,0,0,1,.88,3,8.81,8.81,0,0,1-.59,3.51,4.71,4.71,0,0,1-1.8,2.12,12.56,12.56,0,0,1-3.29,1.4l-.33-1.1a8.25,8.25,0,0,0,3.28-1.64,3.82,3.82,0,0,0,1.22-2.76,2.82,2.82,0,0,1-1,.92,2.78,2.78,0,0,1-1.41.35,2.72,2.72,0,0,1-1.49-.42,2.93,2.93,0,0,1-1.06-1.19,4,4,0,0,1-.39-1.81,3.64,3.64,0,0,1,.46-1.88,3.13,3.13,0,0,1,1.23-1.22,3.46,3.46,0,0,1,1.72-.43A3.06,3.06,0,0,1,520.73,315.32Zm-.6,3.37a5,5,0,0,0-.44-2.54,1.62,1.62,0,0,0-1.49-.77,1.78,1.78,0,0,0-1.45.62,2.71,2.71,0,0,0-.51,1.77,2.55,2.55,0,0,0,.48,1.68A1.59,1.59,0,0,0,518,320,2.5,2.5,0,0,0,520.13,318.69Z" style="fill:#1d1d1b"/><path d="M578.68,314a2.78,2.78,0,0,1,1.13,1,2.89,2.89,0,0,1,.4,1.49,4.24,4.24,0,0,1-.44,1.87,9.37,9.37,0,0,1-1.35,1.93q-.92,1-2.76,2.88h4.8l-.18,1.23H574v-1.16q2.13-2.22,3-3.25a8.89,8.89,0,0,0,1.27-1.79,3.56,3.56,0,0,0,.38-1.64,1.75,1.75,0,0,0-.47-1.3,1.73,1.73,0,0,0-1.28-.47,2.38,2.38,0,0,0-1.15.27,4.21,4.21,0,0,0-1,.89l-1-.76a4.44,4.44,0,0,1,1.45-1.22,4.05,4.05,0,0,1,1.79-.39A3.47,3.47,0,0,1,578.68,314Z" style="fill:#1d1d1b"/><path d="M588.37,315a9.74,9.74,0,0,1,0,8.18,3.22,3.22,0,0,1-5.34,0,9.74,9.74,0,0,1,0-8.18,3.23,3.23,0,0,1,5.34,0Zm-4.2.77a7.87,7.87,0,0,0-.51,3.31,8,8,0,0,0,.51,3.33,1.62,1.62,0,0,0,1.53,1,1.64,1.64,0,0,0,1.53-1,8,8,0,0,0,.51-3.33,7.85,7.85,0,0,0-.51-3.3,1.65,1.65,0,0,0-3.06,0Z" style="fill:#1d1d1b"/><path d="M595.3,313.73V324.4h-1.47v-9.1l-2.48,1.51-.64-1,3.3-2Z" style="fill:#1d1d1b"/><path d="M604.17,315a9.74,9.74,0,0,1,0,8.18,3.22,3.22,0,0,1-5.34,0,9.74,9.74,0,0,1,0-8.18,3.23,3.23,0,0,1,5.34,0Zm-4.21.77a8.07,8.07,0,0,0-.5,3.31,8.22,8.22,0,0,0,.5,3.33,1.66,1.66,0,0,0,3.07,0,8,8,0,0,0,.51-3.33,7.85,7.85,0,0,0-.51-3.3,1.66,1.66,0,0,0-3.07,0Z" style="fill:#1d1d1b"/><path d="M30.83,255.83v1.92l-6.47.5q-3.81.3-5.85.35l10.7,3.1v1.85l-10.72,3.27q2.6,0,6,.27l6.32.48v1.88l-14.34-1.19v-2.67l10.43-3L16.49,259.7V257Z" style="fill:#1d1d1b"/><path d="M15,250.65a1.27,1.27,0,0,1,.94-.38,1.23,1.23,0,0,1,.92.38,1.31,1.31,0,0,1,.37,1,1.29,1.29,0,0,1-.37,1,1.23,1.23,0,0,1-.92.38,1.27,1.27,0,0,1-.94-.38,1.29,1.29,0,0,1-.37-1A1.31,1.31,0,0,1,15,250.65Zm4.89,0h11v1.91h-11Z" style="fill:#1d1d1b"/><path d="M30.45,246.18a2.45,2.45,0,0,1-1.78.62H15.45l-.23-1.92H28.63a1.13,1.13,0,0,0,.66-.15.65.65,0,0,0,.21-.54,1.9,1.9,0,0,0-.12-.7l1.33-.5a3.11,3.11,0,0,1,.37,1.52A2.23,2.23,0,0,1,30.45,246.18Z" style="fill:#1d1d1b"/><path d="M20.51,233.09a3.45,3.45,0,0,1,2.46-.84h7.86v1.91H23.24a2.4,2.4,0,0,0-1.65.45,1.69,1.69,0,0,0-.48,1.3,2.5,2.5,0,0,0,.5,1.52A5.54,5.54,0,0,0,23,238.68h7.8v1.91H15.47l-.21-1.91h6.12a3.89,3.89,0,0,1-1.77-3.25A3,3,0,0,1,20.51,233.09Z" style="fill:#1d1d1b"/><path d="M17,223.8a3.91,3.91,0,0,1-.41.72,3.43,3.43,0,0,0-.34.53,1,1,0,0,0-.1.45.83.83,0,0,0,.23.58,2.6,2.6,0,0,0,.73.52l-.59,1.17a4.16,4.16,0,0,1-1.33-1,1.93,1.93,0,0,1-.5-1.3,1.6,1.6,0,0,1,.16-.75,7.6,7.6,0,0,1,.42-.71l.17-.26a2.12,2.12,0,0,0,.19-.36,1,1,0,0,0,.06-.33.83.83,0,0,0-.22-.57,3,3,0,0,0-.7-.54l.59-1.16a3.48,3.48,0,0,1,1.33,1,2,2,0,0,1,.46,1.3A1.64,1.64,0,0,1,17,223.8Zm4.12-3.12a6.39,6.39,0,0,1,4.19-1.28,7.28,7.28,0,0,1,3,.58,4.61,4.61,0,0,1,2,1.69,4.67,4.67,0,0,1,.71,2.62,4.43,4.43,0,0,1-1.54,3.6,6.29,6.29,0,0,1-4.18,1.29,7.28,7.28,0,0,1-3-.58,4.6,4.6,0,0,1-2-1.68,4.75,4.75,0,0,1-.72-2.65A4.43,4.43,0,0,1,21.15,220.68Zm4.21,6.44q4.18,0,4.18-2.83t-4.2-2.83q-4.18,0-4.19,2.81C21.15,226.17,22.56,227.12,25.36,227.12Z" style="fill:#1d1d1b"/><path d="M26,208v7a4.31,4.31,0,0,0,2.67-.92,2.66,2.66,0,0,0,.85-2,4.3,4.3,0,0,0-.23-1.46,5.78,5.78,0,0,0-.72-1.39l1.14-.83a6,6,0,0,1,1.37,3.83,4.48,4.48,0,0,1-1.49,3.57A6.18,6.18,0,0,1,25.46,217a7.83,7.83,0,0,1-3-.56,4.67,4.67,0,0,1-2.07-1.58,4,4,0,0,1-.75-2.42,4,4,0,0,1,1.44-3.35A6.13,6.13,0,0,1,25,208C25.35,208,25.67,208,26,208Zm-1.54,1.85a4,4,0,0,0-2.47.65,2.28,2.28,0,0,0-.86,1.94c0,1.56,1.16,2.42,3.46,2.56v-5.15Z" style="fill:#1d1d1b"/><path d="M19.93,199.89a6,6,0,0,1,.93-1.7l1.21.81a7,7,0,0,0-.71,1.42,4.56,4.56,0,0,0-.23,1.43,2.5,2.5,0,0,0,.39,1.48,1.3,1.3,0,0,0,2.09,0,6,6,0,0,0,.73-1.84,6.61,6.61,0,0,1,1.25-2.74,2.74,2.74,0,0,1,2.16-.91,2.8,2.8,0,0,1,2.48,1.26,5.35,5.35,0,0,1,.85,3.07,6.07,6.07,0,0,1-1.43,4.15l-1.17-1a5,5,0,0,0,1.06-3.08,2.9,2.9,0,0,0-.44-1.72,1.44,1.44,0,0,0-1.22-.64,1.63,1.63,0,0,0-.91.23,1.89,1.89,0,0,0-.6.79,11.18,11.18,0,0,0-.55,1.65,5.73,5.73,0,0,1-1.23,2.53,2.64,2.64,0,0,1-2,.78,2.57,2.57,0,0,1-1.55-.51A3.34,3.34,0,0,1,20,203.94a5.07,5.07,0,0,1-.39-2A6.07,6.07,0,0,1,19.93,199.89Z" style="fill:#1d1d1b"/><path d="M15.45,181.16H30.83v1.68l-1.51.19a4.08,4.08,0,0,1,1.3,1.35,3.62,3.62,0,0,1,.46,1.82,3.53,3.53,0,0,1-1.54,3.05,7.06,7.06,0,0,1-4.14,1.09,8.07,8.07,0,0,1-3-.52,4.75,4.75,0,0,1-2-1.5,3.71,3.71,0,0,1-.74-2.29,4,4,0,0,1,1.36-3H15.22Zm13.71,3.12a4.67,4.67,0,0,0-1.22-1.21H22.57a4.12,4.12,0,0,0-1.07,1.16,2.69,2.69,0,0,0-.37,1.38,2.22,2.22,0,0,0,1.07,2,5.74,5.74,0,0,0,3.16.7,6.09,6.09,0,0,0,3.16-.65,2.05,2.05,0,0,0,1.05-1.85A2.72,2.72,0,0,0,29.16,184.28Z" style="fill:#1d1d1b"/><path d="M26,169v7a4.31,4.31,0,0,0,2.67-.91,2.66,2.66,0,0,0,.85-2,4.26,4.26,0,0,0-.23-1.46,6,6,0,0,0-.72-1.4l1.14-.83a6,6,0,0,1,1.37,3.83,4.46,4.46,0,0,1-1.49,3.57A6.13,6.13,0,0,1,25.46,178a7.83,7.83,0,0,1-3-.55,4.75,4.75,0,0,1-2.07-1.58,4,4,0,0,1-.75-2.43,4.07,4.07,0,0,1,1.44-3.35,6.19,6.19,0,0,1,4-1.16C25.35,168.92,25.67,168.93,26,169Zm-1.54,1.85a4,4,0,0,0-2.47.65,2.26,2.26,0,0,0-.86,1.93c0,1.57,1.16,2.42,3.46,2.56v-5.14Z" style="fill:#1d1d1b"/><path d="M30.33,154.8a4.21,4.21,0,0,1,.75,2.46,2.86,2.86,0,0,1-.8,2.17,3.13,3.13,0,0,1-2.32.78H21.34v1.92H19.86v-1.92H17.39l-.23-1.91h2.7v-2.6l1.48.21v2.39h6.54a2,2,0,0,0,1.24-.3,1.23,1.23,0,0,0,.38-1,3.15,3.15,0,0,0-.43-1.46Z" style="fill:#1d1d1b"/><path d="M21.15,145.11a6.39,6.39,0,0,1,4.19-1.28,7.45,7.45,0,0,1,3,.58,4.46,4.46,0,0,1,2.73,4.31,4.46,4.46,0,0,1-1.54,3.61,6.29,6.29,0,0,1-4.18,1.29,7.28,7.28,0,0,1-3-.59,4.6,4.6,0,0,1-2-1.68,4.75,4.75,0,0,1-.72-2.65A4.43,4.43,0,0,1,21.15,145.11Zm4.21,6.44q4.18,0,4.18-2.83c0-1.88-1.4-2.83-4.2-2.83s-4.19.94-4.19,2.81S22.56,151.55,25.36,151.55Z" style="fill:#1d1d1b"/><path d="M20.51,133.16a3.45,3.45,0,0,1,2.46-.84h7.86v1.91H23.24a2.45,2.45,0,0,0-1.65.44,1.65,1.65,0,0,0-.48,1.29,2.49,2.49,0,0,0,.5,1.54,5.17,5.17,0,0,0,1.44,1.25h7.78v1.92h-11V139l1.63-.16a4.34,4.34,0,0,1-1.38-1.45,3.78,3.78,0,0,1-.5-1.91A3,3,0,0,1,20.51,133.16Z" style="fill:#1d1d1b"/><path d="M26,120.22v7a4.25,4.25,0,0,0,2.67-.92,2.63,2.63,0,0,0,.85-2,4.24,4.24,0,0,0-.23-1.45,5.84,5.84,0,0,0-.72-1.4l1.14-.83a6,6,0,0,1,1.37,3.83A4.46,4.46,0,0,1,29.59,128a6.18,6.18,0,0,1-4.13,1.28,7.83,7.83,0,0,1-3-.55,4.82,4.82,0,0,1-2.07-1.58,4.49,4.49,0,0,1,.69-5.78,6.13,6.13,0,0,1,4-1.17C25.35,120.18,25.67,120.2,26,120.22Zm-1.54,1.86a4,4,0,0,0-2.47.64,2.28,2.28,0,0,0-.86,1.94c0,1.57,1.16,2.42,3.46,2.56v-5.14Z" style="fill:#1d1d1b"/><path d="M30.45,116.61a2.45,2.45,0,0,1-1.78.62H15.45l-.23-1.92H28.63a1.05,1.05,0,0,0,.66-.16.61.61,0,0,0,.21-.53,1.9,1.9,0,0,0-.12-.7l1.33-.5a3.08,3.08,0,0,1,.37,1.52A2.23,2.23,0,0,1,30.45,116.61Z" style="fill:#1d1d1b"/><path d="M29.26,103.4a1.35,1.35,0,0,0,.49-.68l1.33.43a2.86,2.86,0,0,1-.47,1.38,2.25,2.25,0,0,1-1.17.77,3.66,3.66,0,0,1,1.64,3.27,3.52,3.52,0,0,1-.91,2.56,3.22,3.22,0,0,1-2.4.93,3.14,3.14,0,0,1-2.68-1.26,5.86,5.86,0,0,1-.94-3.57v-1.68h-.81a2.13,2.13,0,0,0-1.67.56,2.55,2.55,0,0,0-.49,1.73,9.57,9.57,0,0,0,.58,3l-1.4.48a11,11,0,0,1-.75-3.79,4,4,0,0,1,.95-2.89,3.62,3.62,0,0,1,2.7-1h5A1.64,1.64,0,0,0,29.26,103.4Zm-1.32,2.15H25.42V107c0,2,.75,3,2.25,3a2.06,2.06,0,0,0,1.48-.48,1.88,1.88,0,0,0,.5-1.41A2.85,2.85,0,0,0,27.94,105.55Z" style="fill:#1d1d1b"/><path d="M15.45,91.2H30.83v1.69l-1.51.19a4.08,4.08,0,0,1,1.3,1.35,3.58,3.58,0,0,1,.46,1.81,3.52,3.52,0,0,1-1.54,3.05,7,7,0,0,1-4.14,1.09,8.07,8.07,0,0,1-3-.52,4.65,4.65,0,0,1-2-1.49,3.74,3.74,0,0,1-.74-2.29,4,4,0,0,1,1.36-3H15.22Zm13.71,3.13a4.67,4.67,0,0,0-1.22-1.21H22.57a4.23,4.23,0,0,0-1.07,1.15,2.72,2.72,0,0,0-.37,1.39,2.24,2.24,0,0,0,1.07,2,5.83,5.83,0,0,0,3.16.69,6.1,6.1,0,0,0,3.16-.64,2.05,2.05,0,0,0,1.05-1.85A2.67,2.67,0,0,0,29.16,94.33Z" style="fill:#1d1d1b"/><path d="M29.26,79.63a1.34,1.34,0,0,0,.49-.69l1.33.44a2.78,2.78,0,0,1-.47,1.37,2.14,2.14,0,0,1-1.17.77,3.68,3.68,0,0,1,1.64,3.27,3.48,3.48,0,0,1-.91,2.56,3.19,3.19,0,0,1-2.4.94A3.14,3.14,0,0,1,25.09,87a5.86,5.86,0,0,1-.94-3.57V81.77h-.81a2.13,2.13,0,0,0-1.67.57,2.54,2.54,0,0,0-.49,1.72,9.62,9.62,0,0,0,.58,3l-1.4.48a11,11,0,0,1-.75-3.79,4,4,0,0,1,.95-2.89,3.62,3.62,0,0,1,2.7-1h5A1.72,1.72,0,0,0,29.26,79.63Zm-1.32,2.14H25.42v1.44c0,2,.75,3,2.25,3a2.06,2.06,0,0,0,1.48-.48,1.89,1.89,0,0,0,.5-1.42A2.87,2.87,0,0,0,27.94,81.77Z" style="fill:#1d1d1b"/><path d="M19.93,70.93a6,6,0,0,1,.93-1.71l1.21.81a7,7,0,0,0-.71,1.43,4.45,4.45,0,0,0-.23,1.42,2.48,2.48,0,0,0,.39,1.48,1.3,1.3,0,0,0,2.09,0,6,6,0,0,0,.73-1.84,6.67,6.67,0,0,1,1.25-2.74,2.74,2.74,0,0,1,2.16-.9,2.8,2.8,0,0,1,2.48,1.26,5.33,5.33,0,0,1,.85,3.07,6.06,6.06,0,0,1-1.43,4.14l-1.17-1a5,5,0,0,0,1.06-3.08,3,3,0,0,0-.44-1.72,1.43,1.43,0,0,0-1.22-.63,1.56,1.56,0,0,0-.91.23,1.77,1.77,0,0,0-.6.79,10.59,10.59,0,0,0-.55,1.64,5.67,5.67,0,0,1-1.23,2.53,2.64,2.64,0,0,1-2,.78,2.57,2.57,0,0,1-1.55-.51A3.37,3.37,0,0,1,20,75a5.1,5.1,0,0,1-.39-2A6,6,0,0,1,19.93,70.93Z" style="fill:#1d1d1b"/><path d="M647.88,74.22a6.51,6.51,0,0,1,1.74,1l-1,1.23a4.18,4.18,0,0,0-2.68-1,3.39,3.39,0,0,0-2.79,1.33,6.87,6.87,0,0,0-1.05,4.26,7,7,0,0,0,1,4.22,3.35,3.35,0,0,0,2.78,1.35,3.73,3.73,0,0,0,1.55-.3,8.4,8.4,0,0,0,1.41-.84l.94,1.2a5,5,0,0,1-1.65,1.11,5.6,5.6,0,0,1-2.31.44,5.47,5.47,0,0,1-3-.83,5.54,5.54,0,0,1-2-2.45,9.39,9.39,0,0,1-.73-3.9,9.06,9.06,0,0,1,.76-3.89,5.64,5.64,0,0,1,2.07-2.44,5.37,5.37,0,0,1,2.92-.83A6.1,6.1,0,0,1,647.88,74.22Z" style="fill:#1d1d1b"/><path d="M660.06,83.34H653.3a4.13,4.13,0,0,0,.89,2.57,2.56,2.56,0,0,0,2,.83,4.25,4.25,0,0,0,1.41-.23,5.46,5.46,0,0,0,1.35-.7l.8,1.11a5.89,5.89,0,0,1-3.7,1.32,4.29,4.29,0,0,1-3.45-1.44,5.94,5.94,0,0,1-1.24-4,7.6,7.6,0,0,1,.53-2.92,4.68,4.68,0,0,1,1.53-2,4.36,4.36,0,0,1,5.59.67,5.92,5.92,0,0,1,1.12,3.84C660.1,82.7,660.09,83,660.06,83.34Zm-1.79-1.49a4,4,0,0,0-.62-2.4,2.2,2.2,0,0,0-1.87-.82c-1.52,0-2.34,1.11-2.48,3.34h5Z" style="fill:#1d1d1b"/><path d="M663.55,87.63a2.39,2.39,0,0,1-.59-1.72V73.14l1.85-.22v13a1.06,1.06,0,0,0,.15.64.58.58,0,0,0,.51.2,1.85,1.85,0,0,0,.69-.12l.48,1.29a3,3,0,0,1-1.47.36A2.16,2.16,0,0,1,663.55,87.63Z" style="fill:#1d1d1b"/><path d="M676.84,88h-1.59l-.14-1.65a4,4,0,0,1-1.39,1.44,3.78,3.78,0,0,1-1.91.45,2.81,2.81,0,0,1-2.17-.84,3.36,3.36,0,0,1-.79-2.4V77.4h1.85v7.4a2.42,2.42,0,0,0,.38,1.54,1.57,1.57,0,0,0,1.25.46A3.16,3.16,0,0,0,675,85V77.4h1.85Z" style="fill:#1d1d1b"/><path d="M681.15,87.63a2.39,2.39,0,0,1-.59-1.72V73.14l1.85-.22v13a1.06,1.06,0,0,0,.15.64.58.58,0,0,0,.51.2,1.85,1.85,0,0,0,.69-.12l.48,1.29a3,3,0,0,1-1.47.36A2.16,2.16,0,0,1,681.15,87.63Z" style="fill:#1d1d1b"/><path d="M694,78.65a6.15,6.15,0,0,1,1.23,4,7,7,0,0,1-.56,2.91,4.42,4.42,0,0,1-1.63,2,4.54,4.54,0,0,1-2.53.69A4.27,4.27,0,0,1,687,86.75a6.08,6.08,0,0,1-1.25-4,7.16,7.16,0,0,1,.56-2.91,4.54,4.54,0,0,1,1.63-2,4.6,4.6,0,0,1,2.56-.69A4.28,4.28,0,0,1,694,78.65Zm-6.23,4.06c0,2.7.91,4,2.74,4s2.73-1.35,2.73-4.06-.9-4-2.71-4S687.78,80,687.78,82.71Z" style="fill:#1d1d1b"/><path d="M703.13,77.46a5.73,5.73,0,0,1,1.65.91L704,79.53a7,7,0,0,0-1.37-.68,4.24,4.24,0,0,0-1.38-.22,2.4,2.4,0,0,0-1.43.37,1.18,1.18,0,0,0-.52,1,1.16,1.16,0,0,0,.49,1,5.78,5.78,0,0,0,1.78.71,6.25,6.25,0,0,1,2.64,1.2,2.63,2.63,0,0,1,.88,2.1,2.72,2.72,0,0,1-1.22,2.39,5.15,5.15,0,0,1-3,.82,5.9,5.9,0,0,1-4-1.38l1-1.13a4.82,4.82,0,0,0,3,1,2.78,2.78,0,0,0,1.65-.43,1.37,1.37,0,0,0,.62-1.17,1.61,1.61,0,0,0-.22-.88,1.87,1.87,0,0,0-.77-.58,10.19,10.19,0,0,0-1.59-.54A5.44,5.44,0,0,1,698.11,82a2.56,2.56,0,0,1-.75-1.89,2.47,2.47,0,0,1,.49-1.5,3.19,3.19,0,0,1,1.37-1,4.89,4.89,0,0,1,2-.37A6,6,0,0,1,703.13,77.46Z" style="fill:#1d1d1b"/><path d="M715.66,83.34H708.9a4.13,4.13,0,0,0,.89,2.57,2.56,2.56,0,0,0,2,.83,4.25,4.25,0,0,0,1.41-.23,5.41,5.41,0,0,0,1.34-.7l.81,1.11a5.89,5.89,0,0,1-3.7,1.32,4.29,4.29,0,0,1-3.45-1.44,5.94,5.94,0,0,1-1.24-4,7.6,7.6,0,0,1,.53-2.92,4.68,4.68,0,0,1,1.53-2,4.36,4.36,0,0,1,5.59.67,5.92,5.92,0,0,1,1.12,3.84C715.7,82.7,715.69,83,715.66,83.34Zm-1.79-1.49a4,4,0,0,0-.62-2.4,2.2,2.2,0,0,0-1.87-.82c-1.52,0-2.34,1.11-2.48,3.34h5Z" style="fill:#1d1d1b"/><path d="M648.56,204.37a3.78,3.78,0,0,1,1.4,3.2A4,4,0,0,1,648.5,211a6.34,6.34,0,0,1-3.91,1.11h-1.75v5.09h-1.91V203.29h3.64A6.44,6.44,0,0,1,648.56,204.37Zm-1.5,5.54a2.71,2.71,0,0,0,.87-2.32,2.53,2.53,0,0,0-.87-2.15,4.12,4.12,0,0,0-2.51-.66h-1.71v5.77h1.67A4.27,4.27,0,0,0,647.06,209.91Z" style="fill:#1d1d1b"/><path d="M659.88,215.63a1.31,1.31,0,0,0,.66.47l-.42,1.29a2.91,2.91,0,0,1-1.33-.46,2.14,2.14,0,0,1-.74-1.13,3.55,3.55,0,0,1-3.16,1.59,3.38,3.38,0,0,1-2.47-.88,3.09,3.09,0,0,1-.91-2.32,3,3,0,0,1,1.22-2.59,5.64,5.64,0,0,1,3.45-.91h1.63v-.78a2.07,2.07,0,0,0-.54-1.61,2.48,2.48,0,0,0-1.67-.48,9.21,9.21,0,0,0-2.86.56l-.46-1.35a10.68,10.68,0,0,1,3.66-.72,3.79,3.79,0,0,1,2.79.91,3.5,3.5,0,0,1,.93,2.61v4.84A1.66,1.66,0,0,0,659.88,215.63Zm-2.07-1.28v-2.43h-1.39c-2,0-2.94.72-2.94,2.17a2,2,0,0,0,.47,1.43,1.79,1.79,0,0,0,1.36.48A2.77,2.77,0,0,0,657.81,214.35Z" style="fill:#1d1d1b"/><path d="M671.31,207.75a7.48,7.48,0,0,1,.94,4.09,6.83,6.83,0,0,1-1.08,4,3.56,3.56,0,0,1-3.08,1.53,3.41,3.41,0,0,1-2.78-1.21v5l-1.85.22V206.55h1.59l.14,1.43a4.06,4.06,0,0,1,1.41-1.24,3.66,3.66,0,0,1,1.73-.43A3.31,3.31,0,0,1,671.31,207.75Zm-1,4.09q0-4.07-2.39-4.06a2.37,2.37,0,0,0-1.43.46,4.55,4.55,0,0,0-1.13,1.18v5.17a2.8,2.8,0,0,0,1,1,2.69,2.69,0,0,0,1.32.33Q670.27,215.88,670.26,211.84Z" style="fill:#1d1d1b"/><path d="M683.38,212.48h-6.76a4.14,4.14,0,0,0,.88,2.58,2.57,2.57,0,0,0,2,.82,4.25,4.25,0,0,0,1.41-.22,5.82,5.82,0,0,0,1.35-.7l.8,1.1a5.82,5.82,0,0,1-3.7,1.33,4.29,4.29,0,0,1-3.45-1.45,5.94,5.94,0,0,1-1.24-4,7.47,7.47,0,0,1,.54-2.93,4.5,4.5,0,0,1,1.53-2,3.87,3.87,0,0,1,2.34-.72,3.92,3.92,0,0,1,3.24,1.39,5.92,5.92,0,0,1,1.13,3.84C683.42,211.85,683.4,212.16,683.38,212.48Zm-1.8-1.49a3.89,3.89,0,0,0-.62-2.39,2.2,2.2,0,0,0-1.87-.82c-1.52,0-2.34,1.11-2.47,3.33h5Z" style="fill:#1d1d1b"/><path d="M686.87,216.78a2.35,2.35,0,0,1-.6-1.72V202.28l1.85-.22v13a1.08,1.08,0,0,0,.15.64.59.59,0,0,0,.52.2,1.83,1.83,0,0,0,.68-.12L690,217a3,3,0,0,1-1.47.36A2.12,2.12,0,0,1,686.87,216.78Z" style="fill:#1d1d1b"/></g></g></svg>