<svg xmlns="http://www.w3.org/2000/svg" viewBox="0 0 730 150.5"><title>fig-7-7</title><g id="fig-7-7"><g id="preto"><polygon points="100.91 107.97 52 107.97 52 107.41 51.59 107.8 17.82 72.42 18.22 72.03 17.87 71.6 51.65 43.95 52.35 44.81 19.04 72.08 52.24 106.86 100.67 106.86 133.89 72.07 110.78 51.45 111.53 50.61 135.06 71.62 134.69 72.03 135.09 72.42 101.31 107.8 100.91 107.41 100.91 107.97" style="fill:#1d1d1b"/><rect x="52" y="43.82" width="48.91" height="1.11" style="fill:#1d1d1b"/><rect x="100.35" y="91.6" width="1.11" height="30.73" style="fill:#1d1d1b"/><rect x="51.44" y="96.18" width="1.11" height="27.25" style="fill:#1d1d1b"/><rect x="134.13" y="56.87" width="1.11" height="32.04" style="fill:#1d1d1b"/><rect x="17.67" y="56.01" width="1.11" height="32.04" style="fill:#1d1d1b"/><rect x="51.44" y="28.36" width="1.11" height="32.04" style="fill:#1d1d1b"/><path d="M56.31,14.85a4.85,4.85,0,0,1,1.44.87l-.87,1a3.51,3.51,0,0,0-2.22-.85A2.82,2.82,0,0,0,52.34,17a5.72,5.72,0,0,0-.87,3.54,5.8,5.8,0,0,0,.86,3.5,2.78,2.78,0,0,0,2.31,1.13,3.06,3.06,0,0,0,1.29-.25,6.8,6.8,0,0,0,1.17-.7l.78,1a4.22,4.22,0,0,1-1.37.92,4.76,4.76,0,0,1-1.92.37,4.42,4.42,0,0,1-4.2-2.74,7.69,7.69,0,0,1-.61-3.23,7.61,7.61,0,0,1,.63-3.24,4.81,4.81,0,0,1,1.72-2,4.54,4.54,0,0,1,2.43-.68A5,5,0,0,1,56.31,14.85Z" style="fill:#1d1d1b"/><path d="M66.33,26.3V20.9H61.48v5.4H59.89V14.78h1.59v4.81h4.85V14.78h1.58V26.3Z" style="fill:#1d1d1b"/><path d="M73.2,25.81a1.67,1.67,0,0,1,.69.65,1.69,1.69,0,0,1,.25.92,2.59,2.59,0,0,1-.27,1.15A6,6,0,0,1,73,29.72c-.38.42-.94,1-1.7,1.78h3l-.11.75H70.3v-.71c.88-.92,1.51-1.58,1.87-2a5.69,5.69,0,0,0,.79-1.1,2.21,2.21,0,0,0,.24-1,1.08,1.08,0,0,0-.3-.81,1.1,1.1,0,0,0-.79-.29,1.42,1.42,0,0,0-.7.17,2.57,2.57,0,0,0-.65.55l-.59-.47a2.83,2.83,0,0,1,.89-.75,2.5,2.5,0,0,1,1.1-.24A2.28,2.28,0,0,1,73.2,25.81Z" style="fill:#1d1d1b"/><path d="M83.27,15.47a4.65,4.65,0,0,1,1.71,2,8,8,0,0,1,.61,3.25A7.82,7.82,0,0,1,85,24,4.79,4.79,0,0,1,78.17,26a4.43,4.43,0,0,1-1.7-2,7.69,7.69,0,0,1-.61-3.23,7.76,7.76,0,0,1,.61-3.21,4.46,4.46,0,0,1,4.25-2.77A4.68,4.68,0,0,1,83.27,15.47Zm-4.89,1.75a6,6,0,0,0-.84,3.54,5.84,5.84,0,0,0,.85,3.51,2.74,2.74,0,0,0,2.33,1.12c2.12,0,3.18-1.54,3.18-4.64s-1.06-4.67-3.18-4.67A2.74,2.74,0,0,0,78.38,17.22Z" style="fill:#1d1d1b"/><path d="M94.61,26.5V21.1H89.76v5.4H88.18V15h1.58v4.81h4.85V15H96.2V26.5Z" style="fill:#1d1d1b"/><path d="M20.35,53.26v-5.4H15.5v5.4H13.91V41.74H15.5v4.81h4.85V41.74h1.59V53.26Z" style="fill:#1d1d1b"/><path d="M53.89,137.35V132H49v5.4H47.46V125.83H49v4.81h4.85v-4.81h1.59v11.52Z" style="fill:#1d1d1b"/><path d="M102.91,89.72V84.33H98.07v5.39H96.48V78.21h1.59V83h4.84V78.21h1.59V89.72Z" style="fill:#1d1d1b"/><path d="M140.44,105.91v-5.4h-4.85v5.4H134V94.4h1.59v4.81h4.85V94.4H142v11.51Z" style="fill:#1d1d1b"/><path d="M53.89,72.89V67.81H49.33v5.08h-1.5V62.05h1.5v4.53h4.56V62.05h1.49V72.89Z" style="fill:#1d1d1b"/><path d="M14.62,91.82a4.07,4.07,0,0,1,1.5,1.8,7.76,7.76,0,0,1,0,5.69,4.07,4.07,0,0,1-1.5,1.8,4.13,4.13,0,0,1-2.25.62,4.08,4.08,0,0,1-2.25-.61,3.9,3.9,0,0,1-1.5-1.78,7.74,7.74,0,0,1,0-5.68,3.94,3.94,0,0,1,3.75-2.45A4.21,4.21,0,0,1,14.62,91.82ZM10.3,93.37a5.3,5.3,0,0,0-.73,3.12,5.15,5.15,0,0,0,.74,3.1,2.43,2.43,0,0,0,2.06,1q2.81,0,2.8-4.1t-2.8-4.12A2.43,2.43,0,0,0,10.3,93.37Z" style="fill:#1d1d1b"/><path d="M24.62,101.55V96.79H20.35v4.76H19V91.39h1.4v4.25h4.27V91.39H26v10.16Z" style="fill:#1d1d1b"/><path d="M54.43,83.34A4.32,4.32,0,0,1,56,85.26a8.36,8.36,0,0,1,0,6.07,4.19,4.19,0,0,1-4,2.58,4.39,4.39,0,0,1-2.39-.65A4.21,4.21,0,0,1,48,91.36a8.34,8.34,0,0,1,0-6.06,4.38,4.38,0,0,1,1.61-1.94A4.3,4.3,0,0,1,52,82.69,4.4,4.4,0,0,1,54.43,83.34ZM49.83,85a5.68,5.68,0,0,0-.78,3.33,5.55,5.55,0,0,0,.79,3.31A2.6,2.6,0,0,0,52,92.68c2,0,3-1.46,3-4.37s-1-4.39-3-4.39A2.57,2.57,0,0,0,49.83,85Z" style="fill:#1d1d1b"/><path d="M65.11,93.72V88.64H60.55v5.08h-1.5V82.88h1.5v4.53h4.56V82.88H66.6V93.72Z" style="fill:#1d1d1b"/><path d="M95.14,126.9a4.59,4.59,0,0,1,1.71,2,7.87,7.87,0,0,1,.61,3.24,7.79,7.79,0,0,1-.61,3.21,4.68,4.68,0,0,1-1.71,2,4.6,4.6,0,0,1-2.55.7,4.68,4.68,0,0,1-2.55-.68,4.48,4.48,0,0,1-1.7-2,8.8,8.8,0,0,1,0-6.44,4.61,4.61,0,0,1,1.71-2.06,4.54,4.54,0,0,1,2.54-.71A4.68,4.68,0,0,1,95.14,126.9Zm-4.89,1.75a6,6,0,0,0-.83,3.54,5.89,5.89,0,0,0,.84,3.51,2.74,2.74,0,0,0,2.33,1.12q3.18,0,3.18-4.65t-3.18-4.66A2.74,2.74,0,0,0,90.25,128.65Z" style="fill:#1d1d1b"/><path d="M106.48,137.92v-5.4h-4.84v5.4h-1.59V126.41h1.59v4.81h4.84v-4.81h1.59v11.51Z" style="fill:#1d1d1b"/><path d="M137.72,42a4.57,4.57,0,0,1,1.7,2,8.86,8.86,0,0,1,0,6.46,4.46,4.46,0,0,1-4.25,2.74,4.68,4.68,0,0,1-2.55-.69,4.57,4.57,0,0,1-1.71-2,8.8,8.8,0,0,1,0-6.44A4.63,4.63,0,0,1,132.63,42a4.52,4.52,0,0,1,2.54-.71A4.68,4.68,0,0,1,137.72,42Zm-4.89,1.75a6,6,0,0,0-.84,3.54,5.77,5.77,0,0,0,.85,3.51,2.74,2.74,0,0,0,2.33,1.12q3.17,0,3.17-4.64t-3.17-4.67A2.72,2.72,0,0,0,132.83,43.77Z" style="fill:#1d1d1b"/><path d="M149.06,53.05v-5.4h-4.85v5.4h-1.59V41.53h1.59v4.81h4.85V41.53h1.59V53.05Z" style="fill:#1d1d1b"/><path d="M111.11,37.27a4.54,4.54,0,0,1,1.7,2,7.71,7.71,0,0,1,.61,3.24,7.63,7.63,0,0,1-.61,3.21,4.59,4.59,0,0,1-1.7,2,5,5,0,0,1-5.1,0,4.51,4.51,0,0,1-1.71-2,8.8,8.8,0,0,1,0-6.44,4.48,4.48,0,0,1,4.26-2.77A4.68,4.68,0,0,1,111.11,37.27ZM106.22,39a6,6,0,0,0-.84,3.54,5.77,5.77,0,0,0,.85,3.51,2.74,2.74,0,0,0,2.33,1.12c2.12,0,3.18-1.54,3.18-4.64s-1.06-4.67-3.18-4.67A2.74,2.74,0,0,0,106.22,39Z" style="fill:#1d1d1b"/><polygon points="332.23 102.82 283.31 102.82 283.31 102.26 282.91 102.65 249.13 67.27 249.54 66.89 249.19 66.45 282.96 38.8 283.67 39.66 250.36 66.94 283.55 101.71 331.99 101.71 365.2 66.92 342.1 46.3 342.84 45.46 366.38 66.47 366 66.89 366.41 67.27 332.63 102.65 332.23 102.26 332.23 102.82" style="fill:#1d1d1b"/><rect x="283.31" y="38.67" width="48.91" height="1.11" style="fill:#1d1d1b"/><rect x="331.67" y="86.45" width="1.11" height="30.73" style="fill:#1d1d1b"/><rect x="282.76" y="91.03" width="1.11" height="27.25" style="fill:#1d1d1b"/><path d="M568.6,83.73h-14V82.62h12.88V51.14h1.12Zm-318.5-.27h-14V82.34H249V50.87h1.12Zm116.46-1.15h-1.11V49.72h14v1.12H366.56Z" style="fill:#1d1d1b"/><rect x="282.76" y="23.21" width="1.11" height="32.04" style="fill:#1d1d1b"/><path d="M287.62,9.7a5.36,5.36,0,0,1,1.45.87l-.87,1a3.52,3.52,0,0,0-2.23-.86,2.8,2.8,0,0,0-2.31,1.11,5.64,5.64,0,0,0-.88,3.54,5.72,5.72,0,0,0,.87,3.5A2.75,2.75,0,0,0,286,20a3,3,0,0,0,1.28-.25,6.8,6.8,0,0,0,1.17-.7l.79,1a4.17,4.17,0,0,1-1.37.92,4.67,4.67,0,0,1-1.92.37,4.51,4.51,0,0,1-2.5-.7,4.59,4.59,0,0,1-1.71-2,7.94,7.94,0,0,1-.61-3.24,7.38,7.38,0,0,1,.64-3.23,4.63,4.63,0,0,1,1.72-2,4.41,4.41,0,0,1,2.42-.69A5,5,0,0,1,287.62,9.7Z" style="fill:#1d1d1b"/><path d="M297.64,21.15v-5.4h-4.85v5.4h-1.58V9.63h1.58v4.81h4.85V9.63h1.59V21.15Z" style="fill:#1d1d1b"/><path d="M304.11,20.16a2,2,0,0,1,.83.77,2.09,2.09,0,0,1,.3,1.1,3.12,3.12,0,0,1-.33,1.39,6.35,6.35,0,0,1-1,1.42c-.45.51-1.13,1.23-2,2.14h3.55l-.13.91h-4.66V27c1.05-1.1,1.8-1.9,2.24-2.41a6.47,6.47,0,0,0,.94-1.32,2.71,2.71,0,0,0,.29-1.22,1.27,1.27,0,0,0-.36-1,1.28,1.28,0,0,0-.94-.35,1.78,1.78,0,0,0-.85.2,3.18,3.18,0,0,0-.78.66l-.71-.56a3.25,3.25,0,0,1,1.08-.9,2.85,2.85,0,0,1,1.32-.29A2.61,2.61,0,0,1,304.11,20.16Z" style="fill:#1d1d1b"/><path d="M313.76,10.12a4.57,4.57,0,0,1,1.7,2,7.79,7.79,0,0,1,.61,3.25,7.63,7.63,0,0,1-.61,3.21,4.59,4.59,0,0,1-1.7,2,5,5,0,0,1-5.1,0,4.51,4.51,0,0,1-1.71-2,7.85,7.85,0,0,1-.61-3.23A7.92,7.92,0,0,1,307,12.2a4.48,4.48,0,0,1,4.26-2.77A4.68,4.68,0,0,1,313.76,10.12Zm-4.89,1.75a6,6,0,0,0-.84,3.54,5.77,5.77,0,0,0,.85,3.51A2.74,2.74,0,0,0,311.21,20c2.12,0,3.17-1.54,3.17-4.64s-1.05-4.67-3.17-4.67A2.74,2.74,0,0,0,308.87,11.87Z" style="fill:#1d1d1b"/><path d="M325.1,21.15v-5.4h-4.85v5.4h-1.59V9.63h1.59v4.81h4.85V9.63h1.59V21.15Z" style="fill:#1d1d1b"/><path d="M250.93,47v-5.4h-4.85V47h-1.59V35.43h1.59v4.82h4.85V35.43h1.58V47Z" style="fill:#1d1d1b"/><path d="M285.62,133v-5.4h-4.85V133h-1.59V121.49h1.59v4.81h4.85v-4.81h1.59V133Z" style="fill:#1d1d1b"/><path d="M336.83,84.58v-5.4H332v5.4h-1.59V73.06H332v4.81h4.85V73.06h1.59V84.58Z" style="fill:#1d1d1b"/><path d="M368.59,98.67v-5.4h-4.85v5.4h-1.59V87.16h1.59V92h4.85V87.16h1.59V98.67Z" style="fill:#1d1d1b"/><path d="M380,98.67v-5.4h-4.85v5.4h-1.59V87.16h1.59V92H380V87.16h1.58V98.67Z" style="fill:#1d1d1b"/><path d="M285.62,69.13v-5.4h-4.85v5.4h-1.59V57.61h1.59v4.81h4.85V57.61h1.59V69.13Z" style="fill:#1d1d1b"/><path d="M285.79,77.27a4.62,4.62,0,0,1,1.71,2,7.87,7.87,0,0,1,.61,3.24,7.79,7.79,0,0,1-.61,3.21,4.79,4.79,0,0,1-6.81,2,4.49,4.49,0,0,1-1.7-2,8.8,8.8,0,0,1,0-6.44,4.68,4.68,0,0,1,1.71-2.06,4.62,4.62,0,0,1,2.54-.71A4.68,4.68,0,0,1,285.79,77.27ZM280.9,79a6,6,0,0,0-.83,3.54,5.85,5.85,0,0,0,.84,3.51,2.74,2.74,0,0,0,2.33,1.12c2.12,0,3.18-1.54,3.18-4.64s-1.06-4.67-3.18-4.67A2.74,2.74,0,0,0,280.9,79Z" style="fill:#1d1d1b"/><path d="M297.13,88.3V82.9h-4.84v5.4H290.7V76.78h1.59V81.6h4.84V76.78h1.59V88.3Z" style="fill:#1d1d1b"/><path d="M335.17,121.94a4.59,4.59,0,0,1,1.71,2,7.71,7.71,0,0,1,.61,3.24,7.63,7.63,0,0,1-.61,3.21,4.68,4.68,0,0,1-1.71,2,4.59,4.59,0,0,1-2.54.7,4.68,4.68,0,0,1-2.55-.68,4.57,4.57,0,0,1-1.71-2,8.8,8.8,0,0,1,0-6.44,4.68,4.68,0,0,1,1.71-2.06,4.57,4.57,0,0,1,2.55-.71A4.67,4.67,0,0,1,335.17,121.94Zm-4.89,1.75a6.06,6.06,0,0,0-.83,3.54,5.89,5.89,0,0,0,.84,3.51,2.76,2.76,0,0,0,2.34,1.12q3.17,0,3.17-4.65t-3.17-4.66A2.75,2.75,0,0,0,330.28,123.69Z" style="fill:#1d1d1b"/><path d="M346.52,133v-5.4h-4.85V133h-1.59V121.45h1.59v4.81h4.85v-4.81h1.58V133Z" style="fill:#1d1d1b"/><path d="M341.37,33.66a4.57,4.57,0,0,1,1.7,2,7.79,7.79,0,0,1,.61,3.25,7.69,7.69,0,0,1-.61,3.21,4.51,4.51,0,0,1-1.7,2,4.61,4.61,0,0,1-2.55.71,4.68,4.68,0,0,1-2.55-.69,4.51,4.51,0,0,1-1.71-2,8.8,8.8,0,0,1,0-6.44A4.48,4.48,0,0,1,338.82,33,4.68,4.68,0,0,1,341.37,33.66Zm-4.89,1.75a6,6,0,0,0-.84,3.54,5.77,5.77,0,0,0,.85,3.51,2.74,2.74,0,0,0,2.33,1.12c2.12,0,3.17-1.55,3.17-4.64s-1.05-4.67-3.17-4.67A2.74,2.74,0,0,0,336.48,35.41Z" style="fill:#1d1d1b"/><path d="M229.2,77.07a4.63,4.63,0,0,1,1.7,2,7.79,7.79,0,0,1,.61,3.25,7.66,7.66,0,0,1-.61,3.21,4.78,4.78,0,0,1-6.8,2,4.51,4.51,0,0,1-1.71-2,8.8,8.8,0,0,1,0-6.44,4.48,4.48,0,0,1,4.26-2.77A4.68,4.68,0,0,1,229.2,77.07Zm-4.89,1.75a6,6,0,0,0-.84,3.54,5.77,5.77,0,0,0,.85,3.51A2.74,2.74,0,0,0,226.65,87c2.12,0,3.17-1.55,3.17-4.64s-1-4.67-3.17-4.67A2.74,2.74,0,0,0,224.31,78.82Z" style="fill:#1d1d1b"/><path d="M389.76,42a4.59,4.59,0,0,1,1.71,2,7.89,7.89,0,0,1,.61,3.25,7.77,7.77,0,0,1-.61,3.2,4.48,4.48,0,0,1-4.26,2.75,4.68,4.68,0,0,1-2.55-.69,4.48,4.48,0,0,1-1.7-2,8.8,8.8,0,0,1,0-6.44A4.61,4.61,0,0,1,384.67,42a4.54,4.54,0,0,1,2.54-.71A4.68,4.68,0,0,1,389.76,42Zm-4.89,1.75a6,6,0,0,0-.84,3.54,5.84,5.84,0,0,0,.85,3.51,2.74,2.74,0,0,0,2.33,1.12q3.18,0,3.18-4.64t-3.18-4.67A2.74,2.74,0,0,0,384.87,43.77Z" style="fill:#1d1d1b"/><polygon points="650.73 103.68 601.82 103.68 601.82 103.12 601.41 103.51 567.63 68.13 568.04 67.74 567.68 67.31 601.46 39.66 602.17 40.52 568.86 67.79 602.05 102.57 650.49 102.57 683.7 67.78 660.6 47.16 661.34 46.32 684.88 67.33 684.5 67.74 684.91 68.13 651.13 103.51 650.73 103.12 650.73 103.68" style="fill:#1d1d1b"/><rect x="601.81" y="39.53" width="48.91" height="1.11" style="fill:#1d1d1b"/><rect x="650.17" y="87.31" width="1.11" height="30.73" style="fill:#1d1d1b"/><rect x="601.26" y="91.89" width="1.11" height="27.25" style="fill:#1d1d1b"/><polygon points="685.06 83.17 683.95 83.17 683.95 50.58 697.95 50.58 697.95 51.7 685.06 51.7 685.06 83.17" style="fill:#1d1d1b"/><rect x="601.26" y="24.07" width="1.11" height="32.04" style="fill:#1d1d1b"/><path d="M603.35,10.76a4.85,4.85,0,0,1,1.44.87l-.87,1a3.47,3.47,0,0,0-2.22-.86,2.82,2.82,0,0,0-2.32,1.11,5.72,5.72,0,0,0-.87,3.54,5.8,5.8,0,0,0,.86,3.5,2.78,2.78,0,0,0,2.31,1.13,3.06,3.06,0,0,0,1.29-.25,6.8,6.8,0,0,0,1.17-.7l.78,1a4.07,4.07,0,0,1-1.37.92,4.6,4.6,0,0,1-1.92.37,4.43,4.43,0,0,1-4.2-2.73,7.77,7.77,0,0,1-.61-3.24,7.53,7.53,0,0,1,.63-3.23,4.69,4.69,0,0,1,1.72-2,4.47,4.47,0,0,1,2.43-.69A5,5,0,0,1,603.35,10.76Z" style="fill:#1d1d1b"/><path d="M613.37,22.21v-5.4h-4.85v5.4h-1.59V10.69h1.59V15.5h4.85V10.69H615V22.21Z" style="fill:#1d1d1b"/><path d="M620.5,21a2,2,0,0,1,1.13,1.88,3.17,3.17,0,0,1-.32,1.38,6.82,6.82,0,0,1-1,1.43c-.45.51-1.13,1.22-2,2.14h3.55l-.13.9H617v-.86c1.05-1.09,1.8-1.89,2.24-2.4a6.38,6.38,0,0,0,.94-1.33,2.63,2.63,0,0,0,.29-1.21,1.27,1.27,0,0,0-.36-1,1.24,1.24,0,0,0-.94-.35,1.78,1.78,0,0,0-.85.2,3.1,3.1,0,0,0-.78.66l-.71-.57a3.19,3.19,0,0,1,1.08-.89,2.85,2.85,0,0,1,1.32-.3A2.7,2.7,0,0,1,620.5,21Z" style="fill:#1d1d1b"/><path d="M630.15,11a4.59,4.59,0,0,1,1.71,2,7.92,7.92,0,0,1,.61,3.25,7.86,7.86,0,0,1-.61,3.21,4.49,4.49,0,0,1-4.26,2.74,4.68,4.68,0,0,1-2.55-.69,4.55,4.55,0,0,1-1.7-2,7.69,7.69,0,0,1-.61-3.23,7.76,7.76,0,0,1,.61-3.21A4.68,4.68,0,0,1,625.06,11a4.56,4.56,0,0,1,2.54-.71A4.68,4.68,0,0,1,630.15,11Zm-4.89,1.75a6.08,6.08,0,0,0-.83,3.54,5.85,5.85,0,0,0,.84,3.51,2.74,2.74,0,0,0,2.33,1.12q3.18,0,3.18-4.64t-3.18-4.67A2.74,2.74,0,0,0,625.26,12.73Z" style="fill:#1d1d1b"/><path d="M641.49,22v-5.4h-4.84V22h-1.59V10.49h1.59V15.3h4.84V10.49h1.59V22Z" style="fill:#1d1d1b"/><path d="M604.11,133v-5.4h-4.84V133h-1.59V121.45h1.59v4.81h4.84v-4.81h1.59V133Z" style="fill:#1d1d1b"/><path d="M653.07,85.43V80h-4.84v5.4h-1.59V73.91h1.59v4.82h4.84V73.91h1.59V85.43Z" style="fill:#1d1d1b"/><path d="M686.55,97.61v-5.4H681.7v5.4h-1.58V86.09h1.58V90.9h4.85V86.09h1.59V97.61Z" style="fill:#1d1d1b"/><path d="M603.92,69.93V64.54h-4.85v5.39h-1.58V58.42h1.58v4.81h4.85V58.42h1.59V69.93Z" style="fill:#1d1d1b"/><path d="M605.42,78.63a4.62,4.62,0,0,1,1.71,2,7.87,7.87,0,0,1,.61,3.24,7.79,7.79,0,0,1-.61,3.21,4.68,4.68,0,0,1-1.71,2,4.6,4.6,0,0,1-2.55.7,4.68,4.68,0,0,1-2.55-.69,4.43,4.43,0,0,1-1.7-2,8.78,8.78,0,0,1,0-6.43,4.45,4.45,0,0,1,4.25-2.78A4.68,4.68,0,0,1,605.42,78.63Zm-4.89,1.75a6,6,0,0,0-.83,3.55,5.84,5.84,0,0,0,.84,3.5,2.75,2.75,0,0,0,2.33,1.13q3.18,0,3.18-4.65t-3.18-4.67A2.74,2.74,0,0,0,600.53,80.38Z" style="fill:#1d1d1b"/><path d="M616.76,89.66v-5.4h-4.85v5.4h-1.58V78.14h1.58V83h4.85V78.14h1.59V89.66Z" style="fill:#1d1d1b"/><path d="M653.65,121.09a4.59,4.59,0,0,1,1.71,2,7.87,7.87,0,0,1,.61,3.24,7.79,7.79,0,0,1-.61,3.21,4.68,4.68,0,0,1-1.71,2,4.6,4.6,0,0,1-2.55.7,4.68,4.68,0,0,1-2.55-.68,4.48,4.48,0,0,1-1.7-2,8.8,8.8,0,0,1,0-6.44,4.61,4.61,0,0,1,1.71-2.06,4.54,4.54,0,0,1,2.54-.71A4.68,4.68,0,0,1,653.65,121.09Zm-4.89,1.75a6,6,0,0,0-.83,3.54,5.89,5.89,0,0,0,.84,3.51A2.74,2.74,0,0,0,651.1,131q3.18,0,3.18-4.65t-3.18-4.66A2.74,2.74,0,0,0,648.76,122.84Z" style="fill:#1d1d1b"/><path d="M665,132.11v-5.4h-4.84v5.4h-1.59V120.6h1.59v4.81H665V120.6h1.59v11.51Z" style="fill:#1d1d1b"/><path d="M660,33.66a4.63,4.63,0,0,1,1.7,2,7.79,7.79,0,0,1,.61,3.25,7.69,7.69,0,0,1-.61,3.21,4.46,4.46,0,0,1-4.25,2.74,4.68,4.68,0,0,1-2.55-.69,4.51,4.51,0,0,1-1.71-2,8.8,8.8,0,0,1,0-6.44A4.48,4.48,0,0,1,657.47,33,4.68,4.68,0,0,1,660,33.66Zm-4.89,1.75a6,6,0,0,0-.84,3.54,5.77,5.77,0,0,0,.85,3.51,2.74,2.74,0,0,0,2.33,1.12q3.16,0,3.17-4.64t-3.17-4.67A2.72,2.72,0,0,0,655.13,35.41Z" style="fill:#1d1d1b"/><path d="M708.14,45.08a4.65,4.65,0,0,1,1.71,2,8,8,0,0,1,.61,3.25,7.86,7.86,0,0,1-.61,3.21,4.49,4.49,0,0,1-4.26,2.74,4.68,4.68,0,0,1-2.55-.69,4.49,4.49,0,0,1-1.7-2,8.8,8.8,0,0,1,0-6.44,4.68,4.68,0,0,1,1.71-2.06,4.62,4.62,0,0,1,2.54-.71A4.68,4.68,0,0,1,708.14,45.08Zm-4.89,1.75a6.08,6.08,0,0,0-.83,3.54,5.85,5.85,0,0,0,.84,3.51A2.74,2.74,0,0,0,705.59,55q3.18,0,3.18-4.64t-3.18-4.67A2.74,2.74,0,0,0,703.25,46.83Z" style="fill:#1d1d1b"/><path d="M487.23,103.68H443.32v-.56l-.4.39L409.14,68.13l.4-.39-.35-.43L443,39.66l.71.86L410.36,67.79l33.2,34.78h43.67ZM500,95.76l-.8-.77,26-27.22L496.07,40.5l.77-.81,29.55,27.65-.38.4.4.39Z" style="fill:#1d1d1b"/><rect x="443.32" y="39.53" width="53.13" height="1.11" style="fill:#1d1d1b"/><rect x="495.9" y="23.87" width="1.11" height="30.73" style="fill:#1d1d1b"/><rect x="442.76" y="91.89" width="1.11" height="27.25" style="fill:#1d1d1b"/><path d="M539.45,83.73h-14V51.14h1.11V82.62h12.88ZM410.1,82.9H409V51.42H396.11V50.31h14Z" style="fill:#1d1d1b"/><rect x="442.77" y="24.07" width="1.11" height="32.04" style="fill:#1d1d1b"/><path d="M446,122.62a4.94,4.94,0,0,1,1.45.86l-.87,1a3.51,3.51,0,0,0-2.22-.85,2.82,2.82,0,0,0-2.32,1.11,7.52,7.52,0,0,0,0,7,2.78,2.78,0,0,0,2.31,1.13,3.06,3.06,0,0,0,1.29-.25,6.8,6.8,0,0,0,1.17-.7l.78,1a4.22,4.22,0,0,1-1.37.92,4.76,4.76,0,0,1-1.92.37,4.42,4.42,0,0,1-4.2-2.74,7.69,7.69,0,0,1-.61-3.23,7.61,7.61,0,0,1,.63-3.24,4.74,4.74,0,0,1,1.72-2,4.54,4.54,0,0,1,2.43-.68A4.89,4.89,0,0,1,446,122.62Z" style="fill:#1d1d1b"/><path d="M456,134.07v-5.4h-4.85v5.4h-1.59V122.55h1.59v4.81H456v-4.81h1.58v11.52Z" style="fill:#1d1d1b"/><path d="M463,133.29a2.1,2.1,0,0,1,1.13,1.88,3.17,3.17,0,0,1-.32,1.38,6.82,6.82,0,0,1-1,1.43q-.68.77-2,2.13h3.55l-.13.91h-4.66v-.86c1.05-1.09,1.8-1.89,2.24-2.4a6.38,6.38,0,0,0,.94-1.33,2.63,2.63,0,0,0,.29-1.21,1.27,1.27,0,0,0-.36-1,1.24,1.24,0,0,0-.94-.35,1.67,1.67,0,0,0-.85.2,3.1,3.1,0,0,0-.78.66l-.71-.57a3.19,3.19,0,0,1,1.08-.89,2.85,2.85,0,0,1,1.32-.3A2.7,2.7,0,0,1,463,133.29Z" style="fill:#1d1d1b"/><path d="M471.48,123a4.51,4.51,0,0,1,1.7,2,7.76,7.76,0,0,1,.61,3.25,7.61,7.61,0,0,1-.61,3.2,4.49,4.49,0,0,1-1.7,2,4.61,4.61,0,0,1-2.55.71,4.68,4.68,0,0,1-2.55-.69,4.48,4.48,0,0,1-1.7-2,8.8,8.8,0,0,1,0-6.44,4.46,4.46,0,0,1,4.25-2.77A4.68,4.68,0,0,1,471.48,123Zm-4.89,1.75a6,6,0,0,0-.84,3.54,5.77,5.77,0,0,0,.85,3.51,2.74,2.74,0,0,0,2.33,1.12q3.18,0,3.18-4.64t-3.18-4.67A2.74,2.74,0,0,0,466.59,124.79Z" style="fill:#1d1d1b"/><path d="M482.82,134.07v-5.4H478v5.4h-1.58V122.55H478v4.81h4.85v-4.81h1.59v11.52Z" style="fill:#1d1d1b"/><path d="M445.71,21.15v-5.4h-4.85v5.4h-1.59V9.64h1.59v4.81h4.85V9.64h1.59V21.15Z" style="fill:#1d1d1b"/><path d="M527.71,47v-5.4h-4.84V47h-1.59V35.43h1.59v4.82h4.84V35.43h1.59V47Z" style="fill:#1d1d1b"/><path d="M571.23,47v-5.4h-4.85V47h-1.59V35.43h1.59v4.82h4.85V35.43h1.59V47Z" style="fill:#1d1d1b"/><path d="M498.42,69.13v-5.4h-4.84v5.4H492V57.61h1.59v4.81h4.84V57.61H500V69.13Z" style="fill:#1d1d1b"/><path d="M449.09,90.1V84.7h-4.85v5.4h-1.59V78.58h1.59V83.4h4.85V78.58h1.58V90.1Z" style="fill:#1d1d1b"/><path d="M447,58.71a4.64,4.64,0,0,1,1.7,2,7.71,7.71,0,0,1,.61,3.24,7.63,7.63,0,0,1-.61,3.21,4.73,4.73,0,0,1-1.7,2,4.63,4.63,0,0,1-2.55.7,4.68,4.68,0,0,1-2.55-.68,4.57,4.57,0,0,1-1.71-2,8.8,8.8,0,0,1,0-6.44,4.63,4.63,0,0,1,1.72-2.06A4.52,4.52,0,0,1,444.4,58,4.71,4.71,0,0,1,447,58.71Zm-4.89,1.75a6,6,0,0,0-.84,3.54,5.89,5.89,0,0,0,.84,3.51,2.76,2.76,0,0,0,2.34,1.12q3.17,0,3.17-4.65t-3.17-4.66A2.72,2.72,0,0,0,442.06,60.46Z" style="fill:#1d1d1b"/><path d="M458.29,69.73v-5.4h-4.85v5.4h-1.59V58.22h1.59V63h4.85V58.22h1.58V69.73Z" style="fill:#1d1d1b"/><path d="M498.91,10.32a4.62,4.62,0,0,1,1.71,2,7.71,7.71,0,0,1,.61,3.24,7.63,7.63,0,0,1-.61,3.21,4.68,4.68,0,0,1-1.71,2,4.59,4.59,0,0,1-2.54.7,4.66,4.66,0,0,1-2.55-.69,4.51,4.51,0,0,1-1.71-2,7.68,7.68,0,0,1-.61-3.22,7.69,7.69,0,0,1,.61-3.21,4.76,4.76,0,0,1,6.8-2.09ZM494,12.07a6.09,6.09,0,0,0-.83,3.55,5.89,5.89,0,0,0,.84,3.51,2.79,2.79,0,0,0,2.34,1.12q3.17,0,3.17-4.65t-3.17-4.67A2.75,2.75,0,0,0,494,12.07Z" style="fill:#1d1d1b"/><path d="M510.26,21.35V16h-4.85v5.4h-1.59V9.83h1.59v4.82h4.85V9.83h1.58V21.35Z" style="fill:#1d1d1b"/><path d="M498,98a4.57,4.57,0,0,1,1.7,2,7.71,7.71,0,0,1,.61,3.24,7.63,7.63,0,0,1-.61,3.21,4.55,4.55,0,0,1-1.7,2,4.6,4.6,0,0,1-2.55.7,4.68,4.68,0,0,1-2.55-.68,4.57,4.57,0,0,1-1.71-2,8.8,8.8,0,0,1,0-6.44A4.63,4.63,0,0,1,492.91,98a4.52,4.52,0,0,1,2.54-.71A4.68,4.68,0,0,1,498,98Zm-4.89,1.75a6,6,0,0,0-.84,3.54,5.77,5.77,0,0,0,.85,3.51,2.73,2.73,0,0,0,2.33,1.12q3.17,0,3.17-4.65c0-3.1-1.06-4.66-3.17-4.66A2.72,2.72,0,0,0,493.11,99.75Z" style="fill:#1d1d1b"/><path d="M549.42,79.08a4.59,4.59,0,0,1,1.71,2,7.87,7.87,0,0,1,.61,3.24,7.79,7.79,0,0,1-.61,3.21,4.68,4.68,0,0,1-1.71,2,4.6,4.6,0,0,1-2.55.7,4.76,4.76,0,0,1-2.55-.68,4.52,4.52,0,0,1-1.7-2,8.78,8.78,0,0,1,0-6.43,4.76,4.76,0,0,1,1.71-2.07,4.62,4.62,0,0,1,2.54-.71A4.69,4.69,0,0,1,549.42,79.08Zm-4.89,1.74a6,6,0,0,0-.83,3.55,5.89,5.89,0,0,0,.84,3.51A2.74,2.74,0,0,0,546.87,89q3.18,0,3.18-4.65t-3.18-4.66A2.76,2.76,0,0,0,544.53,80.82Z" style="fill:#1d1d1b"/><path d="M217.59,82.87H206.21V81.76h11.38ZM725.12,51.7H713.73V50.58h11.39Z" style="fill:#1d1d1b"/><rect x="158.45" y="76.18" width="20" height="0.84" style="fill:#1d1d1b"/><polygon points="174.69 81.88 195.26 77.83 174.69 73.78 174.69 81.88" style="fill:#1d1d1b"/></g></g></svg>