<svg xmlns="http://www.w3.org/2000/svg" viewBox="0 0 730 370.43"><title>fig-6-3</title><g id="fig-6-3"><polyline points="460.08 230.45 446.38 230.45 446.38 309.76" style="fill:none;stroke:#d13f29;stroke-miterlimit:10;stroke-width:2px"/><polyline points="460.08 309.76 446.38 309.76 446.38 254.24" style="fill:none;stroke:#d13f29;stroke-miterlimit:10;stroke-width:2px"/><polyline points="609.21 196.6 591.07 196.6 591.07 140.49" style="fill:none;stroke:#d13f29;stroke-miterlimit:10;stroke-width:2px"/><polyline points="460.22 131.46 446.38 131.46 446.38 309.76" style="fill:none;stroke:#d13f29;stroke-miterlimit:10;stroke-width:2px"/><polyline points="460.35 43.84 446.38 43.84 446.38 308.28" style="fill:none;stroke:#d13f29;stroke-miterlimit:10;stroke-width:2px"/><polyline points="609.57 119.22 591.07 119.22 591.07 174.91" style="fill:none;stroke:#d13f29;stroke-miterlimit:10;stroke-width:2px"/><line x1="368.45" y1="292.47" x2="368.45" y2="50.6" style="fill:none;stroke:#d13f29;stroke-miterlimit:10;stroke-width:2px"/><line x1="285.26" y1="171.53" x2="447.2" y2="171.53" style="fill:none;stroke:#d13f29;stroke-miterlimit:10;stroke-width:2px"/><line x1="571.2" y1="134.34" x2="591.07" y2="134.34" style="fill:none;stroke:#d13f29;stroke-miterlimit:10;stroke-width:2px"/><polyline points="123.48 263.89 137.19 263.89 137.19 228.71" style="fill:none;stroke:#d13f29;stroke-miterlimit:10;stroke-width:2px"/><polyline points="123.21 188.69 137.19 188.69 137.19 251.74" style="fill:none;stroke:#d13f29;stroke-miterlimit:10;stroke-width:2px"/><line x1="152.19" y1="224.59" x2="137.19" y2="224.59" style="fill:none;stroke:#d13f29;stroke-miterlimit:10;stroke-width:2px"/><line x1="571.2" y1="43.84" x2="609.57" y2="43.84" style="fill:none;stroke:#d13f29;stroke-miterlimit:10;stroke-width:2px"/><line x1="125.75" y1="44.95" x2="154.72" y2="44.95" style="fill:none;stroke:#d13f29;stroke-miterlimit:10;stroke-width:2px"/><line x1="125.75" y1="120.09" x2="154.72" y2="120.09" style="fill:none;stroke:#d13f29;stroke-miterlimit:10;stroke-width:2px"/><line x1="125.75" y1="325.81" x2="154.72" y2="325.81" style="fill:none;stroke:#d13f29;stroke-miterlimit:10;stroke-width:2px"/><path d="M427.28,85.1c0,6.69-4.68,12.11-10.44,12.11H317.47C311.7,97.21,307,91.79,307,85.1v-44C307,34.43,311.7,29,317.47,29h99.37c5.76,0,10.44,5.43,10.44,12.12Z" style="fill:#e55843"/><text transform="translate(318.59 52.35)" style="font-size:13.571029663085938px;fill:#fff;font-family:FiraSans-Regular, Fira Sans">A<tspan x="7.78" y="0" style="letter-spacing:-0.020004699845174955em">c</tspan><tspan x="13.99" y="0">e</tspan><tspan x="21.39" y="0" style="letter-spacing:-0.006980057140222916em">t</tspan><tspan x="26.19" y="0">a</tspan><tspan x="33.58" y="0" style="letter-spacing:-0.014967545207900687em">t</tspan><tspan x="38.27" y="0">o de Ali</tspan><tspan x="84.48" y="0" style="letter-spacing:-0.00503715463727427em">l</tspan><tspan x="88.39" y="0">a</tspan></text><text transform="translate(326.54 69.96)" style="font-size:12.63696002960205px;fill:#fff;font-family:FiraSans-Regular, Fira Sans">CH</text><text transform="translate(341.76 74.16)" style="font-size:7.367350101470947px;fill:#fff;font-family:FiraSans-Regular, Fira Sans">2</text><text transform="translate(344.74 69.96)" style="font-size:12.63696002960205px;fill:#fff;font-family:FiraSans-Regular, Fira Sans">=CHCH</text><text transform="translate(381.82 73.35)" style="font-size:7.367350101470947px;fill:#fff;font-family:FiraSans-Regular, Fira Sans">2</text><text transform="translate(384.69 69.96)" style="font-size:12.63696002960205px;fill:#fff;font-family:FiraSans-Regular, Fira Sans">OCO</text><text transform="translate(357.4 85.12)" style="font-size:12.63696002960205px;fill:#fff;font-family:FiraSans-Regular, Fira Sans">CH</text><path d="M578.28,60.67c0,4.09-4.67,7.4-10.44,7.4H468.48c-5.77,0-10.44-3.31-10.44-7.4V33.8c0-4.09,4.67-7.4,10.44-7.4h99.36c5.77,0,10.44,3.31,10.44,7.4Z" style="fill:#e55843"/><text transform="translate(482.48 51.86)" style="font-size:13.571029663085938px;fill:#fff;font-family:FiraSans-Regular, Fira Sans">Isop<tspan x="26.33" y="0" style="letter-spacing:-0.030007049767762434em">r</tspan><tspan x="31.16" y="0">o</tspan><tspan x="39.08" y="0" style="letter-spacing:-0.010002349922587478em">p</tspan><tspan x="47.01" y="0">anol</tspan></text><path d="M427.28,191c0,5.28-4.68,9.55-10.44,9.55H317.47c-5.77,0-10.44-4.27-10.44-9.55V156.33c0-5.27,4.67-9.54,10.44-9.54h99.37c5.76,0,10.44,4.27,10.44,9.54Z" style="fill:#d13f29"/><text transform="translate(340.37 166.17)" style="font-size:13.571029663085938px;fill:#fff;font-family:FiraSans-Regular, Fira Sans"><tspan style="letter-spacing:-0.020004699845174955em">P</tspan><tspan x="7.61" y="0" style="letter-spacing:-0.030007049767762434em">r</tspan><tspan x="12.44" y="0">openo</tspan></text><text transform="translate(331 185.67)" style="font-size:15.828089714050293px;fill:#fff;font-family:FiraSans-Regular, Fira Sans">CH</text><text transform="translate(350.41 190.14)" style="font-size:9.22778034210205px;fill:#fff;font-family:FiraSans-Regular, Fira Sans">3</text><text transform="translate(353.79 185.67)" style="font-size:15.828089714050293px;fill:#fff;font-family:FiraSans-Regular, Fira Sans">CH=CH</text><text transform="translate(400.14 190.25)" style="font-size:9.22778034210205px;fill:#fff;font-family:FiraSans-Regular, Fira Sans">2</text><path d="M427.28,299.17a10.52,10.52,0,0,1-10.44,10.59H317.47A10.51,10.51,0,0,1,307,299.17V260.7a10.51,10.51,0,0,1,10.44-10.59h99.37a10.52,10.52,0,0,1,10.44,10.59Z" style="fill:#e55843"/><text transform="translate(325.84 275.22)" style="font-size:13.571029663085938px;fill:#fff;font-family:FiraSans-Regular, Fira Sans"><tspan style="letter-spacing:-0.030007049767762434em">P</tspan><tspan x="7.48" y="0">olip</tspan><tspan x="31.27" y="0" style="letter-spacing:-0.030007049767762434em">r</tspan><tspan x="36.1" y="0">opi</tspan><tspan x="55.91" y="0" style="letter-spacing:-0.004965195285313208em">l</tspan><tspan x="59.82" y="0">eno</tspan></text><text transform="translate(318.71 292.46)" style="font-size:13.53009033203125px;fill:#fffffd;font-family:FiraSans-Regular, Fira Sans">-[CH(CH</text><text transform="translate(365.59 296.98)" style="font-size:7.888040065765381px;fill:#fffffd;font-family:FiraSans-Regular, Fira Sans">3</text><text transform="translate(369.35 292.47)" style="font-size:13.53009033203125px;fill:#fffffd;font-family:FiraSans-Regular, Fira Sans">)-C</text><text transform="translate(385.88 292.47)" style="font-size:13.53009033203125px;fill:#fffffd;font-family:FiraSans-Regular, Fira Sans">H</text><text transform="translate(394.15 296.98)" style="font-size:7.888040065765381px;fill:#fffffd;font-family:FiraSans-Regular, Fira Sans">2</text><text transform="translate(398.1 292.47)" style="font-size:13.53009033203125px;fill:#fffffd;font-family:FiraSans-Regular, Fira Sans">]n</text><text transform="translate(410.7 292.47)" style="font-size:13.53009033203125px;fill:#fffffd;font-family:FiraSans-Regular, Fira Sans">-</text><text transform="translate(372.06 87.89)" style="font-size:7.367350101470947px;fill:#fff;font-family:FiraSans-Regular, Fira Sans">3</text><polyline points="264.52 120.09 285.26 120.09 285.26 44.95" style="fill:none;stroke:#d13f29;stroke-miterlimit:10;stroke-width:2px"/><polyline points="264.52 44.95 285.26 44.95 285.26 109.43" style="fill:none;stroke:#d13f29;stroke-miterlimit:10;stroke-width:2px"/><polyline points="264.31 226.07 285.26 226.07 285.26 44.63" style="fill:none;stroke:#d13f29;stroke-miterlimit:10;stroke-width:2px"/><polyline points="264.11 325.81 285.26 325.81 285.26 44.63" style="fill:none;stroke:#d13f29;stroke-miterlimit:10;stroke-width:2px"/><path d="M577.61,150.69a10.51,10.51,0,0,1-10.44,10.59H467.8a10.52,10.52,0,0,1-10.44-10.59V112.22a10.52,10.52,0,0,1,10.44-10.59h99.37a10.51,10.51,0,0,1,10.44,10.59Z" style="fill:#e55843"/><text transform="translate(479.64 126.74)" style="font-size:13.571029663085938px;fill:#fff;font-family:FiraSans-Regular, Fira Sans">Buti<tspan x="24.88" y="0" style="letter-spacing:-0.03497224505307565em">r</tspan><tspan x="29.64" y="0" style="letter-spacing:-0.010002349922587478em">a</tspan><tspan x="36.89" y="0" style="letter-spacing:-0.004965195285313208em">l</tspan><tspan x="40.8" y="0">deído</tspan></text><text transform="translate(488.29 145.43)" style="font-size:16px;fill:#fff;font-family:FiraSans-Regular, Fira Sans">C</text><text transform="translate(497.76 149.19)" style="font-size:10.314590454101562px;fill:#fff;font-family:FiraSans-Regular, Fira Sans">3</text><text transform="translate(502.91 145.41)" style="font-size:16px;fill:#fff;font-family:FiraSans-Regular, Fira Sans">H</text><text transform="translate(513.72 149.32)" style="font-size:10.314590454101562px;fill:#fff;font-family:FiraSans-Regular, Fira Sans">7</text><text transform="translate(518.88 145.41)" style="font-size:16px;fill:#fff;font-family:FiraSans-Regular, Fira Sans">CHO</text><path d="M577.61,248.57a10.51,10.51,0,0,1-10.44,10.6H467.8a10.52,10.52,0,0,1-10.44-10.6V210.11a10.53,10.53,0,0,1,10.44-10.6h99.37a10.52,10.52,0,0,1,10.44,10.6Z" style="fill:#e55843"/><text transform="translate(486.56 226.29)" style="font-size:13.571029663085938px;fill:#fff;font-family:FiraSans-Regular, Fira Sans">2-Bu<tspan x="28.34" y="0" style="letter-spacing:-0.014967545207900687em">t</tspan><tspan x="33.03" y="0">enos</tspan></text><text transform="translate(491.21 243.82)" style="font-size:13.571029663085938px;fill:#fff;font-family:FiraSans-Regular, Fira Sans">+ <tspan x="10.37" y="0" style="letter-spacing:-0.013960114280445832em">E</tspan><tspan x="17.44" y="0">ti</tspan><tspan x="26.17" y="0" style="letter-spacing:-0.00503715463727427em">l</tspan><tspan x="30.07" y="0">eno</tspan></text><path d="M577.61,327.51a10.51,10.51,0,0,1-10.44,10.59H467.8a10.52,10.52,0,0,1-10.44-10.59V289a10.52,10.52,0,0,1,10.44-10.59h99.37A10.51,10.51,0,0,1,577.61,289Z" style="fill:#e55843"/><text transform="translate(495.79 305.22)" style="font-size:13.571029663085938px;fill:#fff;font-family:FiraSans-Regular, Fira Sans"><tspan style="letter-spacing:-0.004965195285313208em">É</tspan><tspan x="7.19" y="0">s</tspan><tspan x="13.53" y="0" style="letter-spacing:-0.015039504559861748em">t</tspan><tspan x="18.23" y="0">e</tspan><tspan x="25.62" y="0" style="letter-spacing:-0.030007049767762434em">r</tspan><tspan x="30.45" y="0">es</tspan><tspan x="-17.59" y="16.43">Isop</tspan><tspan x="8.73" y="16.43" style="letter-spacing:-0.030007049767762434em">r</tspan><tspan x="13.57" y="16.43">op</tspan><tspan x="29.55" y="16.43" style="letter-spacing:0.008994918995132625em">í</tspan><tspan x="33.5" y="16.43">li</tspan><tspan x="41.31" y="16.43" style="letter-spacing:-0.020004699845174955em">c</tspan><tspan x="47.52" y="16.43">os</tspan></text><path d="M268.47,63.86A10.52,10.52,0,0,1,258,74.45H158.66a10.51,10.51,0,0,1-10.44-10.59V25.39A10.51,10.51,0,0,1,158.66,14.8H258a10.52,10.52,0,0,1,10.44,10.59Z" style="fill:#e55843"/><text transform="translate(179.84 41.18)" style="font-size:13.571029663085938px;fill:#fff;font-family:FiraSans-Regular, Fira Sans">Ac<tspan x="14.26" y="0" style="letter-spacing:-0.030007049767762434em">r</tspan><tspan x="19.09" y="0">o</tspan><tspan x="27.02" y="0" style="letter-spacing:-0.004965195285313208em">l</tspan><tspan x="30.93" y="0">eína</tspan></text><text transform="translate(173.99 58.95)" style="font-size:14px;fill:#fff;font-family:FiraSans-Regular, Fira Sans">CH</text><text transform="translate(190.99 61.93)" style="font-size:8px;fill:#fff;font-family:FiraSans-Regular, Fira Sans">2</text><text transform="translate(194.45 58.95)" style="font-size:14px;fill:#fff;font-family:FiraSans-Regular, Fira Sans">=CHCHO</text><path d="M268.47,136.9A10.53,10.53,0,0,1,258,147.5H158.66a10.52,10.52,0,0,1-10.44-10.6V98.44a10.52,10.52,0,0,1,10.44-10.6H258a10.53,10.53,0,0,1,10.44,10.6Z" style="fill:#e55843"/><path d="M268.47,247.06c0,6.43-4.68,11.65-10.44,11.65H158.66c-5.77,0-10.44-5.22-10.44-11.65V204.8c0-6.43,4.67-11.64,10.44-11.64H258c5.76,0,10.44,5.21,10.44,11.64Z" style="fill:#e55843"/><path d="M270.54,345a10.53,10.53,0,0,1-10.44,10.6H160.73A10.52,10.52,0,0,1,150.29,345V306.58A10.51,10.51,0,0,1,160.73,296H260.1a10.52,10.52,0,0,1,10.44,10.6Z" style="fill:#e55843"/><path d="M127.26,207.93a10.51,10.51,0,0,1-10.44,10.59H17.45A10.52,10.52,0,0,1,7,207.93V169.46a10.53,10.53,0,0,1,10.44-10.6h99.37a10.52,10.52,0,0,1,10.44,10.6Z" style="fill:#e55843"/><path d="M127.26,279a10.51,10.51,0,0,1-10.44,10.59H17.45A10.52,10.52,0,0,1,7,279V240.48a10.52,10.52,0,0,1,10.44-10.59h99.37a10.51,10.51,0,0,1,10.44,10.59Z" style="fill:#e55843"/><path d="M127.26,63.86a10.51,10.51,0,0,1-10.44,10.59H17.45A10.52,10.52,0,0,1,7,63.86V25.39A10.52,10.52,0,0,1,17.45,14.8h99.37a10.51,10.51,0,0,1,10.44,10.59Z" style="fill:#e55843"/><path d="M127.26,136.9a10.52,10.52,0,0,1-10.44,10.6H17.45A10.53,10.53,0,0,1,7,136.9V98.44a10.53,10.53,0,0,1,10.44-10.6h99.37a10.52,10.52,0,0,1,10.44,10.6Z" style="fill:#e55843"/><path d="M127.26,338.13c0,3.37-4.67,6.11-10.44,6.11H17.45C11.69,344.24,7,341.5,7,338.13V315.92c0-3.37,4.68-6.11,10.44-6.11h99.37c5.77,0,10.44,2.74,10.44,6.11Z" style="fill:#e55843"/><path d="M723.2,138c0,6.29-4.67,11.39-10.44,11.39H613.4c-5.77,0-10.44-5.1-10.44-11.39V96.66c0-6.29,4.67-11.39,10.44-11.39h99.36c5.77,0,10.44,5.1,10.44,11.39Z" style="fill:#e55843"/><path d="M723.2,216.07a10.51,10.51,0,0,1-10.44,10.59H613.4A10.51,10.51,0,0,1,603,216.07V177.6A10.51,10.51,0,0,1,613.4,167h99.36A10.51,10.51,0,0,1,723.2,177.6Z" style="fill:#e55843"/><path d="M723.2,60.67c0,4.09-4.67,7.4-10.44,7.4H613.4c-5.77,0-10.44-3.31-10.44-7.4V33.8c0-4.09,4.67-7.4,10.44-7.4h99.36c5.77,0,10.44,3.31,10.44,7.4Z" style="fill:#e55843"/><text transform="translate(45.3 331.06)" style="font-size:13.571029663085938px;fill:#fff;font-family:FiraSans-Regular, Fira Sans">Gli<tspan x="16.37" y="0" style="letter-spacing:-0.020004699845174955em">c</tspan><tspan x="22.58" y="0">e</tspan><tspan x="29.98" y="0" style="letter-spacing:-0.030007049767762434em">r</tspan><tspan x="34.81" y="0">ol</tspan></text><text transform="translate(638.41 52.51)" style="font-size:13.571029663085938px;fill:#fff;font-family:FiraSans-Regular, Fira Sans">A<tspan x="7.78" y="0" style="letter-spacing:-0.020004699845174955em">c</tspan><tspan x="13.99" y="0">e</tspan><tspan x="21.39" y="0" style="letter-spacing:-0.014967545207900687em">t</tspan><tspan x="26.08" y="0">ona</tspan></text><text transform="translate(620.03 106.72)" style="font-size:13.571029663085938px;fill:#fff;font-family:FiraSans-Regular, Fira Sans">2-<tspan x="12.19" y="0" style="letter-spacing:-0.013960114280445832em">E</tspan><tspan x="19.26" y="0">ti</tspan><tspan x="27.98" y="0" style="letter-spacing:-0.010002349922587478em">l</tspan><tspan x="31.83" y="0">-h</tspan><tspan x="45.25" y="0" style="letter-spacing:-0.008994918995132625em">e</tspan><tspan x="52.52" y="0" style="letter-spacing:-0.015039504559861748em">x</tspan><tspan x="58.9" y="0">anol</tspan><tspan x="8.03" y="16.43">CH (CH ) CH</tspan><tspan x="7.14" y="32.86">(C H )CH OH</tspan></text><text transform="translate(669.54 125.68)" style="font-size:6.579070091247559px;fill:#fff;font-family:FiraSans-Regular, Fira Sans">2</text><text transform="translate(639.85 142.47)" style="font-size:6.579070091247559px;fill:#fff;font-family:FiraSans-Regular, Fira Sans">2</text><text transform="translate(676.58 142.47)" style="font-size:6.579070091247559px;fill:#fff;font-family:FiraSans-Regular, Fira Sans">2</text><text transform="translate(678.05 126.05)" style="font-size:6.366769790649414px;fill:#fff;font-family:FiraSans-Regular, Fira Sans">3</text><text transform="translate(645 126.15)" style="font-size:6.366769790649414px;fill:#fff;font-family:FiraSans-Regular, Fira Sans">3</text><text transform="translate(651.85 142.47)" style="font-size:6.366769790649414px;fill:#fff;font-family:FiraSans-Regular, Fira Sans">5</text><text transform="translate(632.27 195.21)" style="font-size:13.571029663085938px;fill:#fff;font-family:FiraSans-Regular, Fira Sans">n-Bu<tspan x="29.57" y="0" style="letter-spacing:-0.006980057140222916em">t</tspan><tspan x="34.38" y="0">anol</tspan><tspan x="9.49" y="16.43">C H OH</tspan></text><text transform="translate(661.93 213.54)" style="font-size:7.665599822998047px;fill:#fff;font-family:FiraSans-Regular, Fira Sans">9</text><text transform="translate(649.64 213.54)" style="font-size:7.8553900718688965px;fill:#fff;font-family:FiraSans-Regular, Fira Sans">4</text><text transform="translate(25.58 43.14)" style="font-size:13.571029663085938px;fill:#fff;font-family:FiraSans-Regular, Fira Sans">Ácido Acr<tspan x="57.23" y="0" style="letter-spacing:0.008994918995132625em">í</tspan><tspan x="61.18" y="0">li</tspan><tspan x="68.98" y="0" style="letter-spacing:-0.020004699845174955em">c</tspan><tspan x="75.2" y="0">o</tspan><tspan x="1.87" y="16.43">CH =CH</tspan><tspan x="45.91" y="16.43" style="letter-spacing:-0.020004699845174955em">C</tspan><tspan x="53.24" y="16.43">OOH</tspan></text><text transform="translate(172.48 115.97)" style="font-size:13.571029663085938px;fill:#fff;font-family:FiraSans-Regular, Fira Sans">Acri<tspan x="23.33" y="0" style="letter-spacing:-0.004965195285313208em">l</tspan><tspan x="27.24" y="0">onitri</tspan><tspan x="60.91" y="0" style="letter-spacing:-0.00503715463727427em">l</tspan><tspan x="64.82" y="0">a</tspan><tspan x="5.65" y="16.43">CH =CHCN</tspan></text><text transform="translate(163.49 324.22)" style="font-size:13.571029663085938px;fill:#fff;font-family:FiraSans-Regular, Fira Sans"><tspan style="letter-spacing:-0.010002349922587478em">C</tspan><tspan x="7.46" y="0" style="letter-spacing:-0.004965195285313208em">l</tspan><tspan x="11.37" y="0">o</tspan><tspan x="19.3" y="0" style="letter-spacing:-0.030007049767762434em">r</tspan><tspan x="24.13" y="0">e</tspan><tspan x="31.53" y="0" style="letter-spacing:-0.015039504559861748em">t</tspan><tspan x="36.22" y="0">o de Ali</tspan><tspan x="82.43" y="0" style="letter-spacing:-0.004965195285313208em">l</tspan><tspan x="86.34" y="0">a</tspan><tspan x="8.91" y="16.43">CH =CHCH </tspan><tspan x="73.37" y="16.43" style="letter-spacing:-0.010002349922587478em">C</tspan><tspan x="80.84" y="16.43">l</tspan></text><text transform="translate(181.18 214.6)" style="font-size:13.571029663085938px;fill:#fff;font-family:FiraSans-Regular, Fira Sans"><tspan style="letter-spacing:-0.010002349922587478em">Ó</tspan><tspan x="9.25" y="0">xido de </tspan><tspan x="-2.31" y="16.43" style="letter-spacing:-0.020004699845174955em">P</tspan><tspan x="5.3" y="16.43" style="letter-spacing:-0.030007049767762434em">r</tspan><tspan x="10.13" y="16.43">opi</tspan><tspan x="29.94" y="16.43" style="letter-spacing:-0.004965195285313208em">l</tspan><tspan x="33.85" y="16.43">eno</tspan><tspan x="-7.93" y="32.86">CH CH CH O</tspan></text><text transform="translate(25.57 187.35)" style="font-size:13.571029663085938px;fill:#fff;font-family:FiraSans-Regular, Fira Sans"><tspan style="letter-spacing:-0.010002349922587478em">C</tspan><tspan x="7.46" y="0">arbona</tspan><tspan x="51.41" y="0" style="letter-spacing:-0.014967545207900687em">t</tspan><tspan x="56.1" y="0">o de</tspan><tspan x="11.85" y="16.43" style="letter-spacing:-0.020004699845174955em">P</tspan><tspan x="19.46" y="16.43" style="letter-spacing:-0.030007049767762434em">r</tspan><tspan x="24.29" y="16.43">opi</tspan><tspan x="44.11" y="16.43" style="letter-spacing:-0.004965195285313208em">l</tspan><tspan x="48.01" y="16.43">eno</tspan></text><text transform="translate(30.77 115.32)" style="font-size:13.571029663085938px;fill:#fff;font-family:FiraSans-Regular, Fira Sans">Adiponitri<tspan x="61.45" y="0" style="letter-spacing:-0.004965195285313208em">l</tspan><tspan x="65.36" y="0">a</tspan><tspan x="3.09" y="16.43">NC(CH ) CN</tspan></text><text transform="translate(29.41 257.75)" style="font-size:13.571029663085938px;fill:#fff;font-family:FiraSans-Regular, Fira Sans">Á<tspan x="7.78" y="0" style="letter-spacing:-0.004965195285313208em">l</tspan><tspan x="11.69" y="0" style="letter-spacing:-0.020004699845174955em">c</tspan><tspan x="17.9" y="0">ool A</tspan><tspan x="49.1" y="0" style="letter-spacing:0.008994918995132625em">í</tspan><tspan x="53.05" y="0">li</tspan><tspan x="60.86" y="0" style="letter-spacing:-0.020004699845174955em">c</tspan><tspan x="67.07" y="0">o</tspan><tspan x="-4.04" y="16.43">CH =CHCH OH</tspan></text><text transform="translate(42.54 276.44)" style="font-size:6.366769790649414px;fill:#fff;font-family:FiraSans-Regular, Fira Sans">2</text><text transform="translate(86.33 276.41)" style="font-size:6.366769790649414px;fill:#fff;font-family:FiraSans-Regular, Fira Sans">2</text><text transform="translate(44.16 61.93)" style="font-size:6.366769790649414px;fill:#fff;font-family:FiraSans-Regular, Fira Sans">2</text><text transform="translate(71.94 134.34)" style="font-size:6.366769790649414px;fill:#fff;font-family:FiraSans-Regular, Fira Sans">2</text><text transform="translate(79.79 134.34)" style="font-size:6.366769790649414px;fill:#fff;font-family:FiraSans-Regular, Fira Sans">4</text><text transform="translate(195.04 134.34)" style="font-size:6.366769790649414px;fill:#fff;font-family:FiraSans-Regular, Fira Sans">2</text><text transform="translate(190.53 250.08)" style="font-size:6.366769790649414px;fill:#fff;font-family:FiraSans-Regular, Fira Sans">3</text><text transform="translate(187.83 342.79)" style="font-size:6.366769790649414px;fill:#fff;font-family:FiraSans-Regular, Fira Sans">2</text><text transform="translate(232.67 342.79)" style="font-size:6.366769790649414px;fill:#fff;font-family:FiraSans-Regular, Fira Sans">2</text><text transform="translate(210.79 250.15)" style="font-size:6.366769790649414px;fill:#fff;font-family:FiraSans-Regular, Fira Sans">2</text><text transform="translate(231.14 250.15)" style="font-size:6.366769790649414px;fill:#fff;font-family:FiraSans-Regular, Fira Sans">2</text></g></svg>