<svg xmlns="http://www.w3.org/2000/svg" viewBox="0 0 730 171.11"><title>fig-7-6</title><g id="fig-7-6"><g id="roxo"><path d="M160.62,93.92a2.32,2.32,0,0,1,.86,2,2.42,2.42,0,0,1-.9,2.07,3.87,3.87,0,0,1-2.39.68h-1.07v3.11H156V93.26h2.23A3.94,3.94,0,0,1,160.62,93.92Zm-.92,3.39a1.64,1.64,0,0,0,.54-1.42,1.54,1.54,0,0,0-.54-1.31,2.49,2.49,0,0,0-1.53-.41h-1V97.7h1A2.59,2.59,0,0,0,159.7,97.31Z" style="fill:#6827ab"/><path d="M166.26,95.18l-.21,1.11a2.37,2.37,0,0,0-.57-.08,1.2,1.2,0,0,0-1,.45,3.19,3.19,0,0,0-.58,1.38v3.7H162.8V95.25h1l.11,1.32a2.55,2.55,0,0,1,.7-1.1,1.6,1.6,0,0,1,1-.36A2.62,2.62,0,0,1,166.26,95.18Z" style="fill:#6827ab"/><path d="M171.74,96a3.7,3.7,0,0,1,.76,2.47,4.16,4.16,0,0,1-.35,1.78,2.65,2.65,0,0,1-1,1.19,2.73,2.73,0,0,1-1.55.43,2.62,2.62,0,0,1-2.13-.91,3.74,3.74,0,0,1-.77-2.48,4.35,4.35,0,0,1,.35-1.78,2.67,2.67,0,0,1,1-1.19,2.8,2.8,0,0,1,1.56-.42A2.59,2.59,0,0,1,171.74,96Zm-3.81,2.48c0,1.65.56,2.48,1.68,2.48s1.67-.83,1.67-2.49S170.73,96,169.62,96,167.93,96.85,167.93,98.5Z" style="fill:#6827ab"/><path d="M177.79,95.27a3,3,0,0,1,.93.54l-.54.71a3,3,0,0,0-.68-.36,2,2,0,0,0-.72-.12,1.4,1.4,0,0,0-1.22.63,3.27,3.27,0,0,0-.44,1.86,3.11,3.11,0,0,0,.43,1.81,1.45,1.45,0,0,0,1.23.59,2,2,0,0,0,.71-.12,3.75,3.75,0,0,0,.71-.37l.52.74a3.11,3.11,0,0,1-2,.71,2.6,2.6,0,0,1-2.07-.89,3.66,3.66,0,0,1-.76-2.45,4.43,4.43,0,0,1,.35-1.81,2.72,2.72,0,0,1,1-1.2,2.57,2.57,0,0,1,1.5-.43A3.23,3.23,0,0,1,177.79,95.27Z" style="fill:#6827ab"/><path d="M184.89,98.89h-4.14a2.54,2.54,0,0,0,.54,1.57,1.56,1.56,0,0,0,1.21.51,2.63,2.63,0,0,0,.86-.14,3.25,3.25,0,0,0,.82-.43l.5.68a3.61,3.61,0,0,1-2.27.81,2.63,2.63,0,0,1-2.11-.89,3.59,3.59,0,0,1-.76-2.43,4.62,4.62,0,0,1,.33-1.8,2.89,2.89,0,0,1,.93-1.22,2.37,2.37,0,0,1,1.44-.44,2.39,2.39,0,0,1,2,.85,3.62,3.62,0,0,1,.69,2.35C184.91,98.5,184.9,98.69,184.89,98.89Zm-1.1-.92a2.42,2.42,0,0,0-.38-1.46,1.35,1.35,0,0,0-1.15-.5c-.92,0-1.43.68-1.51,2h3Z" style="fill:#6827ab"/><path d="M189.67,95.29a3.36,3.36,0,0,1,1,.56l-.48.71a3.66,3.66,0,0,0-.84-.42,2.63,2.63,0,0,0-.84-.13,1.53,1.53,0,0,0-.88.22.78.78,0,0,0,0,1.24,3.51,3.51,0,0,0,1.09.43,3.82,3.82,0,0,1,1.62.74,1.6,1.6,0,0,1,.54,1.28,1.64,1.64,0,0,1-.75,1.46,3.11,3.11,0,0,1-1.81.51,3.57,3.57,0,0,1-2.45-.85l.6-.69a2.94,2.94,0,0,0,1.82.63,1.71,1.71,0,0,0,1-.27.82.82,0,0,0,.37-.72.93.93,0,0,0-.13-.53,1.07,1.07,0,0,0-.47-.36,7.54,7.54,0,0,0-1-.33,3.38,3.38,0,0,1-1.5-.72,1.63,1.63,0,0,1-.16-2.08,2,2,0,0,1,.84-.64,3.09,3.09,0,0,1,1.2-.22A3.67,3.67,0,0,1,189.67,95.29Z" style="fill:#6827ab"/><path d="M195.3,95.29a3.49,3.49,0,0,1,1,.56l-.48.71a4.11,4.11,0,0,0-.84-.42,2.65,2.65,0,0,0-.85-.13,1.47,1.47,0,0,0-.87.22.71.71,0,0,0-.32.62.72.72,0,0,0,.3.62,3.4,3.4,0,0,0,1.09.43,4,4,0,0,1,1.62.74,1.6,1.6,0,0,1,.53,1.28,1.63,1.63,0,0,1-.74,1.46,3.14,3.14,0,0,1-1.82.51,3.58,3.58,0,0,1-2.45-.85l.61-.69a2.92,2.92,0,0,0,1.82.63,1.7,1.7,0,0,0,1-.27.82.82,0,0,0,.38-.72.92.92,0,0,0-.14-.53,1,1,0,0,0-.46-.36,7.79,7.79,0,0,0-1-.33,3.33,3.33,0,0,1-1.49-.72,1.63,1.63,0,0,1-.16-2.08,2.08,2.08,0,0,1,.83-.64,3.11,3.11,0,0,1,1.21-.22A3.67,3.67,0,0,1,195.3,95.29Z" style="fill:#6827ab"/><path d="M202.65,96a3.7,3.7,0,0,1,.76,2.47,4.32,4.32,0,0,1-.34,1.78,2.67,2.67,0,0,1-1,1.19,2.71,2.71,0,0,1-1.55.43,2.62,2.62,0,0,1-2.13-.91,3.73,3.73,0,0,1-.76-2.48,4.35,4.35,0,0,1,.34-1.78,2.67,2.67,0,0,1,1-1.19,2.8,2.8,0,0,1,1.56-.42A2.59,2.59,0,0,1,202.65,96Zm-3.8,2.48c0,1.65.55,2.48,1.67,2.48s1.67-.83,1.67-2.49S201.64,96,200.53,96,198.85,96.85,198.85,98.5Z" style="fill:#6827ab"/><path d="M216.34,95.64a2.1,2.1,0,0,1,.48,1.45v4.65h-1.13V97.25c0-.84-.31-1.26-.92-1.26a1.21,1.21,0,0,0-.81.28,3.59,3.59,0,0,0-.71.87v4.6h-1.13V97.25c0-.84-.31-1.26-.91-1.26a1.23,1.23,0,0,0-.83.29,3.47,3.47,0,0,0-.7.86v4.6h-1.13V95.25h1l.1,1a2.17,2.17,0,0,1,1.87-1.09,1.76,1.76,0,0,1,1,.3,1.79,1.79,0,0,1,.61.87,2.92,2.92,0,0,1,.84-.87,2,2,0,0,1,1.09-.3A1.63,1.63,0,0,1,216.34,95.64Z" style="fill:#6827ab"/><path d="M224,98.89h-4.14a2.48,2.48,0,0,0,.55,1.57,1.55,1.55,0,0,0,1.2.51,2.63,2.63,0,0,0,.86-.14,3.3,3.3,0,0,0,.83-.43l.49.68a3.58,3.58,0,0,1-2.26.81,2.61,2.61,0,0,1-2.11-.89,3.59,3.59,0,0,1-.76-2.43,4.82,4.82,0,0,1,.32-1.8,2.83,2.83,0,0,1,.94-1.22,2.34,2.34,0,0,1,1.43-.44,2.4,2.4,0,0,1,2,.85,3.62,3.62,0,0,1,.69,2.35A5.78,5.78,0,0,1,224,98.89ZM222.88,98a2.35,2.35,0,0,0-.39-1.46,1.32,1.32,0,0,0-1.14-.5c-.93,0-1.43.68-1.52,2h3Z" style="fill:#6827ab"/><path d="M229.23,95.27a2.81,2.81,0,0,1,.92.54l-.54.71a3.16,3.16,0,0,0-.67-.36,2.09,2.09,0,0,0-.72-.12,1.41,1.41,0,0,0-1.23.63,3.28,3.28,0,0,0-.43,1.86,3,3,0,0,0,.43,1.81,1.42,1.42,0,0,0,1.23.59,2,2,0,0,0,.7-.12,3.75,3.75,0,0,0,.71-.37l.52.74a3.1,3.1,0,0,1-2,.71,2.61,2.61,0,0,1-2.08-.89,3.66,3.66,0,0,1-.75-2.45,4.43,4.43,0,0,1,.34-1.81,2.79,2.79,0,0,1,1-1.2,2.6,2.6,0,0,1,1.51-.43A3.27,3.27,0,0,1,229.23,95.27Z" style="fill:#6827ab"/><path d="M236.07,100.81a.79.79,0,0,0,.41.29l-.26.79a1.76,1.76,0,0,1-.81-.28,1.3,1.3,0,0,1-.46-.69,2.19,2.19,0,0,1-1.93,1,2.05,2.05,0,0,1-1.51-.54,1.91,1.91,0,0,1-.56-1.42,1.86,1.86,0,0,1,.75-1.59,3.47,3.47,0,0,1,2.11-.55h1v-.48a1.28,1.28,0,0,0-.33-1,1.53,1.53,0,0,0-1-.29,5.68,5.68,0,0,0-1.75.34l-.28-.82a6.39,6.39,0,0,1,2.24-.44,2.32,2.32,0,0,1,1.71.56,2.12,2.12,0,0,1,.57,1.59v3A1,1,0,0,0,236.07,100.81Zm-4-6.87-.48-.56L233.23,92H234l1.67,1.39-.49.56-1.55-1ZM234.8,100V98.54H234c-1.19,0-1.79.44-1.79,1.33a1.18,1.18,0,0,0,.28.87,1.1,1.1,0,0,0,.84.3A1.68,1.68,0,0,0,234.8,100Z" style="fill:#6827ab"/><path d="M242.7,95.64a2,2,0,0,1,.5,1.45v4.65h-1.13V97.25a1.43,1.43,0,0,0-.26-1,1,1,0,0,0-.76-.29,1.44,1.44,0,0,0-.91.3,2.87,2.87,0,0,0-.74.85v4.6h-1.14V95.25h1l.09,1a2.76,2.76,0,0,1,.86-.81,2.19,2.19,0,0,1,1.13-.29A1.77,1.77,0,0,1,242.7,95.64Z" style="fill:#6827ab"/><path d="M246.61,92.36a.74.74,0,0,1,.22.55.71.71,0,0,1-.22.55.78.78,0,0,1-.58.22.73.73,0,0,1-.56-.22.72.72,0,0,1-.23-.55.75.75,0,0,1,.23-.55.73.73,0,0,1,.56-.22A.78.78,0,0,1,246.61,92.36Zm0,2.89v6.49h-1.13V95.25Z" style="fill:#6827ab"/><path d="M252.37,95.27a3,3,0,0,1,.93.54l-.55.71a2.94,2.94,0,0,0-.67-.36,2.09,2.09,0,0,0-.72-.12,1.4,1.4,0,0,0-1.22.63,3.27,3.27,0,0,0-.44,1.86,3,3,0,0,0,.43,1.81,1.45,1.45,0,0,0,1.23.59,1.94,1.94,0,0,0,.7-.12,3.53,3.53,0,0,0,.72-.37l.52.74a3.15,3.15,0,0,1-2,.71,2.59,2.59,0,0,1-2.07-.89,3.61,3.61,0,0,1-.76-2.45,4.43,4.43,0,0,1,.35-1.81,2.72,2.72,0,0,1,1-1.2,2.57,2.57,0,0,1,1.5-.43A3.23,3.23,0,0,1,252.37,95.27Z" style="fill:#6827ab"/><path d="M259.15,96a3.76,3.76,0,0,1,.76,2.47,4.31,4.31,0,0,1-.35,1.78,2.67,2.67,0,0,1-1,1.19,2.71,2.71,0,0,1-1.55.43,2.62,2.62,0,0,1-2.13-.91,3.73,3.73,0,0,1-.76-2.48,4.19,4.19,0,0,1,.35-1.78,2.65,2.65,0,0,1,1-1.19,2.85,2.85,0,0,1,1.57-.42A2.6,2.6,0,0,1,259.15,96Zm-3.81,2.48c0,1.65.56,2.48,1.67,2.48s1.68-.83,1.68-2.49S258.13,96,257,96,255.34,96.85,255.34,98.5Z" style="fill:#6827ab"/><path d="M262.69,95.89a.86.86,0,0,1-.62,1.47.82.82,0,0,1-.6-.25.87.87,0,0,1,0-1.22.81.81,0,0,1,.6-.24A.86.86,0,0,1,262.69,95.89Zm0,4.53a.87.87,0,0,1,0,1.22.83.83,0,0,1-.62.25.79.79,0,0,1-.6-.25.87.87,0,0,1,0-1.22.81.81,0,0,1,.6-.24A.86.86,0,0,1,262.69,100.42Z" style="fill:#6827ab"/></g><g id="roxo" data-name="roxo"><path d="M19.12,101.75H18l-.29-3.83c-.12-1.5-.19-2.66-.21-3.46l-1.83,6.33h-1.1l-1.93-6.34c0,1-.06,2.21-.16,3.56l-.29,3.74h-1.1l.7-8.49h1.57l1.79,6.17,1.7-6.17h1.58Z" style="fill:#6827ab"/><path d="M25.56,100.82a.82.82,0,0,0,.4.29l-.26.78a1.73,1.73,0,0,1-.81-.28,1.29,1.29,0,0,1-.45-.69,2.18,2.18,0,0,1-1.94,1,2,2,0,0,1-1.51-.54,1.88,1.88,0,0,1-.56-1.41,1.86,1.86,0,0,1,.75-1.59,3.49,3.49,0,0,1,2.11-.55h1v-.48a1.28,1.28,0,0,0-.33-1,1.53,1.53,0,0,0-1-.29,5.62,5.62,0,0,0-1.74.34l-.29-.82a6.46,6.46,0,0,1,2.24-.45,2.33,2.33,0,0,1,1.71.56,2.16,2.16,0,0,1,.57,1.6v3A1,1,0,0,0,25.56,100.82ZM24.29,100V98.55h-.85c-1.2,0-1.8.44-1.8,1.33a1.21,1.21,0,0,0,.28.87,1.1,1.1,0,0,0,.84.3A1.7,1.7,0,0,0,24.29,100Z" style="fill:#6827ab"/><path d="M32.77,92.65v9.1h-1l-.11-.9a2.35,2.35,0,0,1-.8.77,2.13,2.13,0,0,1-1.07.27A2.07,2.07,0,0,1,28,101a4.14,4.14,0,0,1-.65-2.45,4.69,4.69,0,0,1,.31-1.77,2.71,2.71,0,0,1,.88-1.21,2.21,2.21,0,0,1,1.36-.44,2.35,2.35,0,0,1,1.75.8v-3.4Zm-1.85,8.11a2.72,2.72,0,0,0,.72-.72V96.86a2.37,2.37,0,0,0-.69-.63,1.49,1.49,0,0,0-.81-.22,1.32,1.32,0,0,0-1.17.63,3.48,3.48,0,0,0-.41,1.87,3.66,3.66,0,0,0,.38,1.87A1.23,1.23,0,0,0,30,101,1.57,1.57,0,0,0,30.92,100.76Z" style="fill:#6827ab"/><path d="M40,98.89H35.85a2.55,2.55,0,0,0,.54,1.58,1.58,1.58,0,0,0,1.21.5,2.67,2.67,0,0,0,.86-.13,3.83,3.83,0,0,0,.82-.43l.49.67a3.58,3.58,0,0,1-2.26.81A2.62,2.62,0,0,1,35.4,101a3.6,3.6,0,0,1-.76-2.44A4.57,4.57,0,0,1,35,96.78a2.75,2.75,0,0,1,.93-1.22,2.65,2.65,0,0,1,3.42.4A3.63,3.63,0,0,1,40,98.31,5.78,5.78,0,0,1,40,98.89ZM38.89,98a2.45,2.45,0,0,0-.38-1.47,1.37,1.37,0,0,0-1.15-.5c-.93,0-1.43.68-1.51,2h3Z" style="fill:#6827ab"/><path d="M43,92.37a.72.72,0,0,1,.22.55.74.74,0,0,1-.22.55.81.81,0,0,1-.58.21.76.76,0,0,1-.56-.21.75.75,0,0,1-.23-.55.79.79,0,0,1,.79-.78A.78.78,0,0,1,43,92.37Zm0,2.89v6.49H41.82V95.26Z" style="fill:#6827ab"/><path d="M48.75,95.19l-.21,1.1a2.34,2.34,0,0,0-.57-.07,1.22,1.22,0,0,0-1,.44A3.3,3.3,0,0,0,46.42,98v3.71H45.29V95.26h1l.11,1.32a2.49,2.49,0,0,1,.7-1.1,1.56,1.56,0,0,1,1-.37A2.61,2.61,0,0,1,48.75,95.19Z" style="fill:#6827ab"/><path d="M54.12,100.82a.82.82,0,0,0,.4.29l-.26.78a1.73,1.73,0,0,1-.81-.28,1.29,1.29,0,0,1-.45-.69,2.18,2.18,0,0,1-1.94,1,2,2,0,0,1-1.51-.54A1.88,1.88,0,0,1,49,99.94a1.86,1.86,0,0,1,.75-1.59,3.49,3.49,0,0,1,2.11-.55h1v-.48a1.28,1.28,0,0,0-.33-1,1.53,1.53,0,0,0-1-.29,5.67,5.67,0,0,0-1.74.34l-.29-.82a6.46,6.46,0,0,1,2.24-.45,2.33,2.33,0,0,1,1.71.56,2.16,2.16,0,0,1,.57,1.6v3A1,1,0,0,0,54.12,100.82ZM52.85,100V98.55H52c-1.2,0-1.8.44-1.8,1.33a1.26,1.26,0,0,0,.28.87,1.1,1.1,0,0,0,.84.3A1.7,1.7,0,0,0,52.85,100Z" style="fill:#6827ab"/><path d="M57.22,95.9a.82.82,0,0,1,.25.6.86.86,0,0,1-.25.61.83.83,0,0,1-.62.25.79.79,0,0,1-.6-.25.86.86,0,0,1-.25-.61.85.85,0,0,1,.85-.85A.87.87,0,0,1,57.22,95.9Zm0,4.53a.84.84,0,0,1,.25.6.86.86,0,0,1-.25.61.83.83,0,0,1-.62.25.79.79,0,0,1-.6-.25.86.86,0,0,1-.25-.61.84.84,0,0,1,.25-.6.82.82,0,0,1,.6-.25A.87.87,0,0,1,57.22,100.43Z" style="fill:#6827ab"/></g><g id="roxo" data-name="roxo"><path d="M308.57,101.74l-.63-2.13h-3.22l-.64,2.13H302.9l2.72-8.48h1.48l2.71,8.48Zm-1.23-11.21.5.94-2.66,1-.3-.61ZM305,98.66h2.65l-1.32-4.43Z" style="fill:#6827ab"/><path d="M316.28,95.55a4,4,0,0,1-.81.16c-.3,0-.66,0-1.08,0a1.71,1.71,0,0,1,1.14,1.63,2,2,0,0,1-.67,1.59,2.54,2.54,0,0,1-1.8.62,2.45,2.45,0,0,1-.83-.13.67.67,0,0,0-.23.27.69.69,0,0,0-.09.34c0,.35.28.53.85.53h1a2.82,2.82,0,0,1,1.16.23,1.85,1.85,0,0,1,.78.64,1.56,1.56,0,0,1,.28.92,1.63,1.63,0,0,1-.78,1.46,4.11,4.11,0,0,1-2.26.51,5.28,5.28,0,0,1-1.66-.21,1.59,1.59,0,0,1-.86-.65,2.05,2.05,0,0,1-.26-1.11h1a1.15,1.15,0,0,0,.15.63.93.93,0,0,0,.53.34,3.73,3.73,0,0,0,1.08.12,3.06,3.06,0,0,0,1.46-.26.8.8,0,0,0,.43-.75.76.76,0,0,0-.34-.69,1.66,1.66,0,0,0-1-.24h-1a1.88,1.88,0,0,1-1.25-.35,1.09,1.09,0,0,1-.43-.88,1.15,1.15,0,0,1,.19-.61,1.67,1.67,0,0,1,.53-.53,1.86,1.86,0,0,1-1.1-1.8,2.15,2.15,0,0,1,.33-1.17,2.25,2.25,0,0,1,.9-.8,2.67,2.67,0,0,1,1.27-.29,9.37,9.37,0,0,0,1.28-.06,4.74,4.74,0,0,0,.86-.18c.22-.08.5-.19.83-.34Zm-4.29.77a1.76,1.76,0,0,0,0,2.12,1.49,1.49,0,0,0,2,0,1.54,1.54,0,0,0,.35-1.09c0-1-.46-1.44-1.39-1.44A1.24,1.24,0,0,0,312,96.32Z" style="fill:#6827ab"/><path d="M322.15,101.74h-1l-.09-1a2.33,2.33,0,0,1-.85.88,2.24,2.24,0,0,1-1.16.28,1.7,1.7,0,0,1-1.33-.52,2.06,2.06,0,0,1-.48-1.46V95.25h1.13v4.53a1.54,1.54,0,0,0,.23,1,1,1,0,0,0,.77.27A1.92,1.92,0,0,0,321,99.88V95.25h1.13Z" style="fill:#6827ab"/><path d="M329,100.81a.76.76,0,0,0,.4.29l-.25.79a1.85,1.85,0,0,1-.82-.28,1.35,1.35,0,0,1-.45-.69,2.2,2.2,0,0,1-1.94,1,2.08,2.08,0,0,1-1.51-.54,1.9,1.9,0,0,1-.55-1.42,1.85,1.85,0,0,1,.74-1.59,3.49,3.49,0,0,1,2.11-.55h1v-.48a1.28,1.28,0,0,0-.33-1,1.53,1.53,0,0,0-1-.29,5.68,5.68,0,0,0-1.75.34l-.29-.82a6.49,6.49,0,0,1,2.25-.44,2.32,2.32,0,0,1,1.71.56,2.15,2.15,0,0,1,.56,1.59v3A1,1,0,0,0,329,100.81Zm-1.27-.78V98.54h-.85c-1.2,0-1.8.44-1.8,1.33a1.18,1.18,0,0,0,.29.87,1.08,1.08,0,0,0,.83.3A1.7,1.7,0,0,0,327.73,100Z" style="fill:#6827ab"/><path d="M332.1,95.89a.87.87,0,0,1,0,1.22.85.85,0,1,1,0-1.22Zm0,4.53a.87.87,0,0,1,0,1.22.87.87,0,0,1-1.22,0,.85.85,0,0,1,.6-1.46A.84.84,0,0,1,332.1,100.42Z" style="fill:#6827ab"/></g><g id="roxo" data-name="roxo"><path d="M606.93,101.68H605.8l-.3-3.83c-.12-1.5-.19-2.65-.21-3.46l-1.83,6.33h-1.1l-1.93-6.34c0,1,0,2.22-.16,3.56l-.28,3.74h-1.11l.7-8.48h1.58l1.78,6.17,1.7-6.17h1.59Z" style="fill:#6827ab"/><path d="M613.42,96a3.72,3.72,0,0,1,.76,2.47,4.28,4.28,0,0,1-.34,1.78,2.63,2.63,0,0,1-2.55,1.62,2.62,2.62,0,0,1-2.13-.91,3.72,3.72,0,0,1-.76-2.47,4.28,4.28,0,0,1,.34-1.78,2.69,2.69,0,0,1,1-1.2,2.8,2.8,0,0,1,1.56-.42A2.59,2.59,0,0,1,613.42,96Zm-3.81,2.49c0,1.65.56,2.47,1.68,2.47s1.67-.83,1.67-2.49S612.41,96,611.3,96,609.61,96.79,609.61,98.45Z" style="fill:#6827ab"/><path d="M620.43,100.75a.79.79,0,0,0,.41.29l-.26.79a1.73,1.73,0,0,1-.81-.28,1.36,1.36,0,0,1-.46-.69,2.16,2.16,0,0,1-1.93,1,2.07,2.07,0,0,1-1.51-.54,1.89,1.89,0,0,1-.56-1.42,1.83,1.83,0,0,1,.75-1.58,3.46,3.46,0,0,1,2.11-.56h1v-.48a1.21,1.21,0,0,0-.34-1,1.48,1.48,0,0,0-1-.3,5.79,5.79,0,0,0-1.75.35l-.28-.83a6.67,6.67,0,0,1,2.24-.44,2.3,2.3,0,0,1,1.71.56,2.12,2.12,0,0,1,.57,1.59v3A1,1,0,0,0,620.43,100.75Zm-1.26-.78V98.48h-.85c-1.2,0-1.8.45-1.8,1.33a1.22,1.22,0,0,0,.28.88,1.14,1.14,0,0,0,.84.29A1.7,1.7,0,0,0,619.17,100Z" style="fill:#6827ab"/><path d="M627.73,95.49a3.23,3.23,0,0,1-.81.16c-.29,0-.65,0-1.08,0A1.71,1.71,0,0,1,627,97.32a2.07,2.07,0,0,1-.66,1.59,2.56,2.56,0,0,1-1.81.62,2.66,2.66,0,0,1-.82-.12.67.67,0,0,0-.24.26.69.69,0,0,0-.09.34c0,.35.29.53.85.53h1a2.86,2.86,0,0,1,1.16.23,2,2,0,0,1,.78.64,1.64,1.64,0,0,1,.27.93,1.62,1.62,0,0,1-.77,1.45,4.06,4.06,0,0,1-2.27.52,5.17,5.17,0,0,1-1.65-.22,1.53,1.53,0,0,1-.87-.65,2.11,2.11,0,0,1-.26-1.1h1a1.12,1.12,0,0,0,.15.62,1,1,0,0,0,.53.34,3.78,3.78,0,0,0,1.08.12,3.18,3.18,0,0,0,1.46-.25.83.83,0,0,0,.44-.76.81.81,0,0,0-.34-.69,1.72,1.72,0,0,0-1-.23h-1a2,2,0,0,1-1.25-.35,1.11,1.11,0,0,1-.42-.88,1.17,1.17,0,0,1,.18-.62,1.91,1.91,0,0,1,.53-.53,2.07,2.07,0,0,1-.83-.73,2,2,0,0,1-.26-1.07,2.12,2.12,0,0,1,1.22-2,2.71,2.71,0,0,1,1.28-.29,8.13,8.13,0,0,0,1.28-.06,3.91,3.91,0,0,0,.85-.18c.23-.08.5-.19.83-.34Zm-4.29.77a1.57,1.57,0,0,0-.35,1,1.54,1.54,0,0,0,.36,1.07,1.3,1.3,0,0,0,1,.4,1.32,1.32,0,0,0,1-.39,1.59,1.59,0,0,0,.35-1.09,1.41,1.41,0,0,0-2.39-1Z" style="fill:#6827ab"/><path d="M633.58,98.83h-4.13a2.46,2.46,0,0,0,.54,1.57,1.55,1.55,0,0,0,1.2.51,2.69,2.69,0,0,0,.87-.14,3.43,3.43,0,0,0,.82-.43l.49.68a3.58,3.58,0,0,1-2.26.81,2.58,2.58,0,0,1-2.11-.89,3.59,3.59,0,0,1-.76-2.43,4.54,4.54,0,0,1,.33-1.79,2.78,2.78,0,0,1,.93-1.23,2.43,2.43,0,0,1,1.44-.44,2.39,2.39,0,0,1,2,.85,3.62,3.62,0,0,1,.69,2.35A5.78,5.78,0,0,1,633.58,98.83Zm-1.09-.91a2.45,2.45,0,0,0-.38-1.47A1.35,1.35,0,0,0,631,96c-.93,0-1.43.68-1.51,2h3Z" style="fill:#6827ab"/><path d="M643.21,95.58a2.1,2.1,0,0,1,.48,1.45v4.65h-1.13V97.19c0-.84-.31-1.26-.91-1.26a1.27,1.27,0,0,0-.82.28,3.8,3.8,0,0,0-.71.87v4.6H639V97.19c0-.84-.31-1.26-.91-1.26a1.23,1.23,0,0,0-.83.29,3.67,3.67,0,0,0-.7.86v4.6h-1.13V95.2h1l.1.94a2.17,2.17,0,0,1,1.87-1.09,1.76,1.76,0,0,1,1,.3,1.79,1.79,0,0,1,.61.87,2.92,2.92,0,0,1,.84-.87,2,2,0,0,1,1.09-.3A1.66,1.66,0,0,1,643.21,95.58Z" style="fill:#6827ab"/><path d="M646.88,95.84a.81.81,0,0,1,.24.6.85.85,0,0,1-.24.61.83.83,0,0,1-.62.25.79.79,0,0,1-.6-.25.82.82,0,0,1-.25-.61.85.85,0,0,1,.85-.85A.83.83,0,0,1,646.88,95.84Zm0,4.53a.81.81,0,0,1,.24.6.85.85,0,0,1-.24.61.83.83,0,0,1-.62.25.79.79,0,0,1-.6-.25.82.82,0,0,1-.25-.61.85.85,0,0,1,.85-.85A.83.83,0,0,1,646.88,100.37Z" style="fill:#6827ab"/></g><g id="preto"><path d="M161.9,119.73h-1.56l-3.45-7.2c.05.57.09,1.09.12,1.57s0,1.06,0,1.74v3.89H156v-8.48h1.53l3.48,7.22c0-.22-.05-.59-.09-1.12s-.07-1-.07-1.47v-4.63h1.1Z"/><path d="M168.81,118.8a.76.76,0,0,0,.4.29l-.26.79a1.73,1.73,0,0,1-.81-.28,1.29,1.29,0,0,1-.45-.69,2.18,2.18,0,0,1-1.94,1,2.07,2.07,0,0,1-1.51-.54,1.88,1.88,0,0,1-.55-1.42,1.83,1.83,0,0,1,.74-1.58,3.48,3.48,0,0,1,2.11-.56h1v-.48a1.24,1.24,0,0,0-.33-1,1.53,1.53,0,0,0-1-.3,5.73,5.73,0,0,0-1.74.35l-.29-.83a6.67,6.67,0,0,1,2.24-.44,2.37,2.37,0,0,1,1.72.56,2.15,2.15,0,0,1,.56,1.59v3A1,1,0,0,0,168.81,118.8Zm-2.18-7.23a3.91,3.91,0,0,1-.42-.24,2.2,2.2,0,0,0-.31-.2.66.66,0,0,0-.27-.06.47.47,0,0,0-.34.13,1.59,1.59,0,0,0-.31.43l-.69-.34a2.4,2.4,0,0,1,.57-.79,1.12,1.12,0,0,1,.77-.29,1,1,0,0,1,.44.09,2.43,2.43,0,0,1,.42.25l.16.1a1.43,1.43,0,0,0,.21.11.71.71,0,0,0,.2,0,.53.53,0,0,0,.33-.13,1.75,1.75,0,0,0,.32-.42l.69.35a2.14,2.14,0,0,1-.58.79,1.2,1.2,0,0,1-.76.27A1,1,0,0,1,166.63,111.57Zm.91,6.45v-1.49h-.85c-1.2,0-1.8.45-1.8,1.33a1.23,1.23,0,0,0,.29.88,1.1,1.1,0,0,0,.83.29A1.68,1.68,0,0,0,167.54,118Z"/><path d="M175.56,114a3.78,3.78,0,0,1,.76,2.47,4.28,4.28,0,0,1-.35,1.78,2.69,2.69,0,0,1-1,1.2,2.79,2.79,0,0,1-1.55.42,2.62,2.62,0,0,1-2.13-.91,3.72,3.72,0,0,1-.76-2.47,4.28,4.28,0,0,1,.35-1.78,2.74,2.74,0,0,1,1-1.2,2.85,2.85,0,0,1,1.57-.42A2.6,2.6,0,0,1,175.56,114Zm-3.81,2.49c0,1.65.56,2.47,1.67,2.47s1.68-.83,1.68-2.49-.56-2.47-1.66-2.47S171.75,114.84,171.75,116.5Z"/><path d="M184.73,119.44a2.56,2.56,0,0,1-1.46.44,1.71,1.71,0,0,1-1.28-.47,1.91,1.91,0,0,1-.47-1.38v-3.91h-1.13v-.87h1.13v-1.47l1.14-.13v1.6h1.54l-.13.87h-1.41V118a1.19,1.19,0,0,0,.18.73.69.69,0,0,0,.59.23,1.86,1.86,0,0,0,.86-.26Z"/><path d="M190.59,116.88h-4.14a2.52,2.52,0,0,0,.54,1.57,1.56,1.56,0,0,0,1.21.51,2.63,2.63,0,0,0,.86-.14,3.25,3.25,0,0,0,.82-.43l.5.68a3.61,3.61,0,0,1-2.27.81A2.62,2.62,0,0,1,186,119a3.64,3.64,0,0,1-.76-2.44,4.57,4.57,0,0,1,.33-1.79,2.92,2.92,0,0,1,.93-1.23,2.43,2.43,0,0,1,1.44-.44,2.39,2.39,0,0,1,2,.85,3.62,3.62,0,0,1,.69,2.35C190.61,116.49,190.6,116.68,190.59,116.88Zm-1.1-.91a2.45,2.45,0,0,0-.38-1.47A1.37,1.37,0,0,0,188,114c-.92,0-1.43.68-1.51,2h3Z"/><path d="M200.21,113.63a2.1,2.1,0,0,1,.48,1.45v4.65h-1.13v-4.49c0-.84-.3-1.26-.91-1.26a1.24,1.24,0,0,0-.81.28,4,4,0,0,0-.72.87v4.6H196v-4.49c0-.84-.3-1.26-.91-1.26a1.25,1.25,0,0,0-.83.29,3.94,3.94,0,0,0-.7.86v4.6h-1.13v-6.48h1l.1.94a2.17,2.17,0,0,1,1.87-1.09,1.68,1.68,0,0,1,1,.31,1.66,1.66,0,0,1,.61.86,2.92,2.92,0,0,1,.84-.87,2,2,0,0,1,1.09-.3A1.66,1.66,0,0,1,200.21,113.63Z"/><path d="M209.51,119.44a2.54,2.54,0,0,1-1.46.44,1.71,1.71,0,0,1-1.28-.47,1.9,1.9,0,0,1-.46-1.38v-3.91h-1.14v-.87h1.14v-1.47l1.13-.13v1.6H209l-.13.87h-1.41V118a1.19,1.19,0,0,0,.18.73.71.71,0,0,0,.59.23,1.9,1.9,0,0,0,.87-.26Z"/><path d="M214.14,113.17l-.21,1.11a2.34,2.34,0,0,0-.57-.07,1.18,1.18,0,0,0-1,.44,3.19,3.19,0,0,0-.58,1.38v3.7h-1.13v-6.48h1l.11,1.31a2.45,2.45,0,0,1,.7-1.09,1.55,1.55,0,0,1,1-.37A2.64,2.64,0,0,1,214.14,113.17Z"/><path d="M219.5,118.8a.79.79,0,0,0,.41.29l-.26.79a1.65,1.65,0,0,1-.81-.28,1.3,1.3,0,0,1-.46-.69,2.16,2.16,0,0,1-1.93,1,2.07,2.07,0,0,1-1.51-.54,1.89,1.89,0,0,1-.56-1.42,1.84,1.84,0,0,1,.75-1.58,3.46,3.46,0,0,1,2.11-.56h1v-.48a1.24,1.24,0,0,0-.33-1,1.48,1.48,0,0,0-1-.3,5.73,5.73,0,0,0-1.75.35l-.28-.83a6.63,6.63,0,0,1,2.24-.44,2.36,2.36,0,0,1,1.71.56,2.12,2.12,0,0,1,.57,1.59v3A1,1,0,0,0,219.5,118.8Zm-1.27-.78v-1.49h-.84c-1.2,0-1.8.45-1.8,1.33a1.22,1.22,0,0,0,.28.88,1.14,1.14,0,0,0,.84.29A1.66,1.66,0,0,0,218.23,118Z"/><path d="M225,119.44a2.53,2.53,0,0,1-1.45.44,1.75,1.75,0,0,1-1.29-.47,1.9,1.9,0,0,1-.46-1.38v-3.91h-1.13v-.87h1.13v-1.47l1.13-.13v1.6h1.54l-.12.87H222.9V118a1.19,1.19,0,0,0,.18.73.73.73,0,0,0,.6.23,1.9,1.9,0,0,0,.86-.26Z"/><path d="M230.56,118.8a.76.76,0,0,0,.4.29l-.25.79a1.73,1.73,0,0,1-.82-.28,1.35,1.35,0,0,1-.45-.69,2.18,2.18,0,0,1-1.93,1,2.09,2.09,0,0,1-1.52-.54,1.88,1.88,0,0,1-.55-1.42,1.86,1.86,0,0,1,.74-1.58,3.48,3.48,0,0,1,2.11-.56h1v-.48a1.24,1.24,0,0,0-.33-1,1.48,1.48,0,0,0-1-.3,5.73,5.73,0,0,0-1.75.35l-.29-.83a6.73,6.73,0,0,1,2.25-.44,2.36,2.36,0,0,1,1.71.56,2.15,2.15,0,0,1,.56,1.59v3A1,1,0,0,0,230.56,118.8Zm-1.27-.78v-1.49h-.85c-1.2,0-1.8.45-1.8,1.33a1.23,1.23,0,0,0,.29.88,1.13,1.13,0,0,0,.83.29A1.68,1.68,0,0,0,229.29,118Z"/><path d="M240.54,113.63a2.1,2.1,0,0,1,.48,1.45v4.65h-1.13v-4.49c0-.84-.3-1.26-.91-1.26a1.24,1.24,0,0,0-.81.28,4,4,0,0,0-.72.87v4.6h-1.13v-4.49c0-.84-.3-1.26-.91-1.26a1.25,1.25,0,0,0-.83.29,3.94,3.94,0,0,0-.7.86v4.6h-1.13v-6.48h1l.1.94a2.18,2.18,0,0,1,1.87-1.09,1.68,1.68,0,0,1,1,.31,1.66,1.66,0,0,1,.61.86,2.92,2.92,0,0,1,.84-.87,2,2,0,0,1,1.09-.3A1.64,1.64,0,0,1,240.54,113.63Z"/><path d="M248.18,116.88H244a2.52,2.52,0,0,0,.54,1.57,1.56,1.56,0,0,0,1.21.51,2.63,2.63,0,0,0,.86-.14,3.25,3.25,0,0,0,.82-.43l.5.68a3.61,3.61,0,0,1-2.27.81,2.62,2.62,0,0,1-2.11-.88,3.64,3.64,0,0,1-.76-2.44,4.57,4.57,0,0,1,.33-1.79,2.92,2.92,0,0,1,.93-1.23,2.43,2.43,0,0,1,1.44-.44,2.39,2.39,0,0,1,2,.85,3.62,3.62,0,0,1,.69,2.35C248.2,116.49,248.19,116.68,248.18,116.88Zm-1.1-.91a2.45,2.45,0,0,0-.38-1.47,1.37,1.37,0,0,0-1.15-.5c-.92,0-1.43.68-1.51,2h3Z"/><path d="M254.45,113.63a2,2,0,0,1,.5,1.45v4.65h-1.14v-4.49a1.39,1.39,0,0,0-.26-1,1,1,0,0,0-.76-.29,1.46,1.46,0,0,0-.91.3,3.16,3.16,0,0,0-.74.85v4.6H250v-6.48h1l.1,1a2.59,2.59,0,0,1,.86-.82,2.25,2.25,0,0,1,1.12-.29A1.81,1.81,0,0,1,254.45,113.63Z"/><path d="M260.5,119.44a2.54,2.54,0,0,1-1.46.44,1.72,1.72,0,0,1-1.28-.47,1.9,1.9,0,0,1-.46-1.38v-3.91h-1.14v-.87h1.14v-1.47l1.13-.13v1.6H260l-.12.87h-1.42V118a1.19,1.19,0,0,0,.18.73.72.72,0,0,0,.59.23,1.9,1.9,0,0,0,.87-.26Z"/><path d="M266,114a3.72,3.72,0,0,1,.76,2.47,4.28,4.28,0,0,1-.34,1.78,2.76,2.76,0,0,1-1,1.2,2.81,2.81,0,0,1-1.55.42,2.62,2.62,0,0,1-2.13-.91,3.72,3.72,0,0,1-.76-2.47,4.28,4.28,0,0,1,.34-1.78,2.69,2.69,0,0,1,1-1.2,2.8,2.8,0,0,1,1.56-.42A2.59,2.59,0,0,1,266,114Zm-3.81,2.49c0,1.65.56,2.47,1.68,2.47s1.67-.83,1.67-2.49S265,114,263.92,114,262.23,114.84,262.23,116.5Z"/><path d="M160.92,128.63v9.1h-1l-.11-.9a2.45,2.45,0,0,1-.8.77,2.15,2.15,0,0,1-1.07.27,2.08,2.08,0,0,1-1.81-.91,4.14,4.14,0,0,1-.64-2.45,4.9,4.9,0,0,1,.3-1.77,2.72,2.72,0,0,1,.89-1.21,2.21,2.21,0,0,1,1.35-.44,2.34,2.34,0,0,1,1.75.8v-3.4Zm-1.85,8.1a2.56,2.56,0,0,0,.71-.72v-3.17a2.54,2.54,0,0,0-.68-.64,1.61,1.61,0,0,0-.82-.21,1.3,1.3,0,0,0-1.16.63,3.39,3.39,0,0,0-.41,1.87,3.56,3.56,0,0,0,.38,1.87,1.21,1.21,0,0,0,1.09.61A1.6,1.6,0,0,0,159.07,136.73Z"/><path d="M167.76,136.8a.87.87,0,0,0,.41.29l-.26.78a1.65,1.65,0,0,1-.81-.28,1.3,1.3,0,0,1-.46-.69,2.18,2.18,0,0,1-1.93,1,2.09,2.09,0,0,1-1.52-.54,2.08,2.08,0,0,1,.19-3,3.48,3.48,0,0,1,2.11-.56h1v-.48a1.26,1.26,0,0,0-.33-1,1.48,1.48,0,0,0-1-.3,5.73,5.73,0,0,0-1.75.35l-.28-.83a6.63,6.63,0,0,1,2.24-.44,2.36,2.36,0,0,1,1.71.56,2.13,2.13,0,0,1,.56,1.59v3A1,1,0,0,0,167.76,136.8Zm-1.27-.79v-1.49h-.85c-1.2,0-1.79.45-1.79,1.33a1.22,1.22,0,0,0,.28.88,1.1,1.1,0,0,0,.84.29A1.68,1.68,0,0,0,166.49,136Z"/><path d="M178,132a4.6,4.6,0,0,1,.57,2.5,4.21,4.21,0,0,1-.66,2.46,2.17,2.17,0,0,1-1.88.93,2.08,2.08,0,0,1-1.7-.73v3.07l-1.14.14v-9.11h1l.08.87a2.58,2.58,0,0,1,.86-.76,2.34,2.34,0,0,1,1.06-.26A2,2,0,0,1,178,132Zm-.65,2.5c0-1.66-.48-2.49-1.46-2.49a1.43,1.43,0,0,0-.87.28,2.54,2.54,0,0,0-.69.73v3.16a1.62,1.62,0,0,0,1.42.79C176.84,137,177.37,136.13,177.37,134.48Z"/><path d="M185.09,132a3.78,3.78,0,0,1,.75,2.48,4.35,4.35,0,0,1-.34,1.78,2.67,2.67,0,0,1-1,1.19,2.79,2.79,0,0,1-1.55.42,2.62,2.62,0,0,1-2.13-.91,3.7,3.7,0,0,1-.76-2.47,4.32,4.32,0,0,1,.34-1.78,2.63,2.63,0,0,1,2.56-1.62A2.62,2.62,0,0,1,185.09,132Zm-3.81,2.49c0,1.65.56,2.47,1.67,2.47s1.68-.83,1.68-2.48S184.07,132,183,132,181.28,132.83,181.28,134.49Z"/><path d="M188,137.5a1.42,1.42,0,0,1-.37-1.05v-7.82l1.14-.14v7.93a.66.66,0,0,0,.09.39.35.35,0,0,0,.31.13,1.08,1.08,0,0,0,.42-.08l.3.79a1.82,1.82,0,0,1-.9.22A1.3,1.3,0,0,1,188,137.5Z"/><path d="M196.12,132a4.51,4.51,0,0,1,.58,2.5,4.21,4.21,0,0,1-.66,2.46,2.18,2.18,0,0,1-1.89.93,2.08,2.08,0,0,1-1.69-.73v3.07l-1.14.14v-9.11h1l.08.87a2.58,2.58,0,0,1,.86-.76,2.34,2.34,0,0,1,1.06-.26A2,2,0,0,1,196.12,132Zm-.64,2.5c0-1.66-.48-2.49-1.46-2.49a1.43,1.43,0,0,0-.87.28,2.54,2.54,0,0,0-.69.73v3.16a1.62,1.62,0,0,0,1.42.79C195,137,195.48,136.13,195.48,134.48Z"/><path d="M203,136.8a.89.89,0,0,0,.4.29l-.25.78a1.73,1.73,0,0,1-.82-.28,1.35,1.35,0,0,1-.45-.69,2.18,2.18,0,0,1-1.93,1,2.09,2.09,0,0,1-1.52-.54,2.08,2.08,0,0,1,.19-3,3.48,3.48,0,0,1,2.11-.56h1v-.48a1.26,1.26,0,0,0-.33-1,1.48,1.48,0,0,0-1-.3,5.73,5.73,0,0,0-1.75.35l-.29-.83a6.73,6.73,0,0,1,2.25-.44,2.36,2.36,0,0,1,1.71.56,2.17,2.17,0,0,1,.56,1.59v3A1,1,0,0,0,203,136.8Zm-1.27-.79v-1.49h-.85c-1.2,0-1.8.45-1.8,1.33a1.23,1.23,0,0,0,.29.88,1.09,1.09,0,0,0,.83.29A1.68,1.68,0,0,0,201.75,136Z"/><path d="M67.25,93.92a2.31,2.31,0,0,1,.86,2A2.47,2.47,0,0,1,67.22,98a3.89,3.89,0,0,1-2.39.67H63.76v3.12H62.59V93.26h2.22A3.94,3.94,0,0,1,67.25,93.92Zm-.92,3.4a1.66,1.66,0,0,0,.54-1.42,1.54,1.54,0,0,0-.54-1.32,2.47,2.47,0,0,0-1.53-.4h-1v3.53h1A2.59,2.59,0,0,0,66.33,97.32Z"/><path d="M70.81,92.37a.72.72,0,0,1,.22.55.74.74,0,0,1-.22.55.89.89,0,0,1-1.15,0,.78.78,0,0,1-.22-.55.76.76,0,0,1,.22-.55.83.83,0,0,1,1.15,0Zm0,2.89v6.49H69.68V95.26Z"/><path d="M77.59,95.64a2,2,0,0,1,.5,1.45v4.66H77v-4.5a1.39,1.39,0,0,0-.26-1,1,1,0,0,0-.76-.28,1.52,1.52,0,0,0-.91.29,3.16,3.16,0,0,0-.74.85v4.61H73.15V95.26h1l.1,1a2.53,2.53,0,0,1,.85-.81,2.22,2.22,0,0,1,1.13-.3A1.85,1.85,0,0,1,77.59,95.64Z"/><path d="M85.19,101.75h-1l-.09-1a2.57,2.57,0,0,1-.85.88,2.35,2.35,0,0,1-1.17.27,1.73,1.73,0,0,1-1.33-.51,2.08,2.08,0,0,1-.48-1.47V95.26h1.13v4.53a1.44,1.44,0,0,0,.24.94.92.92,0,0,0,.76.28,1.94,1.94,0,0,0,1.63-1.12V95.26h1.13Z"/><path d="M90.48,95.3a3.45,3.45,0,0,1,1,.55l-.48.71a4,4,0,0,0-.84-.41,2.66,2.66,0,0,0-.85-.14,1.5,1.5,0,0,0-.87.23.73.73,0,0,0-.32.62.74.74,0,0,0,.3.62,3.78,3.78,0,0,0,1.09.43,4,4,0,0,1,1.62.73,1.63,1.63,0,0,1,.54,1.29,1.65,1.65,0,0,1-.75,1.46,3.11,3.11,0,0,1-1.81.5,3.59,3.59,0,0,1-2.45-.84l.6-.69a3,3,0,0,0,1.82.62,1.71,1.71,0,0,0,1-.26.84.84,0,0,0,.37-.72,1,1,0,0,0-.13-.54,1.13,1.13,0,0,0-.47-.35,6.25,6.25,0,0,0-1-.33,3.28,3.28,0,0,1-1.5-.73A1.62,1.62,0,0,1,87.25,96a2,2,0,0,1,.84-.64,3,3,0,0,1,1.2-.23A3.42,3.42,0,0,1,90.48,95.3Z"/><path d="M101.41,98.89H97.28a2.55,2.55,0,0,0,.54,1.58A1.58,1.58,0,0,0,99,101a2.67,2.67,0,0,0,.86-.13,3.61,3.61,0,0,0,.82-.43l.49.67a3.56,3.56,0,0,1-2.26.81,2.62,2.62,0,0,1-2.11-.88,3.6,3.6,0,0,1-.76-2.44,4.57,4.57,0,0,1,.33-1.79,2.75,2.75,0,0,1,.93-1.22,2.65,2.65,0,0,1,3.42.4,3.63,3.63,0,0,1,.69,2.35A5.78,5.78,0,0,1,101.41,98.89ZM100.32,98a2.45,2.45,0,0,0-.38-1.47,1.37,1.37,0,0,0-1.15-.5c-.93,0-1.43.68-1.51,2h3Z"/><path d="M111.09,101.75l-.64-2.13h-3.21l-.64,2.13h-1.18l2.72-8.49h1.47l2.71,8.49Zm-3.57-3.08h2.65l-1.32-4.43Z"/><path d="M118.29,96a4.15,4.15,0,0,1,.65,2.5,4.92,4.92,0,0,1-.3,1.78,2.66,2.66,0,0,1-.89,1.19,2.26,2.26,0,0,1-1.35.42,2.13,2.13,0,0,1-1.73-.86l-.11.72h-1v-9.1l1.13-.14v3.56a2.16,2.16,0,0,1,1.83-1A2.07,2.07,0,0,1,118.29,96Zm-1,4.39a3.38,3.38,0,0,0,.43-1.89,3.51,3.51,0,0,0-.4-1.9,1.27,1.27,0,0,0-1.12-.59,1.84,1.84,0,0,0-1.51,1v3.1a1.93,1.93,0,0,0,.63.64,1.47,1.47,0,0,0,.8.24A1.36,1.36,0,0,0,117.3,100.39Z"/><path d="M122,92.37a.72.72,0,0,1,.22.55.74.74,0,0,1-.22.55.89.89,0,0,1-1.15,0,.78.78,0,0,1-.22-.55.76.76,0,0,1,.22-.55.83.83,0,0,1,1.15,0Zm0,2.89v6.49h-1.13V95.26Z"/><path d="M129.22,98.89h-4.13a2.55,2.55,0,0,0,.54,1.58,1.58,1.58,0,0,0,1.21.5,2.67,2.67,0,0,0,.86-.13,3.83,3.83,0,0,0,.82-.43l.49.67a3.58,3.58,0,0,1-2.26.81,2.62,2.62,0,0,1-2.11-.88,3.6,3.6,0,0,1-.76-2.44,4.57,4.57,0,0,1,.33-1.79,2.75,2.75,0,0,1,.93-1.22,2.65,2.65,0,0,1,3.42.4,3.63,3.63,0,0,1,.69,2.35A5.78,5.78,0,0,1,129.22,98.89ZM128.13,98a2.45,2.45,0,0,0-.38-1.47,1.37,1.37,0,0,0-1.15-.5c-.93,0-1.43.68-1.51,2h3Z"/><path d="M134,95.3a3.45,3.45,0,0,1,1,.55l-.48.71a4,4,0,0,0-.84-.41,2.64,2.64,0,0,0-.84-.14,1.51,1.51,0,0,0-.88.23.73.73,0,0,0-.32.62.74.74,0,0,0,.3.62,3.78,3.78,0,0,0,1.09.43,4,4,0,0,1,1.62.73,1.63,1.63,0,0,1,.54,1.29,1.65,1.65,0,0,1-.75,1.46,3.11,3.11,0,0,1-1.81.5,3.59,3.59,0,0,1-2.45-.84l.6-.69a3,3,0,0,0,1.82.62,1.71,1.71,0,0,0,1-.26A.84.84,0,0,0,134,100a1,1,0,0,0-.13-.54,1.13,1.13,0,0,0-.47-.35,6.25,6.25,0,0,0-1-.33,3.28,3.28,0,0,1-1.5-.73,1.62,1.62,0,0,1-.16-2.07,2,2,0,0,1,.84-.64,3.06,3.06,0,0,1,1.2-.23A3.42,3.42,0,0,1,134,95.3Z"/><path d="M13.8,109.83a15.8,15.8,0,0,0-1,1.69,7.7,7.7,0,0,0-.59,1.7,11.68,11.68,0,0,0,0,4.41,8,8,0,0,0,.59,1.71,14,14,0,0,0,1,1.69l-.72.49c-.54-.77-.95-1.4-1.25-1.9a7.76,7.76,0,0,1-.73-1.78,9.52,9.52,0,0,1,0-4.82,8,8,0,0,1,.73-1.78c.3-.5.71-1.13,1.25-1.9Z"/><path d="M23.25,113.64a2.1,2.1,0,0,1,.48,1.45v4.65H22.6v-4.49c0-.84-.3-1.26-.91-1.26a1.19,1.19,0,0,0-.81.28,3.59,3.59,0,0,0-.72.87v4.6H19v-4.49c0-.84-.3-1.26-.91-1.26a1.3,1.3,0,0,0-.83.28,4,4,0,0,0-.7.87v4.6H15.46v-6.49h1l.1,1a2.19,2.19,0,0,1,1.87-1.1,1.75,1.75,0,0,1,1,.31,1.7,1.7,0,0,1,.61.86,3,3,0,0,1,.84-.86A1.89,1.89,0,0,1,22,113.1,1.62,1.62,0,0,1,23.25,113.64Z"/><path d="M30.52,118.81a.82.82,0,0,0,.4.29l-.26.79a1.73,1.73,0,0,1-.81-.29,1.22,1.22,0,0,1-.45-.69,2.19,2.19,0,0,1-1.94,1,2.07,2.07,0,0,1-1.51-.54,1.92,1.92,0,0,1-.56-1.42,1.86,1.86,0,0,1,.75-1.59,3.49,3.49,0,0,1,2.11-.55h1v-.48a1.28,1.28,0,0,0-.33-1,1.58,1.58,0,0,0-1-.29,5.62,5.62,0,0,0-1.74.34l-.29-.82a6.46,6.46,0,0,1,2.24-.45,2.33,2.33,0,0,1,1.71.56,2.16,2.16,0,0,1,.57,1.6v3A1,1,0,0,0,30.52,118.81ZM29.25,118v-1.49H28.4c-1.2,0-1.8.44-1.8,1.33a1.2,1.2,0,0,0,.28.87,1.1,1.1,0,0,0,.84.3A1.7,1.7,0,0,0,29.25,118Z"/><path d="M37.73,110.64v9.1h-1l-.11-.9a2.26,2.26,0,0,1-.8.77,2,2,0,0,1-1.07.28A2.1,2.1,0,0,1,33,119a4.18,4.18,0,0,1-.65-2.45,4.71,4.71,0,0,1,.31-1.78,2.76,2.76,0,0,1,.88-1.21,2.21,2.21,0,0,1,1.36-.44,2.35,2.35,0,0,1,1.75.8v-3.39Zm-1.85,8.11a2.72,2.72,0,0,0,.72-.72v-3.18a2.37,2.37,0,0,0-.69-.63,1.49,1.49,0,0,0-.81-.22,1.32,1.32,0,0,0-1.17.63,3.48,3.48,0,0,0-.41,1.87,3.66,3.66,0,0,0,.38,1.87A1.23,1.23,0,0,0,35,119,1.57,1.57,0,0,0,35.88,118.75Z"/><path d="M44.94,116.88H40.81a2.55,2.55,0,0,0,.54,1.58,1.55,1.55,0,0,0,1.21.5,2.67,2.67,0,0,0,.86-.13,3.43,3.43,0,0,0,.82-.43l.49.67a3.54,3.54,0,0,1-2.26.82,2.63,2.63,0,0,1-2.11-.89,3.6,3.6,0,0,1-.76-2.44,4.57,4.57,0,0,1,.33-1.79,2.75,2.75,0,0,1,.93-1.22,2.37,2.37,0,0,1,1.44-.45,2.42,2.42,0,0,1,2,.85,3.65,3.65,0,0,1,.69,2.36A5.59,5.59,0,0,1,44.94,116.88ZM43.85,116a2.4,2.4,0,0,0-.38-1.46,1.35,1.35,0,0,0-1.15-.51c-.93,0-1.43.68-1.51,2h3Z"/><path d="M47.91,110.36a.74.74,0,0,1,.22.55.72.72,0,0,1-.22.55.82.82,0,0,1-.58.22.77.77,0,0,1-.56-.22.73.73,0,0,1-.23-.55.75.75,0,0,1,.23-.55.73.73,0,0,1,.56-.22A.78.78,0,0,1,47.91,110.36Zm0,2.89v6.49H46.78v-6.49Z"/><path d="M53.71,113.18l-.21,1.11a2.37,2.37,0,0,0-.57-.08,1.2,1.2,0,0,0-1,.45,3.2,3.2,0,0,0-.58,1.37v3.71H50.25v-6.49h1l.11,1.32a2.55,2.55,0,0,1,.7-1.1,1.61,1.61,0,0,1,1-.37A2.61,2.61,0,0,1,53.71,113.18Z"/><path d="M59.08,118.81a.82.82,0,0,0,.4.29l-.26.79a1.73,1.73,0,0,1-.81-.29,1.22,1.22,0,0,1-.45-.69,2.19,2.19,0,0,1-1.94,1,2.07,2.07,0,0,1-1.51-.54,1.92,1.92,0,0,1-.56-1.42,1.86,1.86,0,0,1,.75-1.59,3.49,3.49,0,0,1,2.11-.55h1v-.48a1.28,1.28,0,0,0-.33-1,1.58,1.58,0,0,0-1-.29,5.67,5.67,0,0,0-1.74.34l-.29-.82a6.46,6.46,0,0,1,2.24-.45,2.33,2.33,0,0,1,1.71.56,2.16,2.16,0,0,1,.57,1.6v3A1,1,0,0,0,59.08,118.81ZM57.81,118v-1.49H57c-1.2,0-1.8.44-1.8,1.33a1.24,1.24,0,0,0,.28.87,1.1,1.1,0,0,0,.84.3A1.7,1.7,0,0,0,57.81,118Z"/><path d="M72.32,113.64a2.1,2.1,0,0,1,.48,1.45v4.65H71.67v-4.49c0-.84-.3-1.26-.91-1.26a1.19,1.19,0,0,0-.81.28,3.84,3.84,0,0,0-.72.87v4.6H68.1v-4.49c0-.84-.3-1.26-.91-1.26a1.3,1.3,0,0,0-.83.28,4,4,0,0,0-.7.87v4.6H64.53v-6.49h1l.1,1a2.19,2.19,0,0,1,1.87-1.1,1.75,1.75,0,0,1,1,.31,1.7,1.7,0,0,1,.61.86,3.14,3.14,0,0,1,.84-.86A1.89,1.89,0,0,1,71,113.1,1.62,1.62,0,0,1,72.32,113.64Z"/><path d="M79.64,114a3.75,3.75,0,0,1,.76,2.48,4.31,4.31,0,0,1-.35,1.78,2.71,2.71,0,0,1-1,1.19,2.76,2.76,0,0,1-1.55.43,2.62,2.62,0,0,1-2.13-.91,3.75,3.75,0,0,1-.77-2.48,4.35,4.35,0,0,1,.35-1.78,2.71,2.71,0,0,1,1-1.19,2.86,2.86,0,0,1,1.57-.43A2.62,2.62,0,0,1,79.64,114Zm-3.81,2.49c0,1.65.56,2.48,1.68,2.48s1.67-.83,1.67-2.49S78.63,114,77.52,114,75.83,114.84,75.83,116.5Z"/><path d="M82.57,119.51a1.45,1.45,0,0,1-.36-1.05v-7.82l1.13-.13v7.92a.67.67,0,0,0,.09.4.38.38,0,0,0,.32.12,1.16,1.16,0,0,0,.42-.07l.29.79a1.93,1.93,0,0,1-.9.22A1.31,1.31,0,0,1,82.57,119.51Z"/><path d="M90.69,116.88H86.55a2.49,2.49,0,0,0,.55,1.58,1.54,1.54,0,0,0,1.2.5,2.63,2.63,0,0,0,.86-.13,3.3,3.3,0,0,0,.83-.43l.49.67a3.54,3.54,0,0,1-2.26.82,2.61,2.61,0,0,1-2.11-.89,3.6,3.6,0,0,1-.76-2.44,4.76,4.76,0,0,1,.32-1.79,2.77,2.77,0,0,1,.94-1.22A2.34,2.34,0,0,1,88,113.1a2.43,2.43,0,0,1,2,.85,3.7,3.7,0,0,1,.69,2.36A5.59,5.59,0,0,1,90.69,116.88ZM89.6,116a2.33,2.33,0,0,0-.39-1.46,1.32,1.32,0,0,0-1.14-.51c-.93,0-1.43.68-1.52,2h3Z"/><path d="M93.81,111.24a7.94,7.94,0,0,1,.74,1.78,9.83,9.83,0,0,1,0,4.82,7.75,7.75,0,0,1-.74,1.78c-.29.5-.71,1.13-1.25,1.9l-.71-.49a15.25,15.25,0,0,0,1-1.69,7.47,7.47,0,0,0,.59-1.71,11.16,11.16,0,0,0,0-4.41,7.22,7.22,0,0,0-.59-1.7,17.34,17.34,0,0,0-1-1.69l.71-.49C93.1,110.11,93.52,110.74,93.81,111.24Z"/><path d="M97.42,118.42a.82.82,0,0,1,.25.61.85.85,0,0,1-.86.86A.84.84,0,0,1,96,119a.82.82,0,0,1,.85-.85A.84.84,0,0,1,97.42,118.42Z"/><path d="M17.07,129.25l-2.71,8.48H13.11l-2.73-8.48h1.25l2.13,7.21,2.13-7.21Z"/><path d="M22.33,136.8a.79.79,0,0,0,.41.29l-.26.79a1.76,1.76,0,0,1-.81-.28,1.3,1.3,0,0,1-.46-.69,2.18,2.18,0,0,1-1.93,1,2.09,2.09,0,0,1-1.52-.54,2.09,2.09,0,0,1,.19-3,3.57,3.57,0,0,1,2.12-.55h1v-.48a1.28,1.28,0,0,0-.33-1,1.53,1.53,0,0,0-1-.29,6,6,0,0,0-1.75.34l-.28-.82a6.39,6.39,0,0,1,2.24-.44,2.32,2.32,0,0,1,1.71.56,2.11,2.11,0,0,1,.56,1.59v3A1,1,0,0,0,22.33,136.8ZM21.06,136v-1.49h-.85c-1.2,0-1.79.44-1.79,1.33a1.18,1.18,0,0,0,.28.87,1.1,1.1,0,0,0,.84.3A1.7,1.7,0,0,0,21.06,136Z"/><path d="M29,131.63a2,2,0,0,1,.5,1.45v4.65H28.33v-4.49a1.43,1.43,0,0,0-.26-1,1,1,0,0,0-.77-.29,1.48,1.48,0,0,0-.91.3,3,3,0,0,0-.74.85v4.6H24.52v-6.49h1l.1,1a2.66,2.66,0,0,1,.86-.81,2.15,2.15,0,0,1,1.12-.29A1.78,1.78,0,0,1,29,131.63Z"/><path d="M35,137.44a2.53,2.53,0,0,1-1.45.44,1.75,1.75,0,0,1-1.29-.47,1.9,1.9,0,0,1-.46-1.38v-3.91H30.68v-.88h1.13v-1.46l1.13-.14v1.6h1.54l-.12.88H32.94V136a1.22,1.22,0,0,0,.18.74.72.72,0,0,0,.6.22,1.78,1.78,0,0,0,.86-.26Z"/><path d="M40.6,136.8a.75.75,0,0,0,.41.29l-.26.79a1.76,1.76,0,0,1-.81-.28,1.3,1.3,0,0,1-.46-.69,2.18,2.18,0,0,1-1.93,1,2.09,2.09,0,0,1-1.52-.54,2.09,2.09,0,0,1,.19-3,3.56,3.56,0,0,1,2.11-.55h1v-.48a1.28,1.28,0,0,0-.33-1,1.53,1.53,0,0,0-1-.29,6,6,0,0,0-1.75.34l-.28-.82a6.39,6.39,0,0,1,2.24-.44,2.32,2.32,0,0,1,1.71.56,2.15,2.15,0,0,1,.56,1.59v3A1,1,0,0,0,40.6,136.8ZM39.33,136v-1.49h-.85c-1.2,0-1.79.44-1.79,1.33a1.18,1.18,0,0,0,.28.87,1.1,1.1,0,0,0,.84.3A1.7,1.7,0,0,0,39.33,136Z"/><path d="M47.9,131.54a3.42,3.42,0,0,1-.81.16c-.3,0-.66,0-1.09,0a1.7,1.7,0,0,1,1.15,1.63,2,2,0,0,1-.67,1.59,2.55,2.55,0,0,1-1.81.62,2.43,2.43,0,0,1-.82-.13.67.67,0,0,0-.23.27.69.69,0,0,0-.09.34c0,.35.28.53.85.53h1a2.82,2.82,0,0,1,1.16.23,1.85,1.85,0,0,1,.78.64,1.56,1.56,0,0,1,.28.92,1.63,1.63,0,0,1-.78,1.46,4.11,4.11,0,0,1-2.26.51,5.28,5.28,0,0,1-1.66-.21,1.59,1.59,0,0,1-.86-.65,2.05,2.05,0,0,1-.26-1.11h1A1.15,1.15,0,0,0,43,139a.89.89,0,0,0,.53.34,3.73,3.73,0,0,0,1.08.12,3.21,3.21,0,0,0,1.46-.25.83.83,0,0,0,.43-.76.76.76,0,0,0-.34-.69,1.66,1.66,0,0,0-1-.24h-1a1.88,1.88,0,0,1-1.25-.35,1.07,1.07,0,0,1-.43-.88,1.18,1.18,0,0,1,.19-.61,1.67,1.67,0,0,1,.53-.53,1.86,1.86,0,0,1-1.1-1.8,2.15,2.15,0,0,1,.33-1.17,2.19,2.19,0,0,1,.9-.8,2.67,2.67,0,0,1,1.27-.29,9.37,9.37,0,0,0,1.28-.06,4.74,4.74,0,0,0,.86-.18c.22-.08.5-.19.83-.34Zm-4.29.77a1.57,1.57,0,0,0-.35,1.05,1.54,1.54,0,0,0,.36,1.07,1.49,1.49,0,0,0,2,0,1.59,1.59,0,0,0,.35-1.09c0-1-.46-1.44-1.39-1.44A1.23,1.23,0,0,0,43.61,132.31Z"/><path d="M53.75,134.88H49.61a2.54,2.54,0,0,0,.54,1.57,1.57,1.57,0,0,0,1.21.51,2.63,2.63,0,0,0,.86-.14,3.48,3.48,0,0,0,.83-.43l.49.68a3.61,3.61,0,0,1-2.27.81,2.64,2.64,0,0,1-2.11-.89,3.64,3.64,0,0,1-.76-2.43,4.62,4.62,0,0,1,.33-1.8,2.83,2.83,0,0,1,.94-1.22,2.32,2.32,0,0,1,1.43-.44,2.39,2.39,0,0,1,2,.85,3.62,3.62,0,0,1,.69,2.35C53.77,134.49,53.76,134.68,53.75,134.88Zm-1.1-.91a2.43,2.43,0,0,0-.38-1.47,1.33,1.33,0,0,0-1.14-.5c-.93,0-1.44.68-1.52,2h3Z"/><path d="M63.37,131.63a2.1,2.1,0,0,1,.48,1.45v4.65H62.72v-4.49c0-.84-.3-1.26-.91-1.26a1.19,1.19,0,0,0-.81.28,3.84,3.84,0,0,0-.72.87v4.6H59.15v-4.49c0-.84-.3-1.26-.91-1.26a1.21,1.21,0,0,0-.82.29,3.48,3.48,0,0,0-.71.86v4.6H55.58v-6.49h1l.1.95a2.18,2.18,0,0,1,1.87-1.09,1.61,1.61,0,0,1,1.64,1.17,3,3,0,0,1,.84-.87,2,2,0,0,1,1.09-.3A1.61,1.61,0,0,1,63.37,131.63Z"/><path d="M74.42,128.63v9.1h-1l-.11-.9a2.26,2.26,0,0,1-.8.77,2.06,2.06,0,0,1-1.07.28,2.1,2.1,0,0,1-1.81-.91,4.18,4.18,0,0,1-.64-2.45,4.62,4.62,0,0,1,.31-1.77,2.74,2.74,0,0,1,.88-1.22,2.21,2.21,0,0,1,1.36-.43,2.3,2.3,0,0,1,1.74.8v-3.4Zm-1.85,8.11a2.7,2.7,0,0,0,.71-.72v-3.18a2.49,2.49,0,0,0-.68-.63,1.59,1.59,0,0,0-.82-.21,1.29,1.29,0,0,0-1.16.62,3.41,3.41,0,0,0-.41,1.87,3.6,3.6,0,0,0,.38,1.88,1.21,1.21,0,0,0,1.09.61A1.6,1.6,0,0,0,72.57,136.74Z"/><path d="M81.63,134.88H77.49a2.48,2.48,0,0,0,.55,1.57,1.55,1.55,0,0,0,1.2.51,2.63,2.63,0,0,0,.86-.14,3.3,3.3,0,0,0,.83-.43l.49.68a3.58,3.58,0,0,1-2.26.81A2.65,2.65,0,0,1,77,137a3.64,3.64,0,0,1-.75-2.43,4.82,4.82,0,0,1,.32-1.8,2.83,2.83,0,0,1,.94-1.22A2.34,2.34,0,0,1,79,131.1a2.4,2.4,0,0,1,2,.85,3.67,3.67,0,0,1,.68,2.35A5.72,5.72,0,0,1,81.63,134.88Zm-1.1-.91a2.37,2.37,0,0,0-.38-1.47A1.32,1.32,0,0,0,79,132c-.93,0-1.43.68-1.52,2h3Z"/><path d="M92.6,137.66a2.11,2.11,0,0,1-1,.22,1.24,1.24,0,0,1-1-.36,1.56,1.56,0,0,1-.33-1.07v-6.83a5.83,5.83,0,0,0-.71-.16,5,5,0,0,0-.71-.05,1.23,1.23,0,0,0-.84.22,1,1,0,0,0-.24.72v.89h1.57l-.12.88H87.85v5.61H86.71v-5.61h-1v-.88h1v-.88a1.78,1.78,0,0,1,.55-1.36,2.32,2.32,0,0,1,1.6-.5,4.22,4.22,0,0,1,.75.06,6.7,6.7,0,0,1,.75.18l1.12-.14v7.83a.64.64,0,0,0,.09.38.36.36,0,0,0,.32.13,1.07,1.07,0,0,0,.41-.07Z"/><path d="M98.84,137.73h-1l-.09-1a2.4,2.4,0,0,1-.85.88,2.25,2.25,0,0,1-1.17.28,1.72,1.72,0,0,1-1.33-.52A2.06,2.06,0,0,1,94,135.9v-4.66h1.14v4.53a1.47,1.47,0,0,0,.23.95,1,1,0,0,0,.76.27,1.93,1.93,0,0,0,1.63-1.12v-4.63h1.13Z"/><path d="M104.45,137.44a2.51,2.51,0,0,1-1.45.44,1.71,1.71,0,0,1-1.28-.47,1.91,1.91,0,0,1-.47-1.38v-3.91h-1.13v-.88h1.13v-1.46l1.14-.14v1.6h1.54l-.13.88h-1.41V136a1.22,1.22,0,0,0,.18.74.69.69,0,0,0,.59.22,1.75,1.75,0,0,0,.86-.26Z"/><path d="M110.45,137.73h-1l-.09-1a2.4,2.4,0,0,1-.85.88,2.25,2.25,0,0,1-1.17.28,1.72,1.72,0,0,1-1.33-.52,2.06,2.06,0,0,1-.48-1.46v-4.66h1.13v4.53a1.47,1.47,0,0,0,.24.95,1,1,0,0,0,.76.27,1.93,1.93,0,0,0,1.63-1.12v-4.63h1.13Z"/><path d="M117.29,136.8a.83.83,0,0,0,.41.29l-.26.79a1.85,1.85,0,0,1-.81-.28,1.36,1.36,0,0,1-.46-.69,2.15,2.15,0,0,1-1.93,1,2.07,2.07,0,0,1-1.51-.54,1.89,1.89,0,0,1-.56-1.42,1.86,1.86,0,0,1,.75-1.59,3.53,3.53,0,0,1,2.11-.55h1v-.48a1.25,1.25,0,0,0-.34-1,1.53,1.53,0,0,0-1-.29,6,6,0,0,0-1.75.34l-.28-.82a6.43,6.43,0,0,1,2.24-.44,2.29,2.29,0,0,1,1.71.56,2.12,2.12,0,0,1,.57,1.59v3A1,1,0,0,0,117.29,136.8ZM116,136v-1.49h-.85c-1.2,0-1.8.44-1.8,1.33a1.18,1.18,0,0,0,.28.87,1.1,1.1,0,0,0,.84.3A1.7,1.7,0,0,0,116,136Z"/><path d="M123,131.17l-.21,1.11a2.37,2.37,0,0,0-.57-.08,1.19,1.19,0,0,0-1,.45,3.19,3.19,0,0,0-.58,1.38v3.7h-1.13v-6.49h1l.11,1.32a2.45,2.45,0,0,1,.7-1.09,1.56,1.56,0,0,1,1-.37A2.62,2.62,0,0,1,123,131.17Z"/><path d="M15.91,149.62a2,2,0,0,1,.5,1.45v4.65H15.28v-4.49a1.44,1.44,0,0,0-.26-1,1,1,0,0,0-.77-.28,1.48,1.48,0,0,0-.91.29,3.16,3.16,0,0,0-.74.85v4.6H11.47v-6.48h1l.1,1a2.46,2.46,0,0,1,.86-.81,2.16,2.16,0,0,1,1.12-.3A1.82,1.82,0,0,1,15.91,149.62Z"/><path d="M23.19,154.8a.84.84,0,0,0,.41.28l-.26.79a1.65,1.65,0,0,1-.81-.28,1.3,1.3,0,0,1-.46-.69,2.16,2.16,0,0,1-1.93,1,2.09,2.09,0,0,1-1.52-.54,2.07,2.07,0,0,1,.2-3,3.46,3.46,0,0,1,2.11-.56h1v-.48a1.26,1.26,0,0,0-.33-1,1.48,1.48,0,0,0-1-.3,5.73,5.73,0,0,0-1.75.35l-.28-.83a6.63,6.63,0,0,1,2.24-.44,2.36,2.36,0,0,1,1.71.56,2.12,2.12,0,0,1,.57,1.59v3A1.05,1.05,0,0,0,23.19,154.8ZM21.92,154v-1.49h-.85c-1.19,0-1.79.45-1.79,1.33a1.22,1.22,0,0,0,.28.88,1.1,1.1,0,0,0,.84.29A1.67,1.67,0,0,0,21.92,154Z"/><path d="M33.15,154.8a.84.84,0,0,0,.41.28l-.26.79a1.65,1.65,0,0,1-.81-.28,1.3,1.3,0,0,1-.46-.69,2.16,2.16,0,0,1-1.93,1,2.09,2.09,0,0,1-1.52-.54,2.08,2.08,0,0,1,.19-3,3.52,3.52,0,0,1,2.12-.56h1v-.48a1.26,1.26,0,0,0-.33-1,1.48,1.48,0,0,0-1-.3,5.73,5.73,0,0,0-1.75.35l-.28-.83a6.63,6.63,0,0,1,2.24-.44,2.36,2.36,0,0,1,1.71.56,2.12,2.12,0,0,1,.57,1.59v3A1.05,1.05,0,0,0,33.15,154.8Zm-1.49-8.94.51.95-2.61,1.06-.35-.6Zm.22,8.15v-1.49H31c-1.19,0-1.79.45-1.79,1.33a1.22,1.22,0,0,0,.28.88,1.1,1.1,0,0,0,.84.29A1.67,1.67,0,0,0,31.88,154Z"/><path d="M40.45,149.53a3.23,3.23,0,0,1-.81.16c-.3,0-.66,0-1.08,0a1.71,1.71,0,0,1,1.14,1.64A2.1,2.1,0,0,1,39,153a2.58,2.58,0,0,1-1.81.61,2.78,2.78,0,0,1-.83-.12.65.65,0,0,0-.23.26.72.72,0,0,0-.09.34c0,.35.28.53.85.53h1a2.78,2.78,0,0,1,1.15.23,1.85,1.85,0,0,1,.78.64,1.57,1.57,0,0,1,.28.93,1.66,1.66,0,0,1-.77,1.46,4.17,4.17,0,0,1-2.27.51,5.24,5.24,0,0,1-1.66-.22,1.57,1.57,0,0,1-.86-.64,2.07,2.07,0,0,1-.26-1.11h1a1.12,1.12,0,0,0,.15.62.88.88,0,0,0,.53.34,3.73,3.73,0,0,0,1.08.12,3.08,3.08,0,0,0,1.46-.25.83.83,0,0,0,.44-.76.79.79,0,0,0-.35-.69,1.75,1.75,0,0,0-1-.23h-1a1.94,1.94,0,0,1-1.25-.35,1.12,1.12,0,0,1-.43-.88,1.18,1.18,0,0,1,.19-.62,1.78,1.78,0,0,1,.53-.53,1.94,1.94,0,0,1-.83-.73,2,2,0,0,1-.27-1.07,2.15,2.15,0,0,1,.33-1.17,2.25,2.25,0,0,1,.9-.8,2.82,2.82,0,0,1,1.27-.29,8,8,0,0,0,1.28-.06,4,4,0,0,0,.86-.18c.22-.08.5-.19.83-.34Zm-4.29.77a1.57,1.57,0,0,0-.35,1,1.54,1.54,0,0,0,.36,1.07,1.27,1.27,0,0,0,1,.4,1.28,1.28,0,0,0,1-.39,1.54,1.54,0,0,0,.35-1.09c0-1-.46-1.44-1.39-1.44A1.29,1.29,0,0,0,36.16,150.3Z"/><path d="M46.32,155.72h-1l-.08-1a2.57,2.57,0,0,1-.85.88,2.35,2.35,0,0,1-1.17.27,1.73,1.73,0,0,1-1.33-.51,2.1,2.1,0,0,1-.48-1.47v-4.65h1.13v4.53a1.52,1.52,0,0,0,.23.94,1,1,0,0,0,.77.28,1.93,1.93,0,0,0,1.62-1.12v-4.63h1.13Z"/><path d="M53.17,154.8a.8.8,0,0,0,.4.28l-.25.79a1.73,1.73,0,0,1-.82-.28,1.35,1.35,0,0,1-.45-.69,2.18,2.18,0,0,1-1.93,1,2.09,2.09,0,0,1-1.52-.54,2.08,2.08,0,0,1,.19-3,3.48,3.48,0,0,1,2.11-.56h1v-.48a1.26,1.26,0,0,0-.33-1,1.48,1.48,0,0,0-1-.3,5.73,5.73,0,0,0-1.75.35l-.28-.83a6.63,6.63,0,0,1,2.24-.44,2.36,2.36,0,0,1,1.71.56,2.15,2.15,0,0,1,.56,1.59v3A1,1,0,0,0,53.17,154.8ZM51.9,154v-1.49h-.85c-1.2,0-1.8.45-1.8,1.33a1.23,1.23,0,0,0,.29.88,1.09,1.09,0,0,0,.83.29A1.68,1.68,0,0,0,51.9,154Z"/><path d="M56.27,154.41a.79.79,0,0,1,.25.6.82.82,0,0,1-.25.61.81.81,0,0,1-.61.25.82.82,0,0,1-.61-.25.85.85,0,0,1-.24-.61.81.81,0,0,1,.24-.6.82.82,0,0,1,.61-.25A.81.81,0,0,1,56.27,154.41Z"/><path d="M459.75,94.22a4,4,0,0,1,1.17.75l-.64.71a3.48,3.48,0,0,0-.94-.56,2.72,2.72,0,0,0-1-.18,1.81,1.81,0,0,0-1.1.31,1,1,0,0,0-.43.9,1.21,1.21,0,0,0,.15.62,1.31,1.31,0,0,0,.55.46,6.35,6.35,0,0,0,1.16.44,8,8,0,0,1,1.33.53,2.18,2.18,0,0,1,1.18,2,2.37,2.37,0,0,1-.36,1.3,2.44,2.44,0,0,1-1.05.89,3.8,3.8,0,0,1-1.62.32,4,4,0,0,1-2.88-1.1l.64-.71a4.18,4.18,0,0,0,1.05.63,3,3,0,0,0,1.18.22,2.12,2.12,0,0,0,1.31-.39,1.33,1.33,0,0,0,.51-1.13,1.31,1.31,0,0,0-.16-.69,1.36,1.36,0,0,0-.55-.5,4.9,4.9,0,0,0-1.12-.44,5,5,0,0,1-1.91-1,1.94,1.94,0,0,1-.6-1.5,2,2,0,0,1,.34-1.15,2.22,2.22,0,0,1,.94-.79A3.26,3.26,0,0,1,458.3,94,3.93,3.93,0,0,1,459.75,94.22Z"/><path d="M467.41,96.89a3.7,3.7,0,0,1,.76,2.47,4.32,4.32,0,0,1-.34,1.78,2.67,2.67,0,0,1-2.55,1.62,2.65,2.65,0,0,1-2.13-.91,3.75,3.75,0,0,1-.76-2.48,4.35,4.35,0,0,1,.34-1.78,2.67,2.67,0,0,1,1-1.19,2.8,2.8,0,0,1,1.56-.43A2.59,2.59,0,0,1,467.41,96.89Zm-3.81,2.48c0,1.65.56,2.48,1.68,2.48S467,101,467,99.36s-.55-2.47-1.66-2.47S463.6,97.71,463.6,99.37Z"/><path d="M474.77,96.87a4.17,4.17,0,0,1,.65,2.49,4.68,4.68,0,0,1-.31,1.78,2.64,2.64,0,0,1-.88,1.19,2.21,2.21,0,0,1-1.36.43,2.15,2.15,0,0,1-1.72-.86l-.11.71h-1v-9.1l1.13-.13v3.55A2.18,2.18,0,0,1,473,96,2.07,2.07,0,0,1,474.77,96.87Zm-1,4.38a3.39,3.39,0,0,0,.42-1.89,3.52,3.52,0,0,0-.39-1.9,1.28,1.28,0,0,0-1.12-.59,1.85,1.85,0,0,0-1.52,1V101a2.09,2.09,0,0,0,.64.65,1.51,1.51,0,0,0,.79.23A1.35,1.35,0,0,0,473.78,101.25Z"/><path d="M480.81,96.05l-.2,1.11a2.37,2.37,0,0,0-.57-.08,1.19,1.19,0,0,0-1,.45,3.2,3.2,0,0,0-.58,1.37v3.71h-1.13V96.12h1l.11,1.32a2.46,2.46,0,0,1,.7-1.1,1.61,1.61,0,0,1,1-.37A2.55,2.55,0,0,1,480.81,96.05Z"/><path d="M486.61,99.75h-4.13a2.49,2.49,0,0,0,.54,1.58,1.54,1.54,0,0,0,1.2.5,2.69,2.69,0,0,0,.87-.13,3.43,3.43,0,0,0,.82-.43l.49.67a3.54,3.54,0,0,1-2.26.82,2.61,2.61,0,0,1-2.11-.89,3.6,3.6,0,0,1-.76-2.44,4.57,4.57,0,0,1,.33-1.79,2.75,2.75,0,0,1,.93-1.22A2.37,2.37,0,0,1,484,96a2.42,2.42,0,0,1,2,.85,3.65,3.65,0,0,1,.69,2.36A5.59,5.59,0,0,1,486.61,99.75Zm-1.09-.91a2.4,2.4,0,0,0-.38-1.46,1.35,1.35,0,0,0-1.15-.51c-.93,0-1.43.68-1.51,2h3Z"/><path d="M492.88,96.5a2,2,0,0,1,.5,1.46v4.65h-1.13V98.12a1.48,1.48,0,0,0-.26-1,1,1,0,0,0-.76-.28,1.44,1.44,0,0,0-.91.3,3,3,0,0,0-.74.85v4.6h-1.13V96.12h1l.1,1a2.63,2.63,0,0,1,.85-.81,2.2,2.2,0,0,1,1.13-.3A1.81,1.81,0,0,1,492.88,96.5Z"/><path d="M500.17,101.68a.82.82,0,0,0,.4.29l-.26.79a1.73,1.73,0,0,1-.81-.29,1.22,1.22,0,0,1-.45-.69,2.19,2.19,0,0,1-1.94,1,2.07,2.07,0,0,1-1.51-.54,1.92,1.92,0,0,1-.56-1.42,1.86,1.86,0,0,1,.75-1.59,3.49,3.49,0,0,1,2.11-.55h1v-.48a1.28,1.28,0,0,0-.33-1,1.58,1.58,0,0,0-1-.29,5.62,5.62,0,0,0-1.74.34l-.29-.82a6.46,6.46,0,0,1,2.24-.45,2.33,2.33,0,0,1,1.71.56,2.16,2.16,0,0,1,.57,1.6v3A1,1,0,0,0,500.17,101.68Zm-1.27-.78V99.41h-.85c-1.2,0-1.8.44-1.8,1.33a1.24,1.24,0,0,0,.28.87,1.1,1.1,0,0,0,.84.3A1.7,1.7,0,0,0,498.9,100.9Z"/><path d="M507.38,93.51v9.1h-1l-.11-.9a2.26,2.26,0,0,1-.8.77,2,2,0,0,1-1.07.28,2.1,2.1,0,0,1-1.8-.91A4.18,4.18,0,0,1,502,99.4a4.71,4.71,0,0,1,.31-1.78,2.7,2.7,0,0,1,.89-1.21A2.16,2.16,0,0,1,504.5,96a2.35,2.35,0,0,1,1.75.8V93.38Zm-1.85,8.11a2.72,2.72,0,0,0,.72-.72V97.72a2.37,2.37,0,0,0-.69-.63,1.49,1.49,0,0,0-.81-.22,1.32,1.32,0,0,0-1.17.63,3.48,3.48,0,0,0-.41,1.87,3.66,3.66,0,0,0,.38,1.87,1.23,1.23,0,0,0,1.1.62A1.57,1.57,0,0,0,505.53,101.62Z"/><path d="M514.22,101.68a.9.9,0,0,0,.41.29l-.26.79a1.73,1.73,0,0,1-.81-.29,1.28,1.28,0,0,1-.46-.69,2.17,2.17,0,0,1-1.93,1,2.07,2.07,0,0,1-1.51-.54,1.92,1.92,0,0,1-.56-1.42,1.86,1.86,0,0,1,.75-1.59,3.47,3.47,0,0,1,2.11-.55h1v-.48a1.25,1.25,0,0,0-.34-1,1.53,1.53,0,0,0-1-.29,5.73,5.73,0,0,0-1.75.34l-.28-.82a6.46,6.46,0,0,1,2.24-.45,2.35,2.35,0,0,1,1.71.56,2.16,2.16,0,0,1,.57,1.6v3A1,1,0,0,0,514.22,101.68ZM513,100.9V99.41h-.85c-1.2,0-1.8.44-1.8,1.33a1.2,1.2,0,0,0,.28.87,1.1,1.1,0,0,0,.84.3A1.7,1.7,0,0,0,513,100.9Z"/><path d="M520.85,96.5a2,2,0,0,1,.5,1.46v4.65h-1.13V98.12a1.48,1.48,0,0,0-.26-1,1,1,0,0,0-.76-.28,1.44,1.44,0,0,0-.91.3,2.87,2.87,0,0,0-.74.85v4.6h-1.13V96.12h1l.1,1a2.63,2.63,0,0,1,.85-.81,2.2,2.2,0,0,1,1.13-.3A1.81,1.81,0,0,1,520.85,96.5Z"/><path d="M526.9,102.31a2.45,2.45,0,0,1-1.45.45,1.67,1.67,0,0,1-1.28-.48,1.86,1.86,0,0,1-.47-1.37V97h-1.13v-.88h1.13V94.66l1.14-.14v1.6h1.54l-.13.88h-1.41v3.86a1.17,1.17,0,0,0,.18.73.67.67,0,0,0,.59.23,1.75,1.75,0,0,0,.86-.26Z"/><path d="M532.77,99.75h-4.14a2.55,2.55,0,0,0,.54,1.58,1.55,1.55,0,0,0,1.21.5,2.63,2.63,0,0,0,.86-.13,3.25,3.25,0,0,0,.82-.43l.5.67a3.56,3.56,0,0,1-2.27.82,2.63,2.63,0,0,1-2.11-.89,3.6,3.6,0,0,1-.76-2.44,4.57,4.57,0,0,1,.33-1.79,2.83,2.83,0,0,1,.93-1.22,2.37,2.37,0,0,1,1.44-.45,2.42,2.42,0,0,1,2,.85,3.65,3.65,0,0,1,.69,2.36C532.79,99.36,532.78,99.56,532.77,99.75Zm-1.1-.91a2.4,2.4,0,0,0-.38-1.46,1.35,1.35,0,0,0-1.15-.51c-.92,0-1.43.68-1.51,2h3Z"/><path d="M537.55,96.16a3.56,3.56,0,0,1,1,.55l-.48.72a3.66,3.66,0,0,0-.84-.42,2.64,2.64,0,0,0-.84-.14,1.51,1.51,0,0,0-.88.23.73.73,0,0,0-.32.62.74.74,0,0,0,.3.62,3.51,3.51,0,0,0,1.09.43,3.82,3.82,0,0,1,1.62.74,1.6,1.6,0,0,1,.54,1.28,1.64,1.64,0,0,1-.75,1.46,3.11,3.11,0,0,1-1.81.51,3.61,3.61,0,0,1-2.45-.85l.6-.69a2.94,2.94,0,0,0,1.82.63,1.71,1.71,0,0,0,1-.27.82.82,0,0,0,.37-.72.93.93,0,0,0-.13-.53A1.07,1.07,0,0,0,537,100a7.54,7.54,0,0,0-1-.33,3.38,3.38,0,0,1-1.5-.72,1.56,1.56,0,0,1-.46-1.16,1.53,1.53,0,0,1,.3-.92,2,2,0,0,1,.84-.64,3.09,3.09,0,0,1,1.2-.23A3.67,3.67,0,0,1,537.55,96.16Z"/><path d="M548.63,93.51v9.1h-1l-.12-.9a2.24,2.24,0,0,1-.79.77,2.23,2.23,0,0,1-2.88-.63,4.18,4.18,0,0,1-.65-2.45,4.92,4.92,0,0,1,.31-1.78,2.78,2.78,0,0,1,.89-1.21,2.19,2.19,0,0,1,1.35-.44,2.34,2.34,0,0,1,1.75.8V93.38Zm-1.84,8.11a2.86,2.86,0,0,0,.71-.72V97.72a2.34,2.34,0,0,0-.68-.63,1.53,1.53,0,0,0-.82-.22,1.3,1.3,0,0,0-1.16.63,3.38,3.38,0,0,0-.42,1.87,3.66,3.66,0,0,0,.38,1.87,1.23,1.23,0,0,0,1.1.62A1.62,1.62,0,0,0,546.79,101.62Z"/><path d="M555.85,99.75h-4.14a2.55,2.55,0,0,0,.54,1.58,1.56,1.56,0,0,0,1.21.5,2.63,2.63,0,0,0,.86-.13,3.48,3.48,0,0,0,.83-.43l.49.67a3.56,3.56,0,0,1-2.27.82,2.64,2.64,0,0,1-2.11-.89,3.65,3.65,0,0,1-.76-2.44,4.57,4.57,0,0,1,.33-1.79,2.77,2.77,0,0,1,.94-1.22A2.32,2.32,0,0,1,553.2,96a2.42,2.42,0,0,1,2,.85,3.65,3.65,0,0,1,.69,2.36C555.87,99.36,555.86,99.56,555.85,99.75Zm-1.1-.91a2.4,2.4,0,0,0-.38-1.46,1.35,1.35,0,0,0-1.14-.51c-.93,0-1.44.68-1.52,2h3Z"/><path d="M563.75,94.37v8.24h-1.13v-7l-1.92,1.17-.5-.8,2.55-1.58Z"/><path d="M570.27,95.26h-3.21v2.43a2.8,2.8,0,0,1,1.32-.32,2.22,2.22,0,0,1,1.7.69,2.74,2.74,0,0,1,.64,1.91,2.86,2.86,0,0,1-.36,1.45,2.57,2.57,0,0,1-1,1,3.13,3.13,0,0,1-1.5.35,3.18,3.18,0,0,1-1.34-.27,3.48,3.48,0,0,1-1.1-.78l.67-.65a2.65,2.65,0,0,0,.81.58,2.24,2.24,0,0,0,1,.19,1.6,1.6,0,0,0,1.24-.49,2,2,0,0,0,.45-1.39,1.78,1.78,0,0,0-.41-1.3,1.46,1.46,0,0,0-1.1-.41,2.22,2.22,0,0,0-.59.07,2.74,2.74,0,0,0-.58.21H566V94.37h4.45Z"/><path d="M460.65,119.67a.75.75,0,0,0,.41.29l-.26.79a1.85,1.85,0,0,1-.82-.28,1.35,1.35,0,0,1-.45-.69,2.18,2.18,0,0,1-1.93,1,2.09,2.09,0,0,1-1.52-.54,2.09,2.09,0,0,1,.19-3,3.56,3.56,0,0,1,2.11-.55h1v-.48a1.28,1.28,0,0,0-.33-1,1.53,1.53,0,0,0-1-.29,6,6,0,0,0-1.75.34l-.28-.82a6.39,6.39,0,0,1,2.24-.44,2.32,2.32,0,0,1,1.71.56,2.15,2.15,0,0,1,.56,1.59v3A1,1,0,0,0,460.65,119.67Zm-1.27-.78V117.4h-.85c-1.2,0-1.8.44-1.8,1.33a1.18,1.18,0,0,0,.29.87,1.1,1.1,0,0,0,.84.3A1.7,1.7,0,0,0,459.38,118.89Z"/><path d="M469,112.54a2.19,2.19,0,0,1,.87.81,2.22,2.22,0,0,1,.31,1.15,3.31,3.31,0,0,1-.34,1.44,7.68,7.68,0,0,1-1,1.49q-.7.79-2.13,2.22h3.7l-.13.95h-4.87v-.9c1.1-1.14,1.88-2,2.34-2.5a7.05,7.05,0,0,0,1-1.39,2.71,2.71,0,0,0,.29-1.26,1.26,1.26,0,0,0-1.35-1.37,1.83,1.83,0,0,0-.89.21,3.38,3.38,0,0,0-.81.69l-.74-.59a3.49,3.49,0,0,1,1.12-.94,3.11,3.11,0,0,1,1.38-.31A2.71,2.71,0,0,1,469,112.54Z"/><path d="M476.52,113.33a7.48,7.48,0,0,1,0,6.32,2.48,2.48,0,0,1-4.12,0,7.48,7.48,0,0,1,0-6.32,2.49,2.49,0,0,1,4.12,0Zm-3.25.6a6.35,6.35,0,0,0-.38,2.56,6.44,6.44,0,0,0,.38,2.57,1.26,1.26,0,0,0,1.19.79,1.25,1.25,0,0,0,1.18-.79,6,6,0,0,0,.4-2.57,6,6,0,0,0-.4-2.55,1.28,1.28,0,0,0-2.37,0Z"/><path d="M481.89,112.81a2.33,2.33,0,0,1,0,3,2.13,2.13,0,0,1-2.88,0,2.33,2.33,0,0,1,0-3,2.1,2.1,0,0,1,2.88,0Zm-2.21.57a1.68,1.68,0,0,0-.23.94,1.7,1.7,0,0,0,.23.94.8.8,0,0,0,.76.38c.67,0,1-.44,1-1.32a1.82,1.82,0,0,0-.22-.94.82.82,0,0,0-.78-.37A.81.81,0,0,0,479.68,113.38Zm5.76-1.53.79.52-5.7,8.61-.79-.51Zm1.52,5.3a2.09,2.09,0,0,1,.55,1.52,2,2,0,0,1-.55,1.51,1.92,1.92,0,0,1-1.44.57,1.94,1.94,0,0,1-1.45-.57,2.05,2.05,0,0,1-.56-1.51,2.09,2.09,0,0,1,.56-1.52,2,2,0,0,1,1.45-.56A2,2,0,0,1,487,117.15Zm-2.21.58a1.74,1.74,0,0,0-.23.94,1.79,1.79,0,0,0,.23.94.83.83,0,0,0,.77.38q1,0,1-1.32a1.79,1.79,0,0,0-.22-.94.82.82,0,0,0-.77-.37A.85.85,0,0,0,484.75,117.73Z"/><path d="M495.67,111.48a3.73,3.73,0,0,1,.85.33l-.39.79a3.06,3.06,0,0,0-1.37-.31,1.31,1.31,0,0,0-.9.24,1,1,0,0,0-.24.72v.86h3.62v6.49h-1.13V115h-2.49v5.61h-1.13V115h-1v-.88h1v-.85a1.77,1.77,0,0,1,.55-1.37,2.38,2.38,0,0,1,1.69-.52A3.91,3.91,0,0,1,495.67,111.48Z"/><path d="M504.3,114.86a4.12,4.12,0,0,1,.66,2.49,4.88,4.88,0,0,1-.31,1.78,2.66,2.66,0,0,1-.89,1.19,2.23,2.23,0,0,1-3.08-.43l-.11.71h-1v-9.1l1.13-.13v3.56a2.17,2.17,0,0,1,1.83-1A2,2,0,0,1,504.3,114.86Zm-1,4.38a3.26,3.26,0,0,0,.43-1.89,3.42,3.42,0,0,0-.4-1.9,1.26,1.26,0,0,0-1.12-.58,1.82,1.82,0,0,0-1.51,1V119a2,2,0,0,0,.63.64,1.54,1.54,0,0,0,.8.23A1.33,1.33,0,0,0,503.31,119.24Z"/><path d="M510.35,114l-.21,1.11a2.37,2.37,0,0,0-.57-.08,1.2,1.2,0,0,0-1,.45,3.19,3.19,0,0,0-.58,1.38v3.7h-1.13v-6.49h1l.11,1.32a2.45,2.45,0,0,1,.7-1.09,1.56,1.56,0,0,1,1-.37A2.62,2.62,0,0,1,510.35,114Z"/><path d="M515.72,119.67a.76.76,0,0,0,.4.29l-.26.79a1.85,1.85,0,0,1-.81-.28,1.29,1.29,0,0,1-.45-.69,2.18,2.18,0,0,1-1.94,1,2.07,2.07,0,0,1-1.51-.54,1.89,1.89,0,0,1-.56-1.42,1.86,1.86,0,0,1,.75-1.59,3.56,3.56,0,0,1,2.11-.55h1v-.48a1.28,1.28,0,0,0-.33-1,1.58,1.58,0,0,0-1-.29,5.93,5.93,0,0,0-1.74.34l-.29-.82a6.43,6.43,0,0,1,2.24-.44,2.29,2.29,0,0,1,1.71.56,2.12,2.12,0,0,1,.57,1.59v3A1,1,0,0,0,515.72,119.67Zm-1.27-.78V117.4h-.85c-1.2,0-1.8.44-1.8,1.33a1.23,1.23,0,0,0,.28.87,1.1,1.1,0,0,0,.84.3A1.7,1.7,0,0,0,514.45,118.89Z"/><path d="M520.74,114.15a3.49,3.49,0,0,1,1,.56l-.48.71a4.11,4.11,0,0,0-.84-.42,2.65,2.65,0,0,0-.85-.13,1.47,1.47,0,0,0-.87.22.71.71,0,0,0-.32.62.72.72,0,0,0,.3.62,3.4,3.4,0,0,0,1.09.43,4,4,0,0,1,1.62.74,1.81,1.81,0,0,1-.21,2.74,3.14,3.14,0,0,1-1.82.51,3.58,3.58,0,0,1-2.45-.85l.61-.69a2.92,2.92,0,0,0,1.82.63,1.7,1.7,0,0,0,1-.27.82.82,0,0,0,.38-.72.92.92,0,0,0-.14-.53,1,1,0,0,0-.46-.36,6.62,6.62,0,0,0-1-.32,3.44,3.44,0,0,1-1.49-.73,1.63,1.63,0,0,1-.16-2.08,2.08,2.08,0,0,1,.83-.64,3.09,3.09,0,0,1,1.2-.22A3.69,3.69,0,0,1,520.74,114.15Z"/><path d="M342.43,92.64v9.1h-1l-.11-.9a2.26,2.26,0,0,1-.8.77,2.22,2.22,0,0,1-2.87-.63,4.18,4.18,0,0,1-.65-2.45,4.62,4.62,0,0,1,.31-1.77,2.74,2.74,0,0,1,.88-1.22,2.21,2.21,0,0,1,1.36-.43,2.32,2.32,0,0,1,1.75.8v-3.4Zm-1.85,8.11a2.72,2.72,0,0,0,.72-.72V96.85a2.52,2.52,0,0,0-.69-.63,1.59,1.59,0,0,0-.82-.21,1.31,1.31,0,0,0-1.16.62,3.5,3.5,0,0,0-.41,1.87,3.7,3.7,0,0,0,.38,1.88,1.22,1.22,0,0,0,1.1.61A1.57,1.57,0,0,0,340.58,100.75Z"/><path d="M345.9,92.36a.74.74,0,0,1,.22.55.71.71,0,0,1-.22.55.78.78,0,0,1-.58.22.73.73,0,0,1-.56-.22.72.72,0,0,1-.23-.55.75.75,0,0,1,.23-.55.73.73,0,0,1,.56-.22A.78.78,0,0,1,345.9,92.36Zm0,2.89v6.49h-1.13V95.25Z"/><path d="M356,95.64a2.1,2.1,0,0,1,.48,1.45v4.65h-1.13V97.25c0-.84-.3-1.26-.91-1.26a1.19,1.19,0,0,0-.81.28,3.59,3.59,0,0,0-.72.87v4.6h-1.13V97.25c0-.84-.3-1.26-.91-1.26a1.25,1.25,0,0,0-.83.29,3.71,3.71,0,0,0-.7.86v4.6h-1.13V95.25h1l.1,1a2.17,2.17,0,0,1,1.87-1.09,1.61,1.61,0,0,1,1.64,1.17,2.92,2.92,0,0,1,.84-.87,2,2,0,0,1,1.09-.3A1.63,1.63,0,0,1,356,95.64Z"/><path d="M359.92,92.36a.74.74,0,0,1,.22.55.71.71,0,0,1-.22.55.78.78,0,0,1-.58.22.73.73,0,0,1-.56-.22.71.71,0,0,1-.22-.55.74.74,0,0,1,.22-.55.73.73,0,0,1,.56-.22A.78.78,0,0,1,359.92,92.36Zm0,2.89v6.49h-1.13V95.25Z"/><path d="M366.7,95.64a2,2,0,0,1,.5,1.45v4.65h-1.13V97.25a1.43,1.43,0,0,0-.26-1A1,1,0,0,0,365,96a1.48,1.48,0,0,0-.91.3,3,3,0,0,0-.74.85v4.6h-1.13V95.25h1l.1,1a2.66,2.66,0,0,1,.86-.81,2.15,2.15,0,0,1,1.12-.29A1.79,1.79,0,0,1,366.7,95.64Z"/><path d="M374.3,101.74h-1l-.09-1a2.4,2.4,0,0,1-.85.88,2.25,2.25,0,0,1-1.17.28,1.72,1.72,0,0,1-1.33-.52,2.06,2.06,0,0,1-.48-1.46V95.25h1.14v4.53a1.47,1.47,0,0,0,.23,1,1,1,0,0,0,.76.27,1.93,1.93,0,0,0,1.63-1.12V95.25h1.13Z"/><path d="M377.77,92.36a.74.74,0,0,1,.22.55.71.71,0,0,1-.22.55.78.78,0,0,1-.58.22.73.73,0,0,1-.56-.22.71.71,0,0,1-.22-.55.74.74,0,0,1,.22-.55.73.73,0,0,1,.56-.22A.78.78,0,0,1,377.77,92.36Zm0,2.89v6.49h-1.13V95.25Z"/><path d="M387.94,96a3.76,3.76,0,0,1,.75,2.47,4.32,4.32,0,0,1-.34,1.78,2.67,2.67,0,0,1-1,1.19,2.71,2.71,0,0,1-1.55.43,2.62,2.62,0,0,1-2.13-.91,3.73,3.73,0,0,1-.76-2.48,4.35,4.35,0,0,1,.34-1.78,2.67,2.67,0,0,1,1-1.19,2.8,2.8,0,0,1,1.56-.42A2.62,2.62,0,0,1,387.94,96Zm-3.81,2.48c0,1.65.55,2.48,1.67,2.48s1.67-.83,1.67-2.49S386.92,96,385.81,96,384.13,96.85,384.13,98.5Z"/><path d="M397.25,95.27a2.81,2.81,0,0,1,.92.54l-.54.71a2.94,2.94,0,0,0-.67-.36,2.09,2.09,0,0,0-.72-.12,1.42,1.42,0,0,0-1.23.63,3.28,3.28,0,0,0-.43,1.86,3,3,0,0,0,.43,1.81,1.45,1.45,0,0,0,1.23.59,2,2,0,0,0,.7-.12,3.75,3.75,0,0,0,.71-.37l.52.74a3.1,3.1,0,0,1-2,.71,2.57,2.57,0,0,1-2.07-.89,3.61,3.61,0,0,1-.76-2.45,4.43,4.43,0,0,1,.34-1.81,2.79,2.79,0,0,1,1-1.2,2.6,2.6,0,0,1,1.51-.43A3.23,3.23,0,0,1,397.25,95.27Z"/><path d="M404.09,100.81a.79.79,0,0,0,.41.29l-.26.79a1.76,1.76,0,0,1-.81-.28,1.3,1.3,0,0,1-.46-.69,2.19,2.19,0,0,1-1.93,1,2.07,2.07,0,0,1-1.51-.54,1.91,1.91,0,0,1-.56-1.42,1.86,1.86,0,0,1,.75-1.59,3.47,3.47,0,0,1,2.11-.55h1v-.48a1.25,1.25,0,0,0-.34-1,1.53,1.53,0,0,0-1-.29,5.73,5.73,0,0,0-1.75.34l-.28-.82a6.39,6.39,0,0,1,2.24-.44,2.32,2.32,0,0,1,1.71.56,2.12,2.12,0,0,1,.57,1.59v3A1,1,0,0,0,404.09,100.81Zm-1.26-.78V98.54H402c-1.2,0-1.8.44-1.8,1.33a1.18,1.18,0,0,0,.28.87,1.1,1.1,0,0,0,.84.3A1.7,1.7,0,0,0,402.83,100Z"/><path d="M406.46,101.51a1.45,1.45,0,0,1-.36-1.05V92.64l1.13-.13v7.93a.59.59,0,0,0,.1.39.36.36,0,0,0,.31.12,1.09,1.09,0,0,0,.42-.07l.29.79a1.82,1.82,0,0,1-.9.22A1.34,1.34,0,0,1,406.46,101.51Z"/><path d="M414.27,96a3.76,3.76,0,0,1,.76,2.47,4.31,4.31,0,0,1-.35,1.78,2.67,2.67,0,0,1-1,1.19,2.71,2.71,0,0,1-1.55.43A2.62,2.62,0,0,1,410,101a3.73,3.73,0,0,1-.76-2.48,4.35,4.35,0,0,1,.35-1.78,2.71,2.71,0,0,1,1-1.19,2.85,2.85,0,0,1,1.57-.42A2.6,2.6,0,0,1,414.27,96Zm-3.81,2.48c0,1.65.56,2.48,1.67,2.48s1.68-.83,1.68-2.49S413.25,96,412.15,96,410.46,96.85,410.46,98.5Z"/><path d="M420.36,95.18l-.21,1.11a2.37,2.37,0,0,0-.57-.08,1.2,1.2,0,0,0-1,.45A3.19,3.19,0,0,0,418,98v3.7H416.9V95.25h1l.11,1.32a2.55,2.55,0,0,1,.7-1.1,1.6,1.6,0,0,1,1-.36A2.62,2.62,0,0,1,420.36,95.18Z"/><path d="M309,110.64v9.09h-1l-.11-.89a2.32,2.32,0,0,1-.8.76,2.06,2.06,0,0,1-1.07.28,2.1,2.1,0,0,1-1.81-.91,4.16,4.16,0,0,1-.64-2.45,4.66,4.66,0,0,1,.31-1.77,2.71,2.71,0,0,1,.88-1.21,2.15,2.15,0,0,1,1.36-.44,2.33,2.33,0,0,1,1.75.8v-3.4Zm-1.85,8.1a2.72,2.72,0,0,0,.72-.72v-3.17a2.72,2.72,0,0,0-.69-.64,1.59,1.59,0,0,0-.82-.21,1.32,1.32,0,0,0-1.16.62,3.43,3.43,0,0,0-.41,1.88,3.68,3.68,0,0,0,.38,1.87,1.21,1.21,0,0,0,1.09.61A1.58,1.58,0,0,0,307.17,118.74Z"/><path d="M315.92,114a3.77,3.77,0,0,1,.75,2.47,4.28,4.28,0,0,1-.34,1.78,2.69,2.69,0,0,1-1,1.2,2.79,2.79,0,0,1-1.55.42,2.62,2.62,0,0,1-2.13-.91,3.72,3.72,0,0,1-.76-2.47,4.28,4.28,0,0,1,.34-1.78,2.76,2.76,0,0,1,1-1.2,2.84,2.84,0,0,1,1.56-.42A2.62,2.62,0,0,1,315.92,114Zm-3.81,2.49c0,1.65.56,2.47,1.67,2.47s1.68-.83,1.68-2.49-.56-2.47-1.67-2.47S312.11,114.84,312.11,116.5Z"/><path d="M326.31,118.8a.79.79,0,0,0,.41.29l-.26.79a1.73,1.73,0,0,1-.81-.28,1.3,1.3,0,0,1-.46-.69,2.16,2.16,0,0,1-1.93,1,2.07,2.07,0,0,1-1.51-.54,1.89,1.89,0,0,1-.56-1.42,1.84,1.84,0,0,1,.75-1.58,3.46,3.46,0,0,1,2.11-.56h1v-.48a1.21,1.21,0,0,0-.34-1,1.48,1.48,0,0,0-1-.3,5.79,5.79,0,0,0-1.75.35l-.28-.83a6.67,6.67,0,0,1,2.24-.44,2.36,2.36,0,0,1,1.71.56,2.12,2.12,0,0,1,.57,1.59v3A1,1,0,0,0,326.31,118.8Zm-1.26-.78v-1.49h-.85c-1.2,0-1.8.45-1.8,1.33a1.22,1.22,0,0,0,.28.88,1.14,1.14,0,0,0,.84.29A1.68,1.68,0,0,0,325.05,118Z"/><path d="M331.78,119.44a2.53,2.53,0,0,1-1.45.44,1.75,1.75,0,0,1-1.29-.47,1.9,1.9,0,0,1-.46-1.38v-3.91h-1.13v-.87h1.13v-1.47l1.13-.13v1.6h1.54l-.12.87h-1.42V118a1.19,1.19,0,0,0,.18.73.73.73,0,0,0,.6.23,1.9,1.9,0,0,0,.86-.26Z"/><path d="M336.41,113.17l-.21,1.11a2.34,2.34,0,0,0-.57-.07,1.19,1.19,0,0,0-1,.44,3.32,3.32,0,0,0-.58,1.38v3.7H333v-6.48h1l.11,1.31a2.54,2.54,0,0,1,.7-1.09,1.58,1.58,0,0,1,1-.37A2.62,2.62,0,0,1,336.41,113.17Z"/><path d="M338.83,110.35a.75.75,0,0,1,.23.56.71.71,0,0,1-.23.54.75.75,0,0,1-.57.22.77.77,0,0,1-.57-.22.7.7,0,0,1-.22-.54.75.75,0,0,1,.22-.56.81.81,0,0,1,.57-.22A.79.79,0,0,1,338.83,110.35Zm0,2.9v6.48H337.7v-6.48Z"/><path d="M344.45,119.44a2.53,2.53,0,0,1-1.45.44,1.75,1.75,0,0,1-1.29-.47,1.9,1.9,0,0,1-.46-1.38v-3.91h-1.14v-.87h1.14v-1.47l1.13-.13v1.6h1.54l-.12.87h-1.42V118a1.19,1.19,0,0,0,.18.73.73.73,0,0,0,.6.23,1.9,1.9,0,0,0,.86-.26Z"/><path d="M350,114a3.72,3.72,0,0,1,.76,2.47,4.28,4.28,0,0,1-.34,1.78,2.69,2.69,0,0,1-1,1.2,2.79,2.79,0,0,1-1.55.42,2.62,2.62,0,0,1-2.13-.91,3.72,3.72,0,0,1-.76-2.47,4.28,4.28,0,0,1,.34-1.78,2.69,2.69,0,0,1,1-1.2,2.8,2.8,0,0,1,1.56-.42A2.59,2.59,0,0,1,350,114Zm-3.8,2.49c0,1.65.55,2.47,1.67,2.47s1.67-.83,1.67-2.49S349,114,347.87,114,346.19,114.84,346.19,116.5Z"/><path d="M360.76,116.88h-4.14a2.46,2.46,0,0,0,.55,1.57,1.55,1.55,0,0,0,1.2.51,2.63,2.63,0,0,0,.86-.14,3.3,3.3,0,0,0,.83-.43l.49.68a3.58,3.58,0,0,1-2.26.81,2.61,2.61,0,0,1-2.11-.88,3.64,3.64,0,0,1-.76-2.44,4.76,4.76,0,0,1,.32-1.79,2.86,2.86,0,0,1,.94-1.23,2.67,2.67,0,0,1,3.42.41,3.62,3.62,0,0,1,.69,2.35A5.78,5.78,0,0,1,360.76,116.88Zm-1.09-.91a2.38,2.38,0,0,0-.39-1.47,1.34,1.34,0,0,0-1.14-.5c-.93,0-1.43.68-1.52,2h3.05Z"/><path d="M371.73,119.66a2.11,2.11,0,0,1-1,.22,1.24,1.24,0,0,1-1-.36,1.54,1.54,0,0,1-.33-1.07v-6.83a5.83,5.83,0,0,0-.71-.16,5,5,0,0,0-.71,0,1.28,1.28,0,0,0-.84.22,1,1,0,0,0-.24.72v.9h1.57l-.12.87H367v5.61h-1.13v-5.61h-1v-.87h1v-.89a1.74,1.74,0,0,1,.54-1.35,2.28,2.28,0,0,1,1.6-.51,4.22,4.22,0,0,1,.75.06,6.88,6.88,0,0,1,.75.19l1.12-.15v7.83a.7.7,0,0,0,.09.39.38.38,0,0,0,.32.13,1.07,1.07,0,0,0,.41-.08Z"/><path d="M378,119.73h-1l-.09-1a2.33,2.33,0,0,1-.85.88,2.25,2.25,0,0,1-1.17.28,1.72,1.72,0,0,1-1.33-.52,2.06,2.06,0,0,1-.48-1.46v-4.65h1.14v4.53a1.46,1.46,0,0,0,.23.94,1,1,0,0,0,.76.28,1.93,1.93,0,0,0,1.63-1.13v-4.62H378Z"/><path d="M383.59,119.44a2.56,2.56,0,0,1-1.46.44,1.71,1.71,0,0,1-1.28-.47,1.91,1.91,0,0,1-.47-1.38v-3.91h-1.13v-.87h1.13v-1.47l1.14-.13v1.6h1.54l-.13.87h-1.41V118a1.19,1.19,0,0,0,.18.73.71.71,0,0,0,.59.23,1.86,1.86,0,0,0,.86-.26Z"/><path d="M389.58,119.73h-1l-.09-1a2.33,2.33,0,0,1-.85.88,2.25,2.25,0,0,1-1.17.28,1.72,1.72,0,0,1-1.33-.52,2.06,2.06,0,0,1-.48-1.46v-4.65h1.14v4.53a1.46,1.46,0,0,0,.23.94,1,1,0,0,0,.76.28,1.94,1.94,0,0,0,1.63-1.13v-4.62h1.13Z"/><path d="M396.43,118.8a.76.76,0,0,0,.4.29l-.26.79a1.73,1.73,0,0,1-.81-.28,1.29,1.29,0,0,1-.45-.69,2.18,2.18,0,0,1-1.94,1,2.07,2.07,0,0,1-1.51-.54,1.89,1.89,0,0,1-.56-1.42,1.84,1.84,0,0,1,.75-1.58,3.48,3.48,0,0,1,2.11-.56h1v-.48a1.24,1.24,0,0,0-.33-1,1.53,1.53,0,0,0-1-.3,5.68,5.68,0,0,0-1.74.35l-.29-.83a6.67,6.67,0,0,1,2.24-.44,2.33,2.33,0,0,1,1.71.56,2.12,2.12,0,0,1,.57,1.59v3A1,1,0,0,0,396.43,118.8Zm-1.27-.78v-1.49h-.85c-1.2,0-1.8.45-1.8,1.33a1.27,1.27,0,0,0,.28.88,1.14,1.14,0,0,0,.84.29A1.68,1.68,0,0,0,395.16,118Z"/><path d="M401.24,119.87v.55a1.39,1.39,0,0,1,.87.34,1,1,0,0,1,.27.71,1.06,1.06,0,0,1-.43.91,1.78,1.78,0,0,1-1.09.32,2.55,2.55,0,0,1-.64-.08,1.34,1.34,0,0,1-.48-.21l.31-.65a1.5,1.5,0,0,0,.77.2.83.83,0,0,0,.45-.11.45.45,0,0,0,.17-.38.43.43,0,0,0-.26-.39,2.09,2.09,0,0,0-.84-.13l.14-1.11a2.45,2.45,0,0,1-1.71-1,3.8,3.8,0,0,1-.62-2.26,4.4,4.4,0,0,1,.34-1.81,2.82,2.82,0,0,1,1-1.21,2.63,2.63,0,0,1,1.51-.43,3.23,3.23,0,0,1,1.06.16,3,3,0,0,1,.92.54l-.54.71a2.94,2.94,0,0,0-.67-.36A2.09,2.09,0,0,0,401,114a1.39,1.39,0,0,0-1.22.63,3.2,3.2,0,0,0-.44,1.86,3.07,3.07,0,0,0,.43,1.82,1.44,1.44,0,0,0,1.23.58,2,2,0,0,0,.7-.12,3.53,3.53,0,0,0,.72-.37l.51.74A3,3,0,0,1,401.24,119.87Z"/><path d="M408.88,118.8a.83.83,0,0,0,.41.29l-.26.79a1.73,1.73,0,0,1-.81-.28,1.36,1.36,0,0,1-.46-.69,2.15,2.15,0,0,1-1.93,1,2.07,2.07,0,0,1-1.51-.54,1.89,1.89,0,0,1-.56-1.42,1.84,1.84,0,0,1,.75-1.58,3.46,3.46,0,0,1,2.11-.56h1v-.48a1.21,1.21,0,0,0-.34-1,1.48,1.48,0,0,0-1-.3,5.79,5.79,0,0,0-1.75.35l-.28-.83a6.67,6.67,0,0,1,2.24-.44,2.35,2.35,0,0,1,1.71.56,2.12,2.12,0,0,1,.57,1.59v3A1,1,0,0,0,408.88,118.8Zm-2.17-7.23a3.14,3.14,0,0,1-.42-.24,2.21,2.21,0,0,0-.32-.2.58.58,0,0,0-.26-.06.51.51,0,0,0-.35.13,1.85,1.85,0,0,0-.3.43l-.69-.34a2.27,2.27,0,0,1,.57-.79,1.1,1.1,0,0,1,.77-.29,1,1,0,0,1,.44.09,3.51,3.51,0,0,1,.42.25l.15.1a1.5,1.5,0,0,0,.22.11.71.71,0,0,0,.2,0,.53.53,0,0,0,.33-.13,2.05,2.05,0,0,0,.32-.42l.69.35a2.14,2.14,0,0,1-.58.79,1.2,1.2,0,0,1-.76.27A1,1,0,0,1,406.71,111.57Zm.91,6.45v-1.49h-.85c-1.2,0-1.8.45-1.8,1.33a1.22,1.22,0,0,0,.28.88,1.14,1.14,0,0,0,.84.29A1.68,1.68,0,0,0,407.62,118Z"/><path d="M415.64,114a3.77,3.77,0,0,1,.75,2.47,4.28,4.28,0,0,1-.34,1.78,2.69,2.69,0,0,1-1,1.2,2.79,2.79,0,0,1-1.55.42,2.62,2.62,0,0,1-2.13-.91,3.72,3.72,0,0,1-.76-2.47,4.28,4.28,0,0,1,.34-1.78,2.76,2.76,0,0,1,1-1.2,2.84,2.84,0,0,1,1.56-.42A2.62,2.62,0,0,1,415.64,114Zm-3.81,2.49c0,1.65.56,2.47,1.67,2.47s1.68-.83,1.68-2.49-.56-2.47-1.67-2.47S411.83,114.84,411.83,116.5Z"/><path d="M309,128.63v9.1h-1l-.11-.9a2.35,2.35,0,0,1-.8.77,2.15,2.15,0,0,1-1.07.27,2.1,2.1,0,0,1-1.81-.91,4.14,4.14,0,0,1-.64-2.45,4.69,4.69,0,0,1,.31-1.77,2.71,2.71,0,0,1,.88-1.21,2.21,2.21,0,0,1,1.36-.44,2.37,2.37,0,0,1,1.75.8v-3.4Zm-1.85,8.1a2.58,2.58,0,0,0,.72-.72v-3.17a2.72,2.72,0,0,0-.69-.64,1.59,1.59,0,0,0-.82-.21,1.3,1.3,0,0,0-1.16.63,3.39,3.39,0,0,0-.41,1.87,3.66,3.66,0,0,0,.38,1.87,1.21,1.21,0,0,0,1.09.61A1.58,1.58,0,0,0,307.17,136.73Z"/><path d="M315.86,136.8a.92.92,0,0,0,.41.29l-.26.78a1.65,1.65,0,0,1-.81-.28,1.3,1.3,0,0,1-.46-.69,2.16,2.16,0,0,1-1.93,1,2.05,2.05,0,0,1-1.51-.54,1.88,1.88,0,0,1-.56-1.41,1.86,1.86,0,0,1,.75-1.59,3.46,3.46,0,0,1,2.11-.56h1v-.48a1.26,1.26,0,0,0-.33-1,1.48,1.48,0,0,0-1-.3,5.73,5.73,0,0,0-1.75.35l-.28-.83a6.63,6.63,0,0,1,2.24-.44,2.36,2.36,0,0,1,1.71.56,2.13,2.13,0,0,1,.57,1.59v3A1.05,1.05,0,0,0,315.86,136.8Zm-1.27-.79v-1.49h-.85c-1.19,0-1.79.45-1.79,1.33a1.22,1.22,0,0,0,.28.88,1.1,1.1,0,0,0,.84.29A1.66,1.66,0,0,0,314.59,136Z"/><path d="M320.89,131.27a3.9,3.9,0,0,1,1,.56l-.49.71a4.11,4.11,0,0,0-.84-.42,2.63,2.63,0,0,0-.84-.13,1.46,1.46,0,0,0-.88.23.73.73,0,0,0-.32.62.69.69,0,0,0,.31.61,3.37,3.37,0,0,0,1.09.44,3.84,3.84,0,0,1,1.61.73,1.62,1.62,0,0,1,.54,1.28,1.67,1.67,0,0,1-.75,1.47,3.11,3.11,0,0,1-1.81.5,3.57,3.57,0,0,1-2.45-.85l.6-.68a3,3,0,0,0,1.82.62,1.79,1.79,0,0,0,1-.26.85.85,0,0,0,.38-.72,1,1,0,0,0-.14-.54,1.13,1.13,0,0,0-.47-.35,5.08,5.08,0,0,0-1-.33,3.28,3.28,0,0,1-1.5-.73,1.58,1.58,0,0,1-.46-1.15,1.51,1.51,0,0,1,.3-.92,2,2,0,0,1,.84-.64,3.09,3.09,0,0,1,1.2-.23A3.78,3.78,0,0,1,320.89,131.27Z"/><path d="M330.11,128.6a4.39,4.39,0,0,1,.86.34l-.4.78a3.14,3.14,0,0,0-1.36-.3,1.28,1.28,0,0,0-.9.23,1,1,0,0,0-.25.73v.86h3.62v6.49h-1.13v-5.62h-2.49v5.62h-1.13v-5.62h-1v-.87h1v-.85a1.78,1.78,0,0,1,.55-1.38,2.44,2.44,0,0,1,1.69-.52A3.85,3.85,0,0,1,330.11,128.6Z"/><path d="M338.75,132a4.22,4.22,0,0,1,.65,2.5,4.71,4.71,0,0,1-.31,1.78,2.64,2.64,0,0,1-.88,1.19,2.26,2.26,0,0,1-1.36.42,2.13,2.13,0,0,1-1.72-.86l-.11.72h-1v-9.1l1.13-.14v3.56a2.18,2.18,0,0,1,1.84-1A2.08,2.08,0,0,1,338.75,132Zm-1,4.39a3.39,3.39,0,0,0,.42-1.89,3.56,3.56,0,0,0-.39-1.91,1.27,1.27,0,0,0-1.12-.58,1.85,1.85,0,0,0-1.52,1v3.1a2.06,2.06,0,0,0,.64.64,1.42,1.42,0,0,0,.79.23A1.37,1.37,0,0,0,337.76,136.37Z"/><path d="M344.79,131.16l-.21,1.11a2.2,2.2,0,0,0-.56-.07,1.21,1.21,0,0,0-1,.44,3.3,3.3,0,0,0-.58,1.38v3.71h-1.14v-6.49h1l.11,1.32a2.41,2.41,0,0,1,.7-1.1,1.53,1.53,0,0,1,1-.37A2.56,2.56,0,0,1,344.79,131.16Z"/><path d="M350.16,136.8a.92.92,0,0,0,.41.29l-.26.78a1.65,1.65,0,0,1-.81-.28,1.3,1.3,0,0,1-.46-.69,2.16,2.16,0,0,1-1.93,1,2.09,2.09,0,0,1-1.52-.54,2.08,2.08,0,0,1,.19-3,3.5,3.5,0,0,1,2.12-.56h1v-.48a1.26,1.26,0,0,0-.33-1,1.48,1.48,0,0,0-1-.3,5.73,5.73,0,0,0-1.75.35l-.28-.83a6.63,6.63,0,0,1,2.24-.44,2.36,2.36,0,0,1,1.71.56,2.13,2.13,0,0,1,.57,1.59v3A1.05,1.05,0,0,0,350.16,136.8Zm-1.27-.79v-1.49H348c-1.19,0-1.79.45-1.79,1.33a1.22,1.22,0,0,0,.28.88,1.1,1.1,0,0,0,.84.29A1.67,1.67,0,0,0,348.89,136Z"/><path d="M355.18,131.27a3.6,3.6,0,0,1,1,.56l-.48.71a4.11,4.11,0,0,0-.84-.42A2.63,2.63,0,0,0,354,132a1.46,1.46,0,0,0-.88.23.73.73,0,0,0-.32.62.71.71,0,0,0,.3.61,3.58,3.58,0,0,0,1.09.44,3.83,3.83,0,0,1,1.62.73,1.62,1.62,0,0,1,.54,1.28,1.67,1.67,0,0,1-.75,1.47,3.11,3.11,0,0,1-1.81.5,3.57,3.57,0,0,1-2.45-.85l.6-.68a3,3,0,0,0,1.82.62,1.79,1.79,0,0,0,1-.26.84.84,0,0,0,.37-.72,1,1,0,0,0-.13-.54,1.13,1.13,0,0,0-.47-.35,5.34,5.34,0,0,0-1-.33,3.28,3.28,0,0,1-1.5-.73,1.58,1.58,0,0,1-.46-1.15,1.51,1.51,0,0,1,.3-.92,1.89,1.89,0,0,1,.84-.64,3.09,3.09,0,0,1,1.2-.23A3.67,3.67,0,0,1,355.18,131.27Z"/><path d="M657.06,98.83h-4.14a2.52,2.52,0,0,0,.54,1.57,1.57,1.57,0,0,0,1.21.51,2.63,2.63,0,0,0,.86-.14,3.48,3.48,0,0,0,.83-.43l.49.68a3.61,3.61,0,0,1-2.27.81,2.61,2.61,0,0,1-2.11-.89,3.64,3.64,0,0,1-.75-2.43,4.54,4.54,0,0,1,.32-1.79,2.8,2.8,0,0,1,.94-1.23,2.65,2.65,0,0,1,3.41.41,3.62,3.62,0,0,1,.69,2.35C657.08,98.44,657.07,98.63,657.06,98.83Zm-1.1-.91a2.45,2.45,0,0,0-.38-1.47,1.33,1.33,0,0,0-1.14-.5c-.93,0-1.44.68-1.52,2h3Zm-.54-6.1.51,1-2.61,1.06-.35-.6Z"/><path d="M663.62,93.59a1,1,0,0,0-.22.71v.9H665l-.12.87H663.4v5.61h-1.13V96.07h-1.16V95.2h1.16v-.89A1.76,1.76,0,0,1,662.8,93a2.1,2.1,0,0,1,1.5-.51,3.77,3.77,0,0,1,.79.08,4.79,4.79,0,0,1,.76.25l-.36.83a2.69,2.69,0,0,0-1.13-.25A1,1,0,0,0,663.62,93.59Z"/><path d="M671,98.83h-4.14a2.46,2.46,0,0,0,.55,1.57,1.55,1.55,0,0,0,1.2.51,2.63,2.63,0,0,0,.86-.14,3.3,3.3,0,0,0,.83-.43l.49.68a3.58,3.58,0,0,1-2.26.81,2.62,2.62,0,0,1-2.12-.89,3.64,3.64,0,0,1-.75-2.43,4.73,4.73,0,0,1,.32-1.79,2.8,2.8,0,0,1,.94-1.23,2.67,2.67,0,0,1,3.42.41,3.67,3.67,0,0,1,.69,2.35A5.78,5.78,0,0,1,671,98.83Zm-1.09-.91a2.38,2.38,0,0,0-.39-1.47,1.32,1.32,0,0,0-1.14-.5c-.93,0-1.43.68-1.52,2h3.05Z"/><path d="M674,92.3a.75.75,0,0,1,.22.56.7.7,0,0,1-.22.54.86.86,0,0,1-1.15,0,.7.7,0,0,1-.22-.54.75.75,0,0,1,.22-.56.86.86,0,0,1,1.15,0Zm0,2.9v6.48h-1.14V95.2Z"/><path d="M679.61,101.39a2.53,2.53,0,0,1-1.45.44,1.75,1.75,0,0,1-1.29-.47,1.9,1.9,0,0,1-.46-1.38V96.07h-1.13V95.2h1.13V93.73l1.13-.13v1.6h1.54l-.12.87h-1.42v3.86a1.2,1.2,0,0,0,.18.74.72.72,0,0,0,.6.22,1.87,1.87,0,0,0,.86-.25Z"/><path d="M685.2,100.75a.79.79,0,0,0,.41.29l-.26.79a1.65,1.65,0,0,1-.81-.28,1.3,1.3,0,0,1-.46-.69,2.16,2.16,0,0,1-1.93,1,2.09,2.09,0,0,1-1.52-.54,1.88,1.88,0,0,1-.55-1.42,1.85,1.85,0,0,1,.74-1.58,3.5,3.5,0,0,1,2.12-.56h1v-.48a1.24,1.24,0,0,0-.33-1,1.48,1.48,0,0,0-1-.3,5.73,5.73,0,0,0-1.75.35l-.28-.83a6.63,6.63,0,0,1,2.24-.44,2.32,2.32,0,0,1,1.71.56,2.12,2.12,0,0,1,.57,1.59v3A1,1,0,0,0,685.2,100.75Zm-1.27-.78V98.48h-.85c-1.2,0-1.79.45-1.79,1.33a1.22,1.22,0,0,0,.28.88,1.14,1.14,0,0,0,.84.29A1.7,1.7,0,0,0,683.93,100Z"/><path d="M695.53,98.83h-4.14a2.46,2.46,0,0,0,.55,1.57,1.55,1.55,0,0,0,1.2.51,2.63,2.63,0,0,0,.86-.14,3.3,3.3,0,0,0,.83-.43l.49.68a3.58,3.58,0,0,1-2.26.81,2.62,2.62,0,0,1-2.12-.89,3.64,3.64,0,0,1-.75-2.43,4.73,4.73,0,0,1,.32-1.79,2.8,2.8,0,0,1,.94-1.23,2.65,2.65,0,0,1,3.41.41,3.62,3.62,0,0,1,.69,2.35A5.72,5.72,0,0,1,695.53,98.83Zm-1.1-.91a2.38,2.38,0,0,0-.38-1.47,1.32,1.32,0,0,0-1.14-.5c-.93,0-1.43.68-1.52,2h3Z"/><path d="M705.16,95.58a2.1,2.1,0,0,1,.48,1.45v4.65H704.5V97.19c0-.84-.3-1.26-.91-1.26a1.24,1.24,0,0,0-.81.28,3.8,3.8,0,0,0-.71.87v4.6h-1.14V97.19c0-.84-.3-1.26-.91-1.26a1.21,1.21,0,0,0-.82.29,3.67,3.67,0,0,0-.7.86v4.6h-1.14V95.2h1l.09.94a2.18,2.18,0,0,1,1.88-1.09,1.71,1.71,0,0,1,1,.3,1.67,1.67,0,0,1,.61.87,3.07,3.07,0,0,1,.85-.87,1.94,1.94,0,0,1,1.09-.3A1.66,1.66,0,0,1,705.16,95.58Z"/><path d="M603.79,118.75a.84.84,0,0,0,.41.28l-.26.79a1.65,1.65,0,0,1-.81-.28,1.3,1.3,0,0,1-.46-.69,2.18,2.18,0,0,1-1.93,1,2.09,2.09,0,0,1-1.52-.54,2.08,2.08,0,0,1,.19-3,3.48,3.48,0,0,1,2.11-.56h1v-.48a1.26,1.26,0,0,0-.33-1,1.48,1.48,0,0,0-1-.3,5.73,5.73,0,0,0-1.75.35l-.28-.83a6.63,6.63,0,0,1,2.24-.44,2.36,2.36,0,0,1,1.71.56,2.11,2.11,0,0,1,.56,1.59v3A1,1,0,0,0,603.79,118.75Zm-4-6.88-.48-.55,1.67-1.39h.75l1.67,1.39-.49.55-1.55-1Zm2.76,6.09v-1.49h-.85c-1.2,0-1.79.45-1.79,1.33a1.22,1.22,0,0,0,.28.88,1.1,1.1,0,0,0,.84.29A1.68,1.68,0,0,0,602.52,118Z"/><path d="M610.42,113.57a2,2,0,0,1,.5,1.45v4.66h-1.13v-4.5a1.44,1.44,0,0,0-.26-1,1,1,0,0,0-.77-.28,1.48,1.48,0,0,0-.91.29,3.16,3.16,0,0,0-.74.85v4.61H606v-6.49h1l.1,1a2.46,2.46,0,0,1,.86-.81A2.16,2.16,0,0,1,609,113,1.82,1.82,0,0,1,610.42,113.57Z"/><path d="M618.43,113.48a3.41,3.41,0,0,1-.82.16c-.29,0-.65,0-1.08,0a1.72,1.72,0,0,1,1.15,1.64,2.1,2.1,0,0,1-.67,1.59,2.54,2.54,0,0,1-1.81.61,2.71,2.71,0,0,1-.82-.12.67.67,0,0,0-.24.26.84.84,0,0,0-.08.34c0,.35.28.53.85.53h1a2.82,2.82,0,0,1,1.16.23,2,2,0,0,1,.78.64,1.67,1.67,0,0,1,.28.93,1.65,1.65,0,0,1-.78,1.46,4.13,4.13,0,0,1-2.26.51,5.24,5.24,0,0,1-1.66-.22,1.56,1.56,0,0,1-.87-.64,2.17,2.17,0,0,1-.26-1.11h1a1.12,1.12,0,0,0,.14.62.91.91,0,0,0,.53.34,3.86,3.86,0,0,0,1.09.12,3,3,0,0,0,1.45-.25.81.81,0,0,0,.44-.76.79.79,0,0,0-.34-.69,1.75,1.75,0,0,0-1-.23h-1a1.94,1.94,0,0,1-1.25-.35,1.11,1.11,0,0,1-.24-1.5,1.67,1.67,0,0,1,.53-.53,2,2,0,0,1-.84-.73,2.08,2.08,0,0,1-.26-1.06,2.2,2.2,0,0,1,1.22-2,2.87,2.87,0,0,1,1.28-.29,8.06,8.06,0,0,0,1.28-.06,3.91,3.91,0,0,0,.85-.18c.23-.08.51-.19.84-.34Zm-4.29.77a1.78,1.78,0,0,0,0,2.12,1.28,1.28,0,0,0,1,.4,1.3,1.3,0,0,0,1-.39,1.59,1.59,0,0,0,.35-1.09c0-1-.46-1.44-1.39-1.44A1.26,1.26,0,0,0,614.14,114.25Z"/><path d="M624.3,119.68h-1l-.09-1a2.57,2.57,0,0,1-.85.88,2.35,2.35,0,0,1-1.17.27,1.75,1.75,0,0,1-1.33-.51,2.1,2.1,0,0,1-.48-1.47v-4.65h1.13v4.53a1.45,1.45,0,0,0,.24.94,1,1,0,0,0,.76.28,2,2,0,0,0,1.63-1.12v-4.63h1.13Z"/><path d="M626.94,119.45a1.46,1.46,0,0,1-.36-1.06v-7.81l1.13-.14v7.93a.66.66,0,0,0,.09.39.36.36,0,0,0,.32.13,1.07,1.07,0,0,0,.41-.08l.3.79a1.82,1.82,0,0,1-.9.22A1.3,1.3,0,0,1,626.94,119.45Z"/><path d="M634.75,114a3.78,3.78,0,0,1,.75,2.48,4.27,4.27,0,0,1-.34,1.77,2.69,2.69,0,0,1-1,1.2,2.79,2.79,0,0,1-1.55.42,2.62,2.62,0,0,1-2.13-.91,3.7,3.7,0,0,1-.76-2.47,4.28,4.28,0,0,1,.34-1.78,2.75,2.75,0,0,1,1-1.2,2.82,2.82,0,0,1,1.56-.42A2.62,2.62,0,0,1,634.75,114Zm-3.81,2.49c0,1.65.55,2.47,1.67,2.47s1.67-.83,1.67-2.48-.55-2.48-1.66-2.48S630.94,114.78,630.94,116.44Z"/><path d="M645.14,118.75a.84.84,0,0,0,.41.28l-.26.79a1.65,1.65,0,0,1-.81-.28,1.3,1.3,0,0,1-.46-.69,2.16,2.16,0,0,1-1.93,1,2.05,2.05,0,0,1-1.51-.54,1.88,1.88,0,0,1-.56-1.41,1.86,1.86,0,0,1,.75-1.59,3.46,3.46,0,0,1,2.11-.56h1v-.48a1.26,1.26,0,0,0-.33-1,1.48,1.48,0,0,0-1-.3,5.73,5.73,0,0,0-1.75.35l-.28-.83a6.63,6.63,0,0,1,2.24-.44,2.36,2.36,0,0,1,1.71.56,2.12,2.12,0,0,1,.57,1.59v3A1.05,1.05,0,0,0,645.14,118.75Zm-1.27-.79v-1.49H643c-1.19,0-1.79.45-1.79,1.33a1.22,1.22,0,0,0,.28.88,1.1,1.1,0,0,0,.84.29A1.66,1.66,0,0,0,643.87,118Z"/><path d="M652.44,113.48a3.23,3.23,0,0,1-.81.16c-.29,0-.66,0-1.08,0a1.71,1.71,0,0,1,1.14,1.64,2.09,2.09,0,0,1-.66,1.59,2.58,2.58,0,0,1-1.81.61,2.78,2.78,0,0,1-.83-.12.65.65,0,0,0-.23.26.72.72,0,0,0-.09.34c0,.35.29.53.85.53h1a2.78,2.78,0,0,1,1.15.23,2,2,0,0,1,.79.64,1.76,1.76,0,0,1-.5,2.39,4.17,4.17,0,0,1-2.27.51,5.13,5.13,0,0,1-1.65-.22,1.56,1.56,0,0,1-.87-.64,2.17,2.17,0,0,1-.26-1.11h1a1.12,1.12,0,0,0,.15.62.88.88,0,0,0,.53.34,3.73,3.73,0,0,0,1.08.12,3.08,3.08,0,0,0,1.46-.25.83.83,0,0,0,.44-.76.79.79,0,0,0-.35-.69,1.75,1.75,0,0,0-1-.23h-1a1.94,1.94,0,0,1-1.25-.35,1.11,1.11,0,0,1-.42-.88,1.17,1.17,0,0,1,.18-.62,1.78,1.78,0,0,1,.53-.53,1.83,1.83,0,0,1-1.09-1.79,2.1,2.1,0,0,1,.32-1.17,2.21,2.21,0,0,1,.9-.81,2.82,2.82,0,0,1,1.27-.29,8,8,0,0,0,1.28-.06,4,4,0,0,0,.86-.18c.23-.08.5-.19.83-.34Zm-4.29.77a1.57,1.57,0,0,0-.35,1.06,1.53,1.53,0,0,0,.36,1.06,1.27,1.27,0,0,0,1,.4,1.28,1.28,0,0,0,1-.39,1.54,1.54,0,0,0,.35-1.09c0-1-.46-1.44-1.39-1.44A1.29,1.29,0,0,0,648.15,114.25Z"/><path d="M658.32,119.68h-1l-.08-1a2.57,2.57,0,0,1-.85.88,2.35,2.35,0,0,1-1.17.27,1.73,1.73,0,0,1-1.33-.51,2.1,2.1,0,0,1-.48-1.47v-4.65h1.13v4.53a1.52,1.52,0,0,0,.23.94,1,1,0,0,0,.77.28,1.93,1.93,0,0,0,1.62-1.12v-4.63h1.14Z"/><path d="M665.68,110.58v9.1h-1l-.11-.9a2.45,2.45,0,0,1-.8.77,2.15,2.15,0,0,1-1.07.27,2.1,2.1,0,0,1-1.81-.91,4.14,4.14,0,0,1-.64-2.45,4.69,4.69,0,0,1,.31-1.77,2.71,2.71,0,0,1,.88-1.21,2.21,2.21,0,0,1,1.36-.44,2.33,2.33,0,0,1,1.74.8v-3.4Zm-1.85,8.1a2.56,2.56,0,0,0,.71-.72v-3.17a2.54,2.54,0,0,0-.68-.64,1.59,1.59,0,0,0-.82-.21,1.3,1.3,0,0,0-1.16.63,3.37,3.37,0,0,0-.41,1.87,3.58,3.58,0,0,0,.38,1.87,1.21,1.21,0,0,0,1.09.61A1.6,1.6,0,0,0,663.83,118.68Z"/><path d="M672.58,114a3.78,3.78,0,0,1,.75,2.48,4.27,4.27,0,0,1-.34,1.77,2.69,2.69,0,0,1-1,1.2,2.79,2.79,0,0,1-1.55.42,2.62,2.62,0,0,1-2.13-.91,3.7,3.7,0,0,1-.76-2.47,4.28,4.28,0,0,1,.34-1.78,2.75,2.75,0,0,1,1-1.2,2.82,2.82,0,0,1,1.56-.42A2.62,2.62,0,0,1,672.58,114Zm-3.81,2.49c0,1.65.55,2.47,1.67,2.47s1.67-.83,1.67-2.48-.55-2.48-1.66-2.48S668.77,114.78,668.77,116.44Z"/><path d="M683.27,113.93a4.6,4.6,0,0,1,.58,2.5,4.14,4.14,0,0,1-.67,2.46,2.17,2.17,0,0,1-1.88.93,2.08,2.08,0,0,1-1.7-.74v3.08l-1.13.14v-9.11h1l.09.87a2.4,2.4,0,0,1,.86-.76,2.34,2.34,0,0,1,1.06-.26A2,2,0,0,1,683.27,113.93Zm-.64,2.5q0-2.49-1.47-2.49a1.43,1.43,0,0,0-.87.28,2.84,2.84,0,0,0-.69.73v3.16a1.65,1.65,0,0,0,1.43.79C682.1,118.9,682.63,118.07,682.63,116.43Z"/><path d="M690.16,118.75a.84.84,0,0,0,.41.28l-.26.79a1.65,1.65,0,0,1-.81-.28,1.3,1.3,0,0,1-.46-.69,2.16,2.16,0,0,1-1.93,1,2.07,2.07,0,0,1-1.51-.54,1.88,1.88,0,0,1-.56-1.41,1.86,1.86,0,0,1,.75-1.59,3.46,3.46,0,0,1,2.11-.56h1v-.48a1.26,1.26,0,0,0-.34-1,1.48,1.48,0,0,0-1-.3,5.79,5.79,0,0,0-1.75.35l-.28-.83a6.63,6.63,0,0,1,2.24-.44,2.36,2.36,0,0,1,1.71.56,2.12,2.12,0,0,1,.57,1.59v3A1.05,1.05,0,0,0,690.16,118.75ZM688.9,118v-1.49h-.85c-1.2,0-1.8.45-1.8,1.33a1.22,1.22,0,0,0,.28.88,1.1,1.1,0,0,0,.84.29A1.68,1.68,0,0,0,688.9,118Z"/><path d="M695.81,113.11l-.2,1.11a2.34,2.34,0,0,0-.57-.07,1.21,1.21,0,0,0-1,.44,3.3,3.3,0,0,0-.58,1.38v3.71h-1.13v-6.49h1l.11,1.31a2.43,2.43,0,0,1,.7-1.09,1.55,1.55,0,0,1,1-.37A2.56,2.56,0,0,1,695.81,113.11Z"/><path d="M701.18,118.75a.84.84,0,0,0,.41.28l-.26.79a1.65,1.65,0,0,1-.81-.28,1.3,1.3,0,0,1-.46-.69,2.16,2.16,0,0,1-1.93,1,2.09,2.09,0,0,1-1.52-.54,2.07,2.07,0,0,1,.2-3,3.46,3.46,0,0,1,2.11-.56h1v-.48a1.26,1.26,0,0,0-.33-1,1.48,1.48,0,0,0-1-.3,5.73,5.73,0,0,0-1.75.35l-.28-.83a6.63,6.63,0,0,1,2.24-.44,2.36,2.36,0,0,1,1.71.56,2.12,2.12,0,0,1,.57,1.59v3A1.05,1.05,0,0,0,701.18,118.75Zm-1.27-.79v-1.49h-.85c-1.19,0-1.79.45-1.79,1.33a1.22,1.22,0,0,0,.28.88,1.1,1.1,0,0,0,.84.29A1.67,1.67,0,0,0,699.91,118Z"/><path d="M604.31,131.18v9.11l-1.14-.14v-3.34a2.23,2.23,0,0,1-.79.74,2.25,2.25,0,0,1-2.86-.65,4.14,4.14,0,0,1-.64-2.45,4.69,4.69,0,0,1,.31-1.77,2.71,2.71,0,0,1,.88-1.21,2.21,2.21,0,0,1,1.36-.44,2.38,2.38,0,0,1,1.82.88l.08-.73Zm-1.85,5.5a2.7,2.7,0,0,0,.71-.72v-3.18a2.34,2.34,0,0,0-.68-.63,1.5,1.5,0,0,0-.82-.22,1.3,1.3,0,0,0-1.16.63,3.39,3.39,0,0,0-.41,1.87,3.56,3.56,0,0,0,.38,1.87,1.21,1.21,0,0,0,1.09.62A1.6,1.6,0,0,0,602.46,136.68Z"/><path d="M611.47,137.67h-1l-.09-1a2.48,2.48,0,0,1-.85.88,2.35,2.35,0,0,1-1.17.27,1.75,1.75,0,0,1-1.33-.51,2.08,2.08,0,0,1-.48-1.47v-4.65h1.14v4.53a1.44,1.44,0,0,0,.23.94.93.93,0,0,0,.76.28,1.92,1.92,0,0,0,1.63-1.12v-4.63h1.13Z"/><path d="M618.69,134.81h-4.14a2.55,2.55,0,0,0,.54,1.58,1.6,1.6,0,0,0,1.21.5,2.63,2.63,0,0,0,.86-.13,3.61,3.61,0,0,0,.82-.43l.5.67a3.61,3.61,0,0,1-2.27.81,2.63,2.63,0,0,1-2.11-.88,3.65,3.65,0,0,1-.76-2.44,4.57,4.57,0,0,1,.33-1.79,2.86,2.86,0,0,1,.94-1.23,2.65,2.65,0,0,1,3.41.41,3.63,3.63,0,0,1,.69,2.35C618.71,134.42,618.7,134.61,618.69,134.81Zm-1.1-.91a2.45,2.45,0,0,0-.38-1.47,1.37,1.37,0,0,0-1.15-.5c-.92,0-1.43.68-1.51,2h3Z"/><path d="M628.29,136.74a.82.82,0,0,0,.4.29l-.25.78a1.73,1.73,0,0,1-.82-.28,1.35,1.35,0,0,1-.45-.69,2.18,2.18,0,0,1-1.94,1,2,2,0,0,1-1.51-.54,1.88,1.88,0,0,1-.55-1.41,1.85,1.85,0,0,1,.74-1.59,3.49,3.49,0,0,1,2.11-.55h1v-.48a1.28,1.28,0,0,0-.33-1,1.48,1.48,0,0,0-1-.29,5.68,5.68,0,0,0-1.75.34l-.29-.83a6.73,6.73,0,0,1,2.25-.44,2.36,2.36,0,0,1,1.71.56,2.19,2.19,0,0,1,.56,1.6v3A1,1,0,0,0,628.29,136.74ZM627,136v-1.49h-.85c-1.2,0-1.8.44-1.8,1.33a1.22,1.22,0,0,0,.29.87,1.08,1.08,0,0,0,.83.3A1.7,1.7,0,0,0,627,136Z"/><path d="M633.31,131.22a3.45,3.45,0,0,1,1,.55l-.48.71a4.3,4.3,0,0,0-.84-.41,2.66,2.66,0,0,0-.85-.14,1.47,1.47,0,0,0-.87.23.73.73,0,0,0-.32.62.74.74,0,0,0,.3.62,3.78,3.78,0,0,0,1.09.43,4,4,0,0,1,1.62.73,1.63,1.63,0,0,1,.54,1.29,1.65,1.65,0,0,1-.75,1.46,3.14,3.14,0,0,1-1.82.5,3.63,3.63,0,0,1-2.45-.84l.61-.69a3,3,0,0,0,1.82.62,1.71,1.71,0,0,0,1-.26.84.84,0,0,0,.37-.72,1,1,0,0,0-.13-.54,1.13,1.13,0,0,0-.47-.35,6.07,6.07,0,0,0-1-.33,3.29,3.29,0,0,1-1.49-.73,1.62,1.62,0,0,1-.16-2.07,2,2,0,0,1,.84-.64,3,3,0,0,1,1.2-.23A3.42,3.42,0,0,1,633.31,131.22Z"/><path d="M642.54,128.55a3.73,3.73,0,0,1,.85.33l-.39.79a3.06,3.06,0,0,0-1.37-.31,1.37,1.37,0,0,0-.9.23,1,1,0,0,0-.24.73v.86h3.62v6.49H643v-5.62h-2.49v5.62h-1.13v-5.62h-1v-.87h1v-.85a1.81,1.81,0,0,1,.55-1.38,2.42,2.42,0,0,1,1.69-.52A3.45,3.45,0,0,1,642.54,128.55Z"/><path d="M651.17,131.92a4.15,4.15,0,0,1,.66,2.5,4.92,4.92,0,0,1-.31,1.78,2.66,2.66,0,0,1-.89,1.19,2.21,2.21,0,0,1-1.35.42,2.11,2.11,0,0,1-1.72-.86l-.12.72h-1v-9.1l1.13-.14V132a2.17,2.17,0,0,1,1.83-1A2.07,2.07,0,0,1,651.17,131.92Zm-1,4.39a3.3,3.3,0,0,0,.43-1.89,3.48,3.48,0,0,0-.4-1.91,1.28,1.28,0,0,0-1.12-.58,1.85,1.85,0,0,0-1.51,1V136a1.93,1.93,0,0,0,.63.64,1.47,1.47,0,0,0,.8.24A1.36,1.36,0,0,0,650.18,136.31Z"/><path d="M657.22,131.11l-.21,1.1a2.34,2.34,0,0,0-.57-.07,1.22,1.22,0,0,0-1,.44,3.44,3.44,0,0,0-.58,1.38v3.71h-1.13v-6.49h1l.11,1.32a2.58,2.58,0,0,1,.7-1.1,1.58,1.58,0,0,1,1-.37A2.61,2.61,0,0,1,657.22,131.11Z"/><path d="M662.59,136.74a.82.82,0,0,0,.4.29l-.26.78a1.73,1.73,0,0,1-.81-.28,1.35,1.35,0,0,1-.45-.69,2.18,2.18,0,0,1-1.94,1,2,2,0,0,1-1.51-.54,1.88,1.88,0,0,1-.55-1.41,1.85,1.85,0,0,1,.74-1.59,3.49,3.49,0,0,1,2.11-.55h1v-.48a1.28,1.28,0,0,0-.33-1,1.51,1.51,0,0,0-1-.29,5.67,5.67,0,0,0-1.74.34l-.29-.83a6.67,6.67,0,0,1,2.24-.44,2.37,2.37,0,0,1,1.72.56,2.19,2.19,0,0,1,.56,1.6v3A1,1,0,0,0,662.59,136.74Zm-1.27-.78v-1.49h-.85c-1.2,0-1.8.44-1.8,1.33a1.22,1.22,0,0,0,.29.87,1.07,1.07,0,0,0,.83.3A1.7,1.7,0,0,0,661.32,136Z"/><path d="M667.61,131.22a3.45,3.45,0,0,1,1,.55l-.48.71a4.59,4.59,0,0,0-.84-.41,2.66,2.66,0,0,0-.85-.14,1.47,1.47,0,0,0-.87.23.71.71,0,0,0-.32.62.74.74,0,0,0,.3.62,3.66,3.66,0,0,0,1.09.43,4,4,0,0,1,1.62.73,1.62,1.62,0,0,1,.53,1.29,1.64,1.64,0,0,1-.74,1.46,3.14,3.14,0,0,1-1.82.5,3.63,3.63,0,0,1-2.45-.84l.61-.69a3,3,0,0,0,1.82.62,1.68,1.68,0,0,0,1-.26.85.85,0,0,0,.38-.72.91.91,0,0,0-.14-.54A1.09,1.09,0,0,0,667,135a6.44,6.44,0,0,0-1-.33,3.29,3.29,0,0,1-1.49-.73,1.62,1.62,0,0,1-.16-2.07,2,2,0,0,1,.84-.64,3,3,0,0,1,1.2-.23A3.42,3.42,0,0,1,667.61,131.22Z"/><path d="M674,137.44a1.45,1.45,0,0,1-.36-1.05v-7.82l1.13-.14v7.93a.72.72,0,0,0,.09.4.37.37,0,0,0,.31.12,1.32,1.32,0,0,0,.42-.07l.3.78a1.82,1.82,0,0,1-.9.22A1.3,1.3,0,0,1,674,137.44Z"/><path d="M678.41,128.29a.72.72,0,0,1,.22.55.74.74,0,0,1-.22.55.89.89,0,0,1-1.15,0,.74.74,0,0,1-.22-.55.72.72,0,0,1,.22-.55.83.83,0,0,1,1.15,0Zm0,2.89v6.49h-1.14v-6.49Z"/><path d="M685.47,131.92a4.15,4.15,0,0,1,.66,2.5,4.92,4.92,0,0,1-.31,1.78,2.66,2.66,0,0,1-.89,1.19,2.23,2.23,0,0,1-1.35.42,2.14,2.14,0,0,1-1.73-.86l-.11.72h-1v-9.1l1.13-.14V132a2.17,2.17,0,0,1,1.83-1A2.07,2.07,0,0,1,685.47,131.92Zm-1,4.39a3.3,3.3,0,0,0,.43-1.89,3.48,3.48,0,0,0-.4-1.91,1.28,1.28,0,0,0-1.12-.58,1.84,1.84,0,0,0-1.51,1V136a1.93,1.93,0,0,0,.63.64,1.47,1.47,0,0,0,.8.24A1.36,1.36,0,0,0,684.48,136.31Z"/><path d="M692.93,134.81H688.8a2.55,2.55,0,0,0,.54,1.58,1.58,1.58,0,0,0,1.21.5,2.67,2.67,0,0,0,.86-.13,3.83,3.83,0,0,0,.82-.43l.49.67a3.58,3.58,0,0,1-2.26.81,2.62,2.62,0,0,1-2.11-.88,3.6,3.6,0,0,1-.76-2.44,4.57,4.57,0,0,1,.33-1.79,2.84,2.84,0,0,1,.93-1.23,2.43,2.43,0,0,1,1.44-.44,2.39,2.39,0,0,1,2,.85,3.63,3.63,0,0,1,.69,2.35A5.78,5.78,0,0,1,692.93,134.81Zm-1.09-.91a2.45,2.45,0,0,0-.38-1.47,1.37,1.37,0,0,0-1.15-.5c-.93,0-1.43.68-1.51,2h3Z"/><path d="M698.23,131.11l-.21,1.1a2.34,2.34,0,0,0-.57-.07,1.22,1.22,0,0,0-1,.44,3.3,3.3,0,0,0-.58,1.38v3.71h-1.13v-6.49h1l.11,1.32a2.49,2.49,0,0,1,.7-1.1,1.56,1.56,0,0,1,1-.37A2.61,2.61,0,0,1,698.23,131.11Z"/><path d="M703.59,136.74a.9.9,0,0,0,.41.29l-.26.78a1.73,1.73,0,0,1-.81-.28,1.36,1.36,0,0,1-.46-.69,2.15,2.15,0,0,1-1.93,1,2,2,0,0,1-1.51-.54,1.88,1.88,0,0,1-.56-1.41,1.86,1.86,0,0,1,.75-1.59,3.47,3.47,0,0,1,2.11-.55h1v-.48a1.25,1.25,0,0,0-.34-1,1.48,1.48,0,0,0-1-.29,5.73,5.73,0,0,0-1.75.34l-.28-.83a6.67,6.67,0,0,1,2.24-.44,2.35,2.35,0,0,1,1.71.56,2.16,2.16,0,0,1,.57,1.6v3A1,1,0,0,0,703.59,136.74Zm-1.26-.78v-1.49h-.85c-1.2,0-1.8.44-1.8,1.33a1.21,1.21,0,0,0,.28.87,1.1,1.1,0,0,0,.84.3A1.7,1.7,0,0,0,702.33,136Z"/><path d="M710.81,128.57v9.1h-1l-.11-.9a2.35,2.35,0,0,1-.8.77,2.15,2.15,0,0,1-1.07.27,2.07,2.07,0,0,1-1.8-.91,4.14,4.14,0,0,1-.65-2.45,4.69,4.69,0,0,1,.31-1.77,2.71,2.71,0,0,1,.88-1.21,2.21,2.21,0,0,1,1.36-.44,2.35,2.35,0,0,1,1.75.8v-3.4ZM709,136.68a2.72,2.72,0,0,0,.72-.72v-3.18a2.5,2.5,0,0,0-.69-.63,1.5,1.5,0,0,0-.82-.22,1.31,1.31,0,0,0-1.16.63,3.48,3.48,0,0,0-.41,1.87,3.66,3.66,0,0,0,.38,1.87,1.22,1.22,0,0,0,1.1.62A1.57,1.57,0,0,0,709,136.68Z"/><path d="M717.65,136.74a.85.85,0,0,0,.41.29l-.26.78a1.65,1.65,0,0,1-.81-.28,1.3,1.3,0,0,1-.46-.69,2.16,2.16,0,0,1-1.93,1,2,2,0,0,1-1.51-.54,1.88,1.88,0,0,1-.56-1.41,1.86,1.86,0,0,1,.75-1.59,3.47,3.47,0,0,1,2.11-.55h1v-.48a1.29,1.29,0,0,0-.34-1,1.48,1.48,0,0,0-1-.29,5.73,5.73,0,0,0-1.75.34l-.28-.83a6.63,6.63,0,0,1,2.24-.44,2.36,2.36,0,0,1,1.71.56,2.16,2.16,0,0,1,.57,1.6v3A1,1,0,0,0,717.65,136.74Zm-1.26-.78v-1.49h-.85c-1.2,0-1.8.44-1.8,1.33a1.21,1.21,0,0,0,.28.87,1.1,1.1,0,0,0,.84.3A1.7,1.7,0,0,0,716.39,136Z"/><path d="M722.68,131.22a3.45,3.45,0,0,1,1,.55l-.48.71a4.36,4.36,0,0,0-.85-.41,2.55,2.55,0,0,0-.84-.14,1.47,1.47,0,0,0-.87.23.71.71,0,0,0-.33.62.74.74,0,0,0,.31.62,3.66,3.66,0,0,0,1.09.43,3.84,3.84,0,0,1,1.61.73,1.63,1.63,0,0,1,.54,1.29,1.67,1.67,0,0,1-.74,1.46,3.16,3.16,0,0,1-1.82.5,3.61,3.61,0,0,1-2.45-.84l.6-.69a3,3,0,0,0,1.83.62,1.7,1.7,0,0,0,1-.26.85.85,0,0,0,.38-.72,1,1,0,0,0-.14-.54,1.13,1.13,0,0,0-.47-.35,5.9,5.9,0,0,0-1-.33,3.18,3.18,0,0,1-1.49-.73,1.61,1.61,0,0,1-.17-2.07,2.09,2.09,0,0,1,.84-.64,3.09,3.09,0,0,1,1.2-.23A3.47,3.47,0,0,1,722.68,131.22Z"/><path d="M602.24,149.21a3.7,3.7,0,0,1,1,.55l-.48.72a4.11,4.11,0,0,0-.84-.42,2.66,2.66,0,0,0-.85-.14,1.47,1.47,0,0,0-.87.23.71.71,0,0,0-.32.62.72.72,0,0,0,.3.62,3.4,3.4,0,0,0,1.09.43,4,4,0,0,1,1.62.74,1.81,1.81,0,0,1-.21,2.74,3.14,3.14,0,0,1-1.82.51,3.63,3.63,0,0,1-2.45-.85l.61-.69a2.92,2.92,0,0,0,1.82.63,1.7,1.7,0,0,0,1-.27.82.82,0,0,0,.38-.72.92.92,0,0,0-.14-.53,1,1,0,0,0-.46-.36,7.79,7.79,0,0,0-1-.33,3.33,3.33,0,0,1-1.49-.72,1.56,1.56,0,0,1-.46-1.16,1.53,1.53,0,0,1,.3-.92,2,2,0,0,1,.83-.64A3.09,3.09,0,0,1,601,149,3.68,3.68,0,0,1,602.24,149.21Z"/><path d="M609.91,152.8h-4.14a2.55,2.55,0,0,0,.54,1.58,1.59,1.59,0,0,0,1.21.51,2.63,2.63,0,0,0,.86-.14,3.48,3.48,0,0,0,.83-.43l.49.68a3.61,3.61,0,0,1-2.27.81,2.64,2.64,0,0,1-2.11-.89,3.65,3.65,0,0,1-.75-2.44,4.57,4.57,0,0,1,.32-1.79,2.77,2.77,0,0,1,.94-1.22,2.32,2.32,0,0,1,1.43-.45,2.42,2.42,0,0,1,2,.85,3.65,3.65,0,0,1,.69,2.36C609.93,152.41,609.92,152.61,609.91,152.8Zm-1.1-.91a2.33,2.33,0,0,0-.38-1.46,1.32,1.32,0,0,0-1.14-.51c-.93,0-1.44.68-1.52,2.05h3Z"/><path d="M612.85,155.27a3.82,3.82,0,0,1-.22,1.44,2.14,2.14,0,0,1-.65.88,5.88,5.88,0,0,1-1.19.68l-.33-.82a3.59,3.59,0,0,0,.74-.44,1.42,1.42,0,0,0,.39-.6,3.75,3.75,0,0,0,.13-1.07v-6.17h1.13Zm0-9a.74.74,0,0,1,.22.55.71.71,0,0,1-.22.55.82.82,0,0,1-.58.22.79.79,0,0,1-.56-.22.71.71,0,0,1-.22-.55.75.75,0,0,1,.78-.77A.78.78,0,0,1,612.86,146.28Z"/><path d="M619.69,154.73a.9.9,0,0,0,.41.29l-.26.79a1.73,1.73,0,0,1-.81-.29,1.29,1.29,0,0,1-.46-.68,2.17,2.17,0,0,1-1.93,1,2.07,2.07,0,0,1-1.51-.54,1.91,1.91,0,0,1-.56-1.42,1.86,1.86,0,0,1,.75-1.59,3.49,3.49,0,0,1,2.11-.55h1v-.48a1.28,1.28,0,0,0-.33-1,1.58,1.58,0,0,0-1-.29,5.73,5.73,0,0,0-1.75.34l-.28-.82a6.46,6.46,0,0,1,2.24-.45,2.29,2.29,0,0,1,1.71.57,2.12,2.12,0,0,1,.57,1.59v3A1.11,1.11,0,0,0,619.69,154.73Zm-1.26-.78v-1.49h-.85c-1.2,0-1.8.44-1.8,1.33a1.18,1.18,0,0,0,.28.87,1.1,1.1,0,0,0,.84.3A1.7,1.7,0,0,0,618.43,154Z"/><path d="M629.68,149.56a2.1,2.1,0,0,1,.48,1.45v4.65H629v-4.49c0-.84-.31-1.26-.91-1.26a1.22,1.22,0,0,0-.82.28,3.59,3.59,0,0,0-.71.87v4.6h-1.13v-4.49c0-.84-.31-1.26-.91-1.26a1.28,1.28,0,0,0-.83.28,4,4,0,0,0-.7.87v4.6h-1.13v-6.49h1l.1,1a2.18,2.18,0,0,1,1.87-1.1,1.77,1.77,0,0,1,1,.31,1.81,1.81,0,0,1,.61.86,3,3,0,0,1,.84-.86,2,2,0,0,1,1.09-.31A1.63,1.63,0,0,1,629.68,149.56Z"/><path d="M643.49,149.56A2.1,2.1,0,0,1,644,151v4.65h-1.13v-4.49c0-.84-.3-1.26-.91-1.26a1.19,1.19,0,0,0-.81.28,3.59,3.59,0,0,0-.72.87v4.6h-1.13v-4.49c0-.84-.3-1.26-.91-1.26a1.3,1.3,0,0,0-.83.28,4,4,0,0,0-.7.87v4.6H635.7v-6.49h1l.1,1a2.18,2.18,0,0,1,1.87-1.1,1.64,1.64,0,0,1,1.64,1.17,3,3,0,0,1,.84-.86,2,2,0,0,1,1.09-.31A1.63,1.63,0,0,1,643.49,149.56Z"/><path d="M650.75,154.73a.9.9,0,0,0,.41.29l-.26.79a1.73,1.73,0,0,1-.81-.29,1.29,1.29,0,0,1-.46-.68,2.17,2.17,0,0,1-1.93,1,2.07,2.07,0,0,1-1.51-.54,1.91,1.91,0,0,1-.56-1.42,1.86,1.86,0,0,1,.75-1.59,3.47,3.47,0,0,1,2.11-.55h1v-.48a1.25,1.25,0,0,0-.34-1,1.53,1.53,0,0,0-1-.29,5.73,5.73,0,0,0-1.75.34l-.28-.82a6.46,6.46,0,0,1,2.24-.45,2.29,2.29,0,0,1,1.71.57,2.12,2.12,0,0,1,.57,1.59v3A1,1,0,0,0,650.75,154.73Zm-1.26-.78v-1.49h-.85c-1.2,0-1.8.44-1.8,1.33a1.18,1.18,0,0,0,.28.87,1.1,1.1,0,0,0,.84.3A1.7,1.7,0,0,0,649.49,154Z"/><path d="M654.08,146.28a.74.74,0,0,1,.22.55.71.71,0,0,1-.22.55.86.86,0,0,1-1.15,0,.75.75,0,0,1-.22-.55.78.78,0,0,1,.22-.55.86.86,0,0,1,1.15,0Zm0,2.89v6.49H653v-6.49Z"/><path d="M659.37,149.21a3.56,3.56,0,0,1,1,.55l-.48.72a3.66,3.66,0,0,0-.84-.42,2.64,2.64,0,0,0-.84-.14,1.51,1.51,0,0,0-.88.23.78.78,0,0,0,0,1.24,3.51,3.51,0,0,0,1.09.43,4,4,0,0,1,1.62.74,1.6,1.6,0,0,1,.54,1.28,1.64,1.64,0,0,1-.75,1.46,3.11,3.11,0,0,1-1.81.51,3.6,3.6,0,0,1-2.45-.85l.6-.69a2.94,2.94,0,0,0,1.82.63,1.71,1.71,0,0,0,1-.27.82.82,0,0,0,.37-.72.93.93,0,0,0-.13-.53,1.07,1.07,0,0,0-.47-.36,7.54,7.54,0,0,0-1-.33,3.38,3.38,0,0,1-1.5-.72,1.56,1.56,0,0,1-.46-1.16,1.53,1.53,0,0,1,.3-.92,2,2,0,0,1,.84-.64,3.06,3.06,0,0,1,1.2-.23A3.67,3.67,0,0,1,659.37,149.21Z"/><path d="M665.73,155.43a1.45,1.45,0,0,1-.36-1.05v-7.82l1.13-.13v7.93a.66.66,0,0,0,.09.39.38.38,0,0,0,.32.12,1.16,1.16,0,0,0,.42-.07l.29.79a1.93,1.93,0,0,1-.9.22A1.31,1.31,0,0,1,665.73,155.43Z"/><path d="M673.54,149.94a3.76,3.76,0,0,1,.75,2.47,4.32,4.32,0,0,1-.34,1.78,2.67,2.67,0,0,1-1,1.19,2.71,2.71,0,0,1-1.55.43,2.65,2.65,0,0,1-2.13-.91,3.73,3.73,0,0,1-.76-2.48,4.35,4.35,0,0,1,.34-1.78,2.67,2.67,0,0,1,1-1.19,2.82,2.82,0,0,1,1.56-.43A2.63,2.63,0,0,1,673.54,149.94Zm-3.81,2.48c0,1.65.55,2.48,1.67,2.48s1.67-.83,1.67-2.49-.55-2.47-1.66-2.47S669.73,150.76,669.73,152.42Z"/><path d="M680.6,149.55a2,2,0,0,1,.5,1.46v4.65H680v-4.49a1.48,1.48,0,0,0-.26-1,1,1,0,0,0-.76-.28,1.44,1.44,0,0,0-.91.3,2.87,2.87,0,0,0-.74.85v4.6h-1.13v-6.49h1l.1,1a2.63,2.63,0,0,1,.85-.81,2.2,2.2,0,0,1,1.13-.3A1.81,1.81,0,0,1,680.6,149.55Z"/><path d="M688.61,149.47a4,4,0,0,1-.81.16c-.3,0-.66,0-1.08,0a1.71,1.71,0,0,1,1.14,1.63,2,2,0,0,1-.67,1.59,2.54,2.54,0,0,1-1.8.62,2.49,2.49,0,0,1-.83-.13.67.67,0,0,0-.23.27.69.69,0,0,0-.09.34c0,.35.28.53.85.53h1a2.67,2.67,0,0,1,1.16.23,1.85,1.85,0,0,1,.78.64,1.56,1.56,0,0,1,.28.92,1.66,1.66,0,0,1-.77,1.46,4.17,4.17,0,0,1-2.27.51,5.28,5.28,0,0,1-1.66-.21,1.59,1.59,0,0,1-.86-.65,2.07,2.07,0,0,1-.26-1.11h1a1.09,1.09,0,0,0,.15.62.89.89,0,0,0,.53.35,3.73,3.73,0,0,0,1.08.12,3.06,3.06,0,0,0,1.46-.26.8.8,0,0,0,.43-.75.76.76,0,0,0-.34-.69,1.66,1.66,0,0,0-1-.24h-1a1.88,1.88,0,0,1-1.25-.35,1.09,1.09,0,0,1-.43-.88,1.15,1.15,0,0,1,.19-.61,1.67,1.67,0,0,1,.53-.53,1.89,1.89,0,0,1-1.1-1.8,2.13,2.13,0,0,1,.33-1.17,2.35,2.35,0,0,1,.9-.81,2.79,2.79,0,0,1,1.27-.29,9.58,9.58,0,0,0,1.28-.05,4.65,4.65,0,0,0,.86-.19c.22-.07.5-.19.83-.33Zm-4.29.77a1.53,1.53,0,0,0-.35,1,1.51,1.51,0,0,0,.36,1.06,1.48,1.48,0,0,0,2,0,1.54,1.54,0,0,0,.35-1.09c0-1-.46-1.44-1.39-1.44A1.24,1.24,0,0,0,684.32,150.24Z"/><path d="M694.05,154.73a.85.85,0,0,0,.41.29l-.26.79a1.65,1.65,0,0,1-.81-.29,1.23,1.23,0,0,1-.46-.68,2.19,2.19,0,0,1-1.93,1,2.07,2.07,0,0,1-1.51-.54,1.91,1.91,0,0,1-.56-1.42,1.86,1.86,0,0,1,.75-1.59,3.47,3.47,0,0,1,2.11-.55h1v-.48a1.28,1.28,0,0,0-.33-1,1.53,1.53,0,0,0-1-.29,5.68,5.68,0,0,0-1.75.34l-.28-.82a6.42,6.42,0,0,1,2.24-.45,2.32,2.32,0,0,1,1.71.57,2.12,2.12,0,0,1,.57,1.59v3A1,1,0,0,0,694.05,154.73Zm-1.27-.78v-1.49h-.84c-1.2,0-1.8.44-1.8,1.33a1.18,1.18,0,0,0,.28.87,1.1,1.1,0,0,0,.84.3A1.68,1.68,0,0,0,692.78,154Z"/><path d="M699.08,149.21a3.7,3.7,0,0,1,1,.55l-.48.72a3.93,3.93,0,0,0-.85-.42,2.64,2.64,0,0,0-.84-.14,1.53,1.53,0,0,0-.88.23.73.73,0,0,0-.32.62.71.71,0,0,0,.31.62,3.4,3.4,0,0,0,1.09.43,3.84,3.84,0,0,1,1.61.74,1.6,1.6,0,0,1,.54,1.28,1.64,1.64,0,0,1-.75,1.46,3.11,3.11,0,0,1-1.81.51,3.61,3.61,0,0,1-2.45-.85l.6-.69a2.94,2.94,0,0,0,1.83.63,1.7,1.7,0,0,0,1-.27.82.82,0,0,0,.38-.72.92.92,0,0,0-.14-.53,1.07,1.07,0,0,0-.47-.36,7,7,0,0,0-1-.33A3.38,3.38,0,0,1,696,152a1.6,1.6,0,0,1-.46-1.16,1.53,1.53,0,0,1,.3-.92,2,2,0,0,1,.84-.64,3.09,3.09,0,0,1,1.2-.23A3.77,3.77,0,0,1,699.08,149.21Z"/></g><g id="roxo" data-name="roxo"><rect x="25.44" y="40.54" width="687.84" height="2" style="fill:#6827ab"/></g><rect x="154.72" y="9.08" width="121.23" height="64.93" rx="11.36" style="fill:#d5cdf7"/><text transform="translate(184.98 35.76)" style="font-size:15.303359985351562px;font-family:FiraSans-Regular, Fira Sans"><tspan style="letter-spacing:-0.055007323607741784em">P</tspan><tspan x="8.05" y="0">artida e </tspan><tspan x="-13.65" y="21.25">des</tspan><tspan x="10.99" y="21.25" style="letter-spacing:-0.01997365694805473em">c</tspan><tspan x="18" y="21.25">orti</tspan><tspan x="42.68" y="21.25" style="letter-spacing:-0.010018735274263875em">c</tspan><tspan x="49.84" y="21.25">ada</tspan></text><rect x="7.2" y="9.08" width="121.23" height="64.93" rx="11.36" style="fill:#d5cdf7"/><text transform="translate(36.69 47.08)" style="font-size:15.303359985351562px;font-family:FiraSans-Regular, Fira Sans">Madei<tspan x="42.04" y="0" style="letter-spacing:-0.03496985305921404em">r</tspan><tspan x="47.41" y="0">a</tspan></text><rect x="303.88" y="9.08" width="121.23" height="64.93" rx="11.36" style="fill:#d5cdf7"/><text transform="translate(343.17 35.41)" style="font-size:15.303359985351562px;font-family:FiraSans-Regular, Fira Sans">Moda <tspan x="-8.04" y="21.25">em </tspan><tspan x="17.47" y="21.25" style="letter-spacing:-0.010018735274263875em">g</tspan><tspan x="33.45" y="21.25">ua</tspan></text><rect x="453.03" y="9.08" width="121.23" height="64.93" rx="11.36" style="fill:#d5cdf7"/><text transform="translate(469.74 36.95)" style="font-size:15.303359985351562px;font-family:FiraSans-Regular, Fira Sans"><tspan style="letter-spacing:-0.01997365694805473em">C</tspan><tspan x="8.26" y="0">on</tspan><tspan x="26.17" y="0" style="letter-spacing:-0.01997365694805473em">c</tspan><tspan x="33.18" y="0">ent</tspan><tspan x="56.01" y="0" style="letter-spacing:-0.03503366665968705em">r</tspan><tspan x="61.38" y="0">ado </tspan><tspan x="-3.23" y="21.25">espe</tspan><tspan x="29.69" y="21.25" style="letter-spacing:-0.010018735274263875em">ss</tspan><tspan x="43.67" y="21.25">ado</tspan><tspan x="70.09" y="21.25" style="letter-spacing:-0.029992392222318608em">r</tspan><tspan x="75.54" y="21.25">es</tspan></text><rect x="598.17" y="9.08" width="121.23" height="64.93" rx="11.36" style="fill:#d5cdf7"/><text transform="translate(639.22 35.06)" style="font-size:15.303359985351562px;font-family:FiraSans-Regular, Fira Sans"><tspan style="letter-spacing:-0.029992392222318608em">P</tspan><tspan x="8.43" y="0">ol</tspan><tspan x="21.85" y="0" style="letter-spacing:-0.010018735274263875em">p</tspan><tspan x="30.79" y="0">a </tspan><tspan x="-13.3" y="21.25">me</tspan><tspan x="8.16" y="21.25" style="letter-spacing:-0.010018735274263875em">c</tspan><tspan x="15.32" y="21.25">ni</tspan><tspan x="36.93" y="21.25" style="letter-spacing:-0.009954921673790857em">c</tspan><tspan x="44.09" y="21.25">a</tspan></text></g></svg>