<svg xmlns="http://www.w3.org/2000/svg" viewBox="0 0 730 341.26"><title>fig-9-3</title><g id="fig-9-3"><g id="preto"><path d="M26.17,61.6a2.1,2.1,0,0,1,.85.79,2.06,2.06,0,0,1,.31,1.13A3.05,3.05,0,0,1,27,64.93a6.7,6.7,0,0,1-1,1.45c-.45.53-1.15,1.25-2.09,2.18h3.64l-.13.93H22.62v-.88c1.08-1.11,1.84-1.93,2.29-2.45a7.51,7.51,0,0,0,1-1.35,2.79,2.79,0,0,0,.29-1.24,1.3,1.3,0,0,0-.37-1,1.33,1.33,0,0,0-1-.35,1.86,1.86,0,0,0-.87.2,3.11,3.11,0,0,0-.8.68l-.72-.58a3.26,3.26,0,0,1,1.1-.92,3,3,0,0,1,1.35-.3A2.7,2.7,0,0,1,26.17,61.6Z" style="fill:#020200"/><path d="M36.69,61.24a3.76,3.76,0,0,1,1,.63l-.62.73A2.53,2.53,0,0,0,35.5,62a2,2,0,0,0-1.67.79,5.4,5.4,0,0,0,0,5.08,2,2,0,0,0,1.67.81,2.27,2.27,0,0,0,.93-.18,5.13,5.13,0,0,0,.84-.5l.57.72a3.29,3.29,0,0,1-1,.66,3.29,3.29,0,0,1-4.42-1.7,6.22,6.22,0,0,1,0-4.67,3.4,3.4,0,0,1,1.25-1.46,3.19,3.19,0,0,1,1.75-.49A3.56,3.56,0,0,1,36.69,61.24Z" style="fill:#020200"/><path d="M42.33,69a1.67,1.67,0,0,1,.63.68,2.34,2.34,0,0,1,.24,1.11A2.54,2.54,0,0,1,42.93,72,1.94,1.94,0,0,1,41.18,73a1.76,1.76,0,0,1-1.62-.82A4.15,4.15,0,0,1,39,69.94a5.3,5.3,0,0,1,.29-1.82,2.78,2.78,0,0,1,.83-1.21,2,2,0,0,1,1.28-.43,2.32,2.32,0,0,1,1.31.39l-.34.57a1.83,1.83,0,0,0-1-.27,1.23,1.23,0,0,0-1.08.65,3.61,3.61,0,0,0-.43,1.75,1.82,1.82,0,0,1,2.41-.6ZM42,71.91a1.86,1.86,0,0,0,.3-1.12c0-.91-.34-1.36-1-1.36a1.42,1.42,0,0,0-.77.23,2,2,0,0,0-.59.64,3.25,3.25,0,0,0,.32,1.54,1,1,0,0,0,.93.49A1,1,0,0,0,42,71.91Z" style="fill:#020200"/><path d="M49.87,69.49V65.6h-3.5v3.89H45.22v-8.3h1.15v3.47h3.5V61.19H51v8.3Z" style="fill:#020200"/><path d="M56.88,67.26H54.4v1.86a2.26,2.26,0,0,1,1-.25,1.7,1.7,0,0,1,1.31.54A2.4,2.4,0,0,1,56.94,72a1.88,1.88,0,0,1-.77.76A2.35,2.35,0,0,1,55,73a2.64,2.64,0,0,1-1-.2,3,3,0,0,1-.84-.6l.51-.51a1.84,1.84,0,0,0,.63.45,1.7,1.7,0,0,0,.73.15,1.23,1.23,0,0,0,1-.38,1.53,1.53,0,0,0,.35-1.07,1.41,1.41,0,0,0-.31-1,1.14,1.14,0,0,0-.85-.31,1.59,1.59,0,0,0-.45,0,2.45,2.45,0,0,0-.45.16h-.68V66.57H57Z" style="fill:#020200"/><path d="M64.39,61.55A3.24,3.24,0,0,1,65.62,63a5.49,5.49,0,0,1,.44,2.34,5.41,5.41,0,0,1-.44,2.31,3.22,3.22,0,0,1-3.07,2,3.38,3.38,0,0,1-1.84-.5,3.21,3.21,0,0,1-1.23-1.45,6.34,6.34,0,0,1,0-4.64,3.32,3.32,0,0,1,1.23-1.49,3.37,3.37,0,0,1,1.84-.51A3.32,3.32,0,0,1,64.39,61.55Zm-3.53,1.26a4.31,4.31,0,0,0-.61,2.55,4.26,4.26,0,0,0,.61,2.53,2,2,0,0,0,1.69.81c1.53,0,2.29-1.12,2.29-3.35S64.08,62,62.55,62A2,2,0,0,0,60.86,62.81Z" style="fill:#020200"/><path d="M72.4,69.49V65.6H68.9v3.89H67.75v-8.3H68.9v3.47h3.5V61.19h1.15v8.3Z" style="fill:#020200"/><rect x="82.51" y="67.5" width="50.31" height="0.5" style="fill:#020200"/><polygon points="128.22 65.46 134.26 67.75 128.22 70.05 129.37 67.75 128.22 65.46 128.22 65.46" style="fill:#010000;fill-rule:evenodd"/><path d="M150.11,61.87a2.24,2.24,0,0,1,.85.79,2.17,2.17,0,0,1,.3,1.13,3.17,3.17,0,0,1-.33,1.41,6.73,6.73,0,0,1-1,1.46c-.46.52-1.16,1.25-2.09,2.18h3.63l-.13.93h-4.77v-.88c1.08-1.12,1.84-1.94,2.29-2.46a6.36,6.36,0,0,0,1-1.35,2.79,2.79,0,0,0,.29-1.24,1.3,1.3,0,0,0-.36-1,1.32,1.32,0,0,0-1-.36,1.75,1.75,0,0,0-.87.21,3,3,0,0,0-.79.67l-.73-.58a3.32,3.32,0,0,1,1.1-.91,3,3,0,0,1,1.35-.3A2.74,2.74,0,0,1,150.11,61.87Z" style="fill:#020200"/><path d="M160.62,61.51a3.8,3.8,0,0,1,1,.63l-.63.73a2.51,2.51,0,0,0-1.61-.61,2,2,0,0,0-1.67.8,4.12,4.12,0,0,0-.63,2.55,4.1,4.1,0,0,0,.63,2.52,2,2,0,0,0,1.66.82,2.2,2.2,0,0,0,.93-.18,4.66,4.66,0,0,0,.85-.51l.56.72a2.92,2.92,0,0,1-1,.67,3.5,3.5,0,0,1-1.38.26,3.35,3.35,0,0,1-1.81-.5,3.21,3.21,0,0,1-1.23-1.47,5.51,5.51,0,0,1-.44-2.33,5.32,5.32,0,0,1,.46-2.33,3.36,3.36,0,0,1,1.24-1.47,3.21,3.21,0,0,1,1.75-.49A3.56,3.56,0,0,1,160.62,61.51Z" style="fill:#020200"/><path d="M167.23,69.24a1.67,1.67,0,0,1,.63.68A2.39,2.39,0,0,1,168.1,71a2.54,2.54,0,0,1-.27,1.19,2,2,0,0,1-.73.79,1.91,1.91,0,0,1-1,.28,1.76,1.76,0,0,1-1.62-.82,4.15,4.15,0,0,1-.52-2.26,5.3,5.3,0,0,1,.29-1.82,2.7,2.7,0,0,1,.83-1.21,2,2,0,0,1,1.28-.43,2.32,2.32,0,0,1,1.31.39l-.34.58a1.78,1.78,0,0,0-1-.28,1.22,1.22,0,0,0-1.08.66,3.58,3.58,0,0,0-.43,1.75,1.81,1.81,0,0,1,2.41-.61Zm-.31,3a1.91,1.91,0,0,0,.3-1.13c0-.9-.35-1.35-1-1.35a1.34,1.34,0,0,0-.77.23,1.92,1.92,0,0,0-.59.64,3.12,3.12,0,0,0,.32,1.53,1,1,0,0,0,.93.49A1,1,0,0,0,166.92,72.19Z" style="fill:#020200"/><path d="M174.75,69.77v-3.9h-3.5v3.9h-1.14V61.46h1.14v3.47h3.5V61.46h1.15v8.31Z" style="fill:#020200"/><path d="M181.78,67.53H179.3v1.86a2.25,2.25,0,0,1,1-.24,1.72,1.72,0,0,1,1.31.53,2.14,2.14,0,0,1,.49,1.47,2.19,2.19,0,0,1-.28,1.12,1.92,1.92,0,0,1-.77.75,2.38,2.38,0,0,1-1.15.27,2.48,2.48,0,0,1-1-.2,3,3,0,0,1-.84-.6l.51-.5a2.16,2.16,0,0,0,.63.45,1.86,1.86,0,0,0,.73.14,1.2,1.2,0,0,0,1-.38,1.51,1.51,0,0,0,.35-1.07,1.36,1.36,0,0,0-.32-1,1.12,1.12,0,0,0-.84-.31,2.24,2.24,0,0,0-.46.05,2.79,2.79,0,0,0-.44.17h-.68V66.85h3.43Z" style="fill:#020200"/><path d="M189.3,61.82a3.24,3.24,0,0,1,1.23,1.46,5.55,5.55,0,0,1,.44,2.34,5.41,5.41,0,0,1-.44,2.31,3.21,3.21,0,0,1-1.23,1.47,3.32,3.32,0,0,1-1.84.51,3.4,3.4,0,0,1-1.84-.49A3.24,3.24,0,0,1,184.39,68a6.34,6.34,0,0,1,0-4.64,3.28,3.28,0,0,1,1.24-1.49,3.31,3.31,0,0,1,1.83-.51A3.4,3.4,0,0,1,189.3,61.82Zm-3.53,1.26a4.36,4.36,0,0,0-.6,2.55,4.19,4.19,0,0,0,.61,2.53,2,2,0,0,0,1.68.81c1.53,0,2.29-1.12,2.29-3.35s-.76-3.36-2.29-3.36A2,2,0,0,0,185.77,63.08Z" style="fill:#020200"/><path d="M198.5,69.77H197l-3.38-7q.07.83.12,1.53c0,.47,0,1,0,1.71v3.81h-1.08V61.46h1.5l3.42,7.06c0-.2-.06-.57-.1-1.09s-.06-1-.06-1.44V61.46h1.08Z" style="fill:#020200"/><path d="M205.19,68.86a.84.84,0,0,0,.39.28l-.25.77a1.65,1.65,0,0,1-.8-.28,1.22,1.22,0,0,1-.44-.67,2.15,2.15,0,0,1-1.9,1,2,2,0,0,1-1.48-.53,2,2,0,0,1,.18-2.94A3.44,3.44,0,0,1,203,65.9h1v-.47a1.29,1.29,0,0,0-.32-1,1.52,1.52,0,0,0-1-.28,5.76,5.76,0,0,0-1.71.33l-.28-.8a6.41,6.41,0,0,1,2.2-.44,2.28,2.28,0,0,1,1.68.55,2.11,2.11,0,0,1,.55,1.56v2.9A1,1,0,0,0,205.19,68.86Zm-1.25-.77V66.63h-.83c-1.18,0-1.76.44-1.76,1.3a1.22,1.22,0,0,0,.27.86,1.11,1.11,0,0,0,.82.29A1.66,1.66,0,0,0,203.94,68.09Z" style="fill:#020200"/><rect x="220.51" y="66.64" width="50.31" height="0.5" style="fill:#020200"/><polygon points="267.08 64.6 273.12 66.89 267.08 69.19 268.24 66.89 267.08 64.6 267.08 64.6" style="fill:#020200;fill-rule:evenodd"/><path d="M333.78,36.59A3.24,3.24,0,0,1,335,38.05a5.49,5.49,0,0,1,.45,2.34A5.41,5.41,0,0,1,335,42.7a3.22,3.22,0,0,1-3.07,2,3.4,3.4,0,0,1-1.84-.5,3.21,3.21,0,0,1-1.23-1.45,6.34,6.34,0,0,1,0-4.64,3.22,3.22,0,0,1,3.07-2A3.3,3.3,0,0,1,333.78,36.59Zm-3.53,1.26a4.32,4.32,0,0,0-.6,2.55,4.19,4.19,0,0,0,.61,2.53,2,2,0,0,0,1.68.81c1.53,0,2.3-1.12,2.3-3.35s-.77-3.36-2.3-3.36A2,2,0,0,0,330.25,37.85Z" style="fill:#020200"/><path d="M343,44.53h-1.54l-3.38-7.05c.05.56.09,1.07.12,1.54s0,1,0,1.71v3.8h-1.08v-8.3h1.5l3.42,7.06c0-.21-.06-.57-.1-1.09s-.06-1-.06-1.44V36.23H343Z" style="fill:#020200"/><path d="M349.67,43.62a.82.82,0,0,0,.4.29l-.26.77a1.8,1.8,0,0,1-.8-.28,1.28,1.28,0,0,1-.44-.67,2.15,2.15,0,0,1-1.9,1,2,2,0,0,1-1.48-.53,1.88,1.88,0,0,1-.55-1.39,1.83,1.83,0,0,1,.73-1.55,3.46,3.46,0,0,1,2.08-.54h1V40.2a1.29,1.29,0,0,0-.32-1,1.5,1.5,0,0,0-1-.29,5.82,5.82,0,0,0-1.71.34l-.28-.81a6.39,6.39,0,0,1,2.2-.43,2.28,2.28,0,0,1,1.68.55,2.08,2.08,0,0,1,.55,1.56v2.9A1,1,0,0,0,349.67,43.62Zm-1.25-.76V41.4h-.83c-1.17,0-1.76.43-1.76,1.3a1.23,1.23,0,0,0,.27.86,1.12,1.12,0,0,0,.83.29A1.65,1.65,0,0,0,348.42,42.86Z" style="fill:#020200"/><path d="M292.08,37.78a3.37,3.37,0,0,1,1.23,1.46,5.65,5.65,0,0,1,.44,2.34,5.57,5.57,0,0,1-.44,2.31,3.45,3.45,0,0,1-1.23,1.47,3.36,3.36,0,0,1-1.85.51,3.4,3.4,0,0,1-1.84-.5,3.27,3.27,0,0,1-1.23-1.45,6.34,6.34,0,0,1,0-4.64,3.45,3.45,0,0,1,4.92-1.5ZM288.54,39a4.32,4.32,0,0,0-.6,2.55,4.19,4.19,0,0,0,.61,2.53,2,2,0,0,0,1.68.81c1.53,0,2.3-1.12,2.3-3.35s-.77-3.36-2.3-3.36A2,2,0,0,0,288.54,39Z" style="fill:#020200"/><path d="M355.77,80.11h-1.53l-3.38-7c.05.55.08,1.07.11,1.54s0,1,0,1.7v3.81h-1.07v-8.3h1.5l3.41,7.06c0-.21-.05-.58-.09-1.1s-.06-1-.06-1.43V71.81h1.07Z" style="fill:#020200"/><path d="M362.46,79.2a.8.8,0,0,0,.4.28l-.25.77a1.65,1.65,0,0,1-.8-.28,1.25,1.25,0,0,1-.45-.67,2.14,2.14,0,0,1-1.89,1,2.05,2.05,0,0,1-1.49-.53,1.84,1.84,0,0,1-.54-1.38,1.81,1.81,0,0,1,.73-1.56,3.44,3.44,0,0,1,2.07-.54h1v-.47a1.21,1.21,0,0,0-.33-1,1.44,1.44,0,0,0-1-.29,5.76,5.76,0,0,0-1.72.33l-.27-.8a6.41,6.41,0,0,1,2.19-.44,2.33,2.33,0,0,1,1.68.55,2.11,2.11,0,0,1,.56,1.56v2.91A1,1,0,0,0,362.46,79.2Zm-1.24-.77V77h-.84c-1.17,0-1.76.43-1.76,1.3a1.16,1.16,0,0,0,.28.85,1.09,1.09,0,0,0,.82.29A1.67,1.67,0,0,0,361.22,78.43Z" style="fill:#020200"/><path d="M369.39,72.16a3.4,3.4,0,0,1,1.23,1.47,6.36,6.36,0,0,1,0,4.65,3.19,3.19,0,0,1-3.08,2,3.4,3.4,0,0,1-1.84-.49,3.3,3.3,0,0,1-1.23-1.46,6.34,6.34,0,0,1,0-4.64,3.4,3.4,0,0,1,1.24-1.49,3.31,3.31,0,0,1,1.83-.51A3.44,3.44,0,0,1,369.39,72.16Zm-3.54,1.26a4.37,4.37,0,0,0-.6,2.56,4.15,4.15,0,0,0,.61,2.52,2,2,0,0,0,1.68.81c1.53,0,2.3-1.11,2.3-3.35s-.77-3.36-2.3-3.36A2,2,0,0,0,365.85,73.42Z" style="fill:#020200"/><polygon points="332.5 88.33 311.8 76.29 312.06 75.86 332.75 87.9 332.5 88.33" style="fill:#020200"/><rect x="320.01" y="75.63" width="0.5" height="19.82" transform="translate(88.18 322.23) rotate(-60.52)" style="fill:#020200"/><polygon points="312.05 123.9 311.81 123.47 332.38 111.78 332.38 88.12 332.88 88.12 332.88 112.07 312.05 123.9" style="fill:#020200"/><rect x="310.36" y="113.97" width="19.82" height="0.5" transform="translate(-14.76 172.32) rotate(-29.47)" style="fill:#020200"/><polygon points="311.81 123.9 290.98 112.07 290.98 87.97 311.8 75.86 312.06 76.29 291.48 88.26 291.48 111.78 312.05 123.47 311.81 123.9" style="fill:#020200"/><rect x="295.01" y="89.88" width="0.49" height="20.28" style="fill:#575756"/><polygon points="312.18 76.07 311.68 76.07 311.68 52.12 326.47 43.73 326.71 44.16 312.18 52.41 312.18 76.07" style="fill:#020200"/><polygon points="313.55 51.18 296.56 41.3 296.82 40.86 313.8 50.75 313.55 51.18" style="fill:#020200"/><rect x="303.77" y="41.59" width="0.5" height="17.53" transform="translate(106.57 286.94) rotate(-59.56)" style="fill:#020200"/><rect x="331.4" y="83.42" width="17.4" height="0.5" transform="translate(5.07 185.78) rotate(-30.77)" style="fill:#020200"/><rect x="568.37" y="68.94" width="50.31" height="0.5" style="fill:#020200"/><polygon points="614.55 66.89 620.59 69.19 614.55 71.48 615.7 69.19 614.55 66.89 614.55 66.89" style="fill:#020200;fill-rule:evenodd"/><rect x="390.99" y="67.79" width="65.55" height="0.5" style="fill:#020200"/><polygon points="451.71 65.75 457.75 68.04 451.71 70.33 452.86 68.04 451.71 65.75 451.71 65.75" style="fill:#020200;fill-rule:evenodd"/><polygon points="395.64 65.75 389.6 68.04 395.64 70.33 394.49 68.04 395.64 65.75 395.64 65.75" style="fill:#020200;fill-rule:evenodd"/><path d="M543.07,37.46a3.33,3.33,0,0,1,1.23,1.47,6.36,6.36,0,0,1,0,4.65,3.19,3.19,0,0,1-3.07,2,3.43,3.43,0,0,1-1.85-.49,3.37,3.37,0,0,1-1.23-1.46,6.34,6.34,0,0,1,0-4.64,3.38,3.38,0,0,1,1.24-1.48,3.25,3.25,0,0,1,1.84-.52A3.4,3.4,0,0,1,543.07,37.46Zm-3.53,1.26a4.29,4.29,0,0,0-.61,2.56,4.28,4.28,0,0,0,.61,2.53,2,2,0,0,0,1.69.8c1.53,0,2.29-1.11,2.29-3.35s-.76-3.36-2.29-3.36A2,2,0,0,0,539.54,38.72Z" style="fill:#020200"/><path d="M552.26,45.41h-1.53l-3.38-7c0,.55.08,1.07.11,1.54s0,1,0,1.7v3.81h-1.07v-8.3h1.5l3.41,7.06c0-.21-.05-.58-.09-1.1s-.06-1-.06-1.43V37.11h1.07Z" style="fill:#020200"/><path d="M559,44.5a.8.8,0,0,0,.4.28l-.25.77a1.76,1.76,0,0,1-.8-.27,1.32,1.32,0,0,1-.45-.68,2.14,2.14,0,0,1-1.89.95,2,2,0,0,1-1.49-.53,1.84,1.84,0,0,1-.54-1.38,1.81,1.81,0,0,1,.73-1.56,3.44,3.44,0,0,1,2.07-.54h1v-.47a1.21,1.21,0,0,0-.33-1,1.42,1.42,0,0,0-1-.29,5.65,5.65,0,0,0-1.71.33l-.28-.8a6.41,6.41,0,0,1,2.2-.44,2.32,2.32,0,0,1,1.67.55,2.11,2.11,0,0,1,.56,1.56v2.91A1,1,0,0,0,559,44.5Zm-1.24-.77V42.28h-.83c-1.18,0-1.77.43-1.77,1.3a1.21,1.21,0,0,0,.28.85,1.11,1.11,0,0,0,.82.29A1.66,1.66,0,0,0,557.71,43.73Z" style="fill:#020200"/><path d="M496.21,32a3.24,3.24,0,0,1,1.23,1.46,5.49,5.49,0,0,1,.44,2.34,5.41,5.41,0,0,1-.44,2.31,3.22,3.22,0,0,1-3.07,2,3.4,3.4,0,0,1-1.84-.5,3.21,3.21,0,0,1-1.23-1.45,6.34,6.34,0,0,1,0-4.64A3.28,3.28,0,0,1,492.54,32a3.59,3.59,0,0,1,3.67,0Zm-3.53,1.26a4.32,4.32,0,0,0-.6,2.55,4.19,4.19,0,0,0,.61,2.53,2,2,0,0,0,1.68.81c1.53,0,2.29-1.12,2.29-3.35s-.76-3.36-2.29-3.36A2,2,0,0,0,492.68,33.26Z" style="fill:#020200"/><path d="M480.34,72.86a3.32,3.32,0,0,1,1.24,1.46,5.68,5.68,0,0,1,.44,2.34,5.57,5.57,0,0,1-.44,2.31,3.24,3.24,0,0,1-3.08,2,3.4,3.4,0,0,1-1.84-.5A3.16,3.16,0,0,1,475.43,79a6.34,6.34,0,0,1,0-4.64,3.22,3.22,0,0,1,3.07-2A3.38,3.38,0,0,1,480.34,72.86Zm-3.53,1.26a4.34,4.34,0,0,0-.6,2.55,4.19,4.19,0,0,0,.61,2.53,2,2,0,0,0,1.68.81c1.53,0,2.3-1.12,2.3-3.35s-.77-3.36-2.3-3.36A2,2,0,0,0,476.81,74.12Z" style="fill:#020200"/><path d="M472.37,80.8V76.91h-3.5V80.8h-1.15V72.5h1.15V76h3.5V72.5h1.15v8.3Z" style="fill:#020200"/><rect x="529.31" y="76.49" width="0.5" height="19.82" transform="translate(193.73 504.87) rotate(-60.52)" style="fill:#020200"/><rect x="519.65" y="114.83" width="19.82" height="0.5" transform="translate(11.89 275.39) rotate(-29.47)" style="fill:#020200"/><polygon points="500.65 89.2 500.4 88.76 521.1 76.72 521.35 77.15 500.65 89.2" style="fill:#020200"/><polygon points="521.22 124.83 521.1 124.76 500.27 112.93 500.27 88.98 500.77 88.98 500.77 112.64 521.22 124.26 541.67 112.64 541.67 89.12 521.1 77.15 521.35 76.72 542.17 88.84 542.17 112.93 521.22 124.83" style="fill:#020200"/><rect x="504.3" y="90.99" width="0.5" height="19.79" style="fill:#020200"/><rect x="520.97" y="53.13" width="0.5" height="23.81" style="fill:#020200"/><polygon points="521.34 53.34 521.1 52.91 535.76 44.59 536.01 45.02 521.34 53.34" style="fill:#020200"/><polygon points="522.23 51.61 500.67 37.56 500.94 37.14 522.51 51.2 522.23 51.61" style="fill:#020200"/><rect x="510.05" y="36.68" width="0.5" height="23.43" transform="translate(188.74 447.58) rotate(-56.56)" style="fill:#020200"/><polygon points="500.42 89.21 482.88 81.18 483.09 80.72 500.63 88.75 500.42 89.21" style="fill:#020200"/><rect x="478.34" y="67.48" width="4.2" height="0.66" transform="translate(264.59 502.36) rotate(-71.62)"/><rect x="480.12" y="61.52" width="4.55" height="0.66" transform="translate(262.56 495.67) rotate(-70.43)"/><rect x="482.37" y="55.4" width="4.55" height="0.66" transform="translate(269.82 493.72) rotate(-70.43)"/><rect x="484.42" y="49.28" width="4.55" height="0.66" transform="translate(276.95 491.58) rotate(-70.43)"/><rect x="486.67" y="43.16" width="4.55" height="0.66" transform="translate(284.21 489.63) rotate(-70.43)"/><path d="M701.32,13.67a3.37,3.37,0,0,1,1.23,1.46,5.65,5.65,0,0,1,.44,2.34,5.57,5.57,0,0,1-.44,2.31,3.45,3.45,0,0,1-1.23,1.47,3.36,3.36,0,0,1-1.85.51,3.4,3.4,0,0,1-1.84-.5,3.34,3.34,0,0,1-1.23-1.45,5.66,5.66,0,0,1-.44-2.33,5.63,5.63,0,0,1,.44-2.31,3.41,3.41,0,0,1,1.24-1.49,3.31,3.31,0,0,1,1.83-.51A3.35,3.35,0,0,1,701.32,13.67Zm-3.54,1.26a4.32,4.32,0,0,0-.6,2.55,4.19,4.19,0,0,0,.61,2.53,2,2,0,0,0,1.68.81c1.53,0,2.3-1.12,2.3-3.35s-.77-3.36-2.3-3.36A2,2,0,0,0,697.78,14.93Z" style="fill:#020200"/><path d="M708.84,21.61V17.72h-3.5v3.89H704.2v-8.3h1.14v3.47h3.5V13.31H710v8.3Z" style="fill:#020200"/><path d="M655,8.2a3.27,3.27,0,0,1,1.23,1.47,5.48,5.48,0,0,1,.44,2.33,5.49,5.49,0,0,1-.44,2.32A3.32,3.32,0,0,1,655,15.79a3.67,3.67,0,0,1-3.68,0,3.24,3.24,0,0,1-1.23-1.46,5.46,5.46,0,0,1-.44-2.32,5.49,5.49,0,0,1,.44-2.32,3.24,3.24,0,0,1,3.07-2A3.4,3.4,0,0,1,655,8.2Zm-3.53,1.26a4.37,4.37,0,0,0-.6,2.56,4.29,4.29,0,0,0,.6,2.53,2,2,0,0,0,1.69.8c1.53,0,2.29-1.11,2.29-3.35s-.76-3.36-2.29-3.36A2,2,0,0,0,651.47,9.46Z" style="fill:#020200"/><path d="M642.53,50.65a3.24,3.24,0,0,1,1.23,1.46,5.49,5.49,0,0,1,.45,2.34,5.41,5.41,0,0,1-.45,2.31,3.19,3.19,0,0,1-3.07,2,3.4,3.4,0,0,1-1.84-.49,3.19,3.19,0,0,1-1.23-1.46,6.31,6.31,0,0,1,0-4.63,3.44,3.44,0,0,1,4.91-1.5ZM639,51.9a4.37,4.37,0,0,0-.6,2.56A4.19,4.19,0,0,0,639,57a2,2,0,0,0,1.68.81c1.53,0,2.3-1.12,2.3-3.35s-.77-3.36-2.3-3.36A2,2,0,0,0,639,51.9Z" style="fill:#020200"/><path d="M633.75,58.59V54.7h-3.5v3.89H629.1v-8.3h1.15v3.47h3.5V50.29h1.15v8.3Z" style="fill:#020200"/><rect x="687.43" y="51.54" width="0.5" height="19.82" transform="translate(295.76 629.84) rotate(-60.52)" style="fill:#020200"/><rect x="677.77" y="89.88" width="19.82" height="0.5" transform="translate(44.62 349.95) rotate(-29.47)" style="fill:#020200"/><polygon points="658.77 64.24 658.51 63.81 679.21 51.76 679.47 52.19 658.77 64.24" style="fill:#020200"/><polygon points="679.34 99.88 679.22 99.81 658.39 87.98 658.39 64.03 658.89 64.03 658.89 87.69 679.34 99.31 699.79 87.69 699.79 64.17 679.21 52.19 679.47 51.76 700.29 63.88 700.29 87.98 679.34 99.88" style="fill:#020200"/><rect x="662.42" y="66.03" width="0.5" height="19.79" style="fill:#020200"/><polygon points="679.59 51.98 679.09 51.98 679.09 28.03 693.88 19.64 694.13 20.07 679.59 28.32 679.59 51.98" style="fill:#020200"/><rect x="669.84" y="6.32" width="0.5" height="26.59" transform="translate(289.82 571.7) rotate(-57.12)" style="fill:#020200"/><rect x="668.63" y="11.47" width="0.5" height="24.53" transform="translate(281.14 569.28) rotate(-56.63)" style="fill:#020200"/><polygon points="658.52 64.24 647.02 57.65 647.26 57.21 658.76 63.81 658.52 64.24" style="fill:#020200"/><rect x="676.5" y="144.57" width="0.5" height="49.34" style="fill:#020200"/><polygon points="679.05 188.61 676.75 194.63 674.45 188.61 676.75 189.76 679.05 188.61 679.05 188.61" style="fill:#020200;fill-rule:evenodd"/><path d="M681,219.51a3.8,3.8,0,0,1,1,.63l-.63.73a2.51,2.51,0,0,0-1.61-.61,2,2,0,0,0-1.67.8,5.42,5.42,0,0,0,0,5.07,2,2,0,0,0,1.66.82,2.2,2.2,0,0,0,.93-.18,4.66,4.66,0,0,0,.85-.51l.56.72a2.92,2.92,0,0,1-1,.67,3.5,3.5,0,0,1-1.38.26,3.35,3.35,0,0,1-1.81-.5,3.21,3.21,0,0,1-1.23-1.47,5.51,5.51,0,0,1-.44-2.33,5.32,5.32,0,0,1,.46-2.33,3.36,3.36,0,0,1,1.24-1.47,3.21,3.21,0,0,1,1.75-.49A3.56,3.56,0,0,1,681,219.51Z" style="fill:#020200"/><path d="M702,207.77a3.27,3.27,0,0,1,1.23,1.47,6.36,6.36,0,0,1,0,4.65,3.32,3.32,0,0,1-1.23,1.47,3.67,3.67,0,0,1-3.68,0,3.32,3.32,0,0,1-1.24-1.46,6.34,6.34,0,0,1,0-4.64,3.46,3.46,0,0,1,1.24-1.49,3.32,3.32,0,0,1,1.84-.51A3.4,3.4,0,0,1,702,207.77ZM698.51,209a4.29,4.29,0,0,0-.61,2.56,4.23,4.23,0,0,0,.61,2.52,2,2,0,0,0,1.69.81c1.53,0,2.29-1.11,2.29-3.35s-.76-3.36-2.29-3.36A2,2,0,0,0,698.51,209Z" style="fill:#020200"/><path d="M640,255.68a3.24,3.24,0,0,1,1.23,1.46,5.55,5.55,0,0,1,.44,2.34,5.41,5.41,0,0,1-.44,2.31,3.21,3.21,0,0,1-1.23,1.47,3.32,3.32,0,0,1-1.84.51,3.4,3.4,0,0,1-1.84-.49,3.24,3.24,0,0,1-1.23-1.46,6.34,6.34,0,0,1,0-4.64,3.28,3.28,0,0,1,1.24-1.49,3.31,3.31,0,0,1,1.83-.51A3.4,3.4,0,0,1,640,255.68Zm-3.53,1.26a4.36,4.36,0,0,0-.6,2.55,4.19,4.19,0,0,0,.61,2.53,2,2,0,0,0,1.68.81c1.53,0,2.29-1.12,2.29-3.35s-.76-3.36-2.29-3.36A2,2,0,0,0,636.42,256.94Z" style="fill:#020200"/><path d="M631.17,263.63v-3.9h-3.5v3.9h-1.15v-8.31h1.15v3.47h3.5v-3.47h1.14v8.31Z" style="fill:#020200"/><rect x="688.29" y="246.81" width="0.5" height="19.81" transform="translate(126.25 729.82) rotate(-60.52)" style="fill:#020200"/><rect x="678.63" y="285.15" width="19.82" height="0.5" transform="translate(-51.33 375.63) rotate(-29.47)" style="fill:#020200"/><polygon points="659.63 259.52 659.38 259.09 680.08 247.04 680.33 247.47 659.63 259.52" style="fill:#020200"/><polygon points="680.2 295.15 680.08 295.09 659.25 283.25 659.25 259.3 659.75 259.3 659.75 282.96 680.2 294.58 700.65 282.96 700.65 259.44 680.08 247.47 680.33 247.04 701.15 259.16 701.15 283.25 680.2 295.15" style="fill:#020200"/><rect x="663.28" y="261.31" width="0.5" height="19.79" style="fill:#020200"/><rect x="679.95" y="229.76" width="0.5" height="17.5" style="fill:#020200"/><polygon points="685.5 223.09 685.25 222.66 694.74 217.21 694.99 217.64 685.5 223.09" style="fill:#020200"/><polygon points="685.5 218.5 685.25 218.07 694.74 212.33 694.99 212.76 685.5 218.5" style="fill:#020200"/><rect x="666.58" y="205.58" width="0.5" height="18.25" transform="translate(120.71 653.47) rotate(-56.63)" style="fill:#020200"/><rect x="644.55" y="259.05" width="14.95" height="0.5" style="fill:#020200"/><path d="M655.51,203.12a3.45,3.45,0,0,1,1.23,1.47,6.36,6.36,0,0,1,0,4.65,3.45,3.45,0,0,1-1.23,1.47,3.32,3.32,0,0,1-1.84.5,3.43,3.43,0,0,1-1.85-.49,3.31,3.31,0,0,1-1.23-1.46,5.62,5.62,0,0,1-.44-2.32,5.68,5.68,0,0,1,.44-2.32,3.38,3.38,0,0,1,1.24-1.48,3.33,3.33,0,0,1,1.84-.52A3.4,3.4,0,0,1,655.51,203.12ZM652,204.38a4.37,4.37,0,0,0-.6,2.56,4.19,4.19,0,0,0,.61,2.53,2,2,0,0,0,1.69.8c1.52,0,2.29-1.11,2.29-3.35s-.77-3.36-2.29-3.36A2,2,0,0,0,652,204.38Z" style="fill:#020200"/><path d="M617.73,211v-3.89h-3.5V211h-1.14v-8.3h1.14v3.47h3.5v-3.47h1.15V211Z" style="fill:#020200"/><path d="M628.67,202.73a3.48,3.48,0,0,1,1,.62l-.63.74a2.5,2.5,0,0,0-1.6-.62,2,2,0,0,0-1.67.8,4,4,0,0,0-.64,2.55,4.1,4.1,0,0,0,.63,2.52,2,2,0,0,0,1.67.82,2.27,2.27,0,0,0,.93-.18,5,5,0,0,0,.84-.51l.57.72a3.14,3.14,0,0,1-1,.67,3.55,3.55,0,0,1-1.39.26,3.26,3.26,0,0,1-1.81-.5,3.34,3.34,0,0,1-1.23-1.47,5.63,5.63,0,0,1-.44-2.33,5.5,5.5,0,0,1,.46-2.33,3.39,3.39,0,0,1,1.24-1.46,3.25,3.25,0,0,1,1.76-.5A3.58,3.58,0,0,1,628.67,202.73Z" style="fill:#020200"/><path d="M622.9,210.09a1.62,1.62,0,0,1,.65.59,1.58,1.58,0,0,1,.22.8,1.33,1.33,0,0,1-.34,1,1.68,1.68,0,0,1-.89.51,1.66,1.66,0,0,1,1,.45,1.46,1.46,0,0,1,.4,1.08,1.9,1.9,0,0,1-.27,1,1.76,1.76,0,0,1-.76.69,2.43,2.43,0,0,1-1.14.25,2.67,2.67,0,0,1-1.06-.21,2.25,2.25,0,0,1-.84-.64l.52-.48a2.23,2.23,0,0,0,.64.47,1.72,1.72,0,0,0,.72.15,1.3,1.3,0,0,0,.94-.33,1.26,1.26,0,0,0,.34-.91,1.06,1.06,0,0,0-.33-.88,1.45,1.45,0,0,0-.93-.25h-.48l.11-.67h.32a1.17,1.17,0,0,0,.82-.3,1,1,0,0,0,.33-.82.89.89,0,0,0-.29-.7,1.06,1.06,0,0,0-.77-.27,1.64,1.64,0,0,0-.67.14,2.32,2.32,0,0,0-.64.43l-.45-.52a2.59,2.59,0,0,1,1.81-.75A2.25,2.25,0,0,1,622.9,210.09Z" style="fill:#020200"/><rect x="632.05" y="206.91" width="14.87" height="0.5" style="fill:#020200"/></g><g id="roxo"><path d="M42.18,97.09,41.55,95H38.39l-.63,2.09H36.6l2.67-8.32h1.45l2.67,8.32ZM41,86.08l.48.93-2.61,1-.29-.59Zm-2.3,8h2.6L40,89.72Z" style="fill:#7a40c6"/><path d="M48,90.74a2.74,2.74,0,0,1,.91.53l-.53.7a2.72,2.72,0,0,0-.66-.36,2,2,0,0,0-.71-.12,1.37,1.37,0,0,0-1.2.62,3.16,3.16,0,0,0-.43,1.82,3,3,0,0,0,.42,1.78,1.4,1.4,0,0,0,1.21.58,1.92,1.92,0,0,0,.69-.12,3.6,3.6,0,0,0,.7-.36l.51.72a3,3,0,0,1-2,.7,2.55,2.55,0,0,1-2-.87,3.61,3.61,0,0,1-.74-2.4,4.28,4.28,0,0,1,.34-1.78,2.68,2.68,0,0,1,1-1.18,2.58,2.58,0,0,1,1.48-.42A3.11,3.11,0,0,1,48,90.74Z" style="fill:#7a40c6"/><path d="M51.5,87.88a.74.74,0,0,1,.22.55.69.69,0,0,1-.22.53.74.74,0,0,1-.57.22.72.72,0,0,1-.55-.22.69.69,0,0,1-.22-.53.74.74,0,0,1,.22-.55.75.75,0,0,1,.55-.21A.77.77,0,0,1,51.5,87.88Zm0,2.84v6.37H50.39V90.72Z" style="fill:#7a40c6"/><path d="M58.92,88.16v8.93h-1l-.11-.89A2.21,2.21,0,0,1,57,97a2.2,2.2,0,0,1-2.82-.62,4.12,4.12,0,0,1-.64-2.41,4.54,4.54,0,0,1,.31-1.74A2.65,2.65,0,0,1,54.76,91a2.12,2.12,0,0,1,1.33-.43,2.32,2.32,0,0,1,1.72.78V88Zm-1.82,8a2.6,2.6,0,0,0,.71-.7V92.29a2.44,2.44,0,0,0-.68-.62,1.52,1.52,0,0,0-.8-.21,1.28,1.28,0,0,0-1.14.61,3.39,3.39,0,0,0-.41,1.84,3.52,3.52,0,0,0,.38,1.83,1.18,1.18,0,0,0,1.07.61A1.53,1.53,0,0,0,57.1,96.11Z" style="fill:#7a40c6"/><path d="M65.6,91.47a3.68,3.68,0,0,1,.75,2.43A4.29,4.29,0,0,1,66,95.64a2.64,2.64,0,0,1-1,1.17,2.74,2.74,0,0,1-1.53.42,2.6,2.6,0,0,1-2.09-.89,3.68,3.68,0,0,1-.75-2.43A4.2,4.2,0,0,1,61,92.16,2.62,2.62,0,0,1,62,91a2.82,2.82,0,0,1,1.53-.41A2.54,2.54,0,0,1,65.6,91.47Zm-3.74,2.44c0,1.62.55,2.43,1.64,2.43s1.65-.82,1.65-2.44-.55-2.43-1.64-2.43S61.86,92.28,61.86,93.91Z" style="fill:#7a40c6"/><path d="M11.13,108.72a2.89,2.89,0,0,1,.91.52l-.53.7a2.66,2.66,0,0,0-.66-.35,2,2,0,0,0-.71-.12,1.39,1.39,0,0,0-1.2.62,3.16,3.16,0,0,0-.43,1.82,3,3,0,0,0,.42,1.78,1.41,1.41,0,0,0,1.21.58,1.92,1.92,0,0,0,.69-.12,3,3,0,0,0,.7-.37l.51.73a3,3,0,0,1-1.95.7,2.52,2.52,0,0,1-2-.87,3.56,3.56,0,0,1-.75-2.4,4.45,4.45,0,0,1,.34-1.78,2.76,2.76,0,0,1,1-1.18,2.6,2.6,0,0,1,1.48-.42A3.11,3.11,0,0,1,11.13,108.72Z" style="fill:#7a40c6"/><path d="M18,114.15a.82.82,0,0,0,.4.29l-.25.77a1.65,1.65,0,0,1-.8-.28,1.28,1.28,0,0,1-.45-.68,2.14,2.14,0,0,1-1.9,1,2.07,2.07,0,0,1-1.49-.53,1.88,1.88,0,0,1-.54-1.39,1.81,1.81,0,0,1,.73-1.56,3.46,3.46,0,0,1,2.08-.54h1v-.47a1.24,1.24,0,0,0-.33-1,1.49,1.49,0,0,0-1-.29,5.51,5.51,0,0,0-1.72.34l-.28-.81a6.39,6.39,0,0,1,2.2-.43,2.28,2.28,0,0,1,1.68.55,2.08,2.08,0,0,1,.56,1.56v2.91A1,1,0,0,0,18,114.15Zm-1.24-.76v-1.47H15.9c-1.18,0-1.77.44-1.77,1.31a1.23,1.23,0,0,0,.28.86,1.12,1.12,0,0,0,.83.29A1.68,1.68,0,0,0,16.74,113.39Z" style="fill:#7a40c6"/><path d="M23.44,108.63l-.21,1.08a2.77,2.77,0,0,0-.56-.07,1.18,1.18,0,0,0-1,.44,3.29,3.29,0,0,0-.57,1.35v3.63H20V108.7H21L21.1,110a2.43,2.43,0,0,1,.69-1.07,1.55,1.55,0,0,1,1-.36A2.59,2.59,0,0,1,23.44,108.63Z" style="fill:#7a40c6"/><path d="M29.35,109.43a4.06,4.06,0,0,1,.64,2.45,4.66,4.66,0,0,1-.3,1.74,2.62,2.62,0,0,1-.87,1.17,2.17,2.17,0,0,1-1.33.42,2.09,2.09,0,0,1-1.69-.85l-.11.7h-1v-8.92l1.11-.13v3.49a2.13,2.13,0,0,1,1.8-.94A2,2,0,0,1,29.35,109.43Zm-1,4.3a3.26,3.26,0,0,0,.42-1.85,3.4,3.4,0,0,0-.39-1.87,1.26,1.26,0,0,0-1.1-.57,1.8,1.8,0,0,0-1.49,1v3a2.07,2.07,0,0,0,.62.63,1.5,1.5,0,0,0,.78.23A1.33,1.33,0,0,0,28.38,113.73Z" style="fill:#7a40c6"/><path d="M36.28,109.45a3.69,3.69,0,0,1,.74,2.43,4.13,4.13,0,0,1-.34,1.74,2.62,2.62,0,0,1-1,1.17,2.68,2.68,0,0,1-1.52.42,2.59,2.59,0,0,1-2.09-.89,3.68,3.68,0,0,1-.75-2.43,4.2,4.2,0,0,1,.34-1.75,2.62,2.62,0,0,1,1-1.17,2.69,2.69,0,0,1,1.53-.41A2.56,2.56,0,0,1,36.28,109.45Zm-3.75,2.44q0,2.43,1.65,2.43c1.1,0,1.65-.82,1.65-2.44s-.55-2.43-1.64-2.43S32.53,110.26,32.53,111.89Zm2.61-6.5.49.93-2.56,1-.34-.59Z" style="fill:#7a40c6"/><path d="M39.06,114.84a1.4,1.4,0,0,1-.36-1v-7.67l1.12-.13v7.77a.66.66,0,0,0,.09.39.36.36,0,0,0,.31.12,1.07,1.07,0,0,0,.41-.07l.29.77a1.78,1.78,0,0,1-.89.22A1.27,1.27,0,0,1,39.06,114.84Z" style="fill:#7a40c6"/><path d="M43.6,105.86a.74.74,0,0,1,.22.55.69.69,0,0,1-.22.53.77.77,0,0,1-.57.21.75.75,0,0,1-.55-.21.69.69,0,0,1-.22-.53.74.74,0,0,1,.22-.55.75.75,0,0,1,.55-.21A.77.77,0,0,1,43.6,105.86Zm0,2.84v6.36H42.49V108.7Z" style="fill:#7a40c6"/><path d="M49.45,108.72a3,3,0,0,1,.9.52l-.53.7a2.49,2.49,0,0,0-.66-.35,2,2,0,0,0-.71-.12,1.39,1.39,0,0,0-1.2.62,3.16,3.16,0,0,0-.43,1.82,3,3,0,0,0,.42,1.78,1.41,1.41,0,0,0,1.21.58,1.92,1.92,0,0,0,.69-.12,3,3,0,0,0,.7-.37l.51.73a3,3,0,0,1-1.94.7,2.53,2.53,0,0,1-2-.87,3.56,3.56,0,0,1-.75-2.4,4.45,4.45,0,0,1,.34-1.78,2.76,2.76,0,0,1,1-1.18,2.61,2.61,0,0,1,1.49-.42A3.19,3.19,0,0,1,49.45,108.72Z" style="fill:#7a40c6"/><path d="M56.35,109.45a3.69,3.69,0,0,1,.74,2.43,4.13,4.13,0,0,1-.34,1.74,2.62,2.62,0,0,1-1,1.17,2.71,2.71,0,0,1-1.52.42,2.59,2.59,0,0,1-2.09-.89,3.68,3.68,0,0,1-.75-2.43,4.37,4.37,0,0,1,.33-1.75,2.58,2.58,0,0,1,2.52-1.58A2.56,2.56,0,0,1,56.35,109.45Zm-3.75,2.44q0,2.43,1.65,2.43c1.09,0,1.64-.82,1.64-2.44s-.54-2.43-1.63-2.43S52.6,110.26,52.6,111.89Z" style="fill:#7a40c6"/><path d="M64.41,105.34a17,17,0,0,0-1,1.66,7.52,7.52,0,0,0-.58,1.66,10,10,0,0,0-.21,2.18,9.88,9.88,0,0,0,.21,2.16,7.61,7.61,0,0,0,.58,1.67,14,14,0,0,0,1,1.66l-.7.49c-.54-.76-.94-1.38-1.23-1.87a7.68,7.68,0,0,1-.73-1.75,9.75,9.75,0,0,1,0-4.72,7.49,7.49,0,0,1,.73-1.75c.29-.49.69-1.11,1.23-1.87Z" style="fill:#7a40c6"/><path d="M66.1,115.06v-8.32h4.43l-.13.92H67.25v2.84H70v.9H67.25v3.66Z" style="fill:#7a40c6"/><path d="M76.87,112.26H72.8a2.48,2.48,0,0,0,.54,1.55,1.53,1.53,0,0,0,1.18.49,2.57,2.57,0,0,0,.85-.13,3.49,3.49,0,0,0,.81-.42l.48.66a3.52,3.52,0,0,1-2.22.8,2.6,2.6,0,0,1-2.08-.87,3.6,3.6,0,0,1-.74-2.39,4.6,4.6,0,0,1,.32-1.76,2.73,2.73,0,0,1,.92-1.2,2.33,2.33,0,0,1,1.41-.43,2.36,2.36,0,0,1,2,.83,3.54,3.54,0,0,1,.67,2.3A5.43,5.43,0,0,1,76.87,112.26Zm-1.08-.89a2.36,2.36,0,0,0-.37-1.44,1.33,1.33,0,0,0-1.13-.49c-.91,0-1.41.67-1.49,2h3Z" style="fill:#7a40c6"/><path d="M82.94,109.07a2,2,0,0,1,.49,1.43v4.56H82.31v-4.4a1.44,1.44,0,0,0-.25-1,1,1,0,0,0-.75-.28,1.49,1.49,0,0,0-.9.29,3.22,3.22,0,0,0-.72.84v4.51H78.58V108.7h1l.1.94a2.35,2.35,0,0,1,.84-.79,2.09,2.09,0,0,1,1.11-.29A1.8,1.8,0,0,1,82.94,109.07Z" style="fill:#7a40c6"/><path d="M90.05,109.45a3.69,3.69,0,0,1,.74,2.43,4.13,4.13,0,0,1-.34,1.74,2.62,2.62,0,0,1-1,1.17,2.68,2.68,0,0,1-1.52.42,2.59,2.59,0,0,1-2.09-.89,3.68,3.68,0,0,1-.75-2.43,4.2,4.2,0,0,1,.34-1.75,2.67,2.67,0,0,1,1-1.17,2.75,2.75,0,0,1,1.54-.41A2.56,2.56,0,0,1,90.05,109.45Zm-3.75,2.44q0,2.43,1.65,2.43c1.1,0,1.64-.82,1.64-2.44s-.54-2.43-1.63-2.43S86.3,110.26,86.3,111.89Z" style="fill:#7a40c6"/><path d="M92.83,114.84a1.4,1.4,0,0,1-.36-1v-7.67l1.12-.13v7.77a.66.66,0,0,0,.09.39.36.36,0,0,0,.31.12,1.07,1.07,0,0,0,.41-.07l.29.77a1.78,1.78,0,0,1-.89.22A1.27,1.27,0,0,1,92.83,114.84Z" style="fill:#7a40c6"/><path d="M97.52,106.73a7.49,7.49,0,0,1,.73,1.75,9.43,9.43,0,0,1,0,4.72,7.68,7.68,0,0,1-.73,1.75c-.28.49-.69,1.11-1.22,1.87l-.71-.49a12.8,12.8,0,0,0,1-1.66,7.13,7.13,0,0,0,.58-1.67,9.84,9.84,0,0,0,.22-2.16,10,10,0,0,0-.22-2.18,7,7,0,0,0-.58-1.66,15.19,15.19,0,0,0-1-1.66l.71-.48C96.83,105.62,97.24,106.24,97.52,106.73Z" style="fill:#7a40c6"/><path d="M89.43,51.56a2.1,2.1,0,0,1,.85.79,2.06,2.06,0,0,1,.31,1.13,3.05,3.05,0,0,1-.34,1.41,7,7,0,0,1-1,1.45c-.45.52-1.15,1.25-2.09,2.18h3.64l-.13.93H85.88v-.88c1.08-1.12,1.84-1.93,2.29-2.45a7.2,7.2,0,0,0,1-1.36,2.73,2.73,0,0,0,.29-1.24,1.3,1.3,0,0,0-.37-1,1.33,1.33,0,0,0-1-.35,1.75,1.75,0,0,0-.87.2,3.11,3.11,0,0,0-.8.68l-.72-.58a3.26,3.26,0,0,1,1.1-.92,3,3,0,0,1,1.35-.3A2.7,2.7,0,0,1,89.43,51.56Z" style="fill:#7a40c6"/><path d="M101.61,59.45h-1.53L96.7,52.4c0,.56.08,1.07.11,1.54s0,1,0,1.7v3.81H95.78v-8.3h1.5l3.41,7.06c0-.21,0-.57-.09-1.1s-.06-1-.06-1.43V51.15h1.07Z" style="fill:#7a40c6"/><path d="M108.3,58.54a.75.75,0,0,0,.4.28l-.26.78a1.72,1.72,0,0,1-.79-.28,1.32,1.32,0,0,1-.45-.68,2.13,2.13,0,0,1-1.89,1,2.05,2.05,0,0,1-1.49-.53,1.88,1.88,0,0,1-.54-1.39,1.81,1.81,0,0,1,.73-1.55,3.34,3.34,0,0,1,2.07-.55h1v-.47a1.21,1.21,0,0,0-.33-1,1.49,1.49,0,0,0-1-.29,5.51,5.51,0,0,0-1.72.34l-.27-.81a6.33,6.33,0,0,1,2.19-.43,2.28,2.28,0,0,1,1.68.55,2.08,2.08,0,0,1,.56,1.56V58A1,1,0,0,0,108.3,58.54Zm-1.24-.76V56.32h-.84c-1.17,0-1.76.43-1.76,1.3a1.19,1.19,0,0,0,.28.86,1.09,1.09,0,0,0,.82.28A1.67,1.67,0,0,0,107.06,57.78Z" style="fill:#7a40c6"/><path d="M115.22,51.51A3.32,3.32,0,0,1,116.46,53a5.65,5.65,0,0,1,.44,2.34,5.57,5.57,0,0,1-.44,2.31,3.4,3.4,0,0,1-1.24,1.47,3.3,3.3,0,0,1-1.84.51,3.4,3.4,0,0,1-1.84-.5,3.19,3.19,0,0,1-1.23-1.46,6.31,6.31,0,0,1,0-4.63,3.22,3.22,0,0,1,3.07-2A3.3,3.3,0,0,1,115.22,51.51Zm-3.53,1.26a4.32,4.32,0,0,0-.6,2.55,4.19,4.19,0,0,0,.61,2.53,2,2,0,0,0,1.68.81c1.53,0,2.3-1.12,2.3-3.35s-.77-3.36-2.3-3.36A2,2,0,0,0,111.69,52.77Z" style="fill:#7a40c6"/><path d="M123.5,59.45V55.56H120v3.89h-1.15v-8.3H120v3.47h3.5V51.15h1.15v8.3Z" style="fill:#7a40c6"/><path d="M240.28,50.34a4,4,0,0,1,1,.62l-.63.74a2.49,2.49,0,0,0-1.6-.61,2,2,0,0,0-1.68.79,4.12,4.12,0,0,0-.63,2.55,4.13,4.13,0,0,0,.63,2.53,2,2,0,0,0,1.66.81,2.2,2.2,0,0,0,.93-.18,4.66,4.66,0,0,0,.85-.51l.57.73a3.29,3.29,0,0,1-1,.66,3.41,3.41,0,0,1-1.39.26,3.26,3.26,0,0,1-1.81-.5A3.3,3.3,0,0,1,236,56.77a5.71,5.71,0,0,1-.44-2.34A5.38,5.38,0,0,1,236,52.1a3.45,3.45,0,0,1,1.24-1.46,3.23,3.23,0,0,1,1.75-.49A3.65,3.65,0,0,1,240.28,50.34Z" style="fill:#7a40c6"/><path d="M247.59,50.65a3.24,3.24,0,0,1,1.23,1.46,5.49,5.49,0,0,1,.44,2.34,5.41,5.41,0,0,1-.44,2.31,3.19,3.19,0,0,1-3.07,2,3.4,3.4,0,0,1-1.84-.49,3.19,3.19,0,0,1-1.23-1.46,6.31,6.31,0,0,1,0-4.63,3.23,3.23,0,0,1,1.24-1.49,3.59,3.59,0,0,1,3.67,0Zm-3.53,1.25a4.37,4.37,0,0,0-.6,2.56,4.19,4.19,0,0,0,.61,2.53,2,2,0,0,0,1.68.81c1.53,0,2.29-1.12,2.29-3.35s-.76-3.36-2.29-3.36A2,2,0,0,0,244.06,51.9Z" style="fill:#7a40c6"/><path d="M255.58,57.22a1.29,1.29,0,0,1,.55.51,1.34,1.34,0,0,1,.2.72,2.07,2.07,0,0,1-.22.91,4.28,4.28,0,0,1-.65.93q-.45.51-1.35,1.41h2.34l-.08.59H253.3v-.56c.69-.72,1.18-1.25,1.47-1.58a4.1,4.1,0,0,0,.62-.87,1.69,1.69,0,0,0,.19-.8.79.79,0,0,0-.85-.86,1.22,1.22,0,0,0-.56.13,2.15,2.15,0,0,0-.51.44l-.47-.37a2.06,2.06,0,0,1,.71-.59,1.92,1.92,0,0,1,.87-.2A1.73,1.73,0,0,1,255.58,57.22Z" style="fill:#7a40c6"/><path d="M226.43,76.64v8h-1.11V77.82L223.44,79l-.48-.78,2.5-1.54Z" style="fill:#7a40c6"/><path d="M233.06,77.58a5.8,5.8,0,0,1,.68,3.09,5.87,5.87,0,0,1-.68,3.1,2.45,2.45,0,0,1-4.05,0,5.87,5.87,0,0,1-.68-3.1,5.8,5.8,0,0,1,.68-3.09,2.46,2.46,0,0,1,4.05,0Zm-3.19.59a8.45,8.45,0,0,0,0,5,1.25,1.25,0,0,0,2.32,0,8.24,8.24,0,0,0,0-5,1.25,1.25,0,0,0-2.32,0Z" style="fill:#7a40c6"/><path d="M239.7,77.58a5.8,5.8,0,0,1,.68,3.09,5.87,5.87,0,0,1-.68,3.1,2.45,2.45,0,0,1-4,0,5.87,5.87,0,0,1-.68-3.1,5.8,5.8,0,0,1,.68-3.09,2.46,2.46,0,0,1,4,0Zm-3.19.59a8.45,8.45,0,0,0,0,5,1.25,1.25,0,0,0,2.32,0,8.24,8.24,0,0,0,0-5,1.25,1.25,0,0,0-2.32,0Z" style="fill:#7a40c6"/><path d="M249.8,83.79a.87.87,0,0,0,.4.28l-.26.77a1.69,1.69,0,0,1-.8-.28,1.22,1.22,0,0,1-.44-.67,2.15,2.15,0,0,1-1.9,1,2,2,0,0,1-1.48-.53,1.87,1.87,0,0,1-.55-1.39,1.83,1.83,0,0,1,.73-1.55,3.46,3.46,0,0,1,2.08-.54h1v-.47a1.29,1.29,0,0,0-.32-1,1.5,1.5,0,0,0-1-.28,5.76,5.76,0,0,0-1.71.33l-.28-.8a6.41,6.41,0,0,1,2.2-.44,2.28,2.28,0,0,1,1.68.55,2.09,2.09,0,0,1,.55,1.56v2.9A1,1,0,0,0,249.8,83.79ZM248.55,83V81.56h-.83c-1.18,0-1.76.44-1.76,1.3a1.22,1.22,0,0,0,.27.86,1.12,1.12,0,0,0,.83.29A1.65,1.65,0,0,0,248.55,83Z" style="fill:#7a40c6"/><path d="M255.06,84.41a2.5,2.5,0,0,1-1.42.43,1.67,1.67,0,0,1-1.26-.46,1.83,1.83,0,0,1-.46-1.35V79.2h-1.11v-.85h1.11V76.91l1.11-.13v1.57h1.51l-.12.85H253V83a1.15,1.15,0,0,0,.18.72.69.69,0,0,0,.58.22,1.8,1.8,0,0,0,.85-.25Z" style="fill:#7a40c6"/><path d="M263.94,78.73a2,2,0,0,1,.47,1.41v4.55H263.3V80.3q0-1.23-.9-1.23a1.18,1.18,0,0,0-.79.27,3.63,3.63,0,0,0-.7.85v4.5h-1.12V80.3c0-.82-.29-1.23-.89-1.23a1.19,1.19,0,0,0-.81.28,4.06,4.06,0,0,0-.69.84v4.5h-1.11V78.35h1l.09.92a2.15,2.15,0,0,1,1.84-1.07,1.7,1.7,0,0,1,1,.3,1.74,1.74,0,0,1,.6.85,2.91,2.91,0,0,1,.82-.85,1.89,1.89,0,0,1,1.07-.3A1.63,1.63,0,0,1,263.94,78.73Z" style="fill:#7a40c6"/><path d="M231.9,101.87v8.06h-1.11v-6.88l-1.89,1.14-.48-.78,2.5-1.54Z" style="fill:#7a40c6"/><path d="M237.16,102a2.09,2.09,0,0,1,.85.79,2.13,2.13,0,0,1,.3,1.12,3.17,3.17,0,0,1-.33,1.41,6.73,6.73,0,0,1-1,1.46c-.46.52-1.16,1.25-2.09,2.18h3.63l-.13.93H233.6v-.88c1.08-1.12,1.84-1.93,2.29-2.45a6.38,6.38,0,0,0,1-1.36,2.76,2.76,0,0,0,.29-1.24,1.24,1.24,0,0,0-1.33-1.34,1.75,1.75,0,0,0-.87.21,3.24,3.24,0,0,0-.79.67l-.73-.57a3.36,3.36,0,0,1,1.1-.92,3,3,0,0,1,1.35-.3A2.75,2.75,0,0,1,237.16,102Z" style="fill:#7a40c6"/><path d="M244.08,102.74h-3.15v2.37a2.79,2.79,0,0,1,1.29-.31,2.15,2.15,0,0,1,1.67.68,2.65,2.65,0,0,1,.63,1.87,2.9,2.9,0,0,1-.35,1.42,2.54,2.54,0,0,1-1,1,3,3,0,0,1-1.47.34,3.07,3.07,0,0,1-1.31-.26,3.38,3.38,0,0,1-1.08-.76l.66-.64a2.54,2.54,0,0,0,.79.57,2.18,2.18,0,0,0,.93.19,1.58,1.58,0,0,0,1.22-.48,2,2,0,0,0,.44-1.36,1.77,1.77,0,0,0-.4-1.28,1.46,1.46,0,0,0-1.08-.4,2.15,2.15,0,0,0-.58.07,2.61,2.61,0,0,0-.56.21h-.87v-4.06h4.37Z" style="fill:#7a40c6"/><path d="M254.88,100.86a2.42,2.42,0,0,1,.47,1.56,2.63,2.63,0,0,1-.22,1.12,1.7,1.7,0,0,1-.62.75,1.76,1.76,0,0,1-1,.27,1.62,1.62,0,0,1-1.34-.58,2.29,2.29,0,0,1-.49-1.55,2.76,2.76,0,0,1,.22-1.12,1.79,1.79,0,0,1,.63-.75,1.74,1.74,0,0,1,1-.27A1.66,1.66,0,0,1,254.88,100.86Zm-2.41,1.57c0,1,.35,1.55,1.06,1.55s1.05-.52,1.05-1.56-.35-1.56-1-1.56S252.47,101.38,252.47,102.43Z" style="fill:#7a40c6"/><path d="M261,101.68a3.65,3.65,0,0,1,1,.62l-.63.74a2.53,2.53,0,0,0-1.61-.62,2,2,0,0,0-1.67.8,4.12,4.12,0,0,0-.63,2.55,4.23,4.23,0,0,0,.62,2.53,2,2,0,0,0,1.67.81,2.24,2.24,0,0,0,.93-.18,4.66,4.66,0,0,0,.85-.51l.56.73a3.06,3.06,0,0,1-1,.66,3.52,3.52,0,0,1-1.39.26,3.25,3.25,0,0,1-1.8-.5,3.21,3.21,0,0,1-1.23-1.47,5.48,5.48,0,0,1-.44-2.33,5.35,5.35,0,0,1,.46-2.33A3.33,3.33,0,0,1,258,102a3.22,3.22,0,0,1,1.75-.5A3.54,3.54,0,0,1,261,101.68Z" style="fill:#7a40c6"/><path d="M151.58,95.3V87H156l-.13.91h-3.14v2.83h2.72v.91h-2.72V95.3Z" style="fill:#7a40c6"/><path d="M162.33,92.5h-4.06A2.51,2.51,0,0,0,158.8,94a1.57,1.57,0,0,0,1.19.5,2.51,2.51,0,0,0,.84-.14,2.86,2.86,0,0,0,.81-.42l.49.67a3.54,3.54,0,0,1-2.23.79,2.59,2.59,0,0,1-2.07-.87,3.55,3.55,0,0,1-.74-2.38,4.55,4.55,0,0,1,.32-1.75,2.73,2.73,0,0,1,.92-1.2,2.34,2.34,0,0,1,1.41-.44,2.37,2.37,0,0,1,1.94.83,3.59,3.59,0,0,1,.68,2.31A5.4,5.4,0,0,1,162.33,92.5Zm-1.07-.89a2.32,2.32,0,0,0-.38-1.43,1.32,1.32,0,0,0-1.12-.5c-.91,0-1.41.67-1.49,2h3Z" style="fill:#7a40c6"/><path d="M168.39,89.32a2,2,0,0,1,.49,1.42V95.3h-1.12V90.9a1.39,1.39,0,0,0-.25-1,1,1,0,0,0-.75-.28,1.46,1.46,0,0,0-.89.29,3,3,0,0,0-.73.83V95.3H164V89h1l.09.94a2.56,2.56,0,0,1,.84-.8A2.24,2.24,0,0,1,167,88.8,1.81,1.81,0,0,1,168.39,89.32Z" style="fill:#7a40c6"/><path d="M175.49,89.69a3.73,3.73,0,0,1,.74,2.43,4.13,4.13,0,0,1-.34,1.74,2.62,2.62,0,0,1-1,1.17,2.76,2.76,0,0,1-1.52.41,2.6,2.6,0,0,1-2.09-.89,3.63,3.63,0,0,1-.75-2.42,4.29,4.29,0,0,1,.34-1.74,2.69,2.69,0,0,1,1-1.17,2.74,2.74,0,0,1,1.53-.42A2.59,2.59,0,0,1,175.49,89.69Zm-3.74,2.44c0,1.61.55,2.42,1.64,2.42s1.64-.81,1.64-2.43-.54-2.43-1.63-2.43S171.75,90.51,171.75,92.13Z" style="fill:#7a40c6"/><path d="M178.26,95.07a1.44,1.44,0,0,1-.35-1V86.39l1.11-.13V94a.62.62,0,0,0,.09.38.36.36,0,0,0,.31.13,1.07,1.07,0,0,0,.41-.08l.29.77a1.77,1.77,0,0,1-.88.22A1.28,1.28,0,0,1,178.26,95.07Z" style="fill:#7a40c6"/><path d="M186.11,94.39a.78.78,0,0,0,.39.28l-.25.77a1.65,1.65,0,0,1-.8-.28,1.22,1.22,0,0,1-.44-.67,2.15,2.15,0,0,1-1.9,1,2,2,0,0,1-1.48-.53,1.81,1.81,0,0,1-.55-1.38,1.84,1.84,0,0,1,.73-1.56,3.44,3.44,0,0,1,2.07-.54h1V91a1.25,1.25,0,0,0-.32-1,1.47,1.47,0,0,0-1-.29,5.76,5.76,0,0,0-1.71.33l-.28-.8a6.41,6.41,0,0,1,2.2-.44,2.33,2.33,0,0,1,1.68.55,2.11,2.11,0,0,1,.55,1.56v2.91A1,1,0,0,0,186.11,94.39Zm-1.25-.77V92.16H184c-1.18,0-1.76.44-1.76,1.31a1.2,1.2,0,0,0,.27.85,1.11,1.11,0,0,0,.82.29A1.66,1.66,0,0,0,184.86,93.62Z" style="fill:#7a40c6"/><path d="M191.37,95a2.43,2.43,0,0,1-1.42.43,1.71,1.71,0,0,1-1.27-.46,1.87,1.87,0,0,1-.45-1.35V89.8h-1.11V89h1.11V87.51l1.11-.13V89h1.51l-.12.85h-1.39v3.79a1.12,1.12,0,0,0,.18.71.68.68,0,0,0,.58.23,1.86,1.86,0,0,0,.85-.26Z" style="fill:#7a40c6"/><path d="M197.08,89.69a3.73,3.73,0,0,1,.74,2.43,4.29,4.29,0,0,1-.34,1.74,2.69,2.69,0,0,1-1,1.17,2.78,2.78,0,0,1-1.52.41,2.6,2.6,0,0,1-2.09-.89,3.63,3.63,0,0,1-.75-2.42,4.13,4.13,0,0,1,.34-1.74,2.69,2.69,0,0,1,1-1.17A2.72,2.72,0,0,1,195,88.8,2.59,2.59,0,0,1,197.08,89.69Zm-3.74,2.44c0,1.61.54,2.42,1.64,2.42s1.64-.81,1.64-2.43-.54-2.43-1.63-2.43S193.34,90.51,193.34,92.13Z" style="fill:#7a40c6"/><path d="M159,106.13V115h-1l-.1-.88a2.35,2.35,0,0,1-.79.75,2.2,2.2,0,0,1-2.82-.62,4.07,4.07,0,0,1-.63-2.4,4.65,4.65,0,0,1,.3-1.73,2.68,2.68,0,0,1,.87-1.19,2.18,2.18,0,0,1,1.33-.43,2.26,2.26,0,0,1,1.71.79V106Zm-1.81,7.94a2.63,2.63,0,0,0,.7-.71v-3.11a2.41,2.41,0,0,0-.67-.62,1.54,1.54,0,0,0-.8-.21,1.29,1.29,0,0,0-1.14.62,3.35,3.35,0,0,0-.41,1.83,3.52,3.52,0,0,0,.38,1.83,1.18,1.18,0,0,0,1.07.6A1.61,1.61,0,0,0,157.22,114.07Z" style="fill:#7a40c6"/><path d="M166,112.24H162a2.45,2.45,0,0,0,.54,1.54,1.53,1.53,0,0,0,1.18.5,2.79,2.79,0,0,0,.84-.13,3.2,3.2,0,0,0,.81-.43l.49.67a3.54,3.54,0,0,1-2.23.79,2.59,2.59,0,0,1-2.07-.87,3.55,3.55,0,0,1-.74-2.38,4.55,4.55,0,0,1,.32-1.75A2.73,2.73,0,0,1,162,109a2.34,2.34,0,0,1,1.41-.44,2.37,2.37,0,0,1,1.94.83,3.59,3.59,0,0,1,.68,2.31A5.4,5.4,0,0,1,166,112.24Zm-1.07-.89a2.32,2.32,0,0,0-.38-1.43,1.32,1.32,0,0,0-1.12-.5c-.91,0-1.4.67-1.49,2h3Z" style="fill:#7a40c6"/><path d="M173.9,108.72a3.75,3.75,0,0,1,1,.55l-.47.7a3.35,3.35,0,0,0-.83-.41,2.54,2.54,0,0,0-.83-.14,1.46,1.46,0,0,0-.86.23.69.69,0,0,0-.31.6.74.74,0,0,0,.29.61,3.77,3.77,0,0,0,1.07.42,3.8,3.8,0,0,1,1.59.72,1.58,1.58,0,0,1,.53,1.25,1.65,1.65,0,0,1-.73,1.44,3.1,3.1,0,0,1-1.78.49,3.56,3.56,0,0,1-2.41-.83l.59-.67a3,3,0,0,0,1.79.61,1.74,1.74,0,0,0,1-.26.83.83,0,0,0,.37-.7.92.92,0,0,0-.14-.53,1.09,1.09,0,0,0-.46-.35,6.81,6.81,0,0,0-1-.32,3.15,3.15,0,0,1-1.47-.71,1.51,1.51,0,0,1-.45-1.13,1.48,1.48,0,0,1,.3-.9,1.79,1.79,0,0,1,.82-.62,2.94,2.94,0,0,1,1.17-.23A3.61,3.61,0,0,1,173.9,108.72Z" style="fill:#7a40c6"/><path d="M180.83,109.44a3.63,3.63,0,0,1,.75,2.42,4.29,4.29,0,0,1-.34,1.74,2.69,2.69,0,0,1-1,1.17,2.78,2.78,0,0,1-1.52.41,2.59,2.59,0,0,1-2.09-.89,3.63,3.63,0,0,1-.75-2.42,4.13,4.13,0,0,1,.34-1.74,2.62,2.62,0,0,1,1-1.17,2.7,2.7,0,0,1,1.53-.42A2.54,2.54,0,0,1,180.83,109.44Zm-3.73,2.43c0,1.61.54,2.42,1.64,2.42s1.64-.81,1.64-2.43-.54-2.42-1.63-2.42S177.1,110.25,177.1,111.87Zm2.59-6.48.5.93-2.56,1-.34-.59Z" style="fill:#7a40c6"/><path d="M188.24,106.13V115h-1l-.11-.88a2.32,2.32,0,0,1-.78.75,2.08,2.08,0,0,1-1.05.27,2.05,2.05,0,0,1-1.77-.89,4.07,4.07,0,0,1-.63-2.4,4.65,4.65,0,0,1,.3-1.73,2.68,2.68,0,0,1,.87-1.19,2.16,2.16,0,0,1,1.33-.43,2.26,2.26,0,0,1,1.71.79V106Zm-1.81,7.94a2.78,2.78,0,0,0,.7-.71v-3.11a2.41,2.41,0,0,0-.67-.62,1.57,1.57,0,0,0-.8-.21,1.29,1.29,0,0,0-1.14.62,3.35,3.35,0,0,0-.41,1.83,3.52,3.52,0,0,0,.38,1.83,1.17,1.17,0,0,0,1.07.6A1.61,1.61,0,0,0,186.43,114.07Z" style="fill:#7a40c6"/><path d="M191.55,105.86a.74.74,0,0,1,.22.54.76.76,0,0,1-.22.54.8.8,0,0,1-.57.21.75.75,0,0,1-.55-.21.72.72,0,0,1-.22-.54.7.7,0,0,1,.22-.54.72.72,0,0,1,.55-.22A.77.77,0,0,1,191.55,105.86Zm0,2.83V115h-1.11v-6.35Z" style="fill:#7a40c6"/><path d="M198.5,109.44a3.68,3.68,0,0,1,.74,2.42,4.13,4.13,0,0,1-.34,1.74,2.62,2.62,0,0,1-1,1.17,2.76,2.76,0,0,1-1.52.41,2.6,2.6,0,0,1-2.09-.89,3.63,3.63,0,0,1-.74-2.42,4.29,4.29,0,0,1,.33-1.74,2.69,2.69,0,0,1,1-1.17,2.75,2.75,0,0,1,1.54-.42A2.56,2.56,0,0,1,198.5,109.44Zm-3.74,2.43c0,1.61.55,2.42,1.64,2.42s1.64-.81,1.64-2.43-.54-2.42-1.62-2.42S194.76,110.25,194.76,111.87Z" style="fill:#7a40c6"/><path d="M157.33,125.29v1.8h1.76V128h-1.76v1.79h-1V128h-1.75v-.92h1.75v-1.8Z" style="fill:#7a40c6"/><path d="M167.29,123.65a2.09,2.09,0,0,1,.85.79,2.13,2.13,0,0,1,.3,1.12,3.17,3.17,0,0,1-.33,1.41,6.73,6.73,0,0,1-1,1.46c-.46.52-1.16,1.25-2.09,2.18h3.63l-.13.93h-4.77v-.88c1.08-1.12,1.85-1.93,2.3-2.45a6.66,6.66,0,0,0,1-1.36,2.76,2.76,0,0,0,.29-1.24,1.24,1.24,0,0,0-1.33-1.34,1.75,1.75,0,0,0-.87.21,3.24,3.24,0,0,0-.79.67l-.73-.57a3.36,3.36,0,0,1,1.1-.92,3,3,0,0,1,1.35-.3A2.75,2.75,0,0,1,167.29,123.65Z" style="fill:#7a40c6"/><path d="M178.28,131.54v-3.89h-3.5v3.89h-1.15v-8.3h1.15v3.47h3.5v-3.47h1.15v8.3Z" style="fill:#7a40c6"/><path d="M185.72,130.18a1.36,1.36,0,0,1,.55.51,1.34,1.34,0,0,1,.2.72,2.07,2.07,0,0,1-.22.91,4.57,4.57,0,0,1-.65.94c-.3.33-.75.8-1.35,1.4h2.34l-.09.59h-3.06v-.56c.69-.72,1.18-1.25,1.47-1.58a4.1,4.1,0,0,0,.62-.87,1.69,1.69,0,0,0,.19-.8.79.79,0,0,0-.85-.86,1.11,1.11,0,0,0-.56.14,1.88,1.88,0,0,0-.51.43l-.47-.37a2.06,2.06,0,0,1,.71-.59,1.86,1.86,0,0,1,.87-.2A1.73,1.73,0,0,1,185.72,130.18Z" style="fill:#7a40c6"/><path d="M193.49,123.59a3.4,3.4,0,0,1,1.23,1.47,6.36,6.36,0,0,1,0,4.65,3.19,3.19,0,0,1-3.08,2,3.4,3.4,0,0,1-1.84-.49,3.3,3.3,0,0,1-1.23-1.46,5.62,5.62,0,0,1-.44-2.32,5.68,5.68,0,0,1,.44-2.32,3.31,3.31,0,0,1,1.24-1.48,3.24,3.24,0,0,1,1.83-.52A3.44,3.44,0,0,1,193.49,123.59ZM190,124.85a4.37,4.37,0,0,0-.6,2.56,4.19,4.19,0,0,0,.61,2.53,2,2,0,0,0,1.68.8c1.53,0,2.3-1.11,2.3-3.35s-.77-3.36-2.3-3.36A2,2,0,0,0,190,124.85Z" style="fill:#7a40c6"/><path d="M276.94,144.05v-8.3h4.42l-.14.92h-3.14v2.83h2.72v.9h-2.72v3.65Z" style="fill:#7a40c6"/><path d="M287.68,141.26h-4.05a2.45,2.45,0,0,0,.53,1.54,1.53,1.53,0,0,0,1.18.49,2.57,2.57,0,0,0,.85-.13,3.94,3.94,0,0,0,.81-.42l.48.66a3.54,3.54,0,0,1-2.22.8,2.56,2.56,0,0,1-2.07-.87,3.53,3.53,0,0,1-.75-2.39,4.59,4.59,0,0,1,.32-1.75,2.8,2.8,0,0,1,.92-1.2,2.33,2.33,0,0,1,1.41-.43,2.37,2.37,0,0,1,1.94.83,3.54,3.54,0,0,1,.68,2.3A5.44,5.44,0,0,1,287.68,141.26Zm-1.07-.89a2.36,2.36,0,0,0-.37-1.44,1.33,1.33,0,0,0-1.13-.49c-.91,0-1.4.67-1.48,2h3Z" style="fill:#7a40c6"/><path d="M293.74,138.08a2,2,0,0,1,.49,1.42v4.55h-1.11v-4.4a1.42,1.42,0,0,0-.26-1,1,1,0,0,0-.74-.27,1.43,1.43,0,0,0-.9.29,2.85,2.85,0,0,0-.72.83v4.5h-1.11V137.7h.95l.1.94a2.44,2.44,0,0,1,.84-.79,2.18,2.18,0,0,1,1.1-.29A1.77,1.77,0,0,1,293.74,138.08Z" style="fill:#7a40c6"/><path d="M297.48,134.87a.76.76,0,0,1,.21.54.73.73,0,0,1-.21.54.8.8,0,0,1-.57.21.78.78,0,0,1-.56-.21.73.73,0,0,1-.21-.54.76.76,0,0,1,.21-.54.78.78,0,0,1,.56-.21A.8.8,0,0,1,297.48,134.87Zm0,2.83v6.35h-1.11V137.7Z" style="fill:#7a40c6"/><path d="M300.25,143.83a1.42,1.42,0,0,1-.36-1v-7.65L301,135v7.76a.64.64,0,0,0,.09.38.37.37,0,0,0,.31.12,1.07,1.07,0,0,0,.41-.07l.29.77a1.88,1.88,0,0,1-.88.22A1.31,1.31,0,0,1,300.25,143.83Z" style="fill:#7a40c6"/><path d="M307,137.72a2.8,2.8,0,0,1,.9.53l-.53.69a2.64,2.64,0,0,0-.66-.35,2,2,0,0,0-.7-.12,1.37,1.37,0,0,0-1.2.62,3.16,3.16,0,0,0-.43,1.82,3.05,3.05,0,0,0,.42,1.78,1.41,1.41,0,0,0,1.21.57,1.92,1.92,0,0,0,.69-.12,3.91,3.91,0,0,0,.7-.36l.5.72a3,3,0,0,1-1.94.7,2.55,2.55,0,0,1-2-.87,3.61,3.61,0,0,1-.74-2.4,4.27,4.27,0,0,1,.34-1.77,2.69,2.69,0,0,1,1-1.18,2.58,2.58,0,0,1,1.48-.42A3.15,3.15,0,0,1,307,137.72Z" style="fill:#7a40c6"/><path d="M313.86,143.14a.82.82,0,0,0,.4.29l-.25.77a1.76,1.76,0,0,1-.8-.28,1.28,1.28,0,0,1-.45-.68,2.12,2.12,0,0,1-1.89,1,2.05,2.05,0,0,1-1.49-.53,1.88,1.88,0,0,1-.54-1.39,1.81,1.81,0,0,1,.73-1.55,3.44,3.44,0,0,1,2.07-.54h1v-.47a1.24,1.24,0,0,0-.33-1,1.49,1.49,0,0,0-1-.29,5.41,5.41,0,0,0-1.71.34l-.28-.81a6.39,6.39,0,0,1,2.2-.43,2.27,2.27,0,0,1,1.67.55,2.08,2.08,0,0,1,.56,1.56v2.9A1,1,0,0,0,313.86,143.14Zm-1.24-.76v-1.46h-.84c-1.17,0-1.76.43-1.76,1.3a1.19,1.19,0,0,0,.28.86,1.09,1.09,0,0,0,.82.29A1.67,1.67,0,0,0,312.62,142.38Z" style="fill:#7a40c6"/><path d="M319.31,137.63l-.21,1.09a2.22,2.22,0,0,0-.55-.08,1.19,1.19,0,0,0-1,.44,3.29,3.29,0,0,0-.57,1.35v3.62h-1.11V137.7h1L317,139a2.5,2.5,0,0,1,.68-1.07,1.55,1.55,0,0,1,1-.36A2.59,2.59,0,0,1,319.31,137.63Z" style="fill:#7a40c6"/><path d="M325.21,138.43a4.06,4.06,0,0,1,.64,2.44,4.66,4.66,0,0,1-.3,1.74,2.62,2.62,0,0,1-.87,1.17,2.17,2.17,0,0,1-1.33.42,2.09,2.09,0,0,1-1.69-.85l-.11.7h-1v-8.9l1.11-.13v3.48a2.1,2.1,0,0,1,1.79-.94A2,2,0,0,1,325.21,138.43Zm-1,4.29a3.24,3.24,0,0,0,.42-1.85,3.39,3.39,0,0,0-.39-1.86,1.25,1.25,0,0,0-1.1-.57,1.79,1.79,0,0,0-1.48,1v3a1.78,1.78,0,0,0,.62.63,1.45,1.45,0,0,0,.78.23A1.33,1.33,0,0,0,324.24,142.72Z" style="fill:#7a40c6"/><path d="M332.12,138.45a3.63,3.63,0,0,1,.75,2.42,4.29,4.29,0,0,1-.34,1.74,2.61,2.61,0,0,1-2.5,1.59,2.59,2.59,0,0,1-2.09-.89,3.68,3.68,0,0,1-.75-2.43,4.19,4.19,0,0,1,.34-1.74,2.62,2.62,0,0,1,1-1.17,2.8,2.8,0,0,1,1.53-.41A2.56,2.56,0,0,1,332.12,138.45Zm-3.73,2.43c0,1.62.54,2.43,1.64,2.43s1.64-.82,1.64-2.44-.54-2.42-1.63-2.42S328.39,139.26,328.39,140.88Z" style="fill:#7a40c6"/><path d="M339,138.08a2,2,0,0,1,.49,1.42v4.55h-1.11v-4.4a1.42,1.42,0,0,0-.26-1,1,1,0,0,0-.75-.27,1.42,1.42,0,0,0-.89.29,2.85,2.85,0,0,0-.72.83v4.5h-1.11V137.7h.95l.1.94a2.44,2.44,0,0,1,.84-.79,2.18,2.18,0,0,1,1.1-.29A1.77,1.77,0,0,1,339,138.08Z" style="fill:#7a40c6"/><path d="M346,143.14a.87.87,0,0,0,.4.29l-.25.77a1.76,1.76,0,0,1-.8-.28,1.21,1.21,0,0,1-.44-.68,2.14,2.14,0,0,1-1.9,1,2.07,2.07,0,0,1-1.49-.53,1.88,1.88,0,0,1-.54-1.39,1.81,1.81,0,0,1,.73-1.55,3.44,3.44,0,0,1,2.07-.54h1v-.47a1.24,1.24,0,0,0-.33-1,1.47,1.47,0,0,0-1-.29,5.41,5.41,0,0,0-1.71.34l-.28-.81a6.39,6.39,0,0,1,2.2-.43,2.28,2.28,0,0,1,1.68.55,2.08,2.08,0,0,1,.55,1.56v2.9A1,1,0,0,0,346,143.14Zm-1.24-.76v-1.46h-.83c-1.18,0-1.77.43-1.77,1.3a1.23,1.23,0,0,0,.28.86,1.11,1.11,0,0,0,.82.29A1.66,1.66,0,0,0,344.76,142.38Z" style="fill:#7a40c6"/><path d="M351.27,143.76a2.45,2.45,0,0,1-1.43.44,1.67,1.67,0,0,1-1.26-.47,1.84,1.84,0,0,1-.45-1.34v-3.83H347v-.86h1.11v-1.43l1.11-.13v1.56h1.51l-.12.86h-1.39v3.78a1.15,1.15,0,0,0,.18.72.68.68,0,0,0,.58.22,1.84,1.84,0,0,0,.85-.25Z" style="fill:#7a40c6"/><path d="M357,138.45a3.63,3.63,0,0,1,.75,2.42,4.29,4.29,0,0,1-.34,1.74,2.61,2.61,0,0,1-2.5,1.59,2.59,2.59,0,0,1-2.09-.89,3.68,3.68,0,0,1-.75-2.43,4.19,4.19,0,0,1,.34-1.74,2.62,2.62,0,0,1,1-1.17,2.77,2.77,0,0,1,1.53-.41A2.56,2.56,0,0,1,357,138.45Zm-3.73,2.43c0,1.62.54,2.43,1.64,2.43s1.64-.82,1.64-2.44-.54-2.42-1.63-2.42S353.24,139.26,353.24,140.88Z" style="fill:#7a40c6"/><path d="M300.68,153.14V162h-1l-.11-.88a2.36,2.36,0,0,1-.78.76,2.11,2.11,0,0,1-1.05.27,2.05,2.05,0,0,1-1.77-.89,4,4,0,0,1-.64-2.4,4.54,4.54,0,0,1,.31-1.74,2.71,2.71,0,0,1,.86-1.18,2.14,2.14,0,0,1,1.33-.43,2.3,2.3,0,0,1,1.72.78V153Zm-1.81,7.93a2.72,2.72,0,0,0,.7-.7v-3.11a2.56,2.56,0,0,0-.67-.62,1.58,1.58,0,0,0-.81-.21A1.28,1.28,0,0,0,297,157a3.37,3.37,0,0,0-.4,1.84,3.55,3.55,0,0,0,.37,1.83,1.2,1.2,0,0,0,1.08.6A1.53,1.53,0,0,0,298.87,161.07Z" style="fill:#7a40c6"/><path d="M307.66,159.25H303.6a2.51,2.51,0,0,0,.53,1.54,1.54,1.54,0,0,0,1.18.49,2.57,2.57,0,0,0,.85-.13,3.49,3.49,0,0,0,.81-.42l.48.66a3.5,3.5,0,0,1-2.22.8,2.56,2.56,0,0,1-2.07-.87,3.52,3.52,0,0,1-.74-2.38,4.42,4.42,0,0,1,.32-1.76,2.78,2.78,0,0,1,.91-1.2,2.62,2.62,0,0,1,3.35.4,3.5,3.5,0,0,1,.68,2.3C307.68,158.87,307.67,159.06,307.66,159.25Zm-1.08-.89a2.36,2.36,0,0,0-.37-1.44,1.33,1.33,0,0,0-1.13-.49c-.9,0-1.4.67-1.48,2h3Z" style="fill:#7a40c6"/><path d="M315.54,155.73a3.43,3.43,0,0,1,1,.54l-.47.7a4,4,0,0,0-.83-.41,2.47,2.47,0,0,0-.82-.13,1.44,1.44,0,0,0-.86.22.71.71,0,0,0-.32.61.69.69,0,0,0,.3.6,3.16,3.16,0,0,0,1.07.42,3.8,3.8,0,0,1,1.59.73,1.56,1.56,0,0,1,.52,1.25,1.61,1.61,0,0,1-.73,1.43,3.08,3.08,0,0,1-1.78.5,3.52,3.52,0,0,1-2.4-.83l.59-.68a2.88,2.88,0,0,0,1.79.62,1.71,1.71,0,0,0,1-.26.82.82,0,0,0,.37-.71.91.91,0,0,0-.13-.52,1.09,1.09,0,0,0-.46-.35,6.43,6.43,0,0,0-.95-.32,3.25,3.25,0,0,1-1.47-.71,1.54,1.54,0,0,1-.45-1.13,1.47,1.47,0,0,1,.29-.9,1.94,1.94,0,0,1,.82-.63,3,3,0,0,1,1.18-.22A3.55,3.55,0,0,1,315.54,155.73Z" style="fill:#7a40c6"/><path d="M322.48,156.44a3.7,3.7,0,0,1,.74,2.42,4.13,4.13,0,0,1-.34,1.74,2.52,2.52,0,0,1-1,1.17,2.68,2.68,0,0,1-1.52.42,2.6,2.6,0,0,1-2.09-.89,3.65,3.65,0,0,1-.74-2.42,4.37,4.37,0,0,1,.33-1.75,2.61,2.61,0,0,1,1-1.16,2.75,2.75,0,0,1,1.54-.42A2.58,2.58,0,0,1,322.48,156.44Zm-3.74,2.44c0,1.61.55,2.42,1.64,2.42s1.65-.81,1.65-2.44-.55-2.42-1.63-2.42S318.74,157.25,318.74,158.88Zm2.6-6.49.49.93-2.56,1-.34-.59Z" style="fill:#7a40c6"/><path d="M329.89,153.14V162h-1l-.11-.88a2.29,2.29,0,0,1-.79.76,2.18,2.18,0,0,1-2.81-.62,4,4,0,0,1-.64-2.4,4.74,4.74,0,0,1,.3-1.74,2.65,2.65,0,0,1,.87-1.18,2.12,2.12,0,0,1,1.33-.43,2.32,2.32,0,0,1,1.72.78V153Zm-1.81,7.93a2.72,2.72,0,0,0,.7-.7v-3.11a2.44,2.44,0,0,0-.68-.62,1.52,1.52,0,0,0-.8-.21,1.28,1.28,0,0,0-1.14.61,3.37,3.37,0,0,0-.4,1.84,3.55,3.55,0,0,0,.37,1.83,1.2,1.2,0,0,0,1.08.6A1.58,1.58,0,0,0,328.08,161.07Z" style="fill:#7a40c6"/><path d="M333.19,152.86a.74.74,0,0,1,.22.55.69.69,0,0,1-.22.53.76.76,0,0,1-.56.21.78.78,0,0,1-.56-.21.73.73,0,0,1-.22-.53.74.74,0,0,1,.78-.76A.76.76,0,0,1,333.19,152.86Zm0,2.83V162h-1.11v-6.35Z" style="fill:#7a40c6"/><path d="M340.14,156.44a3.65,3.65,0,0,1,.75,2.42,4.29,4.29,0,0,1-.34,1.74,2.58,2.58,0,0,1-1,1.17,2.71,2.71,0,0,1-1.52.42,2.59,2.59,0,0,1-2.09-.89,3.65,3.65,0,0,1-.75-2.42,4.2,4.2,0,0,1,.34-1.75,2.55,2.55,0,0,1,1-1.16,2.7,2.7,0,0,1,1.53-.42A2.56,2.56,0,0,1,340.14,156.44Zm-3.73,2.44c0,1.61.54,2.42,1.64,2.42s1.64-.81,1.64-2.44-.54-2.42-1.63-2.42S336.41,157.25,336.41,158.88Z" style="fill:#7a40c6"/><path d="M293.39,174.06v1.8h1.76v.92h-1.76v1.79h-1v-1.79h-1.75v-.92h1.75v-1.8Z" style="fill:#7a40c6"/><path d="M304.69,172.06a3.52,3.52,0,0,1,1.05.62l-.63.74a2.53,2.53,0,0,0-1.61-.62,2,2,0,0,0-1.67.8,5.44,5.44,0,0,0,0,5.08,2,2,0,0,0,1.66.81,2.2,2.2,0,0,0,.93-.18,4.66,4.66,0,0,0,.85-.51l.57.73a3.29,3.29,0,0,1-1,.66,3.59,3.59,0,0,1-1.39.26,3.19,3.19,0,0,1-3-2,5.63,5.63,0,0,1-.44-2.33,5.35,5.35,0,0,1,.46-2.33,3.33,3.33,0,0,1,1.24-1.46,3.24,3.24,0,0,1,1.75-.5A3.54,3.54,0,0,1,304.69,172.06Z" style="fill:#7a40c6"/><path d="M312.23,180.78a1.26,1.26,0,0,1,.52.55,1.94,1.94,0,0,1,.2.91,2.13,2.13,0,0,1-.22,1,1.64,1.64,0,0,1-.6.65,1.6,1.6,0,0,1-.84.23,1.44,1.44,0,0,1-1.32-.67,3.47,3.47,0,0,1-.42-1.85,4.23,4.23,0,0,1,.24-1.49,2.23,2.23,0,0,1,.67-1,1.68,1.68,0,0,1,1.05-.35,1.82,1.82,0,0,1,1.07.32l-.28.47a1.49,1.49,0,0,0-.8-.23,1,1,0,0,0-.88.54,2.86,2.86,0,0,0-.36,1.43,1.48,1.48,0,0,1,1.25-.68A1.34,1.34,0,0,1,312.23,180.78Zm-.24,2.4a1.55,1.55,0,0,0,.24-.92q0-1.11-.84-1.11a1.17,1.17,0,0,0-.63.19,1.67,1.67,0,0,0-.49.53,2.7,2.7,0,0,0,.27,1.25.9.9,0,0,0,1.45.06Z" style="fill:#7a40c6"/><path d="M319.31,180.31v-3.89h-3.5v3.89h-1.15V172h1.15v3.47h3.5V172h1.14v8.3Z" style="fill:#7a40c6"/><path d="M325.33,179.37h-2v1.53a1.72,1.72,0,0,1,.83-.2,1.37,1.37,0,0,1,1.07.44,1.69,1.69,0,0,1,.4,1.2,1.83,1.83,0,0,1-.22.91,1.53,1.53,0,0,1-.64.62,1.89,1.89,0,0,1-.94.22,2.11,2.11,0,0,1-.85-.17,2.37,2.37,0,0,1-.69-.49l.42-.41a1.73,1.73,0,0,0,.52.37,1.38,1.38,0,0,0,.59.12,1,1,0,0,0,.78-.31,1.26,1.26,0,0,0,.29-.88,1.14,1.14,0,0,0-.26-.82.93.93,0,0,0-.69-.25,1.45,1.45,0,0,0-.37,0,1.54,1.54,0,0,0-.37.14h-.56v-2.61h2.81Z" style="fill:#7a40c6"/><path d="M332.41,172.36a3.33,3.33,0,0,1,1.23,1.47,6.36,6.36,0,0,1,0,4.65,3.19,3.19,0,0,1-3.07,2,3.43,3.43,0,0,1-1.85-.49,3.37,3.37,0,0,1-1.23-1.46,6.34,6.34,0,0,1,0-4.64,3.38,3.38,0,0,1,1.24-1.48,3.25,3.25,0,0,1,1.84-.52A3.4,3.4,0,0,1,332.41,172.36Zm-3.53,1.26a5.61,5.61,0,0,0,0,5.09,2,2,0,0,0,1.69.8c1.53,0,2.29-1.11,2.29-3.35s-.76-3.36-2.29-3.36A2,2,0,0,0,328.88,173.62Z" style="fill:#7a40c6"/><path d="M340.68,180.31v-3.89h-3.5v3.89H336V172h1.14v3.47h3.5V172h1.15v8.3Z" style="fill:#7a40c6"/><path d="M583.23,61.46V57.57h-3.5v3.89h-1.15v-8.3h1.15v3.47h3.5V53.16h1.15v8.3Z" style="fill:#7a40c6"/><path d="M588.6,60.09a1.33,1.33,0,0,1,.54.51,1.34,1.34,0,0,1,.2.72,2,2,0,0,1-.22.91,4.28,4.28,0,0,1-.65.93c-.3.34-.75.81-1.34,1.4h2.33l-.08.6h-3.07V64.6c.69-.72,1.18-1.25,1.47-1.58a4.61,4.61,0,0,0,.63-.87,1.84,1.84,0,0,0,.18-.8.79.79,0,0,0-.85-.86,1.13,1.13,0,0,0-.56.13,2.15,2.15,0,0,0-.51.44l-.47-.38a2.14,2.14,0,0,1,.71-.58,1.92,1.92,0,0,1,.87-.2A1.68,1.68,0,0,1,588.6,60.09Z" style="fill:#7a40c6"/><path d="M595,53.25a3.79,3.79,0,0,1,1.14.73l-.62.7a3.53,3.53,0,0,0-.93-.55,2.58,2.58,0,0,0-1-.18,1.8,1.8,0,0,0-1.07.3,1,1,0,0,0-.43.88,1.15,1.15,0,0,0,.15.61,1.19,1.19,0,0,0,.54.45,6.35,6.35,0,0,0,1.14.44,7.15,7.15,0,0,1,1.3.52,2.2,2.2,0,0,1,.84.76,2.49,2.49,0,0,1,0,2.51,2.37,2.37,0,0,1-1,.87,3.73,3.73,0,0,1-1.59.31,3.88,3.88,0,0,1-2.83-1.07l.63-.7a3.87,3.87,0,0,0,1,.62,3,3,0,0,0,1.16.21,2,2,0,0,0,1.28-.38,1.28,1.28,0,0,0,.5-1.1,1.4,1.4,0,0,0-.15-.68,1.53,1.53,0,0,0-.54-.49,5.47,5.47,0,0,0-1.1-.43,5,5,0,0,1-1.88-.93,1.91,1.91,0,0,1-.59-1.47,2,2,0,0,1,.33-1.12,2.35,2.35,0,0,1,.93-.77,3.3,3.3,0,0,1,1.36-.28A3.82,3.82,0,0,1,595,53.25Z" style="fill:#7a40c6"/><path d="M602.92,53.51A3.27,3.27,0,0,1,604.15,55a6.36,6.36,0,0,1,0,4.65,3.32,3.32,0,0,1-1.23,1.47,3.67,3.67,0,0,1-3.68,0A3.24,3.24,0,0,1,598,59.65a5.46,5.46,0,0,1-.44-2.32A5.52,5.52,0,0,1,598,55a3.26,3.26,0,0,1,3.07-2A3.38,3.38,0,0,1,602.92,53.51Zm-3.53,1.26a4.37,4.37,0,0,0-.6,2.56,4.19,4.19,0,0,0,.61,2.53,2,2,0,0,0,1.68.8c1.53,0,2.3-1.11,2.3-3.35s-.77-3.36-2.3-3.36A2,2,0,0,0,599.39,54.77Z" style="fill:#7a40c6"/><path d="M607.82,63.32v.56h-.68v1.28h-.69V63.88h-2.22v-.51l1.56-3.47.6.25L605,63.32h1.47l.06-1.4h.62v1.4Z" style="fill:#7a40c6"/><path d="M401.4,52.58v8.31h-1.15V52.58Z" style="fill:#7a40c6"/><path d="M406.74,54.57a3.71,3.71,0,0,1,1,.54l-.47.7a4.24,4.24,0,0,0-.83-.41,2.83,2.83,0,0,0-.83-.13,1.54,1.54,0,0,0-.86.22.71.71,0,0,0-.31.61.69.69,0,0,0,.3.6,3.27,3.27,0,0,0,1.06.43,3.68,3.68,0,0,1,1.59.72,1.57,1.57,0,0,1,.53,1.25,1.65,1.65,0,0,1-.73,1.44,3.1,3.1,0,0,1-1.78.49A3.56,3.56,0,0,1,403,60.2l.59-.68a2.9,2.9,0,0,0,1.79.62,1.74,1.74,0,0,0,1-.26.83.83,0,0,0,.37-.71.91.91,0,0,0-.14-.52,1.09,1.09,0,0,0-.46-.35,5.7,5.7,0,0,0-.95-.32,3.2,3.2,0,0,1-1.47-.71,1.52,1.52,0,0,1-.45-1.13,1.48,1.48,0,0,1,.3-.9,1.88,1.88,0,0,1,.82-.63,3.14,3.14,0,0,1,1.18-.22A3.59,3.59,0,0,1,406.74,54.57Z" style="fill:#7a40c6"/><path d="M413.67,55.28a3.67,3.67,0,0,1,.75,2.42,4.37,4.37,0,0,1-.34,1.75,2.61,2.61,0,0,1-1,1.16,2.71,2.71,0,0,1-1.52.42,2.59,2.59,0,0,1-2.09-.89,3.65,3.65,0,0,1-.75-2.42,4.13,4.13,0,0,1,.34-1.74,2.52,2.52,0,0,1,1-1.17,2.72,2.72,0,0,1,1.53-.42A2.56,2.56,0,0,1,413.67,55.28Zm-3.63-2-.47-.54,1.63-1.37h.74l1.64,1.37-.48.54-1.52-1Zm-.1,4.47c0,1.61.54,2.42,1.64,2.42s1.64-.81,1.64-2.44-.54-2.42-1.63-2.42S409.94,56.1,409.94,57.72Z" style="fill:#7a40c6"/><path d="M423.8,54.92a2.05,2.05,0,0,1,.47,1.41v4.56h-1.11v-4.4q0-1.23-.9-1.23a1.18,1.18,0,0,0-.79.27,3.63,3.63,0,0,0-.7.85v4.51h-1.11v-4.4q0-1.23-.9-1.23a1.19,1.19,0,0,0-.81.28,4.06,4.06,0,0,0-.69.84v4.51h-1.11V54.54h1l.09.92A2.15,2.15,0,0,1,419,54.39a1.7,1.7,0,0,1,1,.3,1.72,1.72,0,0,1,.6.85,2.91,2.91,0,0,1,.82-.85,1.89,1.89,0,0,1,1.07-.3A1.63,1.63,0,0,1,423.8,54.92Z" style="fill:#7a40c6"/><path d="M431.57,58.09h-4.05a2.39,2.39,0,0,0,.53,1.54,1.53,1.53,0,0,0,1.18.5,2.57,2.57,0,0,0,.85-.14,3,3,0,0,0,.8-.42l.49.66a3.48,3.48,0,0,1-2.22.8,2.56,2.56,0,0,1-2.07-.87,3.52,3.52,0,0,1-.75-2.38,4.6,4.6,0,0,1,.32-1.76,2.71,2.71,0,0,1,.92-1.19,2.34,2.34,0,0,1,1.41-.44,2.37,2.37,0,0,1,1.94.83,3.56,3.56,0,0,1,.68,2.3A5.44,5.44,0,0,1,431.57,58.09Zm-1.07-.89a2.32,2.32,0,0,0-.38-1.43,1.3,1.3,0,0,0-1.12-.5c-.91,0-1.4.67-1.48,2h3Z" style="fill:#7a40c6"/><path d="M436.67,54.46l-.21,1.09a2.18,2.18,0,0,0-.55-.07,1.19,1.19,0,0,0-1,.43,3.17,3.17,0,0,0-.56,1.35v3.63h-1.11V54.54h1l.11,1.29a2.41,2.41,0,0,1,.69-1.08,1.52,1.52,0,0,1,1-.36A3,3,0,0,1,436.67,54.46Z" style="fill:#7a40c6"/><path d="M442.41,55.28a3.66,3.66,0,0,1,.74,2.42,4.2,4.2,0,0,1-.34,1.75,2.59,2.59,0,0,1-1,1.16,2.74,2.74,0,0,1-1.53.42,2.56,2.56,0,0,1-2.08-.89,3.65,3.65,0,0,1-.75-2.42,4.13,4.13,0,0,1,.34-1.74,2.56,2.56,0,0,1,1-1.17,2.75,2.75,0,0,1,1.54-.42A2.56,2.56,0,0,1,442.41,55.28Zm-3.74,2.44c0,1.61.55,2.42,1.64,2.42S442,59.33,442,57.7s-.55-2.42-1.63-2.42S438.67,56.1,438.67,57.72Z" style="fill:#7a40c6"/><path d="M447.79,54.57a3.71,3.71,0,0,1,1,.54l-.47.7a4.24,4.24,0,0,0-.83-.41,2.83,2.83,0,0,0-.83-.13,1.5,1.5,0,0,0-.85.22.72.72,0,0,0-.32.61.69.69,0,0,0,.3.6,3.35,3.35,0,0,0,1.07.43,3.74,3.74,0,0,1,1.59.72A1.56,1.56,0,0,1,449,59.1a1.62,1.62,0,0,1-.73,1.44,3.1,3.1,0,0,1-1.78.49,3.52,3.52,0,0,1-2.4-.83l.59-.68a2.88,2.88,0,0,0,1.78.62,1.74,1.74,0,0,0,1-.26.81.81,0,0,0,.37-.71.91.91,0,0,0-.13-.52,1.09,1.09,0,0,0-.46-.35,6.23,6.23,0,0,0-1-.32,3.15,3.15,0,0,1-1.46-.71,1.49,1.49,0,0,1-.46-1.13,1.48,1.48,0,0,1,.3-.9,1.94,1.94,0,0,1,.82-.63,3.14,3.14,0,0,1,1.18-.22A3.59,3.59,0,0,1,447.79,54.57Z" style="fill:#7a40c6"/><path d="M405.83,76.05v8.06h-1.11V77.23l-1.89,1.14-.48-.78,2.5-1.54Z" style="fill:#7a40c6"/><path d="M412.45,77a7.36,7.36,0,0,1,0,6.18,2.44,2.44,0,0,1-4,0,7.26,7.26,0,0,1,0-6.18,2.44,2.44,0,0,1,4,0Zm-3.19.58a6.11,6.11,0,0,0-.38,2.51,6.17,6.17,0,0,0,.38,2.51,1.27,1.27,0,0,0,2.33,0,6,6,0,0,0,.38-2.51,5.92,5.92,0,0,0-.38-2.5,1.26,1.26,0,0,0-2.33,0Z" style="fill:#7a40c6"/><path d="M419.09,77a7.36,7.36,0,0,1,0,6.18,2.44,2.44,0,0,1-4,0,7.36,7.36,0,0,1,0-6.18,2.44,2.44,0,0,1,4,0Zm-3.19.58a6.11,6.11,0,0,0-.38,2.51,6.17,6.17,0,0,0,.38,2.51,1.27,1.27,0,0,0,2.33,0,6,6,0,0,0,.39-2.51,5.89,5.89,0,0,0-.39-2.5,1.26,1.26,0,0,0-2.33,0Z" style="fill:#7a40c6"/><path d="M429.19,83.2a.8.8,0,0,0,.4.28l-.25.77a1.76,1.76,0,0,1-.8-.27,1.32,1.32,0,0,1-.45-.68,2.1,2.1,0,0,1-1.89,1,2,2,0,0,1-1.49-.53,2,2,0,0,1,.19-2.94,3.44,3.44,0,0,1,2.07-.54h1v-.47a1.21,1.21,0,0,0-.33-1,1.47,1.47,0,0,0-1-.29,5.41,5.41,0,0,0-1.71.34l-.28-.81a6.39,6.39,0,0,1,2.2-.43,2.31,2.31,0,0,1,1.67.54,2.11,2.11,0,0,1,.56,1.56v2.91A1,1,0,0,0,429.19,83.2ZM428,82.43V81h-.83c-1.18,0-1.77.43-1.77,1.3a1.19,1.19,0,0,0,.28.85,1.07,1.07,0,0,0,.82.29A1.66,1.66,0,0,0,428,82.43Z" style="fill:#7a40c6"/><path d="M434.46,83.82a2.46,2.46,0,0,1-1.43.43,1.67,1.67,0,0,1-1.26-.46,1.86,1.86,0,0,1-.45-1.34V78.62h-1.11v-.86h1.11V76.33l1.11-.14v1.57h1.51l-.12.86h-1.39V82.4a1.17,1.17,0,0,0,.17.71.72.72,0,0,0,.59.23,1.86,1.86,0,0,0,.85-.26Z" style="fill:#7a40c6"/><path d="M443.33,78.14a2,2,0,0,1,.47,1.42v4.55h-1.11v-4.4c0-.82-.3-1.23-.89-1.23a1.21,1.21,0,0,0-.8.27,4.11,4.11,0,0,0-.7.85v4.51h-1.11v-4.4c0-.82-.3-1.23-.89-1.23a1.24,1.24,0,0,0-.81.28,3.72,3.72,0,0,0-.69.84v4.51h-1.11V77.76h.95l.1.93a2.12,2.12,0,0,1,1.84-1.07,1.6,1.6,0,0,1,1.6,1.14,3.06,3.06,0,0,1,.83-.85,1.89,1.89,0,0,1,1.07-.29A1.59,1.59,0,0,1,443.33,78.14Z" style="fill:#7a40c6"/><path d="M409.56,94.55v8.06h-1.11V95.73l-1.89,1.14-.48-.78,2.5-1.54Z" style="fill:#7a40c6"/><path d="M414.82,94.72a2.09,2.09,0,0,1,.85.79,2.13,2.13,0,0,1,.3,1.12,3.17,3.17,0,0,1-.33,1.41,6.73,6.73,0,0,1-1,1.46c-.46.52-1.16,1.25-2.09,2.18h3.63l-.13.93h-4.77v-.88c1.08-1.12,1.84-1.93,2.29-2.45a6.77,6.77,0,0,0,1-1.36,2.76,2.76,0,0,0,.29-1.24,1.24,1.24,0,0,0-1.33-1.34,1.75,1.75,0,0,0-.87.21,3.24,3.24,0,0,0-.79.67l-.73-.57a3.36,3.36,0,0,1,1.1-.92,3,3,0,0,1,1.35-.3A2.75,2.75,0,0,1,414.82,94.72Z" style="fill:#7a40c6"/><path d="M421.74,95.42h-3.15v2.37a2.79,2.79,0,0,1,1.29-.31,2.15,2.15,0,0,1,1.67.68,2.64,2.64,0,0,1,.62,1.87,2.9,2.9,0,0,1-.34,1.42,2.54,2.54,0,0,1-1,1,3.39,3.39,0,0,1-2.78.08,3.38,3.38,0,0,1-1.08-.76l.65-.64a2.7,2.7,0,0,0,.8.57,2.18,2.18,0,0,0,.93.19,1.58,1.58,0,0,0,1.22-.48A2,2,0,0,0,421,100a1.77,1.77,0,0,0-.4-1.28,1.46,1.46,0,0,0-1.08-.4,2.15,2.15,0,0,0-.58.07,2.61,2.61,0,0,0-.56.21h-.87V94.55h4.37Z" style="fill:#7a40c6"/><path d="M429.18,93.54a2.42,2.42,0,0,1,.47,1.56,2.8,2.8,0,0,1-.21,1.12,1.79,1.79,0,0,1-.63.75,1.76,1.76,0,0,1-1,.27,1.62,1.62,0,0,1-1.34-.58,2.34,2.34,0,0,1-.49-1.55,2.8,2.8,0,0,1,.22-1.12,1.79,1.79,0,0,1,.63-.75,1.77,1.77,0,0,1,1-.27A1.66,1.66,0,0,1,429.18,93.54Zm-2.41,1.57c0,1,.36,1.55,1.06,1.55s1.05-.52,1.05-1.56-.34-1.56-1-1.56S426.77,94.07,426.77,95.11Z" style="fill:#7a40c6"/><path d="M435.25,94.36a3.48,3.48,0,0,1,1,.62l-.63.74a2.5,2.5,0,0,0-1.6-.62,2.05,2.05,0,0,0-1.68.8,5.44,5.44,0,0,0,0,5.08,2,2,0,0,0,1.66.81,2.2,2.2,0,0,0,.93-.18,4.66,4.66,0,0,0,.85-.51l.57.73a3.29,3.29,0,0,1-1,.66,3.59,3.59,0,0,1-1.39.26,3.19,3.19,0,0,1-3-2,5.63,5.63,0,0,1-.44-2.33,5.38,5.38,0,0,1,.46-2.33,3.39,3.39,0,0,1,1.24-1.46,3.24,3.24,0,0,1,1.75-.5A3.64,3.64,0,0,1,435.25,94.36Z" style="fill:#7a40c6"/><path d="M500.63,135.3a3.82,3.82,0,0,1,1.15.73l-.63.69a3.6,3.6,0,0,0-.93-.54,2.58,2.58,0,0,0-1-.18,1.8,1.8,0,0,0-1.07.3,1,1,0,0,0-.42.88,1.15,1.15,0,0,0,.14.61,1.32,1.32,0,0,0,.54.45,7.21,7.21,0,0,0,1.14.44,7.66,7.66,0,0,1,1.3.51,2.23,2.23,0,0,1,.84.77,2.15,2.15,0,0,1,.32,1.23,2.36,2.36,0,0,1-.35,1.28,2.4,2.4,0,0,1-1,.87,3.73,3.73,0,0,1-1.59.31,3.88,3.88,0,0,1-2.82-1.07l.62-.7a4.15,4.15,0,0,0,1,.62,3.07,3.07,0,0,0,1.16.21,2.11,2.11,0,0,0,1.28-.38,1.28,1.28,0,0,0,.51-1.1,1.39,1.39,0,0,0-.16-.68,1.45,1.45,0,0,0-.54-.49,5.47,5.47,0,0,0-1.1-.43,4.83,4.83,0,0,1-1.87-.93,1.88,1.88,0,0,1-.6-1.47,2,2,0,0,1,.34-1.12,2.15,2.15,0,0,1,.93-.77,3.08,3.08,0,0,1,1.35-.28A3.82,3.82,0,0,1,500.63,135.3Z" style="fill:#7a40c6"/><path d="M508.09,142.6a.8.8,0,0,0,.4.28l-.25.77a1.65,1.65,0,0,1-.8-.28,1.29,1.29,0,0,1-.45-.67,2.14,2.14,0,0,1-1.89,1,2.05,2.05,0,0,1-1.49-.53,1.84,1.84,0,0,1-.54-1.38,1.81,1.81,0,0,1,.73-1.56,3.44,3.44,0,0,1,2.07-.54h1v-.47a1.21,1.21,0,0,0-.33-1,1.44,1.44,0,0,0-1-.29,5.76,5.76,0,0,0-1.72.33l-.27-.8a6.41,6.41,0,0,1,2.19-.44,2.33,2.33,0,0,1,1.68.55,2.11,2.11,0,0,1,.56,1.56V142A1,1,0,0,0,508.09,142.6Zm-1.24-.77v-1.46H506c-1.17,0-1.76.44-1.76,1.31a1.16,1.16,0,0,0,.28.85,1.09,1.09,0,0,0,.82.29A1.67,1.67,0,0,0,506.85,141.83Z" style="fill:#7a40c6"/><path d="M510.44,143.28a1.4,1.4,0,0,1-.36-1V134.6l1.11-.13v7.76a.56.56,0,0,0,.1.38.35.35,0,0,0,.3.12,1,1,0,0,0,.41-.07l.29.77a1.74,1.74,0,0,1-.88.22A1.27,1.27,0,0,1,510.44,143.28Z" style="fill:#7a40c6"/><path d="M515,134.33a.7.7,0,0,1,.22.54.68.68,0,0,1-.22.53.73.73,0,0,1-.56.22.75.75,0,0,1-.56-.22.72.72,0,0,1-.22-.53.75.75,0,0,1,.78-.76A.73.73,0,0,1,515,134.33Zm0,2.83v6.35h-1.11v-6.35Z" style="fill:#7a40c6"/><path d="M520.81,137.18a2.77,2.77,0,0,1,.9.52l-.53.7a2.88,2.88,0,0,0-.66-.36,2.23,2.23,0,0,0-.7-.11,1.39,1.39,0,0,0-1.21.61,3.24,3.24,0,0,0-.42,1.82,3,3,0,0,0,.42,1.78,1.41,1.41,0,0,0,1.21.57,2.15,2.15,0,0,0,.68-.11,3.43,3.43,0,0,0,.7-.37l.51.72a3,3,0,0,1-1.94.7,2.55,2.55,0,0,1-2-.87,3.56,3.56,0,0,1-.74-2.39,4.2,4.2,0,0,1,.34-1.77,2.62,2.62,0,0,1,1-1.18,2.51,2.51,0,0,1,1.48-.43A3.15,3.15,0,0,1,520.81,137.18Z" style="fill:#7a40c6"/><path d="M524.33,134.33a.7.7,0,0,1,.22.54.68.68,0,0,1-.22.53.74.74,0,0,1-.57.22.72.72,0,0,1-.55-.22.68.68,0,0,1-.22-.53.7.7,0,0,1,.22-.54.72.72,0,0,1,.55-.22A.74.74,0,0,1,524.33,134.33Zm0,2.83v6.35h-1.11v-6.35Z" style="fill:#7a40c6"/><path d="M527.1,143.28a1.4,1.4,0,0,1-.35-1V134.6l1.11-.13v7.76a.62.62,0,0,0,.09.38.35.35,0,0,0,.3.12,1.12,1.12,0,0,0,.42-.07l.29.77a1.78,1.78,0,0,1-.89.22A1.27,1.27,0,0,1,527.1,143.28Z" style="fill:#7a40c6"/><path d="M534.94,142.6a.85.85,0,0,0,.4.28l-.25.77a1.65,1.65,0,0,1-.8-.28,1.22,1.22,0,0,1-.44-.67,2.15,2.15,0,0,1-1.9,1,2.07,2.07,0,0,1-1.49-.53,2,2,0,0,1,.19-2.94,3.44,3.44,0,0,1,2.07-.54h1v-.47a1.25,1.25,0,0,0-.32-1,1.47,1.47,0,0,0-1-.29,5.71,5.71,0,0,0-1.71.33l-.28-.8a6.41,6.41,0,0,1,2.2-.44,2.33,2.33,0,0,1,1.68.55,2.11,2.11,0,0,1,.55,1.56V142A1.09,1.09,0,0,0,534.94,142.6Zm-1.24-.77v-1.46h-.83c-1.18,0-1.77.44-1.77,1.31a1.21,1.21,0,0,0,.28.85,1.11,1.11,0,0,0,.82.29A1.66,1.66,0,0,0,533.7,141.83Z" style="fill:#7a40c6"/><path d="M540.21,143.22a2.43,2.43,0,0,1-1.42.43,1.71,1.71,0,0,1-1.27-.46,1.87,1.87,0,0,1-.45-1.35V138H536v-.85h1.11v-1.44l1.11-.13v1.57h1.51l-.12.85h-1.39v3.79a1.12,1.12,0,0,0,.18.71.68.68,0,0,0,.58.22,1.84,1.84,0,0,0,.85-.25Z" style="fill:#7a40c6"/><path d="M545.91,137.9a3.68,3.68,0,0,1,.75,2.43,4.32,4.32,0,0,1-.34,1.74,2.61,2.61,0,0,1-1,1.16,2.71,2.71,0,0,1-1.52.42,2.59,2.59,0,0,1-2.09-.89,3.63,3.63,0,0,1-.75-2.42,4.13,4.13,0,0,1,.34-1.74,2.62,2.62,0,0,1,1-1.17,2.72,2.72,0,0,1,1.53-.42A2.56,2.56,0,0,1,545.91,137.9Zm-3.73,2.44c0,1.61.54,2.42,1.64,2.42s1.64-.81,1.64-2.43-.54-2.43-1.63-2.43S542.18,138.72,542.18,140.34Z" style="fill:#7a40c6"/><path d="M505.75,152.61v8.9h-1l-.11-.88a2.32,2.32,0,0,1-.78.75,2.2,2.2,0,0,1-2.82-.62,4,4,0,0,1-.64-2.39,4.74,4.74,0,0,1,.3-1.74,2.74,2.74,0,0,1,.87-1.19,2.17,2.17,0,0,1,1.33-.42,2.32,2.32,0,0,1,1.72.78v-3.32Zm-1.81,7.93a2.89,2.89,0,0,0,.7-.7v-3.11a2.3,2.3,0,0,0-.68-.62,1.52,1.52,0,0,0-.8-.21,1.28,1.28,0,0,0-1.14.61,3.36,3.36,0,0,0-.4,1.83,3.53,3.53,0,0,0,.37,1.83,1.21,1.21,0,0,0,1.08.61A1.58,1.58,0,0,0,503.94,160.54Z" style="fill:#7a40c6"/><path d="M512.73,158.72h-4.06a2.47,2.47,0,0,0,.53,1.54,1.54,1.54,0,0,0,1.18.49,2.57,2.57,0,0,0,.85-.13,3.7,3.7,0,0,0,.81-.42l.48.66a3.53,3.53,0,0,1-2.22.79,2.55,2.55,0,0,1-2.07-.86,3.54,3.54,0,0,1-.74-2.39,4.55,4.55,0,0,1,.31-1.75,2.8,2.8,0,0,1,.92-1.2,2.62,2.62,0,0,1,3.35.4,3.54,3.54,0,0,1,.68,2.3C512.75,158.33,512.74,158.52,512.73,158.72Zm-1.08-.9a2.34,2.34,0,0,0-.37-1.43,1.33,1.33,0,0,0-1.13-.49c-.91,0-1.4.66-1.48,2h3Z" style="fill:#7a40c6"/><path d="M520.61,155.2a3.43,3.43,0,0,1,1,.54l-.47.7a3.74,3.74,0,0,0-.83-.41,2.53,2.53,0,0,0-.83-.13,1.43,1.43,0,0,0-.85.22.71.71,0,0,0-.32.61.7.7,0,0,0,.3.6,3.65,3.65,0,0,0,1.07.42,3.93,3.93,0,0,1,1.59.72,1.59,1.59,0,0,1,.52,1.26,1.62,1.62,0,0,1-.73,1.43,3.1,3.1,0,0,1-1.78.49,3.47,3.47,0,0,1-2.4-.83l.59-.67a2.87,2.87,0,0,0,1.79.61,1.64,1.64,0,0,0,1-.26.79.79,0,0,0,.37-.7.89.89,0,0,0-.13-.52,1,1,0,0,0-.46-.35,6.23,6.23,0,0,0-1-.32,3.36,3.36,0,0,1-1.46-.71,1.51,1.51,0,0,1-.46-1.14,1.45,1.45,0,0,1,.3-.89,1.94,1.94,0,0,1,.82-.63,3,3,0,0,1,1.18-.22A3.59,3.59,0,0,1,520.61,155.2Z" style="fill:#7a40c6"/><path d="M527.55,155.91a3.68,3.68,0,0,1,.74,2.42,4.13,4.13,0,0,1-.34,1.74,2.62,2.62,0,0,1-1,1.17,2.68,2.68,0,0,1-1.52.41,2.57,2.57,0,0,1-2.09-.89,3.63,3.63,0,0,1-.75-2.42,4.29,4.29,0,0,1,.34-1.74,2.69,2.69,0,0,1,1-1.17,2.82,2.82,0,0,1,1.53-.41A2.56,2.56,0,0,1,527.55,155.91Zm-3.74,2.43c0,1.62.55,2.42,1.64,2.42s1.64-.81,1.64-2.43-.54-2.42-1.63-2.42S523.81,156.72,523.81,158.34Zm2.6-6.48.49.93-2.56,1-.34-.59Z" style="fill:#7a40c6"/><path d="M535,152.61v8.9h-1l-.11-.88a2.26,2.26,0,0,1-.79.75,2,2,0,0,1-1.05.27,2.05,2.05,0,0,1-1.77-.89,4.05,4.05,0,0,1-.63-2.39,4.74,4.74,0,0,1,.3-1.74,2.74,2.74,0,0,1,.87-1.19,2.17,2.17,0,0,1,1.33-.42,2.28,2.28,0,0,1,1.71.78v-3.32Zm-1.81,7.93a2.73,2.73,0,0,0,.7-.7v-3.11a2.27,2.27,0,0,0-.67-.62,1.52,1.52,0,0,0-.8-.21,1.28,1.28,0,0,0-1.14.61,3.36,3.36,0,0,0-.4,1.83,3.53,3.53,0,0,0,.37,1.83,1.2,1.2,0,0,0,1.07.61A1.53,1.53,0,0,0,533.14,160.54Z" style="fill:#7a40c6"/><path d="M538.26,152.33a.73.73,0,0,1,.22.54.7.7,0,0,1-.22.54.76.76,0,0,1-.56.21.78.78,0,0,1-.56-.21.74.74,0,0,1-.22-.54.77.77,0,0,1,.22-.54.79.79,0,0,1,.56-.22A.77.77,0,0,1,538.26,152.33Zm0,2.83v6.35h-1.11v-6.35Z" style="fill:#7a40c6"/><path d="M545.21,155.91a3.63,3.63,0,0,1,.74,2.42,4.29,4.29,0,0,1-.33,1.74,2.76,2.76,0,0,1-1,1.17,2.73,2.73,0,0,1-1.52.41,2.56,2.56,0,0,1-2.09-.89,3.63,3.63,0,0,1-.75-2.42,4.13,4.13,0,0,1,.34-1.74,2.67,2.67,0,0,1,1-1.17,2.83,2.83,0,0,1,1.54-.41A2.54,2.54,0,0,1,545.21,155.91Zm-3.74,2.43c0,1.62.55,2.42,1.65,2.42s1.64-.81,1.64-2.43-.54-2.42-1.63-2.42S541.47,156.72,541.47,158.34Z" style="fill:#7a40c6"/><path d="M493.71,172.2V174h1.76v.92h-1.76v1.79h-1v-1.79h-1.75V174h1.75V172.2Z" style="fill:#7a40c6"/><path d="M505,170.2a3.8,3.8,0,0,1,1.05.63l-.63.74a2.53,2.53,0,0,0-1.61-.62,2,2,0,0,0-1.67.8,5.42,5.42,0,0,0,0,5.07,2,2,0,0,0,1.66.82,2.2,2.2,0,0,0,.93-.18,4.66,4.66,0,0,0,.85-.51l.57.72a3.14,3.14,0,0,1-1,.67,3.59,3.59,0,0,1-1.39.26,3.35,3.35,0,0,1-1.81-.5,3.21,3.21,0,0,1-1.23-1.47,5.66,5.66,0,0,1-.44-2.33,5.35,5.35,0,0,1,.46-2.33,3.33,3.33,0,0,1,1.24-1.46,3.22,3.22,0,0,1,1.75-.5A3.8,3.8,0,0,1,505,170.2Z" style="fill:#7a40c6"/><path d="M510.47,178.94a1.32,1.32,0,0,1,.52.55,1.94,1.94,0,0,1,.19.91,2,2,0,0,1-.22,1,1.55,1.55,0,0,1-.59.65,1.63,1.63,0,0,1-.84.23,1.45,1.45,0,0,1-1.33-.67,3.47,3.47,0,0,1-.42-1.85,4.23,4.23,0,0,1,.24-1.49,2.33,2.33,0,0,1,.68-1,1.66,1.66,0,0,1,1.05-.35,1.92,1.92,0,0,1,1.07.32l-.28.47a1.49,1.49,0,0,0-.8-.23,1,1,0,0,0-.88.54,2.89,2.89,0,0,0-.36,1.43,1.48,1.48,0,0,1,1.25-.68A1.39,1.39,0,0,1,510.47,178.94Zm-.25,2.4a1.55,1.55,0,0,0,.24-.92c0-.73-.28-1.1-.84-1.1a1.08,1.08,0,0,0-.62.19,1.45,1.45,0,0,0-.49.52,2.59,2.59,0,0,0,.26,1.25.84.84,0,0,0,.76.41A.79.79,0,0,0,510.22,181.34Z" style="fill:#7a40c6"/><path d="M517.54,178.46v-3.89H514v3.89H512.9v-8.3H514v3.47h3.5v-3.47h1.15v8.3Z" style="fill:#7a40c6"/><path d="M523.55,177.53h-2v1.53a1.85,1.85,0,0,1,.83-.2,1.37,1.37,0,0,1,1.07.44,1.69,1.69,0,0,1,.4,1.2,1.83,1.83,0,0,1-.22.91,1.57,1.57,0,0,1-.63.62,2,2,0,0,1-1,.22,2,2,0,0,1-.84-.17,2.14,2.14,0,0,1-.69-.49l.42-.41a1.58,1.58,0,0,0,.51.37,1.4,1.4,0,0,0,.6.12,1,1,0,0,0,.77-.31,1.26,1.26,0,0,0,.29-.88,1.14,1.14,0,0,0-.26-.82.93.93,0,0,0-.69-.25,1.45,1.45,0,0,0-.37,0,2.48,2.48,0,0,0-.37.14h-.56V177h2.82Z" style="fill:#7a40c6"/><path d="M530.63,170.51a3.27,3.27,0,0,1,1.23,1.47,6.36,6.36,0,0,1,0,4.65,3.32,3.32,0,0,1-1.23,1.47,3.67,3.67,0,0,1-3.68,0,3.24,3.24,0,0,1-1.23-1.46,6.34,6.34,0,0,1,0-4.64,3.32,3.32,0,0,1,1.23-1.49,3.6,3.6,0,0,1,3.68,0Zm-3.53,1.26a4.36,4.36,0,0,0-.6,2.55,4.25,4.25,0,0,0,.6,2.53,2,2,0,0,0,1.69.81c1.53,0,2.29-1.11,2.29-3.35s-.76-3.36-2.29-3.36A2,2,0,0,0,527.1,171.77Z" style="fill:#7a40c6"/><path d="M540.09,178.46h-1.53l-3.38-7.05c0,.55.08,1.07.11,1.53s0,1,0,1.71v3.81h-1.07v-8.3h1.5l3.41,7.06c0-.21,0-.58-.09-1.1s-.06-1-.06-1.43v-4.53h1.07Z" style="fill:#7a40c6"/><path d="M546.78,177.55a.8.8,0,0,0,.4.28l-.26.77a1.61,1.61,0,0,1-.79-.28,1.29,1.29,0,0,1-.45-.67,2.15,2.15,0,0,1-1.89.95,2.05,2.05,0,0,1-1.49-.53,1.84,1.84,0,0,1-.54-1.38,1.81,1.81,0,0,1,.73-1.56,3.42,3.42,0,0,1,2.07-.54h1v-.47a1.21,1.21,0,0,0-.33-1,1.44,1.44,0,0,0-1-.29,5.76,5.76,0,0,0-1.72.33l-.27-.8a6.36,6.36,0,0,1,2.19-.44,2.33,2.33,0,0,1,1.68.55,2.11,2.11,0,0,1,.56,1.56V177A1,1,0,0,0,546.78,177.55Zm-1.24-.77v-1.46h-.84c-1.17,0-1.76.44-1.76,1.31a1.16,1.16,0,0,0,.28.85,1.09,1.09,0,0,0,.82.29A1.68,1.68,0,0,0,545.54,176.78Z" style="fill:#7a40c6"/><path d="M641.29,115.78l-.63-2.08h-3.15l-.63,2.08h-1.15l2.66-8.3h1.45l2.66,8.3Zm-1.21-11,.49.92-2.61,1-.29-.59Zm-2.29,8h2.6l-1.3-4.34Z" style="fill:#7a40c6"/><path d="M647.08,109.45a3,3,0,0,1,.9.52l-.53.7a2.49,2.49,0,0,0-.66-.35,2,2,0,0,0-.7-.12,1.4,1.4,0,0,0-1.21.62,3.22,3.22,0,0,0-.42,1.82,3,3,0,0,0,.42,1.77,1.41,1.41,0,0,0,1.21.57,1.9,1.9,0,0,0,.68-.11,3.43,3.43,0,0,0,.7-.37l.51.73a3.05,3.05,0,0,1-1.94.69,2.55,2.55,0,0,1-2-.86,3.61,3.61,0,0,1-.74-2.4,4.24,4.24,0,0,1,.34-1.77,2.62,2.62,0,0,1,1-1.18,2.58,2.58,0,0,1,1.48-.42A3.15,3.15,0,0,1,647.08,109.45Z" style="fill:#7a40c6"/><path d="M650.6,106.6a.72.72,0,0,1,.22.54.7.7,0,0,1-.22.54.77.77,0,0,1-.57.21.75.75,0,0,1-.55-.21.7.7,0,0,1-.22-.54.72.72,0,0,1,.22-.54.76.76,0,0,1,.55-.22A.78.78,0,0,1,650.6,106.6Zm0,2.83v6.35h-1.11v-6.35Z" style="fill:#7a40c6"/><path d="M658,106.88v8.9h-1l-.11-.88a2.26,2.26,0,0,1-.79.75,2.05,2.05,0,0,1-1,.27,2,2,0,0,1-1.77-.89,4.05,4.05,0,0,1-.63-2.39,4.7,4.7,0,0,1,.3-1.74,2.74,2.74,0,0,1,.87-1.19,2.17,2.17,0,0,1,1.33-.42,2.28,2.28,0,0,1,1.71.78v-3.33Zm-1.81,7.93a2.73,2.73,0,0,0,.7-.7V111a2.27,2.27,0,0,0-.67-.62,1.54,1.54,0,0,0-.8-.21,1.28,1.28,0,0,0-1.14.61,3.35,3.35,0,0,0-.41,1.83,3.52,3.52,0,0,0,.38,1.83,1.2,1.2,0,0,0,1.07.61A1.53,1.53,0,0,0,656.19,114.81Z" style="fill:#7a40c6"/><path d="M664.67,110.18a3.63,3.63,0,0,1,.75,2.42,4.29,4.29,0,0,1-.34,1.74,2.58,2.58,0,0,1-2.5,1.58,2.57,2.57,0,0,1-2.09-.89,3.63,3.63,0,0,1-.75-2.42,4.13,4.13,0,0,1,.34-1.74,2.69,2.69,0,0,1,1-1.17,2.8,2.8,0,0,1,1.53-.41A2.52,2.52,0,0,1,664.67,110.18Zm-3.73,2.43c0,1.62.54,2.42,1.64,2.42s1.64-.81,1.64-2.43-.54-2.42-1.63-2.42S660.94,111,660.94,112.61Z" style="fill:#7a40c6"/><path d="M673.34,109.47a3.71,3.71,0,0,1,1,.54l-.47.7a3.74,3.74,0,0,0-.83-.41,2.53,2.53,0,0,0-.83-.13,1.41,1.41,0,0,0-.85.22.75.75,0,0,0,0,1.21,3.53,3.53,0,0,0,1.07.42,4,4,0,0,1,1.58.72,1.6,1.6,0,0,1,.53,1.26,1.62,1.62,0,0,1-.73,1.43,3.1,3.1,0,0,1-1.78.49,3.51,3.51,0,0,1-2.41-.83l.6-.67A2.87,2.87,0,0,0,672,115a1.67,1.67,0,0,0,1-.26.82.82,0,0,0,.37-.7,1,1,0,0,0-.13-.52,1.08,1.08,0,0,0-.46-.35,6.23,6.23,0,0,0-1-.32,3.36,3.36,0,0,1-1.46-.71,1.51,1.51,0,0,1-.46-1.14,1.43,1.43,0,0,1,.3-.89,1.94,1.94,0,0,1,.82-.63,3,3,0,0,1,1.18-.22A3.59,3.59,0,0,1,673.34,109.47Z" style="fill:#7a40c6"/><path d="M680.22,114.87a.8.8,0,0,0,.4.28l-.26.77a1.71,1.71,0,0,1-.79-.27,1.32,1.32,0,0,1-.45-.68,2.12,2.12,0,0,1-1.89,1,2,2,0,0,1-1.49-.53,2,2,0,0,1,.19-2.94,3.4,3.4,0,0,1,2.07-.54h1v-.47a1.21,1.21,0,0,0-.33-1,1.49,1.49,0,0,0-1-.29,5.51,5.51,0,0,0-1.72.34l-.27-.81a6.33,6.33,0,0,1,2.19-.43,2.32,2.32,0,0,1,1.68.54,2.12,2.12,0,0,1,.56,1.57v2.9A1,1,0,0,0,680.22,114.87Zm-1.24-.76v-1.46h-.84c-1.17,0-1.76.43-1.76,1.3a1.15,1.15,0,0,0,.28.85,1.05,1.05,0,0,0,.82.29A1.68,1.68,0,0,0,679,114.11Z" style="fill:#7a40c6"/><path d="M682.57,115.56a1.42,1.42,0,0,1-.36-1v-7.65l1.11-.14v7.76a.66.66,0,0,0,.09.39.37.37,0,0,0,.31.12,1.3,1.3,0,0,0,.41-.07l.29.77a1.84,1.84,0,0,1-.88.21A1.31,1.31,0,0,1,682.57,115.56Z" style="fill:#7a40c6"/><path d="M687.1,106.6a.72.72,0,0,1,.22.54.7.7,0,0,1-.22.54.76.76,0,0,1-.56.21.78.78,0,0,1-.56-.21.7.7,0,0,1-.22-.54.72.72,0,0,1,.22-.54.79.79,0,0,1,.56-.22A.77.77,0,0,1,687.1,106.6Zm0,2.83v6.35H686v-6.35Z" style="fill:#7a40c6"/><path d="M692.93,109.45a2.89,2.89,0,0,1,.91.52l-.53.7a2.66,2.66,0,0,0-.66-.35,2,2,0,0,0-.71-.12,1.39,1.39,0,0,0-1.2.62,3.21,3.21,0,0,0-.43,1.82,3,3,0,0,0,.43,1.77,1.4,1.4,0,0,0,1.2.57,1.92,1.92,0,0,0,.69-.11,3.43,3.43,0,0,0,.7-.37l.51.73a3.05,3.05,0,0,1-1.94.69,2.53,2.53,0,0,1-2-.86,3.61,3.61,0,0,1-.74-2.4,4.24,4.24,0,0,1,.34-1.77,2.62,2.62,0,0,1,1-1.18,2.55,2.55,0,0,1,1.48-.42A3.09,3.09,0,0,1,692.93,109.45Z" style="fill:#7a40c6"/><path d="M696.86,106.13l.49.93-2.56,1-.33-.59Zm-.4,3.3v6.35h-1.11v-6.35Z" style="fill:#7a40c6"/><path d="M699.13,115.56a1.46,1.46,0,0,1-.35-1v-7.65l1.11-.14v7.76a.66.66,0,0,0,.09.39.36.36,0,0,0,.31.12,1.3,1.3,0,0,0,.41-.07l.29.77a1.87,1.87,0,0,1-.88.21A1.33,1.33,0,0,1,699.13,115.56Z" style="fill:#7a40c6"/><path d="M703.67,106.6a.76.76,0,0,1,.22.54.74.74,0,0,1-.22.54.87.87,0,0,1-1.13,0,.73.73,0,0,1-.21-.54.75.75,0,0,1,.21-.54.84.84,0,0,1,1.13,0Zm0,2.83v6.35h-1.11v-6.35Z" style="fill:#7a40c6"/><path d="M709.5,109.45a3,3,0,0,1,.91.52l-.54.7a2.45,2.45,0,0,0-.65-.35,2,2,0,0,0-.71-.12,1.37,1.37,0,0,0-1.2.62,3.14,3.14,0,0,0-.43,1.82,3,3,0,0,0,.42,1.77,1.42,1.42,0,0,0,1.21.57,1.92,1.92,0,0,0,.69-.11,3.7,3.7,0,0,0,.7-.37l.51.73a3.06,3.06,0,0,1-1.95.69,2.51,2.51,0,0,1-2-.86,3.56,3.56,0,0,1-.75-2.4,4.4,4.4,0,0,1,.34-1.77,2.76,2.76,0,0,1,1-1.18,2.6,2.6,0,0,1,1.48-.42A3.11,3.11,0,0,1,709.5,109.45Z" style="fill:#7a40c6"/><path d="M716.39,110.18a3.68,3.68,0,0,1,.74,2.42,4.13,4.13,0,0,1-.34,1.74,2.62,2.62,0,0,1-1,1.17,2.68,2.68,0,0,1-1.52.41,2.57,2.57,0,0,1-2.09-.89,3.68,3.68,0,0,1-.74-2.42,4.29,4.29,0,0,1,.33-1.74,2.69,2.69,0,0,1,1-1.17,2.83,2.83,0,0,1,1.54-.41A2.55,2.55,0,0,1,716.39,110.18Zm-3.74,2.43c0,1.62.55,2.42,1.64,2.42s1.65-.81,1.65-2.43-.55-2.42-1.63-2.42S712.65,111,712.65,112.61Z" style="fill:#7a40c6"/><path d="M653.64,126v1.81h1.76v.91h-1.76v1.8h-1v-1.8h-1.75v-.91h1.75V126Z" style="fill:#7a40c6"/><path d="M666.61,132.28h-1.53l-3.38-7c0,.56.08,1.07.11,1.54s0,1,0,1.71v3.8h-1.07V124h1.5l3.41,7.06c0-.21-.05-.57-.09-1.1s-.06-1-.06-1.43V124h1.07Z" style="fill:#7a40c6"/><path d="M673.3,131.37a.82.82,0,0,0,.4.29l-.26.77a1.72,1.72,0,0,1-.79-.28,1.32,1.32,0,0,1-.45-.68,2.14,2.14,0,0,1-1.9,1,2,2,0,0,1-1.48-.53,1.88,1.88,0,0,1-.54-1.39A1.81,1.81,0,0,1,669,129a3.4,3.4,0,0,1,2.07-.55h1v-.47a1.22,1.22,0,0,0-.32-1,1.49,1.49,0,0,0-1-.29A5.51,5.51,0,0,0,669,127l-.28-.81a6.43,6.43,0,0,1,2.2-.43,2.28,2.28,0,0,1,1.68.55,2.08,2.08,0,0,1,.56,1.56v2.9A1,1,0,0,0,673.3,131.37Zm-1.25-.76v-1.46h-.83c-1.17,0-1.76.43-1.76,1.3a1.19,1.19,0,0,0,.28.86,1.09,1.09,0,0,0,.82.29A1.65,1.65,0,0,0,672.05,130.61Z" style="fill:#7a40c6"/><path d="M677.13,130.37a1.37,1.37,0,0,1,.54.5,1.4,1.4,0,0,1,.2.73,1.93,1.93,0,0,1-.22.9,4.57,4.57,0,0,1-.65.94c-.3.34-.74.8-1.34,1.4H678l-.08.6h-3.07v-.57c.69-.72,1.19-1.24,1.48-1.57a5.2,5.2,0,0,0,.62-.87,1.84,1.84,0,0,0,.18-.8.85.85,0,0,0-.23-.63.82.82,0,0,0-.62-.23,1.13,1.13,0,0,0-.56.13,2.08,2.08,0,0,0-.51.43l-.47-.37a2.17,2.17,0,0,1,.71-.59,1.92,1.92,0,0,1,.87-.19A1.68,1.68,0,0,1,677.13,130.37Z" style="fill:#7a40c6"/><path d="M683.38,124.07a4,4,0,0,1,1.15.73l-.63.7A3.65,3.65,0,0,0,683,125a2.57,2.57,0,0,0-1-.17,1.8,1.8,0,0,0-1.07.3,1,1,0,0,0-.42.88,1.17,1.17,0,0,0,.14.61,1.4,1.4,0,0,0,.54.45,7.36,7.36,0,0,0,1.14.43,6.87,6.87,0,0,1,1.3.52,2.1,2.1,0,0,1,1.16,2,2.39,2.39,0,0,1-.35,1.28,2.45,2.45,0,0,1-1,.86,3.73,3.73,0,0,1-1.59.32,3.85,3.85,0,0,1-2.82-1.08l.62-.69a4.15,4.15,0,0,0,1,.62,3.07,3.07,0,0,0,1.16.21,2.11,2.11,0,0,0,1.28-.38,1.3,1.3,0,0,0,.51-1.11,1.42,1.42,0,0,0-.16-.68,1.36,1.36,0,0,0-.54-.48,5.39,5.39,0,0,0-1.1-.44,4.7,4.7,0,0,1-1.87-.92,1.91,1.91,0,0,1-.6-1.47,2,2,0,0,1,.34-1.12,2.24,2.24,0,0,1,.93-.78,3.22,3.22,0,0,1,1.35-.27A4,4,0,0,1,683.38,124.07Z" style="fill:#7a40c6"/><path d="M691.29,124.34a3.32,3.32,0,0,1,1.24,1.46,5.65,5.65,0,0,1,.44,2.34,5.57,5.57,0,0,1-.44,2.31,3.4,3.4,0,0,1-1.24,1.47,3.3,3.3,0,0,1-1.84.51,3.4,3.4,0,0,1-1.84-.5,3.21,3.21,0,0,1-1.23-1.45,6.34,6.34,0,0,1,0-4.64,3.22,3.22,0,0,1,3.07-2A3.3,3.3,0,0,1,691.29,124.34Zm-3.53,1.26a4.32,4.32,0,0,0-.6,2.55,4.19,4.19,0,0,0,.61,2.53,2,2,0,0,0,1.68.81c1.53,0,2.3-1.12,2.3-3.35s-.77-3.36-2.3-3.36A2,2,0,0,0,687.76,125.6Z" style="fill:#7a40c6"/><path d="M696.34,133.6v.56h-.67v1.28H695v-1.28h-2.22v-.51l1.56-3.47.6.25-1.41,3.17H695l.06-1.4h.62v1.4Z" style="fill:#7a40c6"/><path d="M621.14,303.33a3.71,3.71,0,0,1,1.15.73l-.63.69a3.55,3.55,0,0,0-.92-.54,2.61,2.61,0,0,0-1-.18,1.81,1.81,0,0,0-1.08.3,1,1,0,0,0-.42.88,1.25,1.25,0,0,0,.14.61,1.32,1.32,0,0,0,.54.45,7.21,7.21,0,0,0,1.14.44,7.81,7.81,0,0,1,1.31.51,2.38,2.38,0,0,1,.84.77,2.23,2.23,0,0,1,.32,1.23,2.28,2.28,0,0,1-.36,1.28,2.4,2.4,0,0,1-1,.87,3.67,3.67,0,0,1-1.59.31,3.88,3.88,0,0,1-2.82-1.07l.63-.7a4.29,4.29,0,0,0,1,.62,3.11,3.11,0,0,0,1.16.21,2.09,2.09,0,0,0,1.28-.38,1.47,1.47,0,0,0,.35-1.78,1.41,1.41,0,0,0-.53-.49,5.86,5.86,0,0,0-1.11-.43,4.91,4.91,0,0,1-1.87-.93,1.87,1.87,0,0,1-.59-1.47,2,2,0,0,1,.33-1.12,2.15,2.15,0,0,1,.93-.77,3.12,3.12,0,0,1,1.36-.28A3.77,3.77,0,0,1,621.14,303.33Z" style="fill:#7a40c6"/><path d="M628.6,310.63a.85.85,0,0,0,.4.28l-.25.77a1.65,1.65,0,0,1-.8-.28,1.22,1.22,0,0,1-.44-.67,2.15,2.15,0,0,1-1.9.95,2,2,0,0,1-1.48-.53,1.81,1.81,0,0,1-.55-1.38,1.84,1.84,0,0,1,.73-1.56,3.44,3.44,0,0,1,2.07-.54h1v-.47a1.25,1.25,0,0,0-.32-1,1.47,1.47,0,0,0-1-.29,5.71,5.71,0,0,0-1.71.33l-.28-.8a6.41,6.41,0,0,1,2.2-.44,2.33,2.33,0,0,1,1.68.55,2.11,2.11,0,0,1,.55,1.56v2.91A1.09,1.09,0,0,0,628.6,310.63Zm-1.24-.77V308.4h-.83c-1.18,0-1.77.44-1.77,1.31a1.21,1.21,0,0,0,.28.85,1.11,1.11,0,0,0,.82.29A1.66,1.66,0,0,0,627.36,309.86Z" style="fill:#7a40c6"/><path d="M631,311.31a1.43,1.43,0,0,1-.35-1v-7.65l1.11-.13v7.76a.66.66,0,0,0,.09.39.36.36,0,0,0,.31.12,1.07,1.07,0,0,0,.41-.08l.29.77a1.77,1.77,0,0,1-.88.22A1.28,1.28,0,0,1,631,311.31Z" style="fill:#7a40c6"/><path d="M635.49,302.36a.74.74,0,0,1,.22.54.76.76,0,0,1-.22.54.8.8,0,0,1-.57.21.78.78,0,0,1-.56-.21.75.75,0,0,1-.21-.54.73.73,0,0,1,.21-.54.75.75,0,0,1,.56-.22A.77.77,0,0,1,635.49,302.36Zm0,2.83v6.35h-1.11v-6.35Z" style="fill:#7a40c6"/><path d="M641.32,305.21a2.77,2.77,0,0,1,.9.52l-.53.7a2.83,2.83,0,0,0-.65-.36,2.3,2.3,0,0,0-.71-.11,1.36,1.36,0,0,0-1.2.61,3.16,3.16,0,0,0-.43,1.82,3,3,0,0,0,.42,1.78,1.42,1.42,0,0,0,1.21.57,2.17,2.17,0,0,0,.69-.11,3.7,3.7,0,0,0,.7-.37l.5.72a3,3,0,0,1-1.94.7,2.52,2.52,0,0,1-2-.87,3.51,3.51,0,0,1-.75-2.39,4.36,4.36,0,0,1,.34-1.77,2.76,2.76,0,0,1,1-1.18,2.53,2.53,0,0,1,1.48-.43A3.15,3.15,0,0,1,641.32,305.21Z" style="fill:#7a40c6"/><path d="M644.84,302.36a.7.7,0,0,1,.22.54.72.72,0,0,1-.22.54.76.76,0,0,1-.56.21.78.78,0,0,1-.56-.21.76.76,0,0,1-.22-.54.75.75,0,0,1,.78-.76A.73.73,0,0,1,644.84,302.36Zm0,2.83v6.35h-1.11v-6.35Z" style="fill:#7a40c6"/><path d="M647.62,311.31a1.39,1.39,0,0,1-.36-1v-7.65l1.11-.13v7.76a.66.66,0,0,0,.09.39.36.36,0,0,0,.31.12,1.07,1.07,0,0,0,.41-.08l.29.77a1.77,1.77,0,0,1-.88.22A1.26,1.26,0,0,1,647.62,311.31Z" style="fill:#7a40c6"/><path d="M655.46,310.63a.8.8,0,0,0,.4.28l-.26.77a1.61,1.61,0,0,1-.79-.28,1.23,1.23,0,0,1-.45-.67,2.15,2.15,0,0,1-1.9.95,2,2,0,0,1-1.48-.53,1.84,1.84,0,0,1-.55-1.38,1.82,1.82,0,0,1,.74-1.56,3.4,3.4,0,0,1,2.07-.54h1v-.47a1.21,1.21,0,0,0-.32-1,1.44,1.44,0,0,0-1-.29,5.76,5.76,0,0,0-1.72.33l-.28-.8a6.46,6.46,0,0,1,2.2-.44,2.33,2.33,0,0,1,1.68.55,2.11,2.11,0,0,1,.56,1.56v2.91A1,1,0,0,0,655.46,310.63Zm-1.25-.77V308.4h-.83c-1.17,0-1.76.44-1.76,1.31a1.16,1.16,0,0,0,.28.85,1.08,1.08,0,0,0,.82.29A1.65,1.65,0,0,0,654.21,309.86Z" style="fill:#7a40c6"/><path d="M660.72,311.25a2.43,2.43,0,0,1-1.42.43,1.67,1.67,0,0,1-1.26-.46,1.83,1.83,0,0,1-.46-1.35V306h-1.11v-.85h1.11v-1.44l1.11-.13v1.57h1.51l-.12.85h-1.39v3.79a1.12,1.12,0,0,0,.18.71.71.71,0,0,0,.59.23,1.79,1.79,0,0,0,.84-.26Z" style="fill:#7a40c6"/><path d="M666.43,305.94a3.68,3.68,0,0,1,.74,2.42,4.13,4.13,0,0,1-.34,1.74,2.62,2.62,0,0,1-1,1.17,2.76,2.76,0,0,1-1.52.41,2.6,2.6,0,0,1-2.09-.89,3.63,3.63,0,0,1-.74-2.42,4.29,4.29,0,0,1,.33-1.74,2.69,2.69,0,0,1,1-1.17,2.74,2.74,0,0,1,1.53-.42A2.56,2.56,0,0,1,666.43,305.94Zm-3.74,2.43c0,1.61.55,2.42,1.64,2.42S666,310,666,308.36s-.54-2.42-1.63-2.42S662.69,306.75,662.69,308.37Z" style="fill:#7a40c6"/><path d="M677.12,302.63v8.91h-1l-.11-.88a2.32,2.32,0,0,1-.78.75,2.11,2.11,0,0,1-1,.27,2.05,2.05,0,0,1-1.77-.89,4.07,4.07,0,0,1-.64-2.4,4.64,4.64,0,0,1,.31-1.73,2.68,2.68,0,0,1,.87-1.19,2.15,2.15,0,0,1,1.32-.43,2.26,2.26,0,0,1,1.72.79V302.5Zm-1.81,7.94a2.78,2.78,0,0,0,.7-.71v-3.11a2.41,2.41,0,0,0-.67-.62,1.57,1.57,0,0,0-.8-.21,1.3,1.3,0,0,0-1.15.62,3.45,3.45,0,0,0-.4,1.83,3.53,3.53,0,0,0,.37,1.83,1.2,1.2,0,0,0,1.08.6A1.61,1.61,0,0,0,675.31,310.57Z" style="fill:#7a40c6"/><path d="M684.1,308.74H680a2.51,2.51,0,0,0,.53,1.54,1.55,1.55,0,0,0,1.19.5,2.84,2.84,0,0,0,.84-.13,3.2,3.2,0,0,0,.81-.43l.48.67a3.49,3.49,0,0,1-2.22.79,2.59,2.59,0,0,1-2.07-.87,3.55,3.55,0,0,1-.74-2.38,4.37,4.37,0,0,1,.32-1.75,2.73,2.73,0,0,1,.92-1.2,2.29,2.29,0,0,1,1.4-.44,2.38,2.38,0,0,1,2,.83,3.59,3.59,0,0,1,.67,2.31C684.12,308.36,684.11,308.55,684.1,308.74Zm-1.08-.89a2.32,2.32,0,0,0-.37-1.43,1.32,1.32,0,0,0-1.12-.5c-.91,0-1.41.67-1.49,2h3Z" style="fill:#7a40c6"/><path d="M696.73,305.57a2.05,2.05,0,0,1,.47,1.41v4.56h-1.11v-4.4c0-.82-.3-1.23-.89-1.23a1.21,1.21,0,0,0-.8.27,3.85,3.85,0,0,0-.7.85v4.51h-1.11v-4.4q0-1.23-.9-1.23a1.19,1.19,0,0,0-.81.28,3.76,3.76,0,0,0-.68.84v4.51h-1.11v-6.35H690l.1.93A2.11,2.11,0,0,1,692,305a1.68,1.68,0,0,1,1,.3,1.7,1.7,0,0,1,.6.85,3,3,0,0,1,.82-.85,1.91,1.91,0,0,1,1.07-.3A1.6,1.6,0,0,1,696.73,305.57Z" style="fill:#7a40c6"/><path d="M704.5,308.74h-4a2.45,2.45,0,0,0,.53,1.54,1.55,1.55,0,0,0,1.18.5,2.86,2.86,0,0,0,.85-.13,3.57,3.57,0,0,0,.81-.43l.48.67a3.53,3.53,0,0,1-2.22.79,2.56,2.56,0,0,1-2.07-.87,3.5,3.5,0,0,1-.75-2.38,4.55,4.55,0,0,1,.32-1.75,2.8,2.8,0,0,1,.92-1.2,2.34,2.34,0,0,1,1.41-.44,2.37,2.37,0,0,1,1.94.83,3.59,3.59,0,0,1,.68,2.31A5.4,5.4,0,0,1,704.5,308.74Zm-1.07-.89a2.32,2.32,0,0,0-.37-1.43,1.33,1.33,0,0,0-1.13-.5c-.91,0-1.4.67-1.48,2h3Z" style="fill:#7a40c6"/><path d="M709.42,311.25a2.44,2.44,0,0,1-1.43.43,1.67,1.67,0,0,1-1.26-.46,1.87,1.87,0,0,1-.45-1.35V306h-1.11v-.85h1.11v-1.44l1.11-.13v1.57h1.51l-.12.85h-1.39v3.79a1.12,1.12,0,0,0,.18.71.68.68,0,0,0,.58.23,1.86,1.86,0,0,0,.85-.26Z" style="fill:#7a40c6"/><path d="M711.76,302.36a.7.7,0,0,1,.22.54.72.72,0,0,1-.22.54.77.77,0,0,1-.57.21.75.75,0,0,1-.55-.21.72.72,0,0,1-.22-.54.7.7,0,0,1,.22-.54.72.72,0,0,1,.55-.22A.74.74,0,0,1,711.76,302.36Zm0,2.83v6.35h-1.11v-6.35Z" style="fill:#7a40c6"/><path d="M714.53,311.31a1.38,1.38,0,0,1-.35-1v-7.65l1.11-.13v7.76a.66.66,0,0,0,.09.39.35.35,0,0,0,.3.12,1.12,1.12,0,0,0,.42-.08l.28.77a1.72,1.72,0,0,1-.88.22A1.27,1.27,0,0,1,714.53,311.31Z" style="fill:#7a40c6"/><path d="M722.38,310.63a.78.78,0,0,0,.39.28l-.25.77a1.65,1.65,0,0,1-.8-.28,1.22,1.22,0,0,1-.44-.67,2.15,2.15,0,0,1-1.9.95,2,2,0,0,1-1.48-.53,1.81,1.81,0,0,1-.55-1.38,1.84,1.84,0,0,1,.73-1.56,3.44,3.44,0,0,1,2.07-.54h1v-.47a1.25,1.25,0,0,0-.32-1,1.47,1.47,0,0,0-1-.29,5.71,5.71,0,0,0-1.71.33l-.28-.8A6.41,6.41,0,0,1,720,305a2.33,2.33,0,0,1,1.68.55,2.11,2.11,0,0,1,.55,1.56v2.91A1,1,0,0,0,722.38,310.63Zm-1.25-.77V308.4h-.83c-1.18,0-1.76.44-1.76,1.31a1.2,1.2,0,0,0,.27.85,1.11,1.11,0,0,0,.82.29A1.66,1.66,0,0,0,721.13,309.86Z" style="fill:#7a40c6"/><path d="M658.33,322.59v1.81h1.76v.92h-1.76v1.79h-1v-1.79h-1.75v-.92h1.75v-1.81Z" style="fill:#7a40c6"/><path d="M670.12,328.85V325h-3.51v3.9h-1.14v-8.3h1.14V324h3.51v-3.47h1.14v8.3Z" style="fill:#7a40c6"/><path d="M674.64,327.48a1.37,1.37,0,0,1,.54.5,1.4,1.4,0,0,1,.2.73,1.93,1.93,0,0,1-.22.9,4.57,4.57,0,0,1-.65.94c-.3.34-.74.8-1.34,1.4h2.33l-.08.6h-3.07V332c.69-.71,1.19-1.24,1.48-1.57a5.2,5.2,0,0,0,.62-.87,1.84,1.84,0,0,0,.18-.8.85.85,0,0,0-.23-.63.82.82,0,0,0-.62-.23,1.13,1.13,0,0,0-.56.13,2.08,2.08,0,0,0-.51.43l-.47-.37a2.17,2.17,0,0,1,.71-.59,1.92,1.92,0,0,1,.87-.19A1.68,1.68,0,0,1,674.64,327.48Z" style="fill:#7a40c6"/><path d="M681.58,320.9a3.37,3.37,0,0,1,1.23,1.46,5.71,5.71,0,0,1,.44,2.34,5.65,5.65,0,0,1-.44,2.32,3.35,3.35,0,0,1-6.15,0,6.34,6.34,0,0,1,0-4.64,3.41,3.41,0,0,1,1.24-1.49,3.31,3.31,0,0,1,1.83-.51A3.44,3.44,0,0,1,681.58,320.9ZM678,322.16a4.36,4.36,0,0,0-.6,2.55,4.17,4.17,0,0,0,.61,2.53,2,2,0,0,0,1.68.81c1.53,0,2.3-1.11,2.3-3.35s-.77-3.36-2.3-3.36A2,2,0,0,0,678,322.16Z" style="fill:#7a40c6"/><path d="M634.15,161.7a3.76,3.76,0,0,1,1,.63l-.63.73a2.49,2.49,0,0,0-1.6-.61,2,2,0,0,0-1.67.79,5.4,5.4,0,0,0,0,5.08,2,2,0,0,0,1.67.82,2.27,2.27,0,0,0,.93-.19,4.86,4.86,0,0,0,.84-.5l.57.72a3,3,0,0,1-1,.66,3.6,3.6,0,0,1-3.2-.23,3.34,3.34,0,0,1-1.23-1.47,5.66,5.66,0,0,1-.44-2.33,5.32,5.32,0,0,1,.46-2.33,3.42,3.42,0,0,1,1.24-1.47,3.23,3.23,0,0,1,1.75-.49A3.65,3.65,0,0,1,634.15,161.7Z" style="fill:#7a40c6"/><path d="M641.3,170v-3.89h-3.5V170h-1.15v-8.3h1.15v3.47h3.5v-3.47h1.15V170Z" style="fill:#7a40c6"/><path d="M648.58,168.56a1.3,1.3,0,0,1,.53.48,1.26,1.26,0,0,1,.18.66,1.08,1.08,0,0,1-.28.78,1.35,1.35,0,0,1-.73.41,1.36,1.36,0,0,1,.85.37,1.24,1.24,0,0,1,.32.89,1.58,1.58,0,0,1-.21.81,1.62,1.62,0,0,1-.62.57,2,2,0,0,1-.94.2,2.11,2.11,0,0,1-.87-.17,2,2,0,0,1-.69-.52l.43-.4a1.77,1.77,0,0,0,.52.39,1.45,1.45,0,0,0,.59.12,1.06,1.06,0,0,0,.77-.27,1,1,0,0,0,.28-.74.86.86,0,0,0-.27-.72,1.19,1.19,0,0,0-.76-.21h-.39l.08-.55h.27a1,1,0,0,0,.67-.24.85.85,0,0,0,.27-.67.73.73,0,0,0-.24-.58.89.89,0,0,0-.63-.21,1.26,1.26,0,0,0-.55.11,1.9,1.9,0,0,0-.52.35l-.37-.42a2.14,2.14,0,0,1,1.48-.62A1.78,1.78,0,0,1,648.58,168.56Z" style="fill:#7a40c6"/><path d="M656.33,162a3.24,3.24,0,0,1,1.23,1.46,5.55,5.55,0,0,1,.44,2.34,5.41,5.41,0,0,1-.44,2.31,3.21,3.21,0,0,1-1.23,1.47,3.32,3.32,0,0,1-1.84.51,3.37,3.37,0,0,1-1.84-.49,3.24,3.24,0,0,1-1.23-1.46,6.34,6.34,0,0,1,0-4.64,3.32,3.32,0,0,1,1.23-1.49,3.6,3.6,0,0,1,3.68,0Zm-3.53,1.26a4.36,4.36,0,0,0-.6,2.55,4.27,4.27,0,0,0,.6,2.53,2,2,0,0,0,1.69.81c1.53,0,2.29-1.12,2.29-3.35s-.76-3.36-2.29-3.36A2,2,0,0,0,652.8,163.27Z" style="fill:#7a40c6"/><path d="M664.61,170v-3.89h-3.5V170H660v-8.3h1.15v3.47h3.5v-3.47h1.14V170Z" style="fill:#7a40c6"/></g></g></svg>