<svg xmlns="http://www.w3.org/2000/svg" viewBox="0 0 722.63 423.33"><title>fig-2-2</title><g id="fig-2-2"><path d="M353.71,92.75A186.72,186.72,0,0,1,396.64,212c0,104.45-85.88,189.12-191.81,189.12S13,316.45,13,212a188,188,0,0,1,2.75-32.14" style="fill:#b18ef4"/><path d="M353.7,92.75h0A192.47,192.47,0,0,0,204.83,22.87h0V212Z" style="fill:#6827ab"/><path d="M15.93,179.74l190,32.1-1.07-189-.5.42.5-.42c-94.51,0-173,67.4-188.89,156.12l-.75.62.62.11,0,.14Z" style="fill:#996ce0"/><text transform="translate(87.19 138.14)" style="font-size:39.642738342285156px;fill:#fff;font-family:FiraSans-Regular, Fira Sans">22%</text><text transform="translate(233.37 110.2)" style="font-size:39.642738342285156px;fill:#fff;font-family:FiraSans-Regular, Fira Sans">15%</text><text transform="translate(174.07 308.04)" style="font-size:39.642738342285156px;fill:#fff;font-family:FiraSans-Regular, Fira Sans">63%</text><rect x="439.22" y="97.89" width="16.9" height="17.34" style="fill:#6827ab"/><rect x="439.22" y="141.77" width="17.34" height="17.34" style="fill:#996ce0"/><rect x="439.22" y="184.58" width="17.34" height="17.34" style="fill:#b18ef4"/><g id="preto"><path d="M451.76,48a9.21,9.21,0,0,1,2.53,1.51l-1.85,2.15a5.54,5.54,0,0,0-3.52-1.35,4,4,0,0,0-3.4,1.71c-.86,1.14-1.28,2.93-1.28,5.37a9,9,0,0,0,1.26,5.31,4,4,0,0,0,3.42,1.74,4.78,4.78,0,0,0,2-.4,10.55,10.55,0,0,0,1.87-1.14L454.51,65a7.82,7.82,0,0,1-2.44,1.65,8,8,0,0,1-3.29.66,8.28,8.28,0,0,1-4.38-1.16,7.59,7.59,0,0,1-2.95-3.4,12.86,12.86,0,0,1-1-5.41A12,12,0,0,1,441.5,52a7.85,7.85,0,0,1,3-3.39,8,8,0,0,1,4.26-1.16A8.51,8.51,0,0,1,451.76,48Z" style="fill:#1d1d1b"/><path d="M468,64.33a1.58,1.58,0,0,0,.84.62l-.74,2.34a4.47,4.47,0,0,1-2-.6,3.15,3.15,0,0,1-1.2-1.52A4.57,4.57,0,0,1,463,66.81a5.62,5.62,0,0,1-2.49.54,4.68,4.68,0,0,1-3.44-1.24,4.33,4.33,0,0,1-1.27-3.25,4.21,4.21,0,0,1,1.72-3.62A8.24,8.24,0,0,1,462.47,58h1.82v-.83a2.52,2.52,0,0,0-.65-2,3.1,3.1,0,0,0-2.08-.57,12.24,12.24,0,0,0-3.86.78l-.82-2.4a14.68,14.68,0,0,1,5.29-1c3.72,0,5.59,1.67,5.59,5v6.11A2.26,2.26,0,0,0,468,64.33ZM464.29,63v-3h-1.46c-2.28,0-3.42.85-3.42,2.53a2.35,2.35,0,0,0,.53,1.63,1.94,1.94,0,0,0,1.54.58A3.13,3.13,0,0,0,464.29,63Z" style="fill:#1d1d1b"/><path d="M483.65,54A10.27,10.27,0,0,1,485,59.61a11.09,11.09,0,0,1-.67,4,6.07,6.07,0,0,1-2,2.74,5,5,0,0,1-3.09,1,4.54,4.54,0,0,1-3.67-1.6v6.81l-3.52.38V52.37h3.08l.19,1.79a5.67,5.67,0,0,1,2-1.66,5.2,5.2,0,0,1,2.31-.55A4.54,4.54,0,0,1,483.65,54Zm-2.37,5.68a8.06,8.06,0,0,0-.69-3.86,2.24,2.24,0,0,0-2.06-1.18,2.92,2.92,0,0,0-1.66.53,4.76,4.76,0,0,0-1.32,1.45v6.56a3.09,3.09,0,0,0,2.67,1.51Q481.28,64.65,481.28,59.64Z" style="fill:#1d1d1b"/><path d="M499.47,64.33a1.66,1.66,0,0,0,.84.62l-.74,2.34a4.5,4.5,0,0,1-2-.6,3.08,3.08,0,0,1-1.19-1.52,4.7,4.7,0,0,1-1.86,1.64,5.68,5.68,0,0,1-2.49.54,4.71,4.71,0,0,1-3.45-1.24,4.36,4.36,0,0,1-1.26-3.25A4.19,4.19,0,0,1,489,59.24,8.19,8.19,0,0,1,493.92,58h1.82v-.83a2.52,2.52,0,0,0-.65-2,3.1,3.1,0,0,0-2.08-.57,12.13,12.13,0,0,0-3.85.78l-.83-2.4a14.68,14.68,0,0,1,5.29-1q5.6,0,5.59,5v6.11A2.35,2.35,0,0,0,499.47,64.33ZM495.74,63v-3h-1.46c-2.28,0-3.41.85-3.41,2.53a2.35,2.35,0,0,0,.52,1.63,2,2,0,0,0,1.54.58A3.12,3.12,0,0,0,495.74,63Z" style="fill:#1d1d1b"/><path d="M511.92,52.37a6.74,6.74,0,0,1,2.16,1.29l-1.57,2.12a5.61,5.61,0,0,0-1.43-.8,4.55,4.55,0,0,0-1.51-.25c-2.19,0-3.28,1.67-3.28,5a6.07,6.07,0,0,0,.85,3.65,2.89,2.89,0,0,0,2.43,1.12,4.11,4.11,0,0,0,1.42-.25,9.11,9.11,0,0,0,1.52-.8l1.57,2.23a7.23,7.23,0,0,1-4.71,1.68,7,7,0,0,1-3.63-.92,6.06,6.06,0,0,1-2.37-2.63,9.16,9.16,0,0,1-.83-4,9.57,9.57,0,0,1,.83-4.09,6.29,6.29,0,0,1,2.37-2.76,6.61,6.61,0,0,1,3.61-1A7.41,7.41,0,0,1,511.92,52.37Z" style="fill:#1d1d1b"/><path d="M520,45.6a2.07,2.07,0,0,1,.62,1.53,2,2,0,0,1-.62,1.52,2.21,2.21,0,0,1-1.61.6,2.17,2.17,0,0,1-1.58-.6,2,2,0,0,1-.62-1.52,2.07,2.07,0,0,1,.62-1.53,2.15,2.15,0,0,1,1.58-.62A2.19,2.19,0,0,1,520,45.6Zm.18,6.77V66.94h-3.52V52.37Z" style="fill:#1d1d1b"/><path d="M536.67,46.53V66.94h-3.11l-.25-1.85a5,5,0,0,1-1.75,1.65,5.09,5.09,0,0,1-6.51-1.46,9.65,9.65,0,0,1-1.44-5.61,10.35,10.35,0,0,1,.72-4,6.36,6.36,0,0,1,2-2.75,5.08,5.08,0,0,1,3.1-1,5,5,0,0,1,3.66,1.57V46.14Zm-4.88,17.69a4.59,4.59,0,0,0,1.35-1.41V56.14A5.19,5.19,0,0,0,531.86,55a2.93,2.93,0,0,0-1.5-.38,2.52,2.52,0,0,0-2.21,1.25,7,7,0,0,0-.82,3.79,7.74,7.74,0,0,0,.72,3.87,2.3,2.3,0,0,0,2.09,1.17A2.92,2.92,0,0,0,531.79,64.22Z" style="fill:#1d1d1b"/><path d="M551.94,64.33a1.66,1.66,0,0,0,.84.62L552,67.29a4.5,4.5,0,0,1-2-.6,3.08,3.08,0,0,1-1.19-1.52A4.7,4.7,0,0,1,547,66.81a5.69,5.69,0,0,1-2.5.54A4.7,4.7,0,0,1,541,66.11a4.37,4.37,0,0,1-1.27-3.25,4.19,4.19,0,0,1,1.73-3.62A8.19,8.19,0,0,1,546.39,58h1.82v-.83a2.52,2.52,0,0,0-.65-2,3.1,3.1,0,0,0-2.08-.57,12.13,12.13,0,0,0-3.85.78L540.8,53a14.68,14.68,0,0,1,5.29-1q5.6,0,5.59,5v6.11A2.35,2.35,0,0,0,551.94,64.33ZM548.21,63v-3h-1.46c-2.28,0-3.42.85-3.42,2.53a2.35,2.35,0,0,0,.53,1.63,2,2,0,0,0,1.54.58A3.13,3.13,0,0,0,548.21,63Z" style="fill:#1d1d1b"/><path d="M568.21,46.53V66.94h-3.12l-.24-1.85a5.11,5.11,0,0,1-1.75,1.65,5.1,5.1,0,0,1-6.52-1.46,9.73,9.73,0,0,1-1.43-5.61,10.35,10.35,0,0,1,.72-4,6.28,6.28,0,0,1,2-2.75,5.18,5.18,0,0,1,6.76.58V46.14Zm-4.88,17.69a4.59,4.59,0,0,0,1.35-1.41V56.14A5.19,5.19,0,0,0,563.4,55a2.93,2.93,0,0,0-1.5-.38,2.52,2.52,0,0,0-2.22,1.25,7.09,7.09,0,0,0-.81,3.79,7.87,7.87,0,0,0,.71,3.87,2.32,2.32,0,0,0,2.1,1.17A3,3,0,0,0,563.33,64.22Z" style="fill:#1d1d1b"/><path d="M584.32,60.74h-9.15a4.61,4.61,0,0,0,1.11,3,3.42,3.42,0,0,0,2.47.91,5.2,5.2,0,0,0,1.82-.32,8.41,8.41,0,0,0,1.82-1l1.46,2a8.38,8.38,0,0,1-5.4,2,6.52,6.52,0,0,1-5.14-2,8.1,8.1,0,0,1-1.8-5.56,10,10,0,0,1,.77-4A6.44,6.44,0,0,1,574.51,53a6.64,6.64,0,0,1,8.21.93,8,8,0,0,1,1.68,5.42C584.4,59.49,584.37,60,584.32,60.74Zm-3.42-2.45q0-3.82-2.83-3.83a2.42,2.42,0,0,0-2,.95,5.7,5.7,0,0,0-.87,3h5.73Z" style="fill:#1d1d1b"/><path d="M598.2,47.9v19h-3.64v-19Z" style="fill:#1d1d1b"/><path d="M613.36,53.12a4.6,4.6,0,0,1,1.09,3.27V66.94h-3.53v-10a2.83,2.83,0,0,0-.45-1.82,1.67,1.67,0,0,0-1.34-.52,2.62,2.62,0,0,0-1.63.56,6.4,6.4,0,0,0-1.42,1.64V66.94h-3.53V52.37h3.06l.27,1.9A5.42,5.42,0,0,1,610.32,52,3.94,3.94,0,0,1,613.36,53.12Z" style="fill:#1d1d1b"/><path d="M628.33,53.69,627,55.75a6.84,6.84,0,0,0-3.66-1.18,2.77,2.77,0,0,0-1.62.4,1.23,1.23,0,0,0-.58,1.06,1.38,1.38,0,0,0,.24.83,2.41,2.41,0,0,0,.9.62,16,16,0,0,0,1.91.64,8.68,8.68,0,0,1,3.52,1.68,3.77,3.77,0,0,1,1.14,2.92,3.91,3.91,0,0,1-1.76,3.4,7.49,7.49,0,0,1-4.38,1.23,9.23,9.23,0,0,1-3.27-.55,7.78,7.78,0,0,1-2.54-1.52l1.76-2a6.47,6.47,0,0,0,4,1.43,3.31,3.31,0,0,0,1.89-.47,1.46,1.46,0,0,0,.7-1.29,1.7,1.7,0,0,0-.26-1,2.2,2.2,0,0,0-.94-.66,20.89,20.89,0,0,0-2.1-.7,7.06,7.06,0,0,1-3.28-1.69,3.77,3.77,0,0,1-1.05-2.72,3.59,3.59,0,0,1,.71-2.17,4.67,4.67,0,0,1,2-1.52,7.47,7.47,0,0,1,2.93-.55A8.18,8.18,0,0,1,628.33,53.69Z" style="fill:#1d1d1b"/><path d="M640,66.25a5.57,5.57,0,0,1-1.72.82,6.74,6.74,0,0,1-1.94.28,4.34,4.34,0,0,1-3.27-1.23A5,5,0,0,1,632,62.58V54.9h-2.29V52.37H632V49.14l3.52-.41v3.64h3.39l-.36,2.53h-3v7.6a2.54,2.54,0,0,0,.37,1.54,1.39,1.39,0,0,0,1.17.47,3.56,3.56,0,0,0,1.74-.52Z" style="fill:#1d1d1b"/><path d="M653,64.33a1.66,1.66,0,0,0,.84.62l-.74,2.34a4.5,4.5,0,0,1-2-.6,3.08,3.08,0,0,1-1.19-1.52A4.7,4.7,0,0,1,648,66.81a5.69,5.69,0,0,1-2.5.54,4.7,4.7,0,0,1-3.44-1.24,4.37,4.37,0,0,1-1.27-3.25,4.19,4.19,0,0,1,1.73-3.62A8.19,8.19,0,0,1,647.47,58h1.82v-.83a2.52,2.52,0,0,0-.65-2,3.1,3.1,0,0,0-2.08-.57,12.13,12.13,0,0,0-3.85.78l-.83-2.4a14.68,14.68,0,0,1,5.29-1q5.6,0,5.59,5v6.11A2.35,2.35,0,0,0,653,64.33ZM649.29,63v-3h-1.46c-2.28,0-3.41.85-3.41,2.53a2.35,2.35,0,0,0,.52,1.63,2,2,0,0,0,1.54.58A3.13,3.13,0,0,0,649.29,63Z" style="fill:#1d1d1b"/><path d="M657.84,66.37a3.81,3.81,0,0,1-1-2.77V46.53l3.53-.39V63.49c0,.68.27,1,.82,1a2.41,2.41,0,0,0,.83-.14l.74,2.48a5.62,5.62,0,0,1-2.34.5A3.52,3.52,0,0,1,657.84,66.37Z" style="fill:#1d1d1b"/><path d="M676.19,64.33A1.58,1.58,0,0,0,677,65l-.75,2.34a4.46,4.46,0,0,1-2-.6,3,3,0,0,1-1.2-1.52,4.7,4.7,0,0,1-1.86,1.64,5.62,5.62,0,0,1-2.49.54,4.68,4.68,0,0,1-3.44-1.24A4.33,4.33,0,0,1,664,62.86a4.19,4.19,0,0,1,1.72-3.62A8.24,8.24,0,0,1,670.64,58h1.81v-.83a2.52,2.52,0,0,0-.64-2,3.12,3.12,0,0,0-2.08-.57,12.19,12.19,0,0,0-3.86.78L665,53a14.72,14.72,0,0,1,5.29-1q5.59,0,5.59,5v6.11A2.25,2.25,0,0,0,676.19,64.33ZM672.45,63v-3H671c-2.27,0-3.41.85-3.41,2.53a2.35,2.35,0,0,0,.52,1.63,2,2,0,0,0,1.54.58A3.12,3.12,0,0,0,672.45,63Z" style="fill:#1d1d1b"/><path d="M692.45,46.53V66.94h-3.11l-.25-1.85a5,5,0,0,1-1.75,1.65,5.09,5.09,0,0,1-6.51-1.46,9.65,9.65,0,0,1-1.44-5.61,10.35,10.35,0,0,1,.72-4,6.36,6.36,0,0,1,2-2.75,5.08,5.08,0,0,1,3.1-1,5,5,0,0,1,3.66,1.57V46.14Zm-4.88,17.69a4.59,4.59,0,0,0,1.35-1.41V56.14A5.19,5.19,0,0,0,687.64,55a2.93,2.93,0,0,0-1.5-.38,2.52,2.52,0,0,0-2.21,1.25,7,7,0,0,0-.82,3.79,7.74,7.74,0,0,0,.72,3.87,2.3,2.3,0,0,0,2.09,1.17A2.92,2.92,0,0,0,687.57,64.22Z" style="fill:#1d1d1b"/><path d="M707.72,64.33a1.66,1.66,0,0,0,.84.62l-.74,2.34a4.5,4.5,0,0,1-2-.6,3.08,3.08,0,0,1-1.19-1.52,4.7,4.7,0,0,1-1.86,1.64,5.69,5.69,0,0,1-2.5.54,4.7,4.7,0,0,1-3.44-1.24,4.37,4.37,0,0,1-1.27-3.25,4.19,4.19,0,0,1,1.73-3.62A8.19,8.19,0,0,1,702.17,58H704v-.83a2.52,2.52,0,0,0-.65-2,3.1,3.1,0,0,0-2.08-.57,12.13,12.13,0,0,0-3.85.78l-.83-2.4a14.68,14.68,0,0,1,5.29-1q5.6,0,5.59,5v6.11A2.35,2.35,0,0,0,707.72,64.33ZM704,63v-3h-1.46c-2.28,0-3.42.85-3.42,2.53a2.35,2.35,0,0,0,.53,1.63,2,2,0,0,0,1.54.58A3.13,3.13,0,0,0,704,63Z" style="fill:#1d1d1b"/><path d="M497.5,115.23h-1.37l-.73-7.74c-.3-3-.51-5.35-.62-7l-4.06,12.87h-1.34l-4.21-12.87c-.08,1.53-.23,3.55-.47,6.07l-.07.92-.71,7.79h-1.34l1.53-16.17h2l4,12.58L494,99.06h2Z" style="fill:#1d1d1b"/><path d="M510.34,109.59H502.1a5.79,5.79,0,0,0,1.14,3.58,3.44,3.44,0,0,0,2.71,1.17,4.57,4.57,0,0,0,1.71-.3,8,8,0,0,0,1.62-.93l.63.87a7,7,0,0,1-1.88,1.13,5.75,5.75,0,0,1-2.15.38,4.75,4.75,0,0,1-3.85-1.67,7.07,7.07,0,0,1-1.39-4.65,9.07,9.07,0,0,1,.6-3.44,5.12,5.12,0,0,1,1.72-2.29,4.35,4.35,0,0,1,2.61-.81,4.27,4.27,0,0,1,3.59,1.59,7,7,0,0,1,1.23,4.38C510.39,108.94,510.37,109.28,510.34,109.59Zm-1.3-1.42a5.4,5.4,0,0,0-.86-3.24,3.29,3.29,0,0,0-5,0,6.06,6.06,0,0,0-1,3.59H509Z" style="fill:#1d1d1b"/><path d="M520.3,102.77l-.26,1.3a3.86,3.86,0,0,0-1.08-.15,2.52,2.52,0,0,0-2,.91,7.6,7.6,0,0,0-1.29,2.85v7.55h-1.37V102.89h1.18l.12,2.76a4.88,4.88,0,0,1,1.36-2.28,3.11,3.11,0,0,1,2.13-.74A4.34,4.34,0,0,1,520.3,102.77Z" style="fill:#1d1d1b"/><path d="M529.2,102.92a5.32,5.32,0,0,1,1.61,1l-.69.89a4,4,0,0,0-2.74-1,3.33,3.33,0,0,0-2.78,1.35,6.47,6.47,0,0,0-1,4,6.14,6.14,0,0,0,1,3.87,3.33,3.33,0,0,0,2.77,1.3,4.22,4.22,0,0,0,1.5-.26,5.44,5.44,0,0,0,1.36-.78l.66.92a5.33,5.33,0,0,1-3.54,1.32,4.76,4.76,0,0,1-4.6-2.94,8.24,8.24,0,0,1-.64-3.41,8.5,8.5,0,0,1,.64-3.43,5.25,5.25,0,0,1,1.83-2.28,4.72,4.72,0,0,1,2.74-.8A5.52,5.52,0,0,1,529.2,102.92Z" style="fill:#1d1d1b"/><path d="M542.82,115.23h-1.18l-.07-2.19a4.5,4.5,0,0,1-4,2.45,3.34,3.34,0,0,1-2.59-1,3.93,3.93,0,0,1-.91-2.8v-8.82h1.37v8.68a3.14,3.14,0,0,0,.6,2.12,2.36,2.36,0,0,0,1.83.67c1.43,0,2.64-.84,3.61-2.53v-8.94h1.37ZM540.2,96.77l.62,1.23-4.61,2-.45-.81Z" style="fill:#1d1d1b"/><path d="M553.85,102.77l-.26,1.3a3.93,3.93,0,0,0-1.09-.15,2.55,2.55,0,0,0-2,.91,7.46,7.46,0,0,0-1.28,2.85v7.55h-1.37V102.89H549l.12,2.76a5,5,0,0,1,1.35-2.28,3.15,3.15,0,0,1,2.14-.74A4.34,4.34,0,0,1,553.85,102.77Z" style="fill:#1d1d1b"/><path d="M558.05,97.74a1,1,0,0,1,.28.71,1,1,0,0,1-.28.71,1.06,1.06,0,0,1-.76.28,1,1,0,0,1-.73-.28,1,1,0,0,1-.28-.71,1,1,0,0,1,.28-.71,1,1,0,0,1,.73-.28A1,1,0,0,1,558.05,97.74Zm0,5.15v12.34h-1.37V102.89Z" style="fill:#1d1d1b"/><path d="M571.09,104.31a8.73,8.73,0,0,1,0,9.45,5.14,5.14,0,0,1-7.67,0,7.3,7.3,0,0,1-1.38-4.71,8.56,8.56,0,0,1,.63-3.42,4.73,4.73,0,0,1,4.61-3A4.69,4.69,0,0,1,571.09,104.31Zm-6.62.82a8.33,8.33,0,0,0,0,7.86,3.22,3.22,0,0,0,2.77,1.35A3.29,3.29,0,0,0,570,113a6.59,6.59,0,0,0,1-4,6.49,6.49,0,0,0-1-3.9,3.57,3.57,0,0,0-5.58,0Z" style="fill:#1d1d1b"/><path d="M492.22,144.65c1.39,1.13,2.09,3.22,2.09,6.25s-.71,5.17-2.11,6.39a7.61,7.61,0,0,1-5.16,1.83h-3.47V143h3.21A8.37,8.37,0,0,1,492.22,144.65Zm-7.24-.52v13.81h2.15q5.7,0,5.69-7a9,9,0,0,0-.82-4.27,4.29,4.29,0,0,0-2.09-2,7.87,7.87,0,0,0-2.94-.51Z" style="fill:#1d1d1b"/><path d="M499.79,141.63a1,1,0,0,1,0,1.41,1,1,0,0,1-.76.29,1,1,0,0,1-.73-.29,1,1,0,0,1,0-1.41,1,1,0,0,1,.73-.29A1,1,0,0,1,499.79,141.63Zm-.05,5.14v12.35h-1.37V146.77Z" style="fill:#1d1d1b"/><path d="M512.66,157.77a1.49,1.49,0,0,0,.8.64l-.31,1a2.38,2.38,0,0,1-1.31-.64,2.46,2.46,0,0,1-.6-1.44,4.22,4.22,0,0,1-3.85,2.08,3.82,3.82,0,0,1-2.8-1,3.61,3.61,0,0,1-1-2.68,3.5,3.5,0,0,1,1.36-2.95,6,6,0,0,1,3.77-1h2.36V150.5a2.42,2.42,0,0,0-2.86-2.83,10.07,10.07,0,0,0-3.35.71l-.36-1a10.65,10.65,0,0,1,3.9-.83q4,0,4,3.92v5.95A3,3,0,0,0,512.66,157.77Zm-1.61-1.67v-3.4H508.9a4.78,4.78,0,0,0-2.88.73,2.56,2.56,0,0,0-1,2.2,2.37,2.37,0,0,0,2.59,2.64A3.76,3.76,0,0,0,511.05,156.1Z" style="fill:#1d1d1b"/><path d="M519.44,143.21a2.09,2.09,0,0,0-.53,1.58v2h3.26l-.19,1.11h-3.07v11.24h-1.37V147.88h-2.15v-1.11h2.15v-2a3,3,0,0,1,.91-2.31,3.5,3.5,0,0,1,2.51-.85,6.86,6.86,0,0,1,2.88.66l-.47,1a5.68,5.68,0,0,0-2.34-.55A2.24,2.24,0,0,0,519.44,143.21Z" style="fill:#1d1d1b"/><path d="M531,146.66l-.26,1.29a4.34,4.34,0,0,0-1.09-.14,2.54,2.54,0,0,0-2,.91,7.6,7.6,0,0,0-1.29,2.85v7.55H525V146.77h1.18l.11,2.77a4.91,4.91,0,0,1,1.36-2.28,3.16,3.16,0,0,1,2.14-.75A4.3,4.3,0,0,1,531,146.66Z" style="fill:#1d1d1b"/><path d="M541.7,157.77a1.5,1.5,0,0,0,.79.64l-.3,1a2.35,2.35,0,0,1-1.31-.64,2.53,2.53,0,0,1-.61-1.44,4.2,4.2,0,0,1-3.84,2.08,3.82,3.82,0,0,1-2.8-1,3.57,3.57,0,0,1-1-2.68,3.47,3.47,0,0,1,1.36-2.95,6,6,0,0,1,3.76-1h2.36V150.5a2.42,2.42,0,0,0-2.85-2.83,10,10,0,0,0-3.35.71l-.36-1a10.61,10.61,0,0,1,3.9-.83q4,0,4,3.92v5.95A2.93,2.93,0,0,0,541.7,157.77Zm-1.62-1.67v-3.4h-2.14a4.78,4.78,0,0,0-2.88.73,2.57,2.57,0,0,0-1,2.2,2.65,2.65,0,0,0,.69,2,2.61,2.61,0,0,0,1.91.68A3.74,3.74,0,0,0,540.08,156.1Z" style="fill:#1d1d1b"/><path d="M555.62,147a14.9,14.9,0,0,1-3.42.36,3.43,3.43,0,0,1,2.1,3.35,3.82,3.82,0,0,1-1.21,2.94,4.58,4.58,0,0,1-3.26,1.12,4.85,4.85,0,0,1-1.6-.24,2.27,2.27,0,0,0-.7.63,1.41,1.41,0,0,0-.24.79c0,.85.65,1.28,2,1.28h2a4.39,4.39,0,0,1,2.89.88,2.81,2.81,0,0,1,1.08,2.28,3,3,0,0,1-1.35,2.62,9.47,9.47,0,0,1-8,.08,3.08,3.08,0,0,1-1.19-2.7H546a2.63,2.63,0,0,0,.37,1.42,2.09,2.09,0,0,0,1.18.75,8.8,8.8,0,0,0,2.32.24,5.82,5.82,0,0,0,3-.6,1.94,1.94,0,0,0,.94-1.74,1.75,1.75,0,0,0-.73-1.52,3.4,3.4,0,0,0-2.05-.53h-2a3.59,3.59,0,0,1-2.25-.62,1.89,1.89,0,0,1-.79-1.56,2,2,0,0,1,.35-1.15,3.34,3.34,0,0,1,1-1,3.71,3.71,0,0,1-1.57-1.39,4,4,0,0,1-.51-2.08,3.91,3.91,0,0,1,1.26-3,4.63,4.63,0,0,1,3.28-1.16,19.35,19.35,0,0,0,3.27-.16,11.34,11.34,0,0,0,2.13-.64Zm-8.16,1.4a3.16,3.16,0,0,0-.79,2.26,3.06,3.06,0,0,0,.84,2.29,3.12,3.12,0,0,0,2.28.83,2.82,2.82,0,0,0,3.11-3.09,3.2,3.2,0,0,0-.79-2.32,3.05,3.05,0,0,0-2.32-.82A3,3,0,0,0,547.46,148.43Z" style="fill:#1d1d1b"/><path d="M572.7,147.53a4.16,4.16,0,0,1,.86,2.76v8.83h-1.37v-8.64a3.43,3.43,0,0,0-.55-2.16,1.89,1.89,0,0,0-1.55-.7,2.9,2.9,0,0,0-1.86.66,7.61,7.61,0,0,0-1.61,1.89v9h-1.37v-8.64a3.43,3.43,0,0,0-.55-2.16,1.89,1.89,0,0,0-1.55-.7,2.94,2.94,0,0,0-1.89.66,7.35,7.35,0,0,0-1.58,1.89v9h-1.37V146.77h1.18l.12,2.1a5.77,5.77,0,0,1,1.67-1.73,3.85,3.85,0,0,1,2.13-.63,3,3,0,0,1,2,.65,3.25,3.25,0,0,1,1.09,1.81,6.08,6.08,0,0,1,1.71-1.81,3.84,3.84,0,0,1,2.16-.65A2.92,2.92,0,0,1,572.7,147.53Z" style="fill:#1d1d1b"/><path d="M586.37,157.77a1.46,1.46,0,0,0,.79.64l-.31,1a2.42,2.42,0,0,1-1.31-.64,2.46,2.46,0,0,1-.6-1.44,4.21,4.21,0,0,1-3.85,2.08,3.84,3.84,0,0,1-2.8-1,3.6,3.6,0,0,1-1-2.68,3.49,3.49,0,0,1,1.35-2.95,6,6,0,0,1,3.77-1h2.36V150.5a2.42,2.42,0,0,0-2.86-2.83,10.07,10.07,0,0,0-3.35.71l-.35-1a10.56,10.56,0,0,1,3.89-.83q4,0,4,3.92v5.95A2.81,2.81,0,0,0,586.37,157.77Zm-1.62-1.67v-3.4H582.6a4.78,4.78,0,0,0-2.88.73,2.56,2.56,0,0,0-1,2.2,2.65,2.65,0,0,0,.69,2,2.59,2.59,0,0,0,1.91.68A3.74,3.74,0,0,0,584.75,156.1Z" style="fill:#1d1d1b"/><path d="M497.5,201.94h-1.37l-.73-7.75c-.3-3-.51-5.35-.62-7L490.72,200h-1.34l-4.21-12.86c-.08,1.52-.23,3.55-.47,6.07l-.07.92-.71,7.79h-1.34l1.53-16.17h2l4,12.58L494,185.77h2Z" style="fill:#1d1d1b"/><path d="M510.34,196.29H502.1a5.79,5.79,0,0,0,1.14,3.58A3.44,3.44,0,0,0,506,201a4.57,4.57,0,0,0,1.71-.3,7.11,7.11,0,0,0,1.62-.93l.63.88a7,7,0,0,1-1.88,1.13,6,6,0,0,1-2.15.38,4.73,4.73,0,0,1-3.85-1.68,7.07,7.07,0,0,1-1.39-4.65,9.11,9.11,0,0,1,.6-3.44,5.18,5.18,0,0,1,1.72-2.29,4.35,4.35,0,0,1,2.61-.81,4.27,4.27,0,0,1,3.59,1.59,7,7,0,0,1,1.23,4.38C510.39,195.65,510.37,196,510.34,196.29Zm-1.3-1.41a5.41,5.41,0,0,0-.86-3.25,3,3,0,0,0-2.56-1.17,3,3,0,0,0-2.48,1.18,6.08,6.08,0,0,0-1,3.59H509Z" style="fill:#1d1d1b"/><path d="M528.67,190.34a4.17,4.17,0,0,1,.86,2.77v8.83h-1.37V193.3a3.43,3.43,0,0,0-.55-2.16,1.86,1.86,0,0,0-1.55-.7,2.9,2.9,0,0,0-1.86.66,7.63,7.63,0,0,0-1.61,1.89v8.95h-1.37V193.3a3.43,3.43,0,0,0-.55-2.16,1.86,1.86,0,0,0-1.55-.7,2.94,2.94,0,0,0-1.89.66,7.18,7.18,0,0,0-1.58,1.89v8.95h-1.37V189.59h1.18l.12,2.1a5.46,5.46,0,0,1,1.68-1.73,3.79,3.79,0,0,1,2.12-.63,3,3,0,0,1,2,.65,3.18,3.18,0,0,1,1.09,1.81,5.85,5.85,0,0,1,1.71-1.81,3.84,3.84,0,0,1,2.16-.65A2.93,2.93,0,0,1,528.67,190.34Z" style="fill:#1d1d1b"/><path d="M542.82,191a9.87,9.87,0,0,1-.06,9.47,4,4,0,0,1-3.45,1.75,4.14,4.14,0,0,1-2-.5,4.64,4.64,0,0,1-1.53-1.32l-.14,1.56h-1.2V184.56l1.37-.16v6.91a4.43,4.43,0,0,1,3.7-2A3.84,3.84,0,0,1,542.82,191Zm-1.19,8.73a7.21,7.21,0,0,0,.91-4q0-5.23-3.33-5.24a3.26,3.26,0,0,0-1.91.56,6,6,0,0,0-1.51,1.57v6.49a4.66,4.66,0,0,0,1.41,1.45,3.33,3.33,0,0,0,1.85.53A2.93,2.93,0,0,0,541.63,199.71Z" style="fill:#1d1d1b"/><path d="M554.16,189.47l-.26,1.3a4.34,4.34,0,0,0-1.09-.14,2.51,2.51,0,0,0-2,.91,7.47,7.47,0,0,0-1.29,2.84v7.56h-1.36V189.59h1.18l.11,2.76a5,5,0,0,1,1.36-2.28,3.2,3.2,0,0,1,2.14-.74A4.79,4.79,0,0,1,554.16,189.47Z" style="fill:#1d1d1b"/><path d="M564.86,200.59a1.55,1.55,0,0,0,.79.64l-.3,1a2.42,2.42,0,0,1-1.31-.64,2.6,2.6,0,0,1-.61-1.44,4.23,4.23,0,0,1-3.85,2.08,3.8,3.8,0,0,1-2.79-1,3.56,3.56,0,0,1-1-2.68,3.49,3.49,0,0,1,1.36-2.95,6.07,6.07,0,0,1,3.76-1h2.36v-1.2a2.42,2.42,0,0,0-2.85-2.83,10,10,0,0,0-3.35.7l-.36-1a10.61,10.61,0,0,1,3.9-.83q4,0,4,3.92v5.95A3,3,0,0,0,564.86,200.59Zm-1.62-1.68v-3.39H561.1a4.78,4.78,0,0,0-2.88.73,2.52,2.52,0,0,0-1,2.19,2.63,2.63,0,0,0,.69,2,2.57,2.57,0,0,0,1.91.69A3.75,3.75,0,0,0,563.24,198.91Z" style="fill:#1d1d1b"/><path d="M577.61,190.32a4,4,0,0,1,.89,2.79v8.83h-1.37V193.3a3.32,3.32,0,0,0-.59-2.18,2.22,2.22,0,0,0-1.75-.68,3.51,3.51,0,0,0-2.09.65A6.91,6.91,0,0,0,571,193v8.95h-1.37V189.59h1.19l.14,2.1a5.66,5.66,0,0,1,1.79-1.73,4.41,4.41,0,0,1,2.34-.63A3.25,3.25,0,0,1,577.61,190.32Z" style="fill:#1d1d1b"/><path d="M591.3,200.59a1.55,1.55,0,0,0,.79.64l-.3,1a2.42,2.42,0,0,1-1.31-.64,2.6,2.6,0,0,1-.61-1.44A4.22,4.22,0,0,1,586,202.2a3.83,3.83,0,0,1-2.8-1,3.56,3.56,0,0,1-1-2.68,3.49,3.49,0,0,1,1.36-2.95,6.07,6.07,0,0,1,3.76-1h2.37v-1.2a2.43,2.43,0,0,0-2.86-2.83,10,10,0,0,0-3.35.7l-.36-1a10.65,10.65,0,0,1,3.9-.83q4,0,4,3.92v5.95A3,3,0,0,0,591.3,200.59Zm-1.61-1.68v-3.39h-2.15a4.78,4.78,0,0,0-2.88.73,2.54,2.54,0,0,0-1,2.19,2.63,2.63,0,0,0,.68,2,2.57,2.57,0,0,0,1.91.69A3.77,3.77,0,0,0,589.69,198.91Z" style="fill:#1d1d1b"/></g></g></svg>