<svg xmlns="http://www.w3.org/2000/svg" xmlns:xlink="http://www.w3.org/1999/xlink" viewBox="0 0 736.79 427.83"><defs><clipPath id="clip-path"><path d="M227.94,211.35v53.71a11.69,11.69,0,0,0,23.38,0V211.35a11.69,11.69,0,0,0-23.38,0" style="fill:none"></path></clipPath><linearGradient id="Gradiente_sem_nome_2" x1="-1069.17" y1="650.28" x2="-1067.28" y2="650.28" gradientTransform="matrix(12.36, 0, 0, -12.36, 13438.11, 8272.75)" gradientUnits="userSpaceOnUse"><stop offset="0" stop-color="#fff"></stop><stop offset="1" stop-color="#929292"></stop></linearGradient><clipPath id="clip-path-2"><rect x="8.65" y="14.01" width="660.66" height="394.07" style="fill:none"></rect></clipPath><clipPath id="clip-path-3"><path d="M415.45,211.35v53.71a11.69,11.69,0,1,0,23.37,0V211.35a11.69,11.69,0,1,0-23.37,0" style="fill:none"></path></clipPath><linearGradient id="Gradiente_sem_nome_2-2" x1="-1062.01" y1="650.28" x2="-1060.12" y2="650.28" gradientTransform="matrix(12.35, 0, 0, -12.35, 13536.62, 8272.44)" xlink:href="#Gradiente_sem_nome_2"></linearGradient></defs><title>fig-2-5</title><g id="fig-2-5"><polygon points="515.35 151.42 515.35 343.88 155.62 343.88 155.62 151.42 147.9 151.42 147.9 352.94 524.41 352.94 524.41 151.42 515.35 151.42" style="fill:#909975"></polygon><rect x="155.62" y="151.42" width="359.72" height="192.46" style="fill:#c0c8bc"></rect><rect x="333.38" y="151.42" width="5.54" height="192.46" style="fill:#5b4998"></rect><rect x="155.62" y="171.7" width="177.76" height="172.17" style="fill:#a0b9c1"></rect><rect x="338.93" y="191.35" width="176.42" height="152.52" style="fill:#a0b9c1"></rect><g style="clip-path:url(#clip-path)"><rect x="227.94" y="199.66" width="23.38" height="77.08" style="fill:url(#Gradiente_sem_nome_2)"></rect></g><g style="clip-path:url(#clip-path-2)"><path d="M251.32,265.06h-.48a11.22,11.22,0,0,1-22.43,0V211.35a11.22,11.22,0,1,1,22.43,0v53.71h.95V211.35a12.16,12.16,0,1,0-24.32,0v53.71a12.16,12.16,0,0,0,24.32,0Z" style="fill:#838382"></path></g><g style="clip-path:url(#clip-path-3)"><rect x="415.45" y="199.66" width="23.38" height="77.08" style="fill:url(#Gradiente_sem_nome_2-2)"></rect></g><g style="clip-path:url(#clip-path-2)"><path d="M438.82,265.06h-.47a11.22,11.22,0,1,1-22.43,0V211.35a11.22,11.22,0,1,1,22.43,0v53.71h.95V211.35a12.17,12.17,0,0,0-24.33,0v53.71a12.17,12.17,0,0,0,24.33,0Z" style="fill:#838382"></path></g><text transform="translate(234.96 220.83)" style="font-size:18.13736915588379px;fill:#1d1d1b;font-family:FiraSans-Regular, Fira Sans">+</text><rect x="321.22" y="70.06" width="6.83" height="32.49" style="fill:#575756"></rect><rect x="345.8" y="76.48" width="5.29" height="19.65" style="fill:#575756"></rect><g style="clip-path:url(#clip-path-2)"><path d="M241.52,199.66V109.93h0c0-.05,0-.44,0-1.08a22.06,22.06,0,0,1,3.51-12,17.57,17.57,0,0,1,7-6c3.24-1.59,7.56-2.64,13.35-2.64h55.89V84.41H265.33a33.82,33.82,0,0,0-15,3,21.49,21.49,0,0,0-10.69,11.4,27.3,27.3,0,0,0-1.94,10c0,.87.05,1.39.05,1.44l1.89-.18h-1.89v89.55Z" style="fill:#575756"></path><path d="M429.29,199.66V110.11h-1.9l1.89.17s.05-.57.05-1.43a26.52,26.52,0,0,0-4-14.15,20.88,20.88,0,0,0-8.15-7.25,31.6,31.6,0,0,0-14.49-3H348.93V88.2h53.75a27.94,27.94,0,0,1,12.78,2.62,17.4,17.4,0,0,1,8.48,9.43,23.87,23.87,0,0,1,1.6,8.6c0,.36,0,.65,0,.84v.25h0v89.72Z" style="fill:#575756"></path><path d="M434.24,266.67h17v-.94l-.09.94s.48,0,1.27,0a24.06,24.06,0,0,0,12.84-3.63c5-3.24,9.31-9.46,9.29-20.57V222.29a1,1,0,0,0-.28-.67.94.94,0,0,0-1.34,0,.93.93,0,0,0-.28.67v.51h1.9v-.51a1,1,0,0,0-.28-.67.94.94,0,0,0-1.34,0,.93.93,0,0,0-.28.67v20.22c0,10.64-4,16-8.43,19a22.3,22.3,0,0,1-11.8,3.32l-.83,0H434.24Z" style="fill:#575756"></path><path d="M429.77,267.67a80.44,80.44,0,0,1,7.67,2.82v-9.55a76,76,0,0,1-7.67,2.83,56.65,56.65,0,0,1-8.36,2,55.38,55.38,0,0,1,8.36,1.95" style="fill:#575756"></path><path d="M248.79,266.44h17v-.94l-.09.94s.49,0,1.27,0a24,24,0,0,0,12.84-3.63c5-3.24,9.31-9.46,9.29-20.57V222.06a1,1,0,0,0-.95-.95,1,1,0,0,0-.67.28,1,1,0,0,0-.27.67v.52h1.89v-.52a.95.95,0,0,0-1.62-.67,1,1,0,0,0-.27.67v20.22c0,10.64-4,16-8.44,19a22.21,22.21,0,0,1-11.8,3.32l-.83,0H248.79Z" style="fill:#575756"></path><path d="M244.32,267.44a79.44,79.44,0,0,1,7.67,2.82v-9.55a75.08,75.08,0,0,1-7.67,2.83,56.57,56.57,0,0,1-8.35,1.95,55.31,55.31,0,0,1,8.35,1.95" style="fill:#575756"></path><path d="M312.54,313.52l-.32.11c-3.27,1.06-31.1,9.7-70.73,9.7A262,262,0,0,1,170,313.51l-.52,1.82a263.69,263.69,0,0,0,72.05,9.89c42.56,0,71.59-9.88,71.66-9.91l-.61-1.78Z" style="fill:#575756"></path><path d="M316.45,311.14a78.27,78.27,0,0,1-8.17-.2l3.07,9a76.67,76.67,0,0,1,6.36-5.14A55.91,55.91,0,0,1,325,310.3a56,56,0,0,1-8.53.84" style="fill:#575756"></path><path d="M416.28,309.56l-.13.07a68.89,68.89,0,0,1-30.33,6.75,72.7,72.7,0,0,1-30.71-6.85l-.8,1.72a74.62,74.62,0,0,0,31.51,7c18.62,0,31.29-7,31.37-7.06Z" style="fill:#575756"></path><path d="M419.71,306.53a80.26,80.26,0,0,1-8.08,1.24l4.62,8.36a74.11,74.11,0,0,1,5.34-6.19,56.9,56.9,0,0,1,6.37-5.75,55.93,55.93,0,0,1-8.25,2.34" style="fill:#575756"></path><path d="M209.38,303.22a12.82,12.82,0,1,1-12.82-12.82,12.82,12.82,0,0,1,12.82,12.82" style="fill:#0083cb"></path></g><text transform="translate(188.2 307)" style="font-size:12.091580390930176px;fill:#fff;font-family:FiraSans-Regular, Fira Sans">Na</text><text transform="translate(202.08 302.98)" style="font-size:7.04941987991333px;fill:#fff;font-family:FiraSans-Regular, Fira Sans">+</text><g style="clip-path:url(#clip-path-2)"><path d="M252.44,303.66a12.81,12.81,0,1,1-12.81-12.81,12.82,12.82,0,0,1,12.81,12.81" style="fill:#0083cb"></path></g><text transform="translate(231.26 307.44)" style="font-size:12.091580390930176px;fill:#fff;font-family:FiraSans-Regular, Fira Sans">Na</text><text transform="translate(245.14 303.41)" style="font-size:7.04941987991333px;fill:#fff;font-family:FiraSans-Regular, Fira Sans">+</text><g style="clip-path:url(#clip-path-2)"><path d="M294.11,303.66a12.81,12.81,0,1,1-12.81-12.81,12.82,12.82,0,0,1,12.81,12.81" style="fill:#0083cb"></path></g><text transform="translate(272.93 307.44)" style="font-size:12.091580390930176px;fill:#fff;font-family:FiraSans-Regular, Fira Sans">Na</text><text transform="translate(286.82 303.41)" style="font-size:7.04941987991333px;fill:#fff;font-family:FiraSans-Regular, Fira Sans">+</text><g style="clip-path:url(#clip-path-2)"><path d="M466.7,298.88a12.81,12.81,0,1,1-12.81-12.81,12.82,12.82,0,0,1,12.81,12.81" style="fill:#0083cb"></path></g><text transform="translate(445.52 302.66)" style="font-size:12.091580390930176px;fill:#fff;font-family:FiraSans-Regular, Fira Sans">Na</text><text transform="translate(459.4 298.64)" style="font-size:7.04941987991333px;fill:#fff;font-family:FiraSans-Regular, Fira Sans">+</text><g style="clip-path:url(#clip-path-2)"><path d="M503.06,286.2a12.81,12.81,0,1,1-12.81-12.81,12.81,12.81,0,0,1,12.81,12.81" style="fill:#0083cb"></path></g><text transform="translate(481.88 289.98)" style="font-size:12.091580390930176px;fill:#fff;font-family:FiraSans-Regular, Fira Sans">Na</text><text transform="translate(495.77 285.96)" style="font-size:7.04941987991333px;fill:#fff;font-family:FiraSans-Regular, Fira Sans">+</text><g style="clip-path:url(#clip-path-2)"><path d="M498.38,319.35a12.81,12.81,0,1,1-12.81-12.82,12.82,12.82,0,0,1,12.81,12.82" style="fill:#0083cb"></path></g><text transform="translate(477.2 323.13)" style="font-size:12.091580390930176px;fill:#fff;font-family:FiraSans-Regular, Fira Sans">Na</text><text transform="translate(491.08 319.11)" style="font-size:7.04941987991333px;fill:#fff;font-family:FiraSans-Regular, Fira Sans">+</text><g style="clip-path:url(#clip-path-2)"><path d="M451.63,327.23a12.81,12.81,0,1,1-12.81-12.81,12.8,12.8,0,0,1,12.81,12.81" style="fill:#0083cb"></path></g><text transform="translate(430.46 331.02)" style="font-size:12.091580390930176px;fill:#fff;font-family:FiraSans-Regular, Fira Sans">Na</text><text transform="translate(444.34 326.99)" style="font-size:7.04941987991333px;fill:#fff;font-family:FiraSans-Regular, Fira Sans">+</text><g style="clip-path:url(#clip-path-2)"><path d="M271.85,158.56A12.81,12.81,0,1,1,259,145.74a12.81,12.81,0,0,1,12.81,12.82" style="fill:#59a577"></path></g><text transform="translate(252.28 161.29)" style="font-size:12.091580390930176px;fill:#fff;font-family:FiraSans-Regular, Fira Sans">Cl</text><text transform="translate(262.14 165.32)" style="font-size:7.04941987991333px;fill:#fff;font-family:FiraSans-Regular, Fira Sans">2</text><g style="clip-path:url(#clip-path-2)"><path d="M278.87,111.3a12.82,12.82,0,1,1-12.82-12.81,12.81,12.81,0,0,1,12.82,12.81" style="fill:#59a577"></path></g><text transform="translate(259.29 114.03)" style="font-size:12.091580390930176px;fill:#fff;font-family:FiraSans-Regular, Fira Sans">Cl</text><text transform="translate(269.15 118.06)" style="font-size:7.04941987991333px;fill:#fff;font-family:FiraSans-Regular, Fira Sans">2</text><g style="clip-path:url(#clip-path-2)"><path d="M222.19,155.83A12.81,12.81,0,1,1,209.38,143a12.81,12.81,0,0,1,12.81,12.81" style="fill:#59a577"></path></g><text transform="translate(202.61 158.56)" style="font-size:12.091580390930176px;fill:#fff;font-family:FiraSans-Regular, Fira Sans">Cl</text><text transform="translate(212.47 162.59)" style="font-size:7.04941987991333px;fill:#fff;font-family:FiraSans-Regular, Fira Sans">2</text><g style="clip-path:url(#clip-path-2)"><path d="M222.31,121.35a12.81,12.81,0,1,1-12.81-12.81,12.81,12.81,0,0,1,12.81,12.81" style="fill:#59a577"></path></g><text transform="translate(202.74 124.08)" style="font-size:12.091580390930176px;fill:#fff;font-family:FiraSans-Regular, Fira Sans">Cl</text><text transform="translate(212.59 128.11)" style="font-size:7.04941987991333px;fill:#fff;font-family:FiraSans-Regular, Fira Sans">2</text><g style="clip-path:url(#clip-path-2)"><path d="M229.32,86.31a12.81,12.81,0,1,1-12.81-12.82,12.81,12.81,0,0,1,12.81,12.82" style="fill:#59a577"></path></g><text transform="translate(209.75 89.04)" style="font-size:12.091580390930176px;fill:#fff;font-family:FiraSans-Regular, Fira Sans">Cl</text><text transform="translate(219.6 93.07)" style="font-size:7.04941987991333px;fill:#fff;font-family:FiraSans-Regular, Fira Sans">2</text><g style="clip-path:url(#clip-path-2)"><path d="M261.6,62.56a12.81,12.81,0,1,1-12.81-12.81A12.81,12.81,0,0,1,261.6,62.56" style="fill:#59a577"></path></g><text transform="translate(242.03 65.3)" style="font-size:12.091580390930176px;fill:#fff;font-family:FiraSans-Regular, Fira Sans">Cl</text><text transform="translate(251.88 69.32)" style="font-size:7.04941987991333px;fill:#fff;font-family:FiraSans-Regular, Fira Sans">2</text><g style="clip-path:url(#clip-path-2)"><path d="M314.54,210.72a12.81,12.81,0,1,1-12.81-12.81,12.82,12.82,0,0,1,12.81,12.81" style="fill:#a18825"></path></g><text transform="translate(294.97 215.22)" style="font-size:12.091580390930176px;fill:#fff;font-family:FiraSans-Regular, Fira Sans">Cl</text><text transform="translate(304.82 211.19)" style="font-size:7.04941987991333px;fill:#fff;font-family:FiraSans-Regular, Fira Sans">-</text><g style="clip-path:url(#clip-path-2)"><path d="M599.57,257.83a22.1,22.1,0,1,1-22.1-22.09,22.1,22.1,0,0,1,22.1,22.09" style="fill:#dd9803"></path></g><text transform="translate(562.73 262.02)" style="font-size:15.022049903869629px;fill:#fff;font-family:FiraSans-Regular, Fira Sans">NaCl</text><g style="clip-path:url(#clip-path-2)"><path d="M651.48,323.88a22.1,22.1,0,1,1-22.09-22.1,22.1,22.1,0,0,1,22.09,22.1" style="fill:#dd9803"></path></g><text transform="translate(614.64 328.07)" style="font-size:15.022049903869629px;fill:#fff;font-family:FiraSans-Regular, Fira Sans">NaCl</text><g style="clip-path:url(#clip-path-2)"><path d="M651.48,257.83a22.1,22.1,0,1,1-22.09-22.09,22.1,22.1,0,0,1,22.09,22.09" style="fill:#d0d116"></path></g><text transform="translate(611.16 262.18)" style="font-size:15.022049903869629px;fill:#fff;font-family:FiraSans-Regular, Fira Sans">NaOH</text><g style="clip-path:url(#clip-path-2)"><path d="M599.57,323.88a22.1,22.1,0,1,1-22.1-22.1,22.1,22.1,0,0,1,22.1,22.1" style="fill:#d0d116"></path></g><text transform="translate(559.25 328.23)" style="font-size:15.022049903869629px;fill:#fff;font-family:FiraSans-Regular, Fira Sans">NaOH</text><g style="clip-path:url(#clip-path-2)"><path d="M614.36,290.86a10.93,10.93,0,1,1-10.93-10.93,10.92,10.92,0,0,1,10.93,10.93" style="fill:#90bdcf"></path></g><text transform="translate(594.4 294.42)" style="font-size:11.266579627990723px;fill:#fff;font-family:FiraSans-Regular, Fira Sans">H</text><text transform="translate(601.5 298.17)" style="font-size:6.568419933319092px;fill:#fff;font-family:FiraSans-Regular, Fira Sans">2</text><text transform="translate(605.15 294.42)" style="font-size:11.266579627990723px;fill:#fff;font-family:FiraSans-Regular, Fira Sans">O</text><g style="clip-path:url(#clip-path-2)"><path d="M565.83,290.86a10.93,10.93,0,1,1-10.93-10.93,10.92,10.92,0,0,1,10.93,10.93" style="fill:#90bdcf"></path></g><text transform="translate(545.88 294.42)" style="font-size:11.266579627990723px;fill:#fff;font-family:FiraSans-Regular, Fira Sans">H</text><text transform="translate(552.97 298.17)" style="font-size:6.568419933319092px;fill:#fff;font-family:FiraSans-Regular, Fira Sans">2</text><text transform="translate(556.63 294.42)" style="font-size:11.266579627990723px;fill:#fff;font-family:FiraSans-Regular, Fira Sans">O</text><g style="clip-path:url(#clip-path-2)"><path d="M614.36,226.7a10.93,10.93,0,1,1-10.93-10.93,10.92,10.92,0,0,1,10.93,10.93" style="fill:#90bdcf"></path></g><text transform="translate(594.4 230.26)" style="font-size:11.266579627990723px;fill:#fff;font-family:FiraSans-Regular, Fira Sans">H</text><text transform="translate(601.5 234.01)" style="font-size:6.568419933319092px;fill:#fff;font-family:FiraSans-Regular, Fira Sans">2</text><text transform="translate(605.15 230.26)" style="font-size:11.266579627990723px;fill:#fff;font-family:FiraSans-Regular, Fira Sans">O</text><g style="clip-path:url(#clip-path-2)"><path d="M614.36,356.9A10.93,10.93,0,1,1,603.43,346a10.93,10.93,0,0,1,10.93,10.92" style="fill:#90bdcf"></path></g><text transform="translate(594.4 360.47)" style="font-size:11.266579627990723px;fill:#fff;font-family:FiraSans-Regular, Fira Sans">H</text><text transform="translate(601.5 364.22)" style="font-size:6.568419933319092px;fill:#fff;font-family:FiraSans-Regular, Fira Sans">2</text><text transform="translate(605.15 360.47)" style="font-size:11.266579627990723px;fill:#fff;font-family:FiraSans-Regular, Fira Sans">O</text><g style="clip-path:url(#clip-path-2)"><path d="M662.89,290.86A10.93,10.93,0,1,1,652,279.93a10.93,10.93,0,0,1,10.93,10.93" style="fill:#90bdcf"></path></g><text transform="translate(642.93 294.42)" style="font-size:11.266579627990723px;fill:#fff;font-family:FiraSans-Regular, Fira Sans">H</text><text transform="translate(650.03 298.17)" style="font-size:6.568419933319092px;fill:#fff;font-family:FiraSans-Regular, Fira Sans">2</text><text transform="translate(653.68 294.42)" style="font-size:11.266579627990723px;fill:#fff;font-family:FiraSans-Regular, Fira Sans">O</text><g style="clip-path:url(#clip-path-2)"><path d="M72.67,151.35a22.49,22.49,0,1,1-22.49-22.49,22.49,22.49,0,0,1,22.49,22.49" style="fill:#dd9803"></path></g><text transform="translate(35.17 155.61)" style="font-size:15.288089752197266px;fill:#fff;font-family:FiraSans-Regular, Fira Sans">NaCl</text><g style="clip-path:url(#clip-path-2)"><path d="M125.5,151.35A22.49,22.49,0,1,1,103,128.86a22.49,22.49,0,0,1,22.49,22.49" style="fill:#dd9803"></path></g><text transform="translate(88.01 155.61)" style="font-size:15.288089752197266px;fill:#fff;font-family:FiraSans-Regular, Fira Sans">NaCl</text><g style="clip-path:url(#clip-path-2)"><path d="M72.67,218.56a22.49,22.49,0,1,1-22.49-22.49,22.49,22.49,0,0,1,22.49,22.49" style="fill:#dd9803"></path></g><text transform="translate(35.17 222.83)" style="font-size:15.288089752197266px;fill:#fff;font-family:FiraSans-Regular, Fira Sans">NaCl</text><g style="clip-path:url(#clip-path-2)"><path d="M125.5,218.56A22.49,22.49,0,1,1,103,196.07a22.49,22.49,0,0,1,22.49,22.49" style="fill:#dd9803"></path></g><text transform="translate(88.01 222.83)" style="font-size:15.288089752197266px;fill:#fff;font-family:FiraSans-Regular, Fira Sans">NaCl</text><g style="clip-path:url(#clip-path-2)"><path d="M87.72,185a11.13,11.13,0,1,1-11.13-11.12A11.12,11.12,0,0,1,87.72,185" style="fill:#90bdcf"></path></g><text transform="translate(67.41 188.58)" style="font-size:11.466019630432129px;fill:#fff;font-family:FiraSans-Regular, Fira Sans">H</text><text transform="translate(74.64 192.4)" style="font-size:6.684790134429932px;fill:#fff;font-family:FiraSans-Regular, Fira Sans">2</text><text transform="translate(78.35 188.58)" style="font-size:11.466019630432129px;fill:#fff;font-family:FiraSans-Regular, Fira Sans">O</text><g style="clip-path:url(#clip-path-2)"><path d="M38.33,185a11.12,11.12,0,1,1-11.12-11.12A11.12,11.12,0,0,1,38.33,185" style="fill:#90bdcf"></path></g><text transform="translate(18.03 188.58)" style="font-size:11.466019630432129px;fill:#fff;font-family:FiraSans-Regular, Fira Sans">H</text><text transform="translate(25.25 192.4)" style="font-size:6.684790134429932px;fill:#fff;font-family:FiraSans-Regular, Fira Sans">2</text><text transform="translate(28.97 188.58)" style="font-size:11.466019630432129px;fill:#fff;font-family:FiraSans-Regular, Fira Sans">O</text><g style="clip-path:url(#clip-path-2)"><path d="M87.72,119.66a11.13,11.13,0,1,1-11.13-11.12,11.12,11.12,0,0,1,11.13,11.12" style="fill:#90bdcf"></path></g><text transform="translate(67.41 123.29)" style="font-size:11.466019630432129px;fill:#fff;font-family:FiraSans-Regular, Fira Sans">H</text><text transform="translate(74.64 127.11)" style="font-size:6.684790134429932px;fill:#fff;font-family:FiraSans-Regular, Fira Sans">2</text><text transform="translate(78.35 123.29)" style="font-size:11.466019630432129px;fill:#fff;font-family:FiraSans-Regular, Fira Sans">O</text><g style="clip-path:url(#clip-path-2)"><path d="M87.72,252.17a11.13,11.13,0,1,1-11.13-11.12,11.12,11.12,0,0,1,11.13,11.12" style="fill:#90bdcf"></path></g><text transform="translate(67.41 255.8)" style="font-size:11.466019630432129px;fill:#fff;font-family:FiraSans-Regular, Fira Sans">H</text><text transform="translate(74.64 259.62)" style="font-size:6.684790134429932px;fill:#fff;font-family:FiraSans-Regular, Fira Sans">2</text><text transform="translate(78.35 255.8)" style="font-size:11.466019630432129px;fill:#fff;font-family:FiraSans-Regular, Fira Sans">O</text><g style="clip-path:url(#clip-path-2)"><path d="M499.1,251.42l14.48,13.12a1.89,1.89,0,0,0,2.54-2.8l-14.48-13.13a1.89,1.89,0,0,0-2.54,2.81" style="fill:#1d1d1b"></path><path d="M509.17,250a8.8,8.8,0,1,1-8.8-8.79,8.8,8.8,0,0,1,8.8,8.79" style="fill:#a7abac"></path><path d="M509.17,250h-.48a8.31,8.31,0,1,1-2.43-5.88,8.33,8.33,0,0,1,2.43,5.88h.95a9.27,9.27,0,1,0-9.27,9.27,9.27,9.27,0,0,0,9.27-9.27Z" style="fill:#1d1d1b"></path><path d="M506.88,250a6.51,6.51,0,1,1-6.51-6.51,6.5,6.5,0,0,1,6.51,6.51" style="fill:#009fc7"></path><path d="M179.64,243.26l14.48,13.13a1.89,1.89,0,0,0,2.55-2.8l-14.49-13.13a1.89,1.89,0,0,0-2.54,2.8" style="fill:#1d1d1b"></path><path d="M189.71,241.86a8.8,8.8,0,1,1-8.8-8.8,8.79,8.79,0,0,1,8.8,8.8" style="fill:#a7abac"></path><path d="M189.71,241.86h-.47A8.33,8.33,0,1,1,186.8,236a8.3,8.3,0,0,1,2.44,5.88h.94a9.27,9.27,0,1,0-9.27,9.27,9.27,9.27,0,0,0,9.27-9.27Z" style="fill:#1d1d1b"></path><path d="M187.42,241.86a6.51,6.51,0,1,1-6.51-6.51,6.51,6.51,0,0,1,6.51,6.51" style="fill:#dd9803"></path><path d="M137.1,185A11.12,11.12,0,1,1,126,173.83,11.12,11.12,0,0,1,137.1,185" style="fill:#90bdcf"></path></g><text transform="translate(116.8 188.58)" style="font-size:11.466019630432129px;fill:#fff;font-family:FiraSans-Regular, Fira Sans">H</text><text transform="translate(124.02 192.4)" style="font-size:6.684790134429932px;fill:#fff;font-family:FiraSans-Regular, Fira Sans">2</text><text transform="translate(127.74 188.58)" style="font-size:11.466019630432129px;fill:#fff;font-family:FiraSans-Regular, Fira Sans">O</text><g style="clip-path:url(#clip-path-2)"><path d="M418.45,70.06a12.81,12.81,0,1,1-12.81-12.82,12.81,12.81,0,0,1,12.81,12.82" style="fill:#979696"></path></g><text transform="translate(399.82 72.6)" style="font-size:12.091580390930176px;fill:#fff;font-family:FiraSans-Regular, Fira Sans">H</text><text transform="translate(407.44 76.63)" style="font-size:7.04941987991333px;fill:#fff;font-family:FiraSans-Regular, Fira Sans">2</text><g style="clip-path:url(#clip-path-2)"><path d="M466.75,86.31a12.81,12.81,0,1,1-12.81-12.82,12.82,12.82,0,0,1,12.81,12.82" style="fill:#979696"></path></g><text transform="translate(448.12 88.85)" style="font-size:12.091580390930176px;fill:#fff;font-family:FiraSans-Regular, Fira Sans">H</text><text transform="translate(455.74 92.88)" style="font-size:7.04941987991333px;fill:#fff;font-family:FiraSans-Regular, Fira Sans">2</text><g style="clip-path:url(#clip-path-2)"><path d="M418.45,106a12.81,12.81,0,1,1-12.81-12.82A12.81,12.81,0,0,1,418.45,106" style="fill:#979696"></path></g><text transform="translate(399.82 108.53)" style="font-size:12.091580390930176px;fill:#fff;font-family:FiraSans-Regular, Fira Sans">H</text><text transform="translate(407.44 112.56)" style="font-size:7.04941987991333px;fill:#fff;font-family:FiraSans-Regular, Fira Sans">2</text><g style="clip-path:url(#clip-path-2)"><path d="M418.45,148.7a12.81,12.81,0,1,1-12.81-12.81,12.81,12.81,0,0,1,12.81,12.81" style="fill:#979696"></path></g><text transform="translate(399.82 151.24)" style="font-size:12.091580390930176px;fill:#fff;font-family:FiraSans-Regular, Fira Sans">H</text><text transform="translate(407.44 155.27)" style="font-size:7.04941987991333px;fill:#fff;font-family:FiraSans-Regular, Fira Sans">2</text><g style="clip-path:url(#clip-path-2)"><path d="M464.45,128.65a12.82,12.82,0,1,1-12.82-12.81,12.81,12.81,0,0,1,12.82,12.81" style="fill:#979696"></path></g><text transform="translate(445.81 131.2)" style="font-size:12.091580390930176px;fill:#fff;font-family:FiraSans-Regular, Fira Sans">H</text><text transform="translate(453.44 135.22)" style="font-size:7.04941987991333px;fill:#fff;font-family:FiraSans-Regular, Fira Sans">2</text><g style="clip-path:url(#clip-path-2)"><path d="M466.75,168.64a12.81,12.81,0,1,1-12.81-12.81,12.81,12.81,0,0,1,12.81,12.81" style="fill:#979696"></path></g><text transform="translate(448.12 171.19)" style="font-size:12.091580390930176px;fill:#fff;font-family:FiraSans-Regular, Fira Sans">H</text><text transform="translate(455.74 175.21)" style="font-size:7.04941987991333px;fill:#fff;font-family:FiraSans-Regular, Fira Sans">2</text><g style="clip-path:url(#clip-path-2)"><path d="M376.81,294.86A12.81,12.81,0,1,1,364,282.05a12.81,12.81,0,0,1,12.81,12.81" style="fill:#554395"></path></g><g style="clip-path:url(#clip-path-2)"><path d="M369.76,328.84A12.81,12.81,0,1,1,357,316a12.81,12.81,0,0,1,12.81,12.82" style="fill:#554395"></path></g><text transform="translate(346.42 333.5)" style="font-size:12.091580390930176px;fill:#fff;font-family:FiraSans-Regular, Fira Sans">OH</text><line x1="363.01" y1="326.99" x2="367.08" y2="326.99" style="fill:none;stroke:#fff;stroke-miterlimit:10;stroke-width:0.8px"></line><g style="clip-path:url(#clip-path-2)"><path d="M503.06,215.76A12.81,12.81,0,1,1,490.25,203a12.8,12.8,0,0,1,12.81,12.81" style="fill:#596124"></path></g><text transform="translate(353.54 299.47)" style="font-size:12.091580390930176px;fill:#fff;font-family:FiraSans-Regular, Fira Sans">OH</text><line x1="370.13" y1="292.96" x2="374.2" y2="292.96" style="fill:none;stroke:#fff;stroke-miterlimit:10;stroke-width:0.8px"></line><text transform="translate(485.57 220.01)" style="font-size:12.091580390930176px;fill:#fff;font-family:FiraSans-Regular, Fira Sans">H</text><text transform="translate(493.19 215.98)" style="font-size:7.04941987991333px;fill:#fff;font-family:FiraSans-Regular, Fira Sans">+</text><polygon points="328.95 14.96 320.24 14.96 325.65 21.89 322.77 21.92 328.98 30.55 326.04 30.49 339.5 43.97 335.07 33.81 337.74 33.81 333.39 26.56 336.56 26.69 328.95 14.96" style="fill:#ffed00"></polygon><path d="M324.61,22.85h1.05l1.92,0-5.4-6.92h6.26l6.33,9.77-1.34-.05-1.75-.08,4.39,7.33h-2.45l3,6.89-8.25-8.27H329l1.89,0ZM329,15l-.79.51ZM318.3,14l5.43,7h-1l-1.83,0,6.17,8.58-1.05,0-2.35-.05,15.12,15.14,1.53-1-3.85-8.83h2.9l-4.31-7.18,1.42.05,1.83.08L329.46,14Z" style="fill:#fbb800"></path><line x1="424.35" y1="215.22" x2="429.93" y2="215.22" style="fill:none;stroke:#1d1d1b;stroke-miterlimit:10;stroke-width:0.9px"></line><g id="preto"><path d="M216.37,15.21a6.41,6.41,0,0,1,1.8,1.08l-1.09,1.27a4.29,4.29,0,0,0-2.76-1.06,3.52,3.52,0,0,0-2.89,1.37,7.11,7.11,0,0,0-1.09,4.41,7.13,7.13,0,0,0,1.08,4.36,3.45,3.45,0,0,0,2.88,1.41,3.81,3.81,0,0,0,1.6-.31,8.44,8.44,0,0,0,1.46-.88l1,1.25a5.35,5.35,0,0,1-1.7,1.15,6,6,0,0,1-2.4.45,5.66,5.66,0,0,1-3.11-.86A5.59,5.59,0,0,1,209,26.31a9.66,9.66,0,0,1-.76-4,9.3,9.3,0,0,1,.79-4,5.85,5.85,0,0,1,2.14-2.53,5.54,5.54,0,0,1,3-.86A6.28,6.28,0,0,1,216.37,15.21Z" style="fill:#1d1d1b"></path><path d="M221.24,29.08a2.45,2.45,0,0,1-.62-1.78V14.08l1.92-.23V27.26a1.13,1.13,0,0,0,.15.66.64.64,0,0,0,.53.21,2,2,0,0,0,.71-.12l.5,1.33a3.11,3.11,0,0,1-1.52.37A2.22,2.22,0,0,1,221.24,29.08Z" style="fill:#1d1d1b"></path><path d="M234.54,19.79A6.35,6.35,0,0,1,235.82,24a7.45,7.45,0,0,1-.58,3,4.67,4.67,0,0,1-1.69,2,4.78,4.78,0,0,1-2.62.71,4.46,4.46,0,0,1-3.61-1.54A6.29,6.29,0,0,1,226,24a7.28,7.28,0,0,1,.59-3,4.65,4.65,0,0,1,1.68-2,4.83,4.83,0,0,1,2.65-.71A4.41,4.41,0,0,1,234.54,19.79ZM228.1,24q0,4.19,2.83,4.18c1.88,0,2.83-1.4,2.83-4.2s-.94-4.18-2.81-4.18S228.1,21.19,228.1,24Z" style="fill:#1d1d1b"></path><path d="M244.83,18.37l-.35,1.87a4.2,4.2,0,0,0-1-.12,2.05,2.05,0,0,0-1.65.75,5.6,5.6,0,0,0-1,2.33v6.26H239v-11h1.65l.18,2.22A4.15,4.15,0,0,1,242,18.87a2.62,2.62,0,0,1,1.75-.62A4.58,4.58,0,0,1,244.83,18.37Z" style="fill:#1d1d1b"></path><path d="M254.73,19.79A6.35,6.35,0,0,1,256,24a7.28,7.28,0,0,1-.59,3,4.59,4.59,0,0,1-1.68,2,4.78,4.78,0,0,1-2.62.71,4.44,4.44,0,0,1-3.61-1.54A6.29,6.29,0,0,1,246.22,24a7.28,7.28,0,0,1,.59-3,4.65,4.65,0,0,1,1.68-2,4.83,4.83,0,0,1,2.65-.71A4.41,4.41,0,0,1,254.73,19.79ZM248.28,24q0,4.19,2.84,4.18c1.88,0,2.83-1.4,2.83-4.2s-.94-4.18-2.81-4.18S248.28,21.19,248.28,24Z" style="fill:#1d1d1b"></path><path d="M395.84,29.46V22.74h-6v6.72h-2V15.12h2v6h6v-6h2V29.46Z" style="fill:#1d1d1b"></path><path d="M403.79,13.6a1.28,1.28,0,0,1,.37.94,1.24,1.24,0,0,1-.37.93,1.36,1.36,0,0,1-1,.36,1.33,1.33,0,0,1-1-.36,1.24,1.24,0,0,1-.37-.93,1.28,1.28,0,0,1,.37-.94,1.3,1.3,0,0,1,1-.37A1.33,1.33,0,0,1,403.79,13.6Zm0,4.9v11h-1.92v-11Z" style="fill:#1d1d1b"></path><path d="M416.24,14.08V29.46h-1.69L414.36,28a4.08,4.08,0,0,1-1.35,1.3,3.58,3.58,0,0,1-1.81.46,3.52,3.52,0,0,1-3.05-1.54A7,7,0,0,1,407.06,24a8.07,8.07,0,0,1,.52-3A4.65,4.65,0,0,1,409.07,19a3.73,3.73,0,0,1,2.29-.73,4,4,0,0,1,3,1.35V13.85Zm-3.13,13.71a4.67,4.67,0,0,0,1.21-1.22V21.2a4.12,4.12,0,0,0-1.16-1.07,2.66,2.66,0,0,0-1.38-.36,2.22,2.22,0,0,0-2,1.06,5.83,5.83,0,0,0-.69,3.16,6.1,6.1,0,0,0,.64,3.16,2.05,2.05,0,0,0,1.85,1.05A2.67,2.67,0,0,0,413.11,27.79Z" style="fill:#1d1d1b"></path><path d="M426,18.37l-.36,1.87a4.05,4.05,0,0,0-.95-.12,2.05,2.05,0,0,0-1.65.75,5.73,5.73,0,0,0-1,2.33v6.26h-1.91v-11h1.64l.19,2.22a4.15,4.15,0,0,1,1.19-1.85,2.62,2.62,0,0,1,1.75-.62A4.7,4.7,0,0,1,426,18.37Z" style="fill:#1d1d1b"></path><path d="M435.94,19.79A6.34,6.34,0,0,1,437.21,24a7.28,7.28,0,0,1-.58,3A4.65,4.65,0,0,1,435,29a4.79,4.79,0,0,1-2.63.71,4.43,4.43,0,0,1-3.6-1.54A6.29,6.29,0,0,1,427.43,24a7.28,7.28,0,0,1,.59-3,4.59,4.59,0,0,1,1.68-2,4.82,4.82,0,0,1,2.64-.71A4.43,4.43,0,0,1,435.94,19.79ZM429.49,24c0,2.79.95,4.18,2.83,4.18s2.83-1.4,2.83-4.2-.93-4.18-2.81-4.18S429.49,21.19,429.49,24Z" style="fill:#1d1d1b"></path><path d="M449.22,19a6.15,6.15,0,0,1-1.37.28q-.75.06-1.83.06A2.88,2.88,0,0,1,448,22.1a3.48,3.48,0,0,1-1.12,2.68,4.3,4.3,0,0,1-3.06,1,4.45,4.45,0,0,1-1.39-.21,1.24,1.24,0,0,0-.4.45,1.2,1.2,0,0,0-.14.57c0,.6.47.9,1.43.9H445a4.66,4.66,0,0,1,2,.39A3.19,3.19,0,0,1,448.3,29a2.71,2.71,0,0,1,.47,1.56A2.77,2.77,0,0,1,447.46,33a7,7,0,0,1-3.83.87,8.42,8.42,0,0,1-2.8-.37,2.61,2.61,0,0,1-1.47-1.09,3.59,3.59,0,0,1-.44-1.87h1.73a1.9,1.9,0,0,0,.25,1.05,1.53,1.53,0,0,0,.89.58,6.64,6.64,0,0,0,1.84.2,5.12,5.12,0,0,0,2.46-.43,1.39,1.39,0,0,0,.74-1.28,1.3,1.3,0,0,0-.58-1.16,2.83,2.83,0,0,0-1.63-.4H442.9a3.31,3.31,0,0,1-2.12-.59,1.87,1.87,0,0,1-.71-1.49,1.91,1.91,0,0,1,.31-1,3.16,3.16,0,0,1,.89-.9,3.48,3.48,0,0,1-1.4-1.23,3.44,3.44,0,0,1-.45-1.8,3.68,3.68,0,0,1,.55-2,3.88,3.88,0,0,1,1.52-1.37,4.82,4.82,0,0,1,2.16-.48,15,15,0,0,0,2.16-.1,7.25,7.25,0,0,0,1.45-.31c.38-.13.85-.32,1.4-.57ZM442,20.3a2.57,2.57,0,0,0-.59,1.78,2.61,2.61,0,0,0,.6,1.8,2.17,2.17,0,0,0,1.71.67,2.23,2.23,0,0,0,1.72-.65,2.68,2.68,0,0,0,.59-1.84c0-1.63-.79-2.44-2.35-2.44A2.12,2.12,0,0,0,442,20.3Z" style="fill:#1d1d1b"></path><path d="M459.44,24.64h-7a4.25,4.25,0,0,0,.92,2.66,2.63,2.63,0,0,0,2,.85,4.24,4.24,0,0,0,1.45-.23,5.84,5.84,0,0,0,1.4-.72l.83,1.14a6,6,0,0,1-3.83,1.37,4.46,4.46,0,0,1-3.57-1.49,6.18,6.18,0,0,1-1.28-4.13,7.75,7.75,0,0,1,.55-3A4.8,4.8,0,0,1,452.54,19a4.52,4.52,0,0,1,5.78.69,6.13,6.13,0,0,1,1.17,4C459.49,24,459.47,24.3,459.44,24.64Zm-7.05-8.37-.81-.94L454.39,13h1.27l2.83,2.35-.84.94L455,14.52Zm5.2,6.83a4.05,4.05,0,0,0-.64-2.48,2.28,2.28,0,0,0-1.94-.85q-2.36,0-2.56,3.45h5.14Z" style="fill:#1d1d1b"></path><path d="M470.05,19.14a3.46,3.46,0,0,1,.84,2.46v7.86H469V21.87a2.45,2.45,0,0,0-.44-1.65,1.65,1.65,0,0,0-1.29-.48,2.51,2.51,0,0,0-1.54.5,5.49,5.49,0,0,0-1.25,1.44v7.78h-1.91v-11h1.64l.17,1.62a4.28,4.28,0,0,1,1.44-1.37,3.68,3.68,0,0,1,1.91-.5A3,3,0,0,1,470.05,19.14Z" style="fill:#1d1d1b"></path><path d="M476.66,13.6a1.28,1.28,0,0,1,.37.94,1.24,1.24,0,0,1-.37.93,1.36,1.36,0,0,1-1,.36,1.33,1.33,0,0,1-1-.36,1.24,1.24,0,0,1-.37-.93,1.28,1.28,0,0,1,.37-.94,1.3,1.3,0,0,1,1-.37A1.33,1.33,0,0,1,476.66,13.6Zm0,4.9v11h-1.92v-11Z" style="fill:#1d1d1b"></path><path d="M488.32,19.79A6.29,6.29,0,0,1,489.6,24a7.28,7.28,0,0,1-.58,3,4.61,4.61,0,0,1-1.69,2,4.73,4.73,0,0,1-2.62.71,4.43,4.43,0,0,1-3.6-1.54A6.29,6.29,0,0,1,479.82,24a7.45,7.45,0,0,1,.58-3,4.61,4.61,0,0,1,1.69-2,4.8,4.8,0,0,1,2.64-.71A4.4,4.4,0,0,1,488.32,19.79ZM481.88,24q0,4.19,2.83,4.18t2.83-4.2c0-2.79-.93-4.18-2.81-4.18S481.88,21.19,481.88,24Z" style="fill:#1d1d1b"></path><path d="M547.64,187.31V188h6.17l-52.89,61.53.94,1L593.05,188h63a13.22,13.22,0,0,0,13.22-13.22V152.34a13.22,13.22,0,0,0-13.22-13.23H547.64a13.22,13.22,0,0,0-13.22,13.23V174.8A13.22,13.22,0,0,0,547.64,188V186.6a11.81,11.81,0,0,1-11.8-11.8V152.34a11.81,11.81,0,0,1,11.8-11.81H656.09a11.81,11.81,0,0,1,11.8,11.81V174.8a11.81,11.81,0,0,1-11.8,11.8H592.61l-87.07,59.75L556.9,186.6h-9.26Z" style="fill:#1d1d1b"></path><path d="M130.32,306.48v-.7h-6.17L177,244.24l-.94-1L84.91,305.78h-63A13.22,13.22,0,0,0,8.65,319v22.46a13.22,13.22,0,0,0,13.22,13.22H130.32a13.22,13.22,0,0,0,13.22-13.22V319a13.22,13.22,0,0,0-13.22-13.22v1.41A11.81,11.81,0,0,1,142.12,319v22.46a11.8,11.8,0,0,1-11.8,11.8H21.87a11.8,11.8,0,0,1-11.8-11.8V319a11.81,11.81,0,0,1,11.8-11.81H85.35l87.07-59.74-51.36,59.74h9.26Z" style="fill:#1d1d1b"></path><path d="M28.63,336.24H26.7l-4.23-8.86c.06.7.1,1.34.14,1.93s.05,1.3.05,2.14v4.79H21.32V325.81h1.87l4.29,8.87q0-.4-.12-1.38c-.06-.66-.08-1.26-.08-1.8v-5.69h1.35Z" style="fill:#1d1d1b"></path><path d="M37.12,335.09a1,1,0,0,0,.5.36l-.32,1a2.15,2.15,0,0,1-1-.35,1.57,1.57,0,0,1-.56-.85,2.67,2.67,0,0,1-2.38,1.2,2.54,2.54,0,0,1-1.86-.67,2.33,2.33,0,0,1-.68-1.74,2.28,2.28,0,0,1,.92-1.95,4.22,4.22,0,0,1,2.59-.68h1.23v-.59a1.55,1.55,0,0,0-.41-1.21,1.81,1.81,0,0,0-1.26-.37,6.89,6.89,0,0,0-2.15.43l-.34-1a8.06,8.06,0,0,1,2.75-.54,2.9,2.9,0,0,1,2.11.69,2.63,2.63,0,0,1,.69,2v3.64A1.23,1.23,0,0,0,37.12,335.09Zm-1.56-1V332.3h-1c-1.48,0-2.21.55-2.21,1.63a1.51,1.51,0,0,0,.34,1.08,1.39,1.39,0,0,0,1,.36A2.07,2.07,0,0,0,35.56,334.13Z" style="fill:#1d1d1b"></path><path d="M45.12,325.87a4.81,4.81,0,0,1,1.31.78l-.79.93a3.13,3.13,0,0,0-2-.77,2.56,2.56,0,0,0-2.1,1,6.87,6.87,0,0,0,0,6.38,2.5,2.5,0,0,0,2.09,1,2.81,2.81,0,0,0,1.17-.23,6,6,0,0,0,1.06-.64l.71.91a3.9,3.9,0,0,1-1.24.83,4.19,4.19,0,0,1-1.74.34,4,4,0,0,1-3.81-2.48,7,7,0,0,1-.55-2.93,6.9,6.9,0,0,1,.57-2.93,4.38,4.38,0,0,1,1.56-1.84,4.08,4.08,0,0,1,2.2-.62A4.33,4.33,0,0,1,45.12,325.87Z" style="fill:#1d1d1b"></path><path d="M48.66,336a1.79,1.79,0,0,1-.45-1.3v-9.61l1.4-.17v9.75a.83.83,0,0,0,.11.49.46.46,0,0,0,.39.15,1.36,1.36,0,0,0,.51-.09l.36,1a2.17,2.17,0,0,1-1.1.28A1.64,1.64,0,0,1,48.66,336Z" style="fill:#1d1d1b"></path><path d="M88.23,336.24H86.3l-4.23-8.86c.06.7.1,1.34.14,1.93s.05,1.3.05,2.14v4.79H80.92V325.81h1.87l4.29,8.87q0-.4-.12-1.38c0-.66-.08-1.26-.08-1.8v-5.69h1.35Z" style="fill:#1d1d1b"></path><path d="M96.72,335.09a1,1,0,0,0,.5.36l-.32,1a2.15,2.15,0,0,1-1-.35,1.57,1.57,0,0,1-.56-.85,2.67,2.67,0,0,1-2.37,1.2,2.55,2.55,0,0,1-1.87-.67,2.33,2.33,0,0,1-.68-1.74,2.28,2.28,0,0,1,.92-1.95,4.22,4.22,0,0,1,2.59-.68h1.23v-.59a1.55,1.55,0,0,0-.41-1.21,1.81,1.81,0,0,0-1.26-.37,6.78,6.78,0,0,0-2.14.43l-.35-1a8.11,8.11,0,0,1,2.75-.54,2.9,2.9,0,0,1,2.11.69,2.63,2.63,0,0,1,.69,2v3.64A1.23,1.23,0,0,0,96.72,335.09Zm-1.56-1V332.3h-1c-1.48,0-2.21.55-2.21,1.63a1.51,1.51,0,0,0,.34,1.08,1.39,1.39,0,0,0,1,.36A2.07,2.07,0,0,0,95.16,334.13Z" style="fill:#1d1d1b"></path><path d="M98.51,326.61v1.33H99.8v.67H98.51v1.31h-.74v-1.31H96.49v-.67h1.28v-1.33Z" style="fill:#1d1d1b"></path><path d="M106.54,328.38v2.27h2.21v1.15h-2.21v2.26h-1.27V331.8h-2.2v-1.15h2.2v-2.27Z" style="fill:#1d1d1b"></path><path d="M120.45,325.87a5,5,0,0,1,1.31.78l-.79.93a3.14,3.14,0,0,0-2-.77,2.55,2.55,0,0,0-2.09,1,6.8,6.8,0,0,0,0,6.38,2.48,2.48,0,0,0,2.09,1,2.87,2.87,0,0,0,1.17-.23,5.58,5.58,0,0,0,1-.64l.72.91a4,4,0,0,1-1.25.83,4.12,4.12,0,0,1-5.54-2.14,7,7,0,0,1-.56-2.93,6.9,6.9,0,0,1,.58-2.93,4.25,4.25,0,0,1,1.56-1.84,4,4,0,0,1,2.19-.62A4.35,4.35,0,0,1,120.45,325.87Z" style="fill:#1d1d1b"></path><path d="M123.61,336a1.83,1.83,0,0,1-.44-1.3v-9.61l1.39-.17v9.75a.91.91,0,0,0,.11.49.47.47,0,0,0,.39.15,1.36,1.36,0,0,0,.51-.09l.37,1a2.18,2.18,0,0,1-1.11.28A1.66,1.66,0,0,1,123.61,336Z" style="fill:#1d1d1b"></path><path d="M126,328.78v-.69h4.44v.69Z" style="fill:#1d1d1b"></path><path d="M553.29,168.61v-4.89H548.9v4.89h-1.44V158.18h1.44v4.36h4.39v-4.36h1.44v10.43Z" style="fill:#1d1d1b"></path><path d="M558.14,167.87a1.65,1.65,0,0,1,.62.58,1.56,1.56,0,0,1,.22.83,2.32,2.32,0,0,1-.24,1,4.78,4.78,0,0,1-.75,1.07c-.33.38-.84.91-1.52,1.59h2.65l-.09.68h-3.49V173q1.19-1.23,1.68-1.8a5,5,0,0,0,.7-1,1.88,1.88,0,0,0,.22-.91,1,1,0,0,0-.27-.72,1,1,0,0,0-.71-.26,1.28,1.28,0,0,0-.63.15,2.28,2.28,0,0,0-.58.5l-.53-.43a2.49,2.49,0,0,1,.8-.67,2.25,2.25,0,0,1,1-.22A2,2,0,0,1,558.14,167.87Z" style="fill:#1d1d1b"></path><path d="M567.16,158.63a4.14,4.14,0,0,1,1.54,1.84,7,7,0,0,1,.55,2.94,6.92,6.92,0,0,1-.55,2.9,4.34,4.34,0,0,1-6.16,1.86,4.08,4.08,0,0,1-1.55-1.83,8,8,0,0,1,0-5.83,4.26,4.26,0,0,1,1.56-1.87,4.21,4.21,0,0,1,2.3-.64A4.26,4.26,0,0,1,567.16,158.63Zm-4.43,1.58a5.43,5.43,0,0,0-.76,3.21,5.32,5.32,0,0,0,.77,3.18,2.47,2.47,0,0,0,2.11,1q2.86,0,2.87-4.2t-2.87-4.23A2.49,2.49,0,0,0,562.73,160.21Z" style="fill:#1d1d1b"></path><path d="M608.34,167.92V163H604v4.89h-1.44V157.49H604v4.36h4.39v-4.36h1.43v10.43Z" style="fill:#1d1d1b"></path><path d="M612.82,158.29v1.33h1.28v.67h-1.28v1.31h-.75v-1.31h-1.28v-.67h1.28v-1.33Z" style="fill:#1d1d1b"></path><path d="M623.72,160.06v2.27h2.21v1.15h-2.21v2.25h-1.27v-2.25h-2.19v-1.15h2.19v-2.27Z" style="fill:#1d1d1b"></path><path d="M638.43,157.93a4.08,4.08,0,0,1,1.54,1.84,7.89,7.89,0,0,1,0,5.84,4.16,4.16,0,0,1-1.54,1.85,4.58,4.58,0,0,1-4.62,0,4.06,4.06,0,0,1-1.54-1.83,8,8,0,0,1,0-5.83,4.3,4.3,0,0,1,1.55-1.87,4.15,4.15,0,0,1,2.3-.64A4.21,4.21,0,0,1,638.43,157.93ZM634,159.51a5.51,5.51,0,0,0-.75,3.21,5.32,5.32,0,0,0,.76,3.18,2.48,2.48,0,0,0,2.11,1q2.88,0,2.88-4.21t-2.88-4.22A2.48,2.48,0,0,0,634,159.51Z" style="fill:#1d1d1b"></path><path d="M648.15,167.91V163h-4.39v4.89h-1.44V157.48h1.44v4.36h4.39v-4.36h1.43v10.43Z" style="fill:#1d1d1b"></path><path d="M650.6,160.45v-.68h4.58v.68Z" style="fill:#1d1d1b"></path><polygon points="499.36 358.46 499.36 404.24 580.58 404.24 580.58 402.35 501.25 402.35 501.25 358.46 499.36 358.46" style="fill:#1d1d1b"></polygon><path d="M585.05,401.36c-3.13-.95-5.16-1.82-7.67-2.82v9.54a74.76,74.76,0,0,1,7.67-2.82,55.31,55.31,0,0,1,8.35-1.95,56.57,56.57,0,0,1-8.35-1.95" style="fill:#1d1d1b"></path><polygon points="81.93 85.38 172.74 85.38 172.74 132.64 174.63 132.64 174.63 83.48 81.93 83.48 81.93 85.38" style="fill:#1d1d1b"></polygon><path d="M80.11,65.06a4.89,4.89,0,0,1,1.44.91l-.79.88a4.73,4.73,0,0,0-1.15-.69,3.52,3.52,0,0,0-1.22-.22,2.27,2.27,0,0,0-1.35.38,1.29,1.29,0,0,0-.53,1.11,1.47,1.47,0,0,0,.18.76,1.62,1.62,0,0,0,.67.57,8.94,8.94,0,0,0,1.44.54,9.3,9.3,0,0,1,1.63.66,2.85,2.85,0,0,1,1,1,2.75,2.75,0,0,1,.4,1.55,2.83,2.83,0,0,1-1.73,2.69,4.53,4.53,0,0,1-2,.4,4.85,4.85,0,0,1-3.54-1.35l.79-.88a5.3,5.3,0,0,0,1.28.78,3.75,3.75,0,0,0,1.45.27,2.61,2.61,0,0,0,1.61-.48,1.64,1.64,0,0,0,.63-1.39,1.46,1.46,0,0,0-.87-1.46,6,6,0,0,0-1.38-.55,6,6,0,0,1-2.35-1.17A2.37,2.37,0,0,1,75,67.49a2.44,2.44,0,0,1,.42-1.41,2.78,2.78,0,0,1,1.16-1,4,4,0,0,1,1.71-.35A4.73,4.73,0,0,1,80.11,65.06Z" style="fill:#1d1d1b"></path><path d="M89.47,74.23a1,1,0,0,0,.5.36l-.32,1a2.15,2.15,0,0,1-1-.35,1.61,1.61,0,0,1-.56-.85,2.68,2.68,0,0,1-2.38,1.2,2.58,2.58,0,0,1-1.86-.67,2.33,2.33,0,0,1-.68-1.74,2.28,2.28,0,0,1,.92-2,4.22,4.22,0,0,1,2.59-.68h1.23v-.59a1.59,1.59,0,0,0-.41-1.22,1.86,1.86,0,0,0-1.26-.36,7.13,7.13,0,0,0-2.15.42l-.34-1a8,8,0,0,1,2.75-.54,2.9,2.9,0,0,1,2.1.68,2.63,2.63,0,0,1,.7,2v3.65A1.23,1.23,0,0,0,89.47,74.23Zm-1.56-1V71.44h-1c-1.47,0-2.21.54-2.21,1.63A1.51,1.51,0,0,0,85,74.15a1.37,1.37,0,0,0,1,.36A2.08,2.08,0,0,0,87.91,73.27Z" style="fill:#1d1d1b"></path><path d="M92.53,75.09a1.74,1.74,0,0,1-.44-1.29V64.19L93.48,64v9.75a.85.85,0,0,0,.11.48.45.45,0,0,0,.39.16,1.36,1.36,0,0,0,.51-.09l.37,1a2.23,2.23,0,0,1-1.11.28A1.63,1.63,0,0,1,92.53,75.09Z" style="fill:#1d1d1b"></path><path d="M106.18,67.87a2.6,2.6,0,0,1,.59,1.78v5.72h-1.39V69.85c0-1-.38-1.54-1.12-1.54a1.48,1.48,0,0,0-1,.34,4.63,4.63,0,0,0-.88,1.06v5.66H101V69.85c0-1-.38-1.54-1.12-1.54a1.51,1.51,0,0,0-1,.34A5.07,5.07,0,0,0,98,69.71v5.66H96.6v-8h1.19l.12,1.16a2.67,2.67,0,0,1,2.3-1.34,2,2,0,0,1,2,1.43,3.63,3.63,0,0,1,1-1.06,2.34,2.34,0,0,1,1.34-.37A2,2,0,0,1,106.18,67.87Z" style="fill:#1d1d1b"></path><path d="M115.18,68.34a4.6,4.6,0,0,1,.93,3,5.35,5.35,0,0,1-.42,2.19A3.35,3.35,0,0,1,114.46,75a3.42,3.42,0,0,1-1.91.53,3.26,3.26,0,0,1-2.62-1.12,4.63,4.63,0,0,1-.94-3,5.33,5.33,0,0,1,.43-2.18,3.35,3.35,0,0,1,1.22-1.47,3.46,3.46,0,0,1,1.93-.52A3.19,3.19,0,0,1,115.18,68.34Zm-4.69,3c0,2,.69,3,2.06,3s2.06-1,2.06-3.06-.68-3-2-3S110.49,69.36,110.49,71.39Z" style="fill:#1d1d1b"></path><path d="M124.34,75.37h-1.19L123,74.13a3,3,0,0,1-1,1.09,3,3,0,0,1-1.44.34,2.12,2.12,0,0,1-1.63-.64,2.51,2.51,0,0,1-.6-1.8V67.4h1.4V73a1.78,1.78,0,0,0,.29,1.16,1.17,1.17,0,0,0,.93.34,2.36,2.36,0,0,0,2-1.38V67.4h1.39Z" style="fill:#1d1d1b"></path><path d="M131.47,67.31l-.25,1.36a3,3,0,0,0-.7-.09,1.51,1.51,0,0,0-1.2.54,4.11,4.11,0,0,0-.71,1.7v4.55h-1.39v-8h1.2l.13,1.62a3,3,0,0,1,.86-1.35,2,2,0,0,1,1.28-.45A3.21,3.21,0,0,1,131.47,67.31Z" style="fill:#1d1d1b"></path><path d="M137.66,74.23a1,1,0,0,0,.5.36l-.32,1a2.11,2.11,0,0,1-1-.35,1.61,1.61,0,0,1-.56-.85,2.68,2.68,0,0,1-2.38,1.2,2.57,2.57,0,0,1-1.86-.67,2.33,2.33,0,0,1-.68-1.74,2.25,2.25,0,0,1,.92-2,4.22,4.22,0,0,1,2.59-.68h1.23v-.59a1.59,1.59,0,0,0-.41-1.22,1.86,1.86,0,0,0-1.26-.36,7.13,7.13,0,0,0-2.15.42l-.34-1a8,8,0,0,1,2.75-.54,2.9,2.9,0,0,1,2.1.68,2.63,2.63,0,0,1,.7,2v3.65A1.23,1.23,0,0,0,137.66,74.23Zm-1.56-1V71.44h-1c-1.47,0-2.21.54-2.21,1.63a1.51,1.51,0,0,0,.35,1.08,1.37,1.37,0,0,0,1,.36A2.08,2.08,0,0,0,136.1,73.27Z" style="fill:#1d1d1b"></path><path d="M175.62,137.11c.95-3.13,1.82-5.16,2.83-7.67H168.9a73.27,73.27,0,0,1,2.82,7.67,54.17,54.17,0,0,1,1.95,8.36,56.65,56.65,0,0,1,2-8.36" style="fill:#1d1d1b"></path><polygon points="594.6 162.16 575.63 162.16 575.63 161.16 592.18 161.16 587.73 156.19 587.73 156.19 594.6 162.16" style="fill:#1d1d1b"></polygon><polygon points="575.63 164.64 594.6 164.64 594.6 165.64 578.04 165.64 582.5 170.6 582.5 170.6 575.63 164.64" style="fill:#1d1d1b"></polygon><polygon points="74.84 330.78 55.88 330.78 55.88 329.78 72.43 329.78 67.98 324.81 67.98 324.81 74.84 330.78" style="fill:#1d1d1b"></polygon><polygon points="55.88 333.26 74.84 333.26 74.84 334.26 58.29 334.26 62.74 339.22 62.74 339.22 55.88 333.26" style="fill:#1d1d1b"></polygon></g><text transform="translate(598.79 408.48)" style="font-size:15.137660026550293px;fill:#9f2515;font-family:FiraSans-Regular, Fira Sans" id="clarear">Solução resultante</text></g></svg>