<svg xmlns="http://www.w3.org/2000/svg" viewBox="0 0 730 312.53"><title>fig-9-4</title><g id="fig-9-4"><g id="roxo"><path d="M25.75,213.91v-12.2h6.51l-.2,1.34H27.44v4.17h4v1.32h-4v5.37Z" style="fill:#7a40c6"/><path d="M41.58,209.8h-6a3.62,3.62,0,0,0,.78,2.27,2.29,2.29,0,0,0,1.74.73,3.85,3.85,0,0,0,1.25-.2,4.7,4.7,0,0,0,1.19-.62l.71,1A5.18,5.18,0,0,1,38,214.13a3.8,3.8,0,0,1-3-1.28,5.22,5.22,0,0,1-1.1-3.51,6.71,6.71,0,0,1,.47-2.58A4.1,4.1,0,0,1,35.69,205a3.83,3.83,0,0,1,4.93.59,5.16,5.16,0,0,1,1,3.38A7.81,7.81,0,0,1,41.58,209.8ZM40,208.49a3.45,3.45,0,0,0-.55-2.11,2,2,0,0,0-1.66-.72c-1.34,0-2.07,1-2.18,2.94H40Z" style="fill:#7a40c6"/><path d="M50.51,205.13a2.9,2.9,0,0,1,.72,2.09v6.69H49.59v-6.46a2,2,0,0,0-.37-1.4,1.43,1.43,0,0,0-1.1-.41,2.17,2.17,0,0,0-1.32.42,4.55,4.55,0,0,0-1.07,1.23v6.62H44.09v-9.33H45.5l.14,1.38a3.64,3.64,0,0,1,1.24-1.17,3.23,3.23,0,0,1,1.63-.43A2.62,2.62,0,0,1,50.51,205.13Z" style="fill:#7a40c6"/><path d="M61,205.67a5.41,5.41,0,0,1,1.1,3.56,6.27,6.27,0,0,1-.5,2.57,3.85,3.85,0,0,1-1.44,1.71,4,4,0,0,1-2.24.62,3.78,3.78,0,0,1-3.08-1.32,5.32,5.32,0,0,1-1.11-3.56,6.22,6.22,0,0,1,.5-2.56A3.88,3.88,0,0,1,55.64,205a4.15,4.15,0,0,1,2.26-.61A3.79,3.79,0,0,1,61,205.67Zm-5.5,3.58c0,2.38.8,3.56,2.42,3.56s2.42-1.19,2.42-3.58-.81-3.56-2.41-3.56S55.47,206.87,55.47,209.25Z" style="fill:#7a40c6"/><path d="M65.07,213.58a2.06,2.06,0,0,1-.53-1.51V200.82l1.64-.2V212a1,1,0,0,0,.13.57.53.53,0,0,0,.46.18,1.64,1.64,0,0,0,.6-.11l.43,1.14a2.72,2.72,0,0,1-1.3.32A1.9,1.9,0,0,1,65.07,213.58Z" style="fill:#7a40c6"/><path d="M18.43,226.32A21.59,21.59,0,0,0,17,228.76a10.83,10.83,0,0,0-.85,2.43,16.52,16.52,0,0,0,0,6.37A11.38,11.38,0,0,0,17,240a19.91,19.91,0,0,0,1.47,2.43l-1,.71c-.79-1.11-1.39-2-1.81-2.73a11.36,11.36,0,0,1-1.07-2.57,14.18,14.18,0,0,1,0-6.93,11.36,11.36,0,0,1,1.07-2.57c.42-.71,1-1.63,1.81-2.74Z" style="fill:#7a40c6"/><path d="M23,228.94a1.39,1.39,0,0,0-.32,1v1.3h2.28l-.18,1.26h-2.1v8.07H21v-8.07H19.32v-1.26H21V230a2.55,2.55,0,0,1,.78-1.94,3,3,0,0,1,2.16-.73,5.68,5.68,0,0,1,1.15.11,6.69,6.69,0,0,1,1.09.37L25.65,229a4.05,4.05,0,0,0-1.63-.35A1.44,1.44,0,0,0,23,228.94Z" style="fill:#7a40c6"/><path d="M34.32,240.58h-1.4l-.13-1.45a3.58,3.58,0,0,1-1.23,1.27,3.38,3.38,0,0,1-1.69.4,2.48,2.48,0,0,1-1.92-.75,3,3,0,0,1-.69-2.11v-6.69h1.63v6.52a2.11,2.11,0,0,0,.34,1.35,1.36,1.36,0,0,0,1.1.4,2.78,2.78,0,0,0,2.35-1.61v-6.66h1.64Z" style="fill:#7a40c6"/><path d="M44,231.8a2.88,2.88,0,0,1,.73,2.09v6.69H43.06v-6.46a2.06,2.06,0,0,0-.38-1.4,1.4,1.4,0,0,0-1.1-.41,2.11,2.11,0,0,0-1.32.43A4.33,4.33,0,0,0,39.2,234v6.62H37.56v-9.33H39l.14,1.38a3.61,3.61,0,0,1,1.23-1.17A3.28,3.28,0,0,1,42,231,2.61,2.61,0,0,1,44,231.8Z" style="fill:#7a40c6"/><path d="M55.11,227.49v13.09H53.66l-.16-1.29a3.39,3.39,0,0,1-1.15,1.11,3.14,3.14,0,0,1-1.55.4,3,3,0,0,1-2.61-1.31,6,6,0,0,1-.93-3.53,7,7,0,0,1,.44-2.55A4.08,4.08,0,0,1,49,231.66a3.17,3.17,0,0,1,2-.63,3.39,3.39,0,0,1,2.53,1.16V227.3Zm-2.67,11.67a4.07,4.07,0,0,0,1-1v-4.57a3.63,3.63,0,0,0-1-.91,2.24,2.24,0,0,0-1.18-.31,1.89,1.89,0,0,0-1.68.9,4.91,4.91,0,0,0-.6,2.7,5.17,5.17,0,0,0,.55,2.69,1.77,1.77,0,0,0,1.59.88A2.33,2.33,0,0,0,52.44,239.16Z" style="fill:#7a40c6"/><path d="M60,227.08a1.11,1.11,0,0,1,.32.8,1.07,1.07,0,0,1-.32.79,1.13,1.13,0,0,1-.84.31,1.09,1.09,0,0,1-.81-.31,1,1,0,0,1-.32-.79,1.07,1.07,0,0,1,.32-.8,1.09,1.09,0,0,1,.81-.31A1.13,1.13,0,0,1,60,227.08Zm0,4.17v9.33H58.34v-9.33Z" style="fill:#7a40c6"/><path d="M70.89,227.49v13.09H69.45l-.16-1.29a3.51,3.51,0,0,1-1.16,1.11,3.11,3.11,0,0,1-1.55.4,3,3,0,0,1-2.6-1.31A5.93,5.93,0,0,1,63,236a6.75,6.75,0,0,1,.45-2.55,3.92,3.92,0,0,1,1.28-1.75,3.17,3.17,0,0,1,2-.63,3.36,3.36,0,0,1,2.52,1.16V227.3Zm-2.67,11.67a3.91,3.91,0,0,0,1-1v-4.57a3.63,3.63,0,0,0-1-.91,2.21,2.21,0,0,0-1.18-.31,1.91,1.91,0,0,0-1.68.9,4.91,4.91,0,0,0-.6,2.7,5.16,5.16,0,0,0,.56,2.69,1.74,1.74,0,0,0,1.58.88A2.31,2.31,0,0,0,68.22,239.16Z" style="fill:#7a40c6"/><path d="M80.72,232.35a5.37,5.37,0,0,1,1.1,3.56,6.22,6.22,0,0,1-.5,2.56,3.94,3.94,0,0,1-1.44,1.72,4.11,4.11,0,0,1-2.25.61,3.83,3.83,0,0,1-3.08-1.31,5.39,5.39,0,0,1-1.1-3.56,6.27,6.27,0,0,1,.5-2.57,3.85,3.85,0,0,1,1.44-1.71,4,4,0,0,1,2.26-.62A3.76,3.76,0,0,1,80.72,232.35Zm-5.51,3.58c0,2.37.81,3.56,2.42,3.56s2.42-1.2,2.42-3.58-.8-3.56-2.4-3.56S75.21,233.54,75.21,235.93Z" style="fill:#7a40c6"/><path d="M86.24,228.35a11.83,11.83,0,0,1,1.07,2.57,14.18,14.18,0,0,1,0,6.93,11.83,11.83,0,0,1-1.07,2.57c-.42.71-1,1.62-1.81,2.73l-1-.71A19.91,19.91,0,0,0,84.87,240a11.38,11.38,0,0,0,.85-2.45,16.52,16.52,0,0,0,0-6.37,10.83,10.83,0,0,0-.85-2.43,21.59,21.59,0,0,0-1.47-2.44l1-.71C85.21,226.72,85.82,227.64,86.24,228.35Z" style="fill:#7a40c6"/><path d="M324.1,160.83V155.1h-5.16v5.73h-1.69V148.62h1.69v5.1h5.16v-5.1h1.69v12.21Z" style="fill:#7a40c6"/><path d="M332,158.87a2,2,0,0,1,1.09,1.81,2.93,2.93,0,0,1-.32,1.33,6.43,6.43,0,0,1-1,1.38c-.44.5-1.1,1.18-2,2.06h3.44l-.12.88h-4.52v-.83c1-1.06,1.74-1.83,2.17-2.32a6.89,6.89,0,0,0,.92-1.28,2.58,2.58,0,0,0,.27-1.17,1.22,1.22,0,0,0-.34-.93,1.25,1.25,0,0,0-.92-.34,1.69,1.69,0,0,0-.82.2,3.11,3.11,0,0,0-.76.63l-.68-.54a3.12,3.12,0,0,1,1-.87,2.83,2.83,0,0,1,1.28-.28A2.6,2.6,0,0,1,332,158.87Z" style="fill:#7a40c6"/><path d="M341.45,148.75a5.9,5.9,0,0,1,1.69,1.07l-.93,1a5.25,5.25,0,0,0-1.36-.8,3.75,3.75,0,0,0-1.43-.26,2.68,2.68,0,0,0-1.58.44,1.5,1.5,0,0,0-.63,1.3,1.66,1.66,0,0,0,.22.89,1.86,1.86,0,0,0,.79.66,9.19,9.19,0,0,0,1.68.64,11.44,11.44,0,0,1,1.92.76,3.45,3.45,0,0,1,1.24,1.13,3.28,3.28,0,0,1,.47,1.82,3.37,3.37,0,0,1-.52,1.87,3.5,3.5,0,0,1-1.52,1.28,5.46,5.46,0,0,1-2.34.46,5.73,5.73,0,0,1-4.16-1.58l.92-1a6.24,6.24,0,0,0,1.52.91,4.63,4.63,0,0,0,1.7.31,3.09,3.09,0,0,0,1.89-.56,1.89,1.89,0,0,0,.75-1.62,2,2,0,0,0-.23-1,2.07,2.07,0,0,0-.79-.72,8.35,8.35,0,0,0-1.63-.64,7.21,7.21,0,0,1-2.76-1.36,2.78,2.78,0,0,1-.87-2.16A2.84,2.84,0,0,1,336,150a3.14,3.14,0,0,1,1.37-1.13,4.56,4.56,0,0,1,2-.41A5.71,5.71,0,0,1,341.45,148.75Z" style="fill:#7a40c6"/><path d="M353.11,149.14a4.82,4.82,0,0,1,1.82,2.16,8.23,8.23,0,0,1,.65,3.43,8.12,8.12,0,0,1-.65,3.4,4.9,4.9,0,0,1-1.82,2.17,5.36,5.36,0,0,1-5.42,0,4.76,4.76,0,0,1-1.82-2.14,9.27,9.27,0,0,1,0-6.82,4.9,4.9,0,0,1,1.82-2.19,5.33,5.33,0,0,1,5.42,0Zm-5.2,1.85a6.34,6.34,0,0,0-.89,3.76,6.17,6.17,0,0,0,.9,3.72,2.94,2.94,0,0,0,2.48,1.19q3.38,0,3.38-4.93t-3.38-4.94A2.91,2.91,0,0,0,347.91,151Z" style="fill:#7a40c6"/><path d="M361.32,163.62v.83h-1v1.88h-1v-1.88H356v-.75l2.3-5.1.88.36-2.07,4.66h2.17l.09-2.05h.92v2.05Z" style="fill:#7a40c6"/><path d="M311.9,184.05V195.9h-1.63V185.79l-2.78,1.68-.71-1.15,3.68-2.27Z" style="fill:#7a40c6"/><path d="M321.66,185.44a10.75,10.75,0,0,1,0,9.1,3.6,3.6,0,0,1-6,0,10.85,10.85,0,0,1,0-9.1,3.61,3.61,0,0,1,6,0Zm-4.69.86a12.44,12.44,0,0,0,0,7.38,1.81,1.81,0,0,0,1.71,1.14,1.83,1.83,0,0,0,1.71-1.14,12.2,12.2,0,0,0,0-7.37,1.86,1.86,0,0,0-3.42,0Z" style="fill:#7a40c6"/><path d="M329.41,191.05v-1.38h5v1.38Z" style="fill:#7a40c6"/><path d="M346.11,184.05V195.9h-1.64V185.79l-2.78,1.68-.71-1.15,3.68-2.27Z" style="fill:#7a40c6"/><path d="M353.86,184.3a3.08,3.08,0,0,1,1.69,2.82,4.69,4.69,0,0,1-.48,2.07,10,10,0,0,1-1.51,2.14q-1,1.15-3.08,3.21h5.36l-.2,1.36h-7v-1.29Q351,192.15,352,191a10.68,10.68,0,0,0,1.42-2,4.06,4.06,0,0,0,.43-1.82,1.92,1.92,0,0,0-.54-1.45,2,2,0,0,0-1.42-.52,2.63,2.63,0,0,0-1.28.3,4.72,4.72,0,0,0-1.18,1l-1.06-.85a4.72,4.72,0,0,1,1.62-1.34,4.32,4.32,0,0,1,2-.45A4,4,0,0,1,353.86,184.3Z" style="fill:#7a40c6"/><path d="M369.53,187.12a2.9,2.9,0,0,1,.72,2.09v6.69h-1.63v-6.46a2,2,0,0,0-.39-1.4,1.44,1.44,0,0,0-1.11-.41,2.09,2.09,0,0,0-1.3.43,4.37,4.37,0,0,0-1.06,1.2v6.64h-1.64V182.83l1.64-.18v5.21a3.33,3.33,0,0,1,2.77-1.51A2.61,2.61,0,0,1,369.53,187.12Z" style="fill:#7a40c6"/><path d="M322.26,205.77v11.86h-1.64V207.51l-2.77,1.68-.71-1.15,3.68-2.27Z" style="fill:#7a40c6"/><path d="M330,206a3.14,3.14,0,0,1,1.26,1.16,3.19,3.19,0,0,1,.44,1.66,4.57,4.57,0,0,1-.49,2.07,9.91,9.91,0,0,1-1.5,2.14c-.68.77-1.7,1.84-3.08,3.21H332l-.2,1.37h-7v-1.3q2.39-2.46,3.38-3.6a10.05,10.05,0,0,0,1.43-2,4,4,0,0,0,.42-1.82,1.88,1.88,0,0,0-.53-1.44,2,2,0,0,0-1.42-.53,2.67,2.67,0,0,0-1.29.3,4.76,4.76,0,0,0-1.17,1l-1.07-.85a4.83,4.83,0,0,1,1.62-1.35,4.34,4.34,0,0,1,2-.44A4,4,0,0,1,330,206Z" style="fill:#7a40c6"/><path d="M340.69,207.16a10.85,10.85,0,0,1,0,9.1,3.6,3.6,0,0,1-6,0,10.75,10.75,0,0,1,0-9.1,3.63,3.63,0,0,1,6,0ZM336,208a12.44,12.44,0,0,0,0,7.38,1.86,1.86,0,0,0,3.43,0,12.2,12.2,0,0,0,0-7.37,1.86,1.86,0,0,0-3.43,0Z" style="fill:#7a40c6"/><path d="M348.52,204.35a3.43,3.43,0,0,1,.7,2.28,3.86,3.86,0,0,1-.32,1.65,2.58,2.58,0,0,1-.92,1.11,2.63,2.63,0,0,1-1.44.39,2.44,2.44,0,0,1-2-.84,3.43,3.43,0,0,1-.71-2.29,3.86,3.86,0,0,1,.32-1.65,2.5,2.5,0,0,1,.92-1.1,2.58,2.58,0,0,1,1.46-.4A2.41,2.41,0,0,1,348.52,204.35Zm-3.54,2.3c0,1.52.52,2.29,1.56,2.29s1.55-.77,1.55-2.31-.51-2.28-1.54-2.28S345,205.11,345,206.65Z" style="fill:#7a40c6"/><path d="M357.44,205.49a5.6,5.6,0,0,1,1.54.92l-.92,1.08a3.74,3.74,0,0,0-2.37-.9,3,3,0,0,0-2.47,1.17,6,6,0,0,0-.93,3.75,6.13,6.13,0,0,0,.92,3.72,3,3,0,0,0,2.46,1.19,3.25,3.25,0,0,0,1.37-.27,6.78,6.78,0,0,0,1.25-.74l.83,1.06a4.5,4.5,0,0,1-1.46,1,5,5,0,0,1-2,.39,4.73,4.73,0,0,1-4.48-2.9,8.26,8.26,0,0,1-.65-3.43,7.93,7.93,0,0,1,.68-3.42,5,5,0,0,1,1.83-2.16,4.78,4.78,0,0,1,2.58-.72A5.28,5.28,0,0,1,357.44,205.49Z" style="fill:#7a40c6"/><path d="M444.16,275.38V263.17h6.51l-.2,1.35h-4.62v4.16h4V270h-4v5.37Z" style="fill:#7a40c6"/><path d="M460,271.27h-6a3.61,3.61,0,0,0,.78,2.26,2.25,2.25,0,0,0,1.74.73,3.86,3.86,0,0,0,1.25-.19,5,5,0,0,0,1.19-.62l.71,1a5.18,5.18,0,0,1-3.27,1.17,3.8,3.8,0,0,1-3.05-1.28,5.2,5.2,0,0,1-1.1-3.5,6.71,6.71,0,0,1,.47-2.58,4,4,0,0,1,1.36-1.76,3.38,3.38,0,0,1,2.07-.64,3.47,3.47,0,0,1,2.86,1.22,5.18,5.18,0,0,1,1,3.38C460,270.71,460,271,460,271.27ZM458.41,270a3.41,3.41,0,0,0-.55-2.11,1.93,1.93,0,0,0-1.65-.73q-2,0-2.19,2.94h4.39Z" style="fill:#7a40c6"/><path d="M468.92,266.59a2.92,2.92,0,0,1,.72,2.09v6.7H468v-6.47a2.06,2.06,0,0,0-.37-1.4,1.43,1.43,0,0,0-1.1-.41,2.17,2.17,0,0,0-1.32.43,4.35,4.35,0,0,0-1.07,1.22v6.63H462.5V266h1.41l.14,1.38a3.84,3.84,0,0,1,1.24-1.17,3.22,3.22,0,0,1,1.63-.42A2.62,2.62,0,0,1,468.92,266.59Z" style="fill:#7a40c6"/><path d="M479.38,267.14a5.37,5.37,0,0,1,1.1,3.56,6.22,6.22,0,0,1-.5,2.56,3.88,3.88,0,0,1-1.44,1.72,4,4,0,0,1-2.24.61,3.81,3.81,0,0,1-3.08-1.31,5.34,5.34,0,0,1-1.11-3.56,6.22,6.22,0,0,1,.5-2.56,3.88,3.88,0,0,1,1.44-1.72,4.06,4.06,0,0,1,2.26-.61A3.79,3.79,0,0,1,479.38,267.14Zm-5.5,3.58c0,2.37.8,3.56,2.42,3.56s2.42-1.19,2.42-3.58-.8-3.56-2.41-3.56S473.88,268.33,473.88,270.72Z" style="fill:#7a40c6"/><path d="M483.48,275.05a2.08,2.08,0,0,1-.53-1.52V262.28l1.64-.19V273.5a1,1,0,0,0,.13.57.53.53,0,0,0,.46.17,1.64,1.64,0,0,0,.6-.1l.43,1.13a2.72,2.72,0,0,1-1.3.32A1.89,1.89,0,0,1,483.48,275.05Z" style="fill:#7a40c6"/><path d="M490.64,263.73a1.39,1.39,0,0,0-.32,1V266h2.28l-.18,1.26h-2.1v8.08h-1.64V267.3H487V266h1.67v-1.27a2.57,2.57,0,0,1,.78-1.95,3,3,0,0,1,2.16-.73,5.58,5.58,0,0,1,1.14.11,6.47,6.47,0,0,1,1.1.37l-.52,1.19a3.94,3.94,0,0,0-1.63-.36A1.44,1.44,0,0,0,490.64,263.73Z" style="fill:#7a40c6"/><path d="M499.77,275a3.59,3.59,0,0,1-2.1.64,2.49,2.49,0,0,1-1.86-.68,2.71,2.71,0,0,1-.67-2V267.3H493.5V266h1.64v-2.11l1.64-.19V266H499l-.17,1.26h-2.05v5.56a1.67,1.67,0,0,0,.26,1.06,1.05,1.05,0,0,0,.86.32,2.7,2.7,0,0,0,1.25-.37Z" style="fill:#7a40c6"/><path d="M508.1,274a1.23,1.23,0,0,0,.58.42l-.37,1.13a2.46,2.46,0,0,1-1.18-.41,1.86,1.86,0,0,1-.65-1,3.16,3.16,0,0,1-2.8,1.4,3,3,0,0,1-2.19-.78,2.73,2.73,0,0,1-.8-2,2.66,2.66,0,0,1,1.08-2.28,5.06,5.06,0,0,1,3.05-.8h1.44V269a1.83,1.83,0,0,0-.48-1.42,2.2,2.2,0,0,0-1.48-.42,8.25,8.25,0,0,0-2.52.49l-.41-1.18a9.35,9.35,0,0,1,3.24-.64,3.41,3.41,0,0,1,2.47.8,3.08,3.08,0,0,1,.82,2.3v4.27A1.37,1.37,0,0,0,508.1,274Zm-1.84-1.13v-2.14H505c-1.73,0-2.59.64-2.59,1.91a1.71,1.71,0,0,0,.41,1.26,1.57,1.57,0,0,0,1.21.43A2.44,2.44,0,0,0,506.26,272.91Z" style="fill:#7a40c6"/><path d="M511.56,275.05a2.08,2.08,0,0,1-.53-1.52V262.28l1.64-.19V273.5a1,1,0,0,0,.13.57.53.53,0,0,0,.46.17,1.64,1.64,0,0,0,.6-.1l.43,1.13a2.72,2.72,0,0,1-1.3.32A1.89,1.89,0,0,1,511.56,275.05Z" style="fill:#7a40c6"/><path d="M523.65,271.27h-6a3.61,3.61,0,0,0,.78,2.26,2.26,2.26,0,0,0,1.75.73,3.79,3.79,0,0,0,1.24-.19,5,5,0,0,0,1.19-.62l.72,1a5.21,5.21,0,0,1-3.28,1.17,3.81,3.81,0,0,1-3.05-1.28,5.2,5.2,0,0,1-1.09-3.5,6.52,6.52,0,0,1,.47-2.58,4,4,0,0,1,1.35-1.76,3.42,3.42,0,0,1,2.07-.64,3.51,3.51,0,0,1,2.87,1.22,5.23,5.23,0,0,1,1,3.38C523.68,270.71,523.67,271,523.65,271.27ZM522.06,270a3.41,3.41,0,0,0-.55-2.11,1.92,1.92,0,0,0-1.65-.73q-2,0-2.19,2.94h4.39Zm-.78-8.77.73,1.36-3.77,1.52-.5-.86Z" style="fill:#7a40c6"/><path d="M527.79,261.88a1.06,1.06,0,0,1,.33.79,1,1,0,0,1-.33.79,1.25,1.25,0,0,1-1.65,0,1.05,1.05,0,0,1-.32-.79,1.17,1.17,0,0,1,2-.79Zm0,4.16v9.34h-1.63V266Z" style="fill:#7a40c6"/><path d="M537.86,266.59a2.92,2.92,0,0,1,.72,2.09v6.7h-1.64v-6.47a2.06,2.06,0,0,0-.37-1.4,1.44,1.44,0,0,0-1.11-.41,2.17,2.17,0,0,0-1.31.43,4.35,4.35,0,0,0-1.07,1.22v6.63h-1.64V266h1.41l.14,1.38a3.84,3.84,0,0,1,1.24-1.17,3.22,3.22,0,0,1,1.63-.42A2.62,2.62,0,0,1,537.86,266.59Z" style="fill:#7a40c6"/><path d="M548.24,274a1.27,1.27,0,0,0,.59.42l-.37,1.13a2.46,2.46,0,0,1-1.18-.41,1.81,1.81,0,0,1-.66-1,3.16,3.16,0,0,1-2.79,1.4,3,3,0,0,1-2.19-.78,2.73,2.73,0,0,1-.8-2,2.66,2.66,0,0,1,1.08-2.28,5,5,0,0,1,3.05-.8h1.44V269a1.83,1.83,0,0,0-.48-1.42,2.2,2.2,0,0,0-1.48-.42,8.31,8.31,0,0,0-2.53.49l-.41-1.18a9.44,9.44,0,0,1,3.24-.64,3.44,3.44,0,0,1,2.48.8,3.12,3.12,0,0,1,.82,2.3v4.27A1.45,1.45,0,0,0,548.24,274Zm-1.83-1.13v-2.14h-1.23c-1.73,0-2.6.64-2.6,1.91a1.75,1.75,0,0,0,.41,1.26,1.58,1.58,0,0,0,1.21.43A2.45,2.45,0,0,0,546.41,272.91Z" style="fill:#7a40c6"/><path d="M163.63,272.93l-.92-3.07h-4.65l-.92,3.07h-1.71l3.93-12.21h2.14l3.91,12.21Zm-5.16-4.43h3.83l-1.9-6.38Z" style="fill:#7a40c6"/><path d="M173.63,264.14a2.92,2.92,0,0,1,.72,2.09v6.7h-1.64v-6.47a2.12,2.12,0,0,0-.37-1.4,1.44,1.44,0,0,0-1.11-.41,2.14,2.14,0,0,0-1.31.43,4.35,4.35,0,0,0-1.07,1.22v6.63h-1.64v-9.34h1.41l.14,1.38A3.74,3.74,0,0,1,170,263.8a3.21,3.21,0,0,1,1.62-.42A2.62,2.62,0,0,1,173.63,264.14Z" style="fill:#7a40c6"/><path d="M179.13,259.43a1.06,1.06,0,0,1,.33.79,1,1,0,0,1-.33.79,1.25,1.25,0,0,1-1.65,0,1.05,1.05,0,0,1-.32-.79,1.17,1.17,0,0,1,2-.79Zm0,4.16v9.34H177.5v-9.34Z" style="fill:#7a40c6"/><path d="M190,259.83v13.1H188.6l-.16-1.3a3.24,3.24,0,0,1-1.16,1.11,3,3,0,0,1-1.54.4,3,3,0,0,1-2.61-1.31,6,6,0,0,1-.93-3.53,6.82,6.82,0,0,1,.44-2.55,4,4,0,0,1,1.28-1.74,3.17,3.17,0,0,1,2-.63,3.38,3.38,0,0,1,2.53,1.15v-4.89Zm-2.67,11.67a3.93,3.93,0,0,0,1-1v-4.57a3.63,3.63,0,0,0-1-.91,2.37,2.37,0,0,0-1.19-.31,1.91,1.91,0,0,0-1.68.9,5,5,0,0,0-.59,2.7,5.17,5.17,0,0,0,.55,2.69,1.76,1.76,0,0,0,1.58.89A2.29,2.29,0,0,0,187.37,271.5Z" style="fill:#7a40c6"/><path d="M198.28,263.48l-.3,1.6a3.5,3.5,0,0,0-.82-.11,1.78,1.78,0,0,0-1.41.64,4.84,4.84,0,0,0-.83,2v5.34h-1.64v-9.34h1.41l.16,1.9a3.49,3.49,0,0,1,1-1.58,2.31,2.31,0,0,1,1.5-.53A3.82,3.82,0,0,1,198.28,263.48Z" style="fill:#7a40c6"/><path d="M201.79,259.43a1.09,1.09,0,0,1,.32.79,1.05,1.05,0,0,1-.32.79,1.16,1.16,0,0,1-.84.31,1.13,1.13,0,0,1-.82-.31,1.05,1.05,0,0,1-.32-.79,1.09,1.09,0,0,1,.32-.79,1.1,1.1,0,0,1,.82-.32A1.13,1.13,0,0,1,201.79,259.43Zm0,4.16v9.34h-1.64v-9.34Z" style="fill:#7a40c6"/><path d="M212.7,259.83v13.1h-1.45l-.16-1.3a3.21,3.21,0,0,1-1.15,1.11,3.24,3.24,0,0,1-4.16-.91,6,6,0,0,1-.93-3.53,7,7,0,0,1,.44-2.55,4,4,0,0,1,1.28-1.74,3.17,3.17,0,0,1,2-.63,3.38,3.38,0,0,1,2.53,1.15v-4.89ZM210,271.5a3.91,3.91,0,0,0,1-1v-4.57a3.63,3.63,0,0,0-1-.91,2.33,2.33,0,0,0-1.18-.31,1.89,1.89,0,0,0-1.68.9,4.93,4.93,0,0,0-.6,2.7,5.17,5.17,0,0,0,.55,2.69,1.77,1.77,0,0,0,1.59.89A2.34,2.34,0,0,0,210,271.5Z" style="fill:#7a40c6"/><path d="M222.53,264.69a5.37,5.37,0,0,1,1.09,3.56,6.06,6.06,0,0,1-.5,2.56,3.88,3.88,0,0,1-1.44,1.72,4,4,0,0,1-2.24.61,3.82,3.82,0,0,1-3.08-1.31,5.39,5.39,0,0,1-1.1-3.56,6.06,6.06,0,0,1,.5-2.56A3.88,3.88,0,0,1,217.2,264a4,4,0,0,1,2.26-.61A3.79,3.79,0,0,1,222.53,264.69ZM217,268.27c0,2.37.81,3.56,2.42,3.56s2.42-1.19,2.42-3.58-.8-3.56-2.4-3.56S217,265.88,217,268.27Z" style="fill:#7a40c6"/><path d="M233.14,261.28a1.43,1.43,0,0,0-.32,1v1.29h2.28l-.18,1.26h-2.1v8.08h-1.64v-8.08h-1.67v-1.26h1.67v-1.27a2.55,2.55,0,0,1,.78-1.95,3.05,3.05,0,0,1,2.16-.73,5.68,5.68,0,0,1,1.15.11,6.38,6.38,0,0,1,1.09.37l-.51,1.19a4,4,0,0,0-1.64-.36A1.46,1.46,0,0,0,233.14,261.28Z" style="fill:#7a40c6"/><path d="M242.27,272.5a3.57,3.57,0,0,1-2.1.64,2.52,2.52,0,0,1-1.86-.68,2.76,2.76,0,0,1-.67-2v-5.63H236v-1.26h1.63v-2.11l1.64-.19v2.3h2.23l-.18,1.26h-2.05v5.56a1.74,1.74,0,0,0,.26,1.06,1.05,1.05,0,0,0,.86.32,2.66,2.66,0,0,0,1.25-.37Z" style="fill:#7a40c6"/><path d="M250.6,271.59a1.27,1.27,0,0,0,.59.42l-.38,1.13a2.53,2.53,0,0,1-1.17-.41,1.81,1.81,0,0,1-.66-1,3.16,3.16,0,0,1-2.79,1.4,3,3,0,0,1-2.19-.78,2.7,2.7,0,0,1-.8-2,2.65,2.65,0,0,1,1.07-2.28,5.09,5.09,0,0,1,3.06-.8h1.44v-.69a1.83,1.83,0,0,0-.48-1.42,2.22,2.22,0,0,0-1.48-.42,8.31,8.31,0,0,0-2.53.49l-.41-1.18a9.39,9.39,0,0,1,3.24-.64,3.41,3.41,0,0,1,2.47.8,3.08,3.08,0,0,1,.82,2.3v4.27A1.44,1.44,0,0,0,250.6,271.59Zm-2.15-12.85.73,1.36-3.78,1.52-.5-.86Zm.32,11.72v-2.14h-1.23c-1.73,0-2.6.64-2.6,1.91a1.75,1.75,0,0,0,.41,1.26,1.58,1.58,0,0,0,1.21.43A2.46,2.46,0,0,0,248.77,270.46Z" style="fill:#7a40c6"/><path d="M254.06,272.6a2.09,2.09,0,0,1-.52-1.52V259.83l1.63-.19v11.41a1,1,0,0,0,.14.57.54.54,0,0,0,.45.17,1.61,1.61,0,0,0,.6-.1l.43,1.13a2.69,2.69,0,0,1-1.3.32A1.91,1.91,0,0,1,254.06,272.6Z" style="fill:#7a40c6"/><path d="M260.74,259.43a1,1,0,0,1,.32.79,1,1,0,0,1-.32.79,1.12,1.12,0,0,1-.83.31,1.1,1.1,0,0,1-.82-.31,1,1,0,0,1-.32-.79,1,1,0,0,1,.32-.79,1.07,1.07,0,0,1,.82-.32A1.09,1.09,0,0,1,260.74,259.43Zm0,4.16v9.34h-1.63v-9.34Z" style="fill:#7a40c6"/><path d="M269.34,263.62a4.11,4.11,0,0,1,1.33.77l-.78,1a4.26,4.26,0,0,0-1-.53,3.11,3.11,0,0,0-1-.17,2,2,0,0,0-1.77.91,4.66,4.66,0,0,0-.63,2.67,4.4,4.4,0,0,0,.62,2.62,2.08,2.08,0,0,0,1.78.84,3,3,0,0,0,1-.17,4.91,4.91,0,0,0,1-.54l.75,1.06a4.43,4.43,0,0,1-2.86,1,3.75,3.75,0,0,1-3-1.28,5.23,5.23,0,0,1-1.1-3.52,6.43,6.43,0,0,1,.5-2.61,4,4,0,0,1,1.42-1.73,3.73,3.73,0,0,1,2.18-.62A4.63,4.63,0,0,1,269.34,263.62Z" style="fill:#7a40c6"/><path d="M279.49,264.69a5.37,5.37,0,0,1,1.09,3.56,6.22,6.22,0,0,1-.49,2.56,3.84,3.84,0,0,1-3.69,2.33,3.82,3.82,0,0,1-3.08-1.31,5.39,5.39,0,0,1-1.1-3.56,6.22,6.22,0,0,1,.5-2.56,3.88,3.88,0,0,1,1.44-1.72,4,4,0,0,1,2.26-.61A3.79,3.79,0,0,1,279.49,264.69ZM274,268.27c0,2.37.81,3.56,2.42,3.56s2.42-1.19,2.42-3.58-.8-3.56-2.4-3.56S274,265.88,274,268.27Z" style="fill:#7a40c6"/><path d="M179,285.35a21.59,21.59,0,0,0-1.47,2.44,10.75,10.75,0,0,0-.85,2.44,16.47,16.47,0,0,0,0,6.36,11.38,11.38,0,0,0,.85,2.45,20,20,0,0,0,1.47,2.44l-1,.7c-.79-1.11-1.39-2-1.81-2.73a11.36,11.36,0,0,1-1.07-2.57,14.18,14.18,0,0,1,0-6.93,11.36,11.36,0,0,1,1.07-2.57c.42-.71,1-1.63,1.81-2.74Z" style="fill:#7a40c6"/><path d="M186.43,290.17l-.3,1.6a3.5,3.5,0,0,0-.82-.11,1.71,1.71,0,0,0-1.4.64,4.59,4.59,0,0,0-.84,2v5.33h-1.64v-9.33h1.41l.16,1.89a3.51,3.51,0,0,1,1-1.57,2.26,2.26,0,0,1,1.5-.53A3.82,3.82,0,0,1,186.43,290.17Z" style="fill:#7a40c6"/><path d="M195.35,295.5h-6a3.62,3.62,0,0,0,.78,2.27,2.25,2.25,0,0,0,1.74.73,3.81,3.81,0,0,0,1.25-.2,4.7,4.7,0,0,0,1.19-.62l.71,1a5.16,5.16,0,0,1-3.27,1.17,3.8,3.8,0,0,1-3.05-1.28,5.22,5.22,0,0,1-1.1-3.51,6.51,6.51,0,0,1,.48-2.57,4,4,0,0,1,1.35-1.77,3.87,3.87,0,0,1,4.94.59,5.22,5.22,0,0,1,1,3.38C195.38,294.94,195.37,295.22,195.35,295.5Zm-1.59-1.31a3.39,3.39,0,0,0-.55-2.1,1.93,1.93,0,0,0-1.65-.73q-2,0-2.19,2.94h4.39Z" style="fill:#7a40c6"/><path d="M202.13,290.33a5.25,5.25,0,0,1,1.46.8l-.7,1a5.15,5.15,0,0,0-1.22-.61,3.74,3.74,0,0,0-1.21-.19,2.15,2.15,0,0,0-1.27.33,1,1,0,0,0-.46.89,1,1,0,0,0,.43.89,5.26,5.26,0,0,0,1.58.62,5.67,5.67,0,0,1,2.34,1.06,2.3,2.3,0,0,1,.77,1.84,2.37,2.37,0,0,1-1.07,2.11,4.57,4.57,0,0,1-2.63.73,5.23,5.23,0,0,1-3.54-1.22l.87-1a4.25,4.25,0,0,0,2.64.91,2.53,2.53,0,0,0,1.46-.38,1.2,1.2,0,0,0,.55-1,1.35,1.35,0,0,0-.2-.77,1.47,1.47,0,0,0-.67-.51,8.46,8.46,0,0,0-1.41-.47,4.72,4.72,0,0,1-2.16-1.05,2.32,2.32,0,0,1-.23-3,2.85,2.85,0,0,1,1.21-.92,4.34,4.34,0,0,1,1.73-.32A5.2,5.2,0,0,1,202.13,290.33Z" style="fill:#7a40c6"/><path d="M207.88,288a1.36,1.36,0,0,0-.32,1v1.3h2.27l-.17,1.26h-2.1v8.07h-1.64v-8.07h-1.67v-1.26h1.67V289a2.58,2.58,0,0,1,.77-1.94,3,3,0,0,1,2.16-.73,5.68,5.68,0,0,1,1.15.11,6.47,6.47,0,0,1,1.1.37l-.52,1.18a4.1,4.1,0,0,0-1.64-.35A1.43,1.43,0,0,0,207.88,288Z" style="fill:#7a40c6"/><path d="M217.27,290.17l-.3,1.6a3.5,3.5,0,0,0-.82-.11,1.75,1.75,0,0,0-1.41.64,4.72,4.72,0,0,0-.83,2v5.33h-1.64v-9.33h1.41l.16,1.89a3.51,3.51,0,0,1,1-1.57,2.26,2.26,0,0,1,1.5-.53A3.82,3.82,0,0,1,217.27,290.17Z" style="fill:#7a40c6"/><path d="M220.78,286.11a1.11,1.11,0,0,1,.32.8,1.07,1.07,0,0,1-.32.79,1.16,1.16,0,0,1-.84.31,1.12,1.12,0,0,1-.82-.31,1.07,1.07,0,0,1-.32-.79,1.08,1.08,0,0,1,1.14-1.11A1.16,1.16,0,0,1,220.78,286.11Zm0,4.17v9.33h-1.64v-9.33Z" style="fill:#7a40c6"/><path d="M230.94,298.28a1.16,1.16,0,0,0,.58.41l-.37,1.14a2.49,2.49,0,0,1-1.17-.41,1.81,1.81,0,0,1-.66-1,3.16,3.16,0,0,1-2.8,1.4,3,3,0,0,1-2.19-.78,2.73,2.73,0,0,1-.8-2,2.66,2.66,0,0,1,1.08-2.28,5,5,0,0,1,3-.8h1.44v-.69a1.82,1.82,0,0,0-.48-1.42,2.19,2.19,0,0,0-1.47-.43,8.36,8.36,0,0,0-2.53.5l-.41-1.19a9.56,9.56,0,0,1,3.24-.63,3.37,3.37,0,0,1,2.47.8,3.07,3.07,0,0,1,.82,2.3v4.27A1.49,1.49,0,0,0,230.94,298.28Zm-1.84-1.13V295h-1.22c-1.74,0-2.6.64-2.6,1.91a1.71,1.71,0,0,0,.41,1.26,1.61,1.61,0,0,0,1.21.43A2.44,2.44,0,0,0,229.1,297.15Z" style="fill:#7a40c6"/><path d="M241.22,286.52v13.09h-1.44l-.16-1.29a3.42,3.42,0,0,1-1.16,1.11,3.07,3.07,0,0,1-1.54.4,3,3,0,0,1-2.61-1.31,6,6,0,0,1-.93-3.53,6.75,6.75,0,0,1,.44-2.55,4,4,0,0,1,1.28-1.75,3.23,3.23,0,0,1,2-.62,3.34,3.34,0,0,1,2.52,1.15v-4.89Zm-2.67,11.67a3.91,3.91,0,0,0,1-1v-4.57a3.46,3.46,0,0,0-1-.91,2.27,2.27,0,0,0-1.19-.31,1.91,1.91,0,0,0-1.68.9,4.92,4.92,0,0,0-.59,2.7,5.17,5.17,0,0,0,.55,2.69,1.75,1.75,0,0,0,1.58.88A2.29,2.29,0,0,0,238.55,298.19Z" style="fill:#7a40c6"/><path d="M251.05,291.38a5.37,5.37,0,0,1,1.1,3.56,6.22,6.22,0,0,1-.5,2.56,3.88,3.88,0,0,1-1.44,1.72,4.1,4.1,0,0,1-2.24.61,3.81,3.81,0,0,1-3.08-1.31,5.34,5.34,0,0,1-1.1-3.56,6.19,6.19,0,0,1,.49-2.56,4,4,0,0,1,1.44-1.72,4.06,4.06,0,0,1,2.26-.61A3.76,3.76,0,0,1,251.05,291.38Zm-5.5,3.58c0,2.37.8,3.56,2.42,3.56s2.42-1.2,2.42-3.58-.8-3.56-2.41-3.56S245.55,292.57,245.55,295Z" style="fill:#7a40c6"/><path d="M256.57,287.38a11.36,11.36,0,0,1,1.07,2.57,13.86,13.86,0,0,1,0,6.93,11.36,11.36,0,0,1-1.07,2.57q-.63,1.07-1.8,2.73l-1-.7A20,20,0,0,0,255.2,299a11.39,11.39,0,0,0,.86-2.45,16.47,16.47,0,0,0,0-6.36,10.75,10.75,0,0,0-.86-2.44,21.59,21.59,0,0,0-1.47-2.44l1-.71C255.55,285.75,256.15,286.67,256.57,287.38Z" style="fill:#7a40c6"/></g><g id="preto"><path d="M15.27,165.14A3.06,3.06,0,0,1,17,168a4.57,4.57,0,0,1-.49,2.07,10.19,10.19,0,0,1-1.5,2.15c-.68.76-1.7,1.83-3.08,3.2h5.36l-.2,1.37H10v-1.3q2.38-2.46,3.38-3.6a10.32,10.32,0,0,0,1.43-2,4.1,4.1,0,0,0,.42-1.83,1.83,1.83,0,0,0-1.95-2,2.67,2.67,0,0,0-1.29.3,5,5,0,0,0-1.17,1l-1.07-.85a5,5,0,0,1,1.62-1.35,4.34,4.34,0,0,1,2-.44A4,4,0,0,1,15.27,165.14Z"/><path d="M30.77,164.61a5.6,5.6,0,0,1,1.54.92l-.92,1.08a3.74,3.74,0,0,0-2.37-.9,3,3,0,0,0-2.47,1.17,6,6,0,0,0-.93,3.75,6.13,6.13,0,0,0,.92,3.72A3,3,0,0,0,29,175.54a3.42,3.42,0,0,0,1.37-.26,7.5,7.5,0,0,0,1.25-.75l.83,1.07a4.65,4.65,0,0,1-1.46,1,5,5,0,0,1-2,.39,4.73,4.73,0,0,1-4.48-2.9,8.26,8.26,0,0,1-.65-3.43,7.93,7.93,0,0,1,.68-3.42,5,5,0,0,1,1.83-2.16,4.78,4.78,0,0,1,2.58-.72A5.28,5.28,0,0,1,30.77,164.61Z"/><path d="M39.33,176a2.4,2.4,0,0,1,.94,1,3.54,3.54,0,0,1,.35,1.63,3.79,3.79,0,0,1-.4,1.75,3.05,3.05,0,0,1-1.08,1.17,2.86,2.86,0,0,1-1.5.41,2.62,2.62,0,0,1-2.39-1.21,6.17,6.17,0,0,1-.76-3.33,7.55,7.55,0,0,1,.43-2.67A4,4,0,0,1,36.14,173a3,3,0,0,1,1.89-.63,3.44,3.44,0,0,1,1.93.57l-.51.85a2.66,2.66,0,0,0-1.44-.41,1.79,1.79,0,0,0-1.59,1,5.21,5.21,0,0,0-.64,2.58,2.67,2.67,0,0,1,3.55-.89Zm-.45,4.33a2.82,2.82,0,0,0,.43-1.66c0-1.33-.5-2-1.51-2a2,2,0,0,0-1.13.34,3,3,0,0,0-.88.94,4.84,4.84,0,0,0,.48,2.26,1.5,1.5,0,0,0,1.37.72A1.42,1.42,0,0,0,38.88,180.36Z"/><path d="M50.4,176.75V171H45.23v5.73H43.54V164.54h1.69v5.1H50.4v-5.1h1.69v12.21Z"/><path d="M60.78,173.51H57.13v2.74a3.28,3.28,0,0,1,1.5-.36,2.5,2.5,0,0,1,1.93.79,3.06,3.06,0,0,1,.72,2.16,3.29,3.29,0,0,1-.4,1.64,2.9,2.9,0,0,1-1.14,1.11,3.59,3.59,0,0,1-1.7.4,3.65,3.65,0,0,1-1.52-.3,4.05,4.05,0,0,1-1.25-.89l.76-.73a3.28,3.28,0,0,0,.92.66,2.63,2.63,0,0,0,1.08.21,1.81,1.81,0,0,0,1.4-.55,2.27,2.27,0,0,0,.51-1.58,2,2,0,0,0-.46-1.47,1.67,1.67,0,0,0-1.24-.46,2.9,2.9,0,0,0-.68.07,3.57,3.57,0,0,0-.65.25h-1v-4.69H61Z"/><path d="M71.82,165.06a4.88,4.88,0,0,1,1.82,2.16,8.23,8.23,0,0,1,.65,3.43,8.12,8.12,0,0,1-.65,3.4,5.11,5.11,0,0,1-7.25,2.18,4.8,4.8,0,0,1-1.81-2.14,9.27,9.27,0,0,1,0-6.82,4.9,4.9,0,0,1,1.82-2.19,5.33,5.33,0,0,1,5.42,0Zm-5.2,1.85a6.34,6.34,0,0,0-.89,3.76,6.17,6.17,0,0,0,.9,3.72,2.93,2.93,0,0,0,2.48,1.19q3.38,0,3.38-4.93t-3.38-4.94A2.91,2.91,0,0,0,66.62,166.91Z"/><path d="M84,176.75V171H78.86v5.73H77.17V164.54h1.69v5.1H84v-5.1h1.69v12.21Z"/><rect x="308.7" y="173.67" width="74.15" height="0.5" style="fill:#020200"/><polygon points="375.72 170.55 384.62 173.92 375.72 177.29 377.42 173.92 375.72 170.55 375.72 170.55" style="fill-rule:evenodd"/><path d="M116.85,170.07v2.66h2.6v1.34h-2.6v2.65h-1.5v-2.65h-2.58v-1.34h2.58v-2.66Z" style="fill:#575756"/><path d="M242.48,128A5.14,5.14,0,0,1,244,129L243.1,130a3.7,3.7,0,0,0-2.37-.91,3,3,0,0,0-2.46,1.17,7.93,7.93,0,0,0,0,7.47,2.93,2.93,0,0,0,2.45,1.2,3.25,3.25,0,0,0,1.37-.27,7.4,7.4,0,0,0,1.25-.74l.84,1.06a4.6,4.6,0,0,1-1.46,1,5.1,5.1,0,0,1-2.05.39,4.7,4.7,0,0,1-4.48-2.89,8.3,8.3,0,0,1-.65-3.43,8,8,0,0,1,.68-3.43,4.94,4.94,0,0,1,1.83-2.15,4.7,4.7,0,0,1,2.58-.73A5.26,5.26,0,0,1,242.48,128Z"/><path d="M243.88,196.64a5.6,5.6,0,0,1,1.54.92l-.92,1.08a3.74,3.74,0,0,0-2.37-.9,3,3,0,0,0-2.47,1.17,8,8,0,0,0,0,7.47,3,3,0,0,0,2.45,1.19,3.42,3.42,0,0,0,1.37-.26,7.5,7.5,0,0,0,1.25-.75l.83,1.07a4.49,4.49,0,0,1-1.46,1,5,5,0,0,1-2,.39,4.73,4.73,0,0,1-4.48-2.9,8.26,8.26,0,0,1-.65-3.43,7.93,7.93,0,0,1,.68-3.42,5,5,0,0,1,1.83-2.16,4.78,4.78,0,0,1,2.58-.72A5.28,5.28,0,0,1,243.88,196.64Z"/><path d="M278.16,164.31a4.88,4.88,0,0,1,1.82,2.16,9.32,9.32,0,0,1,0,6.84,5.12,5.12,0,0,1-7.25,2.17,4.75,4.75,0,0,1-1.81-2.14,9.27,9.27,0,0,1,0-6.82,4.9,4.9,0,0,1,1.82-2.19,5.33,5.33,0,0,1,5.42,0Zm-5.2,1.86a8.28,8.28,0,0,0,0,7.47,3,3,0,0,0,2.49,1.19q3.38,0,3.38-4.93T275.45,165A2.9,2.9,0,0,0,273,166.17Z"/><path d="M244.4,230a4.84,4.84,0,0,1,1.82,2.15,8.28,8.28,0,0,1,.65,3.44,8.15,8.15,0,0,1-.65,3.4,4.82,4.82,0,0,1-1.82,2.16,4.88,4.88,0,0,1-2.71.75,5,5,0,0,1-2.71-.73,4.76,4.76,0,0,1-1.82-2.14,9.3,9.3,0,0,1,0-6.83,4.8,4.8,0,0,1,4.53-2.94A5,5,0,0,1,244.4,230Zm-5.2,1.85a6.39,6.39,0,0,0-.89,3.76,6.17,6.17,0,0,0,.9,3.72,2.93,2.93,0,0,0,2.48,1.18q3.38,0,3.38-4.92c0-3.3-1.13-4.94-3.38-4.94A2.91,2.91,0,0,0,239.2,231.81Z"/><path d="M244.83,90.11a4.89,4.89,0,0,1,1.81,2.15,8.28,8.28,0,0,1,.65,3.44,8.15,8.15,0,0,1-.65,3.4,4.86,4.86,0,0,1-1.81,2.16,5.35,5.35,0,0,1-5.43,0,4.82,4.82,0,0,1-1.82-2.14,9.27,9.27,0,0,1,0-6.82,4.76,4.76,0,0,1,4.53-2.94A5,5,0,0,1,244.83,90.11ZM239.62,92a6.41,6.41,0,0,0-.89,3.76,6.17,6.17,0,0,0,.9,3.72,3,3,0,0,0,2.48,1.19c2.26,0,3.38-1.65,3.38-4.93s-1.12-4.94-3.38-4.94A2.91,2.91,0,0,0,239.62,92Z"/><rect x="167.79" y="175.78" width="0.5" height="29.19" transform="translate(-80.33 243.22) rotate(-60.58)" style="fill:#020200"/><rect x="153.44" y="147.94" width="29.19" height="0.5" transform="translate(-51.16 101.83) rotate(-29.47)" style="fill:#020200"/><polygon points="180.33 204.58 180.2 204.51 149.57 187.14 149.57 151.84 149.69 151.77 180.32 133.98 180.45 134.05 210.95 151.34 210.71 151.78 180.33 134.55 150.07 152.13 150.07 186.85 180.32 204 210.7 186.36 210.96 186.79 180.33 204.58" style="fill:#020200"/><rect x="210.58" y="151.56" width="0.5" height="35.01" style="fill:#020200"/><rect x="204.65" y="154.52" width="0.5" height="29.11" style="fill:#020200"/><polygon points="210.96 151.78 210.7 151.35 232.73 138.27 232.99 138.7 210.96 151.78" style="fill:#020200"/><polygon points="233.16 199.45 210.71 186.79 210.95 186.36 233.41 199.01 233.16 199.45" style="fill:#020200"/><polygon points="267.43 161.02 248.78 142.03 249.14 141.69 267.78 160.67 267.43 161.02" style="fill:#020200"/><polygon points="249.56 196.45 249.21 196.1 267.43 177.96 267.78 178.31 249.56 196.45" style="fill:#020200"/><rect x="238.12" y="212.32" width="0.5" height="13.5" style="fill:#020200"/><rect x="244.05" y="212.32" width="0.5" height="13.5" style="fill:#020200"/><rect x="243.63" y="108.11" width="0.5" height="16.87" style="fill:#020200"/><rect x="237.7" y="108.11" width="0.5" height="16.87" style="fill:#020200"/><path d="M497.11,134.77a5.4,5.4,0,0,1,1.54.92l-.93,1.08a3.7,3.7,0,0,0-2.37-.91,3,3,0,0,0-2.46,1.17,8,8,0,0,0,0,7.47,3,3,0,0,0,2.46,1.2,3.28,3.28,0,0,0,1.37-.27,7.34,7.34,0,0,0,1.24-.74l.84,1.06a4.6,4.6,0,0,1-1.46,1,5.07,5.07,0,0,1-2.05.39,4.9,4.9,0,0,1-2.66-.73,4.8,4.8,0,0,1-1.81-2.16,8.14,8.14,0,0,1-.65-3.43,8,8,0,0,1,.67-3.43,5,5,0,0,1,1.84-2.15,4.7,4.7,0,0,1,2.58-.73A5.34,5.34,0,0,1,497.11,134.77Z"/><path d="M497.54,204.79a5.36,5.36,0,0,1,1.54.92l-.92,1.08a3.75,3.75,0,0,0-2.37-.91,3,3,0,0,0-2.46,1.17,7.93,7.93,0,0,0,0,7.47,2.93,2.93,0,0,0,2.45,1.2,3.25,3.25,0,0,0,1.37-.27,6.47,6.47,0,0,0,1.25-.74l.84,1.06a4.61,4.61,0,0,1-1.46,1,5.28,5.28,0,0,1-2,.39,4.73,4.73,0,0,1-4.48-2.9,8.26,8.26,0,0,1-.65-3.43,8,8,0,0,1,.68-3.43,4.94,4.94,0,0,1,1.83-2.15,4.75,4.75,0,0,1,2.58-.73A5.26,5.26,0,0,1,497.54,204.79Z" style="fill:#020200"/><path d="M533.66,169.39a4.83,4.83,0,0,1,1.81,2.15,9.32,9.32,0,0,1,0,6.84,4.71,4.71,0,0,1-4.53,2.9,5,5,0,0,1-2.71-.72,4.85,4.85,0,0,1-1.82-2.15,9.27,9.27,0,0,1,0-6.82,5,5,0,0,1,1.83-2.19,4.89,4.89,0,0,1,2.7-.75A5,5,0,0,1,533.66,169.39Zm-5.21,1.85a6.35,6.35,0,0,0-.89,3.75,6.17,6.17,0,0,0,.9,3.72,2.92,2.92,0,0,0,2.48,1.19c2.26,0,3.38-1.64,3.38-4.92S533.2,170,530.94,170A2.9,2.9,0,0,0,528.45,171.24Z"/><path d="M498.05,236.89a4.85,4.85,0,0,1,1.82,2.15,9.46,9.46,0,0,1,0,6.84,4.73,4.73,0,0,1-4.53,2.9,5.07,5.07,0,0,1-2.72-.72,4.77,4.77,0,0,1-1.81-2.15,9.27,9.27,0,0,1,0-6.82,5.07,5.07,0,0,1,7.24-2.2Zm-5.21,1.85a6.36,6.36,0,0,0-.88,3.75,6.18,6.18,0,0,0,.89,3.72,2.93,2.93,0,0,0,2.49,1.19q3.38,0,3.38-4.92t-3.38-4.95A2.93,2.93,0,0,0,492.84,238.74Z"/><path d="M626.86,79.53a4.79,4.79,0,0,1,1.82,2.15,9.32,9.32,0,0,1,0,6.84,4.92,4.92,0,0,1-1.82,2.16,4.87,4.87,0,0,1-2.71.74,5,5,0,0,1-2.71-.72,4.79,4.79,0,0,1-1.82-2.15,9.27,9.27,0,0,1,0-6.82,5,5,0,0,1,1.83-2.19,4.89,4.89,0,0,1,2.7-.75A5,5,0,0,1,626.86,79.53Zm-5.2,1.85a6.35,6.35,0,0,0-.89,3.75,6.23,6.23,0,0,0,.9,3.73A2.93,2.93,0,0,0,624.15,90q3.38,0,3.38-4.92t-3.38-5A2.92,2.92,0,0,0,621.66,81.38Z"/><path d="M640.61,91.21V85.49h-5.16v5.72h-1.7V79h1.7v5.11h5.16V79h1.69V91.21Z"/><path d="M434.07,9.94a4.91,4.91,0,0,1,1.82,2.15,8.28,8.28,0,0,1,.65,3.44,8.15,8.15,0,0,1-.65,3.4,4.76,4.76,0,0,1-4.53,2.91,5,5,0,0,1-2.72-.73A4.8,4.8,0,0,1,426.83,19a8.25,8.25,0,0,1-.65-3.42,8.22,8.22,0,0,1,.65-3.4A4.9,4.9,0,0,1,428.65,10a5.33,5.33,0,0,1,5.42,0Zm-5.2,1.85a6.34,6.34,0,0,0-.89,3.76,6.17,6.17,0,0,0,.9,3.72,2.93,2.93,0,0,0,2.48,1.19q3.38,0,3.38-4.93t-3.38-4.94A2.91,2.91,0,0,0,428.87,11.79Z"/><path d="M421.14,21.63V15.9H416v5.73h-1.69V9.42H416v5.1h5.17V9.42h1.69V21.63Z"/><rect x="422.43" y="182.53" width="0.5" height="29.19" transform="translate(43.35 468.45) rotate(-60.58)" style="fill:#020200"/><rect x="408.08" y="154.69" width="29.19" height="0.5" transform="translate(-21.54 227.97) rotate(-29.47)" style="fill:#020200"/><polygon points="434.97 211.33 434.84 211.26 404.21 193.89 404.21 158.59 404.33 158.52 434.96 140.73 435.09 140.8 465.59 158.09 465.35 158.53 434.97 141.3 404.71 158.88 404.71 193.6 434.96 210.75 465.35 193.1 465.6 193.54 434.97 211.33" style="fill:#020200"/><rect x="465.22" y="158.31" width="0.5" height="35.01" style="fill:#020200"/><rect x="459.29" y="161.26" width="0.5" height="29.11" style="fill:#020200"/><polygon points="465.6 158.53 465.34 158.1 487.38 145.02 487.63 145.45 465.6 158.53" style="fill:#020200"/><polygon points="487.8 206.19 465.35 193.54 465.59 193.1 488.05 205.76 487.8 206.19" style="fill:#020200"/><polygon points="522.92 166.93 503.43 148.37 503.78 148.01 523.27 166.57 522.92 166.93" style="fill:#020200"/><polygon points="504.2 202.78 503.85 202.43 522.92 183.45 523.27 183.8 504.2 202.78" style="fill:#020200"/><rect x="492.76" y="219.9" width="0.5" height="13.5" style="fill:#020200"/><rect x="498.69" y="219.9" width="0.5" height="13.5" style="fill:#020200"/><rect x="545.3" y="117.69" width="0.5" height="29.36" transform="translate(117.21 495.23) rotate(-53.91)" style="fill:#020200"/><rect x="535.91" y="90.36" width="29.02" height="0.5" transform="translate(8.47 222.75) rotate(-23.05)" style="fill:#020200"/><polygon points="528 126.71 527.51 126.64 531.76 91.91 564.23 77.88 592.73 98.63 592.43 99.04 564.16 78.45 532.22 92.26 528 126.71" style="fill:#020200"/><polygon points="556.11 148.05 555.99 147.97 527.61 126.88 527.91 126.47 556.17 147.48 588.11 133.67 592.33 98.8 592.83 98.86 588.57 134.02 556.11 148.05" style="fill:#020200"/><rect x="570.09" y="115.46" width="28.88" height="0.5" transform="translate(401.06 682.63) rotate(-83.26)" style="fill:#020200"/><polygon points="503.7 137.45 503.5 136.99 527.66 126.45 527.86 126.91 503.7 137.45" style="fill:#020200"/><rect x="469.89" y="91.41" width="29.29" height="0.5" transform="translate(141.41 445.84) rotate(-56.62)" style="fill:#020200"/><rect x="441.7" y="74.5" width="0.5" height="29.27" transform="translate(7 207.82) rotate(-26.67)" style="fill:#020200"/><polygon points="479.86 109.63 444.55 107.94 444.49 107.81 428.32 76.04 447.89 46.81 448.31 47.09 428.9 76.07 444.87 107.45 479.89 109.13 479.86 109.63" style="fill:#020200"/><polygon points="480.08 109.52 479.67 109.24 498.65 80.25 483.11 49.3 448.08 47.2 448.11 46.7 483.43 48.82 483.49 48.95 499.23 80.29 499.15 80.41 480.08 109.52" style="fill:#020200"/><rect x="465.01" y="39.06" width="0.5" height="29.28" transform="translate(384.84 515.09) rotate(-86.7)" style="fill:#020200"/><polygon points="491.09 131.85 479.65 109.49 480.1 109.27 491.54 131.62 491.09 131.85" style="fill:#020200"/><rect x="591.55" y="93.52" width="25.8" height="0.5" transform="translate(11.55 244.16) rotate(-23.05)" style="fill:#020200"/><polygon points="447.88 47.06 436.44 24.71 436.88 24.48 448.32 46.84 447.88 47.06" style="fill:#020200"/><path d="M601.14,170.42v2.66h2.6v1.35h-2.6v2.64h-1.49v-2.64h-2.58v-1.35h2.58v-2.66Z"/><path d="M635.1,177.92V172.2h-5.16v5.72h-1.69v-12.2h1.69v5.1h5.16v-5.1h1.69v12.2Z"/><path d="M644.28,173.88a2.43,2.43,0,0,1,1.33,2.21,3.71,3.71,0,0,1-.38,1.63,8,8,0,0,1-1.18,1.68c-.53.61-1.34,1.45-2.42,2.52h4.21l-.16,1.07h-5.52v-1c1.25-1.29,2.13-2.24,2.66-2.83a7.71,7.71,0,0,0,1.11-1.57,3.08,3.08,0,0,0,.34-1.43,1.51,1.51,0,0,0-.42-1.14,1.54,1.54,0,0,0-1.12-.41,2,2,0,0,0-1,.24,3.84,3.84,0,0,0-.93.78L640,175a3.94,3.94,0,0,1,1.28-1.06,3.44,3.44,0,0,1,1.56-.35A3.08,3.08,0,0,1,644.28,173.88Z"/><path d="M656.51,166.24a4.91,4.91,0,0,1,1.82,2.15,8.28,8.28,0,0,1,.65,3.44,8.15,8.15,0,0,1-.65,3.4,4.76,4.76,0,0,1-4.53,2.91,5,5,0,0,1-2.72-.73,4.8,4.8,0,0,1-1.81-2.14,9.27,9.27,0,0,1,0-6.82,4.9,4.9,0,0,1,1.82-2.19,5.27,5.27,0,0,1,5.42,0Zm-5.2,1.85a6.34,6.34,0,0,0-.89,3.76,6.17,6.17,0,0,0,.9,3.72,2.94,2.94,0,0,0,2.48,1.19c2.25,0,3.38-1.65,3.38-4.93s-1.13-4.94-3.38-4.94A2.91,2.91,0,0,0,651.31,168.09Z"/><path d="M665.13,163.66a22.93,22.93,0,0,0-1.46,2.44,10.37,10.37,0,0,0-.86,2.43,16.52,16.52,0,0,0,0,6.37,10.87,10.87,0,0,0,.86,2.45,21,21,0,0,0,1.46,2.43l-1,.71q-1.17-1.67-1.8-2.73a10.92,10.92,0,0,1-1.07-2.57,13.86,13.86,0,0,1,0-6.93,10.92,10.92,0,0,1,1.07-2.57c.42-.71,1-1.63,1.8-2.74Z"/><path d="M674.48,177.92V172.2h-5.16v5.72h-1.69v-12.2h1.69v5.1h5.16v-5.1h1.69v12.2Z"/><path d="M682.44,173.88a2.42,2.42,0,0,1,1,.91,2.48,2.48,0,0,1,.35,1.3,3.59,3.59,0,0,1-.39,1.63,7.65,7.65,0,0,1-1.18,1.68c-.53.61-1.34,1.45-2.42,2.52H684l-.15,1.07h-5.53v-1c1.25-1.29,2.14-2.24,2.66-2.83a7.82,7.82,0,0,0,1.12-1.57,3.19,3.19,0,0,0,.33-1.43,1.43,1.43,0,0,0-1.53-1.55,2,2,0,0,0-1,.24,3.63,3.63,0,0,0-.92.78l-.84-.67a3.81,3.81,0,0,1,1.27-1.06,3.52,3.52,0,0,1,1.57-.35A3,3,0,0,1,682.44,173.88Z"/><path d="M692.72,165.85a5.77,5.77,0,0,1,1.69,1.07l-.92,1a5.47,5.47,0,0,0-1.36-.81,4,4,0,0,0-1.43-.25,2.64,2.64,0,0,0-1.59.44,1.51,1.51,0,0,0-.62,1.29,1.76,1.76,0,0,0,.21.9,1.92,1.92,0,0,0,.79.66,10.16,10.16,0,0,0,1.69.64,11.44,11.44,0,0,1,1.92.76,3.26,3.26,0,0,1,1.23,1.13,3.19,3.19,0,0,1,.48,1.81,3.39,3.39,0,0,1-.53,1.88,3.54,3.54,0,0,1-1.51,1.28,5.61,5.61,0,0,1-2.34.46,5.74,5.74,0,0,1-4.17-1.58l.93-1a5.9,5.9,0,0,0,1.51.91,4.45,4.45,0,0,0,1.71.32,3.09,3.09,0,0,0,1.89-.56,2.21,2.21,0,0,0,.51-2.63,2.06,2.06,0,0,0-.79-.71,8.1,8.1,0,0,0-1.63-.64,7.29,7.29,0,0,1-2.76-1.36,2.82,2.82,0,0,1-.87-2.17,2.9,2.9,0,0,1,.49-1.64,3.28,3.28,0,0,1,1.37-1.14,4.77,4.77,0,0,1,2-.41A5.7,5.7,0,0,1,692.72,165.85Z"/><path d="M704.39,166.24a4.82,4.82,0,0,1,1.81,2.15,8.12,8.12,0,0,1,.65,3.44,8,8,0,0,1-.65,3.4,4.8,4.8,0,0,1-1.81,2.16,4.91,4.91,0,0,1-2.72.75,5,5,0,0,1-2.71-.73,4.74,4.74,0,0,1-1.81-2.14,9.27,9.27,0,0,1,0-6.82,4.76,4.76,0,0,1,4.52-2.95A5,5,0,0,1,704.39,166.24Zm-5.21,1.85a6.41,6.41,0,0,0-.89,3.76,6.17,6.17,0,0,0,.9,3.72,3,3,0,0,0,2.48,1.19c2.26,0,3.39-1.65,3.39-4.93s-1.13-4.94-3.39-4.94A2.94,2.94,0,0,0,699.18,168.09Z"/><path d="M713.87,179.68v1h-1.21V183h-1.25V180.7h-4v-.92l2.81-6.24,1.08.45-2.53,5.69h2.66l.11-2.5h1.12v2.5Z"/><path d="M718.45,165.69a11.83,11.83,0,0,1,1.07,2.57,14.18,14.18,0,0,1,0,6.93,11.83,11.83,0,0,1-1.07,2.57c-.42.71-1,1.62-1.81,2.73l-1-.71a19.91,19.91,0,0,0,1.47-2.43,11.38,11.38,0,0,0,.85-2.45,16.52,16.52,0,0,0,0-6.37,10.83,10.83,0,0,0-.85-2.43,21.59,21.59,0,0,0-1.47-2.44l1-.71C717.42,164.06,718,165,718.45,165.69Z"/></g></g></svg>