<svg xmlns="http://www.w3.org/2000/svg" viewBox="0 0 730 382.65"><title>fig-6-2</title><g id="fig-6-2"><path d="M188.29,331.87H104M188.29,260H104m84.27-71.89H104m84.27-71.9H104m166.51-71.9h21V331.87h-21M188.29,44.28H104m166.51,71.9h21m-.53,71.9h21m-41.44,0h21m-21,71.89h21" style="fill:none;stroke:#6827a7;stroke-miterlimit:10;stroke-width:2px"/><rect x="154.34" y="15.42" width="121.84" height="59.57" rx="10.15" style="fill:#e55843"/><rect x="154.34" y="87.31" width="121.84" height="59.57" rx="10.15" style="fill:#e55843"/><rect x="154.34" y="159.21" width="121.84" height="59.57" rx="10.15" style="fill:#e55843"/><rect x="154.34" y="231.1" width="121.84" height="59.57" rx="10.15" style="fill:#e55843"/><rect x="154.34" y="303" width="121.84" height="59.57" rx="10.15" style="fill:#e55843"/><rect x="14.9" y="15.42" width="121.84" height="59.57" rx="10.15" style="fill:#fcd5d0"/><rect x="14.9" y="87.31" width="121.84" height="59.57" rx="10.15" style="fill:#fcd5d0"/><rect x="14.9" y="159.21" width="121.84" height="59.57" rx="10.15" style="fill:#fcd5d0"/><rect x="14.9" y="231.1" width="121.84" height="59.57" rx="10.15" style="fill:#fcd5d0"/><rect x="14.9" y="303" width="121.84" height="59.57" rx="10.15" style="fill:#fcd5d0"/><path d="M541.71,331.87H626M541.71,260H626m-84.27-71.89H626m-84.27-71.9H626m-262-25.35V175.1m0,34.53V293.9M459.47,44.28h-21V331.87h21M541.71,44.28H626m-166.51,71.9h-21m-.54,71.9H417m42.5,0h-21m21,71.89h-21" style="fill:none;stroke:#6827a7;stroke-miterlimit:10;stroke-width:2px"/><rect x="303.02" y="158.3" width="121.84" height="59.57" rx="10.15" style="fill:#d13f29"/><rect x="303.02" y="64.83" width="121.84" height="59.57" rx="10.15" style="fill:#d13f29"/><rect x="303.02" y="251.76" width="121.84" height="59.57" rx="10.15" style="fill:#d13f29"/><rect x="453.82" y="15.42" width="121.84" height="59.57" rx="10.15" style="fill:#e55843"/><rect x="453.82" y="86.4" width="121.84" height="59.57" rx="10.15" style="fill:#e55843"/><rect x="453.82" y="158.29" width="121.84" height="59.57" rx="10.15" style="fill:#e55843"/><rect x="453.82" y="230.19" width="121.84" height="59.57" rx="10.15" style="fill:#e55843"/><rect x="453.82" y="302.09" width="121.84" height="59.57" rx="10.15" style="fill:#e55843"/><rect x="593.26" y="14.5" width="121.84" height="59.57" rx="10.15" style="fill:#fcd5d0"/><rect x="593.26" y="86.4" width="121.84" height="59.57" rx="10.15" style="fill:#fcd5d0"/><rect x="593.26" y="158.29" width="121.84" height="59.57" rx="10.15" style="fill:#fcd5d0"/><rect x="593.26" y="230.19" width="121.84" height="59.57" rx="10.15" style="fill:#fcd5d0"/><path d="M715.1,356.89c0,6.21-4.55,11.26-10.15,11.26H603.41c-5.61,0-10.15-5-10.15-11.26V313.35c0-6.22,4.54-11.26,10.15-11.26H705c5.6,0,10.15,5,10.15,11.26Z" style="fill:#fcd5d0"/><text transform="translate(342.67 181.92)" style="font-size:16.245380401611328px;fill:#fff;font-family:FiraSans-Regular, Fira Sans">Eten</text><text transform="translate(375.08 181.92)" style="font-size:16.245380401611328px;fill:#fff;font-family:FiraSans-Regular, Fira Sans">o</text><text transform="translate(335.22 203.03)" style="font-size:16.245380401611328px;fill:#fff;font-family:FiraSans-Regular, Fira Sans">CH</text><text transform="translate(354.99 208.44)" style="font-size:10.998270034790039px;fill:#fff;font-family:SourceSansPro-SemiBold, Source Sans Pro;font-weight:600">2</text><text transform="translate(360.28 203.03)" style="font-size:16.245380401611328px;fill:#fff;font-family:FiraSans-Regular, Fira Sans">=CH</text><text transform="translate(388.34 208.44)" style="font-size:10.998270034790039px;fill:#fff;font-family:SourceSansPro-SemiBold, Source Sans Pro;font-weight:600">2</text><text transform="translate(327.9 276.47)" style="font-size:16.245380401611328px;fill:#fff;font-family:FiraSans-Regular, Fira Sans">Polietileno</text><text transform="translate(317.73 295.96)" style="font-size:16.245380401611328px;fill:#fff;font-family:FiraSans-Regular, Fira Sans">-[C</text><text transform="translate(339.03 295.96)" style="font-size:16.245380401611328px;fill:#fff;font-family:FiraSans-Regular, Fira Sans">H</text><text transform="translate(351.1 301.37)" style="font-size:10.998270034790039px;fill:#fff;font-family:SourceSansPro-SemiBold, Source Sans Pro;font-weight:600">2</text><text transform="translate(357.09 295.96)" style="font-size:16.245380401611328px;fill:#fff;font-family:FiraSans-Regular, Fira Sans">=CH</text><text transform="translate(384.27 301.37)" style="font-size:10.998270034790039px;fill:#fff;font-family:SourceSansPro-SemiBold, Source Sans Pro;font-weight:600">2</text><text transform="translate(390.61 295.96)" style="font-size:16.245380401611328px;fill:#fff;font-family:FiraSans-Regular, Fira Sans">]n</text><text transform="translate(405.69 295.96)" style="font-size:16.245380401611328px;fill:#fff;font-family:FiraSans-Regular, Fira Sans">-</text><text transform="translate(461.41 328.88)" style="font-size:14.664360046386719px;fill:#fff;font-family:FiraSans-Regular, Fira Sans">Óxido de Etileno</text><text transform="translate(485.08 348.38)" style="font-size:14.664360046386719px;fill:#fff;font-family:FiraSans-Regular, Fira Sans">CH</text><text transform="translate(503.73 353.78)" style="font-size:10.08174991607666px;fill:#fff;font-family:FiraSans-Regular, Fira Sans">2</text><text transform="translate(508.47 348.37)" style="font-size:14.664360046386719px;fill:#fff;font-family:FiraSans-Regular, Fira Sans">CH</text><text transform="translate(527.12 353.78)" style="font-size:10.08174991607666px;fill:#fff;font-family:FiraSans-Regular, Fira Sans">2</text><text transform="translate(531.86 348.37)" style="font-size:14.664360046386719px;fill:#fff;font-family:FiraSans-Regular, Fira Sans">O</text><text transform="translate(472.35 253.88)" style="font-size:15.580889701843262px;fill:#fff;font-family:FiraSans-Regular, Fira Sans">Acetaldeíd</text><text transform="translate(547.5 253.88)" style="font-size:15.580889701843262px;fill:#fff;font-family:FiraSans-Regular, Fira Sans">o</text><text transform="translate(488.93 273.37)" style="font-size:15.580889701843262px;fill:#fff;font-family:FiraSans-Regular, Fira Sans">CH</text><text transform="translate(507.55 278.78)" style="font-size:10.08174991607666px;fill:#fff;font-family:FiraSans-Regular, Fira Sans">3</text><text transform="translate(512.29 273.37)" style="font-size:15.580889701843262px;fill:#fff;font-family:FiraSans-Regular, Fira Sans">CHO</text><text transform="translate(461.2 191.03)" style="font-size:13.74783992767334px;fill:#fff;font-family:FiraSans-Regular, Fira Sans">Acetato de vinila</text><text transform="translate(469.5 110.9)" style="font-size:15.580889701843262px;fill:#fff;font-family:FiraSans-Regular, Fira Sans">Ácido acrílic</text><text transform="translate(555.09 110.9)" style="font-size:15.580889701843262px;fill:#fff;font-family:FiraSans-Regular, Fira Sans">o</text><text transform="translate(470.09 130.4)" style="font-size:15.580889701843262px;fill:#fff;font-family:FiraSans-Regular, Fira Sans">CH</text><text transform="translate(488.75 135.81)" style="font-size:10.08174991607666px;fill:#fff;font-family:FiraSans-Regular, Fira Sans">2</text><text transform="translate(493.49 130.4)" style="font-size:15.580889701843262px;fill:#fff;font-family:FiraSans-Regular, Fira Sans">=CHCOOH</text><text transform="translate(494.59 38.81)" style="font-size:16.245380401611328px;fill:#fff;font-family:FiraSans-Regular, Fira Sans">Etanol</text><text transform="translate(481.58 58.3)" style="font-size:16.245380401611328px;fill:#fff;font-family:FiraSans-Regular, Fira Sans">CH</text><text transform="translate(501.67 63.54)" style="font-size:9.353630065917969px;fill:#fff;font-family:FiraSans-Regular, Fira Sans">3</text><text transform="translate(504.96 58.31)" style="font-size:16.245380401611328px;fill:#fff;font-family:FiraSans-Regular, Fira Sans">CH</text><text transform="translate(524.42 63.54)" style="font-size:9.353630065917969px;fill:#fff;font-family:FiraSans-Regular, Fira Sans">2</text><text transform="translate(528.34 58.31)" style="font-size:16.245380401611328px;fill:#fff;font-family:FiraSans-Regular, Fira Sans">OH</text><text transform="translate(327.37 85.88)" style="font-size:16.245380401611328px;fill:#fff;font-family:FiraSans-Regular, Fira Sans">CH</text><text transform="translate(347.07 91.29)" style="font-size:9.471139907836914px;fill:#fff;font-family:FiraSans-Regular, Fira Sans">3</text><text transform="translate(350.75 85.88)" style="font-size:16.245380401611328px;fill:#fff;font-family:FiraSans-Regular, Fira Sans">-C</text><text transform="translate(366.07 85.88)" style="font-size:16.245380401611328px;fill:#fff;font-family:FiraSans-Regular, Fira Sans">H</text><text transform="translate(375.69 91.6)" style="font-size:9.471139907836914px;fill:#fff;font-family:FiraSans-Regular, Fira Sans">2</text><text transform="translate(380.75 85.88)" style="font-size:16.245380401611328px;fill:#fff;font-family:FiraSans-Regular, Fira Sans">-C</text><text transform="translate(396.07 85.88)" style="font-size:16.245380401611328px;fill:#fff;font-family:FiraSans-Regular, Fira Sans">l</text><text transform="translate(317.73 110.58)" style="font-size:16.245380401611328px;fill:#fff;font-family:FiraSans-Regular, Fira Sans">Cl-C</text><text transform="translate(345.69 110.58)" style="font-size:16.245380401611328px;fill:#fff;font-family:FiraSans-Regular, Fira Sans">H</text><text transform="translate(356.03 115.99)" style="font-size:9.471139907836914px;fill:#fff;font-family:FiraSans-Regular, Fira Sans">2</text><text transform="translate(360.38 110.58)" style="font-size:16.245380401611328px;fill:#fff;font-family:FiraSans-Regular, Fira Sans">-C</text><text transform="translate(375.7 110.58)" style="font-size:16.245380401611328px;fill:#fff;font-family:FiraSans-Regular, Fira Sans">H</text><text transform="translate(385.88 115.99)" style="font-size:9.471139907836914px;fill:#fff;font-family:FiraSans-Regular, Fira Sans">2</text><text transform="translate(390.37 110.58)" style="font-size:16.245380401611328px;fill:#fff;font-family:FiraSans-Regular, Fira Sans">-C</text><text transform="translate(405.69 110.58)" style="font-size:16.245380401611328px;fill:#fff;font-family:FiraSans-Regular, Fira Sans">l</text><text transform="translate(188.74 112.61)" style="font-size:15.580889701843262px;fill:#fff;font-family:FiraSans-Regular, Fira Sans">Alcoóis</text><text transform="translate(185.81 132.1)" style="font-size:15.580889701843262px;fill:#fff;font-family:FiraSans-Regular, Fira Sans">Lineares</text><path d="M184.91,202.51a3.13,3.13,0,0,0,2.1-1,3.28,3.28,0,0,0,.74-2.25A3.41,3.41,0,0,0,187,197a3.11,3.11,0,0,0-2.11-1Zm-1.34,0V196a3,3,0,0,0-2.83,3.35,3.18,3.18,0,0,0,.76,2.18,3.12,3.12,0,0,0,2.07,1m0,.63a4.83,4.83,0,0,1-3.2-1,3.42,3.42,0,0,1-1.17-2.74,3.69,3.69,0,0,1,1.12-2.78,5.41,5.41,0,0,1,3.25-1.28v-3.26h1.34v3.26a5.29,5.29,0,0,1,3.23,1.11,3.43,3.43,0,0,1,1.14,2.71,3.63,3.63,0,0,1-1.18,2.81,5,5,0,0,1-3.19,1.2v3.33h-1.34Z" style="fill:#fff"/><path d="M243.49,206.73c.62-.5,2.78-2.46,2.78-3.89a1,1,0,0,0-1-1.05.9.9,0,0,0-1,.92h-.8c0-.48.32-1.46,1.83-1.46a1.59,1.59,0,0,1,1.69,1.67c0,1.64-2.07,3.32-2.6,3.8h2.69v.65h-3.61Z" style="fill:#fff"/><text transform="translate(162.16 257.73)" style="font-size:14.664360046386719px;fill:#fff;font-family:FiraSans-Regular, Fira Sans">Cloreto de vinila</text><text transform="translate(187.31 276.79)" style="font-size:15.580889701843262px;fill:#fff;font-family:FiraSans-Regular, Fira Sans">CH</text><text transform="translate(206.41 280.59)" style="font-size:9.165220260620117px;fill:#fff;font-family:SourceSansPro-Regular, Source Sans Pro">2</text><text transform="translate(210.93 276.79)" style="font-size:15.580889701843262px;fill:#fff;font-family:FiraSans-Regular, Fira Sans">=CHCl</text><text transform="translate(164.7 329.36)" style="font-size:14.664360046386719px;fill:#fff;font-family:FiraSans-Regular, Fira Sans">Propionaldeído</text><text transform="translate(178.24 348.48)" style="font-size:14.664360046386719px;fill:#fff;font-family:FiraSans-Regular, Fira Sans">CH</text><text transform="translate(196.88 353.89)" style="font-size:9.165220260620117px;fill:#fff;font-family:SourceSansPro-Regular, Source Sans Pro">2</text><text transform="translate(201.61 348.48)" style="font-size:14.664360046386719px;fill:#fff;font-family:FiraSans-Regular, Fira Sans">CH</text><text transform="translate(220.26 353.89)" style="font-size:9.165220260620117px;fill:#fff;font-family:SourceSansPro-Regular, Source Sans Pro">2</text><text transform="translate(225 348.48)" style="font-size:14.664360046386719px;fill:#fff;font-family:FiraSans-Regular, Fira Sans">COH</text><text transform="translate(34.16 51.23)" style="font-size:15.580889701843262px;fill:#1d1d1b;font-family:FiraSans-Regular, Fira Sans">Detergentes</text><text transform="translate(41.52 122.14)" style="font-size:15.580889701843262px;fill:#1d1d1b;font-family:FiraSans-Regular, Fira Sans">Etoxilatos</text><text transform="translate(21.07 193.5)" style="font-size:14.664360046386719px;fill:#1d1d1b;font-family:FiraSans-Regular, Fira Sans">Poliestireno - PS</text><text transform="translate(25.25 255.77)" style="font-size:14.664360046386719px;fill:#1d1d1b;font-family:FiraSans-Regular, Fira Sans">Poli(cloreto de <tspan x="11.25" y="17.6">vinila) - PVC</tspan></text><text transform="translate(119.1 253.9)" style="font-size:16.245380401611328px;fill:#1d1d1b;font-family:RotisSansSerifStd, Rotis SansSerif Std"> </text><text transform="translate(37.86 338.04)" style="font-size:14.664360046386719px;fill:#1d1d1b;font-family:FiraSans-Regular, Fira Sans">n-Porpanol</text><text transform="translate(617.31 38.84)" style="font-size:14.664360046386719px;fill:#1d1d1b;font-family:FiraSans-Regular, Fira Sans">Acetaldeíd</text><text transform="translate(687.81 38.84)" style="font-size:14.664360046386719px;fill:#1d1d1b;font-family:FiraSans-Regular, Fira Sans">o</text><text transform="translate(628.33 58.33)" style="font-size:16.245380401611328px;fill:#1d1d1b;font-family:FiraSans-Regular, Fira Sans">CH</text><text transform="translate(647 63.72)" style="font-size:9.471139907836914px;fill:#1d1d1b;font-family:FiraSans-Regular, Fira Sans">3</text><text transform="translate(651.73 58.31)" style="font-size:16.245380401611328px;fill:#1d1d1b;font-family:FiraSans-Regular, Fira Sans">CHO</text><text transform="translate(611.46 121.76)" style="font-size:15.580889701843262px;fill:#1d1d1b;font-family:FiraSans-Regular, Fira Sans">Poliacrilatos</text><text transform="translate(617.54 183.52)" style="font-size:15.580889701843262px;fill:#1d1d1b;font-family:FiraSans-Regular, Fira Sans">Acetato de</text><text transform="translate(620.09 203.01)" style="font-size:15.580889701843262px;fill:#1d1d1b;font-family:FiraSans-Regular, Fira Sans">polivinila</text><text transform="translate(606.41 266.59)" style="font-size:16.245380401611328px;fill:#1d1d1b;font-family:FiraSans-Regular, Fira Sans">Ácido acético</text><text transform="translate(622.46 320.2)" style="font-size:14.664360046386719px;fill:#1d1d1b;font-family:FiraSans-Regular, Fira Sans">Etoxilatos</text><text transform="translate(615.08 338.04)" style="font-size:14.664360046386719px;fill:#1d1d1b;font-family:FiraSans-Regular, Fira Sans">Etilenoglicol</text><text transform="translate(611.46 355.04)" style="font-size:14.664360046386719px;fill:#1d1d1b;font-family:FiraSans-Regular, Fira Sans">Etanolaminas</text><path d="M183.82,36.42a8.3,8.3,0,0,0-.85-2,1.32,1.32,0,0,0-1.12-.73q-1.47,0-1.47,3.45c0,2.18.46,3.27,1.41,3.27s1.41-1,1.81-2.88Zm.71-3.16h1.37L185.06,37c-.16.71-.27,1.14-.33,1.3.22,1,.53,1.49.94,1.49s.73-.34.75-1h.29a3.4,3.4,0,0,1-.34,1.51,1,1,0,0,1-.84.57.68.68,0,0,1-.63-.34,5.48,5.48,0,0,1-.46-1.42,2.82,2.82,0,0,1-2.73,1.76,2.44,2.44,0,0,1-2.07-1,4.71,4.71,0,0,1-.76-2.89,4.46,4.46,0,0,1,.84-2.89,2.48,2.48,0,0,1,2-1,1.76,1.76,0,0,1,1.36.59,5,5,0,0,1,.94,1.92Z" style="fill:#fff"/><path d="M237.18,63.58c.63-.51,2.82-2.5,2.82-3.94a1,1,0,0,0-1-1.07.91.91,0,0,0-1,.93h-.81c0-.49.33-1.48,1.86-1.48a1.61,1.61,0,0,1,1.71,1.69c0,1.67-2.1,3.37-2.64,3.86h2.73v.66h-3.66Z" style="fill:#fff"/><text transform="translate(181.44 41.47)" style="font-size:15.580889701843262px;fill:#fff;font-family:FiraSans-Regular, Fira Sans"><tspan xml:space="preserve">  -Olefinas</tspan><tspan x="0" y="18.7">RCH=CH</tspan></text><text transform="translate(186.8 185.43)" style="font-size:15.580889701843262px;fill:#fff;font-family:FiraSans-Regular, Fira Sans">Estileno</text><text transform="translate(190.43 204.43)" style="font-size:15.580889701843262px;fill:#fff;font-family:FiraSans-Regular, Fira Sans">-CH=CH</text></g></svg>