<svg xmlns="http://www.w3.org/2000/svg" viewBox="0 0 730 644.12"><title>fig-8-2</title><g id="fig-8-2"><g id="preto"><path d="M673.86,390.42c-1.91,1.84-4.21,2.55-5.13,1.6l-27.16-28.25c-.92-1-.12-3.22,1.8-5.06h0c1.91-1.84,4.21-2.55,5.12-1.6l27.16,28.25c.92.95.12,3.22-1.79,5.06Z" style="fill:#221e20"></path><path d="M669.89,393.17a2.26,2.26,0,0,1-1.69-.65L641,364.27c-1.24-1.29-.45-3.91,1.82-6.09a7.12,7.12,0,0,1,4.48-2.22h.06a2.22,2.22,0,0,1,1.62.65l27.16,28.24c1.24,1.28.46,3.9-1.81,6.1h0A7,7,0,0,1,669.89,393.17Zm-22.56-35.75a5.81,5.81,0,0,0-3.45,1.81c-1.8,1.73-2.26,3.54-1.78,4l27.16,28.25c.46.49,2.3.1,4.09-1.62s2.25-3.54,1.78-4L648,357.62a.78.78,0,0,0-.59-.2Z" style="fill:#231f20"></path><path d="M646.31,369.75l-44.88-46.68,8-7.67,44.88,46.68Zm-42.82-46.64,42.86,44.58,5.87-5.65-42.85-44.57Z" style="fill:#231f20"></path><path d="M597.82,283.69H354.25V256.92H484.71V266a2.38,2.38,0,0,0,2.29,2.65c.59,0,62.29.14,66.16,0a2.38,2.38,0,0,0,1.84-.7,2.26,2.26,0,0,0,.32-1.63l0-16.31h9.62v20.67h32.9ZM356.45,281.5H595.63v-8.65h-32.9V252.17h-5.24v13.9h0a4.16,4.16,0,0,1-.76,3.2,4.41,4.41,0,0,1-3.49,1.54c-3.92.14-63.74,0-66.28,0a4.54,4.54,0,0,1-4.44-4.84v-6.86H356.45Z" style="fill:#231f20"></path><polygon points="463.59 282.82 463.02 282.36 483.24 257.88 483.8 258.35 463.59 282.82" style="fill:#231f20"></polygon><polygon points="460.29 282.82 459.73 282.36 479.94 257.88 480.5 258.35 460.29 282.82" style="fill:#231f20"></polygon><polygon points="456.99 282.83 456.43 282.36 476.64 257.88 477.21 258.35 456.99 282.83" style="fill:#231f20"></polygon><polygon points="453.69 282.83 453.13 282.36 473.35 257.88 473.91 258.35 453.69 282.83" style="fill:#231f20"></polygon><polygon points="450.4 282.82 449.84 282.36 470.05 257.88 470.61 258.35 450.4 282.82" style="fill:#231f20"></polygon><polygon points="447.1 282.82 446.54 282.36 466.75 257.88 467.32 258.35 447.1 282.82" style="fill:#231f20"></polygon><polygon points="479.94 282.83 479.37 282.36 490.01 269.48 490.57 269.95 479.94 282.83" style="fill:#231f20"></polygon><polygon points="482.68 282.83 482.12 282.36 492.75 269.49 493.32 269.95 482.68 282.83" style="fill:#231f20"></polygon><polygon points="485.53 282.83 484.96 282.37 495.59 269.49 496.16 269.95 485.53 282.83" style="fill:#231f20"></polygon><polygon points="488.79 282.83 488.23 282.37 498.86 269.49 499.43 269.95 488.79 282.83" style="fill:#231f20"></polygon><polygon points="492.06 282.83 491.49 282.36 502.13 269.49 502.69 269.95 492.06 282.83" style="fill:#231f20"></polygon><polygon points="495.32 282.83 494.75 282.36 505.39 269.49 505.96 269.95 495.32 282.83" style="fill:#231f20"></polygon><polygon points="498.58 282.83 498.02 282.36 508.65 269.49 509.22 269.95 498.58 282.83" style="fill:#231f20"></polygon><polygon points="501.85 282.83 501.28 282.36 511.92 269.49 512.48 269.95 501.85 282.83" style="fill:#231f20"></polygon><polygon points="504.96 282.83 504.39 282.36 515.03 269.49 515.59 269.95 504.96 282.83" style="fill:#231f20"></polygon><polygon points="507.8 282.83 507.24 282.36 517.87 269.49 518.44 269.95 507.8 282.83" style="fill:#231f20"></polygon><polygon points="511.06 282.83 510.5 282.36 521.14 269.49 521.7 269.95 511.06 282.83" style="fill:#231f20"></polygon><polygon points="514.33 282.83 513.77 282.36 524.4 269.49 524.97 269.95 514.33 282.83" style="fill:#231f20"></polygon><polygon points="517.59 282.83 517.03 282.36 527.66 269.49 528.23 269.95 517.59 282.83" style="fill:#231f20"></polygon><polygon points="520.86 282.83 520.29 282.36 530.93 269.49 531.5 269.95 520.86 282.83" style="fill:#231f20"></polygon><polygon points="524.12 282.83 523.56 282.36 534.2 269.49 534.76 269.95 524.12 282.83" style="fill:#231f20"></polygon><polygon points="527.63 282.83 527.06 282.37 537.69 269.49 538.25 269.95 527.63 282.83" style="fill:#231f20"></polygon><polygon points="530.46 282.83 529.9 282.36 540.54 269.49 541.1 269.95 530.46 282.83" style="fill:#231f20"></polygon><polygon points="533.73 282.83 533.16 282.36 543.8 269.49 544.36 269.95 533.73 282.83" style="fill:#231f20"></polygon><polygon points="536.99 282.83 536.43 282.37 547.06 269.49 547.63 269.95 536.99 282.83" style="fill:#231f20"></polygon><polygon points="540.26 282.83 539.69 282.36 550.33 269.49 550.89 269.95 540.26 282.83" style="fill:#231f20"></polygon><polygon points="543.52 282.83 542.96 282.36 553.59 269.49 554.16 269.95 543.52 282.83" style="fill:#231f20"></polygon><polygon points="556.74 266.91 556.17 266.44 563.46 257.63 564.02 258.09 556.74 266.91" style="fill:#231f20"></polygon><polygon points="556.58 263.83 556.02 263.36 563.3 254.55 563.87 255.01 556.58 263.83" style="fill:#231f20"></polygon><polygon points="556.22 260.7 555.65 260.24 562.93 251.42 563.5 251.88 556.22 260.7" style="fill:#231f20"></polygon><polygon points="556.58 256.71 556.02 256.25 560.6 250.69 561.16 251.16 556.58 256.71" style="fill:#231f20"></polygon><rect x="541.67" y="271.95" width="26.72" height="0.73" transform="translate(-8.73 526.06) rotate(-50.37)" style="fill:#231f20"></rect><rect x="545.66" y="273.62" width="22.24" height="0.73" transform="translate(-7.85 531.42) rotate(-50.71)" style="fill:#231f20"></rect><polygon points="552.87 282.83 552.3 282.37 562.93 269.49 563.5 269.95 552.87 282.83" style="fill:#231f20"></polygon><polygon points="559.43 283.2 558.87 282.74 568.04 271.63 568.61 272.1 559.43 283.2" style="fill:#231f20"></polygon><polygon points="562.99 283.2 562.43 282.74 571.6 271.63 572.16 272.1 562.99 283.2" style="fill:#231f20"></polygon><polygon points="566.55 283.2 565.99 282.74 575.16 271.63 575.72 272.1 566.55 283.2" style="fill:#231f20"></polygon><polygon points="570.11 283.2 569.55 282.74 578.72 271.63 579.28 272.1 570.11 283.2" style="fill:#231f20"></polygon><polygon points="573.67 283.2 573.1 282.74 582.28 271.63 582.84 272.1 573.67 283.2" style="fill:#231f20"></polygon><polygon points="577.23 283.2 576.66 282.74 585.84 271.63 586.4 272.1 577.23 283.2" style="fill:#231f20"></polygon><polygon points="580.79 283.2 580.22 282.74 589.4 271.63 589.96 272.1 580.79 283.2" style="fill:#231f20"></polygon><polygon points="587.91 283.2 587.34 282.74 596.51 271.63 597.08 272.1 587.91 283.2" style="fill:#231f20"></polygon><polygon points="591.47 283.2 590.9 282.74 596.51 275.94 597.08 276.41 591.47 283.2" style="fill:#231f20"></polygon><polygon points="584.35 283.2 583.78 282.74 592.95 271.63 593.52 272.1 584.35 283.2" style="fill:#231f20"></polygon><polygon points="556.58 282.82 556.02 282.36 565.19 271.26 565.75 271.72 556.58 282.82" style="fill:#231f20"></polygon><polygon points="476.64 282.83 476.07 282.36 486.7 269.49 487.26 269.96 476.64 282.83" style="fill:#231f20"></polygon><polygon points="473.34 282.82 472.78 282.36 484.29 268.42 484.86 268.88 473.34 282.82" style="fill:#231f20"></polygon><polygon points="470.05 282.82 469.48 282.36 483.25 265.68 483.82 266.15 470.05 282.82" style="fill:#231f20"></polygon><polygon points="466.75 282.83 466.18 282.36 483.33 261.6 483.89 262.07 466.75 282.83" style="fill:#231f20"></polygon><polygon points="443.8 282.83 443.24 282.36 463.45 257.88 464.02 258.35 443.8 282.83" style="fill:#231f20"></polygon><polygon points="440.51 282.83 439.94 282.36 460.16 257.88 460.73 258.35 440.51 282.83" style="fill:#231f20"></polygon><polygon points="437.21 282.82 436.65 282.36 456.86 257.88 457.43 258.35 437.21 282.82" style="fill:#231f20"></polygon><polygon points="433.92 282.82 433.35 282.36 453.56 257.88 454.13 258.35 433.92 282.82" style="fill:#231f20"></polygon><polygon points="430.62 282.82 430.05 282.36 450.26 257.88 450.83 258.35 430.62 282.82" style="fill:#231f20"></polygon><polygon points="427.32 282.83 426.75 282.36 446.97 257.88 447.53 258.35 427.32 282.83" style="fill:#231f20"></polygon><polygon points="424.02 282.83 423.45 282.36 443.67 257.88 444.24 258.35 424.02 282.83" style="fill:#231f20"></polygon><polygon points="420.72 282.83 420.16 282.36 440.37 257.88 440.94 258.35 420.72 282.83" style="fill:#231f20"></polygon><polygon points="417.42 282.83 416.85 282.36 437.08 257.88 437.64 258.35 417.42 282.83" style="fill:#231f20"></polygon><polygon points="414.13 282.82 413.56 282.36 433.78 257.88 434.34 258.35 414.13 282.82" style="fill:#231f20"></polygon><polygon points="410.89 282.82 410.32 282.36 430.54 257.88 431.1 258.35 410.89 282.82" style="fill:#231f20"></polygon><polygon points="407.59 282.82 407.03 282.36 427.24 257.88 427.8 258.35 407.59 282.82" style="fill:#231f20"></polygon><polygon points="404.29 282.83 403.73 282.36 423.94 257.88 424.51 258.35 404.29 282.83" style="fill:#231f20"></polygon><polygon points="401 282.82 400.43 282.36 420.64 257.88 421.21 258.35 401 282.82" style="fill:#231f20"></polygon><polygon points="397.7 282.83 397.13 282.36 417.35 257.88 417.91 258.35 397.7 282.83" style="fill:#231f20"></polygon><polygon points="394.4 282.83 393.83 282.36 414.05 257.88 414.62 258.35 394.4 282.83" style="fill:#231f20"></polygon><polygon points="391.1 282.83 390.54 282.36 410.75 257.88 411.32 258.35 391.1 282.83" style="fill:#231f20"></polygon><polygon points="387.81 282.82 387.24 282.36 407.45 257.88 408.02 258.35 387.81 282.82" style="fill:#231f20"></polygon><polygon points="384.51 282.82 383.94 282.36 404.15 257.88 404.72 258.35 384.51 282.82" style="fill:#231f20"></polygon><polygon points="381.21 282.83 380.64 282.36 400.86 257.88 401.43 258.35 381.21 282.83" style="fill:#231f20"></polygon><polygon points="377.91 282.83 377.34 282.36 397.57 257.88 398.13 258.35 377.91 282.83" style="fill:#231f20"></polygon><polygon points="374.62 282.83 374.05 282.36 394.27 257.88 394.83 258.35 374.62 282.83" style="fill:#231f20"></polygon><polygon points="371.32 282.82 370.76 282.36 390.97 257.88 391.53 258.35 371.32 282.82" style="fill:#231f20"></polygon><rect x="361.98" y="269.99" width="31.74" height="0.73" transform="translate(-71.17 389.68) rotate(-50.47)" style="fill:#231f20"></rect><polygon points="364.72 282.83 364.16 282.36 384.38 257.88 384.94 258.35 364.72 282.83" style="fill:#231f20"></polygon><polygon points="361.43 282.83 360.86 282.36 381.08 257.88 381.64 258.35 361.43 282.83" style="fill:#231f20"></polygon><polygon points="358.19 282.82 357.62 282.36 377.83 257.88 378.4 258.35 358.19 282.82" style="fill:#231f20"></polygon><polygon points="355.48 282.11 354.91 281.65 374.54 257.88 375.1 258.35 355.48 282.11" style="fill:#231f20"></polygon><polygon points="355.48 278.12 354.91 277.66 371.24 257.88 371.81 258.35 355.48 278.12" style="fill:#231f20"></polygon><polygon points="355.63 273.94 355.07 273.47 367.95 257.88 368.51 258.35 355.63 273.94" style="fill:#231f20"></polygon><rect x="352.51" y="263.77" width="15.62" height="0.73" transform="translate(-72.89 373.37) rotate(-50.4)" style="fill:#231f20"></rect><rect x="353.45" y="261.78" width="10.45" height="0.73" transform="translate(-71.78 372.03) rotate(-50.48)" style="fill:#231f20"></rect><rect x="354.39" y="259.78" width="5.27" height="0.73" transform="translate(-71.01 369.38) rotate(-50.4)" style="fill:#231f20"></rect><path d="M565.14,352.31h-9.61V336.22a2.57,2.57,0,0,0-.32-1.86,2.38,2.38,0,0,0-1.83-.69c-3.86-.14-65.57,0-66.19,0a2.38,2.38,0,0,0-2.26,2.65v9.05H354.47V318.6H598v13h-32.9Zm-7.42-2.19H563V329.45h32.9v-8.66H356.67v22.39H482.74v-6.86a4.53,4.53,0,0,1,4.41-4.84c2.57,0,62.4-.14,66.31,0a4,4,0,0,1,4.24,5Z" style="fill:#231f20"></path><rect x="349.74" y="331.57" width="31.75" height="0.73" transform="translate(-123.2 402.02) rotate(-50.4)" style="fill:#231f20"></rect><rect x="353.03" y="331.57" width="31.75" height="0.73" transform="translate(-122.01 404.56) rotate(-50.4)" style="fill:#231f20"></rect><polygon points="362.38 344.41 361.81 343.94 382.03 319.46 382.6 319.93 362.38 344.41" style="fill:#231f20"></polygon><rect x="359.63" y="331.57" width="31.75" height="0.73" transform="translate(-119.62 409.64) rotate(-50.4)" style="fill:#231f20"></rect><polygon points="368.97 344.41 368.41 343.94 388.62 319.46 389.19 319.93 368.97 344.41" style="fill:#231f20"></polygon><polygon points="372.27 344.41 371.7 343.94 391.92 319.46 392.48 319.93 372.27 344.41" style="fill:#231f20"></polygon><polygon points="543.74 332.8 543.18 332.33 553.81 319.46 554.38 319.93 543.74 332.8" style="fill:#231f20"></polygon><polygon points="540.9 332.8 540.33 332.33 550.97 319.46 551.53 319.93 540.9 332.8" style="fill:#231f20"></polygon><polygon points="537.64 332.8 537.07 332.33 547.71 319.46 548.27 319.93 537.64 332.8" style="fill:#231f20"></polygon><polygon points="534.37 332.8 533.8 332.33 544.44 319.46 545.01 319.93 534.37 332.8" style="fill:#231f20"></polygon><polygon points="555.85 333.43 555.29 332.97 566.39 319.44 566.96 319.91 555.85 333.43" style="fill:#231f20"></polygon><polygon points="553.48 332.78 552.91 332.31 563.55 319.44 564.12 319.91 553.48 332.78" style="fill:#231f20"></polygon><polygon points="550.22 332.78 549.65 332.31 560.28 319.44 560.85 319.91 550.22 332.78" style="fill:#231f20"></polygon><polygon points="546.95 332.78 546.39 332.31 557.02 319.44 557.59 319.91 546.95 332.78" style="fill:#231f20"></polygon><polygon points="531.11 332.8 530.54 332.34 541.17 319.46 541.74 319.92 531.11 332.8" style="fill:#231f20"></polygon><polygon points="527.84 332.8 527.28 332.33 537.91 319.46 538.48 319.93 527.84 332.8" style="fill:#231f20"></polygon><polygon points="524.58 332.8 524.01 332.34 534.65 319.46 535.21 319.92 524.58 332.8" style="fill:#231f20"></polygon><polygon points="521.47 332.8 520.9 332.33 531.54 319.46 532.1 319.93 521.47 332.8" style="fill:#231f20"></polygon><polygon points="518.63 332.8 518.06 332.33 528.69 319.46 529.26 319.93 518.63 332.8" style="fill:#231f20"></polygon><polygon points="515.36 332.8 514.79 332.33 525.43 319.46 526 319.93 515.36 332.8" style="fill:#231f20"></polygon><polygon points="512.1 332.8 511.53 332.33 522.17 319.46 522.73 319.93 512.1 332.8" style="fill:#231f20"></polygon><polygon points="508.83 332.8 508.26 332.33 518.9 319.46 519.47 319.93 508.83 332.8" style="fill:#231f20"></polygon><polygon points="505.57 332.8 505 332.33 515.64 319.46 516.2 319.93 505.57 332.8" style="fill:#231f20"></polygon><polygon points="502.31 332.8 501.74 332.34 512.37 319.46 512.94 319.92 502.31 332.8" style="fill:#231f20"></polygon><polygon points="498.81 332.8 498.24 332.33 508.88 319.46 509.44 319.93 498.81 332.8" style="fill:#231f20"></polygon><polygon points="495.96 332.8 495.4 332.33 506.03 319.46 506.6 319.93 495.96 332.8" style="fill:#231f20"></polygon><polygon points="492.7 332.8 492.13 332.33 502.77 319.46 503.33 319.93 492.7 332.8" style="fill:#231f20"></polygon><polygon points="489.43 332.8 488.87 332.33 499.5 319.46 500.07 319.93 489.43 332.8" style="fill:#231f20"></polygon><polygon points="486.17 332.8 485.6 332.33 496.24 319.46 496.8 319.93 486.17 332.8" style="fill:#231f20"></polygon><polygon points="556.64 344.27 556.07 343.82 563.19 335 563.76 335.46 556.64 344.27" style="fill:#231f20"></polygon><polygon points="556.79 347.36 556.22 346.9 563.35 338.08 563.92 338.54 556.79 347.36" style="fill:#231f20"></polygon><polygon points="556.71 336.3 556.14 335.84 569.35 319.45 569.92 319.9 556.71 336.3" style="fill:#231f20"></polygon><polygon points="557.08 339.86 556.5 339.41 572.14 319.37 572.72 319.82 557.08 339.86" style="fill:#231f20"></polygon><polygon points="557.14 350.48 556.57 350.02 563.7 341.21 564.27 341.66 557.14 350.48" style="fill:#231f20"></polygon><rect x="557.81" y="347.83" width="7.14" height="0.74" transform="matrix(0.63, -0.78, 0.78, 0.63, -62.54, 565.27)" style="fill:#231f20"></rect><polygon points="588.13 330.66 587.56 330.19 596.73 319.08 597.3 319.55 588.13 330.66" style="fill:#231f20"></polygon><polygon points="590.95 330.94 590.38 330.47 596.66 322.86 597.23 323.33 590.95 330.94" style="fill:#231f20"></polygon><rect x="592.36" y="328.01" width="6.03" height="0.73" transform="translate(-37.3 577.43) rotate(-50.37)" style="fill:#231f20"></rect><polygon points="584.56 330.66 584 330.19 593.17 319.08 593.74 319.55 584.56 330.66" style="fill:#231f20"></polygon><polygon points="581.01 330.66 580.44 330.19 589.62 319.08 590.18 319.55 581.01 330.66" style="fill:#231f20"></polygon><polygon points="577.45 330.66 576.88 330.19 586.06 319.08 586.62 319.55 577.45 330.66" style="fill:#231f20"></polygon><polygon points="573.89 330.66 573.33 330.19 582.5 319.08 583.06 319.55 573.89 330.66" style="fill:#231f20"></polygon><polygon points="570.33 330.66 569.77 330.19 578.94 319.08 579.5 319.55 570.33 330.66" style="fill:#231f20"></polygon><polygon points="566.96 330.66 566.39 330.19 575.57 319.08 576.13 319.55 566.96 330.66" style="fill:#231f20"></polygon><polygon points="355.77 336.61 355.2 336.15 368.98 319.46 369.54 319.93 355.77 336.61" style="fill:#231f20"></polygon><polygon points="355.69 340.69 355.13 340.22 372.28 319.46 372.84 319.93 355.69 340.69" style="fill:#231f20"></polygon><polygon points="375.57 344.41 375 343.94 395.22 319.46 395.78 319.93 375.57 344.41" style="fill:#231f20"></polygon><polygon points="378.87 344.41 378.3 343.94 398.52 319.46 399.08 319.93 378.87 344.41" style="fill:#231f20"></polygon><polygon points="382.16 344.41 381.6 343.94 401.81 319.46 402.38 319.93 382.16 344.41" style="fill:#231f20"></polygon><polygon points="385.46 344.41 384.89 343.94 405.11 319.46 405.68 319.93 385.46 344.41" style="fill:#231f20"></polygon><polygon points="388.76 344.41 388.19 343.94 408.41 319.46 408.97 319.93 388.76 344.41" style="fill:#231f20"></polygon><polygon points="392.06 344.41 391.49 343.94 411.71 319.46 412.27 319.93 392.06 344.41" style="fill:#231f20"></polygon><polygon points="395.36 344.41 394.79 343.94 415 319.46 415.57 319.93 395.36 344.41" style="fill:#231f20"></polygon><polygon points="398.65 344.41 398.08 343.94 418.3 319.46 418.87 319.93 398.65 344.41" style="fill:#231f20"></polygon><polygon points="401.95 344.41 401.38 343.94 421.6 319.46 422.16 319.93 401.95 344.41" style="fill:#231f20"></polygon><polygon points="405.24 344.41 404.68 343.94 424.89 319.46 425.46 319.93 405.24 344.41" style="fill:#231f20"></polygon><polygon points="408.49 344.41 407.92 343.94 428.13 319.46 428.7 319.93 408.49 344.41" style="fill:#231f20"></polygon><polygon points="411.78 344.41 411.22 343.94 431.43 319.46 432 319.93 411.78 344.41" style="fill:#231f20"></polygon><polygon points="415.08 344.41 414.51 343.94 434.73 319.46 435.3 319.93 415.08 344.41" style="fill:#231f20"></polygon><polygon points="418.38 344.41 417.81 343.94 438.03 319.46 438.59 319.93 418.38 344.41" style="fill:#231f20"></polygon><polygon points="421.68 344.41 421.11 343.94 441.32 319.46 441.89 319.93 421.68 344.41" style="fill:#231f20"></polygon><polygon points="424.97 344.41 424.41 343.94 444.62 319.46 445.19 319.93 424.97 344.41" style="fill:#231f20"></polygon><polygon points="428.27 344.41 427.7 343.94 447.92 319.46 448.49 319.93 428.27 344.41" style="fill:#231f20"></polygon><polygon points="431.57 344.41 431 343.94 451.22 319.46 451.78 319.93 431.57 344.41" style="fill:#231f20"></polygon><polygon points="434.87 344.41 434.3 343.94 454.51 319.46 455.08 319.93 434.87 344.41" style="fill:#231f20"></polygon><polygon points="438.16 344.41 437.6 343.94 457.81 319.46 458.38 319.93 438.16 344.41" style="fill:#231f20"></polygon><polygon points="441.46 344.41 440.89 343.94 461.11 319.46 461.68 319.93 441.46 344.41" style="fill:#231f20"></polygon><polygon points="444.75 344.41 444.19 343.94 464.41 319.46 464.97 319.93 444.75 344.41" style="fill:#231f20"></polygon><polygon points="448.05 344.41 447.49 343.94 467.7 319.46 468.27 319.93 448.05 344.41" style="fill:#231f20"></polygon><polygon points="451.35 344.41 450.78 343.94 471 319.46 471.57 319.93 451.35 344.41" style="fill:#231f20"></polygon><polygon points="454.65 344.41 454.08 343.94 474.3 319.46 474.86 319.93 454.65 344.41" style="fill:#231f20"></polygon><polygon points="457.94 344.41 457.38 343.94 477.59 319.46 478.16 319.93 457.94 344.41" style="fill:#231f20"></polygon><polygon points="461.19 344.41 460.62 343.94 480.84 319.46 481.4 319.93 461.19 344.41" style="fill:#231f20"></polygon><polygon points="464.49 344.41 463.92 343.94 483.55 320.18 484.11 320.65 464.49 344.41" style="fill:#231f20"></polygon><polygon points="467.78 344.41 467.22 343.94 487.39 319.46 487.95 319.93 467.78 344.41" style="fill:#231f20"></polygon><polygon points="471.08 344.41 470.51 343.94 490.44 319.73 491.01 320.19 471.08 344.41" style="fill:#231f20"></polygon><polygon points="474 344.41 473.44 343.94 493.65 319.46 494.22 319.93 474 344.41" style="fill:#231f20"></polygon><polygon points="355.81 332.38 355.25 331.92 365.2 319.87 365.76 320.33 355.81 332.38" style="fill:#231f20"></polygon><polygon points="477.3 344.41 476.73 343.94 483.39 335.89 483.95 336.35 477.3 344.41" style="fill:#231f20"></polygon><polygon points="355.84 327.98 355.28 327.51 361.93 319.46 362.49 319.93 355.84 327.98" style="fill:#231f20"></polygon><polygon points="480.6 344.41 480.03 343.94 483.39 339.88 483.95 340.34 480.6 344.41" style="fill:#231f20"></polygon><polygon points="355.81 323.99 355.25 323.53 358.6 319.46 359.17 319.93 355.81 323.99" style="fill:#231f20"></polygon><path d="M607.63,623.72H575.31a3.8,3.8,0,0,1,0-7.59h32.32a3.8,3.8,0,0,1,0,7.59Zm-32.32-4.66a.87.87,0,1,0,0,1.73h32.32a.87.87,0,0,0,0-1.73Z" style="fill:#231f20"></path><path d="M84.05,628.37H51.73a3.79,3.79,0,0,1,0-7.58H84.05a3.79,3.79,0,1,1,0,7.58Zm-32.32-4.65a.87.87,0,0,0,0,1.73H84.05a.87.87,0,1,0,0-1.73Z" style="fill:#231f20"></path><path d="M79.46,623.72h-22V398.15H602.59V621.39h-21V416.6H79.46Zm-19.1-2.93H76.53V413.67h508V618.46h15.13V401.07H60.36Z" style="fill:#231f20"></path><path d="M584.53,548.59h-508v-16.9h508ZM79.46,545.67H581.61v-11H79.46Z" style="fill:#231f20"></path><path d="M223.87,314.88H207v-29.7h16.89Zm-14-2.92h11V288.1h-11Z" style="fill:#231f20"></path><path d="M272,318.38H254.19V282.65H272Zm-14.9-2.92h12V285.58h-12Z" style="fill:#231f20"></path><path d="M165.26,286.54H142.92V270.81h22.34Zm-19.41-2.92h16.48v-9.89H145.85Z" style="fill:#231f20"></path><path d="M91.54,408.75a80.23,80.23,0,1,1,80.24-80.23A80.32,80.32,0,0,1,91.54,408.75Zm0-157.53a77.31,77.31,0,1,0,77.31,77.3A77.39,77.39,0,0,0,91.54,251.22Z" style="fill:#231f20"></path><path d="M91.55,392.25a63.73,63.73,0,1,1,63.73-63.73A63.81,63.81,0,0,1,91.55,392.25Zm0-124.53a60.81,60.81,0,1,0,60.8,60.8A60.86,60.86,0,0,0,91.55,267.72Z" style="fill:#231f20"></path><path d="M338.52,326.11l-2.82-6.92c-1.09-2.67-3.06-5.58-4.27-5.64l-1.39-.06V287.64l1-.34c1.14-.41,4.17-1.9,4.62-3.92l2.89-13ZM333,311a7.64,7.64,0,0,1,2.63,2.19V288.1a14.16,14.16,0,0,1-2.63,1.55Z" style="fill:#231f20"></path><path d="M338.52,320.1H326.45V282.24h12.07Zm-9.14-2.92h6.22v-32h-6.22Z" style="fill:#231f20"></path><path d="M357.23,317.53H335.6V281.87h21.63Zm-18.71-2.92H354.3V284.79H338.52Z" style="fill:#231f20"></path><path d="M329.38,334.59H239.3V257.71h90.08Zm-87.16-2.93h84.23v-71H242.22Z" style="fill:#231f20"></path><path d="M225.46,376.2l98-107.73,5.92-4.31v69.95ZM325.3,270.75l-89.05,97.92,90.2-36.53V269.91Z" style="fill:#231f20"></path><rect x="328.72" y="377.69" width="8.13" height="0.73" transform="translate(-146.57 223.49) rotate(-30.77)" style="fill:#929497"></rect><rect x="328.72" y="372.71" width="8.13" height="0.73" transform="translate(-144.02 222.78) rotate(-30.77)" style="fill:#929497"></rect><rect x="328.72" y="367.72" width="8.13" height="0.73" transform="translate(-141.47 222.08) rotate(-30.77)" style="fill:#929497"></rect><rect x="328.72" y="362.74" width="8.13" height="0.73" transform="translate(-138.92 221.38) rotate(-30.77)" style="fill:#929497"></rect><rect x="328.72" y="357.75" width="8.13" height="0.73" transform="translate(-136.37 220.68) rotate(-30.77)" style="fill:#929497"></rect><rect x="328.72" y="352.76" width="8.13" height="0.73" transform="translate(-133.82 219.98) rotate(-30.77)" style="fill:#929497"></rect><rect x="328.72" y="347.78" width="8.13" height="0.73" transform="translate(-131.27 219.27) rotate(-30.77)" style="fill:#929497"></rect><rect x="328.72" y="342.79" width="8.13" height="0.73" transform="translate(-128.71 218.57) rotate(-30.77)" style="fill:#929497"></rect><rect x="328.72" y="337.81" width="8.13" height="0.73" transform="translate(-126.16 217.87) rotate(-30.77)" style="fill:#929497"></rect><rect x="328.72" y="332.82" width="8.13" height="0.73" transform="translate(-123.61 217.17) rotate(-30.77)" style="fill:#929497"></rect><rect x="328.72" y="327.83" width="8.13" height="0.73" transform="translate(-121.06 216.47) rotate(-30.77)" style="fill:#929497"></rect><rect x="328.72" y="322.85" width="8.13" height="0.73" transform="translate(-118.51 215.76) rotate(-30.77)" style="fill:#929497"></rect><rect x="328.72" y="317.86" width="8.13" height="0.73" transform="translate(-115.96 215.06) rotate(-30.77)" style="fill:#929497"></rect><rect x="328.72" y="312.88" width="8.13" height="0.73" transform="translate(-113.41 214.36) rotate(-30.77)" style="fill:#929497"></rect><rect x="328.72" y="307.89" width="8.13" height="0.73" transform="translate(-110.86 213.66) rotate(-30.77)" style="fill:#929497"></rect><rect x="328.72" y="302.9" width="8.13" height="0.73" transform="translate(-108.31 212.96) rotate(-30.77)" style="fill:#929497"></rect><rect x="328.72" y="297.92" width="8.13" height="0.73" transform="translate(-105.76 212.25) rotate(-30.77)" style="fill:#929497"></rect><polygon points="329.48 295.7 329.11 295.07 336.09 290.9 336.46 291.53 329.48 295.7" style="fill:#929497"></polygon><rect x="328.72" y="287.95" width="8.13" height="0.73" transform="translate(-100.65 210.85) rotate(-30.77)" style="fill:#929497"></rect><rect x="328.72" y="282.96" width="8.13" height="0.73" transform="translate(-98.1 210.15) rotate(-30.77)" style="fill:#929497"></rect><rect x="328.72" y="277.98" width="8.13" height="0.73" transform="translate(-95.55 209.45) rotate(-30.77)" style="fill:#929497"></rect><rect x="328.72" y="272.99" width="8.13" height="0.73" transform="translate(-93 208.74) rotate(-30.77)" style="fill:#929497"></rect><rect x="328.72" y="268.75" width="8.13" height="0.73" transform="translate(-90.83 208.15) rotate(-30.77)" style="fill:#929497"></rect><rect x="328.72" y="263.22" width="8.13" height="0.73" transform="translate(-88 207.37) rotate(-30.77)" style="fill:#929497"></rect><rect x="328.72" y="258.14" width="8.13" height="0.73" transform="translate(-85.41 206.65) rotate(-30.77)" style="fill:#929497"></rect><rect x="328.72" y="253.44" width="8.13" height="0.73" transform="translate(-83 205.99) rotate(-30.77)" style="fill:#929497"></rect><rect x="327.94" y="247.99" width="8.13" height="0.73" transform="translate(-80.32 204.82) rotate(-30.77)" style="fill:#929497"></rect><rect x="328.42" y="243.83" width="8.13" height="0.73" transform="translate(-78.12 204.49) rotate(-30.77)" style="fill:#929497"></rect><rect x="328.72" y="382.68" width="8.13" height="0.73" transform="translate(-149.12 224.19) rotate(-30.77)" style="fill:#929497"></rect><rect x="328.72" y="387.67" width="8.13" height="0.73" transform="translate(-151.67 224.89) rotate(-30.77)" style="fill:#929497"></rect><rect x="328.72" y="392.65" width="8.13" height="0.73" transform="translate(-154.22 225.59) rotate(-30.77)" style="fill:#929497"></rect><polygon points="329.48 400.4 329.11 399.77 336.09 395.6 336.46 396.23 329.48 400.4" style="fill:#929497"></polygon><path d="M337.34,400.34h-9.12v-159h9.12Zm-7.65-1.46h6.19v-156h-6.19Z" style="fill:#231f20"></path><polygon points="564.88 380.49 564.5 379.86 571.49 375.7 571.86 376.32 564.88 380.49" style="fill:#929497"></polygon><polygon points="564.88 375.5 564.5 374.87 571.49 370.71 571.86 371.34 564.88 375.5" style="fill:#929497"></polygon><polygon points="564.88 370.52 564.5 369.89 571.49 365.73 571.86 366.36 564.88 370.52" style="fill:#929497"></polygon><polygon points="564.88 365.53 564.5 364.9 571.49 360.74 571.86 361.37 564.88 365.53" style="fill:#929497"></polygon><polygon points="564.88 360.54 564.5 359.92 571.49 355.75 571.86 356.38 564.88 360.54" style="fill:#929497"></polygon><polygon points="564.88 355.56 564.5 354.93 571.49 350.77 571.86 351.39 564.88 355.56" style="fill:#929497"></polygon><polygon points="564.88 350.57 564.5 349.94 571.49 345.78 571.86 346.41 564.88 350.57" style="fill:#929497"></polygon><polygon points="564.88 345.58 564.5 344.96 571.49 340.79 571.86 341.42 564.88 345.58" style="fill:#929497"></polygon><polygon points="564.88 340.6 564.5 339.97 571.49 335.81 571.86 336.44 564.88 340.6" style="fill:#929497"></polygon><polygon points="564.88 335.61 564.51 334.98 571.49 330.82 571.86 331.45 564.88 335.61" style="fill:#929497"></polygon><polygon points="564.88 330.63 564.5 330 571.49 325.83 571.86 326.46 564.88 330.63" style="fill:#929497"></polygon><polygon points="564.88 325.64 564.5 325.01 571.49 320.85 571.86 321.48 564.88 325.64" style="fill:#929497"></polygon><polygon points="564.88 320.66 564.5 320.03 571.49 315.87 571.86 316.49 564.88 320.66" style="fill:#929497"></polygon><polygon points="564.88 315.67 564.5 315.05 571.49 310.88 571.86 311.5 564.88 315.67" style="fill:#929497"></polygon><polygon points="564.88 310.69 564.5 310.06 571.49 305.89 571.86 306.52 564.88 310.69" style="fill:#929497"></polygon><polygon points="564.88 305.7 564.5 305.07 571.49 300.91 571.86 301.53 564.88 305.7" style="fill:#929497"></polygon><polygon points="564.88 300.71 564.5 300.09 571.49 295.92 571.86 296.55 564.88 300.71" style="fill:#929497"></polygon><polygon points="564.88 295.73 564.5 295.1 571.49 290.93 571.86 291.56 564.88 295.73" style="fill:#929497"></polygon><polygon points="564.88 290.74 564.5 290.11 571.49 285.95 571.86 286.58 564.88 290.74" style="fill:#929497"></polygon><polygon points="564.88 285.76 564.5 285.13 571.49 280.97 571.86 281.59 564.88 285.76" style="fill:#929497"></polygon><polygon points="564.88 280.77 564.5 280.14 571.49 275.98 571.86 276.6 564.88 280.77" style="fill:#929497"></polygon><polygon points="564.88 275.78 564.5 275.15 571.49 270.99 571.86 271.62 564.88 275.78" style="fill:#929497"></polygon><polygon points="564.88 271.54 564.5 270.91 571.49 266.75 571.86 267.38 564.88 271.54" style="fill:#929497"></polygon><polygon points="564.88 266.01 564.5 265.38 571.49 261.22 571.86 261.85 564.88 266.01" style="fill:#929497"></polygon><polygon points="564.88 260.94 564.5 260.31 571.49 256.15 571.86 256.78 564.88 260.94" style="fill:#929497"></polygon><polygon points="564.88 256.23 564.5 255.6 571.49 251.44 571.86 252.07 564.88 256.23" style="fill:#929497"></polygon><polygon points="564.09 250.78 563.72 250.15 570.7 245.99 571.08 246.62 564.09 250.78" style="fill:#929497"></polygon><polygon points="564.58 246.62 564.2 245.99 571.19 241.83 571.56 242.45 564.58 246.62" style="fill:#929497"></polygon><polygon points="564.88 385.48 564.5 384.85 571.49 380.68 571.86 381.31 564.88 385.48" style="fill:#929497"></polygon><polygon points="564.88 390.46 564.5 389.83 571.49 385.67 571.86 386.3 564.88 390.46" style="fill:#929497"></polygon><polygon points="564.88 395.45 564.5 394.82 571.49 390.65 571.86 391.28 564.88 395.45" style="fill:#929497"></polygon><polygon points="564.88 400.43 564.5 399.8 571.49 395.64 571.86 396.26 564.88 400.43" style="fill:#929497"></polygon><path d="M572.74,400.37h-9.12v-159h9.12Zm-7.66-1.46h6.2v-156h-6.2Z" style="fill:#231f20"></path><path d="M329.24,256.33h-4.41V244.46h4.41Zm-2.95-1.46h1.49v-9h-1.49Z" style="fill:#231f20"></path><path d="M329.24,253.28h-4.41v-6.2h4.41Zm-2.95-1.47h1.49v-3.27h-1.49Z" style="fill:#231f20"></path><rect x="324.03" y="245.54" width="2.27" height="8.99" style="fill:#231f20"></rect><path d="M329.24,364.72h-4.42V352.85h4.42Zm-3-1.46h1.49v-8.94h-1.49Z" style="fill:#231f20"></path><path d="M329.24,361.67h-4.42v-6.19h4.42Zm-3-1.47h1.49v-3.26h-1.49Z" style="fill:#231f20"></path><rect x="324.02" y="353.93" width="2.27" height="8.99" style="fill:#231f20"></rect><rect x="339.28" y="245.54" width="2.26" height="8.99" style="fill:#231f20"></rect><path d="M561.77,254.53H336.33v-9H561.77Zm-224-1.46H560.31V247H337.79Z" style="fill:#231f20"></path><path d="M564.72,363.51H336.48v-9H564.72ZM338,362H563.26V356H338Z" style="fill:#231f20"></path><rect x="335.98" y="241.38" width="229.14" height="1.46" style="fill:#231f20"></rect><rect x="336.61" y="365.28" width="228.08" height="1.46" style="fill:#231f20"></rect><path d="M551.44,205h-30V15.75H711.22Zm-27.08-2.93h25.72L704.93,18.67H524.36Z" style="fill:#231f20"></path><path d="M552.22,270.82H521.43V202.09h30.79Zm-27.86-2.92H549.3V205H524.36Z" style="fill:#231f20"></path><path d="M552.22,284H521.43V267.9h30.79Zm-27.86-2.92H549.3V270.82H524.36Z" style="fill:#231f20"></path><path d="M530.22,279.7a2.92,2.92,0,1,1,2.91-2.91A2.92,2.92,0,0,1,530.22,279.7Zm0-4.37a1.46,1.46,0,1,0,1.45,1.46A1.46,1.46,0,0,0,530.22,275.33Z" style="fill:#231f20"></path><path d="M542.5,279.7a2.92,2.92,0,1,1,2.91-2.91A2.92,2.92,0,0,1,542.5,279.7Zm0-4.37a1.46,1.46,0,1,0,1.45,1.46A1.46,1.46,0,0,0,542.5,275.33Z" style="fill:#231f20"></path><path d="M518.23,334.11H487.44V318h30.79Zm-27.87-2.92H515.3V320.91H490.36Z" style="fill:#231f20"></path><path d="M496.22,329.79a2.92,2.92,0,1,1,2.91-2.91A2.91,2.91,0,0,1,496.22,329.79Zm0-4.37a1.46,1.46,0,1,0,1.45,1.46A1.46,1.46,0,0,0,496.22,325.42Z" style="fill:#231f20"></path><path d="M508.5,329.79a2.92,2.92,0,1,1,2.91-2.91A2.91,2.91,0,0,1,508.5,329.79Zm0-4.37a1.46,1.46,0,1,0,1.45,1.46A1.46,1.46,0,0,0,508.5,325.42Z" style="fill:#231f20"></path><rect x="362.75" y="259.17" width="2.92" height="23.39" style="fill:#231f20"></rect><rect x="372.21" y="259.17" width="2.92" height="23.39" style="fill:#231f20"></rect><rect x="381.48" y="259.17" width="2.92" height="23.39" style="fill:#231f20"></rect><rect x="390.12" y="259.17" width="2.92" height="23.39" style="fill:#231f20"></rect><rect x="399.29" y="259.17" width="2.92" height="23.39" style="fill:#231f20"></rect><rect x="408.46" y="259.17" width="2.92" height="25.62" style="fill:#231f20"></rect><rect x="417.49" y="259.17" width="2.92" height="25.96" style="fill:#231f20"></rect><rect x="426.22" y="259.17" width="2.92" height="26.31" style="fill:#231f20"></rect><rect x="435.21" y="259.17" width="2.92" height="26.31" style="fill:#231f20"></rect><rect x="444.42" y="259.17" width="2.92" height="26.6" style="fill:#231f20"></rect><rect x="453.73" y="259.17" width="2.92" height="27.4" style="fill:#231f20"></rect><rect x="462.91" y="259.17" width="2.92" height="27.75" style="fill:#231f20"></rect><rect x="363.51" y="316.07" width="2.92" height="27.5" style="fill:#231f20"></rect><rect x="372.98" y="315.89" width="2.92" height="27.69" style="fill:#231f20"></rect><rect x="382.24" y="315.89" width="2.92" height="27.69" style="fill:#231f20"></rect><rect x="390.88" y="315.43" width="2.92" height="28.15" style="fill:#231f20"></rect><rect x="400.05" y="315.36" width="2.92" height="28.21" style="fill:#231f20"></rect><rect x="409.23" y="314.94" width="2.92" height="28.63" style="fill:#231f20"></rect><rect x="418.25" y="314.96" width="2.92" height="28.61" style="fill:#231f20"></rect><rect x="426.99" y="314.94" width="2.92" height="28.63" style="fill:#231f20"></rect><rect x="435.97" y="314.52" width="2.92" height="29.05" style="fill:#231f20"></rect><rect x="445.19" y="314.37" width="2.92" height="29.21" style="fill:#231f20"></rect><rect x="454.5" y="314.52" width="2.92" height="29.05" style="fill:#231f20"></rect><rect x="463.68" y="313.97" width="2.92" height="29.61" style="fill:#231f20"></rect><polygon points="323.43 369.25 323.07 368.62 328.87 365.25 329.23 365.88 323.43 369.25" style="fill:#929497"></polygon><polygon points="323.43 371.33 323.07 370.69 328.87 367.33 329.23 367.97 323.43 371.33" style="fill:#929497"></polygon><polygon points="323.43 373.29 323.07 372.66 328.87 369.3 329.23 369.93 323.43 373.29" style="fill:#929497"></polygon><rect x="322.8" y="372.61" width="6.71" height="0.73" transform="matrix(0.86, -0.5, 0.5, 0.86, -143.24, 214.36)" style="fill:#929497"></rect><polygon points="323.43 377.14 323.07 376.51 328.87 373.14 329.23 373.78 323.43 377.14" style="fill:#929497"></polygon><polygon points="323.66 379.22 323.29 378.59 329.09 375.23 329.45 375.86 323.66 379.22" style="fill:#929497"></polygon><polygon points="323.66 381.59 323.29 380.95 329.09 377.59 329.45 378.22 323.66 381.59" style="fill:#929497"></polygon><polygon points="323.66 383.27 323.29 382.64 329.09 379.27 329.45 379.91 323.66 383.27" style="fill:#929497"></polygon><rect x="323.02" y="382.89" width="6.71" height="0.73" transform="matrix(0.86, -0.5, 0.5, 0.86, -148.37, 215.86)" style="fill:#929497"></rect><polygon points="323.84 387.27 323.47 386.64 329.28 383.28 329.64 383.91 323.84 387.27" style="fill:#929497"></polygon><polygon points="323.84 390.04 323.47 389.41 329.28 386.04 329.64 386.68 323.84 390.04" style="fill:#929497"></polygon><polygon points="323.84 391.92 323.47 391.28 329.28 387.92 329.64 388.55 323.84 391.92" style="fill:#929497"></polygon><polygon points="324.1 393.41 323.73 392.77 329.54 389.41 329.9 390.04 324.1 393.41" style="fill:#929497"></polygon><polygon points="313.53 398.93 313.17 398.29 321.79 393.54 322.14 394.18 313.53 398.93" style="fill:#929497"></polygon><polygon points="310.16 398.93 309.81 398.29 318.42 393.54 318.77 394.18 310.16 398.93" style="fill:#929497"></polygon><polygon points="307.12 398.93 306.76 398.29 315.38 393.54 315.73 394.18 307.12 398.93" style="fill:#929497"></polygon><polygon points="303.59 398.93 303.24 398.29 311.85 393.54 312.2 394.18 303.59 398.93" style="fill:#929497"></polygon><polygon points="301.1 398.93 300.75 398.29 309.36 393.54 309.71 394.18 301.1 398.93" style="fill:#929497"></polygon><polygon points="300.86 397.19 300.51 396.56 306.76 393.11 307.12 393.75 300.86 397.19" style="fill:#929497"></polygon><polygon points="301.1 395.48 300.75 394.83 304.32 392.94 304.67 393.59 301.1 395.48" style="fill:#929497"></polygon><polygon points="316.7 398.92 316.34 398.29 329.09 391.09 329.45 391.73 316.7 398.92" style="fill:#929497"></polygon><rect x="318.35" y="395.48" width="11.41" height="0.73" transform="translate(-151.17 206.47) rotate(-28.97)" style="fill:#929497"></rect><polygon points="323.66 398.46 323.29 397.82 329.09 394.46 329.45 395.09 323.66 398.46" style="fill:#929497"></polygon><polygon points="325.32 398.93 324.98 398.28 329.1 396.13 329.44 396.78 325.32 398.93" style="fill:#929497"></polygon><path d="M618.35,325.61h-18V278.24h18Zm-16.49-1.46h15V279.7h-15Z" style="fill:#231f20"></path><path d="M644.17,325.61H628.3V278.24h15.87Zm-14.41-1.46h13V279.7h-13Z" style="fill:#231f20"></path><path d="M643.44,325.61a.86.86,0,0,1-.27-.05.73.73,0,0,1-.46-.68V279a.73.73,0,0,1,1.26-.5l7.67,8a.74.74,0,0,1,.2.5v29.8a.7.7,0,0,1-.2.5L644,325.38A.72.72,0,0,1,643.44,325.61Zm.73-44.81v42.25l6.21-6.52V287.32Z" style="fill:#231f20"></path><path d="M628.4,320.85h-9.71a.73.73,0,0,1-.73-.73V283a.73.73,0,0,1,.73-.73h9.71a.73.73,0,0,1,.73.73v37.17A.73.73,0,0,1,628.4,320.85Zm-9-1.46h8.25V283.68h-8.25Z" style="fill:#231f20"></path><rect x="621.41" y="281.59" width="2.14" height="38.53" style="fill:#fff"></rect><path d="M623.55,320.85h-2.14a.73.73,0,0,1-.73-.73V281.59a.73.73,0,0,1,.73-.73h2.14a.73.73,0,0,1,.73.73v38.53A.73.73,0,0,1,623.55,320.85Zm-1.41-1.46h.67V282.32h-.67Z" style="fill:#231f20"></path><path d="M718,301.53c0,2.66-1.07,4.81-2.4,4.81H676.37c-1.33,0-2.41-2.15-2.41-4.81h0c0-2.65,1.08-4.8,2.41-4.8h39.18c1.33,0,2.4,2.15,2.4,4.8Z" style="fill:#221e20"></path><path d="M715.55,307.07H676.37c-1.79,0-3.14-2.38-3.14-5.54s1.35-5.53,3.14-5.53h39.18c1.79,0,3.14,2.38,3.14,5.53S717.34,307.07,715.55,307.07Zm-39.18-9.61c-.68,0-1.67,1.59-1.67,4.07s1,4.08,1.67,4.08h39.18c.69,0,1.67-1.59,1.67-4.08s-1-4.07-1.67-4.07Z" style="fill:#231f20"></path><path d="M684,307.07H650.38V296H684Zm-32.12-1.46h30.65v-8.15H651.84Z" style="fill:#231f20"></path><path d="M715.78,391c-1.92,1.84-4.21,2.56-5.13,1.6l-27.16-28.25c-.92-.95-.12-3.22,1.8-5.06h0c1.91-1.83,4.2-2.55,5.12-1.59L717.57,386c.92,1,.12,3.23-1.79,5.06Z" style="fill:#221e20"></path><path d="M711.81,393.8a2.26,2.26,0,0,1-1.69-.65L683,364.9a2.75,2.75,0,0,1-.32-2.95,8.42,8.42,0,0,1,2.14-3.15c2.27-2.18,4.93-2.86,6.16-1.57l27.16,28.25a2.2,2.2,0,0,1,.58,1.64,7.06,7.06,0,0,1-2.39,4.45h0A7.06,7.06,0,0,1,711.81,393.8Zm-22.55-35.75a5.74,5.74,0,0,0-3.47,1.81,7.19,7.19,0,0,0-1.78,2.58c-.23.66-.23,1.2,0,1.45l27.16,28.25c.47.47,2.29.1,4.09-1.63a5.69,5.69,0,0,0,2-3.42.81.81,0,0,0-.18-.6l-27.15-28.25A.91.91,0,0,0,689.26,358.05Z" style="fill:#231f20"></path><path d="M688.22,370.38,643.35,323.7l8-7.67,44.88,46.67Zm-42.81-46.64,42.85,44.57,5.88-5.65L651.29,318.1Z" style="fill:#231f20"></path><path d="M715.78,211.93c-1.92-1.83-4.21-2.55-5.13-1.59l-27.16,28.24c-.92,1-.12,3.23,1.8,5.07h0c1.91,1.83,4.2,2.55,5.12,1.59L717.57,217c.92-1,.12-3.22-1.79-5.06Z" style="fill:#221e20"></path><path d="M689.26,246.4a7,7,0,0,1-4.48-2.23,8.31,8.31,0,0,1-2.14-3.14,2.75,2.75,0,0,1,.32-2.95l27.16-28.25c1.24-1.28,3.89-.61,6.17,1.58h0a7,7,0,0,1,2.39,4.45,2.23,2.23,0,0,1-.58,1.64l-27.16,28.25A2.25,2.25,0,0,1,689.26,246.4Zm22.54-35.75a.93.93,0,0,0-.63.19L684,239.09c-.24.25-.24.79,0,1.45a7.19,7.19,0,0,0,1.78,2.58c1.79,1.71,3.62,2.11,4.1,1.62L717,216.49a.81.81,0,0,0,.18-.6,7,7,0,0,0-5.42-5.24Z" style="fill:#231f20"></path><path d="M651.33,287l-8-7.67,44.87-46.68,8,7.68Zm-5.92-7.71,5.88,5.64,42.85-44.56-5.88-5.65Z" style="fill:#231f20"></path><path d="M329.78,399.34H300.2v-6.51h22.32V364.27h7.26Zm-28.12-1.46h26.66V365.74H324v28.55H301.66Z" style="fill:#231f20"></path><polygon points="577.96 369.53 572.15 366.16 572.52 365.53 578.32 368.9 577.96 369.53" style="fill:#929497"></polygon><polygon points="577.96 371.61 572.15 368.25 572.52 367.62 578.32 370.98 577.96 371.61" style="fill:#929497"></polygon><polygon points="577.96 373.58 572.15 370.21 572.52 369.58 578.32 372.94 577.96 373.58" style="fill:#929497"></polygon><polygon points="577.96 375.26 572.15 371.9 572.52 371.26 578.32 374.63 577.96 375.26" style="fill:#929497"></polygon><polygon points="577.96 377.42 572.15 374.06 572.52 373.42 578.32 376.79 577.96 377.42" style="fill:#929497"></polygon><polygon points="577.74 379.5 571.93 376.14 572.3 375.5 578.1 378.87 577.74 379.5" style="fill:#929497"></polygon><polygon points="577.74 381.87 571.93 378.51 572.3 377.87 578.1 381.24 577.74 381.87" style="fill:#929497"></polygon><polygon points="577.74 383.56 571.93 380.19 572.3 379.56 578.1 382.92 577.74 383.56" style="fill:#929497"></polygon><polygon points="577.74 385.54 571.93 382.18 572.3 381.54 578.1 384.9 577.74 385.54" style="fill:#929497"></polygon><polygon points="577.55 387.56 571.75 384.19 572.11 383.56 577.91 386.93 577.55 387.56" style="fill:#929497"></polygon><polygon points="577.55 390.33 571.75 386.96 572.11 386.32 577.91 389.69 577.55 390.33" style="fill:#929497"></polygon><polygon points="577.55 392.2 571.75 388.83 572.11 388.2 577.91 391.57 577.55 392.2" style="fill:#929497"></polygon><polygon points="577.29 393.69 571.49 390.33 571.86 389.69 577.66 393.06 577.29 393.69" style="fill:#929497"></polygon><polygon points="587.86 399.21 579.25 394.46 579.6 393.82 588.21 398.57 587.86 399.21" style="fill:#929497"></polygon><polygon points="591.23 399.21 582.62 394.46 582.97 393.82 591.58 398.57 591.23 399.21" style="fill:#929497"></polygon><polygon points="594.27 399.21 585.66 394.46 586.01 393.82 594.63 398.57 594.27 399.21" style="fill:#929497"></polygon><polygon points="597.8 399.21 589.18 394.46 589.54 393.82 598.15 398.57 597.8 399.21" style="fill:#929497"></polygon><polygon points="600.28 399.21 591.67 394.46 592.03 393.82 600.64 398.57 600.28 399.21" style="fill:#929497"></polygon><polygon points="600.53 397.48 594.27 394.03 594.63 393.39 600.88 396.84 600.53 397.48" style="fill:#929497"></polygon><polygon points="600.29 395.76 596.72 393.87 597.07 393.23 600.63 395.11 600.29 395.76" style="fill:#929497"></polygon><polygon points="584.69 399.21 571.94 392.01 572.3 391.37 585.05 398.57 584.69 399.21" style="fill:#929497"></polygon><polygon points="582.15 399.21 572.16 393.69 572.51 393.05 582.51 398.57 582.15 399.21" style="fill:#929497"></polygon><polygon points="578.53 399.21 571.93 395.37 572.3 394.74 578.9 398.57 578.53 399.21" style="fill:#929497"></polygon><polygon points="575.63 399.21 571.93 397.06 572.3 396.42 576 398.57 575.63 399.21" style="fill:#929497"></polygon><path d="M601.19,399.62H571.61V364.55h7.26v28.56h22.32Zm-28.12-1.46h26.66v-3.59H577.41V366h-4.34Z" style="fill:#231f20"></path><path d="M601.61,312.77H559.29v-21.7h42.32Zm-40.86-1.46h39.4V292.54h-39.4Z" style="fill:#231f20"></path><path d="M573.71,312.77H559.29v-21.7h14.42Zm-13-1.46h11.5V292.54h-11.5Z" style="fill:#231f20"></path><path d="M587.59,312.77H574.72v-21.7h12.87Zm-11.4-1.46h9.94V292.54h-9.94Z" style="fill:#231f20"></path><path d="M602,312.77H588.7v-21.7H602Zm-11.8-1.46H600.5V292.54H590.16Z" style="fill:#231f20"></path><path d="M601.61,292.54H567.73V282.19h33.88Zm-32.42-1.47h31v-7.41h-31Z" style="fill:#231f20"></path><rect x="587.5" y="282.93" width="1.46" height="8.88" style="fill:#231f20"></rect><rect x="569.83" y="282.93" width="1.46" height="8.88" style="fill:#231f20"></rect><rect x="592.54" y="282.93" width="1.46" height="8.88" style="fill:#231f20"></rect><rect x="572.36" y="282.93" width="1.46" height="8.88" style="fill:#231f20"></rect><rect x="577.4" y="282.93" width="1.46" height="8.88" style="fill:#231f20"></rect><rect x="597.59" y="282.93" width="1.46" height="8.88" style="fill:#231f20"></rect><rect x="582.45" y="282.93" width="1.46" height="8.88" style="fill:#231f20"></rect><rect x="574.88" y="282.93" width="1.46" height="8.88" style="fill:#231f20"></rect><rect x="595.07" y="282.93" width="1.46" height="8.88" style="fill:#231f20"></rect><rect x="590.02" y="282.93" width="1.46" height="8.88" style="fill:#231f20"></rect><rect x="584.97" y="282.93" width="1.46" height="8.88" style="fill:#231f20"></rect><rect x="579.93" y="282.93" width="1.46" height="8.88" style="fill:#231f20"></rect><path d="M601.61,321.65H567.73V311.31h33.88Zm-32.42-1.46h31v-7.42h-31Z" style="fill:#231f20"></path><rect x="587.5" y="312.04" width="1.46" height="8.88" style="fill:#231f20"></rect><rect x="569.83" y="312.04" width="1.46" height="8.88" style="fill:#231f20"></rect><rect x="592.54" y="312.04" width="1.46" height="8.88" style="fill:#231f20"></rect><rect x="572.36" y="312.04" width="1.46" height="8.88" style="fill:#231f20"></rect><rect x="577.4" y="312.04" width="1.46" height="8.88" style="fill:#231f20"></rect><rect x="597.59" y="312.04" width="1.46" height="8.88" style="fill:#231f20"></rect><rect x="582.45" y="312.04" width="1.46" height="8.88" style="fill:#231f20"></rect><rect x="574.88" y="312.04" width="1.46" height="8.88" style="fill:#231f20"></rect><rect x="595.07" y="312.04" width="1.46" height="8.88" style="fill:#231f20"></rect><rect x="590.02" y="312.04" width="1.46" height="8.88" style="fill:#231f20"></rect><rect x="584.97" y="312.04" width="1.46" height="8.88" style="fill:#231f20"></rect><rect x="579.93" y="312.04" width="1.46" height="8.88" style="fill:#231f20"></rect><rect x="560.02" y="288.35" width="8.16" height="2.9" style="fill:#fff"></rect><path d="M568.91,292h-9.62v-4.36h9.62Zm-8.16-1.47h6.7v-1.43h-6.7Z" style="fill:#231f20"></path><rect x="564.1" y="288.35" width="3.77" height="2.51" style="fill:#fff"></rect><path d="M568.6,291.59h-5.23v-4h5.23Zm-3.77-1.46h2.31v-1.05h-2.31Z" style="fill:#231f20"></path><rect x="560.3" y="312.04" width="8.16" height="2.9" style="fill:#fff"></rect><path d="M569.19,315.67h-9.62v-4.36h9.62ZM561,314.21h6.69v-1.44H561Z" style="fill:#231f20"></path><rect x="564.38" y="312.01" width="3.77" height="2.51" style="fill:#fff"></rect><path d="M568.89,315.25h-5.24v-4h5.24Zm-3.77-1.46h2.31v-1.05h-2.31Z" style="fill:#231f20"></path><polygon points="377.92 316.98 377.87 314.79 553.87 310.91 553.91 313.11 377.92 316.98" style="fill:#231f20"></polygon><rect x="462.13" y="196.15" width="2.2" height="181.47" transform="translate(158.42 738.52) rotate(-87.76)" style="fill:#231f20"></rect><rect x="337.06" y="319.69" width="18.51" height="24.58" style="fill:#231f20"></rect><path d="M356.67,345.37H336V318.6h20.71Zm-18.51-2.19h16.31V320.79H338.16Z" style="fill:#231f20"></path><rect x="337.06" y="258.05" width="18.51" height="24.7" style="fill:#231f20"></rect><path d="M356.67,283.85H336V257h20.71Zm-18.51-2.2h16.31V259.14H338.16Z" style="fill:#231f20"></path><path d="M115.56,401.07H58.16V259.16h57.4Zm-54.48-2.92h51.56V262.09H61.08Z" style="fill:#231f20"></path><path d="M209.9,318.38H112.64v-36.7H209.9Zm-94.34-2.92H207V284.6H115.56Z" style="fill:#231f20"></path><path d="M257.06,313H221V287.21h36.11Zm-33.19-2.92h30.27v-20H223.87Z" style="fill:#231f20"></path><rect x="337.06" y="245.19" width="2.95" height="10.41" style="fill:#fff"></rect><path d="M340.74,256.33h-4.41V244.46h4.41Zm-2.95-1.46h1.49v-9h-1.49Z" style="fill:#231f20"></path><rect x="337.06" y="247.81" width="2.95" height="4.73" style="fill:#fff"></rect><path d="M340.74,253.28h-4.41v-6.2h4.41Zm-2.95-1.47h1.49v-3.27h-1.49Z" style="fill:#231f20"></path><rect x="560.11" y="246.07" width="2.26" height="8.99" style="fill:#231f20"></rect><rect x="572.49" y="244.83" width="2.95" height="10.41" style="fill:#fff"></rect><path d="M576.17,256h-4.41V244.1h4.41Zm-2.95-1.46h1.49v-8.95h-1.49Z" style="fill:#231f20"></path><rect x="572.07" y="247.21" width="2.95" height="4.73" style="fill:#fff"></rect><path d="M575.75,252.67h-4.41v-6.19h4.41Zm-3-1.46h1.49v-3.27H572.8Z" style="fill:#231f20"></path><rect x="561.64" y="244.83" width="2.95" height="10.41" style="fill:#fff"></rect><path d="M565.32,256h-4.41V244.1h4.41Zm-3-1.46h1.49v-8.95h-1.49Z" style="fill:#231f20"></path><rect x="561.74" y="247.45" width="2.96" height="4.73" style="fill:#fff"></rect><path d="M565.43,252.91H561v-6.19h4.42Zm-3-1.46H564v-3.27h-1.5Z" style="fill:#231f20"></path><rect x="336.61" y="353.8" width="2.95" height="10.41" style="fill:#fff"></rect><path d="M340.3,364.94h-4.42V353.07h4.42Zm-3-1.46h1.5v-9h-1.5Z" style="fill:#231f20"></path><rect x="336.61" y="356.42" width="2.95" height="4.73" style="fill:#fff"></rect><path d="M340.3,361.89h-4.42v-6.2h4.42Zm-3-1.47h1.5v-3.27h-1.5Z" style="fill:#231f20"></path><rect x="339.57" y="354.88" width="0.8" height="7.53" style="fill:#fff"></rect><rect x="338.84" y="354.15" width="2.26" height="8.99" style="fill:#231f20"></rect><rect x="561.22" y="353.8" width="2.95" height="10.41" style="fill:#fff"></rect><path d="M564.91,364.94h-4.42V353.07h4.42ZM562,363.48h1.49v-9H562Z" style="fill:#231f20"></path><rect x="561.22" y="356.42" width="2.95" height="4.73" style="fill:#fff"></rect><path d="M564.91,361.89h-4.42v-6.2h4.42ZM562,360.42h1.49v-3.27H562Z" style="fill:#231f20"></path><rect x="560.42" y="355.24" width="0.8" height="7.53" style="fill:#fff"></rect><rect x="559.69" y="354.51" width="2.26" height="8.99" style="fill:#231f20"></rect><rect x="572.01" y="353.8" width="2.95" height="10.41" style="fill:#fff"></rect><path d="M575.69,364.94h-4.41V353.07h4.41Zm-3-1.46h1.49v-9h-1.49Z" style="fill:#231f20"></path><rect x="572.01" y="356.42" width="2.95" height="4.73" style="fill:#fff"></rect><path d="M575.69,361.89h-4.41v-6.2h4.41Zm-3-1.47h1.49v-3.27h-1.49Z" style="fill:#231f20"></path><rect x="574.96" y="355.24" width="0.8" height="7.53" style="fill:#fff"></rect><rect x="574.23" y="354.51" width="2.26" height="8.99" style="fill:#231f20"></rect><rect x="323.84" y="258.88" width="4.66" height="77.58" style="fill:#fff"></rect><path d="M329.24,337.19h-6.13V258.14h6.13Zm-4.67-1.47h3.2V259.61h-3.2Z" style="fill:#231f20"></path><polygon points="324.05 326.34 323.62 325.74 328.3 322.38 328.72 322.97 324.05 326.34" style="fill:#929497"></polygon><polygon points="324.05 328.36 323.62 327.77 328.3 324.4 328.72 325 324.05 328.36" style="fill:#929497"></polygon><polygon points="324.05 330.39 323.62 329.8 328.3 326.43 328.72 327.03 324.05 330.39" style="fill:#929497"></polygon><rect x="323.29" y="330.07" width="5.76" height="0.73" transform="translate(-131.66 253.21) rotate(-35.8)" style="fill:#929497"></rect><rect x="323.29" y="332.1" width="5.76" height="0.73" transform="translate(-132.85 253.59) rotate(-35.8)" style="fill:#929497"></rect><polygon points="324.04 336.47 323.62 335.88 328.3 332.52 328.72 333.11 324.04 336.47" style="fill:#929497"></polygon><rect x="323.29" y="311.63" width="5.76" height="0.73" transform="matrix(0.81, -0.58, 0.58, 0.81, -120.87, 249.72)" style="fill:#929497"></rect><polygon points="324.05 316 323.62 315.41 328.3 312.04 328.72 312.64 324.05 316" style="fill:#929497"></polygon><polygon points="324.05 318.03 323.62 317.43 328.3 314.07 328.72 314.66 324.05 318.03" style="fill:#929497"></polygon><rect x="323.29" y="317.71" width="5.76" height="0.73" transform="translate(-124.43 250.87) rotate(-35.8)" style="fill:#929497"></rect><polygon points="324.05 322.08 323.62 321.49 328.3 318.12 328.72 318.72 324.05 322.08" style="fill:#929497"></polygon><polygon points="324.04 324.11 323.62 323.52 328.3 320.15 328.72 320.75 324.04 324.11" style="fill:#929497"></polygon><polygon points="324.05 301.61 323.62 301.01 328.3 297.65 328.72 298.24 324.05 301.61" style="fill:#929497"></polygon><polygon points="324.05 303.63 323.62 303.04 328.3 299.68 328.72 300.27 324.05 303.63" style="fill:#929497"></polygon><polygon points="324.05 305.66 323.62 305.06 328.3 301.7 328.72 302.3 324.05 305.66" style="fill:#929497"></polygon><rect x="323.29" y="305.34" width="5.76" height="0.73" transform="translate(-117.2 248.54) rotate(-35.8)" style="fill:#929497"></rect><polygon points="324.05 309.71 323.62 309.12 328.3 305.76 328.72 306.35 324.05 309.71" style="fill:#929497"></polygon><polygon points="324.04 311.74 323.62 311.15 328.3 307.78 328.72 308.38 324.04 311.74" style="fill:#929497"></polygon><polygon points="324.05 288.82 323.62 288.23 328.3 284.86 328.72 285.46 324.05 288.82" style="fill:#929497"></polygon><polygon points="324.05 290.85 323.62 290.25 328.3 286.89 328.72 287.48 324.05 290.85" style="fill:#929497"></polygon><polygon points="324.05 292.87 323.62 292.28 328.3 288.92 328.72 289.51 324.05 292.87" style="fill:#929497"></polygon><rect x="323.29" y="292.55" width="5.76" height="0.73" transform="translate(-109.72 246.12) rotate(-35.8)" style="fill:#929497"></rect><polygon points="324.05 296.93 323.62 296.34 328.3 292.97 328.72 293.56 324.05 296.93" style="fill:#929497"></polygon><polygon points="324.04 298.95 323.62 298.36 328.3 295 328.72 295.59 324.04 298.95" style="fill:#929497"></polygon><polygon points="324.05 276.61 323.62 276.02 328.3 272.66 328.72 273.25 324.05 276.61" style="fill:#929497"></polygon><polygon points="324.05 278.64 323.62 278.04 328.3 274.68 328.72 275.28 324.05 278.64" style="fill:#929497"></polygon><polygon points="324.05 280.67 323.62 280.07 328.3 276.71 328.72 277.3 324.05 280.67" style="fill:#929497"></polygon><rect x="323.29" y="280.35" width="5.76" height="0.73" transform="translate(-102.58 243.81) rotate(-35.8)" style="fill:#929497"></rect><polygon points="324.05 284.72 323.62 284.13 328.3 280.77 328.72 281.36 324.05 284.72" style="fill:#929497"></polygon><polygon points="324.04 286.75 323.62 286.16 328.3 282.79 328.72 283.38 324.04 286.75" style="fill:#929497"></polygon><polygon points="324.05 264.19 323.62 263.6 328.3 260.24 328.72 260.83 324.05 264.19" style="fill:#929497"></polygon><polygon points="324.05 262.51 323.62 261.92 328.3 258.55 328.72 259.15 324.05 262.51" style="fill:#929497"></polygon><rect x="323.29" y="263.87" width="5.76" height="0.73" transform="translate(-92.94 240.7) rotate(-35.8)" style="fill:#929497"></rect><polygon points="324.05 268.25 323.62 267.65 328.3 264.29 328.72 264.88 324.05 268.25" style="fill:#929497"></polygon><polygon points="324.05 270.27 323.62 269.68 328.3 266.32 328.72 266.91 324.05 270.27" style="fill:#929497"></polygon><polygon points="324.05 272.3 323.62 271.71 328.3 268.34 328.72 268.94 324.05 272.3" style="fill:#929497"></polygon><polygon points="324.04 274.33 323.62 273.74 328.3 270.37 328.72 270.97 324.04 274.33" style="fill:#929497"></polygon><path d="M329.24,337.19h-6.13V258.14h6.13Zm-4.67-1.47h3.2V259.61h-3.2Z" style="fill:#231f20"></path><path d="M333,313H269.09V287.21H333Zm-61-2.92h58v-20H272Z" style="fill:#231f20"></path><path d="M283.41,290.86h-14a3.84,3.84,0,0,1,0-7.68h14a3.84,3.84,0,1,1,0,7.68Zm-14-4.75a.92.92,0,0,0,0,1.83h14a.92.92,0,1,0,0-1.83Z" style="fill:#231f20"></path><path d="M282.83,303.54H268.88a3.84,3.84,0,1,1,0-7.68h13.95a3.84,3.84,0,1,1,0,7.68Zm-13.95-4.76a.92.92,0,1,0,0,1.84h13.95a.92.92,0,0,0,0-1.84Z" style="fill:#231f20"></path><path d="M283.41,316.44h-14a3.84,3.84,0,0,1,0-7.68h14a3.84,3.84,0,1,1,0,7.68Zm-14-4.76a.92.92,0,0,0,0,1.83h14a.92.92,0,1,0,0-1.83Z" style="fill:#231f20"></path><path d="M542.73,313.67a1.87,1.87,0,0,1-2,1.2,1.84,1.84,0,0,1-1.42-.91h0c0-.06-.05-.11-.07-.17l-2.75-14.17h0l-2.72-14h0a3.1,3.1,0,0,0-2.78-2.34,3.17,3.17,0,0,0-3.58,2.57c0,.12,0,.24,0,.36a1.91,1.91,0,0,1,3.41-.29h0c0,.05.05.1.07.16l2.75,14.17h0l2.72,14h0a3.11,3.11,0,0,0,2.78,2.34,3.17,3.17,0,0,0,3.58-2.57C542.72,313.91,542.73,313.79,542.73,313.67Z" style="fill:#fff"></path><path d="M539.52,317a3,3,0,0,1-.42,0,3.48,3.48,0,0,1-3-2.34h0l-.06-.29-5.47-28.17,0,0,0-.1a1.54,1.54,0,0,0-2.69.3l-.71-.11a2.75,2.75,0,0,1,0-.41,3.66,3.66,0,0,1,7-.55h0l.06.3,5.51,28.23a1.47,1.47,0,0,0,1.15.73,1.5,1.5,0,0,0,1.58-.94l.71.1a2.61,2.61,0,0,1,0,.4A3.48,3.48,0,0,1,539.52,317Zm-2.83-2.88,0,.08a2.76,2.76,0,0,0,2.46,2.06,3,3,0,0,0,2.77-1.2,2.52,2.52,0,0,1-1.22.2,2.24,2.24,0,0,1-1.6-.92h0l-.18-.39-5.49-28.23a2.71,2.71,0,0,0-2.46-2.05,3,3,0,0,0-2.77,1.19,2.49,2.49,0,0,1,1.22-.19,2.16,2.16,0,0,1,1.71,1.1l0,.09a1.17,1.17,0,0,1,.05.11Z" style="fill:#231f20"></path><path d="M559.73,306.69a1.63,1.63,0,0,1-1.75.86,1.76,1.76,0,0,1-1.31-.71h0l-.06-.12-2.77-10.63h0l-2.73-10.5h0a2.85,2.85,0,0,0-2.55-1.79c-1.6-.17-3,.66-3.17,1.85a1.22,1.22,0,0,0,0,.27,1.62,1.62,0,0,1,1.75-.86,1.82,1.82,0,0,1,1.31.7h0l.07.12,2.76,10.63h0L554,307h0a2.85,2.85,0,0,0,2.55,1.8c1.59.16,3-.67,3.17-1.86A2.44,2.44,0,0,0,559.73,306.69Z" style="fill:#fff"></path><path d="M557,309.2l-.44,0a3.32,3.32,0,0,1-2.77-1.79h0l-.07-.28L548.15,286a1.54,1.54,0,0,0-1.06-.57,1.3,1.3,0,0,0-1.38.63L545,286c0-.12,0-.23,0-.33.18-1.4,1.79-2.4,3.57-2.19a3.23,3.23,0,0,1,2.87,2.06L557,306.64a1.42,1.42,0,0,0,1,.55,1.29,1.29,0,0,0,1.38-.62l.71.11a1.67,1.67,0,0,1,0,.32A2.93,2.93,0,0,1,557,309.2Zm-2.64-2.42,0,.14a2.5,2.5,0,0,0,2.24,1.53,3,3,0,0,0,2.23-.6,2.35,2.35,0,0,1-.88.06,2.18,2.18,0,0,1-1.45-.7h0l-.11-.19a.86.86,0,0,1-.07-.14l-5.52-21.2a2.55,2.55,0,0,0-2.24-1.52,3,3,0,0,0-2.24.6,2.2,2.2,0,0,1,.89-.06,2.15,2.15,0,0,1,1.57.85l.09.18Z" style="fill:#231f20"></path><path d="M524.84,313.78a1.9,1.9,0,0,1-3.41.24h0l-.08-.17-2.49-14.21h0l-2.46-14h0a3.12,3.12,0,0,0-2.75-2.38,3.19,3.19,0,0,0-3.62,2.52c0,.12,0,.24,0,.36a1.84,1.84,0,0,1,2-1.17,1.79,1.79,0,0,1,1.41.93h0l.08.16L516,300.24h0l2.47,14h0a3.1,3.1,0,0,0,2.74,2.38,3.19,3.19,0,0,0,3.62-2.52C524.83,314,524.83,313.9,524.84,313.78Z" style="fill:#fff"></path><path d="M521.62,317.05a3.71,3.71,0,0,1-.47,0,3.46,3.46,0,0,1-3.06-2.67l-5-28.26s0,0,0-.06l0,0a1.46,1.46,0,0,0-1.11-.7,1.49,1.49,0,0,0-1.6.92l-.72-.12c0-.13,0-.27,0-.39a3.54,3.54,0,0,1,4-2.84,3.47,3.47,0,0,1,3,2.38h0l0,.3,5,28.32a1.54,1.54,0,0,0,2.73-.19l.71.12a2.73,2.73,0,0,1,0,.41A3.5,3.5,0,0,1,521.62,317.05Zm-5.33-17.17.06.3,2.46,14a2.77,2.77,0,0,0,2.43,2.08,3,3,0,0,0,2.78-1.16,2.4,2.4,0,0,1-1.22.18,2.22,2.22,0,0,1-1.7-1.14L521,314l-5-28.32a2.74,2.74,0,0,0-2.43-2.1,3,3,0,0,0-2.78,1.16,2.36,2.36,0,0,1,1.22-.17,2.15,2.15,0,0,1,1.69,1.12l0,.09.05.12Z" style="fill:#231f20"></path><path d="M507.39,313.73a1.84,1.84,0,0,1-2,1.14A1.82,1.82,0,0,1,504,314h0c0-.06-.05-.11-.07-.16l-2.53-14h0l-2.5-13.77h0a3.12,3.12,0,0,0-2.75-2.35,3.15,3.15,0,0,0-3.61,2.46,2.19,2.19,0,0,0,0,.36,1.92,1.92,0,0,1,3.41-.23h0a1,1,0,0,0,.07.15l2.53,14h0L501,314.2h0a3.1,3.1,0,0,0,2.74,2.34,3.15,3.15,0,0,0,3.61-2.46A2.16,2.16,0,0,0,507.39,313.73Z" style="fill:#fff"></path><path d="M504.19,316.93a3.87,3.87,0,0,1-.48,0,3.46,3.46,0,0,1-3.06-2.63l-5-27.73a1.5,1.5,0,0,0-1.16-.8,1.48,1.48,0,0,0-1.6.9l-.71-.12a2.8,2.8,0,0,1,0-.4,3.51,3.51,0,0,1,4-2.77,3.46,3.46,0,0,1,3.06,2.63l5.08,27.8a1.55,1.55,0,0,0,2.73-.17l.71.12a2.68,2.68,0,0,1,0,.4A3.48,3.48,0,0,1,504.19,316.93Zm-5.38-16.87.05.29,2.51,13.78a2.75,2.75,0,0,0,2.43,2,3,3,0,0,0,2.77-1.1,2.48,2.48,0,0,1-1.21.17,2.25,2.25,0,0,1-1.58-.93h0l-.18-.38-5.05-27.81a2.73,2.73,0,0,0-2.44-2,3,3,0,0,0-2.77,1.11,2.26,2.26,0,0,1,1.22-.17,2.23,2.23,0,0,1,1.69,1.11l.11.27Z" style="fill:#231f20"></path><path d="M518.46,313.67a1.9,1.9,0,0,0,3.4.29h0l.08-.17,2.74-14.17h0l2.71-14h0a3.1,3.1,0,0,1,2.78-2.34,3.17,3.17,0,0,1,3.58,2.57c0,.12,0,.24,0,.36a1.9,1.9,0,0,0-3.4-.29h0a.77.77,0,0,0-.07.16l-2.75,14.17h0l-2.71,14h0a3.28,3.28,0,0,1-6.36-.23A2.17,2.17,0,0,1,518.46,313.67Z" style="fill:#fff"></path><path d="M521.67,317a3.48,3.48,0,0,1-3.55-2.9,2.83,2.83,0,0,1,0-.41l.72-.1a1.5,1.5,0,0,0,1.59.94,1.47,1.47,0,0,0,1.14-.73l0-.08,0,0,5.53-28.41a3.48,3.48,0,0,1,3-2.33,3.55,3.55,0,0,1,4,2.88c0,.14,0,.28,0,.41l-.72.11a1.46,1.46,0,0,0-1.58-.95,1.51,1.51,0,0,0-1.15.73l-.06.12-5.52,28.4a3.51,3.51,0,0,1-3,2.34A3,3,0,0,1,521.67,317ZM519.25,315a3,3,0,0,0,2.76,1.2,2.76,2.76,0,0,0,2.47-2.06l0-.12,5.58-28.36a2.22,2.22,0,0,1,1.68-1.05,2.52,2.52,0,0,1,1.23.19,3,3,0,0,0-2.77-1.19,2.74,2.74,0,0,0-2.46,2.05l0,.11-5.44,28.05c0,.13-.08.19-.11.26l-.13.2a2.2,2.2,0,0,1-1.59.92A2.44,2.44,0,0,1,519.25,315Z" style="fill:#231f20"></path><path d="M501,313.67a1.83,1.83,0,0,0,2,1.19,1.79,1.79,0,0,0,1.43-.9h0c0-.06.06-.11.08-.16l2.74-14.1h0l2.71-13.93h0a3.08,3.08,0,0,1,2.78-2.32A3.17,3.17,0,0,1,516.3,286c0,.12,0,.24,0,.36a1.9,1.9,0,0,0-3.4-.28h0a.77.77,0,0,0-.07.16l-2.74,14.1h0l-2.7,13.92h0a3.12,3.12,0,0,1-2.79,2.33A3.18,3.18,0,0,1,501,314C501,313.91,501,313.79,501,313.67Z" style="fill:#fff"></path><path d="M504.24,317a3.51,3.51,0,0,1-3.57-2.9l0-.38.72-.14a1.55,1.55,0,0,0,2.73.23l0-.05,0-.07,5.43-28a3.46,3.46,0,0,1,3.11-2.62,3.57,3.57,0,0,1,4,2.87c0,.15,0,.28,0,.41l-.72.11a1.47,1.47,0,0,0-1.58-.94,1.44,1.44,0,0,0-1.14.72.31.31,0,0,0,0,.1l-5.44,28a3.47,3.47,0,0,1-3.1,2.62ZM501.8,315a3.06,3.06,0,0,0,2.77,1.19,2.75,2.75,0,0,0,2.46-2.05l5.48-28.11a.91.91,0,0,1,.09-.17,2.19,2.19,0,0,1,1.7-1.1,2.29,2.29,0,0,1,1.23.2,3,3,0,0,0-2.77-1.19,2.72,2.72,0,0,0-2.46,2l-5.45,28a2.54,2.54,0,0,1-.11.26l0,.05a2.2,2.2,0,0,1-1.69,1.05A2.49,2.49,0,0,1,501.8,315Z" style="fill:#231f20"></path><path d="M483.55,313.89a1.91,1.91,0,0,0,3.4.29h0L487,314l2.73-14.08h0l2.7-13.9h0a3.08,3.08,0,0,1,2.78-2.32,3.17,3.17,0,0,1,3.58,2.55c0,.12,0,.24,0,.36a1.9,1.9,0,0,0-3.4-.29h0l-.07.15-2.74,14.08h0l-2.7,13.91h0a3.12,3.12,0,0,1-2.79,2.32,3.16,3.16,0,0,1-3.57-2.55A2.17,2.17,0,0,1,483.55,313.89Z" style="fill:#fff"></path><path d="M486.77,317.19a3.51,3.51,0,0,1-3.57-2.89c0-.15,0-.28,0-.41l.72-.11a1.5,1.5,0,0,0,1.58.94,1.46,1.46,0,0,0,1.15-.72l0-.07,5.53-28.27a3.49,3.49,0,0,1,3-2.32,3.53,3.53,0,0,1,4,2.87,2.88,2.88,0,0,1,0,.41l-.71.11a1.54,1.54,0,0,0-2.73-.22l0,0a.2.2,0,0,1,0,.08l-5.42,27.93a3.47,3.47,0,0,1-3.11,2.62Zm-2.44-1.94a3.07,3.07,0,0,0,2.78,1.19,2.74,2.74,0,0,0,2.46-2l5.44-28c.05-.12.08-.18.1-.24l.08-.13a2.24,2.24,0,0,1,1.64-1,2.41,2.41,0,0,1,1.23.2,3,3,0,0,0-2.77-1.19,2.72,2.72,0,0,0-2.46,2l0,.13-5.53,28.12a2.2,2.2,0,0,1-1.71,1.08A2.24,2.24,0,0,1,484.33,315.25Z" style="fill:#231f20"></path><path d="M489.83,314a1.93,1.93,0,0,1-3.4.21h0a1,1,0,0,1-.07-.15l-2.56-13.78h0l-2.53-13.59h0a3.09,3.09,0,0,0-2.75-2.31,3.14,3.14,0,0,0-3.61,2.42c0,.11,0,.23,0,.35a1.92,1.92,0,0,1,3.4-.22h0l.07.16,2.56,13.77h0l2.53,13.59h0a3.1,3.1,0,0,0,2.75,2.31,3.14,3.14,0,0,0,3.61-2.41C489.82,314.23,489.83,314.11,489.83,314Z" style="fill:#fff"></path><path d="M486.65,317.16l-.49,0a3.52,3.52,0,0,1-3-2.31h0l-.06-.3L478,287.16h0l0,0,0,0a1.48,1.48,0,0,0-1.13-.72,1.46,1.46,0,0,0-1.6.88l-.71-.11c0-.13,0-.27,0-.39a3.51,3.51,0,0,1,4-2.75,3.46,3.46,0,0,1,3.07,2.61l5.1,27.36h0l0,0v0a1.57,1.57,0,0,0,2.74-.16l.71.13a2.66,2.66,0,0,1,0,.39A3.44,3.44,0,0,1,486.65,317.16Zm-2.87-2.91,0,.13a2.72,2.72,0,0,0,2.44,2,3,3,0,0,0,2.76-1.08,2.45,2.45,0,0,1-1.21.16,2.19,2.19,0,0,1-1.66-1l0-.07c0-.07-.06-.13-.09-.19l-5.11-27.42a2.72,2.72,0,0,0-2.43-2,3,3,0,0,0-2.77,1.08,2.34,2.34,0,0,1,1.21-.16,2.2,2.2,0,0,1,1.67,1l0,.06a1.86,1.86,0,0,1,.1.2Z" style="fill:#231f20"></path><path d="M465.92,314.66a1.9,1.9,0,0,0,3.4.29h0a.77.77,0,0,0,.07-.16l2.75-14.13h0l2.71-13.95h0a3.12,3.12,0,0,1,2.79-2.33,3.16,3.16,0,0,1,3.57,2.56c0,.12,0,.24,0,.36a1.9,1.9,0,0,0-3.4-.29h0a1,1,0,0,0-.07.15L475,301.29h0l-2.71,14h0a3.29,3.29,0,0,1-6.36-.23A2.17,2.17,0,0,1,465.92,314.66Z" style="fill:#fff"></path><path d="M469.15,318a3.5,3.5,0,0,1-3.57-2.89,3,3,0,0,1,0-.41l.72-.11a1.48,1.48,0,0,0,1.59.94,1.46,1.46,0,0,0,1.14-.72l0-.09,5.53-28.34a3.5,3.5,0,0,1,3-2.33,3.56,3.56,0,0,1,4,2.87c0,.15,0,.28,0,.41l-.72.11a1.54,1.54,0,0,0-2.71-.26l-.06.14-5.45,28a3.47,3.47,0,0,1-3.11,2.62A2.68,2.68,0,0,1,469.15,318ZM466.71,316a3,3,0,0,0,2.77,1.2,2.78,2.78,0,0,0,2.46-2.05L477.42,287l0-.09h0l.05-.08a2.2,2.2,0,0,1,1.71-1.1,2.43,2.43,0,0,1,1.23.2,3,3,0,0,0-2.77-1.2,2.74,2.74,0,0,0-2.47,2l0,.12-5.44,28a.58.58,0,0,1-.07.19l0,.09a2.3,2.3,0,0,1-2.93.89Z" style="fill:#231f20"></path><path d="M489.69,313.91a1.91,1.91,0,0,1-3.4.23h0l-.08-.17-2.49-14h0l-2.47-13.86h0a3.09,3.09,0,0,0-2.74-2.36,3.19,3.19,0,0,0-3.62,2.49l0,.36a1.86,1.86,0,0,1,2-1.16,1.82,1.82,0,0,1,1.41.92h0l.06.16,2.5,14h0l2.47,13.86h0a3.11,3.11,0,0,0,2.74,2.36,3.19,3.19,0,0,0,3.62-2.49C489.68,314.14,489.69,314,489.69,313.91Z" style="fill:#fff"></path><path d="M486.47,317.14a3.55,3.55,0,0,1-.46,0,3.44,3.44,0,0,1-3.06-2.65l-5-27.91h0s0,0,0-.07a1.55,1.55,0,0,0-2.74.19l-.71-.12a3,3,0,0,1,0-.42,3.53,3.53,0,0,1,4-2.79,3.44,3.44,0,0,1,3.06,2.65l5,28a1.49,1.49,0,0,0,1.14.73,1.46,1.46,0,0,0,1.6-.91l.71.14-.36,0,.36,0a2.19,2.19,0,0,1,0,.36A3.5,3.5,0,0,1,486.47,317.14Zm-5.33-17,.06.3,2.47,13.86a2.71,2.71,0,0,0,2.42,2.06,3,3,0,0,0,2.78-1.12,2.43,2.43,0,0,1-1.21.17,2.23,2.23,0,0,1-1.63-1h0l-.16-.37-5-27.91a2.69,2.69,0,0,0-2.42-2.05,3,3,0,0,0-2.78,1.13,2.35,2.35,0,0,1,1.22-.17,2.18,2.18,0,0,1,1.69,1.11c0,.08.06.13.09.21Z" style="fill:#231f20"></path><path d="M465.83,314.32a1.89,1.89,0,0,0,3.4.28h0l.08-.16,2.78-14.28h0l2.75-14.09h0a3.12,3.12,0,0,1,2.79-2.36,3.16,3.16,0,0,1,3.57,2.58c0,.12,0,.24,0,.36a1.82,1.82,0,0,0-2-1.2,1.84,1.84,0,0,0-1.43.92h0a1.11,1.11,0,0,0-.07.16L475,300.8h0l-2.75,14.11h0a3.27,3.27,0,0,1-6.35-.23A2.11,2.11,0,0,1,465.83,314.32Z" style="fill:#fff"></path><path d="M469,317.65a3.49,3.49,0,0,1-3.54-2.92,2.75,2.75,0,0,1,0-.41l.71-.1a1.53,1.53,0,0,0,2.73.21l.06-.12,5.6-28.61a3.65,3.65,0,0,1,7,.54c0,.15,0,.28,0,.41l-.72.11a1.43,1.43,0,0,0-1.4-1h-.18a1.47,1.47,0,0,0-1.1.66h0l-.06.09,0,.1-5.61,28.61a3.5,3.5,0,0,1-3,2.36A3,3,0,0,1,469,317.65Zm-2.42-1.95a3,3,0,0,0,2.76,1.2,2.77,2.77,0,0,0,2.48-2.07l0-.24,5.49-28.13a.75.75,0,0,1,.07-.18h0l0-.09a2.2,2.2,0,0,1,1.72-1.1,2.24,2.24,0,0,1,1.23.19,3,3,0,0,0-2.77-1.21,2.75,2.75,0,0,0-2.47,2.08l0,.12-5.51,28.24a1.23,1.23,0,0,1-.09.21l-.12.21a2.22,2.22,0,0,1-1.62,1A2.29,2.29,0,0,1,466.61,315.7Z" style="fill:#231f20"></path><path d="M472.08,314.68a1.85,1.85,0,0,1-2,1.17,1.87,1.87,0,0,1-1.41-.93h0a1.11,1.11,0,0,1-.07-.16l-2.5-14.22h0l-2.46-14h0a3.13,3.13,0,0,0-2.75-2.39,3.18,3.18,0,0,0-3.61,2.52,2.22,2.22,0,0,0,0,.37,1.85,1.85,0,0,1,2-1.18,1.87,1.87,0,0,1,1.42.93h0a.77.77,0,0,1,.07.16l2.5,14.21h0l2.46,14h0a3.12,3.12,0,0,0,2.75,2.38,3.17,3.17,0,0,0,3.61-2.51C472.07,314.92,472.07,314.8,472.08,314.68Z" style="fill:#fff"></path><path d="M468.87,317.94a3.85,3.85,0,0,1-.48,0,3.5,3.5,0,0,1-3-2.38h0l-.06-.31-5-28.34a1.51,1.51,0,0,0-1.12-.71,1.47,1.47,0,0,0-1.6.93l-.71-.11c0-.14,0-.28,0-.41a3.56,3.56,0,0,1,4-2.84,3.5,3.5,0,0,1,3,2.38h0l.05.3,5,28.25a1.52,1.52,0,0,0,1.17.81,1.49,1.49,0,0,0,1.6-.93l.71.12a2.82,2.82,0,0,1,0,.41A3.51,3.51,0,0,1,468.87,317.94ZM466,315l0,.13a2.74,2.74,0,0,0,2.43,2.09,2.94,2.94,0,0,0,2.79-1.16,2.33,2.33,0,0,1-1.23.18,2.2,2.2,0,0,1-1.66-1.07l-.1-.2,0-.13-5-28.24a2.74,2.74,0,0,0-2.43-2.09,3,3,0,0,0-2.79,1.16,2.38,2.38,0,0,1,1.22-.18,2.2,2.2,0,0,1,1.7,1.12l0,.09,0,0,0,.16Z" style="fill:#231f20"></path><path d="M448.28,314.63a1.89,1.89,0,0,0,3.39.29h0a1.22,1.22,0,0,0,.07-.17l2.76-14.23h0l2.72-14.06h0a3.11,3.11,0,0,1,2.78-2.35,3.17,3.17,0,0,1,3.58,2.58c0,.12,0,.24,0,.36a1.9,1.9,0,0,0-3.4-.29h0a.77.77,0,0,0-.07.16l-2.76,14.23h0l-2.73,14.06h0a3.12,3.12,0,0,1-2.78,2.35A3.16,3.16,0,0,1,448.3,315,2.17,2.17,0,0,1,448.28,314.63Z" style="fill:#fff"></path><path d="M451.5,318a3.51,3.51,0,0,1-3.57-2.92,2.75,2.75,0,0,1,0-.41l.71-.11a1.48,1.48,0,0,0,1.59,1,1.45,1.45,0,0,0,1.14-.73l.06-.13L457,286.1a3.49,3.49,0,0,1,3-2.35,3.54,3.54,0,0,1,4,2.89,2.88,2.88,0,0,1,0,.41l-.72.11a1.53,1.53,0,0,0-2.73-.22l0,.06-5.57,28.58a3.49,3.49,0,0,1-3,2.35Zm-2.43-2a3,3,0,0,0,2.76,1.21,2.76,2.76,0,0,0,2.46-2.07l0-.12,5.46-28.16a.58.58,0,0,1,.07-.19l.06-.11a2.29,2.29,0,0,1,2.92-.88,3,3,0,0,0-2.77-1.21,2.74,2.74,0,0,0-2.47,2.07l0,.26L452,315l-.13.23a2.2,2.2,0,0,1-1.63,1A2.13,2.13,0,0,1,449.07,316Zm11.24-29.08h-.17l.21,0Z" style="fill:#231f20"></path><path d="M454.46,314.42a1.86,1.86,0,0,1-2,1.17,1.82,1.82,0,0,1-1.41-.94h0c0-.06-.05-.11-.07-.16l-2.49-14.22h0l-2.47-14h0a3.09,3.09,0,0,0-2.74-2.39,3.19,3.19,0,0,0-3.62,2.52l0,.36a1.85,1.85,0,0,1,2-1.17,1.83,1.83,0,0,1,1.41.93h0a.77.77,0,0,1,.07.16l2.5,14.21h0l2.46,14h0a3.1,3.1,0,0,0,2.74,2.38,3.19,3.19,0,0,0,3.62-2.51C454.45,314.66,454.46,314.53,454.46,314.42Z" style="fill:#fff"></path><path d="M451.24,317.68a3.57,3.57,0,0,1-3.45-2.41h0l-.06-.3-5-28.33a1.54,1.54,0,0,0-2.73.21l-.71-.13c0-.14,0-.26,0-.39a3.53,3.53,0,0,1,4-2.84,3.44,3.44,0,0,1,3.06,2.68l5,28.31a1.49,1.49,0,0,0,1.14.74,1.52,1.52,0,0,0,1.6-.92l.71.12a2.93,2.93,0,0,1,0,.41A3.51,3.51,0,0,1,451.24,317.68Zm-2.83-3,0,.14a2.73,2.73,0,0,0,2.43,2.09,3,3,0,0,0,2.78-1.16,2.31,2.31,0,0,1-2.8-.75h0l-.1-.22a1.08,1.08,0,0,1-.08-.19l-5-28.31a2.71,2.71,0,0,0-2.42-2.08,3,3,0,0,0-2.79,1.15,2.31,2.31,0,0,1,1.23-.17,2.22,2.22,0,0,1,1.69,1.12l.09.2Z" style="fill:#231f20"></path><path d="M430.6,314.58a1.83,1.83,0,0,0,2,1.21,1.85,1.85,0,0,0,1.43-.93h0l.08-.16,2.78-14.45h0L439.61,286h0a3.28,3.28,0,0,1,6.37.22c0,.12,0,.24,0,.36a1.89,1.89,0,0,0-3.4-.28h0a.77.77,0,0,0-.07.16l-2.79,14.44h0L437,315.16h0a3.27,3.27,0,0,1-6.37-.21C430.6,314.82,430.6,314.7,430.6,314.58Z" style="fill:#fff"></path><path d="M433.81,317.94a3.52,3.52,0,0,1-3.56-2.95c0-.15,0-.28,0-.41l.72-.11a1.52,1.52,0,0,0,2.73.22l.06-.15,5.52-28.63a3.63,3.63,0,0,1,7.08.24c0,.14,0,.28,0,.41l-.71.11a1.51,1.51,0,0,0-1.59-1,1.49,1.49,0,0,0-1.15.74l-5.57,28.78a3.52,3.52,0,0,1-3.12,2.69A2.82,2.82,0,0,1,433.81,317.94Zm-2.44-2a3,3,0,0,0,2.77,1.24,2.79,2.79,0,0,0,2.48-2.12l5.54-28.7a1.33,1.33,0,0,1,.12-.29h0a2.25,2.25,0,0,1,2.93-.9,3,3,0,0,0-2.77-1.24,2.8,2.8,0,0,0-2.48,2.1l-5.63,29-.14.22a2.3,2.3,0,0,1-2.83.73Z" style="fill:#231f20"></path><path d="M437,314.56a1.85,1.85,0,0,1-2,1.16,1.81,1.81,0,0,1-1.41-.93h0c0-.05-.05-.11-.07-.17L431,300.41h0l-2.46-14h0a3.11,3.11,0,0,0-2.74-2.39,3.19,3.19,0,0,0-3.62,2.52c0,.12,0,.24,0,.36a1.91,1.91,0,0,1,3.41-.24h0a.77.77,0,0,1,.07.16l2.5,14.21h0l2.46,14h0a3.12,3.12,0,0,0,2.75,2.38,3.17,3.17,0,0,0,3.61-2.51A2.38,2.38,0,0,0,437,314.56Z" style="fill:#fff"></path><path d="M433.74,317.82a3.57,3.57,0,0,1-3.45-2.41h0l-.06-.3-5-28.25h0l0-.06,0-.07a1.48,1.48,0,0,0-1.09-.68,1.46,1.46,0,0,0-1.61.93l-.71-.14a2.47,2.47,0,0,1,0-.39,3.54,3.54,0,0,1,4-2.83,3.47,3.47,0,0,1,3.06,2.68l5,28.31a1.45,1.45,0,0,0,1.13.74,1.5,1.5,0,0,0,1.6-.92l.72.12a2.12,2.12,0,0,1,0,.42A3.5,3.5,0,0,1,433.74,317.82Zm-2.82-2.93,0,.09a2.72,2.72,0,0,0,2.42,2.09,3,3,0,0,0,2.78-1.16,2.38,2.38,0,0,1-1.22.18,2.25,2.25,0,0,1-1.57-.93h0l-.11-.21a1.31,1.31,0,0,1-.08-.21l-5-28.3a2.72,2.72,0,0,0-2.43-2.08,3,3,0,0,0-2.78,1.15,2.4,2.4,0,0,1,1.23-.17,2.22,2.22,0,0,1,1.69,1.12l0,.1a.49.49,0,0,1,0,.11Z" style="fill:#231f20"></path><path d="M413.09,314.58a1.9,1.9,0,0,0,3.41.28h0l.07-.16,2.79-14.45h0L422.11,286h0a3.28,3.28,0,0,1,6.37.22c0,.12,0,.24,0,.36a1.89,1.89,0,0,0-3.4-.28h0l-.06.16-2.79,14.44h0l-2.74,14.27h0a3.27,3.27,0,0,1-6.36-.21C413.1,314.82,413.09,314.7,413.09,314.58Z" style="fill:#fff"></path><path d="M416.31,317.94a3.51,3.51,0,0,1-3.56-2.95c0-.15,0-.28,0-.41l.71-.11a1.48,1.48,0,0,0,1.59,1,1.46,1.46,0,0,0,1.14-.74l0,0,0-.09,5.52-28.65a3.49,3.49,0,0,1,3.11-2.68,3.54,3.54,0,0,1,4,2.92c0,.14,0,.28,0,.41l-.72.11a1.46,1.46,0,0,0-1.58-1,1.49,1.49,0,0,0-1.15.74l-.05.11-5.6,29a3.56,3.56,0,0,1-3,2.39A2.82,2.82,0,0,1,416.31,317.94Zm-2.44-2a2.94,2.94,0,0,0,2.77,1.24,2.79,2.79,0,0,0,2.48-2.12l0-.12,5.52-28.58a.91.91,0,0,1,.11-.28,2.27,2.27,0,0,1,3-.91,3,3,0,0,0-2.78-1.24,2.77,2.77,0,0,0-2.47,2.1l-5.54,28.71a1.28,1.28,0,0,1-.1.26l-.13.21a2.23,2.23,0,0,1-1.59.93A2.33,2.33,0,0,1,413.87,316Z" style="fill:#231f20"></path><path d="M536.44,313.71a1.73,1.73,0,0,0,1.87,1.17,1.78,1.78,0,0,0,1.38-.91h0c0-.05,0-.1.07-.16l2.69-14h0L545.1,286h0a3.11,3.11,0,0,1,6.07.2,2.17,2.17,0,0,1,0,.36,1.7,1.7,0,0,0-1.87-1.18,1.74,1.74,0,0,0-1.37.9h0c0,.05-.05.1-.08.16l-2.69,14h0l-2.65,13.84h0a3,3,0,0,1-2.67,2.32,3,3,0,0,1-3.41-2.52C536.44,313.94,536.44,313.82,536.44,313.71Z" style="fill:#fff"></path><path d="M539.48,317a3.36,3.36,0,0,1-3.39-2.87c0-.15,0-.28,0-.41l.72-.09a1.38,1.38,0,0,0,1.48.92,1.45,1.45,0,0,0,1.08-.69v0l.06-.13,5.41-28.08a3.48,3.48,0,0,1,6.71.52,3.1,3.1,0,0,1,0,.42l-.72.09a1.4,1.4,0,0,0-1.48-.92,1.43,1.43,0,0,0-1.05.64h0l0,.09,0,.11-5.32,27.79a3.4,3.4,0,0,1-3,2.61Zm-2.27-1.9a2.84,2.84,0,0,0,2.61,1.15,2.71,2.71,0,0,0,2.36-2l5.33-27.84.07-.18,0-.09a2.12,2.12,0,0,1,1.64-1.1,2.23,2.23,0,0,1,1.15.17,2.83,2.83,0,0,0-2.6-1.15,2.66,2.66,0,0,0-2.35,2l-.07.29-5.28,27.56-.07.17,0,.09a2.15,2.15,0,0,1-1.66,1.1A2.29,2.29,0,0,1,537.21,315.07Z" style="fill:#231f20"></path><path d="M419.49,315a1.9,1.9,0,0,1-3.41.23h0c0-.05-.05-.1-.07-.16l-2.49-14.21h0l-2.47-14h0a3.09,3.09,0,0,0-2.74-2.38,3.17,3.17,0,0,0-3.62,2.51c0,.12,0,.24,0,.36a1.87,1.87,0,0,1,2-1.17,1.84,1.84,0,0,1,1.41.94h0a1.11,1.11,0,0,1,.07.16l2.49,14.21h0l2.47,14h0a3.11,3.11,0,0,0,2.74,2.39,3.19,3.19,0,0,0,3.62-2.52C419.48,315.2,419.49,315.08,419.49,315Z" style="fill:#fff"></path><path d="M416.27,318.23a3.55,3.55,0,0,1-.46,0,3.46,3.46,0,0,1-3.06-2.68l-5-28.26h0s0,0,0,0l0-.09a1.48,1.48,0,0,0-1.09-.66,1.45,1.45,0,0,0-1.61.92l-.71-.13a2.56,2.56,0,0,1,0-.39,3.56,3.56,0,0,1,4-2.84,3.51,3.51,0,0,1,3,2.39h0l.05.3,5,28.24h0s0,0,0,.06a1.43,1.43,0,0,0,1.13.74,1.48,1.48,0,0,0,1.61-.92l.71.14,0,.38A3.52,3.52,0,0,1,416.27,318.23Zm-5.33-17.17.06.29,2.47,14a2.72,2.72,0,0,0,2.42,2.08,3,3,0,0,0,2.79-1.16,2.32,2.32,0,0,1-1.23.18,2.2,2.2,0,0,1-1.69-1.13.85.85,0,0,1-.09-.22l-5-28.29a2.72,2.72,0,0,0-2.42-2.09,3,3,0,0,0-2.79,1.16,2.38,2.38,0,0,1,1.22-.18,2.18,2.18,0,0,1,1.69,1.12l.05.1,0,.07,0,.11Z" style="fill:#231f20"></path><path d="M395.63,315a1.89,1.89,0,0,0,3.4.29h0l.08-.16,2.78-14.45h0l2.75-14.27h0a3.26,3.26,0,0,1,6.35.22c0,.12,0,.24,0,.37a1.83,1.83,0,0,0-2-1.22,1.85,1.85,0,0,0-1.43.93h0a.8.8,0,0,0-.08.16l-2.78,14.45h0L402,315.57h0a3.27,3.27,0,0,1-6.36-.22C395.63,315.23,395.63,315.1,395.63,315Z" style="fill:#fff"></path><path d="M398.84,318.35a3.51,3.51,0,0,1-3.56-3c0-.14,0-.28,0-.42l.71-.11a1.52,1.52,0,0,0,2.73.24l.07-.16L404.36,286a3.65,3.65,0,0,1,7,.53c0,.15,0,.28,0,.42l-.71.1a1.48,1.48,0,0,0-1.58-1,1.52,1.52,0,0,0-1.12.69l0,.06a.54.54,0,0,0-.05.11l-5.61,29a3.52,3.52,0,0,1-3,2.38Zm-2.44-2a3,3,0,0,0,2.77,1.24,2.79,2.79,0,0,0,2.48-2.11l0-.12,5.52-28.59a1.25,1.25,0,0,1,.06-.18h0l.05-.08a2.22,2.22,0,0,1,1.71-1.12,2.33,2.33,0,0,1,1.24.2,3,3,0,0,0-2.77-1.24,2.79,2.79,0,0,0-2.48,2.11l0,.13-5.62,28.85a2.22,2.22,0,0,1-1.71,1.12A2.27,2.27,0,0,1,396.4,316.36Z" style="fill:#231f20"></path><path d="M401.87,314.82a1.9,1.9,0,0,1-3.4.24h0a1.22,1.22,0,0,1-.07-.17l-2.5-14.21h0l-2.46-14h0a3.09,3.09,0,0,0-2.74-2.38,3.16,3.16,0,0,0-3.61,2.52,2.1,2.1,0,0,0,0,.36,1.86,1.86,0,0,1,2-1.18,1.82,1.82,0,0,1,1.41.94h0l.06.16,2.5,14.22h0l2.46,14h0a3.1,3.1,0,0,0,2.74,2.39,3.19,3.19,0,0,0,3.62-2.52A2.17,2.17,0,0,0,401.87,314.82Z" style="fill:#fff"></path><path d="M398.65,318.09a3.55,3.55,0,0,1-.46,0,3.49,3.49,0,0,1-3-2.38h0l-.05-.3-5-28.25h0l0-.06a1.53,1.53,0,0,0-2.73.18l-.71-.11a3,3,0,0,1,0-.42,3.55,3.55,0,0,1,4-2.82,3.48,3.48,0,0,1,3,2.38h0l.06.3,5,28.25h0l0,.06a1.54,1.54,0,0,0,2.74-.17l.71.12c0,.13,0,.27,0,.39A3.53,3.53,0,0,1,398.65,318.09Zm-2.82-2.93,0,.08a2.74,2.74,0,0,0,2.43,2.1,3,3,0,0,0,2.78-1.16,2.37,2.37,0,0,1-1.22.18,2.2,2.2,0,0,1-1.69-1.14.88.88,0,0,1-.1-.22l-5-28.28a2.71,2.71,0,0,0-2.42-2.1,3,3,0,0,0-2.79,1.16,2.4,2.4,0,0,1,1.23-.18,2.21,2.21,0,0,1,1.69,1.13,1.89,1.89,0,0,1,.09.21Z" style="fill:#231f20"></path><path d="M374.82,303.74l1.54-4.42,10.76-13.86h0a2.72,2.72,0,0,1,2.7-1.63c1.76-.08,3.39.81,3.65,2a2.65,2.65,0,0,1,0,.27,2.1,2.1,0,0,0-2-.94,1.79,1.79,0,0,0-1.4.63h0l-.07.11-14,19.17-1.24-1.32" style="fill:#fff"></path><path d="M376.1,305.63l-1.7-1.8,1.68-4.73,10.71-13.81a3.14,3.14,0,0,1,3-1.83h.25c1.85,0,3.48,1,3.76,2.29,0,.13,0,.23,0,.33l-.7.16a1.67,1.67,0,0,0-1.65-.72,1.53,1.53,0,0,0-1.05.39l-.14.2Zm-.86-2,.79.83,13.77-18.92a2.15,2.15,0,0,1,1.67-.78,2.87,2.87,0,0,1,.88.09,4.21,4.21,0,0,0-2.51-.68,2.45,2.45,0,0,0-2.37,1.36l-.06.13-10.72,13.81Z" style="fill:#231f20"></path><rect x="554.34" y="283.7" width="5.68" height="35.16" style="fill:#fff"></rect><path d="M560.75,319.59h-7.14V283h7.14Zm-5.68-1.46h4.22v-33.7h-4.22Z" style="fill:#231f20"></path><path d="M560.37,283.36h7.81v4.58h-5.26a7.68,7.68,0,0,0-5.74-2.5v-2.08Z" style="fill:#fff"></path><path d="M568.91,288.68h-6.33l-.22-.27a7,7,0,0,0-5-2.24h-.19l-.75,0v-3.56h12.46Zm-5.67-1.47h4.21v-3.12h-9.54v.63A8.48,8.48,0,0,1,563.24,287.21Z" style="fill:#231f20"></path><path d="M560.66,319.94h7.8v-4.58h-5.25a7.67,7.67,0,0,1-5.75,2.5v2.08Z" style="fill:#fff"></path><path d="M569.19,320.67H556.73v-3.56l.76,0h.19a6.9,6.9,0,0,0,5-2.24l.22-.26h6.33Zm-11-1.46h9.53v-3.12h-4.2a8.48,8.48,0,0,1-5.33,2.49Z" style="fill:#231f20"></path><path d="M379.36,317.35H354.3V281.29h25.06Zm-22.13-2.93h19.2V284.21h-19.2Z" style="fill:#231f20"></path></g></g></svg>