<svg xmlns="http://www.w3.org/2000/svg" viewBox="0 0 197.05 59.25"><title>fig-1-3-5</title><g id="fig-1-3-5"><g id="preto"><path d="M14.14,19.85v9H12.91v-9Zm4.88,0L15.63,24l3.64,4.88H17.75L14.21,24l3.41-4.18Z"/><path d="M24.56,23.36A3.79,3.79,0,0,1,25,25.44a3.42,3.42,0,0,1-.55,2,1.8,1.8,0,0,1-1.56.78,1.73,1.73,0,0,1-1.41-.61v2.56l-.94.11V22.75h.8l.08.72a2,2,0,0,1,.71-.63,1.94,1.94,0,0,1,.88-.22A1.67,1.67,0,0,1,24.56,23.36ZM24,25.44c0-1.38-.4-2.07-1.21-2.07a1.21,1.21,0,0,0-.73.24,2.05,2.05,0,0,0-.57.6v2.63a1.41,1.41,0,0,0,.51.49,1.39,1.39,0,0,0,.67.17C23.59,27.5,24,26.81,24,25.44Z"/><path d="M38.91,23.76v-1H43.8v1Zm0,2.51v-1H43.8v1Z"/><rect x="54.1" y="23.57" width="131.34" height="0.5" style="fill:#020200"/><path d="M118.89,7.82a2.93,2.93,0,0,1,.92.59l-.5.57a3,3,0,0,0-.75-.45,2.3,2.3,0,0,0-.79-.14,1.49,1.49,0,0,0-.87.24.83.83,0,0,0-.34.72.94.94,0,0,0,.12.49,1,1,0,0,0,.43.37,5.29,5.29,0,0,0,.93.35,6,6,0,0,1,1,.42,1.75,1.75,0,0,1,.94,1.63,1.84,1.84,0,0,1-1.12,1.74,3,3,0,0,1-1.29.26,3.11,3.11,0,0,1-2.28-.87l.5-.57a3.21,3.21,0,0,0,.84.5,2.33,2.33,0,0,0,.93.17,1.65,1.65,0,0,0,1-.31,1.19,1.19,0,0,0,.28-1.44,1.05,1.05,0,0,0-.43-.4,3.92,3.92,0,0,0-.9-.35,3.84,3.84,0,0,1-1.51-.76,1.53,1.53,0,0,1-.48-1.19,1.57,1.57,0,0,1,.27-.91,1.79,1.79,0,0,1,.75-.63,2.57,2.57,0,0,1,1.1-.23A3.09,3.09,0,0,1,118.89,7.82Z"/><path d="M125.3,8a2.67,2.67,0,0,1,1,1.19,4.54,4.54,0,0,1,.36,1.9,4.47,4.47,0,0,1-.36,1.88,2.57,2.57,0,0,1-2.49,1.61,2.84,2.84,0,0,1-1.49-.4,2.67,2.67,0,0,1-1-1.19,4.49,4.49,0,0,1-.36-1.89,4.54,4.54,0,0,1,.36-1.88,2.68,2.68,0,0,1,1-1.21,2.64,2.64,0,0,1,1.48-.42A2.76,2.76,0,0,1,125.3,8Zm-2.86,1a3.53,3.53,0,0,0-.49,2.08,3.46,3.46,0,0,0,.49,2.06,1.62,1.62,0,0,0,1.36.65c1.24,0,1.86-.9,1.86-2.72S125,8.39,123.8,8.39A1.59,1.59,0,0,0,122.44,9.05Z"/><path d="M130.81,12.08a1.72,1.72,0,0,1,.67.61,1.62,1.62,0,0,1,.23.83,1.44,1.44,0,0,1-.35,1,1.71,1.71,0,0,1-.93.52,1.68,1.68,0,0,1,1.07.47,1.54,1.54,0,0,1,.41,1.12,2,2,0,0,1-.27,1,2,2,0,0,1-.79.72,2.55,2.55,0,0,1-1.17.26,2.75,2.75,0,0,1-1.09-.22,2.27,2.27,0,0,1-.87-.67l.53-.5a2.17,2.17,0,0,0,.66.49,1.67,1.67,0,0,0,.74.16,1.3,1.3,0,0,0,1-.35,1.26,1.26,0,0,0,.35-.93,1.1,1.1,0,0,0-.33-.91,1.51,1.51,0,0,0-1-.27h-.49l.11-.69h.33a1.2,1.2,0,0,0,.85-.31,1.09,1.09,0,0,0,.34-.85.94.94,0,0,0-.3-.73,1.11,1.11,0,0,0-.79-.27,1.78,1.78,0,0,0-.7.14,2.25,2.25,0,0,0-.65.45l-.47-.54a2.71,2.71,0,0,1,1.87-.77A2.25,2.25,0,0,1,130.81,12.08Z"/><path d="M113.06,4.92a2.36,2.36,0,0,1,.87,2A2.43,2.43,0,0,1,113,9a3.87,3.87,0,0,1-2.41.69h-1.08v3.15h-1.19V4.26h2.26A4,4,0,0,1,113.06,4.92Zm-.93,3.44a1.7,1.7,0,0,0,.55-1.44,1.57,1.57,0,0,0-.55-1.33,2.47,2.47,0,0,0-1.55-.41h-1V8.76h1A2.65,2.65,0,0,0,112.13,8.36Z"/><path d="M106.24,38.06l.73.75-1.56,1.56L107,42l-.73.72-1.56-1.61-1.61,1.61-.73-.72,1.56-1.57-1.56-1.61.73-.75,1.56,1.63Z"/><path d="M75.69,42.14a3.45,3.45,0,0,1,1,.62l-.53.6a3,3,0,0,0-.78-.47,2.27,2.27,0,0,0-.83-.15,1.55,1.55,0,0,0-.91.26.87.87,0,0,0-.35.74.89.89,0,0,0,.57.9,6.06,6.06,0,0,0,1,.37,7.16,7.16,0,0,1,1.1.44,1.93,1.93,0,0,1,.71.65,1.83,1.83,0,0,1,.28,1,1.93,1.93,0,0,1-.31,1.09,2,2,0,0,1-.86.73,3.13,3.13,0,0,1-1.35.27A3.27,3.27,0,0,1,72,48.33l.53-.59a3.64,3.64,0,0,0,.87.52,2.55,2.55,0,0,0,1,.18,1.75,1.75,0,0,0,1.08-.32,1.1,1.1,0,0,0,.43-.94,1.16,1.16,0,0,0-.13-.58,1.21,1.21,0,0,0-.45-.41,4.82,4.82,0,0,0-.94-.37A4.06,4.06,0,0,1,72.77,45a1.57,1.57,0,0,1-.5-1.24,1.67,1.67,0,0,1,.28-1,1.86,1.86,0,0,1,.78-.65,2.66,2.66,0,0,1,1.15-.24A3.33,3.33,0,0,1,75.69,42.14Z"/><path d="M82.39,42.37a2.78,2.78,0,0,1,1,1.24,4.78,4.78,0,0,1,.37,2,4.66,4.66,0,0,1-.37,2,2.71,2.71,0,0,1-2.6,1.68,2.89,2.89,0,0,1-1.56-.42,2.79,2.79,0,0,1-1-1.24,4.68,4.68,0,0,1-.37-2,4.74,4.74,0,0,1,.37-2,2.86,2.86,0,0,1,1-1.26,3,3,0,0,1,3.11,0Zm-3,1.07a3.67,3.67,0,0,0-.51,2.17,3.64,3.64,0,0,0,.51,2.15,1.71,1.71,0,0,0,1.43.68c1.3,0,1.94-.95,1.94-2.84s-.64-2.86-1.94-2.86A1.66,1.66,0,0,0,79.4,43.44Z"/><path d="M88.17,46.61a1.8,1.8,0,0,1,1,1.63,2.78,2.78,0,0,1-.28,1.2A6.17,6.17,0,0,1,88,50.68c-.38.44-1,1.06-1.76,1.85h3.07l-.11.79h-4v-.75c.92-1,1.56-1.64,1.94-2.08a5.59,5.59,0,0,0,.82-1.15,2.27,2.27,0,0,0,.25-1.06,1.09,1.09,0,0,0-.31-.83,1.12,1.12,0,0,0-.82-.3,1.43,1.43,0,0,0-.73.17,3,3,0,0,0-.68.57L85,47.4a2.81,2.81,0,0,1,.93-.78,2.51,2.51,0,0,1,1.14-.25A2.32,2.32,0,0,1,88.17,46.61Z"/><path d="M73.07,36.12A2.44,2.44,0,0,1,74,38.2,2.55,2.55,0,0,1,73,40.38a4.11,4.11,0,0,1-2.53.72H69.38v3.3H68.14v-9H70.5A4.09,4.09,0,0,1,73.07,36.12Zm-1,3.59a1.77,1.77,0,0,0,.56-1.5,1.68,1.68,0,0,0-.56-1.4,2.69,2.69,0,0,0-1.62-.43H69.38v3.74h1.08A2.83,2.83,0,0,0,72.11,39.71Z"/><path d="M136.78,42.37a2.85,2.85,0,0,1,1,1.24,4.78,4.78,0,0,1,.37,2,4.66,4.66,0,0,1-.37,2,2.88,2.88,0,0,1-1,1.25,2.81,2.81,0,0,1-1.56.43,2.89,2.89,0,0,1-1.56-.42,2.73,2.73,0,0,1-1-1.24,4.68,4.68,0,0,1-.37-2,4.74,4.74,0,0,1,.37-2,2.86,2.86,0,0,1,1-1.26,3,3,0,0,1,3.11,0Zm-3,1.07a3.67,3.67,0,0,0-.51,2.17,3.64,3.64,0,0,0,.51,2.15,1.71,1.71,0,0,0,1.43.68c1.29,0,1.94-.95,1.94-2.84s-.65-2.86-1.94-2.86A1.66,1.66,0,0,0,133.79,43.44Z"/><path d="M142.13,46.61a1.8,1.8,0,0,1,1,1.63,2.78,2.78,0,0,1-.28,1.2,6.17,6.17,0,0,1-.87,1.24c-.39.44-1,1.06-1.77,1.85h3.08l-.11.79h-4v-.75c.91-1,1.56-1.64,1.94-2.08a5.59,5.59,0,0,0,.82-1.15,2.27,2.27,0,0,0,.25-1.06,1.13,1.13,0,0,0-.31-.83,1.12,1.12,0,0,0-.82-.3,1.43,1.43,0,0,0-.73.17,2.77,2.77,0,0,0-.68.57L139,47.4a2.81,2.81,0,0,1,.93-.78,2.51,2.51,0,0,1,1.14-.25A2.32,2.32,0,0,1,142.13,46.61Z"/><path d="M171.05,31.21a1.8,1.8,0,0,1,1,1.63,2.64,2.64,0,0,1-.28,1.2,6.17,6.17,0,0,1-.87,1.24c-.38.44-1,1.06-1.76,1.85h3.07l-.11.79h-4v-.75c.92-1,1.56-1.64,1.94-2.08a5.59,5.59,0,0,0,.82-1.15,2.27,2.27,0,0,0,.25-1.06,1.09,1.09,0,0,0-.31-.83,1.12,1.12,0,0,0-.82-.3,1.43,1.43,0,0,0-.73.17,3,3,0,0,0-.68.57L167.9,32a2.94,2.94,0,0,1,.93-.78A2.51,2.51,0,0,1,170,31,2.32,2.32,0,0,1,171.05,31.21Z"/><path d="M158.78,31.07v6.85h-.94V32.07l-1.59,1-.41-.67L158,31.07Z"/><path d="M132.14,36.12a2.43,2.43,0,0,1,.91,2.08,2.55,2.55,0,0,1-1,2.18,4.07,4.07,0,0,1-2.52.72h-1.14v3.3h-1.23v-9h2.35A4.15,4.15,0,0,1,132.14,36.12Zm-1,3.59a1.75,1.75,0,0,0,.56-1.5,1.65,1.65,0,0,0-.56-1.4,2.69,2.69,0,0,0-1.62-.43h-1.11v3.74h1.08A2.83,2.83,0,0,0,131.17,39.71Z"/><line x1="160.92" y1="40.4" x2="167.64" y2="28.14"/><rect x="157.3" y="33.89" width="13.98" height="0.75" transform="translate(55.33 161.91) rotate(-61.3)" style="fill:#020200"/></g></g></svg>