<svg xmlns="http://www.w3.org/2000/svg" xmlns:xlink="http://www.w3.org/1999/xlink" viewBox="0 0 730 641.65"><defs><clipPath id="clip-path"><rect x="239.53" y="50.68" width="15.29" height="436.95" style="fill:none"/></clipPath><linearGradient id="Gradiente_sem_nome_13" x1="-2760.03" y1="678.37" x2="-2756.75" y2="678.37" gradientTransform="matrix(4.67, 0, 0, -4.67, 13120.56, 3435.12)" gradientUnits="userSpaceOnUse"><stop offset="0" stop-color="#6827ab"/><stop offset="0.08" stop-color="#6a2aac"/><stop offset="0.15" stop-color="#7135af"/><stop offset="0.21" stop-color="#7d46b5"/><stop offset="0.27" stop-color="#8d5ebd"/><stop offset="0.33" stop-color="#a27ec8"/><stop offset="0.39" stop-color="#bca5d4"/><stop offset="0.44" stop-color="#dad2e3"/><stop offset="0.47" stop-color="#ececec"/><stop offset="0.49" stop-color="#e5e2e9"/><stop offset="0.59" stop-color="#bfa9d6"/><stop offset="0.69" stop-color="#a07bc7"/><stop offset="0.78" stop-color="#8856bb"/><stop offset="0.86" stop-color="#763cb2"/><stop offset="0.94" stop-color="#6c2dad"/><stop offset="1" stop-color="#6827ab"/></linearGradient><clipPath id="clip-path-2"><rect x="431.38" y="50.68" width="15.29" height="436.95" style="fill:none"/></clipPath><linearGradient id="Gradiente_sem_nome_19" x1="-2731.46" y1="678.37" x2="-2728.19" y2="678.37" gradientTransform="matrix(4.67, 0, 0, -4.67, 13179.1, 3435.12)" gradientUnits="userSpaceOnUse"><stop offset="0" stop-color="#e55843"/><stop offset="0.1" stop-color="#e65b46"/><stop offset="0.17" stop-color="#e86350"/><stop offset="0.24" stop-color="#ec7160"/><stop offset="0.3" stop-color="#f18478"/><stop offset="0.31" stop-color="#f2887c"/><stop offset="0.5" stop-color="#ededed"/><stop offset="0.5" stop-color="#edeaea"/><stop offset="0.59" stop-color="#eabeb8"/><stop offset="0.68" stop-color="#e99a8e"/><stop offset="0.77" stop-color="#e77d6d"/><stop offset="0.85" stop-color="#e66956"/><stop offset="0.93" stop-color="#e55c48"/><stop offset="1" stop-color="#e55843"/></linearGradient><clipPath id="clip-path-3"><rect x="2.5" y="14.45" width="725" height="612.75" style="fill:none"/></clipPath></defs><title>fig-2-8</title><g id="fig-2-8"><rect x="336.89" y="148.36" width="16.39" height="357.75" style="fill:#a1f000"/><polygon points="216.32 91.1 216.32 148.45 209.77 148.45 209.77 238.16 155.69 238.16 155.69 225.47 191.74 225.47 191.74 123.06 208.95 123.06 208.95 91.1 216.32 91.1" style="fill:#9d9d9c"/><polygon points="469.62 91.1 469.62 148.45 476.17 148.45 476.17 238.16 530.24 238.16 530.24 225.47 494.19 225.47 494.19 123.06 476.99 123.06 476.99 91.1 469.62 91.1" style="fill:#9d9d9c"/><polyline points="155.69 247.59 209.36 247.59 209.36 506.48 259.74 506.48 259.74 576.53 172.08 576.53 172.08 563.42 242.13 563.42 242.13 530.65 188.88 530.65 188.88 258.78 155.69 258.78 155.69 246.08" style="fill:#9d9d9c"/><polygon points="172.49 584.31 172.49 599.06 286.1 599.06 286.1 530.78 398.06 530.78 398.06 599.06 511.12 599.06 511.12 586.5 416.63 586.5 416.63 505.11 268.62 505.11 268.35 584.41 172.49 584.31" style="fill:#9d9d9c"/><polygon points="511.13 562.19 511.13 575.57 423.74 575.57 423.74 505.11 476.44 505.11 476.44 246.22 530.24 246.22 530.24 259.06 495.83 259.06 495.83 505.11 495.83 524.23 495.83 528.87 443.94 528.87 443.94 562.19 511.13 562.19" style="fill:#9d9d9c"/><polygon points="224.92 91.1 234.75 91.1 234.75 136.44 451.59 136.44 451.59 91.1 461.97 91.1 461.97 147.36 224.92 147.36 224.92 91.1" style="fill:#9d9d9c"/><g style="clip-path:url(#clip-path)"><rect x="239.53" y="50.68" width="15.29" height="436.95" style="fill:url(#Gradiente_sem_nome_13)"/></g><rect x="239.53" y="50.68" width="15.29" height="436.95" style="fill:none;stroke:#1d1d1b;stroke-width:0.5px"/><g style="clip-path:url(#clip-path-2)"><rect x="431.38" y="50.68" width="15.29" height="436.95" style="fill:url(#Gradiente_sem_nome_19)"/></g><g style="clip-path:url(#clip-path-3)"><path d="M446.68,487.63h-15.3V50.68h15.3Z" style="fill:none;stroke:#1d1d1b;stroke-width:0.5px"/></g><g id="preto"><polygon points="353.53 505.36 350 505.36 350 504.86 353.03 504.86 353.03 501.83 353.53 501.83 353.53 505.36" style="fill:#1d1d1b"/><path d="M346.72,505.36h-.5v-.5h.5Zm-1,0h-.5v-.5h.5Zm-1,0h-.5v-.5h.5Zm-1,0h-.5v-.5h.5Zm-1,0h-.5v-.5h.5Z" style="fill:#1d1d1b"/><polygon points="340.17 505.36 336.64 505.36 336.64 501.83 337.14 501.83 337.14 504.86 340.17 504.86 340.17 505.36" style="fill:#1d1d1b"/><path d="M337.14,495.21h-.5v-2h.5Zm0-4.08h-.5v-2.05h.5Zm0-4.09h-.5v-2h.5Zm0-4.08h-.5v-2h.5Zm0-4.09h-.5v-2h.5Zm0-4.08h-.5v-2h.5Zm0-4.08h-.5v-2h.5Zm0-4.09h-.5v-2h.5Zm0-4.08h-.5v-2h.5Zm0-4.09h-.5v-2h.5Zm0-4.08h-.5v-2h.5Zm0-4.08h-.5v-2.05h.5Zm0-4.09h-.5v-2h.5Zm0-4.08h-.5v-2h.5Zm0-4.09h-.5v-2h.5Zm0-4.08h-.5v-2h.5Zm0-4.08h-.5v-2.05h.5Zm0-4.09h-.5v-2h.5Zm0-4.08h-.5v-2h.5Zm0-4.09h-.5v-2h.5Zm0-4.08h-.5v-2h.5Zm0-4.08h-.5V407.4h.5Zm0-4.09h-.5v-2h.5Zm0-4.08h-.5v-2h.5Zm0-4.09h-.5v-2h.5Zm0-4.08h-.5v-2h.5Zm0-4.08h-.5v-2h.5Zm0-4.09h-.5v-2h.5Zm0-4.08h-.5v-2h.5Zm0-4.09h-.5v-2h.5Zm0-4.08h-.5v-2h.5Zm0-4.08h-.5v-2.05h.5Zm0-4.09h-.5v-2h.5Zm0-4.08h-.5v-2h.5Zm0-4.09h-.5v-2h.5Zm0-4.08h-.5v-2h.5Zm0-4.08h-.5v-2.05h.5Zm0-4.09h-.5v-2h.5Zm0-4.08h-.5v-2h.5Zm0-4.09h-.5v-2h.5Zm0-4.08h-.5v-2h.5Zm0-4.08h-.5v-2h.5Zm0-4.09h-.5v-2h.5Zm0-4.08h-.5v-2h.5Zm0-4.09h-.5v-2h.5Zm0-4.08h-.5v-2h.5Zm0-4.08h-.5V305.3h.5Zm0-4.09h-.5v-2h.5Zm0-4.08h-.5v-2h.5Zm0-4.09h-.5v-2h.5Zm0-4.08h-.5v-2h.5Zm0-4.08h-.5v-2.05h.5Zm0-4.09h-.5v-2h.5Zm0-4.08h-.5v-2h.5Zm0-4.09h-.5v-2h.5Zm0-4.08h-.5v-2h.5Zm0-4.08h-.5v-2.05h.5Zm0-4.09h-.5v-2h.5Zm0-4.08h-.5v-2h.5Zm0-4.09h-.5v-2h.5Zm0-4.08h-.5v-2h.5Zm0-4.08h-.5V244h.5Zm0-4.09h-.5v-2h.5Zm0-4.08h-.5v-2h.5Zm0-4.09h-.5v-2h.5Zm0-4.08h-.5v-2h.5Zm0-4.08h-.5v-2h.5Zm0-4.09h-.5v-2h.5Zm0-4.08h-.5v-2h.5Zm0-4.09h-.5v-2h.5Zm0-4.08h-.5v-2h.5Zm0-4.08h-.5V203.2h.5Zm0-4.09h-.5v-2h.5Zm0-4.08h-.5v-2h.5Zm0-4.09h-.5v-2h.5Zm0-4.08h-.5v-2h.5Zm0-4.08h-.5v-2.05h.5Zm0-4.09h-.5v-2h.5Zm0-4.08h-.5v-2h.5Zm0-4.09h-.5v-2h.5Zm0-4.08h-.5v-2h.5Zm0-4.08h-.5v-2h.5Zm0-4.09h-.5v-2h.5Zm0-4.08h-.5v-2h.5Z" style="fill:#1d1d1b"/><polygon points="337.14 150.64 336.64 150.64 336.64 147.11 340.17 147.11 340.17 147.61 337.14 147.61 337.14 150.64" style="fill:#1d1d1b"/><path d="M348,147.61h-.5v-.5h.5Zm-1,0h-.5v-.5h.5Zm-1,0h-.5v-.5h.5Zm-1,0h-.5v-.5h.5Zm-1,0h-.5v-.5h.5Z" style="fill:#1d1d1b"/><polygon points="353.53 150.64 353.03 150.64 353.03 147.61 350 147.61 350 147.11 353.53 147.11 353.53 150.64" style="fill:#1d1d1b"/><path d="M353.53,498.28H353v-2h.5Zm0-4.09H353v-2h.5Zm0-4.08H353v-2h.5Zm0-4.09H353v-2h.5Zm0-4.08H353v-2h.5Zm0-4.08H353v-2.05h.5Zm0-4.09H353v-2h.5Zm0-4.08H353v-2h.5Zm0-4.09H353v-2h.5Zm0-4.08H353v-2h.5Zm0-4.08H353v-2.05h.5Zm0-4.09H353v-2h.5Zm0-4.08H353v-2h.5Zm0-4.09H353v-2h.5Zm0-4.08H353v-2h.5Zm0-4.08H353v-2h.5Zm0-4.09H353v-2h.5Zm0-4.08H353v-2h.5Zm0-4.09H353v-2h.5Zm0-4.08H353v-2h.5Zm0-4.08H353v-2.05h.5Zm0-4.09H353v-2h.5Zm0-4.08H353v-2h.5Zm0-4.09H353v-2h.5Zm0-4.08H353v-2h.5Zm0-4.08H353v-2.05h.5Zm0-4.09H353v-2h.5Zm0-4.08H353v-2h.5Zm0-4.09H353v-2h.5Zm0-4.08H353v-2h.5Zm0-4.08H353v-2.05h.5Zm0-4.09H353v-2h.5Zm0-4.08H353v-2h.5Zm0-4.09H353v-2h.5Zm0-4.08H353v-2h.5Zm0-4.08H353v-2h.5Zm0-4.09H353v-2h.5Zm0-4.08H353v-2h.5Zm0-4.09H353v-2h.5Zm0-4.08H353v-2h.5Zm0-4.08H353v-2.05h.5Zm0-4.09H353v-2h.5Zm0-4.08H353v-2h.5Zm0-4.09H353v-2h.5Zm0-4.08H353v-2h.5Zm0-4.08H353v-2.05h.5Zm0-4.09H353v-2h.5Zm0-4.08H353v-2h.5Zm0-4.09H353v-2h.5Zm0-4.08H353v-2h.5Zm0-4.08H353V292h.5Zm0-4.09H353v-2h.5Zm0-4.08H353v-2h.5Zm0-4.08H353v-2.05h.5Zm0-4.09H353v-2h.5Zm0-4.08H353v-2h.5Zm0-4.09H353v-2h.5Zm0-4.08H353v-2h.5Zm0-4.08H353v-2.05h.5Zm0-4.09H353v-2h.5Zm0-4.08H353v-2h.5Zm0-4.09H353v-2h.5Zm0-4.08H353v-2h.5Zm0-4.08H353v-2.05h.5Zm0-4.09H353v-2h.5Zm0-4.08H353v-2h.5Zm0-4.09H353v-2h.5Zm0-4.08H353v-2h.5Zm0-4.08H353v-2h.5Zm0-4.09H353v-2h.5Zm0-4.08H353v-2.05h.5Zm0-4.09H353v-2h.5Zm0-4.08H353v-2h.5Zm0-4.09H353v-2h.5Zm0-4.08H353v-2h.5Zm0-4.08H353v-2h.5Zm0-4.09H353v-2h.5Zm0-4.08H353v-2h.5Zm0-4.09H353v-2h.5Zm0-4.08H353v-2h.5Zm0-4.08H353v-2.05h.5Zm0-4.09H353v-2h.5Zm0-4.08H353v-2h.5Zm0-4.09H353v-2h.5Z" style="fill:#1d1d1b"/><rect x="435.05" y="24.75" width="7.96" height="1.78" style="fill:#1d1d1b"/><path d="M247.18,36.84a10.63,10.63,0,1,1,10.63-10.63A10.64,10.64,0,0,1,247.18,36.84Zm0-20.76a10.13,10.13,0,1,0,10.13,10.13A10.15,10.15,0,0,0,247.18,16.08Z" style="fill:#1d1d1b"/><polygon points="246.29 26.79 241.13 26.79 241.13 25.19 246.29 25.19 246.29 20.05 248.07 20.05 248.07 25.19 253.24 25.19 253.24 26.79 248.07 26.79 248.07 32.37 246.29 32.37 246.29 26.79" style="fill:#1d1d1b"/><rect x="466.09" y="56.42" width="0.5" height="34.69" style="fill:#1d1d1b"/><path d="M464.66,52.55a68.52,68.52,0,0,1-2.45,6.64h8.27A65,65,0,0,1,468,52.55a48.46,48.46,0,0,1-1.68-7.24,50,50,0,0,1-1.69,7.24" style="fill:#1d1d1b"/><rect x="224.67" y="269.16" width="0.5" height="34.69" style="fill:#1d1d1b"/><path d="M223.24,265.29c-.82,2.71-1.57,4.47-2.44,6.64h8.26a68.25,68.25,0,0,1-2.44-6.64,48.92,48.92,0,0,1-1.69-7.23,47.66,47.66,0,0,1-1.69,7.23" style="fill:#1d1d1b"/><rect x="461.72" y="260.97" width="0.5" height="34.69" style="fill:#1d1d1b"/><path d="M463.65,299.52c.82-2.71,1.57-4.47,2.44-6.64h-8.26a65.63,65.63,0,0,1,2.44,6.64,47.66,47.66,0,0,1,1.69,7.23,47.66,47.66,0,0,1,1.69-7.23" style="fill:#1d1d1b"/><rect x="344.84" y="479.17" width="0.5" height="119.21" style="fill:#1d1d1b"/><path d="M343.41,475.3c-.82,2.7-1.58,4.46-2.45,6.64h8.27a66,66,0,0,1-2.45-6.64,48.46,48.46,0,0,1-1.68-7.24,50,50,0,0,1-1.69,7.24" style="fill:#1d1d1b"/><rect x="220.58" y="56.42" width="0.5" height="34.69" style="fill:#1d1d1b"/><path d="M219.15,52.55a68.52,68.52,0,0,1-2.45,6.64H225a63.2,63.2,0,0,1-2.44-6.64,47.47,47.47,0,0,1-1.69-7.24,50,50,0,0,1-1.69,7.24" style="fill:#1d1d1b"/><rect x="115.69" y="242.15" width="34.68" height="0.5" style="fill:#1d1d1b"/><path d="M111.82,244.08c2.71.82,4.47,1.57,6.64,2.44v-8.26a67.23,67.23,0,0,1-6.64,2.44,48.92,48.92,0,0,1-7.23,1.69,47.66,47.66,0,0,1,7.23,1.69" style="fill:#1d1d1b"/><rect x="321.05" y="297.72" width="26.35" height="0.5" style="fill:#1d1d1b"/><path d="M351.28,296.29a68.52,68.52,0,0,1-6.64-2.45v8.27a62.33,62.33,0,0,1,6.64-2.44,47.66,47.66,0,0,1,7.23-1.69,48.92,48.92,0,0,1-7.23-1.69" style="fill:#1d1d1b"/><rect x="532.82" y="242.14" width="34.69" height="0.5" style="fill:#1d1d1b"/><path d="M571.38,240.71a69.88,69.88,0,0,1-6.65-2.44v8.26a68.72,68.72,0,0,1,6.65-2.44,48.66,48.66,0,0,1,7.23-1.68,49.18,49.18,0,0,1-7.23-1.7" style="fill:#1d1d1b"/><rect x="128.66" y="580.78" width="34.68" height="0.5" style="fill:#1d1d1b"/><path d="M167.22,579.35a68.63,68.63,0,0,1-6.64-2.44v8.26a64.68,64.68,0,0,1,6.64-2.44,50.24,50.24,0,0,1,7.23-1.69,47.66,47.66,0,0,1-7.23-1.69" style="fill:#1d1d1b"/><rect x="517.37" y="580.78" width="34.69" height="0.5" style="fill:#1d1d1b"/><path d="M513.5,582.71c2.71.82,4.47,1.57,6.64,2.44v-8.26a65,65,0,0,1-6.64,2.45,48.46,48.46,0,0,1-7.24,1.68,48.71,48.71,0,0,1,7.24,1.69" style="fill:#1d1d1b"/><path d="M12.23,224.18a6.81,6.81,0,0,1,2,1.27l-1.09,1.22a6.57,6.57,0,0,0-1.61-1,4.66,4.66,0,0,0-1.69-.3,3.15,3.15,0,0,0-1.87.52,1.78,1.78,0,0,0-.73,1.54,2.05,2.05,0,0,0,.25,1.06,2.32,2.32,0,0,0,.94.79,12.15,12.15,0,0,0,2,.75,13.06,13.06,0,0,1,2.27.9,4,4,0,0,1,1.46,1.34,3.86,3.86,0,0,1,.56,2.15,4.09,4.09,0,0,1-.62,2.23,4.25,4.25,0,0,1-1.79,1.51,6.53,6.53,0,0,1-2.76.54,6.74,6.74,0,0,1-4.91-1.86l1.09-1.22a7.31,7.31,0,0,0,1.78,1.08,5.42,5.42,0,0,0,2,.37,3.53,3.53,0,0,0,2.22-.67,2.25,2.25,0,0,0,.89-1.92,2.1,2.1,0,0,0-1.21-2,9,9,0,0,0-1.92-.76,8.49,8.49,0,0,1-3.26-1.62,3.32,3.32,0,0,1-1-2.56,3.44,3.44,0,0,1,.58-2,3.87,3.87,0,0,1,1.62-1.35,5.56,5.56,0,0,1,2.36-.48A6.78,6.78,0,0,1,12.23,224.18Z" style="fill:#1d1d1b"/><path d="M25.21,236.91a1.4,1.4,0,0,0,.69.49l-.44,1.34a3,3,0,0,1-1.39-.48,2.21,2.21,0,0,1-.78-1.17A3.71,3.71,0,0,1,20,238.74a3.54,3.54,0,0,1-2.59-.92,3.22,3.22,0,0,1-.94-2.41,3.16,3.16,0,0,1,1.27-2.71,6,6,0,0,1,3.6-.95H23v-.82a2.19,2.19,0,0,0-.56-1.68,2.61,2.61,0,0,0-1.75-.5,9.55,9.55,0,0,0-3,.59l-.48-1.41a11.21,11.21,0,0,1,3.82-.76,4,4,0,0,1,2.92,1,3.67,3.67,0,0,1,1,2.72v5.06A1.7,1.7,0,0,0,25.21,236.91ZM23,235.57V233H21.59c-2,0-3.06.76-3.06,2.27a2.07,2.07,0,0,0,.48,1.49,1.88,1.88,0,0,0,1.43.51A2.89,2.89,0,0,0,23,235.57Z" style="fill:#1d1d1b"/><path d="M29.46,238.1a2.46,2.46,0,0,1-.62-1.79V223l1.93-.23v13.53a1.1,1.1,0,0,0,.16.67.61.61,0,0,0,.53.21,1.81,1.81,0,0,0,.72-.13l.5,1.35a3.15,3.15,0,0,1-1.53.37A2.23,2.23,0,0,1,29.46,238.1Z" style="fill:#1d1d1b"/><path d="M48.39,228.09a3.53,3.53,0,0,1,.82,2.46v7.94H47.28v-7.66c0-1.43-.52-2.14-1.56-2.14a2.06,2.06,0,0,0-1.38.47,6.38,6.38,0,0,0-1.22,1.48v7.85H41.19v-7.66c0-1.43-.52-2.14-1.56-2.14a2.07,2.07,0,0,0-1.4.48,6.47,6.47,0,0,0-1.2,1.47v7.85H35.1V227.43h1.66l.16,1.61a3.73,3.73,0,0,1,3.2-1.87,2.8,2.8,0,0,1,2.79,2,5,5,0,0,1,1.44-1.48,3.33,3.33,0,0,1,1.86-.52A2.79,2.79,0,0,1,48.39,228.09Z" style="fill:#1d1d1b"/><path d="M60.87,228.73a6.34,6.34,0,0,1,1.3,4.22,7.34,7.34,0,0,1-.59,3,4.57,4.57,0,0,1-1.7,2,4.78,4.78,0,0,1-2.65.72,4.47,4.47,0,0,1-3.63-1.55A6.36,6.36,0,0,1,52.3,233a7.43,7.43,0,0,1,.58-3,4.62,4.62,0,0,1,1.71-2,4.79,4.79,0,0,1,2.66-.73A4.43,4.43,0,0,1,60.87,228.73ZM54.38,233q0,4.22,2.85,4.22T60.09,233c0-2.82-1-4.22-2.84-4.22S54.38,230.14,54.38,233Z" style="fill:#1d1d1b"/><path d="M73.59,238.49H71.93l-.15-1.72a4.11,4.11,0,0,1-1.45,1.5,3.86,3.86,0,0,1-2,.47,2.94,2.94,0,0,1-2.27-.88,3.57,3.57,0,0,1-.82-2.5v-7.93h1.94v7.72a2.57,2.57,0,0,0,.39,1.61,1.64,1.64,0,0,0,1.31.47,3.28,3.28,0,0,0,2.77-1.91v-7.89h1.93Z" style="fill:#1d1d1b"/><path d="M83.48,227.3l-.36,1.89a4.1,4.1,0,0,0-1-.13,2.07,2.07,0,0,0-1.66.76,5.63,5.63,0,0,0-1,2.35v6.32H77.58V227.43h1.66l.19,2.24a4.23,4.23,0,0,1,1.19-1.87,2.7,2.7,0,0,1,1.77-.63A4.72,4.72,0,0,1,83.48,227.3Z" style="fill:#1d1d1b"/><path d="M93.37,236.91a1.5,1.5,0,0,0,.69.49l-.44,1.34a3,3,0,0,1-1.38-.48,2.21,2.21,0,0,1-.78-1.17,3.72,3.72,0,0,1-3.3,1.65,3.51,3.51,0,0,1-2.58-.92,3.22,3.22,0,0,1-.94-2.41,3.16,3.16,0,0,1,1.27-2.71,5.91,5.91,0,0,1,3.6-.95h1.7v-.82a2.16,2.16,0,0,0-.57-1.68,2.6,2.6,0,0,0-1.74-.5,9.49,9.49,0,0,0-3,.59l-.49-1.41a11.31,11.31,0,0,1,3.83-.76,4,4,0,0,1,2.91,1,3.63,3.63,0,0,1,1,2.72v5.06A1.78,1.78,0,0,0,93.37,236.91Zm-2.16-1.34V233H89.76c-2.05,0-3.07.76-3.07,2.27a2,2,0,0,0,.49,1.49,1.85,1.85,0,0,0,1.42.51A2.89,2.89,0,0,0,91.21,235.57Z" style="fill:#1d1d1b"/><path d="M40.64,250.43V266h-1.7l-.19-1.53a4,4,0,0,1-1.36,1.31,3.82,3.82,0,0,1-4.91-1.08,7.14,7.14,0,0,1-1.1-4.18,7.94,7.94,0,0,1,.53-3,4.62,4.62,0,0,1,1.51-2.07,3.7,3.7,0,0,1,2.31-.75,4,4,0,0,1,3,1.37v-5.8Zm-3.15,13.83A4.59,4.59,0,0,0,38.71,263v-5.41a4.24,4.24,0,0,0-1.17-1.09,2.72,2.72,0,0,0-1.39-.36,2.23,2.23,0,0,0-2,1.07,5.85,5.85,0,0,0-.7,3.19,6.21,6.21,0,0,0,.65,3.19A2.07,2.07,0,0,0,36,264.67,2.73,2.73,0,0,0,37.49,264.26Z" style="fill:#1d1d1b"/><path d="M46.56,250a1.3,1.3,0,0,1,.38,1,1.25,1.25,0,0,1-.38.93,1.33,1.33,0,0,1-1,.37,1.3,1.3,0,0,1-1-.37,1.25,1.25,0,0,1-.38-.93,1.3,1.3,0,0,1,.38-1,1.31,1.31,0,0,1,1-.38A1.33,1.33,0,0,1,46.56,250Zm0,4.94V266H44.63V254.89Z" style="fill:#1d1d1b"/><path d="M51.07,265.56a2.42,2.42,0,0,1-.62-1.79V250.43l1.93-.23v13.53a1.1,1.1,0,0,0,.16.67.61.61,0,0,0,.53.21,1.81,1.81,0,0,0,.72-.13l.5,1.35a3.15,3.15,0,0,1-1.53.37A2.22,2.22,0,0,1,51.07,265.56Z" style="fill:#1d1d1b"/><path d="M64.94,266H63.28l-.15-1.72a4.11,4.11,0,0,1-1.45,1.5,3.86,3.86,0,0,1-2,.47,2.94,2.94,0,0,1-2.27-.88,3.52,3.52,0,0,1-.82-2.5v-7.93h1.93v7.72a2.56,2.56,0,0,0,.4,1.61,1.64,1.64,0,0,0,1.3.47A3.28,3.28,0,0,0,63,262.78v-7.89h1.93Z" style="fill:#1d1d1b"/><path d="M71.55,249.13l.86,1.62L68,252.55l-.59-1Zm-.69,5.76V266H68.93V254.89Z" style="fill:#1d1d1b"/><path d="M83.42,250.43V266h-1.7l-.19-1.53a4,4,0,0,1-1.37,1.31,3.5,3.5,0,0,1-1.82.47,3.54,3.54,0,0,1-3.08-1.55,7.07,7.07,0,0,1-1.1-4.18,8.14,8.14,0,0,1,.52-3,4.7,4.7,0,0,1,1.51-2.07,3.72,3.72,0,0,1,2.31-.75,4,4,0,0,1,3,1.37v-5.8Zm-3.15,13.83A4.74,4.74,0,0,0,81.49,263v-5.41a4.38,4.38,0,0,0-1.17-1.09,2.73,2.73,0,0,0-1.4-.36,2.23,2.23,0,0,0-2,1.07,5.85,5.85,0,0,0-.7,3.19,6.11,6.11,0,0,0,.65,3.19,2.06,2.06,0,0,0,1.87,1.05A2.75,2.75,0,0,0,80.27,264.26Z" style="fill:#1d1d1b"/><path d="M95.09,264.37a1.48,1.48,0,0,0,.7.49l-.45,1.34a3,3,0,0,1-1.38-.48,2.21,2.21,0,0,1-.78-1.17,3.72,3.72,0,0,1-3.3,1.65,3.51,3.51,0,0,1-2.58-.92,3.22,3.22,0,0,1-.94-2.41,3.16,3.16,0,0,1,1.27-2.71,5.91,5.91,0,0,1,3.6-1h1.7v-.82a2.16,2.16,0,0,0-.57-1.68,2.58,2.58,0,0,0-1.74-.5,9.49,9.49,0,0,0-3,.59l-.48-1.41a11.21,11.21,0,0,1,3.82-.76,4,4,0,0,1,2.92,1,3.67,3.67,0,0,1,1,2.72v5.06A1.78,1.78,0,0,0,95.09,264.37ZM92.93,263v-2.54H91.48c-2,0-3.07.76-3.07,2.27a2.07,2.07,0,0,0,.49,1.49,1.88,1.88,0,0,0,1.43.51A2.89,2.89,0,0,0,92.93,263Z" style="fill:#1d1d1b"/><path d="M34.49,561.34a7,7,0,0,1,2,1.27l-1.09,1.22a6.22,6.22,0,0,0-1.61-1,4.46,4.46,0,0,0-1.69-.31,3.16,3.16,0,0,0-1.87.53,1.76,1.76,0,0,0-.73,1.53,2.05,2.05,0,0,0,.25,1.06,2.25,2.25,0,0,0,.94.79,11.28,11.28,0,0,0,2,.75,12.27,12.27,0,0,1,2.27.91,3.69,3.69,0,0,1,2,3.48,4.09,4.09,0,0,1-.62,2.23,4.18,4.18,0,0,1-1.79,1.51,6.53,6.53,0,0,1-2.76.55A6.75,6.75,0,0,1,26.87,574L28,572.82a6.73,6.73,0,0,0,1.78,1.08,5.23,5.23,0,0,0,2,.37,3.59,3.59,0,0,0,2.22-.66,2.25,2.25,0,0,0,.89-1.92,2.1,2.1,0,0,0-1.21-2,9.51,9.51,0,0,0-1.92-.76,8.5,8.5,0,0,1-3.26-1.61,3.34,3.34,0,0,1-1-2.57,3.49,3.49,0,0,1,.58-2,3.79,3.79,0,0,1,1.62-1.34,5.56,5.56,0,0,1,2.36-.49A6.78,6.78,0,0,1,34.49,561.34Z" style="fill:#1d1d1b"/><path d="M47.47,574.07a1.34,1.34,0,0,0,.69.49l-.44,1.35a2.86,2.86,0,0,1-1.39-.49,2.21,2.21,0,0,1-.78-1.17,3.72,3.72,0,0,1-3.29,1.66,3.54,3.54,0,0,1-2.59-.93,3.21,3.21,0,0,1-.94-2.41A3.16,3.16,0,0,1,40,569.86a6,6,0,0,1,3.6-1h1.7v-.81a2.2,2.2,0,0,0-.56-1.69,2.61,2.61,0,0,0-1.75-.5,9.84,9.84,0,0,0-3,.59l-.48-1.41a11.18,11.18,0,0,1,3.82-.75,4,4,0,0,1,2.92.95,3.67,3.67,0,0,1,1,2.72v5.06A1.7,1.7,0,0,0,47.47,574.07Zm-2.17-1.33v-2.55H43.85c-2,0-3.06.76-3.06,2.27a2.07,2.07,0,0,0,.48,1.49,1.88,1.88,0,0,0,1.43.51A2.9,2.9,0,0,0,45.3,572.74Z" style="fill:#1d1d1b"/><path d="M51.72,575.27a2.51,2.51,0,0,1-.62-1.8V560.14L53,559.9v13.53a1.08,1.08,0,0,0,.16.67.61.61,0,0,0,.53.21,1.81,1.81,0,0,0,.72-.13l.5,1.35a3.15,3.15,0,0,1-1.53.38A2.27,2.27,0,0,1,51.72,575.27Z" style="fill:#1d1d1b"/><path d="M70.65,565.25a3.54,3.54,0,0,1,.82,2.47v7.93H69.54V568c0-1.43-.52-2.14-1.56-2.14a2.12,2.12,0,0,0-1.38.47,6.61,6.61,0,0,0-1.22,1.48v7.85H63.45V568c0-1.43-.52-2.14-1.56-2.14a2.07,2.07,0,0,0-1.4.48,6.47,6.47,0,0,0-1.2,1.47v7.85H57.36V564.59H59l.16,1.61a3.72,3.72,0,0,1,3.2-1.86,2.77,2.77,0,0,1,2.79,2,5.1,5.1,0,0,1,1.44-1.48,3.32,3.32,0,0,1,1.86-.51A2.78,2.78,0,0,1,70.65,565.25Z" style="fill:#1d1d1b"/><path d="M83.13,565.89a6.36,6.36,0,0,1,1.3,4.22,7.34,7.34,0,0,1-.59,3,4.57,4.57,0,0,1-1.7,2,4.7,4.7,0,0,1-2.65.73,4.47,4.47,0,0,1-3.63-1.56,6.34,6.34,0,0,1-1.3-4.22,7.35,7.35,0,0,1,.58-3,4.59,4.59,0,0,1,1.71-2,4.79,4.79,0,0,1,2.66-.72A4.42,4.42,0,0,1,83.13,565.89Zm-6.49,4.24c0,2.82,1,4.22,2.85,4.22s2.86-1.41,2.86-4.24-.95-4.22-2.84-4.22S76.64,567.3,76.64,570.13Z" style="fill:#1d1d1b"/><path d="M95.85,575.65H94.19L94,573.93a4.11,4.11,0,0,1-1.45,1.5,3.86,3.86,0,0,1-2,.48,2.94,2.94,0,0,1-2.27-.89,3.54,3.54,0,0,1-.82-2.49v-7.94h1.94v7.73a2.53,2.53,0,0,0,.39,1.6,1.61,1.61,0,0,0,1.31.47,3.28,3.28,0,0,0,2.77-1.91v-7.89h1.93Z" style="fill:#1d1d1b"/><path d="M105.74,564.46l-.36,1.89a4.07,4.07,0,0,0-1-.12,2.06,2.06,0,0,0-1.66.75,5.69,5.69,0,0,0-1,2.35v6.32H99.84V564.59h1.66l.19,2.24a4.19,4.19,0,0,1,1.19-1.86,2.7,2.7,0,0,1,1.77-.63A4.73,4.73,0,0,1,105.74,564.46Z" style="fill:#1d1d1b"/><path d="M115.63,574.07a1.38,1.38,0,0,0,.69.49l-.44,1.35a2.86,2.86,0,0,1-1.38-.49,2.21,2.21,0,0,1-.78-1.17,3.72,3.72,0,0,1-3.3,1.66,3.52,3.52,0,0,1-2.58-.93,3.21,3.21,0,0,1-.94-2.41,3.16,3.16,0,0,1,1.27-2.71,5.91,5.91,0,0,1,3.6-1h1.7v-.81a2.17,2.17,0,0,0-.57-1.69,2.6,2.6,0,0,0-1.74-.5,9.79,9.79,0,0,0-3,.59l-.49-1.41a11.28,11.28,0,0,1,3.83-.75,4,4,0,0,1,2.91.95,3.63,3.63,0,0,1,1,2.72v5.06A1.78,1.78,0,0,0,115.63,574.07Zm-2.16-1.33v-2.55H112c-2,0-3.07.76-3.07,2.27a2,2,0,0,0,.49,1.49,1.85,1.85,0,0,0,1.42.51A2.9,2.9,0,0,0,113.47,572.74Z" style="fill:#1d1d1b"/><path d="M40.25,588.11a6.1,6.1,0,0,1,1.73.94l-.82,1.22a6.82,6.82,0,0,0-1.44-.71,4.35,4.35,0,0,0-1.44-.24,2.51,2.51,0,0,0-1.49.39,1.26,1.26,0,0,0-.55,1.06,1.21,1.21,0,0,0,.52,1.05,5.75,5.75,0,0,0,1.86.74,6.7,6.7,0,0,1,2.76,1.26,2.74,2.74,0,0,1,.91,2.18A2.81,2.81,0,0,1,41,598.5a5.36,5.36,0,0,1-3.1.86,6.11,6.11,0,0,1-4.18-1.45l1-1.17a5.05,5.05,0,0,0,3.11,1.07,2.94,2.94,0,0,0,1.73-.45,1.42,1.42,0,0,0,.64-1.23,1.56,1.56,0,0,0-.23-.91,1.77,1.77,0,0,0-.79-.61,11.19,11.19,0,0,0-1.66-.56A5.61,5.61,0,0,1,35,592.81a2.77,2.77,0,0,1-.28-3.54,3.32,3.32,0,0,1,1.43-1.09,5.17,5.17,0,0,1,2-.39A6.13,6.13,0,0,1,40.25,588.11Z" style="fill:#1d1d1b"/><path d="M52.71,597.52a1.35,1.35,0,0,0,.69.5L53,599.36a3,3,0,0,1-1.39-.48,2.13,2.13,0,0,1-.77-1.18,3.73,3.73,0,0,1-3.3,1.66,3.55,3.55,0,0,1-2.58-.92A3.24,3.24,0,0,1,44,596a3.17,3.17,0,0,1,1.27-2.71,6,6,0,0,1,3.6-.94h1.7v-.82a2.16,2.16,0,0,0-.56-1.68,2.56,2.56,0,0,0-1.75-.5,9.79,9.79,0,0,0-3,.58l-.48-1.4a11,11,0,0,1,3.82-.76,4,4,0,0,1,2.92,1,3.66,3.66,0,0,1,1,2.72v5.06A1.64,1.64,0,0,0,52.71,597.52Zm-2.17-1.33v-2.54H49.1c-2.05,0-3.07.76-3.07,2.27a2.09,2.09,0,0,0,.48,1.49,1.87,1.87,0,0,0,1.43.5A2.87,2.87,0,0,0,50.54,596.19Z" style="fill:#1d1d1b"/><path d="M62,598.61a4.27,4.27,0,0,1-2.48.75,2.91,2.91,0,0,1-2.19-.81,3.2,3.2,0,0,1-.79-2.34v-6.68H54.64V588h1.93v-2.5l1.93-.23V588h2.63l-.21,1.49H58.5v6.6a2,2,0,0,0,.31,1.25,1.21,1.21,0,0,0,1,.39,3.24,3.24,0,0,0,1.47-.44Z" style="fill:#1d1d1b"/><path d="M72.26,599.11H70.6l-.15-1.72a4.19,4.19,0,0,1-1.45,1.5,3.86,3.86,0,0,1-2,.47,2.94,2.94,0,0,1-2.27-.88,3.52,3.52,0,0,1-.82-2.5V588h1.93v7.73a2.56,2.56,0,0,0,.4,1.61,1.64,1.64,0,0,0,1.3.47,3.3,3.3,0,0,0,2.78-1.91V588h1.93Z" style="fill:#1d1d1b"/><path d="M82.15,587.92l-.36,1.89a3.69,3.69,0,0,0-1-.13,2,2,0,0,0-1.66.76,5.63,5.63,0,0,0-1,2.35v6.32H76.25V588h1.66l.19,2.25a4.23,4.23,0,0,1,1.19-1.87,2.68,2.68,0,0,1,1.77-.63A4.23,4.23,0,0,1,82.15,587.92Z" style="fill:#1d1d1b"/><path d="M92,597.52a1.35,1.35,0,0,0,.69.5l-.44,1.34a2.93,2.93,0,0,1-1.38-.48,2.2,2.2,0,0,1-.78-1.18,3.7,3.7,0,0,1-3.3,1.66,3.55,3.55,0,0,1-2.58-.92,3.24,3.24,0,0,1-1-2.42,3.2,3.2,0,0,1,1.27-2.71,6,6,0,0,1,3.61-.94h1.7v-.82a2.16,2.16,0,0,0-.57-1.68,2.55,2.55,0,0,0-1.74-.5,9.79,9.79,0,0,0-3,.58l-.48-1.4a11,11,0,0,1,3.82-.76,4,4,0,0,1,2.92,1,3.62,3.62,0,0,1,1,2.72v5.06A1.64,1.64,0,0,0,92,597.52Zm-2.16-1.33v-2.54H88.43c-2.05,0-3.07.76-3.07,2.27a2.09,2.09,0,0,0,.48,1.49,1.89,1.89,0,0,0,1.43.5A2.88,2.88,0,0,0,89.88,596.19Z" style="fill:#1d1d1b"/><path d="M104.35,583.59v15.52h-1.71l-.19-1.53a3.87,3.87,0,0,1-1.36,1.31,3.81,3.81,0,0,1-4.9-1.08,7.07,7.07,0,0,1-1.11-4.18,8.13,8.13,0,0,1,.53-3,4.58,4.58,0,0,1,1.51-2.07,3.72,3.72,0,0,1,2.31-.75,4,4,0,0,1,3,1.37v-5.8Zm-3.15,13.83a4.57,4.57,0,0,0,1.21-1.23v-5.42a4.32,4.32,0,0,0-1.16-1.08,2.76,2.76,0,0,0-1.4-.37,2.24,2.24,0,0,0-2,1.08,5.82,5.82,0,0,0-.71,3.19,6.21,6.21,0,0,0,.65,3.19,2.09,2.09,0,0,0,1.87,1.05A2.76,2.76,0,0,0,101.2,597.42Z" style="fill:#1d1d1b"/><path d="M116,597.52a1.4,1.4,0,0,0,.69.5l-.44,1.34a3,3,0,0,1-1.38-.48,2.2,2.2,0,0,1-.78-1.18,3.7,3.7,0,0,1-3.3,1.66,3.55,3.55,0,0,1-2.58-.92,3.24,3.24,0,0,1-1-2.42,3.18,3.18,0,0,1,1.28-2.71,5.91,5.91,0,0,1,3.6-.94h1.7v-.82a2.16,2.16,0,0,0-.57-1.68,2.55,2.55,0,0,0-1.74-.5,9.73,9.73,0,0,0-3,.58l-.49-1.4a11,11,0,0,1,3.83-.76,4,4,0,0,1,2.91,1,3.62,3.62,0,0,1,1,2.72v5.06A1.72,1.72,0,0,0,116,597.52Zm-2.16-1.33v-2.54h-1.45c-2,0-3.07.76-3.07,2.27a2,2,0,0,0,.49,1.49,1.85,1.85,0,0,0,1.42.5A2.88,2.88,0,0,0,113.86,596.19Z" style="fill:#1d1d1b"/><path d="M568.91,566.35a6.81,6.81,0,0,1,2,1.27l-1.09,1.22a6.27,6.27,0,0,0-1.61-1,4.69,4.69,0,0,0-1.69-.3,3.15,3.15,0,0,0-1.87.52,1.76,1.76,0,0,0-.73,1.54,2.08,2.08,0,0,0,.25,1.06,2.26,2.26,0,0,0,.93.78,12.57,12.57,0,0,0,2,.76,13.39,13.39,0,0,1,2.27.9,4,4,0,0,1,1.46,1.34,3.84,3.84,0,0,1,.55,2.15,4,4,0,0,1-.62,2.22,4.11,4.11,0,0,1-1.78,1.52,6.53,6.53,0,0,1-2.76.54,6.73,6.73,0,0,1-4.92-1.87l1.09-1.21a7.55,7.55,0,0,0,1.79,1.08,5.39,5.39,0,0,0,2,.36,3.61,3.61,0,0,0,2.22-.66,2.24,2.24,0,0,0,.88-1.92,2.34,2.34,0,0,0-.27-1.18,2.45,2.45,0,0,0-.93-.86,9.83,9.83,0,0,0-1.92-.75,8.49,8.49,0,0,1-3.26-1.62,3.29,3.29,0,0,1-1-2.56,3.37,3.37,0,0,1,.58-2,3.74,3.74,0,0,1,1.62-1.35,5.56,5.56,0,0,1,2.36-.48A6.81,6.81,0,0,1,568.91,566.35Z" style="fill:#1d1d1b"/><path d="M582,570.9a6.39,6.39,0,0,1,1.29,4.22,7.38,7.38,0,0,1-.59,3,4.57,4.57,0,0,1-1.7,2,4.75,4.75,0,0,1-2.65.72,4.5,4.5,0,0,1-3.63-1.55,6.36,6.36,0,0,1-1.3-4.22,7.43,7.43,0,0,1,.59-3,4.6,4.6,0,0,1,1.7-2,4.72,4.72,0,0,1,2.67-.73A4.44,4.44,0,0,1,582,570.9Zm-6.5,4.24q0,4.22,2.85,4.22c1.91,0,2.86-1.42,2.86-4.24s-.94-4.22-2.83-4.22S575.48,572.31,575.48,575.14Z" style="fill:#1d1d1b"/><path d="M595,565.14v15.52h-1.7l-.19-1.53a3.9,3.9,0,0,1-1.37,1.31,3.5,3.5,0,0,1-1.82.47,3.58,3.58,0,0,1-3.08-1.55,7.14,7.14,0,0,1-1.1-4.18,8.14,8.14,0,0,1,.52-3,4.6,4.6,0,0,1,1.52-2.07,3.68,3.68,0,0,1,2.31-.75,4,4,0,0,1,3,1.37v-5.8ZM591.88,579a4.59,4.59,0,0,0,1.22-1.23v-5.42a4.5,4.5,0,0,0-1.17-1.08,2.72,2.72,0,0,0-1.39-.37,2.24,2.24,0,0,0-2,1.08,5.83,5.83,0,0,0-.7,3.19,6.11,6.11,0,0,0,.65,3.19,2.07,2.07,0,0,0,1.87,1A2.73,2.73,0,0,0,591.88,579Z" style="fill:#1d1d1b"/><path d="M606.7,579.07a1.43,1.43,0,0,0,.7.5l-.44,1.34a3,3,0,0,1-1.39-.48,2.2,2.2,0,0,1-.78-1.18,3.7,3.7,0,0,1-3.29,1.66,3.58,3.58,0,0,1-2.59-.92,3.23,3.23,0,0,1-.94-2.42,3.17,3.17,0,0,1,1.27-2.71,6,6,0,0,1,3.6-.94h1.7v-.82a2.19,2.19,0,0,0-.56-1.68,2.56,2.56,0,0,0-1.75-.5,9.79,9.79,0,0,0-3,.58l-.48-1.4a11,11,0,0,1,3.82-.76,4,4,0,0,1,2.92,1,3.65,3.65,0,0,1,1,2.72v5.06A1.72,1.72,0,0,0,606.7,579.07Zm-2.16-1.33V575.2h-1.45c-2,0-3.06.76-3.06,2.27a2.09,2.09,0,0,0,.48,1.49,1.87,1.87,0,0,0,1.43.5A2.88,2.88,0,0,0,604.54,577.74Z" style="fill:#1d1d1b"/><path d="M623.37,566.28a6.45,6.45,0,0,1,1.82,1.09l-1.1,1.28a4.33,4.33,0,0,0-2.79-1.07,3.55,3.55,0,0,0-2.91,1.38,9.49,9.49,0,0,0,0,8.85,3.48,3.48,0,0,0,2.9,1.42,3.9,3.9,0,0,0,1.62-.31,9.18,9.18,0,0,0,1.47-.88l1,1.26a5.34,5.34,0,0,1-1.72,1.15,5.89,5.89,0,0,1-2.41.46,5.54,5.54,0,0,1-5.28-3.43,9.65,9.65,0,0,1-.77-4.06,9.35,9.35,0,0,1,.8-4.07,5.82,5.82,0,0,1,2.16-2.55,5.61,5.61,0,0,1,3-.86A6.16,6.16,0,0,1,623.37,566.28Z" style="fill:#1d1d1b"/><path d="M635.45,579.07a1.43,1.43,0,0,0,.7.5l-.44,1.34a3,3,0,0,1-1.39-.48,2.2,2.2,0,0,1-.78-1.18,3.7,3.7,0,0,1-3.29,1.66,3.56,3.56,0,0,1-2.59-.92,3.23,3.23,0,0,1-.94-2.42,3.17,3.17,0,0,1,1.27-2.71,6,6,0,0,1,3.6-.94h1.7v-.82a2.16,2.16,0,0,0-.57-1.68,2.51,2.51,0,0,0-1.74-.5,9.79,9.79,0,0,0-3,.58l-.48-1.4a11,11,0,0,1,3.82-.76,4,4,0,0,1,2.92,1,3.65,3.65,0,0,1,1,2.72v5.06A1.72,1.72,0,0,0,635.45,579.07Zm-2.54-15.23.86,1.62-4.45,1.8-.59-1Zm.38,13.9V575.2h-1.45c-2,0-3.06.76-3.06,2.27a2.09,2.09,0,0,0,.48,1.49,1.87,1.87,0,0,0,1.43.5A2.88,2.88,0,0,0,633.29,577.74Z" style="fill:#1d1d1b"/><path d="M647.42,580.66h-1.65l-.15-1.72a4.27,4.27,0,0,1-1.45,1.5,3.9,3.9,0,0,1-2,.47,2.92,2.92,0,0,1-2.26-.88,3.52,3.52,0,0,1-.82-2.5v-7.94H641v7.73a2.5,2.5,0,0,0,.4,1.61,1.62,1.62,0,0,0,1.3.47,3.29,3.29,0,0,0,2.77-1.91v-7.9h1.93Z" style="fill:#1d1d1b"/><path d="M656.45,569.66a6.1,6.1,0,0,1,1.73.94l-.82,1.22a6.82,6.82,0,0,0-1.44-.71,4.35,4.35,0,0,0-1.44-.24,2.51,2.51,0,0,0-1.49.39,1.23,1.23,0,0,0-.55,1.06,1.21,1.21,0,0,0,.52,1,5.75,5.75,0,0,0,1.86.74,6.7,6.7,0,0,1,2.76,1.26,2.74,2.74,0,0,1,.91,2.18,2.82,2.82,0,0,1-1.27,2.5,5.36,5.36,0,0,1-3.1.86,6.11,6.11,0,0,1-4.18-1.45l1-1.17a5.05,5.05,0,0,0,3.11,1.07,2.94,2.94,0,0,0,1.73-.45,1.42,1.42,0,0,0,.64-1.23,1.61,1.61,0,0,0-.23-.92,1.81,1.81,0,0,0-.8-.6,10.61,10.61,0,0,0-1.65-.56,5.7,5.7,0,0,1-2.56-1.24,2.68,2.68,0,0,1-.78-2,2.61,2.61,0,0,1,.51-1.57,3.32,3.32,0,0,1,1.43-1.09,5.17,5.17,0,0,1,2-.39A6.13,6.13,0,0,1,656.45,569.66Z" style="fill:#1d1d1b"/><path d="M666.81,580.16a4.29,4.29,0,0,1-2.48.75,2.94,2.94,0,0,1-2.2-.81,3.24,3.24,0,0,1-.78-2.34v-6.68h-1.94v-1.49h1.94v-2.5l1.93-.23v2.73h2.62l-.21,1.49h-2.41v6.6a2.07,2.07,0,0,0,.3,1.25,1.22,1.22,0,0,0,1,.39,3.21,3.21,0,0,0,1.47-.44Z" style="fill:#1d1d1b"/><path d="M670.73,564.66a1.25,1.25,0,0,1,.38.94,1.24,1.24,0,0,1-.38.94,1.37,1.37,0,0,1-1,.37,1.34,1.34,0,0,1-1-.37,1.27,1.27,0,0,1-.38-.94,1.29,1.29,0,0,1,.38-.94,1.31,1.31,0,0,1,1-.38A1.33,1.33,0,0,1,670.73,564.66Zm0,4.93v11.07H668.8V569.59Z" style="fill:#1d1d1b"/><path d="M680.56,569.63a4.9,4.9,0,0,1,1.58.91l-.93,1.22a4.6,4.6,0,0,0-1.14-.62,3.45,3.45,0,0,0-1.23-.2,2.39,2.39,0,0,0-2.09,1.07,5.52,5.52,0,0,0-.75,3.17,5.26,5.26,0,0,0,.74,3.1,2.46,2.46,0,0,0,2.1,1,3.36,3.36,0,0,0,1.2-.2,5.52,5.52,0,0,0,1.21-.64l.89,1.26a5.23,5.23,0,0,1-3.38,1.22,4.4,4.4,0,0,1-3.54-1.51,6.24,6.24,0,0,1-1.29-4.18,7.64,7.64,0,0,1,.58-3.09,4.8,4.8,0,0,1,1.67-2,4.48,4.48,0,0,1,2.58-.74A5.44,5.44,0,0,1,680.56,569.63Z" style="fill:#1d1d1b"/><path d="M692.45,579.07a1.35,1.35,0,0,0,.69.5l-.44,1.34a3,3,0,0,1-1.39-.48,2.13,2.13,0,0,1-.77-1.18,3.71,3.71,0,0,1-3.3,1.66,3.55,3.55,0,0,1-2.58-.92,3.24,3.24,0,0,1-.95-2.42,3.17,3.17,0,0,1,1.27-2.71,6,6,0,0,1,3.6-.94h1.7v-.82a2.16,2.16,0,0,0-.56-1.68,2.56,2.56,0,0,0-1.75-.5,9.79,9.79,0,0,0-3,.58l-.48-1.4a11,11,0,0,1,3.82-.76,4,4,0,0,1,2.92,1,3.66,3.66,0,0,1,1,2.72v5.06A1.64,1.64,0,0,0,692.45,579.07Zm-2.17-1.33V575.2h-1.44c-2.05,0-3.07.76-3.07,2.27a2.09,2.09,0,0,0,.48,1.49,1.87,1.87,0,0,0,1.43.5A2.87,2.87,0,0,0,690.28,577.74Z" style="fill:#1d1d1b"/><path d="M569.68,590.6v15.52H568l-.19-1.53a4,4,0,0,1-1.37,1.31,3.81,3.81,0,0,1-4.9-1.08,7.14,7.14,0,0,1-1.1-4.18,8.19,8.19,0,0,1,.52-3,4.63,4.63,0,0,1,1.52-2.06,3.68,3.68,0,0,1,2.31-.75,4,4,0,0,1,3,1.37v-5.8Zm-3.15,13.83a4.59,4.59,0,0,0,1.22-1.23v-5.42a4.5,4.5,0,0,0-1.17-1.08,2.72,2.72,0,0,0-1.39-.37,2.25,2.25,0,0,0-2,1.07,5.89,5.89,0,0,0-.7,3.2,6.13,6.13,0,0,0,.65,3.19,2.07,2.07,0,0,0,1.87,1.05A2.73,2.73,0,0,0,566.53,604.43Z" style="fill:#1d1d1b"/><path d="M575.6,590.12a1.35,1.35,0,0,1,0,1.88,1.36,1.36,0,0,1-1,.36,1.34,1.34,0,0,1-1-.36,1.35,1.35,0,0,1,0-1.88,1.31,1.31,0,0,1,1-.38A1.33,1.33,0,0,1,575.6,590.12Zm0,4.93v11.07h-1.93V595.05Z" style="fill:#1d1d1b"/><path d="M580.11,605.73a2.44,2.44,0,0,1-.62-1.79V590.6l1.93-.23v13.52a1.12,1.12,0,0,0,.16.68.61.61,0,0,0,.53.21,2,2,0,0,0,.72-.13l.5,1.34a3,3,0,0,1-1.53.38A2.22,2.22,0,0,1,580.11,605.73Z" style="fill:#1d1d1b"/><path d="M594,606.12h-1.66l-.15-1.72a4.27,4.27,0,0,1-1.45,1.5,4,4,0,0,1-2,.47,2.92,2.92,0,0,1-2.27-.88,3.52,3.52,0,0,1-.82-2.5v-7.94h1.93v7.73a2.5,2.5,0,0,0,.4,1.61,1.64,1.64,0,0,0,1.3.47A3.29,3.29,0,0,0,592,603v-7.9H594Z" style="fill:#1d1d1b"/><path d="M600.59,589.3l.86,1.62-4.45,1.8-.59-1Zm-.69,5.75v11.07H598V595.05Z" style="fill:#1d1d1b"/><path d="M612.46,590.6v15.52h-1.7l-.19-1.53a4.08,4.08,0,0,1-1.37,1.31,3.61,3.61,0,0,1-1.83.47,3.56,3.56,0,0,1-3.07-1.55,7.07,7.07,0,0,1-1.1-4.18,8.19,8.19,0,0,1,.52-3,4.61,4.61,0,0,1,1.51-2.06,3.72,3.72,0,0,1,2.31-.75,4,4,0,0,1,3,1.37v-5.8Zm-3.15,13.83a4.57,4.57,0,0,0,1.21-1.23v-5.42a4.32,4.32,0,0,0-1.16-1.08,2.73,2.73,0,0,0-1.4-.37,2.25,2.25,0,0,0-2,1.07,5.88,5.88,0,0,0-.71,3.2,6.12,6.12,0,0,0,.66,3.19,2.06,2.06,0,0,0,1.86,1.05A2.76,2.76,0,0,0,609.31,604.43Z" style="fill:#1d1d1b"/><path d="M624.13,604.53a1.43,1.43,0,0,0,.7.5l-.45,1.34a3,3,0,0,1-1.38-.48,2.24,2.24,0,0,1-.78-1.18,3.7,3.7,0,0,1-3.3,1.66,3.55,3.55,0,0,1-2.58-.92,3.23,3.23,0,0,1-.94-2.42,3.17,3.17,0,0,1,1.27-2.71,5.91,5.91,0,0,1,3.6-.94H622v-.82a2.16,2.16,0,0,0-.57-1.68,2.55,2.55,0,0,0-1.74-.5,9.73,9.73,0,0,0-3,.58l-.49-1.4a11.07,11.07,0,0,1,3.83-.76,4,4,0,0,1,2.92,1,3.65,3.65,0,0,1,1,2.72v5.06A1.74,1.74,0,0,0,624.13,604.53ZM622,603.2v-2.54h-1.45c-2,0-3.07.76-3.07,2.27a2.09,2.09,0,0,0,.49,1.49,1.91,1.91,0,0,0,1.43.5A2.88,2.88,0,0,0,622,603.2Z" style="fill:#1d1d1b"/><path d="M306,626.91H304.1l-.51-6.53q-.31-3.84-.35-5.9l-3.13,10.79h-1.87l-3.3-10.81q0,2.63-.27,6.07l-.48,6.38h-1.9l1.2-14.47h2.69L299.23,623l2.89-10.52h2.71Z" style="fill:#1d1d1b"/><path d="M317.64,622h-7.05a4.32,4.32,0,0,0,.92,2.69,2.69,2.69,0,0,0,2.06.86,4.62,4.62,0,0,0,1.47-.23,6.21,6.21,0,0,0,1.41-.74l.83,1.16a6.11,6.11,0,0,1-3.86,1.38,4.47,4.47,0,0,1-3.6-1.51,6.2,6.2,0,0,1-1.29-4.16,7.9,7.9,0,0,1,.55-3,4.79,4.79,0,0,1,1.6-2.09,4,4,0,0,1,2.45-.76,4.13,4.13,0,0,1,3.38,1.45,6.24,6.24,0,0,1,1.17,4C317.68,621.37,317.67,621.7,317.64,622Zm-1.87-1.55a4,4,0,0,0-.65-2.5,2.26,2.26,0,0,0-1.95-.86q-2.37,0-2.58,3.48h5.18Z" style="fill:#1d1d1b"/><path d="M334.06,616.51a3.52,3.52,0,0,1,.82,2.46v7.94H333v-7.66c0-1.43-.52-2.15-1.55-2.15a2.08,2.08,0,0,0-1.39.48,6.65,6.65,0,0,0-1.22,1.48v7.85h-1.93v-7.66c0-1.43-.52-2.15-1.55-2.15a2.12,2.12,0,0,0-1.41.49,6.47,6.47,0,0,0-1.2,1.47v7.85h-1.93V615.84h1.66l.17,1.62a3.71,3.71,0,0,1,3.19-1.87,2.89,2.89,0,0,1,1.75.53,2.84,2.84,0,0,1,1,1.47,5.23,5.23,0,0,1,1.44-1.48,3.29,3.29,0,0,1,1.86-.52A2.77,2.77,0,0,1,334.06,616.51Z" style="fill:#1d1d1b"/><path d="M346.83,617.11a7.14,7.14,0,0,1,1.12,4.26,8.08,8.08,0,0,1-.53,3,4.49,4.49,0,0,1-1.51,2,3.82,3.82,0,0,1-2.31.72,3.66,3.66,0,0,1-2.94-1.47l-.19,1.22h-1.7V611.39l1.93-.23v6.07a3.71,3.71,0,0,1,3.13-1.64A3.53,3.53,0,0,1,346.83,617.11Zm-1.69,7.48a5.72,5.72,0,0,0,.73-3.22,6,6,0,0,0-.68-3.25,2.16,2.16,0,0,0-1.91-1,3.12,3.12,0,0,0-2.58,1.72v5.29a3.31,3.31,0,0,0,1.08,1.09,2.5,2.5,0,0,0,1.36.4A2.31,2.31,0,0,0,345.14,624.59Z" style="fill:#1d1d1b"/><path d="M357.14,615.72l-.35,1.89a3.76,3.76,0,0,0-1-.13,2,2,0,0,0-1.66.76,5.63,5.63,0,0,0-1,2.35v6.32h-1.93V615.84h1.66l.19,2.25a4.16,4.16,0,0,1,1.2-1.87,2.66,2.66,0,0,1,1.76-.63A4.18,4.18,0,0,1,357.14,615.72Z" style="fill:#1d1d1b"/><path d="M367,625.33a1.48,1.48,0,0,0,.7.49l-.45,1.34a3,3,0,0,1-1.38-.48,2.2,2.2,0,0,1-.78-1.18,3.7,3.7,0,0,1-3.29,1.66,3.52,3.52,0,0,1-2.59-.92,3.23,3.23,0,0,1-.94-2.42,3.16,3.16,0,0,1,1.27-2.7,5.93,5.93,0,0,1,3.6-1h1.7v-.82a2.16,2.16,0,0,0-.57-1.68,2.58,2.58,0,0,0-1.74-.5,9.49,9.49,0,0,0-3,.59l-.48-1.41a11,11,0,0,1,3.82-.76,4,4,0,0,1,2.92,1,3.65,3.65,0,0,1,1,2.72v5.06A1.78,1.78,0,0,0,367,625.33ZM364.87,624v-2.54h-1.45c-2,0-3.06.76-3.06,2.27a2.09,2.09,0,0,0,.48,1.49,1.87,1.87,0,0,0,1.43.5A2.88,2.88,0,0,0,364.87,624Z" style="fill:#1d1d1b"/><path d="M378.34,616.5a3.43,3.43,0,0,1,.85,2.47v7.94h-1.93v-7.66a2.46,2.46,0,0,0-.44-1.66,1.68,1.68,0,0,0-1.3-.49,2.52,2.52,0,0,0-1.56.51,5.26,5.26,0,0,0-1.26,1.45v7.85h-1.93V615.84h1.66l.17,1.64a4.27,4.27,0,0,1,1.46-1.38,3.73,3.73,0,0,1,1.92-.51A3.06,3.06,0,0,1,378.34,616.5Z" style="fill:#1d1d1b"/><path d="M390.76,625.33a1.48,1.48,0,0,0,.7.49l-.45,1.34a3,3,0,0,1-1.38-.48,2.2,2.2,0,0,1-.78-1.18,3.7,3.7,0,0,1-3.3,1.66,3.51,3.51,0,0,1-2.58-.92,3.23,3.23,0,0,1-.94-2.42,3.16,3.16,0,0,1,1.27-2.7,5.91,5.91,0,0,1,3.6-1h1.7v-.82a2.16,2.16,0,0,0-.57-1.68,2.58,2.58,0,0,0-1.74-.5,9.49,9.49,0,0,0-3,.59l-.48-1.41a11,11,0,0,1,3.82-.76,4,4,0,0,1,2.92,1,3.65,3.65,0,0,1,1,2.72v5.06A1.78,1.78,0,0,0,390.76,625.33ZM388.6,624v-2.54h-1.45c-2,0-3.07.76-3.07,2.27a2.09,2.09,0,0,0,.49,1.49,1.87,1.87,0,0,0,1.43.5A2.88,2.88,0,0,0,388.6,624Z" style="fill:#1d1d1b"/><path d="M431.38,119.48a.26.26,0,0,1-.21-.11l-20-30.54a.24.24,0,0,1,.07-.34.25.25,0,0,1,.35.07l20,30.54a.24.24,0,0,1-.07.34A.23.23,0,0,1,431.38,119.48ZM254.83,74a.25.25,0,0,1-.16-.06.24.24,0,0,1,0-.35l23.07-28.13a.25.25,0,0,1,.35,0,.26.26,0,0,1,0,.36L255,73.92A.25.25,0,0,1,254.83,74Z" style="fill:#1d1d1b"/><polygon points="397.94 375.3 397.54 374.99 424.78 340.17 425.18 340.48 397.94 375.3" style="fill:#1d1d1b"/><path d="M426,336.24c-2.31,1.63-4,2.55-6,3.73l6.5,5.09a67.1,67.1,0,0,1,2.17-6.74,49.64,49.64,0,0,1,3.13-6.74,47.08,47.08,0,0,1-5.79,4.66" style="fill:#1d1d1b"/><rect x="252.58" y="356.85" width="72.64" height="0.5" transform="translate(-122.33 561.74) rotate(-77.48)" style="fill:#1d1d1b"/><path d="M296,317.51a69.73,69.73,0,0,1-3.83,5.95l8.07,1.8a63,63,0,0,1-.94-7,48.17,48.17,0,0,1-.08-7.43,47.88,47.88,0,0,1-3.22,6.69" style="fill:#1d1d1b"/><rect x="422.42" y="282.92" width="0.5" height="43.36" transform="translate(-88.37 203.28) rotate(-24.56)" style="fill:#1d1d1b"/><path d="M410.52,282.06a68.33,68.33,0,0,1,.54,7.06l7.52-3.44a64.29,64.29,0,0,1-5-5,50,50,0,0,1-4.54-5.88,48,48,0,0,1,1.47,7.28" style="fill:#1d1d1b"/><path d="M385.46,285.43l-.47-.15a43.63,43.63,0,0,0-1.93-28.15l.46-.19A44.06,44.06,0,0,1,385.46,285.43Z" style="fill:#1d1d1b"/><path d="M380.22,254.14c.31,2.81.31,4.73.37,7.06l7.6-3.24a62.9,62.9,0,0,1-4.86-5.15,47.81,47.81,0,0,1-4.4-6,49.76,49.76,0,0,1,1.29,7.32" style="fill:#1d1d1b"/><path d="M431.52,330.63a43.61,43.61,0,0,0-26.83-8.71v-.5h.9a44.11,44.11,0,0,1,26.26,8.84Z" style="fill:#1d1d1b"/><path d="M400.86,323.43a69.81,69.81,0,0,1,6.69,2.3l-.18-8.26a65.59,65.59,0,0,1-6.59,2.58,48.31,48.31,0,0,1-7.19,1.85,48,48,0,0,1,7.27,1.53" style="fill:#1d1d1b"/><path d="M281.24,392.62l-.48-.14c.06-.2,5.87-20.09,0-33l.46-.21C287.16,372.36,281.3,392.42,281.24,392.62Z" style="fill:#1d1d1b"/><path d="M277.87,356.59c.38,2.8.42,4.72.53,7.06l7.52-3.42a66,66,0,0,1-5-5,48.7,48.7,0,0,1-4.53-5.88,49.47,49.47,0,0,1,1.46,7.28" style="fill:#1d1d1b"/><path d="M275.72,325.64c0-.2-2-20.83-12.16-30.63l.35-.36c10.33,9.93,12.29,30.74,12.31,31Z" style="fill:#1d1d1b"/><path d="M259.78,293.36c1.39,2.47,2.13,4.23,3.1,6.36l5.72-6a69.59,69.59,0,0,1-6.48-2.84,49.76,49.76,0,0,1-6.39-3.79,47.59,47.59,0,0,1,4,6.22" style="fill:#1d1d1b"/><path d="M254.61,286.41l-.21-.46c.17-.07,16.3-7.5,18.31-22.83l.5.07C271.16,278.79,254.77,286.33,254.61,286.41Z" style="fill:#1d1d1b"/><path d="M271.8,259.1a70.26,70.26,0,0,1-3.29,6.27l8.2,1.07a66,66,0,0,1-1.57-6.9,50,50,0,0,1-.73-7.4,48.69,48.69,0,0,1-2.61,7" style="fill:#1d1d1b"/><path d="M389.17,313.68l-.41-.29c.2-.27,19.16-27.88,6.68-57.06l.46-.2C408.49,285.57,389.37,313.4,389.17,313.68Z" style="fill:#1d1d1b"/><path d="M392.6,253.33c.31,2.81.31,4.73.37,7.07l7.6-3.25a62.9,62.9,0,0,1-4.86-5.15,48.58,48.58,0,0,1-4.4-6,49.34,49.34,0,0,1,1.29,7.31" style="fill:#1d1d1b"/><path d="M270.7,413.08h-2.16l-4.76-9.95c.07.78.13,1.51.17,2.17s.05,1.46.05,2.4v5.38h-1.51V401.36h2.11l4.81,10c0-.3-.08-.82-.13-1.55s-.09-1.41-.09-2v-6.4h1.51Z" style="fill:#1d1d1b"/><path d="M280.24,411.79a1.13,1.13,0,0,0,.56.4l-.36,1.09a2.51,2.51,0,0,1-1.12-.39,1.81,1.81,0,0,1-.63-.95,3,3,0,0,1-2.67,1.34,2.86,2.86,0,0,1-2.09-.75,2.61,2.61,0,0,1-.76-1.95,2.57,2.57,0,0,1,1-2.2,4.78,4.78,0,0,1,2.91-.76h1.38V407a1.72,1.72,0,0,0-.46-1.36,2,2,0,0,0-1.41-.41,8.15,8.15,0,0,0-2.42.47l-.39-1.13a9,9,0,0,1,3.1-.62,3.21,3.21,0,0,1,2.36.78,3,3,0,0,1,.78,2.2V411A1.41,1.41,0,0,0,280.24,411.79Zm-1.75-1.08v-2h-1.17q-2.49,0-2.49,1.83a1.64,1.64,0,0,0,.4,1.21,1.52,1.52,0,0,0,1.15.41A2.34,2.34,0,0,0,278.49,410.71Z" style="fill:#1d1d1b"/><path d="M289.22,401.43a5.2,5.2,0,0,1,1.48.89l-.89,1a3.52,3.52,0,0,0-2.26-.86,2.85,2.85,0,0,0-2.35,1.12,7.61,7.61,0,0,0,0,7.16,2.8,2.8,0,0,0,2.34,1.15,3.13,3.13,0,0,0,1.31-.25A6.51,6.51,0,0,0,290,411l.8,1a4.31,4.31,0,0,1-1.39.94,4.83,4.83,0,0,1-2,.37,4.56,4.56,0,0,1-2.54-.71,4.63,4.63,0,0,1-1.73-2.07,7.82,7.82,0,0,1-.62-3.29,7.66,7.66,0,0,1,.64-3.29,4.77,4.77,0,0,1,1.75-2.06,4.5,4.5,0,0,1,2.47-.7A5.07,5.07,0,0,1,289.22,401.43Z" style="fill:#1d1d1b"/><path d="M293.2,412.76a2,2,0,0,1-.5-1.45v-10.8l1.56-.18v10.94a1,1,0,0,0,.13.55.53.53,0,0,0,.44.17,1.7,1.7,0,0,0,.57-.1l.41,1.08a2.48,2.48,0,0,1-1.24.31A1.81,1.81,0,0,1,293.2,412.76Z" style="fill:#1d1d1b"/><path d="M270.55,333.83a5.3,5.3,0,0,1,1.47.89l-.89,1a3.57,3.57,0,0,0-2.26-.86,2.85,2.85,0,0,0-2.35,1.12,7.61,7.61,0,0,0,0,7.16,2.8,2.8,0,0,0,2.34,1.15,3.13,3.13,0,0,0,1.31-.25,6.51,6.51,0,0,0,1.19-.72l.8,1a4.2,4.2,0,0,1-1.39.94,4.83,4.83,0,0,1-2,.37,4.5,4.5,0,0,1-4.27-2.78,7.82,7.82,0,0,1-.62-3.29,7.66,7.66,0,0,1,.64-3.29,4.77,4.77,0,0,1,1.75-2.06,4.5,4.5,0,0,1,2.47-.7A5.17,5.17,0,0,1,270.55,333.83Z" style="fill:#1d1d1b"/><path d="M274.52,345.16a2,2,0,0,1-.5-1.45v-10.8l1.57-.18v10.95a1,1,0,0,0,.12.54.53.53,0,0,0,.44.17,1.76,1.76,0,0,0,.58-.1l.4,1.09a2.56,2.56,0,0,1-1.24.3A1.81,1.81,0,0,1,274.52,345.16Z" style="fill:#1d1d1b"/><path d="M279.29,334.28V333h4.82v1.33Z" style="fill:#1d1d1b"/><path d="M299,301.25h-2.15l-4.76-9.95c.06.78.12,1.5.16,2.17s.06,1.46.06,2.4v5.38h-1.52V289.53h2.11l4.81,10c0-.29-.08-.81-.13-1.54s-.09-1.41-.09-2v-6.39H299Z" style="fill:#1d1d1b"/><path d="M308.56,300a1.13,1.13,0,0,0,.56.4l-.35,1.09a2.51,2.51,0,0,1-1.13-.39,1.85,1.85,0,0,1-.63-.95,3,3,0,0,1-2.66,1.34,2.87,2.87,0,0,1-2.1-.75,2.61,2.61,0,0,1-.76-1.95,2.56,2.56,0,0,1,1-2.2,4.8,4.8,0,0,1,2.91-.76h1.38v-.66a1.76,1.76,0,0,0-.46-1.37,2.07,2.07,0,0,0-1.41-.4,8,8,0,0,0-2.41.47l-.39-1.14a9.19,9.19,0,0,1,3.09-.61,3.21,3.21,0,0,1,2.36.78,3,3,0,0,1,.78,2.2v4.09A1.42,1.42,0,0,0,308.56,300Zm-1.75-1.08v-2.05h-1.17c-1.66,0-2.48.61-2.48,1.83a1.69,1.69,0,0,0,.39,1.21,1.52,1.52,0,0,0,1.15.41A2.34,2.34,0,0,0,306.81,298.88Z" style="fill:#1d1d1b"/><path d="M314.68,287.44v2.1h2v1.06h-2v2.09H313.5V290.6h-2v-1.06h2v-2.1Z" style="fill:#1d1d1b"/><path d="M374.74,300.84h-2.16l-4.76-9.95c.07.78.12,1.51.16,2.17s.06,1.46.06,2.4v5.38h-1.51V289.12h2.11l4.81,10c0-.3-.08-.82-.14-1.55s-.08-1.41-.08-2v-6.39h1.51Z" style="fill:#1d1d1b"/><path d="M384.28,299.55a1.09,1.09,0,0,0,.56.4l-.36,1.09a2.47,2.47,0,0,1-1.12-.39,1.81,1.81,0,0,1-.63-.95,3,3,0,0,1-2.67,1.34,2.86,2.86,0,0,1-2.09-.75,2.86,2.86,0,0,1,.26-4.15,4.83,4.83,0,0,1,2.92-.76h1.38v-.66a1.75,1.75,0,0,0-.46-1.36,2,2,0,0,0-1.41-.41,8.09,8.09,0,0,0-2.42.47l-.39-1.13a9,9,0,0,1,3.1-.62,3.21,3.21,0,0,1,2.36.78,3,3,0,0,1,.78,2.2v4.1A1.33,1.33,0,0,0,384.28,299.55Zm-1.75-1.08v-2.05h-1.18c-1.65,0-2.48.61-2.48,1.83a1.68,1.68,0,0,0,.39,1.21,1.55,1.55,0,0,0,1.16.41A2.35,2.35,0,0,0,382.53,298.47Z" style="fill:#1d1d1b"/><path d="M390.39,287v2.1h2.05v1.06h-2.05v2.09h-1.17v-2.09h-2v-1.06h2V287Z" style="fill:#1d1d1b"/><path d="M375.5,325.18a4.74,4.74,0,0,1,1.74,2.06,8,8,0,0,1,.62,3.3,7.92,7.92,0,0,1-.62,3.27,4.82,4.82,0,0,1-1.74,2.07,4.64,4.64,0,0,1-2.59.71,4.8,4.8,0,0,1-2.59-.69,4.62,4.62,0,0,1-1.74-2.06,8.93,8.93,0,0,1,0-6.54,4.75,4.75,0,0,1,1.75-2.1,4.56,4.56,0,0,1,2.58-.73A4.72,4.72,0,0,1,375.5,325.18Zm-5,1.78a6.08,6.08,0,0,0-.85,3.6,6,6,0,0,0,.86,3.57,2.8,2.8,0,0,0,2.37,1.14q3.22,0,3.23-4.73t-3.23-4.74A2.77,2.77,0,0,0,370.53,327Z" style="fill:#1d1d1b"/><path d="M387,336.39V330.9h-4.93v5.49h-1.62V324.68h1.62v4.89H387v-4.89h1.61v11.71Z" style="fill:#1d1d1b"/><path d="M413,271.19V265.7H408.1v5.49h-1.62V259.48h1.62v4.89H413v-4.89h1.61v11.71Z" style="fill:#1d1d1b"/><path d="M420.14,268.19a1.78,1.78,0,0,1,.7.66,1.75,1.75,0,0,1,.25.93,2.64,2.64,0,0,1-.27,1.17,5.74,5.74,0,0,1-.85,1.21c-.38.44-1,1-1.73,1.81h3l-.11.77h-3.95V274c.89-.92,1.53-1.6,1.9-2a5.87,5.87,0,0,0,.8-1.13,2.26,2.26,0,0,0,.24-1,1,1,0,0,0-1.1-1.11,1.53,1.53,0,0,0-.72.17,2.66,2.66,0,0,0-.66.56l-.6-.48a2.8,2.8,0,0,1,.91-.76,2.56,2.56,0,0,1,1.12-.25A2.27,2.27,0,0,1,420.14,268.19Z" style="fill:#1d1d1b"/><path d="M379,239.7h-2.16l-4.76-9.94c.07.78.13,1.5.17,2.17s.06,1.46.06,2.4v5.37H370.8V228h2.11l4.81,10c0-.29-.08-.81-.13-1.55s-.09-1.41-.09-2V228H379Z" style="fill:#1d1d1b"/><path d="M388.55,238.42a1.13,1.13,0,0,0,.56.4l-.36,1.09a2.51,2.51,0,0,1-1.12-.39,1.88,1.88,0,0,1-.63-1,3,3,0,0,1-2.67,1.35,2.86,2.86,0,0,1-2.09-.75,2.61,2.61,0,0,1-.76-2,2.56,2.56,0,0,1,1-2.19,4.78,4.78,0,0,1,2.91-.76h1.38v-.67a1.73,1.73,0,0,0-.46-1.36,2.1,2.1,0,0,0-1.41-.41,7.79,7.79,0,0,0-2.41.48l-.4-1.14a9,9,0,0,1,3.1-.61,3.25,3.25,0,0,1,2.36.77,3,3,0,0,1,.78,2.2v4.1A1.47,1.47,0,0,0,388.55,238.42Zm-1.75-1.08v-2.06h-1.17c-1.66,0-2.49.61-2.49,1.84a1.71,1.71,0,0,0,.4,1.21,1.52,1.52,0,0,0,1.15.4A2.33,2.33,0,0,0,386.8,237.34Z" style="fill:#1d1d1b"/><path d="M398.44,228.49a4.63,4.63,0,0,1,1.73,2.07,9,9,0,0,1,0,6.56,4.63,4.63,0,0,1-1.73,2.07,4.7,4.7,0,0,1-2.6.72,4.83,4.83,0,0,1-2.59-.7,4.6,4.6,0,0,1-1.73-2.06,8.93,8.93,0,0,1,0-6.54,4.52,4.52,0,0,1,4.32-2.82A4.77,4.77,0,0,1,398.44,228.49Zm-5,1.78a6.16,6.16,0,0,0-.85,3.6,6,6,0,0,0,.86,3.57,2.8,2.8,0,0,0,2.37,1.14c2.16,0,3.23-1.57,3.23-4.73s-1.07-4.74-3.23-4.74A2.79,2.79,0,0,0,393.46,230.27Z" style="fill:#1d1d1b"/><path d="M406.33,225.89V228h2v1.06h-2v2.09h-1.18v-2.09h-2V228h2v-2.1Z" style="fill:#1d1d1b"/><path d="M270.24,227.75a5.25,5.25,0,0,1,1.47.88l-.89,1a3.53,3.53,0,0,0-2.26-.87,2.85,2.85,0,0,0-2.35,1.12,5.77,5.77,0,0,0-.9,3.6,5.86,5.86,0,0,0,.89,3.57,2.82,2.82,0,0,0,2.34,1.14,3.13,3.13,0,0,0,1.31-.25,6.51,6.51,0,0,0,1.19-.72l.8,1a4.31,4.31,0,0,1-1.39.94,4.83,4.83,0,0,1-2,.37,4.46,4.46,0,0,1-4.27-2.78,7.79,7.79,0,0,1-.62-3.29,7.62,7.62,0,0,1,.64-3.28,4.8,4.8,0,0,1,1.75-2.07,4.58,4.58,0,0,1,2.47-.7A4.93,4.93,0,0,1,270.24,227.75Z" style="fill:#1d1d1b"/><path d="M274.21,239.08a2,2,0,0,1-.5-1.46V226.83l1.57-.19v11a.94.94,0,0,0,.12.54.5.5,0,0,0,.44.17,1.48,1.48,0,0,0,.57-.1l.41,1.09a2.58,2.58,0,0,1-1.24.3A1.84,1.84,0,0,1,274.21,239.08Z" style="fill:#1d1d1b"/><path d="M281.29,236.39a1.74,1.74,0,0,1,.71.66,1.71,1.71,0,0,1,.25.93,2.52,2.52,0,0,1-.28,1.17,5.55,5.55,0,0,1-.84,1.21c-.38.43-1,1-1.73,1.81h3l-.11.77h-3.95v-.73c.89-.93,1.53-1.61,1.9-2a6.19,6.19,0,0,0,.8-1.13,2.26,2.26,0,0,0,.24-1,1.1,1.1,0,0,0-.3-.82,1.12,1.12,0,0,0-.8-.29,1.53,1.53,0,0,0-.72.17,2.46,2.46,0,0,0-.66.56l-.6-.48a2.8,2.8,0,0,1,.91-.76,2.43,2.43,0,0,1,1.12-.25A2.2,2.2,0,0,1,281.29,236.39Z" style="fill:#1d1d1b"/><path d="M374.32,396.14v-5.49h-4.93v5.49h-1.62V384.43h1.62v4.9h4.93v-4.9h1.61v11.71Z" style="fill:#1d1d1b"/><path d="M381.42,393.14a1.72,1.72,0,0,1,.7.66,1.75,1.75,0,0,1,.25.93,2.64,2.64,0,0,1-.27,1.17,5.39,5.39,0,0,1-.85,1.21c-.38.44-.95,1-1.72,1.82h3l-.11.76h-3.95V399c.9-.92,1.53-1.6,1.9-2a5.45,5.45,0,0,0,.8-1.13,2.26,2.26,0,0,0,.24-1,1.09,1.09,0,0,0-.29-.81,1.1,1.1,0,0,0-.8-.3,1.54,1.54,0,0,0-.73.17,3.39,3.39,0,0,0-.66.56l-.6-.48a2.91,2.91,0,0,1,.91-.76,2.6,2.6,0,0,1,1.13-.25A2.23,2.23,0,0,1,381.42,393.14Z" style="fill:#1d1d1b"/><path d="M392.29,384.93A4.71,4.71,0,0,1,394,387a9,9,0,0,1,0,6.56,4.71,4.71,0,0,1-1.74,2.07,4.64,4.64,0,0,1-2.59.72,4.72,4.72,0,0,1-2.59-.7,4.56,4.56,0,0,1-1.74-2.06,8.93,8.93,0,0,1,0-6.54,4.75,4.75,0,0,1,1.75-2.1,4.63,4.63,0,0,1,2.58-.72A4.72,4.72,0,0,1,392.29,384.93Zm-5,1.78a6.08,6.08,0,0,0-.85,3.6,6,6,0,0,0,.86,3.57A2.8,2.8,0,0,0,389.7,395q3.23,0,3.23-4.72t-3.23-4.75A2.79,2.79,0,0,0,387.32,386.71Z" style="fill:#1d1d1b"/><path d="M464.64,320.37h-5.71a3.5,3.5,0,0,0,.75,2.18,2.17,2.17,0,0,0,1.66.7,3.76,3.76,0,0,0,1.19-.19,4.78,4.78,0,0,0,1.14-.59l.68.93a4.93,4.93,0,0,1-3.13,1.12,3.65,3.65,0,0,1-2.91-1.22,5,5,0,0,1-1.05-3.37,6.36,6.36,0,0,1,.45-2.47,3.91,3.91,0,0,1,1.3-1.69,3.26,3.26,0,0,1,2-.62,3.31,3.31,0,0,1,2.73,1.18,5,5,0,0,1,1,3.24C464.68,319.84,464.66,320.1,464.64,320.37Zm-1.51-1.25a3.34,3.34,0,0,0-.53-2,1.86,1.86,0,0,0-1.58-.69c-1.28,0-2,.94-2.09,2.82h4.2Z" style="fill:#1d1d1b"/><path d="M228.91,320.37h-5.72a3.5,3.5,0,0,0,.75,2.18,2.2,2.2,0,0,0,1.67.7,3.76,3.76,0,0,0,1.19-.19,5.19,5.19,0,0,0,1.14-.59l.68.93a5,5,0,0,1-3.13,1.12,3.65,3.65,0,0,1-2.92-1.22,5.07,5.07,0,0,1-1-3.37,6.36,6.36,0,0,1,.45-2.47,3.89,3.89,0,0,1,1.29-1.69,3.26,3.26,0,0,1,2-.62,3.34,3.34,0,0,1,2.74,1.18,5,5,0,0,1,.95,3.24C228.94,319.84,228.93,320.1,228.91,320.37Zm-1.52-1.25a3.34,3.34,0,0,0-.52-2,1.87,1.87,0,0,0-1.59-.69c-1.28,0-2,.94-2.09,2.82h4.2Z" style="fill:#1d1d1b"/><path d="M594.32,234.57a6.89,6.89,0,0,1,2,1.27l-1.09,1.22a6.17,6.17,0,0,0-1.6-.95,4.53,4.53,0,0,0-1.69-.31,3.13,3.13,0,0,0-1.87.53,1.77,1.77,0,0,0-.74,1.53,2.16,2.16,0,0,0,.25,1.06,2.25,2.25,0,0,0,.94.79,11.28,11.28,0,0,0,2,.75,12.27,12.27,0,0,1,2.27.91,3.69,3.69,0,0,1,2,3.48,4.09,4.09,0,0,1-.62,2.23,4.18,4.18,0,0,1-1.79,1.51,6.5,6.5,0,0,1-2.76.55,6.75,6.75,0,0,1-4.91-1.87l1.09-1.22a7.19,7.19,0,0,0,1.78,1.08,5.27,5.27,0,0,0,2,.37,3.62,3.62,0,0,0,2.23-.66,2.58,2.58,0,0,0,.6-3.11,2.36,2.36,0,0,0-.93-.85,9.51,9.51,0,0,0-1.92-.76,8.5,8.5,0,0,1-3.26-1.61,3.34,3.34,0,0,1-1-2.57,3.47,3.47,0,0,1,.58-1.95,3.91,3.91,0,0,1,1.62-1.34,5.41,5.41,0,0,1,2.36-.49A6.78,6.78,0,0,1,594.32,234.57Z" style="fill:#1d1d1b"/><path d="M607.39,239.12a6.41,6.41,0,0,1,1.29,4.22,7.35,7.35,0,0,1-.58,3,4.64,4.64,0,0,1-1.7,2,4.81,4.81,0,0,1-2.65.73,4.46,4.46,0,0,1-3.63-1.56,6.34,6.34,0,0,1-1.31-4.22,7.34,7.34,0,0,1,.59-3,4.57,4.57,0,0,1,1.7-2,4.8,4.8,0,0,1,2.67-.73A4.44,4.44,0,0,1,607.39,239.12Zm-6.5,4.24c0,2.82,1,4.22,2.86,4.22s2.86-1.41,2.86-4.24-1-4.22-2.84-4.22S600.89,240.53,600.89,243.36Z" style="fill:#1d1d1b"/><path d="M620.44,233.37v15.51h-1.7l-.19-1.53a4,4,0,0,1-1.36,1.31,3.79,3.79,0,0,1-4.91-1.08,7.12,7.12,0,0,1-1.1-4.18,8.13,8.13,0,0,1,.53-3,4.7,4.7,0,0,1,1.51-2.07,3.72,3.72,0,0,1,2.31-.75,4,4,0,0,1,3,1.37v-5.8Zm-3.15,13.82a4.69,4.69,0,0,0,1.22-1.22v-5.42a4,4,0,0,0-1.16-1.08,2.66,2.66,0,0,0-1.4-.37,2.24,2.24,0,0,0-2,1.07,5.84,5.84,0,0,0-.71,3.19,6.21,6.21,0,0,0,.65,3.19,2.09,2.09,0,0,0,1.87,1A2.65,2.65,0,0,0,617.29,247.19Z" style="fill:#1d1d1b"/><path d="M632.12,247.3a1.34,1.34,0,0,0,.69.49l-.44,1.35a2.82,2.82,0,0,1-1.38-.49,2.21,2.21,0,0,1-.78-1.17,3.72,3.72,0,0,1-3.3,1.66,3.52,3.52,0,0,1-2.58-.93,3.53,3.53,0,0,1,.32-5.12,6,6,0,0,1,3.61-1H630v-.82a2.16,2.16,0,0,0-.57-1.68,2.6,2.6,0,0,0-1.74-.5,9.84,9.84,0,0,0-3,.59l-.48-1.41a11.25,11.25,0,0,1,3.82-.76,4,4,0,0,1,2.92,1,3.63,3.63,0,0,1,1,2.72v5.06A1.7,1.7,0,0,0,632.12,247.3ZM630,246v-2.55h-1.45c-2,0-3.07.76-3.07,2.27a2.07,2.07,0,0,0,.48,1.49,1.89,1.89,0,0,0,1.43.51A2.9,2.9,0,0,0,630,246Z" style="fill:#1d1d1b"/><path d="M648.78,234.5a6.55,6.55,0,0,1,1.82,1.09l-1.09,1.28a4.41,4.41,0,0,0-2.8-1.07,3.5,3.5,0,0,0-2.9,1.39,9.41,9.41,0,0,0,0,8.85,3.47,3.47,0,0,0,2.89,1.42,3.87,3.87,0,0,0,1.62-.32,8.5,8.5,0,0,0,1.47-.88l1,1.26a5.29,5.29,0,0,1-1.72,1.15,5.94,5.94,0,0,1-2.42.47,5.57,5.57,0,0,1-5.28-3.44,9.77,9.77,0,0,1-.77-4.06,9.45,9.45,0,0,1,.8-4.06,5.91,5.91,0,0,1,2.16-2.56,5.64,5.64,0,0,1,3.05-.86A6.3,6.3,0,0,1,648.78,234.5Z" style="fill:#1d1d1b"/><path d="M660.87,247.3a1.34,1.34,0,0,0,.69.49l-.44,1.35a2.9,2.9,0,0,1-1.39-.49,2.2,2.2,0,0,1-.77-1.17,3.74,3.74,0,0,1-3.3,1.66,3.52,3.52,0,0,1-2.58-.93,3.53,3.53,0,0,1,.32-5.12,6,6,0,0,1,3.6-1h1.7v-.82a2.16,2.16,0,0,0-.56-1.68,2.6,2.6,0,0,0-1.74-.5,9.84,9.84,0,0,0-3,.59l-.48-1.41a11.25,11.25,0,0,1,3.82-.76,4,4,0,0,1,2.92,1,3.63,3.63,0,0,1,1,2.72v5.06A1.7,1.7,0,0,0,660.87,247.3Zm-2.54-15.24.86,1.62-4.45,1.81-.59-1ZM658.7,246v-2.55h-1.44c-2,0-3.07.76-3.07,2.27a2.07,2.07,0,0,0,.48,1.49,1.88,1.88,0,0,0,1.43.51A2.88,2.88,0,0,0,658.7,246Z" style="fill:#1d1d1b"/><path d="M672.84,248.88h-1.66l-.15-1.72a4.11,4.11,0,0,1-1.45,1.5,3.86,3.86,0,0,1-2,.48,2.94,2.94,0,0,1-2.27-.89,3.49,3.49,0,0,1-.82-2.49v-7.94h1.93v7.73a2.53,2.53,0,0,0,.4,1.6,1.6,1.6,0,0,0,1.3.47,3.28,3.28,0,0,0,2.78-1.91v-7.89h1.93Z" style="fill:#1d1d1b"/><path d="M681.87,237.88a6.22,6.22,0,0,1,1.72,1l-.82,1.21a6.38,6.38,0,0,0-1.44-.71,4.53,4.53,0,0,0-1.44-.23,2.53,2.53,0,0,0-1.49.39,1.32,1.32,0,0,0,0,2.11,6,6,0,0,0,1.86.73,6.7,6.7,0,0,1,2.76,1.26,2.75,2.75,0,0,1,.92,2.19,2.81,2.81,0,0,1-1.28,2.49,5.33,5.33,0,0,1-3.09.87,6.14,6.14,0,0,1-4.18-1.45l1-1.18a5,5,0,0,0,3.1,1.07,3,3,0,0,0,1.74-.45,1.44,1.44,0,0,0,.64-1.23,1.63,1.63,0,0,0-.23-.91,1.88,1.88,0,0,0-.8-.61,10.8,10.8,0,0,0-1.66-.56,5.61,5.61,0,0,1-2.55-1.24,2.61,2.61,0,0,1-.79-2,2.53,2.53,0,0,1,.52-1.56,3.3,3.3,0,0,1,1.42-1.1,5.2,5.2,0,0,1,2.05-.39A6.15,6.15,0,0,1,681.87,237.88Z" style="fill:#1d1d1b"/><path d="M692.22,248.38a4.28,4.28,0,0,1-2.48.76,2.9,2.9,0,0,1-2.19-.81,3.2,3.2,0,0,1-.79-2.34v-6.68h-1.93v-1.49h1.93v-2.5l1.93-.23v2.73h2.63l-.21,1.49h-2.42v6.59a2,2,0,0,0,.31,1.25,1.21,1.21,0,0,0,1,.39,3.24,3.24,0,0,0,1.47-.44Z" style="fill:#1d1d1b"/><path d="M696.15,232.88a1.3,1.3,0,0,1,.38,1,1.24,1.24,0,0,1-.38.93,1.48,1.48,0,0,1-2,0,1.23,1.23,0,0,1-.37-.93,1.29,1.29,0,0,1,.37-1,1.45,1.45,0,0,1,2,0Zm0,4.94v11.06h-1.93V237.82Z" style="fill:#1d1d1b"/><path d="M706,237.85a5,5,0,0,1,1.57.91l-.92,1.22a4.84,4.84,0,0,0-1.15-.62,3.69,3.69,0,0,0-1.23-.2,2.42,2.42,0,0,0-2.09,1.07,5.62,5.62,0,0,0-.74,3.17,5.25,5.25,0,0,0,.73,3.1,2.44,2.44,0,0,0,2.1,1,3.51,3.51,0,0,0,1.2-.2,6.31,6.31,0,0,0,1.22-.64l.88,1.26a5.28,5.28,0,0,1-3.38,1.22,4.41,4.41,0,0,1-3.54-1.52,6.22,6.22,0,0,1-1.29-4.18,7.39,7.39,0,0,1,.59-3.08,4.76,4.76,0,0,1,1.67-2.06,4.47,4.47,0,0,1,2.57-.74A5.5,5.5,0,0,1,706,237.85Z" style="fill:#1d1d1b"/><path d="M717.86,247.3a1.43,1.43,0,0,0,.69.49l-.44,1.35a2.86,2.86,0,0,1-1.38-.49,2.21,2.21,0,0,1-.78-1.17,3.72,3.72,0,0,1-3.3,1.66,3.52,3.52,0,0,1-2.58-.93,3.21,3.21,0,0,1-.94-2.41,3.16,3.16,0,0,1,1.27-2.71,5.91,5.91,0,0,1,3.6-1h1.7v-.82a2.16,2.16,0,0,0-.57-1.68,2.6,2.6,0,0,0-1.74-.5,9.79,9.79,0,0,0-3,.59l-.49-1.41a11.31,11.31,0,0,1,3.83-.76,4,4,0,0,1,2.91,1,3.63,3.63,0,0,1,1,2.72v5.06A1.78,1.78,0,0,0,717.86,247.3ZM715.7,246v-2.55h-1.45c-2,0-3.07.76-3.07,2.27a2,2,0,0,0,.49,1.49,1.85,1.85,0,0,0,1.42.51A2.9,2.9,0,0,0,715.7,246Z" style="fill:#1d1d1b"/><path d="M471.66,35.75V29h-6.09v6.78h-2V21.28h2v6h6.09v-6h2V35.75Z" style="fill:#1d1d1b"/><path d="M479.68,19.75a1.3,1.3,0,0,1,.38.95,1.25,1.25,0,0,1-.38.93,1.33,1.33,0,0,1-1,.37,1.3,1.3,0,0,1-1-.37,1.25,1.25,0,0,1-.38-.93,1.3,1.3,0,0,1,.38-.95,1.31,1.31,0,0,1,1-.38A1.33,1.33,0,0,1,479.68,19.75Zm0,4.93V35.75h-1.93V24.68Z" style="fill:#1d1d1b"/><path d="M492.24,20.23V35.75h-1.7l-.19-1.53A4,4,0,0,1,489,35.53a3.82,3.82,0,0,1-4.91-1.08,7.14,7.14,0,0,1-1.1-4.18,8.14,8.14,0,0,1,.52-3A4.71,4.71,0,0,1,485,25.18a3.68,3.68,0,0,1,2.31-.75,4,4,0,0,1,3,1.37V20Zm-3.15,13.83a4.59,4.59,0,0,0,1.22-1.23V27.42a4.24,4.24,0,0,0-1.17-1.09,2.72,2.72,0,0,0-1.39-.36,2.23,2.23,0,0,0-2,1.07,5.85,5.85,0,0,0-.7,3.19,6.21,6.21,0,0,0,.65,3.19,2.07,2.07,0,0,0,1.87,1A2.73,2.73,0,0,0,489.09,34.06Z" style="fill:#1d1d1b"/><path d="M502.13,24.56l-.36,1.89a4.1,4.1,0,0,0-1-.13,2.07,2.07,0,0,0-1.66.76,5.63,5.63,0,0,0-1,2.35v6.32h-1.93V24.68h1.66l.19,2.25a4.16,4.16,0,0,1,1.2-1.87,2.66,2.66,0,0,1,1.76-.63A4.23,4.23,0,0,1,502.13,24.56Z" style="fill:#1d1d1b"/><path d="M512.12,26a6.39,6.39,0,0,1,1.29,4.22,7.34,7.34,0,0,1-.59,3,4.57,4.57,0,0,1-1.7,2,4.78,4.78,0,0,1-2.65.72,4.47,4.47,0,0,1-3.63-1.55,6.36,6.36,0,0,1-1.3-4.22,7.27,7.27,0,0,1,.59-3,4.54,4.54,0,0,1,1.7-2,4.79,4.79,0,0,1,2.66-.73A4.46,4.46,0,0,1,512.12,26Zm-6.5,4.24q0,4.22,2.85,4.22t2.86-4.24c0-2.82-.95-4.22-2.84-4.22S505.62,27.4,505.62,30.23Z" style="fill:#1d1d1b"/><path d="M525.52,25.19a5.82,5.82,0,0,1-1.38.27c-.51,0-1.12.07-1.85.07a2.91,2.91,0,0,1,2,2.79A3.52,3.52,0,0,1,523.11,31a4.38,4.38,0,0,1-3.09,1,4.51,4.51,0,0,1-1.4-.21,1.09,1.09,0,0,0-.4.45,1.22,1.22,0,0,0-.15.58c0,.6.48.9,1.45.9h1.76a4.64,4.64,0,0,1,2,.4,3.14,3.14,0,0,1,1.33,1.09,2.7,2.7,0,0,1,.47,1.58,2.8,2.8,0,0,1-1.32,2.48,7,7,0,0,1-3.86.87,8.93,8.93,0,0,1-2.83-.36,2.7,2.7,0,0,1-1.48-1.1,3.7,3.7,0,0,1-.44-1.89h1.74a2,2,0,0,0,.25,1.06,1.6,1.6,0,0,0,.91.58,6.35,6.35,0,0,0,1.85.2,5.18,5.18,0,0,0,2.48-.43,1.39,1.39,0,0,0,.75-1.29,1.32,1.32,0,0,0-.59-1.17,2.86,2.86,0,0,0-1.64-.4h-1.74a3.26,3.26,0,0,1-2.13-.6,1.88,1.88,0,0,1-.73-1.5,1.93,1.93,0,0,1,.32-1,3.11,3.11,0,0,1,.9-.91,3.51,3.51,0,0,1-1.42-1.25,3.42,3.42,0,0,1-.45-1.81,3.67,3.67,0,0,1,.56-2,3.77,3.77,0,0,1,1.53-1.37,4.76,4.76,0,0,1,2.18-.5,14.19,14.19,0,0,0,2.18-.09,7.3,7.3,0,0,0,1.46-.32c.38-.13.86-.32,1.42-.57Zm-7.31,1.31a2.63,2.63,0,0,0-.6,1.8,2.59,2.59,0,0,0,.61,1.81,2.17,2.17,0,0,0,1.72.69,2.22,2.22,0,0,0,1.73-.66,2.7,2.7,0,0,0,.6-1.86q0-2.46-2.37-2.46A2.14,2.14,0,0,0,518.21,26.5Z" style="fill:#1d1d1b"/><path d="M535.83,30.88h-7.05a4.32,4.32,0,0,0,.92,2.69,2.71,2.71,0,0,0,2.06.86,4.62,4.62,0,0,0,1.47-.23,6,6,0,0,0,1.41-.74l.84,1.16A6.16,6.16,0,0,1,531.61,36a4.47,4.47,0,0,1-3.6-1.51,6.2,6.2,0,0,1-1.29-4.16,7.9,7.9,0,0,1,.56-3,4.77,4.77,0,0,1,1.59-2.09,4,4,0,0,1,2.45-.76,4.11,4.11,0,0,1,3.38,1.45,6.18,6.18,0,0,1,1.18,4C535.88,30.22,535.86,30.54,535.83,30.88Zm-7.11-8.44-.82-1,2.83-2.37H532l2.86,2.37-.84,1-2.65-1.77ZM534,29.33a4.1,4.1,0,0,0-.65-2.5,2.3,2.3,0,0,0-2-.86q-2.37,0-2.58,3.48H534Z" style="fill:#1d1d1b"/><path d="M546.53,25.34a3.44,3.44,0,0,1,.86,2.47v7.94h-1.94V28.09a2.41,2.41,0,0,0-.44-1.66,1.68,1.68,0,0,0-1.3-.48,2.46,2.46,0,0,0-1.55.5,5.24,5.24,0,0,0-1.26,1.45v7.85H539V24.68h1.66l.17,1.64a4.37,4.37,0,0,1,1.46-1.38,3.73,3.73,0,0,1,1.92-.51A3,3,0,0,1,546.53,25.34Z" style="fill:#1d1d1b"/><path d="M553.2,19.75a1.3,1.3,0,0,1,.38.95,1.25,1.25,0,0,1-.38.93,1.33,1.33,0,0,1-1,.37,1.3,1.3,0,0,1-1-.37,1.25,1.25,0,0,1-.38-.93,1.3,1.3,0,0,1,.38-.95,1.31,1.31,0,0,1,1-.38A1.33,1.33,0,0,1,553.2,19.75Zm0,4.93V35.75h-1.93V24.68Z" style="fill:#1d1d1b"/><path d="M565,26a6.39,6.39,0,0,1,1.29,4.22,7.35,7.35,0,0,1-.58,3,4.64,4.64,0,0,1-1.7,2,4.8,4.8,0,0,1-2.65.72,4.45,4.45,0,0,1-3.63-1.55,6.36,6.36,0,0,1-1.31-4.22,7.43,7.43,0,0,1,.59-3,4.6,4.6,0,0,1,1.7-2,4.8,4.8,0,0,1,2.67-.73A4.44,4.44,0,0,1,565,26Zm-6.5,4.24q0,4.22,2.86,4.22c1.9,0,2.86-1.41,2.86-4.24s-1-4.22-2.84-4.22S558.47,27.4,558.47,30.23Z" style="fill:#1d1d1b"/><path d="M349.31,66.46a6.5,6.5,0,0,1,1.81,1.09L350,68.83a4.38,4.38,0,0,0-2.79-1.07,3.51,3.51,0,0,0-2.91,1.39,7.13,7.13,0,0,0-1.1,4.45,7.2,7.2,0,0,0,1.09,4.4,3.49,3.49,0,0,0,2.9,1.42,3.85,3.85,0,0,0,1.61-.32,7.81,7.81,0,0,0,1.47-.88l1,1.26a5.47,5.47,0,0,1-1.72,1.16,6.11,6.11,0,0,1-2.42.46,5.53,5.53,0,0,1-5.28-3.44,9.78,9.78,0,0,1-.76-4.06,9.45,9.45,0,0,1,.79-4.06A6,6,0,0,1,344.07,67a5.61,5.61,0,0,1,3-.86A6.4,6.4,0,0,1,349.31,66.46Z" style="fill:#1d1d1b"/><path d="M361.39,79.26a1.43,1.43,0,0,0,.69.49l-.44,1.35a2.86,2.86,0,0,1-1.38-.49,2.21,2.21,0,0,1-.78-1.17,3.72,3.72,0,0,1-3.3,1.66,3.52,3.52,0,0,1-2.58-.93,3.21,3.21,0,0,1-.94-2.41,3.16,3.16,0,0,1,1.27-2.71,5.91,5.91,0,0,1,3.6-1h1.7v-.81a2.17,2.17,0,0,0-.57-1.69,2.6,2.6,0,0,0-1.74-.5,9.79,9.79,0,0,0-3,.59l-.49-1.41a11.28,11.28,0,0,1,3.83-.75,4,4,0,0,1,2.92,1,3.67,3.67,0,0,1,1,2.72v5.06A1.78,1.78,0,0,0,361.39,79.26ZM358.85,64l.86,1.62-4.45,1.81-.59-1Zm.38,13.91V75.39h-1.45c-2,0-3.07.75-3.07,2.26a2,2,0,0,0,.49,1.49,1.85,1.85,0,0,0,1.42.51A2.9,2.9,0,0,0,359.23,77.93Z" style="fill:#1d1d1b"/><path d="M370.72,80.34a4.23,4.23,0,0,1-2.48.76,2.94,2.94,0,0,1-2.2-.81,3.24,3.24,0,0,1-.78-2.34V71.27h-1.94V69.78h1.94v-2.5l1.93-.23v2.73h2.62l-.21,1.49h-2.41v6.59a2.05,2.05,0,0,0,.3,1.25,1.22,1.22,0,0,0,1,.39,3.24,3.24,0,0,0,1.47-.44Z" style="fill:#1d1d1b"/><path d="M380.49,71.08a6.41,6.41,0,0,1,1.29,4.22,7.27,7.27,0,0,1-.59,3,4.54,4.54,0,0,1-1.7,2,4.67,4.67,0,0,1-2.64.73,4.48,4.48,0,0,1-3.64-1.56,6.39,6.39,0,0,1-1.3-4.22,7.34,7.34,0,0,1,.59-3,4.57,4.57,0,0,1,1.7-2,4.8,4.8,0,0,1,2.67-.72A4.43,4.43,0,0,1,380.49,71.08ZM374,75.32c0,2.82.95,4.22,2.86,4.22s2.85-1.41,2.85-4.24-.94-4.22-2.83-4.22S374,72.49,374,75.32Z" style="fill:#1d1d1b"/><path d="M393.54,65.33V80.85h-1.7l-.19-1.54a4,4,0,0,1-1.36,1.31,3.79,3.79,0,0,1-4.91-1.08,7.12,7.12,0,0,1-1.1-4.18,8.13,8.13,0,0,1,.53-3,4.7,4.7,0,0,1,1.51-2.07,3.71,3.71,0,0,1,2.31-.74,4,4,0,0,1,3,1.36V65.1Zm-3.15,13.82a4.69,4.69,0,0,0,1.22-1.22V72.51a4,4,0,0,0-1.16-1.08,2.66,2.66,0,0,0-1.4-.37,2.25,2.25,0,0,0-2,1.07,5.85,5.85,0,0,0-.7,3.19,6.21,6.21,0,0,0,.65,3.19,2.09,2.09,0,0,0,1.87,1A2.65,2.65,0,0,0,390.39,79.15Z" style="fill:#1d1d1b"/><path d="M405.31,71.08a6.41,6.41,0,0,1,1.29,4.22,7.43,7.43,0,0,1-.58,3,4.67,4.67,0,0,1-1.7,2,4.73,4.73,0,0,1-2.65.73A4.46,4.46,0,0,1,398,79.54a6.34,6.34,0,0,1-1.31-4.22,7.34,7.34,0,0,1,.59-3,4.57,4.57,0,0,1,1.7-2,4.8,4.8,0,0,1,2.67-.72A4.43,4.43,0,0,1,405.31,71.08Zm-6.5,4.24c0,2.82.95,4.22,2.86,4.22s2.86-1.41,2.86-4.24-.95-4.22-2.84-4.22S398.81,72.49,398.81,75.32Z" style="fill:#1d1d1b"/><path d="M290.68,42.86l-1.09-3.64h-5.48L283,42.86h-2l4.64-14.47h2.52l4.62,14.47Zm-6.45-15.94-.84-1,2.86-2.31h1.28L290.36,26l-.82,1-2.66-1.7Zm.36,10.69h4.51l-2.24-7.56Z" style="fill:#1d1d1b"/><path d="M302.47,32.44a3.46,3.46,0,0,1,.85,2.48v7.94h-1.93V35.19a2.48,2.48,0,0,0-.44-1.66,1.69,1.69,0,0,0-1.3-.48,2.57,2.57,0,0,0-1.56.5A5.24,5.24,0,0,0,296.83,35v7.86H294.9V31.79h1.66l.17,1.64A4.31,4.31,0,0,1,298.19,32a3.72,3.72,0,0,1,1.92-.5A3.09,3.09,0,0,1,302.47,32.44Z" style="fill:#1d1d1b"/><path d="M315,33.09a6.41,6.41,0,0,1,1.29,4.22,7.43,7.43,0,0,1-.59,3,4.6,4.6,0,0,1-1.7,2,4.7,4.7,0,0,1-2.65.73,4.47,4.47,0,0,1-3.63-1.56,6.34,6.34,0,0,1-1.3-4.22,7.35,7.35,0,0,1,.58-3,4.59,4.59,0,0,1,1.71-2,4.79,4.79,0,0,1,2.66-.72A4.45,4.45,0,0,1,315,33.09Zm-6.5,4.24c0,2.82.95,4.22,2.85,4.22s2.86-1.41,2.86-4.24-.95-4.22-2.84-4.22S308.49,34.51,308.49,37.33Z" style="fill:#1d1d1b"/><path d="M328,27.34V42.86h-1.7l-.19-1.54a4.11,4.11,0,0,1-1.37,1.32,3.61,3.61,0,0,1-1.83.47,3.54,3.54,0,0,1-3.07-1.56,7,7,0,0,1-1.1-4.18,8.14,8.14,0,0,1,.52-3,4.7,4.7,0,0,1,1.51-2.07,3.77,3.77,0,0,1,2.31-.74,4,4,0,0,1,3,1.36V27.11Zm-3.15,13.83a4.88,4.88,0,0,0,1.21-1.23V34.52a4,4,0,0,0-1.16-1.08,2.64,2.64,0,0,0-1.4-.37,2.25,2.25,0,0,0-2,1.07,5.84,5.84,0,0,0-.71,3.19,6.1,6.1,0,0,0,.66,3.19,2.06,2.06,0,0,0,1.86,1A2.76,2.76,0,0,0,324.89,41.17Z" style="fill:#1d1d1b"/><path d="M339.81,33.09a6.41,6.41,0,0,1,1.29,4.22,7.43,7.43,0,0,1-.59,3,4.6,4.6,0,0,1-1.7,2,4.7,4.7,0,0,1-2.65.73,4.47,4.47,0,0,1-3.63-1.56,6.34,6.34,0,0,1-1.3-4.22,7.19,7.19,0,0,1,.59-3,4.57,4.57,0,0,1,1.7-2,4.79,4.79,0,0,1,2.66-.72A4.44,4.44,0,0,1,339.81,33.09Zm-6.5,4.24c0,2.82.95,4.22,2.85,4.22S339,40.14,339,37.31s-.95-4.22-2.84-4.22S333.31,34.51,333.31,37.33Z" style="fill:#1d1d1b"/><path d="M188.77,21.62a6.6,6.6,0,0,1,1.82,1.1L189.5,24a4.35,4.35,0,0,0-2.8-1.07,3.52,3.52,0,0,0-2.9,1.38,7.15,7.15,0,0,0-1.11,4.45,7.24,7.24,0,0,0,1.09,4.4,3.48,3.48,0,0,0,2.9,1.42,3.87,3.87,0,0,0,1.62-.31,8.6,8.6,0,0,0,1.47-.89l1,1.26A5.25,5.25,0,0,1,189,35.8a5.89,5.89,0,0,1-2.41.46,5.54,5.54,0,0,1-5.28-3.43,9.82,9.82,0,0,1-.77-4.07,9.48,9.48,0,0,1,.8-4.06,5.82,5.82,0,0,1,2.16-2.55,5.64,5.64,0,0,1,3.05-.86A6.31,6.31,0,0,1,188.77,21.62Z" style="fill:#1d1d1b"/><path d="M193.69,35.62a2.44,2.44,0,0,1-.62-1.79V20.49l1.93-.23V33.78a1.12,1.12,0,0,0,.16.68.61.61,0,0,0,.53.21,2,2,0,0,0,.72-.13l.5,1.34a3,3,0,0,1-1.53.38A2.22,2.22,0,0,1,193.69,35.62Z" style="fill:#1d1d1b"/><path d="M207.11,26.24a6.44,6.44,0,0,1,1.29,4.23,7.41,7.41,0,0,1-.59,3,4.68,4.68,0,0,1-1.7,2,4.78,4.78,0,0,1-2.65.72,4.5,4.5,0,0,1-3.63-1.55,6.37,6.37,0,0,1-1.3-4.22,7.27,7.27,0,0,1,.59-3,4.62,4.62,0,0,1,1.7-2,4.79,4.79,0,0,1,2.66-.72A4.48,4.48,0,0,1,207.11,26.24Zm-6.5,4.25q0,4.22,2.85,4.22c1.91,0,2.86-1.42,2.86-4.24s-.95-4.23-2.84-4.23S200.61,27.66,200.61,30.49Z" style="fill:#1d1d1b"/><path d="M217.49,24.82l-.36,1.89a3.69,3.69,0,0,0-1-.13,2,2,0,0,0-1.66.76,5.57,5.57,0,0,0-1,2.35V36h-1.93V24.94h1.66l.19,2.25a4.17,4.17,0,0,1,1.19-1.87,2.7,2.7,0,0,1,1.77-.63A4.23,4.23,0,0,1,217.49,24.82Z" style="fill:#1d1d1b"/><path d="M227.47,26.24a6.39,6.39,0,0,1,1.3,4.23,7.41,7.41,0,0,1-.59,3,4.68,4.68,0,0,1-1.7,2,4.78,4.78,0,0,1-2.65.72,4.5,4.5,0,0,1-3.63-1.55,6.37,6.37,0,0,1-1.3-4.22,7.43,7.43,0,0,1,.58-3,4.7,4.7,0,0,1,1.71-2,4.79,4.79,0,0,1,2.66-.72A4.45,4.45,0,0,1,227.47,26.24ZM221,30.49q0,4.22,2.85,4.22c1.91,0,2.86-1.42,2.86-4.24s-.95-4.23-2.84-4.23S221,27.66,221,30.49Z" style="fill:#1d1d1b"/><path d="M439,36.84a10.63,10.63,0,1,1,10.63-10.63A10.64,10.64,0,0,1,439,36.84Zm0-20.75a10.13,10.13,0,1,0,10.13,10.12A10.14,10.14,0,0,0,439,16.09Z" style="fill:#1d1d1b"/></g></g></svg>