<svg xmlns="http://www.w3.org/2000/svg" viewBox="0 0 197.05 59.25"><title>fig-1-12</title><g id="fig-1-12"><g id="preto"><path d="M14.14,23.85v9H12.91v-9Zm4.88,0L15.63,28l3.64,4.87H17.75L14.21,28l3.41-4.18Z"/><path d="M24.56,27.36A3.79,3.79,0,0,1,25,29.44a3.44,3.44,0,0,1-.55,2,1.8,1.8,0,0,1-1.56.78,1.73,1.73,0,0,1-1.41-.61v2.56l-.94.11V26.75h.81l.07.72a2.13,2.13,0,0,1,.71-.63,1.94,1.94,0,0,1,.88-.22A1.67,1.67,0,0,1,24.56,27.36ZM24,29.44c0-1.38-.4-2.07-1.21-2.07a1.26,1.26,0,0,0-.73.23,2.23,2.23,0,0,0-.57.61v2.63a1.49,1.49,0,0,0,.51.49,1.38,1.38,0,0,0,.67.16C23.59,31.49,24,30.81,24,29.44Z"/><path d="M38.91,27.76v-1H43.8v1Zm0,2.51v-1H43.8v1Z"/><rect x="54.1" y="27.57" width="131.34" height="0.5" style="fill:#020200"/><path d="M118.88,11.82a3,3,0,0,1,.93.59l-.5.57a3,3,0,0,0-.75-.45,2.3,2.3,0,0,0-.79-.14,1.49,1.49,0,0,0-.87.24.83.83,0,0,0-.34.72.84.84,0,0,0,.55.86,5.45,5.45,0,0,0,.92.35,5.84,5.84,0,0,1,1.06.42,1.75,1.75,0,0,1,.94,1.63,1.84,1.84,0,0,1-1.12,1.74,3,3,0,0,1-1.29.26,3.15,3.15,0,0,1-2.29-.87l.51-.57a3.33,3.33,0,0,0,.83.5,2.38,2.38,0,0,0,.94.17,1.65,1.65,0,0,0,1-.31,1,1,0,0,0,.41-.89,1.08,1.08,0,0,0-.13-.56,1.18,1.18,0,0,0-.43-.39,4.12,4.12,0,0,0-.9-.35,3.84,3.84,0,0,1-1.51-.76,1.53,1.53,0,0,1-.48-1.19,1.57,1.57,0,0,1,.27-.91,1.79,1.79,0,0,1,.75-.63,2.57,2.57,0,0,1,1.1-.23A3,3,0,0,1,118.88,11.82Z"/><path d="M125.3,12a2.73,2.73,0,0,1,1,1.19,4.54,4.54,0,0,1,.36,1.9,4.47,4.47,0,0,1-.36,1.88,2.82,2.82,0,0,1-1,1.2,2.76,2.76,0,0,1-1.5.41,2.84,2.84,0,0,1-1.49-.4,2.75,2.75,0,0,1-1-1.19,4.66,4.66,0,0,1-.35-1.89,4.71,4.71,0,0,1,.35-1.88,2.76,2.76,0,0,1,1-1.21,2.64,2.64,0,0,1,1.48-.42A2.76,2.76,0,0,1,125.3,12Zm-2.87,1a3.61,3.61,0,0,0-.48,2.08,3.46,3.46,0,0,0,.49,2.06,1.62,1.62,0,0,0,1.36.65c1.24,0,1.86-.9,1.86-2.72s-.62-2.73-1.86-2.73A1.62,1.62,0,0,0,122.43,13.05Z"/><path d="M130.81,16.08a1.63,1.63,0,0,1,.66.61,1.53,1.53,0,0,1,.23.83,1.44,1.44,0,0,1-.34,1,1.71,1.71,0,0,1-.93.52,1.68,1.68,0,0,1,1.07.47,1.54,1.54,0,0,1,.41,1.12,2,2,0,0,1-.27,1,2,2,0,0,1-.79.72,2.58,2.58,0,0,1-1.17.26,2.84,2.84,0,0,1-1.1-.22,2.43,2.43,0,0,1-.87-.67l.54-.5a2.17,2.17,0,0,0,.66.49,1.67,1.67,0,0,0,.74.16,1.3,1.3,0,0,0,1-.35,1.26,1.26,0,0,0,.35-.93,1.1,1.1,0,0,0-.33-.91,1.51,1.51,0,0,0-1-.27h-.49l.11-.69h.33a1.2,1.2,0,0,0,.85-.31,1.09,1.09,0,0,0,.33-.85.94.94,0,0,0-.29-.73,1.11,1.11,0,0,0-.79-.27,1.75,1.75,0,0,0-.7.14,2.25,2.25,0,0,0-.65.45l-.47-.54a2.69,2.69,0,0,1,1.87-.77A2.25,2.25,0,0,1,130.81,16.08Z"/><path d="M113.06,8.92a2.36,2.36,0,0,1,.87,2A2.43,2.43,0,0,1,113,13a3.87,3.87,0,0,1-2.41.69h-1.09v3.15h-1.18V8.25h2.25A4,4,0,0,1,113.06,8.92Zm-.93,3.44a1.69,1.69,0,0,0,.54-1.44,1.56,1.56,0,0,0-.54-1.33,2.49,2.49,0,0,0-1.55-.41h-1.06v3.57h1A2.65,2.65,0,0,0,112.13,12.36Z"/><path d="M124.36,39.53l.73.75-1.56,1.56,1.56,1.61-.73.73-1.56-1.61-1.61,1.61-.73-.73L122,41.89l-1.56-1.61.73-.75,1.56,1.63Z"/><path d="M85.39,38.14a3.37,3.37,0,0,1,1,.62l-.54.59a2.9,2.9,0,0,0-.78-.46,2.21,2.21,0,0,0-.82-.15,1.53,1.53,0,0,0-.91.26.85.85,0,0,0-.36.74.93.93,0,0,0,.13.52,1,1,0,0,0,.45.38,5.38,5.38,0,0,0,1,.37,6.27,6.27,0,0,1,1.1.44,2,2,0,0,1,.71.65,1.91,1.91,0,0,1,.27,1,2,2,0,0,1-.3,1.09,2,2,0,0,1-.87.73,3.11,3.11,0,0,1-1.34.27,3.25,3.25,0,0,1-2.39-.91l.53-.6a3.08,3.08,0,0,0,.87.53,2.55,2.55,0,0,0,1,.18,1.8,1.8,0,0,0,1.08-.32,1.1,1.1,0,0,0,.43-.94,1.16,1.16,0,0,0-.13-.58,1.17,1.17,0,0,0-.46-.41,4.44,4.44,0,0,0-.93-.37A4.11,4.11,0,0,1,82.46,41a1.61,1.61,0,0,1-.5-1.25,1.73,1.73,0,0,1,.28-1,1.82,1.82,0,0,1,.79-.65,2.66,2.66,0,0,1,1.15-.24A3.37,3.37,0,0,1,85.39,38.14Z"/><path d="M92.09,38.37a2.79,2.79,0,0,1,1,1.24,4.78,4.78,0,0,1,.37,2,4.7,4.7,0,0,1-.37,2,2.88,2.88,0,0,1-1,1.25,2.81,2.81,0,0,1-1.56.43A2.84,2.84,0,0,1,89,44.82a2.67,2.67,0,0,1-1-1.24,4.68,4.68,0,0,1-.38-2,4.74,4.74,0,0,1,.38-2,2.78,2.78,0,0,1,1-1.26,3,3,0,0,1,3.12,0Zm-3,1.07a3.59,3.59,0,0,0-.52,2.17,3.58,3.58,0,0,0,.52,2.14,1.69,1.69,0,0,0,1.43.69c1.29,0,1.94-.95,1.94-2.84s-.65-2.86-1.94-2.86A1.65,1.65,0,0,0,89.1,39.44Z"/><path d="M97.87,42.61a1.77,1.77,0,0,1,1,1.63,2.64,2.64,0,0,1-.28,1.2,5.7,5.7,0,0,1-.86,1.24c-.39.44-1,1.06-1.77,1.85H99l-.11.79h-4v-.75c.91-1,1.56-1.64,1.94-2.08a6.17,6.17,0,0,0,.82-1.16,2.31,2.31,0,0,0,.24-1,1.13,1.13,0,0,0-.3-.83,1.14,1.14,0,0,0-.82-.31,1.47,1.47,0,0,0-.74.18,2.71,2.71,0,0,0-.67.57l-.61-.49a2.63,2.63,0,0,1,.93-.78,2.51,2.51,0,0,1,1.14-.25A2.32,2.32,0,0,1,97.87,42.61Z"/><path d="M79.3,35.12a2.43,2.43,0,0,1,.91,2.08,2.55,2.55,0,0,1-.95,2.18,4.07,4.07,0,0,1-2.52.72H75.6v3.3H74.37v-9h2.35A4.15,4.15,0,0,1,79.3,35.12Zm-1,3.59a1.75,1.75,0,0,0,.57-1.5,1.65,1.65,0,0,0-.57-1.4,2.69,2.69,0,0,0-1.62-.43H75.6v3.74h1.08A2.83,2.83,0,0,0,78.33,38.71Z"/><path d="M159.47,38.37a2.75,2.75,0,0,1,1.05,1.24,4.78,4.78,0,0,1,.37,2,4.7,4.7,0,0,1-.37,2,2.83,2.83,0,0,1-1.05,1.25,2.76,2.76,0,0,1-1.55.43,2.84,2.84,0,0,1-1.56-.42,2.75,2.75,0,0,1-1.05-1.24,4.84,4.84,0,0,1-.37-2,4.91,4.91,0,0,1,.37-2,2.86,2.86,0,0,1,1.05-1.26,2.82,2.82,0,0,1,1.56-.44A2.76,2.76,0,0,1,159.47,38.37Zm-3,1.07a3.67,3.67,0,0,0-.51,2.17,3.58,3.58,0,0,0,.52,2.14,1.68,1.68,0,0,0,1.43.69c1.29,0,1.94-.95,1.94-2.84s-.65-2.86-1.94-2.86A1.67,1.67,0,0,0,156.48,39.44Z"/><path d="M164.83,42.61a1.77,1.77,0,0,1,1,1.63,2.64,2.64,0,0,1-.28,1.2,6.08,6.08,0,0,1-.86,1.24c-.39.44-1,1.06-1.77,1.85H166l-.11.79h-4v-.75c.91-1,1.56-1.64,1.94-2.08a6.17,6.17,0,0,0,.82-1.16,2.31,2.31,0,0,0,.24-1,1.13,1.13,0,0,0-.3-.83,1.14,1.14,0,0,0-.82-.31,1.47,1.47,0,0,0-.74.18,2.71,2.71,0,0,0-.67.57l-.62-.49a2.81,2.81,0,0,1,.93-.78,2.58,2.58,0,0,1,1.15-.25A2.32,2.32,0,0,1,164.83,42.61Z"/><path d="M152.26,35.12a2.46,2.46,0,0,1,.91,2.08,2.55,2.55,0,0,1-.95,2.18,4.11,4.11,0,0,1-2.53.72h-1.13v3.3h-1.23v-9h2.35A4.15,4.15,0,0,1,152.26,35.12Zm-1,3.59a1.77,1.77,0,0,0,.56-1.5,1.68,1.68,0,0,0-.56-1.4,2.69,2.69,0,0,0-1.62-.43h-1.11v3.74h1.08A2.83,2.83,0,0,0,151.29,38.71Z"/></g></g></svg>