<svg xmlns="http://www.w3.org/2000/svg" viewBox="0 0 730 438.06"><title>fig-6-5</title><g id="fig-6-5"><g id="roxo"><path d="M74.65,68.4c-32.32,0-48.95-5.6-49.17-5.68l.5-1.41c.28.1,29.16,9.79,85.1,3.42,44.1-5,67.63-.92,67.87-.88l-.27,1.48c-.23,0-23.59-4.1-67.43.89A323.44,323.44,0,0,1,74.65,68.4ZM209.26,49c-13.6,0-57.9-3.81-85.93-6.34-85.76-7.77-96.93,3.43-97,3.55l-1.15-1c.41-.49,11-12,98.32-4.08,81.61,7.39,88.5,6.42,89,6.28l.16.62.69.55C213.13,48.9,211.68,49,209.26,49Z" style="fill:#6827ab"/><path d="M487,361.79s-4.18-4.35.11-10.4a44.43,44.43,0,0,1,3.5-4.07c1.41-1.52,3-3.19,4.44-5.05-2.06-.4-8.42-.57-15.69,9.69-4.88,6.88-8.3,10.05-10.4,9.71a1.73,1.73,0,0,1-1.36-1.15l1.44-.43-.72.21.71-.24a.23.23,0,0,0,.2.13c.4,0,2.6-.2,8.9-9.1,8.63-12.18,16.4-10.58,17.9-10.12,3.52-4.84,6.25-10.93,4.88-19-2.18-12.8-11.48-22.43-14.47-25.24l0,.37a18.76,18.76,0,0,1-4.07,10.9A16.11,16.11,0,0,1,487.56,324c-1.94,9.71,4.64,11.91,4.92,12l-.44,1.43c-.09,0-8.16-2.65-6-13.72,1.7-8.5-3.16-13.22-4.75-14.51-2.63,2.93-6.67,6-12.94,8.79a30.75,30.75,0,0,0-10.77,7.81c2.67.39,8.09,1.6,9.88,5.24,1.16,2.35.61,5.24-1.64,8.57-2.42,3.58-3.16,6.35-2.2,8.24,1.32,2.62,5.56,2.81,5.6,2.81l0,1.5c-.21,0-5.17-.23-6.89-3.63-1.23-2.41-.45-5.69,2.29-9.76,1.93-2.85,2.45-5.23,1.55-7.07-1.7-3.45-7.89-4.34-9.66-4.52a32,32,0,0,0-6.35,19.72l-1.5.11c0-.21-1.32-21.25,19.13-30.39a50.45,50.45,0,0,0,5.12-2.63c-2.26-.73-8.42-1.3-21,6.33-7.51,4.54-12.86,5.95-15.91,4.18a5.13,5.13,0,0,1-2.38-4.39l1.5,0-.75,0,.75,0a3.61,3.61,0,0,0,1.65,3.06c1.75,1,5.65,1.1,14.36-4.18a69,69,0,0,1,7.19-3.84l-.19-.84c.39-.09,1.23-.44,1.31-.94.06-.34-.1-1.63-4.41-4.23-3.51-2.11-4.91-3.68-4.55-5.06.42-1.61,3.06-1.76,3.58-1.78l0,1.5c-1,0-2.09.37-2.17.66,0,0-.19.95,3.88,3.4,3.76,2.27,5.38,4.1,5.11,5.75a1.86,1.86,0,0,1-.14.49c8.37-3.26,12.38-1.84,13.68-1.12,9.58-6.27,10.14-12.87,10.41-16a9.45,9.45,0,0,1,.16-1.35c-4-2.48-29.42-16.7-46.17,5.52-.47,1.15-4.58,10.77-12.24,12a9.91,9.91,0,0,1-2.18.11,5.93,5.93,0,0,1-.59,3.13c-1,2-3,3.46-6.06,4.43-2.24.72-3.7,1.84-4.33,3.33a6.2,6.2,0,0,0,.23,4.65l-1.34.67a7.65,7.65,0,0,1-.28-5.89c.81-1.92,2.58-3.33,5.26-4.19s4.37-2.06,5.16-3.63a4.46,4.46,0,0,0,.42-2.7c-3.82-.78-7.77-3.65-11.8-8.56l1.16-.95c5,6.08,9.74,8.82,14.11,8.12,6.6-1,10.48-9.63,11.05-11-.19-1.32-1.51-9.26-6.1-12.83a8.29,8.29,0,0,0-6.4-1.66C413,287.81,410.36,276,410.34,275.9l1.47-.32c.09.44,2.39,10.57,12.93,9.17a9.72,9.72,0,0,1,7.51,2l.13.09c0-2.28.27-6.35,2.42-7.64,1.18-.7,2.64-.49,4.36.63,1.93,1.25,3.56,1.64,4.85,1.17a4.55,4.55,0,0,0,2.38-2.74l1.44.42a6,6,0,0,1-3.29,3.72c-1.76.66-3.85.21-6.2-1.31-1.2-.78-2.13-1-2.77-.6-1.57.94-1.84,5.26-1.64,7.76h-.07c3,3.36,4.29,8.23,4.8,10.8,8.52-10.4,19.09-12.27,28.11-11.2-.11-2.29-1.58-9.59-15.48-14.48-17.51-6.15-16.69-15.93-16.65-16.34l1.49.15c0,.09-.64,8.95,15.39,14.68.87-.38,3.81-1.83,4.3-4.24.34-1.65-.57-3.52-2.68-5.54-2.73-2.61-3.84-5-3.3-7,.76-2.88,4.52-3.84,4.68-3.88l.36,1.46s-3.06.79-3.59,2.81c-.39,1.44.61,3.35,2.89,5.52,2.51,2.4,3.56,4.73,3.11,6.93s-2.41,3.79-3.86,4.64c13.62,5.34,14.81,13.15,14.84,15.49a52.32,52.32,0,0,1,17,6.06,79.33,79.33,0,0,0-.66-16.22,14.2,14.2,0,0,1-10.52-3.26c-3.68-2.93-6.28-7.4-6.47-11.13a5.56,5.56,0,0,0-1.56-4.05,3.68,3.68,0,0,0-2.45-.87l-.13-1.49a5,5,0,0,1,3.54,1.21,6.93,6.93,0,0,1,2.1,5.12c.16,3.27,2.59,7.4,5.91,10a12.67,12.67,0,0,0,9.35,2.95,71.77,71.77,0,0,0-1.55-7h0a.47.47,0,0,1,0-.17c-2.65-9.49-7.49-18.4-15.33-24.53a36.1,36.1,0,0,1-5.17-4.9c-1.72-1.81-5.7-5.48-9.25-5.15-1.76.16-3.26,1.32-4.44,3.45-2.33,4.19-4.82,6.52-7.42,6.93a4.83,4.83,0,0,1-3.91-1l1-1.1a3.34,3.34,0,0,0,2.69.67c1.45-.25,3.72-1.51,6.31-6.18,1.44-2.59,3.33-4,5.61-4.21A9.87,9.87,0,0,1,459,235c-4.91-9-2-16.7-1.95-16.81l1.39.55c-.18.46-3.66,9.77,4.74,19.75.68.71,1.1,1.21,1.16,1.29h0a36.52,36.52,0,0,0,4.07,3.69,40.83,40.83,0,0,1,3.2,2.8c-.42-4.51-.48-14.16,6.51-15.94,4-1,5.28-2.33,5.67-3.26a1.88,1.88,0,0,0,0-1.57l1.29-.77a3.35,3.35,0,0,1,.12,2.88c-.75,1.83-3,3.23-6.7,4.17-2.44.62-3.84,2.52-4.62,4.82,1.63.17,4.34,1.52,8.5,3.83l1.3.72c2.25,1.21,7.74-.35,9.67-1.05l.51,1.4c-.77.29-7.64,2.72-10.89,1l-1.32-.73c-1.94-1.07-7-3.88-8.18-3.68a30.23,30.23,0,0,0-.11,10,50.46,50.46,0,0,1,10.44,19.15c2.59-3.55,9.74-10.06,14.64-13.62a35.85,35.85,0,0,1,6.5-3.91c1-1.78,8.25-15,.17-22-2.75-2.4-3.55-3.63-3-4.53.3-.47,1.11-1.71,10.37,2.61l-.63,1.36a40.18,40.18,0,0,0-8.21-3,15,15,0,0,0,2.42,2.45c7.8,6.83,3.16,18.13,1,22.43a4.57,4.57,0,0,1,3.6.31c5.11,3.27,13.41-2.76,13.49-2.82.34-.25,8.41-6.22,13.51-4.45a5.66,5.66,0,0,1,3.56,4.27,18.78,18.78,0,0,0,.72,2.26,36,36,0,0,0,.52-5.91l1.5,0c-.13,7.74-1.26,7.88-1.81,7.94-1,.11-1.58-.91-2.38-3.94a4.2,4.2,0,0,0-2.6-3.23c-4.36-1.52-12,4.17-12.12,4.23-.38.28-9.22,6.71-15.2,2.88-.74-.47-2-.37-3.73.3-7.84,3-20.85,16-21.78,18.22a77.92,77.92,0,0,1,2.52,24.13c3.67-4,13.46-13.9,21.59-14.31a8.35,8.35,0,0,1,6.5,2.41c.81.79,1.62,1.5,2.44,2.16h0c.14.09.67.47,1.48,1.1,18.26,12.75,39.82-3.93,40-4.12l.23-.18h0l11.23-7.56.84,1.24-9.79,6.59c5.3.81,19.11,4,20.07,15.6.65,7.86,3.09,13.34,7.27,16.29,5.19,3.66,11.38,2.08,11.44,2.07l.38,1.45A16.3,16.3,0,0,1,588,313.69c-4.38-3.08-7-8.58-7.83-16.35-2.1,1.05-7.11,3.94-8,8.12-.54,2.45.43,5,2.88,7.68,3.86,4.17,5.17,6.66,4.24,8.07-1.08,1.64-4.46.6-5.47.24l.5-1.41c1.65.58,3.45.75,3.72.35,0-.05.64-1.13-4.09-6.23-2.81-3-3.9-6.07-3.24-9,1.16-5.26,7.47-8.51,9.35-9.38-1.44-11.45-18-13.66-20.38-13.92-2.23,1.65-19,13.42-35.3,7.32,4.65,4.23,10.62,10.5,14.47,17.74a7.13,7.13,0,0,1,4.11-1.63c3.16-.22,6.62,1.53,10.26,5.16,4.39,4.39,6.45,4.55,7.29,4.25,1.15-.4,1.35-2.11,1.35-2.12l1.49.15c0,.1-.28,2.65-2.33,3.38s-5-.74-8.86-4.6c-3.31-3.3-6.35-4.9-9.07-4.72a5.6,5.6,0,0,0-3.54,1.51,29.62,29.62,0,0,1,3.22,12.33c.31,18.11,15.48,20.88,16.13,21l-.25,1.48c-.17,0-17-3.06-17.38-22.44-.16-9.25-6.34-18.24-12.48-24.91l0,.08A12.21,12.21,0,0,0,515,298.27c-7,6.93-13.64.67-13.7.61l1-1.09c.23.22,5.68,5.3,11.6-.58a13.4,13.4,0,0,1,12.74-3.6,91.88,91.88,0,0,0-8.85-7.89,33.07,33.07,0,0,1-4-3.33,6.77,6.77,0,0,0-5.38-2c-8.31.41-19.11,12.17-21.49,14.89A53.36,53.36,0,0,1,500,313.56c4.34-.42,9.26,1.72,13.7,5,.72-1.69,3.22-6.88,7.18-7.6,2.25-.41,4.52.68,6.75,3.23,3.34,3.85,4.27,3.73,4.3,3.73a6,6,0,0,0-.22-3.06l1.45-.39c.32,1.18.9,4-.54,4.78-1.23.66-3.07-.56-6.12-4.07-1.85-2.13-3.65-3.05-5.35-2.74-3.53.64-5.88,6.22-6.21,7.06a45.76,45.76,0,0,1,6.49,6.32,38.73,38.73,0,0,1,3.77,5.32c2.31,3.62,4.83,5.68,7.5,6.12a6.91,6.91,0,0,0,5.21-1.34l1,1.14a8.31,8.31,0,0,1-6.41,1.69,10,10,0,0,1-5-2.52,12,12,0,0,1,.24,7.38c-1.1,3.22-1.07,5.84.09,7.77a7.32,7.32,0,0,0,4.7,3.09l-.23,1.48a8.76,8.76,0,0,1-5.75-3.8c-1.41-2.32-1.48-5.36-.22-9,1-2.91,0-7-2.53-11.4-.1-.15-.19-.31-.29-.47h0a36.43,36.43,0,0,0-3.23-4.46c-6.12-7.31-14-12-19.71-11.72a37.67,37.67,0,0,1,1.81,6.74c2.17,12.73-5.56,21.06-10.68,26.57a42.28,42.28,0,0,0-3.38,3.92c-3.54,5-.39,8.34-.26,8.48ZM473.48,238h0ZM175.8,340.83c-29.92,0-62.67-7.1-64.74-7.56l.32-1.46c.2,0,5.49,1.19,13.68,2.57a9.73,9.73,0,0,1-1.89-5.26c-.17-3.7,1.81-7.52,5.88-11.37,3.52-3.33,5.07-6.34,4.6-8.94-.51-2.9-3.44-4.51-4.2-4.89-5,.48-8.11.86-8.25.88l-.19-1.49a451.79,451.79,0,0,1,47.66-2.93,4.07,4.07,0,0,1-.61-1.54c-.44-2.5,1.19-5.62,4.83-9.27,2.15-2.14,3-4.14,2.6-5.95-.77-3.36-5.69-5.27-6.32-5.5-43.51-.19-66-7.85-66.33-7.95l.49-1.41c.36.12,36.45,12.36,105.78,6.06,22.15-2,40.23-4.45,54.75-6.41,32.38-4.36,48.64-6.55,59.43,2.22l-.94,1.16c-9.94-8.06-25.22-6.33-55-2.33a11.62,11.62,0,0,1,5.19,6.53c1.11,4-.35,8.61-4.35,13.72-2.88,3.66-3.95,7.15-3.21,10.37.64,2.76,3,6.84,10.7,10.55l.32.16c5.77-.62,12.22-1.44,19.72-2.39l8.12-1,.18,1.49-8.11,1c-28.4,3.59-41.87,5.3-60,1.95-1.94.56-3.51,1.46-3.54,1.85,0,0,.33,1.29,8.86,2.41,5.58.73,8,1.74,8.1,3.38s-2.58,3-5.33,4c13.32-.69,28.57,1.66,45,7.07l.26.08-.47,1.43-.26-.09c-29.94-9.87-55.91-9.45-73.14,1.18C206.07,338.92,191.31,340.83,175.8,340.83Zm-48.4-6.06c14.94,2.43,37.82,5.32,57.54,4.25-1.72-.69-2.42-1.21-2.54-2-.18-1.12.89-1.91,3.24-3.64a76.46,76.46,0,0,0,11.15-9.74c3.71-3.93,5.29-7.77,4.7-11.39-.89-5.4-6.38-8.78-7.35-9.35-22.26-2.12-48-.47-62.22.8a8,8,0,0,1,3.21,4.84c.56,3.14-1.14,6.61-5,10.31-3.74,3.53-5.56,7-5.41,10.21A8.55,8.55,0,0,0,127.4,334.77Zm69.87-31.55c2.17,1.72,5,4.69,5.7,8.76s-1,8.38-5.09,12.68a77.65,77.65,0,0,1-11.35,9.92,11.13,11.13,0,0,0-2.65,2.25c.23.37,2.71,1.23,4.78,1.94,10.32-.85,19.53-2.92,25.94-6.87,7-4.3,15.31-7,24.74-8l-.12-.47c4.91-1.26,8.67-3.1,8.63-3.85,0,0-.25-1.13-6.8-2-8.8-1.16-10.07-2.57-10.16-3.8-.07-1.07,1-1.9,2.24-2.5-5.16-1.07-10.75-2.55-17.2-4.48A108.07,108.07,0,0,0,197.27,303.22Zm-26.51-2.84c16.12,0,33.05,1.21,45.61,5,23.47,7.06,35.59,7.86,56.89,5.71-5.52-3-8.8-6.6-9.74-10.66-.85-3.69.32-7.61,3.49-11.64,3.69-4.7,5.06-8.86,4.09-12.38-1.17-4.18-5.4-6.21-6.29-6.6l-.75.1c-14.54,2-32.64,4.4-54.82,6.42-13.46,1.22-25.69,1.75-36.65,1.8,1.79,1.08,3.82,2.79,4.36,5.16s-.46,4.82-3,7.35c-4.07,4.07-4.65,6.55-4.43,7.92A2.65,2.65,0,0,0,170.76,300.38ZM529,288.8l-1.31-.73a60,60,0,0,1,6.73-9.53c1.75-2.77,2.37-5.36,1.86-7.72-1-4.39-5.67-7.34-8.79-9.29l-.49-.3c-1-.62-2.26-1.59-1.95-2.78.42-1.56,3.4-1.86,4.66-1.92l.07,1.5c-1.5.07-3.09.46-3.28.81h0s.12.38,1.3,1.12l.48.3c3.34,2.08,8.37,5.23,9.47,10.24a10,10,0,0,1-.25,5c2.28-2,4.73-3.28,7.1-3.09,6.52.5,7.18-3,7.21-3.11l1.48.23c0,.21-.85,5-8.8,4.37-2.89-.22-6.08,2.4-8.83,5.51l-.19.29,0,0A63,63,0,0,0,529,288.8ZM632.87,126.7c-4,0-11.16-.53-14-4.15-1.31-1.68-1.56-3.8-.73-6.3s.88-4.21.19-5.35c-1.06-1.75-4-2.23-7.43-2.78a35.94,35.94,0,0,1-8.9-2.26c-47.15,4.82-70.06-6.12-70.32-6.24l.67-1.35c.12.06,5.81,2.77,17.28,4.87,1-10.1,12-11.16,19.41-11.86,3.22-.31,3.67-1.08,3.73-1.31.17-.67-1.08-2-2-2.62l.85-1.24c.53.36,3.14,2.28,2.64,4.24-.35,1.34-2,2.13-5,2.42-9.46.9-17.36,2.34-18.07,10.64,14.4,2.46,37.22,3.85,68.83-1.52,4-.68,7.77-1.32,11.4-1.92-1.62-1.22-3.88-3.39-4.23-6.14-.27-2.1.62-4.12,2.63-6s3.1-3.77,2.79-5.08c-.37-1.55-2.46-2.21-2.48-2.21l.42-1.44c.12,0,2.94.89,3.52,3.3.45,1.9-.63,4.09-3.22,6.52-1.64,1.55-2.37,3.14-2.17,4.74.38,3,3.95,5.41,4.88,6,48.14-8,65.77-9.29,80.59-4.21l-.48,1.41c-10-3.41-20.7-4-45.07-1,.11,4.29,1.34,7.52,3.66,9.58a11.54,11.54,0,0,0,8.14,2.56c18-1.27,24.68,1.62,27.16,4.27a4.32,4.32,0,0,1,1.39,3.35l-1.49-.19a3.05,3.05,0,0,0-1.07-2.22c-1.89-1.94-7.75-5-25.86-3.72a12.87,12.87,0,0,1-9.26-2.92c-2.62-2.33-4-5.86-4.16-10.52-11.94,1.55-27.08,4-46.84,7.32q-7.74,1.3-14.78,2.11a49.18,49.18,0,0,0,5.72,1.16c3.78.61,7.06,1.14,8.47,3.48.94,1.54.92,3.7-.05,6.61-.67,2-.51,3.62.49,4.9,3.44,4.39,15.34,3.5,15.46,3.49l.12,1.49C635.48,126.62,634.41,126.7,632.87,126.7ZM342,108.2c-.3,0-7.35-1-9-5.06-.7-1.72-.35-3.68,1.05-5.84-49-.46-69.2,5.36-69.43,5.43l-.43-1.44c.17-.05,11.82-3.43,38.81-4.87.19-.88.44-2.77-.49-4a4,4,0,0,0-3.47-1.21c-7.29.26-8.33-3.88-8.38-4.06l1.46-.34-.73.17.73-.18c0,.13.92,3.1,6.87,2.92,2.19-.08,3.76.53,4.72,1.79a6.35,6.35,0,0,1,.83,4.82c13.81-.69,31.47-.86,53.49.13,14.91.68,26.29,1.33,35.49,1.87a3.57,3.57,0,0,1,.65-2c1.2-1.73,3.89-2.68,8-2.81,6-.2,6.68-1.08,6.7-1.12a.22.22,0,0,0,0,.16l1-1.1a1.37,1.37,0,0,1,.39,1.47c-.31.86-1.51,1.88-8,2.09-4.44.14-6.14,1.24-6.78,2.14a2.1,2.1,0,0,0-.41,1.23c30.6,1.79,33.21,1.9,51.09-4.82l.52,1.4c-8.16,3.07-13.19,4.74-19,5.48-.17.22-.4.57-.3.83s.69,1.23,5.63,1.46c4.46.21,7.23,1.14,8.24,2.77a2.43,2.43,0,0,1,.25,2.2l-1.37-.6.68.3-.69-.28a1,1,0,0,0-.16-.87c-.44-.65-1.92-1.78-7-2-4.23-.19-6.45-1-7-2.46a1.91,1.91,0,0,1-.05-1.13c-6.91.64-15.41.14-31.39-.79-9.36-.55-21-1.23-36.46-1.93-7.92-.36-15.28-.56-22.1-.65-1.56,2.06-2.05,3.83-1.47,5.25,1.33,3.27,7.75,4.13,7.81,4.14Zm-290.75-4c-33.38,0-41.27-3.6-41.68-3.8l.66-1.35c.12.06,13.34,5.94,75.85,2.63,63.13-3.34,81.11.86,81.84,1l-.36,1.46c-.18-.05-18.6-4.33-81.4-1C72.25,103.92,60.74,104.2,51.29,104.2Zm19.52-9.71c-20.57,0-23.58-4.87-23.75-5.2l1.32-.71c.06.1,8.22,11.65,82.5-3.08,76.1-15.08,90.19-.39,90.75.24l-1.11,1c-.14-.15-14.47-14.61-89.35.23C102.34,92.69,83.33,94.49,70.81,94.49Zm536-2.06c0-.07-4.07-6.22-15.72-7-10.51-.7-12.61-6.7-13-8.85-32.94-1.11-68.35-7.46-70.64-7.88l.27-1.47c.38.07,17.05,3.05,38.15,5.35a10.07,10.07,0,0,1,3.14-7.2c6.26-6,19.62-5.14,20.19-5.09l-.11,1.49c-.13,0-13.26-.89-19,4.68a8.72,8.72,0,0,0-2.68,6.28c27.12,2.87,61,4.49,77.07-2.61a73,73,0,0,1,15.71-4.74c0-.09,0-.15,0-.17l.45.08c19.81-3.67,42.16-1.17,58.15.62,6.24.69,11.62,1.29,15.11,1.29v1.5c-3.57,0-8.74-.57-15.28-1.3-15.67-1.76-37.49-4.19-56.88-.78a5,5,0,0,0,1.2,2.27c1.83,2,6.34,4.34,17.52,3.79,21.25-1,29.55,6.23,29.89,6.54l-1,1.11.5-.55-.5.55c-.08-.07-8.25-7.16-28.82-6.15-9.5.47-15.8-1-18.75-4.34a6.32,6.32,0,0,1-1.51-3,71.7,71.7,0,0,0-15.2,4.6c-10.34,4.56-27.43,5.66-45.43,5.13.44,2,2.45,6.69,11.6,7.3,12.47.83,16.72,7.41,16.89,7.69ZM369.32,66.29l-1.26-.82.63.41-.64-.4c.14-.22,1.21-2.16-1.72-4a2.54,2.54,0,0,1-1.23-3.15c.53-1.46,2.25-2.84,4.13-3.72a421.42,421.42,0,0,0-54-3.36,3.61,3.61,0,0,1,.88,2.78c-.3,1.78-2.2,3.12-5.82,4.11-7,1.91-8.13,4.22-8,4.94l-1.43.45a2.59,2.59,0,0,1,.31-2c1-1.94,4-3.58,8.69-4.87,2.87-.78,4.55-1.82,4.74-2.91s-.88-2-1.49-2.52c-28.62.25-45.73,3.57-46,3.62l-.29-1.47c.34-.07,27.78-5.39,71.36-3.08l-.4-.34a3.11,3.11,0,0,0,.67-2.5c-.3-.93-1.45-1.69-3.33-2.2-2.48-.65-3.88-1.68-4.19-3-.41-1.84,1.42-3.41,1.5-3.48l1,1.15c-.34.29-1.18,1.21-1,2s1.27,1.43,3.1,1.92c2.44.65,3.91,1.72,4.38,3.2a4.14,4.14,0,0,1-.56,3.34c10,.55,20.73,1.51,32.22,3l1.88.25h.1q20.14,2.61,36.45,4.17a2.82,2.82,0,0,0,.87-2.37,4.9,4.9,0,0,0-2.49-4.29c-3.39-1.55-6.67-5.62-6.81-5.79l1.17-.94s3.2,4,6.26,5.36a6.36,6.36,0,0,1,3.37,5.62,5.05,5.05,0,0,1-.58,2.58c12.9,1.2,24,1.9,33.33,2.09-.67-1.52-1.5-4.12-.17-5.66s4.4-1.4,9.29.53c5.62,2.23,6.35,1.31,6.38,1.27.41-.58-1-3.09-2.87-5.26l1.12-1c1,1.18,4.33,5.18,3,7.11-.95,1.35-3.47,1.13-8.17-.73-5.65-2.24-7.2-1.41-7.6-1-.87,1,.11,3.51.72,4.7,20.06.28,31.81-1.87,36-6.47l1.11,1c-8.23,9-43.4,9.21-110.62.49-2.21-.21-6.17,1.92-6.82,3.7-.14.4-.18.87.62,1.38a5.38,5.38,0,0,1,2.63,3.29A4,4,0,0,1,369.32,66.29ZM637,61.48s-4.14-5.45-17.8-6.62c-4.93-.42-7.57-1.58-8.07-3.53-.42-1.7,1-3.43,2.23-4.6-32.12.84-79,8-79.6,8.12l-.23-1.48c.26,0,9-1.37,21.38-3,2.15-2.27,21-21.86,31.55-18.62,9.91,3.05,15-5.47,15-5.55l1.3.75c-.06.09-5.74,9.63-16.77,6.23-8.44-2.59-23.91,12.05-28.72,16.89,24-3,60-6.66,76.75-4.08,3.16.49,5.76.93,8,1.31,13.21,2.22,14.05,2.37,42.44-2.43,1-2.39,6.23-13.94,16.73-13.56,5.23.19,7.6-1.08,8.69-2.18a3.51,3.51,0,0,0,1.13-2.51l1.5-.1A5,5,0,0,1,711,30.18c-1.88,1.94-5.21,2.84-9.85,2.67-8.47-.3-13.36,8.46-14.9,11.76l4.46-.75c5.9-1,12.8-2.17,20.94-3.53l.25,1.48c-8.15,1.35-15,2.52-20.94,3.52-34.81,5.91-34.81,5.91-49.18,3.49-2.24-.38-4.84-.82-8-1.3a113.16,113.16,0,0,0-18-.84c-1.13.78-3.59,2.86-3.23,4.28.14.56,1.08,1.92,6.73,2.41,14.45,1.23,18.72,7,18.9,7.24l-1.22.87.61-.44ZM333.48,39.9l-.48-.57.48.57Z" style="fill:#6827ab"/></g><g id="preto"><path d="M36.25,147.4a3.93,3.93,0,0,1,1.45,3.31,4.1,4.1,0,0,1-1.51,3.48,6.53,6.53,0,0,1-4,1.14h-1.8v5.25h-2V146.29h3.75A6.65,6.65,0,0,1,36.25,147.4Zm-1.55,5.71a2.77,2.77,0,0,0,.91-2.38,2.63,2.63,0,0,0-.91-2.22,4.24,4.24,0,0,0-2.58-.68H30.36v5.95h1.72A4.31,4.31,0,0,0,34.7,153.11Z" style="fill:#1d1d1b"/><path d="M48,150.94a6.3,6.3,0,0,1,1.27,4.16,7.2,7.2,0,0,1-.58,3,4.54,4.54,0,0,1-1.67,2,4.69,4.69,0,0,1-2.62.71,4.41,4.41,0,0,1-3.58-1.53,6.27,6.27,0,0,1-1.29-4.17,7.35,7.35,0,0,1,.58-3,4.63,4.63,0,0,1,1.68-2,4.69,4.69,0,0,1,2.63-.72A4.4,4.4,0,0,1,48,150.94Zm-6.42,4.18q0,4.17,2.82,4.17c1.88,0,2.82-1.39,2.82-4.19s-.93-4.16-2.8-4.16S41.59,152.33,41.59,155.12Z" style="fill:#1d1d1b"/><path d="M52.94,160.19a2.47,2.47,0,0,1-.61-1.77V145.26l1.91-.23v13.35a1.15,1.15,0,0,0,.15.66.62.62,0,0,0,.53.21,2,2,0,0,0,.71-.12l.49,1.32a3.07,3.07,0,0,1-1.51.37A2.23,2.23,0,0,1,52.94,160.19Z" style="fill:#1d1d1b"/><path d="M61.1,144l.85,1.6-4.4,1.78-.58-1Zm-.68,5.68v10.93H58.51V149.65Z" style="fill:#1d1d1b"/><path d="M77.47,150.31a3.5,3.5,0,0,1,.81,2.43v7.84h-1.9V153c0-1.41-.52-2.11-1.54-2.11a2.08,2.08,0,0,0-1.37.46,6.7,6.7,0,0,0-1.2,1.46v7.76H70.36V153c0-1.41-.51-2.11-1.53-2.11a2.11,2.11,0,0,0-1.39.47,6.52,6.52,0,0,0-1.18,1.45v7.76H64.35V149.65H66l.17,1.6a3.65,3.65,0,0,1,3.15-1.85,2.93,2.93,0,0,1,1.73.52,2.85,2.85,0,0,1,1,1.45,5.22,5.22,0,0,1,1.42-1.46,3.28,3.28,0,0,1,1.84-.51A2.72,2.72,0,0,1,77.47,150.31Z" style="fill:#1d1d1b"/><path d="M90.32,155.77h-7a4.27,4.27,0,0,0,.91,2.65,2.64,2.64,0,0,0,2,.85,4.45,4.45,0,0,0,1.45-.23,5.61,5.61,0,0,0,1.39-.72l.83,1.14a6,6,0,0,1-3.81,1.36,4.42,4.42,0,0,1-3.56-1.49,6.1,6.1,0,0,1-1.27-4.1,7.75,7.75,0,0,1,.55-3,4.7,4.7,0,0,1,1.57-2.06,4,4,0,0,1,2.42-.75,4.07,4.07,0,0,1,3.34,1.43,6.16,6.16,0,0,1,1.16,4C90.37,155.11,90.35,155.44,90.32,155.77Zm-1.84-1.54a4,4,0,0,0-.64-2.46,2.26,2.26,0,0,0-1.93-.85c-1.56,0-2.41,1.14-2.55,3.44h5.12Z" style="fill:#1d1d1b"/><path d="M99.24,149.53l-.36,1.86a4.05,4.05,0,0,0-.95-.12,2,2,0,0,0-1.64.75,5.49,5.49,0,0,0-1,2.32v6.24H93.41V149.65h1.64l.19,2.22A4.11,4.11,0,0,1,96.42,150a2.62,2.62,0,0,1,1.74-.63A4.57,4.57,0,0,1,99.24,149.53Z" style="fill:#1d1d1b"/><path d="M109.09,150.94a6.31,6.31,0,0,1,1.28,4.16,7.36,7.36,0,0,1-.58,3,4.44,4.44,0,0,1-4.29,2.72,4.43,4.43,0,0,1-3.59-1.53,6.26,6.26,0,0,1-1.28-4.17,7.19,7.19,0,0,1,.58-3,4.54,4.54,0,0,1,1.67-2,4.72,4.72,0,0,1,2.64-.72A4.4,4.4,0,0,1,109.09,150.94Zm-6.41,4.18q0,4.17,2.82,4.17c1.88,0,2.81-1.39,2.81-4.19s-.93-4.16-2.79-4.16S102.68,152.33,102.68,155.12Z" style="fill:#1d1d1b"/><path d="M119.52,160.19a2.43,2.43,0,0,1-.61-1.77V145.26l1.9-.23v13.35a1.14,1.14,0,0,0,.16.66.61.61,0,0,0,.53.21,1.9,1.9,0,0,0,.7-.12l.5,1.32a3.1,3.1,0,0,1-1.51.37A2.22,2.22,0,0,1,119.52,160.19Z" style="fill:#1d1d1b"/><path d="M127,144.78a1.26,1.26,0,0,1,.37.93,1.23,1.23,0,0,1-.37.93,1.47,1.47,0,0,1-1.93,0,1.23,1.23,0,0,1-.37-.93,1.26,1.26,0,0,1,.37-.93,1.44,1.44,0,0,1,1.93,0Zm0,4.87v10.93h-1.91V149.65Z" style="fill:#1d1d1b"/><path d="M138.4,150.29a3.44,3.44,0,0,1,.84,2.45v7.84h-1.91V153a2.44,2.44,0,0,0-.43-1.64,1.68,1.68,0,0,0-1.29-.47,2.48,2.48,0,0,0-1.53.49,5.43,5.43,0,0,0-1.25,1.43v7.76h-1.9V149.65h1.64l.16,1.62a4.37,4.37,0,0,1,1.44-1.37,3.77,3.77,0,0,1,1.9-.5A3.07,3.07,0,0,1,138.4,150.29Z" style="fill:#1d1d1b"/><path d="M151.28,155.77h-7a4.21,4.21,0,0,0,.91,2.65,2.62,2.62,0,0,0,2,.85,4.45,4.45,0,0,0,1.45-.23,5.78,5.78,0,0,0,1.39-.72l.83,1.14a6,6,0,0,1-3.81,1.36,4.4,4.4,0,0,1-3.56-1.49,6.1,6.1,0,0,1-1.27-4.1,7.93,7.93,0,0,1,.54-3,4.79,4.79,0,0,1,1.58-2.06,4,4,0,0,1,2.42-.75,4,4,0,0,1,3.33,1.43,6.11,6.11,0,0,1,1.16,4C151.32,155.11,151.31,155.44,151.28,155.77Zm-1.84-1.54a4,4,0,0,0-.65-2.46,2.24,2.24,0,0,0-1.92-.85c-1.57,0-2.41,1.14-2.55,3.44h5.12Z" style="fill:#1d1d1b"/><path d="M162,159a1.35,1.35,0,0,0,.68.49l-.43,1.32a2.88,2.88,0,0,1-1.37-.47,2.21,2.21,0,0,1-.77-1.16,3.66,3.66,0,0,1-3.25,1.63,3.48,3.48,0,0,1-2.55-.91,3.48,3.48,0,0,1,.32-5.06,5.86,5.86,0,0,1,3.55-.93h1.68v-.81a2.12,2.12,0,0,0-.56-1.65,2.47,2.47,0,0,0-1.72-.5,9.51,9.51,0,0,0-2.94.58l-.48-1.39a11,11,0,0,1,3.77-.75,4,4,0,0,1,2.89.95,3.62,3.62,0,0,1,.95,2.68v5A1.63,1.63,0,0,0,162,159Zm-2.14-1.32v-2.5h-1.43c-2,0-3,.74-3,2.24a2.06,2.06,0,0,0,.47,1.47,1.87,1.87,0,0,0,1.41.49A2.84,2.84,0,0,0,159.82,157.69Z" style="fill:#1d1d1b"/><path d="M171.47,149.53l-.35,1.86a4.07,4.07,0,0,0-1-.12,2,2,0,0,0-1.63.75,5.49,5.49,0,0,0-1,2.32v6.24h-1.9V149.65h1.63l.19,2.22a4.11,4.11,0,0,1,1.18-1.84,2.62,2.62,0,0,1,1.74-.63A4.57,4.57,0,0,1,171.47,149.53Z" style="fill:#1d1d1b"/><path d="M177.56,143.89a25.43,25.43,0,0,0-1.71,2.85,12.55,12.55,0,0,0-1,2.85,19.4,19.4,0,0,0,0,7.44,12.73,12.73,0,0,0,1,2.87,23.76,23.76,0,0,0,1.71,2.85l-1.2.83c-.91-1.3-1.61-2.37-2.1-3.2a13.36,13.36,0,0,1-1.25-3,16.65,16.65,0,0,1,0-8.1,13.36,13.36,0,0,1,1.25-3c.49-.83,1.19-1.9,2.1-3.2Z" style="fill:#1d1d1b"/><path d="M182.83,147a1.63,1.63,0,0,0-.37,1.19v1.51h2.65l-.21,1.47h-2.44v9.46h-1.91v-9.46h-2v-1.47h2v-1.49a3,3,0,0,1,.9-2.27A3.51,3.51,0,0,1,184,145a5.9,5.9,0,0,1,1.33.14,7.92,7.92,0,0,1,1.28.42L186,147a4.61,4.61,0,0,0-1.91-.42A1.66,1.66,0,0,0,182.83,147Z" style="fill:#1d1d1b"/><path d="M186.62,152.51v-1.59h7.79v1.59Zm0,4v-1.59h7.79v1.59Z" style="fill:#1d1d1b"/><path d="M202.61,147a3.56,3.56,0,0,1,1.46,1.36,3.63,3.63,0,0,1,.52,1.93,5.42,5.42,0,0,1-.57,2.43,11.88,11.88,0,0,1-1.75,2.51c-.79.9-2,2.15-3.59,3.75h6.24l-.23,1.6h-8.18v-1.52c1.85-1.92,3.16-3.32,3.94-4.22a11.61,11.61,0,0,0,1.65-2.33,4.58,4.58,0,0,0,.5-2.13,2.28,2.28,0,0,0-.62-1.69,2.25,2.25,0,0,0-1.66-.61,3,3,0,0,0-1.49.35,5.25,5.25,0,0,0-1.37,1.16l-1.24-1A5.65,5.65,0,0,1,198.1,147a5.07,5.07,0,0,1,2.32-.52A4.65,4.65,0,0,1,202.61,147Z" style="fill:#1d1d1b"/><path d="M210.09,146.26a13.36,13.36,0,0,1,1.25,3,16.34,16.34,0,0,1,0,8.1,13.36,13.36,0,0,1-1.25,3c-.49.83-1.19,1.9-2.1,3.2l-1.2-.83a23.76,23.76,0,0,0,1.71-2.85,12.73,12.73,0,0,0,1-2.87,18.89,18.89,0,0,0,0-7.44,12.55,12.55,0,0,0-1-2.85,25.43,25.43,0,0,0-1.71-2.85l1.2-.83C208.9,144.36,209.6,145.43,210.09,146.26Z" style="fill:#1d1d1b"/><path d="M272,143.65a3.88,3.88,0,0,1,1.45,3.3,4.07,4.07,0,0,1-1.51,3.48,6.52,6.52,0,0,1-4,1.14h-1.81v5.25h-2V142.54h3.76A6.64,6.64,0,0,1,272,143.65Zm-1.55,5.7a2.74,2.74,0,0,0,.91-2.38,2.6,2.6,0,0,0-.91-2.22,4.24,4.24,0,0,0-2.58-.68h-1.76v6h1.72A4.31,4.31,0,0,0,270.43,149.35Z" style="fill:#1d1d1b"/><path d="M283.74,147.18a6.31,6.31,0,0,1,1.28,4.16,7.36,7.36,0,0,1-.58,3,4.63,4.63,0,0,1-1.68,2,4.69,4.69,0,0,1-2.61.72,4.44,4.44,0,0,1-3.59-1.54,6.26,6.26,0,0,1-1.29-4.16,7.36,7.36,0,0,1,.58-3,4.63,4.63,0,0,1,1.68-2,4.72,4.72,0,0,1,2.64-.71A4.39,4.39,0,0,1,283.74,147.18Zm-6.41,4.19q0,4.15,2.82,4.16c1.87,0,2.81-1.39,2.81-4.19s-.93-4.16-2.79-4.16S277.33,148.57,277.33,151.37Z" style="fill:#1d1d1b"/><path d="M288.67,156.43a2.47,2.47,0,0,1-.61-1.77V141.5l1.91-.23v13.35a1.05,1.05,0,0,0,.16.66.6.6,0,0,0,.52.21,2,2,0,0,0,.71-.12l.5,1.32a3.12,3.12,0,0,1-1.52.38A2.24,2.24,0,0,1,288.67,156.43Z" style="fill:#1d1d1b"/><path d="M296.83,140.21l.85,1.6-4.39,1.78-.58-1Zm-.68,5.68v10.93h-1.91V145.89Z" style="fill:#1d1d1b"/><path d="M313.2,146.55A3.5,3.5,0,0,1,314,149v7.84h-1.9v-7.57c0-1.41-.52-2.11-1.54-2.11a2.08,2.08,0,0,0-1.37.46,6.7,6.7,0,0,0-1.2,1.46v7.76h-1.91v-7.57c0-1.41-.51-2.11-1.53-2.11a2.12,2.12,0,0,0-1.39.47,7.08,7.08,0,0,0-1.18,1.45v7.76h-1.91V145.89h1.64l.17,1.6a3.64,3.64,0,0,1,3.15-1.84,2.92,2.92,0,0,1,1.73.51,2.8,2.8,0,0,1,1,1.45,5.36,5.36,0,0,1,1.42-1.46,3.27,3.27,0,0,1,1.84-.5A2.73,2.73,0,0,1,313.2,146.55Z" style="fill:#1d1d1b"/><path d="M326.06,152h-7a4.27,4.27,0,0,0,.91,2.65,2.66,2.66,0,0,0,2,.85,4.28,4.28,0,0,0,1.45-.23,5.73,5.73,0,0,0,1.38-.72l.83,1.14a6,6,0,0,1-3.81,1.37,4.42,4.42,0,0,1-3.56-1.5,6.15,6.15,0,0,1-1.27-4.1,7.75,7.75,0,0,1,.55-3,4.83,4.83,0,0,1,1.57-2.06,4,4,0,0,1,2.42-.74,4,4,0,0,1,3.34,1.43A6.11,6.11,0,0,1,326.1,151C326.1,151.35,326.08,151.68,326.06,152Zm-1.85-1.54a4,4,0,0,0-.64-2.46,2.26,2.26,0,0,0-1.93-.85c-1.56,0-2.41,1.15-2.55,3.44h5.12Z" style="fill:#1d1d1b"/><path d="M335,145.77l-.35,1.86a4.13,4.13,0,0,0-1-.12,2,2,0,0,0-1.63.75,5.49,5.49,0,0,0-1,2.32v6.24h-1.91V145.89h1.64l.19,2.22a4.11,4.11,0,0,1,1.18-1.84,2.62,2.62,0,0,1,1.74-.62A4.58,4.58,0,0,1,335,145.77Z" style="fill:#1d1d1b"/><path d="M344.82,147.18a6.31,6.31,0,0,1,1.28,4.16,7.36,7.36,0,0,1-.58,3,4.47,4.47,0,0,1-4.29,2.73,4.44,4.44,0,0,1-3.59-1.54,6.25,6.25,0,0,1-1.28-4.16,7.2,7.2,0,0,1,.58-3,4.5,4.5,0,0,1,1.68-2,4.66,4.66,0,0,1,2.63-.71A4.39,4.39,0,0,1,344.82,147.18Zm-6.41,4.19q0,4.15,2.82,4.16c1.88,0,2.82-1.39,2.82-4.19s-.94-4.16-2.8-4.16S338.41,148.57,338.41,151.37Z" style="fill:#1d1d1b"/><path d="M359,150.76h-2.22v6.06h-2V142.54h3.76a6.76,6.76,0,0,1,4,1,3.53,3.53,0,0,1,1.38,3,3.69,3.69,0,0,1-.77,2.42,4.69,4.69,0,0,1-2.32,1.41l3.85,6.41h-2.34Zm-.23-1.51a3.72,3.72,0,0,0,2.35-.63,2.47,2.47,0,0,0,.78-2,2.22,2.22,0,0,0-.79-1.92,4.41,4.41,0,0,0-2.56-.59h-1.77v5.18Z" style="fill:#1d1d1b"/><path d="M374.87,155.25a1.35,1.35,0,0,0,.68.49l-.43,1.33a2.88,2.88,0,0,1-1.37-.48,2.21,2.21,0,0,1-.77-1.16,3.67,3.67,0,0,1-3.25,1.64,3.48,3.48,0,0,1-2.55-.92,3.17,3.17,0,0,1-.93-2.38,3.11,3.11,0,0,1,1.25-2.67,5.79,5.79,0,0,1,3.55-.94h1.68v-.81a2.08,2.08,0,0,0-.56-1.65,2.52,2.52,0,0,0-1.72-.5,9.51,9.51,0,0,0-2.94.58l-.48-1.39a10.93,10.93,0,0,1,3.77-.74,4,4,0,0,1,2.89.94,3.62,3.62,0,0,1,.95,2.68v5A1.71,1.71,0,0,0,374.87,155.25Zm-2.14-1.31v-2.51H371.3c-2,0-3,.74-3,2.24a2.08,2.08,0,0,0,.47,1.47,1.88,1.88,0,0,0,1.41.5A2.85,2.85,0,0,0,372.73,153.94Z" style="fill:#1d1d1b"/><path d="M391.68,146.55a3.5,3.5,0,0,1,.81,2.43v7.84h-1.91v-7.57c0-1.41-.51-2.11-1.54-2.11a2.06,2.06,0,0,0-1.36.46,6.43,6.43,0,0,0-1.21,1.46v7.76h-1.9v-7.57c0-1.41-.51-2.11-1.54-2.11a2.08,2.08,0,0,0-1.38.47,6.77,6.77,0,0,0-1.19,1.45v7.76h-1.9V145.89h1.63l.17,1.6a3.66,3.66,0,0,1,3.15-1.84,2.9,2.9,0,0,1,1.73.51,2.87,2.87,0,0,1,1,1.45,5.22,5.22,0,0,1,1.42-1.46,3.26,3.26,0,0,1,1.83-.5A2.76,2.76,0,0,1,391.68,146.55Z" style="fill:#1d1d1b"/><path d="M398.23,141a1.27,1.27,0,0,1,.37.94,1.22,1.22,0,0,1-.37.92,1.36,1.36,0,0,1-1,.36,1.32,1.32,0,0,1-.95-.36,1.22,1.22,0,0,1-.37-.92,1.27,1.27,0,0,1,.37-.94,1.29,1.29,0,0,1,.95-.37A1.33,1.33,0,0,1,398.23,141Zm0,4.87v10.93h-1.91V145.89Z" style="fill:#1d1d1b"/><path d="M407.5,141.46a6.59,6.59,0,0,1,1.44.56l-.66,1.32a5.33,5.33,0,0,0-2.3-.51,2.26,2.26,0,0,0-1.52.39,1.63,1.63,0,0,0-.41,1.22v1.45h6.09v10.93h-1.9v-9.45h-4.19v9.45h-1.91v-9.45H400.4v-1.48h1.74v-1.43a3,3,0,0,1,.94-2.32,4,4,0,0,1,2.84-.87A6,6,0,0,1,407.5,141.46Z" style="fill:#1d1d1b"/><path d="M419.84,145.92a5,5,0,0,1,1.56.91l-.91,1.2a4.68,4.68,0,0,0-1.13-.61,3.63,3.63,0,0,0-1.22-.2,2.36,2.36,0,0,0-2.06,1.06,5.48,5.48,0,0,0-.73,3.13,5.17,5.17,0,0,0,.72,3.05,2.43,2.43,0,0,0,2.07,1,3.5,3.5,0,0,0,1.19-.2,5.84,5.84,0,0,0,1.2-.63l.87,1.24a5.17,5.17,0,0,1-3.34,1.21,4.33,4.33,0,0,1-3.49-1.5,6.14,6.14,0,0,1-1.28-4.12,7.41,7.41,0,0,1,.59-3,4.61,4.61,0,0,1,1.64-2,4.43,4.43,0,0,1,2.54-.72A5.54,5.54,0,0,1,419.84,145.92Z" style="fill:#1d1d1b"/><path d="M431.58,155.25a1.35,1.35,0,0,0,.68.49l-.44,1.33a2.88,2.88,0,0,1-1.36-.48,2.21,2.21,0,0,1-.77-1.16,3.67,3.67,0,0,1-3.25,1.64,3.48,3.48,0,0,1-2.55-.92,3.47,3.47,0,0,1,.32-5.05,5.79,5.79,0,0,1,3.55-.94h1.68v-.81a2.12,2.12,0,0,0-.56-1.65,2.54,2.54,0,0,0-1.72-.5,9.51,9.51,0,0,0-2.94.58l-.48-1.39a10.89,10.89,0,0,1,3.77-.74,3.92,3.92,0,0,1,2.88.94,3.59,3.59,0,0,1,1,2.68v5A1.63,1.63,0,0,0,431.58,155.25Zm-2.14-1.31v-2.51H428c-2,0-3,.74-3,2.24a2,2,0,0,0,.48,1.47,1.88,1.88,0,0,0,1.41.5A2.85,2.85,0,0,0,429.44,153.94Z" style="fill:#1d1d1b"/><path d="M443.72,141.5v15.32H442l-.18-1.52a3.9,3.9,0,0,1-1.35,1.3,3.74,3.74,0,0,1-4.84-1.07,7,7,0,0,1-1.09-4.12,8,8,0,0,1,.52-3,4.57,4.57,0,0,1,1.49-2,3.68,3.68,0,0,1,2.28-.73,3.89,3.89,0,0,1,2.94,1.34v-5.72Zm-3.11,13.65a4.6,4.6,0,0,0,1.2-1.21v-5.35a4,4,0,0,0-1.15-1.07,2.62,2.62,0,0,0-1.37-.36,2.2,2.2,0,0,0-2,1.06,5.7,5.7,0,0,0-.7,3.15,6.09,6.09,0,0,0,.65,3.15,2,2,0,0,0,1.84,1A2.65,2.65,0,0,0,440.61,155.15Z" style="fill:#1d1d1b"/><path d="M455.34,147.18a6.3,6.3,0,0,1,1.27,4.16,7.2,7.2,0,0,1-.58,3,4.5,4.5,0,0,1-1.68,2,4.64,4.64,0,0,1-2.61.72,4.42,4.42,0,0,1-3.58-1.54,6.26,6.26,0,0,1-1.29-4.16,7.36,7.36,0,0,1,.58-3,4.63,4.63,0,0,1,1.68-2,4.68,4.68,0,0,1,2.63-.71A4.4,4.4,0,0,1,455.34,147.18Zm-6.42,4.19q0,4.15,2.82,4.16c1.88,0,2.82-1.39,2.82-4.19s-.93-4.16-2.8-4.16S448.92,148.57,448.92,151.37Z" style="fill:#1d1d1b"/><path d="M321,167.49a6.51,6.51,0,0,1,1.79,1.08l-1.08,1.26a4.33,4.33,0,0,0-2.75-1.05,3.51,3.51,0,0,0-2.88,1.36,9.42,9.42,0,0,0,0,8.74,3.45,3.45,0,0,0,2.86,1.4,3.81,3.81,0,0,0,1.6-.31,8.54,8.54,0,0,0,1.45-.87l1,1.24a5.28,5.28,0,0,1-1.7,1.14,5.82,5.82,0,0,1-2.39.46,5.46,5.46,0,0,1-5.21-3.39,9.57,9.57,0,0,1-.76-4,9.4,9.4,0,0,1,.79-4,5.81,5.81,0,0,1,2.14-2.52,5.44,5.44,0,0,1,3-.85A6.23,6.23,0,0,1,321,167.49Z" style="fill:#1d1d1b"/><path d="M333.42,181.69h-1.63l-.15-1.7a4.08,4.08,0,0,1-1.43,1.48,3.88,3.88,0,0,1-2,.47,2.92,2.92,0,0,1-2.24-.87,3.48,3.48,0,0,1-.8-2.47v-7.83h1.9v7.62a2.43,2.43,0,0,0,.4,1.59,1.59,1.59,0,0,0,1.28.47,3.26,3.26,0,0,0,2.74-1.89v-7.79h1.9Z" style="fill:#1d1d1b"/><path d="M343.19,170.64l-.36,1.87a3.61,3.61,0,0,0-.95-.13,2,2,0,0,0-1.64.75,5.55,5.55,0,0,0-1,2.32v6.24h-1.91V170.77H339l.19,2.21a4.11,4.11,0,0,1,1.18-1.84,2.6,2.6,0,0,1,1.74-.62A4.64,4.64,0,0,1,343.19,170.64Z" style="fill:#1d1d1b"/><path d="M350.88,181.19a4.2,4.2,0,0,1-2.45.75,2.9,2.9,0,0,1-2.17-.8,3.2,3.2,0,0,1-.77-2.31v-6.59h-1.91v-1.47h1.91V168.3l1.9-.23v2.7H350l-.2,1.47h-2.39v6.51a2,2,0,0,0,.3,1.23,1.2,1.2,0,0,0,1,.38,3.11,3.11,0,0,0,1.45-.43Z" style="fill:#1d1d1b"/><path d="M360.52,172.05a6.32,6.32,0,0,1,1.28,4.17,7.35,7.35,0,0,1-.58,3,4.52,4.52,0,0,1-1.68,2,4.64,4.64,0,0,1-2.61.72,4.41,4.41,0,0,1-3.59-1.54,6.25,6.25,0,0,1-1.28-4.16,7.27,7.27,0,0,1,.58-3,4.5,4.5,0,0,1,1.68-2,4.74,4.74,0,0,1,2.63-.71A4.39,4.39,0,0,1,360.52,172.05Zm-6.41,4.19c0,2.78.94,4.16,2.82,4.16s2.82-1.39,2.82-4.18-.94-4.17-2.8-4.17S354.11,173.45,354.11,176.24Z" style="fill:#1d1d1b"/><path d="M374.36,165a27.37,27.37,0,0,0-1.71,2.85,13.06,13.06,0,0,0-1,2.85,19.45,19.45,0,0,0,0,7.45,13.43,13.43,0,0,0,1,2.87,23.76,23.76,0,0,0,1.71,2.85l-1.2.82c-.91-1.29-1.62-2.36-2.11-3.2a13.28,13.28,0,0,1-1.24-3,16.38,16.38,0,0,1,0-8.11,13.28,13.28,0,0,1,1.24-3c.49-.84,1.2-1.91,2.11-3.2Z" style="fill:#1d1d1b"/><path d="M379.62,168.06a1.65,1.65,0,0,0-.37,1.19v1.52h2.65l-.2,1.47h-2.45v9.45h-1.91v-9.45h-1.95v-1.47h1.95v-1.5a3,3,0,0,1,.91-2.27,3.51,3.51,0,0,1,2.51-.86,6,6,0,0,1,1.34.14,8.25,8.25,0,0,1,1.28.42l-.61,1.39a4.71,4.71,0,0,0-1.9-.41A1.73,1.73,0,0,0,379.62,168.06Z" style="fill:#1d1d1b"/><path d="M385.92,170.27l7.61,3.54v1.95l-7.61,3.55-.68-1.54,6.78-3-6.78-2.95Z" style="fill:#1d1d1b"/><path d="M403.55,168.11a3.63,3.63,0,0,1,2,3.3,5.41,5.41,0,0,1-.57,2.42,11.63,11.63,0,0,1-1.75,2.51c-.79.9-2,2.15-3.59,3.75h6.24l-.23,1.6h-8.18v-1.51q2.78-2.88,3.94-4.22a11.9,11.9,0,0,0,1.65-2.33,4.65,4.65,0,0,0,.5-2.14,2.12,2.12,0,0,0-2.28-2.3,3.12,3.12,0,0,0-1.49.35,5.67,5.67,0,0,0-1.37,1.16l-1.24-1a5.65,5.65,0,0,1,1.88-1.58,5.21,5.21,0,0,1,2.33-.51A4.64,4.64,0,0,1,403.55,168.11Z" style="fill:#1d1d1b"/><path d="M411,167.38a13.27,13.27,0,0,1,1.25,3,16.38,16.38,0,0,1,0,8.11,13.27,13.27,0,0,1-1.25,3c-.49.84-1.19,1.91-2.1,3.2l-1.2-.82a23.76,23.76,0,0,0,1.71-2.85,12.9,12.9,0,0,0,1-2.87,18.94,18.94,0,0,0,0-7.45,12.55,12.55,0,0,0-1-2.85,27.37,27.37,0,0,0-1.71-2.85l1.2-.82C409.84,165.47,410.54,166.54,411,167.38Z" style="fill:#1d1d1b"/><path d="M528.75,143.89a3.9,3.9,0,0,1,1.45,3.31,4.07,4.07,0,0,1-1.51,3.48,6.52,6.52,0,0,1-4,1.14h-1.81v5.24h-2V142.78h3.76A6.64,6.64,0,0,1,528.75,143.89Zm-1.54,5.71a2.77,2.77,0,0,0,.9-2.38,2.62,2.62,0,0,0-.9-2.22,4.28,4.28,0,0,0-2.58-.68h-1.77v6h1.72A4.37,4.37,0,0,0,527.21,149.6Z" style="fill:#1d1d1b"/><path d="M540.51,147.43a6.31,6.31,0,0,1,1.28,4.16,7.4,7.4,0,0,1-.58,3,4.63,4.63,0,0,1-1.68,2,4.68,4.68,0,0,1-2.61.71,4.43,4.43,0,0,1-3.59-1.53,6.27,6.27,0,0,1-1.29-4.17,7.19,7.19,0,0,1,.59-3,4.49,4.49,0,0,1,1.67-2,4.72,4.72,0,0,1,2.64-.72A4.37,4.37,0,0,1,540.51,147.43Zm-6.41,4.18q0,4.17,2.82,4.17t2.81-4.19q0-4.16-2.79-4.16C535,147.43,534.1,148.82,534.1,151.61Z" style="fill:#1d1d1b"/><path d="M545.44,156.68a2.47,2.47,0,0,1-.61-1.77V141.75l1.91-.23v13.35a1.07,1.07,0,0,0,.16.66.6.6,0,0,0,.52.21,1.76,1.76,0,0,0,.71-.13l.5,1.33a3.11,3.11,0,0,1-1.52.37A2.23,2.23,0,0,1,545.44,156.68Z" style="fill:#1d1d1b"/><path d="M553.6,140.46l.85,1.6-4.39,1.78-.58-1Zm-.68,5.68v10.92H551V146.14Z" style="fill:#1d1d1b"/><path d="M570,146.79a3.54,3.54,0,0,1,.81,2.44v7.83h-1.9V149.5c0-1.41-.51-2.11-1.54-2.11a2.08,2.08,0,0,0-1.37.46,6.7,6.7,0,0,0-1.2,1.46v7.75h-1.9V149.5c0-1.41-.52-2.11-1.54-2.11a2.07,2.07,0,0,0-1.39.47,6.81,6.81,0,0,0-1.18,1.45v7.75h-1.91V146.14h1.64l.17,1.6a3.65,3.65,0,0,1,3.15-1.85,2.91,2.91,0,0,1,1.73.52,2.87,2.87,0,0,1,1,1.45A5.09,5.09,0,0,1,566,146.4a3.22,3.22,0,0,1,1.83-.51A2.73,2.73,0,0,1,570,146.79Z" style="fill:#1d1d1b"/><path d="M582.83,152.26h-7a4.33,4.33,0,0,0,.91,2.65,2.66,2.66,0,0,0,2,.85,4.54,4.54,0,0,0,1.45-.23,5.73,5.73,0,0,0,1.38-.72l.83,1.14a6,6,0,0,1-3.81,1.36,4.4,4.4,0,0,1-3.55-1.49,6.1,6.1,0,0,1-1.28-4.1,7.71,7.71,0,0,1,.55-3,4.72,4.72,0,0,1,1.58-2.06,4,4,0,0,1,2.41-.75,4.07,4.07,0,0,1,3.34,1.43,6.16,6.16,0,0,1,1.16,4C582.87,151.6,582.85,151.92,582.83,152.26ZM581,150.72a4,4,0,0,0-.64-2.46,2.26,2.26,0,0,0-1.93-.85c-1.56,0-2.41,1.14-2.55,3.44H581Z" style="fill:#1d1d1b"/><path d="M591.74,146l-.35,1.86a4.13,4.13,0,0,0-1-.12,2,2,0,0,0-1.63.74,5.6,5.6,0,0,0-1,2.33v6.23h-1.91V146.14h1.64l.19,2.22a4.14,4.14,0,0,1,1.18-1.85,2.67,2.67,0,0,1,1.74-.62A4.1,4.1,0,0,1,591.74,146Z" style="fill:#1d1d1b"/><path d="M601.59,147.43a6.31,6.31,0,0,1,1.28,4.16,7.4,7.4,0,0,1-.58,3,4.44,4.44,0,0,1-4.29,2.72,4.43,4.43,0,0,1-3.59-1.53,6.26,6.26,0,0,1-1.28-4.17,7.19,7.19,0,0,1,.58-3,4.44,4.44,0,0,1,1.68-2,4.69,4.69,0,0,1,2.63-.72A4.37,4.37,0,0,1,601.59,147.43Zm-6.41,4.18q0,4.17,2.82,4.17t2.82-4.19c0-2.77-.94-4.16-2.8-4.16S595.18,148.82,595.18,151.61Z" style="fill:#1d1d1b"/><path d="M615.8,151h-2.22v6.05h-2V142.78h3.75a6.76,6.76,0,0,1,4,1,3.53,3.53,0,0,1,1.38,3,3.69,3.69,0,0,1-.77,2.42,4.69,4.69,0,0,1-2.32,1.41l3.85,6.4h-2.34Zm-.23-1.51a3.72,3.72,0,0,0,2.35-.63,2.47,2.47,0,0,0,.78-2,2.22,2.22,0,0,0-.79-1.92,4.34,4.34,0,0,0-2.56-.59h-1.77v5.18Z" style="fill:#1d1d1b"/><path d="M631.64,155.5a1.41,1.41,0,0,0,.68.49l-.43,1.32a2.88,2.88,0,0,1-1.37-.47,2.21,2.21,0,0,1-.77-1.16,3.66,3.66,0,0,1-3.25,1.63,3.48,3.48,0,0,1-2.55-.91A3.19,3.19,0,0,1,623,154a3.14,3.14,0,0,1,1.25-2.68,5.88,5.88,0,0,1,3.55-.93h1.68v-.81a2.12,2.12,0,0,0-.56-1.66,2.52,2.52,0,0,0-1.72-.49,9.51,9.51,0,0,0-2.94.58l-.48-1.39a11,11,0,0,1,3.78-.75,4,4,0,0,1,2.88,1,3.61,3.61,0,0,1,.95,2.68v5A1.71,1.71,0,0,0,631.64,155.5Zm-2.14-1.32v-2.5h-1.43c-2,0-3,.74-3,2.23a2.12,2.12,0,0,0,.47,1.48,1.87,1.87,0,0,0,1.41.49A2.84,2.84,0,0,0,629.5,154.18Z" style="fill:#1d1d1b"/><path d="M648.45,146.79a3.54,3.54,0,0,1,.81,2.44v7.83h-1.91V149.5c0-1.41-.51-2.11-1.53-2.11a2.06,2.06,0,0,0-1.37.46,6.17,6.17,0,0,0-1.2,1.46v7.75h-1.91V149.5c0-1.41-.51-2.11-1.54-2.11a2,2,0,0,0-1.38.47,6.52,6.52,0,0,0-1.19,1.45v7.75h-1.9V146.14H637l.17,1.6a3.67,3.67,0,0,1,3.15-1.85,2.76,2.76,0,0,1,2.76,2,5.22,5.22,0,0,1,1.42-1.46,3.27,3.27,0,0,1,1.83-.51A2.76,2.76,0,0,1,648.45,146.79Z" style="fill:#1d1d1b"/><path d="M655,141.27a1.26,1.26,0,0,1,.37.93,1.24,1.24,0,0,1-.37.93,1.36,1.36,0,0,1-1,.36,1.32,1.32,0,0,1-.95-.36,1.24,1.24,0,0,1-.37-.93,1.26,1.26,0,0,1,.37-.93,1.29,1.29,0,0,1,.95-.37A1.33,1.33,0,0,1,655,141.27Zm0,4.87v10.92h-1.91V146.14Z" style="fill:#1d1d1b"/><path d="M664.27,141.71a6.59,6.59,0,0,1,1.44.56l-.66,1.32a5.34,5.34,0,0,0-2.3-.52,2.2,2.2,0,0,0-1.51.4,1.6,1.6,0,0,0-.42,1.22v1.45h6.1v10.92H665v-9.45h-4.19v9.45h-1.91v-9.45h-1.74v-1.47h1.74v-1.43a3,3,0,0,1,.94-2.32,4,4,0,0,1,2.84-.87A6,6,0,0,1,664.27,141.71Z" style="fill:#1d1d1b"/><path d="M676.62,146.17a5.25,5.25,0,0,1,1.55.9l-.91,1.21a4.68,4.68,0,0,0-1.13-.61,3.38,3.38,0,0,0-1.21-.2,2.37,2.37,0,0,0-2.07,1.06,5.46,5.46,0,0,0-.73,3.13,5.17,5.17,0,0,0,.72,3.05,2.43,2.43,0,0,0,2.08,1,3.48,3.48,0,0,0,1.18-.2,5.84,5.84,0,0,0,1.2-.63l.87,1.24a5.21,5.21,0,0,1-3.34,1.2,4.33,4.33,0,0,1-3.49-1.49,6.14,6.14,0,0,1-1.27-4.12,7.41,7.41,0,0,1,.58-3,4.61,4.61,0,0,1,1.64-2,4.37,4.37,0,0,1,2.54-.73A5.65,5.65,0,0,1,676.62,146.17Z" style="fill:#1d1d1b"/><path d="M688.35,155.5a1.41,1.41,0,0,0,.68.49l-.44,1.32a2.88,2.88,0,0,1-1.36-.47,2.21,2.21,0,0,1-.77-1.16,3.66,3.66,0,0,1-3.25,1.63,3.48,3.48,0,0,1-2.55-.91,3.48,3.48,0,0,1,.32-5.06,5.86,5.86,0,0,1,3.55-.93h1.68v-.81a2.16,2.16,0,0,0-.56-1.66,2.52,2.52,0,0,0-1.72-.49A9.51,9.51,0,0,0,681,148l-.48-1.39a11,11,0,0,1,3.77-.75,4,4,0,0,1,2.89,1,3.61,3.61,0,0,1,1,2.68v5A1.63,1.63,0,0,0,688.35,155.5Zm-2.14-1.32v-2.5h-1.43c-2,0-3,.74-3,2.23a2.08,2.08,0,0,0,.48,1.48,1.87,1.87,0,0,0,1.41.49A2.84,2.84,0,0,0,686.21,154.18Z" style="fill:#1d1d1b"/><path d="M700.49,141.75v15.31h-1.68l-.18-1.51a4,4,0,0,1-1.35,1.3,3.77,3.77,0,0,1-4.84-1.07,7,7,0,0,1-1.09-4.12,8,8,0,0,1,.52-3,4.57,4.57,0,0,1,1.49-2,3.69,3.69,0,0,1,2.28-.74,3.9,3.9,0,0,1,2.94,1.35v-5.72Zm-3.11,13.65a4.5,4.5,0,0,0,1.2-1.22v-5.34a4,4,0,0,0-1.15-1.07,2.62,2.62,0,0,0-1.37-.36,2.21,2.21,0,0,0-2,1.05,5.74,5.74,0,0,0-.7,3.15,6.07,6.07,0,0,0,.65,3.15,2,2,0,0,0,1.84,1A2.65,2.65,0,0,0,697.38,155.4Z" style="fill:#1d1d1b"/><path d="M712.11,147.43a6.3,6.3,0,0,1,1.27,4.16,7.23,7.23,0,0,1-.58,3,4.54,4.54,0,0,1-1.67,2,4.69,4.69,0,0,1-2.62.71,4.41,4.41,0,0,1-3.58-1.53,6.27,6.27,0,0,1-1.29-4.17,7.35,7.35,0,0,1,.58-3,4.57,4.57,0,0,1,1.68-2,4.69,4.69,0,0,1,2.63-.72A4.38,4.38,0,0,1,712.11,147.43Zm-6.42,4.18q0,4.17,2.82,4.17t2.82-4.19q0-4.16-2.8-4.16T705.69,151.61Z" style="fill:#1d1d1b"/><path d="M569.44,167.66v12.56h5.86l-.23,1.72h-7.6V167.66Z" style="fill:#1d1d1b"/><path d="M585.37,172.3a6.37,6.37,0,0,1,1.27,4.17,7.19,7.19,0,0,1-.58,3,4.47,4.47,0,0,1-4.29,2.73,4.42,4.42,0,0,1-3.59-1.54,6.31,6.31,0,0,1-1.28-4.16,7.2,7.2,0,0,1,.58-3,4.56,4.56,0,0,1,1.68-2,4.68,4.68,0,0,1,2.63-.71A4.41,4.41,0,0,1,585.37,172.3ZM579,176.49q0,4.15,2.82,4.16t2.82-4.18q0-4.17-2.8-4.17T579,176.49Z" style="fill:#1d1d1b"/><path d="M597.26,171.66a3.41,3.41,0,0,1,.84,2.44v7.84h-1.9v-7.57a2.44,2.44,0,0,0-.44-1.64,1.68,1.68,0,0,0-1.29-.47,2.42,2.42,0,0,0-1.53.5,5,5,0,0,0-1.24,1.43v7.75h-1.91V171h1.64l.16,1.62a4.37,4.37,0,0,1,1.44-1.37,3.76,3.76,0,0,1,1.9-.49A3,3,0,0,1,597.26,171.66Z" style="fill:#1d1d1b"/><path d="M610.75,171.51a5.84,5.84,0,0,1-1.37.27q-.75.06-1.83.06a2.88,2.88,0,0,1,1.93,2.76,3.46,3.46,0,0,1-1.12,2.67,4.3,4.3,0,0,1-3.05,1,4.39,4.39,0,0,1-1.38-.21,1.17,1.17,0,0,0-.4.45,1.2,1.2,0,0,0-.14.57c0,.59.47.89,1.43.89h1.74a4.65,4.65,0,0,1,2,.39,3.28,3.28,0,0,1,1.31,1.08,2.73,2.73,0,0,1,.47,1.56,2.76,2.76,0,0,1-1.31,2.45,6.89,6.89,0,0,1-3.81.86,8.74,8.74,0,0,1-2.79-.36,2.67,2.67,0,0,1-1.46-1.09,3.56,3.56,0,0,1-.43-1.86h1.72a1.93,1.93,0,0,0,.24,1,1.56,1.56,0,0,0,.9.58,6.48,6.48,0,0,0,1.82.2,5.29,5.29,0,0,0,2.46-.42,1.39,1.39,0,0,0,.73-1.28,1.3,1.3,0,0,0-.58-1.16,2.9,2.9,0,0,0-1.62-.39h-1.72a3.26,3.26,0,0,1-2.1-.59,1.85,1.85,0,0,1-.71-1.49,1.88,1.88,0,0,1,.31-1,2.9,2.9,0,0,1,.89-.89,3.44,3.44,0,0,1-1.4-1.24,3.37,3.37,0,0,1-.45-1.79,3.67,3.67,0,0,1,.55-2,3.82,3.82,0,0,1,1.51-1.36,4.78,4.78,0,0,1,2.15-.48,15,15,0,0,0,2.16-.1,7.14,7.14,0,0,0,1.44-.31c.38-.13.84-.32,1.4-.57Zm-7.23,1.3a3,3,0,0,0,0,3.56,2.5,2.5,0,0,0,3.41,0,2.63,2.63,0,0,0,.59-1.83q0-2.43-2.34-2.43A2.11,2.11,0,0,0,603.52,172.81Z" style="fill:#1d1d1b"/><path d="M620.39,172.3a6.32,6.32,0,0,1,1.28,4.17,7.35,7.35,0,0,1-.58,3,4.47,4.47,0,0,1-4.29,2.73,4.41,4.41,0,0,1-3.59-1.54,6.25,6.25,0,0,1-1.28-4.16,7.2,7.2,0,0,1,.58-3,4.5,4.5,0,0,1,1.68-2,4.66,4.66,0,0,1,2.63-.71A4.39,4.39,0,0,1,620.39,172.3ZM614,176.49q0,4.15,2.82,4.16t2.82-4.18c0-2.78-.94-4.17-2.8-4.17S614,173.7,614,176.49Z" style="fill:#1d1d1b"/><path d="M634.23,165.25a27.37,27.37,0,0,0-1.71,2.85,12.56,12.56,0,0,0-1,2.85,17.16,17.16,0,0,0-.36,3.73,17,17,0,0,0,.36,3.71,12.73,12.73,0,0,0,1,2.87,23.76,23.76,0,0,0,1.71,2.85l-1.2.83c-.92-1.3-1.62-2.36-2.11-3.2a13.47,13.47,0,0,1-1.24-3,16.38,16.38,0,0,1,0-8.11,13.09,13.09,0,0,1,1.24-3c.49-.84,1.19-1.91,2.11-3.21Z" style="fill:#1d1d1b"/><path d="M639.49,168.31a1.65,1.65,0,0,0-.37,1.19V171h2.65l-.2,1.48h-2.45v9.45h-1.91v-9.45h-2V171h2v-1.49a3,3,0,0,1,.91-2.27,3.51,3.51,0,0,1,2.51-.86,6,6,0,0,1,1.34.14,8.25,8.25,0,0,1,1.28.42l-.61,1.39a4.55,4.55,0,0,0-1.9-.41A1.69,1.69,0,0,0,639.49,168.31Z" style="fill:#1d1d1b"/><path d="M645.79,170.52l7.61,3.54V176l-7.61,3.54-.68-1.53,6.78-3-6.78-2.95Z" style="fill:#1d1d1b"/><path d="M663.42,168.36a3.63,3.63,0,0,1,2,3.3,5.41,5.41,0,0,1-.57,2.42,11.63,11.63,0,0,1-1.75,2.51c-.79.9-2,2.15-3.59,3.75h6.24l-.23,1.6h-8.18v-1.52q2.77-2.88,3.94-4.21a11.63,11.63,0,0,0,1.65-2.34,4.58,4.58,0,0,0,.5-2.13,2.12,2.12,0,0,0-2.28-2.3,3.12,3.12,0,0,0-1.49.35,5.45,5.45,0,0,0-1.37,1.16L657,170a5.65,5.65,0,0,1,1.88-1.58,5.22,5.22,0,0,1,2.33-.52A4.64,4.64,0,0,1,663.42,168.36Z" style="fill:#1d1d1b"/><path d="M670.9,167.63a13.08,13.08,0,0,1,1.25,3,16.38,16.38,0,0,1,0,8.11,13.47,13.47,0,0,1-1.25,3c-.49.84-1.19,1.9-2.1,3.2l-1.2-.83a23.76,23.76,0,0,0,1.71-2.85,12.73,12.73,0,0,0,1-2.87,16.92,16.92,0,0,0,.37-3.71,17.11,17.11,0,0,0-.37-3.73,12.55,12.55,0,0,0-1-2.85,27.37,27.37,0,0,0-1.71-2.85l1.2-.83Q670.17,166.37,670.9,167.63Z" style="fill:#1d1d1b"/><line x1="386.26" y1="181.69" x2="393.9" y2="178.7" style="fill:#1d1d1b"/><rect x="385.98" y="179.57" width="8.2" height="1.25" transform="translate(-38.87 155.02) rotate(-21.44)" style="fill:#1d1d1b"/><path d="M102.94,391a3.9,3.9,0,0,1,1.45,3.31,4.07,4.07,0,0,1-1.51,3.48,6.52,6.52,0,0,1-4,1.14H97.05v5.24h-2V389.85h3.75A6.65,6.65,0,0,1,102.94,391Zm-1.55,5.71a2.76,2.76,0,0,0,.91-2.38,2.57,2.57,0,0,0-.91-2.22,4.17,4.17,0,0,0-2.58-.69H97.05v5.95h1.72A4.38,4.38,0,0,0,101.39,396.67Z" style="fill:#1d1d1b"/><path d="M114.7,394.49a6.35,6.35,0,0,1,1.28,4.17,7.43,7.43,0,0,1-.58,3,4.63,4.63,0,0,1-1.68,2,4.77,4.77,0,0,1-2.61.71,4.43,4.43,0,0,1-3.59-1.53,6.28,6.28,0,0,1-1.29-4.17,7.35,7.35,0,0,1,.58-3,4.6,4.6,0,0,1,1.68-2,4.8,4.8,0,0,1,2.64-.71A4.39,4.39,0,0,1,114.7,394.49Zm-6.41,4.19q0,4.17,2.82,4.17t2.81-4.19q0-4.17-2.79-4.17C109.23,394.49,108.29,395.89,108.29,398.68Z" style="fill:#1d1d1b"/><path d="M119.63,403.75A2.47,2.47,0,0,1,119,402V388.81l1.91-.22v13.34a1.16,1.16,0,0,0,.15.67.64.64,0,0,0,.53.21,2,2,0,0,0,.71-.13l.5,1.33a3.11,3.11,0,0,1-1.52.37A2.23,2.23,0,0,1,119.63,403.75Z" style="fill:#1d1d1b"/><path d="M127.79,387.53l.85,1.59-4.39,1.79-.58-1Zm-.68,5.68v10.92H125.2V393.21Z" style="fill:#1d1d1b"/><path d="M144.16,393.86a3.51,3.51,0,0,1,.81,2.44v7.83h-1.9v-7.56c0-1.41-.52-2.12-1.54-2.12a2.09,2.09,0,0,0-1.37.47,6.7,6.7,0,0,0-1.2,1.46v7.75h-1.91v-7.56c0-1.41-.51-2.12-1.53-2.12a2.08,2.08,0,0,0-1.39.48,6.81,6.81,0,0,0-1.18,1.45v7.75H131V393.21h1.64l.17,1.59A3.66,3.66,0,0,1,136,393a2.86,2.86,0,0,1,1.73.52,2.76,2.76,0,0,1,1,1.45,5.22,5.22,0,0,1,1.42-1.46A3.28,3.28,0,0,1,142,393,2.73,2.73,0,0,1,144.16,393.86Z" style="fill:#1d1d1b"/><path d="M157,399.32h-7A4.28,4.28,0,0,0,151,402a2.69,2.69,0,0,0,2,.85,4.54,4.54,0,0,0,1.45-.23,5.79,5.79,0,0,0,1.38-.73l.83,1.14a6,6,0,0,1-3.81,1.37,4.45,4.45,0,0,1-3.56-1.49,6.18,6.18,0,0,1-1.27-4.11,7.69,7.69,0,0,1,.55-3,4.72,4.72,0,0,1,1.57-2.06,4,4,0,0,1,2.42-.75,4.07,4.07,0,0,1,3.34,1.43,6.13,6.13,0,0,1,1.16,4C157.06,398.67,157,399,157,399.32Zm-1.85-1.53a4,4,0,0,0-.64-2.47,2.28,2.28,0,0,0-1.93-.85c-1.56,0-2.41,1.15-2.55,3.44h5.12Z" style="fill:#1d1d1b"/><path d="M165.93,393.08l-.35,1.87a4.13,4.13,0,0,0-1-.12,2,2,0,0,0-1.63.74,5.55,5.55,0,0,0-1,2.32v6.24H160.1V393.21h1.64l.19,2.22a4.14,4.14,0,0,1,1.18-1.85,2.67,2.67,0,0,1,1.74-.62A4.58,4.58,0,0,1,165.93,393.08Z" style="fill:#1d1d1b"/><path d="M175.78,394.49a6.35,6.35,0,0,1,1.28,4.17,7.43,7.43,0,0,1-.58,3,4.63,4.63,0,0,1-1.68,2,4.72,4.72,0,0,1-2.61.71,4.43,4.43,0,0,1-3.59-1.53,6.28,6.28,0,0,1-1.28-4.17,7.19,7.19,0,0,1,.58-3,4.47,4.47,0,0,1,1.68-2,4.74,4.74,0,0,1,2.63-.71A4.39,4.39,0,0,1,175.78,394.49Zm-6.41,4.19q0,4.17,2.82,4.17t2.82-4.19c0-2.78-.94-4.17-2.8-4.17S169.37,395.89,169.37,398.68Z" style="fill:#1d1d1b"/><path d="M190,398.08h-2.22v6.05h-2V389.85h3.76a6.76,6.76,0,0,1,4.05,1,3.5,3.5,0,0,1,1.38,3,3.7,3.7,0,0,1-.77,2.43,4.69,4.69,0,0,1-2.32,1.41l3.85,6.4h-2.34Zm-.23-1.51a3.66,3.66,0,0,0,2.35-.64,2.47,2.47,0,0,0,.78-2,2.21,2.21,0,0,0-.79-1.91,4.33,4.33,0,0,0-2.56-.6h-1.77v5.19Z" style="fill:#1d1d1b"/><path d="M206.45,399.32h-7a4.22,4.22,0,0,0,.91,2.66,2.66,2.66,0,0,0,2,.85,4.5,4.5,0,0,0,1.45-.23,6,6,0,0,0,1.39-.73l.83,1.14a6,6,0,0,1-3.82,1.37,4.43,4.43,0,0,1-3.55-1.49,6.13,6.13,0,0,1-1.28-4.11,7.88,7.88,0,0,1,.55-3,4.66,4.66,0,0,1,1.58-2.06A4,4,0,0,1,202,393a4.06,4.06,0,0,1,3.34,1.43,6.13,6.13,0,0,1,1.16,4C206.49,398.67,206.48,399,206.45,399.32Zm-1.85-1.53a4,4,0,0,0-.64-2.47,2.28,2.28,0,0,0-1.93-.85c-1.56,0-2.41,1.15-2.54,3.44h5.11Z" style="fill:#1d1d1b"/><path d="M215.05,403.63a4.17,4.17,0,0,1-2.44.75,2.9,2.9,0,0,1-2.17-.8,3.17,3.17,0,0,1-.78-2.31v-6.59h-1.91v-1.47h1.91v-2.47l1.91-.23v2.7h2.59l-.21,1.47h-2.38v6.51a2,2,0,0,0,.3,1.23,1.18,1.18,0,0,0,1,.39,3.17,3.17,0,0,0,1.46-.44Z" style="fill:#1d1d1b"/><path d="M218.93,388.34a1.26,1.26,0,0,1,.37.93,1.22,1.22,0,0,1-.37.92,1.37,1.37,0,0,1-1,.37,1.33,1.33,0,0,1-.95-.37,1.22,1.22,0,0,1-.37-.92,1.26,1.26,0,0,1,.37-.93A1.3,1.3,0,0,1,218,388,1.33,1.33,0,0,1,218.93,388.34Zm0,4.87v10.92H217V393.21Z" style="fill:#1d1d1b"/><path d="M228.63,393.24a5.13,5.13,0,0,1,1.55.9l-.91,1.2a4.84,4.84,0,0,0-1.13-.61,3.61,3.61,0,0,0-1.21-.19,2.39,2.39,0,0,0-2.07,1,5.51,5.51,0,0,0-.73,3.13,5.23,5.23,0,0,0,.72,3.06,2.43,2.43,0,0,0,2.08,1,3.44,3.44,0,0,0,1.18-.19,5.94,5.94,0,0,0,1.2-.64l.87,1.25a5.19,5.19,0,0,1-3.34,1.2,4.37,4.37,0,0,1-3.49-1.49,6.16,6.16,0,0,1-1.27-4.13,7.36,7.36,0,0,1,.58-3,4.61,4.61,0,0,1,1.64-2,4.39,4.39,0,0,1,2.54-.73A5.38,5.38,0,0,1,228.63,393.24Z" style="fill:#1d1d1b"/><path d="M240.9,404.13h-1.64l-.15-1.7a4.08,4.08,0,0,1-1.43,1.48,3.76,3.76,0,0,1-2,.47,2.89,2.89,0,0,1-2.23-.87,3.48,3.48,0,0,1-.81-2.47v-7.83h1.91v7.63a2.49,2.49,0,0,0,.39,1.58,1.59,1.59,0,0,0,1.28.47A3.24,3.24,0,0,0,239,401v-7.79h1.91Z" style="fill:#1d1d1b"/><path d="M245.34,403.75a2.47,2.47,0,0,1-.61-1.77V388.81l1.91-.22v13.34a1.16,1.16,0,0,0,.15.67.62.62,0,0,0,.53.21,2,2,0,0,0,.71-.13l.49,1.33a3.07,3.07,0,0,1-1.51.37A2.23,2.23,0,0,1,245.34,403.75Z" style="fill:#1d1d1b"/><path d="M258.49,402.57a1.43,1.43,0,0,0,.69.48l-.44,1.33a3,3,0,0,1-1.37-.48,2.12,2.12,0,0,1-.76-1.16,3.67,3.67,0,0,1-3.26,1.64,3.51,3.51,0,0,1-2.55-.91,3.19,3.19,0,0,1-.93-2.39,3.12,3.12,0,0,1,1.26-2.67,5.86,5.86,0,0,1,3.55-.93h1.68v-.81a2.14,2.14,0,0,0-.56-1.66,2.54,2.54,0,0,0-1.72-.5,9.82,9.82,0,0,0-2.94.58l-.48-1.38a10.92,10.92,0,0,1,3.77-.75,3.92,3.92,0,0,1,2.88.94,3.61,3.61,0,0,1,1,2.69v5A1.77,1.77,0,0,0,258.49,402.57Zm-2.13-1.32v-2.51h-1.43c-2,0-3,.75-3,2.24a2,2,0,0,0,.48,1.47,1.88,1.88,0,0,0,1.41.5A2.85,2.85,0,0,0,256.36,401.25Z" style="fill:#1d1d1b"/><path d="M270.64,388.81v15.32H269l-.19-1.51a3.84,3.84,0,0,1-1.34,1.29,3.75,3.75,0,0,1-4.84-1.06,7,7,0,0,1-1.09-4.13,7.92,7.92,0,0,1,.52-3,4.57,4.57,0,0,1,1.49-2,3.69,3.69,0,0,1,2.28-.74,3.9,3.9,0,0,1,2.94,1.35v-5.72Zm-3.11,13.65a4.45,4.45,0,0,0,1.2-1.21V395.9a4,4,0,0,0-1.15-1.06,2.59,2.59,0,0,0-1.38-.37,2.21,2.21,0,0,0-1.95,1.06,5.72,5.72,0,0,0-.7,3.15,6.08,6.08,0,0,0,.64,3.15,2.06,2.06,0,0,0,1.85,1A2.66,2.66,0,0,0,267.53,402.46Z" style="fill:#1d1d1b"/><path d="M282.26,394.49a6.35,6.35,0,0,1,1.27,4.17,7.27,7.27,0,0,1-.58,3,4.63,4.63,0,0,1-1.68,2,4.72,4.72,0,0,1-2.61.71,4.41,4.41,0,0,1-3.58-1.53,6.28,6.28,0,0,1-1.29-4.17,7.19,7.19,0,0,1,.58-3,4.6,4.6,0,0,1,1.68-2,4.76,4.76,0,0,1,2.63-.71A4.41,4.41,0,0,1,282.26,394.49Zm-6.42,4.19q0,4.17,2.82,4.17t2.82-4.19q0-4.17-2.8-4.17T275.84,398.68Z" style="fill:#1d1d1b"/><path d="M296.09,387.45a25.43,25.43,0,0,0-1.71,2.85,12.22,12.22,0,0,0-1,2.85,19.4,19.4,0,0,0,0,7.44,12.9,12.9,0,0,0,1,2.87,23.76,23.76,0,0,0,1.71,2.85l-1.2.83q-1.36-2-2.1-3.21a13.08,13.08,0,0,1-1.25-3,16.65,16.65,0,0,1,0-8.1,13.36,13.36,0,0,1,1.25-3c.49-.84,1.19-1.9,2.1-3.2Z" style="fill:#1d1d1b"/><path d="M301.36,390.5a1.68,1.68,0,0,0-.38,1.2v1.51h2.66l-.21,1.47H301v9.45h-1.9v-9.45h-1.95v-1.47h1.95v-1.49a3,3,0,0,1,.9-2.27,3.47,3.47,0,0,1,2.52-.86,6,6,0,0,1,1.33.13,7.13,7.13,0,0,1,1.28.43l-.6,1.38a4.79,4.79,0,0,0-1.91-.41A1.7,1.7,0,0,0,301.36,390.5Z" style="fill:#1d1d1b"/><path d="M307.66,392.71l7.6,3.55v1.94l-7.6,3.55-.69-1.54,6.78-3L307,394.29Z" style="fill:#1d1d1b"/><path d="M325.29,390.56a3.67,3.67,0,0,1,1.46,1.35,3.75,3.75,0,0,1,.52,1.94,5.48,5.48,0,0,1-.57,2.43,11.68,11.68,0,0,1-1.76,2.5c-.78.9-2,2.15-3.58,3.76h6.24l-.23,1.59h-8.19v-1.51c1.85-1.92,3.17-3.33,3.94-4.22a12,12,0,0,0,1.66-2.33,4.74,4.74,0,0,0,.5-2.14,2.15,2.15,0,0,0-2.28-2.3,3,3,0,0,0-1.5.36,5.39,5.39,0,0,0-1.36,1.16l-1.25-1a5.75,5.75,0,0,1,1.89-1.57,5,5,0,0,1,2.32-.52A4.54,4.54,0,0,1,325.29,390.56Z" style="fill:#1d1d1b"/><path d="M332.77,389.82a13.37,13.37,0,0,1,1.24,3,16.34,16.34,0,0,1,0,8.1,13.09,13.09,0,0,1-1.24,3q-.74,1.26-2.1,3.21l-1.21-.83a23.76,23.76,0,0,0,1.71-2.85,12.91,12.91,0,0,0,1-2.87,19.4,19.4,0,0,0,0-7.44,12.22,12.22,0,0,0-1-2.85,25.43,25.43,0,0,0-1.71-2.85l1.21-.83C331.58,387.92,332.28,389,332.77,389.82Z" style="fill:#1d1d1b"/><path d="M396.7,389a3.89,3.89,0,0,1,1.45,3.3,4.08,4.08,0,0,1-1.51,3.49,6.52,6.52,0,0,1-4,1.14h-1.81v5.24h-2V387.93h3.75A6.65,6.65,0,0,1,396.7,389Zm-1.55,5.71a2.76,2.76,0,0,0,.91-2.38,2.57,2.57,0,0,0-.91-2.22,4.17,4.17,0,0,0-2.58-.69h-1.76v6h1.72A4.38,4.38,0,0,0,395.15,394.75Z" style="fill:#1d1d1b"/><path d="M408.46,392.57a6.33,6.33,0,0,1,1.28,4.17,7.35,7.35,0,0,1-.58,3,4.52,4.52,0,0,1-1.68,2,4.69,4.69,0,0,1-2.61.72,4.43,4.43,0,0,1-3.59-1.53,6.3,6.3,0,0,1-1.29-4.17,7.43,7.43,0,0,1,.58-3,4.63,4.63,0,0,1,1.68-2,4.8,4.8,0,0,1,2.64-.71A4.39,4.39,0,0,1,408.46,392.57Zm-6.41,4.19q0,4.17,2.82,4.17t2.81-4.19q0-4.17-2.79-4.17C403,392.57,402.05,394,402.05,396.76Z" style="fill:#1d1d1b"/><path d="M413.39,401.83a2.47,2.47,0,0,1-.61-1.77V386.89l1.91-.22V400a1.16,1.16,0,0,0,.15.67.63.63,0,0,0,.53.2,2,2,0,0,0,.71-.12l.5,1.33a3.22,3.22,0,0,1-1.52.37A2.23,2.23,0,0,1,413.39,401.83Z" style="fill:#1d1d1b"/><path d="M421.55,385.61l.85,1.59L418,389l-.58-1Zm-.68,5.68v10.92H419V391.29Z" style="fill:#1d1d1b"/><path d="M437.92,391.94a3.51,3.51,0,0,1,.81,2.44v7.83h-1.9v-7.56c0-1.41-.52-2.12-1.54-2.12a2.09,2.09,0,0,0-1.37.47,6.7,6.7,0,0,0-1.2,1.46v7.75h-1.91v-7.56c0-1.41-.51-2.12-1.53-2.12a2.08,2.08,0,0,0-1.39.48,6.81,6.81,0,0,0-1.18,1.45v7.75H424.8V391.29h1.64l.17,1.59a3.64,3.64,0,0,1,3.15-1.84,2.86,2.86,0,0,1,1.73.52,2.81,2.81,0,0,1,1,1.45,5.22,5.22,0,0,1,1.42-1.46,3.28,3.28,0,0,1,1.84-.51A2.73,2.73,0,0,1,437.92,391.94Z" style="fill:#1d1d1b"/><path d="M450.78,397.4h-7a4.31,4.31,0,0,0,.91,2.66,2.69,2.69,0,0,0,2,.85,4.56,4.56,0,0,0,1.46-.23,5.79,5.79,0,0,0,1.38-.73l.83,1.14a6,6,0,0,1-3.81,1.37,4.45,4.45,0,0,1-3.56-1.49,6.2,6.2,0,0,1-1.27-4.11,7.69,7.69,0,0,1,.55-3,4.72,4.72,0,0,1,1.57-2.06,4,4,0,0,1,2.42-.75,4.07,4.07,0,0,1,3.34,1.43,6.13,6.13,0,0,1,1.16,4C450.82,396.75,450.8,397.07,450.78,397.4Zm-1.85-1.53a4,4,0,0,0-.64-2.47,2.28,2.28,0,0,0-1.93-.85c-1.56,0-2.41,1.15-2.55,3.44h5.12Z" style="fill:#1d1d1b"/><path d="M459.69,391.16l-.35,1.87a4.17,4.17,0,0,0-1-.13,2,2,0,0,0-1.63.75,5.42,5.42,0,0,0-1,2.32v6.24h-1.91V391.29h1.64l.19,2.22a4.14,4.14,0,0,1,1.18-1.85,2.67,2.67,0,0,1,1.74-.62A4.58,4.58,0,0,1,459.69,391.16Z" style="fill:#1d1d1b"/><path d="M469.54,392.57a6.33,6.33,0,0,1,1.28,4.17,7.35,7.35,0,0,1-.58,3,4.52,4.52,0,0,1-1.68,2,4.64,4.64,0,0,1-2.61.72,4.43,4.43,0,0,1-3.59-1.53,6.3,6.3,0,0,1-1.28-4.17,7.27,7.27,0,0,1,.58-3,4.54,4.54,0,0,1,1.67-2A4.8,4.8,0,0,1,466,391,4.39,4.39,0,0,1,469.54,392.57Zm-6.41,4.19q0,4.17,2.82,4.17t2.82-4.19c0-2.78-.94-4.17-2.8-4.17S463.13,394,463.13,396.76Z" style="fill:#1d1d1b"/><path d="M487.74,389.43q2,1.5,2,5.57t-2,5.58a7.16,7.16,0,0,1-4.76,1.63h-3.42V387.93h3A8.29,8.29,0,0,1,487.74,389.43Zm-6.21.07v11.16h1.6a4.39,4.39,0,0,0,3.23-1.23c.83-.81,1.25-2.29,1.25-4.43a7.49,7.49,0,0,0-.65-3.47,3.28,3.28,0,0,0-1.63-1.62,6.25,6.25,0,0,0-2.35-.41Z" style="fill:#1d1d1b"/><path d="M501,397.4h-7a4.37,4.37,0,0,0,.91,2.66,2.69,2.69,0,0,0,2,.85,4.54,4.54,0,0,0,1.45-.23,5.79,5.79,0,0,0,1.38-.73l.83,1.14a6,6,0,0,1-3.81,1.37A4.43,4.43,0,0,1,493.3,401a6.15,6.15,0,0,1-1.28-4.11,7.69,7.69,0,0,1,.55-3,4.66,4.66,0,0,1,1.58-2.06,4,4,0,0,1,2.41-.75,4.07,4.07,0,0,1,3.34,1.43,6.13,6.13,0,0,1,1.16,4C501.06,396.75,501,397.07,501,397.4Zm-1.85-1.53a4,4,0,0,0-.64-2.47,2.28,2.28,0,0,0-1.93-.85c-1.56,0-2.41,1.15-2.55,3.44h5.12Z" style="fill:#1d1d1b"/><path d="M511.58,391.93a3.42,3.42,0,0,1,.84,2.45v7.83h-1.91v-7.56a2.43,2.43,0,0,0-.43-1.64,1.65,1.65,0,0,0-1.29-.48,2.48,2.48,0,0,0-1.53.5,5.11,5.11,0,0,0-1.25,1.43v7.75h-1.9V391.29h1.63l.17,1.61a4.34,4.34,0,0,1,1.44-1.36,3.72,3.72,0,0,1,1.9-.5A3.07,3.07,0,0,1,511.58,391.93Z" style="fill:#1d1d1b"/><path d="M524.71,386.89v15.32H523l-.19-1.51A4,4,0,0,1,521.5,402a3.56,3.56,0,0,1-1.81.47,3.5,3.5,0,0,1-3-1.53,7,7,0,0,1-1.09-4.13,7.92,7.92,0,0,1,.52-3,4.65,4.65,0,0,1,1.49-2.05,3.68,3.68,0,0,1,2.28-.73,3.9,3.9,0,0,1,2.94,1.35v-5.72Zm-3.11,13.65a4.75,4.75,0,0,0,1.2-1.21V394a4,4,0,0,0-1.15-1.06,2.59,2.59,0,0,0-1.38-.37,2.22,2.22,0,0,0-2,1.06,5.79,5.79,0,0,0-.69,3.15,6.08,6.08,0,0,0,.64,3.15,2.05,2.05,0,0,0,1.85,1A2.68,2.68,0,0,0,521.6,400.54Z" style="fill:#1d1d1b"/><path d="M534.47,391.16l-.35,1.87a4.1,4.1,0,0,0-1-.13,2,2,0,0,0-1.63.75,5.55,5.55,0,0,0-1,2.32v6.24h-1.9V391.29h1.63l.19,2.22a4.14,4.14,0,0,1,1.18-1.85,2.67,2.67,0,0,1,1.74-.62A4.58,4.58,0,0,1,534.47,391.16Z" style="fill:#1d1d1b"/><path d="M539.24,385.61l.85,1.59-4.4,1.79-.58-1Zm-.69,5.68v10.92h-1.9V391.29Z" style="fill:#1d1d1b"/><path d="M548,401.71a4.15,4.15,0,0,1-2.44.75,2.9,2.9,0,0,1-2.17-.8,3.2,3.2,0,0,1-.77-2.31v-6.59h-1.91v-1.47h1.91v-2.47l1.9-.23v2.7h2.59l-.2,1.47h-2.39v6.51a2,2,0,0,0,.3,1.23,1.2,1.2,0,0,0,1,.38,3.11,3.11,0,0,0,1.45-.43Z" style="fill:#1d1d1b"/><path d="M551.88,386.42a1.26,1.26,0,0,1,.37.93,1.22,1.22,0,0,1-.37.92,1.47,1.47,0,0,1-1.93,0,1.22,1.22,0,0,1-.37-.92,1.26,1.26,0,0,1,.37-.93,1.42,1.42,0,0,1,1.93,0Zm0,4.87v10.92H550V391.29Z" style="fill:#1d1d1b"/><path d="M561.58,391.32a5.17,5.17,0,0,1,1.56.9l-.92,1.2a4.65,4.65,0,0,0-1.13-.61,3.57,3.57,0,0,0-1.21-.2,2.38,2.38,0,0,0-2.06,1.06,5.5,5.5,0,0,0-.74,3.13,5.15,5.15,0,0,0,.73,3.06,2.42,2.42,0,0,0,2.07,1,3.44,3.44,0,0,0,1.18-.19,6.49,6.49,0,0,0,1.2-.64l.88,1.25a5.21,5.21,0,0,1-3.34,1.2,4.36,4.36,0,0,1-3.49-1.49,6.17,6.17,0,0,1-1.28-4.13,7.36,7.36,0,0,1,.58-3,4.73,4.73,0,0,1,1.65-2,4.43,4.43,0,0,1,2.54-.72A5.32,5.32,0,0,1,561.58,391.32Z" style="fill:#1d1d1b"/><path d="M573.41,392.57a6.39,6.39,0,0,1,1.27,4.17,7.19,7.19,0,0,1-.58,3,4.52,4.52,0,0,1-1.68,2,4.64,4.64,0,0,1-2.61.72,4.45,4.45,0,0,1-3.59-1.53,6.35,6.35,0,0,1-1.28-4.17,7.27,7.27,0,0,1,.58-3,4.56,4.56,0,0,1,1.68-2,4.76,4.76,0,0,1,2.63-.71A4.41,4.41,0,0,1,573.41,392.57ZM567,396.76q0,4.17,2.82,4.17t2.82-4.19q0-4.17-2.8-4.17T567,396.76Z" style="fill:#1d1d1b"/><path d="M587.24,385.52a26.4,26.4,0,0,0-1.71,2.86,12.22,12.22,0,0,0-1,2.85,18.89,18.89,0,0,0,0,7.44,12.9,12.9,0,0,0,1,2.87,23.76,23.76,0,0,0,1.71,2.85l-1.2.83c-.91-1.3-1.61-2.37-2.11-3.21a13.09,13.09,0,0,1-1.24-3,16.38,16.38,0,0,1,0-8.11,13.28,13.28,0,0,1,1.24-3c.5-.84,1.2-1.91,2.11-3.2Z" style="fill:#1d1d1b"/><path d="M592.5,388.58a1.69,1.69,0,0,0-.37,1.19v1.52h2.66l-.21,1.47h-2.45v9.45h-1.91v-9.45h-1.94v-1.47h1.94V389.8a3,3,0,0,1,.91-2.28,3.5,3.5,0,0,1,2.51-.85,6,6,0,0,1,1.34.13,7.13,7.13,0,0,1,1.28.43l-.6,1.38a4.79,4.79,0,0,0-1.91-.41A1.73,1.73,0,0,0,592.5,388.58Z" style="fill:#1d1d1b"/><path d="M598.81,390.79l7.6,3.54v1.95l-7.6,3.55-.69-1.54,6.78-3-6.78-2.94Z" style="fill:#1d1d1b"/><path d="M616.43,388.63A3.79,3.79,0,0,1,617.9,390a3.72,3.72,0,0,1,.51,1.94,5.48,5.48,0,0,1-.57,2.43,11.84,11.84,0,0,1-1.75,2.5c-.78.9-2,2.15-3.58,3.76h6.24l-.23,1.59h-8.19V400.7c1.85-1.92,3.17-3.33,3.94-4.22a12,12,0,0,0,1.66-2.33,4.76,4.76,0,0,0,.49-2.14,2.24,2.24,0,0,0-.62-1.69,2.29,2.29,0,0,0-1.66-.61,3.12,3.12,0,0,0-1.49.35,5.7,5.7,0,0,0-1.37,1.17l-1.24-1a5.91,5.91,0,0,1,1.89-1.58,5.17,5.17,0,0,1,2.32-.51A4.58,4.58,0,0,1,616.43,388.63Z" style="fill:#1d1d1b"/><path d="M623.92,387.9a13.28,13.28,0,0,1,1.24,3,16.38,16.38,0,0,1,0,8.11,13.09,13.09,0,0,1-1.24,3c-.49.84-1.19,1.91-2.11,3.21l-1.2-.83a23.76,23.76,0,0,0,1.71-2.85,13.43,13.43,0,0,0,1-2.87,19.4,19.4,0,0,0,0-7.44,12.7,12.7,0,0,0-1-2.85,26.4,26.4,0,0,0-1.71-2.86l1.2-.82C622.73,386,623.43,387.06,623.92,387.9Z" style="fill:#1d1d1b"/></g></g></svg>