<svg xmlns="http://www.w3.org/2000/svg" xmlns:xlink="http://www.w3.org/1999/xlink" viewBox="0 0 730 289.48"><defs><clipPath id="clip-path"><path d="M512.41,88c0,39.23,32.7,71,73,71s73-31.79,73-71-32.69-71-73-71-73,31.8-73,71" style="fill:none"/></clipPath><radialGradient id="Gradiente_sem_nome_5" cx="2022.55" cy="1771.15" r="2.52" gradientTransform="matrix(29, 0, 0, -29.17, -58078.17, 51727.16)" gradientUnits="userSpaceOnUse"><stop offset="0" stop-color="#d01917"/><stop offset="0.19" stop-color="#cc1917"/><stop offset="0.41" stop-color="#be1816"/><stop offset="0.63" stop-color="#a81814"/><stop offset="0.86" stop-color="#8a1712"/><stop offset="1" stop-color="#731610"/></radialGradient><clipPath id="clip-path-2"><path d="M418.09,178.09c0,40.57,32.7,73.47,73,73.47s73-32.9,73-73.47-32.7-73.48-73-73.48-73,32.89-73,73.48" style="fill:none"/></clipPath><radialGradient id="Gradiente_sem_nome_5-2" cx="2020.59" cy="1769.24" r="2.52" gradientTransform="matrix(29, 0, 0, -29.17, -58116.04, 51764.31)" xlink:href="#Gradiente_sem_nome_5"/><clipPath id="clip-path-3"><path d="M459.8,138.25c0,54.11,43.59,98,97.37,98s97.38-43.86,97.38-98-43.6-98-97.38-98-97.37,43.86-97.37,98" style="fill:none"/></clipPath><radialGradient id="Gradiente_sem_nome_3" cx="2037.63" cy="1756.99" r="2.52" gradientTransform="matrix(38.66, 0, 0, -38.9, -78243.67, 68442.5)" gradientUnits="userSpaceOnUse"><stop offset="0" stop-color="#ededa2"/><stop offset="0.17" stop-color="#e8e99d"/><stop offset="0.35" stop-color="#dbdb90"/><stop offset="0.54" stop-color="#c5c67a"/><stop offset="0.74" stop-color="#a6a75b"/><stop offset="0.94" stop-color="#7e8133"/><stop offset="1" stop-color="#717426"/></radialGradient><clipPath id="clip-path-4"><path d="M459.8,98.78c0,39.57,24,70.64,63.34,70.64s80.63-35.29,80.63-74.85S570.32,27.15,531,27.15s-71.2,32.07-71.2,71.63" style="fill:none"/></clipPath><radialGradient id="Gradiente_sem_nome_5-3" cx="2019.87" cy="1772.19" r="2.52" gradientTransform="matrix(28.3, 0, 0, -28.47, -56644.79, 50527.31)" xlink:href="#Gradiente_sem_nome_5"/><clipPath id="clip-path-5"><path d="M566.5,236.2C585,256.15,604.63,265,629.68,262.69c40.16-3.76,69.69-39.56,66-80-2.57-27.85-18-52.28-44.18-60.85-35.79,3.35-100.42,97.65-85,114.32" style="fill:none"/></clipPath><radialGradient id="Gradiente_sem_nome_5-4" cx="2019.07" cy="1772.51" r="2.52" gradientTransform="matrix(27.08, 0, 0, -27.25, -54065.64, 48460.35)" xlink:href="#Gradiente_sem_nome_5"/><clipPath id="clip-path-6"><path d="M657.07,104.61a64.48,64.48,0,0,0-9,.61c-16.75,2.33-28.77,23.54-33.28,39.8,5.3,33.91,43.39,74.62,59.29,74.6,19.3,0,44.37-22.76,44.37-55.63,0-40.54-32.36-59.38-61.42-59.38h0" style="fill:none"/></clipPath><radialGradient id="Gradiente_sem_nome_7" cx="2004.25" cy="1778.29" r="2.52" gradientTransform="matrix(21.78, 0, 0, -24.95, -43003.19, 44505.57)" gradientUnits="userSpaceOnUse"><stop offset="0" stop-color="#fff"/><stop offset="0.15" stop-color="#fafafa"/><stop offset="0.33" stop-color="#ededed"/><stop offset="0.51" stop-color="#d7d7d7"/><stop offset="0.7" stop-color="#b8b8b8"/><stop offset="0.89" stop-color="#919090"/><stop offset="1" stop-color="#757474"/></radialGradient><clipPath id="clip-path-7"><path d="M419.1,188.6a51.17,51.17,0,0,0-3.14,8.81V227.2c5,20,20,38.53,46.13,44.15a53.44,53.44,0,0,0,11.05,1.18h.43c27.89-.09,53.49-21.15,55.39-40.62-11-12-49-47.11-65.57-66.46-1.6-.12-3.16-.17-4.68-.17-20.59,0-33.71,10.59-39.61,23.32" style="fill:none"/></clipPath><radialGradient id="Gradiente_sem_nome_7-2" cx="2000.11" cy="1783.84" r="2.52" gradientTransform="matrix(22.16, 0, 0, -22.29, -43869.29, 39973.28)" xlink:href="#Gradiente_sem_nome_7"/></defs><title>fig-1-1</title><g id="fig-1-1"><g style="clip-path:url(#clip-path)"><rect x="512.41" y="16.94" width="146.06" height="142.04" style="fill:url(#Gradiente_sem_nome_5)"/></g><g style="clip-path:url(#clip-path-2)"><rect x="418.09" y="104.61" width="146.06" height="146.95" style="fill:url(#Gradiente_sem_nome_5-2)"/></g><g style="clip-path:url(#clip-path-3)"><rect x="459.8" y="40.29" width="194.75" height="195.94" style="fill:url(#Gradiente_sem_nome_3)"/></g><g style="clip-path:url(#clip-path-4)"><rect x="459.8" y="27.15" width="143.97" height="142.27" style="fill:url(#Gradiente_sem_nome_5-3)"/></g><g style="clip-path:url(#clip-path-5)"><rect x="551.03" y="121.88" width="148.34" height="143.16" style="fill:url(#Gradiente_sem_nome_5-4)"/></g><g style="clip-path:url(#clip-path-6)"><rect x="614.84" y="104.61" width="103.66" height="115.03" style="fill:url(#Gradiente_sem_nome_7)"/></g><g style="clip-path:url(#clip-path-7)"><rect x="415.96" y="165.28" width="113" height="107.26" style="fill:url(#Gradiente_sem_nome_7-2)"/></g><g id="preto"><path d="M248.3,166l-53.72-32.55.52-.86,53.71,32.55ZM105.16,165l-.52-.86,53.71-32.55.52.85Zm87-55.68-.67-.74L238,66.35l.68.74ZM161.23,109,114.68,66.75l.67-.74,46.56,42.28Zm24.64-6.19-.67-.74,46.55-42.28.67.74Zm-18.34-.33L121,60.23l.67-.74,46.55,42.27Z" style="fill:#1d1d1b"/><path d="M255.2,40.26a8.36,8.36,0,0,1,3.07,3.67,14.16,14.16,0,0,1,1.09,5.86,14,14,0,0,1-1.09,5.81,8.39,8.39,0,0,1-3.07,3.68,8.23,8.23,0,0,1-4.58,1.27A8.46,8.46,0,0,1,246,59.32,8.28,8.28,0,0,1,243,55.66a14.09,14.09,0,0,1-1.09-5.84A14.13,14.13,0,0,1,243,44a8.49,8.49,0,0,1,3.08-3.73A8.22,8.22,0,0,1,250.62,39,8.31,8.31,0,0,1,255.2,40.26Zm-8.78,3.16q-1.51,2.05-1.51,6.4c0,2.89.51,5,1.52,6.35a5,5,0,0,0,4.19,2q5.7,0,5.71-8.41t-5.71-8.43A4.91,4.91,0,0,0,246.42,43.42Z" style="fill:#1d1d1b"/><path d="M110.59,39.29A8.25,8.25,0,0,1,113.65,43a14,14,0,0,1,1.1,5.86,13.8,13.8,0,0,1-1.1,5.8,8.39,8.39,0,0,1-3.06,3.69A8.23,8.23,0,0,1,106,59.59a8.38,8.38,0,0,1-4.58-1.24,8.21,8.21,0,0,1-3.07-3.66,14,14,0,0,1-1.09-5.83,14.09,14.09,0,0,1,1.09-5.8,8.39,8.39,0,0,1,3.08-3.74A8.27,8.27,0,0,1,106,38,8.38,8.38,0,0,1,110.59,39.29Zm-8.79,3.16q-1.5,2.05-1.5,6.41t1.52,6.35a4.94,4.94,0,0,0,4.19,2q5.7,0,5.71-8.4T106,40.4A4.92,4.92,0,0,0,101.8,42.45Z" style="fill:#1d1d1b"/><path d="M270.77,163.3a8.28,8.28,0,0,1,3.06,3.67,14.15,14.15,0,0,1,1.1,5.86,14,14,0,0,1-1.1,5.81,8,8,0,0,1-7.64,5,8.49,8.49,0,0,1-4.59-1.23,8.19,8.19,0,0,1-3.06-3.66,15.95,15.95,0,0,1,0-11.64,8.42,8.42,0,0,1,3.08-3.73,8.18,8.18,0,0,1,4.57-1.29A8.33,8.33,0,0,1,270.77,163.3ZM262,166.46q-1.5,2.06-1.5,6.4c0,2.89.5,5,1.51,6.35a5,5,0,0,0,4.2,2q5.7,0,5.7-8.41t-5.7-8.43A4.91,4.91,0,0,0,262,166.46Z" style="fill:#1d1d1b"/><path d="M93.11,162.36A8.28,8.28,0,0,1,96.17,166a14.2,14.2,0,0,1,1.1,5.87,14,14,0,0,1-1.1,5.8,8,8,0,0,1-7.64,5,8.5,8.5,0,0,1-4.59-1.24,8.19,8.19,0,0,1-3.06-3.66,15.95,15.95,0,0,1,0-11.64A8.42,8.42,0,0,1,84,162.39a8.25,8.25,0,0,1,4.57-1.28A8.41,8.41,0,0,1,93.11,162.36Zm-8.79,3.16q-1.5,2.05-1.5,6.41t1.51,6.34a5,5,0,0,0,4.2,2q5.7,0,5.7-8.4t-5.7-8.44A4.91,4.91,0,0,0,84.32,165.52Z" style="fill:#1d1d1b"/><path d="M339.6,144.39v-9.76h-8.71v9.76H328V123.57h2.85v8.71h8.71v-8.71h2.86v20.82Z" style="fill:#1d1d1b"/><path d="M91.59,259.87v-9.76H82.88v9.76H80V239.05h2.85v8.7h8.71v-8.7h2.86v20.82Z" style="fill:#1d1d1b"/><path d="M88.53,225.77h-1V189.48h1ZM283.15,165l-.57-.83L320.51,138l.57.82Z" style="fill:#1d1d1b"/><path d="M179.52,110.83a9.56,9.56,0,0,1,2.85,1.83l-1.56,1.75a9.28,9.28,0,0,0-2.3-1.38,6.62,6.62,0,0,0-2.42-.43,4.48,4.48,0,0,0-2.67.75,2.56,2.56,0,0,0-1,2.21,3,3,0,0,0,.36,1.52,3.18,3.18,0,0,0,1.34,1.14,18,18,0,0,0,2.84,1.09,17.68,17.68,0,0,1,3.24,1.3,5.29,5.29,0,0,1,2.88,5,5.65,5.65,0,0,1-3.44,5.38,9.07,9.07,0,0,1-4,.79,9.63,9.63,0,0,1-7-2.69l1.57-1.75a10.19,10.19,0,0,0,2.55,1.55,7.39,7.39,0,0,0,2.88.53,5.19,5.19,0,0,0,3.19-1,3.27,3.27,0,0,0,1.26-2.77,3.37,3.37,0,0,0-.39-1.7,3.52,3.52,0,0,0-1.34-1.23,14,14,0,0,0-2.75-1.09,12.08,12.08,0,0,1-4.65-2.32,4.79,4.79,0,0,1-1.47-3.69,5,5,0,0,1,.82-2.81,5.53,5.53,0,0,1,2.31-1.94,8,8,0,0,1,3.38-.69A9.59,9.59,0,0,1,179.52,110.83Z" style="fill:#1d1d1b"/></g><g id="roxo"><rect x="212.38" y="129.43" width="1" height="64.45" transform="translate(-37.65 254.86) rotate(-57.62)" style="fill:#6827ab"/><path d="M243.28,179.41c-1.42-1.64-2.25-2.86-3.3-4.31l-3.36,5.37a49,49,0,0,1,5.28,1.13,36.73,36.73,0,0,1,5.37,1.87,36.87,36.87,0,0,1-4-4.06" style="fill:#6827ab"/><path d="M182.48,143.9c1.42,1.65,2.25,2.86,3.3,4.32l3.37-5.38a49.08,49.08,0,0,1-5.29-1.13,37,37,0,0,1-5.36-1.87,37.87,37.87,0,0,1,4,4.06" style="fill:#6827ab"/><rect x="125.88" y="70.15" width="1" height="54.98" transform="translate(-31.33 122.78) rotate(-46.75)" style="fill:#6827ab"/><path d="M149.44,117.57c-1.09-1.89-1.67-3.23-2.43-4.86l-4.32,4.64a49.36,49.36,0,0,1,5,2.11,37.46,37.46,0,0,1,4.91,2.85,37,37,0,0,1-3.15-4.74" style="fill:#6827ab"/><path d="M103.32,77.71a53.57,53.57,0,0,1,2.43,4.86l4.32-4.64a49.36,49.36,0,0,1-5-2.11A37.46,37.46,0,0,1,100.17,73a37,37,0,0,1,3.15,4.74" style="fill:#6827ab"/><rect x="67.73" y="183.14" width="1" height="42.63" style="fill:#6827ab"/><path d="M69.51,228.75a51.49,51.49,0,0,1,1.87-5.11H65.06a51.5,51.5,0,0,1,1.87,5.11,36.71,36.71,0,0,1,1.29,5.56,36.71,36.71,0,0,1,1.29-5.56" style="fill:#6827ab"/><path d="M66.94,180.17c-.62,2.08-1.2,3.43-1.86,5.1h6.31a52,52,0,0,1-1.87-5.1,38.06,38.06,0,0,1-1.29-5.57,36.79,36.79,0,0,1-1.29,5.57" style="fill:#6827ab"/><path d="M19.92,197.35a6.07,6.07,0,0,1,1.1,3.84,11.22,11.22,0,0,1-.74,4.44A6.05,6.05,0,0,1,18,208.31a15.49,15.49,0,0,1-4.12,1.76l-.42-1.39a10.2,10.2,0,0,0,4.11-2.07,4.79,4.79,0,0,0,1.53-3.49,3.4,3.4,0,0,1-1.24,1.17,3.46,3.46,0,0,1-1.76.44,3.4,3.4,0,0,1-1.88-.53,3.7,3.7,0,0,1-1.33-1.51,5,5,0,0,1-.49-2.29A4.69,4.69,0,0,1,13,198a4,4,0,0,1,1.55-1.54,4.45,4.45,0,0,1,2.15-.53A3.88,3.88,0,0,1,19.92,197.35Zm-.77,4.26a6.17,6.17,0,0,0-.55-3.21,2,2,0,0,0-1.87-1,2.19,2.19,0,0,0-1.82.79,3.41,3.41,0,0,0-.64,2.23,3.26,3.26,0,0,0,.6,2.13,2,2,0,0,0,1.62.71A3.12,3.12,0,0,0,19.15,201.61Z" style="fill:#6827ab"/><path d="M30.31,196.15v1.39l-5,12.29-1.68-.56,4.83-11.61H22.52v-1.51Z" style="fill:#6827ab"/><path d="M45.93,200.22a7.48,7.48,0,0,1,.94,4.09,6.84,6.84,0,0,1-1.08,4,3.53,3.53,0,0,1-3.07,1.53A3.39,3.39,0,0,1,40,208.66v5l-1.84.22V199H39.7l.14,1.43a4.12,4.12,0,0,1,1.4-1.24,3.63,3.63,0,0,1,1.72-.43A3.28,3.28,0,0,1,45.93,200.22Zm-1,4.09q0-4.06-2.39-4.07a2.43,2.43,0,0,0-1.42.46A4.73,4.73,0,0,0,40,201.89v5.18a2.78,2.78,0,0,0,1,1,2.69,2.69,0,0,0,1.32.33Q44.89,208.36,44.89,204.31Z" style="fill:#6827ab"/><path d="M62.69,199.65a3.41,3.41,0,0,1,.78,2.36v7.62H61.63v-7.35c0-1.38-.49-2.06-1.48-2.06a2,2,0,0,0-1.32.45,6.83,6.83,0,0,0-1.17,1.42v7.54H55.82v-7.35c0-1.38-.49-2.06-1.48-2.06a2,2,0,0,0-1.34.46,6.39,6.39,0,0,0-1.14,1.41v7.54H50V199H51.6l.16,1.55a3.53,3.53,0,0,1,3-1.79,2.64,2.64,0,0,1,2.66,1.91,5.07,5.07,0,0,1,1.38-1.42,3.14,3.14,0,0,1,1.77-.49A2.63,2.63,0,0,1,62.69,199.65Z" style="fill:#6827ab"/><path d="M46.86,100v13.48H45v-11.5l-3.12,1.91-.8-1.31L45.24,100Z" style="fill:#6827ab"/><path d="M59.11,108.65v1.47H57.37v3.32H55.59v-3.32H49.86v-1.33l4-9,1.54.64-3.63,8.25h3.81l.16-3.63h1.6v3.63Z" style="fill:#6827ab"/><path d="M66.39,100.24a3.55,3.55,0,0,1,1.92,3.21,5.24,5.24,0,0,1-.56,2.35,11,11,0,0,1-1.69,2.44c-.76.88-1.91,2.09-3.46,3.65h6l-.22,1.55H60.5V112c1.78-1.87,3-3.23,3.8-4.1a11.33,11.33,0,0,0,1.6-2.27,4.56,4.56,0,0,0,.48-2.07,2.19,2.19,0,0,0-.6-1.64,2.16,2.16,0,0,0-1.6-.6,2.89,2.89,0,0,0-1.44.34,5.17,5.17,0,0,0-1.32,1.13l-1.21-1A5.67,5.67,0,0,1,62,100.26a5,5,0,0,1,2.24-.5A4.44,4.44,0,0,1,66.39,100.24Z" style="fill:#6827ab"/><path d="M73,111.28a1.34,1.34,0,0,1,.4,1,3.53,3.53,0,0,1-.36,1.43l-1.34,3.09H70.39l.8-3.35a1.43,1.43,0,0,1-.41-.5,1.5,1.5,0,0,1-.15-.67,1.34,1.34,0,0,1,.4-1,1.36,1.36,0,0,1,1-.4A1.39,1.39,0,0,1,73,111.28Z" style="fill:#6827ab"/><path d="M81.11,100.24A3.52,3.52,0,0,1,83,103.45a5.23,5.23,0,0,1-.55,2.35,11,11,0,0,1-1.69,2.44c-.76.88-1.91,2.09-3.46,3.65h6l-.22,1.55H75.21V112c1.79-1.87,3.06-3.23,3.81-4.1a11.33,11.33,0,0,0,1.6-2.27,4.56,4.56,0,0,0,.48-2.07,2.19,2.19,0,0,0-.6-1.64,2.16,2.16,0,0,0-1.6-.6,2.89,2.89,0,0,0-1.44.34,5.17,5.17,0,0,0-1.32,1.13l-1.21-1a5.67,5.67,0,0,1,1.83-1.53,5,5,0,0,1,2.24-.5A4.47,4.47,0,0,1,81.11,100.24Z" style="fill:#6827ab"/><path d="M99.37,104a7.57,7.57,0,0,1,.94,4.09,6.84,6.84,0,0,1-1.08,4,3.54,3.54,0,0,1-3.07,1.53,3.39,3.39,0,0,1-2.76-1.21v5l-1.84.22V102.82h1.58l.14,1.43a4.13,4.13,0,0,1,1.4-1.24,3.75,3.75,0,0,1,1.72-.43A3.28,3.28,0,0,1,99.37,104Zm-1,4.09q0-4.07-2.39-4.07a2.37,2.37,0,0,0-1.42.47,4.37,4.37,0,0,0-1.12,1.18v5.18a2.78,2.78,0,0,0,1,1,2.69,2.69,0,0,0,1.32.33Q98.33,112.17,98.33,108.12Z" style="fill:#6827ab"/><path d="M116.13,103.46a3.41,3.41,0,0,1,.78,2.36v7.62h-1.84v-7.35c0-1.37-.5-2.06-1.49-2.06a2,2,0,0,0-1.32.46,6.48,6.48,0,0,0-1.16,1.41v7.54h-1.84v-7.35c0-1.37-.49-2.06-1.48-2.06a2,2,0,0,0-1.34.46,6.39,6.39,0,0,0-1.15,1.41v7.54h-1.84V102.82H105l.16,1.55a3.55,3.55,0,0,1,3-1.79,2.64,2.64,0,0,1,2.66,1.91,5.18,5.18,0,0,1,1.37-1.42,3.17,3.17,0,0,1,1.78-.49A2.64,2.64,0,0,1,116.13,103.46Z" style="fill:#6827ab"/><path d="M142.07,165.43v13.48h-1.85V167.4l-3.12,1.92-.8-1.31,4.14-2.58Z" style="fill:#6827ab"/><path d="M152.68,166.88h-5.23v4a4.65,4.65,0,0,1,2.15-.53,3.56,3.56,0,0,1,2.76,1.14,4.48,4.48,0,0,1,1,3.13,4.73,4.73,0,0,1-.58,2.37,4.07,4.07,0,0,1-1.63,1.61,4.92,4.92,0,0,1-2.44.58,5.24,5.24,0,0,1-2.18-.44,5.74,5.74,0,0,1-1.78-1.27l1.08-1.07a4.47,4.47,0,0,0,1.32.95,3.66,3.66,0,0,0,1.54.32,2.59,2.59,0,0,0,2-.81,3.32,3.32,0,0,0,.73-2.28,2.92,2.92,0,0,0-.66-2.13,2.42,2.42,0,0,0-1.78-.67,4.23,4.23,0,0,0-1,.11,5.94,5.94,0,0,0-.94.36h-1.44v-6.79h7.25Z" style="fill:#6827ab"/><path d="M162.59,165.43v1.39l-5,12.29-1.69-.57,4.83-11.6H154.8v-1.51Z" style="fill:#6827ab"/><path d="M166.58,176.75a1.38,1.38,0,0,1,.4,1,3.61,3.61,0,0,1-.36,1.43l-1.34,3.08H164l.8-3.34a1.57,1.57,0,0,1-.41-.51,1.45,1.45,0,0,1-.15-.66,1.38,1.38,0,0,1,.4-1,1.44,1.44,0,0,1,2,0Z" style="fill:#6827ab"/><path d="M178.05,174.11v1.47h-1.74v3.33h-1.78v-3.33H168.8v-1.33l4-9,1.54.64-3.63,8.24h3.81l.16-3.63h1.6v3.63Z" style="fill:#6827ab"/><path d="M193.67,169.5a7.45,7.45,0,0,1,1,4.09,6.86,6.86,0,0,1-1.09,4,3.53,3.53,0,0,1-3.06,1.53,3.39,3.39,0,0,1-2.76-1.21v5l-1.85.22V168.29h1.59l.14,1.43a3.94,3.94,0,0,1,1.4-1.24,3.63,3.63,0,0,1,1.72-.43A3.25,3.25,0,0,1,193.67,169.5Zm-1,4.09c0-2.72-.79-4.07-2.38-4.07a2.34,2.34,0,0,0-1.42.46,4.56,4.56,0,0,0-1.12,1.19v5.18a2.75,2.75,0,0,0,1,1,2.6,2.6,0,0,0,1.32.34Q192.63,177.64,192.63,173.59Z" style="fill:#6827ab"/><path d="M210.44,168.92a3.46,3.46,0,0,1,.78,2.37v7.62h-1.84v-7.36c0-1.37-.5-2.05-1.49-2.05a2,2,0,0,0-1.32.45,6.3,6.3,0,0,0-1.16,1.42v7.54h-1.84v-7.36c0-1.37-.5-2.05-1.49-2.05a2,2,0,0,0-1.34.46,6.39,6.39,0,0,0-1.14,1.41v7.54h-1.84V168.29h1.58l.16,1.55a3.52,3.52,0,0,1,3.05-1.79,2.73,2.73,0,0,1,1.67.5,2.8,2.8,0,0,1,1,1.41,4.91,4.91,0,0,1,1.37-1.42,3.14,3.14,0,0,1,1.77-.49A2.67,2.67,0,0,1,210.44,168.92Z" style="fill:#6827ab"/></g></g></svg>