<svg xmlns="http://www.w3.org/2000/svg" xmlns:xlink="http://www.w3.org/1999/xlink" viewBox="0 0 730 506.13"><defs><clipPath id="clip-path"><rect x="5.89" y="23.3" width="719" height="468.39" style="fill:none"/></clipPath></defs><title>fig-2-7</title><g id="fig-2-7"><rect x="172.1" y="205.98" width="464.35" height="135.9" style="fill:#c9baf7"/><polygon points="172.1 379.14 172.1 350.84 172.1 345.31 166.56 345.31 107.55 345.31 107.55 350.84 166.56 350.84 166.56 379.14 166.56 384.68 172.1 384.68 203.16 384.68 203.16 433.29 208.69 433.29 208.69 384.68 208.69 379.14 203.16 379.14 172.1 379.14" style="fill:#9d9d9c"/><polygon points="172.1 336.05 172.1 330.55 172.1 165.84 172.1 160.3 166.56 160.3 107.55 160.3 107.55 165.84 166.56 165.84 166.56 330.55 107.55 330.55 107.55 336.09 172.1 336.09 172.1 336.05" style="fill:#9d9d9c"/><polygon points="601.47 40.23 601.47 75.2 172.1 75.2 166.56 75.2 148.07 75.2 148.07 80.73 166.56 80.73 166.56 145.55 107.55 145.55 107.55 151.08 166.56 151.08 172.1 151.08 172.1 145.55 172.1 80.73 601.47 80.73 607.01 80.73 607.01 75.2 607.01 40.23 601.47 40.23" style="fill:#9d9d9c"/><polygon points="659.11 75.2 640.16 75.2 634.63 75.2 624.63 75.2 624.63 40.23 619.1 40.23 619.1 75.2 619.1 80.73 624.63 80.73 634.63 80.73 634.63 379.14 594.84 379.14 589.3 379.14 589.3 384.67 589.3 414.11 589.3 419.64 594.84 419.64 635.54 419.64 635.54 414.11 594.84 414.11 594.84 384.67 634.63 384.67 640.16 384.67 640.16 379.14 640.16 80.73 659.11 80.73 659.11 75.2" style="fill:#9d9d9c"/><polygon points="580.08 379.14 579.74 379.14 574.55 379.14 233.54 379.14 228.01 379.14 228 379.14 228 433.29 233.54 433.29 233.54 384.68 574.55 384.68 574.55 428.67 574.55 434.2 580.08 434.2 635.54 434.2 635.54 428.67 580.08 428.67 580.08 379.14" style="fill:#9d9d9c"/><path d="M607,40.23H619.1m16.44,379.42v9M228,433.28H208.7M107.55,336.09v9.22m0-194.23v9.23" style="fill:none;stroke:#9d9d9c;stroke-miterlimit:10"/><line x1="624.21" y1="341.88" x2="624.21" y2="377.47" style="fill:none;stroke:#9d9d9c;stroke-miterlimit:10;stroke-width:0.75px"/><line x1="614.62" y1="341.88" x2="614.62" y2="377.47" style="fill:none;stroke:#9d9d9c;stroke-miterlimit:10;stroke-width:0.75px"/><line x1="605.03" y1="341.88" x2="605.03" y2="377.47" style="fill:none;stroke:#9d9d9c;stroke-miterlimit:10;stroke-width:0.75px"/><line x1="595.45" y1="341.88" x2="595.45" y2="377.47" style="fill:none;stroke:#9d9d9c;stroke-miterlimit:10;stroke-width:0.75px"/><line x1="585.86" y1="341.88" x2="585.86" y2="377.47" style="fill:none;stroke:#9d9d9c;stroke-miterlimit:10;stroke-width:0.75px"/><line x1="576.27" y1="341.88" x2="576.27" y2="377.47" style="fill:none;stroke:#9d9d9c;stroke-miterlimit:10;stroke-width:0.75px"/><line x1="566.68" y1="341.88" x2="566.68" y2="377.47" style="fill:none;stroke:#9d9d9c;stroke-miterlimit:10;stroke-width:0.75px"/><line x1="557.1" y1="341.88" x2="557.1" y2="377.47" style="fill:none;stroke:#9d9d9c;stroke-miterlimit:10;stroke-width:0.75px"/><line x1="547.51" y1="341.88" x2="547.51" y2="377.47" style="fill:none;stroke:#9d9d9c;stroke-miterlimit:10;stroke-width:0.75px"/><line x1="537.92" y1="341.88" x2="537.92" y2="377.47" style="fill:none;stroke:#9d9d9c;stroke-miterlimit:10;stroke-width:0.75px"/><line x1="528.33" y1="341.88" x2="528.33" y2="377.47" style="fill:none;stroke:#9d9d9c;stroke-miterlimit:10;stroke-width:0.75px"/><line x1="518.75" y1="341.88" x2="518.75" y2="377.47" style="fill:none;stroke:#9d9d9c;stroke-miterlimit:10;stroke-width:0.75px"/><line x1="509.16" y1="341.88" x2="509.16" y2="377.47" style="fill:none;stroke:#9d9d9c;stroke-miterlimit:10;stroke-width:0.75px"/><line x1="489.98" y1="341.88" x2="489.98" y2="377.47" style="fill:none;stroke:#9d9d9c;stroke-miterlimit:10;stroke-width:0.75px"/><line x1="499.57" y1="341.88" x2="499.57" y2="377.47" style="fill:none;stroke:#9d9d9c;stroke-miterlimit:10;stroke-width:0.75px"/><line x1="480.39" y1="341.88" x2="480.39" y2="377.47" style="fill:none;stroke:#9d9d9c;stroke-miterlimit:10;stroke-width:0.75px"/><line x1="470.81" y1="341.88" x2="470.81" y2="377.47" style="fill:none;stroke:#9d9d9c;stroke-miterlimit:10;stroke-width:0.75px"/><line x1="461.22" y1="341.88" x2="461.22" y2="377.47" style="fill:none;stroke:#9d9d9c;stroke-miterlimit:10;stroke-width:0.75px"/><line x1="451.63" y1="341.88" x2="451.63" y2="377.47" style="fill:none;stroke:#9d9d9c;stroke-miterlimit:10;stroke-width:0.75px"/><line x1="442.04" y1="341.88" x2="442.04" y2="377.47" style="fill:none;stroke:#9d9d9c;stroke-miterlimit:10;stroke-width:0.75px"/><line x1="432.46" y1="341.88" x2="432.46" y2="377.47" style="fill:none;stroke:#9d9d9c;stroke-miterlimit:10;stroke-width:0.75px"/><line x1="422.87" y1="341.88" x2="422.87" y2="377.47" style="fill:none;stroke:#9d9d9c;stroke-miterlimit:10;stroke-width:0.75px"/><line x1="413.28" y1="341.88" x2="413.28" y2="377.47" style="fill:none;stroke:#9d9d9c;stroke-miterlimit:10;stroke-width:0.75px"/><line x1="403.69" y1="341.88" x2="403.69" y2="377.47" style="fill:none;stroke:#9d9d9c;stroke-miterlimit:10;stroke-width:0.75px"/><line x1="394.11" y1="341.88" x2="394.11" y2="377.47" style="fill:none;stroke:#9d9d9c;stroke-miterlimit:10;stroke-width:0.75px"/><line x1="384.52" y1="341.88" x2="384.52" y2="377.47" style="fill:none;stroke:#9d9d9c;stroke-miterlimit:10;stroke-width:0.75px"/><line x1="374.93" y1="341.88" x2="374.93" y2="377.47" style="fill:none;stroke:#9d9d9c;stroke-miterlimit:10;stroke-width:0.75px"/><rect x="364.97" y="341.88" width="0.75" height="35.59" style="fill:#9d9d9c"/><line x1="355.76" y1="341.88" x2="355.76" y2="377.47" style="fill:none;stroke:#9d9d9c;stroke-miterlimit:10;stroke-width:0.75px"/><line x1="346.17" y1="341.88" x2="346.17" y2="377.47" style="fill:none;stroke:#9d9d9c;stroke-miterlimit:10;stroke-width:0.75px"/><line x1="336.58" y1="341.88" x2="336.58" y2="377.47" style="fill:none;stroke:#9d9d9c;stroke-miterlimit:10;stroke-width:0.75px"/><line x1="326.99" y1="341.88" x2="326.99" y2="377.47" style="fill:none;stroke:#9d9d9c;stroke-miterlimit:10;stroke-width:0.75px"/><line x1="317.4" y1="341.88" x2="317.4" y2="377.47" style="fill:none;stroke:#9d9d9c;stroke-miterlimit:10;stroke-width:0.75px"/><line x1="307.82" y1="341.88" x2="307.82" y2="377.47" style="fill:none;stroke:#9d9d9c;stroke-miterlimit:10;stroke-width:0.75px"/><line x1="298.23" y1="341.88" x2="298.23" y2="377.47" style="fill:none;stroke:#9d9d9c;stroke-miterlimit:10;stroke-width:0.75px"/><line x1="288.64" y1="341.88" x2="288.64" y2="377.47" style="fill:none;stroke:#9d9d9c;stroke-miterlimit:10;stroke-width:0.75px"/><line x1="279.06" y1="341.88" x2="279.06" y2="377.47" style="fill:none;stroke:#9d9d9c;stroke-miterlimit:10;stroke-width:0.75px"/><line x1="269.47" y1="341.88" x2="269.47" y2="377.47" style="fill:none;stroke:#9d9d9c;stroke-miterlimit:10;stroke-width:0.75px"/><line x1="259.88" y1="341.88" x2="259.88" y2="377.47" style="fill:none;stroke:#9d9d9c;stroke-miterlimit:10;stroke-width:0.75px"/><line x1="250.29" y1="341.88" x2="250.29" y2="377.47" style="fill:none;stroke:#9d9d9c;stroke-miterlimit:10;stroke-width:0.75px"/><line x1="240.7" y1="341.88" x2="240.7" y2="377.47" style="fill:none;stroke:#9d9d9c;stroke-miterlimit:10;stroke-width:0.75px"/><line x1="231.12" y1="341.88" x2="231.12" y2="377.47" style="fill:none;stroke:#9d9d9c;stroke-miterlimit:10;stroke-width:0.75px"/><line x1="221.53" y1="341.88" x2="221.53" y2="377.47" style="fill:none;stroke:#9d9d9c;stroke-miterlimit:10;stroke-width:0.75px"/><line x1="211.94" y1="341.88" x2="211.94" y2="377.47" style="fill:none;stroke:#9d9d9c;stroke-miterlimit:10;stroke-width:0.75px"/><line x1="202.35" y1="341.88" x2="202.35" y2="377.47" style="fill:none;stroke:#9d9d9c;stroke-miterlimit:10;stroke-width:0.75px"/><line x1="192.77" y1="341.88" x2="192.77" y2="377.47" style="fill:none;stroke:#9d9d9c;stroke-miterlimit:10;stroke-width:0.75px"/><line x1="183.18" y1="341.88" x2="183.18" y2="377.47" style="fill:none;stroke:#9d9d9c;stroke-miterlimit:10;stroke-width:0.75px"/><rect x="503.08" y="127.71" width="110.8" height="26.86" style="fill:#f2887c"/><rect x="347.85" y="127.71" width="110.8" height="26.86" style="fill:#f2887c"/><rect x="192.62" y="127.71" width="110.8" height="26.86" style="fill:#f2887c"/><line x1="182.34" y1="104.63" x2="182.34" y2="177.64" style="fill:none;stroke:#5a9e33;stroke-width:2px;stroke-dasharray:0.9679999947547913,0.9679999947547913"/><line x1="624.21" y1="104.63" x2="624.21" y2="177.64" style="fill:none;stroke:#5a9e33;stroke-width:2px;stroke-dasharray:0.9679999947547913,0.9679999947547913"/><line x1="491.31" y1="104.63" x2="491.31" y2="177.64" style="fill:none;stroke:#5a9e33;stroke-width:2px;stroke-dasharray:0.9679999947547913,0.9679999947547913"/><line x1="473.03" y1="104.63" x2="473.03" y2="177.64" style="fill:none;stroke:#5a9e33;stroke-width:2px;stroke-dasharray:0.9679999947547913,0.9679999947547913"/><line x1="335.9" y1="104.63" x2="335.9" y2="177.64" style="fill:none;stroke:#5a9e33;stroke-width:2px;stroke-dasharray:0.9679999947547913,0.9679999947547913"/><line x1="317.62" y1="104.63" x2="317.62" y2="177.64" style="fill:none;stroke:#5a9e33;stroke-width:2px;stroke-dasharray:0.9679999947547913,0.9679999947547913"/><text transform="translate(422.02 115.83)" style="font-size:26.856290817260742px;fill:#1d1d1b;font-family:RotisSansSerifStd, Rotis SansSerif Std"> </text><rect id="invert" x="358.29" y="345.79" width="91.27" height="28.33" style="fill:#fff"/><text transform="translate(218.33 293.17)" style="font-size:23.664669036865234px;fill:#1d1d1b;font-family:SourceSansPro-Regular, Source Sans Pro">(N</text><text transform="translate(239.8 293.17)" style="font-size:23.664669036865234px;fill:#1d1d1b;font-family:SourceSansPro-Regular, Source Sans Pro">a</text><text transform="translate(257.29 293.17)" style="font-size:23.664669036865234px;fill:#1d1d1b;font-family:SourceSansPro-Regular, Source Sans Pro">)</text><line x1="221.53" y1="300.57" x2="221.53" y2="326.21" style="fill:none;stroke:#1d1d1b;stroke-width:0.5px"/><g style="clip-path:url(#clip-path)"><path d="M223.08,329.77a64.19,64.19,0,0,1,2.25-6.11h-7.61a61.2,61.2,0,0,1,2.25,6.11,44.28,44.28,0,0,1,1.55,6.67,44.52,44.52,0,0,1,1.56-6.67" style="fill:#1d1d1b"/></g><line x1="240.59" y1="300.57" x2="240.59" y2="326.21" style="fill:none;stroke:#1d1d1b;stroke-width:0.5px"/><g style="clip-path:url(#clip-path)"><path d="M242.14,329.77a64.19,64.19,0,0,1,2.25-6.11h-7.61a58.72,58.72,0,0,1,2.25,6.11,44.28,44.28,0,0,1,1.55,6.67,44.52,44.52,0,0,1,1.56-6.67" style="fill:#1d1d1b"/></g><line x1="259.88" y1="300.57" x2="259.88" y2="326.21" style="fill:none;stroke:#1d1d1b;stroke-width:0.5px"/><g style="clip-path:url(#clip-path)"><path d="M261.43,329.77a61.57,61.57,0,0,1,2.25-6.11h-7.61a63.9,63.9,0,0,1,2.25,6.11,45.55,45.55,0,0,1,1.55,6.67,44.52,44.52,0,0,1,1.56-6.67" style="fill:#1d1d1b"/></g><path d="M253,282.87v-3h-2.78V279H253v-3h1v3h2.77v.95H254v3Z" style="fill:#1d1d1b"/><g id="preto"><path d="M378.38,367.4v-7.06H372v7.06H370v-15H372v6.29h6.34v-6.29h2.07v15Z" style="fill:#1d1d1b"/><path d="M394,356.41a6.34,6.34,0,0,1-1.44.28c-.53.05-1.17.07-1.93.07a3,3,0,0,1,2,2.91,3.63,3.63,0,0,1-1.19,2.81,4.51,4.51,0,0,1-3.21,1.1,4.91,4.91,0,0,1-1.46-.22,1.2,1.2,0,0,0-.42.47,1.27,1.27,0,0,0-.15.6c0,.62.5.94,1.51.94h1.83a5,5,0,0,1,2.06.41,3.43,3.43,0,0,1,1.39,1.14,3.07,3.07,0,0,1-.89,4.23,7.39,7.39,0,0,1-4,.9,9,9,0,0,1-2.94-.38,2.77,2.77,0,0,1-1.54-1.14,3.78,3.78,0,0,1-.46-2H385a2,2,0,0,0,.26,1.1,1.59,1.59,0,0,0,.94.61,6.79,6.79,0,0,0,1.92.21,5.47,5.47,0,0,0,2.59-.45,1.44,1.44,0,0,0,.77-1.34,1.36,1.36,0,0,0-.61-1.22,3,3,0,0,0-1.7-.42h-1.81a3.44,3.44,0,0,1-2.22-.62,2,2,0,0,1-.76-1.56,2,2,0,0,1,.33-1.1,3.23,3.23,0,0,1,.94-.94,3.57,3.57,0,0,1-1.47-1.3,3.49,3.49,0,0,1-.47-1.89,3.76,3.76,0,0,1,.58-2.07,3.87,3.87,0,0,1,1.59-1.43,4.85,4.85,0,0,1,2.26-.52,15.09,15.09,0,0,0,2.27-.1,7.68,7.68,0,0,0,1.52-.32c.4-.14.9-.34,1.48-.6Zm-7.62,1.37a3.13,3.13,0,0,0,0,3.75,2.27,2.27,0,0,0,1.8.71,2.34,2.34,0,0,0,1.8-.68,2.82,2.82,0,0,0,.62-1.94c0-1.7-.82-2.56-2.47-2.56A2.22,2.22,0,0,0,386.38,357.78Z" style="fill:#1d1d1b"/><path d="M410.52,362.33h-7.34a4.42,4.42,0,0,0,1,2.8,2.76,2.76,0,0,0,2.14.89,4.72,4.72,0,0,0,1.53-.24,6.21,6.21,0,0,0,1.46-.76l.88,1.2a6.4,6.4,0,0,1-4,1.44,4.64,4.64,0,0,1-3.75-1.57,6.43,6.43,0,0,1-1.35-4.33,8.35,8.35,0,0,1,.58-3.18,5,5,0,0,1,1.66-2.17,4.25,4.25,0,0,1,2.55-.79,4.29,4.29,0,0,1,3.52,1.51,6.49,6.49,0,0,1,1.22,4.17C410.56,361.64,410.55,362,410.52,362.33Zm-1.95-1.62a4.22,4.22,0,0,0-.68-2.6,2.39,2.39,0,0,0-2-.89c-1.64,0-2.54,1.21-2.68,3.63h5.39Z" style="fill:#1d1d1b"/><path d="M430.23,367.4h-2.78l-6.12-12.78c.09,1,.16,1.93.21,2.78s.08,1.89.08,3.1v6.9h-1.95v-15h2.71l6.19,12.8c-.05-.38-.11-1-.18-2s-.11-1.81-.11-2.6v-8.21h2Z" style="fill:#1d1d1b"/><path d="M442.48,365.75a1.42,1.42,0,0,0,.73.51l-.46,1.4a3,3,0,0,1-1.44-.5,2.24,2.24,0,0,1-.81-1.22,3.87,3.87,0,0,1-3.43,1.72,3.67,3.67,0,0,1-2.69-1,3.66,3.66,0,0,1,.34-5.33,6.15,6.15,0,0,1,3.75-1h1.76v-.86a2.21,2.21,0,0,0-.59-1.74,2.64,2.64,0,0,0-1.81-.53,10.37,10.37,0,0,0-3.1.61l-.51-1.46a11.75,11.75,0,0,1,4-.79,4.13,4.13,0,0,1,3,1,3.79,3.79,0,0,1,1,2.83v5.26A1.79,1.79,0,0,0,442.48,365.75Zm-2.25-1.39v-2.64h-1.5c-2.13,0-3.19.79-3.19,2.36a2.14,2.14,0,0,0,.5,1.55,2,2,0,0,0,1.49.53A3,3,0,0,0,440.23,364.36Z" style="fill:#1d1d1b"/><path d="M17.85,145.31a6.28,6.28,0,0,1,1.91,1.38l-1,1.33a6.06,6.06,0,0,0-1.54-1,4,4,0,0,0-1.62-.33,2.76,2.76,0,0,0-1.79.57,2,2,0,0,0-.7,1.67,2.55,2.55,0,0,0,.24,1.16,2.29,2.29,0,0,0,.89.85,11,11,0,0,0,1.9.83,11.54,11.54,0,0,1,2.18,1,4,4,0,0,1,1.39,1.46,4.58,4.58,0,0,1,.54,2.34,4.81,4.81,0,0,1-.6,2.43,4.13,4.13,0,0,1-1.71,1.65,5.59,5.59,0,0,1-2.64.59,6,6,0,0,1-4.7-2l1-1.32A6.65,6.65,0,0,0,13.31,159a4.66,4.66,0,0,0,1.93.4,3.16,3.16,0,0,0,2.13-.72,2.63,2.63,0,0,0,.85-2.1,2.74,2.74,0,0,0-.27-1.29,2.44,2.44,0,0,0-.89-.93,8.63,8.63,0,0,0-1.84-.82,7.81,7.81,0,0,1-3.12-1.77,3.87,3.87,0,0,1-1-2.79,4.12,4.12,0,0,1,.55-2.13,3.9,3.9,0,0,1,1.55-1.46,4.77,4.77,0,0,1,2.26-.53A5.63,5.63,0,0,1,17.85,145.31Z" style="fill:#1d1d1b"/><path d="M30.28,159.18a1.28,1.28,0,0,0,.66.54l-.42,1.46a2.63,2.63,0,0,1-1.33-.52,2.52,2.52,0,0,1-.74-1.29,3.45,3.45,0,0,1-3.16,1.81,3.15,3.15,0,0,1-2.47-1,3.83,3.83,0,0,1-.91-2.64,3.66,3.66,0,0,1,1.22-2.95,5.17,5.17,0,0,1,3.45-1h1.63v-.89a2.49,2.49,0,0,0-.55-1.83,2.24,2.24,0,0,0-1.67-.55,8.3,8.3,0,0,0-2.85.64l-.46-1.54a9.49,9.49,0,0,1,3.66-.82,3.56,3.56,0,0,1,2.79,1,4.3,4.3,0,0,1,.93,3v5.51A2.09,2.09,0,0,0,30.28,159.18Zm-2.07-1.45V155H26.82c-2,0-2.94.82-2.94,2.47a2.43,2.43,0,0,0,.47,1.62,1.65,1.65,0,0,0,1.36.55A2.78,2.78,0,0,0,28.21,157.73Z" style="fill:#1d1d1b"/><path d="M34.35,160.48a2.88,2.88,0,0,1-.6-1.95V144l1.85-.25v14.74a1.35,1.35,0,0,0,.15.73.58.58,0,0,0,.52.23,1.51,1.51,0,0,0,.68-.14l.48,1.47a2.66,2.66,0,0,1-1.46.41A2,2,0,0,1,34.35,160.48Z" style="fill:#1d1d1b"/><path d="M52.47,149.56a4.28,4.28,0,0,1,.78,2.69v8.66H51.4v-8.36c0-1.55-.49-2.33-1.48-2.33a1.86,1.86,0,0,0-1.33.51,7.31,7.31,0,0,0-1.17,1.62v8.56H45.57v-8.36c0-1.55-.49-2.33-1.48-2.33a1.86,1.86,0,0,0-1.35.52,7.66,7.66,0,0,0-1.15,1.61v8.56H39.74V148.84h1.59l.16,1.77a3.5,3.5,0,0,1,3.06-2,2.55,2.55,0,0,1,1.68.57,3.18,3.18,0,0,1,1,1.6,5.47,5.47,0,0,1,1.38-1.61,2.93,2.93,0,0,1,1.78-.56A2.53,2.53,0,0,1,52.47,149.56Z" style="fill:#1d1d1b"/><path d="M64.42,150.26a7.63,7.63,0,0,1,1.24,4.6,8.86,8.86,0,0,1-.57,3.31,4.81,4.81,0,0,1-1.62,2.22,4.13,4.13,0,0,1-2.54.79,4.06,4.06,0,0,1-3.47-1.69,7.54,7.54,0,0,1-1.25-4.6,9.11,9.11,0,0,1,.56-3.31,5,5,0,0,1,1.63-2.22,4.14,4.14,0,0,1,2.55-.79A4,4,0,0,1,64.42,150.26Zm-6.22,4.63c0,3.06.91,4.6,2.73,4.6s2.74-1.54,2.74-4.63-.91-4.6-2.72-4.6S58.2,151.8,58.2,154.89Z" style="fill:#1d1d1b"/><path d="M76.59,160.91H75L74.87,159a4.53,4.53,0,0,1-1.39,1.64,3.42,3.42,0,0,1-1.91.51,2.64,2.64,0,0,1-2.17-1,4.16,4.16,0,0,1-.79-2.72v-8.66h1.85v8.43a3.06,3.06,0,0,0,.38,1.75,1.47,1.47,0,0,0,1.25.51c1,0,1.92-.69,2.65-2.08v-8.61h1.85Z" style="fill:#1d1d1b"/><path d="M86.06,148.71l-.34,2.06a3.43,3.43,0,0,0-.92-.14,1.87,1.87,0,0,0-1.59.82,6.69,6.69,0,0,0-.95,2.57v6.89H80.41V148.84H82l.18,2.45a4.62,4.62,0,0,1,1.15-2,2.36,2.36,0,0,1,1.69-.69A3.49,3.49,0,0,1,86.06,148.71Z" style="fill:#1d1d1b"/><path d="M95.53,159.18a1.37,1.37,0,0,0,.66.54l-.42,1.46a2.63,2.63,0,0,1-1.33-.52,2.52,2.52,0,0,1-.74-1.29,3.43,3.43,0,0,1-3.16,1.81,3.17,3.17,0,0,1-2.47-1,3.83,3.83,0,0,1-.9-2.64,3.65,3.65,0,0,1,1.21-2.95,5.17,5.17,0,0,1,3.45-1h1.63v-.89a2.53,2.53,0,0,0-.54-1.83,2.24,2.24,0,0,0-1.67-.55,8.3,8.3,0,0,0-2.86.64l-.46-1.54a9.49,9.49,0,0,1,3.66-.82,3.53,3.53,0,0,1,2.79,1,4.3,4.3,0,0,1,.93,3v5.51A2.09,2.09,0,0,0,95.53,159.18Zm-2.07-1.45V155H92.07c-1.95,0-2.93.82-2.93,2.47a2.43,2.43,0,0,0,.46,1.62,1.67,1.67,0,0,0,1.37.55A2.76,2.76,0,0,0,93.46,157.73Z" style="fill:#1d1d1b"/><path d="M21.23,315.82a6.44,6.44,0,0,1,1.91,1.39l-1,1.33a6.11,6.11,0,0,0-1.54-1.05,4,4,0,0,0-1.62-.33,2.76,2.76,0,0,0-1.79.57,2,2,0,0,0-.7,1.68,2.51,2.51,0,0,0,.24,1.15,2.24,2.24,0,0,0,.89.86,10.32,10.32,0,0,0,1.9.82,11.74,11.74,0,0,1,2.17,1,4,4,0,0,1,1.4,1.45,4.72,4.72,0,0,1,.53,2.35,4.86,4.86,0,0,1-.59,2.43,4.16,4.16,0,0,1-1.71,1.64,5.48,5.48,0,0,1-2.64.6,6,6,0,0,1-4.71-2L15,328.33a6.41,6.41,0,0,0,1.71,1.18,4.47,4.47,0,0,0,1.93.4,3.19,3.19,0,0,0,2.13-.72,2.61,2.61,0,0,0,.84-2.09,2.82,2.82,0,0,0-.26-1.3,2.42,2.42,0,0,0-.89-.92,8.82,8.82,0,0,0-1.84-.83,7.81,7.81,0,0,1-3.12-1.76,3.86,3.86,0,0,1-1-2.79,4.07,4.07,0,0,1,.55-2.13,3.86,3.86,0,0,1,1.55-1.47,4.74,4.74,0,0,1,2.26-.52A5.86,5.86,0,0,1,21.23,315.82Z" style="fill:#1d1d1b"/><path d="M33.65,329.7a1.39,1.39,0,0,0,.67.53l-.43,1.47a2.6,2.6,0,0,1-1.32-.53,2.46,2.46,0,0,1-.75-1.28,3.43,3.43,0,0,1-3.15,1.81,3.15,3.15,0,0,1-2.47-1,3.76,3.76,0,0,1-.91-2.63,3.65,3.65,0,0,1,1.22-2.95,5.17,5.17,0,0,1,3.45-1h1.62v-.9a2.57,2.57,0,0,0-.54-1.83,2.28,2.28,0,0,0-1.67-.55,8.45,8.45,0,0,0-2.85.64l-.46-1.53a9.48,9.48,0,0,1,3.65-.82,3.54,3.54,0,0,1,2.8,1,4.34,4.34,0,0,1,.92,3v5.52A2.2,2.2,0,0,0,33.65,329.7Zm-2.07-1.46v-2.77H30.2c-2,0-2.94.83-2.94,2.47a2.53,2.53,0,0,0,.46,1.63,1.69,1.69,0,0,0,1.37.55A2.77,2.77,0,0,0,31.58,328.24Z" style="fill:#1d1d1b"/><path d="M39.75,313.09l.82,1.76-4.26,2-.57-1.12Zm-.67,6.27v12.06H37.23V319.36Z" style="fill:#1d1d1b"/><path d="M51.1,314.51v16.91H49.47l-.18-1.67a4,4,0,0,1-1.3,1.43,3.07,3.07,0,0,1-1.75.52,3.33,3.33,0,0,1-3-1.69,8.6,8.6,0,0,1-1-4.56,9.87,9.87,0,0,1,.5-3.3,5.14,5.14,0,0,1,1.45-2.25,3.3,3.3,0,0,1,2.21-.81,3.61,3.61,0,0,1,2.85,1.48v-6.31Zm-3,15.07a4.79,4.79,0,0,0,1.16-1.34v-5.9a4.24,4.24,0,0,0-1.11-1.18,2.32,2.32,0,0,0-1.34-.4,2.1,2.1,0,0,0-1.9,1.16,7.12,7.12,0,0,0-.67,3.48,7.59,7.59,0,0,0,.62,3.48A2,2,0,0,0,46.64,330,2.36,2.36,0,0,0,48.09,329.58Z" style="fill:#1d1d1b"/><path d="M62.28,329.7a1.41,1.41,0,0,0,.66.53l-.42,1.47a2.56,2.56,0,0,1-1.32-.53,2.39,2.39,0,0,1-.75-1.28,3.43,3.43,0,0,1-3.15,1.81,3.18,3.18,0,0,1-2.48-1,3.8,3.8,0,0,1-.9-2.63,3.64,3.64,0,0,1,1.21-2.95,5.17,5.17,0,0,1,3.45-1h1.63v-.9a2.57,2.57,0,0,0-.54-1.83A2.28,2.28,0,0,0,58,320.8a8.55,8.55,0,0,0-2.86.64l-.46-1.53a9.53,9.53,0,0,1,3.66-.82,3.54,3.54,0,0,1,2.8,1,4.34,4.34,0,0,1,.92,3v5.52A2.09,2.09,0,0,0,62.28,329.7Zm-2.07-1.46v-2.77H58.82c-2,0-2.93.83-2.93,2.47a2.48,2.48,0,0,0,.46,1.63,1.67,1.67,0,0,0,1.37.55A2.77,2.77,0,0,0,60.21,328.24Z" style="fill:#1d1d1b"/><path d="M79.39,314.51v16.91H77.76l-.18-1.67a4,4,0,0,1-1.31,1.43,3.05,3.05,0,0,1-1.75.52A3.3,3.3,0,0,1,71.58,330a8.5,8.5,0,0,1-1.06-4.56,9.86,9.86,0,0,1,.51-3.3,5,5,0,0,1,1.44-2.25,3.3,3.3,0,0,1,2.21-.81,3.63,3.63,0,0,1,2.86,1.48v-6.31Zm-3,15.07a5,5,0,0,0,1.17-1.34v-5.9a4.12,4.12,0,0,0-1.12-1.18,2.29,2.29,0,0,0-1.33-.4,2.1,2.1,0,0,0-1.9,1.16,7.11,7.11,0,0,0-.68,3.48,7.44,7.44,0,0,0,.63,3.48A1.94,1.94,0,0,0,74.93,330,2.33,2.33,0,0,0,76.37,329.58Z" style="fill:#1d1d1b"/><path d="M91.17,326.11H84.41A5.09,5.09,0,0,0,85.3,329a2.41,2.41,0,0,0,2,.94,3.8,3.8,0,0,0,1.41-.25,5.56,5.56,0,0,0,1.34-.8l.81,1.26a5.43,5.43,0,0,1-3.7,1.51,4.05,4.05,0,0,1-3.45-1.65,7.43,7.43,0,0,1-1.24-4.53,9.53,9.53,0,0,1,.54-3.33,5.18,5.18,0,0,1,1.52-2.28,3.58,3.58,0,0,1,2.35-.82,3.71,3.71,0,0,1,3.23,1.58A7.42,7.42,0,0,1,91.21,325C91.21,325.39,91.2,325.75,91.17,326.11Zm-1.79-1.69a5,5,0,0,0-.62-2.72,2.09,2.09,0,0,0-1.87-.94c-1.52,0-2.34,1.26-2.48,3.8h5Z" style="fill:#1d1d1b"/><path d="M12.91,343.29a6.57,6.57,0,0,1,1.91,1.39L13.77,346A5.78,5.78,0,0,0,12.23,345a4,4,0,0,0-1.61-.33,2.74,2.74,0,0,0-1.79.57,2,2,0,0,0-.71,1.68A2.38,2.38,0,0,0,8.37,348a2.17,2.17,0,0,0,.89.86,10,10,0,0,0,1.9.82,12.05,12.05,0,0,1,2.17,1,4,4,0,0,1,1.4,1.45,4.72,4.72,0,0,1,.53,2.35,5,5,0,0,1-.59,2.43A4.16,4.16,0,0,1,13,358.57a5.52,5.52,0,0,1-2.65.6,6,6,0,0,1-4.7-2l1-1.33A6.41,6.41,0,0,0,8.37,357a4.44,4.44,0,0,0,1.93.4,3.19,3.19,0,0,0,2.13-.72,2.61,2.61,0,0,0,.84-2.09,3,3,0,0,0-.26-1.3,2.46,2.46,0,0,0-.9-.92,8.35,8.35,0,0,0-1.84-.83,7.69,7.69,0,0,1-3.11-1.76,3.87,3.87,0,0,1-1-2.79,4.08,4.08,0,0,1,.56-2.13,3.83,3.83,0,0,1,1.54-1.47,4.81,4.81,0,0,1,2.27-.52A5.86,5.86,0,0,1,12.91,343.29Z" style="fill:#1d1d1b"/><path d="M25.33,357.17a1.41,1.41,0,0,0,.66.53l-.42,1.47a2.56,2.56,0,0,1-1.32-.53,2.39,2.39,0,0,1-.75-1.28,3.43,3.43,0,0,1-3.15,1.81,3.18,3.18,0,0,1-2.48-1,3.8,3.8,0,0,1-.9-2.63,3.62,3.62,0,0,1,1.22-2.95,5.14,5.14,0,0,1,3.44-1h1.63v-.9a2.57,2.57,0,0,0-.54-1.83,2.28,2.28,0,0,0-1.67-.55,8.45,8.45,0,0,0-2.85.64l-.47-1.53a9.59,9.59,0,0,1,3.66-.83,3.54,3.54,0,0,1,2.8,1.05,4.34,4.34,0,0,1,.92,3v5.52A2.09,2.09,0,0,0,25.33,357.17Zm-2.07-1.46v-2.77H21.87c-1.95,0-2.93.83-2.93,2.47A2.48,2.48,0,0,0,19.4,357a1.69,1.69,0,0,0,1.37.55A2.77,2.77,0,0,0,23.26,355.71Z" style="fill:#1d1d1b"/><path d="M29.4,358.47a3,3,0,0,1-.59-2V342l1.85-.26v14.75a1.37,1.37,0,0,0,.15.73.57.57,0,0,0,.51.23,1.67,1.67,0,0,0,.69-.14l.48,1.47a2.76,2.76,0,0,1-1.47.41A2,2,0,0,1,29.4,358.47Z" style="fill:#1d1d1b"/><path d="M47.53,347.55a4.26,4.26,0,0,1,.78,2.69v8.65H46.46v-8.35c0-1.56-.5-2.34-1.49-2.34a1.86,1.86,0,0,0-1.32.52,6.63,6.63,0,0,0-1.17,1.61v8.56H40.63v-8.35c0-1.56-.5-2.34-1.49-2.34a1.86,1.86,0,0,0-1.34.53,6.91,6.91,0,0,0-1.15,1.6v8.56H34.8V346.83h1.59l.16,1.76a3.49,3.49,0,0,1,3.05-2,2.56,2.56,0,0,1,1.68.58,3.08,3.08,0,0,1,1,1.6,5.19,5.19,0,0,1,1.38-1.61,2.84,2.84,0,0,1,1.77-.57A2.56,2.56,0,0,1,47.53,347.55Z" style="fill:#1d1d1b"/><path d="M59.48,348.25a7.68,7.68,0,0,1,1.23,4.6,9.15,9.15,0,0,1-.56,3.31,5,5,0,0,1-1.63,2.22,4.43,4.43,0,0,1-6-.91,7.59,7.59,0,0,1-1.25-4.6,8.84,8.84,0,0,1,.57-3.3,4.75,4.75,0,0,1,1.63-2.22,4.15,4.15,0,0,1,2.55-.8A4.06,4.06,0,0,1,59.48,348.25Zm-6.23,4.62c0,3.07.92,4.6,2.74,4.6s2.73-1.54,2.73-4.62-.9-4.6-2.71-4.6S53.25,349.79,53.25,352.87Z" style="fill:#1d1d1b"/><path d="M71.65,358.89H70.06L69.92,357a4.31,4.31,0,0,1-1.39,1.63,3.35,3.35,0,0,1-1.91.52,2.65,2.65,0,0,1-2.17-1,4.23,4.23,0,0,1-.78-2.73v-8.65h1.85v8.42A3,3,0,0,0,65.9,357a1.45,1.45,0,0,0,1.25.51c1,0,1.91-.69,2.65-2.08v-8.61h1.85Z" style="fill:#1d1d1b"/><path d="M81.12,346.69l-.34,2.06a3.53,3.53,0,0,0-.93-.13,1.87,1.87,0,0,0-1.59.82,6.64,6.64,0,0,0-.94,2.56v6.89H75.47V346.83h1.59l.18,2.45a4.71,4.71,0,0,1,1.14-2,2.39,2.39,0,0,1,1.69-.69A3.86,3.86,0,0,1,81.12,346.69Z" style="fill:#1d1d1b"/><path d="M90.59,357.17a1.32,1.32,0,0,0,.66.53l-.42,1.47a2.6,2.6,0,0,1-1.33-.53,2.38,2.38,0,0,1-.74-1.28,3.45,3.45,0,0,1-3.16,1.81,3.16,3.16,0,0,1-2.47-1,3.76,3.76,0,0,1-.91-2.63,3.65,3.65,0,0,1,1.22-2.95,5.17,5.17,0,0,1,3.45-1h1.62v-.9a2.57,2.57,0,0,0-.54-1.83,2.28,2.28,0,0,0-1.67-.55,8.5,8.5,0,0,0-2.85.64L83,347.38a9.51,9.51,0,0,1,3.65-.83,3.54,3.54,0,0,1,2.8,1.05,4.29,4.29,0,0,1,.92,3v5.52A2.08,2.08,0,0,0,90.59,357.17Zm-2.08-1.46v-2.77H87.13c-2,0-2.94.83-2.94,2.47a2.53,2.53,0,0,0,.46,1.63,1.69,1.69,0,0,0,1.37.55A2.77,2.77,0,0,0,88.51,355.71Z" style="fill:#1d1d1b"/><path d="M216.6,463.4V456h-5.83v7.39h-1.91V447.63h1.91v6.59h5.83v-6.59h1.91V463.4Z" style="fill:#1d1d1b"/><path d="M231,451.89a5.5,5.5,0,0,1-1.33.3q-.72.06-1.77.06a3.21,3.21,0,0,1,1.87,3.05,4.07,4.07,0,0,1-1.09,2.95,3.87,3.87,0,0,1-2.95,1.15,4,4,0,0,1-1.35-.23,1.18,1.18,0,0,0-.38.49,1.6,1.6,0,0,0-.14.63c0,.66.46,1,1.39,1h1.68a4,4,0,0,1,1.9.44,3.17,3.17,0,0,1,1.72,2.91,3.2,3.2,0,0,1-1.26,2.71,6.14,6.14,0,0,1-3.7.95,7.63,7.63,0,0,1-2.71-.4,2.65,2.65,0,0,1-1.41-1.2,4.43,4.43,0,0,1-.43-2.06h1.67a2.34,2.34,0,0,0,.24,1.15,1.53,1.53,0,0,0,.87.64,5.41,5.41,0,0,0,1.77.22,4.55,4.55,0,0,0,2.38-.47,1.56,1.56,0,0,0,.71-1.41,1.51,1.51,0,0,0-.56-1.28,2.51,2.51,0,0,0-1.57-.43h-1.67a2.88,2.88,0,0,1-2-.66,2.15,2.15,0,0,1-.69-1.63,2.38,2.38,0,0,1,.3-1.15,3.19,3.19,0,0,1,.87-1,3.55,3.55,0,0,1-1.36-1.36,4.17,4.17,0,0,1-.43-2,4.37,4.37,0,0,1,.53-2.18,3.85,3.85,0,0,1,1.47-1.5,4.06,4.06,0,0,1,2.08-.54,11.8,11.8,0,0,0,2.09-.1,6.67,6.67,0,0,0,1.4-.34c.36-.15.82-.36,1.35-.63Zm-7,1.43a3.66,3.66,0,0,0,0,3.94,2,2,0,0,0,1.65.74,2,2,0,0,0,1.66-.72,3.2,3.2,0,0,0,.57-2c0-1.78-.76-2.68-2.27-2.68A1.91,1.91,0,0,0,224,453.32Z" style="fill:#1d1d1b"/><path d="M193,485.56h-6.75a5.09,5.09,0,0,0,.88,2.93,2.42,2.42,0,0,0,2,.94,3.8,3.8,0,0,0,1.41-.25,5.5,5.5,0,0,0,1.34-.8l.81,1.26a5.48,5.48,0,0,1-3.7,1.51,4.08,4.08,0,0,1-3.45-1.65,7.43,7.43,0,0,1-1.23-4.53,9.5,9.5,0,0,1,.53-3.33,5.11,5.11,0,0,1,1.53-2.28,3.54,3.54,0,0,1,2.34-.83,3.74,3.74,0,0,1,3.24,1.58,7.45,7.45,0,0,1,1.12,4.38C193,484.84,193,485.2,193,485.56Zm-1.79-1.69a5,5,0,0,0-.62-2.73,2.11,2.11,0,0,0-1.87-.93c-1.52,0-2.34,1.26-2.47,3.8h5Z" style="fill:#1d1d1b"/><path d="M203.2,479.52a4.05,4.05,0,0,1,.82,2.7v8.65h-1.85v-8.35a3,3,0,0,0-.42-1.81,1.51,1.51,0,0,0-1.25-.53,2.27,2.27,0,0,0-1.49.55,5.45,5.45,0,0,0-1.2,1.58v8.56H196V478.81h1.59l.16,1.78a4.51,4.51,0,0,1,1.39-1.51,3.34,3.34,0,0,1,1.84-.55A2.75,2.75,0,0,1,203.2,479.52Z" style="fill:#1d1d1b"/><path d="M213.08,490.32a3.7,3.7,0,0,1-2.37.83,2.63,2.63,0,0,1-2.1-.88,3.85,3.85,0,0,1-.75-2.56v-7.28H206v-1.62h1.85v-2.73l1.85-.25v3h2.51l-.2,1.62h-2.31v7.19A2.39,2.39,0,0,0,210,489a1.08,1.08,0,0,0,1,.43,2.76,2.76,0,0,0,1.41-.48Z" style="fill:#1d1d1b"/><path d="M220.64,478.67l-.34,2.06a3.43,3.43,0,0,0-.92-.14,1.88,1.88,0,0,0-1.59.83,6.63,6.63,0,0,0-.95,2.56v6.89H215V478.81h1.59l.18,2.45a4.72,4.72,0,0,1,1.15-2,2.36,2.36,0,0,1,1.69-.69A3.84,3.84,0,0,1,220.64,478.67Z" style="fill:#1d1d1b"/><path d="M230.11,489.14a1.37,1.37,0,0,0,.66.54l-.42,1.47a2.65,2.65,0,0,1-1.32-.53,2.39,2.39,0,0,1-.75-1.28,3.45,3.45,0,0,1-3.15,1.81,3.18,3.18,0,0,1-2.48-1,3.8,3.8,0,0,1-.9-2.63,3.68,3.68,0,0,1,1.21-3,5.22,5.22,0,0,1,3.45-1H228v-.89a2.57,2.57,0,0,0-.54-1.83,2.24,2.24,0,0,0-1.67-.55,8.3,8.3,0,0,0-2.86.64l-.46-1.53a9.55,9.55,0,0,1,3.66-.83,3.54,3.54,0,0,1,2.8,1.05,4.34,4.34,0,0,1,.92,3v5.52A2,2,0,0,0,230.11,489.14ZM228,487.69v-2.77h-1.39c-2,0-2.93.82-2.93,2.47a2.48,2.48,0,0,0,.46,1.63,1.71,1.71,0,0,0,1.37.55A2.77,2.77,0,0,0,228,487.69Z" style="fill:#1d1d1b"/><path d="M241.89,474v16.91h-1.63l-.18-1.67a4.1,4.1,0,0,1-1.3,1.43,3.18,3.18,0,0,1-1.75.52,3.31,3.31,0,0,1-2.95-1.7A8.56,8.56,0,0,1,233,484.9a9.87,9.87,0,0,1,.5-3.3,5.13,5.13,0,0,1,1.44-2.25,3.28,3.28,0,0,1,2.22-.82A3.63,3.63,0,0,1,240,480V473.7Zm-3,15.07a4.79,4.79,0,0,0,1.16-1.34v-5.91a4.33,4.33,0,0,0-1.11-1.17,2.34,2.34,0,0,0-1.34-.4,2.08,2.08,0,0,0-1.9,1.16,7.12,7.12,0,0,0-.67,3.48,7.46,7.46,0,0,0,.62,3.48,1.94,1.94,0,0,0,1.79,1.15A2.38,2.38,0,0,0,238.88,489Z" style="fill:#1d1d1b"/><path d="M253.07,489.14a1.37,1.37,0,0,0,.66.54l-.42,1.47a2.72,2.72,0,0,1-1.33-.53,2.45,2.45,0,0,1-.74-1.28,3.45,3.45,0,0,1-3.16,1.81,3.16,3.16,0,0,1-2.47-1,3.8,3.8,0,0,1-.9-2.63,3.68,3.68,0,0,1,1.21-3,5.22,5.22,0,0,1,3.45-1H251v-.89a2.57,2.57,0,0,0-.54-1.83,2.26,2.26,0,0,0-1.67-.55,8.3,8.3,0,0,0-2.86.64l-.46-1.53a9.51,9.51,0,0,1,3.66-.83,3.52,3.52,0,0,1,2.79,1.05,4.29,4.29,0,0,1,.93,3v5.52A2,2,0,0,0,253.07,489.14ZM251,487.69v-2.77h-1.39c-2,0-2.93.82-2.93,2.47a2.48,2.48,0,0,0,.46,1.63,1.7,1.7,0,0,0,1.36.55A2.79,2.79,0,0,0,251,487.69Z" style="fill:#1d1d1b"/><path d="M660.1,423.86v-7.39h-5.83v7.39h-1.91V408.09h1.91v6.59h5.83v-6.59H662v15.77Z" style="fill:#1d1d1b"/><path d="M674.47,412.35a5.32,5.32,0,0,1-1.32.3c-.48,0-1.07.07-1.77.07a3.19,3.19,0,0,1,1.87,3,4.07,4.07,0,0,1-1.09,2.95,3.85,3.85,0,0,1-2.95,1.15,3.94,3.94,0,0,1-1.35-.23,1.18,1.18,0,0,0-.38.49,1.6,1.6,0,0,0-.14.63c0,.66.46,1,1.38,1h1.69a4,4,0,0,1,1.89.44,3.2,3.2,0,0,1,1.28,1.19,3.29,3.29,0,0,1,.45,1.72,3.19,3.19,0,0,1-1.26,2.71,6.14,6.14,0,0,1-3.7.95,7.41,7.41,0,0,1-2.71-.4,2.65,2.65,0,0,1-1.41-1.2,4.31,4.31,0,0,1-.43-2.06h1.67a2.34,2.34,0,0,0,.24,1.15,1.5,1.5,0,0,0,.87.64,5.41,5.41,0,0,0,1.77.22,4.55,4.55,0,0,0,2.38-.47,1.58,1.58,0,0,0,.71-1.41,1.54,1.54,0,0,0-.56-1.28,2.53,2.53,0,0,0-1.57-.43h-1.67a2.92,2.92,0,0,1-2-.65,2.18,2.18,0,0,1-.69-1.64,2.38,2.38,0,0,1,.3-1.15,3.19,3.19,0,0,1,.87-1,3.55,3.55,0,0,1-1.36-1.36,4.17,4.17,0,0,1-.43-2,4.37,4.37,0,0,1,.53-2.18,3.79,3.79,0,0,1,1.47-1.5,4.06,4.06,0,0,1,2.08-.54,11.8,11.8,0,0,0,2.09-.1,6.41,6.41,0,0,0,1.39-.34c.37-.15.83-.36,1.36-.63Zm-7,1.43a3.66,3.66,0,0,0,0,3.94,2,2,0,0,0,1.65.74,2,2,0,0,0,1.66-.72,3.2,3.2,0,0,0,.57-2c0-1.78-.76-2.67-2.27-2.67A1.91,1.91,0,0,0,667.47,413.78Z" style="fill:#1d1d1b"/><path d="M689.67,418.55h-6.75a5.09,5.09,0,0,0,.88,2.93,2.42,2.42,0,0,0,2,.94,3.8,3.8,0,0,0,1.41-.25,5.74,5.74,0,0,0,1.35-.8l.8,1.26a5.41,5.41,0,0,1-3.7,1.51,4.08,4.08,0,0,1-3.45-1.65A7.43,7.43,0,0,1,681,418a9.78,9.78,0,0,1,.53-3.33,5.11,5.11,0,0,1,1.53-2.28,3.54,3.54,0,0,1,2.34-.83,3.74,3.74,0,0,1,3.24,1.58,7.47,7.47,0,0,1,1.12,4.38C689.71,417.83,689.7,418.19,689.67,418.55Zm-1.79-1.69a5,5,0,0,0-.62-2.72,2.09,2.09,0,0,0-1.87-.94c-1.51,0-2.34,1.26-2.47,3.8h5Z" style="fill:#1d1d1b"/><path d="M707.81,423.86h-2.56l-5.63-13.39c.08,1,.15,2,.19,2.92s.08,2,.08,3.24v7.23H698.1V408.09h2.49l5.69,13.42c0-.4-.1-1.1-.16-2.09s-.1-1.9-.1-2.72v-8.61h1.79Z" style="fill:#1d1d1b"/><path d="M719.08,422.14a1.39,1.39,0,0,0,.67.53l-.43,1.47a2.56,2.56,0,0,1-1.32-.53,2.39,2.39,0,0,1-.75-1.28,3.43,3.43,0,0,1-3.15,1.81,3.15,3.15,0,0,1-2.47-1,3.76,3.76,0,0,1-.91-2.63,3.65,3.65,0,0,1,1.22-2.95,5.16,5.16,0,0,1,3.44-1H717v-.89a2.57,2.57,0,0,0-.54-1.83,2.28,2.28,0,0,0-1.67-.55,8.45,8.45,0,0,0-2.85.64l-.47-1.53a9.59,9.59,0,0,1,3.66-.83,3.54,3.54,0,0,1,2.8,1.05,4.34,4.34,0,0,1,.92,3v5.52A2.2,2.2,0,0,0,719.08,422.14ZM717,420.68v-2.77h-1.38c-2,0-2.94.83-2.94,2.47a2.48,2.48,0,0,0,.46,1.63,1.69,1.69,0,0,0,1.37.55A2.77,2.77,0,0,0,717,420.68Z" style="fill:#1d1d1b"/><path d="M657.09,439.34a5.68,5.68,0,0,1,1.64,1L658,441.7a6.12,6.12,0,0,0-1.38-.78,3.7,3.7,0,0,0-1.37-.25,2.21,2.21,0,0,0-1.43.42,1.56,1.56,0,0,0,0,2.3,5.46,5.46,0,0,0,1.78.8,6.05,6.05,0,0,1,2.64,1.37,3.66,3.66,0,0,1-.34,5.11,4.69,4.69,0,0,1-3,.94,5.47,5.47,0,0,1-4-1.58l1-1.28a4.47,4.47,0,0,0,3,1.16,2.56,2.56,0,0,0,1.66-.49,1.62,1.62,0,0,0,.62-1.34,2,2,0,0,0-.22-1,1.92,1.92,0,0,0-.77-.67,9.33,9.33,0,0,0-1.59-.6,5.28,5.28,0,0,1-2.44-1.35,3.16,3.16,0,0,1-.75-2.16,3.07,3.07,0,0,1,.49-1.7,3.25,3.25,0,0,1,1.37-1.19,4.44,4.44,0,0,1,2-.43A5.25,5.25,0,0,1,657.09,439.34Z" style="fill:#1d1d1b"/><path d="M669,449.6a1.32,1.32,0,0,0,.66.54l-.42,1.47a2.63,2.63,0,0,1-1.33-.53,2.45,2.45,0,0,1-.74-1.28,3.45,3.45,0,0,1-3.16,1.81,3.15,3.15,0,0,1-2.47-1,3.8,3.8,0,0,1-.91-2.63,3.68,3.68,0,0,1,1.22-3,5.22,5.22,0,0,1,3.45-1h1.63v-.89a2.57,2.57,0,0,0-.55-1.83,2.24,2.24,0,0,0-1.67-.55,8.55,8.55,0,0,0-2.85.64l-.46-1.53a9.51,9.51,0,0,1,3.66-.83,3.53,3.53,0,0,1,2.79,1.05,4.29,4.29,0,0,1,.93,3v5.52A2,2,0,0,0,669,449.6Zm-2.07-1.45v-2.77h-1.39c-2,0-2.94.83-2.94,2.47a2.48,2.48,0,0,0,.47,1.63,1.67,1.67,0,0,0,1.36.55A2.79,2.79,0,0,0,666.94,448.15Z" style="fill:#1d1d1b"/><path d="M675.1,433l.82,1.76-4.26,2-.56-1.12Zm-.67,6.27v12.06h-1.85V439.27Z" style="fill:#1d1d1b"/><path d="M686.46,434.42v16.91h-1.63l-.18-1.67a4.13,4.13,0,0,1-1.31,1.43,3.07,3.07,0,0,1-1.75.52,3.32,3.32,0,0,1-3-1.7,8.56,8.56,0,0,1-1-4.55,10.13,10.13,0,0,1,.5-3.3,5.14,5.14,0,0,1,1.45-2.25,3.31,3.31,0,0,1,2.21-.82,3.64,3.64,0,0,1,2.86,1.49v-6.32Zm-3,15.07a5,5,0,0,0,1.17-1.34v-5.9a4.12,4.12,0,0,0-1.12-1.18,2.32,2.32,0,0,0-1.34-.4,2.09,2.09,0,0,0-1.9,1.16,7.24,7.24,0,0,0-.67,3.48,7.59,7.59,0,0,0,.62,3.48,2,2,0,0,0,1.79,1.15A2.34,2.34,0,0,0,683.44,449.49Z" style="fill:#1d1d1b"/><path d="M697.63,449.6a1.35,1.35,0,0,0,.67.54l-.43,1.47a2.56,2.56,0,0,1-1.32-.53,2.39,2.39,0,0,1-.75-1.28,3.43,3.43,0,0,1-3.15,1.81,3.18,3.18,0,0,1-2.48-1,3.8,3.8,0,0,1-.9-2.63,3.65,3.65,0,0,1,1.22-3,5.21,5.21,0,0,1,3.44-1h1.63v-.89a2.57,2.57,0,0,0-.54-1.83,2.24,2.24,0,0,0-1.67-.55,8.45,8.45,0,0,0-2.85.64l-.47-1.53a9.59,9.59,0,0,1,3.66-.83,3.54,3.54,0,0,1,2.8,1.05,4.34,4.34,0,0,1,.92,3v5.52A2,2,0,0,0,697.63,449.6Zm-2.07-1.45v-2.77h-1.39c-1.95,0-2.93.83-2.93,2.47a2.48,2.48,0,0,0,.46,1.63,1.69,1.69,0,0,0,1.37.55A2.77,2.77,0,0,0,695.56,448.15Z" style="fill:#1d1d1b"/><path d="M609.1,10.83A6.07,6.07,0,0,1,610.84,12l-1.05,1.39a3.88,3.88,0,0,0-2.67-1.17,3.24,3.24,0,0,0-2.78,1.52,8.56,8.56,0,0,0-1.06,4.85,8.63,8.63,0,0,0,1.05,4.79A3.2,3.2,0,0,0,607.1,25a3.31,3.31,0,0,0,1.55-.34,8,8,0,0,0,1.41-1L611,25a5.31,5.31,0,0,1-1.65,1.26,5.16,5.16,0,0,1-2.31.5,5,5,0,0,1-3-1A6.15,6.15,0,0,1,602,23a12,12,0,0,1-.73-4.43,11.53,11.53,0,0,1,.76-4.43,6.23,6.23,0,0,1,2.07-2.78,4.89,4.89,0,0,1,2.92-.94A5.23,5.23,0,0,1,609.1,10.83Z" style="fill:#1d1d1b"/><path d="M613.81,26.08a2.88,2.88,0,0,1-.6-1.95V9.59l1.85-.25V24.08a1.35,1.35,0,0,0,.15.73.55.55,0,0,0,.51.23,1.52,1.52,0,0,0,.69-.14l.48,1.47a2.76,2.76,0,0,1-1.47.41A2,2,0,0,1,613.81,26.08Z" style="fill:#1d1d1b"/><path d="M626.65,15.86a7.68,7.68,0,0,1,1.24,4.6,8.9,8.9,0,0,1-.57,3.31A4.91,4.91,0,0,1,625.7,26a4.15,4.15,0,0,1-2.54.79,4.06,4.06,0,0,1-3.47-1.69,7.56,7.56,0,0,1-1.25-4.6,9.07,9.07,0,0,1,.56-3.31A4.89,4.89,0,0,1,620.63,15a4.14,4.14,0,0,1,2.55-.79A4,4,0,0,1,626.65,15.86Zm-6.22,4.63c0,3.06.91,4.6,2.73,4.6s2.74-1.54,2.74-4.63-.91-4.6-2.72-4.6S620.43,17.4,620.43,20.49Z" style="fill:#1d1d1b"/><path d="M636.59,14.3l-.34,2.07a3.09,3.09,0,0,0-.93-.14,1.86,1.86,0,0,0-1.58.82,6.53,6.53,0,0,0-1,2.57v6.89h-1.85V14.44h1.59l.18,2.45a4.72,4.72,0,0,1,1.15-2,2.39,2.39,0,0,1,1.69-.68A3.85,3.85,0,0,1,636.59,14.3Z" style="fill:#1d1d1b"/><path d="M646.15,15.86a7.68,7.68,0,0,1,1.24,4.6,8.9,8.9,0,0,1-.57,3.31A4.91,4.91,0,0,1,645.2,26a4.15,4.15,0,0,1-2.54.79,4.06,4.06,0,0,1-3.47-1.69,7.56,7.56,0,0,1-1.25-4.6,9.07,9.07,0,0,1,.56-3.31A4.89,4.89,0,0,1,640.13,15a4.14,4.14,0,0,1,2.55-.79A4,4,0,0,1,646.15,15.86Zm-6.22,4.63c0,3.06.91,4.6,2.73,4.6s2.74-1.54,2.74-4.63-.91-4.6-2.72-4.6S639.93,17.4,639.93,20.49Z" style="fill:#1d1d1b"/><path d="M377.34,116l-1-3.78h-5l-1,3.78h-1.85l4.24-15H375l4.22,15Zm-5.89-16.58-.77-1,2.61-2.4h1.17l2.59,2.4-.74,1-2.44-1.77Zm.33,11.12h4.12l-2-7.87Z" style="fill:#1d1d1b"/><path d="M388.12,105.15a4,4,0,0,1,.77,2.58V116h-1.76v-8a2.81,2.81,0,0,0-.41-1.73,1.4,1.4,0,0,0-1.19-.5,2.13,2.13,0,0,0-1.42.52,5.47,5.47,0,0,0-1.15,1.51V116H381.2V104.48h1.51l.16,1.7a4.21,4.21,0,0,1,1.33-1.44,3.14,3.14,0,0,1,1.76-.53A2.67,2.67,0,0,1,388.12,105.15Z" style="fill:#1d1d1b"/><path d="M399.55,105.83a7.28,7.28,0,0,1,1.18,4.39,8.75,8.75,0,0,1-.53,3.16,4.7,4.7,0,0,1-1.56,2.12,4,4,0,0,1-2.42.75,3.88,3.88,0,0,1-3.32-1.61,7.29,7.29,0,0,1-1.19-4.4,8.52,8.52,0,0,1,.54-3.15,4.7,4.7,0,0,1,1.56-2.12,4,4,0,0,1,2.43-.76A3.85,3.85,0,0,1,399.55,105.83Zm-5.94,4.41q0,4.4,2.61,4.4t2.61-4.42c0-2.92-.86-4.39-2.59-4.39S393.61,107.3,393.61,110.24Z" style="fill:#1d1d1b"/><path d="M411.48,99.84V116h-1.56l-.17-1.59a3.92,3.92,0,0,1-1.25,1.36,2.92,2.92,0,0,1-1.67.49,3.15,3.15,0,0,1-2.81-1.61,8.19,8.19,0,0,1-1-4.35,9.56,9.56,0,0,1,.48-3.15,4.89,4.89,0,0,1,1.38-2.15,3.11,3.11,0,0,1,2.11-.78,3.48,3.48,0,0,1,2.72,1.42v-6Zm-2.88,14.39a4.67,4.67,0,0,0,1.11-1.28v-5.63a4,4,0,0,0-1.06-1.13,2.27,2.27,0,0,0-1.28-.38,2,2,0,0,0-1.81,1.11,6.8,6.8,0,0,0-.64,3.32,7.18,7.18,0,0,0,.59,3.33,1.88,1.88,0,0,0,1.71,1.09A2.2,2.2,0,0,0,408.6,114.23Z" style="fill:#1d1d1b"/><path d="M422.23,105.83a7.28,7.28,0,0,1,1.18,4.39,8.75,8.75,0,0,1-.53,3.16,4.7,4.7,0,0,1-1.56,2.12,4,4,0,0,1-2.42.75,3.85,3.85,0,0,1-3.31-1.61,7.23,7.23,0,0,1-1.2-4.4,8.52,8.52,0,0,1,.54-3.15,4.7,4.7,0,0,1,1.56-2.12,4,4,0,0,1,2.43-.76A3.85,3.85,0,0,1,422.23,105.83Zm-5.93,4.41c0,2.93.86,4.4,2.6,4.4s2.61-1.47,2.61-4.42-.86-4.39-2.59-4.39S416.3,107.3,416.3,110.24Z" style="fill:#1d1d1b"/><path d="M435,98.4a29,29,0,0,0-1.58,3,14.11,14.11,0,0,0-.92,3,22.83,22.83,0,0,0,0,7.85,14.49,14.49,0,0,0,.92,3,27.13,27.13,0,0,0,1.58,3l-1.11.87c-.84-1.37-1.49-2.49-1.95-3.38a15,15,0,0,1-1.15-3.16,19.68,19.68,0,0,1,0-8.55A15.3,15.3,0,0,1,432,100.9c.46-.88,1.11-2,1.95-3.37Z" style="fill:#1d1d1b"/><path d="M441.39,104.65v3.28h2.81v1.66h-2.81v3.26h-1.61v-3.26H437v-1.66h2.78v-3.28Z" style="fill:#1d1d1b"/><path d="M449.21,100.9a15.29,15.29,0,0,1,1.16,3.17,19.68,19.68,0,0,1,0,8.55,15,15,0,0,1-1.16,3.16c-.45.89-1.1,2-1.94,3.38l-1.12-.87a25.74,25.74,0,0,0,1.59-3,15.11,15.11,0,0,0,.92-3,23.51,23.51,0,0,0,0-7.85,14.71,14.71,0,0,0-.92-3,27.44,27.44,0,0,0-1.59-3l1.12-.87C448.11,98.9,448.76,100,449.21,100.9Z" style="fill:#1d1d1b"/></g><text transform="translate(358.61 279.79) scale(0.88 1)" style="font-size:22.891460418701172px;fill:#1d1d1b;font-family:FiraSans-Regular, Fira Sans">Cátodo (-)</text></g></svg>