<svg id="Camada_1" data-name="Camada 1" xmlns="http://www.w3.org/2000/svg" viewBox="0 0 730.27 307.41"><defs><style>.cls-1,.cls-13,.cls-15,.cls-21,.cls-25,.cls-31,.cls-34,.cls-36{font-size:12.05px;}.cls-1,.cls-12,.cls-31,.cls-32,.cls-35,.cls-38,.cls-4{fill:#020200;}.cls-1,.cls-13,.cls-15,.cls-21,.cls-24,.cls-25,.cls-31,.cls-32,.cls-34,.cls-36,.cls-4{font-family:FiraSans-Regular, Fira Sans;}.cls-2,.cls-31{letter-spacing:0.01em;}.cls-15,.cls-3{letter-spacing:-0.01em;}.cls-4{font-size:9.46px;}.cls-5{letter-spacing:-0.02em;}.cls-6{letter-spacing:0.01em;}.cls-7{letter-spacing:-0.01em;}.cls-8{letter-spacing:-0.01em;}.cls-36,.cls-9{letter-spacing:0.02em;}.cls-10,.cls-29{fill:none;}.cls-10{stroke:#020200;stroke-width:0.5px;}.cls-10,.cls-29,.cls-38{stroke-miterlimit:10;}.cls-11{fill:#575756;}.cls-11,.cls-38{stroke:#575756;}.cls-11,.cls-35{fill-rule:evenodd;}.cls-13,.cls-15,.cls-21,.cls-24,.cls-25,.cls-30,.cls-34,.cls-36{fill:#7a40c6;}.cls-14{letter-spacing:-0.01em;}.cls-16{letter-spacing:-0.01em;}.cls-17{letter-spacing:0em;}.cls-18{letter-spacing:0.03em;}.cls-19,.cls-21{letter-spacing:-0.01em;}.cls-20{letter-spacing:0.05em;}.cls-22{letter-spacing:-0.02em;}.cls-23{letter-spacing:0em;}.cls-24{font-size:7.74px;}.cls-25,.cls-28{letter-spacing:0.01em;}.cls-26{letter-spacing:0.02em;}.cls-27{letter-spacing:0.01em;}.cls-29{stroke:#7a40c6;stroke-width:0.75px;}.cls-32{font-size:12.83px;}.cls-33{letter-spacing:-0.01em;}.cls-34{letter-spacing:0.01em;}.cls-37{letter-spacing:0.02em;}.cls-38{stroke-linecap:square;stroke-width:0.51px;}</style></defs><text class="cls-1" transform="translate(27.22 29.83)"><tspan class="cls-2">C</tspan><tspan class="cls-3" x="6.93" y="0">lC</tspan><tspan x="17.03" y="0">H</tspan></text><text class="cls-4" transform="translate(52.66 33.28)">2</text><text class="cls-1" transform="translate(58.17 29.83)"><tspan class="cls-2">C</tspan><tspan class="cls-5" x="6.93" y="0">O</tspan><tspan class="cls-6" x="15.08" y="0">O</tspan><tspan x="23.5" y="0">H</tspan></text><text class="cls-1" transform="translate(160.52 29.83)"><tspan class="cls-2">C</tspan><tspan class="cls-3" x="6.93" y="0">lC</tspan><tspan x="17.03" y="0">H</tspan></text><text class="cls-4" transform="translate(186.22 33.28)">2</text><text class="cls-1" transform="translate(191.49 29.83)"><tspan class="cls-2">C</tspan><tspan class="cls-7" x="6.93" y="0">O</tspan><tspan class="cls-6" x="15.08" y="0">O</tspan><tspan class="cls-3" x="23.5" y="0">N</tspan><tspan x="31.65" y="0">a</tspan></text><text class="cls-1" transform="translate(321.34 28.97)"><tspan class="cls-2">C</tspan><tspan x="6.93" y="0">H</tspan></text><text class="cls-4" transform="translate(336.61 32.42)">2</text><text class="cls-1" transform="translate(341.47 28.97)">(<tspan class="cls-2" x="3.9" y="0">C</tspan><tspan class="cls-8" x="10.83" y="0">N</tspan><tspan x="18.97" y="0">)</tspan><tspan class="cls-2" x="22.88" y="0">C</tspan><tspan class="cls-6" x="29.8" y="0">O</tspan><tspan class="cls-5" x="38.22" y="0">O</tspan><tspan class="cls-9" x="46.38" y="0">N</tspan><tspan x="54.79" y="0">a</tspan></text><line class="cls-10" x1="103.57" y1="26.41" x2="149.54" y2="26.41"/><polygon class="cls-11" points="143.5 24.12 149.53 26.41 143.5 28.71 144.65 26.41 143.5 24.12 143.5 24.12"/><polyline class="cls-12" points="143.5 24.12 149.53 26.41 143.5 28.71 144.65 26.41 143.5 24.12"/><line class="cls-10" x1="241.48" y1="26.13" x2="305.55" y2="26.13"/><polygon class="cls-11" points="299.51 23.83 305.55 26.13 299.51 28.42 300.66 26.13 299.51 23.83 299.51 23.83"/><polyline class="cls-12" points="299.51 23.83 305.55 26.13 299.51 28.42 300.66 26.13 299.51 23.83"/><line class="cls-10" x1="418.75" y1="26.13" x2="506.09" y2="26.13"/><polygon class="cls-11" points="500.06 23.83 506.09 26.13 500.06 28.42 501.21 26.13 500.06 23.83 500.06 23.83"/><polyline class="cls-12" points="500.06 23.83 506.09 26.13 500.06 28.42 501.21 26.13 500.06 23.83"/><text class="cls-13" transform="translate(107.88 18.08)"><tspan class="cls-3">N</tspan><tspan class="cls-14" x="8.14" y="0">a</tspan><tspan class="cls-6" x="14.6" y="0">O</tspan><tspan x="23.02" y="0">H</tspan></text><text class="cls-15" transform="translate(256.42 18.66)">N<tspan class="cls-14" x="8.14" y="0">a</tspan><tspan class="cls-16" x="14.6" y="0">C</tspan><tspan class="cls-17" x="21.26" y="0">N</tspan></text><text class="cls-13" transform="translate(244.93 41.89)">(<tspan class="cls-18" x="3.9" y="0">f</tspan><tspan class="cls-19" x="8.31" y="0">e</tspan><tspan x="14.78" y="0">r</tspan><tspan class="cls-20" x="19.43" y="0">v</tspan><tspan class="cls-19" x="25.92" y="0">endo</tspan><tspan x="53.4" y="0">)</tspan></text><text class="cls-13" transform="translate(330.26 53.67)"><tspan class="cls-3">C</tspan><tspan class="cls-2" x="6.66" y="0">i</tspan><tspan class="cls-14" x="10.24" y="0">anoa</tspan><tspan x="37.05" y="0">c</tspan><tspan class="cls-19" x="42.81" y="0">e</tspan><tspan class="cls-6" x="49.28" y="0">t</tspan><tspan class="cls-14" x="53.71" y="0">a</tspan><tspan class="cls-6" x="60.17" y="0">t</tspan><tspan class="cls-19" x="64.6" y="0">o</tspan><tspan x="71.54" y="0"> </tspan></text><text class="cls-21" transform="translate(344.9 71.81)">de<tspan class="cls-6" x="13.58" y="0"> </tspan><tspan class="cls-22" x="16.85" y="0">s</tspan><tspan x="22.2" y="0">ód</tspan><tspan class="cls-9" x="36.25" y="0">i</tspan><tspan class="cls-23" x="39.82" y="0">o</tspan></text><text class="cls-13" transform="translate(443.05 16.94)">C</text><text class="cls-24" transform="translate(450.32 20.68)">2</text><text class="cls-13" transform="translate(454.11 16.94)">H</text><text class="cls-24" transform="translate(462.73 20.68)">5</text><text class="cls-25" transform="translate(466.16 16.94)">O<tspan class="cls-17" x="8.42" y="0">H</tspan></text><text class="cls-13" transform="translate(444.89 41.65)">H</text><text class="cls-24" transform="translate(453.41 45.49)">2</text><text class="cls-13" transform="translate(457.72 41.75)">SO</text><text class="cls-24" transform="translate(471.21 45.49)">4</text><text class="cls-13" transform="translate(425.08 71.14)">(<tspan class="cls-19" x="3.9" y="0">e</tspan><tspan class="cls-26" x="10.37" y="0">m</tspan><tspan class="cls-6" x="20.98" y="0"> </tspan><tspan class="cls-19" x="24.26" y="0">ben</tspan><tspan class="cls-23" x="44.75" y="0">z</tspan><tspan class="cls-14" x="50.02" y="0">eno</tspan><tspan x="70.39" y="0">)</tspan></text><text class="cls-1" transform="translate(526.2 28.97)"><tspan class="cls-2">C</tspan><tspan x="6.93" y="0">H</tspan></text><text class="cls-4" transform="translate(541.66 32.42)">2</text><text class="cls-1" transform="translate(547.79 28.97)">(<tspan class="cls-2" x="3.9" y="0">C</tspan><tspan class="cls-7" x="10.83" y="0">O</tspan><tspan class="cls-6" x="18.98" y="0">O</tspan><tspan class="cls-23" x="27.4" y="0">C</tspan></text><text class="cls-4" transform="translate(582.4 32.42)">2</text><text class="cls-1" transform="translate(587.84 28.97)">H</text><text class="cls-4" transform="translate(596.75 32.42)">5</text><text class="cls-1" transform="translate(602.22 28.97)">)</text><text class="cls-4" transform="translate(606.53 32.42)">2</text><text class="cls-13" transform="translate(522.76 53.59)">M<tspan class="cls-14" x="9.37" y="0">a</tspan><tspan class="cls-2" x="15.83" y="0">l</tspan><tspan class="cls-19" x="19.54" y="0">ona</tspan><tspan class="cls-27" x="39.9" y="0">t</tspan><tspan class="cls-19" x="44.33" y="0">o</tspan><tspan class="cls-6" x="51.27" y="0"> </tspan><tspan class="cls-19" x="54.55" y="0">de</tspan><tspan class="cls-6" x="68.12" y="0"> </tspan><tspan class="cls-19" x="71.4" y="0">d</tspan><tspan class="cls-9" x="78.51" y="0">i</tspan><tspan class="cls-19" x="82.08" y="0">e</tspan><tspan class="cls-6" x="88.55" y="0">t</tspan><tspan class="cls-9" x="92.98" y="0">il</tspan><tspan x="100.27" y="0">a</tspan></text><text class="cls-13" transform="translate(569.89 71.75)">+</text><text class="cls-15" transform="translate(544.02 88.49)">N<tspan class="cls-17" x="8.14" y="0">H</tspan></text><text class="cls-24" transform="translate(560.5 92.24)">4</text><text class="cls-13" transform="translate(564.83 88.49)"><tspan class="cls-3">N</tspan><tspan class="cls-14" x="8.14" y="0">a</tspan><tspan x="14.6" y="0">SO</tspan></text><text class="cls-24" transform="translate(593.72 92.24)">4</text><text class="cls-13" transform="translate(65.94 140.83)">C</text><text class="cls-24" transform="translate(74.55 144.57)">2</text><text class="cls-13" transform="translate(78.86 140.83)">H</text><text class="cls-24" transform="translate(87.48 144.57)">5</text><text class="cls-13" transform="translate(91.79 140.83)"><tspan class="cls-28">O</tspan><tspan class="cls-8" x="8.42" y="0">N</tspan><tspan x="16.56" y="0">a</tspan></text><polyline class="cls-29" points="629.92 25.84 658.95 25.84 658.95 25.84 658.95 112.75 58.17 112.75 58.17 163.22"/><polygon class="cls-11" points="60.47 157.2 58.17 163.22 55.87 157.2 58.17 158.35 60.47 157.2 60.47 157.2"/><polyline class="cls-30" points="60.47 157.2 58.17 163.22 55.87 157.2 58.17 158.35 60.47 157.2"/><text class="cls-1" transform="translate(33.76 208.81)">C</text><text class="cls-31" transform="translate(54.72 187.88)">C<tspan class="cls-7" x="6.93" y="0">O</tspan><tspan class="cls-6" x="15.08" y="0">O</tspan><tspan class="cls-23" x="23.5" y="0">C</tspan></text><text class="cls-4" transform="translate(85.27 191.33)">2</text><text class="cls-1" transform="translate(90.73 187.88)">H</text><text class="cls-4" transform="translate(99.65 191.33)">5</text><text class="cls-32" transform="translate(10.97 189.42)"><tspan class="cls-33">N</tspan><tspan x="8.68" y="0">a</tspan></text><text class="cls-32" transform="translate(9.75 239.2)">H</text><text class="cls-31" transform="translate(54.44 233.69)">C<tspan class="cls-7" x="6.93" y="0">O</tspan><tspan class="cls-6" x="15.08" y="0">O</tspan><tspan class="cls-23" x="23.5" y="0">C</tspan></text><text class="cls-4" transform="translate(85.27 237.14)">2</text><text class="cls-1" transform="translate(90.73 233.69)">H</text><text class="cls-4" transform="translate(99.64 237.14)">5</text><line class="cls-10" x1="43.52" y1="199.08" x2="53.57" y2="189.04"/><line class="cls-10" x1="32.6" y1="199.36" x2="21.97" y2="189.33"/><line class="cls-10" x1="32.6" y1="209.98" x2="19.67" y2="222.88"/><line class="cls-10" x1="43.52" y1="209.69" x2="57.8" y2="223.3"/><text class="cls-34" transform="translate(12.26 296.69)">+<tspan class="cls-6" x="6.14" y="0"> </tspan><tspan class="cls-19" x="9.42" y="0">100%</tspan><tspan class="cls-6" x="37.64" y="0"> </tspan><tspan class="cls-23" x="40.92" y="0">C</tspan></text><text class="cls-24" transform="translate(60.24 300.43)">2</text><text class="cls-13" transform="translate(64.55 296.69)">H</text><text class="cls-24" transform="translate(73.17 300.43)">5</text><text class="cls-25" transform="translate(77.48 296.69)">O<tspan class="cls-17" x="8.42" y="0">H</tspan></text><text class="cls-13" transform="translate(126.84 197.63)">C</text><text class="cls-24" transform="translate(135.46 201.37)">2</text><text class="cls-13" transform="translate(139.77 197.63)">H</text><text class="cls-24" transform="translate(148.39 201.37)">5</text><text class="cls-13" transform="translate(152.7 197.63)"><tspan class="cls-3">C</tspan><tspan x="6.66" y="0">l</tspan></text><text class="cls-13" transform="translate(125.11 225.43)"><tspan class="cls-19">6</tspan><tspan class="cls-6" x="6.32" y="0">,</tspan><tspan class="cls-14" x="9.3" y="0">8</tspan><tspan class="cls-6" x="15.84" y="0"> </tspan><tspan class="cls-19" x="19.12" y="0">a</tspan><tspan class="cls-27" x="25.57" y="0">t</tspan><tspan x="30.01" y="0">m</tspan></text><line class="cls-10" x1="121.38" y1="206.53" x2="179.7" y2="206.53"/><polygon class="cls-35" points="173.67 204.24 179.7 206.53 173.67 208.83 174.82 206.53 173.67 204.24 173.67 204.24"/><polyline class="cls-12" points="173.67 204.24 179.7 206.53 173.67 208.83 174.82 206.53 173.67 204.24"/><text class="cls-1" transform="translate(224.67 209.39)">C</text><text class="cls-31" transform="translate(245.65 187.89)">C<tspan class="cls-7" x="6.93" y="0">O</tspan><tspan class="cls-6" x="15.08" y="0">O</tspan><tspan class="cls-23" x="23.5" y="0">C</tspan></text><text class="cls-4" transform="translate(278.31 191.34)">2</text><text class="cls-1" transform="translate(283.77 187.89)">H</text><text class="cls-4" transform="translate(292.67 191.34)">5</text><text class="cls-1" transform="translate(188.18 188.17)">H</text><text class="cls-4" transform="translate(197.1 191.62)">5</text><text class="cls-1" transform="translate(202.56 188.17)">C</text><text class="cls-4" transform="translate(211.46 191.62)">2</text><text class="cls-1" transform="translate(201.39 234.04)">H</text><text class="cls-31" transform="translate(244.78 233.63)">C<tspan class="cls-5" x="6.93" y="0">O</tspan><tspan class="cls-6" x="15.08" y="0">O</tspan><tspan class="cls-23" x="23.5" y="0">C</tspan></text><text class="cls-4" transform="translate(277.8 237.09)">2</text><text class="cls-1" transform="translate(283.25 233.63)">H</text><text class="cls-4" transform="translate(292.16 237.09)">5</text><line class="cls-10" x1="234.44" y1="199.65" x2="244.49" y2="189.61"/><line class="cls-10" x1="223.52" y1="199.94" x2="216.62" y2="193.05"/><line class="cls-10" x1="223.52" y1="210.55" x2="211.17" y2="222.88"/><line class="cls-10" x1="234.44" y1="210.55" x2="247.8" y2="223.7"/><text class="cls-13" transform="translate(319.05 197.33)"><tspan class="cls-9">i</tspan><tspan class="cls-6" x="3.58" y="0">. </tspan><tspan x="9.83" y="0">C</tspan></text><text class="cls-24" transform="translate(337.45 201.08)">2</text><text class="cls-13" transform="translate(341.76 197.33)">H</text><text class="cls-24" transform="translate(350.36 201.08)">5</text><text class="cls-13" transform="translate(354.68 197.33)"><tspan class="cls-28">O</tspan><tspan class="cls-8" x="8.42" y="0">N</tspan><tspan x="16.56" y="0">a</tspan></text><text class="cls-36" transform="translate(324.23 225.46)">ii<tspan class="cls-6" x="7.16" y="0">. </tspan><tspan class="cls-23" x="13.41" y="0">C</tspan></text><text class="cls-24" transform="translate(345.49 229.18)">2</text><text class="cls-13" transform="translate(349.8 225.46)">H</text><text class="cls-24" transform="translate(358.42 229.18)">5</text><text class="cls-13" transform="translate(362.73 225.46)"><tspan class="cls-3">C</tspan><tspan x="6.66" y="0">l</tspan></text><text class="cls-13" transform="translate(328.83 244.76)"><tspan class="cls-19">6</tspan><tspan class="cls-6" x="6.32" y="0">,</tspan><tspan class="cls-14" x="9.3" y="0">8</tspan><tspan class="cls-6" x="15.84" y="0"> </tspan><tspan class="cls-19" x="19.12" y="0">a</tspan><tspan class="cls-27" x="25.57" y="0">t</tspan><tspan x="30.01" y="0">m</tspan></text><line class="cls-10" x1="321.92" y1="207.42" x2="388.87" y2="207.42"/><polygon class="cls-11" points="382.83 205.12 388.87 207.42 382.83 209.71 383.98 207.42 382.83 205.12 382.83 205.12"/><polyline class="cls-12" points="382.83 205.12 388.87 207.42 382.83 209.71 383.98 207.42 382.83 205.12"/><text class="cls-13" transform="translate(204.63 260.09)">E<tspan class="cls-6" x="6.44" y="0">t</tspan><tspan class="cls-9" x="10.88" y="0">il</tspan><tspan class="cls-37" x="18.17" y="0">m</tspan><tspan class="cls-14" x="28.78" y="0">a</tspan><tspan class="cls-2" x="35.24" y="0">l</tspan><tspan class="cls-19" x="38.94" y="0">ona</tspan><tspan class="cls-27" x="59.3" y="0">t</tspan><tspan class="cls-19" x="63.74" y="0">o</tspan><tspan x="70.67" y="0"> </tspan></text><text class="cls-13" transform="translate(212.15 278.21)"><tspan class="cls-19">de</tspan><tspan class="cls-6" x="13.58" y="0"> </tspan><tspan class="cls-19" x="16.85" y="0">d</tspan><tspan class="cls-9" x="23.96" y="0">i</tspan><tspan class="cls-19" x="27.54" y="0">e</tspan><tspan class="cls-27" x="34.01" y="0">t</tspan><tspan class="cls-2" x="38.44" y="0">il</tspan><tspan x="45.73" y="0">a</tspan></text><text class="cls-1" transform="translate(435.7 211.12)">C</text><text class="cls-31" transform="translate(456.67 187.37)">C<tspan class="cls-5" x="6.93" y="0">O</tspan><tspan class="cls-6" x="15.08" y="0">O</tspan><tspan class="cls-23" x="23.5" y="0">C</tspan></text><text class="cls-4" transform="translate(493.18 190.82)">2</text><text class="cls-1" transform="translate(498.63 187.37)">H</text><text class="cls-4" transform="translate(507.53 190.82)">5</text><text class="cls-1" transform="translate(397.45 187.66)">H</text><text class="cls-4" transform="translate(406.35 191.11)">5</text><text class="cls-1" transform="translate(411.82 187.66)">C</text><text class="cls-4" transform="translate(420.73 191.11)">2</text><text class="cls-1" transform="translate(396.35 234.16)">H</text><text class="cls-4" transform="translate(405.25 237.61)">5</text><text class="cls-1" transform="translate(410.71 234.16)">C</text><text class="cls-4" transform="translate(419.62 237.61)">2</text><text class="cls-31" transform="translate(457.83 233.48)">C<tspan class="cls-7" x="6.93" y="0">O</tspan><tspan class="cls-6" x="15.08" y="0">O</tspan><tspan class="cls-23" x="23.5" y="0">C</tspan></text><text class="cls-4" transform="translate(494.32 236.93)">2</text><text class="cls-1" transform="translate(499.77 233.48)">H</text><text class="cls-4" transform="translate(508.67 236.93)">5</text><line class="cls-38" x1="445.47" y1="201.37" x2="458.43" y2="189.49"/><line class="cls-38" x1="434.55" y1="201.66" x2="426.22" y2="193.63"/><line class="cls-38" x1="434.55" y1="212.27" x2="423.06" y2="223.74"/><line class="cls-38" x1="445.47" y1="212.27" x2="456.68" y2="223.74"/><text class="cls-13" transform="translate(416.18 260.41)"><tspan class="cls-3">D</tspan><tspan class="cls-2" x="7.67" y="0">i</tspan><tspan class="cls-14" x="11.25" y="0">e</tspan><tspan class="cls-6" x="17.72" y="0">t</tspan><tspan class="cls-9" x="22.15" y="0">il</tspan><tspan class="cls-37" x="29.44" y="0">m</tspan><tspan class="cls-14" x="40.05" y="0">a</tspan><tspan class="cls-2" x="46.51" y="0">l</tspan><tspan class="cls-19" x="50.22" y="0">ona</tspan><tspan class="cls-27" x="70.58" y="0">t</tspan><tspan class="cls-19" x="75.01" y="0">o</tspan><tspan x="81.95" y="0"> </tspan></text><text class="cls-13" transform="translate(431.97 278.57)"><tspan class="cls-19">de</tspan><tspan class="cls-6" x="13.58" y="0"> </tspan><tspan class="cls-19" x="16.85" y="0">d</tspan><tspan class="cls-9" x="23.96" y="0">i</tspan><tspan class="cls-19" x="27.54" y="0">e</tspan><tspan class="cls-27" x="34.01" y="0">t</tspan><tspan class="cls-2" x="38.44" y="0">il</tspan><tspan x="45.73" y="0">a</tspan></text><text class="cls-13" transform="translate(645.19 279.35)">B<tspan class="cls-19" x="7.32" y="0">a</tspan><tspan x="13.78" y="0">r</tspan><tspan class="cls-19" x="18.43" y="0">b</tspan><tspan class="cls-9" x="25.49" y="0">i</tspan><tspan class="cls-6" x="29.07" y="0">t</tspan><tspan class="cls-14" x="33.5" y="0">a</tspan><tspan x="39.96" y="0">l</tspan></text><text class="cls-13" transform="translate(536.26 197.11)"><tspan class="cls-19">u</tspan><tspan x="6.91" y="0">r</tspan><tspan class="cls-14" x="11.56" y="0">é</tspan><tspan class="cls-9" x="18.03" y="0">i</tspan><tspan x="21.61" y="0">a</tspan></text><text class="cls-13" transform="translate(524.49 225.76)">C</text><text class="cls-24" transform="translate(533.1 229.49)">2</text><text class="cls-13" transform="translate(537.41 225.76)">H</text><text class="cls-24" transform="translate(546.04 229.49)">5</text><text class="cls-13" transform="translate(550.35 225.76)"><tspan class="cls-6">O</tspan><tspan class="cls-8" x="8.42" y="0">N</tspan><tspan x="16.56" y="0">a</tspan></text><line class="cls-10" x1="525.63" y1="206.87" x2="583.96" y2="206.87"/><polygon class="cls-11" points="577.92 204.68 583.96 206.97 577.92 209.27 579.07 206.97 577.92 204.68 577.92 204.68"/><polyline class="cls-12" points="577.92 204.68 583.96 206.97 577.92 209.27 579.07 206.97 577.92 204.68"/><text class="cls-1" transform="translate(628.21 210.85)">C</text><text class="cls-1" transform="translate(592.29 189.48)">H</text><text class="cls-4" transform="translate(601.2 192.93)">5</text><text class="cls-1" transform="translate(606.65 189.48)">C</text><text class="cls-4" transform="translate(615.57 192.93)">2</text><text class="cls-1" transform="translate(590.48 230.93)">H</text><text class="cls-4" transform="translate(599.39 234.39)">5</text><text class="cls-1" transform="translate(604.85 230.93)">C</text><text class="cls-4" transform="translate(613.75 234.39)">2</text><text class="cls-1" transform="translate(648.9 230.64)">C</text><text class="cls-1" transform="translate(680.22 189.61)">N</text><text class="cls-1" transform="translate(680.22 176.14)">H</text><text class="cls-1" transform="translate(648.6 172.12)">O</text><text class="cls-1" transform="translate(695.73 211.12)">C</text><text class="cls-1" transform="translate(648.9 252.73)">O</text><text class="cls-1" transform="translate(676.47 230.64)">N</text><text class="cls-1" transform="translate(676.47 244.12)">H</text><text class="cls-1" transform="translate(719.28 211.42)">O</text><line class="cls-38" x1="627.05" y1="200.82" x2="620.87" y2="194.41"/><line class="cls-10" x1="627.05" y1="212.29" x2="617.01" y2="222.55"/><line class="cls-38" x1="637.97" y1="211.72" x2="647.74" y2="221.19"/><polyline class="cls-10" points="637.97 201.11 653.49 185.62 679.06 185.62"/><line class="cls-10" x1="655.5" y1="185.62" x2="655.5" y2="174.15"/><line class="cls-10" x1="651.48" y1="187.44" x2="651.48" y2="174.15"/><line class="cls-38" x1="689.11" y1="191.64" x2="695.72" y2="200.82"/><line class="cls-10" x1="651.48" y1="232.66" x2="651.48" y2="242.41"/><line class="cls-10" x1="655.5" y1="232.66" x2="655.5" y2="242.41"/><line class="cls-38" x1="658.66" y1="226.63" x2="675.32" y2="226.63"/><line class="cls-38" x1="686.24" y1="221.19" x2="694.57" y2="212.87"/><line class="cls-38" x1="705.49" y1="209.14" x2="718.13" y2="209.14"/><line class="cls-38" x1="705.49" y1="205.12" x2="718.13" y2="205.12"/><text class="cls-13" transform="translate(14.01 260.66)">S<tspan class="cls-19" x="6.57" y="0">od</tspan><tspan class="cls-9" x="20.61" y="0">i</tspan><tspan class="cls-19" x="24.19" y="0">o</tspan><tspan class="cls-37" x="31.13" y="0">m</tspan><tspan class="cls-14" x="41.74" y="0">a</tspan><tspan class="cls-2" x="48.2" y="0">l</tspan><tspan class="cls-14" x="51.91" y="0">ona</tspan><tspan class="cls-27" x="72.26" y="0">t</tspan><tspan class="cls-19" x="76.7" y="0">o</tspan><tspan x="83.64" y="0"> </tspan></text><text class="cls-13" transform="translate(27.28 278.79)"><tspan class="cls-19">de</tspan><tspan class="cls-6" x="13.58" y="0"> </tspan><tspan class="cls-19" x="16.85" y="0">d</tspan><tspan class="cls-9" x="23.96" y="0">i</tspan><tspan class="cls-19" x="27.54" y="0">e</tspan><tspan class="cls-27" x="34.01" y="0">t</tspan><tspan class="cls-2" x="38.44" y="0">il</tspan><tspan x="45.73" y="0">a</tspan></text><text class="cls-13" transform="translate(40.94 54.79)">Ác<tspan class="cls-9" x="12.66" y="0">i</tspan><tspan class="cls-19" x="16.24" y="0">do</tspan><tspan x="30.28" y="0"> </tspan></text><text class="cls-13" transform="translate(24.28 71.23)"><tspan class="cls-3">C</tspan><tspan class="cls-2" x="6.66" y="0">l</tspan><tspan class="cls-19" x="10.37" y="0">o</tspan><tspan class="cls-17" x="17.31" y="0">r</tspan><tspan class="cls-19" x="21.96" y="0">oa</tspan><tspan x="35.36" y="0">c</tspan><tspan class="cls-19" x="41.11" y="0">é</tspan><tspan class="cls-27" x="47.58" y="0">t</tspan><tspan class="cls-9" x="52.02" y="0">i</tspan><tspan x="55.59" y="0">co</tspan></text></svg>