<svg id="Camada_1" data-name="Camada 1" xmlns="http://www.w3.org/2000/svg" viewBox="0 0 730.79 362.47"><defs><style>.cls-1,.cls-22{font-size:12.75px;}.cls-1,.cls-7{fill:#7a40c6;}.cls-1,.cls-22,.cls-23,.cls-7{font-family:FiraSans-Regular, Fira Sans;}.cls-2{letter-spacing:-0.01em;}.cls-3{letter-spacing:0.01em;}.cls-4{letter-spacing:0.02em;}.cls-5{letter-spacing:-0.01em;}.cls-6{letter-spacing:0.01em;}.cls-7{font-size:8.2px;}.cls-8{letter-spacing:0em;}.cls-9{letter-spacing:-0.02em;}.cls-10{letter-spacing:-0.01em;}.cls-11{letter-spacing:0.03em;}.cls-12{letter-spacing:0.02em;}.cls-13{letter-spacing:-0.01em;}.cls-14{letter-spacing:0.02em;}.cls-15,.cls-24{fill:none;}.cls-15{stroke:#020200;stroke-width:0.5px;}.cls-15,.cls-20,.cls-24{stroke-miterlimit:10;}.cls-16,.cls-21{fill-rule:evenodd;}.cls-17{letter-spacing:0.01em;}.cls-18{letter-spacing:0em;}.cls-19{letter-spacing:0.02em;}.cls-20,.cls-21{fill:#575756;}.cls-20,.cls-21,.cls-24{stroke:#575756;}.cls-20,.cls-24{stroke-linecap:square;}.cls-20{stroke-width:0.36px;}.cls-23{font-size:10.02px;}.cls-24{stroke-width:0.53px;}.cls-25{letter-spacing:0.03em;}.cls-26{letter-spacing:0.05em;}.cls-27{letter-spacing:0.01em;}.cls-28{letter-spacing:-0.01em;}</style></defs><text class="cls-1" transform="translate(19.42 187.47)">Ac<tspan class="cls-2" x="13.4" y="0">e</tspan><tspan class="cls-3" x="20.25" y="0">t</tspan><tspan class="cls-2" x="24.94" y="0">an</tspan><tspan class="cls-4" x="39.14" y="0">ili</tspan><tspan class="cls-2" x="50.64" y="0">n</tspan><tspan x="58.01" y="0">a</tspan></text><text class="cls-1" transform="translate(111.53 68.51)"><tspan class="cls-5">C</tspan><tspan class="cls-6" x="7.05" y="0">l</tspan><tspan x="10.98" y="0">SO</tspan></text><text class="cls-7" transform="translate(137.56 72.45)">3</text><text class="cls-1" transform="translate(142.13 68.51)">H</text><text class="cls-1" transform="translate(117.2 97.92)">Ác<tspan class="cls-4" x="13.4" y="0">i</tspan><tspan class="cls-2" x="17.19" y="0">d</tspan><tspan class="cls-8" x="24.71" y="0">o</tspan></text><text class="cls-1" transform="translate(89.6 110.57)"><tspan class="cls-5">C</tspan><tspan class="cls-6" x="7.05" y="0">l</tspan><tspan class="cls-2" x="10.98" y="0">o</tspan><tspan x="18.32" y="0">r</tspan><tspan class="cls-2" x="23.24" y="0">o</tspan><tspan class="cls-9" x="30.58" y="0">ss</tspan><tspan class="cls-10" x="41.91" y="0">u</tspan><tspan class="cls-6" x="49.22" y="0">l</tspan><tspan class="cls-11" x="53.15" y="0">f</tspan><tspan class="cls-2" x="57.82" y="0">ôn</tspan><tspan class="cls-4" x="72.53" y="0">i</tspan><tspan class="cls-8" x="76.31" y="0">co</tspan></text><text class="cls-1" transform="translate(105.67 128.34)">(<tspan class="cls-2" x="4.13" y="0">e</tspan><tspan class="cls-12" x="10.98" y="0">x</tspan><tspan x="17.45" y="0">c</tspan><tspan class="cls-2" x="23.55" y="0">e</tspan><tspan class="cls-9" x="30.39" y="0">ss</tspan><tspan class="cls-13" x="41.71" y="0">o</tspan><tspan x="49.06" y="0">)</tspan></text><text class="cls-1" transform="translate(339.98 152.55)"><tspan class="cls-2">2</tspan><tspan x="6.21" y="0">-A</tspan><tspan class="cls-14" x="18.65" y="0">m</tspan><tspan class="cls-6" x="29.88" y="0">i</tspan><tspan class="cls-2" x="33.67" y="0">n</tspan><tspan x="41.04" y="0">o</tspan></text><text class="cls-1" transform="translate(332.71 171.16)"><tspan class="cls-10">1</tspan><tspan class="cls-3" x="5.42" y="0">,</tspan><tspan class="cls-10" x="8.57" y="0">3</tspan><tspan x="14.83" y="0">-</tspan><tspan class="cls-2" x="19.96" y="0">d</tspan><tspan class="cls-6" x="27.49" y="0">i</tspan><tspan class="cls-2" x="31.27" y="0">a</tspan><tspan x="38.11" y="0">z</tspan><tspan class="cls-4" x="43.68" y="0">i</tspan><tspan class="cls-2" x="47.46" y="0">d</tspan><tspan x="54.99" y="0">a</tspan></text><line class="cls-15" x1="412.35" y1="78.87" x2="483.95" y2="78.87"/><polygon class="cls-16" points="480.57 76.44 486.94 78.87 480.57 81.3 481.78 78.87 480.57 76.44 480.57 76.44"/><text class="cls-1" transform="translate(431.15 68.87)"><tspan class="cls-10">á</tspan><tspan class="cls-17" x="6.83" y="0">l</tspan><tspan class="cls-18" x="10.76" y="0">c</tspan><tspan class="cls-13" x="16.85" y="0">a</tspan><tspan class="cls-4" x="23.69" y="0">l</tspan><tspan x="27.61" y="0">i</tspan></text><text class="cls-1" transform="translate(181.65 187.35)">S<tspan class="cls-2" x="6.95" y="0">u</tspan><tspan class="cls-4" x="14.27" y="0">l</tspan><tspan class="cls-11" x="18.19" y="0">f</tspan><tspan class="cls-2" x="22.86" y="0">on</tspan><tspan class="cls-6" x="37.57" y="0">il</tspan><tspan x="45.28" y="0">c</tspan><tspan class="cls-6" x="51.38" y="0">l</tspan><tspan class="cls-2" x="55.3" y="0">o</tspan><tspan x="62.65" y="0">r</tspan><tspan class="cls-2" x="67.57" y="0">e</tspan><tspan class="cls-3" x="74.42" y="0">t</tspan><tspan class="cls-2" x="79.11" y="0">o</tspan><tspan class="cls-3" x="86.45" y="0"> </tspan><tspan class="cls-2" x="89.92" y="0">d</tspan><tspan x="97.44" y="0">e</tspan></text><text class="cls-1" transform="translate(174.39 205.11)"><tspan class="cls-10">p</tspan><tspan class="cls-8" x="7.47" y="0">-</tspan><tspan class="cls-2" x="12.61" y="0">a</tspan><tspan x="19.44" y="0">c</tspan><tspan class="cls-2" x="25.54" y="0">e</tspan><tspan class="cls-3" x="32.38" y="0">t</tspan><tspan class="cls-2" x="37.07" y="0">a</tspan><tspan class="cls-19" x="43.91" y="0">m</tspan><tspan class="cls-4" x="55.14" y="0">i</tspan><tspan class="cls-2" x="58.93" y="0">doben</tspan><tspan x="95.48" y="0">z</tspan><tspan class="cls-2" x="101.05" y="0">en</tspan><tspan class="cls-8" x="115.26" y="0">o</tspan></text><line class="cls-20" x1="92.32" y1="79.13" x2="184.84" y2="79.13"/><polygon class="cls-21" points="178.47 76.71 184.84 79.14 178.47 81.56 179.68 79.14 178.47 76.71 178.47 76.71"/><polyline points="178.47 76.71 184.84 79.14 178.47 81.56 179.68 79.14 178.47 76.71"/><text class="cls-22" transform="translate(52.88 131.34)">N</text><text class="cls-22" transform="translate(61.99 131.34)">H</text><text class="cls-22" transform="translate(32.35 142.61)">C</text><text class="cls-22" transform="translate(7.78 130.74)">O</text><text class="cls-22" transform="translate(31.95 169.29)">C</text><text class="cls-22" transform="translate(39.23 169.29)">H</text><text class="cls-23" transform="translate(48.32 172.93)">3</text><line class="cls-24" x1="58.04" y1="101.9" x2="79.88" y2="89.15"/><line class="cls-24" x1="79.88" y1="63.96" x2="79.88" y2="89.15"/><line class="cls-24" x1="75.63" y1="66.08" x2="75.63" y2="87.03"/><line class="cls-24" x1="36.19" y1="89.46" x2="58.04" y2="101.9"/><line class="cls-24" x1="40.14" y1="86.72" x2="58.34" y2="97.04"/><line class="cls-24" x1="58.04" y1="51.51" x2="79.88" y2="63.96"/><line class="cls-24" x1="36.19" y1="64.26" x2="36.19" y2="89.46"/><line class="cls-24" x1="36.19" y1="64.26" x2="58.04" y2="51.51"/><line class="cls-24" x1="40.14" y1="66.69" x2="58.34" y2="56.37"/><line class="cls-24" x1="58.04" y1="101.9" x2="57.73" y2="120.42"/><line class="cls-24" x1="51.66" y1="130.74" x2="41.96" y2="136.5"/><line class="cls-24" x1="30.43" y1="133.77" x2="20.72" y2="128.31"/><line class="cls-24" x1="30.43" y1="138.63" x2="20.72" y2="133.17"/><line class="cls-24" x1="36.5" y1="146.22" x2="36.5" y2="158.36"/><text class="cls-22" transform="translate(232.48 131.34)">N</text><text class="cls-22" transform="translate(241.57 131.34)">H</text><text class="cls-22" transform="translate(210.63 145.91)">C</text><text class="cls-22" transform="translate(188.49 133.47)">O</text><text class="cls-22" transform="translate(210.93 171.1)">C</text><text class="cls-22" transform="translate(220.03 171.1)">H</text><text class="cls-23" transform="translate(229.13 174.74)">3</text><text class="cls-22" transform="translate(233.07 32.69)">S</text><text class="cls-22" transform="translate(253.71 19.94)">O</text><text class="cls-22" transform="translate(210.02 19.94)">O</text><text class="cls-22" transform="translate(275.85 32.37)"><tspan class="cls-5">C</tspan><tspan x="7.05" y="0">l</tspan></text><line class="cls-24" x1="237.01" y1="103.72" x2="258.86" y2="90.97"/><line class="cls-24" x1="258.86" y1="65.78" x2="258.86" y2="90.97"/><line class="cls-24" x1="254.61" y1="67.9" x2="254.61" y2="88.85"/><line class="cls-24" x1="215.17" y1="91.28" x2="237.01" y2="103.72"/><line class="cls-24" x1="219.12" y1="88.54" x2="237.32" y2="98.86"/><line class="cls-24" x1="237.01" y1="53.33" x2="258.86" y2="65.78"/><line class="cls-24" x1="215.17" y1="66.08" x2="215.17" y2="91.28"/><line class="cls-24" x1="215.17" y1="66.08" x2="237.01" y2="53.33"/><line class="cls-24" x1="219.12" y1="68.51" x2="237.32" y2="58.19"/><line class="cls-24" x1="237.01" y1="103.72" x2="237.32" y2="120.42"/><line class="cls-24" x1="231.25" y1="131.04" x2="220.94" y2="138.02"/><line class="cls-24" x1="209.41" y1="135.59" x2="199.7" y2="130.13"/><line class="cls-24" x1="209.41" y1="140.45" x2="199.7" y2="134.99"/><line class="cls-24" x1="215.48" y1="148.04" x2="215.48" y2="160.18"/><line class="cls-24" x1="237.01" y1="53.33" x2="237.32" y2="34.82"/><line class="cls-24" x1="242.78" y1="24.8" x2="252.48" y2="19.03"/><line class="cls-24" x1="231.86" y1="22.68" x2="221.24" y2="16.6"/><line class="cls-24" x1="231.86" y1="27.53" x2="221.24" y2="21.46"/><line class="cls-24" x1="264.92" y1="19.03" x2="274.63" y2="24.5"/><text class="cls-22" transform="translate(297.24 82.27)">+</text><text class="cls-22" transform="translate(363.82 112.2)">N</text><text class="cls-22" transform="translate(342.28 74.58)">N</text><text class="cls-22" transform="translate(320.14 112.2)">N</text><text class="cls-22" transform="translate(305.58 112.2)">H</text><text class="cls-23" transform="translate(314.68 115.86)">2</text><line class="cls-24" x1="374.13" y1="104.63" x2="390.51" y2="95.53"/><line class="cls-24" x1="390.51" y1="70.33" x2="390.51" y2="95.53"/><line class="cls-24" x1="386.26" y1="72.46" x2="386.26" y2="93.4"/><line class="cls-24" x1="346.83" y1="95.22" x2="362.6" y2="104.63"/><line class="cls-24" x1="350.77" y1="92.49" x2="365.64" y2="101.29"/><line class="cls-24" x1="368.97" y1="57.58" x2="390.51" y2="70.33"/><line class="cls-24" x1="346.83" y1="76.71" x2="346.83" y2="95.22"/><line class="cls-24" x1="352.59" y1="66.69" x2="368.97" y2="57.58"/><line class="cls-24" x1="352.9" y1="71.55" x2="368.97" y2="62.44"/><line class="cls-24" x1="346.83" y1="95.22" x2="330.45" y2="104.63"/><text class="cls-22" transform="translate(530.06 89.43)">N</text><text class="cls-22" transform="translate(539.17 89.43)">H</text><text class="cls-22" transform="translate(520.7 66.99)">C</text><text class="cls-22" transform="translate(529.16 43.61)">C</text><text class="cls-22" transform="translate(535.9 43.61)">H</text><text class="cls-23" transform="translate(544.99 47.26)">3</text><text class="cls-22" transform="translate(492.15 67.59)">O</text><text class="cls-22" transform="translate(631.38 89.14)">S</text><text class="cls-22" transform="translate(643.21 111)">O</text><text class="cls-22" transform="translate(643.21 67.29)">O</text><text class="cls-22" transform="translate(668.7 67.29)">N</text><text class="cls-22" transform="translate(677.8 67.29)">H</text><text class="cls-22" transform="translate(706.32 89.14)">N</text><text class="cls-22" transform="translate(668.7 111)">N</text><line class="cls-15" x1="598.01" y1="106.76" x2="610.44" y2="84.9"/><line class="cls-15" x1="597.7" y1="63.05" x2="610.44" y2="84.9"/><line class="cls-15" x1="595.28" y1="66.99" x2="605.59" y2="85.21"/><line class="cls-15" x1="572.83" y1="106.76" x2="598.01" y2="106.76"/><line class="cls-15" x1="574.95" y1="102.51" x2="595.88" y2="102.51"/><line class="cls-24" x1="572.52" y1="63.05" x2="597.7" y2="63.05"/><line class="cls-15" x1="560.09" y1="84.9" x2="572.83" y2="106.76"/><line class="cls-15" x1="560.09" y1="84.9" x2="572.52" y2="63.05"/><line class="cls-15" x1="564.94" y1="85.21" x2="575.26" y2="66.99"/><line class="cls-15" x1="560.09" y1="84.9" x2="549.47" y2="84.9"/><line class="cls-15" x1="531.27" y1="78.53" x2="526.11" y2="69.72"/><line class="cls-15" x1="525.21" y1="54.54" x2="530.07" y2="45.74"/><line class="cls-15" x1="516.4" y1="60.92" x2="503.36" y2="60.92"/><line class="cls-15" x1="516.4" y1="65.17" x2="503.36" y2="65.17"/><line class="cls-15" x1="610.44" y1="84.9" x2="630.16" y2="84.9"/><line class="cls-24" x1="636.84" y1="91.28" x2="641.99" y2="100.08"/><line class="cls-24" x1="641.08" y1="90.06" x2="646.85" y2="100.08"/><line class="cls-24" x1="639.57" y1="78.22" x2="644.42" y2="69.42"/><line class="cls-24" x1="654.43" y1="63.05" x2="667.47" y2="63.05"/><line class="cls-24" x1="705.09" y1="84.6" x2="685.98" y2="84.9"/><line class="cls-24" x1="677.18" y1="100.08" x2="685.98" y2="84.9"/><line class="cls-24" x1="679.31" y1="104.63" x2="688.71" y2="88.85"/><line class="cls-24" x1="723.9" y1="106.45" x2="714.8" y2="91.28"/><line class="cls-24" x1="719.04" y1="106.76" x2="709.94" y2="91.28"/><line class="cls-24" x1="685.98" y1="128.31" x2="677.18" y2="113.13"/><line class="cls-24" x1="711.16" y1="128.31" x2="723.9" y2="106.45"/><line class="cls-24" x1="711.16" y1="128.31" x2="685.98" y2="128.31"/><line class="cls-24" x1="709.03" y1="124.06" x2="688.1" y2="124.06"/><line class="cls-24" x1="677.18" y1="69.42" x2="685.98" y2="84.9"/><text class="cls-1" transform="translate(581.01 152.7)">Ac<tspan class="cls-10" x="13.4" y="0">e</tspan><tspan class="cls-3" x="20.25" y="0">t</tspan><tspan class="cls-4" x="24.94" y="0">il</tspan><tspan class="cls-9" x="32.65" y="0">s</tspan><tspan class="cls-10" x="38.31" y="0">u</tspan><tspan class="cls-17" x="45.63" y="0">l</tspan><tspan class="cls-25" x="49.55" y="0">f</tspan><tspan class="cls-10" x="54.22" y="0">ad</tspan><tspan class="cls-4" x="68.58" y="0">i</tspan><tspan class="cls-10" x="72.36" y="0">a</tspan><tspan class="cls-18" x="79.2" y="0">z</tspan><tspan class="cls-17" x="84.77" y="0">i</tspan><tspan class="cls-10" x="88.55" y="0">n</tspan><tspan class="cls-18" x="95.92" y="0">a</tspan></text><line class="cls-15" x1="636.53" y1="166.89" x2="636.53" y2="252.18"/><polygon class="cls-16" points="638.96 245.81 636.53 252.18 634.11 245.81 636.53 247.02 638.96 245.81 638.96 245.81"/><text class="cls-1" transform="translate(648.98 197)"><tspan class="cls-25">f</tspan><tspan class="cls-10" x="4.67" y="0">e</tspan><tspan x="11.51" y="0">r</tspan><tspan class="cls-26" x="16.43" y="0">v</tspan><tspan class="cls-10" x="23.3" y="0">e</tspan><tspan x="30.15" y="0">r</tspan><tspan class="cls-27" x="35.07" y="0"> </tspan><tspan x="38.54" y="0">c</tspan><tspan class="cls-10" x="44.63" y="0">o</tspan><tspan x="51.98" y="0">m</tspan></text><text class="cls-1" transform="translate(652.73 214.76)"><tspan class="cls-28">HC</tspan><tspan class="cls-4" x="15.63" y="0">l</tspan><tspan class="cls-3" x="19.56" y="0"> </tspan><tspan class="cls-10" x="23.02" y="0">15</tspan><tspan x="34.73" y="0">%</tspan></text><text class="cls-22" transform="translate(531.58 294.97)">N</text><text class="cls-22" transform="translate(517.02 294.97)">H</text><text class="cls-23" transform="translate(526.12 298.62)">2</text><text class="cls-22" transform="translate(632.9 294.68)">S</text><text class="cls-22" transform="translate(644.73 316.53)">O</text><text class="cls-22" transform="translate(644.73 272.82)">O</text><text class="cls-22" transform="translate(670.21 272.82)">N</text><text class="cls-22" transform="translate(679.31 272.82)">H</text><text class="cls-22" transform="translate(706.61 295.29)">N</text><text class="cls-22" transform="translate(670.21 316.53)">N</text><line class="cls-15" x1="599.52" y1="312.29" x2="611.96" y2="290.43"/><line class="cls-15" x1="599.22" y1="268.57" x2="611.96" y2="290.43"/><line class="cls-15" x1="596.79" y1="272.52" x2="607.11" y2="290.73"/><line class="cls-24" x1="574.35" y1="312.29" x2="599.52" y2="312.29"/><line class="cls-15" x1="576.47" y1="308.04" x2="597.4" y2="308.04"/><line class="cls-15" x1="574.04" y1="268.57" x2="599.22" y2="268.57"/><line class="cls-15" x1="561.6" y1="290.43" x2="574.35" y2="312.29"/><line class="cls-15" x1="561.6" y1="290.43" x2="574.04" y2="268.57"/><line class="cls-15" x1="566.46" y1="290.73" x2="576.77" y2="272.52"/><line class="cls-15" x1="561.6" y1="290.43" x2="541.89" y2="290.43"/><line class="cls-15" x1="611.96" y1="290.43" x2="631.68" y2="290.43"/><line class="cls-15" x1="638.35" y1="296.81" x2="643.51" y2="305.61"/><line class="cls-15" x1="642.6" y1="295.59" x2="648.36" y2="305.61"/><line class="cls-24" x1="641.08" y1="283.75" x2="645.94" y2="274.95"/><line class="cls-15" x1="655.95" y1="268.57" x2="668.99" y2="268.57"/><line class="cls-15" x1="705.39" y1="290.73" x2="687.5" y2="290.43"/><line class="cls-15" x1="678.7" y1="305.61" x2="687.5" y2="290.43"/><line class="cls-15" x1="680.82" y1="310.16" x2="690.23" y2="294.38"/><line class="cls-15" x1="725.42" y1="311.98" x2="715.71" y2="297.41"/><line class="cls-15" x1="720.26" y1="312.29" x2="710.55" y2="297.11"/><line class="cls-15" x1="687.5" y1="333.84" x2="678.7" y2="318.66"/><line class="cls-15" x1="712.67" y1="333.84" x2="725.42" y2="311.98"/><line class="cls-24" x1="712.67" y1="333.84" x2="687.5" y2="333.84"/><line class="cls-15" x1="710.55" y1="329.59" x2="689.62" y2="329.59"/><line class="cls-15" x1="678.7" y1="274.95" x2="687.5" y2="290.43"/><text class="cls-1" transform="translate(613.18 354.6)">S<tspan class="cls-10" x="6.95" y="0">u</tspan><tspan class="cls-17" x="14.27" y="0">l</tspan><tspan class="cls-25" x="18.19" y="0">f</tspan><tspan class="cls-10" x="22.86" y="0">ad</tspan><tspan class="cls-4" x="37.21" y="0">i</tspan><tspan class="cls-10" x="41" y="0">a</tspan><tspan x="47.83" y="0">z</tspan><tspan class="cls-4" x="53.4" y="0">i</tspan><tspan class="cls-10" x="57.19" y="0">n</tspan><tspan x="64.56" y="0">a</tspan></text></svg>