<svg id="Camada_1" data-name="Camada 1" xmlns="http://www.w3.org/2000/svg" viewBox="0 0 729.79 338.4"><defs><style>.cls-1,.cls-18,.cls-24,.cls-26,.cls-35,.cls-40,.cls-43,.cls-44,.cls-45,.cls-5{font-size:11.87px;}.cls-1,.cls-30,.cls-4,.cls-40,.cls-5{fill:#020200;}.cls-1,.cls-18,.cls-21,.cls-24,.cls-26,.cls-35,.cls-4,.cls-40,.cls-43,.cls-44,.cls-45,.cls-5,.cls-9{font-family:FiraSans-Regular, Fira Sans;}.cls-2,.cls-24{letter-spacing:-0.01em;}.cls-3,.cls-35{letter-spacing:0.01em;}.cls-4{font-size:9.33px;}.cls-25,.cls-5{letter-spacing:-0.01em;}.cls-6{letter-spacing:0em;}.cls-32,.cls-42,.cls-7{fill:none;stroke-miterlimit:10;}.cls-7{stroke:#020200;stroke-width:0.5px;}.cls-8{fill:#010000;}.cls-30,.cls-8{fill-rule:evenodd;}.cls-9{font-size:11.9px;}.cls-18,.cls-21,.cls-24,.cls-26,.cls-35,.cls-43,.cls-44,.cls-45,.cls-9{fill:#7a40c6;}.cls-10{letter-spacing:0.01em;}.cls-11{letter-spacing:-0.01em;}.cls-12{letter-spacing:-0.01em;}.cls-13{letter-spacing:0.02em;}.cls-14{letter-spacing:0.01em;}.cls-15{letter-spacing:0em;}.cls-16{letter-spacing:0.01em;}.cls-17{letter-spacing:0.01em;}.cls-19{letter-spacing:-0.01em;}.cls-20{letter-spacing:-0.01em;}.cls-21{font-size:7.63px;}.cls-22,.cls-45{letter-spacing:0.01em;}.cls-23{letter-spacing:0.02em;}.cls-26,.cls-33{letter-spacing:0.01em;}.cls-27{letter-spacing:0.02em;}.cls-28{letter-spacing:-0.02em;}.cls-29,.cls-44{letter-spacing:0.01em;}.cls-31{letter-spacing:-0.01em;}.cls-32{stroke:#575756;stroke-width:0.49px;}.cls-32,.cls-42{stroke-linecap:square;}.cls-34{letter-spacing:0em;}.cls-36{letter-spacing:0.02em;}.cls-37{letter-spacing:0em;}.cls-38,.cls-43{letter-spacing:-0.01em;}.cls-39{letter-spacing:0.01em;}.cls-40{letter-spacing:-0.02em;}.cls-41{letter-spacing:-0.01em;}.cls-42{stroke:#000;stroke-width:0.66px;}</style></defs><text class="cls-1" transform="translate(22.42 70.7)"><tspan class="cls-2">2</tspan><tspan class="cls-3" x="5.78" y="0"> </tspan><tspan x="9.01" y="0">C</tspan></text><text class="cls-4" transform="translate(38.56 74.07)">6</text><text class="cls-1" transform="translate(43.97 70.7)">H</text><text class="cls-4" transform="translate(52.72 74.07)">5</text><text class="cls-5" transform="translate(58.12 70.7)">O<tspan class="cls-6" x="8.04" y="0">H</tspan></text><line class="cls-7" x1="81.9" y1="68.99" x2="131.47" y2="68.99"/><polygon class="cls-8" points="126.93 66.73 132.88 68.99 126.93 71.25 128.07 68.99 126.93 66.73 126.93 66.73"/><text class="cls-9" transform="translate(36.59 97.89)">Ác<tspan class="cls-10" x="12.51" y="0">i</tspan><tspan class="cls-11" x="16.04" y="0">d</tspan><tspan x="23.06" y="0">o</tspan></text><text class="cls-9" transform="translate(7.13 115.6)">c<tspan class="cls-12" x="5.69" y="0">a</tspan><tspan x="12.06" y="0">r</tspan><tspan class="cls-11" x="16.66" y="0">bó</tspan><tspan class="cls-13" x="30.48" y="0">li</tspan><tspan x="37.68" y="0">c</tspan><tspan class="cls-11" x="43.37" y="0">o</tspan><tspan class="cls-14" x="50.22" y="0"> </tspan><tspan class="cls-15" x="53.46" y="0">(</tspan><tspan class="cls-16" x="57.31" y="0">F</tspan><tspan class="cls-11" x="63.25" y="0">eno</tspan><tspan class="cls-17" x="83.37" y="0">l</tspan><tspan class="cls-15" x="87.03" y="0">)</tspan></text><text class="cls-18" transform="translate(84.75 60.81)"><tspan class="cls-2">2</tspan><tspan class="cls-3" x="5.78" y="0"> </tspan><tspan class="cls-19" x="9.01" y="0">N</tspan><tspan class="cls-2" x="17.03" y="0">a</tspan><tspan class="cls-3" x="23.39" y="0">O</tspan><tspan x="31.69" y="0">H</tspan></text><text class="cls-18" transform="translate(232.04 59.96)"><tspan class="cls-20">C</tspan><tspan x="6.56" y="0">O</tspan></text><text class="cls-21" transform="translate(249.88 63.61)">2</text><text class="cls-18" transform="translate(219.86 85.68)"><tspan class="cls-2">100</tspan><tspan class="cls-22" x="18.1" y="0"> </tspan><tspan class="cls-2" x="21.33" y="0">a</tspan><tspan class="cls-3" x="27.69" y="0">t</tspan><tspan class="cls-23" x="32.06" y="0">m</tspan><tspan x="42.52" y="0"> </tspan></text><text class="cls-24" transform="translate(225.25 110.54)">125<tspan class="cls-6" x="16.68" y="0"> </tspan></text><text class="cls-21" transform="translate(248.17 105.16)">o</text><text class="cls-18" transform="translate(252.44 110.54)">C</text><text class="cls-1" transform="translate(144.53 70.97)"><tspan class="cls-2">2</tspan><tspan class="cls-3" x="5.78" y="0"> </tspan><tspan x="9.01" y="0">C</tspan></text><text class="cls-4" transform="translate(161.62 74.34)">6</text><text class="cls-1" transform="translate(167.02 70.97)">H</text><text class="cls-4" transform="translate(175.78 74.34)">5</text><text class="cls-1" transform="translate(181.19 70.97)"><tspan class="cls-25">O</tspan><tspan class="cls-19" x="8.04" y="0">N</tspan><tspan x="16.06" y="0">a</tspan></text><text class="cls-26" transform="translate(148.77 96.13)">F<tspan class="cls-2" x="5.92" y="0">eno</tspan><tspan class="cls-27" x="25.99" y="0">l</tspan><tspan class="cls-2" x="29.65" y="0">a</tspan><tspan class="cls-3" x="36.01" y="0">t</tspan><tspan class="cls-2" x="40.38" y="0">o</tspan><tspan class="cls-6" x="47.22" y="0"> </tspan></text><text class="cls-18" transform="translate(151.31 115.58)"><tspan class="cls-2">de</tspan><tspan class="cls-22" x="13.38" y="0"> </tspan><tspan class="cls-28" x="16.61" y="0">s</tspan><tspan class="cls-2" x="21.88" y="0">ód</tspan><tspan class="cls-27" x="35.72" y="0">i</tspan><tspan x="39.24" y="0">o</tspan></text><text class="cls-18" transform="translate(152.16 131.84)"><tspan class="cls-29">+</tspan><tspan class="cls-22" x="6.05" y="0"> </tspan><tspan class="cls-2" x="9.28" y="0">2</tspan><tspan class="cls-22" x="15.06" y="0"> </tspan><tspan x="18.29" y="0">H</tspan></text><text class="cls-21" transform="translate(181.04 135.5)">2</text><text class="cls-18" transform="translate(185.31 131.84)">O</text><line class="cls-7" x1="217.86" y1="68.14" x2="267.44" y2="68.14"/><polygon class="cls-30" points="263.76 65.88 269.71 68.14 263.76 70.4 264.89 68.14 263.76 65.88 263.76 65.88"/><text class="cls-1" transform="translate(323.54 46.11)"><tspan class="cls-25">O</tspan><tspan class="cls-19" x="8.04" y="0">N</tspan><tspan x="16.06" y="0">a</tspan></text><text class="cls-1" transform="translate(282.45 47.28)">O</text><text class="cls-1" transform="translate(344.2 81.16)"><tspan class="cls-19">N</tspan><tspan class="cls-31" x="8.02" y="0">a</tspan><tspan x="14.39" y="0">O</tspan></text><line class="cls-7" x1="307.94" y1="77.18" x2="328.33" y2="89.05"/><line class="cls-7" x1="307.66" y1="81.71" x2="324.65" y2="91.32"/><polyline class="cls-7" points="307.94 124.1 328.33 112.51 328.33 89.05"/><line class="cls-7" x1="307.66" y1="119.58" x2="324.65" y2="109.97"/><polyline class="cls-7" points="307.94 124.1 287.55 112.51 287.55 89.05 307.94 77.19"/><line class="cls-32" x1="291.51" y1="110.53" x2="291.51" y2="91.03"/><polyline class="cls-7" points="307.94 77.19 307.94 53.73 322.39 45.53"/><line class="cls-7" x1="309.66" y1="52.45" x2="292.93" y2="42.71"/><line class="cls-7" x1="307.59" y1="56.21" x2="292.7" y2="47.47"/><line class="cls-7" x1="328.33" y1="89.05" x2="343.07" y2="80.29"/><text class="cls-18" transform="translate(272.28 144.17)"><tspan class="cls-33">F</tspan><tspan class="cls-2" x="5.92" y="0">en</tspan><tspan class="cls-27" x="19.16" y="0">il</tspan><tspan x="26.34" y="0">c</tspan><tspan class="cls-2" x="32.01" y="0">a</tspan><tspan class="cls-34" x="38.37" y="0">r</tspan><tspan class="cls-2" x="42.96" y="0">bona</tspan><tspan class="cls-3" x="69.97" y="0">t</tspan><tspan class="cls-2" x="74.34" y="0">o</tspan><tspan x="81.18" y="0"> </tspan></text><text class="cls-18" transform="translate(290.87 161.89)"><tspan class="cls-2">de</tspan><tspan class="cls-22" x="13.38" y="0"> </tspan><tspan class="cls-28" x="16.61" y="0">s</tspan><tspan class="cls-2" x="21.88" y="0">ód</tspan><tspan class="cls-27" x="35.72" y="0">i</tspan><tspan x="39.24" y="0">o</tspan></text><text class="cls-18" transform="translate(286.21 179.89)"><tspan class="cls-29">+</tspan><tspan class="cls-22" x="6.05" y="0"> </tspan><tspan x="9.28" y="0">C</tspan></text><text class="cls-21" transform="translate(305.18 183.52)">6</text><text class="cls-18" transform="translate(309.44 179.89)">H</text><text class="cls-21" transform="translate(317.94 183.52)">5</text><text class="cls-35" transform="translate(322.19 179.89)">O<tspan class="cls-6" x="8.3" y="0">H</tspan></text><line class="cls-7" x1="560.61" y1="70.4" x2="610.18" y2="70.4"/><polygon class="cls-30" points="606.11 68.14 612.06 70.4 606.11 72.66 607.24 70.4 606.11 68.14 606.11 68.14"/><text class="cls-18" transform="translate(569.48 62.79)">H</text><text class="cls-21" transform="translate(577.99 66.44)">2</text><text class="cls-18" transform="translate(582.24 62.79)">SO</text><text class="cls-21" transform="translate(595.64 66.44)">4</text><line class="cls-7" x1="385.84" y1="69.27" x2="450.42" y2="69.27"/><polygon class="cls-30" points="445.67 67.01 451.62 69.27 445.67 71.53 446.8 69.27 445.67 67.01 445.67 67.01"/><polygon class="cls-30" points="390.42 67.01 384.47 69.27 390.42 71.53 389.28 69.27 390.42 67.01 390.42 67.01"/><text class="cls-18" transform="translate(393.78 62.22)"><tspan class="cls-22">I</tspan><tspan class="cls-28" x="3.58" y="0">s</tspan><tspan class="cls-31" x="8.85" y="0">ô</tspan><tspan class="cls-36" x="15.69" y="0">m</tspan><tspan class="cls-31" x="26.15" y="0">e</tspan><tspan class="cls-37" x="32.52" y="0">r</tspan><tspan class="cls-31" x="37.1" y="0">o</tspan><tspan x="43.94" y="0">s</tspan></text><text class="cls-18" transform="translate(396.62 85.1)"><tspan class="cls-38">100</tspan><tspan class="cls-39" x="18.1" y="0"> </tspan><tspan class="cls-38" x="21.33" y="0">a</tspan><tspan class="cls-22" x="27.69" y="0">t</tspan><tspan x="32.06" y="0">m</tspan></text><text class="cls-18" transform="translate(400.29 103.33)"><tspan class="cls-38">125</tspan><tspan x="16.68" y="0"> </tspan></text><text class="cls-21" transform="translate(419.9 97.95)">o</text><text class="cls-18" transform="translate(424.14 103.33)">C</text><text class="cls-40" transform="translate(529.75 46.97)">O<tspan class="cls-41" x="8.04" y="0">N</tspan><tspan class="cls-37" x="16.06" y="0">a</tspan></text><text class="cls-1" transform="translate(483.58 41.59)">O</text><text class="cls-1" transform="translate(467.95 81.85)">O</text><text class="cls-1" transform="translate(460.25 81.85)">H</text><line class="cls-7" x1="513.87" y1="82.55" x2="530.87" y2="92.16"/><line class="cls-7" x1="513.87" y1="120.42" x2="530.87" y2="110.82"/><line class="cls-7" x1="493.76" y1="89.9" x2="514.15" y2="78.03"/><polyline class="cls-7" points="493.76 89.9 493.76 113.36 514.15 124.95 534.55 113.36 534.55 89.9 514.15 78.03"/><line class="cls-7" x1="497.72" y1="111.38" x2="497.72" y2="91.88"/><line class="cls-7" x1="514.15" y1="78.03" x2="514.15" y2="54.58"/><line class="cls-7" x1="514.15" y1="54.58" x2="528.6" y2="46.38"/><line class="cls-7" x1="515.29" y1="52.88" x2="494.04" y2="39.03"/><line class="cls-7" x1="513.02" y1="56.27" x2="493.76" y2="43.55"/><line class="cls-7" x1="493.76" y1="89.9" x2="476.48" y2="81.99"/><line class="cls-42" x1="473.42" y1="70.7" x2="474.52" y2="67.39"/><line class="cls-42" x1="475.26" y1="64.98" x2="476.55" y2="61.36"/><line class="cls-42" x1="477.47" y1="58.95" x2="478.76" y2="55.33"/><line class="cls-42" x1="479.5" y1="52.92" x2="480.78" y2="49.3"/><line class="cls-42" x1="481.71" y1="46.89" x2="482.99" y2="43.27"/><text class="cls-18" transform="translate(489.25 143.63)">S<tspan class="cls-31" x="6.47" y="0">a</tspan><tspan class="cls-27" x="12.83" y="0">li</tspan><tspan x="20.01" y="0">c</tspan><tspan class="cls-27" x="25.69" y="0">il</tspan><tspan class="cls-38" x="32.87" y="0">a</tspan><tspan class="cls-22" x="39.23" y="0">t</tspan><tspan class="cls-31" x="43.6" y="0">o</tspan><tspan x="50.43" y="0"> </tspan></text><text class="cls-43" transform="translate(492.92 161.37)">de<tspan class="cls-39" x="13.38" y="0"> </tspan><tspan class="cls-28" x="16.61" y="0">s</tspan><tspan class="cls-31" x="21.88" y="0">ód</tspan><tspan class="cls-27" x="35.72" y="0">i</tspan><tspan class="cls-37" x="39.24" y="0">o</tspan></text><text class="cls-44" transform="translate(483.58 178.06)">+<tspan class="cls-22" x="6.05" y="0"> </tspan><tspan class="cls-37" x="9.28" y="0">C</tspan></text><text class="cls-21" transform="translate(500.49 181.71)">6</text><text class="cls-18" transform="translate(504.76 178.06)">H</text><text class="cls-21" transform="translate(513.24 181.71)">5</text><text class="cls-45" transform="translate(517.49 178.06)">O<tspan class="cls-20" x="8.3" y="0">N</tspan><tspan class="cls-37" x="16.32" y="0">a</tspan></text><text class="cls-1" transform="translate(685.67 23.53)">O</text><text class="cls-1" transform="translate(693.25 23.53)">H</text><text class="cls-1" transform="translate(640.03 18.14)">O</text><text class="cls-1" transform="translate(627.75 59.96)">O</text><text class="cls-1" transform="translate(619.26 59.96)">H</text><line class="cls-7" x1="669.66" y1="57.97" x2="686.66" y2="67.58"/><line class="cls-7" x1="669.66" y1="95.84" x2="686.66" y2="86.23"/><line class="cls-7" x1="649.55" y1="65.32" x2="669.94" y2="53.45"/><polyline class="cls-7" points="649.55 65.32 649.55 88.77 669.94 100.36 690.34 88.77 690.34 65.32 669.94 53.45"/><line class="cls-7" x1="653.52" y1="86.79" x2="653.52" y2="67.29"/><polyline class="cls-7" points="669.94 53.45 669.94 29.99 684.39 21.79"/><line class="cls-7" x1="671.83" y1="28.67" x2="649.83" y2="14.45"/><line class="cls-7" x1="669.74" y1="32.26" x2="649.55" y2="18.97"/><line class="cls-7" x1="649.55" y1="65.32" x2="638.22" y2="58.82"/><text class="cls-18" transform="translate(626.9 116.31)">Ác<tspan class="cls-27" x="12.48" y="0">i</tspan><tspan class="cls-38" x="16" y="0">do</tspan><tspan class="cls-39" x="29.84" y="0"> </tspan><tspan class="cls-28" x="33.07" y="0">s</tspan><tspan class="cls-38" x="38.34" y="0">a</tspan><tspan class="cls-27" x="44.7" y="0">li</tspan><tspan class="cls-37" x="51.88" y="0">c</tspan><tspan class="cls-22" x="57.56" y="0">í</tspan><tspan class="cls-27" x="60.99" y="0">li</tspan><tspan x="68.17" y="0">co</tspan></text><text class="cls-18" transform="translate(641.16 132.57)"><tspan class="cls-29">+</tspan><tspan class="cls-22" x="6.05" y="0"> </tspan><tspan class="cls-20" x="9.28" y="0">N</tspan><tspan x="17.31" y="0">a</tspan></text><text class="cls-21" transform="translate(665.22 135.68)">2</text><text class="cls-18" transform="translate(669.31 132.57)">SO</text><text class="cls-21" transform="translate(682.86 135.68)">4</text><line class="cls-7" x1="667.4" y1="144.67" x2="667.4" y2="193.28"/><polygon class="cls-30" points="669.66 188.07 667.39 194 665.13 188.07 667.39 189.2 669.66 188.07 669.66 188.07"/><text class="cls-1" transform="translate(666.29 226.65)">C</text><text class="cls-1" transform="translate(686.38 214.78)">O</text><text class="cls-1" transform="translate(640.51 209.42)">C</text><text class="cls-1" transform="translate(626.9 209.42)">H</text><text class="cls-4" transform="translate(635.39 212.78)">3</text><text class="cls-1" transform="translate(625.21 261.98)">O</text><text class="cls-1" transform="translate(616.71 261.98)">H</text><line class="cls-7" x1="670.51" y1="250.37" x2="687.51" y2="259.98"/><line class="cls-7" x1="670.51" y1="288.24" x2="687.51" y2="278.63"/><line class="cls-7" x1="650.4" y1="257.72" x2="670.8" y2="245.85"/><polyline class="cls-7" points="650.4 257.72 650.4 281.18 670.79 292.76 691.19 281.18 691.19 257.72 670.79 245.85"/><line class="cls-7" x1="654.37" y1="279.2" x2="654.37" y2="259.7"/><line class="cls-7" x1="670.8" y1="245.85" x2="670.8" y2="228.61"/><line class="cls-7" x1="675.89" y1="221.83" x2="685.24" y2="216.46"/><line class="cls-7" x1="675.89" y1="217.3" x2="685.24" y2="211.65"/><line class="cls-7" x1="665.13" y1="218.72" x2="650.12" y2="208.83"/><line class="cls-7" x1="650.4" y1="257.72" x2="635.67" y2="257.72"/><text class="cls-18" transform="translate(607.99 309.19)">S<tspan class="cls-31" x="6.47" y="0">a</tspan><tspan class="cls-27" x="12.83" y="0">li</tspan><tspan x="20.01" y="0">c</tspan><tspan class="cls-27" x="25.69" y="0">il</tspan><tspan class="cls-38" x="32.87" y="0">a</tspan><tspan class="cls-22" x="39.23" y="0">t</tspan><tspan class="cls-31" x="43.6" y="0">o</tspan><tspan class="cls-39" x="50.43" y="0"> </tspan><tspan class="cls-38" x="53.66" y="0">de</tspan><tspan class="cls-39" x="67.04" y="0"> </tspan><tspan class="cls-36" x="70.27" y="0">m</tspan><tspan class="cls-31" x="80.72" y="0">e</tspan><tspan class="cls-22" x="87.1" y="0">t</tspan><tspan class="cls-27" x="91.47" y="0">il</tspan><tspan x="98.65" y="0">a</tspan></text><text class="cls-18" transform="translate(645.78 326.24)"><tspan class="cls-29">+</tspan><tspan class="cls-22" x="6.05" y="0"> </tspan><tspan x="9.28" y="0">H</tspan></text><text class="cls-21" transform="translate(662.76 329.89)">2</text><text class="cls-18" transform="translate(666.22 326.24)">O</text><text class="cls-18" transform="translate(620.12 169.69)"><tspan class="cls-20">C</tspan><tspan x="6.56" y="0">H</tspan></text><text class="cls-21" transform="translate(637.1 173.32)">3</text><text class="cls-18" transform="translate(641.34 169.69)"><tspan class="cls-22">O</tspan><tspan x="8.3" y="0">H</tspan></text></svg>