<svg id="Camada_1" data-name="Camada 1" xmlns="http://www.w3.org/2000/svg" viewBox="0 0 730.27 85.72"><defs><style>.cls-1,.cls-15,.cls-7{font-size:12.93px;}.cls-1,.cls-15,.cls-4,.cls-7,.cls-9{font-family:FiraSans-Regular, Fira Sans;}.cls-2{letter-spacing:-0.01em;}.cls-3{letter-spacing:0.01em;}.cls-4{font-size:10.16px;}.cls-5{fill:none;stroke:#020200;stroke-miterlimit:10;stroke-width:0.5px;}.cls-6{fill-rule:evenodd;}.cls-7,.cls-9{fill:#7a40c6;}.cls-8{letter-spacing:-0.01em;}.cls-9{font-size:8.31px;}.cls-10{letter-spacing:0.02em;}.cls-11,.cls-15{letter-spacing:0.01em;}.cls-12{letter-spacing:-0.02em;}.cls-13{letter-spacing:0.03em;}.cls-14{letter-spacing:0em;}</style></defs><text class="cls-1" transform="translate(6.29 23.37)"><tspan class="cls-2">3</tspan><tspan class="cls-3" x="6.35" y="0"> </tspan><tspan x="9.86" y="0">C</tspan></text><text class="cls-4" transform="translate(24 27.05)">2</text><text class="cls-1" transform="translate(29.85 23.37)">H</text><text class="cls-4" transform="translate(39.77 27.05)">4</text><line class="cls-5" x1="160.17" y1="19.48" x2="213.96" y2="19.48"/><polygon class="cls-6" points="209.3 16.92 216 19.48 209.3 22.04 210.57 19.48 209.3 16.92 209.3 16.92"/><polygon class="cls-6" points="163.52 16.92 156.82 19.48 163.52 22.04 162.24 19.48 163.52 16.92 163.52 16.92"/><text class="cls-7" transform="translate(7.1 53.53)">E<tspan class="cls-3" x="6.92" y="0">t</tspan><tspan class="cls-8" x="11.67" y="0">an</tspan><tspan x="26.07" y="0">o</tspan></text><text class="cls-7" transform="translate(433.41 12.11)">H</text><text class="cls-9" transform="translate(442.64 16.1)">2</text><text class="cls-7" transform="translate(447.24 12.11)">O</text><text class="cls-1" transform="translate(58.13 23.97)">+</text><text class="cls-7" transform="translate(67.65 53.7)">Ác<tspan class="cls-10" x="13.58" y="0">i</tspan><tspan class="cls-2" x="17.42" y="0">do</tspan><tspan class="cls-11" x="32.49" y="0"> </tspan><tspan class="cls-12" x="36.01" y="0">s</tspan><tspan class="cls-8" x="41.75" y="0">u</tspan><tspan class="cls-10" x="49.17" y="0">l</tspan><tspan class="cls-13" x="53.15" y="0">f</tspan><tspan class="cls-8" x="57.88" y="0">ú</tspan><tspan class="cls-14" x="65.3" y="0">r</tspan><tspan class="cls-10" x="70.29" y="0">i</tspan><tspan x="74.13" y="0">co</tspan></text><text class="cls-7" transform="translate(97.17 75.05)"><tspan class="cls-2">95</tspan><tspan x="13.05" y="0">%</tspan></text><text class="cls-1" transform="translate(644.49 23.83)"><tspan class="cls-2">2</tspan><tspan class="cls-11" x="6.29" y="0"> </tspan><tspan x="9.81" y="0">H</tspan></text><text class="cls-4" transform="translate(662.93 27.52)">2</text><text class="cls-1" transform="translate(668.77 23.83)">SO</text><text class="cls-4" transform="translate(684.03 27.52)">4</text><text class="cls-1" transform="translate(690.6 23.83)">(H</text><text class="cls-4" transform="translate(704.41 27.52)">2</text><text class="cls-15" transform="translate(710.27 23.83)">O<tspan class="cls-14" x="9.03" y="0">)</tspan></text><text class="cls-1" transform="translate(83.32 22.75)"><tspan class="cls-2">2</tspan><tspan class="cls-11" x="6.29" y="0"> </tspan><tspan x="9.81" y="0">H</tspan></text><text class="cls-4" transform="translate(103.61 26.44)">2</text><text class="cls-1" transform="translate(109.45 22.75)">SO</text><text class="cls-4" transform="translate(124.71 26.44)">4</text><text class="cls-1" transform="translate(228.81 22.04)">C</text><text class="cls-4" transform="translate(236.94 25.69)">2</text><text class="cls-1" transform="translate(242.13 22.04)">H</text><text class="cls-4" transform="translate(251.63 25.69)">5</text><text class="cls-15" transform="translate(257.49 22.04)">O<tspan class="cls-14" x="9.03" y="0">SO</tspan></text><text class="cls-4" transform="translate(282.55 25.69)">3</text><text class="cls-1" transform="translate(287.46 22.04)">H</text><text class="cls-1" transform="translate(314.18 23.56)">+</text><text class="cls-1" transform="translate(330.8 22.04)">(C</text><text class="cls-4" transform="translate(342.64 25.69)">2</text><text class="cls-1" transform="translate(348.5 22.04)">H</text><text class="cls-4" transform="translate(358 25.69)">5</text><text class="cls-1" transform="translate(363.85 22.04)">)</text><text class="cls-4" transform="translate(368.45 25.69)">2</text><text class="cls-15" transform="translate(373.73 22.04)">O<tspan class="cls-14" x="9.03" y="0">SO</tspan></text><text class="cls-4" transform="translate(399.1 25.69)">2</text><line class="cls-5" x1="420.55" y1="19.48" x2="474.34" y2="19.48"/><polygon class="cls-6" points="469.69 17.02 476.14 19.48 469.69 21.94 470.92 19.48 469.69 17.02 469.69 17.02"/><text class="cls-1" transform="translate(486.28 22.3)">C</text><text class="cls-4" transform="translate(495.79 25.98)">2</text><text class="cls-1" transform="translate(501.63 22.3)">H</text><text class="cls-4" transform="translate(511.15 25.98)">5</text><text class="cls-1" transform="translate(517.01 22.3)"><tspan class="cls-11">O</tspan><tspan x="9.03" y="0">H</tspan></text><text class="cls-1" transform="translate(543.14 23.53)">+</text><text class="cls-1" transform="translate(560.61 22.3)">(C</text><text class="cls-4" transform="translate(573.33 25.98)">2</text><text class="cls-1" transform="translate(579.19 22.3)">H</text><text class="cls-4" transform="translate(588.7 25.98)">5</text><text class="cls-1" transform="translate(594.56 22.3)">)</text><text class="cls-4" transform="translate(599.14 25.98)">2</text><text class="cls-1" transform="translate(605.02 22.3)">O</text><text class="cls-1" transform="translate(626.73 24.46)">+</text><text class="cls-7" transform="translate(492.72 54.18)">E<tspan class="cls-3" x="6.92" y="0">t</tspan><tspan class="cls-8" x="11.67" y="0">ano</tspan><tspan x="33.51" y="0">l</tspan></text><text class="cls-7" transform="translate(574.48 54.01)">É<tspan class="cls-3" x="6.92" y="0">t</tspan><tspan class="cls-2" x="11.67" y="0">e</tspan><tspan x="18.61" y="0">r</tspan></text></svg>