<svg id="Camada_1" data-name="Camada 1" xmlns="http://www.w3.org/2000/svg" viewBox="0 0 729.73 185.65"><defs><style>.cls-1,.cls-11,.cls-17{font-size:16.75px;}.cls-1,.cls-7{fill:#7a40c6;}.cls-1,.cls-11,.cls-16,.cls-17,.cls-7{font-family:FiraSans-Regular, Fira Sans;}.cls-2{letter-spacing:0.01em;}.cls-3{letter-spacing:-0.01em;}.cls-4{letter-spacing:-0.02em;}.cls-5{letter-spacing:0.01em;}.cls-6{letter-spacing:0em;}.cls-7{font-size:10.77px;}.cls-8{letter-spacing:0.01em;}.cls-9{letter-spacing:0.02em;}.cls-10{letter-spacing:0em;}.cls-12{letter-spacing:-0.01em;}.cls-13,.cls-14{fill:#575756;stroke:#575756;}.cls-13{stroke-linecap:square;stroke-width:0.36px;}.cls-13,.cls-22{stroke-miterlimit:10;}.cls-14{fill-rule:evenodd;}.cls-15,.cls-17{letter-spacing:-0.01em;}.cls-16{font-size:13.16px;}.cls-18{letter-spacing:0em;}.cls-19{letter-spacing:0.02em;}.cls-20{letter-spacing:-0.01em;}.cls-21{letter-spacing:-0.02em;}.cls-22{fill:none;stroke:#020200;stroke-width:0.5px;}.cls-23{letter-spacing:0em;}</style></defs><text class="cls-1" transform="translate(28.19 151.6)">Ác<tspan class="cls-2" x="17.6" y="0">i</tspan><tspan class="cls-3" x="22.58" y="0">d</tspan><tspan x="32.46" y="0">o</tspan></text><text class="cls-1" transform="translate(19.2 174.85)"><tspan class="cls-4">s</tspan><tspan class="cls-3" x="7.44" y="0">a</tspan><tspan class="cls-2" x="16.42" y="0">li</tspan><tspan x="26.55" y="0">c</tspan><tspan class="cls-5" x="34.56" y="0">í</tspan><tspan class="cls-2" x="39.4" y="0">li</tspan><tspan class="cls-6" x="49.53" y="0">co</tspan></text><text class="cls-1" transform="translate(334.95 35.17)">H</text><text class="cls-7" transform="translate(346.91 40.34)">2</text><text class="cls-1" transform="translate(352.89 35.17)">SO</text><text class="cls-7" transform="translate(372.68 40.34)">4</text><text class="cls-1" transform="translate(310.43 69.07)">(c<tspan class="cls-3" x="13.43" y="0">a</tspan><tspan class="cls-8" x="22.41" y="0">t</tspan><tspan class="cls-3" x="28.58" y="0">a</tspan><tspan class="cls-9" x="37.55" y="0">li</tspan><tspan class="cls-4" x="47.69" y="0">s</tspan><tspan class="cls-3" x="55.13" y="0">ado</tspan><tspan class="cls-10" x="83.63" y="0">r)</tspan></text><text class="cls-11" transform="translate(166.12 52.94)">+</text><text class="cls-1" transform="translate(216.41 86.66)">A<tspan class="cls-3" x="9.6" y="0">n</tspan><tspan class="cls-2" x="19.28" y="0">i</tspan><tspan class="cls-12" x="24.25" y="0">d</tspan><tspan x="34.14" y="0">r</tspan><tspan class="cls-2" x="40.6" y="0">i</tspan><tspan class="cls-3" x="45.58" y="0">d</tspan><tspan x="55.46" y="0">o</tspan></text><text class="cls-1" transform="translate(221.21 111.44)"><tspan class="cls-3">a</tspan><tspan x="8.98" y="0">c</tspan><tspan class="cls-3" x="16.98" y="0">é</tspan><tspan class="cls-8" x="25.98" y="0">t</tspan><tspan class="cls-2" x="32.14" y="0">i</tspan><tspan x="37.12" y="0">co</tspan></text><line class="cls-13" x1="312.43" y1="47.53" x2="401.34" y2="47.53"/><polygon class="cls-14" points="392.97 44.34 401.34 47.53 392.97 50.72 394.56 47.53 392.97 44.34 392.97 44.34"/><polyline points="392.97 44.34 401.34 47.53 392.97 50.72 394.56 47.53 392.97 44.34"/><text class="cls-11" transform="translate(652.7 50.64)"><tspan class="cls-15">C</tspan><tspan x="9.26" y="0">H</tspan></text><text class="cls-16" transform="translate(672.31 55.42)">3</text><text class="cls-17" transform="translate(679.88 50.64)">C<tspan class="cls-5" x="9.26" y="0">OO</tspan><tspan class="cls-18" x="32.68" y="0">H</tspan></text><text class="cls-11" transform="translate(616.23 52.64)">+</text><text class="cls-1" transform="translate(487.83 150.81)">Ác<tspan class="cls-19" x="17.6" y="0">i</tspan><tspan class="cls-20" x="22.58" y="0">d</tspan><tspan x="32.46" y="0">o</tspan></text><text class="cls-1" transform="translate(459.14 176.66)"><tspan class="cls-20">a</tspan><tspan class="cls-10" x="8.98" y="0">c</tspan><tspan class="cls-20" x="16.99" y="0">e</tspan><tspan class="cls-5" x="25.98" y="0">t</tspan><tspan class="cls-19" x="32.14" y="0">il</tspan><tspan class="cls-21" x="42.28" y="0">s</tspan><tspan class="cls-20" x="49.72" y="0">a</tspan><tspan class="cls-2" x="58.69" y="0">li</tspan><tspan x="68.83" y="0">c</tspan><tspan class="cls-5" x="76.83" y="0">í</tspan><tspan class="cls-2" x="81.67" y="0">li</tspan><tspan x="91.81" y="0">co</tspan></text><text class="cls-1" transform="translate(669.25 87.06)">Ác<tspan class="cls-19" x="17.6" y="0">i</tspan><tspan class="cls-20" x="22.58" y="0">do</tspan><tspan x="42.11" y="0"> </tspan></text><text class="cls-1" transform="translate(664.07 112.9)"><tspan class="cls-20">a</tspan><tspan class="cls-10" x="8.98" y="0">c</tspan><tspan class="cls-20" x="16.99" y="0">é</tspan><tspan class="cls-5" x="25.98" y="0">t</tspan><tspan class="cls-19" x="32.14" y="0">i</tspan><tspan x="37.12" y="0">co</tspan></text><text class="cls-11" transform="translate(83.99 18.81)">O</text><text class="cls-11" transform="translate(94.66 18.81)">H</text><text class="cls-11" transform="translate(84.78 85.02)">C</text><text class="cls-11" transform="translate(85.31 118.11)">O</text><text class="cls-11" transform="translate(95.97 118.11)">H</text><text class="cls-11" transform="translate(112.69 68.26)">O</text><line class="cls-22" x1="62.06" y1="29.98" x2="62.06" y2="63.09"/><line class="cls-22" x1="56.47" y1="32.78" x2="56.47" y2="60.29"/><line class="cls-22" x1="9.83" y1="59.89" x2="33.75" y2="73.46"/><polyline class="cls-22" points="62.06 29.98 32.95 13.63 4.65 30.38 4.65 63.48 33.75 79.84 62.06 63.09"/><line class="cls-22" x1="9.83" y1="33.97" x2="33.35" y2="20.01"/><line class="cls-22" x1="62.06" y1="29.98" x2="82.39" y2="18.02"/><line class="cls-22" x1="62.06" y1="63.09" x2="83.19" y2="75.05"/><line class="cls-22" x1="91.16" y1="87.81" x2="91.16" y2="103.77"/><line class="cls-22" x1="98.33" y1="78.24" x2="111.09" y2="70.66"/><line class="cls-22" x1="98.33" y1="71.86" x2="111.09" y2="64.28"/><text class="cls-11" transform="translate(206.39 50.71)">(<tspan class="cls-15" x="5.43" y="0">C</tspan><tspan x="14.69" y="0">H</tspan></text><text class="cls-16" transform="translate(232.75 55.5)">3</text><text class="cls-17" transform="translate(240.32 50.71)">C<tspan class="cls-5" x="9.26" y="0">O</tspan><tspan class="cls-23" x="20.97" y="0">)</tspan></text><text class="cls-16" transform="translate(267.97 55.5)">2</text><text class="cls-11" transform="translate(275.54 50.71)">O</text><text class="cls-11" transform="translate(512.18 21.21)">O</text><text class="cls-11" transform="translate(512.97 87.41)">C</text><text class="cls-11" transform="translate(512.57 120.51)">O</text><text class="cls-11" transform="translate(525.73 120.51)">H</text><text class="cls-11" transform="translate(540.89 70.66)">O</text><text class="cls-17" transform="translate(543.68 21.21)">C<tspan class="cls-5" x="9.26" y="0">O</tspan><tspan class="cls-19" x="20.97" y="0">C</tspan><tspan class="cls-18" x="30.6" y="0">H</tspan></text><text class="cls-16" transform="translate(586.61 26)">3</text><line class="cls-22" x1="490.24" y1="32.38" x2="490.24" y2="65.48"/><line class="cls-22" x1="484.66" y1="35.17" x2="484.66" y2="62.69"/><line class="cls-22" x1="438.02" y1="62.29" x2="461.94" y2="75.85"/><polyline class="cls-22" points="490.24 65.48 461.94 82.23 432.83 65.88 432.83 32.78 461.14 16.02 490.24 32.38"/><line class="cls-22" x1="438.02" y1="36.36" x2="461.54" y2="22.41"/><line class="cls-22" x1="490.24" y1="32.38" x2="510.58" y2="20.41"/><line class="cls-22" x1="490.24" y1="65.48" x2="511.38" y2="77.44"/><line class="cls-22" x1="519.35" y1="90.21" x2="519.35" y2="106.16"/><line class="cls-22" x1="526.53" y1="80.63" x2="539.29" y2="73.06"/><line class="cls-22" x1="526.53" y1="74.25" x2="539.29" y2="66.68"/><line class="cls-22" x1="526.92" y1="15.63" x2="542.07" y2="15.63"/></svg>