<?xml version="1.0" encoding="utf-8"?>
<!-- Generator: Adobe Illustrator 26.0.3, SVG Export Plug-In . SVG Version: 6.00 Build 0)  -->
<svg version="1.1" id="Camada_1" xmlns="http://www.w3.org/2000/svg" xmlns:xlink="http://www.w3.org/1999/xlink" x="0px" y="0px"
	 viewBox="0 0 730 641.7" style="enable-background:new 0 0 730 641.7;" xml:space="preserve">
<style type="text/css">
	.st0{fill:#9D9D9C;}
	.st1{fill:#A1F000;}
	.st2{fill:none;stroke:#1D1D1B;stroke-width:0.5;}
	.st3{fill:none;stroke:#1D1D1B;stroke-width:0.5;stroke-dasharray:0.5,0.5;}
	.st4{fill:none;stroke:#1D1D1B;stroke-width:0.5;stroke-dasharray:2.04,2.04;}
	.st5{clip-path:url(#SVGID_00000152942541889913011990000009806614883777535657_);}
	.st6{fill:url(#SVGID_00000183223107699361267520000007653822775203466646_);}
	.st7{clip-path:url(#SVGID_00000036237855090739601930000015187349972079414973_);}
	.st8{fill:url(#SVGID_00000108282196123856126440000000268216860535910066_);}
	.st9{clip-path:url(#SVGID_00000182488190514030047050000003952272343272873106_);}
	.st10{fill:#1D1D1B;}
	.st11{clip-path:url(#SVGID_00000157296172086955448180000016573257105674195368_);}
	.st12{clip-path:url(#SVGID_00000101807331918941529680000007075159813109441196_);}
	.st13{clip-path:url(#SVGID_00000008841944808875211300000017985184611962943632_);}
	.st14{clip-path:url(#SVGID_00000067238371373305854050000018230514928306359430_);}
	.st15{clip-path:url(#SVGID_00000002361035807390468670000008495520285630578085_);}
	.st16{clip-path:url(#SVGID_00000078745715622652108450000005384558664358879409_);}
	.st17{clip-path:url(#SVGID_00000008118667091678695220000015595249392155627138_);}
	.st18{clip-path:url(#SVGID_00000093878101154698098400000007803384266182995848_);}
	.st19{clip-path:url(#SVGID_00000073706591898955945730000000514942705672148910_);}
	.st20{clip-path:url(#SVGID_00000135691699531007467510000000182586128847152571_);}
	.st21{clip-path:url(#SVGID_00000157992298959155352690000006226763921532417674_);}
	.st22{font-family:'FiraSans-Regular';}
	.st23{font-size:21px;}
	.st24{clip-path:url(#SVGID_00000093865439005826876430000018031743018401743260_);}
	.st25{fill:none;stroke:#1D1D1B;stroke-width:0.5;stroke-linecap:round;}
	.st26{clip-path:url(#SVGID_00000119080808783353324170000000262093674157077413_);}
	.st27{clip-path:url(#SVGID_00000066496755285404753740000007031758795287149202_);}
	.st28{clip-path:url(#SVGID_00000105421497834670969560000018344798925057589892_);}
	.st29{font-size:17px;}
	.st30{font-size:14px;}
	.st31{font-size:10px;}
</style>
<polygon class="st0" points="221.9,89.9 221.9,147.3 215.4,147.3 215.4,237 161.3,237 161.3,224.3 197.4,224.3 197.4,121.9 
	214.6,121.9 214.6,89.9 "/>
<polygon class="st0" points="475.2,89.9 475.2,147.3 481.8,147.3 481.8,237 535.8,237 535.8,224.3 499.8,224.3 499.8,121.9 
	482.6,121.9 482.6,89.9 "/>
<polyline class="st0" points="161.3,246.4 215,246.4 215,505.3 265.4,505.3 265.4,575.4 177.7,575.4 177.7,562.3 247.7,562.3 
	247.7,529.5 194.5,529.5 194.5,257.6 161.3,257.6 161.3,244.9 "/>
<polygon class="st0" points="178.1,583.2 178.1,597.9 291.7,597.9 291.7,529.6 403.7,529.6 403.7,597.9 516.7,597.9 516.7,585.3 
	422.2,585.3 422.2,504 274.2,504 274,583.3 "/>
<polygon class="st0" points="516.7,561 516.7,574.4 429.3,574.4 429.3,504 482,504 482,245.1 535.8,245.1 535.8,257.9 501.4,257.9 
	501.4,504 501.4,523.1 501.4,527.7 449.5,527.7 449.5,561 "/>
<polygon class="st0" points="230.5,89.9 240.4,89.9 240.4,135.3 457.2,135.3 457.2,89.9 467.6,89.9 467.6,146.2 230.5,146.2 "/>
<rect x="342.5" y="147.2" class="st1" width="16.4" height="357.8"/>
<polyline class="st2" points="358.9,500.7 358.9,504 355.6,504 "/>
<line class="st3" x1="352.3" y1="504" x2="347.4" y2="504"/>
<polyline class="st2" points="345.8,504 342.5,504 342.5,500.7 "/>
<line class="st4" x1="342.5" y1="494.1" x2="342.5" y2="152.8"/>
<polyline class="st2" points="342.5,149.5 342.5,146.2 345.8,146.2 "/>
<line class="st3" x1="349" y1="146.2" x2="354" y2="146.2"/>
<polyline class="st2" points="355.6,146.2 358.9,146.2 358.9,149.5 "/>
<line class="st4" x1="358.9" y1="156.1" x2="358.9" y2="497.4"/>
<g>
	<defs>
		<rect id="SVGID_1_" x="245.1" y="49.5" width="15.3" height="437"/>
	</defs>
	<clipPath id="SVGID_00000028324043542372146770000017856082031524751006_">
		<use xlink:href="#SVGID_1_"  style="overflow:visible;"/>
	</clipPath>
	<g style="clip-path:url(#SVGID_00000028324043542372146770000017856082031524751006_);">
		
			<linearGradient id="SVGID_00000055667125295841853020000018442442275377946245_" gradientUnits="userSpaceOnUse" x1="-3225.6353" y1="230.4978" x2="-3222.3552" y2="230.4978" gradientTransform="matrix(4.67 0 0 4.67 15300.54 -808.4199)">
			<stop  offset="0" style="stop-color:#6827AB"/>
			<stop  offset="8.000000e-02" style="stop-color:#6A2AAC"/>
			<stop  offset="0.15" style="stop-color:#7135AF"/>
			<stop  offset="0.21" style="stop-color:#7D46B5"/>
			<stop  offset="0.27" style="stop-color:#8D5EBD"/>
			<stop  offset="0.33" style="stop-color:#A27EC8"/>
			<stop  offset="0.39" style="stop-color:#BCA5D4"/>
			<stop  offset="0.44" style="stop-color:#DAD2E3"/>
			<stop  offset="0.47" style="stop-color:#ECECEC"/>
			<stop  offset="0.49" style="stop-color:#E5E2E9"/>
			<stop  offset="0.59" style="stop-color:#BFA9D6"/>
			<stop  offset="0.69" style="stop-color:#A07BC7"/>
			<stop  offset="0.78" style="stop-color:#8856BB"/>
			<stop  offset="0.86" style="stop-color:#763CB2"/>
			<stop  offset="0.94" style="stop-color:#6C2DAD"/>
			<stop  offset="1" style="stop-color:#6827AB"/>
		</linearGradient>
		
			<rect x="245.1" y="49.5" style="fill:url(#SVGID_00000055667125295841853020000018442442275377946245_);" width="15.3" height="437"/>
	</g>
</g>
<rect x="245.1" y="49.5" class="st2" width="15.3" height="437"/>
<g>
	<defs>
		<rect id="SVGID_00000096057407766950436520000009255092687732326847_" x="437" y="49.5" width="15.3" height="437"/>
	</defs>
	<clipPath id="SVGID_00000181795319911781135630000007951668358805058185_">
		<use xlink:href="#SVGID_00000096057407766950436520000009255092687732326847_"  style="overflow:visible;"/>
	</clipPath>
	<g style="clip-path:url(#SVGID_00000181795319911781135630000007951668358805058185_);">
		
			<linearGradient id="SVGID_00000026151083239889096170000001819132890792394886_" gradientUnits="userSpaceOnUse" x1="-3197.0652" y1="230.4978" x2="-3193.7952" y2="230.4978" gradientTransform="matrix(4.67 0 0 4.67 15359.0801 -808.4199)">
			<stop  offset="0" style="stop-color:#E55843"/>
			<stop  offset="0.1" style="stop-color:#E65B46"/>
			<stop  offset="0.17" style="stop-color:#E86350"/>
			<stop  offset="0.24" style="stop-color:#EC7160"/>
			<stop  offset="0.3" style="stop-color:#F18478"/>
			<stop  offset="0.31" style="stop-color:#F2887C"/>
			<stop  offset="0.5" style="stop-color:#EDEDED"/>
			<stop  offset="0.5" style="stop-color:#EDEAEA"/>
			<stop  offset="0.59" style="stop-color:#EABEB8"/>
			<stop  offset="0.68" style="stop-color:#E99A8E"/>
			<stop  offset="0.77" style="stop-color:#E77D6D"/>
			<stop  offset="0.85" style="stop-color:#E66956"/>
			<stop  offset="0.93" style="stop-color:#E55C48"/>
			<stop  offset="1" style="stop-color:#E55843"/>
		</linearGradient>
		
			<rect x="437" y="49.5" style="fill:url(#SVGID_00000026151083239889096170000001819132890792394886_);" width="15.3" height="437"/>
	</g>
</g>
<g>
	<defs>
		<rect id="SVGID_00000005239868254888723610000010416777473561605017_" x="8.1" y="13.3" width="725" height="612.8"/>
	</defs>
	<clipPath id="SVGID_00000181798738195366866910000000041287170908729241_">
		<use xlink:href="#SVGID_00000005239868254888723610000010416777473561605017_"  style="overflow:visible;"/>
	</clipPath>
	<g style="clip-path:url(#SVGID_00000181798738195366866910000000041287170908729241_);">
		<path class="st2" d="M455,24.5c0,5.7-4.6,10.4-10.4,10.4c-5.7,0-10.4-4.6-10.4-10.4s4.6-10.4,10.4-10.4c0,0,0,0,0,0
			C450.3,14.1,455,18.8,455,24.5z M452.3,486.5H437v-437h15.3L452.3,486.5z"/>
	</g>
</g>
<rect x="440.6" y="23.6" class="st10" width="8" height="1.8"/>
<g>
	<defs>
		<rect id="SVGID_00000119825666290635935000000017814894010902017961_" x="8.1" y="13.3" width="725" height="612.8"/>
	</defs>
	<clipPath id="SVGID_00000028321377923849282450000005566684913247637926_">
		<use xlink:href="#SVGID_00000119825666290635935000000017814894010902017961_"  style="overflow:visible;"/>
	</clipPath>
	<g style="clip-path:url(#SVGID_00000028321377923849282450000005566684913247637926_);">
		<circle class="st2" cx="252.8" cy="25.1" r="10.4"/>
	</g>
</g>
<polygon class="st10" points="251.9,25.6 246.7,25.6 246.7,24 251.9,24 251.9,18.9 253.7,18.9 253.7,24 258.8,24 258.8,25.6 
	253.7,25.6 253.7,31.2 251.9,31.2 "/>
<line class="st2" x1="471.9" y1="89.9" x2="471.9" y2="55.3"/>
<g>
	<defs>
		<rect id="SVGID_00000029731911655904847760000009403518333908301963_" x="8.1" y="13.3" width="725" height="612.8"/>
	</defs>
	<clipPath id="SVGID_00000006700574048214847910000012731047593836549264_">
		<use xlink:href="#SVGID_00000029731911655904847760000009403518333908301963_"  style="overflow:visible;"/>
	</clipPath>
	<g style="clip-path:url(#SVGID_00000006700574048214847910000012731047593836549264_);">
		<path class="st10" d="M470.3,51.4c-0.8,2.7-1.6,4.5-2.4,6.6h8.3c-0.9-2.2-1.7-4.4-2.4-6.6c-0.7-2.4-1.3-4.8-1.6-7.2
			C471.6,46.6,471.1,49,470.3,51.4"/>
	</g>
</g>
<line class="st2" x1="230.5" y1="302.7" x2="230.5" y2="268"/>
<g>
	<defs>
		<rect id="SVGID_00000132088362922901795370000015043764795330618282_" x="8.1" y="13.3" width="725" height="612.8"/>
	</defs>
	<clipPath id="SVGID_00000163786336904822801350000016409568287498068118_">
		<use xlink:href="#SVGID_00000132088362922901795370000015043764795330618282_"  style="overflow:visible;"/>
	</clipPath>
	<g style="clip-path:url(#SVGID_00000163786336904822801350000016409568287498068118_);">
		<path class="st10" d="M228.9,264.1c-0.7,2.3-1.5,4.5-2.4,6.6h8.3c-0.9-2.2-1.8-4.4-2.4-6.6c-0.8-2.4-1.3-4.8-1.7-7.2
			C230.2,259.4,229.6,261.8,228.9,264.1"/>
	</g>
</g>
<line class="st2" x1="467.6" y1="259.8" x2="467.6" y2="294.5"/>
<g>
	<defs>
		<rect id="SVGID_00000139256037534811642060000005094856800113571485_" x="8.1" y="13.3" width="725" height="612.8"/>
	</defs>
	<clipPath id="SVGID_00000111188178528269856410000009796109055359665794_">
		<use xlink:href="#SVGID_00000139256037534811642060000005094856800113571485_"  style="overflow:visible;"/>
	</clipPath>
	<g style="clip-path:url(#SVGID_00000111188178528269856410000009796109055359665794_);">
		<path class="st10" d="M469.2,298.4c0.8-2.7,1.6-4.5,2.5-6.6h-8.3c0.9,2.2,1.8,4.4,2.5,6.6c0.7,2.4,1.3,4.8,1.7,7.2
			C467.9,303.2,468.5,300.7,469.2,298.4"/>
	</g>
</g>
<line class="st2" x1="350.7" y1="597.2" x2="350.7" y2="478"/>
<g>
	<defs>
		<rect id="SVGID_00000169551240916065896880000003006153791030084510_" x="8.1" y="13.3" width="725" height="612.8"/>
	</defs>
	<clipPath id="SVGID_00000057139165140962646800000005392712972856119686_">
		<use xlink:href="#SVGID_00000169551240916065896880000003006153791030084510_"  style="overflow:visible;"/>
	</clipPath>
	<g style="clip-path:url(#SVGID_00000057139165140962646800000005392712972856119686_);">
		<path class="st10" d="M349,474.1c-0.8,2.7-1.6,4.5-2.4,6.6h8.3c-0.9-2.2-1.7-4.4-2.4-6.6c-0.8-2.4-1.3-4.8-1.7-7.2
			C350.3,469.4,349.8,471.8,349,474.1"/>
	</g>
</g>
<line class="st2" x1="226.4" y1="89.9" x2="226.4" y2="55.3"/>
<g>
	<defs>
		<rect id="SVGID_00000027601877411799143010000013898520865947743109_" x="8.1" y="13.3" width="725" height="612.8"/>
	</defs>
	<clipPath id="SVGID_00000173122913002025244750000015905509329384286882_">
		<use xlink:href="#SVGID_00000027601877411799143010000013898520865947743109_"  style="overflow:visible;"/>
	</clipPath>
	<g style="clip-path:url(#SVGID_00000173122913002025244750000015905509329384286882_);">
		<path class="st10" d="M224.8,51.4c-0.8,2.7-1.6,4.5-2.4,6.6h8.3c-0.9-2.2-1.7-4.4-2.4-6.6c-0.7-2.4-1.3-4.8-1.7-7.2
			C226.1,46.6,225.5,49,224.8,51.4"/>
	</g>
</g>
<line class="st2" x1="156" y1="241.2" x2="121.3" y2="241.2"/>
<g>
	<defs>
		<rect id="SVGID_00000109741320275955208620000004421922866705602751_" x="8.1" y="13.3" width="725" height="612.8"/>
	</defs>
	<clipPath id="SVGID_00000044173081936131099080000008864881400502972814_">
		<use xlink:href="#SVGID_00000109741320275955208620000004421922866705602751_"  style="overflow:visible;"/>
	</clipPath>
	<g style="clip-path:url(#SVGID_00000044173081936131099080000008864881400502972814_);">
		<path class="st10" d="M117.4,242.9c2.7,0.8,4.5,1.6,6.7,2.4v-8.3c-2.2,0.9-4.4,1.7-6.7,2.4c-2.4,0.7-4.8,1.3-7.2,1.7
			C112.6,241.6,115.1,242.2,117.4,242.9"/>
	</g>
</g>
<line class="st2" x1="326.7" y1="296.8" x2="353" y2="296.8"/>
<g>
	<defs>
		<rect id="SVGID_00000113330963472362455350000017037779099305076922_" x="8.1" y="13.3" width="725" height="612.8"/>
	</defs>
	<clipPath id="SVGID_00000173129648194481877300000014474238437446017460_">
		<use xlink:href="#SVGID_00000113330963472362455350000017037779099305076922_"  style="overflow:visible;"/>
	</clipPath>
	<g style="clip-path:url(#SVGID_00000173129648194481877300000014474238437446017460_);">
		<path class="st10" d="M356.9,295.1c-2.3-0.7-4.5-1.5-6.6-2.5v8.3c2.2-0.9,4.4-1.8,6.6-2.4c2.4-0.8,4.8-1.3,7.2-1.7
			C361.7,296.5,359.2,295.9,356.9,295.1"/>
	</g>
</g>
<line class="st2" x1="538.4" y1="241.2" x2="573.1" y2="241.2"/>
<g>
	<defs>
		<rect id="SVGID_00000024721723390398091350000003833308009400482729_" x="8.1" y="13.3" width="725" height="612.8"/>
	</defs>
	<clipPath id="SVGID_00000165231280093127690970000016494252614107603081_">
		<use xlink:href="#SVGID_00000024721723390398091350000003833308009400482729_"  style="overflow:visible;"/>
	</clipPath>
	<g style="clip-path:url(#SVGID_00000165231280093127690970000016494252614107603081_);">
		<path class="st10" d="M577,239.6c-2.3-0.7-4.5-1.5-6.6-2.4v8.3c2.2-0.9,4.4-1.7,6.6-2.4c2.4-0.7,4.8-1.3,7.2-1.7
			C581.8,240.9,579.4,240.3,577,239.6"/>
	</g>
</g>
<line class="st2" x1="134.3" y1="579.9" x2="168.9" y2="579.9"/>
<g>
	<defs>
		<rect id="SVGID_00000042702405344228066300000008402107107605778589_" x="8.1" y="13.3" width="725" height="612.8"/>
	</defs>
	<clipPath id="SVGID_00000107561693496835334420000001627207459594887343_">
		<use xlink:href="#SVGID_00000042702405344228066300000008402107107605778589_"  style="overflow:visible;"/>
	</clipPath>
	<g style="clip-path:url(#SVGID_00000107561693496835334420000001627207459594887343_);">
		<path class="st10" d="M172.8,578.2c-2.7-0.8-4.5-1.6-6.6-2.4v8.2c2.2-0.9,4.4-1.7,6.6-2.4c2.4-0.8,4.8-1.3,7.2-1.7
			C177.6,579.5,175.2,578.9,172.8,578.2"/>
	</g>
</g>
<line class="st2" x1="557.7" y1="579.9" x2="523" y2="579.9"/>
<g>
	<defs>
		<rect id="SVGID_00000150787993492519589050000014084241238657513640_" x="8.1" y="13.3" width="725" height="612.8"/>
	</defs>
	<clipPath id="SVGID_00000129186136928020343520000004294333123402020491_">
		<use xlink:href="#SVGID_00000150787993492519589050000014084241238657513640_"  style="overflow:visible;"/>
	</clipPath>
	<g style="clip-path:url(#SVGID_00000129186136928020343520000004294333123402020491_);">
		<path class="st10" d="M519.1,581.6c2.7,0.8,4.5,1.6,6.7,2.4v-8.3c-2.2,0.9-4.4,1.8-6.7,2.5c-2.4,0.7-4.8,1.3-7.2,1.7
			C514.3,580.2,516.7,580.8,519.1,581.6"/>
	</g>
</g>
<text transform="matrix(1 0 0 1 9.68 237.34)" class="st10 st22 st23">Salmoura</text>
<text transform="matrix(1 0 0 1 35.68 264.8)" class="st10 st22 st23">diluída</text>
<text transform="matrix(1 0 0 1 31.94 574.5)" class="st10 st22 st23">Salmoura</text>
<text transform="matrix(1 0 0 1 38.82 597.96)" class="st10 st22 st23">saturada</text>
<text transform="matrix(1 0 0 1 566.36 579.51)" class="st10 st22 st23">Soda Cáustica</text>
<text transform="matrix(1 0 0 1 564.72 604.97)" class="st10 st22 st23">diluída</text>
<g>
	<defs>
		<rect id="SVGID_00000067953463313321052570000012605647991398655107_" x="8.1" y="13.3" width="725" height="612.8"/>
	</defs>
	<clipPath id="SVGID_00000133506570267995302560000011687717598413488024_">
		<use xlink:href="#SVGID_00000067953463313321052570000012605647991398655107_"  style="overflow:visible;"/>
	</clipPath>
	<g style="clip-path:url(#SVGID_00000133506570267995302560000011687717598413488024_);">
		<text transform="matrix(1 0 0 1 296.6 625.76)" class="st10 st22 st23">Membrana</text>
	</g>
</g>
<path class="st25" d="M417,87.5l20,30.5 M283.5,44.5l-23.1,28.1"/>
<line class="st2" x1="403.3" y1="374" x2="430.6" y2="339.2"/>
<g>
	<defs>
		<rect id="SVGID_00000049182281947485115960000007564839859938693555_" x="8.1" y="13.3" width="725" height="612.8"/>
	</defs>
	<clipPath id="SVGID_00000109728219340892417160000009161922553952722082_">
		<use xlink:href="#SVGID_00000049182281947485115960000007564839859938693555_"  style="overflow:visible;"/>
	</clipPath>
	<g style="clip-path:url(#SVGID_00000109728219340892417160000009161922553952722082_);">
		<path class="st10" d="M431.6,335.1c-2.3,1.6-4,2.5-6,3.7l6.5,5.1c0.6-2.3,1.3-4.5,2.2-6.7c0.9-2.3,1.9-4.6,3.1-6.7
			C435.6,332.1,433.7,333.7,431.6,335.1"/>
	</g>
</g>
<line class="st2" x1="286.6" y1="391.4" x2="302.4" y2="320.5"/>
<g>
	<defs>
		<rect id="SVGID_00000008133782982565850660000012014452739704402304_" x="8.1" y="13.3" width="725" height="612.8"/>
	</defs>
	<clipPath id="SVGID_00000091721562656054740450000011225938333921225364_">
		<use xlink:href="#SVGID_00000008133782982565850660000012014452739704402304_"  style="overflow:visible;"/>
	</clipPath>
	<g style="clip-path:url(#SVGID_00000091721562656054740450000011225938333921225364_);">
		<path class="st10" d="M301.6,316.4c-1.2,2-2.5,4-3.8,6l8.1,1.8c-0.4-2.3-0.8-4.7-0.9-7c-0.2-2.5-0.2-5-0.1-7.4
			C303.9,312,302.9,314.2,301.6,316.4"/>
	</g>
</g>
<line class="st2" x1="437.3" y1="323.2" x2="419.3" y2="283.7"/>
<g>
	<defs>
		<rect id="SVGID_00000119819471178741971580000003345869964104262300_" x="8.1" y="13.3" width="725" height="612.8"/>
	</defs>
	<clipPath id="SVGID_00000089534878611893605360000006826894665908867241_">
		<use xlink:href="#SVGID_00000119819471178741971580000003345869964104262300_"  style="overflow:visible;"/>
	</clipPath>
	<g style="clip-path:url(#SVGID_00000089534878611893605360000006826894665908867241_);">
		<path class="st10" d="M416.1,280.9c0.4,2.8,0.4,4.7,0.5,7.1l7.5-3.4c-1.8-1.6-3.4-3.2-5-5c-1.7-1.8-3.2-3.8-4.5-5.9
			C415.3,276,415.8,278.5,416.1,280.9"/>
		<path class="st2" d="M390.8,284.2c2.5-9.4,1.9-19.4-1.9-28.3"/>
		<path class="st10" d="M385.8,253c0.2,2.3,0.4,4.7,0.4,7.1l7.6-3.2c-1.7-1.6-3.3-3.3-4.9-5.1c-1.6-1.9-3.1-3.9-4.4-6
			C385.2,248.1,385.6,250.5,385.8,253"/>
		<path class="st2" d="M437.3,329.3c-7.8-5.9-17.3-9-27-8.8"/>
		<path class="st10" d="M406.5,322.3c2.3,0.7,4.5,1.4,6.7,2.3l-0.2-8.3c-2.1,1-4.3,1.8-6.6,2.6c-2.3,0.8-4.8,1.4-7.2,1.8
			C401.6,321.1,404.1,321.6,406.5,322.3"/>
		<path class="st2" d="M286.6,391.4c0,0,6-20,0-33.1"/>
		<path class="st10" d="M283.5,355.4c0.4,2.8,0.4,4.7,0.5,7.1l7.5-3.4c-1.8-1.6-3.4-3.2-5-5c-1.7-1.8-3.2-3.8-4.5-5.9
			C282.7,350.6,283.2,353,283.5,355.4"/>
		<path class="st2" d="M281.6,324.5c0,0-1.9-20.8-12.2-30.8"/>
		<path class="st10" d="M265.4,292.2c1.1,2.1,2.2,4.2,3.1,6.4l5.7-6c-2.2-0.8-4.4-1.8-6.5-2.8c-2.2-1.1-4.4-2.4-6.4-3.8
			C262.8,287.9,264.2,290,265.4,292.2"/>
		<path class="st2" d="M260.1,285c0,0,16.4-7.4,18.5-23"/>
		<path class="st10" d="M277.4,258c-1.2,2.6-2.1,4.2-3.3,6.3l8.2,1.1c-0.6-2.3-1.2-4.6-1.6-6.9c-0.4-2.5-0.7-4.9-0.8-7.4
			C279.3,253.4,278.4,255.7,277.4,258"/>
		<path class="st2" d="M394.6,312.4c0,0,19.4-27.7,6.7-57.3"/>
		<path class="st10" d="M398.2,252.2c0.2,2.3,0.4,4.7,0.4,7.1l7.6-3.2c-1.7-1.6-3.3-3.3-4.9-5.1c-1.6-1.9-3.1-3.9-4.4-6
			C397.5,247.3,398,249.7,398.2,252.2"/>
	</g>
</g>
<text transform="matrix(1 0 0 1 266.4 411.93)" class="st10 st22 st29">NaCl</text>
<text transform="matrix(1 0 0 1 268.58 344.33)" class="st10 st22 st29">Cl</text>
<text transform="matrix(1 0 0 1 283.88 337.79)" class="st10 st22 st29">-</text>
<text transform="matrix(1 0 0 1 294.72 300.09)" class="st10 st22 st29">Na</text>
<text transform="matrix(1 0 0 1 316.21 293.55)" class="st10 st22 st30">+</text>
<text transform="matrix(1 0 0 1 370.43 299.69)" class="st10 st22 st29">Na</text>
<text transform="matrix(1 0 0 1 391.92 293.14)" class="st10 st22 st30">+</text>
<text transform="matrix(1 0 0 1 372.63 335.24)" class="st10 st22 st29">OH</text>
<text transform="matrix(1 0 0 1 410.38 270.04)" class="st10 st22 st29">H</text>
<text transform="matrix(1 0 0 1 422.4 273.59)" class="st10 st22 st31">2</text>
<text transform="matrix(1 0 0 1 374.71 238.55)" class="st10 st22 st29">NaOH</text>
<text transform="matrix(1 0 0 1 268.27 238.24)" class="st10 st22 st29">Cl</text>
<text transform="matrix(1 0 0 1 283.56 241.79)" class="st10 st22 st31">2</text>
<text transform="matrix(1 0 0 1 371.68 394.99)" class="st10 st22 st29">H</text>
<text transform="matrix(1 0 0 1 383.69 398.54)" class="st10 st22 st31">2</text>
<text transform="matrix(1 0 0 1 389.42 394.99)" class="st10 st22 st29">O</text>
<text transform="matrix(1 0 0 1 461.9 323.17)" class="st10 st22 st29">e</text>
<text transform="matrix(1 0 0 1 226.16 323.17)" class="st10 st22 st29">e</text>
<text transform="matrix(1 0 0 1 591.78 247.73)" class="st10 st22 st23">Soda Cáustica</text>
<text transform="matrix(1 0 0 1 467.08 34.6)" class="st10 st22 st23">Hidrogênio</text>
<text transform="matrix(1 0 0 1 345.56 79.69)" class="st10 st22 st23">Cátodo</text>
<text transform="matrix(1 0 0 1 286.48 41.7)" class="st10 st22 st23">Ânodo</text>
<text transform="matrix(1 0 0 1 185.02 34.86)" class="st10 st22 st23">Cloro</text>
</svg>
