<?xml version="1.0" encoding="utf-8"?>
<!-- Generator: Adobe Illustrator 26.0.3, SVG Export Plug-In . SVG Version: 6.00 Build 0)  -->
<svg version="1.1" id="Camada_1" xmlns="http://www.w3.org/2000/svg" xmlns:xlink="http://www.w3.org/1999/xlink" x="0px" y="0px"
	 viewBox="0 0 730 529.9" style="enable-background:new 0 0 730 529.9;" xml:space="preserve">
<style type="text/css">
	.st0{fill:none;stroke:#9D9D9C;stroke-width:0.5;}
	.st1{fill:none;stroke:#1D1D1B;stroke-width:0.5;}
	.st2{fill:#1D1D1B;}
	.st3{font-family:'ArialMT';}
	.st4{font-size:16.16px;}
	.st5{font-family:'FiraSans-Regular';}
	.st6{font-size:14.91px;}
	.st7{fill:none;stroke:#E55843;stroke-width:2;stroke-miterlimit:10;}
	.st8{fill:none;stroke:#40CC67;stroke-width:2;stroke-linecap:round;}
	.st9{fill:none;stroke:#6827AB;stroke-width:2;stroke-miterlimit:10;}
	.st10{clip-path:url(#SVGID_00000109738345897391905170000018283785581114131633_);}
	.st11{fill:none;stroke:#40CC67;stroke-linecap:round;}
	.st12{fill:none;stroke:#E55843;stroke-miterlimit:10;}
	.st13{fill:none;stroke:#6827AB;stroke-miterlimit:10;}
	.st14{fill:#6827A7;}
	.st15{font-family:'FiraSans-Medium';}
	.st16{font-size:22.44px;}
	.st17{font-family:'FiraSans-Light';}
	.st18{font-size:22.9px;}
	.st19{font-size:13.09px;}
	.st20{font-size:17.76px;}
	.st21{letter-spacing:-1;}
	.st22{font-size:15.89px;}
</style>
<line class="st0" x1="114.4" y1="145.9" x2="688.1" y2="145.9"/>
<line class="st1" x1="109.3" y1="110.6" x2="688.1" y2="110.6"/>
<path class="st0" d="M114.4,393h573.7 M114.4,357.7h573.7 M114.4,322.4h573.7 M114.4,287.1h573.7 M114.4,251.8h573.7 M114.4,216.5
	h573.7 M114.4,181.2h573.7"/>
<line class="st1" x1="109.3" y1="428.3" x2="688.1" y2="428.3"/>
<line class="st0" x1="171.1" y1="428.3" x2="171.1" y2="110.6"/>
<line class="st1" x1="113.6" y1="433.4" x2="113.6" y2="110.6"/>
<path class="st0" d="M630.9,428.3V110.6 M573.4,428.3V110.6 M516,428.3V110.6 M458.5,428.3V110.6 M401,428.3V110.6 M343.5,428.3
	V110.6 M286,428.3V110.6 M228.6,428.3V110.6"/>
<path class="st1" d="M171.1,423.2v10.2 M228.6,423.2v10.2 M401,423.2v10.2 M286,423.2v10.2 M343.5,423.2v10.2 M458.5,423.2v10.2
	 M516,423.2v10.2 M573.5,423.2v10.2 M631,423.2v10.2 M108.5,393h10.2 M108.5,357.7h10.2 M108.5,322.4h10.2 M108.5,287.1h10.2
	 M108.5,251.8h10.2 M108.5,216.5h10.2 M108.5,181.2h10.2 M108.5,145.9h10.2"/>
<text transform="matrix(1 0 0 1 94.41 429.47)" class="st2 st3 st4">0</text>
<text transform="matrix(1 0 0 1 66.87 399.02)" class="st2 st5 st6">1.000</text>
<text transform="matrix(1 0 0 1 66.87 363.57)" class="st2 st5 st6">2.000</text>
<text transform="matrix(1 0 0 1 66.87 328.15)" class="st2 st5 st6">3.000</text>
<text transform="matrix(1 0 0 1 66.87 292.72)" class="st2 st5 st6">4.000</text>
<text transform="matrix(1 0 0 1 66.87 257.29)" class="st2 st5 st6">5.000</text>
<text transform="matrix(1 0 0 1 66.87 221.85)" class="st2 st5 st6">6.000</text>
<text transform="matrix(1 0 0 1 66.87 186.41)" class="st2 st5 st6">7.000</text>
<text transform="matrix(1 0 0 1 66.87 150.99)" class="st2 st5 st6">8.000</text>
<text transform="matrix(1 0 0 1 66.87 115.55)" class="st2 st5 st6">9.000</text>
<line class="st7" x1="168.8" y1="490" x2="197.7" y2="490"/>
<line class="st8" x1="329" y1="490" x2="358" y2="490"/>
<line class="st9" x1="489.3" y1="490" x2="518.2" y2="490"/>
<g>
	<defs>
		<rect id="SVGID_1_" x="36" y="54.2" width="667.7" height="425.7"/>
	</defs>
	<clipPath id="SVGID_00000109010879171958668720000006970971395887876743_">
		<use xlink:href="#SVGID_1_"  style="overflow:visible;"/>
	</clipPath>
	<g style="clip-path:url(#SVGID_00000109010879171958668720000006970971395887876743_);">
		<path class="st11" d="M688.1,136.1c-2,0.9-4.2,4-5.5,5.6c-1.7,2-3.9,3.8-5.6,5.9c-3.6,4.3-4.6,9.9-7.5,14.8s-5.4,8.8-8.4,13.3
			c-1.4,2.2-4.2,3.9-6,5.8c-1.6,1.5-2.7,3.4-3.2,5.5c-1.7,5.3-3.8,10.5-6.3,15.5c-2,4.1-3.2,10.8-7.2,13.1s-7.9,5.2-12.3,6.6
			c-2.3,0.8-6.6,1.7-8,4c-3.5,5.1-6.5,9.5-8.9,13.4c-1.6,2.6-2,4-4.7,5.1c-2.3,0.9-4.8,2.3-7,2.9c-2.7,0.8-4.5,1.4-6.4,1.4
			c-1.3-0.1-2.7,0.1-4,0.4c-1.2,0.4-4.1,1.5-5.2,1.4c-6.9-0.2-7,1.5-11.4,3.1c-3.2,1.3-6,3.4-8.2,6c-1.2,1.3-2.6,2.2-3.6,3.6
			c-1.1,1.5-2.8,2.7-4,4.1s-1.7,5.1-3.6,5.3s-4-2-5.5-3.1c-1.2-0.9-2.8-3.7-5.6-5s-7.3-3.4-9.9-4.9c-2.9-1.6-4.6-0.6-7.9,0
			c-1.2,0.3-3.3,0.7-4.5,1c-1.5,0.3-5,0.4-6.4,0.9c-3,0.9-4.8,1.7-8,1.9c-4.4,0.3-6.5-0.2-10.2,1.3c-2,0.8-5.6,4-7.3,5.5
			c-0.6,0.6-1.2,1.1-2.1,2c-0.5,0.4-2.6,2.4-2.1,2.2"/>
		<path class="st12" d="M687.3,165.3c-4.3,0.5-5.8,4-8.3,7.1c-2,2.4-4.3,4.4-6.2,6.9c-3.9,5.1-0.6,7.2-8.8,16.7
			c-2.3,2.6-4.8,5.4-6.9,8.1c-2,2.5-3.8,5.1-5.4,7.9c-3.1,5.6-6.5,11.1-9.1,17.1c-1.3,2.8-3,5.3-5,7.6c-1.9,2.3-3.9,4.5-6,6.6
			c-4.7,4.3-9.7,8-14.5,11.8c-2.7,2.4-5.2,4.9-7.6,7.7c-0.9,1-2.7,0.7-4.1,0.9c-1.6,0.2-3.2,0.3-4.8,0.3c-3.5,0.1-6.1,0.4-9.2,2.4
			c-2.5,1.6-4.5,3.8-6.7,5.8c-3.2,2.8-8.1,9-12.3,8.9c-0.8,0.1-1.7-0.2-2.4-0.7c-0.7-0.5-1.5-1.3-2.1-1.7c-0.7-0.5-1.3-1.1-2-1.5
			c-1.9-1.1-3.1-0.8-5.1,0.7c-1.4,1.1-4.2,3.4-5,5c-0.6,1.1-1.3,2.2-2,3.3c-1.2,2-2.3,4-3.3,6.1c-2,4.2-3.8,8.3-5.8,12.6
			c-0.8,1.8-3.5,9-6,8c-1.8-0.9-3.1-2.4-3.9-4.2c-0.9-2.2-1-4.3-1.6-6.6c-0.5-2-0.3-4.1-1.3-6c-0.7-1.3-2.4-2.4-3.9-3.1
			c-0.7-0.4-1.6-0.7-2.4-0.8c-0.9,0-1.7,0.1-2.5,0.3c-2,0.3-5,1.2-6.6,1.1c-4-0.2-4.3-4.5-6.4-7.2c-1.6-2-3.6-3.7-5.9-5
			c-1.2-0.4-2.5-0.5-3.7-0.4c-2.3,0-3.6,0.2-5.2,0.1c-1.5-0.1-3.1-0.1-4.6,0.2c-2.2,0.3-4.3,0.7-6.4,1.4c-5.5,1.7-10.9,3.3-15.9,6
			c-5.1,2.8-10.4,5.3-15.8,7.5c-7.5,2.9-9.6,11.5-14,17.7c-3.7,5.2-8.2,9.8-13.4,13.6c-3.2,2.4-6.1,5.2-10.2,5.9
			c-3.3,0.5-6.4,0.2-9.5,1.6c-3.6,1.7-5.3,5.2-7.7,8.4c-1.4,1.9-2.6,3.8-3.8,5.8c-0.9,1.6-2.5,5.1-3.4,6.3c-2.1,2.8-5.3,5-7.8,7.5
			c-1.2,1.2-3,2.5-4.1,3.6c-1.5,1.6-3.8,2.3-5.9,1.6c-2.3-0.8-6.9-0.5-9-0.2c-4.2,0.6-6.2,2.4-9.1,4.7c-2.5,2-4.6,4.5-7,6.5
			c-2.8,2.4-3.4,4.6-7,5c-1.3,0.1-3.4-0.1-4.6-0.1c-2,0-3.7,1.2-5.4,1.7c-2,0.6-7.1,1.9-8.7,3"/>
		<path class="st13" d="M688.1,158.3c-2.2-0.9-5.5,3.7-6.5,5c-1.5,1.8-3.5,3.1-5.3,4.4c-4,3.1-3.8,8.2-6.7,12.2s-5.7,7.7-8.4,11.8
			c-1.3,1.9-2.4,4.2-3.9,5.5c-1.8,1.3-3.3,2.9-4.5,4.8c-1.4,2.1-2.7,5.2-3.9,7.1c-0.1,0-0.8,2-0.8,1.9c-0.7,1.3-1.5,2.5-2.4,3.6
			c-1.3,1.6-2.5,3.2-3.5,5c-0.8,1.8-2,3.5-3.4,4.9c-1.5,1.4-4.3,2.7-5.8,4.3c-3.2,3.4-5.4,7.4-8.3,10.9c-1.2,1.5-2.3,3-3.3,4.6
			c-1.1,1.7-2.4,3.2-4,4.5c-0.1,0.1-1.2,0.6-1.3,0.7c-1.3,0.9-2.7,1.2-3.9,2c-1.5,0.8-3,1.4-4.5,2c-1.6,0.6-3.3,1.1-4.9,1.5
			c-1.6,0.4-3.6,0.6-5,1.4c-0.8,0.5-1.5,0.8-2.2,1.3c-0.8,0.5-1.6,1-2.3,1.6c-1.5,1.4-3.8,2.8-5.3,4.2c-2.5,2.5-5.2,4.9-8,7.1
			c-1.4,1-2.9,1.8-4.4,2.5c-1.5,0.6-3.3,0.6-4.8,0c-2.1-0.5-4-1.3-5.9-2.3c-1.2-0.6-2.6-0.7-3.8-0.2c-2.9,1.3-3.9,3.8-5.9,6
			c-1.3,1.6-2.5,3.2-3.6,5c-2.3,3.7-4.4,7.6-6.2,11.6c-2.5,5-3,10-7,13.6c-0.2,0.2-0.5,0.2-0.8,0.1c-1.1-1-2-2.3-2.7-3.7
			c-0.8-1.3-1.8-2.5-2.8-3.7c-1-1.4-2-2.9-2.9-4.4c-0.6-1-2.8-3-4-3.1c-0.5,0-1,0-1.5,0.1c-0.8,0.2-1.7,0.3-2.6,0.5
			c-2,0.4-4.1,1.2-6,0.4c-1.5-0.6-1.5-1-2.5-2.3c-1.2-1.8-2.7-3.4-4.4-4.8c-1.5-1.2-2.3-2.8-3.6-4.1s-2.1-1-3.8-1s-3.7,0-5.6,0.1
			c-1.1-0.1-2.1-0.1-3.2,0c-1.2,0.2-2.5,0.2-3.7,0.5c-2.2,0.4-3.8,0.2-6,0.6c-2.5,0.4-4.2,1.2-6.7,0.3c-2-0.7-4.5-1.7-6.7-0.6
			c-2.4,1.1-3.7,3.4-5.5,5.2c-1.8,1.8-3.7,3.4-5.7,5c-2.3,1.8-4.2,0.2-6.7,0.5c-3,0.3-4.4,0.4-6.1,3.1c-1.5,2.4-2.7,6.3-4.1,8.9
			c-1.7,3.2-3.5,6.5-5.4,9.6c-1.9,3.3-5.2,5.8-8.4,8c-2.2,1.7-4.5,3.2-7,4.6c-2.4,1.1-5,2.3-7.4,3.2c-1.3,0.5-2.5,0.8-3.9,1.1
			c-1.3,0.3-2.1,0.6-3.3,0.8c-2.5,0.5-4,3.7-5.4,5.7c-2.8,3.9-3.3,5.6-6.1,9.9c-1.6,2.5-3,5.1-4.3,7.7c-1.1,2.4-3.8,3.5-5.6,5.1
			c-0.8,0.7-1.8,1.6-2.6,2.2c-0.8,0.7-1.7,1.4-2.7,1.9c-1.9,1.1-4.1,1.8-6.3,2c-0.6,0.1-1.1,0.1-1.7,0c-1.2-0.2-2.3-0.2-3.5-0.2
			c-4.9,0.7-7,1.2-11.6,3.9c-1.6,1-3.2,2.1-4.7,3.3c-2.5,1.8-4.7,3.4-7.1,5.3s-6.6,1.3-9.5,1.1c-3.7-0.2-6.9,3.1-9.8,5.4
			c-2.6,2-3.8,3.5-7,3.5c-2.3,0.2-4.5,0.8-6.5,1.9c-1.5,0.8-2.9,1.7-4.3,2.8c-1.7,1.3-2.2,2.3-3.8,3.3c-1.5,0.8-3,1.7-4.4,2.7
			c-1.7,1.6-3.7,3.5-5.5,5.2c-1.6,1.6-3.6,2.7-5.8,3.3c-3.1,1.1-4.6,0.3-9.1-0.2c-2.6-0.3-6,1-7.6,1.8s-2.5,0.9-4.2,1.9
			c-1.1,0.1-2.2-0.1-3.2-0.5c-1.5-0.4-2.1-0.6-3.4-0.9c-1.2,0-2.4-0.3-3.5-0.6c-0.9-0.3-1.9-0.5-2.9-0.6c-0.6,0-1.2,0-1.8,0
			c-1.8,0.3-3.5,0.8-5.1,1.5c-1.9,1.1-2.4,1.5-4.6,1.7c-3.8,0.4-6.1,0-9.9,0c-3.2,0-6.7-0.2-10.2,0s-7.1-0.1-10.4,0.1
			c-3.6,0.2-6,1-9.8,1c-7.3,0-14.3,2.1-21.5,2.1s-14.2,0.6-21.6,0.6c-3.7,0-16.7,0.8-20,1.1"/>
	</g>
</g>
<line class="st1" x1="688.4" y1="433.4" x2="688.4" y2="110.6"/>
<text transform="matrix(1 0 0 1 274.85 46.79)" class="st14 st15 st16">Me</text>
<text transform="matrix(1 0 0 1 304.71 46.79)" class="st14 st15 st16">r</text>
<text transform="matrix(1 0 0 1 312.88 46.79)" class="st14 st15 st16">c</text>
<text transform="matrix(1 0 0 1 323.38 46.79)" class="st14 st15 st16">ado b</text>
<text transform="matrix(1 0 0 1 381.16 46.79)" class="st14 st15 st16">r</text>
<text transform="matrix(1 0 0 1 389.21 46.79)" class="st14 st15 st16">a</text>
<text transform="matrix(1 0 0 1 401.24 46.79)" class="st14 st15 st16">si</text>
<text transform="matrix(1 0 0 1 418.24 46.79)" class="st14 st15 st16">l</text>
<text transform="matrix(1 0 0 1 424.75 46.79)" class="st14 st15 st16">ei</text>
<text transform="matrix(1 0 0 1 443.4 46.79)" class="st14 st15 st16">r</text>
<text transform="matrix(1 0 0 1 451.5601 46.79)" class="st14 st15 st16">o </text>
<text transform="matrix(1 0 0 1 278.59 73.71)" class="st14 st15 st16">de ácido sulfúri</text>
<text transform="matrix(1 0 0 1 437.55 73.71)" class="st14 st15 st16">c</text>
<text transform="matrix(1 0 0 1 447.8301 73.71)" class="st14 st15 st16">o</text>
<text transform="matrix(6.123234e-17 -1 1 6.123234e-17 41.7 371.4102)" class="st2 st17 st18">H SO  (1000 t.p.a)</text>
<text transform="matrix(6.123234e-17 -1 1 6.123234e-17 46.45 356.1602)" class="st5 st19">2</text>
<text transform="matrix(6.123234e-17 -1 1 6.123234e-17 46.45 320.8701)" class="st5 st19">4</text>
<text transform="matrix(1 0 0 1 202.9 496.53)" class="st5 st20">P</text>
<text transform="matrix(1 0 0 1 213.22 496.53)" class="st5 st20">R</text>
<text transform="matrix(1 0 0 1 223.81 496.53)" class="st5 st20">ODUÇ</text>
<text transform="matrix(1 0 0 1 269.24 496.53)" class="st5 st20">Ã</text>
<text transform="matrix(1 0 0 1 279.24 496.53)" class="st5 st20">O</text>
<text transform="matrix(1 0 0 1 364.16 496.53)" class="st5 st20">CA</text>
<text transform="matrix(1 0 0 1 384.29 496.53)" class="st5 st20 st21">P</text>
<text transform="matrix(1 0 0 1 393.54 496.53)" class="st5 st20">A</text>
<text transform="matrix(1 0 0 1 403.54 496.53)" class="st5 st20">CI</text>
<text transform="matrix(1 0 0 1 418.73 496.53)" class="st5 st20">D</text>
<text transform="matrix(1 0 0 1 429.99 496.53)" class="st5 st20">ADE</text>
<text transform="matrix(1 0 0 1 524.02 496.53)" class="st5 st20">C</text>
<text transform="matrix(1 0 0 1 533.6101 496.53)" class="st5 st20">ONSU</text>
<text transform="matrix(1 0 0 1 579.48 496.53)" class="st5 st20">M</text>
<text transform="matrix(1 0 0 1 593.12 496.53)" class="st5 st20">O</text>
<g>
	<text transform="matrix(1 0 0 1 97.6538 452.0703)" class="st5 st22">1955</text>
</g>
<g>
	<text transform="matrix(1 0 0 1 154.1402 452.0703)" class="st5 st22">1960</text>
</g>
<g>
	<text transform="matrix(1 0 0 1 215.664 452.0703)" class="st5 st22">1965</text>
</g>
<g>
	<text transform="matrix(1 0 0 1 272.1855 452.0703)" class="st5 st22">1970</text>
</g>
<g>
	<text transform="matrix(1 0 0 1 328.7152 452.0703)" class="st5 st22">1975</text>
</g>
<g>
	<text transform="matrix(1 0 0 1 383.0402 452.0703)" class="st5 st22">1980</text>
</g>
<g>
	<text transform="matrix(1 0 0 1 442.3897 452.0703)" class="st5 st22">1985</text>
</g>
<g>
	<text transform="matrix(1 0 0 1 499.84 452.0703)" class="st5 st22">1990</text>
</g>
<g>
	<text transform="matrix(1 0 0 1 557.3302 452.0703)" class="st5 st22">1995</text>
</g>
<g>
	<text transform="matrix(1 0 0 1 615.2799 452.0703)" class="st5 st22">2000</text>
</g>
<g>
	<text transform="matrix(1 0 0 1 672.7599 452.0703)" class="st5 st22">2005</text>
</g>
</svg>
