<svg id="Camada_1" data-name="Camada 1" xmlns="http://www.w3.org/2000/svg" viewBox="0 0 730.41 317.95"><defs><style>.cls-1,.cls-12,.cls-15,.cls-19,.cls-22,.cls-23,.cls-8{font-size:17.93px;}.cls-1,.cls-12,.cls-14,.cls-15,.cls-19,.cls-22,.cls-23,.cls-4,.cls-8{font-family:FiraSans-Regular, Fira Sans;}.cls-2{letter-spacing:-0.01em;}.cls-3{letter-spacing:0.01em;}.cls-4{font-size:14.09px;}.cls-23,.cls-5{letter-spacing:0.01em;}.cls-6{fill:none;stroke:#020200;stroke-miterlimit:10;stroke-width:0.5px;}.cls-7{fill-rule:evenodd;}.cls-12,.cls-14,.cls-15,.cls-8{fill:#7a40c6;}.cls-18,.cls-8{letter-spacing:0.01em;}.cls-15,.cls-9{letter-spacing:-0.01em;}.cls-10{letter-spacing:0.02em;}.cls-11{letter-spacing:0em;}.cls-13{letter-spacing:0.03em;}.cls-14{font-size:11.53px;}.cls-16{letter-spacing:0em;}.cls-17{letter-spacing:0.01em;}.cls-19{fill:#575756;}.cls-20{letter-spacing:0.03em;}.cls-21{letter-spacing:-0.02em;}.cls-22{fill:#020200;}</style></defs><text class="cls-1" transform="translate(6.53 179.16)"><tspan class="cls-2">2</tspan><tspan class="cls-3" x="8.73" y="0"> </tspan><tspan x="13.61" y="0">C</tspan></text><text class="cls-4" transform="translate(31.21 184.3)">6</text><text class="cls-1" transform="translate(39.35 179.16)">H</text><text class="cls-4" transform="translate(52.66 184.3)">5</text><text class="cls-1" transform="translate(60.8 179.16)"><tspan class="cls-5">O</tspan><tspan x="12.54" y="0">H</tspan></text><line class="cls-6" x1="309.54" y1="176.3" x2="384.6" y2="176.3"/><polygon class="cls-7" points="377.38 172.89 386.38 176.3 377.38 179.72 379.1 176.3 377.38 172.89 377.38 172.89"/><text class="cls-8" transform="translate(21.34 216.78)">F<tspan class="cls-9" x="8.95" y="0">eno</tspan><tspan class="cls-10" x="39.27" y="0">l</tspan><tspan class="cls-11" x="44.8" y="0"> </tspan></text><text class="cls-12" transform="translate(10.62 243.78)">(<tspan class="cls-13" x="5.81" y="0">f</tspan><tspan class="cls-2" x="12.37" y="0">und</tspan><tspan class="cls-10" x="43.61" y="0">i</tspan><tspan class="cls-2" x="48.94" y="0">do</tspan><tspan x="69.85" y="0">)</tspan></text><text class="cls-12" transform="translate(316.4 163.05)">H</text><text class="cls-14" transform="translate(329.29 168.62)">2</text><text class="cls-12" transform="translate(335.7 163.05)">SO</text><text class="cls-14" transform="translate(356.99 168.62)">4</text><text class="cls-15" transform="translate(306.97 198.55)">10<tspan class="cls-3" x="17.48" y="0"> </tspan><tspan class="cls-16" x="22.36" y="0">-</tspan><tspan class="cls-17" x="29.59" y="0"> </tspan><tspan class="cls-2" x="34.47" y="0">12</tspan><tspan class="cls-3" x="50.82" y="0"> </tspan><tspan class="cls-11" x="55.7" y="0">h</tspan></text><text class="cls-12" transform="translate(317.45 220.54)"><tspan class="cls-9">120</tspan><tspan x="26.22" y="0"> </tspan></text><text class="cls-14" transform="translate(344.46 212.46)">o</text><text class="cls-12" transform="translate(350.85 220.54)">C</text><text class="cls-12" transform="translate(444.85 279)"><tspan class="cls-18">F</tspan><tspan class="cls-9" x="8.95" y="0">eno</tspan><tspan class="cls-10" x="39.27" y="0">l</tspan><tspan class="cls-13" x="44.8" y="0">f</tspan><tspan class="cls-5" x="51.36" y="0">t</tspan><tspan class="cls-2" x="57.96" y="0">a</tspan><tspan class="cls-10" x="67.57" y="0">l</tspan><tspan class="cls-2" x="73.09" y="0">é</tspan><tspan class="cls-10" x="82.72" y="0">i</tspan><tspan class="cls-2" x="88.05" y="0">n</tspan><tspan x="98.41" y="0">a</tspan></text><text class="cls-19" transform="translate(110.11 181.71)">+</text><text class="cls-1" transform="translate(234.49 142.13)">C</text><text class="cls-1" transform="translate(235.91 211.58)">C</text><text class="cls-1" transform="translate(269.65 178.41)">O</text><text class="cls-1" transform="translate(235.48 244.85)">O</text><text class="cls-1" transform="translate(235.91 103.3)">O</text><line class="cls-6" x1="180.03" y1="200.21" x2="154.3" y2="185.7"/><line class="cls-6" x1="180.03" y1="143" x2="154.3" y2="157.51"/><polyline class="cls-6" points="210.48 153.67 179.6 136.16 148.72 154.1 148.72 189.53 179.6 207.04 210.48 189.11"/><line class="cls-6" x1="210.48" y1="153.67" x2="210.48" y2="189.11"/><line class="cls-6" x1="204.47" y1="156.66" x2="204.47" y2="186.12"/><line class="cls-6" x1="210.48" y1="153.67" x2="232.78" y2="140.43"/><line class="cls-6" x1="210.48" y1="189.11" x2="233.21" y2="201.92"/><line class="cls-6" x1="249.08" y1="143.85" x2="267.94" y2="163.06"/><line class="cls-6" x1="249.51" y1="198.93" x2="267.94" y2="180.57"/><line class="cls-6" x1="238.35" y1="215.16" x2="238.35" y2="228.83"/><line class="cls-6" x1="244.36" y1="215.16" x2="244.36" y2="228.83"/><line class="cls-6" x1="243.93" y1="126.77" x2="243.93" y2="109.69"/><line class="cls-6" x1="237.93" y1="126.77" x2="237.93" y2="109.69"/><text class="cls-12" transform="translate(154.3 276.52)">A<tspan class="cls-2" x="10.28" y="0">n</tspan><tspan class="cls-10" x="20.64" y="0">i</tspan><tspan class="cls-2" x="25.97" y="0">d</tspan><tspan x="36.55" y="0">r</tspan><tspan class="cls-10" x="43.47" y="0">i</tspan><tspan class="cls-2" x="48.79" y="0">do</tspan><tspan class="cls-17" x="69.7" y="0"> </tspan><tspan class="cls-20" x="74.58" y="0">f</tspan><tspan class="cls-5" x="81.15" y="0">t</tspan><tspan class="cls-2" x="87.75" y="0">á</tspan><tspan class="cls-10" x="97.36" y="0">li</tspan><tspan x="108.21" y="0">co</tspan></text><text class="cls-12" transform="translate(173.18 303.53)">(r<tspan class="cls-9" x="12.73" y="0">e</tspan><tspan class="cls-21" x="22.36" y="0">s</tspan><tspan class="cls-20" x="30.32" y="0">f</tspan><tspan x="36.89" y="0">r</tspan><tspan class="cls-10" x="43.81" y="0">i</tspan><tspan class="cls-2" x="49.13" y="0">ado</tspan><tspan x="79.66" y="0">)</tspan></text><text class="cls-1" transform="translate(492.22 148.95)">C</text><text class="cls-22" transform="translate(492.67 219.83)">C</text><text class="cls-1" transform="translate(528.26 183.54)">O</text><text class="cls-1" transform="translate(492.22 251.86)">O</text><text class="cls-1" transform="translate(622.61 92.58)">O</text><text class="cls-1" transform="translate(636.76 92.58)">H</text><text class="cls-1" transform="translate(427.46 22.15)">O</text><text class="cls-1" transform="translate(414.61 22.15)">H</text><line class="cls-6" x1="437.78" y1="207.04" x2="412.04" y2="192.53"/><line class="cls-6" x1="437.78" y1="149.83" x2="412.04" y2="164.34"/><polyline class="cls-6" points="468.23 160.5 437.35 143 406.47 160.93 406.47 196.37 437.35 213.87 468.23 195.94"/><line class="cls-6" x1="468.22" y1="160.5" x2="468.22" y2="195.94"/><line class="cls-6" x1="462.22" y1="163.49" x2="462.22" y2="192.95"/><line class="cls-6" x1="468.22" y1="160.5" x2="490.53" y2="147.27"/><line class="cls-6" x1="468.22" y1="195.94" x2="490.95" y2="208.75"/><line class="cls-6" x1="506.82" y1="150.26" x2="526.55" y2="169.04"/><line class="cls-6" x1="507.25" y1="205.34" x2="526.55" y2="186.12"/><line class="cls-6" x1="496.1" y1="222.84" x2="496.1" y2="236.5"/><line class="cls-6" x1="502.11" y1="222.84" x2="502.11" y2="236.5"/><line class="cls-6" x1="561.29" y1="143" x2="537.27" y2="125.49"/><line class="cls-6" x1="567.72" y1="86.21" x2="540.7" y2="97.74"/><polyline class="cls-6" points="596.89 100.3 568.15 79.38 535.56 93.47 531.27 128.48"/><polyline class="cls-6" points="596.89 100.3 592.59 135.74 560 149.83 531.27 128.48"/><line class="cls-6" x1="590.45" y1="102.86" x2="587.02" y2="131.89"/><line class="cls-6" x1="506.82" y1="139.15" x2="531.27" y2="128.48"/><line class="cls-6" x1="495.67" y1="80.66" x2="479.38" y2="105.42"/><line class="cls-6" x1="437.78" y1="77.24" x2="451.07" y2="103.71"/><polyline class="cls-6" points="450.64 47.78 430.91 77.24 447.21 109.27 482.81 110.97"/><polyline class="cls-6" points="450.64 47.78 486.24 49.92 502.11 81.51 482.81 110.97"/><line class="cls-6" x1="453.21" y1="53.76" x2="482.81" y2="55.47"/><line class="cls-6" x1="494.39" y1="133.6" x2="482.81" y2="110.97"/><line class="cls-6" x1="596.89" y1="100.3" x2="620.9" y2="90.05"/><line class="cls-6" x1="450.64" y1="47.78" x2="439.06" y2="25.15"/><text class="cls-1" transform="translate(600.31 182.07)">+</text><text class="cls-1" transform="translate(631.19 180.35)">H</text><text class="cls-4" transform="translate(644.49 185.49)">2</text><text class="cls-23" transform="translate(652.62 180.35)">O<tspan class="cls-11" x="12.54" y="0">(H</tspan></text><text class="cls-4" transform="translate(683.12 185.49)">2</text><text class="cls-1" transform="translate(691.26 180.35)">SO</text><text class="cls-4" transform="translate(712.55 185.49)">4</text><text class="cls-1" transform="translate(720.69 180.35)">)</text></svg>