<svg id="Camada_1" data-name="Camada 1" xmlns="http://www.w3.org/2000/svg" xmlns:xlink="http://www.w3.org/1999/xlink" viewBox="0 0 730 426.09"><defs><style>.cls-1,.cls-2,.cls-3{fill:none;}.cls-2,.cls-3{stroke:#1d1d1b;}.cls-3{stroke-width:0.57px;}.cls-4{fill:#996ce0;}.cls-5,.cls-7,.cls-8{font-size:20.17px;}.cls-5,.cls-7,.cls-8,.cls-9{fill:#1d1d1b;}.cls-5,.cls-9{font-family:FiraSans-Light, Fira Sans;font-weight:300;}.cls-6{clip-path:url(#clip-path);}.cls-7{font-family:RotisSansSerifStd, Rotis Sans Serif Std;}.cls-10,.cls-8{font-family:FiraSans-Regular, Fira Sans;}.cls-9{font-size:18.43px;}.cls-10{font-size:26.16px;fill:#6827ab;}</style><clipPath id="clip-path"><rect class="cls-1" x="13.39" y="27.57" width="711.38" height="398.52"/></clipPath></defs><line class="cls-2" x1="105.34" y1="80.74" x2="705.76" y2="80.74"/><line class="cls-2" x1="105.34" y1="125.68" x2="705.76" y2="125.68"/><line class="cls-2" x1="105.34" y1="170.61" x2="705.76" y2="170.61"/><line class="cls-2" x1="105.34" y1="215.55" x2="705.76" y2="215.55"/><line class="cls-2" x1="105.34" y1="260.49" x2="705.76" y2="260.49"/><line class="cls-3" x1="105.34" y1="305.42" x2="705.76" y2="305.42"/><line class="cls-3" x1="105.34" y1="350.36" x2="705.76" y2="350.36"/><line class="cls-2" x1="110.09" y1="80.7" x2="110.09" y2="354.86"/><line class="cls-3" x1="169.65" y1="305.42" x2="169.65" y2="354.86"/><line class="cls-3" x1="229.22" y1="305.42" x2="229.22" y2="354.86"/><line class="cls-3" x1="288.79" y1="305.42" x2="288.79" y2="354.86"/><line class="cls-3" x1="348.36" y1="305.42" x2="348.36" y2="354.86"/><line class="cls-3" x1="407.92" y1="305.42" x2="407.92" y2="354.86"/><line class="cls-3" x1="467.49" y1="305.42" x2="467.49" y2="354.86"/><line class="cls-3" x1="527.06" y1="305.42" x2="527.06" y2="354.86"/><line class="cls-3" x1="586.62" y1="305.42" x2="586.62" y2="354.86"/><line class="cls-3" x1="646.19" y1="305.42" x2="646.19" y2="354.86"/><line class="cls-3" x1="705.76" y1="305.42" x2="705.76" y2="354.86"/><polygon class="cls-4" points="110.09 98.35 110.09 351.5 706.38 351.5 706.38 248.14 646.75 267.24 527.49 244.03 467.86 253.01 408.23 235.16 348.61 158.77 288.98 204.21 229.35 224.93 169.72 179.99 110.09 98.35"/><text class="cls-5" transform="translate(150.4 378.96)">20</text><text class="cls-5" transform="translate(170.58 378.96)">01</text><text class="cls-5" transform="translate(90.57 378.96)">2000</text><text class="cls-5" transform="translate(209.49 378.96)">20</text><text class="cls-5" transform="translate(229.66 378.96)">02</text><text class="cls-5" transform="translate(268.94 378.96)">2003</text><text class="cls-5" transform="translate(328.77 378.96)">2004</text><text class="cls-5" transform="translate(388.6 378.96)">2005</text><text class="cls-5" transform="translate(448.43 378.96)">2006</text><text class="cls-5" transform="translate(508.26 378.96)">20</text><text class="cls-5" transform="translate(528.44 378.96)">07</text><text class="cls-5" transform="translate(566.96 378.96)">2008</text><text class="cls-5" transform="translate(626.8 378.96)">2009</text><text class="cls-5" transform="translate(686.63 378.96)">20</text><g class="cls-6"><text class="cls-5" transform="translate(706.02 378.96)">10</text></g><text class="cls-5" transform="translate(57.42 354.86)">3,00</text><text class="cls-7" transform="translate(57.78 310.03)">3,</text><text class="cls-5" transform="translate(71.98 310.03)">10</text><text class="cls-5" transform="translate(57.42 265.21)">3,20</text><text class="cls-5" transform="translate(57.42 220.39)">3,30</text><text class="cls-5" transform="translate(57.42 175.57)">3,40</text><text class="cls-5" transform="translate(57.42 130.74)">3,50</text><text class="cls-5" transform="translate(57.42 85.92)">3,60</text><text class="cls-8" transform="translate(355.52 416.35)">Ano</text><text class="cls-9" transform="translate(33.18 310.25) rotate(-90)">MWh / tonelada de clor</text><text class="cls-9" transform="translate(33.18 114.87) rotate(-90)">o</text><text class="cls-10" transform="translate(109.8 33.54)">Energia elétrica - Consumo Específico - Base Cloro</text></svg>