<svg id="Camada_1" data-name="Camada 1" xmlns="http://www.w3.org/2000/svg" viewBox="0 0 730.3 106.62"><defs><style>.cls-1,.cls-12,.cls-8{font-size:17.56px;}.cls-1{fill:#7a40c6;}.cls-1,.cls-12,.cls-14,.cls-8{font-family:FiraSans-Regular, Fira Sans;}.cls-2{letter-spacing:-0.01em;}.cls-3{letter-spacing:0.01em;}.cls-12,.cls-4{letter-spacing:-0.01em;}.cls-5{letter-spacing:0em;}.cls-6{letter-spacing:0.01em;}.cls-7{letter-spacing:0.01em;}.cls-9{letter-spacing:-0.01em;}.cls-10{fill:none;stroke:#020200;stroke-miterlimit:10;stroke-width:0.5px;}.cls-11{fill-rule:evenodd;}.cls-13{letter-spacing:-0.01em;}.cls-14{font-size:13.8px;}.cls-15{letter-spacing:0.03em;}.cls-16{letter-spacing:0.02em;}.cls-17{letter-spacing:0.02em;}.cls-18{letter-spacing:0.02em;}.cls-19{letter-spacing:0em;}.cls-20{letter-spacing:-0.01em;}</style></defs><text class="cls-1" transform="translate(21.35 65.59) scale(1.02 1)">Ac<tspan class="cls-2" x="18.46" y="0">e</tspan><tspan class="cls-3" x="27.89" y="0">t</tspan><tspan class="cls-4" x="34.36" y="0">on</tspan><tspan class="cls-5" x="54.62" y="0">a</tspan></text><text class="cls-1" transform="translate(515.34 64.71) scale(1.02 1)">Ac<tspan class="cls-2" x="18.46" y="0">e</tspan><tspan class="cls-3" x="27.89" y="0">t</tspan><tspan class="cls-4" x="34.36" y="0">a</tspan><tspan class="cls-6" x="43.77" y="0">t</tspan><tspan x="50.23" y="0">o</tspan></text><text class="cls-1" transform="translate(510.27 89.96) scale(1.02 1)"><tspan class="cls-4">de</tspan><tspan class="cls-6" x="19.79" y="0"> </tspan><tspan x="24.57" y="0">c</tspan><tspan class="cls-4" x="32.97" y="0">á</tspan><tspan class="cls-7" x="42.38" y="0">l</tspan><tspan x="47.79" y="0">c</tspan><tspan class="cls-7" x="56.19" y="0">i</tspan><tspan x="61.4" y="0">o</tspan></text><text class="cls-8" transform="translate(130.55 30.38) scale(1.02 1)">+</text><text class="cls-1" transform="translate(162.83 64.75) scale(1.02 1)"><tspan class="cls-9">H</tspan><tspan class="cls-7" x="11.82" y="0">i</tspan><tspan class="cls-4" x="17.04" y="0">po</tspan><tspan x="37.45" y="0">c</tspan><tspan class="cls-7" x="45.84" y="0">l</tspan><tspan class="cls-4" x="51.25" y="0">o</tspan><tspan x="61.37" y="0">r</tspan><tspan class="cls-7" x="68.15" y="0">i</tspan><tspan class="cls-6" x="73.36" y="0">t</tspan><tspan class="cls-5" x="79.83" y="0">o</tspan></text><text class="cls-1" transform="translate(169.62 90.81) scale(1.02 1)"><tspan class="cls-4">de</tspan><tspan class="cls-6" x="19.79" y="0"> </tspan><tspan x="24.57" y="0">c</tspan><tspan class="cls-4" x="32.97" y="0">á</tspan><tspan class="cls-7" x="42.38" y="0">l</tspan><tspan x="47.79" y="0">c</tspan><tspan class="cls-7" x="56.19" y="0">i</tspan><tspan x="61.4" y="0">o</tspan></text><line class="cls-10" x1="278.79" y1="24.14" x2="351.84" y2="24.14"/><polygon class="cls-11" points="347.38 20.8 356.3 24.14 347.38 27.49 349.08 24.14 347.38 20.8 347.38 20.8"/><text class="cls-12" transform="translate(379.45 28.31) scale(1.02 1)">2<tspan class="cls-13" x="8.55" y="0"> </tspan><tspan class="cls-9" x="12.94" y="0">CHC</tspan><tspan class="cls-5" x="44.19" y="0">l</tspan></text><text class="cls-14" transform="translate(431.26 33.35) scale(1.02 1)">3</text><text class="cls-8" transform="translate(460.58 30.43) scale(1.02 1)">+</text><text class="cls-1" transform="translate(365.85 64.75) scale(1.02 1)"><tspan class="cls-9">C</tspan><tspan class="cls-7" x="9.71" y="0">l</tspan><tspan class="cls-4" x="15.12" y="0">o</tspan><tspan x="25.24" y="0">r</tspan><tspan class="cls-4" x="32.02" y="0">o</tspan><tspan class="cls-15" x="42.14" y="0">f</tspan><tspan class="cls-4" x="48.56" y="0">ó</tspan><tspan x="58.68" y="0">r</tspan><tspan class="cls-16" x="65.46" y="0">m</tspan><tspan class="cls-17" x="80.93" y="0">i</tspan><tspan x="86.15" y="0">o</tspan></text><text class="cls-1" transform="translate(642.36 64.71) scale(1.02 1)"><tspan class="cls-9">H</tspan><tspan class="cls-7" x="11.82" y="0">i</tspan><tspan class="cls-4" x="17.04" y="0">d</tspan><tspan x="27.4" y="0">r</tspan><tspan class="cls-4" x="34.18" y="0">ó</tspan><tspan class="cls-18" x="44.3" y="0">x</tspan><tspan class="cls-17" x="53.22" y="0">i</tspan><tspan class="cls-2" x="58.43" y="0">do</tspan><tspan x="78.91" y="0"> </tspan></text><text class="cls-1" transform="translate(647.47 90.78) scale(1.02 1)"><tspan class="cls-4">de</tspan><tspan class="cls-6" x="19.79" y="0"> </tspan><tspan x="24.57" y="0">c</tspan><tspan class="cls-4" x="32.97" y="0">á</tspan><tspan class="cls-7" x="42.38" y="0">l</tspan><tspan x="47.79" y="0">c</tspan><tspan class="cls-7" x="56.19" y="0">i</tspan><tspan x="61.4" y="0">o</tspan></text><text class="cls-8" transform="translate(167.93 27.5) scale(1.02 1)"><tspan class="cls-4">3</tspan><tspan class="cls-13" x="8.62" y="0"> </tspan><tspan class="cls-9" x="13.01" y="0">C</tspan><tspan class="cls-4" x="22.73" y="0">a</tspan><tspan x="32.14" y="0">(</tspan><tspan class="cls-13" x="37.83" y="0">O</tspan><tspan class="cls-9" x="49.72" y="0">Cl</tspan><tspan class="cls-5" x="64.46" y="0">)</tspan></text><text class="cls-14" transform="translate(241.26 32.5) scale(1.02 1)">2</text><text class="cls-12" transform="translate(6.53 28.31) scale(1.02 1)">2<tspan class="cls-13" x="8.55" y="0"> </tspan><tspan class="cls-9" x="12.94" y="0">C</tspan><tspan class="cls-19" x="22.66" y="0">H</tspan></text><text class="cls-14" transform="translate(42.62 33.35) scale(1.02 1)">3</text><text class="cls-8" transform="translate(50.68 28.31) scale(1.02 1)"><tspan class="cls-9">C</tspan><tspan class="cls-13" x="9.71" y="0">O</tspan><tspan class="cls-20" x="21.6" y="0">C</tspan><tspan x="31.32" y="0">H</tspan></text><text class="cls-14" transform="translate(95.25 33.35) scale(1.02 1)">3</text><text class="cls-8" transform="translate(616.88 30.01) scale(1.02 1)">+</text><text class="cls-8" transform="translate(495.12 29.6) scale(1.02 1)"><tspan class="cls-9">C</tspan><tspan class="cls-4" x="9.71" y="0">a</tspan><tspan x="19.13" y="0">(C</tspan></text><text class="cls-14" transform="translate(531.09 34.6) scale(1.02 1)">2</text><text class="cls-8" transform="translate(539.15 29.6) scale(1.02 1)">H</text><text class="cls-14" transform="translate(552.33 34.6) scale(1.02 1)">3</text><text class="cls-8" transform="translate(560.39 29.6) scale(1.02 1)">O</text><text class="cls-14" transform="translate(574.83 34.6) scale(1.02 1)">2</text><text class="cls-8" transform="translate(582.91 29.6) scale(1.02 1)">)</text><text class="cls-14" transform="translate(589.27 34.6) scale(1.02 1)">2</text><text class="cls-8" transform="translate(644.92 30.84) scale(1.02 1)"><tspan class="cls-4">2</tspan><tspan class="cls-13" x="8.55" y="0"> </tspan><tspan class="cls-9" x="12.94" y="0">C</tspan><tspan class="cls-4" x="22.66" y="0">a</tspan><tspan x="32.07" y="0">(</tspan><tspan class="cls-13" x="37.76" y="0">O</tspan><tspan class="cls-9" x="49.65" y="0">H</tspan><tspan x="61.47" y="0">)</tspan></text><text class="cls-14" transform="translate(714.9 35.83) scale(1.02 1)">2</text></svg>