<svg id="Camada_1" data-name="Camada 1" xmlns="http://www.w3.org/2000/svg" viewBox="0 0 730.08 287.11"><defs><style>.cls-1,.cls-17{font-size:22.62px;}.cls-1,.cls-7{fill:#7a40c6;}.cls-1,.cls-17,.cls-18,.cls-7{font-family:FiraSans-Regular, Fira Sans;}.cls-2{letter-spacing:-0.01em;}.cls-3{letter-spacing:-0.01em;}.cls-4{letter-spacing:0.01em;}.cls-5{letter-spacing:0.01em;}.cls-6{letter-spacing:-0.01em;}.cls-7{font-size:14.54px;}.cls-8{letter-spacing:-0.01em;}.cls-9{letter-spacing:-0.01em;}.cls-10{letter-spacing:-0.02em;}.cls-11{letter-spacing:0.02em;}.cls-12{letter-spacing:0em;}.cls-13,.cls-19{fill:none;stroke-miterlimit:10;}.cls-13{stroke:#010000;stroke-linecap:square;stroke-width:0.48px;}.cls-14{fill:#010000;fill-rule:evenodd;}.cls-15{letter-spacing:0.01em;}.cls-16{letter-spacing:0.02em;}.cls-18{font-size:17.77px;}.cls-19{stroke:#020200;stroke-width:0.5px;}</style></defs><text class="cls-1" transform="translate(10.97 211.21) scale(1.01 1)"><tspan class="cls-2">4</tspan><tspan x="11.85" y="0">-M</tspan><tspan class="cls-3" x="38.56" y="0">e</tspan><tspan class="cls-4" x="50.71" y="0">t</tspan><tspan class="cls-5" x="59.03" y="0">il</tspan><tspan class="cls-3" x="72.71" y="0">p</tspan><tspan class="cls-5" x="85.97" y="0">i</tspan><tspan x="92.68" y="0">r</tspan><tspan class="cls-5" x="101.41" y="0">i</tspan><tspan class="cls-6" x="108.13" y="0">d</tspan><tspan class="cls-5" x="121.47" y="0">i</tspan><tspan class="cls-3" x="128.19" y="0">n</tspan><tspan x="141.26" y="0">a</tspan></text><text class="cls-1" transform="translate(471.03 56.57) scale(1.01 1)">H</text><text class="cls-7" transform="translate(487.36 63.58) scale(1.01 1)">2</text><text class="cls-1" transform="translate(495.5 56.57) scale(1.01 1)"><tspan class="cls-8">NN</tspan><tspan x="30.58" y="0">H</tspan></text><text class="cls-7" transform="translate(544.45 63.58) scale(1.01 1)">2</text><text class="cls-1" transform="translate(463.95 102.41) scale(1.01 1)"><tspan class="cls-9">H</tspan><tspan class="cls-5" x="15.22" y="0">i</tspan><tspan class="cls-3" x="21.94" y="0">d</tspan><tspan x="35.28" y="0">r</tspan><tspan class="cls-2" x="44.01" y="0">a</tspan><tspan x="56.13" y="0">z</tspan><tspan class="cls-5" x="66.02" y="0">i</tspan><tspan class="cls-3" x="72.73" y="0">n</tspan><tspan x="85.81" y="0">a</tspan></text><text class="cls-1" transform="translate(354.66 244.83) scale(1.01 1)">Ác<tspan class="cls-5" x="23.77" y="0">i</tspan><tspan class="cls-3" x="30.49" y="0">do</tspan><tspan x="56.86" y="0"> </tspan></text><text class="cls-1" transform="translate(323.12 275.81) scale(1.01 1)"><tspan class="cls-4">I</tspan><tspan class="cls-10" x="6.83" y="0">s</tspan><tspan class="cls-3" x="16.87" y="0">on</tspan><tspan class="cls-11" x="42.97" y="0">i</tspan><tspan class="cls-12" x="49.69" y="0">c</tspan><tspan class="cls-3" x="60.5" y="0">o</tspan><tspan class="cls-4" x="73.53" y="0">tí</tspan><tspan class="cls-3" x="88.39" y="0">n</tspan><tspan class="cls-5" x="101.46" y="0">i</tspan><tspan x="108.17" y="0">co</tspan></text><line class="cls-13" x1="455.26" y1="72.61" x2="583.59" y2="72.61"/><polygon class="cls-14" points="572.17 68.3 583.6 72.61 572.17 76.92 574.35 72.61 572.17 68.3 572.17 68.3"/><polyline class="cls-13" points="572.17 68.3 583.6 72.61 572.17 76.92 574.35 72.61 572.17 68.3"/><text class="cls-1" transform="translate(604.26 275.19) scale(1.01 1)"><tspan class="cls-4">I</tspan><tspan class="cls-10" x="6.83" y="0">s</tspan><tspan class="cls-3" x="16.87" y="0">on</tspan><tspan class="cls-11" x="42.97" y="0">i</tspan><tspan class="cls-2" x="49.69" y="0">a</tspan><tspan x="61.81" y="0">z</tspan><tspan class="cls-5" x="71.69" y="0">i</tspan><tspan class="cls-3" x="78.41" y="0">d</tspan><tspan x="91.75" y="0">a</tspan></text><text class="cls-1" transform="translate(173.03 54.44) scale(1.01 1)"><tspan class="cls-15">O</tspan><tspan class="cls-16" x="15.81" y="0">x</tspan><tspan class="cls-5" x="27.3" y="0">i</tspan><tspan class="cls-3" x="34.01" y="0">da</tspan><tspan class="cls-12" x="59.48" y="0">ç</tspan><tspan class="cls-3" x="70.29" y="0">ã</tspan><tspan x="82.41" y="0">o</tspan></text><line class="cls-13" x1="151.71" y1="72.53" x2="302.89" y2="72.53"/><polygon class="cls-14" points="291.47 68.22 302.89 72.53 291.47 76.83 293.65 72.53 291.47 68.22 291.47 68.22"/><polyline class="cls-13" points="291.47 68.22 302.89 72.53 291.47 76.83 293.65 72.53 291.47 68.22"/><text class="cls-17" transform="translate(68.79 25.07) scale(1.01 1)">N</text><text class="cls-17" transform="translate(67.53 163.2) scale(1.01 1)">C</text><text class="cls-17" transform="translate(80.07 163.2) scale(1.01 1)">H</text><text class="cls-18" transform="translate(96.38 169.66) scale(1.01 1)">3</text><line class="cls-19" x1="75.68" y1="110.97" x2="114.84" y2="88.35"/><line class="cls-19" x1="114.84" y1="43.66" x2="114.84" y2="88.35"/><line class="cls-19" x1="107.22" y1="47.43" x2="107.22" y2="84.58"/><line class="cls-19" x1="36.53" y1="88.89" x2="75.68" y2="110.97"/><line class="cls-19" x1="43.6" y1="84.05" x2="76.23" y2="102.36"/><line class="cls-19" x1="85.47" y1="26.97" x2="114.84" y2="43.66"/><line class="cls-19" x1="36.53" y1="44.2" x2="36.53" y2="88.89"/><line class="cls-19" x1="36.53" y1="44.2" x2="64.81" y2="27.51"/><line class="cls-19" x1="43.6" y1="48.51" x2="70.79" y2="32.89"/><line class="cls-19" x1="75.68" y1="110.97" x2="76.23" y2="143.82"/><text class="cls-17" transform="translate(377.83 29.66) scale(1.01 1)">N</text><text class="cls-17" transform="translate(376.58 166.98) scale(1.01 1)">C</text><text class="cls-17" transform="translate(336.72 187.95) scale(1.01 1)">O</text><text class="cls-17" transform="translate(415.03 187.95) scale(1.01 1)">O</text><text class="cls-17" transform="translate(429.58 187.95) scale(1.01 1)">H</text><line class="cls-19" x1="384.56" y1="113.12" x2="423.71" y2="90.51"/><line class="cls-19" x1="423.71" y1="45.81" x2="423.71" y2="90.51"/><line class="cls-19" x1="416.1" y1="49.58" x2="416.1" y2="86.74"/><line class="cls-19" x1="345.41" y1="91.05" x2="384.56" y2="113.12"/><line class="cls-19" x1="352.48" y1="86.2" x2="385.1" y2="104.51"/><line class="cls-19" x1="394.35" y1="29.12" x2="423.71" y2="45.81"/><line class="cls-19" x1="345.41" y1="46.35" x2="345.41" y2="91.05"/><line class="cls-19" x1="345.41" y1="46.35" x2="373.69" y2="29.66"/><line class="cls-19" x1="352.48" y1="50.66" x2="379.67" y2="35.04"/><line class="cls-19" x1="384.56" y1="113.12" x2="384.02" y2="144.9"/><line class="cls-19" x1="373.14" y1="158.9" x2="356.83" y2="169.13"/><line class="cls-19" x1="373.14" y1="168.05" x2="356.83" y2="177.74"/><line class="cls-19" x1="393.81" y1="162.66" x2="412.84" y2="173.44"/><text class="cls-17" transform="translate(641.78 32.33) scale(1.01 1)">N</text><text class="cls-17" transform="translate(642.98 168.46) scale(1.01 1)">C</text><text class="cls-17" transform="translate(602.63 189.05) scale(1.01 1)">O</text><text class="cls-17" transform="translate(681.48 189.05) scale(1.01 1)">N</text><text class="cls-17" transform="translate(695.38 189.05) scale(1.01 1)">H</text><text class="cls-17" transform="translate(681.48 233.74) scale(1.01 1)">N</text><text class="cls-17" transform="translate(695.24 233.74) scale(1.01 1)">H</text><text class="cls-18" transform="translate(710.4 240.21) scale(1.01 1)">2</text><line class="cls-19" x1="650.48" y1="114.2" x2="689.64" y2="91.59"/><line class="cls-19" x1="689.64" y1="46.89" x2="689.64" y2="91.59"/><line class="cls-19" x1="682.02" y1="50.66" x2="682.02" y2="87.82"/><line class="cls-19" x1="611.33" y1="92.12" x2="650.48" y2="114.2"/><line class="cls-19" x1="618.4" y1="87.28" x2="651.03" y2="105.59"/><line class="cls-19" x1="660.27" y1="30.2" x2="689.64" y2="46.89"/><line class="cls-19" x1="611.33" y1="47.43" x2="611.33" y2="92.12"/><line class="cls-19" x1="611.33" y1="47.43" x2="639.6" y2="30.74"/><line class="cls-19" x1="618.4" y1="51.74" x2="645.59" y2="36.12"/><line class="cls-19" x1="650.48" y1="114.2" x2="649.94" y2="145.97"/><line class="cls-19" x1="639.06" y1="159.97" x2="622.75" y2="170.21"/><line class="cls-19" x1="639.06" y1="169.13" x2="622.75" y2="178.82"/><line class="cls-19" x1="659.72" y1="163.74" x2="679.3" y2="175.05"/><line class="cls-19" x1="690.18" y1="192.82" x2="689.64" y2="214.36"/></svg>