<svg xmlns="http://www.w3.org/2000/svg" viewBox="0 0 354.47 728.89"><title>fig-5-2</title><g id="fig-5-2"><polygon points="159.22 232.03 136.14 232.03 136.14 209.35 49.03 209.35 49.03 263.06 136.14 263.06 136.14 240.38 159.22 240.38 159.22 232.03" style="fill:#f7f6d1"></polygon><polygon points="159.41 292.6 136.34 292.6 136.34 269.92 49.23 269.92 49.23 323.63 136.34 323.63 136.34 300.95 159.41 300.95 159.41 292.6" style="fill:#f5f0a4"></polygon><polygon points="159.41 353.17 136.34 353.17 136.34 330.49 49.23 330.49 49.23 384.19 136.34 384.19 136.34 361.52 159.41 361.52 159.41 353.17" style="fill:#f3eb75"></polygon><polygon points="159.41 413.74 136.34 413.74 136.34 391.06 49.23 391.06 49.23 444.76 136.34 444.76 136.34 422.09 159.41 422.09 159.41 413.74" style="fill:#f19649"></polygon><polygon points="159.41 474.31 136.34 474.31 136.34 451.63 49.23 451.63 49.23 505.33 136.34 505.33 136.34 482.66 159.41 482.66 159.41 474.31" style="fill:#ba6942"></polygon><polygon points="159.41 534.88 136.34 534.88 136.34 512.2 49.23 512.2 49.23 565.9 136.34 565.9 136.34 543.23 159.41 543.23 159.41 534.88" style="fill:#8a5343"></polygon><path d="M49.23,572.27v58.87A12.72,12.72,0,0,0,62,643.87h61.65a12.72,12.72,0,0,0,12.73-12.73V572.27Z" style="fill:#372827"></path><path d="M49.23,572.27v58.87A12.72,12.72,0,0,0,62,643.87h61.65a12.72,12.72,0,0,0,12.73-12.73V572.27Z" style="fill:none;stroke:#1d1d1b;stroke-miterlimit:10;stroke-width:1.20700001716614px"></path><path d="M136.14,203.51v-1.19a31.82,31.82,0,0,0-31.82-31.82H80.85A31.82,31.82,0,0,0,49,202.32v1.19Z" style="fill:#fff"></path><rect x="25.8" y="21.99" width="296.32" height="684.91" style="fill:none"></rect><g id="preto"><path d="M158.28,697.8H87.84V630.4h1.25v66.15h69.19Zm0-5.83H94.13V624.58h1.25v66.14h62.93ZM95.4,181.24H94.15v-59.9h64.17v1.25H95.4Zm-6.3-5.17H87.85v-59.9h70.44v1.25H89.1Z" style="fill:#1d1d1b"></path><path d="M136.75,263.66H48.42V208.75h88.33v22.67h23.07V241H136.75Zm-87.12-1.21h85.91V239.78h23.07v-7.15H135.54V210H49.63Z" style="fill:#1d1d1b"></path><path d="M137,324.23H48.62V269.32H137V292H160v9.56H137ZM49.83,323h85.91V300.35h23.07V293.2H135.74V270.53H49.83Z" style="fill:#1d1d1b"></path><path d="M137,384.8H48.62V329.89H137v22.67H160v9.56H137Zm-87.12-1.21h85.91V360.92h23.07v-7.15H135.74V331.1H49.83Z" style="fill:#1d1d1b"></path><path d="M137,445.37H48.62V390.46H137v22.67H160v9.56H137Zm-87.12-1.21h85.91V421.49h23.07v-7.15H135.74V391.67H49.83Z" style="fill:#1d1d1b"></path><path d="M137,505.94H48.62V451H137V473.7H160v9.57H137Zm-87.12-1.21h85.91V482.06h23.07v-7.15H135.74V452.24H49.83Z" style="fill:#1d1d1b"></path><path d="M137,566.51H48.62V511.6H137v22.68H160v9.55H137ZM49.83,565.3h85.91V542.63h23.07v-7.15H135.74V512.81H49.83Z" style="fill:#1d1d1b"></path><path d="M195.19,235.71a3,3,0,0,1,.74,2.15v6.87h-1.68v-6.64a2.06,2.06,0,0,0-.38-1.43,1.44,1.44,0,0,0-1.13-.42,2.19,2.19,0,0,0-1.34.43,4.61,4.61,0,0,0-1.09,1.26v6.8h-1.68v-9.58h1.44l.15,1.41a4,4,0,0,1,1.26-1.2,3.27,3.27,0,0,1,1.67-.43A2.67,2.67,0,0,1,195.19,235.71Z" style="fill:#1d1d1b"></path><path d="M206,243.36a1.2,1.2,0,0,0,.6.43l-.38,1.16a2.51,2.51,0,0,1-1.2-.42,1.92,1.92,0,0,1-.68-1,3.2,3.2,0,0,1-2.85,1.44,3.08,3.08,0,0,1-2.24-.8,2.81,2.81,0,0,1-.82-2.09,2.77,2.77,0,0,1,1.1-2.35,5.22,5.22,0,0,1,3.12-.82h1.47v-.71a1.85,1.85,0,0,0-.49-1.45,2.21,2.21,0,0,0-1.51-.44,8.44,8.44,0,0,0-2.58.51l-.42-1.22a9.83,9.83,0,0,1,3.31-.65,3.43,3.43,0,0,1,2.53.83,3.14,3.14,0,0,1,.84,2.35v4.38A1.55,1.55,0,0,0,206,243.36Zm-1.88-1.16V240h-1.25c-1.77,0-2.66.66-2.66,2a1.79,1.79,0,0,0,.42,1.29,1.64,1.64,0,0,0,1.24.43A2.47,2.47,0,0,0,204.07,242.2Z" style="fill:#1d1d1b"></path><path d="M211.35,232.77a1.47,1.47,0,0,0-.33,1v1.33h2.33l-.18,1.29H211v8.29h-1.67v-8.29h-1.71v-1.29h1.71v-1.31a2.6,2.6,0,0,1,.79-2,3,3,0,0,1,2.21-.76,5.14,5.14,0,0,1,1.17.12,6.64,6.64,0,0,1,1.12.37l-.53,1.22a4.08,4.08,0,0,0-1.67-.36A1.5,1.5,0,0,0,211.35,232.77Z" style="fill:#1d1d1b"></path><path d="M220.12,244.29A3.67,3.67,0,0,1,218,245a2.51,2.51,0,0,1-1.9-.7,2.81,2.81,0,0,1-.68-2v-5.78h-1.68v-1.29h1.68V233l1.67-.2v2.37h2.27l-.18,1.29h-2.09v5.71a1.78,1.78,0,0,0,.26,1.08,1.05,1.05,0,0,0,.89.34,2.7,2.7,0,0,0,1.27-.39Z" style="fill:#1d1d1b"></path><path d="M228.5,243.36a1.2,1.2,0,0,0,.6.43l-.38,1.16a2.51,2.51,0,0,1-1.2-.42,1.86,1.86,0,0,1-.67-1A3.23,3.23,0,0,1,224,245a3.08,3.08,0,0,1-2.24-.8,2.81,2.81,0,0,1-.82-2.09,2.77,2.77,0,0,1,1.1-2.35,5.22,5.22,0,0,1,3.12-.82h1.48v-.71a1.89,1.89,0,0,0-.49-1.45,2.23,2.23,0,0,0-1.51-.44,8.45,8.45,0,0,0-2.59.51l-.41-1.22a9.74,9.74,0,0,1,3.31-.65,3.4,3.4,0,0,1,2.52.83,3.14,3.14,0,0,1,.84,2.35v4.38A1.55,1.55,0,0,0,228.5,243.36Zm-1.87-1.16V240h-1.26c-1.77,0-2.65.66-2.65,2a1.83,1.83,0,0,0,.41,1.29,1.66,1.66,0,0,0,1.24.43A2.5,2.5,0,0,0,226.63,242.2Z" style="fill:#1d1d1b"></path><path d="M196.36,296.19a5.31,5.31,0,0,1-1.2.24c-.43,0-1,.05-1.6.05a2.53,2.53,0,0,1,1.69,2.42,3,3,0,0,1-1,2.35,3.74,3.74,0,0,1-2.67.91,4,4,0,0,1-1.22-.18,1,1,0,0,0-.35.39,1.11,1.11,0,0,0-.12.5c0,.52.42.78,1.25.78h1.53a4,4,0,0,1,1.71.35,2.7,2.7,0,0,1,1.15.94,2.33,2.33,0,0,1,.41,1.37,2.43,2.43,0,0,1-1.14,2.15,6.15,6.15,0,0,1-3.35.76,7.58,7.58,0,0,1-2.44-.32,2.38,2.38,0,0,1-1.29-1,3.17,3.17,0,0,1-.38-1.63h1.51a1.61,1.61,0,0,0,.22.91,1.34,1.34,0,0,0,.78.51,5.54,5.54,0,0,0,1.6.18,4.54,4.54,0,0,0,2.16-.38,1.2,1.2,0,0,0,.64-1.11,1.15,1.15,0,0,0-.51-1,2.5,2.5,0,0,0-1.42-.35h-1.5a2.82,2.82,0,0,1-1.85-.52,1.61,1.61,0,0,1-.63-1.3,1.72,1.72,0,0,1,.27-.91,2.8,2.8,0,0,1,.79-.78,2.72,2.72,0,0,1-1.62-2.65,3.17,3.17,0,0,1,.48-1.73,3.2,3.2,0,0,1,1.33-1.19,4,4,0,0,1,1.88-.43,14.78,14.78,0,0,0,1.89-.08,6.56,6.56,0,0,0,1.27-.28,12.78,12.78,0,0,0,1.22-.5ZM190,297.33a2.25,2.25,0,0,0-.52,1.56,2.29,2.29,0,0,0,.52,1.57,2.23,2.23,0,0,0,3,0,2.34,2.34,0,0,0,.52-1.61,2.07,2.07,0,0,0-3.52-1.54Z" style="fill:#1d1d1b"></path><path d="M204.75,304a1.2,1.2,0,0,0,.6.43l-.38,1.16a2.51,2.51,0,0,1-1.2-.42,1.92,1.92,0,0,1-.68-1,3.2,3.2,0,0,1-2.85,1.44,3.08,3.08,0,0,1-2.24-.8,3.07,3.07,0,0,1,.28-4.44,5.22,5.22,0,0,1,3.12-.82h1.47v-.71a1.85,1.85,0,0,0-.49-1.45,2.21,2.21,0,0,0-1.51-.44,8.44,8.44,0,0,0-2.58.51l-.42-1.22a9.79,9.79,0,0,1,3.31-.65,3.43,3.43,0,0,1,2.53.83,3.14,3.14,0,0,1,.84,2.35v4.38A1.55,1.55,0,0,0,204.75,304Zm-1.88-1.16v-2.2h-1.25c-1.77,0-2.66.66-2.66,2a1.79,1.79,0,0,0,.42,1.29,1.64,1.64,0,0,0,1.24.44A2.48,2.48,0,0,0,202.87,302.81Z" style="fill:#1d1d1b"></path><path d="M212.35,295.81a5.34,5.34,0,0,1,1.49.82l-.71,1.05a5.9,5.9,0,0,0-1.24-.61,3.72,3.72,0,0,0-1.25-.2,2.22,2.22,0,0,0-1.29.33,1.06,1.06,0,0,0-.47.92,1.08,1.08,0,0,0,.44.91,5.31,5.31,0,0,0,1.61.64,5.61,5.61,0,0,1,2.39,1.09,2.37,2.37,0,0,1,.79,1.89,2.42,2.42,0,0,1-1.1,2.16,4.62,4.62,0,0,1-2.68.75,5.35,5.35,0,0,1-3.62-1.25l.89-1a4.34,4.34,0,0,0,2.69.92,2.58,2.58,0,0,0,1.51-.39,1.24,1.24,0,0,0,.55-1.06,1.42,1.42,0,0,0-.2-.79,1.57,1.57,0,0,0-.69-.53A9.93,9.93,0,0,0,210,301a5.05,5.05,0,0,1-2.21-1.07,2.32,2.32,0,0,1-.68-1.71,2.24,2.24,0,0,1,.45-1.36,2.88,2.88,0,0,1,1.23-.94,4.42,4.42,0,0,1,1.78-.34A5.37,5.37,0,0,1,212.35,295.81Z" style="fill:#1d1d1b"></path><path d="M223.22,296.89a5.54,5.54,0,0,1,1.11,3.65,6.56,6.56,0,0,1-.5,2.63,4,4,0,0,1-1.48,1.76,4.07,4.07,0,0,1-2.29.63,3.9,3.9,0,0,1-3.15-1.35,5.49,5.49,0,0,1-1.12-3.65,6.36,6.36,0,0,1,.51-2.63,4,4,0,0,1,1.47-1.76,4.12,4.12,0,0,1,2.31-.63A3.85,3.85,0,0,1,223.22,296.89Zm-5.63,3.67c0,2.44.82,3.65,2.47,3.65s2.47-1.22,2.47-3.67-.81-3.65-2.45-3.65S217.59,298.11,217.59,300.56Z" style="fill:#1d1d1b"></path><path d="M227.54,305a2.18,2.18,0,0,1-.53-1.56V291.9l1.67-.2v11.71a1,1,0,0,0,.14.59.53.53,0,0,0,.46.18,1.71,1.71,0,0,0,.62-.11l.44,1.16a2.73,2.73,0,0,1-1.33.33A2,2,0,0,1,227.54,305Z" style="fill:#1d1d1b"></path><path d="M234.1,291.48a1.11,1.11,0,0,1,.33.82,1.07,1.07,0,0,1-.33.81,1.28,1.28,0,0,1-1.69,0,1.07,1.07,0,0,1-.33-.81,1.11,1.11,0,0,1,.33-.82,1.28,1.28,0,0,1,1.69,0Zm0,4.28v9.58h-1.67v-9.58Z" style="fill:#1d1d1b"></path><path d="M244.11,296.32a3,3,0,0,1,.74,2.15v6.87h-1.67V298.7a2.13,2.13,0,0,0-.38-1.43,1.47,1.47,0,0,0-1.13-.42,2.14,2.14,0,0,0-1.35.44,4.41,4.41,0,0,0-1.09,1.25v6.8h-1.67v-9.58H239l.15,1.42a3.79,3.79,0,0,1,1.26-1.2,3.21,3.21,0,0,1,1.67-.44A2.67,2.67,0,0,1,244.11,296.32Z" style="fill:#1d1d1b"></path><path d="M254.87,304a1.2,1.2,0,0,0,.6.43l-.38,1.16a2.51,2.51,0,0,1-1.2-.42,1.91,1.91,0,0,1-.67-1,3.23,3.23,0,0,1-2.86,1.44,3.08,3.08,0,0,1-2.24-.8,2.8,2.8,0,0,1-.81-2.09,2.74,2.74,0,0,1,1.1-2.35,5.17,5.17,0,0,1,3.12-.82H253v-.71a1.89,1.89,0,0,0-.49-1.45,2.23,2.23,0,0,0-1.51-.44,8.45,8.45,0,0,0-2.59.51l-.41-1.22a9.74,9.74,0,0,1,3.31-.65,3.4,3.4,0,0,1,2.52.83,3.14,3.14,0,0,1,.84,2.35v4.38A1.55,1.55,0,0,0,254.87,304ZM253,302.81v-2.2h-1.26c-1.77,0-2.65.66-2.65,2a1.79,1.79,0,0,0,.42,1.29,1.62,1.62,0,0,0,1.23.44A2.51,2.51,0,0,0,253,302.81Z" style="fill:#1d1d1b"></path><path d="M195.88,354v13.45l-1.64-.2v-4.94a3.44,3.44,0,0,1-1.15,1.1,3.06,3.06,0,0,1-1.53.39,3,3,0,0,1-2.61-1.35,6.17,6.17,0,0,1-.94-3.62,7.16,7.16,0,0,1,.45-2.62,4.07,4.07,0,0,1,1.28-1.79,3.14,3.14,0,0,1,2-.64,3.44,3.44,0,0,1,2.64,1.29l.13-1.07Zm-2.68,8.12a4.09,4.09,0,0,0,1-1.07v-4.69a3.78,3.78,0,0,0-1-.94,2.28,2.28,0,0,0-1.19-.32,1.88,1.88,0,0,0-1.68.93,5.16,5.16,0,0,0-.6,2.77,5.44,5.44,0,0,0,.55,2.76,1.75,1.75,0,0,0,1.59.91A2.29,2.29,0,0,0,193.2,362.08Z" style="fill:#1d1d1b"></path><path d="M206.26,363.54h-1.41l-.12-1.49a3.62,3.62,0,0,1-1.24,1.3,3.28,3.28,0,0,1-1.69.41,2.49,2.49,0,0,1-1.93-.77,3.11,3.11,0,0,1-.69-2.16V354h1.64v6.69a2.18,2.18,0,0,0,.34,1.39,1.35,1.35,0,0,0,1.1.41,2.79,2.79,0,0,0,2.36-1.66V354h1.64Z" style="fill:#1d1d1b"></path><path d="M216.71,359.32h-6a3.79,3.79,0,0,0,.78,2.33,2.25,2.25,0,0,0,1.75.74,3.6,3.6,0,0,0,1.25-.2,5,5,0,0,0,1.2-.63l.71,1a5.13,5.13,0,0,1-3.28,1.2,3.78,3.78,0,0,1-3.06-1.31,5.43,5.43,0,0,1-1.1-3.6,7,7,0,0,1,.47-2.65,4.2,4.2,0,0,1,1.36-1.81,3.43,3.43,0,0,1,2.08-.65,3.47,3.47,0,0,1,2.87,1.25,5.5,5.5,0,0,1,1,3.48A8.32,8.32,0,0,1,216.71,359.32ZM215.12,358a3.59,3.59,0,0,0-.55-2.16,1.93,1.93,0,0,0-1.66-.75c-1.34,0-2.07,1-2.19,3h4.4Z" style="fill:#1d1d1b"></path><path d="M224.38,353.85l-.3,1.63a3.5,3.5,0,0,0-.82-.11,1.71,1.71,0,0,0-1.41.66,4.83,4.83,0,0,0-.84,2v5.47h-1.64V354h1.41l.16,1.94a3.71,3.71,0,0,1,1-1.62,2.22,2.22,0,0,1,1.49-.54A3.39,3.39,0,0,1,224.38,353.85Z" style="fill:#1d1d1b"></path><path d="M232.86,355.08a5.64,5.64,0,0,1,1.1,3.66,6.56,6.56,0,0,1-.5,2.63,3.83,3.83,0,0,1-3.69,2.39,3.78,3.78,0,0,1-3.09-1.35,5.54,5.54,0,0,1-1.1-3.65,6.53,6.53,0,0,1,.49-2.63,3.82,3.82,0,0,1,3.72-2.39A3.75,3.75,0,0,1,232.86,355.08Zm-5.52,3.68q0,3.64,2.43,3.65t2.42-3.67q0-3.66-2.4-3.66T227.34,358.76Z" style="fill:#1d1d1b"></path><path d="M241,354a5,5,0,0,1,1.46.82l-.69,1.05a5.55,5.55,0,0,0-1.22-.61,3.6,3.6,0,0,0-1.22-.21,2.15,2.15,0,0,0-1.27.34,1.15,1.15,0,0,0,0,1.83,5.06,5.06,0,0,0,1.58.64,5.54,5.54,0,0,1,2.35,1.09,2.42,2.42,0,0,1,.77,1.89A2.46,2.46,0,0,1,241.6,363a4.48,4.48,0,0,1-2.63.75,5.12,5.12,0,0,1-3.55-1.26l.88-1a4.17,4.17,0,0,0,2.64.93,2.51,2.51,0,0,0,1.47-.39A1.24,1.24,0,0,0,241,361a1.42,1.42,0,0,0-.19-.79,1.66,1.66,0,0,0-.68-.53,9.32,9.32,0,0,0-1.41-.48,4.82,4.82,0,0,1-2.17-1.08,2.34,2.34,0,0,1-.67-1.71,2.29,2.29,0,0,1,.44-1.35,2.89,2.89,0,0,1,1.21-.95,4.42,4.42,0,0,1,1.74-.33A5.19,5.19,0,0,1,241,354Z" style="fill:#1d1d1b"></path><path d="M252.06,359.32h-6a3.72,3.72,0,0,0,.79,2.33,2.23,2.23,0,0,0,1.74.74,3.6,3.6,0,0,0,1.25-.2,5,5,0,0,0,1.2-.63l.71,1a5.13,5.13,0,0,1-3.28,1.2,3.78,3.78,0,0,1-3.06-1.31,5.43,5.43,0,0,1-1.1-3.6,7,7,0,0,1,.47-2.65,4.2,4.2,0,0,1,1.36-1.81,3.43,3.43,0,0,1,2.08-.65A3.47,3.47,0,0,1,251.1,355a5.44,5.44,0,0,1,1,3.48A8.32,8.32,0,0,1,252.06,359.32ZM250.48,358a3.59,3.59,0,0,0-.56-2.16,1.93,1.93,0,0,0-1.66-.75c-1.34,0-2.07,1-2.19,3h4.41Z" style="fill:#1d1d1b"></path><path d="M261.15,354.52a3.05,3.05,0,0,1,.72,2.15v6.87h-1.64V356.9a2.17,2.17,0,0,0-.37-1.44,1.44,1.44,0,0,0-1.11-.41,2.11,2.11,0,0,0-1.32.43,4.43,4.43,0,0,0-1.07,1.26v6.8h-1.64V354h1.41l.14,1.41a3.83,3.83,0,0,1,1.24-1.2,3.18,3.18,0,0,1,1.63-.43A2.6,2.6,0,0,1,261.15,354.52Z" style="fill:#1d1d1b"></path><path d="M272.24,359.32h-6a3.78,3.78,0,0,0,.79,2.33,2.23,2.23,0,0,0,1.75.74,3.55,3.55,0,0,0,1.24-.2,4.8,4.8,0,0,0,1.2-.63l.71,1a5.13,5.13,0,0,1-3.28,1.2,3.78,3.78,0,0,1-3.06-1.31,5.43,5.43,0,0,1-1.1-3.6,6.85,6.85,0,0,1,.48-2.65,4.1,4.1,0,0,1,1.35-1.81,3.81,3.81,0,0,1,4.95.6,5.44,5.44,0,0,1,1,3.48C272.27,358.74,272.26,359,272.24,359.32ZM270.65,358a3.66,3.66,0,0,0-.55-2.16,1.94,1.94,0,0,0-1.66-.75c-1.35,0-2.08,1-2.2,3h4.41Z" style="fill:#1d1d1b"></path><path d="M195.37,415.48a5.54,5.54,0,0,1,1.12,3.66,6.39,6.39,0,0,1-.51,2.63,4,4,0,0,1-1.47,1.76,4.09,4.09,0,0,1-2.29.63,3.87,3.87,0,0,1-3.15-1.35,5.5,5.5,0,0,1-1.13-3.65,6.36,6.36,0,0,1,.51-2.63,3.9,3.9,0,0,1,1.48-1.76,4.12,4.12,0,0,1,2.31-.63A3.86,3.86,0,0,1,195.37,415.48Zm-5.63,3.68c0,2.44.83,3.65,2.48,3.65s2.47-1.22,2.47-3.67-.82-3.66-2.45-3.66S189.74,416.71,189.74,419.16Zm3.91-9.79.75,1.4-3.86,1.57-.51-.89Z" style="fill:#1d1d1b"></path><path d="M199.7,423.6a2.12,2.12,0,0,1-.54-1.55V410.5l1.68-.2V422a1,1,0,0,0,.13.59.57.57,0,0,0,.47.18,1.75,1.75,0,0,0,.62-.11l.43,1.16a2.69,2.69,0,0,1-1.32.33A2,2,0,0,1,199.7,423.6Z" style="fill:#1d1d1b"></path><path d="M211.79,419.72h-6.11a3.72,3.72,0,0,0,.8,2.33,2.3,2.3,0,0,0,1.78.75,4,4,0,0,0,1.27-.2,5.33,5.33,0,0,0,1.22-.64l.73,1a5.32,5.32,0,0,1-3.35,1.2,3.9,3.9,0,0,1-3.12-1.31,5.39,5.39,0,0,1-1.12-3.6,6.7,6.7,0,0,1,.49-2.65,4.16,4.16,0,0,1,1.38-1.81,3.93,3.93,0,0,1,5,.6,5.38,5.38,0,0,1,1,3.48C211.82,419.15,211.81,419.43,211.79,419.72Zm-1.62-1.34a3.53,3.53,0,0,0-.57-2.17,2,2,0,0,0-1.69-.74c-1.37,0-2.11,1-2.23,3h4.49Z" style="fill:#1d1d1b"></path><path d="M221.24,415.48a5.59,5.59,0,0,1,1.11,3.66,6.39,6.39,0,0,1-.51,2.63,4,4,0,0,1-1.47,1.76,4.09,4.09,0,0,1-2.29.63,3.89,3.89,0,0,1-3.15-1.35,5.49,5.49,0,0,1-1.12-3.65,6.36,6.36,0,0,1,.51-2.63,3.88,3.88,0,0,1,1.47-1.76,4.12,4.12,0,0,1,2.31-.63A3.89,3.89,0,0,1,221.24,415.48Zm-5.63,3.68c0,2.44.82,3.65,2.47,3.65s2.47-1.22,2.47-3.67-.81-3.66-2.45-3.66S215.61,416.71,215.61,419.16Z" style="fill:#1d1d1b"></path><path d="M237.36,410.5v13.44h-1.48l-.16-1.33a3.38,3.38,0,0,1-1.18,1.14,3.13,3.13,0,0,1-1.58.41,3.09,3.09,0,0,1-2.67-1.35,6.17,6.17,0,0,1-.95-3.62,7.07,7.07,0,0,1,.45-2.61,4,4,0,0,1,1.31-1.8,3.23,3.23,0,0,1,2-.64,3.41,3.41,0,0,1,2.58,1.18v-5Zm-2.73,12a4.12,4.12,0,0,0,1.05-1.07v-4.69a3.81,3.81,0,0,0-1-.94,2.37,2.37,0,0,0-1.21-.31,1.93,1.93,0,0,0-1.72.92,5.06,5.06,0,0,0-.61,2.77,5.4,5.4,0,0,0,.56,2.76,1.8,1.8,0,0,0,1.62.91A2.39,2.39,0,0,0,234.63,422.48Z" style="fill:#1d1d1b"></path><path d="M242.49,410.08a1.14,1.14,0,0,1,.32.82,1.1,1.1,0,0,1-.32.81,1.2,1.2,0,0,1-.86.32,1.13,1.13,0,0,1-.83-.32,1.07,1.07,0,0,1-.33-.81,1.11,1.11,0,0,1,.33-.82,1.09,1.09,0,0,1,.83-.32A1.16,1.16,0,0,1,242.49,410.08Zm0,4.28v9.58h-1.68v-9.58Z" style="fill:#1d1d1b"></path><path d="M253.14,419.72H247a3.78,3.78,0,0,0,.8,2.33,2.33,2.33,0,0,0,1.79.75,4,4,0,0,0,1.27-.2,5.54,5.54,0,0,0,1.22-.64l.72,1a5.27,5.27,0,0,1-3.34,1.2,3.9,3.9,0,0,1-3.12-1.31,5.33,5.33,0,0,1-1.12-3.6,6.88,6.88,0,0,1,.48-2.65,4.18,4.18,0,0,1,1.39-1.81,3.52,3.52,0,0,1,2.11-.65,3.56,3.56,0,0,1,2.93,1.25,5.38,5.38,0,0,1,1,3.48A8.19,8.19,0,0,1,253.14,419.72Zm-1.61-1.34a3.53,3.53,0,0,0-.57-2.17,2,2,0,0,0-1.69-.74c-1.37,0-2.11,1-2.24,3h4.5Z" style="fill:#1d1d1b"></path><path d="M260.22,414.41a5.34,5.34,0,0,1,1.49.82l-.71,1a5.9,5.9,0,0,0-1.24-.61,3.72,3.72,0,0,0-1.25-.2,2.2,2.2,0,0,0-1.29.33,1.15,1.15,0,0,0,0,1.83,5.31,5.31,0,0,0,1.61.64,5.67,5.67,0,0,1,2.39,1.09,2.37,2.37,0,0,1,.79,1.89,2.43,2.43,0,0,1-1.1,2.16,4.62,4.62,0,0,1-2.68.75,5.3,5.3,0,0,1-3.62-1.26l.89-1a4.38,4.38,0,0,0,2.69.92,2.57,2.57,0,0,0,1.5-.39,1.23,1.23,0,0,0,.56-1.06,1.42,1.42,0,0,0-.2-.79,1.57,1.57,0,0,0-.69-.53,9.93,9.93,0,0,0-1.44-.48,4.94,4.94,0,0,1-2.21-1.08,2.28,2.28,0,0,1-.68-1.7,2.24,2.24,0,0,1,.45-1.36,2.89,2.89,0,0,1,1.23-.95,4.58,4.58,0,0,1,1.77-.33A5.39,5.39,0,0,1,260.22,414.41Z" style="fill:#1d1d1b"></path><path d="M271.55,419.72h-6.11a3.72,3.72,0,0,0,.8,2.33,2.3,2.3,0,0,0,1.78.75,3.93,3.93,0,0,0,1.27-.2,5.33,5.33,0,0,0,1.22-.64l.73,1a5.3,5.3,0,0,1-3.35,1.2,3.87,3.87,0,0,1-3.11-1.31,5.33,5.33,0,0,1-1.12-3.6,6.88,6.88,0,0,1,.48-2.65,4.16,4.16,0,0,1,1.38-1.81,3.94,3.94,0,0,1,5.05.6,5.38,5.38,0,0,1,1,3.48C271.59,419.15,271.57,419.43,271.55,419.72Zm-1.62-1.34a3.6,3.6,0,0,0-.56-2.17,2,2,0,0,0-1.69-.74c-1.37,0-2.12,1-2.24,3h4.49Z" style="fill:#1d1d1b"></path><path d="M274.7,423.6a2.16,2.16,0,0,1-.53-1.55V410.5l1.67-.2V422a1,1,0,0,0,.14.59.53.53,0,0,0,.46.18,1.71,1.71,0,0,0,.62-.11l.44,1.16a2.73,2.73,0,0,1-1.33.33A2,2,0,0,1,274.7,423.6Z" style="fill:#1d1d1b"></path><path d="M197.12,117.33a5.31,5.31,0,0,1-1.2.24c-.44,0-1,.05-1.6.05A2.53,2.53,0,0,1,196,120a3.08,3.08,0,0,1-1,2.35,3.82,3.82,0,0,1-2.67.9,4,4,0,0,1-1.22-.18,1.1,1.1,0,0,0-.35.39,1.16,1.16,0,0,0-.13.5c0,.52.42.79,1.26.79h1.53a4,4,0,0,1,1.71.34,2.78,2.78,0,0,1,1.15,1,2.37,2.37,0,0,1,.41,1.36,2.44,2.44,0,0,1-1.15,2.16,6.1,6.1,0,0,1-3.34.75,7.65,7.65,0,0,1-2.45-.32,2.3,2.3,0,0,1-1.28-.95,3.11,3.11,0,0,1-.38-1.64h1.51a1.63,1.63,0,0,0,.22.92,1.37,1.37,0,0,0,.78.51,5.93,5.93,0,0,0,1.6.17,4.55,4.55,0,0,0,2.15-.37,1.22,1.22,0,0,0,.65-1.12,1.15,1.15,0,0,0-.51-1,2.51,2.51,0,0,0-1.42-.34h-1.51a2.89,2.89,0,0,1-1.85-.52,1.64,1.64,0,0,1-.62-1.3,1.69,1.69,0,0,1,.27-.91,2.63,2.63,0,0,1,.78-.78,3,3,0,0,1-1.22-1.09,2.89,2.89,0,0,1-.4-1.57,3.12,3.12,0,0,1,.49-1.73,3.31,3.31,0,0,1,1.32-1.19,4.2,4.2,0,0,1,1.89-.43,11.83,11.83,0,0,0,1.89-.08,6.35,6.35,0,0,0,1.26-.27c.34-.12.74-.28,1.23-.5Zm-6.34,1.14a2.29,2.29,0,0,0-.52,1.55,2.26,2.26,0,0,0,.53,1.57,1.87,1.87,0,0,0,1.49.59,1.91,1.91,0,0,0,1.5-.57,2.29,2.29,0,0,0,.52-1.61c0-1.42-.68-2.13-2.05-2.13A1.85,1.85,0,0,0,190.78,118.47Z" style="fill:#1d1d1b"></path><path d="M205.34,125.1a1.2,1.2,0,0,0,.6.43l-.38,1.17a2.62,2.62,0,0,1-1.2-.42,1.86,1.86,0,0,1-.67-1,3.23,3.23,0,0,1-2.86,1.44,3,3,0,0,1-2.24-.81,2.81,2.81,0,0,1-.82-2.09,2.75,2.75,0,0,1,1.1-2.34,5.15,5.15,0,0,1,3.12-.82h1.48v-.71a1.92,1.92,0,0,0-.49-1.46,2.23,2.23,0,0,0-1.51-.43,8.45,8.45,0,0,0-2.59.51l-.41-1.22a9.54,9.54,0,0,1,3.31-.66,3.45,3.45,0,0,1,2.52.83,3.16,3.16,0,0,1,.84,2.36v4.38A1.49,1.49,0,0,0,205.34,125.1Zm-2.2-13.19.74,1.4L200,114.87l-.51-.89Zm.33,12v-2.2h-1.26c-1.77,0-2.65.65-2.65,2A1.83,1.83,0,0,0,200,125a1.62,1.62,0,0,0,1.24.44A2.51,2.51,0,0,0,203.47,124Z" style="fill:#1d1d1b"></path><path d="M212.78,117a5.09,5.09,0,0,1,1.49.82l-.71,1a6.23,6.23,0,0,0-1.24-.62,4,4,0,0,0-1.25-.2,2.13,2.13,0,0,0-1.29.34,1,1,0,0,0-.47.92,1.07,1.07,0,0,0,.44.91,5.25,5.25,0,0,0,1.61.63,5.79,5.79,0,0,1,2.39,1.09,2.39,2.39,0,0,1,.79,1.9,2.44,2.44,0,0,1-1.1,2.16,4.62,4.62,0,0,1-2.68.75,5.3,5.3,0,0,1-3.62-1.26l.89-1a4.33,4.33,0,0,0,2.69.93,2.57,2.57,0,0,0,1.5-.39,1.25,1.25,0,0,0,.56-1.07,1.44,1.44,0,0,0-.2-.79,1.62,1.62,0,0,0-.69-.52,8.69,8.69,0,0,0-1.44-.49,4.84,4.84,0,0,1-2.21-1.07,2.32,2.32,0,0,1-.68-1.71A2.25,2.25,0,0,1,208,118a2.93,2.93,0,0,1,1.24-.95,4.58,4.58,0,0,1,1.77-.34A5.39,5.39,0,0,1,212.78,117Z" style="fill:#1d1d1b"></path><path d="M196,695.81a1.28,1.28,0,0,0,.6.42l-.38,1.17A2.55,2.55,0,0,1,195,697a1.91,1.91,0,0,1-.67-1,3.22,3.22,0,0,1-2.86,1.44,3.06,3.06,0,0,1-2.23-.8,2.79,2.79,0,0,1-.82-2.09,2.73,2.73,0,0,1,1.1-2.35,5.11,5.11,0,0,1,3.12-.82h1.47v-.71a1.84,1.84,0,0,0-.49-1.45,2.23,2.23,0,0,0-1.51-.44,8.44,8.44,0,0,0-2.58.51l-.42-1.22a9.55,9.55,0,0,1,3.31-.65,3.47,3.47,0,0,1,2.53.82,3.22,3.22,0,0,1,.83,2.36v4.38A1.55,1.55,0,0,0,196,695.81Zm-1.87-1.16v-2.2h-1.25c-1.77,0-2.66.65-2.66,2a1.83,1.83,0,0,0,.42,1.3,1.64,1.64,0,0,0,1.24.43A2.51,2.51,0,0,0,194.14,694.65Z" style="fill:#1d1d1b"></path><path d="M203.45,687.65a5.09,5.09,0,0,1,1.49.82l-.71,1a6,6,0,0,0-1.24-.62,4,4,0,0,0-1.25-.2,2.24,2.24,0,0,0-1.29.34,1.15,1.15,0,0,0,0,1.83,5.1,5.1,0,0,0,1.61.63,5.73,5.73,0,0,1,2.39,1.1,2.38,2.38,0,0,1,.8,1.89,2.46,2.46,0,0,1-1.1,2.16,4.68,4.68,0,0,1-2.69.75,5.3,5.3,0,0,1-3.62-1.26l.89-1a4.36,4.36,0,0,0,2.7.93,2.57,2.57,0,0,0,1.5-.39,1.22,1.22,0,0,0,.55-1.06,1.42,1.42,0,0,0-.2-.79,1.51,1.51,0,0,0-.69-.53,9.93,9.93,0,0,0-1.44-.48,5,5,0,0,1-2.21-1.08,2.32,2.32,0,0,1-.68-1.71,2.21,2.21,0,0,1,.45-1.35,2.89,2.89,0,0,1,1.23-.95,4.59,4.59,0,0,1,1.78-.33A5.37,5.37,0,0,1,203.45,687.65Z" style="fill:#1d1d1b"></path><path d="M209.58,685.22a1.45,1.45,0,0,0-.33,1v1.32h2.33l-.18,1.3h-2.15v8.29h-1.67v-8.29h-1.71v-1.3h1.71v-1.31a2.63,2.63,0,0,1,.79-2,3.1,3.1,0,0,1,2.21-.75,5.14,5.14,0,0,1,1.17.12,6.64,6.64,0,0,1,1.12.37l-.52,1.22a4.18,4.18,0,0,0-1.68-.37A1.5,1.5,0,0,0,209.58,685.22Z" style="fill:#1d1d1b"></path><path d="M220,695.81a1.28,1.28,0,0,0,.6.42l-.38,1.17A2.51,2.51,0,0,1,219,697a1.91,1.91,0,0,1-.67-1,3.23,3.23,0,0,1-2.86,1.44,3.1,3.1,0,0,1-2.24-.8,2.82,2.82,0,0,1-.81-2.09,2.73,2.73,0,0,1,1.1-2.35,5.11,5.11,0,0,1,3.12-.82h1.47v-.71a1.84,1.84,0,0,0-.49-1.45,2.23,2.23,0,0,0-1.51-.44,8.34,8.34,0,0,0-2.58.51l-.42-1.22a9.55,9.55,0,0,1,3.31-.65,3.47,3.47,0,0,1,2.53.82,3.22,3.22,0,0,1,.83,2.36v4.38A1.55,1.55,0,0,0,220,695.81Zm-1.87-1.16v-2.2h-1.26c-1.77,0-2.65.65-2.65,2a1.83,1.83,0,0,0,.42,1.3,1.63,1.63,0,0,0,1.23.43A2.51,2.51,0,0,0,218.13,694.65Z" style="fill:#1d1d1b"></path><path d="M223.52,696.84a2.13,2.13,0,0,1-.53-1.55V683.74l1.67-.2v11.71a1,1,0,0,0,.13.58.57.57,0,0,0,.47.19,1.71,1.71,0,0,0,.62-.11l.43,1.16a2.69,2.69,0,0,1-1.32.33A2,2,0,0,1,223.52,696.84Z" style="fill:#1d1d1b"></path><path d="M233.08,696.74a3.67,3.67,0,0,1-2.15.66,2.57,2.57,0,0,1-1.9-.7,2.83,2.83,0,0,1-.68-2v-5.78h-1.67v-1.3h1.67v-2.16l1.67-.2v2.36h2.28l-.18,1.3H230v5.71a1.75,1.75,0,0,0,.27,1.08,1.06,1.06,0,0,0,.88.34,2.7,2.7,0,0,0,1.27-.39Z" style="fill:#1d1d1b"></path><path d="M241.38,688.72a5.54,5.54,0,0,1,1.12,3.66A6.39,6.39,0,0,1,242,695a4,4,0,0,1-1.47,1.76,4.12,4.12,0,0,1-2.29.63,3.87,3.87,0,0,1-3.15-1.35A5.51,5.51,0,0,1,234,692.4a6.36,6.36,0,0,1,.51-2.63,4,4,0,0,1,1.47-1.77,4.24,4.24,0,0,1,2.31-.62A3.83,3.83,0,0,1,241.38,688.72Zm-5.63,3.68q0,3.65,2.48,3.65c1.64,0,2.47-1.22,2.47-3.67s-.82-3.66-2.46-3.66S235.75,690,235.75,692.4Z" style="fill:#1d1d1b"></path><path d="M195.17,477.87a5.54,5.54,0,0,1,1.12,3.66,6.39,6.39,0,0,1-.51,2.63,4,4,0,0,1-1.47,1.76,4.09,4.09,0,0,1-2.29.63,3.87,3.87,0,0,1-3.15-1.35,5.5,5.5,0,0,1-1.13-3.65,6.36,6.36,0,0,1,.51-2.63,4,4,0,0,1,1.48-1.77,4.19,4.19,0,0,1,2.31-.62A3.86,3.86,0,0,1,195.17,477.87Zm-5.63,3.68q0,3.65,2.48,3.65t2.47-3.67q0-3.66-2.45-3.66C190.38,477.87,189.54,479.1,189.54,481.55Zm3.91-9.79.75,1.4-3.85,1.57-.51-.89Z" style="fill:#1d1d1b"></path><path d="M199.5,486a2.11,2.11,0,0,1-.53-1.55V472.89l1.67-.2V484.4a.9.9,0,0,0,.14.58.51.51,0,0,0,.46.19,1.71,1.71,0,0,0,.62-.11l.43,1.16a2.69,2.69,0,0,1-1.32.33A2,2,0,0,1,199.5,486Z" style="fill:#1d1d1b"></path><path d="M211.59,482.11h-6.11a3.72,3.72,0,0,0,.8,2.33,2.3,2.3,0,0,0,1.78.74,3.72,3.72,0,0,0,1.27-.2,4.9,4.9,0,0,0,1.22-.63l.73,1a5.32,5.32,0,0,1-3.35,1.2,3.9,3.9,0,0,1-3.12-1.31,5.38,5.38,0,0,1-1.11-3.6,6.85,6.85,0,0,1,.48-2.65,4.16,4.16,0,0,1,1.38-1.81,3.94,3.94,0,0,1,5.05.6,5.44,5.44,0,0,1,1,3.48C211.62,481.54,211.61,481.82,211.59,482.11ZM210,480.77a3.6,3.6,0,0,0-.56-2.17,2,2,0,0,0-1.7-.75c-1.37,0-2.11,1-2.23,3H210Z" style="fill:#1d1d1b"></path><path d="M221,477.87a5.59,5.59,0,0,1,1.11,3.66,6.56,6.56,0,0,1-.5,2.63,3.93,3.93,0,0,1-3.77,2.39,3.89,3.89,0,0,1-3.15-1.35,5.49,5.49,0,0,1-1.12-3.65,6.36,6.36,0,0,1,.51-2.63,4,4,0,0,1,1.47-1.77,4.19,4.19,0,0,1,2.31-.62A3.89,3.89,0,0,1,221,477.87Zm-5.63,3.68q0,3.65,2.47,3.65t2.47-3.67c0-2.44-.81-3.66-2.45-3.66S215.41,479.1,215.41,481.55Z" style="fill:#1d1d1b"></path><path d="M230.18,486a2.16,2.16,0,0,1-.53-1.55V472.89l1.67-.2V484.4a1,1,0,0,0,.14.58.51.51,0,0,0,.46.19,1.71,1.71,0,0,0,.62-.11l.44,1.16a2.76,2.76,0,0,1-1.33.33A2,2,0,0,1,230.18,486Z" style="fill:#1d1d1b"></path><path d="M242.2,486.33h-1.44l-.13-1.49a3.64,3.64,0,0,1-1.25,1.3,3.43,3.43,0,0,1-1.73.41,2.53,2.53,0,0,1-2-.77,3,3,0,0,1-.71-2.16v-6.87h1.67v6.69a2.18,2.18,0,0,0,.34,1.39,1.43,1.43,0,0,0,1.13.41,2.82,2.82,0,0,0,2.4-1.66v-6.83h1.68Z" style="fill:#1d1d1b"></path><path d="M252.64,477.85a6.13,6.13,0,0,1,1,3.68,7.14,7.14,0,0,1-.45,2.63,4,4,0,0,1-1.31,1.76,3.29,3.29,0,0,1-2,.63,3.19,3.19,0,0,1-2.55-1.27l-.16,1.05h-1.48V472.89l1.68-.2V478a3.19,3.19,0,0,1,2.7-1.42A3.07,3.07,0,0,1,252.64,477.85Zm-1.47,6.47a4.92,4.92,0,0,0,.63-2.79,5.17,5.17,0,0,0-.58-2.81,1.88,1.88,0,0,0-1.66-.87,2.69,2.69,0,0,0-2.23,1.5v4.58a3,3,0,0,0,.93.95,2.18,2.18,0,0,0,1.18.34A2,2,0,0,0,251.17,484.32Z" style="fill:#1d1d1b"></path><path d="M261.57,476.64l-.31,1.63a3.59,3.59,0,0,0-.84-.11,1.79,1.79,0,0,0-1.44.66,4.82,4.82,0,0,0-.85,2v5.47h-1.68v-9.58h1.44l.17,1.94a3.72,3.72,0,0,1,1-1.62,2.35,2.35,0,0,1,1.53-.54A3.64,3.64,0,0,1,261.57,476.64Z" style="fill:#1d1d1b"></path><path d="M265.15,472.47a1.11,1.11,0,0,1,.33.82,1.07,1.07,0,0,1-.33.81,1.2,1.2,0,0,1-.86.32,1.13,1.13,0,0,1-.83-.32,1.07,1.07,0,0,1-.33-.81,1.13,1.13,0,0,1,1.16-1.15A1.17,1.17,0,0,1,265.15,472.47Zm0,4.28v9.58h-1.68v-9.58Z" style="fill:#1d1d1b"></path><path d="M273.29,472.85a6.23,6.23,0,0,1,1.26.5l-.58,1.16a4.67,4.67,0,0,0-2-.46,2,2,0,0,0-1.33.35,1.43,1.43,0,0,0-.36,1.07v1.28h5.35v9.58h-1.68V478h-3.67v8.29h-1.67V478h-1.53v-1.29h1.53v-1.26a2.67,2.67,0,0,1,.81-2,3.56,3.56,0,0,1,2.5-.76A5.53,5.53,0,0,1,273.29,472.85Z" style="fill:#1d1d1b"></path><path d="M284.12,476.77a4.63,4.63,0,0,1,1.36.79l-.8,1.06a4.43,4.43,0,0,0-1-.54,3.29,3.29,0,0,0-1.07-.17,2.07,2.07,0,0,0-1.8.93,4.8,4.8,0,0,0-.65,2.74,4.52,4.52,0,0,0,.64,2.69,2.12,2.12,0,0,0,1.81.86,3.11,3.11,0,0,0,1-.17,5.24,5.24,0,0,0,1.06-.56l.76,1.09a4.52,4.52,0,0,1-2.93,1.06,3.81,3.81,0,0,1-3.06-1.31,5.37,5.37,0,0,1-1.12-3.62,6.49,6.49,0,0,1,.51-2.67,4.16,4.16,0,0,1,1.44-1.79,3.92,3.92,0,0,1,2.23-.63A4.92,4.92,0,0,1,284.12,476.77Z" style="fill:#1d1d1b"></path><path d="M294.41,485a1.19,1.19,0,0,0,.6.42l-.38,1.17a2.51,2.51,0,0,1-1.2-.42,1.86,1.86,0,0,1-.67-1,3.23,3.23,0,0,1-2.86,1.44,3.08,3.08,0,0,1-2.24-.8,2.81,2.81,0,0,1-.82-2.09,2.75,2.75,0,0,1,1.11-2.35,5.16,5.16,0,0,1,3.11-.82h1.48v-.71a1.88,1.88,0,0,0-.49-1.45,2.23,2.23,0,0,0-1.51-.44,8.45,8.45,0,0,0-2.59.51l-.41-1.22a9.74,9.74,0,0,1,3.31-.65,3.44,3.44,0,0,1,2.52.82,3.18,3.18,0,0,1,.84,2.36v4.38A1.55,1.55,0,0,0,294.41,485Zm-1.87-1.16v-2.2h-1.26c-1.77,0-2.65.66-2.65,2a1.83,1.83,0,0,0,.41,1.29,1.66,1.66,0,0,0,1.24.43A2.5,2.5,0,0,0,292.54,483.8Z" style="fill:#1d1d1b"></path><path d="M304.2,477.31a3,3,0,0,1,.74,2.15v6.87h-1.67v-6.64a2.11,2.11,0,0,0-.38-1.43,1.47,1.47,0,0,0-1.13-.42,2.2,2.2,0,0,0-1.35.43,4.47,4.47,0,0,0-1.09,1.26v6.8h-1.67v-9.58h1.43l.15,1.41a3.89,3.89,0,0,1,1.26-1.2,3.3,3.3,0,0,1,1.67-.43A2.67,2.67,0,0,1,304.2,477.31Z" style="fill:#1d1d1b"></path><path d="M313.14,485.89a3.64,3.64,0,0,1-2.14.66,2.54,2.54,0,0,1-1.9-.7,2.77,2.77,0,0,1-.69-2V478h-1.67v-1.29h1.67v-2.17l1.68-.2v2.37h2.27l-.18,1.29h-2.09v5.71a1.74,1.74,0,0,0,.26,1.08,1.07,1.07,0,0,0,.88.34,2.74,2.74,0,0,0,1.28-.39Z" style="fill:#1d1d1b"></path><path d="M322.07,482.11H316a3.72,3.72,0,0,0,.8,2.33,2.31,2.31,0,0,0,1.78.74,3.78,3.78,0,0,0,1.28-.2,5.27,5.27,0,0,0,1.22-.63l.72,1a5.29,5.29,0,0,1-3.34,1.2,3.88,3.88,0,0,1-3.12-1.31,5.33,5.33,0,0,1-1.12-3.6,6.85,6.85,0,0,1,.48-2.65,4.16,4.16,0,0,1,1.38-1.81,3.94,3.94,0,0,1,5,.6,5.38,5.38,0,0,1,1,3.48A8.19,8.19,0,0,1,322.07,482.11Zm-1.62-1.34a3.53,3.53,0,0,0-.56-2.17,2,2,0,0,0-1.69-.75c-1.37,0-2.12,1-2.24,3h4.49Z" style="fill:#1d1d1b"></path><path d="M195.17,537.61a5.52,5.52,0,0,1,1.12,3.66,6.31,6.31,0,0,1-.51,2.62,4,4,0,0,1-1.47,1.77,4.09,4.09,0,0,1-2.29.62,3.87,3.87,0,0,1-3.15-1.34,5.54,5.54,0,0,1-1.13-3.66,6.39,6.39,0,0,1,.51-2.63,4,4,0,0,1,1.48-1.76,4.12,4.12,0,0,1,2.31-.63A3.83,3.83,0,0,1,195.17,537.61Zm-5.63,3.67q0,3.66,2.48,3.66c1.65,0,2.47-1.23,2.47-3.67s-.82-3.66-2.45-3.66S189.54,538.83,189.54,541.28Zm3.91-9.78.75,1.4-3.85,1.56-.51-.89Z" style="fill:#1d1d1b"></path><path d="M199.5,545.73a2.14,2.14,0,0,1-.53-1.56V532.63l1.67-.2v11.71a.92.92,0,0,0,.14.58.53.53,0,0,0,.46.18,1.52,1.52,0,0,0,.62-.11l.43,1.17a2.69,2.69,0,0,1-1.32.32A2,2,0,0,1,199.5,545.73Z" style="fill:#1d1d1b"></path><path d="M211.59,541.85h-6.11a3.69,3.69,0,0,0,.8,2.32,2.3,2.3,0,0,0,1.78.75,4,4,0,0,0,1.27-.2,5,5,0,0,0,1.22-.64l.73,1a5.32,5.32,0,0,1-3.35,1.2,3.87,3.87,0,0,1-3.12-1.31,5.38,5.38,0,0,1-1.11-3.6,6.83,6.83,0,0,1,.48-2.64,4.1,4.1,0,0,1,1.38-1.81,3.49,3.49,0,0,1,2.12-.66,3.56,3.56,0,0,1,2.93,1.26,5.39,5.39,0,0,1,1,3.47C211.62,541.27,211.61,541.56,211.59,541.85ZM210,540.5a3.57,3.57,0,0,0-.56-2.16,2,2,0,0,0-1.7-.75c-1.37,0-2.11,1-2.23,3H210Z" style="fill:#1d1d1b"></path><path d="M221,537.61a5.57,5.57,0,0,1,1.11,3.66,6.48,6.48,0,0,1-.5,2.62,3.9,3.9,0,0,1-3.77,2.39,3.88,3.88,0,0,1-3.15-1.34,5.54,5.54,0,0,1-1.12-3.66,6.39,6.39,0,0,1,.51-2.63,4,4,0,0,1,1.47-1.76,4.12,4.12,0,0,1,2.31-.63A3.87,3.87,0,0,1,221,537.61Zm-5.63,3.67q0,3.66,2.47,3.66c1.65,0,2.47-1.23,2.47-3.67s-.81-3.66-2.45-3.66S215.41,538.83,215.41,541.28Z" style="fill:#1d1d1b"></path><path d="M234.79,536.51a4.35,4.35,0,0,1,1.37.79l-.8,1.05a4,4,0,0,0-1-.53,3,3,0,0,0-1.07-.17,2.08,2.08,0,0,0-1.81.92,4.84,4.84,0,0,0-.64,2.75,4.56,4.56,0,0,0,.63,2.68,2.12,2.12,0,0,0,1.82.87,2.91,2.91,0,0,0,1-.18,4.86,4.86,0,0,0,1-.55l.77,1.09a4.58,4.58,0,0,1-2.93,1,3.78,3.78,0,0,1-3.06-1.31,5.34,5.34,0,0,1-1.12-3.61,6.57,6.57,0,0,1,.51-2.68A4.13,4.13,0,0,1,231,536.9a3.92,3.92,0,0,1,2.23-.64A4.81,4.81,0,0,1,234.79,536.51Z" style="fill:#1d1d1b"></path><path d="M245.17,537.61a5.52,5.52,0,0,1,1.12,3.66,6.31,6.31,0,0,1-.51,2.62,4,4,0,0,1-1.47,1.77,4.12,4.12,0,0,1-2.3.62,3.86,3.86,0,0,1-3.14-1.34,5.54,5.54,0,0,1-1.13-3.66,6.39,6.39,0,0,1,.51-2.63,4,4,0,0,1,1.47-1.76,4.16,4.16,0,0,1,2.31-.63A3.85,3.85,0,0,1,245.17,537.61Zm-5.63,3.67c0,2.44.83,3.66,2.47,3.66s2.48-1.23,2.48-3.67-.82-3.66-2.46-3.66S239.54,538.83,239.54,541.28Z" style="fill:#1d1d1b"></path><path d="M260.57,537.05a3.1,3.1,0,0,1,.7,2.14v6.88H259.6v-6.64c0-1.24-.45-1.86-1.34-1.86a1.85,1.85,0,0,0-1.21.41,6.28,6.28,0,0,0-1.05,1.28v6.81h-1.67v-6.64q0-1.86-1.35-1.86a1.83,1.83,0,0,0-1.22.42,5.83,5.83,0,0,0-1,1.27v6.81h-1.68v-9.59h1.44l.14,1.4a3.22,3.22,0,0,1,2.77-1.62,2.56,2.56,0,0,1,1.52.46,2.47,2.47,0,0,1,.9,1.27,4.47,4.47,0,0,1,1.24-1.28,2.89,2.89,0,0,1,1.61-.45A2.47,2.47,0,0,1,260.57,537.05Z" style="fill:#1d1d1b"></path><path d="M271.62,537.58a6.18,6.18,0,0,1,1,3.69,7,7,0,0,1-.46,2.62,3.93,3.93,0,0,1-1.31,1.77,3.26,3.26,0,0,1-2,.62,3.16,3.16,0,0,1-2.54-1.27l-.17,1.06h-1.47V532.63l1.67-.2v5.25a3.23,3.23,0,0,1,2.71-1.42A3.05,3.05,0,0,1,271.62,537.58Zm-1.46,6.48a4.92,4.92,0,0,0,.63-2.79,5.19,5.19,0,0,0-.59-2.82,1.88,1.88,0,0,0-1.65-.86,2.72,2.72,0,0,0-2.24,1.49v4.59a3,3,0,0,0,.94.94,2.19,2.19,0,0,0,1.17.35A2,2,0,0,0,270.16,544.06Z" style="fill:#1d1d1b"></path><path d="M282.57,546.07h-1.44l-.12-1.5a3.79,3.79,0,0,1-1.26,1.31,3.43,3.43,0,0,1-1.73.4,2.54,2.54,0,0,1-2-.76,3.07,3.07,0,0,1-.71-2.16v-6.88H277v6.69a2.21,2.21,0,0,0,.35,1.4,1.41,1.41,0,0,0,1.13.4,2.86,2.86,0,0,0,2.4-1.65v-6.84h1.67Z" style="fill:#1d1d1b"></path><path d="M290.39,536.54a5.3,5.3,0,0,1,1.49.81l-.71,1.06a5.51,5.51,0,0,0-1.24-.62,4,4,0,0,0-1.25-.2,2.15,2.15,0,0,0-1.29.34,1,1,0,0,0-.47.92,1.09,1.09,0,0,0,.44.91,5.36,5.36,0,0,0,1.61.63,5.73,5.73,0,0,1,2.39,1.09,2.37,2.37,0,0,1,.79,1.89,2.45,2.45,0,0,1-1.1,2.17,4.62,4.62,0,0,1-2.68.74,5.3,5.3,0,0,1-3.62-1.25l.89-1a4.35,4.35,0,0,0,2.69.93,2.58,2.58,0,0,0,1.51-.39,1.26,1.26,0,0,0,.55-1.07,1.44,1.44,0,0,0-.2-.79,1.56,1.56,0,0,0-.69-.52,8.69,8.69,0,0,0-1.44-.49,4.84,4.84,0,0,1-2.21-1.07,2.32,2.32,0,0,1-.68-1.71,2.19,2.19,0,0,1,.45-1.35,2.82,2.82,0,0,1,1.23-.95,4.59,4.59,0,0,1,1.78-.34A5.12,5.12,0,0,1,290.39,536.54Z" style="fill:#1d1d1b"></path><path d="M299.36,545.63a3.66,3.66,0,0,1-2.15.65,2.51,2.51,0,0,1-1.9-.7,2.79,2.79,0,0,1-.68-2v-5.79H293v-1.29h1.68v-2.16l1.67-.2v2.36h2.27l-.18,1.29H296.3v5.71a1.84,1.84,0,0,0,.26,1.09,1.08,1.08,0,0,0,.89.33,2.79,2.79,0,0,0,1.27-.38Z" style="fill:#1d1d1b"></path><path d="M303.36,531.5l.74,1.4-3.85,1.56-.51-.89Zm-.6,5v9.59h-1.68v-9.59Z" style="fill:#1d1d1b"></path><path d="M313.25,536.48,310,546.07h-2l-3.31-9.59h1.82l2.51,8.09,2.49-8.09Z" style="fill:#1d1d1b"></path><path d="M322.36,541.85h-6.11a3.69,3.69,0,0,0,.8,2.32,2.32,2.32,0,0,0,1.78.75,4,4,0,0,0,1.28-.2,5.34,5.34,0,0,0,1.22-.64l.72,1a5.29,5.29,0,0,1-3.34,1.2,3.85,3.85,0,0,1-3.12-1.31,5.33,5.33,0,0,1-1.12-3.6,6.83,6.83,0,0,1,.48-2.64,4.1,4.1,0,0,1,1.38-1.81,3.49,3.49,0,0,1,2.12-.66,3.54,3.54,0,0,1,2.93,1.26,5.33,5.33,0,0,1,1,3.47A8.38,8.38,0,0,1,322.36,541.85Zm-1.62-1.35a3.5,3.5,0,0,0-.56-2.16,2,2,0,0,0-1.69-.75c-1.37,0-2.12,1-2.24,3h4.49Z" style="fill:#1d1d1b"></path><path d="M325.52,545.73a2.14,2.14,0,0,1-.54-1.56V532.63l1.67-.2v11.71a1,1,0,0,0,.14.58.55.55,0,0,0,.46.18,1.49,1.49,0,0,0,.62-.11l.44,1.17a2.7,2.7,0,0,1-1.33.32A1.93,1.93,0,0,1,325.52,545.73Z" style="fill:#1d1d1b"></path><path d="M67.13,47l-.41,3.12H61.37V67.49h-4V50.07H51.89V47Z"></path><path d="M79.78,53.53a8.9,8.9,0,0,1,1.94,6.08A10,10,0,0,1,80.83,64a6.73,6.73,0,0,1-2.55,2.92,7.26,7.26,0,0,1-4,1,6.86,6.86,0,0,1-5.43-2.21,8.88,8.88,0,0,1-2-6.11,9.93,9.93,0,0,1,.89-4.34,6.74,6.74,0,0,1,2.57-2.91,7.4,7.4,0,0,1,4-1A6.87,6.87,0,0,1,79.78,53.53Zm-8.84,6.08a7.88,7.88,0,0,0,.84,4.12,3.1,3.1,0,0,0,5.09,0,7.87,7.87,0,0,0,.84-4.1,7.77,7.77,0,0,0-.84-4.08,2.8,2.8,0,0,0-2.52-1.33C72.08,54.2,70.94,56,70.94,59.61Z"></path><path d="M94.62,51.56,94,55.24a5.72,5.72,0,0,0-1.4-.18,2.7,2.7,0,0,0-2.2,1,7.75,7.75,0,0,0-1.28,3v8.38h-3.8V51.77h3.3L89,54.86a5.59,5.59,0,0,1,1.63-2.6,3.68,3.68,0,0,1,2.47-.91A5.52,5.52,0,0,1,94.62,51.56Z"></path><path d="M106.33,51.56l-.65,3.68a5.72,5.72,0,0,0-1.4-.18,2.7,2.7,0,0,0-2.2,1,7.75,7.75,0,0,0-1.28,3v8.38H97V51.77h3.3l.36,3.09a5.59,5.59,0,0,1,1.63-2.6,3.67,3.67,0,0,1,2.47-.91A5.52,5.52,0,0,1,106.33,51.56Z"></path><path d="M120.63,60.8h-9.87A5,5,0,0,0,112,64.07a3.67,3.67,0,0,0,2.67,1,5.49,5.49,0,0,0,2-.34,9.15,9.15,0,0,0,2-1.06l1.57,2.17a9,9,0,0,1-5.82,2.11,7,7,0,0,1-5.55-2.2,8.75,8.75,0,0,1-1.94-6,10.64,10.64,0,0,1,.83-4.32,6.8,6.8,0,0,1,2.41-3,7.14,7.14,0,0,1,8.85,1,8.61,8.61,0,0,1,1.81,5.84C120.71,59.45,120.69,60,120.63,60.8Zm-3.69-2.64q0-4.14-3.06-4.14a2.6,2.6,0,0,0-2.18,1,6.06,6.06,0,0,0-.94,3.28h6.18Z"></path><path d="M144.79,45.47v22h-3.36l-.27-2a5.46,5.46,0,0,1-1.89,1.78,5.1,5.1,0,0,1-2.6.65,5,5,0,0,1-4.42-2.23,10.45,10.45,0,0,1-1.55-6.06,11.35,11.35,0,0,1,.77-4.29,6.81,6.81,0,0,1,2.22-3A5.57,5.57,0,0,1,141,53v-8Zm-5.26,19.09A5.11,5.11,0,0,0,141,63V55.84a5.25,5.25,0,0,0-1.38-1.25,3.05,3.05,0,0,0-1.62-.42,2.7,2.7,0,0,0-2.39,1.36,7.54,7.54,0,0,0-.88,4.08,8.34,8.34,0,0,0,.78,4.18,2.47,2.47,0,0,0,2.25,1.26A3.25,3.25,0,0,0,139.53,64.56Z"></path><path d="M162.17,60.8h-9.86a5,5,0,0,0,1.18,3.27,3.71,3.71,0,0,0,2.68,1,5.53,5.53,0,0,0,2-.34,9.1,9.1,0,0,0,2-1.06l1.58,2.17a9.06,9.06,0,0,1-5.83,2.11,7,7,0,0,1-5.54-2.2,8.7,8.7,0,0,1-2-6,10.64,10.64,0,0,1,.84-4.32,6.78,6.78,0,0,1,2.4-3,7.15,7.15,0,0,1,8.86,1,8.61,8.61,0,0,1,1.81,5.84C162.26,59.45,162.23,60,162.17,60.8Zm-3.68-2.64q0-4.14-3.06-4.14a2.62,2.62,0,0,0-2.19,1,6.07,6.07,0,0,0-.93,3.28h6.18Z"></path><path d="M186.33,45.47v22H183l-.26-2a5.64,5.64,0,0,1-1.89,1.78,5.52,5.52,0,0,1-7-1.58,10.46,10.46,0,0,1-1.54-6.06,11.16,11.16,0,0,1,.77-4.29,6.72,6.72,0,0,1,2.21-3,5.49,5.49,0,0,1,3.35-1.07,5.43,5.43,0,0,1,3.95,1.7v-8Zm-5.26,19.09A5.13,5.13,0,0,0,182.53,63V55.84a5.58,5.58,0,0,0-1.38-1.25,3.1,3.1,0,0,0-1.62-.42,2.7,2.7,0,0,0-2.39,1.36,7.54,7.54,0,0,0-.88,4.08,8.47,8.47,0,0,0,.77,4.18,2.5,2.5,0,0,0,2.26,1.26A3.22,3.22,0,0,0,181.07,64.56Z"></path><path d="M203.72,60.8h-9.87A5,5,0,0,0,195,64.07a3.69,3.69,0,0,0,2.67,1,5.59,5.59,0,0,0,2-.34,9.34,9.34,0,0,0,2-1.06l1.57,2.17a9,9,0,0,1-5.82,2.11,7,7,0,0,1-5.54-2.2,8.7,8.7,0,0,1-1.95-6,10.81,10.81,0,0,1,.83-4.32,6.8,6.8,0,0,1,2.41-3,7.14,7.14,0,0,1,8.85,1,8.62,8.62,0,0,1,1.82,5.84C203.81,59.45,203.78,60,203.72,60.8ZM200,58.16Q200,54,197,54a2.6,2.6,0,0,0-2.18,1,6.06,6.06,0,0,0-.94,3.28H200Z"></path><path d="M217.77,53.19l-1.48,2.23a7.42,7.42,0,0,0-3.95-1.28,3.13,3.13,0,0,0-1.76.43,1.35,1.35,0,0,0-.62,1.15,1.43,1.43,0,0,0,.27.89,2.39,2.39,0,0,0,1,.67,16.65,16.65,0,0,0,2.07.7,9.11,9.11,0,0,1,3.79,1.81,4.05,4.05,0,0,1,1.23,3.15,4.21,4.21,0,0,1-1.9,3.67,8.11,8.11,0,0,1-4.73,1.32,10.11,10.11,0,0,1-3.52-.59,8.59,8.59,0,0,1-2.75-1.64l1.9-2.14a7,7,0,0,0,4.28,1.55,3.63,3.63,0,0,0,2-.51,1.59,1.59,0,0,0,.76-1.39,1.85,1.85,0,0,0-.29-1.09,2.32,2.32,0,0,0-1-.71,20.78,20.78,0,0,0-2.27-.76,7.55,7.55,0,0,1-3.54-1.83,4,4,0,0,1-1.13-2.92,3.93,3.93,0,0,1,.76-2.35A5,5,0,0,1,209,51.92a7.9,7.9,0,0,1,3.17-.6A8.8,8.8,0,0,1,217.77,53.19Z"></path><path d="M230.37,66.74a6,6,0,0,1-1.85.9,7.83,7.83,0,0,1-2.1.29,4.67,4.67,0,0,1-3.52-1.32,5.42,5.42,0,0,1-1.2-3.82V54.5h-2.47V51.77h2.47V48.29l3.8-.45v3.93h3.66l-.39,2.73H225.5v8.2a2.7,2.7,0,0,0,.4,1.67,1.54,1.54,0,0,0,1.26.5,4,4,0,0,0,1.88-.56Z"></path><path d="M236.13,44.47a2.27,2.27,0,0,1,.66,1.65,2.19,2.19,0,0,1-.66,1.63,2.38,2.38,0,0,1-1.74.66,2.31,2.31,0,0,1-1.71-.66,2.16,2.16,0,0,1-.67-1.63,2.24,2.24,0,0,1,.67-1.65,2.28,2.28,0,0,1,1.71-.67A2.35,2.35,0,0,1,236.13,44.47Zm.19,7.3V67.49h-3.81V51.77Z"></path><path d="M241.77,66.88a4.12,4.12,0,0,1-1-3V45.47l3.8-.42V63.77c0,.74.3,1.1.89,1.1a2.73,2.73,0,0,0,.89-.15l.81,2.68a6.08,6.08,0,0,1-2.53.53A3.8,3.8,0,0,1,241.77,66.88Z"></path><path d="M261.42,64.68a1.77,1.77,0,0,0,.9.67l-.8,2.52a4.8,4.8,0,0,1-2.18-.65,3.36,3.36,0,0,1-1.3-1.63,5,5,0,0,1-2,1.76,6.1,6.1,0,0,1-2.69.58,5.09,5.09,0,0,1-3.72-1.33,4.7,4.7,0,0,1-1.36-3.51,4.53,4.53,0,0,1,1.85-3.91,8.94,8.94,0,0,1,5.31-1.35h2v-.89a2.71,2.71,0,0,0-.7-2.13,3.41,3.41,0,0,0-2.24-.61,13.12,13.12,0,0,0-4.16.84l-.9-2.59a16,16,0,0,1,5.71-1.13q6,0,6,5.41v6.6A2.51,2.51,0,0,0,261.42,64.68Zm-4-1.44V60.06h-1.58q-3.67,0-3.68,2.73a2.56,2.56,0,0,0,.56,1.76,2.16,2.16,0,0,0,1.67.62A3.35,3.35,0,0,0,257.39,63.24Z"></path><path d="M272.87,67.9V69a3.55,3.55,0,0,1,2.22.88,2.52,2.52,0,0,1,.72,1.86,2.82,2.82,0,0,1-1.13,2.36,4.68,4.68,0,0,1-2.94.88,6.33,6.33,0,0,1-1.72-.23,4.15,4.15,0,0,1-1.34-.61l.92-1.87a3.91,3.91,0,0,0,1.87.48c1,0,1.46-.34,1.46-1a.9.9,0,0,0-.64-.87,6,6,0,0,0-2.06-.26l.35-2.83a6.54,6.54,0,0,1-4.31-2.63,9,9,0,0,1-1.54-5.42,10.43,10.43,0,0,1,.89-4.41,6.78,6.78,0,0,1,2.56-3,7,7,0,0,1,3.89-1.06,8.07,8.07,0,0,1,2.78.45,7.32,7.32,0,0,1,2.33,1.39l-1.69,2.29a6.39,6.39,0,0,0-1.55-.86,4.72,4.72,0,0,0-1.63-.27c-2.36,0-3.54,1.8-3.54,5.38a6.6,6.6,0,0,0,.92,3.94,3.12,3.12,0,0,0,2.62,1.2,4.24,4.24,0,0,0,1.53-.27,9.47,9.47,0,0,0,1.65-.86l1.69,2.41A7.69,7.69,0,0,1,272.87,67.9Z"></path><path d="M291.55,64.68a1.8,1.8,0,0,0,.91.67l-.81,2.52a4.8,4.8,0,0,1-2.18-.65,3.34,3.34,0,0,1-1.29-1.63,5,5,0,0,1-2,1.76,6.07,6.07,0,0,1-2.69.58,5.08,5.08,0,0,1-3.71-1.33,4.71,4.71,0,0,1-1.37-3.51,4.54,4.54,0,0,1,1.86-3.91,8.88,8.88,0,0,1,5.3-1.35h2v-.89a2.71,2.71,0,0,0-.7-2.13,3.39,3.39,0,0,0-2.24-.61,13.12,13.12,0,0,0-4.16.84l-.89-2.59a15.92,15.92,0,0,1,5.7-1.13q6,0,6,5.41v6.6A2.52,2.52,0,0,0,291.55,64.68ZM285.9,48.13a11.85,11.85,0,0,1-1-.61,7,7,0,0,0-.72-.43,1.19,1.19,0,0,0-.56-.14,1.25,1.25,0,0,0-.85.31,4,4,0,0,0-.73,1l-2-1A6.53,6.53,0,0,1,281.43,45a2.92,2.92,0,0,1,2.08-.85,2.62,2.62,0,0,1,1.11.21,9.56,9.56,0,0,1,1.09.59,3.82,3.82,0,0,0,.67.43,1.34,1.34,0,0,0,.58.14,1.21,1.21,0,0,0,.8-.3,3.92,3.92,0,0,0,.77-1l2,1A6,6,0,0,1,289,47.53a3,3,0,0,1-2.05.82A2.61,2.61,0,0,1,285.9,48.13Zm1.62,15.11V60.06H286q-3.69,0-3.69,2.73a2.52,2.52,0,0,0,.57,1.76,2.14,2.14,0,0,0,1.66.62A3.35,3.35,0,0,0,287.52,63.24Z"></path><path d="M307.72,53.53a9,9,0,0,1,1.94,6.08,10,10,0,0,1-.89,4.36,6.75,6.75,0,0,1-2.56,2.92,7.21,7.21,0,0,1-3.95,1,6.88,6.88,0,0,1-5.44-2.21,8.93,8.93,0,0,1-2-6.11,10.07,10.07,0,0,1,.89-4.34,6.81,6.81,0,0,1,2.57-2.91,7.44,7.44,0,0,1,4-1A6.87,6.87,0,0,1,307.72,53.53Zm-8.85,6.08a7.87,7.87,0,0,0,.85,4.12,3.09,3.09,0,0,0,5.08,0,7.76,7.76,0,0,0,.85-4.1,7.66,7.66,0,0,0-.85-4.08,2.77,2.77,0,0,0-2.51-1.33C300,54.2,298.87,56,298.87,59.61Z"></path><path d="M136.75,204.12H48.42v-1.8a32.47,32.47,0,0,1,32.43-32.43h23.47a32.47,32.47,0,0,1,32.43,32.43Zm-87.12-1.21h85.91v-.59a31.26,31.26,0,0,0-31.22-31.22H80.85a31.26,31.26,0,0,0-31.22,31.22Z" style="fill:#1d1d1b"></path></g></g></svg>